<?xml version="1.0" encoding="utf-8"?>
<!-- Generator: Adobe Illustrator 25.4.1, SVG Export Plug-In . SVG Version: 6.00 Build 0)  -->
<svg version="1.1" id="Layer_1" xmlns="http://www.w3.org/2000/svg" xmlns:xlink="http://www.w3.org/1999/xlink" x="0px" y="0px"
	 viewBox="0 0 70.7 70.8" style="enable-background:new 0 0 70.7 70.8;" xml:space="preserve">
<style type="text/css">
	.st0{enable-background:new    ;}
	.st1{fill:url(#SVGID_1_);}
	.st2{fill:url(#SVGID_00000091704210935893667510000017277798185334985374_);}
	.st3{fill:url(#SVGID_00000083071119122519041670000003239443034423275669_);}
	.st4{fill:url(#SVGID_00000163776894014145055370000000533560007355532725_);}
	.st5{fill:url(#SVGID_00000054238190029680881460000010693291919935873948_);}
	.st6{opacity:0.7;fill:url(#SVGID_00000073000586037896804240000002447826826858434191_);}
</style>
<g class="st0">
	<linearGradient id="SVGID_1_" gradientUnits="userSpaceOnUse" x1="31.0797" y1="42.7756" x2="61.3643" y2="6.5528">
		<stop  offset="0" style="stop-color:#FFFF54"/>
		<stop  offset="1.050391e-02" style="stop-color:#F7EE50"/>
		<stop  offset="3.712391e-02" style="stop-color:#E6C748"/>
		<stop  offset="6.578582e-02" style="stop-color:#D7A641"/>
		<stop  offset="9.640311e-02" style="stop-color:#CB8C3B"/>
		<stop  offset="0.1297" style="stop-color:#C27737"/>
		<stop  offset="0.167" style="stop-color:#BB6833"/>
		<stop  offset="0.2116" style="stop-color:#B76032"/>
		<stop  offset="0.2826" style="stop-color:#B65D31"/>
		<stop  offset="0.2831" style="stop-color:#B75F31"/>
		<stop  offset="0.2937" style="stop-color:#C87E39"/>
		<stop  offset="0.3055" style="stop-color:#D7993F"/>
		<stop  offset="0.319" style="stop-color:#E3AF44"/>
		<stop  offset="0.3349" style="stop-color:#EDC048"/>
		<stop  offset="0.3544" style="stop-color:#F3CB4B"/>
		<stop  offset="0.3819" style="stop-color:#F7D24D"/>
		<stop  offset="0.4581" style="stop-color:#F8D44D"/>
		<stop  offset="0.477" style="stop-color:#EEC149"/>
		<stop  offset="0.5187" style="stop-color:#DA9D40"/>
		<stop  offset="0.5608" style="stop-color:#CA8139"/>
		<stop  offset="0.6028" style="stop-color:#BF6D35"/>
		<stop  offset="0.6448" style="stop-color:#B86132"/>
		<stop  offset="0.6867" style="stop-color:#B65D31"/>
		<stop  offset="0.6963" style="stop-color:#B86132"/>
		<stop  offset="0.7207" style="stop-color:#BC6733"/>
		<stop  offset="0.766" style="stop-color:#C97A38"/>
		<stop  offset="0.8235" style="stop-color:#D48C3C"/>
		<stop  offset="0.8859" style="stop-color:#DB963F"/>
		<stop  offset="0.9616" style="stop-color:#DD9940"/>
		<stop  offset="0.9762" style="stop-color:#E6AC44"/>
		<stop  offset="1" style="stop-color:#F8D44D"/>
	</linearGradient>
	<path class="st1" d="M60.2,7C60.2,7,60.2,7,60.2,7c0-0.1,0-0.1,0-0.1c0-0.1,0-0.2,0-0.2c0-0.1,0-0.1,0-0.2c0,0,0,0,0-0.1
		c0,0,0,0,0,0c0,0,0-0.1,0-0.1c0-0.1,0-0.1-0.1-0.2c0-0.1,0-0.1-0.1-0.2c0,0,0,0,0-0.1c0,0,0,0,0,0c0,0,0,0,0-0.1
		c0,0-0.1-0.1-0.1-0.1c0,0-0.1-0.1-0.1-0.1c0,0,0,0-0.1-0.1l-5-4.9c0.1,0.1,0.2,0.2,0.3,0.4c0,0,0,0,0,0c0.1,0.1,0.2,0.3,0.2,0.5
		c0,0,0,0,0,0c0.1,0.2,0.1,0.4,0.1,0.5c0,0,0,0,0,0.1c0,0.2,0,0.4,0,0.6l-1.7,16.5l5,4.9l1.7-16.5c0-0.1,0-0.1,0-0.2
		c0-0.1,0-0.2,0-0.3C60.2,7.1,60.2,7.1,60.2,7z"/>
	
		<linearGradient id="SVGID_00000078743234046029810030000001267683675658363299_" gradientUnits="userSpaceOnUse" x1="4.622" y1="65.882" x2="70.1598" y2="15.7679">
		<stop  offset="1.189230e-02" style="stop-color:#FFFF54"/>
		<stop  offset="2.123355e-02" style="stop-color:#F5E24E"/>
		<stop  offset="3.226719e-02" style="stop-color:#ECC749"/>
		<stop  offset="4.438196e-02" style="stop-color:#E6B345"/>
		<stop  offset="5.796051e-02" style="stop-color:#E1A442"/>
		<stop  offset="7.419629e-02" style="stop-color:#DE9C41"/>
		<stop  offset="0.1001" style="stop-color:#DD9940"/>
		<stop  offset="0.1431" style="stop-color:#D0863B"/>
		<stop  offset="0.2147" style="stop-color:#B65D31"/>
		<stop  offset="0.2814" style="stop-color:#B65D31"/>
		<stop  offset="0.6867" style="stop-color:#B65D31"/>
		<stop  offset="0.6963" style="stop-color:#B86132"/>
		<stop  offset="0.7207" style="stop-color:#BC6733"/>
		<stop  offset="0.7476" style="stop-color:#C97E39"/>
		<stop  offset="0.7912" style="stop-color:#DA9D40"/>
		<stop  offset="0.8369" style="stop-color:#E7B546"/>
		<stop  offset="0.885" style="stop-color:#F1C74A"/>
		<stop  offset="0.937" style="stop-color:#F6D14C"/>
		<stop  offset="1" style="stop-color:#F8D44D"/>
	</linearGradient>
	<path style="fill:url(#SVGID_00000078743234046029810030000001267683675658363299_);" d="M20.1,55.5L3.2,59.2
		c-0.6,0.1-1.1,0.1-1.5,0c-0.4-0.1-0.8-0.3-1-0.5l5,4.9c0.3,0.3,0.6,0.5,1,0.5c0.4,0.1,0.9,0.1,1.5,0l16.9-3.8L20.1,55.5z"/>
	
		<linearGradient id="SVGID_00000059303089091971335180000003835323997920962178_" gradientUnits="userSpaceOnUse" x1="12.3837" y1="83.4908" x2="75.1303" y2="23.7133">
		<stop  offset="0" style="stop-color:#FFFF54"/>
		<stop  offset="1.050391e-02" style="stop-color:#F7EE50"/>
		<stop  offset="3.712391e-02" style="stop-color:#E6C748"/>
		<stop  offset="6.578582e-02" style="stop-color:#D7A641"/>
		<stop  offset="9.640311e-02" style="stop-color:#CB8C3B"/>
		<stop  offset="0.1297" style="stop-color:#C27737"/>
		<stop  offset="0.167" style="stop-color:#BB6833"/>
		<stop  offset="0.2116" style="stop-color:#B76032"/>
		<stop  offset="0.2826" style="stop-color:#B65D31"/>
		<stop  offset="0.2831" style="stop-color:#B75F31"/>
		<stop  offset="0.2937" style="stop-color:#C87E39"/>
		<stop  offset="0.3055" style="stop-color:#D7993F"/>
		<stop  offset="0.319" style="stop-color:#E3AF44"/>
		<stop  offset="0.3349" style="stop-color:#EDC048"/>
		<stop  offset="0.3544" style="stop-color:#F3CB4B"/>
		<stop  offset="0.3819" style="stop-color:#F7D24D"/>
		<stop  offset="0.4581" style="stop-color:#F8D44D"/>
		<stop  offset="0.4746" style="stop-color:#EEC149"/>
		<stop  offset="0.5111" style="stop-color:#DA9D40"/>
		<stop  offset="0.5478" style="stop-color:#CA8139"/>
		<stop  offset="0.5845" style="stop-color:#BF6D35"/>
		<stop  offset="0.6212" style="stop-color:#B86132"/>
		<stop  offset="0.6578" style="stop-color:#B65D31"/>
		<stop  offset="0.7046" style="stop-color:#B86132"/>
		<stop  offset="0.8242" style="stop-color:#BC6733"/>
		<stop  offset="0.9616" style="stop-color:#DD9940"/>
		<stop  offset="0.9762" style="stop-color:#E6AC44"/>
		<stop  offset="1" style="stop-color:#F8D44D"/>
	</linearGradient>
	<path style="fill:url(#SVGID_00000059303089091971335180000003835323997920962178_);" d="M70.7,33.4c0-0.1,0-0.2,0-0.3
		c0-0.1,0-0.1,0-0.2c0,0,0,0,0,0c0,0,0,0,0-0.1c0-0.1,0-0.2,0-0.2c0-0.1,0-0.1,0-0.2c0-0.1,0-0.1-0.1-0.2c0,0,0-0.1,0-0.1
		c0,0,0,0,0,0c0,0,0,0,0,0c0-0.1-0.1-0.1-0.1-0.2c0,0-0.1-0.1-0.1-0.1c0,0-0.1-0.1-0.1-0.1c0,0-0.1-0.1-0.1-0.1c0,0,0,0-0.1-0.1
		l-5-4.9c0.2,0.2,0.3,0.4,0.4,0.7c0,0,0,0,0,0c0.1,0.2,0.2,0.5,0.2,0.8c0,0,0,0,0,0c0,0.3,0,0.6,0,0.9c0,0,0,0,0,0
		c-0.1,0.3-0.1,0.6-0.3,0.9c0,0.1-0.1,0.2-0.1,0.3c-0.1,0.2-0.2,0.5-0.3,0.7c0,0,0,0.1,0,0.1c-0.2,0.3-0.4,0.6-0.6,0.9c0,0,0,0,0,0
		c-0.2,0.3-0.5,0.6-0.8,0.9c0,0,0,0,0,0c-0.3,0.3-0.6,0.5-1,0.8l-17,10.9l5,4.9l17-10.9c0,0,0,0,0,0c0.1-0.1,0.2-0.1,0.2-0.2
		c0.1-0.1,0.2-0.1,0.2-0.2C68,38,68,38,68.1,37.9c0.1-0.1,0.1-0.1,0.2-0.2c0,0,0.1,0,0.1-0.1c0,0,0,0,0,0c0,0,0.1-0.1,0.1-0.1
		c0.1-0.1,0.1-0.1,0.2-0.2c0.1-0.1,0.1-0.1,0.2-0.2C69,37.1,69,37,69.1,37c0-0.1,0.1-0.1,0.1-0.2c0,0,0,0,0,0c0,0,0,0,0,0
		c0.1-0.1,0.1-0.2,0.2-0.3c0.1-0.1,0.2-0.2,0.2-0.3c0.1-0.1,0.1-0.2,0.2-0.3c0,0,0-0.1,0-0.1c0,0,0-0.1,0-0.1
		c0.1-0.2,0.2-0.4,0.3-0.6c0-0.1,0.1-0.2,0.1-0.3c0.1-0.3,0.2-0.6,0.3-0.9c0,0,0,0,0,0c0,0,0,0,0,0C70.7,33.7,70.7,33.6,70.7,33.4z"
		/>
	
		<linearGradient id="SVGID_00000031920674543035808990000002934145796686638263_" gradientUnits="userSpaceOnUse" x1="28.0424" y1="71.0212" x2="106.624" y2="-6.5707">
		<stop  offset="0" style="stop-color:#FFFF54"/>
		<stop  offset="1.050391e-02" style="stop-color:#F7EE50"/>
		<stop  offset="3.712391e-02" style="stop-color:#E6C748"/>
		<stop  offset="6.578582e-02" style="stop-color:#D7A641"/>
		<stop  offset="9.640311e-02" style="stop-color:#CB8C3B"/>
		<stop  offset="0.1297" style="stop-color:#C27737"/>
		<stop  offset="0.167" style="stop-color:#BB6833"/>
		<stop  offset="0.2116" style="stop-color:#B76032"/>
		<stop  offset="0.2826" style="stop-color:#B65D31"/>
		<stop  offset="0.2831" style="stop-color:#B75F31"/>
		<stop  offset="0.2937" style="stop-color:#C87E39"/>
		<stop  offset="0.3055" style="stop-color:#D7993F"/>
		<stop  offset="0.319" style="stop-color:#E3AF44"/>
		<stop  offset="0.3349" style="stop-color:#EDC048"/>
		<stop  offset="0.3544" style="stop-color:#F3CB4B"/>
		<stop  offset="0.3819" style="stop-color:#F7D24D"/>
		<stop  offset="0.4581" style="stop-color:#F8D44D"/>
		<stop  offset="0.477" style="stop-color:#EEC149"/>
		<stop  offset="0.5187" style="stop-color:#DA9D40"/>
		<stop  offset="0.5608" style="stop-color:#CA8139"/>
		<stop  offset="0.6028" style="stop-color:#BF6D35"/>
		<stop  offset="0.6448" style="stop-color:#B86132"/>
		<stop  offset="0.6867" style="stop-color:#B65D31"/>
		<stop  offset="0.6963" style="stop-color:#B86132"/>
		<stop  offset="0.7207" style="stop-color:#BC6733"/>
		<stop  offset="0.766" style="stop-color:#C97A38"/>
		<stop  offset="0.8235" style="stop-color:#D48C3C"/>
		<stop  offset="0.8859" style="stop-color:#DB963F"/>
		<stop  offset="0.9616" style="stop-color:#DD9940"/>
		<stop  offset="0.9762" style="stop-color:#E6AC44"/>
		<stop  offset="1" style="stop-color:#F8D44D"/>
	</linearGradient>
	<path style="fill:url(#SVGID_00000031920674543035808990000002934145796686638263_);" d="M45.4,44.5L36.2,62
		c-0.2,0.3-0.4,0.6-0.6,0.9c0,0,0,0,0,0c-0.2,0.3-0.4,0.6-0.7,0.8c0,0,0,0,0,0c-0.2,0.2-0.5,0.5-0.7,0.7c0,0,0,0,0,0
		c-0.3,0.2-0.5,0.4-0.8,0.6c0,0,0,0,0,0c-0.3,0.2-0.5,0.3-0.8,0.4c0,0,0,0,0,0c-0.2,0.1-0.4,0.1-0.6,0.2c-0.2,0.1-0.4,0.1-0.6,0.1
		c-0.1,0-0.2,0-0.3,0c-0.3,0-0.6,0-0.9-0.1c-0.4-0.1-0.7-0.3-1-0.6l5,4.9c0.3,0.3,0.6,0.5,1,0.6c0.3,0.1,0.6,0.1,0.9,0.1
		c0.1,0,0.2,0,0.3,0c0.2,0,0.4-0.1,0.6-0.1c0.1,0,0.1,0,0.1,0c0.1,0,0.3-0.1,0.4-0.2c0,0,0,0,0,0c0,0,0,0,0,0c0.1,0,0.2-0.1,0.3-0.1
		c0.1,0,0.2-0.1,0.3-0.2c0.1,0,0.2-0.1,0.3-0.2c0,0,0,0,0,0c0,0,0,0,0,0c0.1,0,0.2-0.1,0.2-0.1c0.1-0.1,0.2-0.1,0.2-0.2
		c0.1-0.1,0.1-0.1,0.2-0.2c0,0,0.1-0.1,0.1-0.1c0,0,0,0,0,0c0,0,0,0,0.1,0c0.1-0.1,0.1-0.1,0.2-0.2c0.1-0.1,0.1-0.1,0.2-0.2
		c0.1-0.1,0.1-0.1,0.2-0.2c0,0,0.1-0.1,0.1-0.1c0,0,0,0,0,0c0,0,0.1-0.1,0.1-0.1c0.1-0.1,0.1-0.1,0.2-0.2c0.1-0.1,0.1-0.2,0.2-0.2
		c0.1-0.1,0.1-0.2,0.2-0.3c0,0,0,0,0,0c0,0,0,0,0,0c0.1-0.1,0.2-0.2,0.2-0.3c0.1-0.1,0.2-0.3,0.3-0.4c0-0.1,0.1-0.1,0.1-0.2
		l9.2-17.5L45.4,44.5z"/>
	
		<linearGradient id="SVGID_00000096777077430679733330000006866919699134275516_" gradientUnits="userSpaceOnUse" x1="16.4227" y1="12.6211" x2="48.6689" y2="61.8389">
		<stop  offset="0" style="stop-color:#FFFF7C"/>
		<stop  offset="1" style="stop-color:#F1B747"/>
	</linearGradient>
	<path style="fill:url(#SVGID_00000096777077430679733330000006866919699134275516_);" d="M64.7,26.3l-11.2-7.1l1.7-16.5
		c0.2-1.5-0.6-2.5-1.7-2.7c-1.1-0.3-2.7,0.2-4.1,1.4L33.2,14.6l-15.9,0.8c-2.9,0.1-6.2,3.7-5.9,6.4L12.6,37L1.1,53.9
		c-1.7,2.5-1.3,4.9,0.6,5.4c0.4,0.1,0.9,0.1,1.5,0l16.9-3.8l8.8,9.7c0.3,0.3,0.7,0.5,1.1,0.6c1.9,0.4,4.8-1.2,6.1-3.8l9.2-17.5
		l17-10.9C65.5,31.6,66.8,27.6,64.7,26.3z"/>
	
		<linearGradient id="SVGID_00000062870441357179585450000017054950806252722064_" gradientUnits="userSpaceOnUse" x1="13.4499" y1="15.8369" x2="52.4848" y2="54.0233">
		<stop  offset="7.574820e-02" style="stop-color:#FFFFFF"/>
		<stop  offset="1" style="stop-color:#FFFFFF;stop-opacity:0"/>
	</linearGradient>
	<path style="opacity:0.7;fill:url(#SVGID_00000062870441357179585450000017054950806252722064_);" d="M64.7,26.3l-11.2-7.1
		l1.7-16.5c0.2-1.5-0.6-2.5-1.7-2.7c-1.1-0.3-2.7,0.2-4.1,1.4L33.2,14.6l-15.9,0.8c-2.9,0.1-6.2,3.7-5.9,6.4L12.6,37L1.1,53.9
		c-1.7,2.5-1.3,4.9,0.6,5.4c0.4,0.1,0.9,0.1,1.5,0l16.9-3.8l8.8,9.7c0.3,0.3,0.7,0.5,1.1,0.6c1.9,0.4,4.8-1.2,6.1-3.8l9.2-17.5
		l17-10.9C65.5,31.6,66.8,27.6,64.7,26.3z M62.2,33.3l-17.1,11l-9.2,17.6c-1.3,2.4-3.6,3.7-5.2,3.7c-0.2,0-0.4,0-0.6-0.1
		c-0.4-0.1-0.7-0.3-0.9-0.5l-9-9.9L3.1,58.9C2.9,58.9,2.6,59,2.4,59c-0.2,0-0.4,0-0.6-0.1c-0.6-0.1-1-0.5-1.2-1.1
		c-0.4-1-0.1-2.4,0.9-3.7L13,37.1l-1.3-15.3c-0.1-1.1,0.5-2.6,1.5-3.8c1.2-1.3,2.7-2.2,4-2.3L33.4,15L49.6,1.7
		c1.1-0.9,2.2-1.4,3.2-1.4c0.2,0,0.4,0,0.6,0.1c1,0.2,1.5,1.1,1.4,2.3L53,19.4l11.4,7.2c0.7,0.4,0.8,1.1,0.8,1.7
		C65.3,29.7,64.2,31.9,62.2,33.3z"/>
</g>
</svg>
