<?xml version="1.0" encoding="utf-8"?>
<!-- Generator: Adobe Illustrator 25.4.1, SVG Export Plug-In . SVG Version: 6.00 Build 0)  -->
<svg version="1.1" id="Layer_1" xmlns="http://www.w3.org/2000/svg" xmlns:xlink="http://www.w3.org/1999/xlink" x="0px" y="0px"
	 viewBox="0 0 66.2 62.7" style="enable-background:new 0 0 66.2 62.7;" xml:space="preserve">
<style type="text/css">
	.st0{enable-background:new    ;}
	.st1{fill:url(#SVGID_1_);}
	.st2{fill:url(#SVGID_00000085940693776080055070000011294710985624554419_);}
	.st3{opacity:0.7;fill:url(#SVGID_00000129200664588069630340000005226317880680549801_);}
	.st4{fill:url(#SVGID_00000037682352134623125170000006743927528383733377_);}
</style>
<g class="st0">
	<linearGradient id="SVGID_1_" gradientUnits="userSpaceOnUse" x1="-1.8691" y1="30.0004" x2="59.8956" y2="56.6364">
		<stop  offset="0" style="stop-color:#31FFAE"/>
		<stop  offset="1.108134e-02" style="stop-color:#2BF3A6"/>
		<stop  offset="3.938442e-02" style="stop-color:#1EDA96"/>
		<stop  offset="6.524831e-02" style="stop-color:#17CB8C"/>
		<stop  offset="8.626740e-02" style="stop-color:#14C689"/>
		<stop  offset="0.1365" style="stop-color:#0EB17F"/>
		<stop  offset="0.2073" style="stop-color:#089C74"/>
		<stop  offset="0.285" style="stop-color:#038C6D"/>
		<stop  offset="0.3743" style="stop-color:#018368"/>
		<stop  offset="0.5009" style="stop-color:#008067"/>
		<stop  offset="0.6373" style="stop-color:#018368"/>
		<stop  offset="0.7295" style="stop-color:#038C6D"/>
		<stop  offset="0.8085" style="stop-color:#089B74"/>
		<stop  offset="0.8798" style="stop-color:#0EB07E"/>
		<stop  offset="0.9337" style="stop-color:#14C689"/>
		<stop  offset="0.9497" style="stop-color:#17CC8B"/>
		<stop  offset="0.9706" style="stop-color:#21DC92"/>
		<stop  offset="0.9941" style="stop-color:#31F79C"/>
		<stop  offset="1" style="stop-color:#36FF9F"/>
	</linearGradient>
	<path class="st1" d="M58.4,52.6c0.1-0.2,0.3-0.4,0.4-0.6c0.2-0.3,0.4-0.7,0.7-1c0.1-0.2,0.2-0.3,0.3-0.5c0.3-0.5,0.6-1,0.8-1.6
		l3.4-7.1c-0.3,0.5-0.5,1.1-0.8,1.6c-0.1,0.2-0.2,0.3-0.3,0.5c-0.2,0.3-0.4,0.7-0.7,1c-0.1,0.2-0.3,0.4-0.4,0.6
		c-0.2,0.3-0.4,0.6-0.7,0.9c-0.2,0.2-0.3,0.4-0.5,0.6c-0.2,0.3-0.5,0.5-0.7,0.8c-0.2,0.2-0.3,0.4-0.5,0.5c-0.3,0.2-0.5,0.5-0.8,0.7
		c-0.2,0.2-0.4,0.3-0.6,0.5c-0.3,0.2-0.6,0.5-0.9,0.7c-0.2,0.1-0.4,0.3-0.6,0.4c-0.4,0.2-0.7,0.5-1.1,0.7c-0.2,0.1-0.3,0.2-0.5,0.3
		c-0.5,0.3-1.1,0.6-1.6,0.9c-0.1,0-0.2,0.1-0.3,0.1c-0.5,0.2-1,0.5-1.4,0.7c-0.2,0.1-0.4,0.2-0.6,0.2c-0.4,0.2-0.8,0.3-1.2,0.4
		c-0.2,0.1-0.5,0.2-0.7,0.2c-0.4,0.1-0.8,0.2-1.2,0.3c-0.3,0.1-0.5,0.1-0.8,0.2c-0.4,0.1-0.8,0.2-1.2,0.3c-0.3,0.1-0.6,0.1-0.8,0.2
		c-0.4,0.1-0.8,0.1-1.2,0.2c-0.3,0-0.6,0.1-0.8,0.1c-0.4,0-0.9,0.1-1.3,0.1c-0.3,0-0.5,0-0.8,0c-0.5,0-1,0-1.5,0c-0.2,0-0.5,0-0.7,0
		c-0.7,0-1.5-0.1-2.2-0.1C19.2,53.9,4.4,40.2,3.5,25C3.2,20.9,4,17.1,5.6,13.7l-3.4,7.1C0.6,24.2-0.2,28,0,32.1
		C1,47.4,15.8,61,33.1,62.5c0.8,0.1,1.5,0.1,2.2,0.1c0.2,0,0.5,0,0.7,0c0.4,0,0.8,0,1.3,0c0.1,0,0.1,0,0.2,0c0.3,0,0.5,0,0.8,0
		c0.4,0,0.9-0.1,1.3-0.1c0.3,0,0.6-0.1,0.8-0.1c0.4-0.1,0.8-0.1,1.2-0.2c0.3,0,0.6-0.1,0.8-0.2c0.4-0.1,0.8-0.2,1.2-0.3
		c0.3-0.1,0.5-0.1,0.8-0.2c0.4-0.1,0.8-0.2,1.2-0.3c0.2-0.1,0.5-0.2,0.7-0.2c0.4-0.1,0.8-0.3,1.2-0.4c0.2-0.1,0.4-0.2,0.6-0.2
		c0.5-0.2,1-0.4,1.4-0.7c0.1,0,0.2-0.1,0.3-0.1c0.6-0.3,1.1-0.6,1.6-0.9c0.2-0.1,0.3-0.2,0.5-0.3c0.4-0.2,0.7-0.5,1.1-0.7
		c0.2-0.1,0.4-0.3,0.6-0.4c0.3-0.2,0.6-0.5,0.9-0.7c0.2-0.2,0.4-0.3,0.6-0.5c0.3-0.2,0.5-0.5,0.8-0.7c0.2-0.2,0.4-0.3,0.5-0.5
		c0.2-0.3,0.5-0.5,0.7-0.8c0.2-0.2,0.3-0.4,0.5-0.6C57.9,53.2,58.1,52.9,58.4,52.6z"/>
	
		<linearGradient id="SVGID_00000159467869231990647590000000805065005671645083_" gradientUnits="userSpaceOnUse" x1="22.5609" y1="63.6513" x2="46.9784" y2="-7.7652">
		<stop  offset="2.370300e-04" style="stop-color:#08BF8C"/>
		<stop  offset="0.4107" style="stop-color:#20E5A0"/>
		<stop  offset="0.6729" style="stop-color:#31FFAE"/>
		<stop  offset="0.9897" style="stop-color:#6EFFCD"/>
	</linearGradient>
	<path style="fill:url(#SVGID_00000159467869231990647590000000805065005671645083_);" d="M66.2,30.6c-0.9-15.3-15.7-28.9-33-30.4
		C15.8-1.4,2.6,9.7,3.5,25c0.9,15.3,15.7,28.9,33,30.4C53.8,56.9,67.1,45.8,66.2,30.6z"/>
	
		<linearGradient id="SVGID_00000047762449408571417340000010978183761401927085_" gradientUnits="userSpaceOnUse" x1="40.7253" y1="-3.0062" x2="28.9755" y2="58.3131">
		<stop  offset="7.574820e-02" style="stop-color:#D9FFFF"/>
		<stop  offset="1" style="stop-color:#D9FFFF;stop-opacity:0"/>
	</linearGradient>
	<path style="opacity:0.7;fill:url(#SVGID_00000047762449408571417340000010978183761401927085_);" d="M66.2,30.6
		c-0.9-15.3-15.7-28.9-33-30.4C15.8-1.4,2.6,9.7,3.5,25c0.9,15.3,15.7,28.9,33,30.4C53.8,56.9,67.1,45.8,66.2,30.6z M60,47.2
		c-4.9,5.2-12.1,8.1-20.3,8.1c0,0,0,0,0,0c-1,0-2.1,0-3.2-0.1C19.4,53.6,4.7,40.1,3.8,25C3.4,18.7,5.5,12.8,9.7,8.4
		C14.6,3.2,21.8,0.3,30,0.3c1,0,2.1,0,3.1,0.1c17.1,1.5,31.8,15,32.8,30.1C66.2,36.8,64.1,42.7,60,47.2z"/>
	
		<linearGradient id="SVGID_00000158730697393938995970000003978947777443719092_" gradientUnits="userSpaceOnUse" x1="37.2297" y1="13.4937" x2="26.0306" y2="68.7546">
		<stop  offset="0" style="stop-color:#CCFFFF"/>
		<stop  offset="1" style="stop-color:#A8E7FF"/>
	</linearGradient>
	<polygon style="fill:url(#SVGID_00000158730697393938995970000003978947777443719092_);" points="44.4,18.6 31.3,29.6 24.4,23.2 
		19,27.7 31.9,39.6 50.4,24.1 	"/>
</g>
</svg>
