<?xml version="1.0" encoding="utf-8"?>
<!-- Generator: Adobe Illustrator 25.4.1, SVG Export Plug-In . SVG Version: 6.00 Build 0)  -->
<svg version="1.1" id="Layer_1" xmlns="http://www.w3.org/2000/svg" xmlns:xlink="http://www.w3.org/1999/xlink" x="0px" y="0px"
	 viewBox="0 0 69.4 69.4" style="enable-background:new 0 0 69.4 69.4;" xml:space="preserve">
<style type="text/css">
	.st0{fill:url(#SVGID_1_);}
	.st1{clip-path:url(#SVGID_00000066508661009871512560000004578263272343415994_);}
	.st2{fill:#412121;}
	.st3{fill:#FFFFFF;}
	.st4{opacity:0.8;clip-path:url(#SVGID_00000066508661009871512560000004578263272343415994_);}
	.st5{opacity:0.7;}
</style>
<g>
	<g>
		
			<radialGradient id="SVGID_1_" cx="23.5672" cy="-92.0758" r="39.8912" gradientTransform="matrix(1 -4.000000e-03 4.000000e-03 1 13.507 132.433)" gradientUnits="userSpaceOnUse">
			<stop  offset="0" style="stop-color:#F79F40"/>
			<stop  offset="0.1632" style="stop-color:#F7A542"/>
			<stop  offset="0.3708" style="stop-color:#F8B44A"/>
			<stop  offset="0.6014" style="stop-color:#FACE55"/>
			<stop  offset="0.7708" style="stop-color:#FBE660"/>
			<stop  offset="0.9104" style="stop-color:#FBF36F"/>
			<stop  offset="0.9318" style="stop-color:#FBF672"/>
			<stop  offset="0.9466" style="stop-color:#FBF676"/>
			<stop  offset="0.9621" style="stop-color:#FBF783"/>
			<stop  offset="0.9778" style="stop-color:#FCF897"/>
			<stop  offset="0.9936" style="stop-color:#FDFAB4"/>
			<stop  offset="1" style="stop-color:#FDFBC2"/>
		</radialGradient>
		<path class="st0" d="M69.4,32.8C69.4,32.8,69.4,32.7,69.4,32.8c0-0.2-0.1-1.2-0.2-2.6c0-0.1,0-0.3-0.1-0.4c0-0.2-0.1-0.4-0.1-0.6
			c-0.7-4.5-2.3-8.8-4.7-12.6c0,0,0,0,0,0c-0.3-0.4-0.5-0.8-0.8-1.2c0,0,0,0,0,0c-1.3-1.9-2.8-3.7-4.5-5.4c-0.8-0.8-1.7-1.6-2.6-2.3
			c-0.6-0.5-1.1-0.9-1.7-1.3c0,0-0.1,0-0.1-0.1l-0.1-0.1c-0.1-0.1-0.2-0.1-0.3-0.2c-0.4-0.3-0.8-0.5-1.2-0.8l0,0c0,0,0,0,0,0
			c-0.2-0.1-0.4-0.3-0.7-0.4c-0.1-0.1-0.2-0.1-0.3-0.2c-0.1-0.1-0.2-0.1-0.3-0.2c-0.1,0-0.1-0.1-0.2-0.1c-1.4-0.8-2.8-1.4-4.3-2
			c-0.4-0.2-0.7-0.3-0.8-0.3l-0.3-0.1l-0.3-0.1c0,0,0,0,0,0l-0.1,0c-0.1,0-0.3-0.1-0.4-0.1l-0.1,0c0,0,0,0-0.1,0l-0.3-0.1
			c-0.1,0-0.3-0.1-0.4-0.1l-0.3-0.1c-0.1,0-0.1,0-0.2-0.1c0,0,0,0-0.1,0c0,0,0,0-0.1,0c0,0-0.1,0-0.1,0l-0.4-0.1
			c-0.1,0-0.2-0.1-0.3-0.1C43,1,42.9,1,42.8,1l0,0c-0.1,0-0.1,0-0.2,0c-0.1,0-0.3-0.1-0.4-0.1L42,0.8c-0.1,0-0.2,0-0.3-0.1
			c0,0,0,0-0.1,0c-0.1,0-0.2,0-0.3-0.1l-0.2,0l-0.2,0c0,0,0,0,0,0l-0.1,0c0,0-0.1,0-0.1,0c-0.1,0-0.2,0-0.3,0c-0.1,0-0.1,0-0.2,0
			l0,0c-0.1,0-0.2,0-0.3,0l-0.3,0c0,0-0.1,0-0.2,0c-0.1,0-0.2,0-0.2,0c-0.1,0-0.2,0-0.2,0c-0.1,0-0.3,0-0.4,0l-0.4,0
			c0,0-0.1,0-0.1,0l0,0c-0.1,0-0.2,0-0.3,0c-0.2,0-0.3,0-0.5,0c-0.1,0-0.2,0-0.3,0c-0.1,0-0.2,0-0.4,0c-0.1,0-0.3,0-0.4,0
			c-0.1,0-0.2,0-0.2,0l-0.2,0c-0.1,0-0.1,0-0.2,0c-0.1,0-0.1,0-0.2,0c-0.7,0-1.4,0-2.1,0c-0.2,0-0.3,0-0.4,0c-0.2,0-0.3,0-0.5,0
			c-0.1,0-0.2,0-0.3,0c-0.2,0-0.5,0-0.7,0.1c-0.1,0-0.2,0-0.2,0c-0.3,0-0.6,0.1-0.9,0.1c-0.1,0-0.3,0-0.4,0.1c0,0,0,0,0,0
			c0,0,0,0,0,0c0,0-0.1,0-0.1,0c-0.2,0-0.5,0.1-0.7,0.1c-0.2,0-0.3,0.1-0.5,0.1c-0.4,0.1-0.7,0.1-0.9,0.2c-1,0.2-2,0.5-3,0.7
			c-0.6,0.2-1.1,0.3-1.7,0.6c-2.7,1-5.2,2.2-7.6,3.8c0,0,0,0,0,0l0,0C15.2,6,15,6.2,14.7,6.3c0,0-0.1,0-0.1,0.1
			c-0.4,0.3-0.8,0.6-1.2,0.9c0,0-0.1,0-0.1,0.1l0,0c0,0,0,0,0,0c0,0,0,0,0,0c0,0,0,0,0,0c-0.1,0.1-0.2,0.2-0.3,0.3
			c-0.2,0.2-0.4,0.4-0.6,0.5c-0.1,0.1-0.2,0.2-0.3,0.3c-0.2,0.2-0.5,0.4-0.7,0.6c0,0,0,0,0,0l0,0c0,0-0.1,0.1-0.1,0.1
			c-1.1,1-1.7,1.7-1.8,1.8c-0.3,0.4-0.7,0.7-1,1.1c-0.2,0.3-0.5,0.6-0.7,0.9c0,0,0,0-0.1,0.1l0,0c-0.5,0.6-1,1.3-1.5,2.1l0,0
			c0,0,0,0,0,0c0,0,0,0,0,0c-0.3,0.4-0.5,0.8-0.8,1.2c-0.2,0.4-0.5,0.8-0.7,1.1L3.8,19c-0.2,0.4-0.4,0.8-0.6,1.2
			c-0.4,0.7-0.7,1.6-1.1,2.6c0,0,0,0,0,0l0,0c-0.3,0.9-0.6,1.8-0.8,2.7l0,0c0,0,0,0,0,0c-0.3,1.2-0.6,2.2-0.7,3.1
			C0.1,31.9,0,32.2,0,34.3c0,2.7,0.2,4.6,0.4,5.5c0.4,2.6,1,4.7,1.2,5.3c0.7,2.4,1.4,3.7,2,5.1C4,51,4.3,51.6,4.7,52.2
			c0.5,0.8,1,1.6,1.5,2.4c0.1,0.1,0.1,0.2,0.2,0.3c0.5,0.8,1.4,1.9,2,2.6c0.5,0.5,1.1,1.3,1.7,1.8c0.5,0.5,1.2,1.2,1.8,1.7l0,0
			c0.6,0.5,0.9,0.8,1.4,1.2c0.7,0.6,1.4,1.1,2.1,1.6c0,0,0,0,0,0c0.2,0.2,0.5,0.3,0.7,0.5c0.3,0.2,0.6,0.3,0.8,0.5
			c0.1,0.1,0.3,0.2,0.5,0.3c0,0,0.1,0,0.1,0.1c0.2,0.1,0.5,0.3,0.8,0.4c0.1,0,0.1,0.1,0.2,0.1c0.8,0.4,1.9,1,3.1,1.4
			c0.3,0.1,0.6,0.2,1,0.4c0.1,0,0.2,0.1,0.4,0.1l0.6,0.2c0.1,0,0.3,0.1,0.4,0.1l0.2,0c0,0,0,0,0,0l0.2,0.1c0.1,0,0.3,0.1,0.4,0.1
			l0.4,0.1c0,0,0,0,0,0c1.5,0.4,2.9,0.7,4.3,0.9l0.1,0c0.1,0,0.3,0,0.4,0.1c0,0,0,0,0,0c0.1,0,0.2,0,0.3,0l0.8,0.1
			c0.3,0,0.8,0.1,1.1,0.1c0.3,0,0.7,0,1.1,0.1l0,0c0,0,0,0,0,0c0.2,0,0.4,0,0.5,0c0.5,0,1.1,0,1.6,0c0.5,0,1.1-0.1,1.6-0.1
			c1-0.1,2.4-0.3,3.5-0.4c0.8-0.1,1.9-0.4,2.7-0.6c0.2-0.1,0.4-0.1,0.6-0.2c0.6-0.2,1.3-0.4,1.8-0.5l0.6-0.2c0.5-0.2,1-0.4,1.5-0.6
			l0.2-0.1c0.6-0.2,1.3-0.6,1.9-0.9c0.3-0.1,0.5-0.3,0.8-0.4c0.7-0.4,1.6-0.9,2.2-1.3c0,0,0,0,0.1,0c0.6-0.4,1.2-0.8,1.8-1.2
			c0.1-0.1,0.3-0.2,0.4-0.3l0.6-0.5c0.2-0.1,0.3-0.3,0.5-0.4l0.9-0.8c0.4-0.3,1-0.9,2-1.8c0,0,0,0,0,0l0.1-0.1
			c0.5-0.5,1.1-1.1,1.7-1.9c0,0,0,0,0-0.1c0,0,0,0,0,0c0.6-0.7,1.7-2.1,2.9-3.9c0,0,0,0,0,0c0.3-0.4,0.5-0.9,0.8-1.4c0,0,0,0,0,0
			c0,0,0,0,0,0c0.1-0.2,0.2-0.4,0.3-0.6c0.2-0.3,0.3-0.6,0.4-0.9c0-0.1,0.1-0.2,0.1-0.3c0.2-0.5,0.4-0.9,0.7-1.4
			c0.3-0.7,0.6-1.4,0.8-2c0,0,0,0,0,0c0.4-1,0.7-2.1,1-3.2c0.2-0.7,0.4-1.4,0.5-2c0.1-0.7,0.3-1.4,0.3-2.2c0-0.2,0-0.3,0.1-0.5
			c0.1-1,0.2-2,0.2-3.1c0,0,0-0.1,0-0.1l0-0.1C69.4,34.5,69.4,33.7,69.4,32.8z"/>
		<g>
			<defs>
				<path id="SVGID_00000173147012612528724460000011551440619565690277_" d="M0,33.1C0,33,0,33,0,33.1c0-0.2,0-1.2,0.2-2.6
					c0-0.1,0-0.3,0-0.4c0-0.2,0.1-0.4,0.1-0.6c0.7-4.6,2.3-8.8,4.6-12.7c0,0,0,0,0,0c0.3-0.4-2,3.8-1.8,3.4c0,0,2.6-4.6,2.6-4.6
					c1.3-1.9,2.8-3.8,4.4-5.4c0.8-0.8,1.7-1.6,2.6-2.3c0.6-0.5,1.1-0.9,1.7-1.3c0,0,0.1,0,0.1-0.1l0.1-0.1c0.1-0.1,0.2-0.1,0.3-0.2
					c0.4-0.3,0.8-0.5,1.2-0.8l0,0c0,0,0,0,0,0c0.2-0.1,0.4-0.3,0.7-0.4c0.1-0.1,0.2-0.1,0.3-0.2c0.1-0.1,0.2-0.1,0.3-0.2
					c0.1,0,0.1-0.1,0.2-0.1c1.4-0.8,2.8-1.4,4.2-2c0.4-0.2,0.7-0.3,0.8-0.3L23,2l0.3-0.1c0,0,0,0,0,0l0.1,0c0.1,0,0.3-0.1,0.4-0.1
					l0.1,0c0,0,0,0,0.1,0l0.3-0.1c0.1,0,0.3-0.1,0.4-0.1L25,1.4c0.1,0,0.1,0,0.2-0.1c0,0,0,0,0.1,0c0,0,0,0,0.1,0c0,0,0.1,0,0.1,0
					l0.4-0.1c0.1,0,0.2-0.1,0.3-0.1c0.1,0,0.2-0.1,0.3-0.1l0,0c0.1,0,0.1,0,0.2,0c0.1,0,0.3-0.1,0.4-0.1l0.3-0.1
					c0.1,0,0.2-0.1,0.3-0.1c0,0,0,0,0.1,0c0.1,0,0.2,0,0.3-0.1l0.2,0l0.2,0c0,0,0,0,0,0l0.1,0c0,0,0.1,0,0.1,0c0.1,0,0.2,0,0.3-0.1
					c0.1,0,0.1,0,0.2,0l0,0c0.1,0,0.2,0,0.3-0.1l0.3,0c0,0,0.1,0,0.2,0c0.1,0,0.2,0,0.2,0c0.1,0,0.2,0,0.2,0c0.1,0,0.3,0,0.4,0
					l0.4,0c0,0,0.1,0,0.1,0l0,0c0.1,0,0.2,0,0.3,0c0.2,0,0.3,0,0.5,0c0.1,0,0.2,0,0.3,0c0.1,0,0.2,0,0.4,0c0.1,0,0.3,0,0.4,0
					C33,0,33,0,33.1,0l0.2,0c0.1,0,0.1,0,0.2,0c0.1,0,0.1,0,0.2,0c0.7,0,1.4,0,2.1,0c0.2,0,0.3,0,0.4,0c0.2,0,0.3,0,0.5,0
					c0.1,0,0.2,0,0.3,0c0.2,0,0.5,0,0.7,0.1c0.1,0,0.2,0,0.2,0c0.3,0,0.6,0.1,0.9,0.1c0.1,0,0.3,0,0.4,0.1c0,0,0,0,0,0c0,0,0,0,0,0
					c0,0,0.1,0,0.1,0c0.2,0,0.5,0.1,0.7,0.1c0.2,0,0.3,0.1,0.5,0.1c0.4,0.1,0.7,0.1,0.9,0.2c1,0.2,2,0.4,3,0.7
					c0.6,0.2,1.1,0.3,1.8,0.6c2.7,0.9,5.3,2.2,7.7,3.8c0,0,0,0,0,0l0,0C54,5.8,54.2,6,54.5,6.2c0,0,0.1,0,0.1,0.1
					c0.4,0.3,0.8,0.6,1.2,0.9c0,0,0.1,0,0.1,0.1l0,0c0,0,0,0,0,0c0,0,0,0,0,0c0,0,0,0,0,0c0.1,0.1,0.2,0.2,0.3,0.3
					c0.2,0.2,0.4,0.3,0.6,0.5c0.1,0.1,0.2,0.2,0.3,0.3C57.6,8.6,57.8,8.8,58,9c0,0,0,0,0,0l0,0c0,0,0.1,0.1,0.1,0.1
					c1.1,1,1.7,1.7,1.8,1.8c0.3,0.4,0.7,0.7,1,1.1c0.2,0.3,0.5,0.5,0.7,0.9c0,0,0,0,0.1,0.1l0,0c0.5,0.6,1,1.3,1.6,2.1l0,0
					c0,0,0,0,0,0c0,0,0,0,0,0c0.3,0.4,0.5,0.8,0.8,1.2c0.2,0.4,0.5,0.8,0.7,1.1l0.7,1.3c0.2,0.4,0.4,0.8,0.6,1.2
					c0.4,0.7,0.7,1.6,1.1,2.6c0,0,0,0,0,0l0,0c0.3,0.9,0.6,1.8,0.9,2.7l0,0c0,0,0,0,0,0c0.3,1.1,0.6,2.2,0.7,3.1
					c0.5,3.2,0.5,3.5,0.6,5.6c0.1,2.7-0.2,4.6-0.3,5.5c-0.4,2.6-1,4.7-1.2,5.3c-0.7,2.4-1.4,3.7-2,5.1c-0.4,0.8-0.7,1.4-1.1,2.1
					c-0.5,0.8-1,1.6-1.5,2.4c-0.1,0.1-0.1,0.2-0.2,0.3c-0.5,0.8-1.3,1.9-2,2.6c-0.5,0.5-1.1,1.3-1.6,1.8c-0.5,0.5-1.2,1.2-1.8,1.7
					l0,0c-0.6,0.5-0.9,0.8-1.4,1.2c-0.7,0.6-1.4,1.1-2.1,1.6c0,0,0,0,0,0c-0.2,0.2-0.5,0.3-0.7,0.5c-0.3,0.2-0.6,0.3-0.8,0.5
					c-0.1,0.1-0.3,0.2-0.5,0.3c0,0-0.1,0-0.1,0.1c-0.2,0.1-0.5,0.3-0.8,0.4c-0.1,0-0.1,0.1-0.2,0.1c-0.8,0.4-1.9,1-3.1,1.4
					c-0.3,0.1-0.6,0.2-1,0.4c-0.1,0-0.2,0.1-0.3,0.1L46,67.5c-0.1,0-0.3,0.1-0.4,0.1l-0.2,0c0,0,0,0,0,0l-0.2,0.1
					c-0.1,0-0.3,0.1-0.4,0.1L44.4,68c0,0,0,0,0,0c-1.5,0.4-2.9,0.7-4.3,1L40,69c-0.1,0-0.3,0-0.4,0.1c0,0,0,0,0,0
					c-0.1,0-0.2,0-0.3,0l-0.8,0.1c-0.3,0-0.8,0.1-1.1,0.1c-0.3,0-0.7,0-1.1,0.1l0,0c0,0,0,0,0,0c-0.2,0-0.4,0-0.5,0
					c-0.5,0-1.1,0-1.6,0c-0.5,0-1.1,0-1.6-0.1c-1-0.1-2.4-0.2-3.5-0.4c-0.8-0.1-1.9-0.3-2.7-0.6c-0.2-0.1-0.4-0.1-0.6-0.2
					c-0.6-0.2-1.3-0.4-1.8-0.5l-0.6-0.2c-0.5-0.2-1-0.4-1.5-0.6l-0.2-0.1c-0.6-0.2-1.3-0.5-1.9-0.9c-0.3-0.1-0.5-0.3-0.8-0.4
					c-0.7-0.4-1.6-0.8-2.3-1.3c0,0,0,0-0.1,0c-0.6-0.4-1.2-0.8-1.8-1.2c-0.1-0.1-0.3-0.2-0.4-0.2l-0.6-0.5c-0.2-0.1-0.3-0.3-0.5-0.4
					l-1-0.7c-0.4-0.3-1-0.8-2-1.8c0,0,0,0,0,0l-0.1-0.1c-0.5-0.5-1.1-1.1-1.7-1.9c0,0,0,0,0-0.1c0,0,0,0,0,0
					c-0.6-0.7-1.7-2.1-2.9-3.9c0,0,0,0,0,0c-0.3-0.4-0.5-0.9-0.8-1.4c0,0,0,0,0,0c0,0,0,0,0,0c-0.1-0.2-0.2-0.4-0.4-0.6
					c-0.2-0.3-0.3-0.6-0.5-0.9c0-0.1-0.1-0.2-0.1-0.3c-0.2-0.5-0.5-0.9-0.7-1.4c-0.3-0.7-0.6-1.4-0.8-2c0,0,0,0,0,0
					c-0.4-1-0.7-2.1-1-3.2c-0.2-0.7-0.4-1.4-0.5-2c-0.1-0.7-0.3-1.4-0.4-2.2c0-0.2,0-0.3-0.1-0.5c-0.1-1-0.2-2-0.2-3.1
					c0,0,0-0.1,0-0.1l0-0.1C0,34.8,0,33.9,0,33.1z"/>
			</defs>
			<clipPath id="SVGID_00000160885424161602640510000015787776328028611974_">
				<use xlink:href="#SVGID_00000173147012612528724460000011551440619565690277_"  style="overflow:visible;"/>
			</clipPath>
			<g style="clip-path:url(#SVGID_00000160885424161602640510000015787776328028611974_);">
				<path class="st2" d="M60.4,52.8c2.4-4.2,1.1-4.1,0.9-4.1c-0.1,0-1.5,0.5-1.6,0.6c-6.7,3.5-32.3,1.5-31-5.3
					c-3.3-1.6-4.3-2.1-5.1-0.3c-0.2,0.5-1.4,5.3,0.3,10.5C28.9,70,51.1,69.1,60.4,52.8"/>
				<path class="st3" d="M59.7,49.3C59.7,49.3,59.7,49.3,59.7,49.3C59.7,49.3,59.7,49.3,59.7,49.3C59.7,49.3,59.7,49.3,59.7,49.3
					C59.7,49.3,59.7,49.3,59.7,49.3C59.7,49.3,59.7,49.3,59.7,49.3C59.7,49.3,59.7,49.3,59.7,49.3C59.7,49.3,59.7,49.3,59.7,49.3
					c-3.4,8-6.4,8.1-9.6,8.2c-0.2,0-19.6-0.7-21.7-7.1c-0.1-0.4-0.6-1.7,0.3-6.4c0,0,0,0,0,0c0,0,0,0,0,0c0,0,0,0,0,0c0,0,0,0,0,0
					c0,0,0,0,0,0c0,0,0,0,0,0s0,0,0,0c0,0,0,0,0,0C35.6,47.4,48.7,52.5,59.7,49.3C59.7,49.3,59.7,49.3,59.7,49.3"/>
				<path class="st2" d="M43.1,35.1c-0.4,1.2-0.5,1.7-12.6,3.2c-1.8,0.2-2.5-1.8-1.6-3c0.4-0.5,0.9-0.6,1.2-0.7c3-0.6,6-0.7,9-1.3
					c-2.7-2.9-3.7-4-6.1-7c-1-1.6,0.6-3,1.7-2.8c0.1,0,0.1,0,0.2,0.1c0.2,0.1,0.4,0.2,0.7,0.5c2.2,2.7,3.1,3.8,7.3,8.2
					c0.4,0.5,0.6,1,0.5,1.7C43.3,34.3,43.2,34.7,43.1,35.1"/>
				<path class="st2" d="M62.7,42.1c-0.2,0.9-0.8,1.7-1.4,1.5c-0.5-0.2-0.9-0.8-1.3-1.1c0,0-1.2-1-4.6-3.7c-0.4-0.4-0.6-0.9-0.6-1.7
					c0-0.4,0.1-0.8,0.1-1.2c0-0.3,0.1-1,0.7-1.5c2.3-1.9,3.8-3.3,5.4-6c0.1-0.2,0.2-0.2,0.4-0.3c0.8,0,1.4,1.9,1,3
					c0,0-0.8,1.9-3.6,4.6c-0.2,0.2-0.6,0.5-0.9,0.8c2.3,1.8,3.1,2.5,4.5,3.6C63,40.8,62.8,41.8,62.7,42.1"/>
			</g>
			<g style="opacity:0.8;clip-path:url(#SVGID_00000160885424161602640510000015787776328028611974_);">
				
					<image style="overflow:visible;" width="851" height="818" xlink:href="8F5261F4.png"  transform="matrix(0.24 0 0 0.24 -59.4634 -49.0662)">
				</image>
			</g>
			<g style="clip-path:url(#SVGID_00000160885424161602640510000015787776328028611974_);">
				<g>
					
						<image style="overflow:visible;" width="813" height="782" xlink:href="8F5261F5.png"  transform="matrix(0.24 0 0 0.24 -74.8234 -76.6662)">
					</image>
				</g>
				<g class="st5">
					
						<image style="overflow:visible;" width="686" height="679" xlink:href="8F5261F3.png"  transform="matrix(0.24 0 0 0.24 -29.9434 -65.3862)">
					</image>
				</g>
			</g>
		</g>
	</g>
</g>
</svg>
