<?xml version="1.0" encoding="utf-8"?>
<!-- Generator: Adobe Illustrator 25.4.1, SVG Export Plug-In . SVG Version: 6.00 Build 0)  -->
<svg version="1.1" id="Layer_1" xmlns="http://www.w3.org/2000/svg" xmlns:xlink="http://www.w3.org/1999/xlink" x="0px" y="0px"
	 viewBox="0 0 124.4 111.2" style="enable-background:new 0 0 124.4 111.2;" xml:space="preserve">
<style type="text/css">
	.st0{enable-background:new    ;}
	.st1{fill:url(#SVGID_1_);}
	.st2{opacity:0.7;fill:url(#SVGID_00000034086715618288071470000010101065976459436188_);}
	.st3{fill:url(#SVGID_00000170269028431504920090000012302428122075244980_);}
	.st4{fill:url(#SVGID_00000165934393746208048030000004380827990675679124_);}
</style>
<g class="st0">
	
		<linearGradient id="SVGID_1_" gradientUnits="userSpaceOnUse" x1="-627.6298" y1="-323.631" x2="-531.2136" y2="-293.6638" gradientTransform="matrix(0.9158 0.4016 -0.4016 0.9158 474.9529 575.5247)">
		<stop  offset="6.825930e-03" style="stop-color:#F73F7C"/>
		<stop  offset="0.9818" style="stop-color:#B20C74"/>
	</linearGradient>
	<path class="st1" d="M95.7,1.3c27.8,6.6,34.9,35.5,15.8,64.5s-57.1,47.3-85,40.7C-1.3,100-8.4,71.1,10.7,42S67.9-5.2,95.7,1.3z"/>
	
		<linearGradient id="SVGID_00000005267822896905637010000016299244253712298686_" gradientUnits="userSpaceOnUse" x1="-630.2982" y1="-361.642" x2="-554.5297" y2="-270.7199" gradientTransform="matrix(0.9158 0.4016 -0.4016 0.9158 474.9529 575.5247)">
		<stop  offset="7.574820e-02" style="stop-color:#FFFFFF"/>
		<stop  offset="1" style="stop-color:#FFFFFF;stop-opacity:0"/>
	</linearGradient>
	<path style="opacity:0.7;fill:url(#SVGID_00000005267822896905637010000016299244253712298686_);" d="M95.7,1.3
		C67.9-5.2,29.9,13,10.7,42c-19.1,29.1-12,57.9,15.8,64.5c27.8,6.6,65.9-11.6,85-40.7C130.6,36.8,123.5,7.9,95.7,1.3z M110.9,65.5
		C92,94.3,54.2,112.4,26.7,105.9c-2.5-0.6-4.8-1.4-7-2.3C10.8,99.7,4.7,93,2.1,84.1c-3.6-12.1-0.2-27.3,9.2-41.7
		C30.2,13.6,68-4.5,95.5,2c2.5,0.6,4.9,1.4,7,2.3c8.9,3.9,14.9,10.6,17.6,19.5C123.7,36,120.4,51.2,110.9,65.5z"/>
	<g>
		
			<linearGradient id="SVGID_00000142881824748766725050000004397836107729145486_" gradientUnits="userSpaceOnUse" x1="-623.8903" y1="-331.3331" x2="-549.6255" y2="-280.5204" gradientTransform="matrix(0.9158 0.4016 -0.4016 0.9158 474.9529 575.5247)">
			<stop  offset="7.447500e-04" style="stop-color:#FFFFFF"/>
			<stop  offset="0.8782" style="stop-color:#FFC2FF"/>
			<stop  offset="1" style="stop-color:#FFB9FF"/>
		</linearGradient>
		<path style="fill:url(#SVGID_00000142881824748766725050000004397836107729145486_);" d="M49.2,78l-8.5-2c-1.6,2.4-1,4.9,1.3,5.4
			C44.4,82,47.6,80.5,49.2,78 M79.7,24.3c-2.3-0.6-5.5,1-7.1,3.4L72,28.6c-10,0-21.8,6.5-28.1,16.1L32.6,61.9l-0.8-0.2
			c-2.3-0.6-5.5,1-7.1,3.4c-1.6,2.4-1,4.9,1.3,5.4l40.3,9.5c2.3,0.6,5.5-1,7.1-3.4c1.6-2.4,1-4.9-1.3-5.4l-0.8-0.2l11.3-17.2
			c6.3-9.6,5.2-19.2-2.2-23.3l0.5-0.8C82.6,27.3,82,24.9,79.7,24.3"/>
	</g>
	
		<linearGradient id="SVGID_00000104691496789289341060000018339130373805022860_" gradientUnits="userSpaceOnUse" x1="-608.7203" y1="-238.6757" x2="-529.001" y2="-360.2057" gradientTransform="matrix(0.9158 0.4016 -0.4016 0.9158 474.9529 575.5247)">
		<stop  offset="0" style="stop-color:#ED1D77"/>
		<stop  offset="1.281572e-02" style="stop-color:#E41C77"/>
		<stop  offset="6.965907e-02" style="stop-color:#C01678"/>
		<stop  offset="0.1271" style="stop-color:#A51279"/>
		<stop  offset="0.1847" style="stop-color:#910F7A"/>
		<stop  offset="0.2426" style="stop-color:#850E7A"/>
		<stop  offset="0.3012" style="stop-color:#810D7A"/>
		<stop  offset="0.4539" style="stop-color:#761277"/>
		<stop  offset="0.6448" style="stop-color:#611A71"/>
		<stop  offset="0.7678" style="stop-color:#6E1575"/>
		<stop  offset="0.9009" style="stop-color:#810D7A"/>
		<stop  offset="0.9157" style="stop-color:#8C0F7A"/>
		<stop  offset="0.942" style="stop-color:#AB1379"/>
		<stop  offset="0.9766" style="stop-color:#DC1A77"/>
		<stop  offset="0.9875" style="stop-color:#ED1D77"/>
	</linearGradient>
	<path style="fill:url(#SVGID_00000104691496789289341060000018339130373805022860_);" d="M119.6,58.4c0.6-1.4,1.2-2.8,1.7-4.1
		c0-0.1,0.1-0.2,0.1-0.3c0.1-0.2,0.1-0.4,0.2-0.7c0.4-1.2,0.8-2.5,1.1-3.7c0.1-0.2,0.2-0.5,0.2-0.7c0.1-0.2,0.1-0.4,0.1-0.6
		c0.2-0.8,0.4-1.6,0.5-2.3c0.1-0.3,0.2-0.7,0.2-1c0-0.1,0-0.3,0.1-0.4c0.1-0.6,0.2-1.1,0.2-1.7c0.1-0.4,0.1-0.8,0.2-1.3
		c0-0.1,0-0.3,0-0.4c0-0.5,0.1-0.9,0.1-1.4c0-0.4,0.1-0.9,0.1-1.3c0-0.2,0-0.4,0-0.6c0-0.4,0-0.8,0-1.2c0-0.3,0-0.7,0-1
		c0-0.3,0-0.6-0.1-0.8c0-0.4,0-0.7-0.1-1.1c0-0.2,0-0.5,0-0.7c0-0.4-0.1-0.9-0.2-1.3c0-0.3-0.1-0.6-0.1-0.9c0-0.1,0-0.2,0-0.3
		c-0.1-0.8-0.3-1.6-0.5-2.4c0,0,0,0,0-0.1c0-0.1-0.1-0.2-0.1-0.3c-0.2-0.6-0.3-1.3-0.5-1.9c0-0.1-0.1-0.3-0.2-0.4
		c-0.1-0.3-0.2-0.5-0.3-0.8c-0.1-0.3-0.2-0.6-0.3-1c-0.1-0.3-0.2-0.5-0.4-0.8c-0.1-0.3-0.2-0.5-0.4-0.8c-0.1-0.2-0.1-0.3-0.2-0.5
		c-0.2-0.4-0.5-0.9-0.7-1.3c-0.1-0.2-0.2-0.4-0.3-0.6c0-0.1-0.1-0.1-0.1-0.2c-0.4-0.7-0.9-1.4-1.3-2c0,0-0.1-0.1-0.1-0.1l-2.2-3.3
		c0.5,0.8,1,1.5,1.5,2.3c0.1,0.2,0.2,0.4,0.3,0.6c0.3,0.6,0.6,1.2,0.9,1.8c0.1,0.3,0.2,0.5,0.4,0.8c0.3,0.6,0.5,1.2,0.7,1.7
		c0.1,0.3,0.2,0.5,0.3,0.8c0.3,0.8,0.5,1.5,0.7,2.3c0,0.1,0.1,0.2,0.1,0.3c0.2,0.9,0.4,1.8,0.6,2.7c0,0.3,0.1,0.6,0.1,0.9
		c0.1,0.7,0.2,1.3,0.2,2c0,0.4,0.1,0.7,0.1,1.1c0,0.6,0.1,1.2,0.1,1.9c0,0.4,0,0.8,0,1.2c0,0.6,0,1.2-0.1,1.8c0,0.5,0,0.9-0.1,1.4
		c-0.1,0.6-0.1,1.1-0.2,1.7c-0.1,0.6-0.1,1.1-0.2,1.7c-0.1,0.5-0.2,0.9-0.3,1.4c-0.2,0.8-0.3,1.6-0.5,2.3c-0.1,0.4-0.2,0.9-0.3,1.3
		c-0.3,1.2-0.7,2.5-1.1,3.7c-0.1,0.3-0.2,0.6-0.3,0.9c-0.5,1.4-1,2.7-1.7,4.1c-0.1,0.3-0.3,0.5-0.4,0.8c-0.5,1.1-1.1,2.3-1.7,3.4
		c-0.4,0.7-0.7,1.4-1.1,2.1c-0.2,0.4-0.4,0.7-0.6,1.1c-0.7,1.1-1.3,2.2-2.1,3.4c-0.4,0.6-0.8,1.2-1.2,1.8c-0.9,1.3-1.8,2.6-2.8,3.8
		c-0.1,0.2-0.3,0.3-0.4,0.5c-0.9,1.2-1.9,2.3-2.9,3.4c-0.2,0.2-0.3,0.4-0.5,0.5c-1.2,1.3-2.4,2.6-3.6,3.9c-0.2,0.2-0.4,0.4-0.7,0.7
		c-1,1-2,2-3.1,2.9c-0.2,0.2-0.4,0.3-0.6,0.5c-0.8,0.7-1.6,1.4-2.4,2.1c-0.3,0.3-0.7,0.6-1,0.8c-0.6,0.5-1.2,1-1.9,1.5
		c-0.4,0.3-0.7,0.6-1.1,0.8c-0.6,0.4-1.1,0.8-1.7,1.3c-0.4,0.3-0.8,0.5-1.1,0.8c-0.6,0.4-1.1,0.8-1.7,1.2c-0.4,0.2-0.7,0.5-1.1,0.7
		c-0.6,0.4-1.2,0.8-1.8,1.1c-0.4,0.2-0.7,0.5-1.1,0.7c-0.6,0.4-1.2,0.7-1.8,1.1c-0.3,0.2-0.7,0.4-1,0.6c-0.8,0.4-1.5,0.8-2.3,1.2
		c-0.2,0.1-0.4,0.2-0.6,0.3c-1,0.5-2,1-2.9,1.5c-0.2,0.1-0.5,0.2-0.8,0.3c-0.7,0.3-1.5,0.7-2.2,1c-0.3,0.2-0.7,0.3-1,0.4
		c-0.7,0.3-1.3,0.6-2,0.8c-0.4,0.2-0.8,0.3-1.2,0.4c-0.6,0.2-1.3,0.5-1.9,0.7c-0.4,0.1-0.8,0.3-1.2,0.4c-0.7,0.2-1.4,0.5-2.1,0.7
		c-0.4,0.1-0.8,0.2-1.2,0.4c-0.8,0.2-1.6,0.4-2.3,0.6c-0.4,0.1-0.7,0.2-1.1,0.3c-1.2,0.3-2.4,0.6-3.6,0.8c-0.1,0-0.2,0-0.3,0.1
		c-1.3,0.2-2.5,0.4-3.8,0.6c-0.4,0.1-0.7,0.1-1.1,0.1c-0.5,0.1-0.9,0.1-1.4,0.2c-0.5,0.1-1,0.1-1.5,0.1c-0.5,0-0.9,0.1-1.4,0.1
		c-0.4,0-0.9,0-1.3,0.1c-1,0-2,0.1-3.1,0c-0.1,0-0.3,0-0.4,0c-1.1,0-2.3-0.1-3.4-0.2c-0.3,0-0.6-0.1-0.9-0.1
		c-0.8-0.1-1.7-0.2-2.5-0.3c-0.3,0-0.6-0.1-1-0.1c-1.1-0.2-2.2-0.4-3.2-0.6c-9.2-2.2-16.1-6.8-20.5-13l2.2,3.3
		c4.5,6.2,11.4,10.8,20.5,13c1.1,0.3,2.1,0.5,3.2,0.6c0.3,0.1,0.6,0.1,1,0.1c0.8,0.1,1.7,0.2,2.5,0.3c0.3,0,0.6,0.1,0.9,0.1
		c1.1,0.1,2.2,0.1,3.4,0.2c0.1,0,0.3,0,0.4,0c1,0,2,0,3.1,0c0.1,0,0.3,0,0.4,0c0.3,0,0.6,0,0.9-0.1c0.5,0,0.9-0.1,1.4-0.1
		c0.5,0,1-0.1,1.5-0.1c0.5,0,0.9-0.1,1.4-0.2c0.2,0,0.4,0,0.6-0.1c0.2,0,0.4-0.1,0.5-0.1c1.2-0.2,2.5-0.4,3.8-0.6c0.1,0,0.2,0,0.3,0
		c0,0,0.1,0,0.1,0c1.2-0.2,2.4-0.5,3.6-0.8c0.1,0,0.2,0,0.3-0.1c0.2-0.1,0.5-0.1,0.7-0.2c0.8-0.2,1.5-0.4,2.3-0.6
		c0.2-0.1,0.4-0.1,0.6-0.2c0.2-0.1,0.4-0.1,0.6-0.2c0.7-0.2,1.4-0.4,2.1-0.7c0.3-0.1,0.5-0.2,0.8-0.3c0.1,0,0.3-0.1,0.4-0.1
		c0.6-0.2,1.3-0.5,1.9-0.7c0.3-0.1,0.6-0.2,0.9-0.3c0.1,0,0.2-0.1,0.2-0.1c0.7-0.3,1.3-0.5,2-0.8c0.3-0.1,0.6-0.2,0.9-0.4
		c0,0,0.1,0,0.1-0.1c0.7-0.3,1.5-0.7,2.2-1c0.2-0.1,0.5-0.2,0.7-0.3c0,0,0,0,0,0c1-0.5,2-1,2.9-1.5c0,0,0,0,0,0
		c0.2-0.1,0.4-0.2,0.5-0.3c0.8-0.4,1.6-0.8,2.4-1.3c0,0,0.1,0,0.1,0c0.3-0.2,0.6-0.4,0.9-0.6c0.6-0.4,1.2-0.7,1.8-1.1
		c0,0,0.1-0.1,0.1-0.1c0.3-0.2,0.6-0.4,0.9-0.6c0.6-0.4,1.2-0.8,1.8-1.1c0.1,0,0.2-0.1,0.2-0.1c0.3-0.2,0.6-0.4,0.9-0.6
		c0.6-0.4,1.2-0.8,1.7-1.2c0.1-0.1,0.2-0.2,0.3-0.2c0.3-0.2,0.5-0.4,0.8-0.6c0.6-0.4,1.1-0.8,1.7-1.3c0.2-0.1,0.3-0.2,0.5-0.3
		c0.2-0.2,0.4-0.3,0.6-0.5c0.6-0.5,1.3-1,1.9-1.5c0.2-0.2,0.4-0.3,0.6-0.5c0.1-0.1,0.3-0.2,0.4-0.3c0.8-0.7,1.6-1.4,2.4-2.1
		c0.2-0.1,0.3-0.3,0.5-0.4c0,0,0.1-0.1,0.1-0.1c1.1-1,2.1-1.9,3.1-2.9c0.1-0.1,0.2-0.2,0.3-0.3c0.1-0.1,0.2-0.2,0.3-0.4
		c1.2-1.3,2.5-2.5,3.6-3.9c0-0.1,0.1-0.1,0.1-0.2c0.1-0.1,0.2-0.3,0.3-0.4c1-1.1,1.9-2.3,2.9-3.4c0.1-0.2,0.3-0.3,0.4-0.5
		c1-1.2,1.9-2.5,2.8-3.8c0.1-0.1,0.2-0.3,0.3-0.4c0.3-0.5,0.6-0.9,0.9-1.4c0.7-1.1,1.4-2.2,2.1-3.4c0.2-0.4,0.4-0.7,0.6-1.1
		c0.3-0.5,0.6-1,0.9-1.6c0.1-0.2,0.2-0.4,0.3-0.5c0.6-1.1,1.1-2.3,1.7-3.4C119.3,59,119.5,58.7,119.6,58.4z"/>
</g>
</svg>
