<?xml version="1.0" encoding="utf-8"?>
<!-- Generator: Adobe Illustrator 25.4.1, SVG Export Plug-In . SVG Version: 6.00 Build 0)  -->
<svg version="1.1" id="Layer_1" xmlns="http://www.w3.org/2000/svg" xmlns:xlink="http://www.w3.org/1999/xlink" x="0px" y="0px"
	 viewBox="0 0 561.4 739.9" style="enable-background:new 0 0 561.4 739.9;" xml:space="preserve">
<style type="text/css">
	.st0{fill:#FFCE00;}
	.st1{fill:#FFE1C5;}
	.st2{fill:#F9C9AF;}
	.st3{fill:#F4BFA8;}
	.st4{fill:#F4B49D;}
	.st5{filter:url(#Adobe_OpacityMaskFilter);}
	.st6{fill:url(#SVGID_00000078748483435614056400000016342150533646210963_);}
	.st7{mask:url(#SVGID_1_);fill:#FFE9D9;}
	.st8{filter:url(#Adobe_OpacityMaskFilter_00000085245405305296814300000002770973793084165780_);}
	.st9{fill:url(#SVGID_00000027606787613748769020000001862307021147290293_);}
	.st10{mask:url(#SVGID_00000146460566325656356040000006240826820510290599_);fill:#FFE9D9;}
	.st11{filter:url(#Adobe_OpacityMaskFilter_00000121980117225019820470000012186234613871152562_);}
	.st12{fill:url(#SVGID_00000144336681484839566750000002421898048532860341_);}
	.st13{mask:url(#SVGID_00000080919400741684139130000001929976318526023851_);fill:#FFE9D9;}
	.st14{filter:url(#Adobe_OpacityMaskFilter_00000178916410464113642050000001489473197829469346_);}
	.st15{fill:url(#SVGID_00000178916446136940177360000017150136779832254614_);}
	.st16{mask:url(#SVGID_00000068679012808905969290000004204707789824887211_);fill:#FFE9D9;}
	.st17{filter:url(#Adobe_OpacityMaskFilter_00000023270028494493052930000015980335778553307790_);}
	.st18{fill:url(#SVGID_00000093174273669162777770000012612190996857527986_);}
	.st19{mask:url(#SVGID_00000015334412258591991850000007573767862509264015_);fill:#FFE9D9;}
	.st20{filter:url(#Adobe_OpacityMaskFilter_00000177451290145174239030000011500303138200250500_);}
	.st21{fill:url(#SVGID_00000177471712530716489630000008184204386604342699_);}
	.st22{mask:url(#SVGID_00000047742112156347101710000017322302226230977421_);fill:#FFE9D9;}
	.st23{fill:#FFCFAE;}
	.st24{opacity:0.6;fill:#FFF1E6;}
	.st25{filter:url(#Adobe_OpacityMaskFilter_00000100352907279777118270000005560514474122411182_);}
	.st26{fill:url(#SVGID_00000011028794383775660020000013131647834094828710_);}
	.st27{mask:url(#SVGID_00000008827640997489679110000005684372556365726856_);fill:#FFE9D9;}
	.st28{filter:url(#Adobe_OpacityMaskFilter_00000040536866919951535220000015567611737801802886_);}
	.st29{fill:url(#SVGID_00000023271410852497531440000002705914321727354770_);}
	.st30{mask:url(#SVGID_00000075126116231811790450000016634010210628575623_);fill:#FFE9D9;}
	.st31{filter:url(#Adobe_OpacityMaskFilter_00000111912724969207025520000014326106055546967218_);}
	.st32{fill:url(#SVGID_00000166674931324200357860000007010734886900990342_);}
	.st33{mask:url(#SVGID_00000054956120111145467350000005500820576890287255_);fill:#FFE9D9;}
	.st34{filter:url(#Adobe_OpacityMaskFilter_00000141445428252902374110000016740396376261367209_);}
	.st35{fill:url(#SVGID_00000044859483795536472910000012251401544491054734_);}
	.st36{mask:url(#SVGID_00000017475682403788418490000010106088585062008975_);fill:#FFE9D9;}
	.st37{filter:url(#Adobe_OpacityMaskFilter_00000172406056351505843020000006264695456924048514_);}
	.st38{fill:url(#SVGID_00000103973821654497162050000014460926605933451415_);}
	.st39{mask:url(#SVGID_00000181786721637804669210000002906913064012444341_);fill:#FFE9D9;}
</style>
<g>
	<path class="st0" d="M215.3,523.1c9.9-11.5,20.7-60.7-5.4-64.4c-0.2,0-0.4-0.1-0.6-0.1c4.6-2.2,2.4-5,6-8.6
		c17.4-18.1,10-61.2-10.4-68.2c-29.3-10.1-25.7,8.9-25.7,8.9L8.2,374.6c0,0-9.7,15.2-8,44.4c0.9,16.4,7.3,25.4,14.5,30.5
		c-2.8,5.3-11.5,24.2-12,54.1c-0.5,29,10.2,38.6,20.8,42.5c-2.7,6.3-8.7,23.5-7.8,49.1c1.3,34.8,18.5,38.3,29.8,39.7c0,0,0,0,0,0
		c-2,7.7-3.9,18.8-3.4,32.7C43.5,703,64,701,72.7,702.6c31.6,5.8,81.7,4.6,112.1-3.3c20.5-5.3,11-11.3,22.8-26.9
		c7.4-9.7,15.2-49.3-5.9-51c-1.8-0.2,8.5-0.2,2.6-0.3c10.3-4.8-1.5-11.1,5.5-20.3c8.5-11.1,16.5-56.6-7.7-58.6
		c-1.3-0.1,3.5-0.2,0.3-0.3C212.5,537.6,208,531.7,215.3,523.1z M49.7,635.3c0.4,0.1,0.8,0.1,1.1,0.2
		C50.5,635.4,50.1,635.3,49.7,635.3z M47.2,635c0.4,0,0.8,0.1,1.1,0.1C48,635.1,47.6,635,47.2,635z M48.4,635.1
		c0.4,0.1,0.8,0.1,1.2,0.2C49.2,635.2,48.8,635.2,48.4,635.1z M183.8,630.6C183.8,630.6,183.8,630.6,183.8,630.6
		C183.8,630.6,183.8,630.6,183.8,630.6z"/>
	<path class="st0" d="M432,213.6c-20.4-48.5-20.5-82.9-23.1-104.7c-1.7-14.4-8.3-30.7-11-53.5c-4.4-35.8-7.7-44.8-9.4-48.5
		c-1.7-3.7-39.6-21.7-75.3,21.7c-42.5,51.8-20.7,121.1-19.4,152.9c3.2,75.4-6,116.7-38.1,130.5c-30.4,13-152.6,14.4-187.9,23.8
		C24.6,347,7.9,375.1,7.9,375.1s74.3,86.6,75.9,151.5c1.7,64.9-28.1,171.6-28.1,171.6s30.1,32.2,103,35.1
		c59.2,2.3,61.8-3.3,90.6-1.3c37.2,2.6,64.9,9.1,87.6,7.7c31.4-2,66.2-7.8,101-25.8c44.1-22.7,42.9-43.8,64.3-65.9
		c18.1-18.6,27-21,34.3-29.1c8.4-9.2,23.1-43.6,24.6-102.4c1.7-69.6-15.8-119.6-19-128.8c-8.1-23.1-26.8-33.1-43.2-51.5
		C479.8,314.7,451.7,260.3,432,213.6z"/>
	<path class="st1" d="M432,213.6c-20.4-48.5-20.5-82.9-23.1-104.7c-1.7-14.4-8.3-30.7-11-53.5c-4.4-35.8-7.7-44.8-9.4-48.5
		c-1.7-3.7-39.6-21.7-75.3,21.7c-42.5,51.8-20.7,121.1-19.4,152.9c3.2,75.4-6,116.7-38.1,130.5c-30.4,13-152.6,14.4-187.9,23.8
		C24.6,347,7.9,375.1,7.9,375.1s74.3,86.6,75.9,151.5c1.7,64.9-28.1,171.6-28.1,171.6s30.1,32.2,103,35.1
		c59.2,2.3,61.8-3.3,90.6-1.3c37.2,2.6,64.9,9.1,87.6,7.7c31.4-2,66.2-7.8,101-25.8c44.1-22.7,42.9-43.8,64.3-65.9
		c18.1-18.6,27-21,34.3-29.1c8.4-9.2,23.1-43.6,24.6-102.4c1.7-69.6-15.8-119.6-19-128.8c-8.1-23.1-26.8-33.1-43.2-51.5
		C479.8,314.7,451.7,260.3,432,213.6z"/>
	<path class="st2" d="M225,363.7c0,0,19.9,11.4,30.1,12c10.3,0.6,17.3-16.3,17.3-16.3l9.5,79.9l32.6,55.2l17.4,43
		c0,0-12.5,8.3-6.1,26.2c5.5,15.3,26.8,13.8,26.8,13.8l-54.7,28.8l-28.6,65.7l-20.9,16.7c0,0,7.1-8.2,1.8-12.2
		c-4.8-3.6-13.1,5.4-13.1,5.4l-6-47.6l-4.5-39.6l3-42.6L208.6,475l0.8-81.8L225,363.7z"/>
	<path class="st3" d="M64.8,379.1c0,0,46.2-3,66.2-3.7c20.1-0.7,33.1-1,44.8-4.3c11.7-3.3-0.7-13.4,26-14
		c26.4-0.7,47.3,16.9,51.8,41.1c7,37.5-11,54.2-11.4,60.2c-0.4,8,10.1,18.7,9.4,43.2c-1,31.4-13,33.4-13.7,40.5
		c-0.7,7,11.1,11.4,10.7,36.8c-0.3,22.1-13.4,27.4-14.7,34.8c-1.3,7.4,13.7,9.2,13,43.1c-0.7,36.1-40.5,44.8-39.8,55.2
		c0.7,10.4,26.4,10.4,26.4,10.4l-30.1,7.4l-89-6c0,0-34.8-156.9-34.8-160.9S60.8,408.2,60.8,408.2L64.8,379.1z"/>
	<path class="st2" d="M246,690.6c0,0,9.3-4.8,21.5-32c10.4-23.2,14.7-51.9,43.1-69.1c28.3-17.2,68.2-11.3,68.2-11.3
		s-36.8,6.9-53.4,20.8c-22.6,18.8-34.7,61-48.8,76.3C262.5,690.6,246,690.6,246,690.6z"/>
	<path class="st1" d="M201.8,621.4c-1.8-0.2,8.5-0.2,2.6-0.3c-9.7,4.5-13.4,7.6-24.8,10.6c-35,9-92.4,10.4-128.8,3.8
		c-1.5-0.3-3.3-0.5-5.3-0.7c-2,7.7-3.9,18.8-3.4,32.7C43.5,703,64,701,72.7,702.6c31.6,5.8,81.7,4.6,112.1-3.3
		c20.5-5.3,11-11.3,22.8-26.9C215.1,662.8,222.9,623.2,201.8,621.4z"/>
	<g>
		<path class="st4" d="M247.7,698.3c-1.8,0-3.4-1.2-3.9-2.9c-0.6-2.1,0.6-4.3,2.8-5c24.3-6.8,37.5-32.7,48.2-53.5
			c0.6-1.2,1.3-2.5,1.9-3.7c0.4-0.8,0.9-1.7,1.3-2.6c9-17.7,25.6-50.8,85.8-52.4c2.2,0,4.1,1.7,4.1,3.9c0.1,2.2-1.7,4.1-3.9,4.1
			c-55.4,1.5-70,30.6-78.8,48c-0.5,0.9-0.9,1.8-1.4,2.7c-0.6,1.2-1.2,2.4-1.9,3.6c-11.4,22.2-25.5,49.8-53.1,57.6
			C248.4,698.2,248.1,698.3,247.7,698.3z"/>
	</g>
	<path class="st4" d="M542.2,387.8c-0.3-0.9-0.6-1.7-1-2.6c-0.1-0.2-0.2-0.5-0.3-0.7c-0.3-0.6-0.5-1.2-0.8-1.8
		c-0.1-0.2-0.2-0.5-0.3-0.7c-0.4-0.8-0.8-1.6-1.2-2.3c0,0,0-0.1-0.1-0.1c-0.4-0.7-0.8-1.4-1.2-2.1c-0.1-0.2-0.3-0.4-0.4-0.6
		c-0.3-0.6-0.7-1.1-1-1.6c-0.1-0.2-0.2-0.4-0.4-0.6c-0.5-0.7-0.9-1.4-1.4-2.1c-0.1-0.1-0.1-0.1-0.2-0.2c-0.4-0.6-0.9-1.2-1.3-1.8
		c-0.1-0.2-0.3-0.4-0.4-0.6c-0.4-0.5-0.8-1-1.2-1.5c-0.1-0.2-0.3-0.3-0.4-0.5c-0.5-0.6-1-1.3-1.6-1.9c-0.1-0.1-0.2-0.2-0.2-0.3
		c-0.5-0.5-1-1.1-1.4-1.6c-0.2-0.2-0.3-0.4-0.5-0.5c-0.4-0.5-0.9-0.9-1.3-1.4c-0.1-0.1-0.3-0.3-0.4-0.4c-0.6-0.6-1.2-1.2-1.8-1.8
		c-0.1-0.1-0.2-0.2-0.3-0.3c-0.5-0.5-1-1-1.5-1.5c-0.2-0.2-0.3-0.3-0.5-0.5c-0.5-0.5-1-0.9-1.5-1.4c-0.1-0.1-0.2-0.2-0.4-0.3
		c-0.6-0.6-1.2-1.2-1.9-1.7c-0.1-0.1-0.2-0.2-0.4-0.3c-0.6-0.5-1.1-1-1.7-1.6c0,0,0,0-0.1-0.1c0.2,0.2,22.4,21.3,31.1,82.2
		c4.4,30.6,2.7,78.6-4,112.4c-6.7,33.8-17.5,50.6-37.5,66.2c-18.7,14.7-23.9,42.2-40.3,57.5c-20.7,19.4-39.1,38.8-82.3,48.2
		c-52.2,11.4-111.7,1.3-153.9,3.3c-34.8,1.7-42.9,4.2-73.5,2.3c-5.8-0.4-11.4-0.9-16.9-1.7c-3.2-0.6-6.8-1.5-6.7-2.9
		c0.1-4.1,15.6-4.9,15.6-4.9l-41.9-4l-0.3,4.7c-22.8-6.4-40.3-14.5-48.9-18.3c-0.1,0.4-0.2,0.6-0.2,0.6s30.1,32.2,103,35.1
		c59.2,2.3,61.8-3.3,90.6-1.3c37.2,2.6,64.9,9.1,87.6,7.7c31.4-2,66.2-7.8,101-25.8c44.1-22.7,42.9-43.8,64.3-65.9
		c18.1-18.6,27-21,34.3-29.1c8.4-9.2,23.1-43.6,24.6-102.4C562.9,447,545.4,397,542.2,387.8z"/>
	<path class="st0" d="M204.9,381.8c-29.3-10.1-25.7,8.9-25.7,8.9l-8.3-0.8c2.6,5.5,7.4,17.8,8.1,36.2c0.7,18-2.6,32-5,39.6
		c1.4,0,2.6,0,3.5,0c14,0,20.4,2.4,37.8-15.6C232.6,432,225.3,388.8,204.9,381.8z"/>
	<path class="st2" d="M278.3,345.3c0,0-19.6,37.3-12.7,75.3c6.3,34.9,17.3,49.5,35,68.2c26.5,27.8,31.3,50.4,31.3,50.4
		s11.6-23.3-9-60.2c-19.5-35-37.7-47.4-41.9-72.8C276.9,380.9,278.3,345.3,278.3,345.3z"/>
	<path class="st1" d="M24.8,543.3c0,0-10.2,19.1-9,51.8c1.5,40.9,25.1,38.6,35.1,40.4c36.3,6.6,93.8,5.3,128.8-3.8
		c23.5-6.1,16.7-13,30.3-30.8c8.5-11.1,16.5-56.6-7.7-58.6C186.3,540.9,24.8,543.3,24.8,543.3z"/>
	<path class="st1" d="M15.6,447.9c0,0-12.2,20-12.9,55.6c-0.8,44.4,24.9,43.3,35.6,45.9c39,9.4,101.4,11.4,139.8,3.7
		c25.9-5.2,21.2-11.4,37.1-29.9c9.9-11.5,20.7-60.7-5.4-64.4C192.7,456.3,15.6,447.9,15.6,447.9z"/>
	<path class="st1" d="M8.2,374.6c0,0-9.7,15.2-8,44.4c1.7,29.1,20.3,34.9,31.1,36.8c39.8,7,129.7,10,146.1,10
		c14,0,20.4,2.4,37.8-15.6c17.4-18.1,10-61.2-10.4-68.2c-29.3-10.1-25.7,8.9-25.7,8.9L8.2,374.6z"/>
	<g>
		<path class="st4" d="M180,645.8c-1,0.3,0.3,7.1,1,18c0.3,5.5,0.5,12,0.2,19.2c-0.2,3.6-0.5,7.4-0.9,11.2c-0.2,1.9-0.5,3.9-0.8,5.9
			c-0.3,2-0.7,4.1-1.1,5.9l6.8,1.7c0.5-2.3,0.9-4.4,1.2-6.5c0.3-2.1,0.6-4.2,0.7-6.2c0.4-4.1,0.5-8,0.5-11.8
			c0-7.5-0.7-14.3-1.7-19.9c-1-5.6-2.3-10-3.4-13C181.4,647.2,180.5,645.7,180,645.8z"/>
	</g>
	<g>
		<path class="st4" d="M173.9,457.3c-0.3,1.1-0.5,2.3-0.8,3.4c-0.3,1.1-0.6,2.3-0.9,3.2l8.2,2.8c0.5-1.4,0.8-2.6,1.1-3.9
			c0.3-1.2,0.6-2.5,0.9-3.7c0.5-2.5,1-4.9,1.3-7.3c0.7-4.8,1.1-9.4,1.3-13.8c0.4-8.8-0.2-16.8-1.1-23.4c-1.9-13.2-5-20.9-6.1-20.6
			c-1.2,0.3-0.3,8.3,0,21.1c0.1,6.4,0,14-0.8,22.3L173.9,457.3z"/>
	</g>
	<g>
		<path class="st4" d="M177.9,480.4c-1.1,0.2-0.1,8.2,0.1,21c0.1,6.4-0.1,14-0.7,22.4c-0.3,4.2-0.8,8.6-1.4,13.2
			c-0.6,4.5-1.3,9.3-2.3,13.9l7.7,1.7c1.1-5.1,1.7-9.9,2.2-14.7c0.5-4.7,0.8-9.3,0.9-13.7c0.3-8.7-0.1-16.6-0.9-23.2
			C181.9,487.9,178.9,480.2,177.9,480.4z"/>
	</g>
	<g>
		<path class="st4" d="M178.5,563.3c-1.2,0.3-0.1,8.2,0.1,20.9c0.1,6.4-0.1,13.9-1,22.2c-0.4,4.2-1,8.5-1.7,13
			c-0.4,2.2-0.8,4.5-1.3,6.8c-0.5,2.3-1,4.6-1.6,6.8l7.8,2.3c0.7-2.6,1.3-5,1.8-7.5c0.5-2.4,0.9-4.8,1.2-7.2
			c0.7-4.7,1.1-9.3,1.3-13.7c0.4-8.7,0-16.6-0.8-23.2c-0.8-6.6-2-11.8-3.2-15.3C180,565,179,563.2,178.5,563.3z"/>
	</g>
	<path class="st4" d="M313.3,28.6c-42.5,51.8-20.7,121.1-19.4,152.9c3.2,75.4-6,116.7-38.1,130.5c-30.4,13-142.3,11.3-187.9,23.8
		c-40.5,11-52.7,24.9-59.9,39.5C5.5,380-1.3,393,0.2,418.9c0.9,16.4,7.3,25.4,14.5,30.5c0,0,0,0,0,0c-2.8,5.3-11.5,24.2-12,54.1
		c-0.5,29,10.2,38.6,20.8,42.5c-2.7,6.3-8.7,23.5-7.8,49.1c1.3,34.8,18.5,38.3,29.8,39.7c0,0,0,0,0,0c-2,7.7-3.9,18.8-3.4,32.7
		c0.7,19.2,7,27.4,14,31.2c0,0,0,0,0,0c1.6,1.6,8.5,8,21.6,15c12.2,1.8,26.4,2.7,41.6,2.7c0,0,0,0,0,0c25.5,0,51.1-0.9,68.8-5.5
		c20.7-5.3,11.3-10,29.9-30.6c8.8-9.8,13.3-38.1,3.3-52.7c-3.8-5.5-9.3-6.4-9.3-9.5c0-3.1,6.3-5.1,11.3-14.5c7-13.3,9-30.1-2.5-52.6
		c-2.3-4.5-6.7-8.5-7.1-11.4c-0.3-2.9,4.8-1.8,10.3-7.3c16.3-16.3,13.6-47.4,5.2-62.3c-2.5-4.5-6.8-7.5-6.9-12.9
		c-0.1-5.4,21.7-16.9,14.7-52.8c-3.3-16.7-13.3-28.6-28.1-33.6c-6.8-2.3-2.1-3.4-9.2-3.3c-15.3,0.2-16.7,9.5-25.7,10.5
		c-21.1,2.5-71.5,1.2-80.8,0.8c-9.3-0.4-34-1-34,0.8c0.1,1.7,113,10,118.7,9c5.8-1,1.8-14.3,26.7-6.6c15,4.6,22.7,29.2,19.3,48.9
		c-2.8,7,2.1,17.3-22.7,26.4c-19.1,7-18,5.9-59.8,4.3c-54.9-2-84.6-7.8-97-10c-22.1-4-32.6-16.1-33.6-30.1
		c-5-66.2,43.1-84.8,149-87.8c85.8-2.4,111,3.7,134.8-41.1c29.8-56.2-10.5-184.1,18.1-239.3c25.3-48.8,55.2-52.9,55.2-52.9
		C353.5-0.7,333,4.4,313.3,28.6z M211.5,662.8c-1.7,4.2-0.1,12.3-12.7,20.3c-10.6,6.8-9.9,15.2-41.1,17.3
		c-33.5,2.3-65.9-0.8-77.8-2.4c-17.8-2.4-26.6-12.5-28.3-23.1c-2.3-14.5-1.4-24.9,3.4-30.6c2.8-3.3,10.8,0.2,22.1,1.3
		c10.8,1,24.5,3.8,81.4,0.5c45.5-2.7,42.3-15.1,48.5-17.8C213.1,637.1,213.7,652.2,211.5,662.8z M213.4,593.1c0.3-1,0.6-2.1,0.8-3.3
		C214,591,213.7,592.1,213.4,593.1z M214.2,589.8c-2.7,7.5,1.7,15.2-14.4,24.9c-12.4,7.5-15.7,15.9-51.5,18.3
		c-38.4,2.6-75.6-0.9-89.3-2.7c-20.5-2.8-30.6-14.3-32.5-26.6c-2.6-16.7-1.1-29,4.6-40.1c3.1-6.1,16-3.7,23.7-3.2
		c9,0.6,36.5,5.3,95.3,3c56-2.1,51.8-10.1,58.9-13.2C216.1,560.2,216.8,577.6,214.2,589.8z M21.3,470.2c3.8-6.5,17.5-3.1,25.9-2.1
		c9.7,1.2,39.2,7.9,103.2,9c60.9,1.1,59.1-6.2,67-9.1c7,11.3,6.7,30.3,3.2,43.3c-2.3,8.1,0.7,15.9-17.1,25.6
		c-13.8,7.5-20.9,11.5-59.8,12c-41.8,0.5-81.5-2-96.2-4.9c-22-4.3-32.3-17.4-33.6-30.8C12.1,495.2,14.5,481.9,21.3,470.2z"/>
	<defs>
		<filter id="Adobe_OpacityMaskFilter" filterUnits="userSpaceOnUse" x="179.2" y="380.5" width="45.5" height="81">
			<feColorMatrix  type="matrix" values="1 0 0 0 0  0 1 0 0 0  0 0 1 0 0  0 0 0 1 0"/>
		</filter>
	</defs>
	<mask maskUnits="userSpaceOnUse" x="179.2" y="380.5" width="45.5" height="81" id="SVGID_1_">
		<g class="st5">
			
				<linearGradient id="SVGID_00000015314528667061409650000006831422981549460621_" gradientUnits="userSpaceOnUse" x1="272.8381" y1="421.0309" x2="88.1571" y2="421.0309">
				<stop  offset="0" style="stop-color:#000000"/>
				<stop  offset="1" style="stop-color:#FFFFFF"/>
			</linearGradient>
			<path style="fill:url(#SVGID_00000015314528667061409650000006831422981549460621_);" d="M151.5,390.2
				c-0.8,2.1,6.3,12.7,6.9,34.6c0.7,24.1-2.8,34.4-2.4,35.7c0.5,1.4,19.4,2.6,41.9-5.6c24-8.8,28-25.8,25.1-43.5
				c-2.4-14.9-9.4-31.1-30.9-30.9C172.4,380.8,152.3,388.1,151.5,390.2z"/>
		</g>
	</mask>
	<path class="st7" d="M179.3,390.2c-0.8,2.1,6.3,12.7,6.9,34.6c0.7,24.1-2.8,34.4-2.4,35.7c0.5,1.4-2,2.6,20.4-5.6
		c24-8.8,21.6-25.8,18.7-43.5c-2.4-14.9-3.1-31.1-24.5-30.9C178.8,380.8,180.1,388.1,179.3,390.2z"/>
	<defs>
		
			<filter id="Adobe_OpacityMaskFilter_00000084491886439369131130000015650025740047600035_" filterUnits="userSpaceOnUse" x="287.1" y="4.8" width="256.9" height="545.4">
			<feColorMatrix  type="matrix" values="1 0 0 0 0  0 1 0 0 0  0 0 1 0 0  0 0 0 1 0"/>
		</filter>
	</defs>
	
		<mask maskUnits="userSpaceOnUse" x="287.1" y="4.8" width="256.9" height="545.4" id="SVGID_00000167372695071653679300000007126552923951395466_">
		<g style="filter:url(#Adobe_OpacityMaskFilter_00000084491886439369131130000015650025740047600035_);">
			
				<linearGradient id="SVGID_00000033333549256360633930000004450676256676610975_" gradientUnits="userSpaceOnUse" x1="378.2884" y1="-10.4507" x2="429.4637" y2="489.266">
				<stop  offset="0" style="stop-color:#FFFFFF"/>
				<stop  offset="1" style="stop-color:#000000"/>
			</linearGradient>
			<path style="fill:url(#SVGID_00000033333549256360633930000004450676256676610975_);" d="M369.8,4.8c-9.3-0.3-35,9.7-53.5,49.2
				c-20.9,44.7-4.6,114.9-6,166.6c-2.8,101.9-31.9,126.4-20.4,181.6c7,33.3,39.8,55.3,49.2,82.8c11,32.6,8,65.2,8,65.2l209.4-90.1
				c0,0,2.7-32.4-14-75.6c-10.1-26.1-30.8-41.1-43.8-55.5c-9-9.9-19.1-20.6-30.8-31.4c-26.4-24.4-47.6-48.7-63.2-116.4
				c-13.8-59.9-6.7-79.3-11.9-126.1C388.7,19,383.5,5.2,369.8,4.8z"/>
		</g>
	</mask>
	<path style="mask:url(#SVGID_00000167372695071653679300000007126552923951395466_);fill:#FFE9D9;" d="M369.8,4.8
		c-9.3-0.3-35,9.7-53.5,49.2c-20.9,44.7-4.6,114.9-6,166.6c-2.8,101.9-31.9,126.4-20.4,181.6c7,33.3,39.8,55.3,49.2,82.8
		c11,32.6,8,65.2,8,65.2l196.8-90.1c0,0,2.7-32.4-14-75.6c-10.1-26.1-23.8-35.8-36.9-50.2c-9-9.9-13.4-25.9-25.1-36.7
		c-26.4-24.4-47.6-48.7-63.2-116.4c-13.8-59.9-6.7-79.3-11.9-126.1C388.7,19,383.5,5.2,369.8,4.8z"/>
	<defs>
		
			<filter id="Adobe_OpacityMaskFilter_00000005243541304872616450000006710284054205607314_" filterUnits="userSpaceOnUse" x="246.9" y="586.5" width="248.9" height="136.4">
			<feColorMatrix  type="matrix" values="1 0 0 0 0  0 1 0 0 0  0 0 1 0 0  0 0 0 1 0"/>
		</filter>
	</defs>
	
		<mask maskUnits="userSpaceOnUse" x="246.9" y="586.5" width="248.9" height="136.4" id="SVGID_00000022533268336892673180000001887166612320984255_">
		<g style="filter:url(#Adobe_OpacityMaskFilter_00000005243541304872616450000006710284054205607314_);">
			
				<linearGradient id="SVGID_00000027586556235909390270000002064046987369878688_" gradientUnits="userSpaceOnUse" x1="439.9238" y1="763.0706" x2="164.5421" y2="327.6868">
				<stop  offset="0" style="stop-color:#000000"/>
				<stop  offset="1" style="stop-color:#FFFFFF"/>
			</linearGradient>
			<path style="fill:url(#SVGID_00000027586556235909390270000002064046987369878688_);" d="M246.9,700.3c0,0,15.7-3.2,31.6-19.9
				c25.3-26.4,28.8-68.4,63.2-83.8c20.2-9,45.9-10.6,73.1-9.9c31.5,0.8,73.8,8.7,79.3,19.6c7.6,15-10.5,44.4-35.8,68.9
				c-14.5,14-30.6,26.7-47.3,33.4c-48.3,19.6-94.3,13.6-126.6,13.2C259.5,721.6,246.9,700.3,246.9,700.3z"/>
		</g>
	</mask>
	<path style="mask:url(#SVGID_00000022533268336892673180000001887166612320984255_);fill:#FFE9D9;" d="M246.9,700.3
		c0,0,15.7-3.2,31.6-19.9c25.3-26.4,28.8-68.4,63.2-83.8c20.2-9,45.9-10.6,73.1-9.9c31.5,0.8,73.8,8.7,79.3,19.6
		c7.6,15-10.5,44.4-35.8,68.9c-14.5,14-30.6,26.7-47.3,33.4c-48.3,19.6-94.3,13.6-126.6,13.2C259.5,721.6,246.9,700.3,246.9,700.3z"
		/>
	<defs>
		
			<filter id="Adobe_OpacityMaskFilter_00000135650988215236073100000013309310038161019793_" filterUnits="userSpaceOnUse" x="181" y="470.5" width="40.3" height="73.7">
			<feColorMatrix  type="matrix" values="1 0 0 0 0  0 1 0 0 0  0 0 1 0 0  0 0 0 1 0"/>
		</filter>
	</defs>
	
		<mask maskUnits="userSpaceOnUse" x="181" y="470.5" width="40.3" height="73.7" id="SVGID_00000125599632758750041540000009002002363257924227_">
		<g style="filter:url(#Adobe_OpacityMaskFilter_00000135650988215236073100000013309310038161019793_);">
			
				<linearGradient id="SVGID_00000000929965010523208630000008958186251347369918_" gradientUnits="userSpaceOnUse" x1="279.8076" y1="507.3915" x2="42.3034" y2="507.3915">
				<stop  offset="0" style="stop-color:#000000"/>
				<stop  offset="1" style="stop-color:#FFFFFF"/>
			</linearGradient>
			<path style="fill:url(#SVGID_00000000929965010523208630000008958186251347369918_);" d="M153.7,478.3c-2.2,1.2,3.2,13.4,4,33.8
				c0.8,21.6-1.8,31.1-0.3,31.9c1.5,0.8,26.9-0.5,42-9.5c15.1-9.1,20.6-18.7,21.7-35.1c1.3-17.8-2.7-27.9-4.7-28.8
				c-2-0.8-8.7,3.2-31.8,5.7C160.7,478.9,155.9,477.2,153.7,478.3z"/>
		</g>
	</mask>
	<path style="mask:url(#SVGID_00000125599632758750041540000009002002363257924227_);fill:#FFE9D9;" d="M181.5,478.3
		c-2.2,1.2,3.2,13.4,4,33.8c0.8,21.6-1.8,31.1-0.3,31.9c1.5,0.8,5.5-0.5,20.5-9.5c15.1-9.1,14.2-18.7,15.4-35.1
		c1.3-17.8-2.7-27.9-4.7-28.8c-2-0.8,12.1,3.2-11,5.7C181.5,478.9,183.7,477.2,181.5,478.3z"/>
	<defs>
		
			<filter id="Adobe_OpacityMaskFilter_00000133498224566199977650000011789554957724426173_" filterUnits="userSpaceOnUse" x="181.5" y="552.2" width="33" height="74.6">
			<feColorMatrix  type="matrix" values="1 0 0 0 0  0 1 0 0 0  0 0 1 0 0  0 0 0 1 0"/>
		</filter>
	</defs>
	
		<mask maskUnits="userSpaceOnUse" x="181.5" y="552.2" width="33" height="74.6" id="SVGID_00000134250568637291604330000011316988100032614059_">
		<g style="filter:url(#Adobe_OpacityMaskFilter_00000133498224566199977650000011789554957724426173_);">
			
				<linearGradient id="SVGID_00000027604534803509627760000010027091577234061735_" gradientUnits="userSpaceOnUse" x1="120.2252" y1="589.5328" x2="237.0172" y2="589.5328">
				<stop  offset="0" style="stop-color:#FFFFFF"/>
				<stop  offset="1" style="stop-color:#000000"/>
			</linearGradient>
			<path style="fill:url(#SVGID_00000027604534803509627760000010027091577234061735_);" d="M153.9,562.8c1.3-0.9,15-1,28.5-3.8
				c14.9-3,23.8-7,25.8-6.8c2,0.2,9.4,15.7,4.8,37.8c-5.9,28-55.2,37.8-56.6,36.8c-1.4-1,3.8-12.8,2.5-34.1
				C157.9,575.2,152.6,563.7,153.9,562.8z"/>
		</g>
	</mask>
	<path style="mask:url(#SVGID_00000134250568637291604330000011316988100032614059_);fill:#FFE9D9;" d="M181.7,562.8
		c1.3-0.9,7.9-1,21.5-3.8c14.9-3,3-7,5.1-6.8c2,0.2,9.4,15.7,4.8,37.8c-5.9,28-27.4,37.8-28.8,36.8c-1.4-1,3.8-12.8,2.5-34.1
		C185.7,575.2,180.4,563.7,181.7,562.8z"/>
	<defs>
		
			<filter id="Adobe_OpacityMaskFilter_00000155832042365957580560000005553020474045405864_" filterUnits="userSpaceOnUse" x="182.3" y="629.9" width="29.4" height="64.6">
			<feColorMatrix  type="matrix" values="1 0 0 0 0  0 1 0 0 0  0 0 1 0 0  0 0 0 1 0"/>
		</filter>
	</defs>
	
		<mask maskUnits="userSpaceOnUse" x="182.3" y="629.9" width="29.4" height="64.6" id="SVGID_00000034052444440873929940000005440175549970609555_">
		<g style="filter:url(#Adobe_OpacityMaskFilter_00000155832042365957580560000005553020474045405864_);">
			
				<linearGradient id="SVGID_00000090273753618006521930000017487050261285182352_" gradientUnits="userSpaceOnUse" x1="84.2438" y1="662.212" x2="261.1039" y2="662.212">
				<stop  offset="0" style="stop-color:#FFFFFF"/>
				<stop  offset="1" style="stop-color:#000000"/>
			</linearGradient>
			<path style="fill:url(#SVGID_00000090273753618006521930000017487050261285182352_);" d="M154.6,645.1c-0.9,1.2,3.3,7.8,5.1,23.4
				c2.1,17.6,0.1,25.7,0.9,26c0.8,0.3,16.7-3.1,31-12.1c13-8.2,19.3-15.7,19.9-25.1c1.2-18.9-3.8-26.9-5-27.3
				c-1.2-0.4-8.5,3.8-25,8.9C165.6,643.7,155.5,643.9,154.6,645.1z"/>
		</g>
	</mask>
	<path style="mask:url(#SVGID_00000034052444440873929940000005440175549970609555_);fill:#FFE9D9;" d="M182.4,645.1
		c-0.9,1.2,3.3,7.8,5.1,23.4c2.1,17.6,0.1,25.7,0.9,26c0.8,0.3-4.7-3.1,9.6-12.1c13-8.2,13-15.7,13.5-25.1c1.2-18.9-3.8-26.9-5-27.3
		c-1.2-0.4,12.3,3.8-4.2,8.9C186.4,643.7,183.4,643.9,182.4,645.1z"/>
	<path class="st23" d="M499,336.3c-19.2-21.6-47.4-76-67-122.8c-20.4-48.5-20.5-82.9-23.1-104.7c-1.7-14.4-8.3-30.7-11-53.5
		c-4.4-35.8-7.7-44.8-9.4-48.5c-0.2-0.4-0.9-1-2-1.7c0.1,3.5,0.7,21.4,2.3,33.9c1.8,13.9,6,28.7,7.7,42.1c2,15.7,1.3,39.1,4,62.9
		c2.7,23.7,12.4,56.5,26.1,91.6c13.7,35.1,34.4,62.1,55.9,87.6c20.7,24.6,31.5,28,31.6,28C509.1,346.7,504,341.9,499,336.3z"/>
	<path class="st24" d="M404.6,88.3c-2.4-9.5-5.1-20.2-6.7-32.9c-4.1-34.1-7.4-43.9-9.1-47.9c0,0-5.9,1.8-8.3,12.1
		c-2.3,10.1-1.2,32.3,3.9,44C390.3,77,404.6,88.3,404.6,88.3L404.6,88.3z"/>
	<defs>
		
			<filter id="Adobe_OpacityMaskFilter_00000023245546333971799200000010353136421591421571_" filterUnits="userSpaceOnUse" x="12" y="377.2" width="163.8" height="83.6">
			<feColorMatrix  type="matrix" values="1 0 0 0 0  0 1 0 0 0  0 0 1 0 0  0 0 0 1 0"/>
		</filter>
	</defs>
	
		<mask maskUnits="userSpaceOnUse" x="12" y="377.2" width="163.8" height="83.6" id="SVGID_00000124841960300063567040000009423760157410752699_">
		<g style="filter:url(#Adobe_OpacityMaskFilter_00000023245546333971799200000010353136421591421571_);">
			
				<linearGradient id="SVGID_00000113330188013776667460000011812780513779907992_" gradientUnits="userSpaceOnUse" x1="-416.6749" y1="435.9623" x2="196.1556" y2="415.6771">
				<stop  offset="0" style="stop-color:#FFFFFF"/>
				<stop  offset="1" style="stop-color:#000000"/>
			</linearGradient>
			<path style="fill:url(#SVGID_00000113330188013776667460000011812780513779907992_);" d="M22.9,377.6c12.8-2.2,47.3,4.9,74.2,7.2
				c26.8,2.3,72.9,4.2,74.8,5.8c1.9,1.7,4.8,12.2,3.6,34.8c-1.3,22.6-3.3,33.3-5,34.6c-1.8,1.3-32.7,1.1-79.6-3.3
				c-47.9-4.5-59.4-8.5-71.2-18.7C8.1,428.1,10.1,379.8,22.9,377.6z"/>
		</g>
	</mask>
	<path style="mask:url(#SVGID_00000124841960300063567040000009423760157410752699_);fill:#FFE9D9;" d="M22.9,377.6
		c12.8-2.2,47.3,4.9,74.2,7.2c26.8,2.3,72.9,4.2,74.8,5.8c1.9,1.7,4.8,12.2,3.6,34.8c-1.3,22.6-3.3,33.3-5,34.6
		c-1.8,1.3-32.7,1.1-79.6-3.3c-47.9-4.5-59.4-8.5-71.2-18.7C8.1,428.1,10.1,379.8,22.9,377.6z"/>
	<defs>
		
			<filter id="Adobe_OpacityMaskFilter_00000124841020101364395520000001058808291179753659_" filterUnits="userSpaceOnUse" x="15.3" y="468.8" width="160.2" height="78.2">
			<feColorMatrix  type="matrix" values="1 0 0 0 0  0 1 0 0 0  0 0 1 0 0  0 0 0 1 0"/>
		</filter>
	</defs>
	
		<mask maskUnits="userSpaceOnUse" x="15.3" y="468.8" width="160.2" height="78.2" id="SVGID_00000071558084063459337500000007304155960124279714_">
		<g style="filter:url(#Adobe_OpacityMaskFilter_00000124841020101364395520000001058808291179753659_);">
			
				<linearGradient id="SVGID_00000181048744276399251400000010971276579792104375_" gradientUnits="userSpaceOnUse" x1="-277.8986" y1="507.9042" x2="180.0141" y2="507.9042">
				<stop  offset="0" style="stop-color:#FFFFFF"/>
				<stop  offset="1" style="stop-color:#000000"/>
			</linearGradient>
			<path style="fill:url(#SVGID_00000181048744276399251400000010971276579792104375_);" d="M172.1,480.2
				c-1.8-1.7-26.3-0.5-67.2-3.3c-41.1-2.8-69.7-11.2-78.3-7c-8.6,4.2-11,20.4-11.3,29.6c-0.3,9.2,0.7,29.3,19.1,38.1
				c13.2,6.4,39.1,8.4,69.2,9c30.1,0.7,66.5,0.1,67.5-2.3c1-2.3,4.7-19.9,4.3-35.5C175.2,493.3,174,481.9,172.1,480.2z"/>
		</g>
	</mask>
	<path style="mask:url(#SVGID_00000071558084063459337500000007304155960124279714_);fill:#FFE9D9;" d="M172.1,480.2
		c-1.8-1.7-26.3-0.5-67.2-3.3c-41.1-2.8-69.7-11.2-78.3-7c-8.6,4.2-11,20.4-11.3,29.6c-0.3,9.2,0.7,29.3,19.1,38.1
		c13.2,6.4,39.1,8.4,69.2,9c30.1,0.7,66.5,0.1,67.5-2.3c1-2.3,4.7-19.9,4.3-35.5C175.2,493.3,174,481.9,172.1,480.2z"/>
	<defs>
		
			<filter id="Adobe_OpacityMaskFilter_00000088109272426111323720000003207982353239505796_" filterUnits="userSpaceOnUse" x="27.3" y="561.7" width="148.6" height="70.1">
			<feColorMatrix  type="matrix" values="1 0 0 0 0  0 1 0 0 0  0 0 1 0 0  0 0 0 1 0"/>
		</filter>
	</defs>
	
		<mask maskUnits="userSpaceOnUse" x="27.3" y="561.7" width="148.6" height="70.1" id="SVGID_00000052821926686848054490000007974163013529115815_">
		<g style="filter:url(#Adobe_OpacityMaskFilter_00000088109272426111323720000003207982353239505796_);">
			
				<linearGradient id="SVGID_00000168816777536241292830000003049554637105270458_" gradientUnits="userSpaceOnUse" x1="-255.7044" y1="596.8108" x2="187.203" y2="596.8108">
				<stop  offset="0" style="stop-color:#FFFFFF"/>
				<stop  offset="1" style="stop-color:#000000"/>
			</linearGradient>
			<path style="fill:url(#SVGID_00000168816777536241292830000003049554637105270458_);" d="M38,562c4.7-1.2,28.4,3.1,66.2,4.3
				c37.8,1.3,64.1-1.7,68.9-1.8c4.8-0.2,2.9,59.2-2.3,63.2c-3.2,2.4-31.1,5.2-73.4,3.8c-46.8-1.5-55.9-8.3-60.2-12.5
				c-4.3-4.3-10.9-13.5-9.8-32.1C28.5,568.3,33.3,563.1,38,562z"/>
		</g>
	</mask>
	<path style="mask:url(#SVGID_00000052821926686848054490000007974163013529115815_);fill:#FFE9D9;" d="M38,562
		c4.7-1.2,28.4,3.1,66.2,4.3c37.8,1.3,64.1-1.7,68.9-1.8c4.8-0.2,2.9,59.2-2.3,63.2c-3.2,2.4-31.1,5.2-73.4,3.8
		c-46.8-1.5-55.9-8.3-60.2-12.5c-4.3-4.3-10.9-13.5-9.8-32.1C28.5,568.3,33.3,563.1,38,562z"/>
	<defs>
		
			<filter id="Adobe_OpacityMaskFilter_00000000917779079780121190000017834129510509392571_" filterUnits="userSpaceOnUse" x="51.6" y="644.8" width="128.3" height="55.1">
			<feColorMatrix  type="matrix" values="1 0 0 0 0  0 1 0 0 0  0 0 1 0 0  0 0 0 1 0"/>
		</filter>
	</defs>
	
		<mask maskUnits="userSpaceOnUse" x="51.6" y="644.8" width="128.3" height="55.1" id="SVGID_00000052787018980216513950000001625243047581547949_">
		<g style="filter:url(#Adobe_OpacityMaskFilter_00000000917779079780121190000017834129510509392571_);">
			
				<linearGradient id="SVGID_00000026847906458776411020000001961068276230090937_" gradientUnits="userSpaceOnUse" x1="-110.3372" y1="672.3665" x2="159.1043" y2="672.3665">
				<stop  offset="0" style="stop-color:#FFFFFF"/>
				<stop  offset="1" style="stop-color:#000000"/>
			</linearGradient>
			<path style="fill:url(#SVGID_00000026847906458776411020000001961068276230090937_);" d="M58.1,644.9c3-0.8,26.6,4.5,55,4.5
				c28.4,0,57.7-2.2,63.1-2.5c5.4-0.3,4,45.5,1.7,48.7c-2.3,3.2-25.4,5.4-68.7,3.8c-30.2-1-43-5.7-46.7-8.9
				c-3.7-3.2-11-8.4-10.9-27.9C51.7,649.7,55.1,645.7,58.1,644.9z"/>
		</g>
	</mask>
	<path style="mask:url(#SVGID_00000052787018980216513950000001625243047581547949_);fill:#FFE9D9;" d="M58.1,644.9
		c3-0.8,26.6,4.5,55,4.5c28.4,0,57.7-2.2,63.1-2.5c5.4-0.3,4,45.5,1.7,48.7c-2.3,3.2-25.4,5.4-68.7,3.8c-30.2-1-43-5.7-46.7-8.9
		c-3.7-3.2-11-8.4-10.9-27.9C51.7,649.7,55.1,645.7,58.1,644.9z"/>
	<defs>
		
			<filter id="Adobe_OpacityMaskFilter_00000163788202569034622980000013895595701044666538_" filterUnits="userSpaceOnUse" x="284.2" y="313.5" width="261.3" height="224.8">
			<feColorMatrix  type="matrix" values="1 0 0 0 0  0 1 0 0 0  0 0 1 0 0  0 0 0 1 0"/>
		</filter>
	</defs>
	
		<mask maskUnits="userSpaceOnUse" x="284.2" y="313.5" width="261.3" height="224.8" id="SVGID_00000103231748669651073410000007544994066030525086_">
		<g style="filter:url(#Adobe_OpacityMaskFilter_00000163788202569034622980000013895595701044666538_);">
			
				<linearGradient id="SVGID_00000105418290816383411740000018191590763264306582_" gradientUnits="userSpaceOnUse" x1="551.9938" y1="244.604" x2="392.6806" y2="481.9715">
				<stop  offset="0" style="stop-color:#FFFFFF"/>
				<stop  offset="1" style="stop-color:#000000"/>
			</linearGradient>
			<path style="fill:url(#SVGID_00000105418290816383411740000018191590763264306582_);" d="M295.9,337.7c-10,11.4-17.1,44.5-6,74.1
				c10.5,28.2,33.6,49,44.2,75.1c10.7,26.4,10.2,39.8,9.7,48.8c-0.5,9,57.4-8.4,108.2-8.5c50.8-0.1,91.8,11.7,98.8,7.9
				c7-3.8,18.1-107.2-17.1-163.4c-38.7-61.9-86.8-59.2-137.2-57.4C341.1,316.1,303.6,328.9,295.9,337.7z"/>
		</g>
	</mask>
	<path style="mask:url(#SVGID_00000103231748669651073410000007544994066030525086_);fill:#FFE9D9;" d="M295.9,337.7
		c-10,11.4-17.1,44.5-6,74.1c10.5,28.2,33.6,49,44.2,75.1c10.7,26.4,10.2,39.8,9.7,48.8c-0.5,9,57.4-8.4,108.2-8.5
		c50.8-0.1,79.2,11.7,86.3,7.9c7-3.8,18.1-107.2-17.1-163.4c-38.7-61.9-74.2-59.2-124.6-57.4C341.1,316.1,303.6,328.9,295.9,337.7z"
		/>
	<g>
		<path class="st4" d="M335.8,542.5c-0.1,0-0.2,0-0.3,0c-2.2-0.2-3.9-2.1-3.7-4.3c3-38.8-14.1-63.1-30.6-86.7
			c-10.2-14.5-19.8-28.2-23.9-44.2c-8.2-32.2,2.3-67.3,2.7-68.7c0.6-2.1,2.9-3.3,5-2.7c2.1,0.6,3.3,2.9,2.7,5
			c-0.1,0.3-10.2,34.4-2.6,64.4c3.7,14.6,12.9,27.7,22.6,41.6c16.6,23.6,35.3,50.3,32.1,91.9C339.6,540.9,337.8,542.5,335.8,542.5z"
			/>
	</g>
</g>
</svg>
