<svg xmlns="http://www.w3.org/2000/svg" width="2000" height="1999.97" viewBox="0 0 2000 1999.97"><g fill="#16d570"><path d="M1536.33,2000a463.48,463.48,0,0,1-328-135.85L135.83,791.61A463.73,463.73,0,0,1,463.76,0H1536.22C1792.36,0,2000,207.58,2000,463.73V1536.24A463.59,463.59,0,0,1,1536.33,2000Z" opacity=".35"/><path d="M463.76,2000a462.61,462.61,0,0,1-327.93-135.75c-181.08-181.13-181.13-474.84,0-655.86L1208.29,135.85c181.13-181.13,474.73-181,655.86-.11,181.08,181.14,181.13,474.84,0,655.87L791.69,1864.12A462.28,462.28,0,0,1,463.76,2000Z"/></g></svg>