<svg enable-background="new 0 0 2394.3 2374.8" viewBox="0 0 2394.3 2374.8" xmlns="http://www.w3.org/2000/svg"><path d="m2232.6 822.7c70.2 70 129.1 163.5 149.9 253.7 38.4 166.3-18.8 342.2-150 469.6l-668.1 649.7c-108.4 105.5-229.5 185-367.3 178.8-119-5.4-181.4-39.6-329.2-128.6l-720.7-708.2c-79.3-75.4-108.8-177.7-137-280.1-42.8-155.2 56.1-349.7 177.2-470l642.5-638.4c200-198.7 526.6-198.9 726.4 0z" fill="#fff"/><path d="m2384 1076.4c1.9 8.1 2.7 17.2 4.6 27.1 21.8 157.2-19.1 300-129.3 413-236.7 242.2-476.1 481.7-720.1 714.9-193.9 184.4-481.5 192.5-675.4 12.7l-737.3-726.7c0-.9 0-.9-.9-.9l547.1-106.6c6.4 15.4 12.8 30.7 20 45.2 59.2 116.6 149.3 201.5 270.4 249.4 182.1 72.3 367.8 72.3 555.3 25.3 41.9-10.8 80.1-28 113.8-53.3 53.7-38.8 73.7-103.9 56.4-167.2-21.8-78.6-60.1-98.5-138.4-68.7-100.1 38.9-203 53.3-308.6 42.5-95.6-9.9-179.3-42.5-226.7-140.1l467.9-91.3c14.6-1.8 29.1-3.6 44.6-6.3 38.2-6.3 78.3-10.8 113.8-24.4zm-1282.6-483.5c-293.1 45.2-476.1 251.3-477 541.4 0 16.3 0 32.5-3.6 46.1l-599 117.5c-48.2-138.3-10.9-263.9 58.3-383.2 28.2-47 68.3-88.6 107.4-127.4 206.6-207 416.9-410.3 620.8-620 216.6-221.4 548-223.2 765.6-3.6l651.8 648c11.8 11.7 23.7 25.3 41 45.2l-518.9 102.1c-9.1-10.8-11.8-22.6-16.4-33.4-102-287.5-405.1-367.9-630-332.7zm39.2 284.7c112-14.5 172.1 20.8 206.6 125.6-140.2 31.6-240.3 43.4-362.3 61.4 2.8-112.9 57.4-175.3 155.7-187z" fill="#e5303e"/></svg>