<svg id="Layer_1" xmlns="http://www.w3.org/2000/svg" xmlns:xlink="http://www.w3.org/1999/xlink" viewBox="0 0 583.2 767.7" width="1899" height="2500"><style>.st0{clip-path:url(#SVGID_2_)}.st1{fill:#f33c00}.st2{clip-path:url(#SVGID_4_)}.st3{clip-path:url(#SVGID_6_)}</style><g transform="translate(-561.13 -1123.905) scale(4.80752)"><defs><path id="SVGID_1_" d="M190.9 269h54.4v76.6h-54.4z"/></defs><clipPath id="SVGID_2_"><use xlink:href="#SVGID_1_" overflow="visible"/></clipPath><g class="st0"><path class="st1" d="M222.5 299.6c-.8-.4-1.7-.4-2.5 0l-6.3 3.6c-.8.4-1.3 1.3-1.3 2.2v7.3c0 .9.5 1.7 1.3 2.2.4.2.8.3 1.2.3.4 0 .9-.1 1.3-.3l6.3-3.6c.8-.4 1.2-1.3 1.2-2.2v-7.3c0-.9-.4-1.7-1.2-2.2"/></g></g><g transform="translate(-561.13 -1123.905) scale(4.80752)"><defs><path id="SVGID_3_" d="M171.2 280.2h54.4v76.6h-54.4z"/></defs><clipPath id="SVGID_4_"><use xlink:href="#SVGID_3_" overflow="visible"/></clipPath><g class="st2"><path class="st1" d="M202.8 310.9c-.8-.4-1.7-.4-2.5 0l-6.3 3.6c-.8.4-1.3 1.3-1.3 2.2v7.3c0 .9.5 1.7 1.3 2.2.4.2.8.3 1.2.3.4 0 .9-.1 1.3-.3l6.3-3.6c.8-.4 1.2-1.3 1.2-2.2v-7.3c.1-.9-.4-1.8-1.2-2.2"/></g></g><g transform="translate(-561.13 -1123.905) scale(4.80752)"><defs><path id="SVGID_5_" d="M-114.2-70.2H469v767.7h-583.2z"/></defs><clipPath id="SVGID_6_"><use xlink:href="#SVGID_5_" overflow="visible"/></clipPath><g class="st3"><path class="st1" d="M229.6 335.3l-9.7 5.6-31.2 18c-.9.5-1.8.8-2.8.8-1 0-1.9-.3-2.8-.8-1.7-1-2.8-2.9-2.8-4.9v-47.2c0-2 1.1-3.9 2.8-4.9l33.2-19.2 7.7-4.4c1.7-1 3.9-1 5.6 0 1.7 1 2.8 2.9 2.8 4.9v47.2c0 2-1.1 3.9-2.8 4.9M238 274c-.1-4.5-2.5-8.5-6.2-10.7L184.6 236c-2-1.4-4.5-2.3-7.2-2.3s-5.1.8-7.1 2.2l-47.6 27.5c-3.5 2.2-5.9 6.2-5.9 10.7V330c.1 4.4 2.5 8.3 6.1 10.5l91.2 52.6c.8.5 1.9.5 2.8 0 .9-.5 1.4-1.4 1.4-2.4v-39c0-2 1.1-3.9 2.8-4.9l10.8-6.2c3.6-2.1 6-6 6.2-10.3V274h-.1"/></g></g></svg>