<?xml version="1.0" encoding="UTF-8"?>
<svg width="800" height="430" xmlns="http://www.w3.org/2000/svg">
  <!-- 背景 -->
  <rect width="800" height="430" fill="#f8f9fa" rx="10" ry="10"/>
  
  <!-- 标题 -->
  <text x="400" y="40" font-family="Arial, sans-serif" font-size="24" text-anchor="middle" font-weight="bold">微语系统集群架构图</text>
  
  <!-- 负载均衡层 -->
  <rect x="250" y="80" width="300" height="60" rx="5" ry="5" fill="#90caf9" stroke="#1976d2" stroke-width="2"/>
  <text x="400" y="115" font-family="Arial, sans-serif" font-size="16" text-anchor="middle" font-weight="bold">负载均衡层 (Nginx/云服务商LB)</text>

  <!-- 应用服务层 -->
  <rect x="100" y="170" width="180" height="60" rx="5" ry="5" fill="#a5d6a7" stroke="#388e3c" stroke-width="2"/>
  <text x="190" y="205" font-family="Arial, sans-serif" font-size="16" text-anchor="middle" font-weight="bold">微语服务实例 1</text>
  
  <rect x="310" y="170" width="180" height="60" rx="5" ry="5" fill="#a5d6a7" stroke="#388e3c" stroke-width="2"/>
  <text x="400" y="205" font-family="Arial, sans-serif" font-size="16" text-anchor="middle" font-weight="bold">微语服务实例 2</text>
  
  <rect x="520" y="170" width="180" height="60" rx="5" ry="5" fill="#a5d6a7" stroke="#388e3c" stroke-width="2"/>
  <text x="610" y="205" font-family="Arial, sans-serif" font-size="16" text-anchor="middle" font-weight="bold">微语服务实例 3</text>
  
  <!-- 连接线 - 负载均衡到服务 -->
  <line x1="400" y1="140" x2="190" y2="170" stroke="#666666" stroke-width="2"/>
  <line x1="400" y1="140" x2="400" y2="170" stroke="#666666" stroke-width="2"/>
  <line x1="400" y1="140" x2="610" y2="170" stroke="#666666" stroke-width="2"/>
  
  <!-- 消息中间件 -->
  <rect x="250" y="260" width="300" height="60" rx="5" ry="5" fill="#ffcc80" stroke="#ef6c00" stroke-width="2"/>
  <text x="400" y="295" font-family="Arial, sans-serif" font-size="16" text-anchor="middle" font-weight="bold">消息中间件 (Apache ActiveMQ Artemis)</text>
  
  <!-- 连接线 - 服务到消息中间件 -->
  <line x1="190" y1="230" x2="400" y2="260" stroke="#666666" stroke-width="2"/>
  <line x1="400" y1="230" x2="400" y2="260" stroke="#666666" stroke-width="2"/>
  <line x1="610" y1="230" x2="400" y2="260" stroke="#666666" stroke-width="2"/>
  
  <!-- 数据存储层 -->
  <rect x="100" y="350" width="180" height="60" rx="5" ry="5" fill="#ce93d8" stroke="#7b1fa2" stroke-width="2"/>
  <text x="190" y="385" font-family="Arial, sans-serif" font-size="16" text-anchor="middle" font-weight="bold">MySQL 数据库</text>
  
  <rect x="310" y="350" width="180" height="60" rx="5" ry="5" fill="#ce93d8" stroke="#7b1fa2" stroke-width="2"/>
  <text x="400" y="385" font-family="Arial, sans-serif" font-size="16" text-anchor="middle" font-weight="bold">ElasticSearch</text>
  
  <rect x="520" y="350" width="180" height="60" rx="5" ry="5" fill="#ce93d8" stroke="#7b1fa2" stroke-width="2"/>
  <text x="610" y="385" font-family="Arial, sans-serif" font-size="16" text-anchor="middle" font-weight="bold">Redis 集群</text>
  
  <!-- 连接线 - 消息中间件到数据存储 -->
  <line x1="400" y1="320" x2="190" y2="350" stroke="#666666" stroke-width="2"/>
  <line x1="400" y1="320" x2="400" y2="350" stroke="#666666" stroke-width="2"/>
  <line x1="400" y1="320" x2="610" y2="350" stroke="#666666" stroke-width="2"/>
</svg>
