<?xml version="1.0" encoding="utf-8"?>
<!-- Generator: Adobe Illustrator 23.0.0, SVG Export Plug-In . SVG Version: 6.00 Build 0)  -->
<svg version="1.1" id="Layer_1" xmlns="http://www.w3.org/2000/svg" xmlns:xlink="http://www.w3.org/1999/xlink" x="0px" y="0px"
	 width="396.8px" height="345.5px" viewBox="0 0 396.8 345.5" style="enable-background:new 0 0 396.8 345.5;" xml:space="preserve"
	>
<style type="text/css">
	.st0{fill:#90CAF9;}
	.st1{fill:#EBEBEB;}
	.st2{fill:#F5F5F5;}
	.st3{fill:#263238;}
	.st4{opacity:0.65;fill:#FFFFFF;enable-background:new    ;}
	.st5{fill:#CCCCCC;}
	.st6{opacity:0.65;fill:#E5E5E5;enable-background:new    ;}
	.st7{fill:#FFFFFF;}
	.st8{clip-path:url(#SVGID_3_);}
	.st9{clip-path:url(#SVGID_4_);}
	.st10{opacity:0.24;}
	.st11{clip-path:url(#SVGID_7_);}
	.st12{clip-path:url(#SVGID_8_);}
	.st13{fill:#FAB9A3;}
	.st14{fill:#2E83E8;}
	.st15{fill:#173451;}
	.st16{fill:#184354;}
	.st17{fill:#264396;}
	.st18{fill:#E0E0E0;}
</style>
<g id="freepik--Books--inject-44">
	<path class="st0" d="M111.3,61.9l-1,2.2c0,0,13.9,1.1,19,8.2l0,0c0,0.6,0.3,1.1,0.8,1.4l2.7,1.7c0.6,0.4,1.3,0.3,1.9-0.1l0,0
		c5.4,0.5,10.3,3.2,13.5,7.6l2,2.6l9-30l-29.5-23.2L111.3,61.9z"/>
	<path class="st1" d="M111,57.9l-1.9,4c0,0,14.8-0.9,22.6,12l6.8-20.1C138.5,53.7,113.9,54.4,111,57.9z"/>
	<path class="st2" d="M123.5,28.7c0,0,19-3.4,21.7,16.5l-13.5,28.5c0,0-5.9-19.1-22.3-15.7L123.5,28.7z"/>
	<path class="st1" d="M131.7,73.8c0,0,15.6-1.4,19.9,10.9l10.9-26.8l-17.8-11.6L131.7,73.8z"/>
	<path class="st2" d="M145.1,45.3c0,0,8.7-6.9,16.9-1.6l5.1,3.6l-10.4,27.2c0,0-12.7-8.5-25-0.7L145.1,45.3z"/>
	<path class="st3" d="M131.7,73.8c0.1-0.4,0.3-0.8,0.5-1.2c0.4-0.8,0.8-1.8,1.4-3.1l4.7-10.1l4.7-10.1l1.4-3.1
		c0.2-0.4,0.3-0.8,0.6-1.1c-0.1,0.4-0.2,0.8-0.4,1.2c-0.3,0.8-0.7,1.8-1.3,3.1c-1.1,2.6-2.7,6.2-4.6,10.1s-3.5,7.5-4.8,10
		c-0.6,1.3-1.2,2.3-1.5,3C132.1,73.1,131.9,73.5,131.7,73.8z"/>
	<path class="st3" d="M162,50c-0.1,0.1-0.8-0.5-2.2-1.2c-3.7-1.8-7.9-2.2-11.9-1c-1.5,0.5-2.4,1-2.4,0.9c0-0.1,0.2-0.2,0.6-0.4
		c0.5-0.3,1.1-0.6,1.7-0.8c2-0.7,4.1-1,6.2-0.8c2.1,0.2,4.1,0.8,6,1.8c0.6,0.3,1.1,0.7,1.6,1.1C161.8,49.8,162,50,162,50z"/>
	<path class="st3" d="M161.2,53.3c-0.1,0.1-0.8-0.5-2.2-1.2c-3.7-1.8-7.9-2.2-11.9-1c-1.5,0.5-2.4,1-2.4,0.9c0-0.1,0.2-0.2,0.6-0.4
		c0.5-0.3,1.1-0.6,1.7-0.8c2-0.7,4.1-1,6.2-0.8c2.1,0.2,4.1,0.8,6,1.8c0.6,0.3,1.1,0.7,1.6,1.1C161,53.1,161.2,53.2,161.2,53.3z"/>
	<path class="st3" d="M159.7,56.5c0,0.1-0.8-0.5-2.2-1.2c-1.8-0.9-3.8-1.4-5.9-1.6c-2-0.2-4.1,0.1-6,0.7c-1.5,0.5-2.4,1-2.4,0.9
		c0-0.1,0.2-0.2,0.6-0.4c0.5-0.3,1.1-0.6,1.7-0.8c2-0.7,4.1-1,6.2-0.8c2.1,0.2,4.1,0.8,6,1.8c0.6,0.3,1.1,0.7,1.6,1.1
		C159.6,56.3,159.7,56.5,159.7,56.5z"/>
	<path class="st3" d="M158.8,59.8c-0.1,0.1-0.8-0.5-2.2-1.2c-3.7-1.8-7.9-2.2-11.9-1c-1.5,0.5-2.4,1-2.4,0.9c0-0.1,0.2-0.2,0.6-0.4
		c0.5-0.3,1.1-0.6,1.7-0.8c2-0.7,4.1-1,6.2-0.8c2.1,0.2,4.1,0.8,6,1.8c0.6,0.3,1.1,0.7,1.6,1.1C158.6,59.6,158.8,59.8,158.8,59.8z"
		/>
	<path class="st3" d="M157.9,63.3c0,0.1-0.8-0.5-2.2-1.2c-1.8-0.9-3.8-1.4-5.9-1.6c-2-0.2-4.1,0.1-6,0.7c-1.5,0.5-2.4,1-2.4,0.9
		c0-0.1,0.2-0.2,0.6-0.4c0.5-0.3,1.1-0.6,1.7-0.8c2-0.7,4.1-1,6.2-0.8c2.1,0.2,4.1,0.8,5.9,1.8c0.6,0.3,1.1,0.7,1.6,1.1
		C157.7,63.1,157.9,63.2,157.9,63.3z"/>
	<path class="st3" d="M157,67.2c-0.1,0.1-0.9-0.6-2.4-1.3c-0.9-0.4-1.8-0.8-2.8-1.1c-1.2-0.3-2.4-0.6-3.6-0.7
		c-1.2-0.1-2.4-0.2-3.7-0.1c-1,0.1-2,0.2-3,0.5c-1.7,0.4-2.6,1-2.6,0.9c0.2-0.2,0.4-0.3,0.6-0.4c0.3-0.2,0.5-0.3,0.8-0.4
		c0.4-0.2,0.7-0.3,1.1-0.4c1-0.3,2-0.5,3-0.6c1.3-0.1,2.5-0.1,3.8,0c1.2,0.2,2.5,0.4,3.7,0.8c1,0.3,1.9,0.7,2.8,1.2
		c0.3,0.2,0.7,0.4,1,0.6c0.3,0.2,0.5,0.3,0.7,0.5C156.8,67,157,67.2,157,67.2z"/>
	<path class="st3" d="M155.6,70.1c-0.1,0.1-0.9-0.6-2.5-1.3c-0.9-0.4-1.9-0.7-2.8-1c-1.2-0.3-2.4-0.5-3.6-0.6
		c-1.2-0.1-2.5-0.1-3.7,0c-1,0.1-2,0.3-3,0.5c-1.7,0.4-2.6,1-2.6,0.9c0-0.1,0.2-0.2,0.6-0.4c0.3-0.2,0.5-0.3,0.8-0.4
		c0.4-0.2,0.7-0.3,1.1-0.4c1-0.3,2-0.5,3-0.7c1.3-0.1,2.5-0.2,3.8-0.1c1.3,0.1,2.5,0.3,3.7,0.7c1,0.3,2,0.7,2.9,1.1
		c0.3,0.2,0.7,0.4,1,0.6c0.3,0.2,0.5,0.3,0.7,0.5C155.5,69.9,155.7,70,155.6,70.1z"/>
	<path class="st3" d="M131.5,64.6c-0.1,0-0.3-1.1-0.9-2.7c-0.9-2.1-2.2-4-4-5.5c-1.8-1.5-3.8-2.5-6.1-3.1c-1.7-0.4-2.8-0.4-2.8-0.5
		c0.3-0.1,0.5-0.1,0.8-0.1c0.7,0,1.4,0.1,2.1,0.2c4.8,0.9,8.7,4.2,10.3,8.8c0.3,0.7,0.4,1.4,0.5,2.1C131.5,64,131.5,64.3,131.5,64.6
		z"/>
	<path class="st3" d="M133.1,60.8c-0.1,0-0.3-1.1-0.9-2.7c-1.8-4.3-5.5-7.5-10.1-8.6c-1.7-0.4-2.8-0.4-2.8-0.5
		c0.3-0.1,0.5-0.1,0.8-0.1c0.7,0,1.4,0.1,2.1,0.2c4.8,0.9,8.7,4.2,10.3,8.8c0.2,0.7,0.4,1.4,0.6,2.1
		C133.1,60.3,133.2,60.6,133.1,60.8z"/>
	<path class="st3" d="M134.8,57.1c-0.1,0-0.3-1.1-1-2.7c-1.8-4.3-5.5-7.5-10-8.6c-1.7-0.4-2.8-0.4-2.8-0.5c0.3-0.1,0.5-0.1,0.8-0.1
		c0.7,0,1.4,0.1,2.1,0.2c2.3,0.4,4.5,1.5,6.3,3c1.8,1.5,3.2,3.5,4,5.8c0.2,0.7,0.4,1.4,0.5,2.1C134.8,56.6,134.8,56.9,134.8,57.1z"
		/>
	<path class="st3" d="M136.4,53.4c-0.1,0-0.3-1.1-1-2.7c-1.8-4.3-5.5-7.5-10.1-8.6c-1.7-0.4-2.8-0.4-2.8-0.5
		c0.3-0.1,0.5-0.1,0.8-0.1c0.7,0,1.4,0.1,2.1,0.2c4.8,0.9,8.7,4.2,10.3,8.8c0.2,0.7,0.4,1.4,0.6,2.1
		C136.4,52.9,136.4,53.2,136.4,53.4z"/>
	<path class="st3" d="M138.1,49.7c-0.1,0-0.3-1.1-1-2.7c-1.8-4.3-5.5-7.5-10.1-8.6c-1.7-0.4-2.8-0.4-2.8-0.5
		c0.3-0.1,0.5-0.1,0.8-0.1c0.7,0,1.4,0.1,2.1,0.2c4.8,0.9,8.7,4.2,10.3,8.8c0.2,0.7,0.4,1.4,0.5,2.1C138,49.2,138.1,49.5,138.1,49.7
		z"/>
	<path class="st3" d="M139.7,46c-0.1,0-0.3-1.1-0.9-2.7c-1.8-4.3-5.5-7.5-10.1-8.6c-1.7-0.4-2.8-0.4-2.8-0.5
		c0.3-0.1,0.5-0.1,0.8-0.1c0.7,0,1.4,0.1,2.1,0.2c4.8,0.9,8.7,4.2,10.3,8.8c0.2,0.7,0.4,1.4,0.5,2.1C139.7,45.5,139.7,45.7,139.7,46
		z"/>
	<path class="st0" d="M59.8,177.1l1.9,2.4c0,0,9.5-15.2,20.5-16.8l0,0c0.6,0.3,1.4,0.3,2-0.1l3.6-2.1c0.8-0.5,1.1-1.3,1-2.2l0,0
		c0,0,5.3-9.4,16.6-10.9l4.1-0.8l-28.4-26l-44.2,18L59.8,177.1z"/>
	<path class="st1" d="M55.1,175.1l3.4,4.5c0,0,7.7-17.4,26.9-18.6l-18.9-19.5C66.5,141.4,52.9,169.7,55.1,175.1z"/>
	<path class="st2" d="M29.2,143.8c0,0,7.3-23.6,31.6-15l24.6,32.1c0,0-25.2-4.6-31.1,16.2L29.2,143.8z"/>
	<path class="st1" d="M85.4,160.9c0,0,7.6-18.6,24.2-16.3l-24.2-28.1l-23.7,13.4L85.4,160.9z"/>
	<path class="st2" d="M60.8,128.9c0,0-2.8-14,8.1-20.2L76,105l24.9,27.8c0,0-17.2,9.4-15.5,28.1L60.8,128.9z"/>
	<path class="st3" d="M85.4,160.9c-0.4-0.4-0.7-0.8-1-1.2c-0.7-0.9-1.6-2-2.7-3.4c-2.3-3-5.3-6.9-8.7-11.3l-8.7-11.3l-2.7-3.4
		c-0.3-0.4-0.7-0.8-0.9-1.3c0.4,0.4,0.8,0.7,1.1,1.2c0.7,0.8,1.6,1.9,2.8,3.3c2.3,2.8,5.5,6.8,8.8,11.2s6.4,8.4,8.6,11.4l2.5,3.5
		C84.9,160,85.2,160.5,85.4,160.9z"/>
	<path class="st3" d="M76.6,113.2c-1,0.4-1.9,0.8-2.8,1.3c-2.1,1.3-4,3.1-5.5,5.1c-1.5,2-2.6,4.3-3.2,6.8c-0.4,1.9-0.4,3.1-0.5,3.1
		c-0.1-0.3-0.1-0.6-0.1-0.9c0-0.8,0-1.6,0.2-2.3c0.5-2.5,1.6-4.9,3.2-7c1.5-2.1,3.5-3.9,5.7-5.1c0.7-0.4,1.4-0.7,2.2-0.9
		C76,113.2,76.3,113.2,76.6,113.2z"/>
	<path class="st3" d="M88.8,124.9c0,0.1-1.1,0.6-2.8,1.8c-1,0.7-1.8,1.5-2.7,2.3c-1,1-1.9,2.2-2.7,3.4c-0.7,1.2-1.4,2.5-1.9,3.9
		c-0.4,1.1-0.7,2.3-0.9,3.4c-0.3,2-0.3,3.3-0.4,3.3c-0.1-0.3-0.1-0.6-0.1-0.9c0-0.3,0-0.7,0-1c0-0.5,0-0.9,0.1-1.4
		c0.2-1.2,0.4-2.4,0.8-3.5c0.5-1.4,1.1-2.7,1.9-4c0.8-1.2,1.7-2.4,2.7-3.5c0.9-0.9,1.8-1.6,2.8-2.3c0.4-0.3,0.8-0.5,1.2-0.7
		c0.3-0.2,0.6-0.3,1-0.5C88.2,125.1,88.5,125,88.8,124.9z"/>
	<path class="st3" d="M74.7,155.8c0,0.1-1.4-0.4-3.6-0.6c-2.9-0.2-5.9,0.2-8.6,1.3c-2.7,1.1-5.1,2.9-7.1,5.1c-1.5,1.7-2.1,3-2.2,3
		c0.1-0.3,0.2-0.6,0.4-0.9c0.4-0.8,0.9-1.6,1.5-2.3c3.8-4.9,9.9-7.3,16-6.6c0.9,0.1,1.8,0.3,2.7,0.6
		C74.1,155.5,74.4,155.6,74.7,155.8z"/>
	<path class="st3" d="M71.5,151.7c0,0.1-1.4-0.4-3.6-0.6c-6-0.5-11.9,1.9-15.7,6.4c-1.5,1.7-2.1,3-2.2,3c0.1-0.3,0.2-0.6,0.4-0.9
		c0.4-0.8,0.9-1.6,1.5-2.3c3.8-4.9,9.9-7.3,16-6.6c0.9,0.1,1.8,0.3,2.7,0.6C70.9,151.4,71.2,151.5,71.5,151.7z"/>
	<path class="st3" d="M68.2,147.6c0,0.1-1.4-0.4-3.6-0.6c-6-0.5-11.9,1.9-15.7,6.4c-1.5,1.7-2.1,3-2.2,3c0.1-0.3,0.2-0.6,0.4-0.9
		c0.4-0.8,0.9-1.6,1.5-2.3c3.8-4.8,9.9-7.3,16-6.6c0.9,0.1,1.8,0.3,2.7,0.6C67.6,147.4,67.9,147.5,68.2,147.6z"/>
	<path class="st3" d="M65,143.6c0,0.1-1.4-0.4-3.6-0.6c-6-0.6-11.9,1.9-15.7,6.4c-1.5,1.7-2.1,3-2.2,3c0.1-0.3,0.2-0.6,0.4-0.9
		c0.4-0.8,0.9-1.6,1.5-2.3c3.8-4.8,9.9-7.3,16-6.6c0.9,0.1,1.8,0.3,2.7,0.6C64.4,143.3,64.7,143.4,65,143.6z"/>
	<path class="st3" d="M61.7,139.6c0,0.1-1.4-0.4-3.6-0.6c-6-0.6-11.8,1.9-15.7,6.4c-1.5,1.7-2.1,3-2.2,3c0.1-0.3,0.2-0.6,0.4-0.9
		c0.4-0.8,0.9-1.6,1.5-2.3c3.8-4.9,9.9-7.4,16-6.6c0.9,0.1,1.8,0.3,2.7,0.6C61.1,139.2,61.4,139.4,61.7,139.6z"/>
	<path class="st3" d="M58.5,135.5c0,0.1-1.4-0.4-3.6-0.6c-6-0.6-11.9,1.8-15.8,6.4c-1.5,1.7-2.1,3-2.2,3c0.1-0.3,0.2-0.6,0.4-0.9
		c0.4-0.8,0.9-1.6,1.5-2.3c3.8-4.9,9.9-7.4,16.1-6.6c0.9,0.1,1.8,0.3,2.7,0.6C57.9,135.2,58.2,135.3,58.5,135.5z"/>
	<path class="st1" d="M67.5,130.5l6.8,7.5c0,0,2.1-10.4,11.3-14.4l-7.2-7.6C72.4,118.5,68.2,124,67.5,130.5z"/>
	<path class="st0" d="M291.2,116.7l-1.7,2.6c0,0,17.5,3.9,22.6,13.7l0,0c-0.1,0.7,0.2,1.4,0.7,1.9l3.1,2.7c0.7,0.6,1.7,0.6,2.4,0.2
		l0,0c0,0,10.6,1.9,15.8,12l2.1,3.7l16.7-36.6l-33.3-34.6L291.2,116.7z"/>
	<path class="st1" d="M291.6,111.6l-3.1,4.7c0,0,19,1.5,26.5,19.2l12.1-24.3C327.2,111.1,295.9,107.7,291.6,111.6z"/>
	<path class="st2" d="M312.5,76.8c0,0,24.7-1,24.7,24.8l-22.1,33.9c0,0-4.1-25.2-25.6-23.9L312.5,76.8z"/>
	<path class="st1" d="M315,135.5c0,0,20,1,23.4,17.4l18.4-32.1l-20.5-17.9L315,135.5z"/>
	<path class="st2" d="M337.1,101.6c0,0,12.3-7.3,21.7,0.9l5.9,5.5l-18,32.7c0,0-14.6-13.1-31.7-5.2L337.1,101.6z"/>
	<path class="st3" d="M315,135.5c0.2-0.5,0.5-0.9,0.8-1.4l2.3-3.6c2-3.1,4.7-7.3,7.7-12l7.7-12l2.3-3.6c0.3-0.5,0.6-0.9,0.9-1.3
		c-0.2,0.5-0.4,1-0.7,1.4c-0.5,0.9-1.2,2.2-2.2,3.7c-1.9,3.1-4.6,7.4-7.6,12.1c-3,4.7-5.8,8.9-7.9,11.9l-2.5,3.6
		C315.7,134.6,315.4,135.1,315,135.5z"/>
	<path class="st3" d="M357.7,110.6c-0.1,0.1-0.9-0.9-2.6-2c-1-0.7-2-1.3-3.1-1.7c-1.3-0.6-2.7-1-4.1-1.4c-1.4-0.3-2.8-0.5-4.3-0.5
		c-1.2,0-2.4,0.1-3.5,0.3c-2,0.3-3.2,0.8-3.2,0.7c0.2-0.2,0.5-0.3,0.8-0.4c0.3-0.1,0.7-0.3,1-0.3c0.4-0.1,0.9-0.3,1.3-0.3
		c1.2-0.3,2.4-0.4,3.6-0.4c1.5,0,3,0.2,4.4,0.5c1.4,0.3,2.8,0.8,4.2,1.4c1.1,0.5,2.1,1.2,3.1,1.9c0.4,0.3,0.8,0.6,1.1,0.9
		c0.3,0.2,0.5,0.5,0.7,0.7C357.3,110.1,357.5,110.3,357.7,110.6z"/>
	<path class="st3" d="M356.1,114.6c-0.1,0.1-1-0.9-2.6-2c-1-0.7-2-1.3-3.1-1.7c-2.6-1.2-5.5-1.8-8.4-1.8c-1.2,0-2.4,0.1-3.5,0.3
		c-2,0.3-3.2,0.8-3.2,0.7c0.2-0.2,0.5-0.3,0.8-0.4c0.3-0.1,0.6-0.3,1-0.3c0.4-0.1,0.9-0.3,1.3-0.4c1.2-0.3,2.4-0.4,3.6-0.4
		c1.5,0,3,0.1,4.4,0.4c1.4,0.3,2.8,0.8,4.2,1.4c1.1,0.5,2.1,1.1,3.1,1.9c0.4,0.3,0.7,0.6,1.1,0.9c0.3,0.2,0.5,0.5,0.8,0.7
		C355.7,114.1,355.9,114.3,356.1,114.6z"/>
	<path class="st3" d="M353.6,118.5c-0.1,0.1-0.9-0.9-2.6-2c-1-0.7-2-1.2-3.1-1.7c-1.3-0.6-2.7-1-4.1-1.4c-1.4-0.3-2.8-0.5-4.3-0.5
		c-1.2,0-2.4,0.1-3.5,0.3c-2,0.4-3.2,0.8-3.2,0.7c0.2-0.2,0.5-0.3,0.8-0.4c0.3-0.1,0.7-0.3,1-0.3c0.4-0.1,0.9-0.3,1.3-0.4
		c1.2-0.3,2.4-0.4,3.6-0.4c1.5,0,3,0.1,4.4,0.4c1.4,0.3,2.8,0.8,4.2,1.4c1.1,0.5,2.1,1.2,3.1,1.9c0.4,0.3,0.7,0.6,1.1,0.9
		c0.3,0.2,0.5,0.5,0.8,0.7C353.5,118.2,353.7,118.4,353.6,118.5z"/>
	<path class="st3" d="M316.4,123.7c-0.1,0-0.1-1.4-0.7-3.6c-1.5-5.8-5.7-10.6-11.3-12.7c-2.1-0.8-3.5-1-3.5-1.1c0.3,0,0.7,0,1,0.1
		c0.9,0.1,1.8,0.4,2.6,0.7c5.9,2,10.2,6.9,11.5,12.9c0.2,0.9,0.3,1.8,0.4,2.7C316.5,123,316.4,123.4,316.4,123.7z"/>
	<path class="st3" d="M319.1,119.3c-0.1,0-0.1-1.4-0.7-3.6c-1.5-5.8-5.7-10.6-11.3-12.7c-2.1-0.8-3.5-1-3.5-1.1c0.3,0,0.7,0,1,0.1
		c0.9,0.1,1.8,0.4,2.6,0.7c5.9,2,10.2,6.9,11.5,12.9c0.2,0.9,0.3,1.8,0.4,2.7C319.2,118.6,319.2,119,319.1,119.3z"/>
	<path class="st3" d="M321.9,114.9c-0.1,0-0.1-1.4-0.7-3.6c-1.5-5.8-5.7-10.6-11.3-12.7c-2.1-0.8-3.5-1-3.5-1.1c0.3,0,0.7,0,1,0.1
		c0.9,0.1,1.8,0.4,2.6,0.7c5.9,2,10.3,6.9,11.6,12.9c0.2,0.9,0.3,1.8,0.4,2.7C322,114.2,321.9,114.5,321.9,114.9z"/>
	<path class="st3" d="M324.6,110.4c-0.1,0-0.1-1.4-0.7-3.6c-1.5-5.8-5.7-10.6-11.3-12.7c-2.1-0.8-3.5-1-3.5-1.1c0.3,0,0.7,0,1,0.1
		c0.9,0.1,1.8,0.4,2.6,0.7c5.8,2,10.2,6.9,11.5,12.9c0.2,0.9,0.3,1.8,0.4,2.7C324.7,109.8,324.7,110.1,324.6,110.4z"/>
	<path class="st3" d="M327.3,106c-0.1,0-0.1-1.4-0.7-3.6c-1.5-5.8-5.7-10.6-11.3-12.7c-2.1-0.8-3.5-1-3.5-1.1c0.3,0,0.7,0,1,0.1
		c0.9,0.1,1.8,0.4,2.6,0.7c5.8,2,10.2,6.9,11.5,12.9c0.2,0.9,0.3,1.8,0.4,2.7C327.4,105.4,327.4,105.7,327.3,106z"/>
	<path class="st3" d="M330.1,101.6c-0.1,0-0.1-1.4-0.7-3.6c-1.5-5.8-5.7-10.6-11.3-12.7c-2.1-0.8-3.5-1-3.5-1.1c0.3,0,0.7,0,1,0.1
		c0.9,0.1,1.8,0.4,2.6,0.7c5.8,2,10.2,6.9,11.5,12.9c0.2,0.9,0.3,1.8,0.4,2.7C330.1,100.9,330.1,101.3,330.1,101.6z"/>
	<path class="st1" d="M332.1,118.5l-6.4,9.3c0,0,9.9-1.2,18.5,4.3l5.9-10C350.1,122.1,340.9,115,332.1,118.5"/>
</g>
<g id="freepik--Plants--inject-44">
	<path class="st0" d="M278.6,234.4c-2.8,6.8-5.6,1.3-5.2-27.4c0.2-13.5,1.2-40.9,16-34.9c14.3,5.8-4.5,46.5-4.5,46.5L278.6,234.4z
		 M299,238.5c0,0,31-32.3,19.4-42.5c-12.1-10.5-21.9,15.1-26.5,27.8c-9.7,27-8.8,33.1-4,27.6L299,238.5z M305.6,267.5
		c0,0,28.4-20.2,21-29.7c-7.7-9.8-19,8.4-24.3,17.4c-11.4,19.2-11.6,24-7,20.5L305.6,267.5z M313.3,296.4c0,0,28.4-20.2,21-29.7
		c-7.7-9.8-18.9,8.4-24.3,17.4c-11.4,19.2-11.6,24-7,20.5L313.3,296.4z M263.7,238.3c0,0-39.7-20.7-46.2-6.7
		c-6.7,14.6,20.7,16.8,34.1,17.6c28.7,1.8,34.3-0.8,27.6-4L263.7,238.3z M269.3,261c0,0-43-12.4-46.6,2.6
		c-3.7,15.6,23.6,12.4,36.9,10.5c28.4-4,33.4-7.6,26.2-9.3L269.3,261z M279.1,285.8c0,0-36.7-9.5-39.3,3.3
		c-2.8,13.3,20.3,9.9,31.5,8c24-4,28.1-7.2,22-8.5L279.1,285.8z M284.9,306.3c0,0-35.5-13.3-39.5-0.9c-4.2,12.9,19.1,12,30.4,11.3
		c24.2-1.4,28.7-4.2,22.7-6.1L284.9,306.3z M261.2,202.5c0,0-16.2-50.3-34.6-41.2c-19.1,9.5,3,32.2,14,43.1
		c23.6,23.2,30.9,24.8,27.8,16.7L261.2,202.5z"/>
	<path class="st4" d="M278.6,234.4c-2.8,6.8-5.6,1.3-5.2-27.4c0.2-13.5,1.2-40.9,16-34.9c14.3,5.8-4.5,46.5-4.5,46.5L278.6,234.4z
		 M299,238.5c0,0,31-32.3,19.4-42.5c-12.1-10.5-21.9,15.1-26.5,27.8c-9.7,27-8.8,33.1-4,27.6L299,238.5z M305.6,267.5
		c0,0,28.4-20.2,21-29.7c-7.7-9.8-19,8.4-24.3,17.4c-11.4,19.2-11.6,24-7,20.5L305.6,267.5z M313.3,296.4c0,0,28.4-20.2,21-29.7
		c-7.7-9.8-18.9,8.4-24.3,17.4c-11.4,19.2-11.6,24-7,20.5L313.3,296.4z M263.7,238.3c0,0-39.7-20.7-46.2-6.7
		c-6.7,14.6,20.7,16.8,34.1,17.6c28.7,1.8,34.3-0.8,27.6-4L263.7,238.3z M269.3,261c0,0-43-12.4-46.6,2.6
		c-3.7,15.6,23.6,12.4,36.9,10.5c28.4-4,33.4-7.6,26.2-9.3L269.3,261z M279.1,285.8c0,0-36.7-9.5-39.3,3.3
		c-2.8,13.3,20.3,9.9,31.5,8c24-4,28.1-7.2,22-8.5L279.1,285.8z M284.9,306.3c0,0-35.5-13.3-39.5-0.9c-4.2,12.9,19.1,12,30.4,11.3
		c24.2-1.4,28.7-4.2,22.7-6.1L284.9,306.3z M261.2,202.5c0,0-16.2-50.3-34.6-41.2c-19.1,9.5,3,32.2,14,43.1
		c23.6,23.2,30.9,24.8,27.8,16.7L261.2,202.5z"/>
	<path class="st5" d="M304.9,341.7c-0.3,0-0.6-0.3-0.6-0.6c-1.5-26.3-8.9-58.1-20.3-87.1c-9.6-24.5-49.9-73.8-50.3-74.3
		c-0.2-0.3-0.2-0.7,0.1-0.9c0.3-0.2,0.6-0.2,0.9,0.1c0,0,0,0,0,0c0.4,0.5,40.9,50,50.5,74.6c11.5,29.2,18.8,61.1,20.4,87.5
		C305.6,341.4,305.3,341.7,304.9,341.7L304.9,341.7z"/>
	<path class="st5" d="M276.5,238.2L276.5,238.2c-0.4,0-0.7-0.4-0.6-0.7l5.7-47.3c0-0.3,0.3-0.6,0.7-0.5c0.3,0,0.6,0.3,0.5,0.7l0,0
		l-5.7,47.3C277.1,238,276.8,238.2,276.5,238.2z"/>
	<path class="st5" d="M284.6,254.4c-0.1,0-0.2,0-0.3-0.1c-0.3-0.2-0.4-0.5-0.3-0.8c0,0,0,0,0,0l20.5-39.8c0.1-0.3,0.5-0.5,0.8-0.4
		c0.3,0.1,0.5,0.5,0.4,0.8c0,0,0,0.1-0.1,0.1l-20.5,39.8C285.1,254.3,284.8,254.4,284.6,254.4z"/>
	<path class="st5" d="M281.6,248.5h-0.1l-42.9-8.7c-0.3,0-0.6-0.3-0.5-0.7s0.3-0.6,0.7-0.5c0,0,0.1,0,0.1,0l42.9,8.7
		c0.3,0.1,0.5,0.4,0.5,0.7C282.2,248.3,281.9,248.5,281.6,248.5z"/>
	<path class="st5" d="M292.7,277c-0.3,0-0.6-0.3-0.6-0.7c0-0.1,0-0.2,0.1-0.3l25.2-28.8c0.2-0.3,0.6-0.3,0.9-0.1
		c0.3,0.2,0.3,0.6,0.1,0.9l0,0l-25.2,28.7C293.1,276.9,292.9,277,292.7,277z"/>
	<path class="st5" d="M289.2,267.5L289.2,267.5l-32.4-0.3c-0.3,0-0.6-0.3-0.6-0.6c0-0.3,0.3-0.6,0.6-0.6l32.4,0.3
		c0.3,0,0.6,0.3,0.6,0.6C289.8,267.2,289.5,267.5,289.2,267.5C289.2,267.5,289.2,267.5,289.2,267.5z"/>
	<path class="st5" d="M270.6,292c-0.3,0-0.6-0.3-0.6-0.6c0-0.3,0.3-0.6,0.6-0.6l24.8-1c0.3,0,0.6,0.3,0.6,0.6c0,0.3-0.2,0.6-0.6,0.6
		c0,0,0,0,0,0L270.6,292L270.6,292z"/>
	<path class="st5" d="M300.5,306c-0.1,0-0.3,0-0.4-0.1c-0.3-0.2-0.3-0.6-0.1-0.9l13.3-17.7c0.2-0.3,0.6-0.3,0.9-0.1
		c0.3,0.2,0.3,0.6,0.1,0.9c0,0,0,0,0,0L301,305.7C300.9,305.9,300.7,306,300.5,306z"/>
	<path class="st5" d="M301.5,312.6L301.5,312.6l-29-1.4c-0.3,0-0.6-0.3-0.6-0.7c0,0,0,0,0,0c0-0.3,0.3-0.6,0.7-0.6l29,1.4
		c0.3,0,0.6,0.3,0.6,0.6c0,0,0,0,0,0C302.1,312.3,301.8,312.6,301.5,312.6C301.5,312.6,301.5,312.6,301.5,312.6z"/>
	<path class="st0" d="M356.8,273.6c-5,1.9-3.5-2.3,12-16.2c7.3-6.5,22.3-19.5,26.4-8.6c4,10.5-26.9,20.4-26.9,20.4L356.8,273.6z
		 M364.7,286.5c0,0,32.4,0.6,32.1-10.6c-0.3-11.6-18.8-4.2-27.8-0.4c-19.1,8.1-22,11.6-16.6,11.4L364.7,286.5z M352.5,304.2
		c0,0,24.7,5.2,26.1-3.4c1.4-8.9-13.8-5.9-21.2-4.4c-15.8,3.4-18.5,5.7-14.4,6.3L352.5,304.2z M340.9,322.5c0,0,24.7,5.2,26.1-3.4
		c1.4-8.9-13.8-5.9-21.2-4.4c-15.8,3.4-18.5,5.7-14.4,6.3L340.9,322.5z M347.4,267.6c0,0-8.5-31.3-19.1-27.8
		c-11.1,3.6,1.2,19.3,7.4,26.8c13.1,16.1,17.3,17.8,15.6,12.7L347.4,267.6z M338.1,281.8c0,0-14.6-29-24.3-23.5
		c-10.1,5.7,5,18.5,12.6,24.8c16.1,13.2,20.5,14,17.9,9.4L338.1,281.8z M329.7,299.2c0,0-13-24.2-21.1-19.3
		c-8.4,5.1,4.7,15.6,11.2,20.7c13.9,10.8,17.6,11.4,15.3,7.5L329.7,299.2z M321.7,312.4c0,0-10.4-25.4-18.9-21.4
		c-8.9,4.2,3,16,9,21.7c12.7,12.2,16.3,13.2,14.4,9.1L321.7,312.4z M365.1,248.7c0,0,18.8-33.4,4.9-38.6
		c-14.5-5.5-15.7,17.4-16,28.7c-0.7,23.9,2,28.7,4.8,23L365.1,248.7z"/>
	<path class="st6" d="M356.8,273.6c-5,1.9-3.5-2.3,12-16.2c7.3-6.5,22.3-19.5,26.4-8.6c4,10.5-26.9,20.4-26.9,20.4L356.8,273.6z
		 M364.7,286.5c0,0,32.4,0.6,32.1-10.6c-0.3-11.6-18.8-4.2-27.8-0.4c-19.1,8.1-22,11.6-16.6,11.4L364.7,286.5z M352.5,304.2
		c0,0,24.7,5.2,26.1-3.4c1.4-8.9-13.8-5.9-21.2-4.4c-15.8,3.4-18.5,5.7-14.4,6.3L352.5,304.2z M340.9,322.5c0,0,24.7,5.2,26.1-3.4
		c1.4-8.9-13.8-5.9-21.2-4.4c-15.8,3.4-18.5,5.7-14.4,6.3L340.9,322.5z M347.4,267.6c0,0-8.5-31.3-19.1-27.8
		c-11.1,3.6,1.2,19.3,7.4,26.8c13.1,16.1,17.3,17.8,15.6,12.7L347.4,267.6z M338.1,281.8c0,0-14.6-29-24.3-23.5
		c-10.1,5.7,5,18.5,12.6,24.8c16.1,13.2,20.5,14,17.9,9.4L338.1,281.8z M329.7,299.2c0,0-13-24.2-21.1-19.3
		c-8.4,5.1,4.7,15.6,11.2,20.7c13.9,10.8,17.6,11.4,15.3,7.5L329.7,299.2z M321.7,312.4c0,0-10.4-25.4-18.9-21.4
		c-8.9,4.2,3,16,9,21.7c12.7,12.2,16.3,13.2,14.4,9.1L321.7,312.4z M365.1,248.7c0,0,18.8-33.4,4.9-38.6
		c-14.5-5.5-15.7,17.4-16,28.7c-0.7,23.9,2,28.7,4.8,23L365.1,248.7z"/>
	<path class="st5" d="M311.8,342.1c-0.2,0-0.3-0.1-0.4-0.2c-0.2-0.2-0.2-0.6,0-0.9c13.6-14,28-35.1,37.6-55
		c8.3-17.1,14.7-62.8,14.8-63.3c0.1-0.3,0.4-0.6,0.7-0.5c0.3,0.1,0.6,0.4,0.5,0.7c-0.1,0.5-6.5,46.3-14.9,63.6
		c-9.7,20-24.2,41.2-37.8,55.3C312.1,342,312,342.1,311.8,342.1z"/>
	<path class="st5" d="M354.1,274.7c-0.2,0-0.4-0.1-0.5-0.3c-0.2-0.3-0.1-0.7,0.1-0.9l28-20.2c0.2-0.2,0.6-0.3,0.9,0s0.3,0.6,0,0.9
		c0,0-0.1,0.1-0.2,0.1l-28,20.3C354.4,274.7,354.3,274.7,354.1,274.7z"/>
	<path class="st5" d="M349.5,287c-0.3,0-0.6-0.3-0.6-0.6c0-0.3,0.2-0.5,0.4-0.6l31.2-8.7c0.3-0.1,0.7,0.1,0.8,0.4
		c0.1,0.3-0.1,0.7-0.4,0.8l-31.2,8.7C349.6,287,349.6,287,349.5,287z"/>
	<path class="st5" d="M351.2,282.5c-0.2,0-0.4-0.1-0.5-0.3l-16.4-27.1c-0.2-0.3-0.1-0.7,0.2-0.8c0,0,0,0,0,0
		c0.3-0.2,0.7-0.1,0.9,0.2l16.4,27.1c0.2,0.3,0.1,0.7-0.2,0.9C351.4,282.5,351.3,282.5,351.2,282.5z"/>
	<path class="st5" d="M341.5,302.3c-0.3,0-0.6-0.4-0.5-0.7c0-0.3,0.3-0.5,0.5-0.5l27.7-0.7c0.3,0,0.6,0.3,0.6,0.6
		c0,0.3-0.3,0.6-0.6,0.6L341.5,302.3L341.5,302.3z"/>
	<path class="st5" d="M344.8,295.8c-0.2,0-0.3-0.1-0.5-0.2l-15.8-17.3c-0.2-0.2-0.2-0.6,0-0.9c0.3-0.2,0.6-0.2,0.9,0c0,0,0,0,0,0
		l15.8,17.3c0.2,0.3,0.1,0.7-0.1,0.9C344.9,295.7,344.8,295.8,344.8,295.8L344.8,295.8z"/>
	<path class="st5" d="M335.3,310.7c-0.2,0-0.3-0.1-0.4-0.2l-12.7-12.7c-0.2-0.3-0.2-0.6,0-0.9c0.2-0.2,0.6-0.2,0.8,0l12.7,12.7
		c0.2,0.2,0.2,0.6,0,0.9C335.6,310.6,335.5,310.7,335.3,310.7z"/>
	<path class="st5" d="M329.9,320.8c-0.3,0-0.6-0.3-0.6-0.7c0-0.3,0.2-0.5,0.5-0.6l16-1.6c0.3,0,0.6,0.3,0.6,0.6
		c0,0.3-0.2,0.6-0.5,0.6L329.9,320.8L329.9,320.8z"/>
	<path class="st5" d="M326.8,324.5c-0.2,0-0.4-0.1-0.5-0.2l-13.5-16.1c-0.2-0.3-0.2-0.7,0.1-0.9c0.3-0.2,0.6-0.2,0.9,0.1
		c0,0,0,0,0,0l13.5,16.1c0.2,0.3,0.2,0.7-0.1,0.9C327.1,324.5,327,324.5,326.8,324.5z"/>
	<path class="st0" d="M118.3,234.4c2.8,6.8,5.6,1.3,5.2-27.4c-0.2-13.5-1.2-40.9-16-34.9c-14.3,5.8,4.5,46.5,4.5,46.5L118.3,234.4z
		 M97.8,238.5c0,0-31-32.3-19.4-42.5c12.1-10.5,21.9,15.1,26.5,27.8c9.7,27,8.8,33.1,4,27.6L97.8,238.5z M91.3,267.5
		c0,0-28.4-20.2-21-29.7c7.7-9.8,19,8.4,24.3,17.4c11.4,19.2,11.6,24,7,20.5L91.3,267.5z M83.6,296.4c0,0-28.4-20.2-21-29.7
		c7.7-9.8,18.9,8.4,24.3,17.4c11.4,19.2,11.6,24,7,20.5L83.6,296.4z M133.2,238.3c0,0,39.7-20.7,46.2-6.7
		c6.7,14.6-20.7,16.8-34.1,17.6c-28.7,1.8-34.3-0.8-27.6-4L133.2,238.3z M127.6,261c0,0,43-12.4,46.6,2.6
		c3.7,15.6-23.6,12.3-36.9,10.5c-28.4-4-33.4-7.6-26.2-9.3L127.6,261z M117.7,285.8c0,0,36.7-9.5,39.3,3.3c2.8,13.3-20.3,9.9-31.5,8
		c-24-4-28.1-7.2-22-8.5L117.7,285.8z M112,306.3c0,0,35.5-13.3,39.5-0.8c4.2,12.9-19.1,12-30.4,11.3c-24.2-1.4-28.7-4.2-22.7-6.1
		L112,306.3z M135.7,202.5c0,0,16.2-50.3,34.6-41.2c19.1,9.5-3,32.2-14,43.1c-23.6,23.2-30.9,24.8-27.8,16.7L135.7,202.5z"/>
	<path class="st4" d="M118.3,234.4c2.8,6.8,5.6,1.3,5.2-27.4c-0.2-13.5-1.2-40.9-16-34.9c-14.3,5.8,4.5,46.5,4.5,46.5L118.3,234.4z
		 M97.8,238.5c0,0-31-32.3-19.4-42.5c12.1-10.5,21.9,15.1,26.5,27.8c9.7,27,8.8,33.1,4,27.6L97.8,238.5z M91.3,267.5
		c0,0-28.4-20.2-21-29.7c7.7-9.8,19,8.4,24.3,17.4c11.4,19.2,11.6,24,7,20.5L91.3,267.5z M83.6,296.4c0,0-28.4-20.2-21-29.7
		c7.7-9.8,18.9,8.4,24.3,17.4c11.4,19.2,11.6,24,7,20.5L83.6,296.4z M133.2,238.3c0,0,39.7-20.7,46.2-6.7
		c6.7,14.6-20.7,16.8-34.1,17.6c-28.7,1.8-34.3-0.8-27.6-4L133.2,238.3z M127.6,261c0,0,43-12.4,46.6,2.6
		c3.7,15.6-23.6,12.3-36.9,10.5c-28.4-4-33.4-7.6-26.2-9.3L127.6,261z M117.7,285.8c0,0,36.7-9.5,39.3,3.3c2.8,13.3-20.3,9.9-31.5,8
		c-24-4-28.1-7.2-22-8.5L117.7,285.8z M112,306.3c0,0,35.5-13.3,39.5-0.8c4.2,12.9-19.1,12-30.4,11.3c-24.2-1.4-28.7-4.2-22.7-6.1
		L112,306.3z M135.7,202.5c0,0,16.2-50.3,34.6-41.2c19.1,9.5-3,32.2-14,43.1c-23.6,23.2-30.9,24.8-27.8,16.7L135.7,202.5z"/>
	<path class="st5" d="M91.9,341.7L91.9,341.7c-0.3,0-0.6-0.3-0.6-0.7c1.5-26.4,8.9-58.3,20.4-87.5c9.6-24.6,50.1-74.1,50.5-74.6
		c0.2-0.3,0.6-0.3,0.9-0.1c0,0,0,0,0,0c0.3,0.2,0.3,0.6,0.1,0.9c-0.4,0.5-40.7,49.8-50.3,74.3c-11.4,29.1-18.8,60.8-20.3,87.1
		C92.5,341.5,92.3,341.7,91.9,341.7z"/>
	<path class="st5" d="M120.3,238.2c-0.3,0-0.6-0.2-0.6-0.5l-5.7-47.3c0-0.3,0.2-0.6,0.5-0.7c0.3,0,0.6,0.2,0.7,0.5l5.7,47.3
		C121,237.8,120.7,238.2,120.3,238.2L120.3,238.2z"/>
	<path class="st5" d="M112.2,254.4c-0.2,0-0.4-0.1-0.6-0.3l-20.5-39.8c-0.2-0.3,0-0.7,0.3-0.8c0,0,0,0,0,0c0.3-0.1,0.7,0,0.8,0.3
		l20.5,39.8c0.2,0.3,0,0.7-0.3,0.8c0,0,0,0,0,0C112.4,254.4,112.3,254.4,112.2,254.4z"/>
	<path class="st5" d="M115.2,248.5c-0.3,0-0.5-0.2-0.6-0.5c-0.1-0.3,0.1-0.7,0.5-0.7l42.8-8.7c0.3-0.1,0.7,0.1,0.8,0.4
		c0.1,0.3-0.1,0.7-0.4,0.8c0,0-0.1,0-0.1,0l-42.8,8.7L115.2,248.5z"/>
	<path class="st5" d="M104.2,277c-0.2,0-0.3-0.1-0.5-0.2L78.5,248c-0.2-0.3-0.2-0.6,0.1-0.9s0.6-0.2,0.9,0.1l0,0l25.2,28.7
		c0.2,0.3,0.1,0.7-0.1,0.9C104.4,276.8,104.3,276.9,104.2,277L104.2,277z"/>
	<path class="st5" d="M107.7,267.5c-0.3,0-0.6-0.3-0.6-0.6c0,0,0,0,0,0c0-0.3,0.3-0.6,0.6-0.6L140,266l0,0c0.3,0,0.6,0.3,0.6,0.6
		c0,0,0,0,0,0c0,0.3-0.3,0.6-0.6,0.6L107.7,267.5z"/>
	<path class="st5" d="M126.3,292L126.3,292l-24.8-1c-0.3-0.1-0.6-0.4-0.5-0.7c0-0.3,0.3-0.5,0.6-0.5l24.8,1c0.3,0,0.6,0.3,0.6,0.6
		C126.9,291.7,126.6,292,126.3,292z"/>
	<path class="st5" d="M96.4,306c-0.2,0-0.4-0.1-0.5-0.2L82.6,288c-0.2-0.3-0.2-0.7,0.1-0.9c0,0,0,0,0,0c0.3-0.2,0.7-0.1,0.9,0.1
		L96.9,305c0.2,0.3,0.1,0.7-0.1,0.9C96.6,305.9,96.5,306,96.4,306z"/>
	<path class="st5" d="M95.4,312.6c-0.3,0-0.6-0.3-0.6-0.6c0-0.3,0.2-0.6,0.6-0.6c0,0,0,0,0,0l29-1.4c0.3,0,0.6,0.2,0.7,0.6
		c0,0,0,0,0,0c0,0.3-0.2,0.6-0.6,0.7c0,0,0,0,0,0L95.4,312.6L95.4,312.6z"/>
	<path class="st0" d="M40,273.6c5,1.9,3.5-2.3-12-16.2c-7.3-6.5-22.3-19.5-26.4-8.6c-4,10.5,26.9,20.4,26.9,20.4L40,273.6z
		 M32.1,286.5c0,0-32.4,0.6-32.1-10.6c0.3-11.6,18.8-4.2,27.8-0.4c19.1,8.1,22,11.6,16.6,11.4L32.1,286.5z M44.4,304.2
		c0,0-24.7,5.2-26.1-3.4c-1.4-8.9,13.8-5.9,21.2-4.4c15.8,3.4,18.5,5.7,14.4,6.3L44.4,304.2z M56,322.5c0,0-24.7,5.2-26.1-3.4
		c-1.4-8.9,13.8-5.9,21.2-4.4c15.8,3.4,18.5,5.7,14.4,6.3L56,322.5z M49.4,267.6c0,0,8.5-31.3,19.2-27.8c11.1,3.6-1.2,19.3-7.4,26.8
		c-13.1,16.1-17.3,17.8-15.6,12.7L49.4,267.6z M58.8,281.8c0,0,14.6-29,24.3-23.5c10.1,5.7-5,18.6-12.6,24.8
		c-16.1,13.2-20.5,14-17.9,9.4L58.8,281.8z M67.1,299.2c0,0,13-24.2,21.1-19.3c8.4,5.1-4.7,15.6-11.2,20.7
		c-13.9,10.8-17.6,11.4-15.3,7.5L67.1,299.2z M75.2,312.4c0,0,10.4-25.4,18.9-21.4c8.9,4.2-3,16-9,21.7
		c-12.7,12.2-16.3,13.2-14.4,9.1L75.2,312.4z M31.7,248.7c0,0-18.8-33.4-4.9-38.6c14.5-5.5,15.7,17.4,16,28.7
		c0.7,23.9-2,28.7-4.8,23L31.7,248.7z"/>
	<path class="st6" d="M40,273.6c5,1.9,3.5-2.3-12-16.2c-7.3-6.5-22.3-19.5-26.4-8.6c-4,10.5,26.9,20.4,26.9,20.4L40,273.6z
		 M32.1,286.5c0,0-32.4,0.6-32.1-10.6c0.3-11.6,18.8-4.2,27.8-0.4c19.1,8.1,22,11.6,16.6,11.4L32.1,286.5z M44.4,304.2
		c0,0-24.7,5.2-26.1-3.4c-1.4-8.9,13.8-5.9,21.2-4.4c15.8,3.4,18.5,5.7,14.4,6.3L44.4,304.2z M56,322.5c0,0-24.7,5.2-26.1-3.4
		c-1.4-8.9,13.8-5.9,21.2-4.4c15.8,3.4,18.5,5.7,14.4,6.3L56,322.5z M49.4,267.6c0,0,8.5-31.3,19.2-27.8c11.1,3.6-1.2,19.3-7.4,26.8
		c-13.1,16.1-17.3,17.8-15.6,12.7L49.4,267.6z M58.8,281.8c0,0,14.6-29,24.3-23.5c10.1,5.7-5,18.6-12.6,24.8
		c-16.1,13.2-20.5,14-17.9,9.4L58.8,281.8z M67.1,299.2c0,0,13-24.2,21.1-19.3c8.4,5.1-4.7,15.6-11.2,20.7
		c-13.9,10.8-17.6,11.4-15.3,7.5L67.1,299.2z M75.2,312.4c0,0,10.4-25.4,18.9-21.4c8.9,4.2-3,16-9,21.7
		c-12.7,12.2-16.3,13.2-14.4,9.1L75.2,312.4z M31.7,248.7c0,0-18.8-33.4-4.9-38.6c14.5-5.5,15.7,17.4,16,28.7
		c0.7,23.9-2,28.7-4.8,23L31.7,248.7z"/>
	<path class="st5" d="M85.1,342.1c-0.2,0-0.3-0.1-0.4-0.2c-13.7-14.1-28.2-35.3-37.8-55.3C38.4,269.3,32,223.5,31.9,223
		c0-0.3,0.2-0.7,0.5-0.7c0.3,0,0.7,0.2,0.7,0.5c0.1,0.5,6.5,46.1,14.8,63.3c9.6,19.9,24,40.9,37.6,55c0.2,0.2,0.2,0.6,0,0.9
		C85.4,342.1,85.2,342.1,85.1,342.1z"/>
	<path class="st5" d="M42.7,274.7c-0.1,0-0.3,0-0.4-0.1l-28-20.3c-0.3-0.2-0.4-0.5-0.3-0.8c0.2-0.3,0.5-0.4,0.8-0.3
		c0.1,0,0.1,0.1,0.2,0.1l28,20.2c0.3,0.2,0.3,0.6,0.1,0.9C43.1,274.6,42.9,274.7,42.7,274.7z"/>
	<path class="st5" d="M47.3,287c-0.1,0-0.1,0-0.2,0L16,278.3c-0.3-0.1-0.5-0.4-0.4-0.8s0.4-0.5,0.8-0.4l31.2,8.7
		c0.3,0.1,0.5,0.5,0.4,0.8C47.8,286.8,47.6,286.9,47.3,287z"/>
	<path class="st5" d="M45.7,282.5c-0.1,0-0.2,0-0.3-0.1c-0.3-0.2-0.4-0.6-0.2-0.9l16.4-27.1c0.1-0.3,0.5-0.4,0.8-0.3
		c0.3,0.1,0.4,0.5,0.3,0.8c0,0,0,0.1-0.1,0.1l-16.4,27.1C46.1,282.4,45.9,282.5,45.7,282.5z"/>
	<path class="st5" d="M55.4,302.3L55.4,302.3l-27.7-0.7c-0.3,0-0.6-0.3-0.6-0.6c0-0.3,0.3-0.6,0.6-0.6l27.7,0.7
		c0.3,0,0.6,0.3,0.6,0.6c0,0,0,0,0,0C56,302.1,55.7,302.4,55.4,302.3C55.4,302.3,55.4,302.3,55.4,302.3z"/>
	<path class="st5" d="M52.1,295.8c-0.3,0-0.6-0.3-0.6-0.6c0-0.1,0.1-0.2,0.1-0.3l15.7-17.4c0.2-0.3,0.6-0.3,0.9,0c0,0,0,0,0,0
		c0.2,0.2,0.2,0.6,0,0.9l-15.7,17.4C52.4,295.7,52.3,295.8,52.1,295.8z"/>
	<path class="st5" d="M61.5,310.7c-0.3,0-0.6-0.3-0.6-0.6c0-0.2,0.1-0.3,0.2-0.4l12.7-12.7c0.3-0.2,0.6-0.2,0.9,0
		c0.2,0.2,0.2,0.6,0,0.8L62,310.5C61.8,310.6,61.7,310.7,61.5,310.7z"/>
	<path class="st5" d="M67,320.8L67,320.8l-16-1.6c-0.3-0.1-0.6-0.4-0.5-0.7c0.1-0.3,0.3-0.5,0.6-0.5l16,1.6c0.3,0.1,0.6,0.4,0.5,0.7
		C67.5,320.5,67.3,320.7,67,320.8z"/>
	<path class="st5" d="M70,324.5c-0.1,0-0.3-0.1-0.4-0.1c-0.3-0.2-0.3-0.6-0.1-0.9L83,307.4c0.2-0.3,0.6-0.3,0.9-0.1c0,0,0,0,0,0
		c0.3,0.2,0.3,0.6,0.1,0.9l-13.5,16.2C70.4,324.4,70.2,324.5,70,324.5z"/>
</g>
<g id="freepik--Character--inject-44">
	<rect x="132.2" y="231.1" class="st7" width="104.5" height="21.4"/>
	<path class="st3" d="M236.7,253H132.2c-0.3,0-0.5-0.2-0.5-0.5v-21.4c0-0.3,0.2-0.5,0.5-0.5h104.5c0.3,0,0.5,0.2,0.5,0.5v21.4
		C237.2,252.7,237,253,236.7,253z M132.7,252h103.5v-20.4H132.7V252z"/>
	<path class="st3" d="M151.7,237.1h-18.3c-0.3,0-0.5-0.2-0.5-0.5s0.2-0.5,0.5-0.5h18.3c0.3,0,0.5,0.2,0.5,0.5
		S151.9,237.1,151.7,237.1z"/>
	<path class="st3" d="M160.3,243h-2.5c-0.3,0-0.5-0.2-0.5-0.5s0.2-0.5,0.5-0.5h2.5c0.3,0,0.5,0.2,0.5,0.5S160.5,243,160.3,243z"/>
	<path class="st3" d="M153.6,243H133c-0.3,0-0.5-0.2-0.5-0.5c0-0.3,0.2-0.5,0.5-0.5h20.6c0.3,0,0.5,0.2,0.5,0.5S153.9,243,153.6,243
		z"/>
	<path class="st3" d="M141.9,249h-8.5c-0.3,0-0.5-0.2-0.5-0.5s0.2-0.5,0.5-0.5h8.5c0.3,0,0.5,0.2,0.5,0.5
		C142.4,248.8,142.2,249,141.9,249z"/>
	<path class="st7" d="M215.3,231.8c-1.8,6.6-1.8,13.6,0,20.2h42.1c0,0-4.4-12.8,0-20.2H215.3z"/>
	<path class="st3" d="M257.4,252.5h-42.1c-0.2,0-0.4-0.1-0.5-0.4c-1.8-6.7-1.8-13.7,0-20.4c0.1-0.2,0.3-0.3,0.5-0.3h42.1
		c0.3,0,0.5,0.2,0.5,0.5c0,0.1,0,0.2-0.1,0.2c-4.3,7.1,0,19.6,0,19.8c0.1,0.3-0.1,0.5-0.3,0.6C257.5,252.5,257.4,252.5,257.4,252.5
		L257.4,252.5z M215.7,251.5h41.1c-0.8-2.6-3.5-12.5-0.2-19.2h-40.9C214.1,238.6,214.1,245.2,215.7,251.5z"/>
	<g>
		<defs>
			<path id="SVGID_1_" d="M215.3,231.8c-1.8,6.6-1.8,13.6,0,20.2h42.1c0,0-4.4-12.8,0-20.2H215.3z"/>
		</defs>
		<defs>
			<path id="SVGID_2_" d="M257.4,252.5h-42.1c-0.2,0-0.4-0.1-0.5-0.4c-1.8-6.7-1.8-13.7,0-20.4c0.1-0.2,0.3-0.3,0.5-0.3h42.1
				c0.3,0,0.5,0.2,0.5,0.5c0,0.1,0,0.2-0.1,0.2c-4.3,7.1,0,19.6,0,19.8c0.1,0.3-0.1,0.5-0.3,0.6
				C257.5,252.5,257.4,252.5,257.4,252.5L257.4,252.5z M215.7,251.5h41.1c-0.8-2.6-3.5-12.5-0.2-19.2h-40.9
				C214.1,238.6,214.1,245.2,215.7,251.5z"/>
		</defs>
		<clipPath id="SVGID_3_">
			<use xlink:href="#SVGID_1_"  style="overflow:visible;"/>
		</clipPath>
		<clipPath id="SVGID_4_" class="st8">
			<use xlink:href="#SVGID_2_"  style="overflow:visible;"/>
		</clipPath>
		<g class="st9">
			<g class="st10">
				<path d="M215.3,231.8c-1.8,6.6-1.8,13.6,0,20.2h42.1c0,0-4.4-12.8,0-20.2H215.3z"/>
				<path class="st3" d="M257.4,252.5h-42.1c-0.2,0-0.4-0.1-0.5-0.4c-1.8-6.7-1.8-13.7,0-20.4c0.1-0.2,0.3-0.3,0.5-0.3h42.1
					c0.3,0,0.5,0.2,0.5,0.5c0,0.1,0,0.2-0.1,0.2c-4.3,7.1,0,19.6,0,19.8c0.1,0.3-0.1,0.5-0.3,0.6
					C257.5,252.5,257.4,252.5,257.4,252.5L257.4,252.5z M215.7,251.5h41.1c-0.8-2.6-3.5-12.5-0.2-19.2h-40.9
					C214.1,238.6,214.1,245.2,215.7,251.5z"/>
			</g>
		</g>
	</g>
	<path class="st3" d="M133.5,248.5v-14.6c0-0.7,0.6-1.4,1.4-1.4h124.3c0.5,0,1-0.4,1-1l0,0c0-0.5-0.4-1-1-1H131.5
		c-0.7,0-1.4,0.6-1.4,1.4v18.6c0,1.2,1,2.2,2.2,2.2c0,0,0,0,0,0h126.8c0.5,0,1-0.4,1-1l0,0c0-0.5-0.4-1-1-1H135.7
		C134.5,250.8,133.5,249.8,133.5,248.5C133.5,248.6,133.5,248.5,133.5,248.5z"/>
	<path class="st3" d="M259.1,253.2H132.3c-1.5,0-2.7-1.2-2.7-2.7v-18.7c0-1,0.8-1.8,1.8-1.8h127.6c0.8-0.1,1.6,0.6,1.6,1.4
		c0.1,0.8-0.6,1.6-1.4,1.6c-0.1,0-0.2,0-0.2,0H134.8c-0.5,0-0.9,0.4-0.9,0.9v14.6c0,0.9,0.8,1.7,1.7,1.7h123.4
		c0.8-0.1,1.6,0.6,1.6,1.4c0.1,0.8-0.6,1.6-1.4,1.6C259.3,253.3,259.2,253.3,259.1,253.2z M131.5,231c-0.5,0-0.9,0.4-0.9,0.9v18.7
		c0,0.9,0.8,1.7,1.7,1.7h126.8c0.3,0,0.6-0.2,0.6-0.5c0-0.3-0.2-0.6-0.5-0.6c0,0-0.1,0-0.1,0H135.7c-1.5,0-2.7-1.2-2.7-2.7
		c0,0,0,0,0,0v-14.6c0-1,0.8-1.8,1.8-1.8h124.3c0.3,0,0.6-0.2,0.6-0.5c0-0.3-0.2-0.6-0.5-0.6c0,0-0.1,0-0.1,0H131.5z"/>
	<rect x="132.2" y="275.2" class="st7" width="104.5" height="21.4"/>
	<path class="st3" d="M236.7,297.1H132.2c-0.3,0-0.5-0.2-0.5-0.5v-21.4c0-0.3,0.2-0.5,0.5-0.5h104.5c0.3,0,0.5,0.2,0.5,0.5v21.4
		C237.2,296.9,237,297.1,236.7,297.1z M132.7,296.1h103.5v-20.4H132.7V296.1z"/>
	<path class="st3" d="M152.4,279.8H134c-0.3,0-0.5-0.2-0.5-0.5c0-0.3,0.2-0.5,0.5-0.5h18.4c0.3,0,0.5,0.2,0.5,0.5
		C152.9,279.6,152.6,279.8,152.4,279.8z"/>
	<path class="st3" d="M161,285.7h-2.5c-0.3,0-0.5-0.2-0.5-0.5c0-0.3,0.2-0.5,0.5-0.5h2.5c0.3,0,0.5,0.2,0.5,0.5
		C161.4,285.5,161.2,285.7,161,285.7z"/>
	<path class="st3" d="M154.3,285.7h-20.6c-0.3,0-0.5-0.2-0.5-0.5c0-0.3,0.2-0.5,0.5-0.5h20.6c0.3,0,0.5,0.2,0.5,0.5
		C154.8,285.5,154.6,285.7,154.3,285.7z"/>
	<path class="st3" d="M142.6,291.7h-8.5c-0.3,0-0.5-0.2-0.5-0.5c0-0.3,0.2-0.5,0.5-0.5h8.5c0.3,0,0.5,0.2,0.5,0.5
		C143.1,291.5,142.9,291.7,142.6,291.7z"/>
	<path class="st7" d="M215.9,276c-1.8,6.6-1.8,13.6,0,20.2h41.5c0,0-4.4-12.8,0-20.2H215.9z"/>
	<path class="st3" d="M257.4,296.6h-41.5c-0.2,0-0.4-0.2-0.5-0.4c-1.8-6.7-1.8-13.7,0-20.4c0.1-0.2,0.3-0.3,0.5-0.3h41.5
		c0.2,0,0.3,0.1,0.4,0.2c0.1,0.2,0.1,0.3,0,0.5c-4.3,7.1,0,19.6,0,19.8c0.1,0.2,0,0.3-0.1,0.5C257.7,296.5,257.5,296.6,257.4,296.6z
		 M216.3,295.6h40.4c-0.8-2.7-3.5-12.5-0.2-19.2h-40.2C214.7,282.7,214.7,289.3,216.3,295.6z"/>
	<g>
		<defs>
			<path id="SVGID_5_" d="M215.9,276c-1.8,6.6-1.8,13.6,0,20.2h41.5c0,0-4.4-12.8,0-20.2H215.9z"/>
		</defs>
		<defs>
			<path id="SVGID_6_" d="M257.4,296.6h-41.5c-0.2,0-0.4-0.2-0.5-0.4c-1.8-6.7-1.8-13.7,0-20.4c0.1-0.2,0.3-0.3,0.5-0.3h41.5
				c0.2,0,0.3,0.1,0.4,0.2c0.1,0.2,0.1,0.3,0,0.5c-4.3,7.1,0,19.6,0,19.8c0.1,0.2,0,0.3-0.1,0.5
				C257.7,296.5,257.5,296.6,257.4,296.6z M216.3,295.6h40.4c-0.8-2.7-3.5-12.5-0.2-19.2h-40.2C214.7,282.7,214.7,289.3,216.3,295.6
				z"/>
		</defs>
		<clipPath id="SVGID_7_">
			<use xlink:href="#SVGID_5_"  style="overflow:visible;"/>
		</clipPath>
		<clipPath id="SVGID_8_" class="st11">
			<use xlink:href="#SVGID_6_"  style="overflow:visible;"/>
		</clipPath>
		<g class="st12">
			<g class="st10">
				<path d="M215.9,276c-1.8,6.6-1.8,13.6,0,20.2h41.5c0,0-4.4-12.8,0-20.2H215.9z"/>
				<path class="st3" d="M257.4,296.6h-41.5c-0.2,0-0.4-0.2-0.5-0.4c-1.8-6.7-1.8-13.7,0-20.4c0.1-0.2,0.3-0.3,0.5-0.3h41.5
					c0.2,0,0.3,0.1,0.4,0.2c0.1,0.2,0.1,0.3,0,0.5c-4.3,7.1,0,19.6,0,19.8c0.1,0.2,0,0.3-0.1,0.5
					C257.7,296.5,257.5,296.6,257.4,296.6z M216.3,295.6h40.4c-0.8-2.7-3.5-12.5-0.2-19.2h-40.2
					C214.7,282.7,214.7,289.3,216.3,295.6z"/>
			</g>
		</g>
	</g>
	<path class="st3" d="M133.5,292.7v-14.6c0-0.7,0.6-1.4,1.4-1.4h124.3c0.5,0,1-0.4,1-1l0,0c0-0.5-0.4-1-1-1H131.5
		c-0.7,0-1.4,0.6-1.4,1.4v18.7c0,1.2,1,2.2,2.2,2.2h126.8c0.5,0,1-0.4,1-1l0,0c0-0.5-0.4-1-1-1H135.7c-1.2,0-2.2-1-2.2-2.2
		C133.5,292.8,133.5,292.7,133.5,292.7z"/>
	<path class="st3" d="M259.1,297.4H132.3c-1.5,0-2.7-1.2-2.7-2.7V276c0-1,0.8-1.8,1.8-1.8h127.6c0.8-0.1,1.6,0.6,1.6,1.4
		c0.1,0.8-0.6,1.6-1.4,1.6c-0.1,0-0.2,0-0.2,0H134.8c-0.5,0-0.9,0.4-0.9,0.9v14.6c0,0.9,0.8,1.7,1.7,1.7h123.4
		c0.8-0.1,1.6,0.6,1.6,1.4c0.1,0.8-0.6,1.6-1.4,1.6C259.3,297.4,259.2,297.4,259.1,297.4z M131.5,275.1c-0.5,0-0.9,0.4-0.9,0.9v18.7
		c0,0.9,0.8,1.7,1.7,1.7h126.8c0.3,0,0.6-0.2,0.6-0.5c0-0.3-0.2-0.6-0.5-0.6c0,0-0.1,0-0.1,0H135.7c-1.5,0-2.7-1.2-2.7-2.7v-14.6
		c0-1,0.8-1.8,1.8-1.8h124.3c0.3,0,0.6-0.2,0.6-0.5c0-0.3-0.2-0.6-0.5-0.6c0,0-0.1,0-0.1,0H131.5z"/>
	<path class="st7" d="M133.6,317c0.7-2.5,3.4-12.6,0.1-19.1h120.3V317H133.6z"/>
	<path class="st3" d="M253.9,317.5H133.6c-0.2,0-0.3-0.1-0.4-0.2c-0.1-0.1-0.1-0.3-0.1-0.4c0.6-2,3.4-12.3,0.1-18.8
		c-0.1-0.2-0.1-0.3,0-0.5c0.1-0.1,0.3-0.2,0.4-0.2h120.3c0.3,0,0.5,0.2,0.5,0.5V317C254.4,317.2,254.2,317.5,253.9,317.5
		C254,317.5,253.9,317.5,253.9,317.5z M134.2,316.5h119.2v-18.1h-119C137.1,304.5,135.2,313.1,134.2,316.5z"/>
	<path class="st3" d="M205.4,302.6H187c-0.3,0-0.5-0.2-0.5-0.5c0-0.3,0.2-0.5,0.5-0.5h18.3c0.3,0,0.5,0.2,0.5,0.5
		C205.9,302.4,205.6,302.6,205.4,302.6z"/>
	<path class="st3" d="M180.9,308.5h-2.5c-0.3,0-0.5-0.2-0.5-0.5c0-0.3,0.2-0.5,0.5-0.5h2.5c0.3,0,0.5,0.2,0.5,0.5
		C181.4,308.3,181.2,308.5,180.9,308.5z"/>
	<path class="st3" d="M205.7,308.5h-20.6c-0.3,0-0.5-0.2-0.5-0.5c0-0.3,0.2-0.5,0.5-0.5h20.6c0.3,0,0.5,0.2,0.5,0.5
		C206.2,308.3,205.9,308.5,205.7,308.5z"/>
	<path class="st3" d="M205.2,314.5h-8.5c-0.3,0-0.5-0.2-0.5-0.5c0-0.3,0.2-0.5,0.5-0.5h8.5c0.3,0,0.5,0.2,0.5,0.5
		C205.7,314.3,205.5,314.5,205.2,314.5z"/>
	<path class="st3" d="M206.1,315.1v-14.6c0-0.7-0.6-1.4-1.4-1.4h-73.6c-0.5,0-1-0.4-1-1l0,0c0-0.5,0.4-1,1-1h127.6
		c0.7,0,1.4,0.6,1.4,1.4v18.7c0,1.2-1,2.2-2.2,2.2H131.1c-0.5,0-1-0.4-1-1l0,0c0-0.5,0.4-1,1-1h72.7c1.2,0,2.2-1,2.2-2.2
		C206.1,315.2,206.1,315.1,206.1,315.1z"/>
	<path class="st3" d="M257.9,319.8H131.1c-0.8,0.1-1.6-0.6-1.6-1.4c-0.1-0.8,0.6-1.6,1.4-1.6c0.1,0,0.2,0,0.2,0h72.7
		c0.9,0,1.7-0.8,1.7-1.7v-14.6c0-0.5-0.3-0.9-0.8-0.9h-73.6c-0.8,0.1-1.6-0.6-1.6-1.4c-0.1-0.8,0.6-1.6,1.4-1.6c0.1,0,0.2,0,0.2,0
		h127.6c1,0,1.8,0.8,1.8,1.8v18.7C260.6,318.6,259.4,319.8,257.9,319.8L257.9,319.8z M131.1,317.8c-0.3,0-0.6,0.2-0.6,0.5
		c0,0.3,0.2,0.6,0.5,0.6c0,0,0.1,0,0.1,0h126.8c0.9,0,1.7-0.8,1.7-1.7v-18.7c0-0.5-0.4-0.9-0.9-0.9H131.1c-0.3,0-0.6,0.2-0.6,0.5
		c0,0.3,0.2,0.6,0.5,0.6c0,0,0.1,0,0.1,0h73.6c1,0,1.8,0.8,1.8,1.8v14.6c0,1.5-1.2,2.7-2.7,2.7H131.1z"/>
	<path class="st7" d="M133.6,339.4c0.7-2.5,3.4-12.6,0.1-19.1h120.3v19.1H133.6z"/>
	<path class="st3" d="M253.9,339.9H133.6c-0.2,0-0.3-0.1-0.4-0.2c-0.1-0.1-0.1-0.3-0.1-0.4c0.6-2,3.4-12.3,0.1-18.8
		c-0.1-0.2-0.1-0.3,0-0.5c0.1-0.1,0.3-0.2,0.4-0.2h120.3c0.3,0,0.5,0.2,0.5,0.5v19.1C254.4,339.6,254.2,339.9,253.9,339.9
		C254,339.9,253.9,339.9,253.9,339.9z M134.2,338.9h119.2v-18.1h-119C137.1,326.9,135.2,335.5,134.2,338.9z"/>
	<path class="st3" d="M205.3,325.1H187c-0.3,0-0.5-0.2-0.5-0.5c0-0.3,0.2-0.5,0.5-0.5h18.3c0.3,0,0.5,0.2,0.5,0.5
		C205.8,324.9,205.6,325.1,205.3,325.1z"/>
	<path class="st3" d="M180.9,331h-2.5c-0.3,0-0.5-0.2-0.5-0.5c0-0.3,0.2-0.5,0.5-0.5h2.5c0.3,0,0.5,0.2,0.5,0.5
		C181.4,330.8,181.1,331,180.9,331z"/>
	<path class="st3" d="M205.6,331H185c-0.3,0-0.5-0.2-0.5-0.5c0-0.3,0.2-0.5,0.5-0.5h20.6c0.3,0,0.5,0.2,0.5,0.5
		C206.1,330.8,205.9,331,205.6,331L205.6,331z"/>
	<path class="st3" d="M205.2,337h-8.5c-0.3,0-0.5-0.2-0.5-0.5c0-0.3,0.2-0.5,0.5-0.5h8.5c0.3,0,0.5,0.2,0.5,0.5
		C205.7,336.8,205.4,337,205.2,337z"/>
	<path class="st0" d="M206.1,337.5v-14.6c0-0.7-0.6-1.4-1.4-1.4h-73.6c-0.5,0-1-0.4-1-1l0,0c0-0.5,0.4-1,1-1h127.6
		c0.7,0,1.4,0.6,1.4,1.4v18.6c0,1.2-1,2.2-2.2,2.2c0,0,0,0,0,0H131.1c-0.5,0-1-0.4-1-1l0,0c0-0.5,0.4-1,1-1h72.7
		C205.1,339.7,206.1,338.7,206.1,337.5C206.1,337.5,206.1,337.5,206.1,337.5z"/>
	<path class="st3" d="M257.9,342.2H131.1c-0.8,0.1-1.6-0.6-1.6-1.4c-0.1-0.8,0.6-1.6,1.4-1.6c0.1,0,0.2,0,0.2,0h72.7
		c0.9,0,1.7-0.8,1.7-1.7v-14.6c0-0.5-0.4-0.9-0.9-0.9h-73.6c-0.8,0.1-1.6-0.6-1.6-1.4c-0.1-0.8,0.6-1.6,1.4-1.6c0.1,0,0.2,0,0.2,0
		h127.6c1,0,1.8,0.8,1.8,1.8v18.7C260.6,341,259.4,342.2,257.9,342.2z M131.1,340.2c-0.3,0-0.6,0.2-0.6,0.5c0,0.3,0.2,0.6,0.5,0.6
		c0,0,0.1,0,0.1,0h126.8c0.9,0,1.7-0.8,1.7-1.7v-18.7c0-0.5-0.4-0.9-0.9-0.9H131.1c-0.3,0-0.6,0.2-0.6,0.5c0,0.3,0.2,0.6,0.5,0.6
		c0,0,0.1,0,0.1,0h73.6c1,0,1.8,0.8,1.8,1.8v14.6c0,1.5-1.2,2.7-2.7,2.7H131.1z"/>
	<path class="st7" d="M133.6,272.2c0.7-2.5,3.4-12.6,0.1-19.1h120.3v19.1H133.6z"/>
	<path class="st3" d="M253.9,272.7H133.6c-0.2,0-0.3-0.1-0.4-0.2c-0.1-0.1-0.1-0.3-0.1-0.4c0.6-2,3.4-12.3,0.1-18.8
		c-0.1-0.2-0.1-0.3,0-0.5c0.1-0.1,0.3-0.2,0.4-0.2h120.3c0.3,0,0.5,0.2,0.5,0.5v19.1C254.4,272.4,254.2,272.7,253.9,272.7
		C254,272.7,253.9,272.7,253.9,272.7z M134.2,271.7h119.2v-18.1h-119C137.1,259.7,135.2,268.3,134.2,271.7z"/>
	<path class="st3" d="M205.6,257.9h-18.3c-0.3,0-0.5-0.2-0.5-0.5s0.2-0.5,0.5-0.5h18.3c0.3,0,0.5,0.2,0.5,0.5
		S205.9,257.9,205.6,257.9z"/>
	<path class="st3" d="M181.2,263.7h-2.5c-0.3,0-0.5-0.2-0.5-0.5c0-0.3,0.2-0.5,0.5-0.5h2.5c0.3,0,0.5,0.2,0.5,0.5
		C181.7,263.5,181.4,263.7,181.2,263.7z"/>
	<path class="st3" d="M205.9,263.7h-20.6c-0.3,0-0.5-0.2-0.5-0.5c0-0.3,0.2-0.5,0.5-0.5h20.6c0.3,0,0.5,0.2,0.5,0.5
		C206.4,263.5,206.2,263.7,205.9,263.7z"/>
	<path class="st3" d="M205.5,269.7H197c-0.3,0-0.5-0.2-0.5-0.5c0-0.3,0.2-0.5,0.5-0.5h8.5c0.3,0,0.5,0.2,0.5,0.5
		C206,269.5,205.8,269.7,205.5,269.7z"/>
	<path class="st0" d="M206.1,270.3v-14.6c0-0.7-0.6-1.4-1.4-1.4h-73.6c-0.5,0-1-0.4-1-1l0,0c0-0.5,0.4-1,1-1h127.6
		c0.7,0,1.4,0.6,1.4,1.4v18.6c0,1.2-1,2.2-2.2,2.2c0,0,0,0,0,0H131.1c-0.5,0-1-0.4-1-1l0,0c0-0.5,0.4-1,1-1h72.7
		C205.1,272.5,206.1,271.5,206.1,270.3C206.1,270.3,206.1,270.3,206.1,270.3z"/>
	<path class="st3" d="M257.9,275H131.1c-0.8,0.1-1.6-0.6-1.6-1.4c-0.1-0.8,0.6-1.6,1.4-1.6c0.1,0,0.2,0,0.2,0h72.7
		c0.9,0,1.7-0.8,1.7-1.7v-14.6c0-0.5-0.4-0.9-0.9-0.9h-73.6c-0.8,0.1-1.6-0.6-1.6-1.4c-0.1-0.8,0.6-1.6,1.4-1.6c0.1,0,0.2,0,0.2,0
		h127.6c1,0,1.8,0.8,1.8,1.8v18.7C260.6,273.8,259.4,275,257.9,275z M131.1,272.9c-0.3,0-0.6,0.2-0.6,0.5c0,0.3,0.2,0.6,0.5,0.6
		c0,0,0.1,0,0.1,0h126.8c0.9,0,1.7-0.8,1.7-1.7v-18.7c0-0.5-0.4-0.9-0.9-0.9H131.1c-0.3,0-0.6,0.2-0.6,0.5c0,0.3,0.2,0.6,0.5,0.6
		c0,0,0.1,0,0.1,0h73.6c1,0,1.8,0.8,1.8,1.8v14.6c0,1.5-1.2,2.7-2.7,2.7H131.1z"/>
	<path class="st3" d="M177.7,183.2c0,0-10.2,0.3-25-3.3s-27-1-29.3,13.2c-2.3,14.2,35.6,28.7,61.9,33.9c26.4,5.3,52.7,7.6,65.6,2
		c12.8-5.6,12.5-25.7,7.6-34.9s-21.4-10.5-30-9.2S177.7,183.2,177.7,183.2z"/>
	<path class="st3" d="M229.5,232.8c-15.2,0-32.7-2.9-44.3-5.2c-26.5-5.3-64.7-19.9-62.3-34.5c0.9-5.4,3.3-9.5,7.1-12
		c5.2-3.4,13.1-4,22.9-1.6c14.6,3.6,24.8,3.3,24.9,3.3l0,0c0.4,0,42.2,3,50.6,1.7c7.7-1.2,25.2-0.4,30.5,9.5
		c3.1,5.8,4.6,16.1,1.6,24.7c-1.8,5.2-5.1,9-9.4,10.9C245.6,231.9,237.9,232.8,229.5,232.8z M141.8,179c-4.6,0-8.4,1-11.3,2.9
		c-3.6,2.4-5.8,6.2-6.6,11.3c-2.2,13.3,34.4,27.9,61.6,33.4c17.9,3.6,50.2,8.6,65.2,2c4.1-1.8,7.2-5.3,8.9-10.3
		c2.9-8.3,1.3-18.5-1.6-24c-5.1-9.4-22-10.1-29.5-9c-8.5,1.3-48.8-1.5-50.8-1.6c-0.6,0-10.8,0.2-25.2-3.3
		C149,179.5,145.4,179,141.8,179z"/>
	<path class="st3" d="M244.3,121.3c-1.4-9.5-2.8-19-4.2-28.5c-1.3-8.8-1.9-18.3-4.2-26.9c-3-12.8-7.4-19.8-20.8-22.2
		S187,55.6,187,62c0,6.4,4.6,20.9-2.5,43.7c-2.4,7.8,6.9,8.9,18.2,5.4L244.3,121.3z"/>
	<path class="st3" d="M244.3,121.8h-0.1l-41.5-10.1c-8.4,2.6-15,2.5-17.8-0.3c-1.4-1.4-1.7-3.4-0.9-5.9c5.5-17.7,3.9-30.5,3-38.1
		c-0.3-1.8-0.4-3.7-0.5-5.5c0-3.1,3.2-7.9,8-11.9c3.2-2.6,11.6-8.6,20.8-6.9c13.9,2.6,18.3,10.2,21.2,22.6
		c1.5,6.1,2.5,12.3,3.1,18.5c0.3,2.8,0.7,5.6,1.1,8.4c0.8,5.1,1.5,10.3,2.3,15.4l2,13.1c0,0.2,0,0.3-0.1,0.4
		C244.5,121.7,244.4,121.8,244.3,121.8z M202.7,110.7h0.1l40.9,10l-1.8-12.4c-0.8-5.1-1.5-10.3-2.3-15.4c-0.4-2.8-0.8-5.6-1.1-8.4
		c-0.6-6.2-1.6-12.3-3.1-18.4c-2.8-12.3-6.9-19.4-20.4-21.9c-6.1-1.1-13.5,1.4-19.9,6.7c-4.5,3.7-7.6,8.3-7.6,11.1
		c0.1,1.8,0.2,3.6,0.5,5.4c1,7.7,2.5,20.6-3,38.5c-0.7,2.1-0.4,3.7,0.7,4.9c2.4,2.4,8.9,2.4,16.9,0
		C202.6,110.7,202.6,110.7,202.7,110.7L202.7,110.7z"/>
	<path class="st0" d="M208.5,101.5c0,0-16.3,2.2-24,4.2c-7.7,2-10.4,4.8-13.1,10c-2.8,5.2-6.9,24.7-10.8,32.8s-11.1,10.3-12.4,19
		c-1.2,8.6,5.7,11.6,10.9,12.6c3.8,0.7,7.7,1.1,11.6,1.2c0,0,8.4,19.8,24.7,21.3c16.3,1.5,28.4-9.9,35.8-14.1s7.9-13.8,8.2-25
		s6.8-36.1,5.1-43c-1.7-6.9-4.3-8.1-15.5-13.8C224.1,104.2,215.4,101,208.5,101.5z"/>
	<path class="st3" d="M198.3,203.2c-1,0-2,0-3-0.1c-15.3-1.4-23.9-18.8-25-21.3c-3.8-0.2-7.6-0.6-11.4-1.2
		c-4.8-0.9-12.6-3.8-11.3-13.2c0.7-5.1,3.5-8.1,6.4-11.2c2.4-2.3,4.4-5,6-8c2.1-4.3,4.3-12,6.2-18.8c1.7-5.9,3.3-11.6,4.6-14.1
		c2.7-5.2,5.5-8.2,13.5-10.2c7.6-2,23.9-4.2,24-4.2l0,0c6.8-0.5,15.4,2.5,20.7,5.2l1,0.5c10.3,5.3,13.1,6.7,14.8,13.6
		c1,4-0.7,13.6-2.4,23.7c-1.3,7.2-2.6,14.7-2.7,19.5c-0.2,10.3-0.5,20.9-8.4,25.4c-1.5,0.8-3.1,2-5.1,3.3
		C219.4,196.9,210.1,203.2,198.3,203.2z M208.5,102c-0.6,0.1-16.5,2.3-23.9,4.2c-7.6,2-10.2,4.7-12.8,9.7c-1.2,2.4-2.8,8-4.5,13.8
		c-2,6.8-4.1,14.5-6.3,18.9c-1.6,3.1-3.7,5.8-6.2,8.2c-3,3.1-5.5,5.8-6.2,10.6c-1.2,8.1,5.1,11,10.5,12c3.8,0.6,7.7,1.1,11.5,1.2
		c0.2,0,0.4,0.1,0.4,0.3c0.1,0.2,8.5,19.5,24.3,21c12.8,1.2,23-5.7,30.4-10.7c2-1.3,3.6-2.4,5.1-3.3c6.9-4,7.6-12.6,7.9-24.5
		c0.1-4.8,1.4-12.4,2.7-19.6c1.7-9.6,3.4-19.4,2.4-23.3c-1.6-6.5-4.1-7.7-14.3-13l-1-0.5C223.5,104.5,215.1,101.5,208.5,102z"/>
	<path class="st13" d="M157.2,153.6c-3.8,4.5-8.1,7.4-9,13.9c-0.2,1.3-0.2,2.6,0,4c1,1.5,4.1,5.1,10.1,3.4
		c7.6-2.2,6.7-12.7,2.2-19.2C159.7,154.6,158.5,153.8,157.2,153.6z"/>
	<path class="st3" d="M155.3,175.8c-3,0-5.8-1.5-7.5-4.1c0-0.1-0.1-0.1-0.1-0.2c-0.2-1.3-0.3-2.7,0-4.1c0.7-5.1,3.5-8.1,6.4-11.2
		c0.9-1,1.8-1.9,2.7-3c0.1-0.1,0.3-0.2,0.4-0.2c1.5,0.2,2.8,1,3.7,2.3c3.2,4.5,4.4,10.6,3,14.8c-0.8,2.5-2.8,4.4-5.4,5.1
		C157.4,175.6,156.4,175.8,155.3,175.8z M148.7,171.2c1,1.5,4,4.7,9.5,3.1c2.2-0.6,4-2.3,4.7-4.5c1.4-4,0.2-9.6-2.8-13.9
		c-0.6-0.9-1.6-1.6-2.7-1.8c-0.8,1-1.7,1.9-2.6,2.8c-3,3.1-5.5,5.8-6.2,10.6C148.5,168.8,148.5,170,148.7,171.2L148.7,171.2z"/>
	<path class="st7" d="M207.3,134.9c6.9-3.2,10.7-8.6,13.8-19c1.2-3.7,2.1-7.5,2.8-11.4c-4.7-1.8-10.5-3.3-15.5-3c0,0-7,1-14,2.2
		c-0.6,3.6-2,14-0.3,21.7C196.1,134.9,200.4,138.1,207.3,134.9z"/>
	<path class="st3" d="M202.6,136.6c-1.1,0-2.1-0.2-3.1-0.7c-2.8-1.4-4.7-4.8-5.9-10.4c-1.6-7.7-0.3-17.9,0.3-21.9
		c0-0.2,0.2-0.4,0.4-0.4c6.9-1.2,14-2.2,14.1-2.2c5.8-0.4,12.3,1.7,15.7,3c0.2,0.1,0.3,0.3,0.3,0.6c-0.7,3.9-1.7,7.7-2.8,11.5
		c-3.3,10.8-7.2,16.2-14.1,19.3l0,0C205.9,136.1,204.3,136.5,202.6,136.6z M194.9,104.1c-0.7,4.2-1.8,13.8-0.3,21.2
		c1.1,5.2,2.9,8.4,5.4,9.7c1.9,1,4.3,0.8,7.2-0.5c6.6-3,10.3-8.3,13.5-18.7c1.1-3.6,2-7.2,2.7-10.9c-3.4-1.3-9.5-3.2-14.8-2.8
		C208.5,102,201.6,102.9,194.9,104.1z M207.3,134.9L207.3,134.9z"/>
	<path class="st3" d="M174.6,171.5c-0.1,0-0.1,0-0.2,0c-0.2-0.1-0.4-0.4-0.3-0.6c0,0,0,0,0,0c0-0.1,4.9-12.3,4.9-15.6
		c0-2.3-1.1-4.7-2.3-7.4c-0.5-1.2-1.1-2.4-1.6-3.8c-1.7-4.4,2.2-11.3,2.7-12.2c0.2-1.8,2.9-21.6,5.5-25.3c0.2-0.2,0.5-0.3,0.7-0.1
		c0,0,0,0,0,0c0.2,0.2,0.3,0.5,0.1,0.7c-2.5,3.6-5.3,24.8-5.3,25c0,0.1,0,0.1-0.1,0.2c0,0.1-4.3,7.3-2.7,11.4
		c0.5,1.3,1.1,2.5,1.6,3.7c1.3,2.8,2.4,5.3,2.4,7.8c0,3.5-4.8,15.5-4.9,16C175,171.4,174.8,171.5,174.6,171.5z"/>
	<path class="st7" d="M151.1,146.7l3.7-4c2.4,1.3,5,2.4,7.7,3.2c10,3.3,14.6,5.4,15.1,11.4c0,0,6.7-4.2,13.3-3.5
		c6.7,0.7,12.6,3.5,14.6,3.7l2,0.2l0.5,3.5l-3.7,19.5l-28.9-3l-19.8-17.3L151.1,146.7z"/>
	<path class="st3" d="M204.3,181.3L204.3,181.3l-29-3c-0.1,0-0.2-0.1-0.3-0.1L155.2,161c-0.1-0.1-0.1-0.1-0.1-0.2l-4.4-13.8
		c-0.1-0.2,0-0.4,0.1-0.5l3.7-4c0.2-0.2,0.4-0.2,0.6-0.1c2.4,1.3,4.9,2.4,7.6,3.2c9.9,3.3,14.5,5.4,15.3,11c1.9-1,7.4-3.8,13-3.1
		c3.9,0.5,7.7,1.5,11.3,2.8c1.1,0.4,2.1,0.7,3.2,0.9l2,0.2c0.2,0,0.4,0.2,0.4,0.4l0.5,3.5c0,0.1,0,0.1,0,0.2l-3.7,19.6
		C204.7,181.2,204.5,181.3,204.3,181.3z M175.6,177.4l28.3,2.9l3.6-19l-0.4-3l-1.6-0.2c-1.2-0.2-2.3-0.6-3.4-1
		c-3.6-1.3-7.4-2.2-11.2-2.7c-6.4-0.7-13,3.4-13,3.4c-0.2,0.1-0.3,0.1-0.5,0c-0.2-0.1-0.3-0.2-0.3-0.4c-0.5-5.6-4.9-7.7-14.7-10.9
		c-2.6-0.8-5-1.8-7.4-3.1l-3.2,3.4l4.3,13.4L175.6,177.4z"/>
	<polygon class="st3" points="149.9,146 173.4,166 175.8,162.1 209.4,161.3 207.5,183.1 175.6,181.6 173.4,183.1 156.1,170.2 	"/>
	<path class="st3" d="M207.5,183.6L207.5,183.6l-31.7-1.5l-2.1,1.4c-0.2,0.1-0.4,0.1-0.6,0l-17.3-12.8c-0.1-0.1-0.2-0.2-0.2-0.3
		l-6.2-24.2c-0.1-0.2,0-0.4,0.2-0.5c0.2-0.1,0.4-0.1,0.6,0l23,19.6l2.2-3.5c0.1-0.1,0.2-0.2,0.4-0.2l33.6-0.7c0.1,0,0.3,0.1,0.4,0.2
		c0.1,0.1,0.1,0.2,0.1,0.4l-2,21.7C207.9,183.4,207.7,183.5,207.5,183.6z M175.6,181.1L175.6,181.1l31.4,1.5l1.9-20.8l-32.8,0.7
		l-2.3,3.7c-0.1,0.1-0.2,0.2-0.3,0.2c-0.1,0-0.3,0-0.4-0.1l-22.3-19l5.8,22.5l16.9,12.5l1.9-1.3
		C175.4,181.1,175.5,181.1,175.6,181.1z"/>
	<path class="st13" d="M231.7,139.3l-0.5,28.2c0,0-14.6,8.2-22.7,10.4c-4.5,1.3-9.1,2.1-13.8,2.2c-0.7,0-4-5.2-5.7-6.9
		s-3.1-1.8-6.3-3.3c-4.4-2.2-6.3-2.6-6.1-1.6c0.2,1,0.5,2,2.7,3.2c2.2,1.2,3.7,2.2,3.7,2.2l0.5,1c0,0-5.4-0.7-7.7-1.2
		c-2.2-0.5-7.9-4.4-7.9-4.4s-2.4-0.1-0.7,2.8c1.7,3,3.4,3.1,3.4,3.1c0.3,1.8,1.2,3.4,2.5,4.7c1.1,1,2.3,1.9,3.5,2.7
		c0,0-4.7-1.2-4.2,0c0.5,1.2,3.5,1.7,7.2,3.5c3.7,1.7,12.1,2,16.8,2.7c8.5,1.1,17.1,1.3,25.7,0.5c9.9-1,24.7-7.7,27.4-9.9
		c2.7-2.2,1-27.2,0.2-32.9s-2.2-16.3-3.2-21.3c-1-4.9-4.9-11.9-7.4-13.3C236.6,110.2,232.2,114.9,231.7,139.3z"/>
	<path class="st3" d="M211.7,190c-5.1,0-10.3-0.3-15.4-1c-1.4-0.2-3.2-0.4-5.1-0.6c-4.3-0.4-9.2-0.9-11.9-2.2
		c-1.3-0.6-2.6-1.1-3.7-1.5c-2-0.8-3.4-1.3-3.8-2.2c-0.1-0.3-0.1-0.6,0.1-0.9c0.4-0.4,1.3-0.4,2.4-0.3c-0.5-0.4-1.1-0.9-1.7-1.4
		c-1.3-1.3-2.2-2.9-2.6-4.7c-0.7-0.2-2-0.9-3.4-3.3c-0.7-1.2-0.9-2.2-0.5-2.8c0.4-0.5,1-0.8,1.6-0.7c0.1,0,0.2,0,0.3,0.1
		c0,0,5.6,3.9,7.7,4.4c1.6,0.4,5,0.9,6.7,1.1l0,0c-0.4-0.2-1.7-1.1-3.6-2.1c-2.4-1.3-2.7-2.5-3-3.5c-0.1-0.3,0-0.7,0.3-0.9
		c0.3-0.3,1-0.8,6.5,2c1.1,0.5,2,0.9,2.7,1.2c1.4,0.5,2.7,1.2,3.7,2.2c1,1.1,2,2.4,2.9,3.6c0.7,1.1,1.6,2.2,2.6,3.2
		c4.6-0.2,9.2-0.9,13.6-2.2c7.4-2,20.4-9.1,22.4-10.2l0.5-27.9l0,0c0.3-16,2.5-26.2,5.9-28.1c0.7-0.4,1.6-0.4,2.2,0
		c2.7,1.6,6.7,8.7,7.6,13.7s2.5,15.7,3.2,21.3c0.3,2.5,2.8,30.6-0.4,33.3c-2.8,2.3-17.9,9-27.7,10C218.6,189.9,215,190,211.7,190z
		 M172.9,182.3c0.4,0.5,1.6,1,3.1,1.5c1.1,0.4,2.4,0.9,3.7,1.5c2.5,1.2,7.3,1.7,11.5,2.1c1.9,0.2,3.7,0.4,5.2,0.6
		c8.5,1.1,17.1,1.3,25.6,0.5c9.6-1,24.4-7.5,27.2-9.8c2.3-1.9,1-25.1,0.1-32.4c-0.7-5.5-2.2-16.2-3.2-21.2s-4.9-11.7-7.2-13
		c-0.4-0.2-0.9-0.2-1.3,0c-1.1,0.6-4.9,4.5-5.4,27.3l-0.5,28.2c0,0.2-0.1,0.3-0.3,0.4c-0.1,0.1-14.7,8.2-22.8,10.4
		c-4.5,1.3-9.2,2.1-14,2.2c-0.6,0-1.2-0.7-3.3-3.6c-0.9-1.2-1.8-2.4-2.8-3.5c-1-0.9-2.1-1.6-3.4-2c-0.8-0.3-1.7-0.7-2.8-1.2
		c-3.7-1.9-4.9-2.1-5.3-2.1c0.2,0.9,0.5,1.7,2.5,2.8c2.2,1.2,3.7,2.2,3.7,2.2c0.1,0.1,0.1,0.1,0.2,0.2l0.5,1c0.1,0.2,0.1,0.4,0,0.5
		c-0.1,0.2-0.3,0.2-0.5,0.2c-0.2,0-5.5-0.8-7.7-1.2c-2.2-0.5-7.1-3.8-7.9-4.4c-0.2,0-0.5,0.1-0.6,0.3c-0.1,0.1-0.2,0.6,0.5,1.8
		c1.6,2.7,3,2.9,3,2.9c0.2,0,0.4,0.2,0.4,0.4c0.3,1.7,1.1,3.2,2.3,4.4c1.1,1,2.2,1.9,3.4,2.7c0.2,0.1,0.3,0.5,0.1,0.7
		c-0.1,0.2-0.3,0.3-0.6,0.2C175.4,182.5,174.1,182.3,172.9,182.3L172.9,182.3z M231.2,167.5L231.2,167.5z"/>
	<path class="st7" d="M170.6,174.9c0,0,5.9,3.5,10.3,4.5"/>
	<path class="st3" d="M180.9,179.9h-0.1c-4.4-1-10.2-4.4-10.4-4.5c-0.2-0.1-0.3-0.4-0.2-0.7c0.1-0.2,0.4-0.3,0.7-0.2c0,0,0,0,0,0
		c0.1,0,5.9,3.5,10.1,4.4c0.3,0,0.5,0.3,0.4,0.5C181.5,179.7,181.2,179.9,180.9,179.9L180.9,179.9z"/>
	<path class="st7" d="M176.6,182.3c1.9,0.7,3.8,1.1,5.8,1.2"/>
	<path class="st3" d="M182.4,184c-2.1-0.1-4.1-0.5-6-1.2c-0.3-0.1-0.4-0.4-0.3-0.6c0.1-0.3,0.4-0.4,0.6-0.3c0,0,0,0,0,0
		c1.8,0.7,3.7,1.1,5.6,1.2c0.3,0,0.5,0.2,0.5,0.5S182.7,184,182.4,184L182.4,184z"/>
	<path class="st7" d="M171.4,177.4c3.1,2.2,6.6,3.8,10.3,4.6"/>
	<path class="st3" d="M181.7,182.6h-0.1c-3.7-0.9-7.3-2.5-10.4-4.8c-0.2-0.2-0.3-0.5-0.1-0.7c0.2-0.2,0.5-0.3,0.7-0.1
		c3,2.1,6.5,3.7,10.1,4.6c0.3,0.1,0.4,0.3,0.4,0.6c0,0,0,0,0,0C182.1,182.4,181.9,182.6,181.7,182.6z"/>
	<path class="st0" d="M225,188.6c9.7-1.8,22-7.4,24.5-9.4c2.7-2.2,1-27.2,0.2-32.9s-2.2-16.3-3.2-21.3c-1-4.9-4.9-11.9-7.4-13.3
		c-2.5-1.5-6.9,3.2-7.4,27.7l-0.5,28.2c0,0-5.7,3.2-11.9,6.1C221.7,176.2,225.8,181.7,225,188.6z"/>
	<path class="st3" d="M225,189.1c-0.1,0-0.2,0-0.3-0.1c-0.1-0.1-0.2-0.3-0.1-0.4c0.7-6.6-3.2-12-5.6-14.6c-0.1-0.1-0.1-0.3-0.1-0.4
		c0-0.2,0.1-0.3,0.3-0.4c5.4-2.5,10.5-5.3,11.6-5.9l0.5-27.9c0.3-16,2.5-26.2,5.9-28.1c0.7-0.4,1.6-0.4,2.2,0
		c2.7,1.6,6.7,8.7,7.6,13.7c1,4.9,2.5,15.7,3.2,21.3c0.3,2.5,2.8,30.6-0.4,33.3C247.2,181.6,234.6,187.3,225,189.1L225,189.1z
		 M220.1,173.8c2.4,2.8,5.9,7.9,5.5,14.2c9.9-2,21.4-7.5,23.6-9.2c2.3-1.9,1-25.1,0.1-32.4c-0.7-5.5-2.2-16.2-3.2-21.2
		s-4.9-11.7-7.2-13c-0.4-0.2-0.9-0.2-1.3,0c-1.1,0.6-4.9,4.5-5.4,27.3l-0.5,28.2c0,0.2-0.1,0.3-0.3,0.4
		C231.4,168,226,170.9,220.1,173.8L220.1,173.8z"/>
	<path class="st13" d="M199.7,98.6c0,0-2.2,12.8-2.4,20.8c-0.2,7.9,5.7,15.9,14.1,5.7c8.4-10.2,7.1-27,7.1-27
		C212.5,100.9,205.7,101.1,199.7,98.6z"/>
	<path class="st3" d="M203.9,130.4c-0.6,0-1.3-0.1-1.9-0.3c-3.2-1.2-5.4-5.7-5.2-10.7c0.2-7.9,2.4-20.8,2.4-20.8
		c0-0.1,0.1-0.3,0.2-0.3c0.1-0.1,0.3-0.1,0.4,0c5.9,2.4,12.6,2.3,18.4-0.4c0.2-0.1,0.5,0,0.7,0.2c0,0.1,0,0.1,0.1,0.2
		c0.1,0.7,1.2,17.1-7.2,27.3C208.6,129.3,205.9,130.4,203.9,130.4z M200.1,99.3c-0.4,2.6-2.1,13.2-2.3,20.1
		c-0.1,4.6,1.8,8.7,4.6,9.8c2.5,1,5.5-0.6,8.7-4.3c7.2-8.7,7.1-22.6,7-25.9C212.3,101.4,205.9,101.5,200.1,99.3L200.1,99.3z"/>
	<path class="st3" d="M200.1,115.2L200.1,115.2c-0.3,0-0.5-0.3-0.5-0.6c0,0,0,0,0,0c0.6-3.7,0.2-10.4,0.2-10.5
		c0-0.3,0.2-0.5,0.4-0.5c0,0,0,0,0,0c0.3,0,0.5,0.2,0.5,0.5c0,0.3,0.4,6.9-0.2,10.7C200.6,115,200.4,115.2,200.1,115.2z"/>
	<path class="st13" d="M150.6,164.9c-0.4,1.1-0.2,2.4,0.4,3.4c1,1.6,6.3,4.8,6.3,3.5c0-1.3-2.6-3-2.8-3.9c-0.2-0.8-0.5-1.5-0.9-2.1
		C153.6,165.7,151.7,163.4,150.6,164.9z"/>
	<path class="st3" d="M156.9,172.5c-1.5,0-5.5-2.6-6.4-4c-0.7-1.2-0.8-2.5-0.4-3.8c0,0,0-0.1,0.1-0.1c0.3-0.4,0.8-0.7,1.3-0.7l0,0
		c1.2,0,2.4,1.4,2.5,1.6c0.5,0.7,0.8,1.5,1,2.4c0.3,0.5,0.6,0.9,1,1.3c0.9,0.9,1.7,1.8,1.7,2.7c0,0.4-0.2,0.7-0.6,0.8
		C157,172.5,156.9,172.5,156.9,172.5z M151,165.2c-0.3,1-0.1,2,0.4,2.9c0.8,1.3,4.3,3.4,5.3,3.6c-0.4-0.7-0.8-1.3-1.4-1.8
		c-0.6-0.5-1-1.1-1.3-1.8c-0.2-0.7-0.4-1.4-0.8-2c-0.4-0.6-1-1-1.7-1.1C151.3,164.9,151.1,165,151,165.2z"/>
	<path class="st13" d="M148,157.5c0,0-0.2,3.7,0.4,5.4s7.2,6.3,8.9,5.4c1.7-0.9-3.5-5.4-4.8-6.8C151.1,160.1,149.6,158.8,148,157.5z
		"/>
	<path class="st3" d="M156.8,168.9c-0.6,0-1.2-0.2-1.7-0.4c-2.5-1-6.6-3.9-7.1-5.4c-0.7-1.8-0.4-5.4-0.4-5.6c0-0.2,0.1-0.3,0.3-0.4
		c0.2-0.1,0.4,0,0.5,0.1c1.6,1.2,3.2,2.6,4.6,4.1c0.3,0.3,0.7,0.7,1.2,1.2c2.4,2.4,4.2,4.3,4,5.6c0,0.4-0.3,0.7-0.6,0.8
		C157.3,168.9,157.1,168.9,156.8,168.9z M148.5,158.5c-0.1,1.4,0,2.8,0.4,4.2c0.4,1,4,3.8,6.6,4.9c1.2,0.5,1.6,0.3,1.7,0.3
		c0.2-0.9-2.4-3.5-3.7-4.8c-0.5-0.5-1-1-1.3-1.3C151,160.6,149.8,159.5,148.5,158.5L148.5,158.5z"/>
	<path class="st13" d="M148,153.1c0,0-0.5,3.6,0,5.4c0.5,1.7,6.8,6.8,8.5,6c1.8-0.8-3.1-5.6-4.3-7.1
		C151,155.8,149.6,154.4,148,153.1z"/>
	<path class="st3" d="M156.1,165.1c-0.7,0-1.3-0.3-1.9-0.6c-2.4-1.3-6.3-4.8-6.7-6.6c-0.5-2,0-6,0-6.2c0-0.2,0.1-0.4,0.3-0.4
		c0.2-0.1,0.4,0,0.5,0.1c1.5,1.5,3,3.1,4.3,4.8c0.2,0.4,0.6,0.9,1.1,1.5c2.2,2.8,3.9,5.1,3.6,6.5c-0.1,0.4-0.3,0.7-0.6,0.8
		C156.6,165,156.4,165.1,156.1,165.1z M148.4,152.9c-0.2,1.6-0.2,3.2,0.1,4.7c0.3,1.2,3.7,4.6,6.2,5.9c1.1,0.6,1.6,0.5,1.7,0.4
		c0.3-1-2.1-4.1-3.3-5.6c-0.5-0.6-0.9-1.2-1.1-1.5C150.8,155.4,149.7,154.1,148.4,152.9z"/>
	<path class="st13" d="M151.1,148.9c0,0-3.8-2-4.4,0.5c-0.6,2.5,2.3,5.1,4.9,7.3c2.6,2.1,3.8,1.7,3.8-0.3
		C155.3,154.5,151.1,148.9,151.1,148.9z"/>
	<path class="st3" d="M154.3,158.7c-1.1-0.2-2.2-0.7-3-1.5c-3-2.5-5.7-5.1-5.1-7.8c0.1-0.6,0.5-1.2,1.1-1.4c1.5-0.7,3.7,0.5,4,0.6
		c0.1,0,0.1,0.1,0.2,0.1c0.5,0.6,4.4,5.7,4.4,7.8c0,1.1-0.3,1.8-0.9,2C154.7,158.6,154.5,158.7,154.3,158.7z M148.3,148.7
		c-0.2,0-0.5,0-0.7,0.1c-0.3,0.1-0.5,0.4-0.6,0.8c-0.5,2.2,2.1,4.6,4.7,6.8c1.8,1.5,2.5,1.4,2.6,1.3c0.2-0.1,0.3-0.5,0.3-1.2
		c0-1.5-2.9-5.6-4.1-7.1C150,149,149.2,148.7,148.3,148.7L148.3,148.7z"/>
	<path class="st14" d="M150.7,227.4c0,0-4.9,2.6-14.2,3s-16.8-4.6-12.5-8.6c4.5-4.2,10.7-6.1,16.8-5.3c5.9,1,14.8,3.3,14.8,3.3
		L150.7,227.4z"/>
	<path class="st3" d="M135.7,230.9c-6.2,0-11.9-2.3-13.1-5.4c-0.6-1.4-0.1-3.1,1.1-4c4.7-4.3,11-6.2,17.2-5.4
		c5.9,1,14.8,3.3,14.8,3.3c0.2,0,0.3,0.2,0.3,0.3c0.1,0.2,0,0.3,0,0.5l-4.9,7.6c0,0.1-0.1,0.1-0.2,0.2c-0.2,0.1-5.1,2.7-14.4,3
		L135.7,230.9z M138,216.8c-5.1,0.1-9.9,2-13.6,5.4c-0.9,0.7-1.3,1.9-0.9,3c1,2.5,6.3,5,13,4.8c8.3-0.3,13.1-2.5,13.8-2.9l4.5-6.9
		c-2.2-0.5-9.2-2.3-14.1-3.1C139.8,216.8,138.9,216.8,138,216.8z M150.7,227.4L150.7,227.4z"/>
	<path class="st15" d="M152,219.1c0.4,0,0.9,0.1,1.4,0.1c-3-0.8-8.5-2.1-12.6-2.7c-6.1-0.8-12.3,1.1-16.8,5.3c-2.2,2-1.3,4.3,1.3,6
		c-0.3-2.9,1.3-5.6,4-6.6C134.9,218.5,146.4,218.5,152,219.1z"/>
	<path class="st3" d="M125.4,228.3c-0.1,0-0.2,0-0.3-0.1c-1.7-1.1-2.7-2.4-2.8-3.7c0-1.2,0.5-2.3,1.4-3c4.7-4.3,11-6.2,17.2-5.4
		c4.1,0.7,9.7,2,12.6,2.7c0.2,0.1,0.4,0.3,0.4,0.6c-0.1,0.2-0.3,0.4-0.5,0.4c-0.5,0-1,0-1.4-0.1l0,0c-5.9-0.7-17.2-0.6-22.5,2
		c-2.5,1-4,3.5-3.6,6.1c0,0.2-0.1,0.4-0.2,0.5C125.5,228.3,125.5,228.3,125.4,228.3z M138,216.8c-5.1,0.1-9.9,2-13.6,5.4
		c-0.7,0.5-1.1,1.4-1.1,2.2c0.2,1,0.7,1.8,1.6,2.4c0.1-2.7,1.7-5.1,4.2-6.1c4.6-2.2,12.6-2.5,18.3-2.4c-2.3-0.5-4.6-1-6.7-1.3
		C139.8,216.8,138.9,216.8,138,216.8z"/>
	<path class="st3" d="M253.8,200c0,0-9.9,14.8-19.8,20.8s-55,6.6-64.2,6.6h-19.1v-6.9c0,0,30.3-4.3,47.1-13.8s25.7-20.1,38.9-24.4
		s24.7,3,24.4,20.8"/>
	<path class="st3" d="M169.8,227.9h-19.1c-0.3,0-0.5-0.2-0.5-0.5v-6.9c0-0.2,0.2-0.5,0.4-0.5c0.3,0,30.4-4.4,46.9-13.8
		c6.2-3.6,12.2-7.6,17.9-12c7.2-5.3,13.4-9.9,21.1-12.4c6.6-2.2,12.8-1.5,17.4,2c5.1,3.8,7.8,10.6,7.6,19.3c0,0.3-0.2,0.5-0.5,0.5
		c0,0,0,0,0,0c-0.3,0-0.5-0.2-0.5-0.5c0,0,0,0,0,0c0.2-8.3-2.4-14.9-7.2-18.5c-4.3-3.2-10.2-3.9-16.5-1.8c-7.6,2.5-13.7,7-20.8,12.3
		c-5.7,4.4-11.7,8.4-18,12.1c-15.6,8.9-43.1,13.3-46.9,13.8v6h18.6c0.5,0,53.2-0.1,64-6.5c9.7-5.8,19.5-20.5,19.6-20.6
		c0.2-0.2,0.5-0.3,0.7-0.1c0.2,0.1,0.3,0.4,0.1,0.7c0,0,0,0,0,0c-0.1,0.1-10.1,15-19.9,20.9C223.4,227.8,170.4,227.9,169.8,227.9z"
		/>
	<path class="st7" d="M218.4,226.1c-0.3,0-0.5-0.2-0.5-0.4c0-0.3,0.2-0.5,0.4-0.5c10.7-1.8,20.6-6.7,28.6-14.1
		c0.2-0.2,0.5-0.2,0.7,0c0,0,0,0,0,0c0.2,0.2,0.2,0.5,0,0.7c0,0,0,0,0,0c-8.1,7.5-18.2,12.5-29.1,14.4L218.4,226.1z"/>
	<path class="st7" d="M250.9,207.9c-0.1,0-0.2,0-0.3-0.1c-0.2-0.2-0.2-0.5-0.1-0.7c1-1.2,1.9-2.6,2.7-4c0.1-0.2,0.4-0.3,0.7-0.2
		c0.2,0.1,0.3,0.4,0.2,0.7c0,0,0,0,0,0c-0.8,1.5-1.8,2.9-2.8,4.2C251.2,207.8,251,207.9,250.9,207.9z"/>
	<path class="st7" d="M187.9,211.2c-0.3,0-0.5-0.2-0.5-0.5s0.2-0.5,0.5-0.5c5.6-0.4,11-2.4,15.5-5.8c0.2-0.2,0.5-0.2,0.7,0
		c0,0,0,0,0,0c0.2,0.2,0.1,0.5-0.1,0.7C199.5,208.8,193.8,210.9,187.9,211.2z"/>
	<path class="st3" d="M144.9,186l-1.1-0.1"/>
	<path class="st3" d="M144.9,186.5L144.9,186.5l-1.1-0.1c-0.3,0-0.5-0.3-0.5-0.5c0-0.3,0.3-0.5,0.5-0.5l1.1,0.1
		c0.3,0,0.5,0.3,0.5,0.5C145.4,186.3,145.2,186.5,144.9,186.5L144.9,186.5z"/>
	<path class="st14" d="M237.7,228.7c4.9-1.7,10-3.1,15.2-4c6.9-1,12.5,0,14.5,4.3c2,4.3,0.7,9.5-6.3,10.9
		c-6.9,1.3-19.4-1.3-20.8-1.3c-1.1-0.1-2.3-0.5-3.3-1L237.7,228.7z"/>
	<path class="st3" d="M256.4,240.8c-4.6-0.1-9.2-0.6-13.7-1.4c-1.2-0.2-2.1-0.3-2.3-0.3c-1.2-0.1-2.4-0.5-3.5-1
		c-0.2-0.1-0.3-0.3-0.3-0.5l0.7-8.9c0-0.2,0.1-0.4,0.3-0.4c5-1.7,10.1-3.1,15.3-4c7.9-1.1,13.1,0.4,15,4.6c1.1,2.3,1.2,4.9,0.1,7.2
		c-0.8,1.6-2.6,3.6-6.7,4.4C259.6,240.7,258,240.8,256.4,240.8z M237.6,237.3c0.9,0.4,1.8,0.7,2.8,0.8c0.8,0.1,1.7,0.2,2.5,0.3
		c4.2,0.7,12.9,2,18.2,1c3-0.6,5-1.9,6-3.9c0.9-2,0.9-4.3-0.1-6.3c-2.1-4.7-8.8-4.7-14-4c-5,0.9-10,2.1-14.8,3.8L237.6,237.3z"/>
	<path class="st16" d="M259.4,224.5c2.1,0.8,6.1,3,5.3,8.2c-1,6.9-9.2,6.9-14.8,6.9c-0.4,0-0.8,0.1-1.2,0.2c4.2,0.5,9,0.8,12.4,0.2
		c6.9-1.3,8.2-6.6,6.3-10.9C266,226.2,263.2,224.8,259.4,224.5z"/>
	<path class="st17" d="M256.4,240.8c-2.6,0-5.2-0.2-7.8-0.5c-0.2,0-0.4-0.2-0.4-0.5c0-0.2,0.1-0.4,0.4-0.5c0.4-0.1,0.9-0.2,1.4-0.2
		c5.7,0,13.4,0,14.3-6.5c0.7-4.7-2.9-6.8-5-7.6c-0.2-0.1-0.4-0.3-0.3-0.6c0.1-0.2,0.3-0.4,0.5-0.4c4.3,0.4,7.1,2,8.4,4.8
		c1.1,2.3,1.2,4.9,0.1,7.2c-0.8,1.6-2.6,3.6-6.7,4.4C259.6,240.7,258,240.8,256.4,240.8z M256.3,239.8c1.6,0,3.1-0.1,4.7-0.4
		c3-0.6,5-1.9,6-3.9c0.9-2,0.9-4.3-0.1-6.3c-0.9-1.9-2.6-3.2-4.6-3.7c2.3,1.6,3.5,4.4,3,7.2C264.5,237.6,260.6,239.2,256.3,239.8z"
		/>
	<path class="st3" d="M141.2,178.6c0,0-11.2-2-18.5,3.6c-7.2,5.6-6.3,11.5,0.7,20.1c6.9,8.6,24.7,23.7,63.3,30.6s50.4,4.6,50.4,4.6
		l0.7-8.9c-16.6,0.1-32.7-5.1-46.1-14.8c-21.6-15.8-31.2-26.2-46.7-27.9"/>
	<path class="st3" d="M230.3,238.5c-7.1,0-20.6-0.8-43.8-5c-40.8-7.3-58-24-63.6-30.8c-4.4-5.4-6.1-9.4-5.7-13.1
		c0.3-2.8,2-5.3,5.1-7.7c7.3-5.7,18.4-3.8,18.8-3.7c0.3,0,0.4,0.3,0.4,0.5c0,0,0,0,0,0c0,0.3-0.3,0.5-0.6,0.4c0,0,0,0,0,0
		c-0.1,0-11.1-1.9-18.1,3.5c-2.9,2.2-4.5,4.6-4.8,7.1c-0.4,3.3,1.4,7.2,5.5,12.3c5.4,6.7,22.5,23.2,63,30.5
		c34.3,6.2,47.6,4.9,49.9,4.7l0.6-8c-16.5-0.1-32.5-5.4-45.9-14.9c-4.9-3.6-9.2-6.9-13-9.9c-13-10-21.6-16.7-33.4-18
		c-0.3,0-0.5-0.3-0.4-0.5c0-0.3,0.3-0.5,0.5-0.4c12.1,1.3,20.8,8,33.9,18.1c3.8,3,8.1,6.3,13,9.9c13.4,9.6,29.4,14.7,45.8,14.7
		c0.1,0,0.3,0,0.4,0.1c0.1,0.1,0.1,0.2,0.1,0.4l-0.7,8.9c0,0.2-0.2,0.4-0.4,0.4C234.9,238.4,232.6,238.5,230.3,238.5z"/>
	<path class="st7" d="M137,187c-0.2,0-0.4-0.2-0.5-0.4c-0.1-0.3,0.1-0.5,0.4-0.6c0,0,0,0,0,0c1.2-0.2,2.4-0.4,3.6-0.4
		c0.3,0,0.5,0.2,0.5,0.5c0,0.3-0.2,0.5-0.5,0.5c0,0,0,0,0,0C139.4,186.7,138.3,186.8,137,187L137,187z"/>
	<path class="st7" d="M232.9,229L232.9,229c-0.2,0-23.2-0.7-48.7-20.4c-17.8-13.7-28.6-19.9-37.3-21.6c-0.3-0.1-0.5-0.3-0.4-0.6
		s0.3-0.5,0.6-0.4c8.9,1.7,19.8,8,37.7,21.8c25.3,19.4,47.9,20.2,48.1,20.2c0.3,0,0.5,0.2,0.5,0.5c0,0,0,0,0,0
		C233.4,228.8,233.2,229,232.9,229z"/>
	<path class="st13" d="M232.7,84.8c-6.1,3.2-6.9-3.2-6.9-7.1c0.1,0,0.1-0.1,0.1-0.2c0.4-1.8,0-10.7-5.1-14.2
		c-4.5-3.1-10.5-5.8-16.1-5.8c-4,0-7.4,2.5-9.5,5.7c-2.5,3.8-2.3,8.2-2.5,12.5c-0.2,4.4-0.6,9.2,0.2,13.6
		c1.2,5.8,6.6,18.1,13.2,18.1c6,0,16.7-9,20.3-14.3c0.8-0.3,1.6-0.7,2.2-1.3C230.2,90.7,232.9,88.7,232.7,84.8z"/>
	<path class="st3" d="M206.3,107.9c-7.1,0-12.6-13-13.7-18.5c-0.8-3.9-0.6-8-0.3-11.9l0.1-1.7l0.1-1.7c0.1-3.8,0.3-7.7,2.5-11.1
		c2.4-3.7,6.1-5.9,9.9-5.9l0,0c4.9,0,10.9,2.2,16.3,5.9c5.4,3.8,5.8,12.8,5.3,14.7c0,0.1-0.1,0.2-0.1,0.2c0,2.2,0.3,5.8,2.2,6.9
		c1,0.6,2.3,0.4,4-0.5c0.1-0.1,0.3-0.1,0.5,0c0.1,0.1,0.2,0.2,0.2,0.4c0.2,3.8-2.3,5.9-3.7,7.1l-0.3,0.3c-0.7,0.6-1.4,1-2.3,1.3
		C223.3,98.6,212.7,107.9,206.3,107.9z M204.7,58c-3.4,0-6.8,2-9.1,5.5c-2.1,3.2-2.2,6.8-2.4,10.6l-0.1,1.7l-0.1,1.7
		c-0.2,4-0.4,7.9,0.3,11.7c1.2,6.2,6.7,17.7,12.7,17.7c5.6,0,16.1-8.5,19.9-14.1c0.1-0.1,0.2-0.2,0.3-0.2c0.8-0.2,1.5-0.7,2.1-1.2
		l0.3-0.3c1.3-1.1,3.2-2.7,3.4-5.6c-1.3,0.7-2.9,0.8-4.2,0.1c-2.2-1.3-2.6-5.1-2.6-8c0-0.1,0.1-0.3,0.2-0.4
		c0.4-1.7-0.1-10.3-4.9-13.6C215.3,60.1,209.5,58,204.7,58L204.7,58z"/>
	<path class="st3" d="M204.7,91.2c-0.4,0-0.7-0.1-1.1-0.2c-0.2-0.1-0.4-0.3-0.4-0.6c-0.2-1,1.9-7.6,2.5-9.6c0.1-0.3,0.4-0.4,0.6-0.3
		c0.3,0.1,0.4,0.3,0.3,0.6c0,0,0,0,0,0c-1.3,4-2.6,8.5-2.5,9.1c1,0.1,2-0.1,2.9-0.4c0.3-0.1,0.5,0.1,0.6,0.3c0,0,0,0,0,0
		c0.1,0.3-0.1,0.5-0.3,0.6C206.5,91,205.6,91.2,204.7,91.2z"/>
	<path class="st3" d="M206.9,95.1c-1.2,0-2.4-0.3-3.4-1c-0.2-0.2-0.3-0.5-0.1-0.7c0.2-0.2,0.5-0.3,0.7-0.1l0,0
		c0.1,0.1,3.4,2.4,8.7-1.6c0.2-0.2,0.5-0.1,0.7,0.1v0c0.2,0.2,0.1,0.5-0.1,0.7C211.5,94.1,209.2,95,206.9,95.1z"/>
	<path class="st3" d="M217.1,86.8c-2.1,0.1-4-1-5.1-2.7c-0.1-0.2,0-0.5,0.2-0.6c0,0,0,0,0,0c0.2-0.1,0.5,0,0.6,0.2c0,0,0,0,0,0
		c0.1,0.2,1.9,3.6,7.6,1.5c0.3-0.1,0.5,0,0.6,0.3c0.1,0.3,0,0.5-0.3,0.6c0,0,0,0,0,0C219.6,86.6,218.4,86.8,217.1,86.8z"/>
	<path class="st3" d="M199.6,82.4c-4.3,0-5.3-3.2-5.3-3.2c-0.1-0.3,0.1-0.5,0.3-0.6c0.3-0.1,0.5,0.1,0.6,0.3c0,0.2,1.1,3.6,6.8,2.2
		c0.3-0.1,0.5,0.1,0.6,0.4c0.1,0.3-0.1,0.5-0.4,0.6C201.4,82.3,200.5,82.4,199.6,82.4z"/>
	<path class="st3" d="M205.8,76.4c-0.2,0-0.4-0.2-0.5-0.4c0,0-1-3.3-3.5-4.3c-1.5-0.6-3.3-0.4-5.3,0.8c-0.2,0.1-0.5,0-0.7-0.2
		c-0.1-0.2,0-0.5,0.2-0.7c2.3-1.3,4.4-1.5,6.1-0.8c3,1.2,4,4.8,4.1,5c0.1,0.3-0.1,0.5-0.3,0.6L205.8,76.4z"/>
	<path class="st3" d="M215.8,92.7c-4.6,0-8.3-3.7-8.3-8.3c0-4.6,3.7-8.3,8.3-8.3c4.6,0,8.3,3.7,8.3,8.3c0,0,0,0,0,0
		C224.1,89,220.4,92.7,215.8,92.7z M215.8,77.2c-4,0-7.3,3.3-7.3,7.3s3.3,7.3,7.3,7.3c4,0,7.3-3.3,7.3-7.3c0,0,0,0,0,0
		C223.1,80.4,219.8,77.2,215.8,77.2L215.8,77.2z"/>
	<path class="st3" d="M197.9,89.2c-4.6,0-8.3-3.7-8.3-8.3c0-4.6,3.7-8.3,8.3-8.3c4.6,0,8.3,3.7,8.3,8.3c0,0,0,0,0,0
		C206.2,85.5,202.5,89.2,197.9,89.2z M197.9,73.7c-4,0-7.3,3.3-7.3,7.3c0,4,3.3,7.3,7.3,7.3c4,0,7.3-3.3,7.3-7.3c0,0,0,0,0,0
		C205.2,76.9,201.9,73.7,197.9,73.7z"/>
	<path class="st3" d="M223.2,86.5c-0.2,0-0.4-0.2-0.5-0.4c0-0.3,0.1-0.5,0.4-0.6l6.4-1.2c0.3,0,0.5,0.1,0.6,0.4
		c0,0.3-0.1,0.5-0.4,0.6L223.2,86.5L223.2,86.5z"/>
	<path class="st3" d="M190.3,79.5c-0.2,0-0.3-0.1-0.4-0.2c-0.2-0.2-0.1-0.5,0.1-0.7l2.3-1.7c0.2-0.2,0.5-0.1,0.7,0.1
		c0.2,0.2,0.1,0.5-0.1,0.7l-2.3,1.7C190.5,79.5,190.4,79.5,190.3,79.5z"/>
	<path class="st3" d="M198,60.5c0,0,6.9-4.2,9.3-0.2c2.4,4,13.5,30.5,25.4,24.6c11.9-5.9-0.1-25.5-11.6-31.7
		C209.5,46.9,199.8,52.3,198,60.5z"/>
	<path class="st3" d="M229.2,86.2c-9.1,0-17.1-15.7-20.8-22.8c-0.7-1.3-1.2-2.3-1.5-2.9c-0.4-0.7-1.1-1.2-1.9-1.4
		c-2.8-0.7-6.7,1.7-6.8,1.7c-0.2,0.1-0.5,0.1-0.7-0.2c-0.1-0.1-0.1-0.2-0.1-0.4c0.9-4,3.6-7.4,7.4-9.1c4.8-2.2,10.6-1.7,16.5,1.4
		c8,4.3,17,15.6,16.8,24.3c0.1,3.5-2,6.8-5.2,8.3C231.8,85.9,230.5,86.2,229.2,86.2z M203.9,58c0.4,0,0.9,0,1.3,0.1
		c1,0.2,1.9,0.9,2.5,1.8c0.4,0.6,0.9,1.6,1.6,3c4,7.9,13.4,26.4,23.2,21.5c2.9-1.3,4.7-4.2,4.6-7.4c0.1-8.3-8.5-19.2-16.3-23.4
		c-5.5-3-11.1-3.5-15.6-1.4c-3.1,1.4-5.5,4.1-6.5,7.3C200.4,58.7,202.1,58.2,203.9,58z"/>
	<path class="st7" d="M196.4,59.6L196.4,59.6c-0.3,0-0.5-0.2-0.5-0.5c0.2-1.6,1.1-3,2.5-3.8c2.5-1.7,6.6,1.7,6.7,1.8
		c0.2,0.2,0.2,0.5,0.1,0.7c-0.2,0.2-0.5,0.2-0.7,0.1c-1-0.9-4-2.8-5.6-1.7c-1.1,0.6-1.9,1.7-2,3C196.9,59.4,196.7,59.6,196.4,59.6
		C196.4,59.6,196.4,59.6,196.4,59.6z"/>
	<path class="st7" d="M236,79.6h-0.1c-1-0.3-2-0.7-3-1.3c-0.2-0.1-0.3-0.4-0.2-0.7c0.1-0.2,0.4-0.3,0.7-0.2c0,0,0,0,0,0
		c0.8,0.5,1.8,0.9,2.7,1.2c0.3,0,0.5,0.3,0.4,0.6C236.6,79.5,236.3,79.7,236,79.6L236,79.6z"/>
	<path class="st7" d="M229,74.3c-0.2,0-0.3-0.1-0.4-0.2c-2.1-3-3.9-6.2-5.5-9.5c-1.8-3.7-3.8-7.4-6-10.9c-2.6-4-5.3-6.1-8-6.3
		c-2.1-0.1-4.1,0.7-5.5,2.2c-0.2,0.2-0.5,0.2-0.7,0c0,0,0,0,0,0c-0.2-0.2-0.2-0.5,0-0.7c0,0,0,0,0,0c1.6-1.7,3.9-2.7,6.3-2.5
		c3.1,0.2,6.1,2.5,8.8,6.8c2.2,3.5,4.2,7.1,6.1,10.9c1.6,3.3,3.4,6.4,5.4,9.4c0.2,0.2,0.1,0.5-0.1,0.7
		C229.3,74.2,229.2,74.3,229,74.3z"/>
	<path class="st7" d="M224.4,76.9c-0.1,0-0.2-0.1-0.3-0.1c-2.5-2.5-6.4-3.1-9.5-1.5c-0.2,0.1-0.5,0-0.7-0.2c-0.1-0.2,0-0.5,0.2-0.7
		c0,0,0,0,0,0c3.6-1.7,7.8-1.1,10.7,1.6c0.2,0.2,0.2,0.5,0,0.7C224.7,76.8,224.5,76.9,224.4,76.9z"/>
	<path class="st3" d="M223.9,160.2c-12.4,0-20.1-9.4-20.1-9.5c-0.1-0.2-0.1-0.5,0.2-0.7c0.2-0.1,0.4-0.1,0.6,0.1
		c0.1,0.1,7.5,9.1,19.4,9.1c0.3,0,0.5,0.2,0.5,0.5S224.2,160.2,223.9,160.2z"/>
</g>
<g id="freepik--Floor--inject-44">
	<path class="st3" d="M367.5,342.2H26.4c-0.3,0-0.5-0.2-0.5-0.5c0-0.3,0.2-0.5,0.5-0.5h341.1c0.3,0,0.5,0.2,0.5,0.5
		C368,342,367.8,342.2,367.5,342.2z"/>
</g>
<path class="st18" d="M300,48.6l0.1,2.5c0,0-13.6-4.5-21.2,0.1l0,0c-0.2,0.5-0.7,0.9-1.3,1l-3.3,0.5c-0.7,0.1-1.4-0.2-1.7-0.9l0,0
	c-5.3-1.7-11.1-1.1-15.8,1.8l-3,1.6l3.6-31.9l37.2-10.1L300,48.6z"/>
<path class="st1" d="M301.8,45l0.2,4.5c0,0-13.7-6.8-26.1,2.2l1.7-21.7C277.6,30,300.5,40.5,301.8,45z"/>
<path class="st2" d="M301.8,12.5c0,0-16.6-10.9-27.2,6.9l1.2,32.4c0,0,13.2-15.6,27.5-5.9L301.8,12.5z"/>
<path class="st1" d="M275.9,51.7c0,0-14.2-7.6-23.2,2.3l0.6-29.7l21.5-3.9L275.9,51.7z"/>
<path class="st2" d="M274.7,19.4c-4.2-5.1-10.7-7.8-17.3-7.2l-7.4,1.1l-1.5,29.8c0,0,18.9-3.8,27.4,8.6L274.7,19.4z"/>
<path class="st18" d="M275.9,51.7c0-0.4,0-0.8,0-1.3c0-0.9,0-2.1-0.1-3.5c-0.1-3-0.2-7-0.4-11.4c-0.1-4.4-0.3-8.4-0.4-11.4
	c0-1.4-0.1-2.5-0.1-3.5c0-0.4,0-0.8-0.1-1.3c-0.1,0.4-0.1,0.8-0.1,1.3c0,0.8,0,2,0,3.5c0,3,0.1,6.9,0.2,11.4s0.3,8.5,0.5,11.4
	c0.1,1.5,0.2,2.6,0.2,3.4C275.7,50.9,275.8,51.3,275.9,51.7z"/>
<path class="st18" d="M256.8,17c0,0.1,1-0.2,2.6-0.3c4.2-0.2,8.4,1.2,11.6,4c1.2,1,1.8,1.8,1.9,1.8c0.1-0.1-0.1-0.2-0.4-0.6
	c-0.4-0.5-0.8-1-1.3-1.5c-3.2-3-7.5-4.4-11.9-4c-0.6,0.1-1.3,0.2-1.9,0.4C257.1,16.9,256.8,17,256.8,17z"/>
<path class="st18" d="M256.3,20.4c0,0.1,1-0.2,2.6-0.3c4.2-0.2,8.4,1.2,11.6,4c1.2,1,1.8,1.8,1.9,1.8c0.1-0.1-0.1-0.2-0.4-0.6
	c-0.4-0.5-0.8-1-1.3-1.5c-3.2-3-7.5-4.4-11.9-4c-0.7,0.1-1.3,0.2-1.9,0.4C256.5,20.3,256.3,20.4,256.3,20.4z"/>
<path class="st18" d="M256.3,24.1c0,0.1,1-0.2,2.6-0.3c2.1-0.1,4.2,0.2,6.2,0.8c2,0.7,3.8,1.7,5.4,3.1c1.2,1,1.8,1.8,1.9,1.8
	c0.1-0.1-0.1-0.2-0.4-0.6c-0.4-0.5-0.8-1-1.3-1.5c-3.2-3-7.5-4.4-11.9-4c-0.6,0.1-1.3,0.2-1.9,0.4C256.8,23.9,256.6,24,256.3,24.1z"
	/>
<path class="st18" d="M255.9,27.6c0,0.1,1-0.2,2.6-0.3c4.2-0.2,8.4,1.2,11.6,4c1.2,1,1.8,1.8,2,1.8c0.1-0.1-0.1-0.2-0.4-0.6
	c-0.4-0.5-0.8-1-1.3-1.5c-3.2-3-7.5-4.4-11.9-4c-0.6,0.1-1.3,0.2-1.9,0.4C256.1,27.4,255.9,27.5,255.9,27.6z"/>
<path class="st18" d="M255.4,31.3c0,0.1,1-0.2,2.6-0.3c4.2-0.2,8.4,1.1,11.6,3.9c1.2,1,1.8,1.8,1.9,1.8c0.1-0.1-0.1-0.2-0.4-0.6
	c-0.4-0.5-0.8-1-1.3-1.5c-3.2-3-7.5-4.4-11.9-4c-0.7,0.1-1.3,0.2-1.9,0.4C255.6,31.1,255.4,31.2,255.4,31.3z"/>
<path class="st18" d="M254.6,35.3c0,0.1,1.1-0.2,2.8-0.3c1,0,2.1,0,3.1,0.1c1.2,0.2,2.5,0.4,3.7,0.8c1.2,0.4,2.4,0.8,3.5,1.4
	c0.9,0.5,1.8,1,2.6,1.6c1.4,1.1,2.1,2,2.1,1.9c0.1-0.1-0.1-0.2-0.4-0.7c-0.2-0.2-0.4-0.5-0.6-0.7c-0.3-0.3-0.6-0.6-0.9-0.8
	c-0.8-0.7-1.7-1.3-2.6-1.8c-1.1-0.6-2.3-1.1-3.6-1.5c-1.2-0.4-2.5-0.6-3.8-0.7c-1-0.1-2.1-0.1-3.2,0c-0.4,0-0.8,0.1-1.2,0.2
	c-0.3,0-0.6,0.1-0.9,0.2C255.1,35.1,254.9,35.2,254.6,35.3z"/>
<path class="st18" d="M254.7,38.5c0,0.1,1.1-0.2,2.9-0.2c1,0,2.1,0,3.1,0.2c1.2,0.2,2.5,0.5,3.7,0.9c1.2,0.4,2.4,0.9,3.5,1.5
	c0.9,0.5,1.8,1.1,2.6,1.7c1.4,1.1,2.1,2,2.1,1.9c0.1-0.1-0.1-0.3-0.4-0.7c-0.2-0.2-0.4-0.5-0.6-0.7c-0.3-0.3-0.6-0.6-0.9-0.9
	c-0.8-0.7-1.7-1.3-2.6-1.8c-1.1-0.6-2.3-1.2-3.5-1.6c-1.2-0.4-2.5-0.7-3.8-0.9c-1-0.1-2.1-0.2-3.2-0.1c-0.4,0-0.8,0.1-1.2,0.1
	c-0.3,0-0.6,0.1-0.9,0.2C255,38.4,254.7,38.5,254.7,38.5z"/>
<path class="st18" d="M279.8,43.1c0.1,0,0.7-0.9,2-2.2c3.4-3.4,8.2-4.9,13-4c1.8,0.3,2.8,0.8,2.9,0.7c-0.2-0.2-0.5-0.3-0.7-0.4
	c-0.7-0.3-1.4-0.5-2.1-0.7c-4.9-1.1-9.9,0.5-13.3,4.1c-0.5,0.5-1,1.1-1.4,1.7C279.9,42.8,279.8,43,279.8,43.1z"/>
<path class="st18" d="M279.7,38.9c0.1,0,0.7-0.9,2-2.2c3.4-3.4,8.2-4.9,13-4c1.8,0.3,2.8,0.8,2.9,0.7c-0.2-0.2-0.5-0.3-0.7-0.4
	c-0.7-0.3-1.4-0.5-2.1-0.7c-4.9-1.1-9.9,0.5-13.3,4.2c-0.5,0.5-0.9,1.1-1.3,1.7C279.8,38.6,279.7,38.9,279.7,38.9z"/>
<path class="st18" d="M279.7,34.7c0.1,0,0.7-0.9,2-2.2c3.4-3.4,8.2-4.9,13-4c1.8,0.3,2.8,0.8,2.9,0.7c0-0.1-0.2-0.2-0.7-0.4
	c-0.7-0.3-1.4-0.5-2.1-0.7c-4.9-1.1-9.9,0.5-13.3,4.2c-0.5,0.5-1,1.1-1.3,1.7C279.8,34.5,279.7,34.7,279.7,34.7z"/>
<path class="st18" d="M279.6,30.6c0.1,0,0.7-0.9,2-2.2c3.4-3.4,8.3-4.9,13-4c1.8,0.3,2.8,0.8,2.9,0.7c0-0.1-0.2-0.2-0.7-0.4
	c-0.7-0.3-1.4-0.5-2.1-0.7c-4.9-1.1-9.9,0.5-13.3,4.1c-0.5,0.5-1,1.1-1.3,1.7C279.8,30.1,279.7,30.3,279.6,30.6z"/>
<path class="st18" d="M279.6,26.4c0.1,0.1,0.7-0.9,2-2.2c3.4-3.4,8.2-4.9,13-4c1.8,0.3,2.8,0.8,2.9,0.7c-0.2-0.2-0.5-0.3-0.7-0.4
	c-0.7-0.3-1.4-0.5-2.1-0.7c-4.9-1.1-9.9,0.5-13.3,4.2c-0.5,0.5-1,1.1-1.4,1.7C279.8,25.9,279.6,26.1,279.6,26.4z"/>
<path class="st18" d="M279.5,22.2c0.1,0,0.7-0.9,2-2.2c3.4-3.4,8.2-4.9,13-4c1.8,0.3,2.8,0.8,2.9,0.7c-0.2-0.2-0.5-0.3-0.7-0.4
	c-0.7-0.3-1.4-0.5-2.1-0.7c-4.9-1.1-9.9,0.5-13.3,4.1c-0.5,0.5-1,1.1-1.4,1.7C279.6,22,279.5,22.2,279.5,22.2z"/>
<g id="freepik--Hearts--inject-46">
	<path class="st0" d="M258.6,15.4c0.3-1.5,0.1-3-0.6-4.3c-0.6-1.4-1.5-2.5-2.8-3.3c-1.4-0.8-3-1-4.5-0.5c-0.9,0.3-1.7,0.7-2.3,1.4
		c-0.2-0.8-0.5-1.6-1-2.3c-1-1.2-2.4-2-4-2.2c-1.5-0.1-2.9,0.2-4.2,1c-1.3,0.7-2.3,1.9-3,3.2c-0.8,1.7-1,3.7-0.6,5.5
		c0.5,1.9,1.5,3.7,2.9,5.2c2.2,2.5,5.1,5.7,5.1,5.7s3.7-1.3,6.9-2c2-0.4,3.8-1.3,5.4-2.5C257.3,19,258.2,17.3,258.6,15.4z"/>
	<path class="st0" d="M237.1,41.7c-0.2-0.7-0.7-1.2-1.3-1.7c-0.6-0.4-1.2-0.7-1.9-0.7c-1.2,0-2.3,0.8-2.6,2
		c-0.8-0.9-2.1-1.1-3.1-0.6c-0.6,0.3-1.1,0.8-1.5,1.4c-0.4,0.6-0.5,1.3-0.5,2c0.1,0.9,0.5,1.8,1.1,2.4c0.7,0.7,1.5,1.2,2.4,1.4
		c1.5,0.5,3.4,1.1,3.4,1.1s1.2-1.4,2.4-2.5c0.7-0.6,1.3-1.4,1.6-2.3C237.4,43.5,237.3,42.6,237.1,41.7z"/>
	<path class="st0" d="M96.9,187.7c0.1-0.7,0.1-1.4-0.2-2.1c-0.3-0.6-0.7-1.2-1.3-1.6c-1-0.6-2.4-0.5-3.3,0.3c-0.2-1.1-1.2-2-2.3-2.2
		c-0.7-0.1-1.4,0.1-2,0.4c-0.6,0.3-1.1,0.8-1.5,1.5c-0.4,0.8-0.5,1.7-0.4,2.6c0.2,0.9,0.7,1.8,1.3,2.5c1,1.2,2.3,2.8,2.3,2.8
		s1.8-0.6,3.3-0.9c0.9-0.2,1.8-0.6,2.6-1.1C96.2,189.4,96.7,188.6,96.9,187.7z"/>
	<path class="st0" d="M293.2,188.9c-0.2-0.4-0.5-0.7-0.8-1c-0.4-0.3-0.8-0.4-1.2-0.4c0,0.7-0.5,1.3-1.2,1.3c-0.4,0-0.8-0.2-1.1-0.5
		c-0.4-0.2-0.9-0.2-1.4,0c-0.4,0.2-0.7,0.5-0.9,0.9c-0.2,0.4-0.3,0.8-0.3,1.3c0.1,0.6,0.3,1.1,0.7,1.5c0.4,0.4,1,0.7,1.5,0.9
		l2.2,0.7c0,0,0.8-0.9,1.5-1.6c0.4-0.4,0.8-0.9,1-1.5C293.4,190,293.4,189.4,293.2,188.9z"/>
	<path class="st0" d="M107.8,155.7c-0.2-0.4-0.4-0.8-0.8-1c-0.3-0.3-0.8-0.4-1.2-0.4c-0.5,0-0.9,0.2-1.2,0.5
		c-0.2,0.2-0.3,0.4-0.4,0.7c-0.2-0.2-0.4-0.3-0.6-0.4c-0.4-0.2-0.9-0.2-1.3,0c-0.4,0.2-0.7,0.5-0.9,0.9c-0.2,0.4-0.3,0.8-0.3,1.3
		c0.1,0.6,0.3,1.1,0.7,1.5c0.4,0.4,1,0.7,1.5,0.9c0.9,0.3,2.2,0.7,2.2,0.7s0.8-0.9,1.5-1.6c0.4-0.4,0.8-0.9,1-1.5
		C107.9,156.8,107.9,156.2,107.8,155.7z"/>
	<path class="st0" d="M281,31.3c-0.2-0.4-0.4-0.7-0.8-1c-0.4-0.3-0.8-0.4-1.2-0.4c-0.5,0-0.9,0.2-1.2,0.5c-0.2,0.2-0.3,0.4-0.4,0.7
		c-0.2-0.2-0.4-0.3-0.6-0.4c-0.4-0.2-0.9-0.2-1.4,0c-0.8,0.4-1.2,1.3-1.2,2.2c0.1,0.6,0.3,1.1,0.7,1.5c0.4,0.4,1,0.7,1.5,0.9
		l2.2,0.7c0,0,0.8-0.9,1.5-1.6c0.4-0.4,0.8-0.9,1-1.5C281.2,32.4,281.2,31.8,281,31.3z"/>
	<path class="st0" d="M279.1,165.5c0.1-1.3-0.2-2.6-0.9-3.7c-0.6-1.1-1.6-2-2.7-2.5c-2-0.9-4.4-0.3-5.8,1.4
		c-0.2-0.7-0.6-1.3-1.1-1.8c-1-1-2.3-1.5-3.6-1.5c-1.3,0.1-2.5,0.5-3.5,1.3c-1.1,0.8-1.8,1.8-2.3,3.1c-0.5,1.6-0.5,3.3,0,4.8
		c0.6,1.6,1.7,3,3,4.2c2.1,2,4.9,4.4,4.9,4.4s3.1-1.5,5.8-2.4c1.7-0.5,3.2-1.5,4.4-2.7C278.3,168.7,278.9,167.1,279.1,165.5z"/>
</g>
</svg>
