<?xml version="1.0" encoding="utf-8"?>
<!-- Generator: Adobe Illustrator 23.0.0, SVG Export Plug-In . SVG Version: 6.00 Build 0)  -->
<svg version="1.1" id="Capa_1" xmlns="http://www.w3.org/2000/svg" xmlns:xlink="http://www.w3.org/1999/xlink" x="0px" y="0px"
	 width="512px" height="341.3px" viewBox="0 0 512 341.3" style="enable-background:new 0 0 512 341.3;" xml:space="preserve">
<style type="text/css">
	.st0{clip-path:url(#SVGID_2_);}
	.st1{fill-rule:evenodd;clip-rule:evenodd;fill:#FFFFFF;}
	.st2{fill-rule:evenodd;clip-rule:evenodd;fill:#349344;}
	.st3{fill-rule:evenodd;clip-rule:evenodd;fill:#E57425;}
	.st4{fill-rule:evenodd;clip-rule:evenodd;fill:#214195;}
</style>
<g>
	<g>
		<g>
			<defs>
				<rect id="SVGID_1_" x="29.6" width="455" height="341.3"/>
			</defs>
			<clipPath id="SVGID_2_">
				<use xlink:href="#SVGID_1_"  style="overflow:visible;"/>
			</clipPath>
			<g class="st0">
				<path class="st1" d="M1.2,0h512v341.3H1.2V0z"/>
				<path class="st2" d="M1.2,227.6h512v113.7H1.2V227.6z"/>
				<path class="st3" d="M1.2,0h512v113.7H1.2V0z"/>
				<ellipse class="st4" cx="257.2" cy="170.7" rx="87.4" ry="87.4"/>
				<path class="st1" d="M332.9,151.1c0.4,1.8,0.6,2.8,0.9,4.4c-3.5,1.1-5.2,3.3-4.9,5.6c0.3,2.1,1.8,5,6.2,4.4
					c0.2,1.7,0.2,2.8,0.2,4.5c-12.9,0-26.6-0.8-39.3-1.8c-9.4-0.8-11.7,1.8-16.6,2.3c-5.6,0.4-10.2,0.2-21.8,0.6
					c11.5-2.4,16-3.8,21.3-4.7c5.2-0.8,7.1,1.1,16.6-2.6C307.6,158.6,320.4,154.4,332.9,151.1L332.9,151.1z"/>
				<path class="st1" d="M238.4,95.4c1.8-0.4,2.8-0.6,4.4-0.9c1.1,3.5,3.3,5.2,5.6,4.9c2.1-0.3,5-1.8,4.4-6.1
					c1.7-0.2,2.8-0.2,4.5-0.2c0,12.9-0.9,26.6-2.1,39.3c-0.9,9.4,1.7,11.7,2.1,16.6c0.4,5.6,0,10.2,0.4,21.8
					c-2.3-11.5-3.7-16.1-4.5-21.4c-0.8-5.2,1.1-7.1-2.6-16.7C245.9,120.7,241.7,107.9,238.4,95.4L238.4,95.4z"/>
				<path class="st1" d="M258.2,93c1.8,0,2.8,0.2,4.4,0.3c0.2,3.7,1.8,5.9,4.3,6.1c2.1,0.2,5.3-0.4,5.8-4.9c1.7,0.3,2.6,0.6,4.4,1.1
					c-3.3,12.5-7.6,25.5-12.1,37.5c-3.2,8.8-1.3,11.7-2.1,16.6c-1.1,5.6-2.6,9.9-5.2,21.3c0.8-11.7,0.4-16.4,1.1-21.8
					c0.6-5.2,2.9-6.5,1.8-16.7C259,119.5,258.2,106,258.2,93L258.2,93z"/>
				<path class="st1" d="M278.3,95.8c1.8,0.4,2.6,0.9,4.3,1.3c-0.8,3.5,0.3,6.2,2.4,7c2,0.8,5.3,0.9,6.9-3.2
					c1.5,0.8,2.4,1.2,3.9,2.1c-6.5,11.2-14,22.6-21.4,33.1c-5.4,7.8-4.3,11-6.4,15.3c-2.4,5.2-5,8.8-10.5,19.2
					c3.8-11.1,4.7-15.8,6.7-20.8c1.8-4.9,4.4-5.6,6.1-15.6C272.2,121.6,275.1,108.3,278.3,95.8L278.3,95.8z"/>
				<path class="st1" d="M296.9,103.7c1.5,0.9,2.3,1.5,3.8,2.4c-1.7,3.2-1.3,6.1,0.6,7.4c1.7,1.2,4.9,2.3,7.4-1.2
					c1.2,1.1,2,1.8,3.3,3c-9.1,9.1-19.4,18.2-29.1,26.4c-7.3,6.1-7,9.4-10.2,13.2c-3.7,4.4-7.1,7.3-15.1,15.8
					c6.5-9.7,8.6-14,11.9-18.4c3-4.1,5.8-4.3,9.9-13.6C284.5,127.1,290.6,115,296.9,103.7L296.9,103.7z"/>
				<path class="st1" d="M312.9,116c1.2,1.2,1.8,2,3,3.3c-2.4,2.6-2.9,5.4-1.3,7.3c1.3,1.7,4.1,3.3,7.4,0.8c0.9,1.3,1.5,2.3,2.4,3.8
					c-11.2,6.5-23.3,12.7-35.1,18.1c-8.5,3.9-9.1,7.4-13.2,10.2c-4.7,3.2-8.6,5.2-18.7,11.4c8.8-7.8,12-11.2,16.1-14.7
					c4.1-3.2,6.7-2.6,13.1-10.6C294.9,135.5,303.8,125.3,312.9,116L312.9,116z"/>
				<path class="st1" d="M325.3,132.5c0.9,1.5,1.2,2.4,2,3.9c-3,2-4.3,4.5-3.2,6.7c0.9,2,3,4.4,7.1,2.6c0.6,1.7,0.9,2.6,1.3,4.3
					c-12.5,3.3-25.9,6.1-38.6,8.2c-9.3,1.7-10.8,4.7-15.5,6.4c-5.3,1.8-9.7,2.8-20.9,6.1c10.5-5.2,14.6-7.8,19.4-9.9
					c4.7-2.1,7.1-0.8,15.3-6.9C302.9,146.3,314.1,138.9,325.3,132.5L325.3,132.5z M182.1,190.1c-0.4-1.8-0.6-2.8-0.9-4.4
					c3.5-1.1,5.2-3.3,4.9-5.6c-0.3-2.1-1.8-5-6.1-4.4c-0.2-1.7-0.2-2.8-0.2-4.5c12.9,0,26.6,0.9,39.3,2.1c9.4,0.9,11.7-1.7,16.6-2.1
					c5.6-0.4,10.2,0,21.8-0.4c-11.5,2.3-16.1,3.7-21.4,4.5c-5.2,0.8-7.1-1.1-16.7,2.6C207.7,182.5,194.8,186.8,182.1,190.1
					L182.1,190.1z"/>
				<path class="st1" d="M335.3,170.9c0,1.8-0.2,2.8-0.2,4.4c-3.7,0.2-5.9,2-6.1,4.3c-0.2,2.1,0.4,5.3,4.9,5.8
					c-0.3,1.7-0.4,2.6-1.1,4.4c-12.6-3.3-25.5-7.4-37.7-11.9c-9-3.2-11.7-1.2-16.6-2.1c-5.6-1.1-9.9-2.4-21.3-5
					c11.7,0.6,16.4,0.4,21.8,0.9c5.2,0.6,6.5,2.9,16.7,1.7C309,171.9,322.5,170.9,335.3,170.9L335.3,170.9z"/>
				<path class="st1" d="M332.7,191c-0.4,1.8-0.8,2.6-1.3,4.3c-3.5-0.8-6.2,0.3-7,2.4c-0.8,2-0.9,5.3,3.2,6.9
					c-0.8,1.5-1.2,2.4-2.1,3.9c-11.2-6.4-22.8-13.8-33.2-21.1c-7.8-5.3-11-4.3-15.5-6.2c-5.2-2.4-8.8-4.9-19.2-10.3
					c11.1,3.7,15.8,4.7,20.8,6.5c4.9,1.8,5.6,4.4,15.8,5.9C307,185.1,320.2,187.9,332.7,191L332.7,191z"/>
				<path class="st1" d="M324.9,209.9c-0.9,1.5-1.5,2.3-2.4,3.8c-3.2-1.7-6.1-1.3-7.4,0.6c-1.2,1.7-2.1,4.9,1.3,7.4
					c-1.1,1.2-1.8,2-3,3.3c-9.3-9.1-18.4-19.2-26.6-29c-6.1-7.1-9.5-7-13.4-10c-4.4-3.7-7.3-7-16-15.1c9.9,6.4,14,8.5,18.4,11.7
					c4.3,3,4.3,5.8,13.6,9.9C301.6,197.4,313.7,203.5,324.9,209.9L324.9,209.9z"/>
				<path class="st1" d="M312.6,225.9c-1.2,1.3-2,1.8-3.3,3c-2.6-2.4-5.4-2.9-7.3-1.3c-1.7,1.3-3.3,4.1-0.6,7.6
					c-1.3,0.9-2.3,1.5-3.8,2.4c-6.5-11.2-12.7-23.3-18.2-34.9c-4.1-8.5-7.4-9.1-10.2-13.2c-3.2-4.7-5.2-8.6-11.5-18.5
					c7.9,8.8,11.4,11.9,14.7,16.1c3.2,3.9,2.6,6.7,10.6,13.1C293.2,207.8,303.3,216.8,312.6,225.9z"/>
				<path class="st1" d="M296.4,238.4c-1.5,0.9-2.4,1.2-3.9,2c-2-3-4.5-4.1-6.7-3.2c-2,0.9-4.4,3-2.6,7.1c-1.7,0.6-2.6,0.9-4.3,1.3
					c-3.3-12.5-6.2-25.9-8.5-38.6c-1.7-9.3-4.7-10.8-6.4-15.3c-2-5.3-2.8-9.7-6.2-20.9c5.3,10.5,7.9,14.4,10,19.4
					c2.1,4.7,0.8,7.1,6.9,15.3C282.2,215.9,289.7,227.2,296.4,238.4L296.4,238.4z"/>
				<path class="st1" d="M277.4,246c-1.8,0.4-2.8,0.6-4.4,0.9c-1.1-3.5-3.3-5.2-5.6-4.9c-2.1,0.3-5,1.8-4.4,6.2
					c-1.7,0.2-2.8,0.2-4.5,0.2c0-12.9,0.8-26.6,1.8-39.3c0.8-9.4-1.8-11.7-2.3-16.6c-0.4-5.6-0.2-10.2-0.6-21.8
					c2.4,11.5,3.8,16,4.7,21.3c0.8,5.2-1.1,7.1,2.8,16.6C269.7,220.7,274,233.5,277.4,246L277.4,246z"/>
				<path class="st1" d="M257.2,248.6c-1.8,0-2.8-0.2-4.4-0.3c-0.2-3.7-1.8-5.9-4.3-6.1c-2.1-0.2-5.3,0.4-5.8,4.9
					c-1.7-0.3-2.6-0.6-4.4-1.1c3.3-12.5,7.6-25.5,12-37.5c3.2-8.8,1.2-11.7,2.1-16.6c1.1-5.6,2.6-9.9,5.2-21.3
					c-0.8,11.7-0.4,16.4-1.1,21.8c-0.6,5.2-2.9,6.5-1.8,16.7C256.3,222.2,257,235.6,257.2,248.6L257.2,248.6z"/>
				<path class="st1" d="M236.9,245.8c-1.8-0.4-2.6-0.9-4.3-1.3c0.8-3.5-0.3-6.2-2.4-7c-2-0.8-5.3-0.9-6.9,3.2
					c-1.5-0.8-2.4-1.2-3.9-2.1c6.5-11.2,14-22.6,21.3-33.1c5.4-7.8,4.3-11,6.4-15.5c2.4-5.2,5-8.8,10.5-19.2
					c-3.7,11.1-4.7,15.8-6.7,20.8c-1.8,4.9-4.4,5.6-6.1,15.6C243.1,220,240.3,233.2,236.9,245.8L236.9,245.8z"/>
				<path class="st1" d="M218.3,237.9c-1.5-0.9-2.3-1.5-3.8-2.4c1.7-3.2,1.3-6.1-0.6-7.4c-1.7-1.2-4.9-2.3-7.4,1.2
					c-1.2-1.1-2-1.8-3.3-3c9.1-9.1,19.2-18.4,29.1-26.6c7.3-6.1,7-9.5,10.2-13.2c3.7-4.4,7.1-7.3,15.1-15.8
					c-6.5,9.7-8.6,14-11.9,18.4c-3,4.3-5.8,4.3-9.9,13.6C230.8,214.5,224.6,226.7,218.3,237.9L218.3,237.9z"/>
				<path class="st1" d="M202.2,225.5c-1.2-1.2-1.8-2-3-3.3c2.4-2.6,2.9-5.4,1.3-7.3c-1.3-1.7-4.1-3.3-7.4-0.8
					c-0.9-1.3-1.5-2.3-2.4-3.8c11.2-6.5,23.3-12.6,35.1-18.1c8.5-3.9,9.3-7.3,13.2-10.2c4.7-3.2,8.6-5.2,18.7-11.4
					c-8.8,7.8-12,11.2-16.1,14.7c-4.1,3.2-6.7,2.6-13.1,10.6C220.3,206.2,211.3,216.2,202.2,225.5L202.2,225.5z"/>
				<path class="st1" d="M189.9,209.1c-0.9-1.5-1.2-2.4-2-3.9c3-2,4.3-4.5,3.2-6.7c-0.9-2-3-4.4-7.1-2.6c-0.6-1.7-0.9-2.6-1.3-4.3
					c12.5-3.3,25.9-6.1,38.6-8.2c9.3-1.7,10.8-4.7,15.5-6.4c5.3-1.8,9.7-2.8,20.9-6.1c-10.5,5.2-14.6,7.8-19.4,9.9
					c-4.7,2.1-7.1,0.8-15.3,6.9C212.3,195.1,201,202.6,189.9,209.1L189.9,209.1z"/>
				<path class="st1" d="M219.7,102.8c1.5-0.9,2.4-1.2,3.9-2c1.8,3,4.5,4.3,6.7,3.2c2-0.9,4.4-3,2.8-7c1.7-0.6,2.6-0.8,4.3-1.2
					c3.3,12.6,5.9,25.9,8,38.6c1.5,9.3,4.7,10.8,6.2,15.5c1.8,5.3,2.8,9.7,6.1,20.9c-5.2-10.5-7.8-14.6-9.9-19.4
					c-2-4.7-0.8-7.1-6.7-15.5C233.5,125.4,226.1,114.1,219.7,102.8L219.7,102.8z"/>
				<path class="st1" d="M179.7,169.8c0-1.8,0.2-2.8,0.3-4.4c3.7-0.2,5.9-1.8,6.1-4.1c0.2-2.1-0.4-5.3-4.7-5.9
					c0.3-1.7,0.6-2.6,1.1-4.4c12.5,3.5,25.5,7.8,37.5,12.3c8.8,3.3,11.7,1.3,16.6,2.3c5.6,1.1,9.9,2.6,21.3,5.3
					c-11.7-0.8-16.4-0.6-21.8-1.2c-5.2-0.6-6.5-2.9-16.7-1.8C206.3,169.1,192.8,169.8,179.7,169.8L179.7,169.8z"/>
				<path class="st1" d="M182.6,149.9c0.4-1.8,0.9-2.6,1.3-4.3c3.5,0.8,6.2-0.3,7-2.4c0.8-2,0.9-5.3-3-6.9c0.8-1.5,1.2-2.4,2.1-3.9
					c11.2,6.5,22.6,14.1,33.1,21.4c7.8,5.4,11,4.3,15.3,6.4c5.2,2.4,8.8,5,19.2,10.5c-11.1-3.8-15.8-4.9-20.8-6.7
					c-4.9-1.8-5.6-4.5-15.6-6.1C208.4,156,195.2,153.2,182.6,149.9L182.6,149.9z"/>
				<path class="st1" d="M190.7,131.2c0.9-1.5,1.5-2.3,2.4-3.7c3.2,1.7,6.1,1.3,7.4-0.6c1.2-1.7,2.3-4.9-1.2-7.4
					c1.1-1.2,1.8-2,3-3.3c9.1,9.3,18.2,19.4,26.4,29.3c6.1,7.3,9.4,7,13.2,10.2c4.3,3.7,7.3,7.1,15.8,15.2
					c-9.7-6.5-14-8.6-18.4-11.9c-4.1-3-4.3-5.8-13.5-10C213.9,143.7,201.9,137.6,190.7,131.2L190.7,131.2z"/>
				<path class="st1" d="M203.4,115c1.2-1.2,2.1-1.8,3.3-2.9c2.6,2.4,5.4,2.9,7.3,1.3c1.7-1.3,3.5-4.1,0.8-7.4
					c1.3-0.9,2.3-1.5,3.8-2.3c6.4,11.2,12.5,23.5,17.7,35.2c3.9,8.6,7.3,9.3,10,13.4c3.2,4.7,5,8.8,11.2,18.8
					c-7.8-8.8-11.1-12.1-14.6-16.2c-3.2-4.1-2.6-6.7-10.5-13.2C222.6,133.1,212.5,124.1,203.4,115L203.4,115z"/>
			</g>
		</g>
	</g>
</g>
</svg>
