<?xml version="1.0" encoding="utf-8"?>
<!-- Generator: Adobe Illustrator 23.0.0, SVG Export Plug-In . SVG Version: 6.00 Build 0)  -->
<svg version="1.1" id="Capa_1" xmlns="http://www.w3.org/2000/svg" xmlns:xlink="http://www.w3.org/1999/xlink" x="0px" y="0px"
	 width="512px" height="341.3px" viewBox="0 0 512 341.3" style="enable-background:new 0 0 512 341.3;" xml:space="preserve">
<style type="text/css">
	.st0{fill:#FFDA44;}
	.st1{fill:#D80027;}
	.st2{fill:#F0F0F0;}
	.st3{fill:#0052B4;}
</style>
<rect class="st0" width="512" height="341.3"/>
<g>
	<rect class="st1" width="512" height="113.8"/>
	<rect y="227.6" class="st1" width="512" height="113.8"/>
</g>
<rect x="-1" y="-0.7" class="st2" width="512" height="341.3"/>
<polygon class="st1" points="287,-0.7 223,-0.7 223,138 -1,138 -1,202 223,202 223,340.7 287,340.7 287,202 511,202 511,138 
	287,138 "/>
<g>
	<polygon class="st3" points="392.8,229.4 511,295 511,229.4 	"/>
	<polygon class="st3" points="310.7,229.4 511,340.7 511,309.2 367.3,229.4 	"/>
	<polygon class="st3" points="457.6,340.7 310.7,259 310.7,340.7 	"/>
</g>
<polygon class="st2" points="310.7,229.4 511,340.7 511,309.2 367.3,229.4 "/>
<polygon class="st1" points="310.7,229.4 511,340.7 511,309.2 367.3,229.4 "/>
<g>
	<polygon class="st3" points="89.3,229.4 -1,279.5 -1,229.4 	"/>
	<polygon class="st3" points="199.3,243.5 199.3,340.7 24.5,340.7 	"/>
</g>
<polygon class="st1" points="142.7,229.4 -1,309.2 -1,340.7 -1,340.7 199.3,229.4 "/>
<g>
	<polygon class="st3" points="117.2,110.6 -1,45 -1,110.6 	"/>
	<polygon class="st3" points="199.3,110.6 -1,-0.7 -1,30.8 142.7,110.6 	"/>
	<polygon class="st3" points="52.4,-0.7 199.3,81 199.3,-0.7 	"/>
</g>
<polygon class="st2" points="199.3,110.6 -1,-0.7 -1,30.8 142.7,110.6 "/>
<polygon class="st1" points="199.3,110.6 -1,-0.7 -1,30.8 142.7,110.6 "/>
<g>
	<polygon class="st3" points="420.7,110.6 511,60.4 511,110.6 	"/>
	<polygon class="st3" points="310.7,96.5 310.7,-0.7 485.5,-0.7 	"/>
</g>
<polygon class="st1" points="367.3,110.6 511,30.8 511,-0.7 511,-0.7 310.7,110.6 "/>
</svg>
