<?xml version="1.0" encoding="UTF-8"?>
<!DOCTYPE svg PUBLIC "-//W3C//DTD SVG 1.1//EN" "http://www.w3.org/Graphics/SVG/1.1/DTD/svg11.dtd">
<svg xmlns="http://www.w3.org/2000/svg" version="1.1" width="1024px" height="1024px" style="shape-rendering:geometricPrecision; text-rendering:geometricPrecision; image-rendering:optimizeQuality; fill-rule:evenodd; clip-rule:evenodd" xmlns:xlink="http://www.w3.org/1999/xlink">
<g><path style="opacity:0.998" fill="#2b7bf7" d="M 479.5,-0.5 C 500.833,-0.5 522.167,-0.5 543.5,-0.5C 686.202,11.2689 805.036,70.2689 900,176.5C 973.707,263.956 1014.87,364.956 1023.5,479.5C 1023.5,500.833 1023.5,522.167 1023.5,543.5C 1011.73,686.202 952.731,805.036 846.5,900C 759.044,973.707 658.044,1014.87 543.5,1023.5C 522.167,1023.5 500.833,1023.5 479.5,1023.5C 336.798,1011.73 217.964,952.731 123,846.5C 49.2929,759.044 8.12619,658.044 -0.5,543.5C -0.5,522.167 -0.5,500.833 -0.5,479.5C 11.2689,336.798 70.2689,217.964 176.5,123C 263.956,49.2929 364.956,8.12619 479.5,-0.5 Z"/></g>
<g><path style="opacity:1" fill="#9ec1fb" d="M 491.5,208.5 C 498.325,207.834 505.325,207.5 512.5,207.5C 523.043,207.324 533.377,207.991 543.5,209.5C 526.176,208.771 508.843,208.437 491.5,208.5 Z"/></g>
<g><path style="opacity:1" fill="#fdfdfe" d="M 491.5,208.5 C 508.843,208.437 526.176,208.771 543.5,209.5C 553.032,210.386 562.365,211.719 571.5,213.5C 572.152,214.725 573.319,215.392 575,215.5C 578.143,216.107 581.31,216.441 584.5,216.5C 587.946,217.687 591.613,218.354 595.5,218.5C 596.552,220.256 598.219,220.923 600.5,220.5C 602.216,220.629 603.883,220.962 605.5,221.5C 605.47,222.497 605.97,223.164 607,223.5C 609.835,224.233 612.668,224.9 615.5,225.5C 620.269,226.647 624.935,227.981 629.5,229.5C 629.47,230.497 629.97,231.164 631,231.5C 633.497,232.249 635.997,232.916 638.5,233.5C 683.573,252.562 722.24,280.562 754.5,317.5C 755.757,320.427 757.757,322.761 760.5,324.5C 762.514,326.183 764.18,328.183 765.5,330.5C 765.427,332.027 766.094,333.027 767.5,333.5C 775.651,342.456 782.318,352.456 787.5,363.5C 787.427,365.027 788.094,366.027 789.5,366.5C 794.194,374.56 798.528,382.893 802.5,391.5C 802.759,394.272 803.759,396.605 805.5,398.5C 808.51,406.574 811.51,414.574 814.5,422.5C 814.565,425.428 815.232,428.095 816.5,430.5C 825.252,461.385 828.918,493.051 827.5,525.5C 826.523,528.287 826.19,531.287 826.5,534.5C 825.191,536.571 824.525,539.071 824.5,542C 824.056,547.497 823.722,552.997 823.5,558.5C 823.5,559.5 823.5,560.5 823.5,561.5C 822.087,564.219 821.42,567.219 821.5,570.5C 820.699,572.042 820.366,573.708 820.5,575.5C 818.96,577.838 818.294,580.505 818.5,583.5C 817.549,584.919 817.216,586.585 817.5,588.5C 816.883,588.611 816.383,588.944 816,589.5C 815.505,591.473 815.338,593.473 815.5,595.5C 811.564,606.305 807.23,616.971 802.5,627.5C 800.597,630.53 799.263,633.863 798.5,637.5C 795.326,642.516 792.659,647.849 790.5,653.5C 788.504,656.497 786.504,659.497 784.5,662.5C 778.478,671.515 772.478,680.515 766.5,689.5C 764.413,690.585 763.08,692.251 762.5,694.5C 741.387,719.941 717.053,741.941 689.5,760.5C 685.9,762.11 682.566,764.11 679.5,766.5C 675.268,768.463 671.268,770.797 667.5,773.5C 666.71,774.401 665.71,775.068 664.5,775.5C 661.455,776.279 658.789,777.613 656.5,779.5C 654.847,779.66 653.514,780.326 652.5,781.5C 650.517,781.157 649.183,781.824 648.5,783.5C 648.167,783.5 647.833,783.5 647.5,783.5C 645.152,783.592 643.486,784.592 642.5,786.5C 629.11,791.204 615.777,795.871 602.5,800.5C 597.071,801.842 591.738,803.175 586.5,804.5C 583.447,804.111 580.78,804.777 578.5,806.5C 569.522,807.976 560.522,809.31 551.5,810.5C 528.873,812.18 506.206,812.847 483.5,812.5C 472.528,811.012 461.528,809.346 450.5,807.5C 450.389,806.883 450.056,806.383 449.5,806C 445.187,805.265 440.853,804.765 436.5,804.5C 431.761,803.815 427.094,802.815 422.5,801.5C 419.811,799.883 416.811,798.883 413.5,798.5C 394.066,792.797 375.4,785.131 357.5,775.5C 356.688,774.007 355.355,773.34 353.5,773.5C 352.274,773.52 351.274,773.853 350.5,774.5C 335.215,780.432 320.215,787.099 305.5,794.5C 302.546,795.428 299.546,796.261 296.5,797C 295.944,797.383 295.611,797.883 295.5,798.5C 287.591,801.463 279.925,804.796 272.5,808.5C 265.833,808.5 259.167,808.5 252.5,808.5C 240.374,803.122 234.374,793.622 234.5,780C 234.811,774.328 235.811,768.828 237.5,763.5C 239.4,758.896 240.733,753.896 241.5,748.5C 242.833,742.167 244.167,735.833 245.5,729.5C 246.117,729.389 246.617,729.056 247,728.5C 247.42,724.809 247.92,721.142 248.5,717.5C 249.693,717.03 250.36,716.03 250.5,714.5C 251.095,711.86 251.428,709.193 251.5,706.5C 251.959,703.123 252.626,699.789 253.5,696.5C 254.898,695.223 255.564,693.557 255.5,691.5C 255.66,689.645 254.993,688.312 253.5,687.5C 253.5,686.833 253.167,686.5 252.5,686.5C 252.262,684.596 251.262,683.262 249.5,682.5C 242.388,672.401 235.721,662.068 229.5,651.5C 227.87,647.561 225.87,643.894 223.5,640.5C 218.781,629.079 214.114,617.745 209.5,606.5C 209.706,603.505 209.04,600.838 207.5,598.5C 204.09,589.162 201.424,579.496 199.5,569.5C 199.237,564.876 198.237,560.542 196.5,556.5C 196.167,551.833 195.833,547.167 195.5,542.5C 194.686,537.881 194.353,533.214 194.5,528.5C 194.181,511.09 194.515,493.756 195.5,476.5C 195.5,475.833 195.5,475.167 195.5,474.5C 197.989,463.321 200.323,451.988 202.5,440.5C 202.5,439.5 202.5,438.5 202.5,437.5C 203.649,437.209 204.316,436.376 204.5,435C 205.077,432.863 205.41,430.696 205.5,428.5C 207.406,420.76 209.573,413.094 212,405.5C 215.276,399.142 218.442,392.808 221.5,386.5C 222.497,386.53 223.164,386.03 223.5,385C 224.096,382.775 224.763,380.608 225.5,378.5C 225.229,376.62 225.896,375.287 227.5,374.5C 228.87,372.75 229.87,370.75 230.5,368.5C 230.898,365.576 232.231,363.242 234.5,361.5C 236.047,360.232 237.047,358.565 237.5,356.5C 252.974,330.326 272.64,307.326 296.5,287.5C 300.166,285.496 303.166,282.829 305.5,279.5C 306.945,277.937 308.611,276.604 310.5,275.5C 312.027,275.573 313.027,274.906 313.5,273.5C 315.749,272.92 317.415,271.587 318.5,269.5C 320.267,267.11 322.6,265.443 325.5,264.5C 327.027,264.573 328.027,263.906 328.5,262.5C 333.461,258.68 338.794,255.347 344.5,252.5C 346.967,252.245 348.967,251.245 350.5,249.5C 354.868,246.316 359.535,243.649 364.5,241.5C 367.397,240.871 370.064,239.871 372.5,238.5C 378.736,234.746 385.403,231.746 392.5,229.5C 395.272,229.241 397.605,228.241 399.5,226.5C 429.293,216.275 459.96,210.275 491.5,208.5 Z"/></g>
<g><path style="opacity:1" fill="#c8dcfd" d="M 571.5,213.5 C 576.124,213.763 580.458,214.763 584.5,216.5C 581.31,216.441 578.143,216.107 575,215.5C 573.319,215.392 572.152,214.725 571.5,213.5 Z"/></g>
<g><path style="opacity:1" fill="#b1cdfc" d="M 595.5,218.5 C 597.553,218.402 599.22,219.069 600.5,220.5C 598.219,220.923 596.552,220.256 595.5,218.5 Z"/></g>
<g><path style="opacity:1" fill="#b5cffc" d="M 605.5,221.5 C 608.148,222.162 610.815,222.829 613.5,223.5C 614.713,223.747 615.38,224.414 615.5,225.5C 612.668,224.9 609.835,224.233 607,223.5C 605.97,223.164 605.47,222.497 605.5,221.5 Z"/></g>
<g><path style="opacity:1" fill="#8db7fa" d="M 399.5,226.5 C 397.605,228.241 395.272,229.241 392.5,229.5C 394.395,227.759 396.728,226.759 399.5,226.5 Z"/></g>
<g><path style="opacity:1" fill="#a3c3fb" d="M 629.5,229.5 C 632.925,230.091 635.925,231.425 638.5,233.5C 635.997,232.916 633.497,232.249 631,231.5C 629.97,231.164 629.47,230.497 629.5,229.5 Z"/></g>
<g><path style="opacity:1" fill="#9bbefb" d="M 372.5,238.5 C 370.064,239.871 367.397,240.871 364.5,241.5C 366.617,239.345 369.284,238.345 372.5,238.5 Z"/></g>
<g><path style="opacity:1" fill="#b4cefc" d="M 350.5,249.5 C 348.967,251.245 346.967,252.245 344.5,252.5C 346.033,250.755 348.033,249.755 350.5,249.5 Z"/></g>
<g><path style="opacity:1" fill="#2b7bf7" d="M 556.5,254.5 C 561.223,256.225 566.223,257.225 571.5,257.5C 572.791,257.263 573.791,257.596 574.5,258.5C 577.345,259.344 580.345,260.01 583.5,260.5C 583.833,260.5 584.167,260.5 584.5,260.5C 585.918,262.308 587.918,262.975 590.5,262.5C 594.355,263.046 598.022,264.046 601.5,265.5C 602.287,267.104 603.62,267.771 605.5,267.5C 613.546,270.502 621.546,273.502 629.5,276.5C 631.185,278.818 633.519,279.818 636.5,279.5C 642.911,284.436 649.911,288.436 657.5,291.5C 657.973,292.906 658.973,293.573 660.5,293.5C 683.215,307.869 703.548,325.202 721.5,345.5C 722.08,347.749 723.413,349.415 725.5,350.5C 733.362,358.533 740.029,367.533 745.5,377.5C 745.427,379.027 746.094,380.027 747.5,380.5C 753.385,388.759 758.051,397.759 761.5,407.5C 761.755,409.967 762.755,411.967 764.5,413.5C 768.137,420.813 770.804,428.48 772.5,436.5C 772.796,438.403 773.463,440.07 774.5,441.5C 775.404,442.209 775.737,443.209 775.5,444.5C 775.976,448.417 776.976,452.084 778.5,455.5C 780.469,464.406 781.802,473.406 782.5,482.5C 782.689,503.179 782.356,523.846 781.5,544.5C 780.832,551.179 779.998,557.846 779,564.5C 777.123,571.961 774.956,579.294 772.5,586.5C 770.692,587.918 770.025,589.918 770.5,592.5C 768.919,594.142 768.253,596.142 768.5,598.5C 767.503,598.47 766.836,598.97 766.5,600C 765.751,602.497 765.084,604.997 764.5,607.5C 762.771,610.6 761.438,613.934 760.5,617.5C 758.441,619.266 757.107,621.599 756.5,624.5C 756.5,624.833 756.5,625.167 756.5,625.5C 754.441,627.26 753.108,629.594 752.5,632.5C 749.584,636.663 746.917,640.996 744.5,645.5C 742.518,647.502 740.852,649.835 739.5,652.5C 737.474,655.518 735.474,658.518 733.5,661.5C 731.413,662.585 730.08,664.251 729.5,666.5C 716.5,681.5 702.5,695.5 687.5,708.5C 684.883,709.786 682.55,711.453 680.5,713.5C 674.089,718.586 667.422,723.252 660.5,727.5C 655.104,729.521 650.437,732.521 646.5,736.5C 639.833,739.5 633.167,742.5 626.5,745.5C 623.728,745.759 621.395,746.759 619.5,748.5C 618.833,748.5 618.5,748.833 618.5,749.5C 615.423,749.179 613.09,750.179 611.5,752.5C 599.41,755.9 587.41,759.234 575.5,762.5C 570.867,762.678 566.533,763.678 562.5,765.5C 559.615,765.194 556.948,765.527 554.5,766.5C 550.486,766.334 546.486,766.501 542.5,767C 541.584,767.278 540.918,767.778 540.5,768.5C 520.161,769.754 499.828,769.754 479.5,768.5C 476.663,766.598 473.329,765.931 469.5,766.5C 465.343,765.551 461.01,764.884 456.5,764.5C 453.455,764.492 450.455,764.159 447.5,763.5C 447.389,762.883 447.056,762.383 446.5,762C 443.146,761.545 439.813,761.045 436.5,760.5C 434.365,758.631 431.698,757.964 428.5,758.5C 425.548,756.59 422.214,755.59 418.5,755.5C 416.794,753.464 414.461,752.464 411.5,752.5C 411.167,752.5 410.833,752.5 410.5,752.5C 409.105,750.621 407.105,749.621 404.5,749.5C 403.609,748.89 402.609,748.557 401.5,748.5C 400.105,746.621 398.105,745.621 395.5,745.5C 383.775,740.146 372.108,734.813 360.5,729.5C 360.5,728.5 360.5,727.5 360.5,726.5C 358.784,726.371 357.117,726.038 355.5,725.5C 352.546,726.428 349.546,727.261 346.5,728C 345.944,728.383 345.611,728.883 345.5,729.5C 343.216,729.975 341.216,730.975 339.5,732.5C 333.028,733.908 327.361,736.574 322.5,740.5C 317.952,741.115 313.952,742.782 310.5,745.5C 307.848,745.41 305.515,746.076 303.5,747.5C 301.938,747.733 300.605,748.4 299.5,749.5C 296.728,749.759 294.395,750.759 292.5,752.5C 290.032,754.035 287.365,755.035 284.5,755.5C 285.64,748.759 286.974,742.092 288.5,735.5C 290.236,732.159 291.236,728.492 291.5,724.5C 292.219,722.236 292.552,719.903 292.5,717.5C 294.243,714.505 295.243,711.171 295.5,707.5C 297.223,705.22 297.889,702.553 297.5,699.5C 297.366,697.708 297.699,696.042 298.5,694.5C 299.693,694.03 300.36,693.03 300.5,691.5C 300.997,689.182 301.33,686.848 301.5,684.5C 301.662,682.473 301.495,680.473 301,678.5C 285.208,659.227 271.708,638.56 260.5,616.5C 260.245,614.033 259.245,612.033 257.5,610.5C 255.117,604.196 252.617,597.862 250,591.5C 248.488,583.486 246.321,575.819 243.5,568.5C 243.571,564.303 243.237,560.137 242.5,556C 242.392,554.319 241.725,553.152 240.5,552.5C 240.5,551.833 240.5,551.167 240.5,550.5C 240.002,545.848 239.669,541.181 239.5,536.5C 238.196,518.174 238.196,499.84 239.5,481.5C 240.035,475.479 240.702,469.479 241.5,463.5C 241.198,460.941 241.532,458.607 242.5,456.5C 244.04,454.162 244.706,451.495 244.5,448.5C 245.586,448.38 246.253,447.713 246.5,446.5C 247.276,442.841 247.943,439.175 248.5,435.5C 248.5,435.167 248.5,434.833 248.5,434.5C 250.693,432.478 251.693,429.811 251.5,426.5C 252.309,424.972 252.976,423.306 253.5,421.5C 253.572,418.447 254.572,415.781 256.5,413.5C 258.256,412.448 258.923,410.781 258.5,408.5C 262.251,401.33 265.751,393.996 269,386.5C 271.426,383.592 273.592,380.592 275.5,377.5C 279.639,374.574 282.306,370.574 283.5,365.5C 286.118,360.587 289.452,356.254 293.5,352.5C 297.212,349.789 300.212,346.456 302.5,342.5C 313.675,328.431 326.675,316.431 341.5,306.5C 344.37,305.567 346.704,303.9 348.5,301.5C 349.436,300.026 350.77,299.026 352.5,298.5C 354.027,298.573 355.027,297.906 355.5,296.5C 360.216,293.137 365.216,290.137 370.5,287.5C 372.565,287.047 374.232,286.047 375.5,284.5C 376.167,284.167 376.833,283.833 377.5,283.5C 379.967,283.245 381.967,282.245 383.5,280.5C 393.729,274.982 404.395,270.649 415.5,267.5C 418.272,267.241 420.605,266.241 422.5,264.5C 434.032,261.299 445.699,258.633 457.5,256.5C 464.443,255.278 471.443,254.444 478.5,254C 479.416,253.722 480.082,253.222 480.5,252.5C 505.9,250.855 531.233,251.522 556.5,254.5 Z"/></g>
<g><path style="opacity:1" fill="#76a6f9" d="M 480.5,252.5 C 480.082,253.222 479.416,253.722 478.5,254C 471.443,254.444 464.443,255.278 457.5,256.5C 457.611,255.883 457.944,255.383 458.5,255C 465.829,254.056 473.162,253.223 480.5,252.5 Z"/></g>
<g><path style="opacity:1" fill="#b1ccfc" d="M 556.5,254.5 C 561.894,254.124 566.894,255.124 571.5,257.5C 566.223,257.225 561.223,256.225 556.5,254.5 Z"/></g>
<g><path style="opacity:1" fill="#bdd4fc" d="M 574.5,258.5 C 578.012,257.945 581.012,258.612 583.5,260.5C 580.345,260.01 577.345,259.344 574.5,258.5 Z"/></g>
<g><path style="opacity:1" fill="#70a3f9" d="M 584.5,260.5 C 586.786,260.595 588.786,261.262 590.5,262.5C 587.918,262.975 585.918,262.308 584.5,260.5 Z"/></g>
<g><path style="opacity:1" fill="#97bcfb" d="M 328.5,262.5 C 328.027,263.906 327.027,264.573 325.5,264.5C 325.973,263.094 326.973,262.427 328.5,262.5 Z"/></g>
<g><path style="opacity:1" fill="#8db7fa" d="M 422.5,264.5 C 420.605,266.241 418.272,267.241 415.5,267.5C 417.395,265.759 419.728,264.759 422.5,264.5 Z"/></g>
<g><path style="opacity:1" fill="#8db6fa" d="M 601.5,265.5 C 603.38,265.229 604.713,265.896 605.5,267.5C 603.62,267.771 602.287,267.104 601.5,265.5 Z"/></g>
<g><path style="opacity:1" fill="#b6d0fc" d="M 318.5,269.5 C 317.415,271.587 315.749,272.92 313.5,273.5C 314.585,271.413 316.251,270.08 318.5,269.5 Z"/></g>
<g><path style="opacity:1" fill="#a1c3fb" d="M 313.5,273.5 C 313.027,274.906 312.027,275.573 310.5,275.5C 310.973,274.094 311.973,273.427 313.5,273.5 Z"/></g>
<g><path style="opacity:1" fill="#b1cdfc" d="M 629.5,276.5 C 632.241,276.707 634.574,277.707 636.5,279.5C 633.519,279.818 631.185,278.818 629.5,276.5 Z"/></g>
<g><path style="opacity:1" fill="#adcafc" d="M 305.5,279.5 C 303.166,282.829 300.166,285.496 296.5,287.5C 298.808,284.2 301.808,281.533 305.5,279.5 Z"/></g>
<g><path style="opacity:1" fill="#a6c6fb" d="M 383.5,280.5 C 381.967,282.245 379.967,283.245 377.5,283.5C 379.033,281.755 381.033,280.755 383.5,280.5 Z"/></g>
<g><path style="opacity:1" fill="#98bdfb" d="M 375.5,284.5 C 374.232,286.047 372.565,287.047 370.5,287.5C 371.486,285.592 373.152,284.592 375.5,284.5 Z"/></g>
<g><path style="opacity:1" fill="#92bafb" d="M 657.5,291.5 C 659.027,291.427 660.027,292.094 660.5,293.5C 658.973,293.573 657.973,292.906 657.5,291.5 Z"/></g>
<g><path style="opacity:1" fill="#87b2fa" d="M 355.5,296.5 C 355.027,297.906 354.027,298.573 352.5,298.5C 352.973,297.094 353.973,296.427 355.5,296.5 Z"/></g>
<g><path style="opacity:1" fill="#7dabfa" d="M 348.5,301.5 C 346.704,303.9 344.37,305.567 341.5,306.5C 343.296,304.1 345.63,302.433 348.5,301.5 Z"/></g>
<g><path style="opacity:1" fill="#afcbfc" d="M 754.5,317.5 C 757.243,319.239 759.243,321.573 760.5,324.5C 757.757,322.761 755.757,320.427 754.5,317.5 Z"/></g>
<g><path style="opacity:1" fill="#a1c4fb" d="M 765.5,330.5 C 766.906,330.973 767.573,331.973 767.5,333.5C 766.094,333.027 765.427,332.027 765.5,330.5 Z"/></g>
<g><path style="opacity:1" fill="#70a3f9" d="M 721.5,345.5 C 723.587,346.585 724.92,348.251 725.5,350.5C 723.413,349.415 722.08,347.749 721.5,345.5 Z"/></g>
<g><path style="opacity:1" fill="#78a7f9" d="M 302.5,342.5 C 300.212,346.456 297.212,349.789 293.5,352.5C 295.423,349.397 297.59,346.397 300,343.5C 300.671,342.748 301.504,342.414 302.5,342.5 Z"/></g>
<g><path style="opacity:1" fill="#8cb5fa" d="M 237.5,356.5 C 237.047,358.565 236.047,360.232 234.5,361.5C 234.592,359.152 235.592,357.486 237.5,356.5 Z"/></g>
<g><path style="opacity:1" fill="#9cc0fb" d="M 787.5,363.5 C 788.906,363.973 789.573,364.973 789.5,366.5C 788.094,366.027 787.427,365.027 787.5,363.5 Z"/></g>
<g><path style="opacity:1" fill="#81adfa" d="M 230.5,368.5 C 229.87,370.75 228.87,372.75 227.5,374.5C 227.386,371.784 228.386,369.784 230.5,368.5 Z"/></g>
<g><path style="opacity:1" fill="#689af9" d="M 283.5,365.5 C 282.306,370.574 279.639,374.574 275.5,377.5C 277.687,373.107 280.354,369.107 283.5,365.5 Z"/></g>
<g><path style="opacity:1" fill="#8ab4fa" d="M 745.5,377.5 C 746.906,377.973 747.573,378.973 747.5,380.5C 746.094,380.027 745.427,379.027 745.5,377.5 Z"/></g>
<g><path style="opacity:1" fill="#b7d0fc" d="M 225.5,378.5 C 224.763,380.608 224.096,382.775 223.5,385C 223.164,386.03 222.497,386.53 221.5,386.5C 221.532,383.006 222.865,380.339 225.5,378.5 Z"/></g>
<g><path style="opacity:1" fill="#fefefe" d="M 538.5,398.5 C 538.5,426.5 538.5,454.5 538.5,482.5C 566.5,482.5 594.5,482.5 622.5,482.5C 623.15,482.804 623.817,483.137 624.5,483.5C 625.666,496.154 625.833,508.82 625,521.5C 624.184,522.823 623.017,523.489 621.5,523.5C 593.833,523.5 566.167,523.5 538.5,523.5C 538.5,551.5 538.5,579.5 538.5,607.5C 537.884,609.417 536.55,610.584 534.5,611C 522.838,611.5 511.171,611.667 499.5,611.5C 498.4,610.395 497.733,609.062 497.5,607.5C 497.5,579.833 497.5,552.167 497.5,524.5C 469.5,524.5 441.5,524.5 413.5,524.5C 412.167,523.833 411.167,522.833 410.5,521.5C 410.5,521.167 410.5,520.833 410.5,520.5C 410.333,508.829 410.5,497.162 411,485.5C 411.833,484.667 412.667,483.833 413.5,483C 440.831,482.5 468.165,482.333 495.5,482.5C 497.185,454.142 498.185,425.476 498.5,396.5C 510.993,395.34 523.66,395.173 536.5,396C 537.381,396.708 538.047,397.542 538.5,398.5 Z"/></g>
<g><path style="opacity:1" fill="#85b0fa" d="M 802.5,391.5 C 804.241,393.395 805.241,395.728 805.5,398.5C 803.759,396.605 802.759,394.272 802.5,391.5 Z"/></g>
<g><path style="opacity:1" fill="#cfe1fd" d="M 498.5,396.5 C 498.185,425.476 497.185,454.142 495.5,482.5C 495.5,482.167 495.5,481.833 495.5,481.5C 495.333,453.831 495.5,426.165 496,398.5C 496.708,397.619 497.542,396.953 498.5,396.5 Z"/></g>
<g><path style="opacity:1" fill="#6ea1f9" d="M 258.5,408.5 C 258.923,410.781 258.256,412.448 256.5,413.5C 256.402,411.447 257.069,409.78 258.5,408.5 Z"/></g>
<g><path style="opacity:1" fill="#76a7fa" d="M 761.5,407.5 C 763.245,409.033 764.245,411.033 764.5,413.5C 762.755,411.967 761.755,409.967 761.5,407.5 Z"/></g>
<g><path style="opacity:1" fill="#b9d2fc" d="M 253.5,421.5 C 252.976,423.306 252.309,424.972 251.5,426.5C 251.167,426.5 250.833,426.5 250.5,426.5C 250.259,423.966 251.259,422.3 253.5,421.5 Z"/></g>
<g><path style="opacity:1" fill="#6ca0f9" d="M 814.5,422.5 C 816.04,424.838 816.706,427.505 816.5,430.5C 815.232,428.095 814.565,425.428 814.5,422.5 Z"/></g>
<g><path style="opacity:1" fill="#aac8fc" d="M 205.5,428.5 C 205.41,430.696 205.077,432.863 204.5,435C 204.316,436.376 203.649,437.209 202.5,437.5C 202.933,434.834 203.433,432.168 204,429.5C 204.383,428.944 204.883,428.611 205.5,428.5 Z"/></g>
<g><path style="opacity:1" fill="#6ea1f9" d="M 250.5,426.5 C 250.833,426.5 251.167,426.5 251.5,426.5C 251.693,429.811 250.693,432.478 248.5,434.5C 249.167,431.833 249.833,429.167 250.5,426.5 Z"/></g>
<g><path style="opacity:1" fill="#8bb5fa" d="M 772.5,436.5 C 774.213,437.635 774.88,439.302 774.5,441.5C 773.463,440.07 772.796,438.403 772.5,436.5 Z"/></g>
<g><path style="opacity:1" fill="#70a1f9" d="M 248.5,435.5 C 247.943,439.175 247.276,442.841 246.5,446.5C 246.253,447.713 245.586,448.38 244.5,448.5C 245.637,444.583 246.47,440.583 247,436.5C 247.383,435.944 247.883,435.611 248.5,435.5 Z"/></g>
<g><path style="opacity:1" fill="#c8dbfd" d="M 775.5,444.5 C 776.649,444.791 777.316,445.624 777.5,447C 778.216,449.792 778.549,452.626 778.5,455.5C 776.976,452.084 775.976,448.417 775.5,444.5 Z"/></g>
<g><path style="opacity:1" fill="#95bbfb" d="M 244.5,448.5 C 244.706,451.495 244.04,454.162 242.5,456.5C 242.294,453.505 242.96,450.838 244.5,448.5 Z"/></g>
<g><path style="opacity:1" fill="#afcbfc" d="M 202.5,440.5 C 200.323,451.988 197.989,463.321 195.5,474.5C 196.002,462.534 198.335,451.201 202.5,440.5 Z"/></g>
<g><path style="opacity:1" fill="#90b6fa" d="M 241.5,463.5 C 240.702,469.479 240.035,475.479 239.5,481.5C 238.833,482.5 238.167,483.5 237.5,484.5C 238.056,478.662 238.723,472.829 239.5,467C 239.608,465.319 240.275,464.152 241.5,463.5 Z"/></g>
<g><path style="opacity:1" fill="#4f91f8" d="M 539.5,399.5 C 540.498,426.328 540.831,453.328 540.5,480.5C 567.672,480.169 594.672,480.502 621.5,481.5C 594.167,481.5 566.833,481.5 539.5,481.5C 539.5,454.167 539.5,426.833 539.5,399.5 Z"/></g>
<g><path style="opacity:1" fill="#a1c4fb" d="M 538.5,398.5 C 539.167,398.5 539.5,398.833 539.5,399.5C 539.5,426.833 539.5,454.167 539.5,481.5C 566.833,481.5 594.167,481.5 621.5,481.5C 622.167,481.5 622.5,481.833 622.5,482.5C 594.5,482.5 566.5,482.5 538.5,482.5C 538.5,454.5 538.5,426.5 538.5,398.5 Z"/></g>
<g><path style="opacity:1" fill="#86b0fa" d="M 195.5,476.5 C 194.515,493.756 194.181,511.09 194.5,528.5C 194.167,528.5 193.833,528.5 193.5,528.5C 192.847,510.801 193.514,493.468 195.5,476.5 Z"/></g>
<g><path style="opacity:1" fill="#69a1f9" d="M 409.5,484.5 C 409.172,496.678 409.505,508.678 410.5,520.5C 410.5,520.833 410.5,521.167 410.5,521.5C 409.17,515.705 408.504,509.538 408.5,503C 408.5,496.657 408.834,490.491 409.5,484.5 Z"/></g>
<g><path style="opacity:1" fill="#bcd5fc" d="M 495.5,481.5 C 495.5,481.833 495.5,482.167 495.5,482.5C 468.165,482.333 440.831,482.5 413.5,483C 412.667,483.833 411.833,484.667 411,485.5C 410.5,497.162 410.333,508.829 410.5,520.5C 409.505,508.678 409.172,496.678 409.5,484.5C 410.627,483.878 411.627,483.045 412.5,482C 440.165,481.5 467.831,481.333 495.5,481.5 Z"/></g>
<g><path style="opacity:1" fill="#4f8ef8" d="M 239.5,481.5 C 238.196,499.84 238.196,518.174 239.5,536.5C 239.167,536.5 238.833,536.5 238.5,536.5C 236.767,519.337 236.433,502.003 237.5,484.5C 238.167,483.5 238.833,482.5 239.5,481.5 Z"/></g>
<g><path style="opacity:1" fill="#5e96f8" d="M 782.5,482.5 C 783.965,491.121 784.632,499.954 784.5,509C 784.659,521.079 783.659,532.912 781.5,544.5C 782.356,523.846 782.689,503.179 782.5,482.5 Z"/></g>
<g><path style="opacity:1" fill="#c5dafc" d="M 621.5,523.5 C 594.52,525.491 567.187,526.158 539.5,525.5C 539.5,552.833 539.5,580.167 539.5,607.5C 539.167,607.5 538.833,607.5 538.5,607.5C 538.5,579.5 538.5,551.5 538.5,523.5C 566.167,523.5 593.833,523.5 621.5,523.5 Z"/></g>
<g><path style="opacity:1" fill="#c6dbfd" d="M 413.5,524.5 C 441.5,524.5 469.5,524.5 497.5,524.5C 497.5,552.167 497.5,579.833 497.5,607.5C 495.509,580.52 494.842,553.187 495.5,525.5C 467.995,525.831 440.662,525.498 413.5,524.5 Z"/></g>
<g><path style="opacity:1" fill="#619cf9" d="M 193.5,528.5 C 193.833,528.5 194.167,528.5 194.5,528.5C 194.353,533.214 194.686,537.881 195.5,542.5C 193.564,538.285 192.897,533.619 193.5,528.5 Z"/></g>
<g><path style="opacity:1" fill="#75a7f9" d="M 238.5,536.5 C 238.833,536.5 239.167,536.5 239.5,536.5C 239.669,541.181 240.002,545.848 240.5,550.5C 239.732,549.737 239.232,548.737 239,547.5C 238.501,543.848 238.335,540.182 238.5,536.5 Z"/></g>
<g><path style="opacity:1" fill="#c8dcfd" d="M 826.5,534.5 C 826.605,538.548 826.272,542.548 825.5,546.5C 825.461,550.733 824.795,554.733 823.5,558.5C 823.722,552.997 824.056,547.497 824.5,542C 824.525,539.071 825.191,536.571 826.5,534.5 Z"/></g>
<g><path style="opacity:1" fill="#5a95f8" d="M 827.5,525.5 C 827.666,531.842 827.5,538.175 827,544.5C 826.722,545.416 826.222,546.082 825.5,546.5C 826.272,542.548 826.605,538.548 826.5,534.5C 826.19,531.287 826.523,528.287 827.5,525.5 Z"/></g>
<g><path style="opacity:1" fill="#6399f9" d="M 240.5,552.5 C 241.725,553.152 242.392,554.319 242.5,556C 243.237,560.137 243.571,564.303 243.5,568.5C 242.141,563.358 241.141,558.025 240.5,552.5 Z"/></g>
<g><path style="opacity:1" fill="#6ea2f9" d="M 823.5,561.5 C 823.58,564.781 822.913,567.781 821.5,570.5C 821.42,567.219 822.087,564.219 823.5,561.5 Z"/></g>
<g><path style="opacity:1" fill="#6ca0f9" d="M 196.5,556.5 C 198.237,560.542 199.237,564.876 199.5,569.5C 197.551,565.521 196.551,561.187 196.5,556.5 Z"/></g>
<g><path style="opacity:1" fill="#7cacfa" d="M 820.5,575.5 C 820.706,578.495 820.04,581.162 818.5,583.5C 818.294,580.505 818.96,577.838 820.5,575.5 Z"/></g>
<g><path style="opacity:1" fill="#77a6f9" d="M 772.5,586.5 C 772.125,588.698 771.458,590.698 770.5,592.5C 770.025,589.918 770.692,587.918 772.5,586.5 Z"/></g>
<g><path style="opacity:1" fill="#8db6fa" d="M 817.5,588.5 C 817.073,591.01 816.407,593.343 815.5,595.5C 815.338,593.473 815.505,591.473 816,589.5C 816.383,588.944 816.883,588.611 817.5,588.5 Z"/></g>
<g><path style="opacity:1" fill="#aac8fb" d="M 207.5,598.5 C 209.04,600.838 209.706,603.505 209.5,606.5C 208.232,604.095 207.565,601.428 207.5,598.5 Z"/></g>
<g><path style="opacity:1" fill="#9bbefb" d="M 768.5,598.5 C 767.909,601.925 766.575,604.925 764.5,607.5C 765.084,604.997 765.751,602.497 766.5,600C 766.836,598.97 767.503,598.47 768.5,598.5 Z"/></g>
<g><path style="opacity:1" fill="#659ef8" d="M 538.5,607.5 C 538.833,607.5 539.167,607.5 539.5,607.5C 539.376,609.582 538.376,611.082 536.5,612C 523.993,612.827 511.66,612.66 499.5,611.5C 511.171,611.667 522.838,611.5 534.5,611C 536.55,610.584 537.884,609.417 538.5,607.5 Z"/></g>
<g><path style="opacity:1" fill="#b7d1fc" d="M 257.5,610.5 C 259.245,612.033 260.245,614.033 260.5,616.5C 258.755,614.967 257.755,612.967 257.5,610.5 Z"/></g>
<g><path style="opacity:1" fill="#b4cefc" d="M 760.5,617.5 C 759.893,620.401 758.559,622.734 756.5,624.5C 757.107,621.599 758.441,619.266 760.5,617.5 Z"/></g>
<g><path style="opacity:1" fill="#b6cffc" d="M 756.5,625.5 C 755.893,628.401 754.559,630.734 752.5,632.5C 753.108,629.594 754.441,627.26 756.5,625.5 Z"/></g>
<g><path style="opacity:1" fill="#86affa" d="M 802.5,627.5 C 802.073,630.376 801.406,633.209 800.5,636C 800.164,637.03 799.497,637.53 798.5,637.5C 799.263,633.863 800.597,630.53 802.5,627.5 Z"/></g>
<g><path style="opacity:1" fill="#6097f8" d="M 223.5,640.5 C 225.87,643.894 227.87,647.561 229.5,651.5C 226.22,648.612 224.22,644.945 223.5,640.5 Z"/></g>
<g><path style="opacity:1" fill="#9fc1fb" d="M 744.5,645.5 C 743.994,648.671 742.328,651.004 739.5,652.5C 740.852,649.835 742.518,647.502 744.5,645.5 Z"/></g>
<g><path style="opacity:1" fill="#76a4f9" d="M 790.5,653.5 C 790.057,657.598 788.057,660.598 784.5,662.5C 786.504,659.497 788.504,656.497 790.5,653.5 Z"/></g>
<g><path style="opacity:1" fill="#afcbfc" d="M 733.5,661.5 C 732.92,663.749 731.587,665.415 729.5,666.5C 730.08,664.251 731.413,662.585 733.5,661.5 Z"/></g>
<g><path style="opacity:1" fill="#88b2fa" d="M 249.5,682.5 C 251.262,683.262 252.262,684.596 252.5,686.5C 250.738,685.738 249.738,684.404 249.5,682.5 Z"/></g>
<g><path style="opacity:1" fill="#a4c5fb" d="M 253.5,687.5 C 254.993,688.312 255.66,689.645 255.5,691.5C 255.564,693.557 254.898,695.223 253.5,696.5C 254.076,693.393 254.076,690.393 253.5,687.5 Z"/></g>
<g><path style="opacity:1" fill="#6da0f9" d="M 301.5,684.5 C 301.33,686.848 300.997,689.182 300.5,691.5C 300.36,693.03 299.693,694.03 298.5,694.5C 298.998,691.513 299.498,688.513 300,685.5C 300.383,684.944 300.883,684.611 301.5,684.5 Z"/></g>
<g><path style="opacity:1" fill="#7aa9fa" d="M 766.5,689.5 C 765.92,691.749 764.587,693.415 762.5,694.5C 763.08,692.251 764.413,690.585 766.5,689.5 Z"/></g>
<g><path style="opacity:1" fill="#7baafa" d="M 297.5,699.5 C 297.889,702.553 297.223,705.22 295.5,707.5C 295.294,704.505 295.96,701.838 297.5,699.5 Z"/></g>
<g><path style="opacity:1" fill="#b8d1fc" d="M 251.5,706.5 C 251.428,709.193 251.095,711.86 250.5,714.5C 250.36,716.03 249.693,717.03 248.5,717.5C 248.764,713.508 249.764,709.841 251.5,706.5 Z"/></g>
<g><path style="opacity:1" fill="#b9d2fc" d="M 295.5,707.5 C 295.243,711.171 294.243,714.505 292.5,717.5C 292.67,715.152 293.003,712.818 293.5,710.5C 293.64,708.97 294.307,707.97 295.5,707.5 Z"/></g>
<g><path style="opacity:1" fill="#9cc0fb" d="M 687.5,708.5 C 686.008,711.323 683.674,712.99 680.5,713.5C 682.55,711.453 684.883,709.786 687.5,708.5 Z"/></g>
<g><path style="opacity:1" fill="#b6cffc" d="M 355.5,725.5 C 354.942,726.79 353.942,727.623 352.5,728C 350.134,728.44 347.801,728.94 345.5,729.5C 345.611,728.883 345.944,728.383 346.5,728C 349.546,727.261 352.546,726.428 355.5,725.5 Z"/></g>
<g><path style="opacity:1" fill="#94b9fb" d="M 248.5,717.5 C 247.92,721.142 247.42,724.809 247,728.5C 246.617,729.056 246.117,729.389 245.5,729.5C 245.658,725.159 246.658,721.159 248.5,717.5 Z"/></g>
<g><path style="opacity:1" fill="#a8c7fb" d="M 291.5,724.5 C 291.236,728.492 290.236,732.159 288.5,735.5C 288.572,732.807 288.905,730.14 289.5,727.5C 289.64,725.97 290.307,724.97 291.5,724.5 Z"/></g>
<g><path style="opacity:1" fill="#c4d8fc" d="M 339.5,732.5 C 334.156,735.521 328.489,738.188 322.5,740.5C 327.361,736.574 333.028,733.908 339.5,732.5 Z"/></g>
<g><path style="opacity:1" fill="#bcd3fc" d="M 660.5,727.5 C 659.71,728.794 658.71,729.961 657.5,731C 653.942,733.06 650.275,734.893 646.5,736.5C 650.437,732.521 655.104,729.521 660.5,727.5 Z"/></g>
<g><path style="opacity:1" fill="#b8d0fc" d="M 310.5,745.5 C 308.562,747.163 306.228,747.829 303.5,747.5C 305.515,746.076 307.848,745.41 310.5,745.5 Z"/></g>
<g><path style="opacity:1" fill="#7baafa" d="M 395.5,745.5 C 398.105,745.621 400.105,746.621 401.5,748.5C 398.911,748.539 396.911,747.539 395.5,745.5 Z"/></g>
<g><path style="opacity:1" fill="#93b9fa" d="M 626.5,745.5 C 624.605,747.241 622.272,748.241 619.5,748.5C 621.395,746.759 623.728,745.759 626.5,745.5 Z"/></g>
<g><path style="opacity:1" fill="#96bcfb" d="M 404.5,749.5 C 407.105,749.621 409.105,750.621 410.5,752.5C 408.033,752.245 406.033,751.245 404.5,749.5 Z"/></g>
<g><path style="opacity:1" fill="#b8d1fc" d="M 618.5,749.5 C 616.351,750.736 614.018,751.736 611.5,752.5C 613.09,750.179 615.423,749.179 618.5,749.5 Z"/></g>
<g><path style="opacity:1" fill="#88b3fa" d="M 299.5,749.5 C 297.605,751.241 295.272,752.241 292.5,752.5C 294.395,750.759 296.728,749.759 299.5,749.5 Z"/></g>
<g><path style="opacity:1" fill="#b7d0fc" d="M 411.5,752.5 C 414.461,752.464 416.794,753.464 418.5,755.5C 415.539,755.536 413.206,754.536 411.5,752.5 Z"/></g>
<g><path style="opacity:1" fill="#77a7fa" d="M 428.5,758.5 C 431.698,757.964 434.365,758.631 436.5,760.5C 435.609,759.89 434.609,759.557 433.5,759.5C 431.585,759.784 429.919,759.451 428.5,758.5 Z"/></g>
<g><path style="opacity:1" fill="#a7c5fb" d="M 241.5,748.5 C 240.733,753.896 239.4,758.896 237.5,763.5C 238.035,759.489 238.702,755.489 239.5,751.5C 239.64,749.97 240.307,748.97 241.5,748.5 Z"/></g>
<g><path style="opacity:1" fill="#b4cefc" d="M 433.5,759.5 C 434.609,759.557 435.609,759.89 436.5,760.5C 439.813,761.045 443.146,761.545 446.5,762C 447.056,762.383 447.389,762.883 447.5,763.5C 443.473,763.051 439.473,762.384 435.5,761.5C 434.287,761.253 433.62,760.586 433.5,759.5 Z"/></g>
<g><path style="opacity:1" fill="#ccddfd" d="M 575.5,762.5 C 571.587,764.815 567.254,765.815 562.5,765.5C 566.533,763.678 570.867,762.678 575.5,762.5 Z"/></g>
<g><path style="opacity:1" fill="#77a6f9" d="M 689.5,760.5 C 686.931,763.728 683.598,765.728 679.5,766.5C 682.566,764.11 685.9,762.11 689.5,760.5 Z"/></g>
<g><path style="opacity:1" fill="#9abdfb" d="M 456.5,764.5 C 461.01,764.884 465.343,765.551 469.5,766.5C 469.5,766.833 469.5,767.167 469.5,767.5C 466.492,767.299 463.492,766.966 460.5,766.5C 458.667,766.415 457.334,765.748 456.5,764.5 Z"/></g>
<g><path style="opacity:1" fill="#689df9" d="M 469.5,767.5 C 469.5,767.167 469.5,766.833 469.5,766.5C 473.329,765.931 476.663,766.598 479.5,768.5C 476.14,768.384 472.807,768.051 469.5,767.5 Z"/></g>
<g><path style="opacity:1" fill="#6fa3f9" d="M 554.5,766.5 C 550.02,767.521 545.353,768.187 540.5,768.5C 540.918,767.778 541.584,767.278 542.5,767C 546.486,766.501 550.486,766.334 554.5,766.5 Z"/></g>
<g><path style="opacity:1" fill="#6e9ff9" d="M 679.5,766.5 C 679.092,767.643 678.425,768.643 677.5,769.5C 674.268,771.223 670.935,772.556 667.5,773.5C 671.268,770.797 675.268,768.463 679.5,766.5 Z"/></g>
<g><path style="opacity:1" fill="#b3cefc" d="M 350.5,774.5 C 351.274,773.853 352.274,773.52 353.5,773.5C 355.355,773.34 356.688,774.007 357.5,775.5C 355.236,774.781 352.903,774.448 350.5,774.5 Z"/></g>
<g><path style="opacity:1" fill="#77a6fa" d="M 664.5,775.5 C 662.469,777.755 659.802,779.088 656.5,779.5C 658.789,777.613 661.455,776.279 664.5,775.5 Z"/></g>
<g><path style="opacity:1" fill="#9cc0fb" d="M 652.5,781.5 C 651.329,782.345 649.995,783.011 648.5,783.5C 649.183,781.824 650.517,781.157 652.5,781.5 Z"/></g>
<g><path style="opacity:1" fill="#6da1f9" d="M 647.5,783.5 C 646.341,785.25 644.674,786.25 642.5,786.5C 643.486,784.592 645.152,783.592 647.5,783.5 Z"/></g>
<g><path style="opacity:1" fill="#73a3f9" d="M 305.5,794.5 C 304.942,795.79 303.942,796.623 302.5,797C 300.134,797.44 297.801,797.94 295.5,798.5C 295.611,797.883 295.944,797.383 296.5,797C 299.546,796.261 302.546,795.428 305.5,794.5 Z"/></g>
<g><path style="opacity:1" fill="#7ba9fa" d="M 413.5,798.5 C 416.811,798.883 419.811,799.883 422.5,801.5C 418.841,801.851 415.841,800.851 413.5,798.5 Z"/></g>
<g><path style="opacity:1" fill="#5f97f9" d="M 602.5,800.5 C 597.749,803.688 592.416,805.021 586.5,804.5C 591.738,803.175 597.071,801.842 602.5,800.5 Z"/></g>
<g><path style="opacity:1" fill="#cedffd" d="M 436.5,804.5 C 440.853,804.765 445.187,805.265 449.5,806C 450.056,806.383 450.389,806.883 450.5,807.5C 445.529,807.344 440.862,806.344 436.5,804.5 Z"/></g>
<g><path style="opacity:1" fill="#7eabfa" d="M 586.5,804.5 C 584.095,805.768 581.428,806.435 578.5,806.5C 580.78,804.777 583.447,804.111 586.5,804.5 Z"/></g>
<g><path style="opacity:1" fill="#b6d0fc" d="M 252.5,808.5 C 259.167,808.5 265.833,808.5 272.5,808.5C 265.833,811.167 259.167,811.167 252.5,808.5 Z"/></g>
<g><path style="opacity:1" fill="#94bbfa" d="M 551.5,810.5 C 547.079,811.945 542.412,812.778 537.5,813C 519.329,813.829 501.329,813.662 483.5,812.5C 506.206,812.847 528.873,812.18 551.5,810.5 Z"/></g>
</svg>
