<?xml version="1.0" encoding="UTF-8"?>
<!DOCTYPE svg PUBLIC "-//W3C//DTD SVG 1.1//EN" "http://www.w3.org/Graphics/SVG/1.1/DTD/svg11.dtd">
<svg xmlns="http://www.w3.org/2000/svg" version="1.1" width="1024px" height="1024px" style="shape-rendering:geometricPrecision; text-rendering:geometricPrecision; image-rendering:optimizeQuality; fill-rule:evenodd; clip-rule:evenodd" xmlns:xlink="http://www.w3.org/1999/xlink">
<g><path style="opacity:1" fill="#2b7bf7" d="M -0.5,-0.5 C 340.833,-0.5 682.167,-0.5 1023.5,-0.5C 1023.5,340.833 1023.5,682.167 1023.5,1023.5C 682.167,1023.5 340.833,1023.5 -0.5,1023.5C -0.5,682.167 -0.5,340.833 -0.5,-0.5 Z"/></g>
<g><path style="opacity:1" fill="#9dc1fb" d="M 491.5,208.5 C 498.325,207.834 505.325,207.5 512.5,207.5C 523.043,207.324 533.377,207.991 543.5,209.5C 526.176,208.771 508.843,208.437 491.5,208.5 Z"/></g>
<g><path style="opacity:1" fill="#fdfdfe" d="M 491.5,208.5 C 508.843,208.437 526.176,208.771 543.5,209.5C 553.032,210.386 562.365,211.719 571.5,213.5C 572.152,214.725 573.319,215.392 575,215.5C 578.143,216.107 581.31,216.441 584.5,216.5C 588.167,217.167 591.833,217.833 595.5,218.5C 596.552,220.256 598.219,220.923 600.5,220.5C 602.216,220.629 603.883,220.962 605.5,221.5C 605.47,222.497 605.97,223.164 607,223.5C 609.835,224.233 612.668,224.9 615.5,225.5C 620.269,226.647 624.935,227.981 629.5,229.5C 629.47,230.497 629.97,231.164 631,231.5C 633.497,232.249 635.997,232.916 638.5,233.5C 671.659,247.418 701.659,266.418 728.5,290.5C 729.833,294.5 732.5,297.167 736.5,298.5C 743.231,304.229 749.231,310.562 754.5,317.5C 755.757,320.427 757.757,322.761 760.5,324.5C 762.514,326.183 764.18,328.183 765.5,330.5C 765.427,332.027 766.094,333.027 767.5,333.5C 770.421,337.019 773.087,340.686 775.5,344.5C 775.738,346.404 776.738,347.738 778.5,348.5C 782.052,353.134 785.052,358.134 787.5,363.5C 787.427,365.027 788.094,366.027 789.5,366.5C 792.008,370.182 794.008,374.182 795.5,378.5C 795.427,380.027 796.094,381.027 797.5,381.5C 798.537,382.93 799.204,384.597 799.5,386.5C 799.427,388.027 800.094,389.027 801.5,389.5C 802.338,389.842 802.672,390.508 802.5,391.5C 802.759,394.272 803.759,396.605 805.5,398.5C 806.167,400.5 806.833,402.5 807.5,404.5C 807.259,406.898 807.926,408.898 809.5,410.5C 811.548,414.304 813.215,418.304 814.5,422.5C 814.565,425.428 815.232,428.095 816.5,430.5C 817.371,433.003 818.037,435.67 818.5,438.5C 818.595,440.786 819.262,442.786 820.5,444.5C 826.137,471.172 828.47,498.172 827.5,525.5C 826.523,528.287 826.19,531.287 826.5,534.5C 824.577,538.029 823.911,542.029 824.5,546.5C 823.728,550.452 823.395,554.452 823.5,558.5C 823.5,559.5 823.5,560.5 823.5,561.5C 822.087,564.219 821.42,567.219 821.5,570.5C 820.699,572.042 820.366,573.708 820.5,575.5C 818.96,577.838 818.294,580.505 818.5,583.5C 817.549,584.919 817.216,586.585 817.5,588.5C 816.883,588.611 816.383,588.944 816,589.5C 815.505,591.473 815.338,593.473 815.5,595.5C 813.977,597.896 812.977,600.562 812.5,603.5C 810.903,605.848 809.903,608.514 809.5,611.5C 807.68,617.131 805.347,622.465 802.5,627.5C 800.597,630.53 799.263,633.863 798.5,637.5C 797.596,638.209 797.263,639.209 797.5,640.5C 796.11,641.899 795.11,643.566 794.5,645.5C 792.229,647.612 790.896,650.279 790.5,653.5C 788.504,656.497 786.504,659.497 784.5,662.5C 781.523,666.632 778.857,670.966 776.5,675.5C 774.298,677.411 772.631,679.745 771.5,682.5C 769.588,684.657 767.921,686.991 766.5,689.5C 764.413,690.585 763.08,692.251 762.5,694.5C 760.167,697.167 757.833,699.833 755.5,702.5C 754.026,703.436 753.026,704.77 752.5,706.5C 749.119,708.88 746.453,711.88 744.5,715.5C 742.973,715.427 741.973,716.094 741.5,717.5C 741.5,718.167 741.167,718.5 740.5,718.5C 739.094,718.973 738.427,719.973 738.5,721.5C 737.833,721.833 737.167,722.167 736.5,722.5C 735.094,722.973 734.427,723.973 734.5,725.5C 732.251,726.08 730.585,727.413 729.5,729.5C 726.808,731.862 724.141,734.196 721.5,736.5C 718.94,738.273 716.607,740.273 714.5,742.5C 712.405,743.412 710.405,744.579 708.5,746C 707.748,746.671 707.414,747.504 707.5,748.5C 701.148,752.007 695.148,756.007 689.5,760.5C 685.9,762.11 682.566,764.11 679.5,766.5C 675.268,768.463 671.268,770.797 667.5,773.5C 665.821,773.285 664.821,773.952 664.5,775.5C 661.455,776.279 658.789,777.613 656.5,779.5C 654.847,779.66 653.514,780.326 652.5,781.5C 650.517,781.157 649.183,781.824 648.5,783.5C 648.167,783.5 647.833,783.5 647.5,783.5C 645.152,783.592 643.486,784.592 642.5,786.5C 638.608,787.384 634.941,788.717 631.5,790.5C 628.341,791.331 625.341,792.331 622.5,793.5C 622.5,794.167 622.167,794.5 621.5,794.5C 617.603,795.055 613.937,796.055 610.5,797.5C 602.527,799.957 594.527,802.29 586.5,804.5C 583.447,804.111 580.78,804.777 578.5,806.5C 573.99,806.884 569.657,807.551 565.5,808.5C 561.02,809.521 556.353,810.187 551.5,810.5C 528.873,812.18 506.206,812.847 483.5,812.5C 472.528,811.012 461.528,809.346 450.5,807.5C 450.389,806.883 450.056,806.383 449.5,806C 445.187,805.265 440.853,804.765 436.5,804.5C 431.761,803.815 427.094,802.815 422.5,801.5C 419.811,799.883 416.811,798.883 413.5,798.5C 411.708,798.634 410.042,798.301 408.5,797.5C 408.389,796.883 408.056,796.383 407.5,796C 403.703,795.591 400.036,794.758 396.5,793.5C 389.897,790.872 383.23,788.205 376.5,785.5C 376.027,784.094 375.027,783.427 373.5,783.5C 368.074,781.024 362.741,778.358 357.5,775.5C 356.688,774.007 355.355,773.34 353.5,773.5C 352.274,773.52 351.274,773.853 350.5,774.5C 335.215,780.432 320.215,787.099 305.5,794.5C 302.546,795.428 299.546,796.261 296.5,797C 295.944,797.383 295.611,797.883 295.5,798.5C 293.847,798.66 292.514,799.326 291.5,800.5C 288.848,800.41 286.515,801.076 284.5,802.5C 283.1,803.1 282.1,804.1 281.5,805.5C 278.254,806.054 275.254,807.054 272.5,808.5C 265.833,808.5 259.167,808.5 252.5,808.5C 246.038,805.43 241.038,800.763 237.5,794.5C 237.125,792.302 236.458,790.302 235.5,788.5C 234.127,780.13 234.794,771.797 237.5,763.5C 239.256,762.448 239.923,760.781 239.5,758.5C 240.167,755.167 240.833,751.833 241.5,748.5C 241.575,745.794 241.908,743.127 242.5,740.5C 244.277,737.495 245.277,734.162 245.5,730.5C 245.5,730.167 245.5,729.833 245.5,729.5C 247.213,728.365 247.88,726.698 247.5,724.5C 247.674,722.139 248.007,719.806 248.5,717.5C 249.693,717.03 250.36,716.03 250.5,714.5C 251.095,711.86 251.428,709.193 251.5,706.5C 251.959,703.123 252.626,699.789 253.5,696.5C 254.898,695.223 255.564,693.557 255.5,691.5C 255.66,689.645 254.993,688.312 253.5,687.5C 253.5,686.833 253.167,686.5 252.5,686.5C 252.262,684.596 251.262,683.262 249.5,682.5C 248.189,679.865 246.522,677.531 244.5,675.5C 244.262,673.596 243.262,672.262 241.5,671.5C 238.115,664.426 234.115,657.759 229.5,651.5C 227.87,647.561 225.87,643.894 223.5,640.5C 218.781,629.079 214.114,617.745 209.5,606.5C 209.706,603.505 209.04,600.838 207.5,598.5C 204.688,591.159 202.688,583.492 201.5,575.5C 201.549,572.626 201.216,569.792 200.5,567C 200.316,565.624 199.649,564.791 198.5,564.5C 198.425,561.794 198.092,559.127 197.5,556.5C 197.498,550.982 197.165,545.482 196.5,540C 196.453,537.705 195.787,535.871 194.5,534.5C 194.5,532.5 194.5,530.5 194.5,528.5C 194.5,513.5 194.5,498.5 194.5,483.5C 196.388,481.012 197.055,478.012 196.5,474.5C 197.385,468.531 198.052,462.531 198.5,456.5C 199.693,456.03 200.36,455.03 200.5,453.5C 201.095,450.86 201.428,448.193 201.5,445.5C 201.629,443.784 201.962,442.117 202.5,440.5C 202.5,439.5 202.5,438.5 202.5,437.5C 203.649,437.209 204.316,436.376 204.5,435C 205.077,432.863 205.41,430.696 205.5,428.5C 205.629,426.784 205.962,425.117 206.5,423.5C 208.357,421.718 209.357,419.385 209.5,416.5C 209.878,414.079 210.545,411.746 211.5,409.5C 212.931,408.22 213.598,406.553 213.5,404.5C 215.656,398.196 218.322,392.196 221.5,386.5C 222.497,386.53 223.164,386.03 223.5,385C 224.096,382.775 224.763,380.608 225.5,378.5C 225.229,376.62 225.896,375.287 227.5,374.5C 228.674,373.486 229.34,372.153 229.5,370.5C 231.559,368.734 232.893,366.401 233.5,363.5C 233.833,362.833 234.167,362.167 234.5,361.5C 236.047,360.232 237.047,358.565 237.5,356.5C 239.522,353.485 241.522,350.485 243.5,347.5C 244.401,346.71 245.068,345.71 245.5,344.5C 246.451,341.57 248.117,339.237 250.5,337.5C 253.471,335.557 255.471,332.891 256.5,329.5C 258.01,326.745 260.01,324.412 262.5,322.5C 264.262,321.738 265.262,320.404 265.5,318.5C 267.262,317.738 268.262,316.404 268.5,314.5C 269.5,312.833 270.833,311.5 272.5,310.5C 277.5,307.5 281.5,303.5 284.5,298.5C 284.833,297.5 285.5,296.833 286.5,296.5C 289.167,295.833 290.833,294.167 291.5,291.5C 292.579,289.457 294.246,288.124 296.5,287.5C 300.166,285.496 303.166,282.829 305.5,279.5C 306.945,277.937 308.611,276.604 310.5,275.5C 312.027,275.573 313.027,274.906 313.5,273.5C 315.749,272.92 317.415,271.587 318.5,269.5C 318.842,268.662 319.508,268.328 320.5,268.5C 323.127,268.21 324.794,266.876 325.5,264.5C 327.027,264.573 328.027,263.906 328.5,262.5C 329.514,261.326 330.847,260.66 332.5,260.5C 335.127,260.21 336.794,258.876 337.5,256.5C 339.67,254.914 342.004,253.58 344.5,252.5C 346.967,252.245 348.967,251.245 350.5,249.5C 353.043,247.06 356.043,245.394 359.5,244.5C 361.848,244.408 363.514,243.408 364.5,241.5C 367.397,240.871 370.064,239.871 372.5,238.5C 378.736,234.746 385.403,231.746 392.5,229.5C 395.272,229.241 397.605,228.241 399.5,226.5C 405.863,224.331 412.196,222.331 418.5,220.5C 422.489,220.884 426.155,220.217 429.5,218.5C 431.167,217.833 432.833,217.167 434.5,216.5C 441.932,216.764 448.932,215.431 455.5,212.5C 459.817,212.917 463.817,212.25 467.5,210.5C 470.059,210.802 472.393,210.468 474.5,209.5C 479.975,208.511 485.642,208.178 491.5,208.5 Z"/></g>
<g><path style="opacity:1" fill="#5693f8" d="M 474.5,209.5 C 472.393,210.468 470.059,210.802 467.5,210.5C 464.763,210.401 462.096,210.735 459.5,211.5C 464.056,209.558 469.056,208.892 474.5,209.5 Z"/></g>
<g><path style="opacity:1" fill="#bfd7fc" d="M 467.5,210.5 C 463.817,212.25 459.817,212.917 455.5,212.5C 456.568,211.566 457.901,211.232 459.5,211.5C 462.096,210.735 464.763,210.401 467.5,210.5 Z"/></g>
<g><path style="opacity:1" fill="#c4d7fc" d="M 455.5,212.5 C 448.932,215.431 441.932,216.764 434.5,216.5C 441.31,214.731 448.31,213.397 455.5,212.5 Z"/></g>
<g><path style="opacity:1" fill="#c8dcfd" d="M 571.5,213.5 C 576.124,213.763 580.458,214.763 584.5,216.5C 581.31,216.441 578.143,216.107 575,215.5C 573.319,215.392 572.152,214.725 571.5,213.5 Z"/></g>
<g><path style="opacity:1" fill="#c5d9fc" d="M 429.5,218.5 C 426.155,220.217 422.489,220.884 418.5,220.5C 421.909,219.097 425.575,218.43 429.5,218.5 Z"/></g>
<g><path style="opacity:1" fill="#b1cdfc" d="M 595.5,218.5 C 597.553,218.402 599.22,219.069 600.5,220.5C 598.219,220.923 596.552,220.256 595.5,218.5 Z"/></g>
<g><path style="opacity:1" fill="#b5cffc" d="M 605.5,221.5 C 608.148,222.162 610.815,222.829 613.5,223.5C 614.713,223.747 615.38,224.414 615.5,225.5C 612.668,224.9 609.835,224.233 607,223.5C 605.97,223.164 605.47,222.497 605.5,221.5 Z"/></g>
<g><path style="opacity:1" fill="#8db7fa" d="M 399.5,226.5 C 397.605,228.241 395.272,229.241 392.5,229.5C 394.395,227.759 396.728,226.759 399.5,226.5 Z"/></g>
<g><path style="opacity:1" fill="#a3c3fb" d="M 629.5,229.5 C 632.925,230.091 635.925,231.425 638.5,233.5C 635.997,232.916 633.497,232.249 631,231.5C 629.97,231.164 629.47,230.497 629.5,229.5 Z"/></g>
<g><path style="opacity:1" fill="#9bbefb" d="M 372.5,238.5 C 370.064,239.871 367.397,240.871 364.5,241.5C 366.617,239.345 369.284,238.345 372.5,238.5 Z"/></g>
<g><path style="opacity:1" fill="#bdd5fc" d="M 364.5,241.5 C 363.514,243.408 361.848,244.408 359.5,244.5C 360.659,242.75 362.326,241.75 364.5,241.5 Z"/></g>
<g><path style="opacity:1" fill="#b4cefc" d="M 350.5,249.5 C 348.967,251.245 346.967,252.245 344.5,252.5C 346.033,250.755 348.033,249.755 350.5,249.5 Z"/></g>
<g><path style="opacity:1" fill="#2b7bf7" d="M 556.5,254.5 C 561.223,256.225 566.223,257.225 571.5,257.5C 572.791,257.263 573.791,257.596 574.5,258.5C 577.345,259.344 580.345,260.01 583.5,260.5C 583.833,260.5 584.167,260.5 584.5,260.5C 585.918,262.308 587.918,262.975 590.5,262.5C 594.355,263.046 598.022,264.046 601.5,265.5C 602.287,267.104 603.62,267.771 605.5,267.5C 610.524,268.952 615.524,270.619 620.5,272.5C 621.183,274.176 622.517,274.843 624.5,274.5C 625.78,275.931 627.447,276.598 629.5,276.5C 631.185,278.818 633.519,279.818 636.5,279.5C 642.911,284.436 649.911,288.436 657.5,291.5C 657.973,292.906 658.973,293.573 660.5,293.5C 683.215,307.869 703.548,325.202 721.5,345.5C 722.08,347.749 723.413,349.415 725.5,350.5C 733.362,358.533 740.029,367.533 745.5,377.5C 745.427,379.027 746.094,380.027 747.5,380.5C 748.345,381.671 749.011,383.005 749.5,384.5C 749.427,386.027 750.094,387.027 751.5,387.5C 755.391,393.806 758.724,400.473 761.5,407.5C 761.755,409.967 762.755,411.967 764.5,413.5C 768.137,420.813 770.804,428.48 772.5,436.5C 772.796,438.403 773.463,440.07 774.5,441.5C 775.404,442.209 775.737,443.209 775.5,444.5C 776.273,448.14 776.94,451.807 777.5,455.5C 777.572,458.193 777.905,460.86 778.5,463.5C 778.64,465.03 779.307,466.03 780.5,466.5C 782.031,471.692 782.697,477.026 782.5,482.5C 782.689,503.179 782.356,523.846 781.5,544.5C 780.744,552.219 779.744,559.886 778.5,567.5C 776.744,568.552 776.077,570.219 776.5,572.5C 775.351,572.791 774.684,573.624 774.5,575C 773.923,577.137 773.59,579.304 773.5,581.5C 772.699,583.042 772.366,584.708 772.5,586.5C 770.692,587.918 770.025,589.918 770.5,592.5C 768.919,594.142 768.253,596.142 768.5,598.5C 767.503,598.47 766.836,598.97 766.5,600C 765.751,602.497 765.084,604.997 764.5,607.5C 762.771,610.6 761.438,613.934 760.5,617.5C 758.441,619.266 757.107,621.599 756.5,624.5C 756.5,624.833 756.5,625.167 756.5,625.5C 754.441,627.26 753.108,629.594 752.5,632.5C 750.808,634.205 749.475,636.205 748.5,638.5C 746.592,639.486 745.592,641.152 745.5,643.5C 745.167,644.167 744.833,644.833 744.5,645.5C 742.518,647.502 740.852,649.835 739.5,652.5C 737.474,655.518 735.474,658.518 733.5,661.5C 731.413,662.585 730.08,664.251 729.5,666.5C 717.198,680.469 704.198,693.802 690.5,706.5C 688.973,706.427 687.973,707.094 687.5,708.5C 684.883,709.786 682.55,711.453 680.5,713.5C 679.833,714.167 679.167,714.833 678.5,715.5C 676.973,715.427 675.973,716.094 675.5,717.5C 670.458,720.837 665.458,724.17 660.5,727.5C 655.104,729.521 650.437,732.521 646.5,736.5C 645.391,736.557 644.391,736.89 643.5,737.5C 641.152,737.592 639.486,738.592 638.5,740.5C 637.391,740.557 636.391,740.89 635.5,741.5C 633.152,741.592 631.486,742.592 630.5,744.5C 629.167,744.833 627.833,745.167 626.5,745.5C 623.728,745.759 621.395,746.759 619.5,748.5C 618.833,748.5 618.5,748.833 618.5,749.5C 615.423,749.179 613.09,750.179 611.5,752.5C 599.41,755.9 587.41,759.234 575.5,762.5C 572.447,762.111 569.78,762.777 567.5,764.5C 562.972,764.77 558.639,765.437 554.5,766.5C 550.486,766.334 546.486,766.501 542.5,767C 541.584,767.278 540.918,767.778 540.5,768.5C 520.161,769.754 499.828,769.754 479.5,768.5C 476.663,766.598 473.329,765.931 469.5,766.5C 465.343,765.551 461.01,764.884 456.5,764.5C 453.455,764.492 450.455,764.159 447.5,763.5C 447.389,762.883 447.056,762.383 446.5,762C 443.146,761.545 439.813,761.045 436.5,760.5C 434.365,758.631 431.698,757.964 428.5,758.5C 425.548,756.59 422.214,755.59 418.5,755.5C 416.794,753.464 414.461,752.464 411.5,752.5C 411.167,752.5 410.833,752.5 410.5,752.5C 409.105,750.621 407.105,749.621 404.5,749.5C 403.609,748.89 402.609,748.557 401.5,748.5C 400.105,746.621 398.105,745.621 395.5,745.5C 393.254,744.545 390.921,743.878 388.5,743.5C 387.514,741.592 385.848,740.592 383.5,740.5C 375.822,736.481 368.156,732.481 360.5,728.5C 360.179,726.952 359.179,726.285 357.5,726.5C 357.158,725.662 356.492,725.328 355.5,725.5C 352.546,726.428 349.546,727.261 346.5,728C 345.944,728.383 345.611,728.883 345.5,729.5C 343.326,729.75 341.659,730.75 340.5,732.5C 340.167,732.5 339.833,732.5 339.5,732.5C 333.028,733.908 327.361,736.574 322.5,740.5C 317.952,741.115 313.952,742.782 310.5,745.5C 307.848,745.41 305.515,746.076 303.5,747.5C 301.938,747.733 300.605,748.4 299.5,749.5C 296.728,749.759 294.395,750.759 292.5,752.5C 290.032,754.035 287.365,755.035 284.5,755.5C 284.788,752.061 285.454,748.728 286.5,745.5C 287.649,745.209 288.316,744.376 288.5,743C 289.159,740.538 289.493,738.038 289.5,735.5C 290.273,731.86 290.94,728.193 291.5,724.5C 292.219,722.236 292.552,719.903 292.5,717.5C 294.243,714.505 295.243,711.171 295.5,707.5C 297.223,705.22 297.889,702.553 297.5,699.5C 297.366,697.708 297.699,696.042 298.5,694.5C 299.693,694.03 300.36,693.03 300.5,691.5C 300.997,689.182 301.33,686.848 301.5,684.5C 301.662,682.473 301.495,680.473 301,678.5C 288.925,664.005 278.091,648.672 268.5,632.5C 268.275,629.454 266.942,627.121 264.5,625.5C 263.974,622.116 262.64,619.116 260.5,616.5C 260.245,614.033 259.245,612.033 257.5,610.5C 257.34,608.847 256.674,607.514 255.5,606.5C 255.88,604.302 255.213,602.635 253.5,601.5C 249.987,590.424 246.654,579.424 243.5,568.5C 243.571,564.303 243.237,560.137 242.5,556C 242.392,554.319 241.725,553.152 240.5,552.5C 240.5,551.833 240.5,551.167 240.5,550.5C 240.002,545.848 239.669,541.181 239.5,536.5C 238.196,518.174 238.196,499.84 239.5,481.5C 240.035,475.479 240.702,469.479 241.5,463.5C 241.198,460.941 241.532,458.607 242.5,456.5C 244.04,454.162 244.706,451.495 244.5,448.5C 245.586,448.38 246.253,447.713 246.5,446.5C 247.276,442.841 247.943,439.175 248.5,435.5C 248.5,435.167 248.5,434.833 248.5,434.5C 250.693,432.478 251.693,429.811 251.5,426.5C 252.309,424.972 252.976,423.306 253.5,421.5C 253.572,418.447 254.572,415.781 256.5,413.5C 258.256,412.448 258.923,410.781 258.5,408.5C 259.401,407.71 260.068,406.71 260.5,405.5C 263.328,397.693 266.995,390.36 271.5,383.5C 273.876,382.794 275.21,381.127 275.5,378.5C 275.5,378.167 275.5,377.833 275.5,377.5C 279.639,374.574 282.306,370.574 283.5,365.5C 286.118,360.587 289.452,356.254 293.5,352.5C 297.212,349.789 300.212,346.456 302.5,342.5C 308.471,334.862 315.137,327.862 322.5,321.5C 324.027,321.573 325.027,320.906 325.5,319.5C 325.833,318.5 326.5,317.833 327.5,317.5C 329.404,317.262 330.738,316.262 331.5,314.5C 334.52,311.484 337.854,308.817 341.5,306.5C 344.37,305.567 346.704,303.9 348.5,301.5C 349.436,300.026 350.77,299.026 352.5,298.5C 354.027,298.573 355.027,297.906 355.5,296.5C 355.842,295.662 356.508,295.328 357.5,295.5C 358.71,295.068 359.71,294.401 360.5,293.5C 361.29,292.599 362.29,291.932 363.5,291.5C 365.153,291.34 366.486,290.674 367.5,289.5C 368.29,288.599 369.29,287.932 370.5,287.5C 372.565,287.047 374.232,286.047 375.5,284.5C 376.167,284.167 376.833,283.833 377.5,283.5C 379.967,283.245 381.967,282.245 383.5,280.5C 384.605,279.4 385.938,278.733 387.5,278.5C 391.236,278.459 394.236,277.126 396.5,274.5C 397.93,273.463 399.597,272.796 401.5,272.5C 403.403,272.204 405.07,271.537 406.5,270.5C 408.898,270.741 410.898,270.074 412.5,268.5C 413.391,267.89 414.391,267.557 415.5,267.5C 418.272,267.241 420.605,266.241 422.5,264.5C 434.032,261.299 445.699,258.633 457.5,256.5C 464.443,255.278 471.443,254.444 478.5,254C 479.416,253.722 480.082,253.222 480.5,252.5C 505.9,250.855 531.233,251.522 556.5,254.5 Z"/></g>
<g><path style="opacity:1" fill="#76a6f9" d="M 480.5,252.5 C 480.082,253.222 479.416,253.722 478.5,254C 471.443,254.444 464.443,255.278 457.5,256.5C 457.611,255.883 457.944,255.383 458.5,255C 465.829,254.056 473.162,253.223 480.5,252.5 Z"/></g>
<g><path style="opacity:1" fill="#b1ccfc" d="M 556.5,254.5 C 561.894,254.124 566.894,255.124 571.5,257.5C 566.223,257.225 561.223,256.225 556.5,254.5 Z"/></g>
<g><path style="opacity:1" fill="#c4d8fc" d="M 337.5,256.5 C 336.794,258.876 335.127,260.21 332.5,260.5C 333.507,258.478 335.174,257.145 337.5,256.5 Z"/></g>
<g><path style="opacity:1" fill="#bdd4fc" d="M 574.5,258.5 C 578.012,257.945 581.012,258.612 583.5,260.5C 580.345,260.01 577.345,259.344 574.5,258.5 Z"/></g>
<g><path style="opacity:1" fill="#70a3f9" d="M 584.5,260.5 C 586.786,260.595 588.786,261.262 590.5,262.5C 587.918,262.975 585.918,262.308 584.5,260.5 Z"/></g>
<g><path style="opacity:1" fill="#97bcfb" d="M 328.5,262.5 C 328.027,263.906 327.027,264.573 325.5,264.5C 325.973,263.094 326.973,262.427 328.5,262.5 Z"/></g>
<g><path style="opacity:1" fill="#c4d8fc" d="M 325.5,264.5 C 324.794,266.876 323.127,268.21 320.5,268.5C 321.507,266.478 323.174,265.145 325.5,264.5 Z"/></g>
<g><path style="opacity:1" fill="#8db7fa" d="M 422.5,264.5 C 420.605,266.241 418.272,267.241 415.5,267.5C 417.395,265.759 419.728,264.759 422.5,264.5 Z"/></g>
<g><path style="opacity:1" fill="#8db6fa" d="M 601.5,265.5 C 603.38,265.229 604.713,265.896 605.5,267.5C 603.62,267.771 602.287,267.104 601.5,265.5 Z"/></g>
<g><path style="opacity:1" fill="#679cf9" d="M 412.5,268.5 C 410.898,270.074 408.898,270.741 406.5,270.5C 408.102,268.926 410.102,268.259 412.5,268.5 Z"/></g>
<g><path style="opacity:1" fill="#abc8fc" d="M 406.5,270.5 C 405.07,271.537 403.403,272.204 401.5,272.5C 402.635,270.787 404.302,270.12 406.5,270.5 Z"/></g>
<g><path style="opacity:1" fill="#b6d0fc" d="M 318.5,269.5 C 317.415,271.587 315.749,272.92 313.5,273.5C 314.585,271.413 316.251,270.08 318.5,269.5 Z"/></g>
<g><path style="opacity:1" fill="#80adfa" d="M 620.5,272.5 C 622.153,272.66 623.486,273.326 624.5,274.5C 622.517,274.843 621.183,274.176 620.5,272.5 Z"/></g>
<g><path style="opacity:1" fill="#a1c3fb" d="M 313.5,273.5 C 313.027,274.906 312.027,275.573 310.5,275.5C 310.973,274.094 311.973,273.427 313.5,273.5 Z"/></g>
<g><path style="opacity:1" fill="#c4d9fd" d="M 624.5,274.5 C 626.781,274.077 628.448,274.744 629.5,276.5C 627.447,276.598 625.78,275.931 624.5,274.5 Z"/></g>
<g><path style="opacity:1" fill="#689cf9" d="M 396.5,274.5 C 394.236,277.126 391.236,278.459 387.5,278.5C 390.256,276.796 393.256,275.463 396.5,274.5 Z"/></g>
<g><path style="opacity:1" fill="#b1cdfc" d="M 629.5,276.5 C 632.241,276.707 634.574,277.707 636.5,279.5C 633.519,279.818 631.185,278.818 629.5,276.5 Z"/></g>
<g><path style="opacity:1" fill="#adcafc" d="M 305.5,279.5 C 303.166,282.829 300.166,285.496 296.5,287.5C 298.808,284.2 301.808,281.533 305.5,279.5 Z"/></g>
<g><path style="opacity:1" fill="#a6c6fb" d="M 383.5,280.5 C 381.967,282.245 379.967,283.245 377.5,283.5C 379.033,281.755 381.033,280.755 383.5,280.5 Z"/></g>
<g><path style="opacity:1" fill="#98bdfb" d="M 375.5,284.5 C 374.232,286.047 372.565,287.047 370.5,287.5C 371.486,285.592 373.152,284.592 375.5,284.5 Z"/></g>
<g><path style="opacity:1" fill="#91b8fa" d="M 367.5,289.5 C 366.486,290.674 365.153,291.34 363.5,291.5C 364.287,289.896 365.62,289.229 367.5,289.5 Z"/></g>
<g><path style="opacity:1" fill="#92bafb" d="M 657.5,291.5 C 659.027,291.427 660.027,292.094 660.5,293.5C 658.973,293.573 657.973,292.906 657.5,291.5 Z"/></g>
<g><path style="opacity:1" fill="#bed6fc" d="M 291.5,291.5 C 290.833,294.167 289.167,295.833 286.5,296.5C 287.833,294.5 289.5,292.833 291.5,291.5 Z"/></g>
<g><path style="opacity:1" fill="#abc9fb" d="M 360.5,293.5 C 359.71,294.401 358.71,295.068 357.5,295.5C 357.821,293.952 358.821,293.285 360.5,293.5 Z"/></g>
<g><path style="opacity:1" fill="#cbddfd" d="M 728.5,290.5 C 731.167,293.167 733.833,295.833 736.5,298.5C 732.5,297.167 729.833,294.5 728.5,290.5 Z"/></g>
<g><path style="opacity:1" fill="#87b2fa" d="M 355.5,296.5 C 355.027,297.906 354.027,298.573 352.5,298.5C 352.973,297.094 353.973,296.427 355.5,296.5 Z"/></g>
<g><path style="opacity:1" fill="#d1e1fd" d="M 284.5,298.5 C 281.5,303.5 277.5,307.5 272.5,310.5C 276.167,306.167 280.167,302.167 284.5,298.5 Z"/></g>
<g><path style="opacity:1" fill="#7dabfa" d="M 348.5,301.5 C 346.704,303.9 344.37,305.567 341.5,306.5C 343.296,304.1 345.63,302.433 348.5,301.5 Z"/></g>
<g><path style="opacity:1" fill="#a5c5fb" d="M 268.5,314.5 C 268.262,316.404 267.262,317.738 265.5,318.5C 265.738,316.596 266.738,315.262 268.5,314.5 Z"/></g>
<g><path style="opacity:1" fill="#81aefa" d="M 331.5,314.5 C 330.738,316.262 329.404,317.262 327.5,317.5C 328.262,315.738 329.596,314.738 331.5,314.5 Z"/></g>
<g><path style="opacity:1" fill="#aac8fc" d="M 265.5,318.5 C 265.262,320.404 264.262,321.738 262.5,322.5C 262.738,320.596 263.738,319.262 265.5,318.5 Z"/></g>
<g><path style="opacity:1" fill="#84b0fa" d="M 325.5,319.5 C 325.027,320.906 324.027,321.573 322.5,321.5C 322.973,320.094 323.973,319.427 325.5,319.5 Z"/></g>
<g><path style="opacity:1" fill="#afcbfc" d="M 754.5,317.5 C 757.243,319.239 759.243,321.573 760.5,324.5C 757.757,322.761 755.757,320.427 754.5,317.5 Z"/></g>
<g><path style="opacity:1" fill="#a1c4fb" d="M 765.5,330.5 C 766.906,330.973 767.573,331.973 767.5,333.5C 766.094,333.027 765.427,332.027 765.5,330.5 Z"/></g>
<g><path style="opacity:1" fill="#bed5fc" d="M 256.5,329.5 C 255.471,332.891 253.471,335.557 250.5,337.5C 252.016,334.467 254.016,331.8 256.5,329.5 Z"/></g>
<g><path style="opacity:1" fill="#7aaaf9" d="M 245.5,344.5 C 245.068,345.71 244.401,346.71 243.5,347.5C 243.285,345.821 243.952,344.821 245.5,344.5 Z"/></g>
<g><path style="opacity:1" fill="#70a3f9" d="M 721.5,345.5 C 723.587,346.585 724.92,348.251 725.5,350.5C 723.413,349.415 722.08,347.749 721.5,345.5 Z"/></g>
<g><path style="opacity:1" fill="#adcafb" d="M 775.5,344.5 C 777.262,345.262 778.262,346.596 778.5,348.5C 776.738,347.738 775.738,346.404 775.5,344.5 Z"/></g>
<g><path style="opacity:1" fill="#78a7f9" d="M 302.5,342.5 C 300.212,346.456 297.212,349.789 293.5,352.5C 295.423,349.397 297.59,346.397 300,343.5C 300.671,342.748 301.504,342.414 302.5,342.5 Z"/></g>
<g><path style="opacity:1" fill="#8cb5fa" d="M 237.5,356.5 C 237.047,358.565 236.047,360.232 234.5,361.5C 234.592,359.152 235.592,357.486 237.5,356.5 Z"/></g>
<g><path style="opacity:1" fill="#9cc0fb" d="M 787.5,363.5 C 788.906,363.973 789.573,364.973 789.5,366.5C 788.094,366.027 787.427,365.027 787.5,363.5 Z"/></g>
<g><path style="opacity:1" fill="#c2d7fc" d="M 233.5,363.5 C 232.893,366.401 231.559,368.734 229.5,370.5C 229.833,369.833 230.167,369.167 230.5,368.5C 230.592,366.152 231.592,364.486 233.5,363.5 Z"/></g>
<g><path style="opacity:1" fill="#81adfa" d="M 230.5,368.5 C 230.167,369.167 229.833,369.833 229.5,370.5C 229.34,372.153 228.674,373.486 227.5,374.5C 227.386,371.784 228.386,369.784 230.5,368.5 Z"/></g>
<g><path style="opacity:1" fill="#689af9" d="M 283.5,365.5 C 282.306,370.574 279.639,374.574 275.5,377.5C 277.687,373.107 280.354,369.107 283.5,365.5 Z"/></g>
<g><path style="opacity:1" fill="#8ab4fa" d="M 745.5,377.5 C 746.906,377.973 747.573,378.973 747.5,380.5C 746.094,380.027 745.427,379.027 745.5,377.5 Z"/></g>
<g><path style="opacity:1" fill="#a5c6fb" d="M 795.5,378.5 C 796.906,378.973 797.573,379.973 797.5,381.5C 796.094,381.027 795.427,380.027 795.5,378.5 Z"/></g>
<g><path style="opacity:1" fill="#b7d0fc" d="M 225.5,378.5 C 224.763,380.608 224.096,382.775 223.5,385C 223.164,386.03 222.497,386.53 221.5,386.5C 221.532,383.006 222.865,380.339 225.5,378.5 Z"/></g>
<g><path style="opacity:1" fill="#6ba0f9" d="M 275.5,378.5 C 275.21,381.127 273.876,382.794 271.5,383.5C 272.487,381.449 273.82,379.782 275.5,378.5 Z"/></g>
<g><path style="opacity:1" fill="#7aaaf9" d="M 749.5,384.5 C 750.906,384.973 751.573,385.973 751.5,387.5C 750.094,387.027 749.427,386.027 749.5,384.5 Z"/></g>
<g><path style="opacity:1" fill="#a5c6fb" d="M 799.5,386.5 C 800.906,386.973 801.573,387.973 801.5,389.5C 800.094,389.027 799.427,388.027 799.5,386.5 Z"/></g>
<g><path style="opacity:1" fill="#fefefe" d="M 538.5,398.5 C 538.5,426.5 538.5,454.5 538.5,482.5C 566.5,482.5 594.5,482.5 622.5,482.5C 623.15,482.804 623.817,483.137 624.5,483.5C 625.666,496.154 625.833,508.82 625,521.5C 624.184,522.823 623.017,523.489 621.5,523.5C 593.833,523.5 566.167,523.5 538.5,523.5C 538.5,551.5 538.5,579.5 538.5,607.5C 537.884,609.417 536.55,610.584 534.5,611C 522.838,611.5 511.171,611.667 499.5,611.5C 498.4,610.395 497.733,609.062 497.5,607.5C 497.5,579.833 497.5,552.167 497.5,524.5C 469.5,524.5 441.5,524.5 413.5,524.5C 412.167,523.833 411.167,522.833 410.5,521.5C 410.5,521.167 410.5,520.833 410.5,520.5C 410.333,508.829 410.5,497.162 411,485.5C 411.833,484.667 412.667,483.833 413.5,483C 440.831,482.5 468.165,482.333 495.5,482.5C 497.185,454.142 498.185,425.476 498.5,396.5C 510.993,395.34 523.66,395.173 536.5,396C 537.381,396.708 538.047,397.542 538.5,398.5 Z"/></g>
<g><path style="opacity:1" fill="#85b0fa" d="M 802.5,391.5 C 804.241,393.395 805.241,395.728 805.5,398.5C 803.759,396.605 802.759,394.272 802.5,391.5 Z"/></g>
<g><path style="opacity:1" fill="#cfe1fd" d="M 498.5,396.5 C 498.185,425.476 497.185,454.142 495.5,482.5C 495.5,482.167 495.5,481.833 495.5,481.5C 495.333,453.831 495.5,426.165 496,398.5C 496.708,397.619 497.542,396.953 498.5,396.5 Z"/></g>
<g><path style="opacity:1" fill="#a6c6fc" d="M 213.5,404.5 C 213.598,406.553 212.931,408.22 211.5,409.5C 211.12,407.302 211.787,405.635 213.5,404.5 Z"/></g>
<g><path style="opacity:1" fill="#9ec1fb" d="M 260.5,405.5 C 260.068,406.71 259.401,407.71 258.5,408.5C 258.285,406.821 258.952,405.821 260.5,405.5 Z"/></g>
<g><path style="opacity:1" fill="#c1d8fc" d="M 807.5,404.5 C 809.074,406.102 809.741,408.102 809.5,410.5C 807.926,408.898 807.259,406.898 807.5,404.5 Z"/></g>
<g><path style="opacity:1" fill="#6ea1f9" d="M 258.5,408.5 C 258.923,410.781 258.256,412.448 256.5,413.5C 256.402,411.447 257.069,409.78 258.5,408.5 Z"/></g>
<g><path style="opacity:1" fill="#76a7fa" d="M 761.5,407.5 C 763.245,409.033 764.245,411.033 764.5,413.5C 762.755,411.967 761.755,409.967 761.5,407.5 Z"/></g>
<g><path style="opacity:1" fill="#c0d6fc" d="M 209.5,416.5 C 209.357,419.385 208.357,421.718 206.5,423.5C 206.759,420.728 207.759,418.395 209.5,416.5 Z"/></g>
<g><path style="opacity:1" fill="#b9d2fc" d="M 253.5,421.5 C 252.976,423.306 252.309,424.972 251.5,426.5C 251.167,426.5 250.833,426.5 250.5,426.5C 250.259,423.966 251.259,422.3 253.5,421.5 Z"/></g>
<g><path style="opacity:1" fill="#6ca0f9" d="M 814.5,422.5 C 816.04,424.838 816.706,427.505 816.5,430.5C 815.232,428.095 814.565,425.428 814.5,422.5 Z"/></g>
<g><path style="opacity:1" fill="#aac8fc" d="M 205.5,428.5 C 205.41,430.696 205.077,432.863 204.5,435C 204.316,436.376 203.649,437.209 202.5,437.5C 202.933,434.834 203.433,432.168 204,429.5C 204.383,428.944 204.883,428.611 205.5,428.5 Z"/></g>
<g><path style="opacity:1" fill="#6ea1f9" d="M 250.5,426.5 C 250.833,426.5 251.167,426.5 251.5,426.5C 251.693,429.811 250.693,432.478 248.5,434.5C 249.167,431.833 249.833,429.167 250.5,426.5 Z"/></g>
<g><path style="opacity:1" fill="#8bb5fa" d="M 772.5,436.5 C 774.213,437.635 774.88,439.302 774.5,441.5C 773.463,440.07 772.796,438.403 772.5,436.5 Z"/></g>
<g><path style="opacity:1" fill="#669cf9" d="M 818.5,438.5 C 820.308,439.918 820.975,441.918 820.5,444.5C 819.262,442.786 818.595,440.786 818.5,438.5 Z"/></g>
<g><path style="opacity:1" fill="#8eb7fa" d="M 202.5,440.5 C 201.962,442.117 201.629,443.784 201.5,445.5C 201.167,445.5 200.833,445.5 200.5,445.5C 200.077,443.219 200.744,441.552 202.5,440.5 Z"/></g>
<g><path style="opacity:1" fill="#70a1f9" d="M 248.5,435.5 C 247.943,439.175 247.276,442.841 246.5,446.5C 246.253,447.713 245.586,448.38 244.5,448.5C 245.637,444.583 246.47,440.583 247,436.5C 247.383,435.944 247.883,435.611 248.5,435.5 Z"/></g>
<g><path style="opacity:1" fill="#c8dbfd" d="M 775.5,444.5 C 776.649,444.791 777.316,445.624 777.5,447C 778.216,449.792 778.549,452.626 778.5,455.5C 778.167,455.5 777.833,455.5 777.5,455.5C 776.94,451.807 776.273,448.14 775.5,444.5 Z"/></g>
<g><path style="opacity:1" fill="#95bbfb" d="M 244.5,448.5 C 244.706,451.495 244.04,454.162 242.5,456.5C 242.294,453.505 242.96,450.838 244.5,448.5 Z"/></g>
<g><path style="opacity:1" fill="#d0e0fd" d="M 200.5,445.5 C 200.833,445.5 201.167,445.5 201.5,445.5C 201.428,448.193 201.095,450.86 200.5,453.5C 200.36,455.03 199.693,456.03 198.5,456.5C 198.5,456.167 198.5,455.833 198.5,455.5C 198.753,451.96 199.419,448.627 200.5,445.5 Z"/></g>
<g><path style="opacity:1" fill="#5794f8" d="M 777.5,455.5 C 777.833,455.5 778.167,455.5 778.5,455.5C 779.167,459.167 779.833,462.833 780.5,466.5C 779.307,466.03 778.64,465.03 778.5,463.5C 777.905,460.86 777.572,458.193 777.5,455.5 Z"/></g>
<g><path style="opacity:1" fill="#a3c4fb" d="M 198.5,455.5 C 198.5,455.833 198.5,456.167 198.5,456.5C 198.052,462.531 197.385,468.531 196.5,474.5C 196.167,474.5 195.833,474.5 195.5,474.5C 195.708,467.905 196.708,461.572 198.5,455.5 Z"/></g>
<g><path style="opacity:1" fill="#d1e1fd" d="M 195.5,474.5 C 195.833,474.5 196.167,474.5 196.5,474.5C 197.055,478.012 196.388,481.012 194.5,483.5C 194.298,481.05 194.631,478.717 195.5,476.5C 195.5,475.833 195.5,475.167 195.5,474.5 Z"/></g>
<g><path style="opacity:1" fill="#90b6fa" d="M 241.5,463.5 C 240.702,469.479 240.035,475.479 239.5,481.5C 238.833,482.5 238.167,483.5 237.5,484.5C 238.056,478.662 238.723,472.829 239.5,467C 239.608,465.319 240.275,464.152 241.5,463.5 Z"/></g>
<g><path style="opacity:1" fill="#4f91f8" d="M 539.5,399.5 C 540.498,426.328 540.831,453.328 540.5,480.5C 567.672,480.169 594.672,480.502 621.5,481.5C 594.167,481.5 566.833,481.5 539.5,481.5C 539.5,454.167 539.5,426.833 539.5,399.5 Z"/></g>
<g><path style="opacity:1" fill="#a1c4fb" d="M 538.5,398.5 C 539.167,398.5 539.5,398.833 539.5,399.5C 539.5,426.833 539.5,454.167 539.5,481.5C 566.833,481.5 594.167,481.5 621.5,481.5C 622.167,481.5 622.5,481.833 622.5,482.5C 594.5,482.5 566.5,482.5 538.5,482.5C 538.5,454.5 538.5,426.5 538.5,398.5 Z"/></g>
<g><path style="opacity:1" fill="#86b0fa" d="M 195.5,476.5 C 194.631,478.717 194.298,481.05 194.5,483.5C 194.5,498.5 194.5,513.5 194.5,528.5C 194.167,528.5 193.833,528.5 193.5,528.5C 192.847,510.801 193.514,493.468 195.5,476.5 Z"/></g>
<g><path style="opacity:1" fill="#69a1f9" d="M 409.5,484.5 C 409.172,496.678 409.505,508.678 410.5,520.5C 410.5,520.833 410.5,521.167 410.5,521.5C 409.17,515.705 408.504,509.538 408.5,503C 408.5,496.657 408.834,490.491 409.5,484.5 Z"/></g>
<g><path style="opacity:1" fill="#bcd5fc" d="M 495.5,481.5 C 495.5,481.833 495.5,482.167 495.5,482.5C 468.165,482.333 440.831,482.5 413.5,483C 412.667,483.833 411.833,484.667 411,485.5C 410.5,497.162 410.333,508.829 410.5,520.5C 409.505,508.678 409.172,496.678 409.5,484.5C 410.627,483.878 411.627,483.045 412.5,482C 440.165,481.5 467.831,481.333 495.5,481.5 Z"/></g>
<g><path style="opacity:1" fill="#4f8ef8" d="M 239.5,481.5 C 238.196,499.84 238.196,518.174 239.5,536.5C 239.167,536.5 238.833,536.5 238.5,536.5C 236.767,519.337 236.433,502.003 237.5,484.5C 238.167,483.5 238.833,482.5 239.5,481.5 Z"/></g>
<g><path style="opacity:1" fill="#488bf7" d="M 782.5,482.5 C 783.479,485.625 783.813,488.958 783.5,492.5C 784.672,503.51 784.672,514.51 783.5,525.5C 783.663,532.062 782.996,538.395 781.5,544.5C 782.356,523.846 782.689,503.179 782.5,482.5 Z"/></g>
<g><path style="opacity:1" fill="#b8d1fc" d="M 783.5,492.5 C 784.29,493.609 784.79,494.942 785,496.5C 785.167,501.333 785.333,506.167 785.5,511C 785.494,516.216 784.827,521.049 783.5,525.5C 784.672,514.51 784.672,503.51 783.5,492.5 Z"/></g>
<g><path style="opacity:1" fill="#c5dafc" d="M 621.5,523.5 C 594.52,525.491 567.187,526.158 539.5,525.5C 539.5,552.833 539.5,580.167 539.5,607.5C 539.167,607.5 538.833,607.5 538.5,607.5C 538.5,579.5 538.5,551.5 538.5,523.5C 566.167,523.5 593.833,523.5 621.5,523.5 Z"/></g>
<g><path style="opacity:1" fill="#c6dbfd" d="M 413.5,524.5 C 441.5,524.5 469.5,524.5 497.5,524.5C 497.5,552.167 497.5,579.833 497.5,607.5C 495.509,580.52 494.842,553.187 495.5,525.5C 467.995,525.831 440.662,525.498 413.5,524.5 Z"/></g>
<g><path style="opacity:1" fill="#619cf9" d="M 193.5,528.5 C 193.833,528.5 194.167,528.5 194.5,528.5C 194.5,530.5 194.5,532.5 194.5,534.5C 194.575,537.206 194.908,539.873 195.5,542.5C 193.564,538.285 192.897,533.619 193.5,528.5 Z"/></g>
<g><path style="opacity:1" fill="#d5e4fd" d="M 194.5,534.5 C 195.787,535.871 196.453,537.705 196.5,540C 197.165,545.482 197.498,550.982 197.5,556.5C 197.167,556.5 196.833,556.5 196.5,556.5C 196.167,551.833 195.833,547.167 195.5,542.5C 194.908,539.873 194.575,537.206 194.5,534.5 Z"/></g>
<g><path style="opacity:1" fill="#75a7f9" d="M 238.5,536.5 C 238.833,536.5 239.167,536.5 239.5,536.5C 239.669,541.181 240.002,545.848 240.5,550.5C 239.732,549.737 239.232,548.737 239,547.5C 238.501,543.848 238.335,540.182 238.5,536.5 Z"/></g>
<g><path style="opacity:1" fill="#d4e3fd" d="M 826.5,534.5 C 826.605,538.548 826.272,542.548 825.5,546.5C 825.167,546.5 824.833,546.5 824.5,546.5C 823.911,542.029 824.577,538.029 826.5,534.5 Z"/></g>
<g><path style="opacity:1" fill="#5a95f8" d="M 827.5,525.5 C 827.666,531.842 827.5,538.175 827,544.5C 826.722,545.416 826.222,546.082 825.5,546.5C 826.272,542.548 826.605,538.548 826.5,534.5C 826.19,531.287 826.523,528.287 827.5,525.5 Z"/></g>
<g><path style="opacity:1" fill="#6399f9" d="M 240.5,552.5 C 241.725,553.152 242.392,554.319 242.5,556C 243.237,560.137 243.571,564.303 243.5,568.5C 242.141,563.358 241.141,558.025 240.5,552.5 Z"/></g>
<g><path style="opacity:1" fill="#abcafb" d="M 824.5,546.5 C 824.833,546.5 825.167,546.5 825.5,546.5C 825.461,550.733 824.795,554.733 823.5,558.5C 823.395,554.452 823.728,550.452 824.5,546.5 Z"/></g>
<g><path style="opacity:1" fill="#d2e2fd" d="M 198.5,564.5 C 199.649,564.791 200.316,565.624 200.5,567C 201.216,569.792 201.549,572.626 201.5,575.5C 200.262,573.786 199.595,571.786 199.5,569.5C 199.634,567.708 199.301,566.042 198.5,564.5 Z"/></g>
<g><path style="opacity:1" fill="#6ea2f9" d="M 823.5,561.5 C 823.58,564.781 822.913,567.781 821.5,570.5C 821.42,567.219 822.087,564.219 823.5,561.5 Z"/></g>
<g><path style="opacity:1" fill="#6ca0f9" d="M 196.5,556.5 C 196.833,556.5 197.167,556.5 197.5,556.5C 198.092,559.127 198.425,561.794 198.5,564.5C 199.301,566.042 199.634,567.708 199.5,569.5C 197.551,565.521 196.551,561.187 196.5,556.5 Z"/></g>
<g><path style="opacity:1" fill="#a9c8fb" d="M 778.5,567.5 C 778.204,569.403 777.537,571.07 776.5,572.5C 776.077,570.219 776.744,568.552 778.5,567.5 Z"/></g>
<g><path style="opacity:1" fill="#6ba0f9" d="M 776.5,572.5 C 776.072,575.785 775.072,578.785 773.5,581.5C 773.59,579.304 773.923,577.137 774.5,575C 774.684,573.624 775.351,572.791 776.5,572.5 Z"/></g>
<g><path style="opacity:1" fill="#7cacfa" d="M 820.5,575.5 C 820.706,578.495 820.04,581.162 818.5,583.5C 818.294,580.505 818.96,577.838 820.5,575.5 Z"/></g>
<g><path style="opacity:1" fill="#77a6f9" d="M 772.5,586.5 C 772.125,588.698 771.458,590.698 770.5,592.5C 770.025,589.918 770.692,587.918 772.5,586.5 Z"/></g>
<g><path style="opacity:1" fill="#8db6fa" d="M 817.5,588.5 C 817.073,591.01 816.407,593.343 815.5,595.5C 815.338,593.473 815.505,591.473 816,589.5C 816.383,588.944 816.883,588.611 817.5,588.5 Z"/></g>
<g><path style="opacity:1" fill="#aac8fb" d="M 207.5,598.5 C 209.04,600.838 209.706,603.505 209.5,606.5C 208.232,604.095 207.565,601.428 207.5,598.5 Z"/></g>
<g><path style="opacity:1" fill="#9bbefb" d="M 768.5,598.5 C 767.909,601.925 766.575,604.925 764.5,607.5C 765.084,604.997 765.751,602.497 766.5,600C 766.836,598.97 767.503,598.47 768.5,598.5 Z"/></g>
<g><path style="opacity:1" fill="#abcafc" d="M 253.5,601.5 C 255.213,602.635 255.88,604.302 255.5,606.5C 254.463,605.07 253.796,603.403 253.5,601.5 Z"/></g>
<g><path style="opacity:1" fill="#669cf9" d="M 812.5,603.5 C 812.693,606.811 811.693,609.478 809.5,611.5C 809.903,608.514 810.903,605.848 812.5,603.5 Z"/></g>
<g><path style="opacity:1" fill="#659ef8" d="M 538.5,607.5 C 538.833,607.5 539.167,607.5 539.5,607.5C 539.376,609.582 538.376,611.082 536.5,612C 523.993,612.827 511.66,612.66 499.5,611.5C 511.171,611.667 522.838,611.5 534.5,611C 536.55,610.584 537.884,609.417 538.5,607.5 Z"/></g>
<g><path style="opacity:1" fill="#b7d1fc" d="M 257.5,610.5 C 259.245,612.033 260.245,614.033 260.5,616.5C 258.755,614.967 257.755,612.967 257.5,610.5 Z"/></g>
<g><path style="opacity:1" fill="#b4cefc" d="M 760.5,617.5 C 759.893,620.401 758.559,622.734 756.5,624.5C 757.107,621.599 758.441,619.266 760.5,617.5 Z"/></g>
<g><path style="opacity:1" fill="#bed5fc" d="M 264.5,625.5 C 266.942,627.121 268.275,629.454 268.5,632.5C 266.801,630.434 265.468,628.1 264.5,625.5 Z"/></g>
<g><path style="opacity:1" fill="#b6cffc" d="M 756.5,625.5 C 755.893,628.401 754.559,630.734 752.5,632.5C 753.108,629.594 754.441,627.26 756.5,625.5 Z"/></g>
<g><path style="opacity:1" fill="#86affa" d="M 802.5,627.5 C 802.073,630.376 801.406,633.209 800.5,636C 800.164,637.03 799.497,637.53 798.5,637.5C 799.263,633.863 800.597,630.53 802.5,627.5 Z"/></g>
<g><path style="opacity:1" fill="#7baaf9" d="M 748.5,638.5 C 748.047,640.565 747.047,642.232 745.5,643.5C 745.592,641.152 746.592,639.486 748.5,638.5 Z"/></g>
<g><path style="opacity:1" fill="#6b9ff9" d="M 797.5,640.5 C 797.741,643.034 796.741,644.7 794.5,645.5C 795.11,643.566 796.11,641.899 797.5,640.5 Z"/></g>
<g><path style="opacity:1" fill="#6097f8" d="M 223.5,640.5 C 225.87,643.894 227.87,647.561 229.5,651.5C 226.22,648.612 224.22,644.945 223.5,640.5 Z"/></g>
<g><path style="opacity:1" fill="#9fc1fb" d="M 744.5,645.5 C 743.994,648.671 742.328,651.004 739.5,652.5C 740.852,649.835 742.518,647.502 744.5,645.5 Z"/></g>
<g><path style="opacity:1" fill="#76a4f9" d="M 790.5,653.5 C 790.057,657.598 788.057,660.598 784.5,662.5C 786.504,659.497 788.504,656.497 790.5,653.5 Z"/></g>
<g><path style="opacity:1" fill="#afcbfc" d="M 733.5,661.5 C 732.92,663.749 731.587,665.415 729.5,666.5C 730.08,664.251 731.413,662.585 733.5,661.5 Z"/></g>
<g><path style="opacity:1" fill="#7caaf9" d="M 241.5,671.5 C 243.262,672.262 244.262,673.596 244.5,675.5C 242.738,674.738 241.738,673.404 241.5,671.5 Z"/></g>
<g><path style="opacity:1" fill="#669cf9" d="M 776.5,675.5 C 775.489,677.372 774.655,679.372 774,681.5C 773.329,682.252 772.496,682.586 771.5,682.5C 772.631,679.745 774.298,677.411 776.5,675.5 Z"/></g>
<g><path style="opacity:1" fill="#88b2fa" d="M 249.5,682.5 C 251.262,683.262 252.262,684.596 252.5,686.5C 250.738,685.738 249.738,684.404 249.5,682.5 Z"/></g>
<g><path style="opacity:1" fill="#a4c5fb" d="M 253.5,687.5 C 254.993,688.312 255.66,689.645 255.5,691.5C 255.564,693.557 254.898,695.223 253.5,696.5C 254.076,693.393 254.076,690.393 253.5,687.5 Z"/></g>
<g><path style="opacity:1" fill="#6da0f9" d="M 301.5,684.5 C 301.33,686.848 300.997,689.182 300.5,691.5C 300.36,693.03 299.693,694.03 298.5,694.5C 298.998,691.513 299.498,688.513 300,685.5C 300.383,684.944 300.883,684.611 301.5,684.5 Z"/></g>
<g><path style="opacity:1" fill="#7aa9fa" d="M 766.5,689.5 C 765.92,691.749 764.587,693.415 762.5,694.5C 763.08,692.251 764.413,690.585 766.5,689.5 Z"/></g>
<g><path style="opacity:1" fill="#7baafa" d="M 297.5,699.5 C 297.889,702.553 297.223,705.22 295.5,707.5C 295.294,704.505 295.96,701.838 297.5,699.5 Z"/></g>
<g><path style="opacity:1" fill="#84affa" d="M 755.5,702.5 C 755.446,704.632 754.446,705.965 752.5,706.5C 753.026,704.77 754.026,703.436 755.5,702.5 Z"/></g>
<g><path style="opacity:1" fill="#abc9fb" d="M 690.5,706.5 C 690.027,707.906 689.027,708.573 687.5,708.5C 687.973,707.094 688.973,706.427 690.5,706.5 Z"/></g>
<g><path style="opacity:1" fill="#b8d1fc" d="M 251.5,706.5 C 251.428,709.193 251.095,711.86 250.5,714.5C 250.36,716.03 249.693,717.03 248.5,717.5C 248.764,713.508 249.764,709.841 251.5,706.5 Z"/></g>
<g><path style="opacity:1" fill="#b9d2fc" d="M 295.5,707.5 C 295.243,711.171 294.243,714.505 292.5,717.5C 292.67,715.152 293.003,712.818 293.5,710.5C 293.64,708.97 294.307,707.97 295.5,707.5 Z"/></g>
<g><path style="opacity:1" fill="#9cc0fb" d="M 687.5,708.5 C 686.008,711.323 683.674,712.99 680.5,713.5C 682.55,711.453 684.883,709.786 687.5,708.5 Z"/></g>
<g><path style="opacity:1" fill="#a6c6fc" d="M 678.5,715.5 C 678.027,716.906 677.027,717.573 675.5,717.5C 675.973,716.094 676.973,715.427 678.5,715.5 Z"/></g>
<g><path style="opacity:1" fill="#82aefa" d="M 744.5,715.5 C 744.027,716.906 743.027,717.573 741.5,717.5C 741.973,716.094 742.973,715.427 744.5,715.5 Z"/></g>
<g><path style="opacity:1" fill="#82aefa" d="M 740.5,718.5 C 740.573,720.027 739.906,721.027 738.5,721.5C 738.427,719.973 739.094,718.973 740.5,718.5 Z"/></g>
<g><path style="opacity:1" fill="#6ca2f9" d="M 248.5,717.5 C 248.007,719.806 247.674,722.139 247.5,724.5C 247.167,724.5 246.833,724.5 246.5,724.5C 246.171,721.772 246.837,719.438 248.5,717.5 Z"/></g>
<g><path style="opacity:1" fill="#82aefa" d="M 736.5,722.5 C 736.573,724.027 735.906,725.027 734.5,725.5C 734.427,723.973 735.094,722.973 736.5,722.5 Z"/></g>
<g><path style="opacity:1" fill="#b6cffc" d="M 355.5,725.5 C 354.942,726.79 353.942,727.623 352.5,728C 350.134,728.44 347.801,728.94 345.5,729.5C 345.611,728.883 345.944,728.383 346.5,728C 349.546,727.261 352.546,726.428 355.5,725.5 Z"/></g>
<g><path style="opacity:1" fill="#adcafc" d="M 357.5,726.5 C 359.179,726.285 360.179,726.952 360.5,728.5C 358.821,728.715 357.821,728.048 357.5,726.5 Z"/></g>
<g><path style="opacity:1" fill="#a6c5fb" d="M 246.5,724.5 C 246.833,724.5 247.167,724.5 247.5,724.5C 247.88,726.698 247.213,728.365 245.5,729.5C 245.366,727.708 245.699,726.042 246.5,724.5 Z"/></g>
<g><path style="opacity:1" fill="#c1d7fc" d="M 345.5,729.5 C 344.514,731.408 342.848,732.408 340.5,732.5C 341.659,730.75 343.326,729.75 345.5,729.5 Z"/></g>
<g><path style="opacity:1" fill="#689ef9" d="M 245.5,730.5 C 245.277,734.162 244.277,737.495 242.5,740.5C 242.67,738.152 243.003,735.818 243.5,733.5C 243.64,731.97 244.307,730.97 245.5,730.5 Z"/></g>
<g><path style="opacity:1" fill="#5a94f8" d="M 729.5,729.5 C 728.419,733.578 725.752,735.911 721.5,736.5C 724.141,734.196 726.808,731.862 729.5,729.5 Z"/></g>
<g><path style="opacity:1" fill="#a8c7fb" d="M 291.5,724.5 C 290.94,728.193 290.273,731.86 289.5,735.5C 289.167,735.5 288.833,735.5 288.5,735.5C 288.572,732.807 288.905,730.14 289.5,727.5C 289.64,725.97 290.307,724.97 291.5,724.5 Z"/></g>
<g><path style="opacity:1" fill="#c4d8fc" d="M 339.5,732.5 C 334.156,735.521 328.489,738.188 322.5,740.5C 327.361,736.574 333.028,733.908 339.5,732.5 Z"/></g>
<g><path style="opacity:1" fill="#bcd3fc" d="M 660.5,727.5 C 659.71,728.794 658.71,729.961 657.5,731C 653.942,733.06 650.275,734.893 646.5,736.5C 650.437,732.521 655.104,729.521 660.5,727.5 Z"/></g>
<g><path style="opacity:1" fill="#c1d7fc" d="M 643.5,737.5 C 642.341,739.25 640.674,740.25 638.5,740.5C 639.486,738.592 641.152,737.592 643.5,737.5 Z"/></g>
<g><path style="opacity:1" fill="#5793f8" d="M 288.5,735.5 C 288.833,735.5 289.167,735.5 289.5,735.5C 289.493,738.038 289.159,740.538 288.5,743C 288.316,744.376 287.649,745.209 286.5,745.5C 287.076,742.124 287.743,738.791 288.5,735.5 Z"/></g>
<g><path style="opacity:1" fill="#bfd5fc" d="M 383.5,740.5 C 385.848,740.592 387.514,741.592 388.5,743.5C 385.966,743.741 384.3,742.741 383.5,740.5 Z"/></g>
<g><path style="opacity:1" fill="#c1d7fc" d="M 635.5,741.5 C 634.341,743.25 632.674,744.25 630.5,744.5C 631.486,742.592 633.152,741.592 635.5,741.5 Z"/></g>
<g><path style="opacity:1" fill="#b8d0fc" d="M 310.5,745.5 C 308.562,747.163 306.228,747.829 303.5,747.5C 305.515,746.076 307.848,745.41 310.5,745.5 Z"/></g>
<g><path style="opacity:1" fill="#7baafa" d="M 395.5,745.5 C 398.105,745.621 400.105,746.621 401.5,748.5C 398.911,748.539 396.911,747.539 395.5,745.5 Z"/></g>
<g><path style="opacity:1" fill="#6399f9" d="M 714.5,742.5 C 713.397,745.936 711.064,747.936 707.5,748.5C 707.414,747.504 707.748,746.671 708.5,746C 710.405,744.579 712.405,743.412 714.5,742.5 Z"/></g>
<g><path style="opacity:1" fill="#93b9fa" d="M 626.5,745.5 C 624.605,747.241 622.272,748.241 619.5,748.5C 621.395,746.759 623.728,745.759 626.5,745.5 Z"/></g>
<g><path style="opacity:1" fill="#96bcfb" d="M 404.5,749.5 C 407.105,749.621 409.105,750.621 410.5,752.5C 408.033,752.245 406.033,751.245 404.5,749.5 Z"/></g>
<g><path style="opacity:1" fill="#b8d1fc" d="M 618.5,749.5 C 616.351,750.736 614.018,751.736 611.5,752.5C 613.09,750.179 615.423,749.179 618.5,749.5 Z"/></g>
<g><path style="opacity:1" fill="#88b3fa" d="M 299.5,749.5 C 297.605,751.241 295.272,752.241 292.5,752.5C 294.395,750.759 296.728,749.759 299.5,749.5 Z"/></g>
<g><path style="opacity:1" fill="#81aefa" d="M 241.5,748.5 C 240.833,751.833 240.167,755.167 239.5,758.5C 239.167,758.5 238.833,758.5 238.5,758.5C 238.67,756.152 239.003,753.818 239.5,751.5C 239.64,749.97 240.307,748.97 241.5,748.5 Z"/></g>
<g><path style="opacity:1" fill="#b7d0fc" d="M 411.5,752.5 C 414.461,752.464 416.794,753.464 418.5,755.5C 415.539,755.536 413.206,754.536 411.5,752.5 Z"/></g>
<g><path style="opacity:1" fill="#77a7fa" d="M 428.5,758.5 C 431.698,757.964 434.365,758.631 436.5,760.5C 435.609,759.89 434.609,759.557 433.5,759.5C 431.585,759.784 429.919,759.451 428.5,758.5 Z"/></g>
<g><path style="opacity:1" fill="#bcd3fc" d="M 238.5,758.5 C 238.833,758.5 239.167,758.5 239.5,758.5C 239.923,760.781 239.256,762.448 237.5,763.5C 237.366,761.708 237.699,760.042 238.5,758.5 Z"/></g>
<g><path style="opacity:1" fill="#b4cefc" d="M 433.5,759.5 C 434.609,759.557 435.609,759.89 436.5,760.5C 439.813,761.045 443.146,761.545 446.5,762C 447.056,762.383 447.389,762.883 447.5,763.5C 443.473,763.051 439.473,762.384 435.5,761.5C 434.287,761.253 433.62,760.586 433.5,759.5 Z"/></g>
<g><path style="opacity:1" fill="#a6c5fb" d="M 575.5,762.5 C 573.095,763.768 570.428,764.435 567.5,764.5C 569.78,762.777 572.447,762.111 575.5,762.5 Z"/></g>
<g><path style="opacity:1" fill="#77a6f9" d="M 689.5,760.5 C 686.931,763.728 683.598,765.728 679.5,766.5C 682.566,764.11 685.9,762.11 689.5,760.5 Z"/></g>
<g><path style="opacity:1" fill="#9abdfb" d="M 456.5,764.5 C 461.01,764.884 465.343,765.551 469.5,766.5C 469.5,766.833 469.5,767.167 469.5,767.5C 466.492,767.299 463.492,766.966 460.5,766.5C 458.667,766.415 457.334,765.748 456.5,764.5 Z"/></g>
<g><path style="opacity:1" fill="#689df9" d="M 469.5,767.5 C 469.5,767.167 469.5,766.833 469.5,766.5C 473.329,765.931 476.663,766.598 479.5,768.5C 476.14,768.384 472.807,768.051 469.5,767.5 Z"/></g>
<g><path style="opacity:1" fill="#6fa3f9" d="M 554.5,766.5 C 550.02,767.521 545.353,768.187 540.5,768.5C 540.918,767.778 541.584,767.278 542.5,767C 546.486,766.501 550.486,766.334 554.5,766.5 Z"/></g>
<g><path style="opacity:1" fill="#6e9ff9" d="M 679.5,766.5 C 679.092,767.643 678.425,768.643 677.5,769.5C 674.268,771.223 670.935,772.556 667.5,773.5C 671.268,770.797 675.268,768.463 679.5,766.5 Z"/></g>
<g><path style="opacity:1" fill="#b3cefc" d="M 350.5,774.5 C 351.274,773.853 352.274,773.52 353.5,773.5C 355.355,773.34 356.688,774.007 357.5,775.5C 355.236,774.781 352.903,774.448 350.5,774.5 Z"/></g>
<g><path style="opacity:1" fill="#abc9fb" d="M 667.5,773.5 C 666.71,774.401 665.71,775.068 664.5,775.5C 664.821,773.952 665.821,773.285 667.5,773.5 Z"/></g>
<g><path style="opacity:1" fill="#77a6fa" d="M 664.5,775.5 C 662.469,777.755 659.802,779.088 656.5,779.5C 658.789,777.613 661.455,776.279 664.5,775.5 Z"/></g>
<g><path style="opacity:1" fill="#9cc0fb" d="M 652.5,781.5 C 651.329,782.345 649.995,783.011 648.5,783.5C 649.183,781.824 650.517,781.157 652.5,781.5 Z"/></g>
<g><path style="opacity:1" fill="#7aaaf9" d="M 373.5,783.5 C 375.027,783.427 376.027,784.094 376.5,785.5C 374.973,785.573 373.973,784.906 373.5,783.5 Z"/></g>
<g><path style="opacity:1" fill="#6da1f9" d="M 647.5,783.5 C 646.341,785.25 644.674,786.25 642.5,786.5C 643.486,784.592 645.152,783.592 647.5,783.5 Z"/></g>
<g><path style="opacity:1" fill="#679cf9" d="M 631.5,790.5 C 629.155,793.075 626.155,794.075 622.5,793.5C 625.341,792.331 628.341,791.331 631.5,790.5 Z"/></g>
<g><path style="opacity:1" fill="#7eacfa" d="M 235.5,788.5 C 236.458,790.302 237.125,792.302 237.5,794.5C 235.72,793.01 235.054,791.01 235.5,788.5 Z"/></g>
<g><path style="opacity:1" fill="#5c94f8" d="M 396.5,793.5 C 400.036,794.758 403.703,795.591 407.5,796C 408.056,796.383 408.389,796.883 408.5,797.5C 405.834,797.067 403.168,796.567 400.5,796C 398.68,795.8 397.347,794.966 396.5,793.5 Z"/></g>
<g><path style="opacity:1" fill="#73a3f9" d="M 305.5,794.5 C 304.942,795.79 303.942,796.623 302.5,797C 300.134,797.44 297.801,797.94 295.5,798.5C 295.611,797.883 295.944,797.383 296.5,797C 299.546,796.261 302.546,795.428 305.5,794.5 Z"/></g>
<g><path style="opacity:1" fill="#6b9ff9" d="M 621.5,794.5 C 618.373,797.055 614.706,798.055 610.5,797.5C 613.937,796.055 617.603,795.055 621.5,794.5 Z"/></g>
<g><path style="opacity:1" fill="#7ba9fa" d="M 413.5,798.5 C 416.811,798.883 419.811,799.883 422.5,801.5C 418.841,801.851 415.841,800.851 413.5,798.5 Z"/></g>
<g><path style="opacity:1" fill="#c2d7fc" d="M 291.5,800.5 C 290.07,801.537 288.403,802.204 286.5,802.5C 285.833,802.5 285.167,802.5 284.5,802.5C 286.515,801.076 288.848,800.41 291.5,800.5 Z"/></g>
<g><path style="opacity:1" fill="#6ba0f9" d="M 284.5,802.5 C 285.167,802.5 285.833,802.5 286.5,802.5C 285.341,804.25 283.674,805.25 281.5,805.5C 282.1,804.1 283.1,803.1 284.5,802.5 Z"/></g>
<g><path style="opacity:1" fill="#cedffd" d="M 436.5,804.5 C 440.853,804.765 445.187,805.265 449.5,806C 450.056,806.383 450.389,806.883 450.5,807.5C 445.529,807.344 440.862,806.344 436.5,804.5 Z"/></g>
<g><path style="opacity:1" fill="#7eabfa" d="M 586.5,804.5 C 584.095,805.768 581.428,806.435 578.5,806.5C 580.78,804.777 583.447,804.111 586.5,804.5 Z"/></g>
<g><path style="opacity:1" fill="#659bf9" d="M 578.5,806.5 C 578.082,807.222 577.416,807.722 576.5,808C 572.848,808.499 569.182,808.665 565.5,808.5C 569.657,807.551 573.99,806.884 578.5,806.5 Z"/></g>
<g><path style="opacity:1" fill="#b6d0fc" d="M 252.5,808.5 C 259.167,808.5 265.833,808.5 272.5,808.5C 265.833,811.167 259.167,811.167 252.5,808.5 Z"/></g>
<g><path style="opacity:1" fill="#8ab4fa" d="M 551.5,810.5 C 547.079,811.945 542.412,812.778 537.5,813C 519.329,813.829 501.329,813.662 483.5,812.5C 506.206,812.847 528.873,812.18 551.5,810.5 Z"/></g>
</svg>
