<?xml version="1.0" encoding="UTF-8"?>
<!DOCTYPE svg PUBLIC "-//W3C//DTD SVG 1.1//EN" "http://www.w3.org/Graphics/SVG/1.1/DTD/svg11.dtd">
<svg xmlns="http://www.w3.org/2000/svg" version="1.1" width="900px" height="383px" style="shape-rendering:geometricPrecision; text-rendering:geometricPrecision; image-rendering:optimizeQuality; fill-rule:evenodd; clip-rule:evenodd" xmlns:xlink="http://www.w3.org/1999/xlink">
<g><path style="opacity:0.967" fill="#2b2b2b" d="M 167.5,95.5 C 206.574,91.2369 239.074,103.57 265,132.5C 286.345,161.245 291.012,192.578 279,226.5C 263.746,259.914 237.912,280.08 201.5,287C 177.863,290.438 155.53,286.605 134.5,275.5C 125.875,279.43 117.208,283.264 108.5,287C 104.412,287.711 100.912,286.544 98,283.5C 97.0419,281.801 96.5419,279.967 96.5,278C 98.9069,267.886 100.74,257.719 102,247.5C 82.2561,219.35 78.2561,189.017 90,156.5C 105.483,123.158 131.316,102.824 167.5,95.5 Z M 113.5,268.5 C 114.655,261.062 116.321,253.729 118.5,246.5C 111.107,236.382 105.273,225.382 101,213.5C 92.4294,175.195 104.263,145.028 136.5,123C 163.791,107.464 192.125,105.464 221.5,117C 265.062,140.007 279.562,175.173 265,222.5C 248.466,255.498 221.632,272.498 184.5,273.5C 166.817,273.331 150.483,268.665 135.5,259.5C 128.109,262.515 120.776,265.515 113.5,268.5 Z"/></g>
<g><path style="opacity:0.901" fill="#000000" d="M 635.5,147.5 C 639.5,147.5 643.5,147.5 647.5,147.5C 647.5,179.167 647.5,210.833 647.5,242.5C 643.833,242.5 640.167,242.5 636.5,242.5C 636.702,240.011 636.202,237.677 635,235.5C 628.467,242.816 620.3,245.649 610.5,244C 600.354,243.515 593.187,238.682 589,229.5C 585.667,216.167 585.667,202.833 589,189.5C 594.922,177.12 604.755,171.954 618.5,174C 625.91,173.952 631.41,177.119 635,183.5C 635.5,171.505 635.667,159.505 635.5,147.5 Z M 610.5,184.5 C 628.365,183.031 636.698,191.364 635.5,209.5C 635.425,229.856 625.758,237.023 606.5,231C 602.721,228.543 600.554,225.043 600,220.5C 599.333,212.833 599.333,205.167 600,197.5C 601.186,191.161 604.686,186.827 610.5,184.5 Z"/></g>
<g><path style="opacity:0.869" fill="#000000" d="M 797.5,147.5 C 801.767,147.203 805.934,147.536 810,148.5C 810.167,166.509 810.667,184.509 811.5,202.5C 819.657,193.507 827.657,184.34 835.5,175C 840.681,174.061 845.681,174.394 850.5,176C 841.167,186.333 831.833,196.667 822.5,207C 832.523,218.222 842.19,229.722 851.5,241.5C 846.198,242.663 840.864,242.829 835.5,242C 827.621,231.743 819.621,221.576 811.5,211.5C 810.501,221.812 810.168,232.145 810.5,242.5C 806.167,242.5 801.833,242.5 797.5,242.5C 797.5,210.833 797.5,179.167 797.5,147.5 Z"/></g>
<g><path style="opacity:0.978" fill="#2b2b2b" d="M 180.5,154.5 C 184.884,154.174 189.217,154.508 193.5,155.5C 194.471,164.112 194.804,172.779 194.5,181.5C 202.84,181.334 211.173,181.5 219.5,182C 220.752,184.041 221.419,186.375 221.5,189C 221.47,191.424 221.137,193.757 220.5,196C 211.84,196.5 203.173,196.666 194.5,196.5C 194.666,205.173 194.5,213.84 194,222.5C 189.263,223.469 184.43,223.803 179.5,223.5C 179.5,214.5 179.5,205.5 179.5,196.5C 170.5,196.5 161.5,196.5 152.5,196.5C 152.197,191.57 152.531,186.737 153.5,182C 162.16,181.5 170.827,181.334 179.5,181.5C 179.196,172.416 179.529,163.416 180.5,154.5 Z"/></g>
<g><path style="opacity:0.936" fill="#000000" d="M 336.5,156.5 C 348.838,156.333 361.171,156.5 373.5,157C 386.01,159.148 392.01,166.648 391.5,179.5C 391.152,187.368 387.819,193.535 381.5,198C 390.846,201.345 394.846,208.012 393.5,218C 394.987,231.715 388.987,239.715 375.5,242C 362.504,242.5 349.504,242.667 336.5,242.5C 336.5,213.833 336.5,185.167 336.5,156.5 Z M 348.5,166.5 C 356.586,166.673 364.586,167.507 372.5,169C 376.931,171.262 378.931,174.929 378.5,180C 378.569,185.872 375.902,189.872 370.5,192C 363.221,193.247 355.888,193.747 348.5,193.5C 348.5,184.5 348.5,175.5 348.5,166.5 Z M 348.5,203.5 C 357.311,203.027 365.978,203.861 374.5,206C 381.808,211.44 383.308,218.274 379,226.5C 377.786,228.049 376.286,229.215 374.5,230C 365.916,231.41 357.25,231.91 348.5,231.5C 348.5,222.167 348.5,212.833 348.5,203.5 Z"/></g>
<g><path style="opacity:0.897" fill="#000000" d="M 477.5,159.5 C 481.5,159.5 485.5,159.5 489.5,159.5C 489.5,164.5 489.5,169.5 489.5,174.5C 495.167,174.5 500.833,174.5 506.5,174.5C 506.5,178.167 506.5,181.833 506.5,185.5C 500.833,185.5 495.167,185.5 489.5,185.5C 489.068,200.225 489.568,214.892 491,229.5C 491.652,231.723 493.152,232.89 495.5,233C 499.188,233.45 502.854,233.283 506.5,232.5C 506.5,236.167 506.5,239.833 506.5,243.5C 500.491,243.666 494.491,243.499 488.5,243C 481.78,241.082 478.28,236.582 478,229.5C 477.5,214.837 477.333,200.17 477.5,185.5C 474.223,185.784 471.057,185.451 468,184.5C 467.502,181.183 467.335,177.85 467.5,174.5C 470.833,174.5 474.167,174.5 477.5,174.5C 477.5,169.5 477.5,164.5 477.5,159.5 Z"/></g>
<g><path style="opacity:0.896" fill="#000000" d="M 541.5,173.5 C 566.819,173.168 576.819,185.501 571.5,210.5C 556.886,211.914 542.219,212.914 527.5,213.5C 528.515,228.99 536.849,235.49 552.5,233C 558.105,232.432 563.438,230.932 568.5,228.5C 569.833,232.5 569.833,236.5 568.5,240.5C 554.405,245.879 540.405,245.712 526.5,240C 517.618,231.706 513.618,221.372 514.5,209C 513.618,196.628 517.618,186.294 526.5,178C 531.388,175.7 536.388,174.2 541.5,173.5 Z M 538.5,184.5 C 552.982,181.341 560.315,187.008 560.5,201.5C 549.809,202.399 539.142,203.399 528.5,204.5C 527.04,195.419 530.374,188.753 538.5,184.5 Z"/></g>
<g><path style="opacity:0.9" fill="#000000" d="M 690.5,173.5 C 714.866,173.034 725.199,184.868 721.5,209C 721.095,209.945 720.428,210.612 719.5,211C 705.17,211.958 690.837,212.791 676.5,213.5C 677.592,229.065 685.926,235.565 701.5,233C 707.257,232.353 712.757,230.853 718,228.5C 718.827,232.541 718.66,236.541 717.5,240.5C 676.667,252.493 659.167,237.493 665,195.5C 668.166,181.825 676.666,174.492 690.5,173.5 Z M 688.5,184.5 C 701.87,181.899 709.203,187.232 710.5,200.5C 709.271,201.281 707.938,201.781 706.5,202C 696.783,202.551 687.116,203.384 677.5,204.5C 675.966,194.898 679.632,188.231 688.5,184.5 Z"/></g>
<g><path style="opacity:0.887" fill="#000000" d="M 755.5,173.5 C 763.21,173.727 770.877,174.394 778.5,175.5C 778.058,179.154 777.724,182.821 777.5,186.5C 769.607,184.614 761.607,184.114 753.5,185C 749.376,185.982 747.376,188.648 747.5,193C 747.795,195.923 749.129,198.257 751.5,200C 758.167,202 764.833,204 771.5,206C 778.463,209.693 781.796,215.526 781.5,223.5C 780.975,234.523 775.308,241.023 764.5,243C 754.731,243.95 745.065,243.45 735.5,241.5C 734.085,237.683 734.252,234.016 736,230.5C 746.131,234.05 756.298,234.216 766.5,231C 770.461,226.202 770.461,221.369 766.5,216.5C 758.395,213.973 750.395,211.14 742.5,208C 739.865,206.039 738.031,203.539 737,200.5C 733.812,184.834 739.978,175.834 755.5,173.5 Z"/></g>
<g><path style="opacity:0.886" fill="#000000" d="M 403.5,174.5 C 407.555,174.176 411.555,174.509 415.5,175.5C 422,193.167 428.5,210.833 435,228.5C 441.717,211.019 448.05,193.352 454,175.5C 458.066,174.536 462.233,174.203 466.5,174.5C 457.562,201.146 447.728,227.479 437,253.5C 430.667,263.584 421.5,268.25 409.5,267.5C 409.5,263.833 409.5,260.167 409.5,256.5C 419.782,257.22 426.116,252.554 428.5,242.5C 420.031,220.426 411.364,198.426 402.5,176.5C 402.863,175.817 403.196,175.15 403.5,174.5 Z"/></g>
</svg>
