<?xml version="1.0" encoding="UTF-8"?>
<!DOCTYPE svg PUBLIC "-//W3C//DTD SVG 1.1//EN" "http://www.w3.org/Graphics/SVG/1.1/DTD/svg11.dtd">
<svg xmlns="http://www.w3.org/2000/svg" version="1.1" width="900px" height="383px" style="shape-rendering:geometricPrecision; text-rendering:geometricPrecision; image-rendering:optimizeQuality; fill-rule:evenodd; clip-rule:evenodd" xmlns:xlink="http://www.w3.org/1999/xlink">
<g><path style="opacity:1" fill="#2b7bf7" d="M -0.5,-0.5 C 299.5,-0.5 599.5,-0.5 899.5,-0.5C 899.5,127.167 899.5,254.833 899.5,382.5C 599.5,382.5 299.5,382.5 -0.5,382.5C -0.5,254.833 -0.5,127.167 -0.5,-0.5 Z"/></g>
<g><path style="opacity:1" fill="#fcfdfe" d="M 172.5,99.5 C 210.033,98.6017 240.866,112.268 265,140.5C 286.39,169.133 291.39,200.467 280,234.5C 264.308,271.779 236.474,293.946 196.5,301C 172.185,304.137 149.018,300.304 127,289.5C 118.455,292.855 109.955,296.355 101.5,300C 93.5069,302.01 88.8403,299.01 87.5,291C 89.897,281.181 92.2304,271.348 94.5,261.5C 73.8395,232.683 69.0062,201.35 80,167.5C 97.6891,126.981 128.522,104.314 172.5,99.5 Z"/></g>
<g><path style="opacity:1" fill="#2c7bf7" d="M 168.5,114.5 C 214.985,111.81 247.818,131.477 267,173.5C 278.184,215.945 265.684,249.445 229.5,274C 195.36,292.472 161.527,291.972 128,272.5C 120.692,276.237 113.192,279.57 105.5,282.5C 106.172,274.311 107.838,266.144 110.5,258C 83.76,224.422 81.5933,189.256 104,152.5C 120.446,131.196 141.946,118.529 168.5,114.5 Z"/></g>
<g><path style="opacity:1" fill="#f8fafe" d="M 635.5,148.5 C 639.5,148.5 643.5,148.5 647.5,148.5C 647.5,179.833 647.5,211.167 647.5,242.5C 643.833,242.5 640.167,242.5 636.5,242.5C 636.813,239.753 636.48,237.086 635.5,234.5C 632.242,238.24 628.242,241.073 623.5,243C 597.54,246.712 585.207,235.379 586.5,209C 585.281,182.704 597.614,171.371 623.5,175C 628.84,176.41 632.673,179.577 635,184.5C 635.5,172.505 635.667,160.505 635.5,148.5 Z"/></g>
<g><path style="opacity:1" fill="#fdfdfe" d="M 798.5,148.5 C 802.167,148.5 805.833,148.5 809.5,148.5C 809.5,166.5 809.5,184.5 809.5,202.5C 811.144,202.714 812.644,202.38 814,201.5C 821.167,193 828.333,184.5 835.5,176C 840.167,175.333 844.833,175.333 849.5,176C 840.686,186.315 831.686,196.482 822.5,206.5C 831.978,218.479 841.644,230.312 851.5,242C 846.5,242.667 841.5,242.667 836.5,242C 829.333,232.833 822.167,223.667 815,214.5C 813.736,212.393 811.903,211.393 809.5,211.5C 809.5,221.833 809.5,232.167 809.5,242.5C 805.833,242.5 802.167,242.5 798.5,242.5C 798.5,211.167 798.5,179.833 798.5,148.5 Z"/></g>
<g><path style="opacity:1" fill="#fcfdfe" d="M 336.5,156.5 C 348.505,156.333 360.505,156.5 372.5,157C 381.691,157.863 387.524,162.696 390,171.5C 393.225,183.192 389.725,192.025 379.5,198C 389.383,200.721 394.05,207.221 393.5,217.5C 394.332,231.831 387.666,239.998 373.5,242C 361.171,242.5 348.838,242.667 336.5,242.5C 336.5,213.833 336.5,185.167 336.5,156.5 Z"/></g>
<g><path style="opacity:1" fill="#f8fafe" d="M 477.5,159.5 C 481.5,159.5 485.5,159.5 489.5,159.5C 489.5,164.833 489.5,170.167 489.5,175.5C 494.833,175.5 500.167,175.5 505.5,175.5C 505.5,178.833 505.5,182.167 505.5,185.5C 500.167,185.5 494.833,185.5 489.5,185.5C 489.049,200.572 489.549,215.572 491,230.5C 491.833,231.333 492.667,232.167 493.5,233C 497.821,233.499 502.154,233.666 506.5,233.5C 506.784,236.777 506.451,239.943 505.5,243C 498.302,244.054 491.302,243.388 484.5,241C 480.154,236.822 477.987,231.655 478,225.5C 477.5,212.171 477.333,198.837 477.5,185.5C 474.5,185.5 471.5,185.5 468.5,185.5C 468.5,182.167 468.5,178.833 468.5,175.5C 471.5,175.5 474.5,175.5 477.5,175.5C 477.5,170.167 477.5,164.833 477.5,159.5 Z"/></g>
<g><path style="opacity:1" fill="#fefefe" d="M 175.5,233.5 C 175.5,224.167 175.5,214.833 175.5,205.5C 166.167,205.5 156.833,205.5 147.5,205.5C 146.514,201.03 146.181,196.363 146.5,191.5C 156.167,191.5 165.833,191.5 175.5,191.5C 175.5,181.833 175.5,172.167 175.5,162.5C 180.099,162.2 184.599,162.533 189,163.5C 189.5,172.827 189.666,182.161 189.5,191.5C 198.839,191.334 208.173,191.5 217.5,192C 218.833,196.333 218.833,200.667 217.5,205C 208.173,205.5 198.839,205.666 189.5,205.5C 189.5,215.167 189.5,224.833 189.5,234.5C 184.637,234.819 179.97,234.486 175.5,233.5 Z"/></g>
<g><path style="opacity:1" fill="#2c7bf7" d="M 348.5,166.5 C 356.202,166.431 363.869,166.931 371.5,168C 377.012,169.851 379.345,173.684 378.5,179.5C 379.122,185.432 376.788,189.598 371.5,192C 363.895,193.311 356.228,193.811 348.5,193.5C 348.5,184.5 348.5,175.5 348.5,166.5 Z"/></g>
<g><path style="opacity:1" fill="#fafcfe" d="M 535.5,174.5 C 562.938,170.938 575.271,182.938 572.5,210.5C 557.474,211.227 542.474,212.227 527.5,213.5C 526.281,222.234 529.614,228.4 537.5,232C 542.746,233.506 548.079,233.839 553.5,233C 558.92,232.145 564.253,230.978 569.5,229.5C 569.665,232.85 569.498,236.183 569,239.5C 528.201,252.607 510.534,237.94 516,195.5C 518.283,184.39 524.783,177.39 535.5,174.5 Z"/></g>
<g><path style="opacity:1" fill="#fbfcfe" d="M 684.5,174.5 C 712.267,170.724 724.6,182.724 721.5,210.5C 706.483,211.368 691.483,212.368 676.5,213.5C 675.813,221.967 679.147,228.133 686.5,232C 692.08,233.517 697.747,233.851 703.5,233C 708.587,232.136 713.587,230.97 718.5,229.5C 718.5,233.167 718.5,236.833 718.5,240.5C 675.515,252.267 658.015,236.267 666,192.5C 668.878,183.002 675.044,177.002 684.5,174.5 Z"/></g>
<g><path style="opacity:1" fill="#fafbfe" d="M 750.5,174.5 C 757.508,174.334 764.508,174.5 771.5,175C 773.433,175.251 775.266,175.751 777,176.5C 777.824,179.882 777.657,183.216 776.5,186.5C 769.301,184.459 761.967,183.626 754.5,184C 748.005,185.846 745.838,190.012 748,196.5C 748.465,197.931 749.299,199.097 750.5,200C 756.019,202.13 761.686,203.797 767.5,205C 779.248,209.499 783.415,217.999 780,230.5C 776.726,238.089 770.893,242.255 762.5,243C 753.729,243.916 745.062,243.416 736.5,241.5C 735.513,238.232 735.18,234.898 735.5,231.5C 744.405,233.381 753.405,233.881 762.5,233C 765.494,232.594 767.661,231.094 769,228.5C 769.667,225.167 769.667,221.833 769,218.5C 768.167,217.667 767.333,216.833 766.5,216C 758.674,213.793 751.008,211.127 743.5,208C 736.956,202.332 734.789,195.165 737,186.5C 739.85,180.514 744.35,176.514 750.5,174.5 Z"/></g>
<g><path style="opacity:1" fill="#fafcfe" d="M 417.5,266.5 C 415.167,266.5 412.833,266.5 410.5,266.5C 410.5,263.5 410.5,260.5 410.5,257.5C 420.499,257.182 426.499,252.182 428.5,242.5C 419.961,220.214 411.628,197.881 403.5,175.5C 407.555,175.176 411.555,175.509 415.5,176.5C 422,194.167 428.5,211.833 435,229.5C 441.717,212.019 448.05,194.352 454,176.5C 457.73,175.54 461.563,175.207 465.5,175.5C 456.699,201.401 447.199,227.068 437,252.5C 432.717,260.227 426.217,264.894 417.5,266.5 Z"/></g>
<g><path style="opacity:1" fill="#307cf7" d="M 560.5,194.5 C 560.5,196.833 560.5,199.167 560.5,201.5C 559.209,201.263 558.209,201.596 557.5,202.5C 547.455,202.694 537.455,203.36 527.5,204.5C 527.113,188.724 534.779,181.89 550.5,184C 556.058,185.391 559.391,188.891 560.5,194.5 Z"/></g>
<g><path style="opacity:1" fill="#2d7bf7" d="M 609.5,184.5 C 616.549,183.718 623.216,184.885 629.5,188C 631.986,191.137 633.819,194.637 635,198.5C 635.901,206.579 635.568,214.579 634,222.5C 632.395,228.438 628.562,231.938 622.5,233C 611.047,236.323 603.547,232.489 600,221.5C 598.418,212.798 598.418,204.131 600,195.5C 601.627,190.382 604.793,186.715 609.5,184.5 Z"/></g>
<g><path style="opacity:1" fill="#317df7" d="M 689.5,183.5 C 703.85,181.854 710.85,188.187 710.5,202.5C 699.122,202.504 687.788,203.171 676.5,204.5C 675.571,193.991 679.904,186.991 689.5,183.5 Z"/></g>
<g><path style="opacity:1" fill="#89b3fa" d="M 560.5,194.5 C 561.473,196.948 561.806,199.615 561.5,202.5C 560.167,202.5 558.833,202.5 557.5,202.5C 558.209,201.596 559.209,201.263 560.5,201.5C 560.5,199.167 560.5,196.833 560.5,194.5 Z"/></g>
<g><path style="opacity:1" fill="#2d7bf7" d="M 348.5,203.5 C 357.643,203.007 366.643,203.841 375.5,206C 379.722,208.609 381.722,212.442 381.5,217.5C 381.479,228.016 376.146,232.849 365.5,232C 359.843,232.499 354.176,232.666 348.5,232.5C 348.5,222.833 348.5,213.167 348.5,203.5 Z"/></g>
<g><path style="opacity:1" fill="#6ea4f9" d="M 147.5,205.5 C 156.833,205.5 166.167,205.5 175.5,205.5C 175.5,214.833 175.5,224.167 175.5,233.5C 174.507,224.682 174.173,215.682 174.5,206.5C 165.318,206.827 156.318,206.493 147.5,205.5 Z"/></g>
<g><path style="opacity:1" fill="#bad2fc" d="M 410.5,257.5 C 410.5,260.5 410.5,263.5 410.5,266.5C 412.833,266.5 415.167,266.5 417.5,266.5C 415.052,267.473 412.385,267.806 409.5,267.5C 409.187,263.958 409.521,260.625 410.5,257.5 Z"/></g>
</svg>
