<?xml version="1.0" encoding="UTF-8"?>
<!DOCTYPE svg PUBLIC "-//W3C//DTD SVG 1.1//EN" "http://www.w3.org/Graphics/SVG/1.1/DTD/svg11.dtd">
<svg xmlns="http://www.w3.org/2000/svg" version="1.1" width="1024px" height="1024px" style="shape-rendering:geometricPrecision; text-rendering:geometricPrecision; image-rendering:optimizeQuality; fill-rule:evenodd; clip-rule:evenodd" xmlns:xlink="http://www.w3.org/1999/xlink">
<g><path style="opacity:0.943" fill="#fefffe" d="M 482.5,200.5 C 593.742,194.029 686.575,230.696 761,310.5C 820.684,381.422 844.684,463.422 833,556.5C 824.29,605.213 805.79,649.546 777.5,689.5C 722.569,761.593 649.402,804.593 558,818.5C 508.633,824.226 460.133,820.559 412.5,807.5C 402.076,803.603 391.576,799.936 381,796.5C 370.26,791.675 359.76,786.342 349.5,780.5C 321.405,793.548 293.071,806.048 264.5,818C 256.946,818.71 249.612,817.71 242.5,815C 235.588,810.177 230.588,803.844 227.5,796C 226.987,793.358 226.654,790.691 226.5,788C 228.161,779.183 229.827,770.349 231.5,761.5C 237.077,739.892 242.41,718.226 247.5,696.5C 244.026,689.342 239.692,682.676 234.5,676.5C 185.925,600.039 172.925,517.705 195.5,429.5C 223.402,341.514 277.902,276.514 359,234.5C 398.276,215.886 439.443,204.553 482.5,200.5 Z M 504.5,245.5 C 605.264,246.634 685.097,286.634 744,365.5C 794.961,444.275 802.795,527.442 767.5,615C 732.081,685.755 676.747,734.255 601.5,760.5C 537.698,780.298 474.198,779.298 411,757.5C 404.238,755.121 397.571,752.454 391,749.5C 377.891,742.696 364.724,736.029 351.5,729.5C 327.469,738.782 303.969,749.115 281,760.5C 285.81,735.169 291.643,710.003 298.5,685C 298.167,683.833 297.833,682.667 297.5,681.5C 236.399,609.763 218.065,527.763 242.5,435.5C 263.331,374.615 300.331,326.782 353.5,292C 399.722,263.382 450.055,247.882 504.5,245.5 Z"/></g>
<g><path style="opacity:0.937" fill="#fefffe" d="M 498.5,390.5 C 510.838,390.333 523.171,390.5 535.5,391C 537.381,392.102 539.048,393.435 540.5,395C 541.488,423.135 541.821,451.301 541.5,479.5C 569.169,479.333 596.835,479.5 624.5,480C 627.102,481.015 628.935,482.848 630,485.5C 630.833,497.181 630.666,508.848 629.5,520.5C 628.769,522.805 627.436,524.638 625.5,526C 597.502,526.5 569.502,526.667 541.5,526.5C 541.667,554.169 541.5,581.835 541,609.5C 540.487,611.521 539.32,613.021 537.5,614C 524.5,614.667 511.5,614.667 498.5,614C 496.667,613.5 495.5,612.333 495,610.5C 494.5,582.502 494.333,554.502 494.5,526.5C 466.498,526.667 438.498,526.5 410.5,526C 408.667,525.5 407.5,524.333 407,522.5C 406.333,509.5 406.333,496.5 407,483.5C 407.833,482 409,480.833 410.5,480C 438.498,479.5 466.498,479.333 494.5,479.5C 494.333,451.498 494.5,423.498 495,395.5C 496.649,394.115 497.816,392.449 498.5,390.5 Z"/></g>
</svg>
