<?xml version="1.0" encoding="utf-8"?>
<!-- Generator: Adobe Illustrator 23.0.0, SVG Export Plug-In . SVG Version: 6.00 Build 0)  -->
<svg version="1.1" id="Badges" xmlns="http://www.w3.org/2000/svg" xmlns:xlink="http://www.w3.org/1999/xlink" x="0px" y="0px"
	 viewBox="0 0 128 40" style="enable-background:new 0 0 128 40;" xml:space="preserve">
<style type="text/css">
	.st0{fill:#FFFFFF;}
</style>
<g>
	<path d="M124,40H4c-2.2,0-4-1.8-4-4V4c0-2.2,1.8-4,4-4h120c2.2,0,4,1.8,4,4v32C128,38.2,126.2,40,124,40z"/>
	<path class="st0" d="M27,19.8c0-3.1,2.6-4.6,2.7-4.7c-1.5-2.1-3.7-2.4-4.5-2.5c-1.9-0.2-3.8,1.1-4.7,1.1c-1,0-2.5-1.1-4.1-1.1
		c-2.1,0-4,1.2-5.1,3.1c-2.2,3.8-0.6,9.4,1.5,12.5c1.1,1.5,2.3,3.2,3.9,3.1c1.6-0.1,2.2-1,4.1-1c1.9,0,2.4,1,4.1,1s2.8-1.5,3.8-3
		c1.2-1.7,1.7-3.4,1.7-3.5C30.3,24.7,27,23.5,27,19.8z"/>
	<path class="st0" d="M23.9,10.6c0.8-1.1,1.4-2.5,1.3-4c-1.2,0.1-2.8,0.8-3.6,1.9c-0.8,0.9-1.5,2.4-1.3,3.8
		C21.6,12.4,23,11.6,23.9,10.6z"/>
	<path class="st0" d="M49.8,31.1h-2.2l-1.2-3.8h-4.2l-1.1,3.8H39l4.2-12.9h2.6L49.8,31.1z M46,25.7l-1.1-3.4
		c-0.1-0.3-0.3-1.2-0.7-2.4l0,0c-0.1,0.5-0.3,1.4-0.6,2.4l-1.1,3.4H46z"/>
	<path class="st0" d="M60.5,26.4c0,1.6-0.4,2.8-1.3,3.8c-0.8,0.8-1.7,1.2-2.9,1.2c-1.2,0-2.1-0.4-2.6-1.3l0,0V35h-2.1V25
		c0-1,0-2-0.1-3.1h1.8l0.1,1.5l0,0c0.7-1.1,1.7-1.7,3.1-1.7c1.1,0,2,0.4,2.7,1.3C60.1,23.8,60.5,24.9,60.5,26.4z M58.4,26.4
		c0-0.9-0.2-1.7-0.6-2.2c-0.4-0.6-1-0.9-1.8-0.9c-0.5,0-1,0.2-1.4,0.5s-0.7,0.8-0.8,1.3c-0.1,0.3-0.1,0.5-0.1,0.6v1.6
		c0,0.7,0.2,1.2,0.6,1.7s1,0.7,1.6,0.7c0.8,0,1.4-0.3,1.8-0.9C58.2,28.2,58.4,27.4,58.4,26.4z"/>
	<path class="st0" d="M71.2,26.4c0,1.6-0.4,2.8-1.3,3.8c-0.8,0.8-1.7,1.2-2.9,1.2s-2.1-0.4-2.6-1.3l0,0V35h-2.1V25c0-1,0-2-0.1-3.1
		H64l0.1,1.5l0,0c0.7-1.1,1.7-1.7,3.1-1.7c1.1,0,2,0.4,2.7,1.3C70.8,23.8,71.2,24.9,71.2,26.4z M69.1,26.4c0-0.9-0.2-1.7-0.6-2.2
		c-0.4-0.6-1-0.9-1.8-0.9c-0.5,0-1,0.2-1.4,0.5c-0.4,0.3-0.7,0.8-0.8,1.3c-0.1,0.3-0.1,0.5-0.1,0.6v1.6c0,0.7,0.2,1.2,0.6,1.7
		c0.4,0.5,1,0.7,1.6,0.7c0.8,0,1.4-0.3,1.8-0.9C68.9,28.2,69.1,27.4,69.1,26.4z"/>
	<path class="st0" d="M83.2,27.5c0,1.1-0.4,2-1.1,2.7c-0.8,0.8-2,1.1-3.5,1.1c-1.4,0-2.5-0.3-3.3-0.8l0.5-1.7c0.9,0.5,1.9,0.8,3,0.8
		c0.8,0,1.4-0.2,1.8-0.5c0.4-0.4,0.6-0.8,0.6-1.4c0-0.5-0.2-1-0.5-1.3c-0.4-0.4-1-0.7-1.8-1c-2.3-0.8-3.4-2.1-3.4-3.7
		c0-1.1,0.4-1.9,1.2-2.6c0.8-0.7,1.8-1,3.2-1c1.2,0,2.1,0.2,2.9,0.6l-0.5,1.7c-0.7-0.4-1.5-0.6-2.5-0.6c-0.7,0-1.3,0.2-1.7,0.5
		c-0.3,0.3-0.5,0.7-0.5,1.2s0.2,0.9,0.6,1.3c0.3,0.3,1,0.6,1.9,1c1.1,0.4,1.9,1,2.5,1.6C82.9,25.9,83.2,26.6,83.2,27.5z"/>
	<path class="st0" d="M90,23.4h-2.3v4.5c0,1.1,0.4,1.7,1.2,1.7c0.4,0,0.7,0,0.9-0.1l0.1,1.6c-0.4,0.2-0.9,0.2-1.6,0.2
		c-0.8,0-1.5-0.2-1.9-0.7c-0.5-0.5-0.7-1.3-0.7-2.5v-4.7h-1.4v-1.6h1.4v-1.7l2-0.6v2.3H90V23.4z"/>
	<path class="st0" d="M100.3,26.4c0,1.4-0.4,2.6-1.2,3.5c-0.9,0.9-2,1.4-3.4,1.4s-2.5-0.5-3.3-1.4s-1.2-2-1.2-3.4s0.4-2.6,1.3-3.5
		c0.8-0.9,2-1.4,3.4-1.4s2.5,0.5,3.3,1.4C99.9,23.9,100.3,25,100.3,26.4z M98.1,26.5c0-0.9-0.2-1.6-0.6-2.2
		c-0.4-0.7-1.1-1.1-1.9-1.1c-0.8,0-1.5,0.4-1.9,1.1c-0.4,0.6-0.6,1.4-0.6,2.2c0,0.9,0.2,1.6,0.6,2.2c0.4,0.7,1.1,1.1,1.9,1.1
		c0.8,0,1.4-0.4,1.9-1.1C97.9,28.1,98.1,27.3,98.1,26.5z"/>
	<path class="st0" d="M107,23.6c-0.2,0-0.4-0.1-0.7-0.1c-0.7,0-1.3,0.3-1.7,0.8c-0.3,0.5-0.5,1.1-0.5,1.8V31H102v-6.4
		c0-1.1,0-2-0.1-2.9h1.8l0.1,1.8h0.1c0.2-0.6,0.6-1.1,1-1.5c0.5-0.3,1-0.5,1.5-0.5c0.2,0,0.4,0,0.5,0L107,23.6L107,23.6z"/>
	<path class="st0" d="M116.2,26c0,0.4,0,0.7-0.1,0.9h-6.2c0,0.9,0.3,1.6,0.9,2.1c0.5,0.4,1.2,0.7,2,0.7c0.9,0,1.8-0.1,2.5-0.4
		l0.3,1.4c-0.9,0.4-1.9,0.6-3.1,0.6c-1.4,0-2.6-0.4-3.4-1.3c-0.8-0.8-1.2-2-1.2-3.4s0.4-2.6,1.1-3.5c0.8-1,1.9-1.5,3.3-1.5
		c1.3,0,2.4,0.5,3,1.5C116,23.9,116.2,24.9,116.2,26z M114.3,25.5c0-0.6-0.1-1.1-0.4-1.6c-0.4-0.6-0.9-0.9-1.6-0.9
		c-0.7,0-1.2,0.3-1.6,0.8c-0.3,0.4-0.5,1-0.6,1.6h4.2V25.5z"/>
	<path class="st0" d="M45.4,10.3c0,1.1-0.3,2-1,2.6c-0.6,0.5-1.5,0.8-2.7,0.8c-0.6,0-1.1,0-1.5-0.1V7.4c0.5-0.1,1.1-0.1,1.8-0.1
		c1.1,0,1.9,0.2,2.5,0.7C45,8.5,45.4,9.3,45.4,10.3z M44.3,10.3c0-0.7-0.2-1.3-0.6-1.7C43.3,8.2,42.7,8,42,8c-0.3,0-0.6,0-0.8,0.1
		v4.7c0.1,0,0.4,0,0.7,0c0.8,0,1.4-0.2,1.8-0.6S44.3,11.1,44.3,10.3z"/>
	<path class="st0" d="M51,11.3c0,0.7-0.2,1.3-0.6,1.7c-0.4,0.5-1,0.7-1.7,0.7s-1.2-0.2-1.6-0.7c-0.4-0.4-0.6-1-0.6-1.7
		s0.2-1.3,0.6-1.7c0.4-0.5,1-0.7,1.7-0.7s1.2,0.2,1.6,0.7C50.8,10,51,10.6,51,11.3z M50,11.3c0-0.4-0.1-0.8-0.3-1.1
		c-0.2-0.4-0.5-0.5-0.9-0.5s-0.7,0.2-0.9,0.5c-0.2,0.3-0.3,0.7-0.3,1.1s0.1,0.8,0.3,1.1c0.2,0.4,0.5,0.5,0.9,0.5s0.7-0.2,0.9-0.6
		C49.9,12.1,50,11.7,50,11.3z"/>
	<path class="st0" d="M58.7,9l-1.4,4.6h-0.9l-0.6-2c-0.2-0.5-0.3-1-0.4-1.5l0,0c-0.1,0.5-0.2,1-0.4,1.5l-0.6,2h-0.9L52,9h1l0.5,2.2
		c0.1,0.5,0.2,1,0.3,1.5l0,0c0.1-0.4,0.2-0.9,0.4-1.5L54.8,9h0.8l0.6,2.1c0.2,0.5,0.3,1,0.4,1.5l0,0c0.1-0.5,0.2-1,0.3-1.5L57.5,9
		H58.7z"/>
	<path class="st0" d="M63.9,13.6h-1V11c0-0.8-0.3-1.2-0.9-1.2c-0.3,0-0.5,0.1-0.7,0.3c-0.2,0.2-0.3,0.5-0.3,0.8v2.7h-1v-3.3
		c0-0.4,0-0.8,0-1.3h0.9v0.7l0,0c0.1-0.2,0.3-0.4,0.5-0.6c0.3-0.2,0.6-0.3,0.9-0.3c0.4,0,0.8,0.1,1.1,0.4c0.4,0.3,0.5,0.8,0.5,1.5
		V13.6z"/>
	<path class="st0" d="M66.7,13.6h-1V6.9h1V13.6z"/>
	<path class="st0" d="M72.7,11.3c0,0.7-0.2,1.3-0.6,1.7c-0.4,0.5-1,0.7-1.7,0.7s-1.2-0.2-1.6-0.7c-0.4-0.4-0.6-1-0.6-1.7
		s0.2-1.3,0.6-1.7c0.4-0.4,1-0.7,1.7-0.7s1.2,0.2,1.6,0.7C72.5,10,72.7,10.6,72.7,11.3z M71.7,11.3c0-0.4-0.1-0.8-0.3-1.1
		c-0.2-0.4-0.5-0.5-0.9-0.5c-0.4,0-0.7,0.2-0.9,0.5c-0.2,0.3-0.3,0.7-0.3,1.1s0.1,0.8,0.3,1.1c0.2,0.4,0.5,0.5,0.9,0.5
		c0.4,0,0.7-0.2,0.9-0.6C71.6,12.1,71.7,11.7,71.7,11.3z"/>
	<path class="st0" d="M77.6,13.6h-0.9l-0.1-0.5l0,0c-0.3,0.4-0.8,0.6-1.3,0.6c-0.4,0-0.8-0.1-1-0.4c-0.2-0.3-0.4-0.6-0.4-0.9
		c0-0.6,0.2-1,0.7-1.3s1.1-0.4,2-0.4v-0.1c0-0.6-0.3-0.9-0.9-0.9c-0.5,0-0.8,0.1-1.2,0.3l-0.2-0.7c0.4-0.3,0.9-0.4,1.6-0.4
		c1.2,0,1.8,0.6,1.8,1.9v1.7C77.6,13,77.6,13.3,77.6,13.6z M76.6,12v-0.7c-1.1,0-1.7,0.3-1.7,0.9c0,0.2,0.1,0.4,0.2,0.5
		c0.1,0.1,0.3,0.2,0.5,0.2s0.4-0.1,0.6-0.2s0.3-0.3,0.4-0.5C76.6,12.2,76.6,12.1,76.6,12z"/>
	<path class="st0" d="M83.4,13.6h-0.9v-0.7l0,0c-0.3,0.6-0.8,0.8-1.5,0.8c-0.6,0-1-0.2-1.4-0.6c-0.4-0.4-0.5-1-0.5-1.7
		s0.2-1.3,0.6-1.8C80.1,9.2,80.6,9,81.1,9c0.6,0,1,0.2,1.3,0.6l0,0V7h1v5.4C83.4,12.8,83.4,13.2,83.4,13.6z M82.4,11.7v-0.8
		c0-0.1,0-0.2,0-0.3c-0.1-0.2-0.2-0.4-0.4-0.6s-0.4-0.2-0.7-0.2c-0.4,0-0.7,0.2-0.9,0.5c-0.2,0.3-0.3,0.7-0.3,1.2s0.1,0.8,0.3,1.1
		c0.2,0.3,0.5,0.5,0.9,0.5c0.3,0,0.6-0.1,0.8-0.4C82.3,12.3,82.4,12,82.4,11.7z"/>
	<path class="st0" d="M92.1,11.3c0,0.7-0.2,1.3-0.6,1.7c-0.4,0.5-1,0.7-1.7,0.7s-1.2-0.2-1.6-0.7c-0.4-0.4-0.6-1-0.6-1.7
		s0.2-1.3,0.6-1.7c0.4-0.5,1-0.7,1.7-0.7s1.2,0.2,1.6,0.7C91.9,10,92.1,10.6,92.1,11.3z M91,11.3c0-0.4-0.1-0.8-0.3-1.1
		c-0.2-0.4-0.5-0.5-0.9-0.5s-0.7,0.2-0.9,0.5s-0.3,0.7-0.3,1.1s0.1,0.8,0.3,1.1c0.2,0.4,0.5,0.5,0.9,0.5s0.7-0.2,0.9-0.6
		C90.9,12.1,91,11.7,91,11.3z"/>
	<path class="st0" d="M97.6,13.6h-1V11c0-0.8-0.3-1.2-0.9-1.2c-0.3,0-0.5,0.1-0.7,0.3c-0.2,0.2-0.3,0.5-0.3,0.8v2.7h-1v-3.3
		c0-0.4,0-0.8,0-1.3h0.9v0.7l0,0c0.1-0.2,0.3-0.4,0.5-0.6c0.3-0.2,0.6-0.3,0.9-0.3c0.4,0,0.8,0.1,1.1,0.4c0.4,0.3,0.5,0.8,0.5,1.5
		V13.6z"/>
	<path class="st0" d="M104.4,9.8h-1.1V12c0,0.6,0.2,0.8,0.6,0.8c0.2,0,0.3,0,0.5,0v0.8c-0.2,0.1-0.5,0.1-0.8,0.1
		c-0.4,0-0.7-0.1-0.9-0.4c-0.2-0.2-0.3-0.7-0.3-1.2V9.8h-0.7V9h0.7V8.2l1-0.3V9h1.1v0.8H104.4z"/>
	<path class="st0" d="M109.8,13.6h-1V11c0-0.8-0.3-1.2-0.9-1.2c-0.5,0-0.8,0.2-1,0.7c0,0.1,0,0.2,0,0.4v2.7h-1V6.9h1v2.8l0,0
		c0.3-0.5,0.8-0.8,1.4-0.8c0.4,0,0.8,0.1,1,0.4c0.3,0.3,0.5,0.9,0.5,1.5V13.6z"/>
	<path class="st0" d="M115.3,11.1c0,0.2,0,0.3,0,0.5h-3c0,0.5,0.2,0.8,0.4,1c0.3,0.2,0.6,0.3,1,0.3c0.5,0,0.9-0.1,1.2-0.2l0.2,0.7
		c-0.4,0.2-0.9,0.3-1.5,0.3c-0.7,0-1.3-0.2-1.7-0.6c-0.4-0.4-0.6-1-0.6-1.7s0.2-1.3,0.6-1.7c0.4-0.5,0.9-0.7,1.6-0.7
		c0.7,0,1.2,0.2,1.5,0.7C115.2,10,115.3,10.5,115.3,11.1z M114.4,10.8c0-0.3-0.1-0.6-0.2-0.8c-0.2-0.3-0.4-0.4-0.8-0.4
		c-0.3,0-0.6,0.1-0.8,0.4c-0.2,0.2-0.3,0.5-0.3,0.8H114.4z"/>
</g>
</svg>
