<?xml version="1.0" encoding="UTF-8"?>
<svg width="90px" height="90px" viewBox="0 0 90 90" version="1.1" xmlns="http://www.w3.org/2000/svg" xmlns:xlink="http://www.w3.org/1999/xlink">
    <title>Help Center</title>
    <g stroke="none" stroke-width="1" fill="none" fill-rule="evenodd">
        <g transform="translate(5.000000, 5.000000)" stroke="#3578E5" stroke-width="2">
            <path d="M40,75 C58.2107,75 73,60.2107 73,42 C73,23.7893 58.2107,9 40,9 C21.7893,9 7,23.7893 7,42 C7,51.9413 11.0267,60.8233 17.5,67.0003 L12,75 L25,72.7143 C29.635,74.1941 34.6767,75 40,75 Z" stroke-linecap="round" stroke-linejoin="round"></path>
            <circle cx="40" cy="40" r="25"></circle>
            <path d="M35,28 C35,25.2386 37.2386,23 40,23 C42.7614,23 45,25.2386 45,28 C45,30.7614 42.7614,33 40,33 L40,40" stroke-linecap="round"></path>
            <circle cx="40" cy="48" r="2"></circle>
        </g>
    </g>
</svg>