<?xml version="1.0" encoding="utf-8"?>
<!-- Generator: Adobe Illustrator 18.0.0, SVG Export Plug-In . SVG Version: 6.00 Build 0)  -->
<!DOCTYPE svg PUBLIC "-//W3C//DTD SVG 1.1//EN" "http://www.w3.org/Graphics/SVG/1.1/DTD/svg11.dtd">
<svg version="1.1" id="Layer_1" xmlns="http://www.w3.org/2000/svg" xmlns:xlink="http://www.w3.org/1999/xlink" x="0px" y="0px"
	 viewBox="0 0 64 64" enable-background="new 0 0 64 64" xml:space="preserve">
<g id="XMLID_11_">
	<g>
		<g>
			<path fill="#FFFFFF" d="M63,21v22c0,2.2-1.8,4-4,4h-3v8l-8-8H27c-2.2,0-4-1.8-4-4v-4h14c2.2,0,4-1.8,4-4V17h18
				C61.2,17,63,18.8,63,21z"/>
		</g>
		<g>
			<path fill="#8C8CEA" d="M41,17v18c0,2.2-1.8,4-4,4H23h-7l-8,8v-8H5c-2.2,0-4-1.8-4-4V13c0-2.2,1.8-4,4-4h32c2.2,0,4,1.8,4,4V17z
				 M34,24c0-1.7-1.3-3-3-3s-3,1.3-3,3s1.3,3,3,3S34,25.7,34,24z M24,24c0-1.7-1.3-3-3-3s-3,1.3-3,3s1.3,3,3,3S24,25.7,24,24z
				 M14,24c0-1.7-1.3-3-3-3s-3,1.3-3,3s1.3,3,3,3S14,25.7,14,24z"/>
		</g>
		<g>
			<path fill="#FFFFFF" d="M31,21c1.7,0,3,1.3,3,3s-1.3,3-3,3s-3-1.3-3-3S29.3,21,31,21z"/>
		</g>
		<g>
			<path fill="#FFFFFF" d="M21,21c1.7,0,3,1.3,3,3s-1.3,3-3,3s-3-1.3-3-3S19.3,21,21,21z"/>
		</g>
		<g>
			<path fill="#FFFFFF" d="M11,21c1.7,0,3,1.3,3,3s-1.3,3-3,3s-3-1.3-3-3S9.3,21,11,21z"/>
		</g>
	</g>
	<g>
		<g>
			<path fill="#2C2C3D" d="M8,48c-0.1,0-0.3,0-0.4-0.1C7.2,47.8,7,47.4,7,47v-7H5c-2.8,0-5-2.2-5-5V13c0-2.8,2.2-5,5-5h32
				c2.8,0,5,2.2,5,5v22c0,2.8-2.2,5-5,5H16.4l-7.7,7.7C8.5,47.9,8.3,48,8,48z M5,10c-1.7,0-3,1.3-3,3v22c0,1.7,1.3,3,3,3h3
				c0.6,0,1,0.4,1,1v5.6l6.3-6.3c0.2-0.2,0.4-0.3,0.7-0.3h21c1.7,0,3-1.3,3-3V13c0-1.7-1.3-3-3-3H5z"/>
		</g>
		<g>
			<path fill="#2C2C3D" d="M56,56c-0.3,0-0.5-0.1-0.7-0.3L47.6,48H27c-2.8,0-5-2.2-5-5v-4c0-0.6,0.4-1,1-1s1,0.4,1,1v4
				c0,1.7,1.3,3,3,3h21c0.3,0,0.5,0.1,0.7,0.3l6.3,6.3V47c0-0.6,0.4-1,1-1h3c1.7,0,3-1.3,3-3V21c0-1.7-1.3-3-3-3H41
				c-0.6,0-1-0.4-1-1s0.4-1,1-1h18c2.8,0,5,2.2,5,5v22c0,2.8-2.2,5-5,5h-2v7c0,0.4-0.2,0.8-0.6,0.9C56.3,56,56.1,56,56,56z"/>
		</g>
		<g>
			<path fill="#2C2C3D" d="M11,28c-2.2,0-4-1.8-4-4s1.8-4,4-4s4,1.8,4,4S13.2,28,11,28z M11,22c-1.1,0-2,0.9-2,2s0.9,2,2,2
				s2-0.9,2-2S12.1,22,11,22z"/>
		</g>
		<g>
			<path fill="#2C2C3D" d="M21,28c-2.2,0-4-1.8-4-4s1.8-4,4-4s4,1.8,4,4S23.2,28,21,28z M21,22c-1.1,0-2,0.9-2,2s0.9,2,2,2
				s2-0.9,2-2S22.1,22,21,22z"/>
		</g>
		<g>
			<path fill="#2C2C3D" d="M31,28c-2.2,0-4-1.8-4-4s1.8-4,4-4s4,1.8,4,4S33.2,28,31,28z M31,22c-1.1,0-2,0.9-2,2s0.9,2,2,2
				s2-0.9,2-2S32.1,22,31,22z"/>
		</g>
	</g>
</g>
</svg>
