<?xml version="1.0" encoding="utf-8"?>
<!-- Generator: Adobe Illustrator 18.0.0, SVG Export Plug-In . SVG Version: 6.00 Build 0)  -->
<!DOCTYPE svg PUBLIC "-//W3C//DTD SVG 1.1//EN" "http://www.w3.org/Graphics/SVG/1.1/DTD/svg11.dtd">
<svg version="1.1" id="Layer_1" xmlns="http://www.w3.org/2000/svg" xmlns:xlink="http://www.w3.org/1999/xlink" x="0px" y="0px"
	 viewBox="0 0 64 64" enable-background="new 0 0 64 64" xml:space="preserve">
<g id="XMLID_10_">
	<g>
		<g>
			<path fill="#F75C5C" d="M23,25c-1.7,0-3,1.3-3,3s1.3,3,3,3s3-1.3,3-3S24.7,25,23,25z M36,28c0-1.7-1.3-3-3-3s-3,1.3-3,3
				s1.3,3,3,3S36,29.7,36,28z M16,28c0-1.7-1.3-3-3-3s-3,1.3-3,3s1.3,3,3,3S16,29.7,16,28z M39.7,15.8C43,19,45,23,45,27.5
				c0,9.5-9,17.3-20.4,18c-0.5,0-1.1,0-1.6,0c-2.5,0-4.8-0.4-7-1c0,0-3.8,4-11,4c4-2.9,4-7,4-7c-4.9-3.3-8-8.4-8-14
				c0-9.9,9.9-18,22-18C29.7,9.5,35.7,11.9,39.7,15.8z"/>
		</g>
		<g>
			<path fill="#FFFFFF" d="M10,28c0-1.7,1.3-3,3-3s3,1.3,3,3s-1.3,3-3,3S10,29.7,10,28z"/>
		</g>
		<g>
			<path fill="#FFFFFF" d="M23,25c1.7,0,3,1.3,3,3s-1.3,3-3,3s-3-1.3-3-3S21.3,25,23,25z"/>
		</g>
		<g>
			<path fill="#FFFFFF" d="M33,25c1.7,0,3,1.3,3,3s-1.3,3-3,3s-3-1.3-3-3S31.3,25,33,25z"/>
		</g>
		<g>
			<path fill="#FFFFFF" d="M63,33.5c0,5.6-3.1,10.7-8,14c0,0,0,4.1,4,7c-7.2,0-11-4-11-4c-2.2,0.6-4.5,1-7,1c-6.5,0-12.4-2.3-16.4-6
				v0C36,44.8,45,37,45,27.5c0-4.5-2-8.5-5.3-11.7l0.3-0.3c0.3,0,0.7,0,1,0C53.2,15.5,63,23.6,63,33.5z"/>
		</g>
	</g>
	<g>
		<g>
			<path fill="#2C2C3D" d="M5.1,49.5C5.1,49.5,5,49.5,5.1,49.5c-0.5,0-0.9-0.3-1-0.7c-0.1-0.4,0-0.9,0.4-1.1c2.8-2,3.4-4.6,3.5-5.7
				c-5-3.6-8-9-8-14.5c0-10.5,10.3-19,23-19c6.7,0,13,2.4,17.4,6.6C44,18.5,46,22.9,46,27.5c0,9.9-9.4,18.2-21.3,18.9
				c-2.7,0.2-5.4-0.1-8.4-0.8C15,46.7,11.3,49.5,5.1,49.5z M23,10.5c-11.6,0-21,7.6-21,17c0,5.1,2.8,9.9,7.6,13.2
				c0.3,0.2,0.4,0.5,0.4,0.8c0,0.2,0,3-2.3,5.8c4.9-0.8,7.5-3.5,7.6-3.5c0.3-0.3,0.6-0.4,1-0.3c3,0.8,5.7,1.1,8.3,0.9
				c10.9-0.6,19.5-8.1,19.5-17c0-4-1.8-7.9-5-11C35,12.7,29.2,10.5,23,10.5z"/>
		</g>
		<g>
			<path fill="#2C2C3D" d="M58.9,55.5c-6.2,0-10-2.8-11.2-3.9c-2.3,0.6-4.6,0.9-6.7,0.9c-6.5,0-12.7-2.3-17.1-6.3
				c-0.4-0.4-0.4-1-0.1-1.4s1-0.4,1.4-0.1c4,3.6,9.7,5.7,15.7,5.7c2.2,0,4.4-0.3,6.7-1c0.4-0.1,0.7,0,1,0.3c0,0,2.6,2.7,7.6,3.5
				C54,50.5,54,47.7,54,47.5c0-0.3,0.2-0.6,0.4-0.8c4.8-3.2,7.6-8,7.6-13.2c0-9.4-9.4-17-21-17c-0.3,0-0.6,0-1,0c-0.5,0-1-0.4-1-1
				c0-0.6,0.4-1,1-1c0.3,0,0.7,0,1,0c12.7,0,23,8.5,23,19c0,5.5-3,10.9-8,14.5c0.1,1.1,0.8,3.7,3.5,5.7c0.3,0.3,0.5,0.7,0.4,1.1
				C59.8,55.2,59.4,55.5,58.9,55.5C59,55.5,58.9,55.5,58.9,55.5z"/>
		</g>
		<g>
			<path fill="#2C2C3D" d="M13,32c-2.2,0-4-1.8-4-4s1.8-4,4-4s4,1.8,4,4S15.2,32,13,32z M13,26c-1.1,0-2,0.9-2,2s0.9,2,2,2
				s2-0.9,2-2S14.1,26,13,26z"/>
		</g>
		<g>
			<path fill="#2C2C3D" d="M23,32c-2.2,0-4-1.8-4-4s1.8-4,4-4s4,1.8,4,4S25.2,32,23,32z M23,26c-1.1,0-2,0.9-2,2s0.9,2,2,2
				s2-0.9,2-2S24.1,26,23,26z"/>
		</g>
		<g>
			<path fill="#2C2C3D" d="M33,32c-2.2,0-4-1.8-4-4s1.8-4,4-4s4,1.8,4,4S35.2,32,33,32z M33,26c-1.1,0-2,0.9-2,2s0.9,2,2,2
				s2-0.9,2-2S34.1,26,33,26z"/>
		</g>
	</g>
</g>
</svg>
