<?xml version="1.0" encoding="utf-8"?>
<!-- Generator: Adobe Illustrator 18.0.0, SVG Export Plug-In . SVG Version: 6.00 Build 0)  -->
<!DOCTYPE svg PUBLIC "-//W3C//DTD SVG 1.1//EN" "http://www.w3.org/Graphics/SVG/1.1/DTD/svg11.dtd">
<svg version="1.1" id="Layer_1" xmlns="http://www.w3.org/2000/svg" xmlns:xlink="http://www.w3.org/1999/xlink" x="0px" y="0px"
	 viewBox="0 0 64 64" enable-background="new 0 0 64 64" xml:space="preserve">
<g>
	<g id="XMLID_17_">
		<g>
			<g>
				<path fill="#9FCCE2" d="M63,32L63,32c0,2.9-2.3,5.2-5.2,5.2h-2.6c-0.6,2.7-1.7,5.3-3.2,7.6l1.9,1.9c1,1,1.5,2.3,1.5,3.7
					s-0.5,2.6-1.5,3.6c-2,2-5.3,2-7.3,0L44.8,52c-2.3,1.5-4.8,2.5-7.6,3.2v2.6c0,2.8-2.3,5.2-5.2,5.2h0c-2.9,0-5.2-2.3-5.2-5.2v-2.6
					c-2.7-0.6-5.3-1.7-7.6-3.2l-1.9,1.9c-1,1-2.3,1.5-3.6,1.5s-2.6-0.5-3.6-1.5c-2-2-2-5.3,0-7.3l1.9-1.9c-1.5-2.3-2.5-4.8-3.1-7.6
					H6.2C3.3,37.2,1,34.9,1,32v0c0-2.9,2.3-5.2,5.2-5.2h2.6c0.6-2.7,1.7-5.3,3.1-7.6l-1.9-1.9c-1-1-1.5-2.3-1.5-3.6s0.5-2.6,1.5-3.6
					c2-2,5.3-2,7.3,0l1.9,1.9c2.3-1.5,4.9-2.5,7.6-3.1V6.2C26.8,3.3,29.1,1,32,1h0c2.9,0,5.2,2.3,5.2,5.2v2.6
					c2.7,0.6,5.3,1.7,7.6,3.1l1.9-1.9c1-1,2.3-1.5,3.7-1.5s2.6,0.5,3.6,1.5c2,2,2,5.3,0,7.3L52,19.2c1.5,2.3,2.5,4.9,3.2,7.6h2.6
					C60.7,26.8,63,29.1,63,32z M44,32c0-6.6-5.4-12-12-12s-12,5.4-12,12s5.4,12,12,12S44,38.6,44,32z"/>
			</g>
		</g>
		<g>
			<path fill="#2D2D2D" d="M32,19c-7.2,0-13,5.8-13,13s5.8,13,13,13s13-5.8,13-13S39.2,19,32,19z M32,43c-6.1,0-11-4.9-11-11
				s4.9-11,11-11s11,4.9,11,11S38.1,43,32,43z"/>
			<path fill="#2D2D2D" d="M57.8,25.8H56c-0.6-2.3-1.5-4.4-2.7-6.4l1.3-1.3c1.2-1.2,1.8-2.7,1.8-4.4c0-1.6-0.6-3.2-1.8-4.4
				c-1.2-1.2-2.7-1.8-4.4-1.8c-1.6,0-3.2,0.6-4.4,1.8l-1.3,1.3c-2-1.2-4.2-2.1-6.4-2.7V6.2C38.2,2.8,35.4,0,32,0
				c-3.4,0-6.2,2.8-6.2,6.2V8c-2.3,0.6-4.4,1.5-6.4,2.7l-1.3-1.3c-1.2-1.2-2.7-1.8-4.4-1.8c-1.6,0-3.2,0.6-4.4,1.8
				c-1.2,1.2-1.8,2.7-1.8,4.4c0,1.6,0.6,3.2,1.8,4.4l1.3,1.3c-1.2,2-2.1,4.2-2.7,6.4H6.2C2.8,25.8,0,28.6,0,32
				c0,3.4,2.8,6.2,6.2,6.2H8c0.6,2.3,1.5,4.4,2.7,6.4l-1.3,1.3c-1.2,1.2-1.8,2.7-1.8,4.4c0,1.6,0.6,3.2,1.8,4.4
				c1.2,1.2,2.7,1.8,4.4,1.8c1.6,0,3.2-0.6,4.4-1.8l1.3-1.3c2,1.2,4.2,2.1,6.4,2.7v1.9c0,3.4,2.8,6.2,6.2,6.2h0
				c3.4,0,6.2-2.8,6.2-6.2V56c2.3-0.6,4.4-1.5,6.4-2.7l1.3,1.3c1.2,1.2,2.7,1.8,4.4,1.8c1.6,0,3.2-0.6,4.4-1.8
				c1.2-1.2,1.8-2.7,1.8-4.4c0-1.6-0.6-3.2-1.8-4.4l-1.3-1.3c1.2-2,2.1-4.2,2.7-6.4h1.9c3.4,0,6.2-2.8,6.2-6.2
				C64,28.6,61.2,25.8,57.8,25.8z M57.8,36.2h-3.4L54.2,37c-0.6,2.6-1.6,5-3,7.3l-0.4,0.7l2.4,2.4c0.8,0.8,1.2,1.8,1.2,2.9
				c0,1.1-0.4,2.2-1.2,2.9c-0.8,0.8-1.8,1.2-2.9,1.2c-1.1,0-2.2-0.4-2.9-1.2l-2.4-2.4l-0.7,0.4c-2.2,1.4-4.7,2.4-7.3,3l-0.8,0.2v3.4
				c0,2.3-1.9,4.2-4.2,4.2h0c-2.3,0-4.2-1.9-4.2-4.2v-3.4L27,54.2c-2.6-0.6-5-1.6-7.3-3l-0.7-0.4l-2.4,2.4c-0.8,0.8-1.8,1.2-2.9,1.2
				c-1.1,0-2.2-0.4-2.9-1.2c-0.8-0.8-1.2-1.8-1.2-2.9c0-1.1,0.4-2.2,1.2-2.9l2.4-2.4l-0.4-0.7c-1.4-2.2-2.4-4.7-3-7.3l-0.2-0.8H6.2
				C3.9,36.2,2,34.3,2,32c0-2.3,1.9-4.2,4.2-4.2h3.4L9.8,27c0.6-2.6,1.6-5,3-7.3l0.4-0.7l-2.4-2.4c-0.8-0.8-1.2-1.8-1.2-2.9
				c0-1.1,0.4-2.2,1.2-2.9c0.8-0.8,1.8-1.2,2.9-1.2c1.1,0,2.2,0.4,2.9,1.2l2.4,2.4l0.7-0.4c2.2-1.4,4.7-2.4,7.3-3l0.8-0.2V6.2
				C27.8,3.9,29.7,2,32,2c2.3,0,4.2,1.9,4.2,4.2v3.4L37,9.8c2.6,0.6,5,1.6,7.3,3l0.7,0.4l2.4-2.4c0.8-0.8,1.8-1.2,2.9-1.2
				c1.1,0,2.2,0.4,2.9,1.2c0.8,0.8,1.2,1.8,1.2,2.9c0,1.1-0.4,2.2-1.2,2.9l-2.4,2.4l0.4,0.7c1.4,2.2,2.4,4.7,3,7.3l0.2,0.8h3.4
				c2.3,0,4.2,1.9,4.2,4.2C62,34.3,60.1,36.2,57.8,36.2z"/>
		</g>
	</g>
</g>
</svg>
