<?xml version="1.0" encoding="utf-8"?>
<!-- Generator: Adobe Illustrator 18.0.0, SVG Export Plug-In . SVG Version: 6.00 Build 0)  -->
<!DOCTYPE svg PUBLIC "-//W3C//DTD SVG 1.1//EN" "http://www.w3.org/Graphics/SVG/1.1/DTD/svg11.dtd">
<svg version="1.1" id="Layer_1" xmlns="http://www.w3.org/2000/svg" xmlns:xlink="http://www.w3.org/1999/xlink" x="0px" y="0px"
	 viewBox="0 0 84 64" enable-background="new 0 0 84 64" xml:space="preserve">
<g id="XMLID_39_">
	<g>
		<g>
			<polygon fill="#686F89" points="82,22.7 72.6,31.9 70.3,29.5 53.8,13.5 51.5,11.2 60.9,2 			"/>
		</g>
		<g>
			<path fill="#F9DAC5" d="M36.4,19.9l0.9-0.9c0.9-0.9,2.2-1.3,3.5-1.3l7.1,0.6c0.7,0,1.3-0.2,1.7-0.6l4.2-4.1l16.4,16.1l-4.6,4.2
				l-5.2,8.3L42.4,24.7l-8.2,8.4c-0.5,0.5-1.2,0.7-1.9,0.7c-1.2,0-2.4-0.6-3.2-1.4c-1.3-1.3-1.8-3.6-0.4-4.9L36.4,19.9z"/>
		</g>
		<g>
			<path fill="#E2BB9F" d="M57.5,48.3L57.5,48.3c1,1,0.9,3.3-0.2,4.4c-0.5,0.5-1.4,0.8-2.2,0.8c-1,0-2.1-0.3-2.7-0.9
				c0.7,1.1,0.6,2.9-0.5,3.9c-0.5,0.5-1.3,0.7-2.1,0.7c-1.1,0-2.3-0.4-2.9-1L46,55.4l0,0c1.1,1.1,1.1,3.5,0,4.6
				c-0.6,0.6-1.5,0.9-2.4,0.9c-0.9,0-1.8-0.3-2.3-0.8l-1.6-1.5l-0.5-0.2c0.7-1,0.4-2.5-0.7-3.6h0c-1.2-1.2-3.1-1.4-4-0.4L31.7,57
				l-0.1-0.1l3.5-3.4c1.3-1.2,1.3-3.3,0.1-4.5h0c-1.2-1.2-3.3-1.2-4.6,0.1l-3.2,3.1l0,0l4-3.9c0.8-0.8,1.2-1.8,1.2-2.8
				c0-0.8-0.3-1.5-0.8-2c-1.2-1.2-3.4-1-4.9,0.4l-0.9,0.9l0,0c1.1-1,0.9-2.9-0.3-4.1h0c-1.2-1.2-3.1-1.3-4.2-0.3l-0.2,0.2L21,40.3
				l-7.3-10.2l0,0l16.1-15.8l0,0l3,2.9c0.3,0.3,0.6,0.5,0.9,0.7l3.5,1.1l-0.9,0.9l-7.8,7.6c-1.4,1.4-0.9,3.7,0.4,4.9
				c0.8,0.8,2.1,1.4,3.2,1.4c0.7,0,1.4-0.2,1.9-0.7l8.2-8.4l18.1,17.4l1.4,1.3c1.2,1.2,1.2,3.6,0.1,4.7c-0.5,0.5-1.4,0.8-2.3,0.8
				C58.9,48.9,58.1,48.7,57.5,48.3z"/>
		</g>
		<g>
			<path fill="#F9DAC5" d="M38.5,54.7c1.1,1.1,1.4,2.6,0.7,3.6c-0.1,0.1-0.2,0.2-0.3,0.3l-2.7,2.7c-1,1-2.8,0.8-4-0.4h0
				c-1.2-1.2-1.4-3-0.4-4l0,0l2.7-2.6C35.4,53.3,37.2,53.5,38.5,54.7L38.5,54.7z"/>
		</g>
		<g>
			<path fill="#F9DAC5" d="M35.2,49c1.2,1.2,1.2,3.2-0.1,4.5l-3.5,3.4c-1.3,1.2-3.3,1.3-4.5,0.1l0,0c-1.2-1.2-1.2-3.2,0.1-4.4
				l0.3-0.3l3.2-3.1C32,47.8,34,47.8,35.2,49L35.2,49z"/>
		</g>
		<g>
			<path fill="#384489" d="M32.5,11.8l-2.6,2.5L13.7,30.1l-2.4,2.3L2,23.3L23.1,2.6L32.5,11.8z M13,24.8c0.9-0.9,0.9-2.2,0-3.1
				c-0.9-0.8-2.2-0.8-3.1,0c-0.9,0.9-0.9,2.2,0,3.1C10.7,25.6,12.1,25.6,13,24.8z"/>
		</g>
		<g>
			<path fill="#F9DAC5" d="M31.9,43.5c0.5,0.5,0.8,1.3,0.8,2c0,1-0.4,2-1.2,2.8l-4,3.9c-1.4,1.4-3.6,1.6-4.9,0.4
				c-1.2-1.2-1.1-3.3,0.4-4.8l3-3l0.9-0.9C28.5,42.5,30.6,42.3,31.9,43.5z"/>
		</g>
		<g>
			<path fill="#F9DAC5" d="M25.7,40.7c1.2,1.2,1.4,3,0.3,4.1l-2.9,2.9c-1.1,1-3,0.9-4.2-0.3l0,0c-1.2-1.2-1.4-3-0.3-4.1l2.7-2.7
				l0.2-0.2C22.6,39.4,24.5,39.5,25.7,40.7L25.7,40.7z"/>
		</g>
		<g>
			<path fill="#2D2D2D" d="M13,21.7c0.9,0.9,0.9,2.2,0,3.1c-0.9,0.8-2.2,0.8-3.1,0c-0.9-0.9-0.9-2.2,0-3.1
				C10.7,20.9,12.1,20.9,13,21.7z"/>
		</g>
	</g>
	<path fill="#2D2D2D" d="M82.7,22L61.6,1.3c-0.4-0.4-1-0.4-1.4,0l-9.4,9.2c-0.2,0.2-0.3,0.4-0.3,0.7c0,0.3,0.1,0.5,0.3,0.7l1.6,1.6
		l-3.5,3.4c-0.3,0.2-0.6,0.4-1,0.4l-7.1-0.5c-1.4-0.1-2.7,0.3-3.8,1.1L34.2,17c-0.2-0.1-0.5-0.3-0.7-0.5l-2.2-2.2l1.9-1.8
		c0.2-0.2,0.3-0.4,0.3-0.7c0-0.3-0.1-0.5-0.3-0.7l-9.4-9.2c-0.4-0.4-1-0.4-1.4,0L1.3,22.6C1.1,22.7,1,23,1,23.3
		c0,0.3,0.1,0.5,0.3,0.7l9.4,9.2c0.2,0.2,0.4,0.3,0.7,0.3s0.5-0.1,0.7-0.3l1.5-1.5l6.4,8.9l-2.1,2c-0.7,0.6-1,1.5-1,2.5
		c0,1.1,0.5,2.2,1.3,3c0.8,0.7,1.8,1.2,2.8,1.2c-0.1,0.4-0.2,0.8-0.2,1.2c0,1.1,0.4,2,1.1,2.7c0.7,0.7,1.7,1.1,2.8,1.1
		c0.2,0,0.4,0,0.6-0.1c0,0.2-0.1,0.3-0.1,0.5c0,1.1,0.4,2.1,1.2,2.8c0.8,0.7,1.8,1.2,2.9,1.2c0.3,0,0.5,0,0.8-0.1
		c0,1.1,0.5,2.1,1.3,2.9c0,0,0.1,0.1,0.1,0.1c0.8,0.8,1.9,1.2,3,1.2c0.9,0,1.7-0.3,2.4-0.9l2.5-2.5l1.2,1.2c0.7,0.7,1.8,1.1,3,1.1
		c1.2,0,2.4-0.4,3.1-1.1c0.7-0.7,1.1-1.7,1.2-2.8c0.6,0.2,1.3,0.3,1.9,0.3c1.2,0,2.2-0.3,2.8-1c0.8-0.8,1.2-1.8,1.3-2.9
		c0.4,0.1,0.8,0.2,1.3,0.2c1.2,0,2.3-0.4,2.9-1c0.8-0.7,1.2-1.9,1.2-3.1c0-0.2,0-0.3,0-0.4c0.2,0,0.3,0,0.5,0c1.2,0,2.3-0.4,3-1.1
		c0.7-0.7,1.1-1.8,1.1-2.9c0-1.3-0.4-2.4-1.2-3.2l-0.8-0.8l4.7-7.5l3.8-3.5l1.7,1.7c0.2,0.2,0.4,0.3,0.7,0.3s0.5-0.1,0.7-0.3
		l9.4-9.2c0.2-0.2,0.3-0.4,0.3-0.7S82.9,22.2,82.7,22z M11.4,31.1l-7.9-7.8L23.1,4l7.9,7.8L11.4,31.1z M18.9,45.1
		c0-0.3,0.1-0.7,0.4-1.1l2.9-2.9c0.3-0.3,0.7-0.4,1.1-0.4c0.6,0,1.2,0.3,1.6,0.7c0,0,0,0,0.1,0.1c0.4,0.4,0.6,1,0.6,1.5
		c0,0.3-0.1,0.7-0.4,1.1L22.4,47c-0.7,0.6-2,0.5-2.8-0.3C19.2,46.2,18.9,45.7,18.9,45.1z M23.3,51.9c-0.4-0.4-0.5-0.9-0.5-1.3
		c0-0.7,0.3-1.5,0.9-2l4-3.9c0.6-0.6,1.3-0.9,2.1-0.9c0.5,0,1,0.2,1.4,0.5c0.3,0.3,0.5,0.8,0.5,1.3c0,0.7-0.3,1.5-0.9,2l-4,3.9
		c-0.6,0.6-1.4,0.9-2.1,0.9C24.3,52.4,23.8,52.3,23.3,51.9z M27.8,56.2c-0.4-0.4-0.6-0.9-0.6-1.4c0-0.6,0.2-1.2,0.7-1.6l3.5-3.4
		c0.4-0.4,1-0.7,1.7-0.7c0.6,0,1.1,0.2,1.5,0.6c0,0,0,0,0.1,0.1c0.3,0.4,0.5,0.9,0.5,1.4c0,0.6-0.2,1.2-0.7,1.6L31,56.2
		C30.1,57,28.6,57.1,27.8,56.2z M38.3,57.8c0,0.1-0.1,0.1-0.2,0.2l-2.7,2.7c-0.3,0.3-0.7,0.3-1,0.3c-0.6,0-1.2-0.3-1.7-0.7
		c0,0-0.1,0-0.1-0.1c-0.4-0.5-0.7-1-0.7-1.6c0-0.3,0.1-0.6,0.4-1l2.7-2.6c0.3-0.3,0.7-0.3,0.9-0.3c0.6,0,1.2,0.3,1.7,0.7
		c0,0,0,0,0.1,0.1C38.5,56.2,38.7,57.2,38.3,57.8z M61.3,47.4c-0.6,0.6-2.3,0.7-3.2,0c-0.1,0-0.1-0.1-0.2-0.1l-4.6-4.6
		c-0.4-0.4-1-0.4-1.4,0c-0.4,0.4-0.4,1,0,1.4l4.6,4.6c0.1,0.1,0.2,0.1,0.2,0.2c0,0,0,0.1,0.1,0.1c0.3,0.3,0.4,0.7,0.4,1.3
		c0,0.7-0.2,1.3-0.6,1.7c-0.3,0.3-0.9,0.5-1.5,0.5c-0.9,0-1.6-0.3-1.9-0.6c-0.1-0.2-0.2-0.3-0.4-0.5L49,47.7c-0.4-0.4-1-0.4-1.4,0
		c-0.4,0.4-0.4,1,0,1.4l3.8,3.7c0.1,0.1,0.1,0.2,0.2,0.2c0,0,0,0,0,0c0,0,0,0,0,0c0.4,0.7,0.4,2-0.4,2.7c-0.2,0.2-0.8,0.4-1.4,0.4
		c-1,0-1.9-0.3-2.2-0.6l-3.1-3.3c-0.4-0.4-1-0.4-1.4,0c-0.4,0.4-0.4,1,0,1.4l2.1,2.2c0,0.1,0.1,0.2,0.2,0.2c0.3,0.3,0.5,0.9,0.5,1.6
		c0,0.7-0.2,1.3-0.6,1.6c-0.4,0.4-1,0.6-1.7,0.6c-0.7,0-1.3-0.2-1.6-0.5l-1.5-1.5c0.3-1.3-0.2-2.7-1.2-3.8c0,0-0.1-0.1-0.1-0.1
		c-0.7-0.6-1.5-1-2.3-1.2c0.2-0.5,0.3-1.1,0.3-1.6c0-1.1-0.4-2.1-1.2-2.9c0,0-0.1-0.1-0.1-0.1c-0.7-0.6-1.5-1-2.5-1
		c0.2-0.5,0.3-1.1,0.3-1.6c0-1.1-0.4-2-1.1-2.7c-0.7-0.7-1.7-1.1-2.8-1.1c-0.7,0-1.5,0.2-2.1,0.5c-0.2-0.8-0.6-1.6-1.2-2.3
		c0,0-0.1-0.1-0.1-0.1c-1.3-1.2-3.4-1.5-4.8-0.7l-6.5-9l14.8-14.5l2.3,2.2c0.3,0.3,0.7,0.6,1.1,0.8c0.1,0,0.1,0.1,0.2,0.1l1.9,0.6
		l-7.5,7.4c-0.7,0.7-1.1,1.7-1.1,2.8c0,1.3,0.6,2.6,1.5,3.6c1.1,1,2.6,1.7,3.9,1.7c1,0,1.9-0.3,2.6-1l7.5-7.7l18.8,18
		c0.4,0.4,0.6,1.1,0.6,1.8C61.8,46.5,61.6,47.1,61.3,47.4z M65,33.1c-0.1,0.1-0.1,0.1-0.2,0.2l-4.6,7.2L43.1,24c0,0-0.1-0.1-0.2-0.1
		c-0.1,0-0.1-0.1-0.2-0.1c-0.1,0-0.1,0-0.2,0c-0.1,0-0.1,0-0.2,0c-0.1,0-0.2,0-0.3,0.1c0,0-0.1,0-0.1,0c-0.1,0-0.1,0.1-0.2,0.1
		c0,0-0.1,0-0.1,0.1l0,0c0,0,0,0,0,0s0,0,0,0l-8.2,8.4c-0.3,0.3-0.7,0.4-1.2,0.4c-0.9,0-1.9-0.4-2.6-1.1c-0.6-0.6-0.9-1.4-0.9-2.2
		c0-0.5,0.2-1,0.5-1.3l0.7-0.7c0,0,0,0,0,0l7.9-7.8c0.7-0.7,1.7-1.1,2.7-1l7.1,0.6c0.9,0.1,1.8-0.3,2.5-0.9l3.5-3.5l15,14.7L65,33.1
		z M72.6,30.5L54.6,12.8c0,0,0,0,0,0c0,0,0,0,0,0l-1.6-1.6l7.9-7.8l19.7,19.3L72.6,30.5z"/>
</g>
</svg>
