<?xml version="1.0" encoding="utf-8"?>
<!-- Generator: Adobe Illustrator 18.0.0, SVG Export Plug-In . SVG Version: 6.00 Build 0)  -->
<!DOCTYPE svg PUBLIC "-//W3C//DTD SVG 1.1//EN" "http://www.w3.org/Graphics/SVG/1.1/DTD/svg11.dtd">
<svg version="1.1" id="Layer_1" xmlns="http://www.w3.org/2000/svg" xmlns:xlink="http://www.w3.org/1999/xlink" x="0px" y="0px"
	 viewBox="0 0 64 64" enable-background="new 0 0 64 64" xml:space="preserve">
<g>
	<g id="XMLID_5_">
		<g>
			<g>
				<path fill="#EDDFC8" d="M62.9,28.5c0.4,2.3-0.6,4.4-2.3,5.5c1.4,1,2.3,2.6,2.3,4.5c0,2.1-1.2,4-3,4.9c0.6,0.9,1,2,1,3.1
					c0,2.7-2,5-4.7,5.4c0.5,1,0.8,2.1,0.6,3.3C56.6,58,54.1,60,51.3,60H25c-3,0-6-2-6-5V33.9l11.9-18.7C31,15,31,14.8,31,14.6
					L30,3.9c0,0,3.8-1.9,7,0c3.7,2.3,5,6.2,5,11c0,1.8-0.2,3.7-0.4,5.3c-0.2,1.6-0.5,3-0.6,3.9h16.3C60,24,62.4,25.8,62.9,28.5z"/>
			</g>
			<g>
				<path fill="#758EB3" d="M19,55v4c0,1.1-0.9,2-2,2H3c-1.1,0-2-0.9-2-2V33c0-1.1,0.9-2,2-2h14c1.1,0,2,0.9,2,2v0.9V55z"/>
			</g>
		</g>
		<g>
			<g>
				<path fill="#2C2C3D" d="M17,62H3c-1.7,0-3-1.3-3-3V33c0-1.7,1.3-3,3-3h14c1.7,0,3,1.3,3,3v26C20,60.7,18.7,62,17,62z M3,32
					c-0.6,0-1,0.4-1,1v26c0,0.6,0.4,1,1,1h14c0.6,0,1-0.4,1-1V33c0-0.6-0.4-1-1-1H3z"/>
			</g>
			<g>
				<path fill="#2C2C3D" d="M51.3,61H25c-3.4,0-7-2.2-7-6c0-0.6,0.4-1,1-1s1,0.4,1,1c0,2.5,2.6,4,5,4h26.3c2.4,0,4.4-1.7,4.7-3.9
					c0.1-1,0-1.9-0.5-2.7c-0.2-0.3-0.2-0.6,0-0.9c0.1-0.3,0.4-0.5,0.7-0.5c2.2-0.3,3.8-2.3,3.8-4.4c0-0.9-0.3-1.8-0.8-2.5
					C59,43.7,59,43.4,59,43.1c0.1-0.3,0.3-0.5,0.5-0.6c1.5-0.8,2.4-2.3,2.4-4c0-1.5-0.7-2.8-1.9-3.7c-0.3-0.2-0.4-0.5-0.4-0.8
					c0-0.3,0.2-0.6,0.4-0.8c1.5-1,2.2-2.8,1.9-4.5c-0.4-2.1-2.4-3.6-4.6-3.6H41c-0.3,0-0.5-0.1-0.7-0.3S40,24.2,40,23.9
					c0-0.5,0.1-1.2,0.3-1.9c0.1-0.6,0.2-1.2,0.3-2c0.2-1.3,0.4-3.3,0.4-5.1c0-5-1.5-8.3-4.5-10.1c-2-1.2-4.3-0.6-5.4-0.2l0.9,10
					c0,0.4,0,0.8-0.2,1.1L19.8,34.4c-0.3,0.5-0.9,0.6-1.4,0.3c-0.5-0.3-0.6-0.9-0.3-1.4L30,14.6L29,4c0-0.4,0.2-0.8,0.5-1
					c0.2-0.1,4.4-2.2,8,0C41.2,5.3,43,9.2,43,14.9c0,2-0.3,4.1-0.4,5.4c-0.1,0.7-0.2,1.4-0.3,2c0,0.3-0.1,0.5-0.1,0.7h15.2
					c3.2,0,6,2.2,6.6,5.3c0.4,2.1-0.3,4.2-1.7,5.7c1.2,1.2,1.8,2.8,1.8,4.5c0,2.1-1,4-2.6,5.2c0.4,0.9,0.6,1.8,0.6,2.8
					c0,2.7-1.8,5.2-4.3,6.1c0.3,0.9,0.4,1.8,0.2,2.8C57.5,58.6,54.6,61,51.3,61z"/>
			</g>
		</g>
	</g>
</g>
</svg>
