<?xml version="1.0" encoding="utf-8"?>
<!-- Generator: Adobe Illustrator 18.0.0, SVG Export Plug-In . SVG Version: 6.00 Build 0)  -->
<!DOCTYPE svg PUBLIC "-//W3C//DTD SVG 1.1//EN" "http://www.w3.org/Graphics/SVG/1.1/DTD/svg11.dtd">
<svg version="1.1" id="Layer_1" xmlns="http://www.w3.org/2000/svg" xmlns:xlink="http://www.w3.org/1999/xlink" x="0px" y="0px"
	 viewBox="0 0 64 64" enable-background="new 0 0 64 64" xml:space="preserve">
<g>
	<g id="XMLID_26_">
		<g>
			<g>
				<path fill="#834BEF" d="M45.5,14.1L51.3,1L62,8.2L49,38l-0.3,0.1c-1.8-4.3-5.2-7.8-9.5-9.7L45.5,14.1z"/>
			</g>
			<g>
				<polygon fill="#6233D3" points="51.3,1 45.5,14.1 18.5,14.1 12.7,1 12.7,1 51.3,1 				"/>
			</g>
			<g>
				<path fill="#FFC533" d="M24.9,28.5C27,27.5,29.5,27,32,27s5,0.5,7.2,1.5c4.3,1.9,7.7,5.3,9.5,9.7c0.9,2.1,1.3,4.4,1.3,6.9
					c0,10-8.1,18-18,18s-18-8-18-18c0-2.4,0.5-4.7,1.4-6.9C17.1,33.8,20.6,30.3,24.9,28.5z M44,45c0-6.6-5.4-12-12-12s-12,5.4-12,12
					s5.4,12,12,12S44,51.6,44,45z"/>
			</g>
			<g>
				<path fill="#FCEA81" d="M32,33c6.6,0,12,5.4,12,12s-5.4,12-12,12s-12-5.4-12-12S25.4,33,32,33z M35.5,45.9l3.5-3.6l-4.8-0.7
					L32,37l-2.2,4.6L25,42.3l3.5,3.6L27.7,51l4.3-2.4l4.3,2.4L35.5,45.9z"/>
			</g>
			<g>
				<polygon fill="#F2AC0F" points="39,42.3 35.5,45.9 36.3,51 32,48.6 27.7,51 28.5,45.9 25,42.3 29.8,41.6 32,37 34.2,41.6 				
					"/>
			</g>
			<g>
				<path fill="#834BEF" d="M18.5,14.1l6.4,14.4c-4.3,1.9-7.7,5.3-9.5,9.7L15,38L2,7.2L12.7,1L18.5,14.1z"/>
			</g>
		</g>
		<g>
			<path fill="#2D2D2D" d="M62.9,8.6c0.2-0.4,0-1-0.4-1.2L51.8,0.2C51.7,0.1,51.5,0,51.3,0v0H12.7v0c-0.2,0-0.4,0-0.5,0.1L1.5,6.3
				C1.1,6.6,0.9,7.1,1.1,7.6l13,30.8l0.1-0.1C13.4,40.5,13,42.7,13,45c0,10.5,8.5,19,19,19s19-8.5,19-19c0-2.3-0.4-4.5-1.2-6.6
				l0.1,0.1L62.9,8.6z M51.7,2.5l9,6.1L48.8,36c-1.9-3.5-4.8-6.3-8.3-8L51.7,2.5z M25.4,27.2L20,15h24l-5.4,12.2
				C34.4,25.6,29.7,25.6,25.4,27.2z M44.9,13H19.1L14.2,2h35.5L44.9,13z M3.3,7.6l9-5.2L23.5,28c-3.5,1.8-6.4,4.6-8.3,8L3.3,7.6z
				 M32,62c-9.4,0-17-7.6-17-17c0-2.2,0.4-4.4,1.3-6.5c1.7-4.1,4.9-7.4,9-9.1c2.1-0.9,4.4-1.4,6.8-1.4s4.6,0.5,6.8,1.4
				c4,1.8,7.3,5.1,9,9.1c0.8,2.1,1.3,4.2,1.3,6.5C49,54.4,41.4,62,32,62z"/>
			<path fill="#2D2D2D" d="M32,32c-7.2,0-13,5.8-13,13s5.8,13,13,13s13-5.8,13-13S39.2,32,32,32z M32,56c-6.1,0-11-4.9-11-11
				s4.9-11,11-11s11,4.9,11,11S38.1,56,32,56z"/>
		</g>
	</g>
</g>
</svg>
