<?xml version="1.0" encoding="utf-8"?>
<!-- Generator: Adobe Illustrator 18.0.0, SVG Export Plug-In . SVG Version: 6.00 Build 0)  -->
<!DOCTYPE svg PUBLIC "-//W3C//DTD SVG 1.1//EN" "http://www.w3.org/Graphics/SVG/1.1/DTD/svg11.dtd">
<svg version="1.1" id="Layer_1" xmlns="http://www.w3.org/2000/svg" xmlns:xlink="http://www.w3.org/1999/xlink" x="0px" y="0px"
	 viewBox="0 0 64 64" enable-background="new 0 0 64 64" xml:space="preserve">
<g id="XMLID_8_">
	<g>
		<g>
			<path fill="#F9C953" d="M57,10v26c0,15.7-25,27-25,27S7,51.7,7,36V11c8.1,0,19.1-4.1,25-10C37,6.8,48.9,10,57,10z M27,43l20-20
				l-4-4L27,35l-4-4l-4,4L27,43z"/>
		</g>
		<g>
			<polygon fill="#FFFFFF" points="47,23 27,43 19,35 23,31 27,35 43,19 			"/>
		</g>
	</g>
	<g>
		<g>
			<path fill="#2C2C3D" d="M32,64c-0.1,0-0.3,0-0.4-0.1C30.5,63.4,6,52.1,6,36V11c0-0.6,0.4-1,1-1c8.2,0,18.8-4.3,24.3-9.7
				C31.5,0.1,31.8,0,32,0c0.3,0,0.5,0.1,0.7,0.3C37.4,5.7,49,9,57,9c0.6,0,1,0.4,1,1v26c0,6.7-4.5,13.7-12.9,20.2
				c-6.3,4.8-12.4,7.6-12.7,7.7C32.3,64,32.1,64,32,64z M8,12v24c0,13.8,20.8,24.3,24,25.9c3.2-1.6,24-12.1,24-25.9V11
				c-8.2-0.2-18.8-3.4-24-8.6C26.2,7.7,16.2,11.7,8,12z"/>
		</g>
		<g>
			<path fill="#2C2C3D" d="M27,44c-0.3,0-0.5-0.1-0.7-0.3l-8-8c-0.4-0.4-0.4-1,0-1.4l4-4c0.4-0.4,1-0.4,1.4,0l3.3,3.3l15.3-15.3
				c0.4-0.4,1-0.4,1.4,0l4,4c0.4,0.4,0.4,1,0,1.4l-20,20C27.5,43.9,27.3,44,27,44z M20.4,35l6.6,6.6L45.6,23L43,20.4L27.7,35.7
				c-0.4,0.4-1,0.4-1.4,0L23,32.4L20.4,35z"/>
		</g>
	</g>
</g>
</svg>
