<?xml version="1.0" encoding="utf-8"?>
<!-- Generator: Adobe Illustrator 18.0.0, SVG Export Plug-In . SVG Version: 6.00 Build 0)  -->
<!DOCTYPE svg PUBLIC "-//W3C//DTD SVG 1.1//EN" "http://www.w3.org/Graphics/SVG/1.1/DTD/svg11.dtd">
<svg version="1.1" id="Layer_1" xmlns="http://www.w3.org/2000/svg" xmlns:xlink="http://www.w3.org/1999/xlink" x="0px" y="0px"
	 viewBox="0 0 64 64" enable-background="new 0 0 64 64" xml:space="preserve">
<g id="XMLID_16_">
	<g>
		<g>
			<path fill="#9E6161" d="M54,12v49c0,1.1-0.9,2-2,2H12c-1.1,0-2-0.9-2-2V12c0-1.1,0.9-2,2-2h7v3v2h-4v43h34V15h-4v-2v-3h7
				C53.1,10,54,10.9,54,12z"/>
		</g>
		<g>
			<path fill="#FFFFFF" d="M49,15v43H15V15h4v2h26v-2H49z M42.8,28.6c0.3-0.4,0.3-1.1-0.1-1.4c-0.4-0.3-1.1-0.3-1.4,0.2L28.9,42.6
				l-6.2-5.3c-0.4-0.4-1-0.3-1.4,0.1c-0.4,0.4-0.3,1.1,0.1,1.4l7,6c0.2,0.2,0.4,0.2,0.6,0.2c0,0,0.1,0,0.1,0c0.3,0,0.5-0.2,0.7-0.4
				L42.8,28.6z"/>
		</g>
		<g>
			<polygon fill="#FFD05C" points="45,15 45,17 19,17 19,15 19,13 45,13 			"/>
		</g>
		<g>
			<path fill="#FFB533" d="M45,10v3H19v-3V7h7c0-3.3,2.7-6,6-6s6,2.7,6,6h7V10z M34,7c0-1.1-0.9-2-2-2c-1.1,0-2,0.9-2,2s0.9,2,2,2
				C33.1,9,34,8.1,34,7z"/>
		</g>
		<g>
			<path fill="#29CE7F" d="M42.6,27.2c0.4,0.4,0.5,1,0.1,1.4l-13,16c-0.2,0.2-0.4,0.3-0.7,0.4c0,0-0.1,0-0.1,0
				c-0.2,0-0.5-0.1-0.6-0.2l-7-6c-0.4-0.4-0.5-1-0.1-1.4c0.4-0.4,1-0.5,1.4-0.1l6.2,5.3l12.4-15.2C41.6,26.9,42.2,26.9,42.6,27.2z"
				/>
		</g>
		<g>
			<path fill="#2E2E2E" d="M32,5c1.1,0,2,0.9,2,2s-0.9,2-2,2c-1.1,0-2-0.9-2-2S30.9,5,32,5z"/>
		</g>
	</g>
	<path fill="#2E2E2E" d="M52,9h-6V6h-7.1c-0.5-3.4-3.4-6-6.9-6s-6.4,2.6-6.9,6H18v3h-6c-1.7,0-3,1.3-3,3v49c0,1.7,1.3,3,3,3h40
		c1.7,0,3-1.3,3-3V12C55,10.3,53.7,9,52,9z M46,18v-2h2v41H16V16h2v2H46z M20,8h7V7c0-2.8,2.2-5,5-5s5,2.2,5,5v1h7v8H20V8z M53,61
		c0,0.6-0.4,1-1,1H12c-0.6,0-1-0.4-1-1V12c0-0.6,0.4-1,1-1h6v3h-4v45h36V14h-4v-3h6c0.6,0,1,0.4,1,1V61z"/>
</g>
</svg>
