<?xml version="1.0" encoding="utf-8"?>
<!-- Generator: Adobe Illustrator 18.0.0, SVG Export Plug-In . SVG Version: 6.00 Build 0)  -->
<!DOCTYPE svg PUBLIC "-//W3C//DTD SVG 1.1//EN" "http://www.w3.org/Graphics/SVG/1.1/DTD/svg11.dtd">
<svg version="1.1" id="Layer_1" xmlns="http://www.w3.org/2000/svg" xmlns:xlink="http://www.w3.org/1999/xlink" x="0px" y="0px"
	 viewBox="0 0 64 64" enable-background="new 0 0 64 64" xml:space="preserve">
<g>
	<g id="XMLID_14_">
		<g>
			<g>
				<path fill="#9FCCE2" d="M56,11v6h-4H12H8v-6c0-1.1,0.9-2,2-2h14h16h14C55.1,9,56,9.9,56,11z"/>
			</g>
			<g>
				<path fill="#FFD41D" d="M52,17l-2.8,42c-0.1,2.1-1.9,4-4,4H18.7c-2.1,0-3.8-1.9-4-4L12,17H52z"/>
			</g>
		</g>
		<g>
			<path fill="#2D2D2D" d="M57,11c0-1.7-1.3-3-3-3H41V3c0-1.7-1.3-3-3-3H26c-1.7,0-3,1.3-3,3v5H10c-1.7,0-3,1.3-3,3v7h4.1l2.7,41.1
				c0.2,2.7,2.4,4.9,5,4.9h26.5c2.6,0,4.8-2.2,5-4.9L52.9,18H57V11z M25,3c0-0.6,0.4-1,1-1h12c0.6,0,1,0.4,1,1v5H25V3z M48.3,58.9
				c-0.1,1.7-1.5,3.1-3,3.1H18.7c-1.5,0-2.9-1.4-3-3.1L13.1,18h37.9L48.3,58.9z M55,16H9v-5c0-0.6,0.4-1,1-1h44c0.6,0,1,0.4,1,1V16z
				"/>
			
				<rect x="9" y="38" transform="matrix(7.669654e-02 0.9971 -0.9971 7.669654e-02 59.1978 14.0736)" fill="#2D2D2D" width="26.1" height="2"/>
			<rect x="31" y="26" fill="#2D2D2D" width="2" height="26"/>
			
				<rect x="41" y="26" transform="matrix(0.997 7.714453e-02 -7.714453e-02 0.997 3.1338 -3.1238)" fill="#2D2D2D" width="2" height="26.1"/>
		</g>
	</g>
</g>
</svg>
