<?xml version="1.0" encoding="utf-8"?>
<!-- Generator: Adobe Illustrator 23.0.0, SVG Export Plug-In . SVG Version: 6.00 Build 0)  -->
<svg version="1.1" id="Layer_1" xmlns="http://www.w3.org/2000/svg" xmlns:xlink="http://www.w3.org/1999/xlink" x="0px" y="0px"
	 width="506.1px" height="105.9px" viewBox="0 0 506.1 105.9" style="enable-background:new 0 0 506.1 105.9;" xml:space="preserve"
	>
<style type="text/css">
	.st0{fill-rule:evenodd;clip-rule:evenodd;fill:#FFFFFF;}
	.st1{fill-rule:evenodd;clip-rule:evenodd;fill:#F16623;}
	.st2{fill:#F16623;}
	.st3{fill:#FFFFFF;}
</style>
<g>
	<path class="st0" d="M98,42.5L51.1,69.6c0,0-2.1-17,9.3-25.6C69.8,36.9,92,25,92,25"/>
	<path class="st1" d="M14.4,70.7c1.1,3.9,2.7,7.6,4.8,11.3c0.9,1.6,1.9,3.1,2.9,4.5L3.5,97.3c0,0-2-17,9.4-25.5
		C13.3,71.5,13.8,71.1,14.4,70.7z"/>
	<path class="st0" d="M123.5,40.4c3.5,21-8.1,46.7-27.6,58c-25.1,14.5-57.2,5.9-71.7-19.2C9.7,54,18.3,21.9,43.4,7.4
		s57.2-5.9,71.7,19.2c0.2,0.4,2.2,3.9,2.3,4.7L97.1,43c-0.4-0.8-1.7-4-2.1-4.7C86.9,24.3,68.4,18,54.4,26c-14,8.1-20,28-11.9,42
		s28.8,20.6,42.7,12.6c4.5-2.6,12.9-8.9,16.6-18.4C106.9,49.1,111.8,45.1,123.5,40.4z"/>
	<path class="st2" d="M170.1,85.6h-12.3c-0.8,0-1.5-0.7-1.5-1.5v-68c0-0.8,0.7-1.5,1.5-1.5h12.3c0.8,0,1.5,0.7,1.5,1.5v68
		C171.6,84.9,170.9,85.6,170.1,85.6z M202.7,26.9h-34.4c-0.8,0-1.5-0.7-1.5-1.5V16c0-0.8,0.7-1.5,1.5-1.5h34.4
		c0.8,0,1.5,0.7,1.5,1.5v9.4C204.2,26.3,203.5,26.9,202.7,26.9z M197.8,55.1h-29.6c-0.8,0-1.5-0.7-1.5-1.5v-8.9
		c0-0.8,0.7-1.5,1.5-1.5h29.6c0.8,0,1.5,0.7,1.5,1.5v8.9C199.4,54.4,198.7,55.1,197.8,55.1z M202.7,85.6h-34.5
		c-0.8,0-1.5-0.7-1.5-1.5v-9.3c0-0.8,0.7-1.5,1.5-1.5h34.5c0.8,0,1.5,0.7,1.5,1.5v9.3C204.2,84.9,203.6,85.6,202.7,85.6z"/>
	<path class="st3" d="M209.4,58.8c0-5.4,0.8-10.1,2.4-14.1s4-7.2,7-9.5c3.1-2.3,6.8-3.4,11.3-3.4c4.1,0,7.6,1.2,10.4,3.5
		c2.8,2.4,5,5.6,6.6,9.7s2.7,8.7,3.3,13.8c0,0.1,0,0.1,0,0.2v1c0,0.1,0,0.1,0,0.2c-0.6,4.9-1.7,9.3-3.3,13.3s-3.8,7.2-6.6,9.5
		c-2.8,2.4-6.3,3.5-10.5,3.5c-4.4,0-8.1-1.2-11.2-3.5c-3.1-2.3-5.4-5.5-7-9.5s-2.4-8.6-2.4-13.7V58.8z M224.2,59.8
		c0,2.7,0.3,5.2,0.9,7.5c0.6,2.2,1.6,4,3,5.3s3.3,2,5.7,2c2.3,0,4.3-0.5,5.8-1.6s2.6-2.5,3.4-4.4c0.8-1.9,1.2-4,1.4-6.5V62v-5
		c-0.1-2.1-0.3-4-0.8-5.6s-1.1-3-2-4.2s-1.9-2-3.2-2.6s-2.8-0.9-4.5-0.9c-2.3,0-4.2,0.7-5.7,2c-1.4,1.3-2.5,3.1-3.1,5.4
		c-0.6,2.3-1,4.8-1,7.7v1H224.2z M244.1,10.6h11.8c0.8,0,1.5,0.7,1.5,1.5V84c0,0.8-0.7,1.5-1.5,1.5h-10.5c-0.8,0-1.4-0.6-1.5-1.3
		L242.6,74c0-0.1,0-0.1,0-0.2V12.2C242.6,11.3,243.3,10.6,244.1,10.6z"/>
	<path class="st3" d="M303.3,61.9c0.9,0,1.6,0.7,1.6,1.6c-0.1,4.1-0.9,7.8-2.1,11.1c-1.4,3.7-3.6,6.7-6.5,8.8
		c-2.9,2.1-6.6,3.2-11,3.2c-5.2,0-9.4-1.5-12.7-4.6c-3.2-3-4.9-8.1-4.9-15.1V34.3c0-0.8,0.7-1.5,1.5-1.5h11.7c0.8,0,1.5,0.7,1.5,1.5
		v32.8c0,1.8,0.3,3.2,0.9,4.4c0.6,1.1,1.4,1.9,2.5,2.4s2.3,0.8,3.7,0.8c2.8,0,5.1-0.6,6.7-1.7s2.8-2.6,3.4-4.5
		c0.5-1.5,0.9-3.2,1-5.1c0-0.8,0.7-1.4,1.5-1.4L303.3,61.9z M300.6,32.8h11.7c0.8,0,1.5,0.7,1.5,1.5v49.8c0,0.8-0.7,1.5-1.5,1.5
		h-10.9c-0.8,0-1.5-0.6-1.5-1.4L299,72.9v-0.1V34.3C299,33.5,299.7,32.8,300.6,32.8z"/>
	<path class="st3" d="M337.3,105.9h-11.7c-0.8,0-1.5-0.7-1.5-1.5V34.3c0-0.8,0.7-1.5,1.5-1.5h10.8c0.8,0,1.4,0.6,1.5,1.4l0.9,8.7
		c0,0.1,0,0.1,0,0.2v61.4C338.9,105.3,338.2,105.9,337.3,105.9z M372.1,59.7c0,5.1-0.8,9.7-2.4,13.8s-3.9,7.3-6.9,9.6
		c-3,2.4-6.8,3.5-11.3,3.5c-4.3,0-7.9-1.2-10.7-3.5c-2.8-2.4-4.9-5.5-6.5-9.5c-1.5-4-2.6-8.4-3.3-13.2c0-0.1,0-0.2,0-0.2v-1.3
		c0-0.1,0-0.1,0-0.2c0.7-5.1,1.7-9.7,3.3-13.7c1.5-4.1,3.7-7.2,6.5-9.6c2.8-2.3,6.3-3.5,10.6-3.5c4.5,0,8.2,1.1,11.3,3.3
		c3.1,2.2,5.4,5.4,7,9.4s2.4,8.7,2.4,14.1V59.7z M357.3,58.6c0-2.9-0.3-5.4-1-7.6c-0.6-2.2-1.7-4-3.1-5.3s-3.3-1.9-5.7-1.9
		c-1.8,0-3.4,0.3-4.7,0.9c-1.3,0.6-2.3,1.4-3.2,2.5c-0.8,1.1-1.4,2.5-1.9,4.1c-0.4,1.6-0.6,3.5-0.7,5.6v5.3v0.1
		c0.1,2.4,0.5,4.5,1.2,6.4s1.8,3.4,3.3,4.5s3.5,1.6,6,1.6c2.4,0,4.3-0.7,5.7-2.1c1.4-1.4,2.4-3.2,3-5.5s0.9-4.8,0.9-7.5v-1.1H357.3z
		"/>
	<path class="st3" d="M378.2,58.7c0-5.1,1-9.7,2.9-13.8s4.8-7.3,8.5-9.6s8.3-3.5,13.6-3.5c5.4,0,10,1.2,13.7,3.5s6.6,5.5,8.5,9.6
		s2.9,8.7,2.9,13.8v1c0,5.1-1,9.7-2.9,13.8s-4.8,7.3-8.5,9.6c-3.7,2.3-8.3,3.5-13.7,3.5s-9.9-1.2-13.7-3.5c-3.8-2.3-6.6-5.5-8.6-9.6
		s-2.9-8.7-2.9-13.8v-1H378.2z M393,59.8c0,2.8,0.3,5.3,1,7.6s1.8,4.1,3.3,5.4s3.6,2,6.1,2s4.6-0.7,6.1-2s2.6-3.1,3.3-5.4
		c0.7-2.3,1-4.8,1-7.6v-1c0-2.7-0.3-5.2-1-7.5s-1.8-4.1-3.3-5.5s-3.6-2.1-6.2-2.1c-2.5,0-4.6,0.7-6.1,2.1s-2.6,3.2-3.2,5.5
		c-0.7,2.3-1,4.8-1,7.5L393,59.8L393,59.8z"/>
	<path class="st3" d="M450.2,85.6h-11.7c-0.8,0-1.5-0.7-1.5-1.5V34.3c0-0.8,0.7-1.5,1.5-1.5h10.9c0.8,0,1.5,0.6,1.5,1.4l0.8,10.7V45
		v39.1C451.7,84.9,451,85.6,450.2,85.6z M467.2,45c0,0.9-0.8,1.6-1.7,1.5c-0.3,0-0.6-0.1-0.9-0.1c-1-0.1-1.9-0.1-2.6-0.1
		c-2.6,0-4.7,0.4-6.3,1.2c-1.7,0.8-2.9,2-3.7,3.5c-0.6,1.1-0.9,2.3-1.2,3.8c-0.1,1-1.2,1.6-2.1,1.2l0,0c-0.6-0.2-0.9-0.8-0.9-1.4
		c0.1-4.2,0.7-7.9,1.7-11.2c1.2-3.6,2.9-6.4,5.2-8.4c2.3-2,5-3.1,8.3-3.1c0.7,0,1.5,0,2.4,0.1c0.3,0,0.6,0.1,0.8,0.1
		c0.7,0.1,1.2,0.8,1.2,1.5L467.2,45z"/>
	<path class="st3" d="M501.1,43.5H473c-0.8,0-1.5-0.7-1.5-1.5v-7.7c0-0.8,0.7-1.5,1.5-1.5h28.1c0.8,0,1.5,0.7,1.5,1.5V42
		C502.6,42.9,502,43.5,501.1,43.5z M492.2,19.8c0.8,0,1.5,0.7,1.5,1.5v47.8c0,1.4,0.2,2.5,0.6,3.3s1,1.3,1.8,1.6
		c0.8,0.3,1.8,0.4,3,0.4c0.9,0,1.7,0,2.3-0.1h0.1c0.9-0.1,1.7,0.6,1.7,1.5V84c0,0.7-0.5,1.3-1.1,1.5c-0.9,0.3-1.8,0.5-2.8,0.6
		c-1.4,0.2-3,0.3-4.8,0.3c-3.2,0-5.9-0.5-8.2-1.6c-2.3-1.1-4.1-2.8-5.4-5.1c-1.3-2.3-1.9-5.4-1.9-9.2V21.3c0-0.8,0.7-1.5,1.5-1.5
		H492.2z"/>
</g>
</svg>
