<?xml version="1.0" encoding="utf-8"?>
<!-- Generator: Adobe Illustrator 23.0.0, SVG Export Plug-In . SVG Version: 6.00 Build 0)  -->
<svg version="1.1" id="Layer_1" xmlns="http://www.w3.org/2000/svg" xmlns:xlink="http://www.w3.org/1999/xlink" x="0px" y="0px"
	 width="711.1px" height="426.7px" viewBox="0 0 711.1 426.7" style="enable-background:new 0 0 711.1 426.7;" xml:space="preserve"
	>
<style type="text/css">
	.st0{fill:url(#SVGID_1_);}
	.st1{fill:url(#SVGID_2_);}
	.st2{fill:url(#SVGID_3_);}
	.st3{fill:url(#SVGID_4_);}
	.st4{fill:none;stroke:#2B6BB4;stroke-miterlimit:10;}
	.st5{fill:none;stroke:#010101;stroke-width:0.75;stroke-linecap:round;stroke-linejoin:round;stroke-miterlimit:10;}
	.st6{fill:none;stroke:#2B6BB4;stroke-width:0.75;stroke-linecap:round;stroke-linejoin:round;stroke-miterlimit:10;}
	.st7{fill:none;stroke:#FFDB59;stroke-miterlimit:10;}
	.st8{fill:url(#SVGID_5_);}
	.st9{fill:none;stroke:#FFFFFF;stroke-miterlimit:10;}
	.st10{fill:#2B6BB4;}
	.st11{fill:#0B0B0B;}
	.st12{fill:none;stroke:#010101;stroke-miterlimit:10;}
	.st13{fill:url(#SVGID_6_);}
	.st14{fill:none;stroke:#010101;stroke-miterlimit:10;stroke-dasharray:4;}
	.st15{fill:url(#SVGID_7_);}
	.st16{fill:#FFFFFF;}
	.st17{fill:#010101;}
	.st18{clip-path:url(#SVGID_9_);}
	.st19{fill:#FFFFFF;stroke:#010101;stroke-miterlimit:10;}
	.st20{fill:none;stroke:#1C191B;stroke-miterlimit:10;}
	.st21{fill:#FFFFFF;stroke:#1C191B;stroke-miterlimit:10;}
	.st22{fill:#EEDA37;stroke:#010101;stroke-miterlimit:10;}
	.st23{fill:#EEDA37;stroke:#1C191B;stroke-miterlimit:10;}
	.st24{fill:none;stroke:#030303;stroke-miterlimit:10;}
	.st25{fill:none;stroke:#0D0E0E;stroke-miterlimit:10;}
	.st26{fill:url(#SVGID_10_);}
	.st27{fill:#2B6BB4;stroke:#010101;stroke-miterlimit:10;}
	.st28{fill:#010101;stroke:#1C191B;stroke-miterlimit:10;}
	.st29{fill:#0D0E0E;}
	.st30{fill:#FEF7F7;stroke:#0D0E0E;stroke-miterlimit:10;}
	.st31{fill:url(#SVGID_11_);}
	.st32{clip-path:url(#SVGID_13_);}
	.st33{fill:#EEDA37;}
	.st34{fill:none;stroke:#010101;stroke-width:2;stroke-miterlimit:10;}
	.st35{fill:#2B6BB4;stroke:#211F21;stroke-miterlimit:10;}
	.st36{fill:#161616;}
	.st37{fill:#F7F7F6;}
	.st38{fill:none;}
	.st39{fill:url(#SVGID_14_);}
	.st40{clip-path:url(#SVGID_16_);}
	.st41{fill:#2B6BB4;stroke:#010101;stroke-width:0.909;stroke-miterlimit:10;}
	.st42{fill:#2B6BB4;stroke:#010101;stroke-width:0.9716;stroke-miterlimit:10;}
	.st43{fill:none;stroke:#010101;stroke-width:1.8801;stroke-miterlimit:10;}
	.st44{fill:#FFFFFF;stroke:#010101;stroke-width:0.94;stroke-miterlimit:10;}
	.st45{fill:#FEF7F7;}
	.st46{fill:#030303;}
	.st47{fill:#EEDA37;stroke:#010101;stroke-width:0.94;stroke-miterlimit:10;}
	.st48{fill:none;stroke:#010101;stroke-width:0.94;stroke-miterlimit:10;}
	.st49{fill:#2B6BB4;stroke:#010101;stroke-width:0.94;stroke-miterlimit:10;}
	.st50{fill:url(#SVGID_17_);}
	.st51{clip-path:url(#SVGID_19_);}
	.st52{fill:#FFDB59;stroke:#07060A;stroke-miterlimit:10;}
	.st53{fill:#76D0ED;stroke:#07060A;stroke-miterlimit:10;}
	.st54{fill:none;stroke:#07060A;stroke-miterlimit:10;}
	.st55{fill:#FFFFFF;stroke:#07060A;stroke-miterlimit:10;}
	.st56{fill:#4DBBEB;stroke:#07060A;stroke-miterlimit:10;}
	.st57{fill:url(#SVGID_20_);stroke:#07060A;stroke-miterlimit:10;}
	.st58{fill:#69CDEA;stroke:#010101;stroke-miterlimit:10;}
	.st59{fill:url(#SVGID_21_);}
	.st60{fill:url(#SVGID_22_);}
	.st61{fill:#88C5EC;}
	.st62{fill:#9988C0;stroke:#010101;stroke-miterlimit:10;}
	.st63{fill:none;stroke:#EEDA37;stroke-miterlimit:10;}
	.st64{fill:none;stroke:#2B6BB4;stroke-miterlimit:10;stroke-dasharray:3.9194,3.9194;}
	.st65{clip-path:url(#SVGID_24_);}
	.st66{fill:#2B6BB4;stroke:#010101;}
	.st67{font-family:'Montserrat-ExtraBold';}
	.st68{font-size:35.6593px;}
	.st69{fill:#FFFFFF;stroke:#292B68;stroke-miterlimit:10;}
</style>
<g>
	<g>
		<g>
			<g>
				<linearGradient id="SVGID_1_" gradientUnits="userSpaceOnUse" x1="273.3494" y1="407.5449" x2="292.7369" y2="407.5449">
					<stop  offset="0" style="stop-color:#DAE692"/>
					<stop  offset="1" style="stop-color:#E9E413"/>
				</linearGradient>
				<path class="st0" d="M273.3,407.9l3.2,3.2c1.7-1.7,4-2.7,6.5-2.7c2.4,0,4.7,1,6.5,2.7l3.2-3.2c-2.6-2.6-6-4-9.7-4
					C279.4,403.9,275.9,405.4,273.3,407.9z"/>
				<linearGradient id="SVGID_2_" gradientUnits="userSpaceOnUse" x1="268.0085" y1="401.0978" x2="298.0778" y2="401.0978">
					<stop  offset="0" style="stop-color:#DAE692"/>
					<stop  offset="1" style="stop-color:#E9E413"/>
				</linearGradient>
				<path class="st1" d="M268,402.6l3.2,3.2c3.2-3.2,7.4-4.9,11.8-4.9c4.5,0,8.7,1.7,11.8,4.9l3.2-3.2c-4-4-9.4-6.2-15-6.2
					C277.4,396.4,272,398.6,268,402.6z"/>
				<linearGradient id="SVGID_3_" gradientUnits="userSpaceOnUse" x1="262.6676" y1="394.6508" x2="303.4187" y2="394.6508">
					<stop  offset="0" style="stop-color:#DAE692"/>
					<stop  offset="1" style="stop-color:#E9E413"/>
				</linearGradient>
				<path class="st2" d="M283,388.8c-7.7,0-14.9,3-20.4,8.4l3.2,3.2c4.6-4.6,10.7-7.1,17.2-7.1s12.6,2.5,17.2,7.1l3.2-3.2
					C298,391.8,290.7,388.8,283,388.8z"/>
				<linearGradient id="SVGID_4_" gradientUnits="userSpaceOnUse" x1="279.1571" y1="415.0486" x2="286.9294" y2="415.0486">
					<stop  offset="0" style="stop-color:#DAE692"/>
					<stop  offset="1" style="stop-color:#E9E413"/>
				</linearGradient>
				<path class="st3" d="M283,411.2c-2.1,0-3.9,1.7-3.9,3.9c0,2.1,1.7,3.9,3.9,3.9c2.1,0,3.9-1.7,3.9-3.9
					C286.9,412.9,285.2,411.2,283,411.2z"/>
			</g>
			<g>
				<path class="st4" d="M347.4,107l3.2,3.2c1.7-1.7,4-2.7,6.5-2.7c2.4,0,4.7,1,6.5,2.7l3.2-3.2c-2.6-2.6-6-4-9.7-4
					C353.5,103,350,104.4,347.4,107z"/>
				<path class="st4" d="M342.1,101.7l3.2,3.2c3.2-3.2,7.4-4.9,11.8-4.9c4.5,0,8.7,1.7,11.8,4.9l3.2-3.2c-4-4-9.4-6.2-15-6.2
					C351.4,95.4,346.1,97.6,342.1,101.7z"/>
				<path class="st4" d="M357.1,87.9c-7.7,0-14.9,3-20.4,8.4l3.2,3.2c4.6-4.6,10.7-7.1,17.2-7.1c6.5,0,12.6,2.5,17.2,7.1l3.2-3.2
					C372.1,90.9,364.8,87.9,357.1,87.9z"/>
				<circle class="st4" cx="357.1" cy="114.1" r="3.9"/>
			</g>
			<g>
				<line class="st5" x1="415" y1="241.3" x2="415" y2="251.3"/>
				<line class="st5" x1="410" y1="246.3" x2="420" y2="246.3"/>
			</g>
			<g>
				<line class="st5" x1="140.2" y1="402.6" x2="140.2" y2="412.5"/>
				<line class="st5" x1="135.2" y1="407.5" x2="145.2" y2="407.5"/>
			</g>
			<circle class="st6" cx="225" cy="104.8" r="3.4"/>
			<g>
				
					<ellipse transform="matrix(0.862 -0.5069 0.5069 0.862 -78.9614 386.6427)" class="st7" cx="670.6" cy="338.3" rx="22" ry="22"/>
				<g>
					<rect x="658" y="329" class="st7" width="25.8" height="18.1"/>
					<polyline class="st7" points="658,329 670.9,340.2 683.8,329 					"/>
				</g>
			</g>
			<g>
				<linearGradient id="SVGID_5_" gradientUnits="userSpaceOnUse" x1="32.6237" y1="389.9081" x2="69.1005" y2="389.9081">
					<stop  offset="0" style="stop-color:#A6CEEE"/>
					<stop  offset="1" style="stop-color:#2B6BB4"/>
				</linearGradient>
				<circle class="st8" cx="50.9" cy="389.9" r="18.2"/>
				<g>
					<rect x="40.4" y="382.2" class="st9" width="21.4" height="16.1"/>
					<polyline class="st9" points="40.4,382.2 51.1,392.1 61.8,382.2 					"/>
				</g>
			</g>
			<g>
				
					<ellipse transform="matrix(0.102 -0.9948 0.9948 0.102 151.6325 319.1542)" class="st10" cx="252.6" cy="75.6" rx="11.6" ry="11.6"/>
				<g>
					<rect x="246" y="70.7" class="st9" width="13.6" height="10.2"/>
					<polyline class="st9" points="246,70.7 252.8,77 259.6,70.7 					"/>
				</g>
			</g>
			<path class="st4" d="M211.4,383.7c0,2.8-2.3,5.1-5.1,5.1c-2.8,0-5.1-2.3-5.1-5.1c0-2.8,2.3-5.1,5.1-5.1
				C209.1,378.6,211.4,380.9,211.4,383.7z"/>
			<path class="st11" d="M261.7,339.1c0,1.5-1.2,2.7-2.7,2.7c-1.5,0-2.7-1.2-2.7-2.7c0-1.5,1.2-2.7,2.7-2.7
				C260.4,336.4,261.7,337.6,261.7,339.1z"/>
			
				<ellipse transform="matrix(0.9232 -0.3844 0.3844 0.9232 -108.9987 268.519)" class="st12" cx="617.2" cy="406.9" rx="8.1" ry="8.1"/>
			<circle class="st4" cx="486.4" cy="262.6" r="7.1"/>
			<linearGradient id="SVGID_6_" gradientUnits="userSpaceOnUse" x1="682.0533" y1="258.3014" x2="693.1472" y2="258.3014">
				<stop  offset="0" style="stop-color:#A5A5A5"/>
				<stop  offset="1" style="stop-color:#2B6BB4"/>
			</linearGradient>
			<path class="st13" d="M693.1,258.3c0,3.1-2.5,5.5-5.5,5.5c-3.1,0-5.5-2.5-5.5-5.5c0-3.1,2.5-5.5,5.5-5.5
				C690.7,252.8,693.1,255.2,693.1,258.3z"/>
			<path class="st10" d="M347.8,185c0,2.3-1.9,4.2-4.2,4.2c-2.3,0-4.2-1.9-4.2-4.2c0-2.3,1.9-4.2,4.2-4.2
				C346,180.9,347.8,182.7,347.8,185z"/>
		</g>
		<g>
			<path class="st14" d="M290.8,330c3.8,35-22.5,66.6-58.8,70.6c-36.3,4-68.9-21.2-72.7-56.2"/>
		</g>
	</g>
	<g>
		<g>
			<g>
				<g>
					<linearGradient id="SVGID_7_" gradientUnits="userSpaceOnUse" x1="77.6024" y1="313.1107" x2="240.587" y2="313.1107">
						<stop  offset="0" style="stop-color:#90C1E8"/>
						<stop  offset="1" style="stop-color:#2B6BB4"/>
					</linearGradient>
					<path class="st15" d="M231.2,369.3H86.9c-5.2,0-9.3-4.2-9.3-9.3v-93.6c0-5.2,4.2-9.3,9.3-9.3h144.3c5.2,0,9.3,4.2,9.3,9.3v93.6
						C240.6,365.1,236.4,369.3,231.2,369.3z"/>
					<g>
						<path class="st16" d="M220.5,349.1H97.7c-5.2,0-9.3-4.2-9.3-9.3v-66.9c0-5.2,4.2-9.3,9.3-9.3h122.7c5.2,0,9.3,4.2,9.3,9.3
							v66.9C229.8,344.9,225.6,349.1,220.5,349.1z"/>
						<path class="st17" d="M130.6,302.6c0,0-7.7,24.2,8,29.5c15.7,5.3,17.4,0.9,20.9,9.3c3.5,8.4,17.4,4.7,18.8-8.1
							c1.3-12.8-8.1-11.8-13.1-12.5c-4.9-0.7-8.2-9.7-8.2-14.5C157.2,301.6,132.4,292.8,130.6,302.6z"/>
						<g>
							<defs>
								<path id="SVGID_8_" d="M220.5,349.1H97.7c-5.2,0-9.3-4.2-9.3-9.3v-66.9c0-5.2,4.2-9.3,9.3-9.3h122.7c5.2,0,9.3,4.2,9.3,9.3
									v66.9C229.8,344.9,225.6,349.1,220.5,349.1z"/>
							</defs>
							<clipPath id="SVGID_9_">
								<use xlink:href="#SVGID_8_"  style="overflow:visible;"/>
							</clipPath>
							<g class="st18">
								<g>
									<path class="st19" d="M148,325.3c0,0,16.7,1,34,17.2c17.2,16.2,16.8,58,16.8,58l-51.5-1.3L148,325.3z"/>
									<g>
										<path class="st16" d="M165.7,339.1c11.5,8.6,35,59.9,27.6,60.1c-7.5,0.2-96.5-0.5-99.2-3.3c-2.8-2.8,9.3-27.2,9.3-27.2
											s18.7-38.5,47.7-38.7C160.7,329.9,153.4,329.9,165.7,339.1z"/>
										<path class="st20" d="M118.4,370.7c0,0-8.2,22.9-6.3,25.4c1.9,2.6,61.8,3.3,66.8,3.1c5-0.2-3.5-36.2-7.7-46.6"/>
									</g>
								</g>
								<g>
									<path class="st21" d="M149.8,382.6c0,0,6.7-4.5,24.1-0.2c0,0,3.4,1.5,0.8,2.2c-2.6,0.7-9-0.4-9-0.4s10,0.9,10.2,2.7
										c0.2,1.7-9.4,0-9.4,0s10.4,1.6,10.3,3.4c-0.1,1.8-5.9-0.2-11.5,0.2c-5.6,0.4-15.9,4.5-17.4,3.4
										C146.1,392.8,142.7,385.3,149.8,382.6z"/>
									<g>
										<path class="st19" d="M144.1,325.3c-10.4,0.1-21.7,3.3-32.8,12.3c-15,12.3-40.5,50.8-29.4,70.7
											c11.1,19.9,36.8,12.1,45.7,8.1c8.9-4,26.3-17.3,28.2-22.8c2.2-6.4,1.3-10.9-6.8-12.9c-8-2-37.4,1.1-43.2,4.9"/>
										<path class="st22" d="M155.8,393.7c2.2-6.2,1.3-10.7-6.2-12.7c-0.4,2-0.5,4.4-0.2,7c0.5,4.3,1.9,7.9,3.7,9.8
											C154.5,396.1,155.4,394.7,155.8,393.7z"/>
									</g>
								</g>
								<path class="st23" d="M131.7,356.2c0,0-8.8-6.4-5.4-9.4c3.4-3,6.3,3.1,6.3,3.1s2-5.4,4.9-3.6
									C140.4,348.2,131.7,356.2,131.7,356.2z"/>
							</g>
						</g>
						<g>
							<path class="st23" d="M153.6,328.8c0,3-4.2,5.5-9.4,5.5c-5.2,0-9.4-2.5-9.4-5.5c0-3,4.2-5.5,9.4-5.5
								C149.3,323.4,153.6,325.8,153.6,328.8z"/>
							<path class="st19" d="M126.6,302.6c0,3.8,3.1,6.9,7,6.9s7-3.1,7-6.9s-3.1-6.9-7-6.9S126.6,298.8,126.6,302.6z"/>
							<path class="st19" d="M155.7,282.3h-8.3c-5.5,0-10,5.1-10,11.4v12.8c0,0.4,0,0.7,0,1.1c-0.1,0.4-0.1,0.8-0.1,1.2v7.8v0.4v7.8
								c0,2.8,2.3,5.1,5.1,5.1h3.3c2.8,0,5.1-2.3,5.1-5.1v-6.9h4.8c5.5,0,10-5.1,10-11.4v-12.8C165.7,287.5,161.2,282.3,155.7,282.3
								z"/>
							<g>
								<g>
									<path class="st17" d="M136.7,299.5c0,0,8.1-2.7,10.6-7.9c2.5-5.2,1.8-6.4,1.8-6.4s4.6,6.3,11.8,7.8c6,1.3,5.7,0.4,6.3-1
										c0.5-1.3,0.9-10.1-8.2-15.5c-9.1-5.4-18.8-4.9-25.5,1.9c-6.7,6.8-5.9,17.4-3.6,20.1C132.2,301.1,135.2,302.6,136.7,299.5z"
										/>
								</g>
								
									<ellipse transform="matrix(0.2298 -0.9732 0.9732 0.2298 -156.2376 335.1304)" class="st17" cx="133.6" cy="266.3" rx="8.1" ry="8.1"/>
							</g>
							<g>
								<path class="st16" d="M127,302.6c0,3.6,2.9,6.5,6.6,6.5s6.6-2.9,6.6-6.5c0-3.6-2.9-6.5-6.6-6.5S127,299,127,302.6z"/>
								<path class="st24" d="M137.2,303.5c0,0,0.3-4.4-4.3-3.9"/>
							</g>
							<g>
								<g>
									<circle class="st17" cx="151" cy="297.9" r="1.9"/>
									<path class="st17" d="M161.4,297.6c0,0.9,0.7,1.6,1.6,1.6c0.9,0,1.6-0.7,1.6-1.6c0-0.9-0.7-1.6-1.6-1.6
										C162.1,296.1,161.4,296.8,161.4,297.6z"/>
								</g>
								<path class="st25" d="M159.6,305.3c0,0-0.9,2.7-2.9,2.9c-2,0.2-3.5-2-3.6-3.7"/>
								<polygon class="st17" points="157.5,296.1 157.1,302.4 160.1,300.6 								"/>
							</g>
						</g>
						<path class="st12" d="M217,282.3h-33.3c-3.3,0-6-2.7-6-6l0,0c0-3.3,2.7-6,6-6H217c3.3,0,6,2.7,6,6l0,0
							C222.9,279.7,220.3,282.3,217,282.3z"/>
					</g>
					<path class="st12" d="M220.5,349.1H97.7c-5.2,0-9.3-4.2-9.3-9.3v-66.9c0-5.2,4.2-9.3,9.3-9.3h122.7c5.2,0,9.3,4.2,9.3,9.3v66.9
						C229.8,344.9,225.6,349.1,220.5,349.1z"/>
				</g>
				<g>
					<g>
						<path class="st17" d="M163.1,358.9c-0.3,4.9-7.6,4.9-7.6,0C155.5,353.9,162.9,354,163.1,358.9c0,0.8,1.3,0.8,1.3,0
							c-0.1-2.8-2.2-5.1-5.1-5.1c-2.7,0-5.1,2.3-5.1,5.1c0,2.7,2.2,4.9,4.8,5.1c3,0.1,5.2-2.2,5.3-5.1
							C164.4,358.1,163.2,358.1,163.1,358.9z"/>
					</g>
				</g>
			</g>
			<g>
				<g>
					<g>
						<linearGradient id="SVGID_10_" gradientUnits="userSpaceOnUse" x1="195.4843" y1="170.7146" x2="332.5517" y2="170.7146">
							<stop  offset="0" style="stop-color:#A6CEEE"/>
							<stop  offset="1" style="stop-color:#2B6BB4"/>
						</linearGradient>
						<path class="st26" d="M324.7,217.9H203.3c-4.3,0-7.9-3.5-7.9-7.9v-78.7c0-4.3,3.5-7.9,7.9-7.9h121.3c4.3,0,7.9,3.5,7.9,7.9
							v78.7C332.6,214.4,329,217.9,324.7,217.9z"/>
						<path class="st19" d="M315.6,201H212.4c-4.3,0-7.9-3.5-7.9-7.9v-56.3c0-4.3,3.5-7.9,7.9-7.9h103.2c4.3,0,7.9,3.5,7.9,7.9v56.3
							C323.5,197.5,320,201,315.6,201z"/>
						<g>
							<path class="st27" d="M235.8,201h55.1c-5.6-7.5-15.8-12.6-27.6-12.6C251.6,188.4,241.4,193.4,235.8,201z"/>
							<g>
								<ellipse class="st28" cx="264.1" cy="189.9" rx="9" ry="5.3"/>
								<path class="st19" d="M247.2,164.7c0,3.7,3,6.7,6.7,6.7c3.7,0,6.7-3,6.7-6.7c0-3.7-3-6.7-6.7-6.7
									C250.2,158,247.2,161,247.2,164.7z"/>
								<path class="st19" d="M275.2,145.2h-7.9c-5.3,0-9.6,4.9-9.6,10.9v12.3c0,0.3,0,0.7,0,1c-0.1,0.4-0.1,0.7-0.1,1.1v7.5v0.4
									v7.5c0,2.7,2.2,4.9,4.9,4.9h3.2c2.7,0,4.9-2.2,4.9-4.9v-6.6h4.6c5.3,0,9.6-4.9,9.6-10.9v-12.3
									C284.8,150.1,280.5,145.2,275.2,145.2z"/>
								<g>
									<g>
										<path class="st17" d="M257,161.7c0,0,7.8-2.6,10.2-7.6c2.4-5,1.8-6.1,1.8-6.1s4.4,6,11.3,7.5c5.7,1.2,5.5,0.4,6.1-1
											c0.5-1.2,0.9-9.7-7.8-14.9c-8.7-5.2-18-4.7-24.5,1.8c-6.4,6.5-5.7,16.8-3.5,19.3C252.6,163.2,255.5,164.7,257,161.7z"/>
									</g>
									<g>
										<path class="st12" d="M233.4,131.9c0,0-3.4,0.5-3.8,5.8c-0.5,5.3-3.8,11.7-11.2,13.3c-7.4,1.6-25,1.4-25.8-16.7
											c-0.8-18.1,19.6-22,26-15.5c4.5,4.6,5.9,5,8.7-0.3s11.6-9.8,20.1-2c8.5,7.8,2.4,16.4-1.8,17.7
											C241.3,135.4,236.3,129.6,233.4,131.9z"/>
										<circle class="st27" cx="254.4" cy="134.6" r="3.4"/>
									</g>
								</g>
								<g>
									<path class="st16" d="M247.6,164.7c0,3.5,2.8,6.3,6.3,6.3c3.5,0,6.3-2.8,6.3-6.3c0-3.5-2.8-6.3-6.3-6.3
										C250.5,158.4,247.6,161.2,247.6,164.7z"/>
									<path class="st24" d="M257.4,165.5c0,0,0.3-4.3-4.1-3.8"/>
								</g>
								<g>
									<g>
										<path class="st29" d="M268.9,160.2c0,1,0.8,1.8,1.8,1.8s1.8-0.8,1.8-1.8c0-1-0.8-1.8-1.8-1.8S268.9,159.2,268.9,160.2z"/>
										<path class="st29" d="M280.6,159.9c0,0.8,0.7,1.5,1.5,1.5c0.8,0,1.5-0.7,1.5-1.5c0-0.8-0.7-1.5-1.5-1.5
											C281.3,158.4,280.6,159.1,280.6,159.9z"/>
									</g>
									<path class="st30" d="M278.9,167.2c0,0-0.9,2.6-2.8,2.8c-1.9,0.2-3.4-1.9-3.5-3.6L278.9,167.2z"/>
									<polygon class="st17" points="276.9,158.4 276.5,164.5 279.4,162.7 									"/>
								</g>
							</g>
						</g>
					</g>
					<g>
						<g>
							<path class="st17" d="M267.3,209.2c-0.2,4-6.2,4-6.2,0C261.1,205.2,267.1,205.2,267.3,209.2c0,0.8,1.3,0.8,1.3,0
								c-0.1-2.4-1.9-4.4-4.4-4.4c-2.4,0-4.4,2-4.4,4.4c0,2.3,1.9,4.2,4.2,4.4c2.5,0.1,4.4-1.9,4.6-4.4
								C268.6,208.4,267.4,208.4,267.3,209.2z"/>
						</g>
					</g>
				</g>
			</g>
			<g>
				<g>
					<linearGradient id="SVGID_11_" gradientUnits="userSpaceOnUse" x1="39.7417" y1="128.9924" x2="176.809" y2="128.9924">
						<stop  offset="0" style="stop-color:#91C4EA"/>
						<stop  offset="1" style="stop-color:#2B6BB4"/>
					</linearGradient>
					<path class="st31" d="M168.9,176.2H47.6c-4.3,0-7.9-3.5-7.9-7.9V89.6c0-4.3,3.5-7.9,7.9-7.9h121.3c4.3,0,7.9,3.5,7.9,7.9v78.7
						C176.8,172.7,173.3,176.2,168.9,176.2z"/>
					<g>
						<g>
							<path class="st17" d="M111.6,167.5c-0.2,4-6.2,4-6.2,0C105.4,163.4,111.4,163.5,111.6,167.5c0,0.8,1.3,0.8,1.3,0
								c-0.1-2.4-1.9-4.4-4.4-4.4c-2.4,0-4.4,2-4.4,4.4c0,2.3,1.9,4.2,4.2,4.4c2.5,0.1,4.4-1.9,4.6-4.4
								C112.9,166.7,111.6,166.7,111.6,167.5z"/>
						</g>
					</g>
				</g>
				<g>
					<g>
						<path class="st16" d="M159.9,159.2H56.7c-4.3,0-7.9-3.5-7.9-7.9V95.1c0-4.3,3.5-7.9,7.9-7.9h103.2c4.3,0,7.9,3.5,7.9,7.9v56.3
							C167.7,155.7,164.2,159.2,159.9,159.2z"/>
						<g>
							<g>
								<g>
									<defs>
										<path id="SVGID_12_" d="M159.9,159.2H56.7c-4.3,0-7.9-3.5-7.9-7.9V95.1c0-4.3,3.5-7.9,7.9-7.9h103.2
											c4.3,0,7.9,3.5,7.9,7.9v56.3C167.7,155.7,164.2,159.2,159.9,159.2z"/>
									</defs>
									<clipPath id="SVGID_13_">
										<use xlink:href="#SVGID_12_"  style="overflow:visible;"/>
									</clipPath>
									<g class="st32">
										<g>
											<path class="st19" d="M91.4,140.1c-22.3,0-40.3,22.7-40.3,50.7h80.7C131.7,162.9,113.7,140.1,91.4,140.1z"/>
											<g>
												<path class="st33" d="M78.8,152.4c0,1.6-1.3,2.9-2.9,2.9S73,154,73,152.4s1.3-2.9,2.9-2.9S78.8,150.8,78.8,152.4z"/>
												<circle class="st33" cx="90.2" cy="163.1" r="3.2"/>
												<path class="st33" d="M105.4,152.4c0,1.6-1.3,2.9-2.9,2.9s-2.9-1.3-2.9-2.9s1.3-2.9,2.9-2.9S105.4,150.8,105.4,152.4z"
													/>
												<circle class="st33" cx="116.5" cy="159.8" r="2.5"/>
												<path class="st33" d="M68.9,164.8c0,1.7-1.3,3-3,3c-1.7,0-3-1.3-3-3c0-1.7,1.3-3,3-3C67.5,161.8,68.9,163.1,68.9,164.8z
													"/>
												<circle class="st33" cx="78.7" cy="173.5" r="3.2"/>
												<circle class="st33" cx="108.4" cy="172.9" r="2.6"/>
												<path class="st33" d="M124.1,178.1c0,1.4-1.1,2.6-2.6,2.6c-1.4,0-2.6-1.1-2.6-2.6c0-1.4,1.1-2.6,2.6-2.6
													C123,175.6,124.1,176.7,124.1,178.1z"/>
												<path class="st33" d="M65.4,179.4c0,1.5-1.2,2.7-2.7,2.7s-2.7-1.2-2.7-2.7s1.2-2.7,2.7-2.7S65.4,177.9,65.4,179.4z"/>
												<path class="st33" d="M96.8,182.1c0,1.5-1.2,2.7-2.7,2.7c-1.5,0-2.7-1.2-2.7-2.7s1.2-2.7,2.7-2.7
													C95.6,179.4,96.8,180.6,96.8,182.1z"/>
											</g>
										</g>
										<g>
											<path class="st10" d="M134.8,164.5l0.8-2.7c0,0,0.1-0.7-1-1.1c-1-0.4-16.9-6.5-16.9-6.5s-1.4-0.8-1.7,0.2
												c-0.4,1-3,5.3-3,5.3s-0.8,1.1,0.2,1.6c0.9,0.5,15.3,5.9,15.3,5.9l3.7,1.5c0,0,1.2,0.4,1.3-0.1
												C133.7,168,134.8,164.5,134.8,164.5z"/>
											<path class="st16" d="M139.3,145.5c0,0,1.4-7.4,0.3-8.8c-1.2-1.4-2.3,0.1-2.9,2c-0.6,1.9-1.5,5.4-1.5,5.4l-3.7-7.4
												c0,0,8.2-6,8.5-7.1c0.3-1.1,0.4-1.8-0.2-1.8c-0.6,0-2.3,0.5-2.3,0.5s2.8-2.7,1.9-3.6c-0.9-1-3.9,1.2-3.9,1.2
												s1.1-4.1,0.6-4.9c-0.5-0.8-3.9,3.8-4.8,5.6c-0.9,1.7-2.6,4.6-2.6,4.6s-1.1,0.9-1.1,1.3c0,0.5-1.4,1.5-1.6,1.7
												c-0.2,0.2-1.9,3.7-3.5,7.3c-1.6,3.6-3.9,8.4-3.9,8.4l-1.2,2.2c0,0-1.2,1.8,1.3,2.5c2.6,0.7,12.7,4.9,12.7,4.9l3.2,1.2
												c0,0,1,1.3,1.7-1.8C137.2,155.9,139.3,145.5,139.3,145.5z"/>
											<g>
												<path class="st12" d="M132.9,170.2c5.6-15.5,7.9-31.8,6.6-33.5c-1.8-2.3-3,1.6-4.4,7.4l-3.7-7.4c0,0,8.9-6,8.9-8.4
													c0-2.4-13.9,4.4-15.1,6.9c-0.8,1.6-5.5,14.9-13.5,26.5"/>
												<path class="st12" d="M136.6,128.5c0,0,3.7-2.3,2.8-3.9c-0.9-1.6-12,6.3-11.7,8.3"/>
												<path class="st12" d="M135.1,126.1c0,0,2.3-4.5,1-5.1c-1.3-0.6-6,7-6.5,9.3"/>
											</g>
											<g>
												<g>
													<line class="st12" x1="135.8" y1="161.2" x2="116.6" y2="153.7"/>
													<line class="st12" x1="133.3" y1="169.2" x2="112.5" y2="160.6"/>
												</g>
												<g>
													<line class="st12" x1="133.3" y1="160.2" x2="130.4" y2="168"/>
													<line class="st12" x1="129.7" y1="158.8" x2="126.7" y2="166.4"/>
													<line class="st12" x1="126.2" y1="157.3" x2="123.3" y2="164.9"/>
													<line class="st12" x1="122.4" y1="155.9" x2="119.7" y2="163.4"/>
													<line class="st12" x1="119.1" y1="154.7" x2="116" y2="162"/>
												</g>
											</g>
										</g>
									</g>
								</g>
								<g>
									<path class="st34" d="M75.5,117.4c0,3.3,2.7,6.1,6.1,6.1s6.1-2.7,6.1-6.1c0-3.3-2.7-6.1-6.1-6.1S75.5,114.1,75.5,117.4z"/>
									<path class="st35" d="M100.1,141.8c0,2.8-3.9,5.1-8.7,5.1s-8.7-2.3-8.7-5.1c0-2.8,3.9-5.1,8.7-5.1S100.1,139,100.1,141.8z"
										/>
									<path class="st19" d="M102.1,98.6h-7.7c-5.1,0-9.3,4.8-9.3,10.6v11.9c0,0.3,0,0.7,0,1c-0.1,0.4-0.1,0.7-0.1,1.1v7.2v0.4
										v7.2c0,2.6,2.1,4.8,4.8,4.8h3c2.6,0,4.8-2.1,4.8-4.8v-6.4h4.4c5.1,0,9.3-4.7,9.3-10.6v-11.9
										C111.4,103.4,107.2,98.6,102.1,98.6z"/>
									<g>
										<g>
											<path class="st36" d="M96,113.1c0,1,0.8,1.7,1.7,1.7c1,0,1.7-0.8,1.7-1.7c0-1-0.8-1.7-1.7-1.7
												C96.8,111.4,96,112.1,96,113.1z"/>
											<path class="st36" d="M107.4,112.8c0,0.8,0.7,1.5,1.5,1.5c0.8,0,1.5-0.7,1.5-1.5c0-0.8-0.7-1.5-1.5-1.5
												C108,111.4,107.4,112,107.4,112.8z"/>
										</g>
										<g>
											<path class="st37" d="M105.7,119.9c0,0-0.9,2.5-2.7,2.7c-1.8,0.2-3.3-1.9-3.4-3.5L105.7,119.9z"/>
											<g>
												<path class="st36" d="M105.2,119.8c-0.3,0.8-0.8,1.6-1.5,2c-1.7,1.1-3.4-1.1-3.5-2.6c-0.2,0.2-0.4,0.4-0.6,0.6
													c2,0.2,4.1,0.5,6.1,0.7c0.7,0.1,0.7-1,0-1.1c-2-0.2-4.1-0.5-6.1-0.7c-0.3,0-0.6,0.3-0.6,0.6c0.2,2,1.8,4.3,4.1,4
													c1.6-0.2,2.6-1.7,3.1-3.1C106.5,119.4,105.4,119.1,105.2,119.8z"/>
											</g>
										</g>
										<polygon class="st17" points="103.8,111.4 103.4,117.2 106.2,115.5 										"/>
									</g>
									<path class="st17" d="M87.3,115.1l1.3-7.2c0,0,7.5,2.4,13.2-2.2c5.7-4.6-3.7-6.4-2.2-3c1.5,3.4,6.7,4.8,13.2,4.1
										c9.6-1.1,9.9-12.7,4.3-16.1c-5.5-3.4-11.8,0.6-11.8,0.6s2.9-5.8-4.3-7.7C95.1,82,90.7,87,90,89.2c0,0-9.8,1-14.1,7.1
										c-4.3,6.1-4.7,13.5-0.4,20.2c4.3,6.7,9.4,10.3,9.4,10.3S85.8,118.2,87.3,115.1z"/>
									<g>
										<path class="st16" d="M75.5,117.4c0,3.3,2.7,6.1,6.1,6.1s6.1-2.7,6.1-6.1c0-3.3-2.7-6.1-6.1-6.1S75.5,114.1,75.5,117.4z"
											/>
										<g>
											<g>
												<path class="st11" d="M85.6,118.2c0-0.8-0.2-1.7-0.5-2.5c-0.8-1.5-2.5-2-4.1-1.9c-0.9,0.1-0.9,1.5,0,1.4
													c1.2-0.1,2.5,0.1,3,1.4c0.2,0.5,0.3,1.1,0.3,1.6C84.2,119.1,85.6,119.1,85.6,118.2L85.6,118.2z"/>
											</g>
										</g>
									</g>
								</g>
							</g>
						</g>
						<path class="st38" d="M159.9,159.2H56.7c-4.3,0-7.9-3.5-7.9-7.9V95.1c0-4.3,3.5-7.9,7.9-7.9h103.2c4.3,0,7.9,3.5,7.9,7.9v56.3
							C167.7,155.7,164.2,159.2,159.9,159.2z"/>
					</g>
					<path class="st12" d="M159.9,159.2H56.7c-4.3,0-7.9-3.5-7.9-7.9V95.1c0-4.3,3.5-7.9,7.9-7.9h103.2c4.3,0,7.9,3.5,7.9,7.9v56.3
						C167.7,155.7,164.2,159.2,159.9,159.2z"/>
				</g>
			</g>
			<g>
				<g>
					<g>
						<linearGradient id="SVGID_14_" gradientUnits="userSpaceOnUse" x1="267.9034" y1="290.5536" x2="406.2425" y2="290.5536">
							<stop  offset="0" style="stop-color:#93C3E9"/>
							<stop  offset="1" style="stop-color:#2B6BB4"/>
						</linearGradient>
						<path class="st39" d="M398.3,338.2H275.8c-4.4,0-7.9-3.6-7.9-7.9v-79.4c0-4.4,3.6-7.9,7.9-7.9h122.5c4.4,0,7.9,3.6,7.9,7.9
							v79.4C406.2,334.7,402.7,338.2,398.3,338.2z"/>
						<g>
							<g>
								<path class="st17" d="M340.4,329.4c-0.2,4-6.3,4.1-6.3,0C334.1,325.3,340.2,325.4,340.4,329.4c0,0.8,1.3,0.8,1.3,0
									c-0.1-2.4-1.9-4.4-4.4-4.4c-2.4,0-4.4,2-4.4,4.4c0,2.3,1.9,4.3,4.2,4.4c2.6,0.1,4.5-1.9,4.6-4.4
									C341.7,328.6,340.5,328.6,340.4,329.4z"/>
							</g>
						</g>
					</g>
					<g>
						<path class="st16" d="M390.5,321.1H286.3c-4.4,0-7.9-3.6-7.9-7.9v-56.8c0-4.4,3.6-7.9,7.9-7.9h104.2c4.4,0,7.9,3.6,7.9,7.9
							v56.8C398.4,317.5,394.8,321.1,390.5,321.1z"/>
						<g>
							<g>
								<g>
									<defs>
										<path id="SVGID_15_" d="M390.5,321.1H286.3c-4.4,0-7.9-3.6-7.9-7.9v-56.8c0-4.4,3.6-7.9,7.9-7.9h104.2
											c4.4,0,7.9,3.6,7.9,7.9v56.8C398.4,317.5,394.8,321.1,390.5,321.1z"/>
									</defs>
									<clipPath id="SVGID_16_">
										<use xlink:href="#SVGID_15_"  style="overflow:visible;"/>
									</clipPath>
									<g class="st40">
										<path class="st41" d="M266.4,319.4c0,0,18.1-17.3,37.4-20.9c19.3-3.6,57.9-3.2,78.8,24.4c20.9,27.6-30.5,52.1-31.9,52.3
											c-1.4,0.2-84.9-13.8-88.1-16.2C259.5,356.6,247.5,342.2,266.4,319.4z"/>
										<g>
											<path class="st41" d="M345.2,305.1c0,0,31.3,62.8,24.3,74.8c-7,12-58.8,23.4-84.6,10.3c-30.2-15.3,9.5-78.9,18.9-93.6
												L345.2,305.1z"/>
											<path class="st10" d="M296.7,319.4c0,4,3.2,7.2,7.2,7.2s7.2-3.2,7.2-7.2s-3.2-7.2-7.2-7.2S296.7,315.4,296.7,319.4z"/>
										</g>
									</g>
								</g>
								<path class="st12" d="M390.5,321.1H286.3c-4.4,0-7.9-3.6-7.9-7.9v-56.8c0-4.4,3.6-7.9,7.9-7.9h104.2c4.4,0,7.9,3.6,7.9,7.9
									v56.8C398.4,317.5,394.8,321.1,390.5,321.1z"/>
								<g>
									
										<ellipse transform="matrix(0.102 -0.9948 0.9948 0.102 -6.0845 591.2543)" class="st42" cx="324.4" cy="299" rx="16.3" ry="25.2"/>
									<g>
										<g>
											<path class="st43" d="M311.1,274.2c0,3.6,3,6.6,6.6,6.6c3.6,0,6.6-2.9,6.6-6.6c0-3.6-3-6.6-6.6-6.6
												C314.1,267.6,311.1,270.5,311.1,274.2z"/>
											<path class="st44" d="M339.9,253.8h-8.3c-5.5,0-10,5.1-10,11.4v12.9c0,0.4,0,0.7,0,1.1c-0.1,0.4-0.1,0.8-0.1,1.2v7.8v0.4
												v7.8c0,2.8,2.3,5.2,5.2,5.2h3.3c2.8,0,5.2-2.3,5.2-5.2v-6.9h4.8c5.5,0,10-5.1,10-11.4v-12.9
												C349.9,259,345.4,253.8,339.9,253.8z"/>
											<g>
												<g>
													<path class="st29" d="M333.3,269.4c0,1,0.8,1.9,1.9,1.9c1,0,1.9-0.8,1.9-1.9c0-1-0.8-1.9-1.9-1.9
														C334.2,267.6,333.3,268.4,333.3,269.4z"/>
													<path class="st29" d="M345.6,269.2c0,0.9,0.7,1.6,1.6,1.6c0.9,0,1.6-0.7,1.6-1.6c0-0.9-0.7-1.6-1.6-1.6
														C346.3,267.6,345.6,268.3,345.6,269.2z"/>
												</g>
												<g>
													<path class="st45" d="M343.8,276.8c0,0-0.9,2.7-2.9,2.9c-2,0.2-3.5-2-3.7-3.7L343.8,276.8z"/>
													<g>
														<path class="st29" d="M343.3,276.7c-0.3,0.8-0.9,1.8-1.6,2.2c-1.9,1.2-3.7-1.2-3.9-2.9c-0.2,0.2-0.3,0.3-0.5,0.5
															c2.2,0.3,4.4,0.5,6.6,0.8c0.7,0.1,0.7-1,0-1c-2.2-0.3-4.4-0.5-6.6-0.8c-0.3,0-0.6,0.3-0.5,0.5
															c0.2,2.1,1.9,4.5,4.3,4.2c1.7-0.2,2.8-1.8,3.3-3.3C344.5,276.3,343.5,276.1,343.3,276.7z"/>
													</g>
												</g>
												<polygon class="st17" points="341.7,267.6 341.3,273.9 344.3,272.1 												"/>
											</g>
											<path class="st17" d="M323.8,273.9l1.5-10.1c0,0,27.9,3.5,36.9-10c9-13.5-0.5-18.9-5.1-18.1c-4.6,0.8-10,7.4-10,7.4
												s4.3-5.8,0-6.7c-4.3-0.9-9,3.5-11.5,8.1c0,0-18.4-1.7-24.6,9.4c-6.2,11.1-1.2,19,10.2,30.5l0.8-6.4L323.8,273.9z"/>
											<g>
												<path class="st16" d="M311.1,274.2c0,3.6,3,6.6,6.6,6.6c3.6,0,6.6-2.9,6.6-6.6c0-3.6-3-6.6-6.6-6.6
													C314.1,267.6,311.1,270.5,311.1,274.2z"/>
												<g>
													<g>
														<path class="st46" d="M322,275c0.1-0.9-0.2-1.8-0.6-2.6c-0.9-1.6-2.6-2.2-4.4-2c-0.8,0.1-0.8,1.4,0,1.3
															c1.4-0.1,2.7,0.2,3.3,1.5c0.2,0.5,0.3,1.2,0.3,1.8C320.6,275.9,321.9,275.9,322,275L322,275z"/>
													</g>
												</g>
											</g>
										</g>
										<g>
											<path class="st47" d="M335.7,244.4c0,0-18.4,19-26,24.8c0,0-9.9-21.9-4.3-28C310,236.2,331.9,239.1,335.7,244.4z"/>
											<line class="st48" x1="329.6" y1="240.8" x2="307.2" y2="262.9"/>
										</g>
									</g>
									<g>
										<path class="st10" d="M340.8,291.6l3,11.1l-22.7,7.2l-1.2-4.6l-8.4-5l3.5-9.4l9.9,7.7l0.7,0.5c0,0,0.4,0.6,2.2-0.4
											C329.7,297.7,340.8,291.6,340.8,291.6z"/>
										<g>
											<polyline class="st49" points="341.7,291.1 320.1,303 319.9,305.8 											"/>
											<line class="st49" x1="314.5" y1="290.9" x2="326.3" y2="299.6"/>
										</g>
									</g>
									<g>
										<g>
											<path class="st48" d="M314.5,303.8c0,0-15.3,10.1-25.7,6.1"/>
											<circle class="st48" cx="314.2" cy="303.7" r="1.7"/>
										</g>
										<g>
											<path class="st48" d="M333.7,307.6c0,1,0.8,1.8,1.8,1.8c1,0,1.8-0.8,1.8-1.8s-0.8-1.8-1.8-1.8
												C334.5,305.8,333.7,306.6,333.7,307.6z"/>
											<path class="st48" d="M335.5,307.6c0,0,6.2,18,17.1,23.2"/>
										</g>
									</g>
								</g>
							</g>
						</g>
					</g>
				</g>
			</g>
			<g>
				<g>
					<linearGradient id="SVGID_17_" gradientUnits="userSpaceOnUse" x1="434.8994" y1="348.4735" x2="597.884" y2="348.4735">
						<stop  offset="0" style="stop-color:#4096D2"/>
						<stop  offset="1" style="stop-color:#2B6BB4"/>
					</linearGradient>
					<path class="st50" d="M588.5,404.6H444.2c-5.2,0-9.3-4.2-9.3-9.3v-93.6c0-5.2,4.2-9.3,9.3-9.3h144.3c5.2,0,9.3,4.2,9.3,9.3
						v93.6C597.9,400.4,593.7,404.6,588.5,404.6z"/>
					<g>
						<g>
							<path class="st17" d="M520.4,394.2c-0.3,4.9-7.6,4.9-7.6,0C512.8,389.3,520.2,389.3,520.4,394.2c0,0.8,1.3,0.8,1.3,0
								c-0.1-2.8-2.2-5.1-5.1-5.1c-2.7,0-5.1,2.3-5.1,5.1c0,2.7,2.2,4.9,4.8,5.1c3,0.1,5.2-2.2,5.3-5.1
								C521.7,393.4,520.5,393.4,520.4,394.2z"/>
						</g>
					</g>
				</g>
				<g>
					<path class="st19" d="M577.7,384.5H455c-5.2,0-9.3-4.2-9.3-9.3v-66.9c0-5.2,4.2-9.3,9.3-9.3h122.7c5.2,0,9.3,4.2,9.3,9.3v66.9
						C587.1,380.3,582.9,384.5,577.7,384.5z"/>
					<g>
						<g>
							<g>
								<path class="st17" d="M513.4,347.8c0,0,21.3,10.2,29.2-4.7c8-14.9-4.7-33.2-15.1-35.9C517.2,304.6,509.1,333.8,513.4,347.8z
									"/>
								<path class="st17" d="M504.2,349c0,0-9.3,6.9-23.4,1.6c-14.2-5.3-5.5-31.3,0-39.3c5.5-8,17.7-12.8,23.2-10.3
									C509.4,303.5,513.9,332.7,504.2,349z"/>
								
									<ellipse transform="matrix(0.5942 -0.8043 0.8043 0.5942 -46.8628 504.1767)" class="st17" cx="476.2" cy="298.5" rx="10.2" ry="10.2"/>
							</g>
							<g>
								<path class="st19" d="M535.9,327.5c0,0-3.4-7.8-6.3-7.3c-2.9,0.5-2.1,5.5-1.7,8.3c0.4,2.8,1.7,6.2-1.3,9.5
									C523.6,341.2,538.5,336.4,535.9,327.5z"/>
								<g>
									<path class="st19" d="M519.7,305.8H511c-5.8,0-10.5,5.4-10.5,12v13.5c0,0.4,0,0.8,0.1,1.1c-0.1,0.4-0.1,0.8-0.1,1.2v8.2
										v0.5v8.2c0,3,2.4,5.4,5.4,5.4h3.5c3,0,5.4-2.4,5.4-5.4v-7.3h5c5.8,0,10.5-5.4,10.5-12v-13.5
										C530.3,311.1,525.5,305.8,519.7,305.8z"/>
									<g>
										<g>
											<path class="st29" d="M513.4,322.1c0,1.1,0.9,2,2,2c1.1,0,2-0.9,2-2c0-1.1-0.9-2-2-2
												C514.3,320.2,513.4,321.1,513.4,322.1z"/>
											<path class="st29" d="M526.2,321.9c0,0.9,0.7,1.7,1.7,1.7c0.9,0,1.7-0.7,1.7-1.7c0-0.9-0.7-1.7-1.7-1.7
												C527,320.2,526.2,320.9,526.2,321.9z"/>
										</g>
										<g>
											<path class="st45" d="M524.6,330.9c0,0-1,2.9-3.1,3.1c-2.1,0.2-3.7-2.1-3.8-3.9L524.6,330.9z"/>
											<g>
												<path class="st29" d="M524.1,330.7c-0.3,0.9-0.9,1.8-1.7,2.3c-2,1.2-3.9-1.2-4.1-3c-0.2,0.2-0.4,0.4-0.6,0.6
													c2.3,0.3,4.6,0.6,6.9,0.8c0.7,0.1,0.7-1,0-1.1c-2.3-0.3-4.6-0.6-6.9-0.8c-0.3,0-0.6,0.3-0.6,0.6c0.2,2.2,2,4.8,4.5,4.5
													c1.7-0.2,2.9-1.9,3.5-3.5C525.4,330.3,524.3,330,524.1,330.7z"/>
											</g>
										</g>
										<polygon class="st17" points="522.1,320.2 521.7,326.9 524.9,324.9 										"/>
									</g>
									<path class="st17" d="M498.5,304C498.5,304,498.5,304,498.5,304c0.3-5,3.2-9.7,6.9-9.7c8.1-0.1,8,5.9,8,5.9
										c13.9-17.1,31.7-6.9,26,5.6c-5.8,12.6-28,10.6-28,10.6c-1.1,0-2.2-0.4-3.2-0.2c-2.6,0.5-4.5,3.8-5.3,7.9
										C501,334.4,493.3,311.9,498.5,304z"/>
									<g>
										<path class="st17" d="M497,319.3c1.3,0,2.5,0.3,3.6,0.9v2.1c-1-0.7-2.3-1.2-3.6-1.2c-3.3,0-6,2.7-6,6c0,3.3,2.7,6,6,6
											c1.4,0,2.6-0.4,3.6-1.2v2.1c-1.1,0.6-2.3,0.9-3.6,0.9c-4.3,0-7.8-3.5-7.8-7.8C489.2,322.8,492.7,319.3,497,319.3z"/>
										<g>
											<path class="st16" d="M490.1,327.1c0,3.8,3.1,6.9,6.9,6.9c3.8,0,6.9-3.1,6.9-6.9s-3.1-6.9-6.9-6.9
												C493.2,320.2,490.1,323.3,490.1,327.1z"/>
											<g>
												<g>
													<path class="st46" d="M501.5,328c0.1-0.9-0.2-1.9-0.6-2.7c-0.9-1.7-2.7-2.3-4.6-2.1c-0.9,0.1-0.9,1.5,0,1.4
														c1.4-0.1,2.9,0.2,3.5,1.6c0.2,0.6,0.4,1.2,0.3,1.8C500,328.9,501.4,328.9,501.5,328L501.5,328z"/>
												</g>
											</g>
										</g>
									</g>
								</g>
							</g>
						</g>
						<g>
							<defs>
								<path id="SVGID_18_" d="M577.7,384.5H455c-5.2,0-9.3-4.2-9.3-9.3v-66.9c0-5.2,4.2-9.3,9.3-9.3h122.7c5.2,0,9.3,4.2,9.3,9.3
									v66.9C587.1,380.3,582.9,384.5,577.7,384.5z"/>
							</defs>
							<clipPath id="SVGID_19_">
								<use xlink:href="#SVGID_18_"  style="overflow:visible;"/>
							</clipPath>
							<g class="st51">
								<g>
									<path class="st52" d="M451,419.9c5.3-41.8,41.7-72.4,66.2-63.5c19.5,7.1,28.1,46.2,31,63.5H451z"/>
									<path class="st53" d="M500.3,359.6h14.6c2.6,0,4.8-2.1,4.8-4.8v-2.4c0-2.6-2.1-4.8-4.8-4.8h-14.6c-2.6,0-4.8,2.1-4.8,4.8
										v2.4C495.6,357.5,497.7,359.6,500.3,359.6z"/>
									<g>
										<line class="st54" x1="517.3" y1="348.3" x2="517.3" y2="359"/>
										<line class="st54" x1="514.5" y1="347.7" x2="514.5" y2="359.6"/>
										<line class="st54" x1="511.7" y1="347.7" x2="511.7" y2="359.6"/>
										<line class="st54" x1="508.9" y1="347.7" x2="508.9" y2="359.6"/>
										<line class="st54" x1="506" y1="347.7" x2="506" y2="359.6"/>
										<line class="st54" x1="503.2" y1="347.7" x2="503.2" y2="359.6"/>
										<line class="st54" x1="500.3" y1="347.7" x2="500.3" y2="359.6"/>
										<line class="st54" x1="497.5" y1="348.6" x2="497.5" y2="358.7"/>
									</g>
								</g>
								<g>
									<g>
										<path class="st55" d="M468.6,322.8c1.3-0.8,2.6,4.5,3.2,8c-0.2-2.9-0.5-7.6,0.6-7.9c1.2-0.4,2.3,4.7,2.9,7.9
											c-0.2-2.9-0.5-7.8,0.5-7.9c1.3-0.1,2.3,4.4,2.9,7.9c-0.3-3-0.5-6.8,0.5-7c1.8-0.4,2.3,1.8,3.2,6.8c0.9,5,2.3,8.4,9.2,11.3
											c6,2.5,13.1,6.1,19.7,28.1l-19.3,0.9c0-0.6-0.1-1.1-0.1-1.7c-1.3-20.5-12.9-19.8-18.3-23.9
											C468.2,341.2,466.2,324.4,468.6,322.8z"/>
										<path class="st52" d="M478.5,419.9c8.6-11.2,14.4-31.4,13.6-49.6l19.1-1.2c1,3.3,2,7.1,3,11.4c4.3,18.2,1.5,31.5-1.6,39.4
											H478.5z"/>
										<g>
											<path class="st56" d="M512.7,374.8h-20.6c0-1.9,0-3.7-0.2-5.6c-0.1-1.4-0.2-2.6-0.4-3.8l18-0.9
												C510.6,367.5,511.7,370.9,512.7,374.8z"/>
											<g>
												<line class="st54" x1="506.7" y1="364.7" x2="509.1" y2="374.8"/>
												<line class="st54" x1="502.9" y1="364.8" x2="504.2" y2="374.8"/>
												<line class="st54" x1="499.1" y1="364.8" x2="499.7" y2="374.8"/>
												<line class="st54" x1="495.6" y1="365.2" x2="495.9" y2="374.5"/>
											</g>
										</g>
									</g>
									<g>
										<path class="st19" d="M533.4,330.8c0.8-4.6-3.6-9.5-2.2-10.6c1.5-1.2,9.6,6.3,7.3,13.8c-2.3,7.5-10.7,8.8-7.8,20
											c1.1,4,3.3,9.4,6.2,15.3l-19.2,0.5c-1.3-13.5,0.1-23.3,1.6-26.6C521.2,339.4,532.6,335.4,533.4,330.8z"/>
										<linearGradient id="SVGID_20_" gradientUnits="userSpaceOnUse" x1="517.6829" y1="393.628" x2="560.5028" y2="393.628">
											<stop  offset="8.379889e-03" style="stop-color:#FFDB59"/>
											<stop  offset="1" style="stop-color:#DCE11F"/>
										</linearGradient>
										<path class="st57" d="M530.9,419.9c-3.7-10.5-10.3-30.4-12.2-42.6c-0.4-2.9-0.8-5.7-1-8.3l18.3-1.7
											c5.2,11.1,12.9,24.3,18.1,32.4c4,6.2,6.1,13.8,6.4,20.2H530.9z"/>
										<g>
											<path class="st58" d="M518.3,374.5c-0.5-3.5-0.7-6.8-0.9-9.8h17.4c1.3,3,2.9,6.1,4.5,9.3L518.3,374.5z"/>
											<g>
												<line class="st12" x1="532.3" y1="364.8" x2="534.9" y2="374.5"/>
												<line class="st12" x1="528.6" y1="364.8" x2="529.9" y2="374.2"/>
												<line class="st12" x1="525.3" y1="364.7" x2="525.8" y2="374.3"/>
												<line class="st12" x1="521.3" y1="364.7" x2="522" y2="374.4"/>
											</g>
										</g>
									</g>
								</g>
							</g>
						</g>
					</g>
					<path class="st12" d="M577.7,384.5H455c-5.2,0-9.3-4.2-9.3-9.3v-66.9c0-5.2,4.2-9.3,9.3-9.3h122.7c5.2,0,9.3,4.2,9.3,9.3v66.9
						C587.1,380.3,582.9,384.5,577.7,384.5z"/>
				</g>
			</g>
		</g>
		<g>
			<g>
				<g>
					<linearGradient id="SVGID_21_" gradientUnits="userSpaceOnUse" x1="423.4435" y1="123.2909" x2="695.5452" y2="123.2909">
						<stop  offset="8.379889e-03" style="stop-color:#4BA5DC"/>
						<stop  offset="1" style="stop-color:#405DAA"/>
					</linearGradient>
					<path class="st59" d="M681.9,224.7H437.1c-7.5,0-13.6-6.1-13.6-13.6V35.5c0-7.5,6.1-13.6,13.6-13.6h244.9
						c7.5,0,13.6,6.1,13.6,13.6v175.6C695.5,218.6,689.5,224.7,681.9,224.7z"/>
					<linearGradient id="SVGID_22_" gradientUnits="userSpaceOnUse" x1="533.1179" y1="216.8549" x2="592.354" y2="216.8549">
						<stop  offset="8.379889e-03" style="stop-color:#FFDB59"/>
						<stop  offset="1" style="stop-color:#DCE11F"/>
					</linearGradient>
					<path class="st60" d="M562.7,250.1H539c-4.2,0-7.1-4.3-5.4-8.2l12.8-29.5l10.9-25.2c2.1-4.7,8.8-4.7,10.8,0l10.9,25.2
						l12.8,29.5c1.7,3.9-1.2,8.2-5.4,8.2H562.7z"/>
				</g>
				<path class="st12" d="M570,201.9c0,3.8-3.1,7-7,7s-7-3.1-7-7s3.1-7,7-7S570,198.1,570,201.9z"/>
			</g>
			<g>
				<path class="st19" d="M677.5,186.6H445.9c-3.4,0-6.2-2.8-6.2-6.2V43.7c0-3.4,2.8-6.2,6.2-6.2h231.6c3.4,0,6.2,2.8,6.2,6.2v136.6
					C683.8,183.8,681,186.6,677.5,186.6z"/>
				<g>
					<g>
						<path class="st19" d="M469,168.8h139.8c7.4,0,13.4-6,13.4-13.4V56.4c0-7.4-6-13.4-13.4-13.4H469c-7.4,0-13.4,6-13.4,13.4v98.9
							C455.6,162.7,461.6,168.8,469,168.8z"/>
						<g>
							<g>
								<path class="st27" d="M471.8,54.4c0,1.6-1.3,2.8-2.8,2.8c-1.6,0-2.8-1.3-2.8-2.8c0-1.6,1.3-2.8,2.8-2.8
									C470.6,51.6,471.8,52.9,471.8,54.4z"/>
								<path class="st22" d="M483.1,54.4c0,1.6-1.3,2.8-2.8,2.8c-1.6,0-2.8-1.3-2.8-2.8c0-1.6,1.3-2.8,2.8-2.8
									C481.8,51.6,483.1,52.9,483.1,54.4z"/>
								<path class="st19" d="M494.3,54.4c0,1.6-1.3,2.8-2.8,2.8c-1.6,0-2.8-1.3-2.8-2.8c0-1.6,1.3-2.8,2.8-2.8
									C493,51.6,494.3,52.9,494.3,54.4z"/>
							</g>
							<line class="st19" x1="456" y1="64.4" x2="622.3" y2="64.4"/>
						</g>
					</g>
					<g>
						<g>
							<rect x="581.8" y="117.2" class="st12" width="31.1" height="19.4"/>
							<g>
								<line class="st12" x1="585.6" y1="122.3" x2="608.1" y2="122.3"/>
								<line class="st12" x1="585.6" y1="125.8" x2="608.1" y2="125.8"/>
								<line class="st12" x1="585.6" y1="129.3" x2="608.1" y2="129.3"/>
							</g>
						</g>
						<g>
							<path class="st10" d="M545,97.3V74.6c-12.5,0-22.7,10.2-22.7,22.7c0,12.5,10.2,22.7,22.7,22.7s22.7-10.2,22.7-22.7
								c0-1.6-0.2-3.2-0.5-4.8L545,97.3z"/>
							<path class="st61" d="M570,88.5c-2.2-10.2-11.3-17.9-22.2-17.9v22.7L570,88.5z"/>
						</g>
						<g>
							<g>
								<g>
									<path class="st4" d="M610.9,78.1h-27.2c-1.1,0-1.9-0.9-1.9-1.9l0,0c0-1.1,0.9-1.9,1.9-1.9h27.2c1.1,0,1.9,0.9,1.9,1.9l0,0
										C612.8,77.3,612,78.1,610.9,78.1z"/>
									<g>
										<g>
											<line class="st4" x1="583.7" y1="81" x2="610.1" y2="81"/>
											<line class="st4" x1="583.7" y1="84.5" x2="610.1" y2="84.5"/>
											<line class="st4" x1="583.7" y1="88" x2="610.1" y2="88"/>
										</g>
										<g>
											<line class="st4" x1="583.7" y1="91.7" x2="610.1" y2="91.7"/>
											<line class="st4" x1="583.7" y1="95.2" x2="610.1" y2="95.2"/>
											<line class="st4" x1="583.7" y1="98.7" x2="610.1" y2="98.7"/>
										</g>
									</g>
								</g>
								<polyline class="st4" points="561.6,85.1 571.2,77.2 579.7,77.2 								"/>
							</g>
						</g>
						<g>
							<g>
								<polyline class="st12" points="477.1,106.3 477.1,150.9 544.6,150.9 								"/>
								<g>
									<polygon class="st62" points="477.1,106.6 474.7,106.6 475.9,104.5 477.1,102.4 478.3,104.5 479.5,106.6 									"/>
									<polygon class="st62" points="543.9,150.9 543.9,148.5 546,149.7 548.1,150.9 546,152.2 543.9,153.4 									"/>
								</g>
							</g>
							<polyline class="st63" points="471.5,147.3 487.9,132.5 501.4,147 518.5,115.8 530.9,146.2 							"/>
							<g>
								<g>
									<path class="st4" d="M465.9,125.2c0,0,0.5-0.6,1.4-1.4"/>
									<path class="st64" d="M470.3,121.3c4.4-3.4,11-7.1,15.1-3.1c6.6,6.4,5.1,11.3,18.4,8.4c12.6-2.7,28.1,1.1,32.5,22.8"/>
									<path class="st4" d="M536.7,151.4c0.1,0.6,0.2,1.3,0.3,2"/>
								</g>
							</g>
						</g>
					</g>
				</g>
				<g>
					<g>
						<g>
							<defs>
								<path id="SVGID_23_" d="M676.8,186.6H522.3c-3.8,0,4.4-26.2,4.4-30L556,74c0-3.8,53,2.2,56.8,2.2l64-38.7
									c3.8,0,6.9,3.1,6.9,6.9v135.3C683.8,183.5,680.7,186.6,676.8,186.6z"/>
							</defs>
							<clipPath id="SVGID_24_">
								<use xlink:href="#SVGID_23_"  style="overflow:visible;"/>
							</clipPath>
							<g class="st65">
								<g>
									<path class="st27" d="M676,100.1c0,0,41,16,62.7,85.4l-27.8,13.8l-20.6-52.5L676,100.1z"/>
									<g>
										<g>
											<path class="st16" d="M553.7,113.8c0,0-7-4.5-6.1-6.6c0.9-2.1,2.9-0.9,2.9-0.9s-2.1-1.3-1.1-2.7c1-1.4,2.3-0.9,2.3-0.9
												s-1.5-2.2-0.1-3c1.4-0.8,3.6-0.3,3.6-0.3s-0.8-1.8-0.8-2.4c0-0.6,1-2,3.9-1.3c3,0.7,9.3,4.2,11.5,5.3
												c2.1,1.1,4.6,3.6,4.6,2.8c0.1-0.8,1-6.1,3-7.6c2-1.5,2.8-1.8,3.2,1.1c0.4,2.9,0.3,11,4.2,17c3.9,6,5.3,9.9,9.4,14.8
												c4.2,4.8,6.1,7.3,6.1,7.3l-18.7,15.2c0,0-18.2-27.4-18.3-27.5C563.2,123.8,557.3,116.6,553.7,113.8z"/>
											<g>
												<path class="st12" d="M549.9,106.1c0,0-2.3-3.8,2-3.3c4.4,0.5,10.3,4.5,13.1,6.6"/>
												<path class="st12" d="M569.8,118c0,0-1.6-4.9,5.3-6.9c0,0-2.6-10.3,2.4-14.9c5-4.6,2.3,7.2,5.6,14.4
													c3.4,7.2,7.1,14.1,10.7,17.9c3.6,3.8,6.6,7.9,6.6,7.9l-18.9,15.2c0,0-6.5-9.8-16.5-25.1c-10-15.3-18.8-15.6-17.5-19.4
													c1.7-4.6,13.4,6.2,13.4,6.2"/>
												<path class="st12" d="M551.9,102.7c0,0-2.2-2.8,0.6-3.5c0.5-0.1,1.1-0.1,1.7,0c3.4,0.4,9.1,3.3,13.3,6.5"/>
												<path class="st12" d="M574.5,104.5c0,0-8.2-7.6-17.5-8.9c-3.4-0.5-3.2,2.9,0.1,4.3"/>
											</g>
										</g>
										<g>
											<path class="st27" d="M614,145.9c-2.6-1.8-5.3-4.1-7.9-6.6c-8.4-8.2-15.5-18.3-15.5-18.3L570,138.6
												c0,0,22.5,34.9,36,39.2c13.5,4.4,44.3-30.7,44.3-30.7l2.4-46.1c0,0-5.8,3.1-10.5,7.3c-7.6,6.9-21,19.2-36.1,31"/>
											<g>
												<path class="st19" d="M597.3,129.6c-4-4.8-6.7-8.7-6.7-8.7L570,138.6c0,0,2.6,4.1,6.6,9.6L597.3,129.6z"/>
												<path class="st19" d="M592.2,127.7c0,0.8-0.6,1.4-1.4,1.4c-0.8,0-1.4-0.6-1.4-1.4c0-0.8,0.6-1.4,1.4-1.4
													C591.6,126.3,592.2,126.9,592.2,127.7z"/>
											</g>
										</g>
									</g>
								</g>
								<g>
									<path class="st10" d="M708.7,188.5c0-0.4,0-8.2,0-8.6c0-45.4-19.3-82.3-43.2-82.3c-23.9,0-43.2,36.8-43.2,82.3
										c0,0.4,0,8.2,0,8.6H708.7z"/>
									<line class="st27" x1="665.3" y1="118.2" x2="665.3" y2="188.5"/>
									<path class="st27" d="M665.5,119l16.7-15c-5.1-4.1-10.7-6.3-16.7-6.3c-5.7,0-11.7,2.5-16.7,6.3L665.5,119z"/>
									<path class="st27" d="M628.5,137.4c-3.9,12.4-6.2,27-6.2,42.5c0,0.4,0,8.2,0,8.6h86.4c0-0.4,0-8.2,0-8.6
										c0-15.9-2.4-30.8-6.5-43.4"/>
									<path class="st27" d="M682.1,103.9c-5.1-4.1-10.8-6.3-16.7-6.3c-5.9,0-11.5,2.2-16.6,6.3"/>
								</g>
							</g>
						</g>
					</g>
				</g>
				<path class="st12" d="M677.5,186.6H445.9c-3.4,0-6.2-2.8-6.2-6.2V43.7c0-3.4,2.8-6.2,6.2-6.2h231.6c3.4,0,6.2,2.8,6.2,6.2v136.6
					C683.8,183.8,681,186.6,677.5,186.6z"/>
				<g>
					<g>
						<path class="st19" d="M682.6,108.4l-9.2-13.8c-1.8-2.7-5.2-3.7-8.1-2.6c-2.9-1.1-6.3-0.1-8.1,2.6l-9.2,13.8
							c-2.1,3.2-1.2,7.4,1.9,9.5l1.3,0.9c3.2,2.1,7.4,1.2,9.5-1.9l4.6-6.8l4.6,6.8c2.1,3.2,6.4,4,9.5,1.9l1.3-0.9
							C683.9,115.8,684.7,111.6,682.6,108.4z"/>
						<path class="st19" d="M666.8,106.8c0,0.7-0.6,1.3-1.3,1.3s-1.3-0.6-1.3-1.3c0-0.7,0.6-1.3,1.3-1.3S666.8,106,666.8,106.8z"/>
					</g>
					<g>
						<path class="st34" d="M683.6,74.2c0,3.9-3.2,7.1-7.2,7.1c-4,0-7.2-3.2-7.2-7.1c0-3.9,3.2-7.1,7.2-7.1
							C680.4,67.1,683.6,70.2,683.6,74.2z"/>
						<g>
							<path class="st19" d="M652.4,52.1h9c6,0,10.9,5.6,10.9,12.4v13.9c0,0.4,0,0.8-0.1,1.2c0.1,0.4,0.2,0.8,0.2,1.3v8.5v0.5v8.5
								c0,3.1-2.5,5.6-5.6,5.6h-3.6c-3.1,0-5.6-2.5-5.6-5.6v-7.5h-5.2c-6,0-10.9-5.6-10.9-12.4V64.5
								C641.5,57.7,646.4,52.1,652.4,52.1z"/>
							<g>
								<path class="st17" d="M669.9,73.9L668.2,63c0,0-30.2,3.8-40-10.9c-9.8-14.7,0.5-20.5,5.5-19.7c5,0.8,10.8,8,10.8,8
									s-4.6-6.3,0-7.3c4.6-1,9.8,3.8,12.4,8.8c0,0,19.9-1.9,26.7,10.2c6.7,12.1,1.3,20.6-11,33.1l-0.8-7L669.9,73.9z"/>
								<path class="st17" d="M704.6,38.9c0,7.1-5.7,12.8-12.8,12.8c-7.1,0-12.8-5.7-12.8-12.8c0-7.1,5.7-12.8,12.8-12.8
									C698.8,26.1,704.6,31.8,704.6,38.9z"/>
							</g>
							<g>
								<g>
									<g>
										<path class="st36" d="M657.9,68.9c0,1-0.8,1.8-1.8,1.8s-1.8-0.8-1.8-1.8c0-1,0.8-1.8,1.8-1.8S657.9,67.8,657.9,68.9z"/>
										<path class="st36" d="M645.8,68.6c0,0.9-0.7,1.6-1.6,1.6c-0.9,0-1.6-0.7-1.6-1.6c0-0.9,0.7-1.6,1.6-1.6
											C645.1,67,645.8,67.7,645.8,68.6z"/>
									</g>
									<g>
										<path class="st37" d="M647.6,76.1c0,0,0.9,2.7,2.9,2.9c2,0.2,3.5-2,3.6-3.7L647.6,76.1z"/>
										<g>
											<path class="st36" d="M647,76.3c0.5,1.5,1.6,3.1,3.3,3.3c2.4,0.3,4.1-2.1,4.3-4.2c0-0.3-0.3-0.6-0.6-0.6
												c-2.2,0.3-4.3,0.5-6.5,0.8c-0.7,0.1-0.7,1.2,0,1.1c2.2-0.3,4.3-0.5,6.5-0.8c-0.2-0.2-0.4-0.4-0.6-0.6
												c-0.2,1.7-1.9,4-3.8,2.8c-0.7-0.5-1.3-1.4-1.6-2.2C647.9,75.3,646.8,75.6,647,76.3z"/>
										</g>
									</g>
									<g>
										<path class="st12" d="M665.3,67.8c0,4-2.9,7.2-6.4,7.2c-3.5,0-6.4-3.2-6.4-7.2c0-4,2.9-7.2,6.4-7.2
											C662.5,60.6,665.3,63.8,665.3,67.8z"/>
										<ellipse class="st12" cx="642.9" cy="66.9" rx="5.3" ry="6.4"/>
										<polygon class="st17" points="650.3,67.1 650.3,73.3 647,71.3 										"/>
										<path class="st12" d="M648,68.8c0,0,2.6-1.1,4.5,0.5"/>
									</g>
								</g>
							</g>
							<g>
								<path class="st16" d="M683.6,74.2c0,3.9-3.2,7.1-7.2,7.1c-4,0-7.2-3.2-7.2-7.1c0-3.9,3.2-7.1,7.2-7.1
									C680.4,67.1,683.6,70.2,683.6,74.2z"/>
								<g>
									<g>
										<path class="st11" d="M673.2,75.1c0-0.6,0.1-1.3,0.3-1.9c0.6-1.5,2.1-1.8,3.6-1.7c0.9,0.1,0.9-1.3,0-1.4
											c-1.9-0.2-3.8,0.4-4.7,2.2c-0.4,0.8-0.7,1.9-0.6,2.8C671.9,76,673.3,76,673.2,75.1L673.2,75.1z"/>
									</g>
								</g>
							</g>
						</g>
					</g>
				</g>
			</g>
		</g>
	</g>
	<g>
		<g>
			<path class="st19" d="M550,5.2h44.3c5.7,0,10.3,4.6,10.3,10.3v18.1v6.3v19.8l-10.4-9.6H550c-5.7,0-10.3-4.6-10.3-10.3V15.5
				C539.7,9.8,544.3,5.2,550,5.2z"/>
			<text transform="matrix(1 0 0 1 560.6387 39.6623)" class="st66 st67 st68">?</text>
		</g>
		<g>
			<path class="st69" d="M631.7,270h-47.2c-6,0-10.9,4.9-10.9,10.9v19.3v6.7V328l11.1-10.2h47c6,0,10.9-4.9,10.9-10.9v-26
				C642.6,274.9,637.7,270,631.7,270z"/>
			<g>
				<path class="st19" d="M597.3,294.8c0,2.6-2.1,4.7-4.7,4.7c-2.6,0-4.7-2.1-4.7-4.7s2.1-4.7,4.7-4.7
					C595.2,290,597.3,292.1,597.3,294.8z"/>
				<circle class="st19" cx="609.1" cy="294.8" r="4.7"/>
				<path class="st19" d="M630.3,294.8c0,2.6-2.1,4.7-4.7,4.7c-2.6,0-4.7-2.1-4.7-4.7s2.1-4.7,4.7-4.7
					C628.2,290,630.3,292.1,630.3,294.8z"/>
			</g>
		</g>
		<g>
			<g>
				<path class="st22" d="M66,231.5c-1.1-6-4.5-9.9-8.2-12.4c-6.4-4.2-14.9-4.2-21.3,0c-3.8,2.5-7.2,6.4-8.2,12.4
					c-2,11.1,7.8,17,9.6,19.2c0,0,1.2,1,1.8,2.2c0.1,0.3,0.3,1.3,0.5,2.5h7h7c0.2-1.3,0.3-2.2,0.5-2.5c0.6-1.2,1.8-2.2,1.8-2.2
					C58.3,248.5,68,242.6,66,231.5z"/>
				<g>
					<path class="st16" d="M44.2,256.7c0,0,0-10.5-0.8-12c-0.8-1.5-4.3-6.7-4.9-7.8c-0.6-1.1,0.6-2.4,1.6-0.8c0.8,1.4,4.2,6.2,5,8.1
						c0.8,2,1.4,13,1.4,13L44.2,256.7z"/>
					<path class="st16" d="M50,256.7c0,0,0-10.5,0.8-12c0.8-1.5,4.3-6.7,4.9-7.8c0.6-1.1-0.6-2.4-1.6-0.8c-0.8,1.4-4.2,6.2-5,8.1
						c-0.8,2-1.4,13-1.4,13L50,256.7z"/>
					<g>
						<path class="st16" d="M55.1,236.5c-1.4,0.7-3.8,0.7-5.6,0.2c0,0,0,0,0,0c-1.5,1.1-3.5,0.7-5-0.4c-1.9,0.7-4.5,0.8-4.8,0.8l0-1
							c1.1,0,2.8-0.2,4-0.6c-1-1.1-1.3-2.3-0.6-3.2c0.9-1.1,2-1,2.7-0.5c0.8,0.6,1.2,2,0.5,3.2c-0.2,0.3-0.4,0.5-0.7,0.7
							c0.9,0.6,2.1,0.8,3,0.4c-0.3-0.2-0.6-0.4-0.8-0.6c-0.3-0.4-0.7-1.2,0.1-2.3c0.5-0.7,1.2-1,1.9-0.9c0.6,0.1,1.1,0.7,1.3,1.4
							c0.1,0.7-0.1,1.4-0.5,2c1.5,0.3,3.3,0.3,4.5-0.3L55.1,236.5z M48.8,233.5c-0.1,0.1-0.2,0.2-0.3,0.4c-0.4,0.5-0.2,0.8-0.1,1.1
							c0.2,0.2,0.5,0.5,0.9,0.6c0.5-0.5,0.7-1,0.6-1.5c-0.1-0.3-0.3-0.6-0.6-0.7C49.2,233.4,49,233.4,48.8,233.5z M44.6,235.2
							c0.3-0.2,0.6-0.4,0.7-0.6c0.5-0.7,0.2-1.5-0.2-1.8c-0.4-0.3-0.9-0.2-1.3,0.3c-0.4,0.5,0,1.3,0.6,1.9
							C44.4,235,44.5,235.1,44.6,235.2z"/>
					</g>
				</g>
				<g>
					<path class="st19" d="M47.1,254.4c-3.8,0-7-1-7.6-1.3c0,0.1,0.1,0.1,0.1,0.2c0.5,1,1.1,9.7,2.5,13.1c0.2,0.6,0.5,1,0.8,1.2
						c0.8,0.5,2.4,1,4.2,1c1.7,0.1,3.4-0.5,4.2-1c0.3-0.2,0.6-0.6,0.8-1.2c1.4-3.4,2-12.1,2.5-13.1c0-0.1,0.1-0.2,0.1-0.2
						C54.2,253.4,50.9,254.4,47.1,254.4z"/>
					<path class="st17" d="M47.1,258.3c2.2,0,4.6-0.3,6.8-1c0.1-1,0.3-2,0.4-2.7c-4.6,1.7-9.7,1.7-14.3,0c0.1,0.7,0.2,1.6,0.4,2.7
						C42.5,258,44.9,258.3,47.1,258.3z"/>
					<path class="st17" d="M47.1,262.7c2,0,4.1-0.3,6.1-0.8c0.2-0.9,0.3-1.8,0.4-2.6c-4.2,1.4-8.8,1.4-13,0c0.1,0.9,0.3,1.8,0.4,2.6
						C43,262.5,45.2,262.7,47.1,262.7z"/>
					<path class="st17" d="M41.5,264c0.2,0.9,0.4,1.7,0.7,2.4c0,0.1,0.1,0.2,0.1,0.3c1.6,0.3,3.3,0.5,4.8,0.5c1.6,0,3.2-0.2,4.8-0.5
						c0-0.1,0.1-0.2,0.1-0.3c0.3-0.6,0.5-1.4,0.7-2.4C49.1,265.1,45.2,265.1,41.5,264z"/>
				</g>
			</g>
			<g>
				<path class="st19" d="M47.5,210.4L47.5,210.4c-1.2,0-2.1-0.9-2.1-2v-9.5c0-1.1,0.9-2,2-2h0c1.1,0,2,0.9,2,2v9.5
					C49.5,209.5,48.6,210.4,47.5,210.4z"/>
				<path class="st19" d="M62,213L62,213c-1-0.5-1.4-1.8-0.9-2.7l4.5-8.3c0.5-1,1.7-1.3,2.7-0.8l0,0c1,0.5,1.4,1.7,0.8,2.7l-4.5,8.3
					C64.2,213.2,63,213.5,62,213z"/>
				<path class="st19" d="M33,213L33,213c1-0.5,1.4-1.8,0.9-2.7l-4.5-8.3c-0.5-1-1.7-1.3-2.7-0.8l0,0c-1,0.5-1.4,1.7-0.8,2.7
					l4.5,8.3C30.8,213.2,32,213.5,33,213z"/>
				<path class="st19" d="M22.2,224.1L22.2,224.1c-0.2,1.1-1.3,1.8-2.4,1.6l-9.3-1.9c-1.1-0.2-1.8-1.3-1.6-2.4l0,0
					c0.2-1.1,1.3-1.8,2.4-1.6l9.3,1.9C21.7,222,22.4,223,22.2,224.1z"/>
				<path class="st19" d="M21.7,239.2L21.7,239.2c-0.3-1.1-1.4-1.7-2.5-1.4l-9.1,2.7c-1.1,0.3-1.7,1.4-1.4,2.5l0,0
					c0.3,1.1,1.4,1.7,2.5,1.4l9.1-2.7C21.4,241.4,22,240.3,21.7,239.2z"/>
				<path class="st19" d="M72.7,224.1L72.7,224.1c0.2,1.1,1.3,1.8,2.4,1.6l9.3-1.9c1.1-0.2,1.8-1.3,1.6-2.4l0,0
					c-0.2-1.1-1.3-1.8-2.4-1.6l-9.3,1.9C73.2,222,72.5,223,72.7,224.1z"/>
				<path class="st19" d="M73.2,239.2L73.2,239.2c0.3-1.1,1.4-1.7,2.5-1.4l9.1,2.7c1.1,0.3,1.7,1.4,1.4,2.5l0,0
					c-0.3,1.1-1.4,1.7-2.5,1.4l-9.1-2.7C73.5,241.4,72.9,240.3,73.2,239.2z"/>
			</g>
		</g>
	</g>
</g>
</svg>
