<?xml version="1.0" encoding="utf-8"?>
<!-- Generator: Adobe Illustrator 23.0.0, SVG Export Plug-In . SVG Version: 6.00 Build 0)  -->
<svg version="1.1" id="Layer_1" xmlns="http://www.w3.org/2000/svg" xmlns:xlink="http://www.w3.org/1999/xlink" x="0px" y="0px"
	 width="303.1px" height="257.8px" viewBox="0 0 303.1 257.8" style="enable-background:new 0 0 303.1 257.8;" xml:space="preserve"
	>
<style type="text/css">
	.st0{fill:#FFFFFF;}
	.st1{fill:#9ADBF9;}
	.st2{fill:#2988C9;}
	.st3{fill:#4D4C4C;}
	.st4{fill:none;stroke:#4D4C4C;stroke-width:2;stroke-miterlimit:10;}
	.st5{fill:#FFFFFF;stroke:#4D4C4C;stroke-width:0.5;stroke-miterlimit:10;}
	.st6{fill:#3FB1E5;}
	.st7{fill:#FFDB59;}
	.st8{fill:#EDBF23;}
	.st9{fill:#3D5FAC;}
	.st10{fill:#F47523;}
	.st11{fill:#273339;}
	.st12{fill:#216DB6;}
</style>
<g>
	
		<rect x="73.1" y="105.2" transform="matrix(6.123234e-17 -1 1 6.123234e-17 20.8066 321.6524)" class="st0" width="196.3" height="90.4"/>
	<ellipse transform="matrix(0.365 -0.931 0.931 0.365 -26.1066 347.2791)" class="st1" cx="241.5" cy="192.8" rx="52.3" ry="52.3"/>
	<path class="st2" d="M206.9,232l0.3,13.1h-42.4l9.4-10.1c0,0,10.6,3.7,15.1-2l7.6,6.6L206.9,232z"/>
	<circle class="st1" cx="82" cy="200.7" r="52.3"/>
	<circle class="st1" cx="206.7" cy="53.1" r="44.7"/>
	
		<ellipse transform="matrix(0.9734 -0.2289 0.2289 0.9734 -23.0463 65.1802)" class="st1" cx="269.4" cy="131.9" rx="8.4" ry="8.4"/>
	<circle class="st1" cx="109.8" cy="39.7" r="5.6"/>
	
		<ellipse transform="matrix(0.7071 -0.7071 0.7071 0.7071 29.4895 104.112)" class="st1" cx="140.4" cy="16.5" rx="15.4" ry="15.4"/>
	<circle class="st3" cx="200.8" cy="53.9" r="17.2"/>
	<g>
		<path class="st0" d="M129.5,88.9c-5.2,1.9-9,7.7-9,14.5c0,7.7,4.9,14.1,11.2,15"/>
		<g>
			<path class="st3" d="M128.8,87.8c-13.6,5.8-12.5,28.7,2.5,31.8c1.6,0.3,2.2-2.1,0.7-2.4c-13-2.7-13.4-22.2-1.9-27.2
				C131.6,89.3,130.3,87.2,128.8,87.8L128.8,87.8z"/>
		</g>
	</g>
	<path class="st3" d="M287.4,253H6.4l0,0c0-4.9,4-8.9,8.9-8.9h263.3C283.4,244.1,287.4,248.1,287.4,253L287.4,253z"/>
	<path class="st3" d="M186.1,54.2c3-1.1,6.3-0.9,9.2,0.5c3.9,2,9.1,6.3,13.3,15.5c7.9,17.2,30.8,23.4,38.4,45.7
		c0,0,8.8,21.3-15.6,34.2c0,0,9.3-16.9-2-28.2c0,0,13.2,34.1-36.8,34.5l-16.2-1.3l-2.3-25.3c0,0,22.5-7.7,20.4-31.7
		C192.3,74.1,186.1,54.2,186.1,54.2L186.1,54.2z"/>
	<path class="st3" d="M129,104.9c0,0-1.2,6.1-15.1,7.7c-13.9,1.6-23.4,13.6-15.4,27.3c0,0-3.6-12.1,8.4-16c0,0-14.6,32.1,29.4,34.9
		l10.6-2.5l-0.4-24.1C146.5,132.3,131.6,129.8,129,104.9z"/>
	<g>
		<g>
			<path class="st3" d="M189,116.3c-4.9,7.6-14.3,12.8-22.8,14.9c-7.4,1.9-17,2.8-23.8-1.5c-5.1-3.2-8-8.6-9.7-14.2
				c-3.7-12.2-2.1-26.5,1.8-38.5c4.3-13.3,13.3-24.2,28.2-24.9c1.6-0.1,1.6-2.6,0-2.5c-25.2,1.2-33.6,28-34.4,49.4
				c-0.2,5.9,0.4,11.9,2.1,17.6c1.7,5.3,4.4,10.5,8.9,14c6.2,4.9,14.4,5.1,21.9,4.1c11.2-1.5,23.6-7.3,30-17.1
				C192,116.2,189.9,115,189,116.3L189,116.3z"/>
		</g>
	</g>
	<g>
		<g>
			<path class="st3" d="M137.1,111.9c1.5,5.9,7.9,7.6,13.2,6.3c5.5-1.3,9.8-6,10.1-11.8c0.1-1.6-2.4-1.6-2.5,0
				c-0.5,8.5-16,14.7-18.4,4.8C139.1,109.6,136.7,110.3,137.1,111.9L137.1,111.9z"/>
		</g>
	</g>
	<path class="st2" d="M137.5,155.1c0,0,13.3,5.8,51.7,0c0,0,28.1-0.1,49.3,56.3c0,0,11.2,29.8-8.8,35.2c-20,5.3-42.5-11.7-42.5-11.7
		s8.5-5.5,4.4-15.7c0,0-33.2-7.2-32.8,12.4H79.2C79.2,231.5,80.1,158.5,137.5,155.1z"/>
	<g>
		<g>
			<path class="st3" d="M136.8,156.2c8.7,3.7,20,3,29.1,2.6c5.9-0.3,11.7-0.8,17.6-1.6c2.1-0.3,4.3-0.9,6.4-0.8
				c2.7,0.1,5.5,1.3,7.8,2.3c14.4,6.5,24.3,20.9,31.3,34.5c6.1,11.7,14.5,28.6,10.3,42.4c-3.9,12.7-19.8,11.8-30.2,8.8
				c-7.6-2.2-15.1-5.9-21.4-10.7c0,0.7,0,1.4,0,2.2c4.7-3.1,6.9-8.9,5.8-14.3c-1-4.8-4.2-4.2-8.6-4.7c-11-1.1-27.4,0.2-27.5,14.6
				c0.4-0.4,0.8-0.8,1.3-1.3c-26.5,0-53,0-79.5,0c0.4,0.4,0.8,0.8,1.3,1.3c0.3-22.6,8.4-49,26.3-63.7c8.7-7.1,19.5-10.7,30.6-11.5
				c1.6-0.1,1.6-2.6,0-2.5c-18.9,1.3-34.8,10.7-45,26.7c-7.8,12.2-11.8,26.7-13.7,40.9c-0.4,3.3-0.8,6.7-0.8,10
				c0,0.7,0.6,1.3,1.3,1.3c26.5,0,53,0,79.5,0c0.7,0,1.2-0.6,1.3-1.3c0.1-12.1,14-12.9,23.2-12.3c1.5,0.1,6.7-0.1,7.9,1.1
				c0.1,0.1,0.3,3.7,0.3,4.2c0,2-0.6,4-1.6,5.7c-0.8,1.4-2,2.7-3.3,3.6c-0.8,0.6-0.8,1.6,0,2.2c12.1,9.1,33.7,18.6,48.1,9.9
				c11.4-6.8,8.8-23.8,5.1-34.4c-6.3-18.1-16.3-37.3-31.7-49.2c-5-3.9-12.1-8.4-18.9-8.3c-7.4,0.1-15.1,2-22.5,2.4
				c-5.5,0.3-11,0.3-16.4-0.1c-3.6-0.3-9.6-1-12.1-2.1C136.6,153.4,135.3,155.5,136.8,156.2z"/>
		</g>
	</g>
	<path class="st3" d="M161.9,48.5c0,0-11,34.1,30.4,48.5c0,0,15.4-47.8-26.4-52.4c0,0-22.2-10.5-38.4,6.3
		c-16.2,16.7,2.8,39.2,2.8,39.2s1.3-10.4,5.5-19.1c5.3-10.9,15-20.7,28.8-19.8L161.9,48.5z"/>
	<g>
		<path class="st0" d="M166.4,244.1H70.1c-4.6,0-8.3-3.7-8.3-8.3V172c0-4.6,3.7-8.3,8.3-8.3h96.3c4.6,0,8.3,3.7,8.3,8.3v63.8
			C174.7,240.4,171,244.1,166.4,244.1z"/>
		<g>
			<path class="st3" d="M166.4,242.9c-24.2,0-48.3,0-72.5,0c-5.8,0-11.5,0-17.3,0c-2.9,0-7,0.6-9.7-0.8c-5-2.5-3.9-9.5-3.9-14.1
				c0-7.4,0-14.7,0-22.1c0-11.1-1-22.8,0-33.8c0.7-6.9,6-7.1,11.1-7.1c5.4,0,10.9,0,16.3,0c15.3,0,30.5,0,45.8,0
				c9.8,0,20-0.8,29.8,0c8,0.6,7.4,7.2,7.4,13c0,7.7,0,15.4,0,23c0,8.3,0,16.6,0,24.9C173.5,232,175.3,242.2,166.4,242.9
				c-1.6,0.1-1.6,2.6,0,2.5c6.7-0.5,9.6-5.5,9.6-11.7c0-6.5,0-13,0-19.5c0-13.8,0.4-27.8,0-41.6c-0.4-12.2-13.1-10.2-21.6-10.2
				c-16.2,0-32.3,0-48.5,0c-11.7,0-23.5-0.4-35.3,0c-13,0.4-10.1,16-10.1,24.8c0,15.3,0,30.6,0,45.8c0,5.6,1.6,11.1,8.1,12.2
				c2.9,0.5,6.2,0.1,9.1,0.1c28.8,0,57.6,0,86.3,0c0.8,0,1.6,0,2.4,0C168,245.4,168,242.9,166.4,242.9z"/>
		</g>
	</g>
	<g>
		<g>
			<path class="st3" d="M191.9,106.1c-2,13.5-18.9,17.4-30.1,17.6c-1.6,0-1.6,2.5,0,2.5c12.2-0.2,30.3-4.7,32.5-19.4
				C194.6,105.2,192.2,104.5,191.9,106.1L191.9,106.1z"/>
		</g>
	</g>
	<g>
		<ellipse class="st0" cx="194.1" cy="103.3" rx="12.8" ry="15.1"/>
		<g>
			<path class="st3" d="M180.1,103.3c0.3,7.9,5.2,16.4,14,16.4c8.6,0,14-8.5,14-16.4c0-7.9-5.5-16.4-14-16.4
				C185.3,87,180.4,95.5,180.1,103.3c-0.1,1.6,2.4,1.6,2.5,0c0.3-6.5,4.2-13.9,11.5-13.9c7.2,0,11.5,7.4,11.5,13.9
				c0.1,6.5-4.4,13.9-11.5,13.9c-7.4,0-11.3-7.4-11.5-13.9C182.5,101.7,180,101.7,180.1,103.3z"/>
		</g>
	</g>
	<ellipse class="st3" cx="161.9" cy="124.9" rx="4" ry="3.3"/>
	<path class="st3" d="M156.4,96.9c0,2,1.3,3.7,2.8,3.7c1.5,0,2.8-1.7,2.8-3.7s-1.3-3.7-2.8-3.7C157.7,93.2,156.4,94.8,156.4,96.9z"
		/>
	<path class="st3" d="M135.8,96.9c0,2,1.3,3.7,2.8,3.7c1.5,0,2.8-1.7,2.8-3.7s-1.3-3.7-2.8-3.7C137,93.2,135.8,94.8,135.8,96.9z"/>
	<path class="st3" d="M128.4,83.3c0.4,2.2,2.8,0.5,6.9-0.3c4.1-0.8,8.3-0.4,7.9-2.5c-0.4-2.2-4.1-3.3-8.1-2.5
		C130.9,78.8,128,81.2,128.4,83.3z"/>
	<path class="st3" d="M154,80.3c-0.3,2.2,2.5,1.3,6.6,1.8c4.1,0.5,8,2.2,8.3,0c0.3-2.2-2.9-4.4-7-4.9S154.3,78.1,154,80.3z"/>
	<g>
		<g>
			<path class="st3" d="M145.4,105.7c-1.4-0.7-3.1-1.7-2.6-3.6c0.3-1,1.6-2.3,2.2-3.2c2-3.1,2.8-6.5,2.7-10.2c0-1.6-2.5-1.6-2.5,0
				c0,3.1-0.5,6-2.2,8.7c-0.8,1.4-2.2,2.6-2.8,4.1c-1.2,2.9,1.4,5.2,3.8,6.4C145.6,108.6,146.9,106.4,145.4,105.7L145.4,105.7z"/>
		</g>
	</g>
	<path class="st4" d="M144.9,96.7c0-6.5-5.2-11.7-11.7-11.7c-6.5,0-11.7,5.2-11.7,11.7c0,6.5,5.2,11.7,11.7,11.7
		c3.2,0,6.1-1.3,8.2-3.4"/>
	<circle class="st4" cx="161.9" cy="96.7" r="11.7"/>
	<path class="st4" d="M144.2,92.7c0,0,0.8-0.9,6.5,0"/>
	<line class="st4" x1="173.6" y1="97.8" x2="182.1" y2="98.2"/>
	<path class="st3" d="M174.7,129.3c0,0-9.2,13.3-27.8,9.7l-0.4-6C146.5,133.1,164,136.5,174.7,129.3z"/>
	
		<ellipse transform="matrix(0.7071 -0.7071 0.7071 0.7071 -108.7848 143.0459)" class="st3" cx="118.3" cy="202.8" rx="7.3" ry="7.3"/>
	<g>
		<path class="st0" d="M180.2,48.8c0,0,10.5,10.1,11.6,40.8l10.3,1c0,0,1.7-27.1-10-37.2C192.2,53.5,184.6,47,180.2,48.8z"/>
		<g>
			<path class="st3" d="M179.3,49.7c2.3,2.2,3.8,5.4,5,8.3c4.4,9.9,5.8,21,6.2,31.7c0,0.7,0.6,1.2,1.3,1.3c3.4,0.3,6.9,0.7,10.3,1
				c0.7,0.1,1.2-0.6,1.3-1.3c0.5-8.6-0.3-17.9-3.1-26.1c-2.5-7.5-10.9-19.6-20.5-17c-1.5,0.4-0.9,2.8,0.7,2.4
				c4.2-1.2,9.5,2.8,12.2,5.8c3.7,4.1,5.5,9.6,6.7,14.9c1.4,6.5,1.9,13.3,1.5,20c0.4-0.4,0.8-0.8,1.3-1.3c-3.4-0.3-6.9-0.7-10.3-1
				c0.4,0.4,0.8,0.8,1.3,1.3c-0.5-10.9-1.9-22.1-6.2-32.2c-1.4-3.3-3.2-7-5.8-9.5C179.9,46.8,178.2,48.6,179.3,49.7z"/>
		</g>
	</g>
	<g>
		<ellipse class="st0" cx="197.3" cy="103.3" rx="12.8" ry="15.1"/>
		<g>
			<path class="st3" d="M183.3,103.3c0.3,7.9,5.2,16.4,14,16.4c8.6,0,14-8.5,14-16.4c0-7.9-5.5-16.4-14-16.4
				C188.5,87,183.6,95.5,183.3,103.3c-0.1,1.6,2.4,1.6,2.5,0c0.3-6.5,4.2-13.9,11.5-13.9c7.2,0,11.5,7.4,11.5,13.9
				c0.1,6.5-4.4,13.9-11.5,13.9c-7.4,0-11.3-7.4-11.5-13.9C185.7,101.7,183.2,101.7,183.3,103.3z"/>
		</g>
	</g>
	<path class="st5" d="M134.3,143.4c0,0,5.9-1.7,12.2-1.5v6.6C146.5,148.4,136.8,146.8,134.3,143.4z"/>
	<path class="st5" d="M193.2,143.4c0,0-12.9-1.7-19.1-1.5v6.6C174,148.4,190.6,146.8,193.2,143.4z"/>
	<g>
		<g>
			<path class="st3" d="M173.5,129.7c0,7,0,13.9,0,20.9c0,1.6,2.5,1.6,2.5,0c0-7,0-13.9,0-20.9C176,128.1,173.5,128.1,173.5,129.7
				L173.5,129.7z"/>
		</g>
	</g>
	<g>
		<g>
			<path class="st3" d="M145.3,133.1c0,5.9,0,11.7,0,17.6c0,1.6,2.5,1.6,2.5,0c0-5.9,0-11.7,0-17.6
				C147.8,131.5,145.3,131.5,145.3,133.1L145.3,133.1z"/>
		</g>
	</g>
	<path class="st6" d="M134.3,156c0,0,21,11.5,58.8,0v-12.6c0,0-34.9,10.6-58.8,0V156z"/>
	<g>
		<g>
			<path class="st3" d="M186.9,233.4c-3,3-7.4,2.8-10.9,0.9c-1.4-0.8-2.7,1.4-1.3,2.2c4.4,2.4,10.1,2.5,13.9-1.3
				C189.8,234,188.1,232.3,186.9,233.4L186.9,233.4z"/>
		</g>
	</g>
	<g>
		<g>
			<path class="st3" d="M191.9,220.3c9.2-2.9,19.8-2,29,0c1.6,0.3,2.2-2.1,0.7-2.4c-9.6-2.1-20.7-3.1-30.3,0
				C189.7,218.4,190.3,220.8,191.9,220.3L191.9,220.3z"/>
		</g>
	</g>
	<g>
		<g>
			<path class="st3" d="M208.2,217.3c-1.1-12.6-3.9-25.6-9.5-37.1c-0.7-1.4-2.9-0.2-2.2,1.3c5.3,11,8.1,23.6,9.1,35.8
				C205.8,218.9,208.3,218.9,208.2,217.3L208.2,217.3z"/>
		</g>
	</g>
	<g>
		<g>
			<path class="st3" d="M133.7,157.1c4.8,2.6,10.7,3.8,16,4.5c14.7,2,29.6-0.2,43.8-4.4c0.5-0.2,0.9-0.6,0.9-1.2c0-4.2,0-8.4,0-12.6
				c0-0.8-0.8-1.4-1.6-1.2c-18,5.4-40.2,7.6-57.9,0.1c-0.8-0.4-1.9,0-1.9,1.1c0,4.2,0,8.4,0,12.6c0,1.6,2.5,1.6,2.5,0
				c0-4.2,0-8.4,0-12.6c-0.6,0.4-1.3,0.7-1.9,1.1c18.3,7.7,41,5.8,59.8,0.1c-0.5-0.4-1.1-0.8-1.6-1.2c0,2.1,0,4.2,0,6.3
				c0,1.4,0,2.8,0,4.1c0,0.4,0.2,1.2,0,1.5c-0.5,1,0.5-0.5-0.5,0.2c-0.2,0.2-3.3,0.5-4.2,0.7c-1.5,0.4-2.9,0.7-4.4,1
				c-2.5,0.5-5,1-7.5,1.4c-4.9,0.7-9.9,1.1-14.9,1.1c-8.3-0.1-18-0.9-25.5-4.9C133.5,154.1,132.3,156.3,133.7,157.1z"/>
		</g>
	</g>
	<path class="st3" d="M145.8,121.1c0,0.5,0.7,0.9,1.6,0.9c0.9,0,1.6-0.4,1.6-0.9c0-0.5-0.7-0.5-1.6-0.5
		C146.5,120.7,145.8,120.7,145.8,121.1z"/>
	<g>
		<circle class="st7" cx="269.3" cy="101" r="21.1"/>
		<path class="st8" d="M282.6,84.6c2.9,3.6,4.7,8.3,4.7,13.3c0,11.7-9.5,21.1-21.1,21.1c-5,0-9.7-1.8-13.3-4.7
			c3.9,4.8,9.8,7.8,16.4,7.8c11.7,0,21.1-9.5,21.1-21.1C290.4,94.4,287.4,88.4,282.6,84.6z"/>
		<path class="st9" d="M281.2,107.4c-1.7,5-6.4,8.5-11.9,8.5s-10.2-3.6-11.9-8.5c-0.4-1.3,0.6-2.7,2-2.7h19.8
			C280.6,104.7,281.6,106,281.2,107.4z"/>
		<path class="st0" d="M278.3,104.7v1.6c0,0.9-0.8,1.7-1.7,1.7h-14.7c-0.9,0-1.7-0.8-1.7-1.7v-1.6H278.3z"/>
		<g>
			<g>
				<path class="st9" d="M266.8,95.9c0-1.5-1.2-2.7-2.7-2.7s-2.7,1.2-2.7,2.7s1.2,2.7,2.7,2.7S266.8,97.4,266.8,95.9z"/>
			</g>
			<g>
				<path class="st9" d="M276.4,95.9c0-1.5-1.2-2.7-2.7-2.7s-2.7,1.2-2.7,2.7s1.2,2.7,2.7,2.7S276.4,97.4,276.4,95.9z"/>
			</g>
		</g>
		<path class="st10" d="M271,101c0-0.7-0.9-0.7-2-0.7s-2,0-2,0.7s0.9,1.2,2,1.2C270.2,102.2,271,101.7,271,101z"/>
	</g>
	<g>
		<g>
			<path class="st11" d="M261.6,231.5l0.9,12.2c0,1.9,2.7,3.4,6,3.4s6-1.5,6-3.4l0.9-12.2H261.6z"/>
		</g>
		<g>
			<g>
				<path class="st11" d="M275.6,231.5c0,2.1-3.1,3.9-7,3.9s-7-1.7-7-3.9c0-2.1,3.1-3.9,7-3.9C272.5,227.6,275.6,229.3,275.6,231.5z
					"/>
			</g>
		</g>
		<g>
			<path class="st12" d="M245.3,183.9c1.5,0.7,5.3,0.6,5.3,0.6s-0.8-2.5-0.9-2.6c-0.8-1.7-3.4-4.6-5.5-4.3c-1.5,0.2-2.4,1.7-2,3.2
				C242.5,182.2,244,183.3,245.3,183.9z"/>
			<path class="st12" d="M246.6,194.7c1.6,0.2,4.9-0.7,5.2-0.8c0.5,1.9,1.2,3.7,2,5.6c0.5,1.1,1,2.1,1.5,3.2
				c-0.3-0.4-0.6-0.8-0.6-0.9c-1.2-1.4-4.5-3.5-6.5-2.7c-1.4,0.6-1.8,2.3-1.1,3.6s2.5,2,3.9,2.2s4.3-0.6,5.1-0.8
				c0.2,0.4,0.4,0.8,0.6,1.2c1,1.9,1.9,3.8,2.8,5.8c0.3,0.7,0.6,1.3,0.9,2c-0.3-0.4-0.5-0.7-0.5-0.8c-1.2-1.4-4.5-3.5-6.5-2.7
				c-1.4,0.6-1.8,2.3-1.1,3.6s2.5,2,3.9,2.2c1.4,0.2,4-0.5,4.9-0.7c0.3,0.7,0.6,1.4,0.8,2.1c0.2,0.5,0.3,0.9,0.5,1.4
				c0.1,0.5,0.3,1,0.4,1.4c0.2,0.9,0.5,1.9,0.6,2.7c0.1,0.6,0.3,1.2,0.4,1.8c-0.3-0.7-0.9-2-1-2.1c-1-1.6-3.9-4.1-6-3.6
				c-1.5,0.4-2.2,2-1.6,3.4c0.5,1.4,2.1,2.3,3.5,2.7c1.5,0.5,4.8,0,5.2,0c0.2,1,0.4,2,0.5,2.9c0.4,2,0.6,3.8,0.8,5.4h1.4
				c-0.2-1.6-0.6-3.5-1-5.6c-0.2-1-0.4-2.1-0.7-3.2c0.2-0.1,1.7-0.7,2.9-1.4c1.1,1.2,3.9,2.6,4.3,2.7c-0.4,0.9-0.8,1.8-1.1,2.7
				c-0.8,1.8-1.5,3.4-2.2,4.7h1.5c0.6-1.2,1.2-2.6,1.8-4.2c0.4-0.9,0.8-2,1.2-3c0.4,0.1,3.7,0.8,5.2,0.4c1.4-0.3,3.1-1.1,3.7-2.5
				c0.6-1.3,0.1-3-1.4-3.5c-2-0.7-5.1,1.6-6.2,3.2c-0.1,0.1-0.7,1.2-1.1,1.8c0.2-0.4,0.3-0.8,0.5-1.3c0.3-0.9,0.6-1.8,0.9-2.7
				c0.1-0.5,0.3-0.9,0.4-1.4c0.2-0.5,0.3-1,0.4-1.5c0.3-1.2,0.5-2.3,0.7-3.5c0.8,0.3,3.5,1.2,4.9,1.1c1.4-0.1,3.2-0.6,4-1.9
				c0.8-1.2,0.5-3-0.8-3.7c-1.9-1-5.3,0.8-6.6,2.2c-0.1,0.1-0.9,1.2-1.4,1.8c0.1-0.7,0.2-1.4,0.3-2.2c0.3-2.1,0.5-4.3,0.7-6.4
				c0.1-0.7,0.1-1.3,0.2-2c0.3,0.1,3.5,1.3,5.1,1.2c1.4-0.1,3.2-0.6,4-1.9c0.8-1.2,0.5-3-0.8-3.7c-1.9-1-5.3,0.8-6.6,2.2
				c-0.1,0.1-1.3,1.6-1.6,2.1c0.2-1.4,0.3-2.9,0.5-4.3c0.3-1.9,0.7-3.8,1.2-5.6c0.1,0,3.5,1.3,5.1,1.2c1.4-0.1,3.2-0.6,4-1.9
				c0.8-1.2,0.5-3-0.8-3.7c-1.9-1-5.3,0.8-6.6,2.2c-0.1,0.1-1.4,1.8-1.7,2.1c0-0.1,0.1-0.2,0.1-0.3c0.6-1.9,1.4-3.7,2.2-5.3
				c0.5-0.9,1-1.8,1.5-2.7c0.6,0.3,3.4,1.7,4.9,1.7c1.4,0.1,3.2-0.3,4.2-1.4c0.9-1.1,0.8-2.9-0.4-3.7c-1.8-1.2-5.4,0.2-6.8,1.4
				c-0.1,0.1-0.8,0.8-1.4,1.4c0.2-0.4,0.5-0.8,0.7-1.1c0.9-1.3,1.8-2.5,2.6-3.6c0.5-0.6,0.9-1.1,1.3-1.6c0.7,0,3.8-0.1,5.1-0.7
				c1.3-0.6,2.8-1.7,3.1-3.2c0.3-1.4-0.6-2.9-2.1-3.1c-2.1-0.2-4.6,2.7-5.4,4.4c-0.1,0.2-0.8,2.6-0.8,2.6l0,0
				c-0.4,0.5-0.8,0.9-1.3,1.5c-0.8,1-1.8,2.2-2.7,3.5c-0.9,1.3-1.9,2.8-2.8,4.4c-0.9,1.6-1.7,3.4-2.4,5.3c0,0,0,0,0,0.1
				c0-0.6,0-2.4,0-2.5c-0.2-1.9-1.8-5.4-3.9-5.8c-1.5-0.3-2.8,0.9-2.9,2.4s1,3,2,4c1.2,1.1,4.5,2.1,4.8,2.2c-0.6,1.9-1,3.8-1.4,5.8
				c-0.2,1.1-0.4,2.3-0.5,3.5c0-0.5,0-1,0-1.1c-0.2-1.9-1.8-5.4-3.9-5.8c-1.5-0.3-2.8,0.9-2.9,2.4s1,3,2,4c1.1,1,3.9,1.9,4.6,2.1
				c-0.1,0.4-0.1,0.9-0.2,1.3c-0.3,2.1-0.5,4.3-0.8,6.4c-0.1,0.7-0.2,1.5-0.4,2.2c0-0.5,0-0.9,0-0.9c-0.2-1.9-1.8-5.4-3.9-5.8
				c-1.5-0.3-2.8,0.9-2.9,2.4s1,3,2,4c1,0.9,3.6,1.8,4.5,2.1c-0.2,0.7-0.3,1.5-0.5,2.2c-0.1,0.5-0.2,0.9-0.4,1.4
				c-0.2,0.5-0.3,0.9-0.5,1.4c-0.3,0.9-0.6,1.8-1,2.6c-0.2,0.6-0.5,1.2-0.7,1.7c0.1-0.7,0.3-2.2,0.3-2.3c0-1.3-0.4-3.3-1.3-4.8
				c0-0.2,0-0.4,0-0.6c-0.2-1.5-1.6-2.5-3.1-2.1c-2.1,0.5-3.4,4.2-3.5,6.1c0,0.1,0.1,1.3,0.1,2.1c-0.1-0.4-0.2-0.9-0.3-1.3
				c-0.2-0.9-0.5-1.8-0.7-2.8c-0.1-0.5-0.3-0.9-0.4-1.4s-0.3-1-0.5-1.4c-0.4-1.1-0.9-2.2-1.4-3.3c0.8-0.2,3.6-0.9,4.8-1.8
				c1.1-0.9,2.3-2.3,2.3-3.8s-1.2-2.8-2.7-2.6c-2.1,0.2-4,3.6-4.3,5.5c0,0.1-0.1,1.5-0.2,2.2c-0.3-0.7-0.6-1.3-0.9-2
				c-0.9-1.9-2-3.8-3-5.7c-0.3-0.6-0.6-1.2-0.9-1.8c0.3-0.1,3.7-0.8,4.9-1.8c1.1-0.9,2.3-2.3,2.3-3.8s-1.2-2.8-2.7-2.6
				c-2.1,0.2-4,3.6-4.3,5.5c0,0.1-0.2,2.1-0.2,2.6c-0.7-1.3-1.3-2.6-1.9-3.9c-0.8-1.8-1.5-3.6-2.1-5.4c0.1,0,3.7-0.8,5-1.8
				c1.1-0.9,2.3-2.3,2.3-3.8s-1.2-2.8-2.7-2.6c-2.1,0.2-4,3.6-4.3,5.5c0,0.1-0.2,2.3-0.2,2.7c0-0.1-0.1-0.2-0.1-0.3
				c-0.6-1.9-0.9-3.9-1.1-5.7c-0.1-1.1-0.2-2.1-0.2-3.1c0.7-0.1,3.7-0.5,5-1.3c1.2-0.7,2.6-2,2.7-3.5c0.2-1.5-0.9-2.9-2.4-2.9
				c-2.1,0-4.3,3.2-4.9,5c0,0.1-0.2,1.1-0.4,1.9c0-0.4,0-0.9,0-1.3c0-1.6,0.1-3.1,0.2-4.4c0.1-0.7,0.1-1.4,0.2-2
				c0.6-0.4,3.1-2.2,3.8-3.4c0.7-1.2,1.3-3,0.8-4.4c-0.5-1.4-2.1-2.1-3.5-1.4c-1.9,1-2.4,4.8-2.1,6.7c0,0.2,0.7,2.7,0.8,2.6l0,0
				c-0.1,0.6-0.2,1.2-0.2,2c-0.1,1.3-0.3,2.8-0.3,4.4c0,1.6,0,3.4,0.1,5.2c0.2,1.9,0.4,3.8,1,5.8c0,0,0,0,0,0.1
				c-0.3-0.5-1.3-2-1.4-2.1c-1.2-1.4-4.5-3.5-6.5-2.7c-1.4,0.6-1.8,2.3-1.1,3.6C243.4,193.9,245.2,194.5,246.6,194.7z"/>
			<path class="st12" d="M283.2,184.7c0,0,0.7-2.5,0.7-2.7c0.3-1.9-0.3-5.7-2.3-6.6c-1.4-0.7-2.9,0.1-3.4,1.5s0.1,3.2,0.9,4.3
				C280,182.7,283.2,184.7,283.2,184.7z"/>
		</g>
		<path class="st12" d="M274.1,231.5c0,1.7-2.5,3.1-5.5,3.1s-5.5-1.4-5.5-3.1c0-1.7,2.5-3.1,5.5-3.1
			C271.7,228.4,274.1,229.8,274.1,231.5z"/>
	</g>
</g>
</svg>
