<?xml version="1.0" encoding="utf-8"?>
<!-- Generator: Adobe Illustrator 23.0.0, SVG Export Plug-In . SVG Version: 6.00 Build 0)  -->
<svg version="1.1" id="Layer_1" xmlns="http://www.w3.org/2000/svg" xmlns:xlink="http://www.w3.org/1999/xlink" x="0px" y="0px"
	 width="387.5px" height="387.8px" viewBox="0 0 387.5 387.8" style="enable-background:new 0 0 387.5 387.8;" xml:space="preserve"
	>
<style type="text/css">
	.st0{fill:#AAD541;}
	.st1{fill:#EFE8E5;}
	.st2{fill:#F9F7F7;}
	.st3{fill:#93CBD3;}
	.st4{fill:#B6E446;}
	.st5{fill:#DB4955;}
	.st6{fill:#D72F3C;}
	.st7{fill:#6FBAC5;}
	.st8{fill:#A9D7DD;}
	.st9{fill:#FEBE54;}
	.st10{fill:#FEA342;}
</style>
<g>
	<path class="st0" d="M189.8,384.2c-5.3-2-10.9-1.8-16.4-2.8c-30.8-5.6-58-18.6-82.2-38.4c-17.9-14.7-32.2-32.3-43.4-52.5
		c-0.2-0.4-0.3-0.9-0.5-1.4c0.2-0.5,0.3-1,0.7-1.3c7.7-6.9,15.7-13.4,25.8-16.8c4-1.4,8-1.5,12.1-0.2c0.8,0.3,1.4,0.8,1.8,1.5
		c5.9,12,13.8,22.6,22.4,32.6c15.8,18.3,34.6,32.8,56.2,43.5c20.7,10.3,42.5,16.5,65.6,18.4c16.8,1.4,33.4,0.6,49.9-2.4
		c1.4-0.3,2.9-1,4.2,0.4c-14,7.4-29,12.3-44.5,15.6c-6.6,1.4-13.2,2.3-19.9,3c-0.7,0.1-1.5-0.1-1.9,0.8c-3,0-6,0-9,0
		c-1.5-0.6-3-0.6-4.5,0c-0.5,0-1,0-1.5,0c-2.3-0.6-4.5-0.6-6.8,0C195.3,384.2,192.5,384.2,189.8,384.2z"/>
	<path class="st1" d="M26.5,205c-3,0-6-0.3-9,0C9,205.8,3,202.6,0,194.5c0-34,0-68,0-102C3,85.5,7.8,81.4,15.7,82
		c1.5,1.8,1.1,4,1.1,6.1c0,30.2,0,60.5,0,90.7c0,1.2,0,2.5,0,3.7c0.1,5,1.2,6.2,6.2,6.2c12.9,0.1,25.8,0.2,38.6-0.1
		c7-0.2,13,1.8,18.5,5.9c4.3,3.2,8.6,6.4,13.1,9.4c3.6,2.5,4.6,2.2,6.8-1.5c5.3-9.3,13.1-14,24-13.7c6.1,0.2,12.2,0,18.4,0
		c1.6,0,3.3-0.1,4.8,0.5c2.2,1.8,1.6,4.1,0.9,6.2c-2,6.3-7.4,10.3-14.1,10.4c-3.4,0.1-6.8-0.1-10.1,0.1c-5.8,0.3-8.9,3.5-9,9.3
		c0,3.6,0,7.2,0,10.9c0,1.4,0,2.8-0.4,4.1c-1.2,5-5,6.7-9.3,3.9c-4.2-2.7-8.2-5.7-12.2-8.7c-7.5-5.6-15.3-10.8-22.8-16.5
		c-1.6-1.2-3.3-2.3-5.4-2.5c-10.9-0.9-21.8-0.1-32.8-0.4C30.2,206.1,28.1,206.5,26.5,205z"/>
	<path class="st2" d="M147.7,189.9c-8.4,0-16.7,0.1-25.1,0c-10-0.1-17,4.7-21.6,13.3c-2.6,4.8-3.4,5.2-7.9,2.1
		c-5.4-3.8-10.7-7.7-16.1-11.5c-3.9-2.7-8.2-4-13-3.9c-13.9,0.1-27.7,0-41.6,0c-5.6,0-6.7-1.2-6.7-6.8c0-33.7,0-67.4,0-101.2
		c18.7,0,37.3,0,56,0c1.6,0,3.3,0.2,4.7-0.8c6.7-0.7,13.5-0.3,20.2-0.4c11.6,0,23.2,0.3,34.9-0.1c11.1-0.4,18.3,7.6,17.3,17.3
		c0.1,19.1,0.1,38.2,0,57.4c0.3,9.9,0.1,19.7,0.1,29.6C148.9,186.7,149.1,188.6,147.7,189.9z"/>
	<path class="st3" d="M359.1,114.2c10.1,17.4,17.4,35.8,21.3,55.6c3.2,16.2,4.3,32.5,3,49c-1.8,24.3-8.2,47.3-19.5,68.9
		c-17,32.5-41.7,57.5-73.9,75.2c-0.9,0.5-1.8,0.8-2.7,1.2c-1.8-0.4-2.5-2-3.4-3.3c-8.2-10.4-17.5-19.9-24.8-30.9
		c-1.8-2.7-4.8-5-3.5-9c3.2-3.9,7.3-5.3,12.2-5.3c14.1,0,28.2,0,42.3,0c11.3,0,15.7-4.3,15.8-15.5c0-0.6,0.1-1.2,0-1.9
		c-0.3-25.1,0-50.2-0.1-75.2c0-5.9,0.1-11.7-0.3-17.6c0.3-2.3,2-3.7,3.3-5.3c6.9-8.4,11.5-17.8,13.1-28.5
		c2.5-16.6-0.8-31.9-11.8-45.1c-1.4-1.7-3.8-3-2.8-5.9c2.7-1.2,5.6-0.6,8.5-0.7c3.5-0.1,7,0,10.5,0c3.9,0,7.3-1.2,10.2-4
		C357.1,115.1,357.8,114.1,359.1,114.2z"/>
	<path class="st4" d="M255.4,321.9c4.7,9.2,11.4,16.8,17.9,24.7c4.7,5.8,9.8,11.3,14,17.4c-0.4,0.2-0.9,0.5-1.3,0.7
		c-8.6,1.2-17.1,2.8-25.7,3.4c-8.2,0.6-16.5,0.7-24.7,0.1c-11.9-0.8-23.7-2.7-35.1-5.9c-21.7-6-41.8-15.2-60-28.5
		c-8.8-6.4-17.1-13.3-24.6-21.1C105.5,302,96.5,290.2,89,277.2c-0.9-1.5-1.9-3-2-4.8c3.9-0.7,6.2,1.9,8,4.4
		c7.4,10.3,22.5,13,33.9,8.3c7.9-3.2,13.1-9.4,17.2-16.6c3.7-6.6,5.6-13.9,7.8-21c1.3-4.1,2.5-8.1,3.9-12.1
		c3.6-10.5,11-17,21.3-20.5c1.4-0.5,3.1-1.4,4.5,0.3c0.8,1.9,0.6,3.9,0.6,5.9c0,26.9,0,53.7,0,80.6c0,4.3,0.9,8.1,4.3,11.1
		c2.3,2,4.9,2.9,7.9,3c3.1,0,6.2,0,9.4,0c7.3,0.2,11.3,4.3,11.4,11.5c0.1,3.9,0,7.7,0,11.6c0,2,0,4.2,2.1,5.3
		c2.2,1.1,3.9-0.3,5.5-1.4c8.9-6.1,17.4-12.6,26.2-18.8C252.2,322.8,253.3,321.2,255.4,321.9z"/>
	<path class="st5" d="M234,0.3c12.9,0,25.7-0.1,38.6-0.1c24.3,0,48.7,0,73,0c9.6,0,15.1,5.5,15.1,15.1c0,30.2,0,60.4,0,90.6
		c0,1.6,0.4,3.3-0.7,4.7c-0.6-0.5-0.9-1.2-1-1.9c-1-4.5-1-4.6-5.7-4.6c-7.1,0-14.2,0-21.2,0c-1.5,0-3,0.1-4.4-0.5
		c-0.7-0.3-1.3-0.9-1.3-1.7c0-4.6-3.2-6.4-6.8-7.9c-8-3.2-15.3-7.4-21.8-13c-3-2.6-3.3-3.4-0.9-6.6c6.1-8.3,10.2-17.5,13-27.3
		c0.8-2.8,2.4-3.8,5.2-3.8c2.4,0.1,4.7,0.1,7.1,0c3.8-0.2,6-2,5.9-4.9c-0.1-2.8-1.9-4.3-5.8-4.3c-8-0.1-16,0-24,0c-5,0-5.8-1-6-6
		c0-1.7,0.1-3.5-0.1-5.2c-0.2-2.6-1.4-4.3-4.2-4.4c-2.7-0.1-4.1,1.5-4.7,4c-0.5,2.2-0.2,4.5-0.3,6.7c-0.2,4.1-0.8,4.8-4.9,4.9
		c-8.2,0.1-16.5,0-24.7,0c-1.9,0-3.8,0.1-5.1,1.8c-2.1,2.7-0.3,6.7,3.4,7.2c2.7,0.4,5.5,0.3,8.2,0.1c3.5-0.1,5.2,1.5,6.1,4.8
		c2.6,9.3,6.7,18,12.4,25.9c2.4,3.4,2.2,4.5-0.9,7.3c-6.5,5.8-14.3,9.6-22.1,13.1c-4,1.8-7.2,3.8-5.5,8.9c0.3,0.8-0.3,1.4-1.1,1.6
		c-3.6-0.2-7.2-0.9-10.8-1c-2.8-0.1-4.2-1.8-4.4-4.6c-0.1-1.2-0.1-2.5-0.1-3.7c0-30.6,0-61.1,0-91.7C233.5,2.8,233.4,1.5,234,0.3z"
		/>
	<path class="st4" d="M147.9,155.4c0-19.2,0-38.4,0-57.6c0.4-0.3,0.7-0.2,1,0.2c1.4,5.8,0.2,11.7,0.7,17.8
		c8.9-6.6,15.5-14.6,18-25.6c3.7-16,0-30.6-8.2-44.4c-2.2-3.7-5.5-6.8-6.6-11.2c12.7-4.2,25.8-6.3,39-7.5c8.2-0.7,16.4-0.4,24.5-0.4
		c2.1,1.5,1.5,3.8,1.5,5.8c0.1,23.2,0.2,46.5-0.1,69.7c-0.1,6.5,0.8,12.1,5.9,16.5c2.1,6.5,0.1,12.7-1.4,18.9
		c-1,4.2-2.4,8.4-5.5,11.6c-16.3,11.6-36.7,11.7-54.9,0.3c-3.1-1.9-5.9-4.2-8.7-6.5c-1.3-1-2.4-2.2-3.5-3.7
		c-0.6,5.4,0.7,10.7-0.8,15.9C148.6,155.6,148.3,155.6,147.9,155.4z"/>
	<path class="st6" d="M223.7,119.6c-5.2-3.3-7.2-8-7.2-14.2c0.2-24.7,0.1-49.5,0.1-74.2c0-1.5-0.1-3-0.2-4.5c0-3.2,0.3-6.5,0-9.7
		c-1-12.1,7.5-18.1,17.5-16.6c1,1.5,0.7,3.1,0.7,4.7c0,31,0.1,62.1-0.1,93.1c0,3.7,1,5.4,4.8,4.9c3.5-0.5,6.9,0.6,10.2,1.5
		c1.7-0.6,2.9,0.6,4.3,1c4.3,2.1,7.4,5.5,10.1,9.2c2.3,3.1,3.1,3.4,6.4,1.2c3.6-2.5,7.1-5.1,10.6-7.7c5.7-4.3,12.1-6.4,19.2-6.2
		c4.1,0.1,8.2-0.1,12.3,0.1c0.8,0.1,1.5,0.2,2.2,0.6c4,2.4,8,3,12.2,0.3c9.5,0,18.9,0.2,28.4-0.1c3.8-0.1,5.3,1,4.7,4.8
		c-0.2,1,0,2,0.1,3c-0.3,1.2-0.7,2.4-1,3.6c-3.4,4.9-8,7.1-14,6.9c-6.1-0.2-12.1,0-18.2,0.1c-1.3,1.2-3,1-4.6,1
		c-4.9,0-9.9,0.1-14.8,0c-6.4-0.5-12.7-0.6-17.7,4.6c-9.8,6.9-19.5,14-29.2,21c-2.6,1.9-5.1,4.5-8.7,2.7c-3.6-1.8-3.2-5.3-3.3-8.5
		c0-3.6,0.1-7.2,0-10.9c-0.2-5.6-3.3-8.7-8.9-9c-3.5-0.1-7,0.1-10.5-0.1C227.2,121.8,225,121.8,223.7,119.6z"/>
	<path class="st3" d="M148.5,97.7c-0.2,0-0.4,0.1-0.6,0.1c0.5-10.5-7.1-16.4-16.7-16c-11.5,0.5-22.9,0.1-34.4,0
		c-0.5-1.7,0.7-2.8,1.6-3.9c10.2-13.8,21.9-26.3,35.9-36.5c0.8-0.9,1.9-1.3,3.1-1.3c3.2,1.4,4.9,4.3,6.8,6.8
		c7.5,10,11.9,21,11.4,33.7c-0.2,5.1-1.6,9.8-4.2,14.2C150.6,96,150,97.3,148.5,97.7z"/>
	<path class="st0" d="M148.5,97.7c12.1-16.4,4.1-39.4-6.2-51.5c-1.7-2-3.3-4-5-6c5.1-2.1,10.2-4.1,15.6-5.5
		c8.1,10,14.2,21,16.5,33.7c2.3,13.1,0.5,25.5-7.2,36.6c-3.5,5-8.1,9-13.6,13C148.5,110.7,148.5,104.2,148.5,97.7z"/>
	<path class="st7" d="M134.2,41.4c-1.8,3.3-5.2,4.9-7.8,7.2c-11.1,9.9-21.3,20.7-29.6,33.2c-6,0-12,0.1-18,0.1
		c-0.8,0-1.8,0.2-2.3-0.8C87.3,70.5,98.9,60.7,112,52.9C119.1,48.5,126.4,44.5,134.2,41.4z"/>
	<path class="st7" d="M26.5,205c11.7,0,23.4,0,35.2,0c1.5,0,3-0.1,4.3,0.7c1.5,1.6,1.2,3.8,1.5,5.7c2.6,19.3,8.6,37.6,17,55.2
		c0.7,1.5,2.1,2.9,1.1,4.8c-9.5-2.2-17.2,2.2-24.5,7.3c-4.7,3.3-9.1,6.9-13.6,10.4C33.2,262.9,26.5,234.8,26.5,205z"/>
	<path class="st3" d="M85.5,271.4c-4.5-10.1-9.3-20.1-12.5-30.8c-3.4-11.4-6.4-22.9-7-34.9c5.4,1.7,9.2,5.8,13.7,8.9
		c8.6,5.9,16.9,12.3,25.5,18.3c1.7,1.2,3.4,2.6,5.8,1.3c2.3-1.3,2.9-3.4,3-5.6c0.1-4.7,0-9.5,0.1-14.2c0.1-5.3,3.7-9.2,9.1-9.4
		c3.4-0.1,6.8-0.3,10.1,0c8.3,0.8,16-7.4,14.6-15.1c0.1-11.5,0.1-23,0.2-34.5c0.2,0,0.4,0.1,0.6,0.1c2.7,0.8,4.8,2.7,7,4.2
		c17.8,12.3,43,10,57.1-7.3c1.1-1.4,2.6-2.4,3.7-3.7c6-8.8,7-18.9,7.5-29.1c4.9,2.2,10.1,1.2,15.1,1.3c7.6,0.1,10.9,3.4,10.9,11
		c0,4.1,0,8.2,0,12.3c0,2.3,0.5,4.2,2.7,5.3c2.2,1.1,3.9,0.1,5.5-1.1c9-6.5,18-13,27-19.5c1.5-1.1,3.1-2.1,4.6-3.1
		c0.7,0.6,0.9,1.5,0.9,2.4c-0.9,9.2-0.9,18.5-4.5,27.2c-2.5,5.9-5.9,11.3-10.4,15.9c-6.2,6.2-9.8,13.2-8,22.2
		c0.2,1.2,0.3,2.5-1.2,3.2c-1,0.4-1.9,0.5-2.9,0.5c-20.7,0-41.4,0.2-62-0.1c-1.5,0-3-0.1-4.5,0c-7.5,0.3-12.5,5.3-12.8,12.8
		c-0.1,1.7,0.5,3.5-1.2,4.8c-8.8,2.1-16,6.8-21.1,14.3c-2.2,3.1-3,6.8-4.2,10.3c-3.3,9.9-5.5,20.2-10.4,29.5
		c-5.2,9.8-12.7,17.1-24,18.9c-10.9,1.8-20.5-0.6-27.9-9.6c-2.2-2.6-4.6-4.9-8.1-5.8C86.5,272.1,86,271.8,85.5,271.4z"/>
	<path class="st8" d="M47.4,183.9c-4.9,0.1-7.8-3.7-6.4-7.6c8.4-22.5,16.9-45,25.4-67.5c1.3-3.3,3.3-6,7.3-5.9
		c4,0.1,6.1,2.4,7.5,6.2c8.3,21.9,16.7,43.7,25.1,65.6c0.3,0.8,0.7,1.6,0.8,2.5c0.5,3.2-1,5.4-3.9,6.4c-2.7,0.9-5.4,0.4-6.7-2.5
		c-1.7-3.7-3.2-7.6-4.6-11.4c-0.7-2-1.6-3-4-3c-9.5,0.1-19,0.1-28.5,0c-1.9,0-2.9,0.6-3.5,2.5c-1.3,3.8-2.8,7.4-4.2,11.2
		C50.9,182.9,48.9,183.7,47.4,183.9z"/>
	<path class="st9" d="M200.3,196.1c19.2,0,38.4-0.1,57.6-0.1c3,0,6-0.1,9-0.1c3.3-1.9,6.9-0.8,10.4-1.1c1.5-0.1,2.9-0.1,4.4,0.1
		c10.2-0.1,20.5,0,30.7,0c4.3,0,8.1,1.3,11.3,4.2c1.5,1.4,2.7,3,2.6,5.2c0.9,3.2,0.8,6.4,0.8,9.6c0,26.8,0,53.6,0,80.4
		c0,1.5-0.1,3-0.1,4.5c-1.7,1.5-3.8,1.1-5.7,1.1c-17.7,0-35.5,0.1-53.2,0c-7.1,0-13.5,1.8-19.3,6c-3.7,2.7-7.4,5.6-11.3,8.1
		c-3.5,2.3-5.5,2-8-1.4c-5.9-8.4-13.8-12.7-24.2-12.7c-4.4,0-5.3-1.3-5.4-6.7c0-23.4,0-46.7,0-70.1c0-7.7,0-15.5,0-23.2
		C199.9,198.5,199.7,197.3,200.3,196.1z"/>
	<path class="st10" d="M200.3,196.1c1,1.5,0.7,3.1,0.7,4.7c0,31,0,62,0,93c0,4.8,0,4.9,4.7,4.9c10.4,0,18.5,4.3,24.3,12.9
		c2.5,3.6,3.2,3.6,6.8,1.3c6.4-4.1,11.7-9.7,19-12.3c3.5-1.3,7.2-1.9,11-1.9c20,0.1,40,0.1,60,0.1c0.1,2.7,0.4,5.5-0.4,8.2
		c-1.8,6.1-6.6,9.8-13,9.8c-14.6,0.1-29.2,0.2-43.8-0.1c-5.6-0.1-10.3,1.4-14.2,5.3c-8.9,6.4-17.8,12.8-26.7,19.1
		c-1.7,1.2-3.4,2.5-5.2,3.6c-3.9,2.4-7.3,0.7-7.5-3.9c-0.2-4.7,0-9.5,0-14.2c0-6-3.7-9.7-9.8-9.8c-2.4,0-4.8-0.2-7.1,0
		c-10.2,1.2-16.5-6.2-16.3-16c0.5-27.2,0.2-54.4,0.2-81.6c0-1.5-0.1-3-0.1-4.5c0-0.7,0.2-1.5,0.1-2.2
		C181.7,200.7,190.5,194.6,200.3,196.1z"/>
	<path class="st4" d="M326.2,204.2c-3.4-6.3-8.8-8.5-15.8-8.3c-9.5,0.3-19,0-28.4,0c-2.2-3-2-6.4-1.5-9.7c0.7-5.2,2.8-9.9,6.6-13.6
		c11.1-10.9,16.1-24.3,16.4-39.7c0-2.8,0.6-5.5,1-8.2c0.3-1.5,0.6-3,2.2-3.6c6.7,0,13.5,0,20.2,0c8,8.9,14.2,18.6,16,30.7
		c2.6,17.5-1.3,33.4-12.2,47.5C329.4,201,328.2,203,326.2,204.2z"/>
	<path class="st2" d="M327,102.9c-3.3,3.6-4.8,3.8-9.4,1.9c-1.6-0.7-3.2-1.3-4.8-1.9c-8.6-2.2-15.5-7.3-22-12.9
		c-2.2-1.8-3.6-2-5.7-0.1c-7.9,7.1-17.3,11.7-26.9,15.9c-1.6,0.7-3.1,0.9-4.7,0.3c-1.3-0.6-2.5-1.1-3.8-1.7c-2.7-5-1.9-7.8,3.3-10.1
		c8.5-3.7,16.7-7.8,23.9-13.8c2.2-1.9,3.1-3,0.9-5.9c-6.3-8.2-10.6-17.5-13.1-27.5c-0.5-2-1.3-2.9-3.5-2.8c-2.6,0.2-5.2,0.1-7.9,0
		c-4.5,0-7.2-2.3-7.2-5.9c0-3.4,2.7-5.6,7-5.6c8.4,0,16.7-0.1,25.1,0c2.8,0.1,4.2-0.5,3.8-3.6c-0.3-2.2-0.2-4.5,0-6.7
		c0.3-3.2,2.6-5.3,5.7-5.3c3.2,0,5.3,1.9,5.7,5.3c0.1,0.9,0.1,1.7,0.1,2.6c0,7.7,0,7.7,7.6,7.7c7.1,0,14.2,0,21.4,0
		c4.5,0,6.8,2.1,6.8,5.7c0,3.6-2.5,5.7-6.8,5.8c-3.5,0.1-7.7-1.1-10.3,0.5c-2.6,1.5-2.3,6.2-3.6,9.4c-2.8,7.5-6.4,14.6-11.3,21
		c-1.5,1.9-1.3,2.9,0.5,4.5c7.3,6.3,15.6,10.6,24.4,14.4C327,96.2,327.7,97.8,327,102.9z"/>
	<path class="st0" d="M216.2,148.8c-7.5,11.7-18.1,18.2-31.9,19.5c-13.9,1.3-25.6-3.6-35.8-12.7c0-6,0-12.1,0-18.6
		C168.4,158.1,193.4,163.3,216.2,148.8z"/>
	<path class="st0" d="M306.7,121.1c-2.7,5.5-2.5,11.7-2.8,17.5c-0.6,12.7-5.5,23.5-14,32.4c-7,7.3-10.1,15.1-7.9,25
		c-5,0-10.1,0-15.1,0c-2.6-9.3-0.2-17.2,6.5-23.9c10.2-10.1,14.9-22.4,15.4-36.6c0.1-3.2,0.5-6.4,0.8-9.7
		C294.3,120.5,300.4,120.5,306.7,121.1z"/>
	<path class="st5" d="M253.5,106.1c10.4-3,19.7-8.1,28.3-14.6c2-1.6,4-4.3,6.1-4.4c1.9-0.1,3.8,2.8,5.8,4.3
		c5.8,4.7,12.5,8.1,19.1,11.5c-5.9,0.1-11.7-0.1-17.6,0.3c-7.6,0.5-13.2,5.5-19,9.7c-2.2,1.6-4.4,3.3-6.6,4.8
		c-2.3,1.5-4.2,1.3-5.6-1.3C261.5,112,257.8,108.7,253.5,106.1z"/>
	<path class="st2" d="M73.8,122.3c4.1,10.7,7.9,20.7,11.7,30.7c0.6,1.5,0.8,2.6-1.5,2.6c-6.7-0.1-13.5,0-20.2,0
		c-1.5,0-2.4-0.2-1.7-2.1C65.9,143.2,69.7,133.1,73.8,122.3z"/>
	<path class="st2" d="M285.9,220.7c4.1,0,8.2-0.1,12.4,0c4.1,0.1,6.9,2.5,6.8,5.9c0,3.1-2.8,5.5-6.6,5.9c-6.8,0.6-6.8,0.6-6.8,7.3
		c0,14.4,0,28.7,0,43.1c0,1,0.1,2,0,3c-0.3,3.4-2.7,6-5.7,5.9c-3.3-0.1-5.2-2-5.9-5.3c-0.2-1.1-0.2-2.2-0.2-3.4
		c0-6.1-0.1-12.2,0-18.4c0-2.1-0.6-2.9-2.8-2.9c-5.9,0.1-11.7,0-17.6,0c-1.4,0-2.4,0-1.8,2c4.9,14.9-5.9,29.3-23.1,27.8
		c-10-0.8-19.5-2.9-27.1-10.1c-3.2-3-3.7-6.2-1.4-8.8c2.3-2.7,5.5-2.7,8.9,0.2c7.4,6.4,16.1,7.4,25.3,6.7c3.6-0.3,6.4-3.6,7-7.3
		c0.6-3.8-1.6-7.9-5.2-9.5c-1.7-0.8-3.6-1.1-5.5-1c-5.6,0-11.2,0.1-16.9,0c-3.4-0.1-5.9-2.5-6-5.5c-0.1-3.1,2.5-5.7,6.1-5.8
		c6-0.1,12,0.1,18-0.1c4.9-0.1,8.6-3.3,9.4-7.6c0.7-4-1.6-8-5.4-9.7c-1.4-0.6-2.9-0.6-4.4-0.7c-4.9,0-9.7,0.1-14.6,0
		c-4.6-0.1-7.1-2.4-7-6.1c0.1-3.7,2.6-5.8,7.3-5.7c6.5,0.2,13-0.8,19.4,0.6c11.9,2.6,18.9,14.3,15.4,26c-0.8,2.6-0.6,3.4,2.4,3.3
		c5.4-0.2,10.7-0.2,16.1,0c2.7,0.1,3.4-0.9,3.3-3.4c-0.2-3.9-0.2-7.7,0-11.6c0.1-2.5-0.9-3.3-3.3-3.1c-1.5,0.1-3,0.1-4.5-0.1
		c-3.5-0.5-5.7-3-5.6-5.9c0.1-3.1,2.7-5.6,6.3-5.7C277.2,220.7,281.6,220.8,285.9,220.7z"/>
	<path class="st5" d="M287.8,68.8c-5.6-7.5-9.4-15.3-11.8-24.3c7.4,0,14.4,0,21.5,0c1.5,0,2.1,0.5,1.6,2
		C296.6,54.4,293.1,61.9,287.8,68.8z"/>
</g>
</svg>
