<?xml version="1.0" encoding="utf-8"?>
<!-- Generator: Adobe Illustrator 23.0.0, SVG Export Plug-In . SVG Version: 6.00 Build 0)  -->
<svg version="1.1" id="Layer_1" xmlns="http://www.w3.org/2000/svg" xmlns:xlink="http://www.w3.org/1999/xlink" x="0px" y="0px"
	 width="45.7px" height="45.7px" viewBox="0 0 45.7 45.7" style="enable-background:new 0 0 45.7 45.7;" xml:space="preserve">
<style type="text/css">
	.st0{fill:#4F4F4F;}
	.st1{fill:#4A4A4A;}
	.st2{fill:#535353;}
	.st3{fill:#747474;}
	.st4{fill:#545454;}
	.st5{fill:#3F3F3F;}
	.st6{fill:#757575;}
	.st7{fill:#9D9D9D;}
	.st8{fill:#707070;}
	.st9{fill:#6F6F6F;}
	.st10{fill:#6E6E6E;}
	.st11{fill:#00BBD3;}
	.st12{fill:#00828E;}
	.st13{fill:#FEDB00;}
</style>
<g>
	<path d="M45.7,24.6c-0.2,0.1-0.1,0.3-0.1,0.5c-0.2,0.9-0.9,1.6-1.8,1.7c-0.7,0.1-1.4,0.2-2.1,0.3c-0.2,0-0.3,0.1-0.3,0.3
		c-0.5,1.8-1.1,3.5-2.1,5.1c-0.1,0.2-0.1,0.3,0,0.5c0.4,0.6,0.8,1.1,1.2,1.7c0.6,0.9,0.6,1.9-0.1,2.7c-0.9,1-1.8,2-2.8,2.8
		c-0.8,0.6-1.8,0.7-2.6,0.1c-0.6-0.4-1.2-0.8-1.8-1.3c-0.2-0.1-0.3-0.2-0.5,0c-1.6,1-3.2,1.6-5,2.1c-0.2,0.1-0.3,0.2-0.3,0.4
		c-0.1,0.7-0.2,1.3-0.3,2c-0.2,1.1-1,1.8-2,1.9c-1.3,0.1-2.6,0.1-3.9,0c-1.1-0.1-1.9-0.8-2.1-1.9c-0.1-0.7-0.2-1.3-0.3-2
		c0-0.2-0.1-0.3-0.3-0.4c-1.8-0.4-3.5-1.2-5.1-2.1c-0.2-0.1-0.3-0.1-0.5,0.1c-0.6,0.4-1.1,0.8-1.7,1.2c-1.1,0.7-2.1,0.7-3,0
		c-1-0.8-1.9-1.7-2.7-2.7c-0.7-0.9-0.8-1.9-0.1-2.8c0.4-0.6,0.8-1.1,1.2-1.7c0.1-0.2,0.1-0.3,0-0.5c-1-1.6-1.6-3.2-2.1-5
		c-0.1-0.2-0.1-0.3-0.4-0.4c-0.7-0.1-1.3-0.2-2-0.3c-1.1-0.2-1.8-0.9-1.9-2c-0.1-1.3-0.1-2.6,0-4c0.1-1.1,0.8-1.9,1.9-2
		c0.7-0.1,1.3-0.2,2-0.3c0.2,0,0.3-0.1,0.4-0.3c0.4-1.8,1.1-3.5,2.1-5c0.1-0.2,0.1-0.4,0-0.5c-0.4-0.6-0.8-1.1-1.2-1.7
		C4.7,10,4.7,9,5.4,8.2c0.9-1,1.8-2,2.8-2.8C9,4.7,10,4.7,10.9,5.3c0.6,0.4,1.1,0.8,1.7,1.2c0.2,0.1,0.3,0.1,0.5,0
		c1.5-0.9,3.2-1.6,4.9-2.1c0.3-0.1,0.4-0.2,0.4-0.5c0.1-0.6,0.2-1.3,0.3-1.9c0.2-1.2,0.9-1.9,2.1-2c0.1,0,0.2,0,0.3-0.1
		c0.1,0,0.3,0,0.4,0c0.1,0.1,0.1,0.1,0.2,0c0.7,0,1.4,0,2,0c0.1,0.1,0.1,0.1,0.2,0c0.1,0,0.2,0,0.4,0c0.1,0.1,0.2,0,0.3,0
		c1.4,0.1,2.3,1,2.4,2c0.1,0.6,0.2,1.2,0.3,1.8c0,0.4,0.2,0.5,0.6,0.6c1.6,0.4,3.2,1.1,4.6,1.9c0.3,0.2,0.5,0.1,0.7,0
		c0.5-0.4,1-0.7,1.5-1.1c1-0.7,2-0.6,2.9,0.1c1,0.9,2,1.8,2.8,2.8c0.7,0.8,0.7,1.8,0.1,2.7c-0.4,0.6-0.8,1.1-1.2,1.6
		c-0.2,0.3-0.2,0.5,0,0.7c0.9,1.4,1.5,3,1.9,4.6c0.1,0.4,0.3,0.6,0.7,0.6c0.6,0.1,1.2,0.2,1.8,0.3c1.2,0.2,1.8,1,1.9,2.2
		c0,0.1,0,0.1,0,0.2s0,0.2,0,0.4c-0.1,0.1,0,0.1,0,0.2s0,0.1,0,0.2s0,0.1,0,0.2c0,0.6,0,1.1,0,1.7c-0.1,0.1,0,0.2,0,0.2
		c0,0.1,0,0.1,0,0.2C45.7,24.3,45.7,24.5,45.7,24.6z"/>
	<path class="st0" d="M45.7,24c0-0.1,0-0.2,0.1-0.3C45.7,23.8,45.7,23.9,45.7,24L45.7,24z"/>
	<path class="st1" d="M21.9,0c-0.1,0.1-0.1,0.1-0.2,0C21.8,0,21.9,0,21.9,0z"/>
	<path class="st2" d="M24.2,0C24.1,0.1,24,0.1,24,0C24,0,24.1,0,24.2,0z"/>
	<path class="st3" d="M45.7,21.7c0-0.1,0-0.1,0.1-0.2C45.7,21.5,45.7,21.6,45.7,21.7L45.7,21.7z"/>
	<path class="st4" d="M45.7,21.7L45.7,21.7c0.1,0.1,0.1,0.1,0.1,0.2h-0.1C45.7,21.8,45.7,21.7,45.7,21.7z"/>
	<path class="st5" d="M45.7,21.8L45.7,21.8c0.1,0.1,0.1,0.1,0.1,0.2C45.6,22,45.6,21.9,45.7,21.8z"/>
	<path class="st6" d="M45.7,24L45.7,24c0.1,0.1,0.1,0.1,0.1,0.2C45.6,24.1,45.6,24.1,45.7,24z"/>
	<path class="st7" d="M26,5.3c0.2,0.2,0.4,0.3,0.7,0.4c0.6,0.1,1.1,0.3,1.7,0.5c0.7,0.3,1.4,0.6,2,1c0.2,0.1,0.4,0.1,0.6,0
		c0.5,0.2,0.9,0.5,1.4,0.8c0.4,0.3,0.8,0.3,1.2,0c0.6-0.5,1.3-0.9,1.9-1.4c0.2-0.1,0.4,0,0.6,0.2c0.6,0.5,1.1,1.1,1.5,1.7
		c0.6,0.7,0.6,1.4,0,2.1c-0.4,0.6-0.9,1.2-1.3,1.8c-0.2,0.2-0.2,0.5,0,0.7c1,1.6,1.7,3.4,2.2,5.2c0.1,0.4,0.3,0.7,0.7,0.7
		c0.3,0,0.6,0,0.8,0.2c0.2,0.4,0.5,0.5,0.9,0.6c0.5,0.1,1,0.2,1.4,0.3c0.3,0.2,0.4,0.5,0.4,0.8c0.1,1.3,0.1,2.5,0,3.8
		c0,0.3-0.1,0.6-0.4,0.8c-0.5,0.1-0.9,0.2-1.4,0.3c-0.4,0-0.7,0.2-0.9,0.6c-0.3,0.2-0.7,0.2-1,0.3c-0.3,0-0.4,0.2-0.5,0.5
		c-0.5,2-1.2,3.8-2.3,5.5c-0.2,0.3-0.1,0.4,0.1,0.6c0.4,0.6,0.8,1.2,1.2,1.7c0.6,0.9,0.6,1.4-0.1,2.3c-0.5,0.5-0.9,1.1-1.4,1.6
		c-0.2,0.2-0.3,0.3-0.6,0.2c-0.7-0.5-1.3-0.9-2-1.4c-0.4-0.3-0.7-0.3-1.1,0c-0.5,0.3-0.9,0.6-1.4,0.8c-0.3-0.1-0.5,0-0.7,0.1
		c-0.6,0.4-1.2,0.6-1.9,0.9c-0.5,0.2-1.1,0.4-1.7,0.5c-0.3,0.1-0.5,0.2-0.7,0.4c-0.3,0.3-0.7,0.3-1,0.4c-0.4,0.1-0.5,0.3-0.6,0.6
		c-0.1,0.7-0.2,1.5-0.4,2.2c-0.1,0.3-0.1,0.5-0.5,0.6c-0.8,0.1-1.7,0-2.5-0.1c-0.4,0-0.6-0.2-0.6-0.6c-0.1-0.9-0.3-1.8-0.4-2.7
		c-0.1-0.4-0.3-0.7-0.7-0.8c-2.1-0.4-4-1.3-5.8-2.4c-0.4-0.2-0.7-0.2-1.1,0c-0.7,0.5-1.4,1-2.1,1.5c-0.5,0.3-0.6,0.3-1.1-0.1
		c-0.9-0.8-1.7-1.6-2.5-2.5c-0.3-0.3-0.3-0.6-0.1-1c0.5-0.7,1-1.4,1.5-2.1c0.3-0.4,0.3-0.8,0.1-1.2c-1.1-1.8-1.9-3.7-2.4-5.7
		c-0.1-0.5-0.4-0.7-0.8-0.8c-0.9-0.1-1.8-0.3-2.6-0.4c-0.4-0.1-0.6-0.3-0.7-0.7c-0.1-1.2-0.1-2.4,0-3.6c0-0.4,0.2-0.6,0.7-0.7
		C3.2,20.2,4,20,4.9,19.9c0.5-0.1,0.8-0.3,0.9-0.8c0.4-2,1.2-4,2.4-5.7c0.3-0.4,0.3-0.8,0-1.1c-0.5-0.7-1-1.5-1.6-2.2
		c-0.3-0.4-0.2-0.7,0-1c0.8-0.9,1.6-1.8,2.6-2.5c0.3-0.3,0.6-0.3,0.9,0c0.7,0.5,1.5,1,2.2,1.6c0.4,0.3,0.7,0.3,1.1,0.1
		c1.8-1.2,3.7-1.9,5.8-2.4c0.5-0.1,0.7-0.4,0.8-0.8c0.1-0.9,0.3-1.8,0.4-2.6c0.1-0.4,0.3-0.6,0.7-0.6c0.8-0.1,1.6-0.1,2.4-0.1
		c0.3,0,0.4,0.3,0.5,0.6c0.1,0.7,0.3,1.5,0.4,2.2c0,0.4,0.2,0.6,0.6,0.6C25.3,5,25.7,5.1,26,5.3z"/>
	<path class="st8" d="M35.5,39c0.2,0,0.3-0.1,0.4-0.2c0.6-0.6,1.1-1.2,1.6-1.8c0.5-0.7,0.5-1.2,0-1.9c-0.5-0.6-0.9-1.3-1.4-1.9
		c-0.2-0.2-0.2-0.4,0-0.6c1.1-1.7,1.9-3.6,2.3-5.5c0.1-0.3,0.2-0.5,0.6-0.5c0.3,0,0.7-0.1,1-0.2c-0.4,2-1.1,3.9-2.2,5.6
		c-0.1,0.1-0.1,0.2-0.2,0.3c-0.3,0.4-0.3,0.8,0,1.2c0.5,0.7,1,1.4,1.5,2.1c0.3,0.4,0.3,0.7-0.1,1c-0.7,0.8-1.5,1.6-2.4,2.4
		C36.2,39.5,36.1,39.5,35.5,39z"/>
	<path class="st8" d="M40,19.3c-0.4-0.1-0.8-0.1-1.3-0.2c-0.3,0-0.3-0.2-0.3-0.5c-0.3-1.4-0.8-2.8-1.5-4.1c-0.2-0.5-0.5-0.9-0.8-1.4
		c-0.2-0.3-0.2-0.5,0-0.7c0.5-0.6,0.9-1.2,1.3-1.8c0.6-0.8,0.6-1.4,0-2.1c-0.5-0.6-1-1.1-1.6-1.7c-0.1-0.1-0.2-0.2-0.4-0.2
		c0.7-0.5,0.7-0.5,1.3,0c0.8,0.7,1.6,1.5,2.4,2.4c0.3,0.4,0.3,0.7,0,1c-0.5,0.7-1,1.4-1.5,2.1c-0.4,0.6-0.4,0.7,0,1.3
		c1.1,1.7,1.9,3.6,2.3,5.6C40,19.2,40,19.3,40,19.3z"/>
	<path class="st9" d="M42.3,25.5c0.4-0.6,0.3-1.3,0.3-1.9c0.1-0.9,0-1.8-0.1-2.7c0-0.3-0.1-0.5-0.3-0.7c0.4,0.1,0.8,0.1,1.3,0.2
		c0.3,0.1,0.5,0.3,0.5,0.6c0.1,1.3,0.1,2.5,0,3.8c0,0.3-0.2,0.5-0.6,0.6C43.2,25.4,42.7,25.4,42.3,25.5z"/>
	<path class="st8" d="M26,5.3c-0.5-0.1-1-0.2-1.5-0.3c-0.3-0.1-0.2-0.3-0.3-0.5c-0.1-0.8-0.3-1.6-0.4-2.4c0-0.3-0.1-0.5-0.4-0.6
		c0.4,0,0.9,0,1.3,0.1c0.3,0,0.5,0.2,0.6,0.6C25.6,3.3,25.8,4.3,26,5.3z"/>
	<path class="st8" d="M23.5,44.1c0.3-0.1,0.3-0.4,0.4-0.6c0.1-0.8,0.2-1.6,0.4-2.4c0-0.3,0.1-0.5,0.5-0.5s0.8-0.2,1.2-0.3
		c-0.2,1-0.4,2.1-0.5,3.1c-0.1,0.4-0.3,0.6-0.7,0.6C24.3,44.1,23.9,44.1,23.5,44.1z"/>
	<path class="st9" d="M28.4,39.4c0.7-0.5,1.5-0.8,2.2-1.3c0.2-0.1,0.3,0.1,0.4,0.2C30.1,38.8,29.3,39.2,28.4,39.4z"/>
	<path class="st10" d="M30.9,7.3c-0.2,0.2-0.4,0.2-0.6,0.1c-0.6-0.5-1.4-0.7-2-1.1C29.3,6.5,30.1,6.8,30.9,7.3z"/>
	<path d="M22.9,38c-8.4,0-15.2-6.9-15.2-15.2c0-8.4,6.9-15.2,15.2-15.2c8.4,0,15.2,6.9,15.2,15.2C38.1,31.2,31.3,38.1,22.9,38z"/>
	<path class="st11" d="M27,35.8c-1.8,0.7-3.7,0.8-5.5,0.6c-4.3-0.5-7.7-2.6-10.1-6.2c-5.2-8-0.8-18.7,8.5-20.8
		C22.3,8.9,24.7,9,27,9.8c2.9,1.3,5,3.4,6.5,6.2c0.9,1.7,1.5,3.5,1.6,5.4c0.2,2.5-0.1,5-1.2,7.3c-1.2,2.7-3,4.8-5.5,6.4
		C28,35.4,27.5,35.6,27,35.8z"/>
	<path class="st12" d="M27,35.8c0.6-0.4,1.2-0.7,1.8-1.1c3.3-2.3,5.4-5.5,6-9.5c0.6-3.8-0.1-7.3-2.3-10.5c-1.3-2-3.1-3.5-5.2-4.7
		c-0.1,0-0.2-0.1-0.3-0.2c1.4,0.4,2.7,1,3.9,1.9c3.3,2.4,5.2,5.6,5.6,9.7c0.4,4-0.7,7.5-3.3,10.5c-1.6,1.8-3.6,3.1-5.9,3.9
		C27.2,35.8,27.1,35.8,27,35.8z"/>
	<path d="M25.7,19c1.7,0,3.3,0,4.9,0c0.2,0,0.4,0,0.6,0c0.7,0.1,1.2,0.4,1.4,1c0.3,0.6,0.1,1.2-0.3,1.7c-0.9,1-1.8,2.1-2.8,3.1
		c-2.6,2.9-5.2,5.8-7.8,8.7c-0.5,0.6-1.1,0.8-1.9,0.7c-0.7-0.2-1.2-0.6-1.4-1.3c-0.2-0.5-0.1-0.9,0.1-1.4c0.7-2,1.3-3.9,2-5.9
		c0.1-0.4,0.1-0.5-0.3-0.5c-1.3,0-2.6,0-3.9,0c-1.4,0-2.1-1-1.5-2.3c1.5-3.3,2.9-6.7,4.4-10c0.4-0.9,1-1.4,2.1-1.4
		c1.7,0,3.4,0,5.1,0c1.6,0,2.4,1.3,1.7,2.7C27.3,15.7,26.5,17.3,25.7,19z"/>
	<path class="st13" d="M16.1,23.6c0.3-0.8,0.6-1.5,1-2.2c1.2-2.7,2.3-5.4,3.5-8c0.1-0.3,0.3-0.5,0.7-0.5c1.6,0,3.3,0,4.9,0
		c0.6,0,0.7,0.1,0.4,0.7c-0.9,1.9-1.8,3.8-2.6,5.6c-0.4,0.8-0.1,1.3,0.8,1.3c2,0,4,0,6,0c0.2,0,0.3-0.1,0.5,0.1
		c-0.4,0.5-0.9,1-1.3,1.5c-3.1,3.4-6.1,6.8-9.2,10.2c-0.1,0.1-0.1,0.2-0.2,0.2c-0.1,0.1-0.3,0.2-0.5,0.1c-0.2-0.1-0.3-0.3-0.2-0.5
		c0.1-0.3,0.2-0.6,0.3-0.9c0.7-2.1,1.4-4.3,2.2-6.4c0.3-0.9,0-1.3-0.9-1.3c-1.7,0-3.3,0-5,0C16.3,23.6,16.2,23.6,16.1,23.6z"/>
</g>
</svg>
