<?xml version="1.0" encoding="utf-8"?>
<!-- Generator: Adobe Illustrator 23.0.0, SVG Export Plug-In . SVG Version: 6.00 Build 0)  -->
<svg version="1.1" id="Layer_1" xmlns="http://www.w3.org/2000/svg" xmlns:xlink="http://www.w3.org/1999/xlink" x="0px" y="0px"
	 width="383.6px" height="280.2px" viewBox="0 0 383.6 280.2" style="enable-background:new 0 0 383.6 280.2;" xml:space="preserve"
	>
<style type="text/css">
	.st0{fill:#CCC3BC;}
	.st1{fill:#F2E2E5;}
	.st2{fill:#E0D3D5;}
	.st3{fill:#CCBEC1;}
	.st4{fill:#E8E2DD;}
	.st5{fill:#0A6C8E;}
	.st6{fill:#EEE6DE;}
	.st7{fill:#EFD5BF;}
	.st8{opacity:0.58;}
	.st9{fill:#E8D3C1;}
	.st10{fill:#9E6718;}
	.st11{fill:#FFD773;}
	.st12{fill:#87510A;}
	.st13{opacity:0.46;fill:#FFFFFF;enable-background:new    ;}
	.st14{fill:#EE6D4A;}
	.st15{fill:#007F7C;}
	.st16{fill:#00AAAC;}
	.st17{fill:#4CEDE5;}
	.st18{fill:#00C1BC;}
	.st19{fill:#167BA8;}
	.st20{fill:#3989B4;}
	.st21{fill:#0A759B;}
	.st22{fill:#3C9CC6;}
	.st23{fill:#B6E2FF;}
	.st24{fill:#003E60;}
	.st25{fill:#E0512F;}
	.st26{fill:#F48369;}
	.st27{fill:#F9A0A0;}
	.st28{fill:#CC3A1D;}
	.st29{fill:#FFBC00;}
	.st30{fill:#F7A500;}
	.st31{opacity:0.37;fill:#FFFFFF;enable-background:new    ;}
	.st32{fill:#CC8200;}
	.st33{fill:#6D3E06;}
	.st34{fill:#EADBCE;}
	.st35{fill:#E5D1C3;}
	.st36{fill:#D6B8A1;}
	.st37{fill:#DBC2AD;}
	.st38{fill:#C4C4C3;}
	.st39{fill:url(#SVGID_1_);}
	.st40{opacity:0.5;clip-path:url(#SVGID_3_);fill:url(#SVGID_4_);enable-background:new    ;}
	.st41{opacity:0.5;clip-path:url(#SVGID_6_);fill:url(#SVGID_7_);enable-background:new    ;}
	.st42{opacity:0.4;fill:#E9F8FF;enable-background:new    ;}
</style>
<g id="BACKGROUND">
</g>
<g id="OBJECTS">
	<g>
		<g>
			<g>
				<g>
					<g>
						<path class="st0" d="M296.5,66.6l-0.7-0.7c1.4-1.4,2.5-2.1,2.5-2.1l0.7,0.7C299,64.9,297.9,65.6,296.5,66.6z"/>
					</g>
					<g>
						<path class="st0" d="M283.9,204v-1.1c2.1,0,4.2,0,6.3-0.4v1.1C288.1,204,286,204,283.9,204z M294.1,203.6v-1.1
							c2.1,0,4.2-0.4,6.3-0.4v1.1C298.3,203.3,296.2,203.6,294.1,203.6z M304.2,202.9v-1.1c2.1-0.4,4.2-0.4,6.3-0.7v1.1
							C308.5,202.2,306.3,202.6,304.2,202.9z M314.1,201.5v-1.1c2.1-0.4,4.2-0.7,6.3-1.1v1.1C318.6,200.8,316.5,201.2,314.1,201.5z
							 M324.3,199.8l-0.4-1.1c2.1-0.4,4.2-1.1,6.3-1.4l0.4,1.1C328.5,199.1,326.4,199.4,324.3,199.8z M334.1,197.7l-0.4-1.1
							c2.1-0.7,4.2-1.1,6-1.8l0.4,1.1C338.3,196.3,336.2,197,334.1,197.7z M343.6,194.5l-0.4-0.7c2.1-0.7,3.9-1.8,6-2.5l0.4,0.7
							C347.8,192.7,345.7,193.8,343.6,194.5z M353.1,190.3l-0.4-0.7c2.1-1.1,3.9-2.1,5.3-3.5l0.7,0.7
							C356.9,187.8,354.8,189.2,353.1,190.3z M361.5,184.3l-0.7-0.7c1.8-1.4,3.2-2.8,4.6-4.6l0.7,0.7
							C364.7,181.5,362.9,182.9,361.5,184.3z M368.2,176.9l-0.7-0.4c1.1-1.8,2.1-3.5,2.8-5.6l0.7,0.4
							C370.3,173.1,369.2,175.2,368.2,176.9z M372.4,167.5l-1.1-0.4c0.7-2.1,1.1-4.2,1.1-6.3h1.1
							C373.4,163.2,373.1,165.3,372.4,167.5z M372.7,157.3c0-0.7,0-1.8,0-2.5c0-1.4-0.4-2.5-0.4-3.9h1.1c0.4,1.4,0.4,2.5,0.4,3.9
							c0,0.7,0,1.8,0,2.5H372.7z M371.3,147.4c-0.7-2.1-1.4-4.2-2.1-6l0.7-0.4c1.1,1.8,1.8,3.9,2.1,6L371.3,147.4z M367.5,138.3
							c-1.1-1.8-2.5-3.5-3.9-4.9l0.7-0.7c1.4,1.4,2.8,3.2,4.2,4.9L367.5,138.3z M360.8,131.3c-1.8-1.4-3.5-2.5-5.3-3.2l0.4-0.7
							c2.1,1.1,3.9,2.1,5.6,3.5L360.8,131.3z M352,126.4c-1.8-0.7-3.9-1.4-6-1.8l0.4-1.1c2.1,0.4,4.2,1.1,6.3,1.8L352,126.4z
							 M307.4,126c-0.7,0-1.1,0-1.8,0V125c2.1,0,4.2,0,6.3,0v1.1C310.6,126,308.8,126,307.4,126z M301.8,126
							c-2.1-0.4-4.2-0.7-6.3-1.1l0.4-1.1c2.1,0.4,4.2,0.7,6.3,1.1L301.8,126z M315.8,125.7v-1.1c1.1,0,2.1-0.4,3.2-0.4
							c1.1,0,2.1-0.4,3.2-0.4v1.1c-1.1,0-2.1,0.4-3.2,0.4C317.9,125.3,316.9,125.3,315.8,125.7z M342.2,124.3
							c-2.1-0.4-4.2-0.4-6.3-0.4v-1.1c2.1,0,4.6,0.4,6.3,0.4V124.3z M325.7,124.3v-1.1c2.1-0.4,4.2-0.4,6.3-0.4v1.1
							C330.2,123.9,328.1,123.9,325.7,124.3z M291.9,123.5c-2.1-0.7-4.2-1.8-6-2.8l0.4-0.7c1.8,1.1,3.5,2.1,5.6,2.8V123.5z
							 M283.2,118.6c-1.8-1.4-3.2-3.2-4.2-4.9l0.7-0.4c1.1,1.8,2.5,3.2,4.2,4.6L283.2,118.6z M276.8,110.6c-0.7-2.1-1.4-4.2-1.4-6.3
							h1.1c0.4,2.1,0.7,4.2,1.4,6L276.8,110.6z M276.1,100.4h-1.1c0-1.8,0.4-3.5,1.1-5.3c0-0.4,0.4-0.7,0.4-1.1l1.1,0.4
							c0,0.4-0.4,0.7-0.4,1.1C276.5,97.2,276.1,99,276.1,100.4z M278.6,90.9l-0.7-0.4c0.7-2.1,1.8-3.9,2.8-6l0.7,0.4
							C280.4,87,279.3,89.1,278.6,90.9z M283.2,82.1l-0.7-0.4c1.1-1.8,2.5-3.5,3.9-5.3l0.7,0.7C285.6,78.6,284.6,80.3,283.2,82.1z
							 M289.1,74l-0.7-0.7c1.4-1.8,2.8-3.2,4.6-4.6l0.7,0.7C292.3,70.9,290.5,72.3,289.1,74z"/>
					</g>
					<g>
						<path class="st0" d="M276.8,204.3v-1.1c1.1,0,2.1,0,3.2,0v1.1C279,204.3,277.9,204.3,276.8,204.3z"/>
					</g>
				</g>
				<g>
					<g>
						<polygon class="st1" points="298.6,54.4 281.1,42.8 357.3,27.7 						"/>
					</g>
					<g>
						<polygon class="st2" points="298.6,54.4 303.9,65.9 357.3,27.7 						"/>
					</g>
					<g>
						<polygon class="st3" points="306.3,59.6 303.9,65.9 315.1,58.2 						"/>
					</g>
					<g>
						<polygon class="st1" points="306.3,59.6 320.7,84.2 357.3,27.7 						"/>
					</g>
				</g>
			</g>
			<g>
				<path class="st4" d="M28.9,215.9c0,0-15.5,3.9-23.5,7.4c-8.1,3.5-19,3.2,66.7,17.6c85.7,14.4,91.7,17.2,88.9,21.1
					c-2.8,3.9,35.8,7.4,50.2,6c14.8-1.8,19.7-6,19.7-6s33.4,3.2,54.4,18.3c34.1-14,92.7-39.3,92.7-39.3l-46.7-11.6L28.9,215.9z"/>
				<g>
					<g>
						<polygon class="st5" points="268.8,214.9 260.7,213.8 257.9,217 						"/>
						<g>
							<g>
								<g>
									<g>
										<g>
											<g>
												<path class="st6" d="M236.8,20.6v39.7c0,0-46.4,3.5-56.5,0.4c-10.2-3.2-5.3-16.5-5.3-22.8s0-21.8,1.8-25.6
													c1.8-3.9,9.1-1.8,18.6-0.7C204.8,12.6,236.8,20.6,236.8,20.6z"/>
											</g>
											<path class="st7" d="M175,37.5c0-6.3,0-21.8,1.8-25.6c1.8-3.9,9.1-1.8,18.6-0.7c9.5,1.4,41.4,9.5,41.4,9.5v6.7
												c-8.8-2.1-30.9-6.3-38.6-7.4c-9.5-1.1-16.2-2.5-17.6,1.4c-1.8,3.5-2.1,17.6-2.1,23.9c0,3.5-1.4,9.1-1.1,14
												C171.1,54.4,175,43.1,175,37.5z"/>
											<g class="st8">
												<g>
													<path class="st9" d="M175,12.6l61.1,11.2C236.5,23.8,187.3,12.9,175,12.6z"/>
													<path class="st9" d="M173.6,35l61.8,4.9C235.4,40,185.5,34.3,173.6,35z"/>
													<path class="st9" d="M173.6,32.6l61.8,6.3C235.4,38.9,185.5,32.2,173.6,32.6z"/>
													<path class="st9" d="M173.6,31.2l61.8,6.3C235.4,37.5,185.5,30.5,173.6,31.2z"/>
													<path class="st9" d="M173.6,29.1l61.8,7C235.4,36.1,185.5,28.7,173.6,29.1z"/>
													<path class="st9" d="M173.6,26.6l61.8,8.1C235.4,34.7,185.5,26.3,173.6,26.6z"/>
													<path class="st9" d="M173.6,24.5l61.8,8.4C235.4,32.9,185.5,24.1,173.6,24.5z"/>
													<path class="st9" d="M173.6,22l61.5,8.8C235,31.2,185.9,22,173.6,22z"/>
													<path class="st9" d="M173.6,19.9l61.5,8.8C235,28.7,185.9,19.9,173.6,19.9z"/>
													<path class="st9" d="M173.6,17.8l61.5,9.5C235,27.3,185.9,17.8,173.6,17.8z"/>
													<path class="st9" d="M173.6,15.4l61.5,9.5C235,24.9,185.5,15.4,173.6,15.4z"/>
												</g>
												<g>
													<path class="st9" d="M175.3,56.1H235C235,56.1,187.3,57.9,175.3,56.1z"/>
													<path class="st9" d="M173.9,37.1l61.5,4.2C235,41.4,185.9,39.3,173.9,37.1z"/>
													<path class="st9" d="M173.9,39.3l61.1,3.5C235,42.8,185.9,41.7,173.9,39.3z"/>
													<path class="st9" d="M173.9,41.7l61.1,2.5C235,44.2,185.9,44.2,173.9,41.7z"/>
													<path class="st9" d="M173.9,43.8l61.1,2.1C235,45.9,185.9,45.9,173.9,43.8z"/>
													<path class="st9" d="M173.9,46.3l61.1,1.4C235,47.7,185.9,48.4,173.9,46.3z"/>
													<path class="st9" d="M173.9,48.4l61.1,1.8C235,49.8,185.9,50.5,173.9,48.4z"/>
													<path class="st9" d="M173.9,50.5l61.1,1.1C235,51.5,185.9,52.6,173.9,50.5z"/>
													<path class="st9" d="M173.6,52.9l61.1,1.1C234.7,54,185.5,55.1,173.6,52.9z"/>
												</g>
												<path class="st9" d="M174.6,57.9l61.5,0.7C236.1,58.6,186.9,59.6,174.6,57.9z"/>
											</g>
											<g>
												<g>
													<path class="st10" d="M181.3,6.6c0,0-101.5,10.9-109.6,13.3c-8.4,2.5-6.3,27-4.9,34.8c1.4,7.7,7,9.8,13,10.2
														c6,0.4,110.3-0.4,110.3-0.4s-14-2.5-15.5-13.3c-1.4-10.5,1.1-32,1.4-35.5C176.4,11.9,181.3,6.6,181.3,6.6z"/>
												</g>
												<path class="st11" d="M136.3,52.9c-1.4-10.5,1.1-31.3,1.4-34.8c0.4-2.5,2.8-5.6,3.9-7.4l0,0c-2.5,0.4-4.9,0.7-7.4,0.7
													c-1.4,1.8-3.5,4.9-3.5,7c-0.4,3.5-2.8,24.2-1.4,34.8c0.7,6,3.5,9.5,5.6,10.9c2.5,0,5.3,0,7.7,0
													C140.6,63.1,137.4,59.6,136.3,52.9z"/>
												<path class="st11" d="M124.4,53.3c-1.4-10.2,0.7-30.2,1.4-33.7c0.4-2.5,2.5-5.6,3.9-7.4c-2.5,0.4-4.9,0.7-7.4,1.1
													c-1.4,1.8-3.2,4.6-3.5,6.7c-0.4,3.5-2.8,23.5-1.4,33.7c0.7,6,3.5,9.1,5.6,10.5c2.5,0,5.3,0,7.7,0
													C128.6,63.1,125.1,60,124.4,53.3z"/>
												<g>
													<path class="st12" d="M171.8,35c0-1.8,0-3.2,0.4-4.6c0-1.1,0-2.1,0-2.8c0-8.1,0.4-15.8,4.9-19.3
														c2.1-1.8,4.6-2.1,7.7-1.4c8.8,1.4,47.1,9.5,55.1,11.2v5.3c-5.3-1.1-47.1-10.2-56.2-11.6c-2.1-0.4-3.2,0-3.5,0.4
														c-2.5,2.1-2.8,9.1-2.8,15.1c0,1.1,0,2.1,0,3.2c0,1.4-0.4,4.2-0.4,4.6c0,1.4-0.7,20.4,2.5,22.5
														c3.5,1.8,33.4,3.2,60.4,2.1v5.3c-10.5,0.4-34.8-0.4-50.2-1.1c-6.3-0.4-11.2-0.7-13-1.8C170.4,58.9,171.1,46.6,171.8,35
														z"/>
												</g>
											</g>
										</g>
										<path class="st7" d="M180.3,42.1c0,0,1.1,13,0.7,21.4c4.9,0.7,10.5,0.7,10.5,0.7S189.4,42.8,180.3,42.1z"/>
									</g>
									<path class="st13" d="M73.1,21.3c0,0,68.5-8.1,79.7-9.1c11.2-1.1,15.1-2.1,16.5-1.1c1.4,1.1,0.7,10.9,0,12.3
										c-0.7,1.8-7.7,1.8-15.1,1.8c-7.7,0.4-81.1,3.5-83.2,3.5s-1.8-3.5-1.1-4.9C70.7,22.7,71.4,21.3,73.1,21.3z"/>
								</g>
							</g>
							<g>
								<path class="st14" d="M240,104.2c0,0,5.3,13.7,4.9,25.3c1.8-2.8,3.9-6.3,3.9-6.3l6,5.6c0,0-3.9-25.3-8.8-33
									C241.4,88.1,240,104.2,240,104.2z"/>
								<g>
									<path class="st15" d="M56.3,104.9l18.3,11.9h154.5l17.2-11.9c0,0-74.5-2.5-99-4.2C123,98.6,56.3,104.9,56.3,104.9z"/>
									<g>
										<g>
											<g>
												<g>
													<path class="st16" d="M56.3,63.5c0,0,182.6,0.7,189.3,1.4c4.2,1.4,3.9,11.9,4.2,20.7s0.4,17.6-3.5,19
														c-3.9,1.4-186.9,0-190,0c-3.2,0-4.9-6-5.3-15.5C50.6,80,49.6,63.5,56.3,63.5z"/>
												</g>
											</g>
											<path class="st17" d="M75.6,63.5c-2.5,0-4.6,0-6.7,0c-0.7,1.1-1.4,2.8-1.4,5.6c0,5.3,0,21.4,0,26c0,3.5,1.8,7.4,2.8,9.8
												c2.5,0,5.3,0,8.1,0c-1.4-1.8-3.9-4.9-4.6-9.1c-0.7-6.3-0.7-22.1-0.4-25.6C73.8,67.3,74.5,64.9,75.6,63.5z"/>
											<path class="st17" d="M87.2,63.8c-2.5,0-4.6,0-6.7,0c-0.7,1.1-1.4,2.8-1.4,5.6c0,5.3,0,21.4,0,26c0,3.5,1.8,7.4,2.8,9.8
												c2.5,0,5.3,0,8.1,0c-1.4-1.8-3.9-4.9-4.6-9.1c-0.7-6.3-0.7-22.1-0.4-25.6C85.4,67.3,86.1,64.9,87.2,63.8z"/>
											<path class="st17" d="M223.8,105.3c2.8,0,5.6,0,8.1,0c1.4-2.5,2.8-6,2.8-9.5c0-4.9,0-20.7,0-26c0-2.5-0.7-3.9-1.1-4.9
												c-2.1,0-4.2,0-6.7,0c0.7,1.4,1.4,3.5,1.8,6c0.4,3.9,0.4,19.7-0.4,25.6C227.7,100.4,225.2,103.5,223.8,105.3z"/>
											<path class="st17" d="M212.2,105.3c2.8,0,5.6,0,8.1,0c1.4-2.5,2.8-6.3,2.8-9.5c0-4.9,0-20.7,0-26c0-2.5-0.7-4.2-1.1-4.9
												c-2.1,0-4.2,0-6.7,0c0.7,1.1,1.4,3.5,1.8,6c0.4,3.9,0.4,19.7-0.4,25.6C216.1,100.4,213.6,103.5,212.2,105.3z"/>
										</g>
										<path class="st18" d="M56.3,66.3c0,0,99.8,0,131,0s49.9,0,54.1,0s5.6,1.8,6,5.3c0.4,3.5-1.1,3.9-9.5,3.9
											c-8.4,0-176,0-181.6,0S52.1,66.3,56.3,66.3z"/>
									</g>
								</g>
							</g>
							<g>
								<g>
									<g>
										<g>
											<g>
												<path class="st19" d="M157.8,248.2c0,0-119.4-23.5-128.2-26.3c-8.8-2.8-11.6-29.2-1.4-32.3
													c10.2-3.2,123.6-10.2,123.6-10.2l132.4,7.7L157.8,248.2z"/>
											</g>
											<path class="st20" d="M29.6,221.9c8.8,2.8,128.2,26.3,128.2,26.3l68.1-34.8L24.3,192.4C19,200.5,21.8,219.8,29.6,221.9z"
												/>
										</g>
										<g>
											<path class="st6" d="M280.7,190.3c-24.6,2.1-112,9.8-124,16.2c-14,7.7-9.1,38.3,2.5,39c9.5,0.7,91-16.9,121.9-23.5v-31.6
												H280.7z"/>
										</g>
										<path class="st7" d="M163,215.9c11.2-6.3,87.1-13,117.7-15.8v-10.2c-24.6,2.1-112,9.8-124,16.2c-12.6,7-9.8,33-0.7,38.3
											C152.9,234.9,154.3,220.8,163,215.9z"/>
										<g>
											<path class="st21" d="M284.2,218.4c-37.2,8.1-113.4,24.2-124.3,24.2c-0.4,0-0.4,0-0.4,0c-3.2-0.4-6-4.6-7.4-10.5
												c-2.1-8.8-0.7-19.3,6-23.2c10.5-6,91.3-13.3,125.7-16.2v-6c-20.7,1.8-115.6,9.5-128.6,16.9c-9.5,5.3-11.6,19-9.1,29.5
												c2.1,8.8,6.3,14.8,11.9,15.1c0.4,0,1.1,0,1.4,0c12.6,0,95.2-17.6,124.7-23.9C284.2,224.4,284.2,218.4,284.2,218.4z"/>
										</g>
										<path class="st9" d="M159.2,211.4l120.1-16.5C279.3,194.8,182,205.4,159.2,211.4z"/>
										<path class="st9" d="M157.8,214.5L277.9,198C277.9,198.4,180.6,208.9,157.8,214.5z"/>
										<path class="st9" d="M154.6,218.4l122.2-17.2C276.8,201.2,177.4,212.8,154.6,218.4z"/>
										<path class="st9" d="M154.3,222.2L276.5,204C276.8,204,177.4,216.3,154.3,222.2z"/>
										<path class="st9" d="M154.3,225.8l122.2-19.3C276.8,206.4,177.4,219.8,154.3,225.8z"/>
										<path class="st9" d="M154.3,228.9l122.2-20C276.8,208.5,177.4,222.9,154.3,228.9z"/>
										<path class="st9" d="M155.3,231l121.5-20C276.8,211,178.5,225.4,155.3,231z"/>
										<path class="st9" d="M155.3,233.8l121.5-20.4C276.8,213.8,178.5,228.2,155.3,233.8z"/>
										<path class="st9" d="M157.1,237l120.1-21.8C277.2,215.2,179.9,231.4,157.1,237z"/>
										<path class="st9" d="M159.2,239.8l118.7-22.5C277.9,217.3,182,234.2,159.2,239.8z"/>
									</g>
									<g>
										<path class="st22" d="M25.7,194.1c0,0,80.8,11.9,97.6,14.4c16.9,2.5,20.7,1.8,20.4,8.8c-0.7,7-2.8,7-26.7,3.5
											c-24.2-3.2-86.8-15.1-91.3-15.8C21.5,204.3,23.2,193.8,25.7,194.1z"/>
									</g>
									<g>
										<path class="st23" d="M101.9,234.5h-0.4c-21.4-3.5-47.8-9.1-55.1-10.5c-1.4-0.4-2.5-1.4-2.8-2.8
											c-1.1-4.2-2.8-14.8,2.1-21.8c0.7-1.1,2.1-1.4,3.2-1.4l54.8,6.7c0.7,0,1.8,0.7,2.1,1.4c0.4,0.7,0.7,1.4,0.4,2.5
											c-1.1,3.9-2.5,12.3-1.4,23.2c0,1.1-0.4,1.8-1.1,2.5C103.3,234.5,102.6,234.5,101.9,234.5z M48.5,198.7
											c-1.1,0-1.8,0.4-2.1,1.1c-4.9,6.7-3.2,17.2-2.1,21.1c0.4,1.1,1.1,2.1,2.5,2.5c7.4,1.8,33.4,7,55.1,10.5
											c0.7,0,1.4,0,1.8-0.7c0.4-0.4,0.7-1.1,0.7-1.8c-1.1-10.9,0.4-19.3,1.4-23.2c0-0.7,0-1.4-0.4-1.8c-0.4-0.7-1.1-1.1-1.8-1.1
											l-54.8-6.7C48.5,198.7,48.5,198.7,48.5,198.7z"/>
									</g>
									<g>
										<g>
											<ellipse class="st24" cx="123.4" cy="225.1" rx="6.3" ry="8.8"/>
										</g>
										<path class="st21" d="M118.4,225.4c0-4.9,2.8-8.8,6.3-8.8c-0.4-0.4-1.1-0.4-1.8-0.4c-3.5,0-6.3,3.9-6.3,8.8
											c0,4.9,2.8,8.8,6.3,8.8l0,0C120.5,232.8,118.4,229.3,118.4,225.4z"/>
									</g>
									<g>
										<g>
											<ellipse class="st24" cx="36.2" cy="208.9" rx="4.9" ry="6.7"/>
										</g>
										<path class="st21" d="M32.4,208.9c0-3.9,2.1-6.7,4.9-6.7c-0.4,0-0.7-0.4-1.1-0.4c-2.8,0-4.9,3.2-4.9,6.7
											c0,3.9,2.1,6.7,4.9,6.7l0,0C34.1,214.9,32.4,212.1,32.4,208.9z"/>
									</g>
								</g>
								<path class="st7" d="M160.2,224.4c0,0,1.1,14.8,1.1,23.9c2.8-0.4,10.9-1.4,10.9-1.4S170.1,224.7,160.2,224.4z"/>
								<path class="st14" d="M160.2,224.4c0,0,9.8,6.3,10.5,35.8c4.6-4.9,7.7-7.7,7.7-7.7l8.4,4.9c0,0-5.6-31.3-11.9-35.8
									C165.5,222.6,160.2,224.4,160.2,224.4z"/>
							</g>
							<g>
								<g>
									<g>
										<g>
											<g>
												<g>
													<g>
														<path class="st25" d="M143.4,201.2c0,0,104-12.6,111.7-15.5s10.2-25.6,1.4-28.1s-106.8-7.4-106.8-7.4l-114.2,3.9
															L143.4,201.2z"/>
													</g>
												</g>
												<g>
													<path class="st14" d="M255.1,185.7c-7.7,2.8-111.7,15.5-111.7,15.5l-50.6-29.9l50.9-9.8l116.3-1.1
														C264.2,166.8,261.7,183.6,255.1,185.7z"/>
												</g>
											</g>
											<g>
												<path class="st6" d="M38,156.9c21.1,0.4,96.9,2.8,107.1,7.7c11.9,6,8.1,32.7-2.1,33.7c-8.1,1.1-78.7-9.8-105-14
													C38,184.3,38,156.9,38,156.9z"/>
											</g>
											<path class="st7" d="M139.9,173.4c-9.5-4.9-75.2-7-101.5-7.7v-8.8c21.1,0.4,96.9,2.8,107.1,7.7c10.9,5.3,8.8,27.7,0.7,33
												C148.6,188.9,147.2,177.3,139.9,173.4z"/>
											<g>
												<g>
													<path class="st26" d="M35.5,181.5c32.3,5.3,98,15.1,107.1,14.8h0.4c2.8-0.4,5.3-4.2,6.3-9.5c1.8-7.4,0.4-16.5-5.6-19.7
														c-9.1-4.6-79-7-108.5-7.7v-4.9c17.9,0.4,99.8,2.5,111,8.1c8.4,4.2,9.8,15.8,8.1,24.9c-1.8,7.7-6,13-10.9,13.7
														c0,0-0.4,0-0.7,0c-10.9,0.7-82.2-10.5-107.5-14.4v-5.3H35.5z"/>
												</g>
											</g>
											<g class="st8">
												<path class="st9" d="M143.4,169.2l-104-8.1C39.4,161.1,123.4,165.3,143.4,169.2z"/>
												<path class="st9" d="M144.4,172l-104-8.1C40.8,163.9,124.8,168.2,144.4,172z"/>
												<path class="st9" d="M147.2,174.8L41.5,166C41.5,166.4,127.2,171.3,147.2,174.8z"/>
												<path class="st9" d="M147.2,178.3l-105.7-9.8C41.9,168.5,127.6,174.5,147.2,178.3z"/>
												<path class="st9" d="M147.2,181.2L41.5,170.6C41.9,171,127.6,177.3,147.2,181.2z"/>
												<path class="st9" d="M147.2,184L41.5,172.7C41.9,172.7,127.6,180.1,147.2,184z"/>
												<path class="st9" d="M146.5,186.1l-105-11.2C41.5,174.8,126.5,182.2,146.5,186.1z"/>
												<path class="st9" d="M146.5,188.2L41.9,176.9C41.9,176.9,126.5,184.7,146.5,188.2z"/>
												<path class="st9" d="M145.1,191.3L41.5,178.7C41.2,178.3,125.1,187.5,145.1,191.3z"/>
												<path class="st9" d="M143.4,193.8L40.8,180.4C40.8,180.4,123.4,189.9,143.4,193.8z"/>
											</g>
										</g>
										<g>
											<path class="st26" d="M258.6,162.5c0,0-65.3,4.9-82.5,6.7c-14.8,1.4-19,0.4-18.3,6.3c0.4,6,8.8,4.9,29.9,2.5
												c23.2-2.5,67.1-6.7,71-7.4C262.1,170.3,260.7,162.2,258.6,162.5z"/>
										</g>
										<g>
											<path class="st27" d="M248.4,187.1C248,187.1,248,187.1,248.4,187.1c-0.4-0.4-0.4-0.7,0-0.7c1.1-0.4,4.6-2.5,5.3-4.9
												c0.7-2.5,1.4-8.4,1.8-13.3c0.4-4.6-2.8-6.7-3.2-6.7c0,0-0.4-0.4,0-0.4c0,0,0.4-0.4,0.4,0c0,0,3.9,2.1,3.5,7.4
												c-0.4,4.9-1.1,10.9-1.8,13.3C253.7,184.3,249.8,187.1,248.4,187.1L248.4,187.1z"/>
										</g>
										<g>
											<path class="st27" d="M243.8,187.8C243.5,187.8,243.5,187.5,243.8,187.8c-0.4-0.4-0.4-0.7,0-0.7c1.1-0.4,4.6-2.5,5.3-4.9
												c0.7-2.5,1.4-8.4,1.8-13.3c0.4-4.6-2.8-6.7-3.2-6.7c0,0-0.4-0.4,0-0.4c0,0,0.4-0.4,0.4,0c0,0,3.9,2.1,3.5,7.4
												c-0.4,4.9-1.1,10.9-1.8,13.3S245.2,187.5,243.8,187.8L243.8,187.8z"/>
										</g>
									</g>
									<path class="st28" d="M171.8,175.9c0.4,8.4-0.7,14.4-4.2,22.1c2.8-0.4,5.6-0.7,8.8-1.1c0.4-0.7,3.5-8.8,3.5-20
										c0-5.3-1.4-9.1-3.2-11.6l-8.1,1.1C170.4,168.9,171.8,172,171.8,175.9z"/>
									<path class="st28" d="M184.8,175.2c0.4,8.1-0.7,14-3.9,21.4c2.8-0.4,6-0.7,8.8-1.1c1.1-2.5,3.2-9.5,3.2-19
										c0-5.3-1.4-9.1-3.2-11.6l-8.1,0.7C183.1,167.8,184.5,171,184.8,175.2z"/>
								</g>
								<path class="st7" d="M139.2,176.9c0,0-1.1,15.5-0.7,23.9c-2.5-0.4-10.5-1.1-10.5-1.1S130,177.3,139.2,176.9z"/>
								<path class="st29" d="M139.2,176.9c0,0-9.1,7-9.8,34.4c-4.2-4.6-7.4-7.4-7.4-7.4l-7.7,4.6c0,0,5.3-29.2,11.2-33.4
									C134.2,176.6,139.2,176.9,139.2,176.9z"/>
							</g>
							<g>
								<g>
									<g>
										<path class="st6" d="M70.3,109.1v39.7c0,0,46,5.6,55.8,2.8c9.8-2.8,5.3-16.5,5.3-22.8c0-6.3,0-22.1-1.8-25.6
											c-1.8-3.9-9.1-2.1-18.6-1.4C101.9,102.5,70.3,109.1,70.3,109.1z"/>
									</g>
									<path class="st7" d="M131.4,128.8c0-6.3,0-22.1-1.8-25.6c-1.8-3.9-9.1-2.1-18.6-1.4c-9.1,0.7-40.7,7.4-40.7,7.4v6.7
										c8.4-1.8,30.6-5.3,37.9-6c9.5-0.7,15.8-1.8,17.6,2.1c1.8,3.9,2.1,17.9,2.1,24.2c0,3.5,1.4,9.1,1.1,14
										C134.9,145.7,131.4,134.4,131.4,128.8z"/>
									<g class="st8">
										<g>
											<path class="st9" d="M131.1,103.5l-60.4,8.8C70.7,112.3,119.1,103.5,131.1,103.5z"/>
											<path class="st9" d="M132.8,126.4l-61.1,2.5C71.7,128.8,120.9,125.3,132.8,126.4z"/>
											<path class="st9" d="M132.8,123.9l-61.1,3.9C71.7,127.8,120.9,122.8,132.8,123.9z"/>
											<path class="st9" d="M132.8,122.5l-61.1,3.9C71.7,126.4,120.9,121.4,132.8,122.5z"/>
											<path class="st9" d="M132.8,120.4L71.7,125C71.7,125,120.9,119.3,132.8,120.4z"/>
											<path class="st9" d="M132.5,117.6l-60.8,6C71.7,123.5,120.5,116.9,132.5,117.6z"/>
											<path class="st9" d="M132.5,115.8l-60.8,5.6C71.7,121.4,120.5,115.1,132.5,115.8z"/>
											<path class="st9" d="M132.5,113.4l-60.8,6.3C71.7,119.7,120.5,112.7,132.5,113.4z"/>
											<path class="st9" d="M132.5,111.3l-60.8,6.3C71.7,117.6,120.5,110.6,132.5,111.3z"/>
											<path class="st9" d="M132.5,108.8l-60.8,7C71.7,116.2,120.5,108.4,132.5,108.8z"/>
											<path class="st9" d="M132.8,106.3l-60.8,7C72.1,113.7,120.9,106,132.8,106.3z"/>
										</g>
										<g>
											<path class="st9" d="M131.1,147.4L71,144.3C70.7,144.3,119.1,148.5,131.1,147.4z"/>
											<path class="st9" d="M132.5,128.5l-60.4,1.8C71.7,129.9,120.5,130.2,132.5,128.5z"/>
											<path class="st9" d="M132.5,130.2l-60.4,1.1C72.1,131.3,120.5,132.3,132.5,130.2z"/>
											<path class="st9" d="M132.5,133l-60.4-0.4C72.1,132.7,120.5,134.8,132.5,133z"/>
											<path class="st9" d="M132.5,135.1l-60.4-0.4C72.1,134.8,120.5,136.9,132.5,135.1z"/>
											<path class="st9" d="M132.5,137.2l-60.4-0.7C72.1,136.5,120.5,139,132.5,137.2z"/>
											<path class="st9" d="M132.5,139.7L72.1,139C72.1,138.7,120.5,141.5,132.5,139.7z"/>
											<path class="st9" d="M132.5,141.8l-60.4-1.4C72.1,140.4,120.5,143.6,132.5,141.8z"/>
											<path class="st9" d="M132.5,144.3l-60.4-1.4C72.4,142.9,120.9,146,132.5,144.3z"/>
										</g>
										<path class="st9" d="M131.4,149.2l-61.1-2.8C70.3,146.4,119.5,150.6,131.4,149.2z"/>
									</g>
									<g>
										<g>
											<path class="st29" d="M125.1,97.2c0,0,100.1,15.1,108.2,17.9c8.1,2.8,7,23.9,5.6,31.3s-7,9.5-12.6,9.5
												c-6,0-103.6-1.4-103.6-1.4s7.7-1.8,9.1-12.6c1.4-10.5-1.1-32-1.4-35.8C130,102.8,125.1,97.2,125.1,97.2z"/>
										</g>
										<path class="st11" d="M168,110.6c0.4,3.5,2.8,23.2,1.4,33.4c-1.1,8.4-6.7,10.9-8.1,11.6c2.8,0,5.6,0,8.4,0
											c2.1-1.4,5.6-4.2,6.7-10.9c1.4-9.8-0.7-29.9-1.4-33.4c-0.4-2.1-2.1-5.3-3.5-7c-2.5-0.4-4.9-0.7-7-1.1
											C165.5,104.9,167.6,108.1,168,110.6z"/>
										<path class="st11" d="M179.9,112.3c0.4,3.2,2.8,22.8,1.4,32.3c-1.1,7-4.9,9.8-7.4,10.9c2.8,0,5.3,0,8.1,0
											c2.1-1.4,5.3-4.2,6-10.2c1.4-9.8-0.7-29.2-1.4-32.3c-0.4-2.1-2.1-4.9-3.5-6.7c-2.5-0.4-4.9-0.7-7.4-1.1
											C177.4,107,179.6,109.8,179.9,112.3z"/>
										<g>
											<path class="st30" d="M134.6,126.4c0-1.8,0-3.2-0.4-4.6c0-1.1,0-2.1,0-2.8c-0.4-7.7-0.4-15.5-4.9-19.3
												c-2.1-1.8-4.6-2.5-7.7-1.8c-8.8,1.4-46.7,7.7-54.8,9.5v5.3c5.3-1.1,46.4-8.1,55.5-9.5c2.1-0.4,2.8,0.4,3.5,0.7
												c2.5,2.1,2.8,9.1,2.8,15.5c0,1.1,0,2.1,0,3.2c0,1.4,0.4,4.2,0.4,4.6c0,1.4,0.7,20.7-2.5,22.5c-3.5,1.8-33,0-59.7-2.5v5.3
												c10.5,1.1,34.4,2.8,49.5,2.8c6.3,0,10.9-0.4,12.6-1.1C135.6,150.2,134.9,137.9,134.6,126.4z"/>
										</g>
									</g>
								</g>
								<path class="st7" d="M125.8,133c0,0-1.1,13-0.7,21.8c-4.9,0.4-10.2,0.4-10.2,0.4S117,133.4,125.8,133z"/>
								<path class="st20" d="M125.8,133c0,0-9.8,8.1-10.2,35.5c-4.2-3.9-7-6.3-7-6.3l-7.7,5.6c0,0,5.3-29.9,11.2-34.8
									C120.9,132.7,125.8,133,125.8,133z"/>
							</g>
							<g>
								<path class="st31" d="M135.3,101.8c0,0,90.6,14.4,94.1,14.8c3.2,0.7,3.9,3.9,4.6,6.3c0.7,2.5-2.1,1.4-7.4,1.1
									c-5.6-0.4-81.1-10.2-85.4-10.9c-4.2-0.7-4.6-2.1-5.3-4.2c-0.7-2.1-1.8-5.6-1.4-6.3C134.6,102.1,134.6,101.8,135.3,101.8z"/>
							</g>
							<g>
								<path class="st32" d="M141.3,154.8c0,0-0.4,0-0.4-0.4s0-0.4,0-0.7c0.7-0.7,3.9-5.6,4.2-11.2c0.4-5.3,0.4-17.6,0-27.7
									c-0.4-9.8-3.5-13.3-3.5-13.7c0-0.4,0-0.4,0-0.7c0.4,0,0.4,0,0.7,0c0,0,3.5,3.9,3.9,14c0.4,10.2,0.4,22.5,0,27.7
									C145.8,148.5,142.7,154.1,141.3,154.8C141.6,154.8,141.3,154.8,141.3,154.8z"/>
							</g>
							<g>
								<path class="st32" d="M146.5,155.5c0,0-0.4,0-0.4-0.4c0-0.4,0-0.4,0-0.7c0.7-0.7,3.9-5.6,4.2-11.2c0.4-5.3,0.4-17.6,0-27.7
									c-0.4-9.8-3.5-13.3-3.5-13.7c0-0.4,0-0.4,0-0.7c0.4,0,0.4,0,0.7,0c0,0,3.5,3.9,3.9,14c0.4,10.2,0.4,22.5,0,27.7
									C151.1,148.8,147.9,154.5,146.5,155.5L146.5,155.5z"/>
							</g>
							<path class="st29" d="M180.3,42.1c0,0,9.8,8.4,10.2,35.5c4.2-3.5,7.4-6,7.4-6l7.7,6c0,0-5.3-30.2-11.6-35.1
								C185.5,41.7,180.3,42.1,180.3,42.1z"/>
						</g>
					</g>
					<g>
						<g>
							<g>
								<g>
									<path class="st12" d="M155,176.6c0,0,24.9,16.2,38.6,59.7c-3.2,7,1.4,16.2,11.2,12.3c6.7-1.8,43.9-11.6,69.9,22.1
										c38.3-15.5,82.2-29.9,82.2-29.9s1.8-4.6,1.4-4.6c-1.1-0.7-6.3,2.1-8.8,1.1c-14.8-6.7-48.1-20-68.5-15.5
										c-8.1,1.8-12.3,0.4-12.3-3.9c0-4.2-13.7-41.1-23.9-50.6c-25.6,0.4-66,8.1-82.2,8.4c-0.7,0-4.2-3.5-5.3-3.5
										C156.4,171.7,155,176.6,155,176.6z"/>
									<path class="st33" d="M157.1,171.7c0,0,27,19.3,41.1,62.9c-3.2,7,0,13.3,9.8,9.8c6.7-1.8,43.6-8.8,68.8,22.1
										c38.3-15.5,81.5-30.2,81.5-30.2s-47.1-24.6-74.1-18.6c-8.1,1.8-12.3,0.4-12.3-3.9c0-4.2-13.7-41.1-23.9-50.6
										C216.1,162.9,157.1,171.7,157.1,171.7z"/>
								</g>
								<g>
									<path class="st34" d="M249.1,156.2l-78.7,5.3c-3.2,9.5,31.6,56.2,31.6,56.2s1.8,6.3,6.7,15.8l68.1-19.7
										C269.5,182.6,249.1,156.2,249.1,156.2z"/>
								</g>
								<path class="st35" d="M276.8,213.8C276.8,213.5,276.8,213.5,276.8,213.8l-68.1,19.7c0,0.4,0.4,0.4,0.4,0.7
									c36.9-7,70.2,18.3,70.2,18.3s16.9-5.3,81.1-29.9C343.9,214.2,290.5,210.3,276.8,213.8z"/>
								<path class="st36" d="M281.1,246.5L281.1,246.5c0,0-28.5-23.5-70.2-14c-4.9-21.1-26.7-65-40-71c-4.2,3.5-9.5,7-9.5,7
									s29.9,27.7,39,65.3c6.7-0.4,9.8,7,9.8,7s22.5-4.9,40,0.7c17.6,5.6,28.8,20.4,28.8,20.4h0.4l80.4-29.2l1.1-10.5L281.1,246.5z
									"/>
								<path class="st37" d="M280.7,246.5c0,0-28.5-23.5-70.2-14c-4.9-21.1-26.7-65-40-71c-4.2,3.5-9.5,7-9.5,7s29.9,27.7,39,65.3
									c6.7-0.4,9.8,7,9.8,7s22.5-4.9,40,0.7c17.6,5.6,28.8,20.4,28.8,20.4h0.4L280.7,246.5L280.7,246.5z"/>
							</g>
							<path class="st34" d="M210.5,233.1c0,0,30.2-12.6,70.2,6.7c42.9-11.9,76.2-22.5,76.2-22.5s-45.3-12.3-80.4-3.9
								C241.4,222.2,214,230.7,210.5,233.1z"/>
							<path class="st6" d="M210.5,232.4c0,0,2.5-41.8-28.5-76.9c20-2.5,77.3-3.5,77.3-3.5s18.6,33.7,17.2,61.5
								C245.6,221.5,210.5,232.4,210.5,232.4z"/>
						</g>
						<path class="st29" d="M282.5,212.4c0,0-53.7,14.4-65.3,18.6c-11.6,4.2-10.9,32-10.9,32l-4.9-7l-4.6,4.2c0,0,2.1-22.8,13-30.6
							C221,221.9,272.3,212.4,282.5,212.4z"/>
						<path class="st6" d="M267,206.1c-7.7,0-14.8,0.7-20.7,1.8c0.4-5.6-0.4-11.9-2.1-18.6c-4.6-16.9-14.8-28.5-22.8-26.3
							c-8.1,2.1-10.9,17.6-6.7,34.4c3.2,11.6,9.1,20.7,15.1,24.6c6,4.2,20.4,7,37.2,7c22.1,0,40-4.9,40-11.2
							C307,211,289.1,206.1,267,206.1z"/>
						<g>
							<g>
								<g>
									<g>
										<g>
											<path class="st24" d="M306.7,149.5c15.1,20.7,10.5,49.9-10.2,65c-20.7,15.1-49.9,10.5-65-10.2
												c-15.1-20.7-10.5-49.9,10.2-65S291.6,128.8,306.7,149.5z"/>
										</g>
										<g>
											<path class="st38" d="M274.7,204L274.7,204C274.7,204,274.4,204,274.7,204L274.7,204z"/>
										</g>
										<g>
											<path class="st20" d="M231.5,152.3c0.4-0.4,0.7-0.4,1.1-0.7c1.1-0.7,1.4-1.4,1.8-2.5c0.4-0.4,1.4-2.1,2.5-1.8
												c0,0.4-0.4,1.1,0,1.1c0.4,0.4,0.7-0.4,1.1-0.4c0,0.4,0,1.1,0,1.4c0.7,0,0.7-0.7,0.7-1.4c0-0.7,0.4-1.1,0.4-1.8
												c0.4-0.4,0.4-0.7,0.7-1.1c0-0.4,0-1.1,0.4-1.4c0.4-1.1,1.4-1.4,1.8-2.5c0.4-0.4,0.7-0.7,1.1-1.1c0.4-0.4,0.7-1.1,1.1-1.4
												c0.7-0.7,1.8-2.1,2.8-1.8c-0.4,0.7-1.4,1.1-1.8,1.8c-0.4,0.4,0,0.4-0.4,0.7c-0.4,0.4-1.1,0.4-0.7,1.1c0.4,0,0.4,0,0.7,0
												s0.7-0.7,1.1-0.4c0.4,0.4-0.4,1.1-0.4,1.4c0,0.4,0.7-0.4,1.1-0.7c0.4-0.4,0.4-1.1,0.4-1.4c0.4-0.4,1.1-0.7,1.4-1.4
												c0.4-0.4,0.7-0.7,1.1-0.7c0.7-0.4,1.1-0.4,1.8-0.7c0.4-0.4,0.7-0.7,1.1-0.7l0,0c0.4-0.4,0.7-0.4,0.7-0.7
												c0.4,0,0.4-0.4,0.7-0.7c0.7-0.4,1.8-0.7,2.5-1.1c0.4-0.4,0.7-0.7,1.1-0.7c0.4,0,0.4,0,0.7,0c0.4,0,0.4-0.4,0.7-0.4
												c0.4-0.4,2.5-0.7,2.5-1.1c-0.4-0.4-2.8,0-3.2,0c-0.7,0-1.8,0-2.5,0.4c-4.9,1.4-9.5,3.9-13.7,6.7
												c-2.1,1.4-3.9,3.2-5.6,4.9c-1.8,1.8-3.2,3.5-4.6,5.6c-0.4,0.7-0.7,1.1-1.1,1.4c-0.4,0.7-1.1,1.4-1.4,2.1
												c-0.4,0.4-0.4,0.7-0.4,1.4c0.7-0.4,1.4-1.1,1.8-1.4C230.8,153.1,231.2,152.7,231.5,152.3z"/>
											<path class="st20" d="M256.8,141.5c-0.7,0-0.7,0.4-1.1,0.4v-0.4c-0.4,0-0.7,0-0.7,0s0-0.4,0-0.7c0,0,0,0,0.4,0
												c0,0,0,0,0-0.4c0.4-0.4,0.4-0.4,0.4-0.7l0,0c-0.4,0-0.7,0.4-0.7,0.4c-0.4,0-0.7,0-0.4,0.4c-0.4,0-1.1,0.4-1.1,0.4
												c-0.4,0.7,0.7,0.4,0.4,1.1c-0.4-0.4-0.7-0.4-1.1,0c-0.4,0-0.7,0.4-0.7,0.4c0.4,0.7,0,0.7-0.4,1.1c0,0-0.4,0-0.4,0.4
												c0,0,0,0.4,0,0.7c-0.4,0.7-1.8,0.7-1.4,1.4c0.4-0.4,1.1,0.4,1.4-0.4c0.4,0,1.4-0.7,1.4-1.1c0.4-0.4,0.4-0.7,0.7-0.7h0.7
												c0,0.7-1.4,1.1-1.4,1.8s0.4,0.4,0.7,0c0,0,0.4-1.1,0.7-0.4c0.4,0,1.4-0.7,1.4-1.1c0,0.4,0.4,0.4,0.7,0.4
												c0-0.4,0.7-0.7,0.7-1.1h0.4c0.4-0.4,0-0.7,0-0.7C256.5,142.5,256.8,141.8,256.8,141.5z"/>
											
												<radialGradient id="SVGID_1_" cx="274.3848" cy="278.3698" r="0" gradientTransform="matrix(1 0 0 -1 0 482)" gradientUnits="userSpaceOnUse">
												<stop  offset="0" style="stop-color:#FFFFFF"/>
												<stop  offset="0.2051" style="stop-color:#E9E9F3"/>
												<stop  offset="1" style="stop-color:#9997C6"/>
											</radialGradient>
											<path class="st39" d="M274.4,203.6L274.4,203.6L274.4,203.6L274.4,203.6z"/>
											<path class="st20" d="M313,161.5c-1.4-4.2-3.5-8.1-6.3-11.6c-9.1-12.6-23.5-19.3-37.9-19c-0.4,0.4-0.7,0.4-0.7,0.7
												c-0.4,0.4-0.4,0.4,0,0.7c0.4,0.4,1.4,0.4,1.8,0.7c0.7,1.1-1.1,0.7-0.7,1.4c-0.4,0-1.4,0-0.7,0.7c0,0,0,0-0.4,0
												c0,0.7,0.7,0.7,1.4,0.7c0.7,0,1.1,0.7,0.4,1.1c0.4,0.4,0.4,1.1-0.4,1.1c-0.4-0.7-0.4,0-0.7,0c-0.4,0-0.7-0.4-0.4-0.7
												c-0.4,0-0.7,0-1.1,0l0.4-0.4c-0.4,0-0.7,0-1.1,0c-0.4-0.4,0-0.4,0.4-0.7c-0.4,0-0.7,0-1.1-0.4c0.4-0.4,0.7-0.4,0.7-0.7
												c-0.4-0.4-1.1-0.4-1.4-0.4s-1.1-0.4-1.8-0.4c-1.1,0.4-2.1,0.4-2.8,1.4c-0.7,1.1-1.8,1.1-2.8,1.8
												c-0.4,0.4-1.4,1.4-1.4,2.1l0,0c-0.4,1.1,1.4,0.4,0.7-0.4c0.4,0,0.4,0,0.4,0c0.4-0.4,1.1-1.8,1.1-0.4
												c0.4,0,0.4-0.4,1.1-0.4c0,0.7,0,1.4,0,2.1c0.7,0.4,1.8-0.7,1.4-1.4c0.7-0.4,0-1.1,0.4-1.8c0,0,0.4-0.7,0.7-0.7
												c0.4-0.4,0.4-0.4,0.7-0.4c0,0.7-0.4,0.7-0.4,1.4c1.1,0,0.7,0.7,1.8,0.4c0.7-0.4,1.1-0.7,1.1,0.4c0.7,0.4,1.1,0,1.8,0
												c0.4,0,0.4,0.4,0.4,0.4s0.7,0,0.7,0.4c1.1,1.4-1.8,0.7-1.8,0.7c-0.4-0.7-1.4,0-1.8,0.4c-0.4,0.7,0.4,1.1-0.4,1.1
												c-0.4,0-0.4-0.4-0.7,0c-0.4,0-0.4,0.4-0.7,0.4s-0.7,0-1.1,0c-0.4,0-0.7,0.4-1.1,0.4c-0.7,0-1.1-0.7-1.8-0.4
												c-0.4,0-0.4,0.4-0.7,0.7s-0.7,0-1.1,0.4c-0.7,0.4-0.4,1.1-0.7,1.8c0,0.4-0.4,0.4-0.7,0.4c-0.4,0.4,0,0.7-0.4,0.7
												s-0.7,0-1.1,0c-0.4,0.7-1.4-0.4-1.8,0.7h0.4c0,0,0,0.4-0.4,0.4c1.4,0,0.7,1.4,0,2.1c-0.4-0.4-1.1,0.4-1.4,0.4l-0.4,0.4
												l-0.4-0.4c-0.4,0-0.7,0.4-1.1,0c0.4,0.4,0,0.7,0,1.1c-0.4,0.4-0.4,0.7-0.4,1.4c0,0.7-1.4,2.5,0.4,2.5
												c0.4,0,1.1-0.4,1.4-0.7l0.4-0.4h0.4c0.4,0,0.7-0.4,0.7-0.4c0.4-0.4,0.7-0.7,1.1-1.1c0.4-0.4,0.7-0.7,0.7-1.1
												c1.8,0,0.4-1.1,1.4-1.8c0.7-0.4,0.7,0.4,1.4,0c0.4,0,0.4-0.4,0.4-0.7c0.4,0,0.4,0,0.7,0c0.7-0.4,0.7-0.4,1.4-0.4l0.4,0.4
												c0.4,0,0.4,0,0.7,0s2.1,1.4,2.1,0c-0.7,0-2.1-0.4-1.8-1.4c1.8-0.7,2.5,0.4,3.5,1.1c0.4,0.4,1.1,0.7,1.4,1.1
												c0.4,0.7,0,1.4,1.1,1.4c0,0,0-0.4,0-0.7l0,0c0.7-0.4,0-0.4,0-0.7c0,0-0.4,0-0.4-0.4c0,0,0.4,0,0.7-0.4
												c0-0.4-0.7-0.4,0-0.7c0.4-0.4,1.1,0,0.7,0.4c0.4,0,0.4,0.4,0.4,0.7h0.4c0,0.7-0.4,1.4,0.4,1.8v0.4c0.7,0,1.1-0.4,1.8-0.4
												c0.4,0,1.4-0.4,1.8-0.4c0.4,0,0.4,0.4,0.7,0.4s0.4-0.4,0.7-0.7c1.1-0.4,0.7,0.4,1.1,0.7h-0.4c0.4,0.4,0.7,0.4,0.7,0.7
												c-0.4,0-0.7,0-1.4,0c0.4,0,1.1,0.4,1.1,1.1h0.4c0,0,0,0,0,0.4c0,0,0,0,0,0.4h-0.4c0,0.4-0.4,0.4-0.7,0.4c0,0,0,0,0-0.4
												c0,0.4-1.8,1.1-1.8,0.4c-0.4,0-0.4,0-0.7,0c0-0.4-0.4-0.4-0.7-0.4c-0.4,0.4,0,0.7-0.4,1.1c-0.4,0.4-0.7,0.4-0.7,0.7
												c0.4,0.4,0,0.4,0,0.7c-0.7,0-0.4-0.7-0.7-1.1c0,0-0.4,0-0.7,0s-0.7-0.4-0.7-0.4c-1.8-0.4,0,1.8-1.4,1.8
												c0,0-3.2,1.4-2.8,0.4c-0.7,0,0-0.4-0.4-0.7s-0.7-0.4-1.1,0c-0.4,0-2.5,0-1.8-1.1H260c0-0.7,0-0.7-0.4-1.4
												c-0.4-0.4-0.7,0.4-1.1,0.4c-0.4,0-1.1,0-1.4,0c-0.7,0-2.1,0-2.5,0.7c-1.1,0-1.4,0.7-2.1,1.1c-0.7,0.4-0.4,0.4-1.1,0.4
												c-0.4,0-1.1-0.7-1.1,0c-0.4,0-0.7,0-1.1,0.4l-0.7,0.7c-0.4,0.7-0.4,1.8-1.1,2.1c0,0.4-0.4,1.1-0.7,1.1
												c-0.4,0.7-0.7,0.7-1.4,1.1c0,0.4-0.7,1.1-1.1,1.4h0.4c0,0.7-1.1,1.1-1.4,1.8h0.4c0,0.4,0.4,0.7,0,1.4
												c-0.7,0-0.7,0.7-1.4,0.7c0,0.4,0,0.4,0.4,0.4c-0.4,0.4-0.4,1.1-0.4,1.4c0,0.7,0.4,0.7,0.4,1.4c-0.4,1.1-1.1,1.8-1.1,2.5
												h0.4c0.4,0.4,0.4,0.4,0.4,0.7h0.4c0,0.4,0,0.7,0,1.1c0,0.4,0.4,0.4,0.4,0.7c0,0,0-0.4,0.4-0.4c0.7,0,1.1,1.1,1.4,1.8
												c0.4,0.4,0.4,0.7,0.7,1.1c0.4,0.4,0.4,0.7,0.4,1.1c0.4,0.4,0.7,0.4,1.1,0.7c0.4,0.4,0.4,0.7,1.1,1.1
												c0.7,0,2.1-0.4,1.8-1.1c0.4,0,0.7,0.4,1.1,0.4c0.4,0,0.4,0,1.1,0c0.7,0,1.4,0.7,1.4-0.4c0.4,0,0.7-0.4,1.1-0.7
												c0.4-0.4,1.1-0.4,1.4-0.7c0.7-0.4,0.7-2.1,1.4-1.1c0,0,0,0,0,0.4c0.7,0,1.1,1.1,1.4,1.8c0,0.4,0.4,1.1,0.4,1.1
												c0.4,0.4,1.1-0.4,1.1-0.7c0.4,0,0.4,0.4,0.7,0c0.4,0,0.4-0.4,0.7-0.4s0.7,0,1.1,0c0.7,0.4,0.4,0.4,0.4,0.7
												c0.4,0.4,0.7,1.1,0.7,1.4c0,0.7-0.4,1.4-0.4,2.1c0,0.7,0.4,1.1,0.7,1.4c0.4,0.4,0.7,0.7,1.1,1.1c0.7,0.4,3.2,0.7,2.1,1.8
												c1.1,0,0.4,0.7,0.7,1.4l0,0c-0.7,0-0.7,0.7,0.4,0.7c0,0.4,0,0.7,0,1.1l-0.4,0.4c0,0.4,0.4,0.4,0.4,0.4
												c0,0.7-0.4,1.1-0.7,1.4c-0.4,0.7-0.7,0.7-1.1,1.4c0,0.4,0,0.4,0,0.7v1.1c0.4,0.4,1.1,0.7,1.8,1.1
												c0.7,0.4,0.7,0.7,1.4,1.1c0.4,0,0.7,0,1.1,0s0.4,0.4,0.7,0.4c0.7,0,1.4,0,0.7,0.7c-0.4,0.4-0.7,0-0.7,0.7
												c0.7,0.4-1.1,1.4-0.4,2.1c0.4,0.4,1.1,0,1.1,0.4c0.4,0.4,0,1.1,0.7,1.4v0.4c0.4,0,0,0,0.4,0.4c0.4,0,1.1,0.7,1.1,1.1
												c0,0,0,0,0.4,0.4v0.4h0.4c0,0.4,0.4,0.7,0,1.4c0.7,0,1.4,0.4,1.4,1.1c0.7,0,0.4-0.7,0.7-1.1c0.4-0.4,0.4-0.7,0.7-1.1
												c0.4-0.7,0-0.4,1.1-0.7c0.4,0,1.1,0,1.1-0.7c1.1,0,1.8-0.7,2.8-1.1c0.4-0.4,1.1-0.4,1.1-0.7c0.4-0.7,0-0.7,0-1.4
												c-0.7-0.4,0-1.4-0.7-1.4c0.4-1.1,2.1-0.4,2.1-1.1c0.4-0.4,1.1-0.4,1.4-0.7c0.4-0.7,0.4-1.1,0.4-1.4s-0.4-0.4-0.4-0.7
												c0-0.4,0-0.4-0.4-0.7c-0.4-0.4-1.1-0.4-1.1-1.1c0-0.7,0.7-0.7,1.4-1.1c1.1-0.4,0.7-0.7,1.4-1.4c0.4-0.4,0.7-0.4,0.7-0.4
												c0.4-0.4,0-0.7,0.4-1.1c0-0.4,0.4-0.4,0.7-0.7c0-0.4,0-0.4,0-0.7c0,0,0-1.1,0-1.4c0-0.7-0.4-1.1-0.4-1.8h-0.4
												c0.4-1.1-0.7-1.1-1.1-1.1l0,0l0,0c-0.4-0.4-0.4-0.7-0.7-1.1c-0.4-0.4-0.7-0.4-0.7-0.7c-0.4,0-2.5,0.4-1.8-1.1
												c0.4-0.4,0.7-0.4,1.1-0.4c0.7-0.4,0.4-0.4,0.7-1.1c0,0,0.4,0,0.7,0c0.4-0.4,0-1.1,0.4-1.8c0-0.4,0.7-0.4,0.7-0.7
												c0.4-0.4,0.4-0.4,0.4-0.7c0.4-0.7,0.4-0.7,1.1-1.4c0.4-0.4,0.7-0.7,0.7-1.4h-0.4c0-0.4,0.4-0.7,0.4-1.1
												c1.1-0.4,0.4-1.1,0.7-1.8c0-0.4,0.7-0.4,0.7-0.7c0-0.4-0.4-0.7,0-1.1c1.1-0.4,1.8-0.7,1.8-1.8c0,0,0,0-0.4,0
												c0-0.7,0.7-1.4,0.7-2.5c0-0.7,0.7-2.1,0.4-2.5c-0.7,0-0.4,0.7-0.7,1.1c-0.4,0.4-1.4,0-1.4,0.7c-0.7,0-1.1,1.1-1.4,1.4
												c-0.7,0.4-1.8-0.4-1.8,1.1c-0.7,0-2.8,1.1-3.2,0c0.4,0,2.1-1.1,0.7-1.1c0-0.4,0-0.7,0-0.7c-1.1,0-1.1,1.1-1.8,0
												c-0.4,0-0.7,0-1.1,0c0-0.7,0-0.7-0.7-1.4c-0.4-0.4-0.4,0-0.4-0.4c0-0.4,0-0.7-0.4-1.1c-0.4,0-1.1-0.4-1.4-0.4
												c0-0.4,0-0.7,0-0.7c-0.4-0.4-0.4,0-0.7-0.4c-0.7-0.4-1.4-0.4-2.5-1.1c0.4-0.7-1.1-0.7-1.4-0.7c-0.7-0.4-0.4-1.1,0-1.1
												c0.4-0.4,1.4,0,1.1-0.4c-0.4-0.7-1.1,0-1.8-0.4c-0.4-0.7,0.4-1.1,1.4-1.4c0.4,0.4,0.7,0.7,1.1,1.1
												c0.4,0.4,1.1,0.7,0.7,1.1c0.4,0,0.7,0.4,1.1,0.7c1.1,0,2.1,0.7,3.2,1.1c0.4,0.4,2.8,1.1,2.8,1.4c1.1,0,0.7,1.1,0.7,1.8
												c0.7,0-0.4,1.4,0.7,1.8c0.7,0.4,1.8,0,2.5-0.4c0.4-0.4,1.1-0.4,1.4-0.4s0.7,0,0.7-0.4c0.4-0.4,0-0.4,0.4-0.7
												c0.4-0.7,1.4-1.1,1.8-1.4c-0.4-0.4,0.4-1.1,0.7-1.8c-1.1,0-0.7-1.1-0.7-1.8c0,0-0.4,0-0.7,0c0-0.4,0.7-2.5-0.4-1.4
												c0-0.7-0.4-0.4-0.7-0.4c-0.7,0-0.4,0-0.7-0.7c-0.4-0.4-0.4-1.8-1.1-1.4c-0.4,0.7,0,1.8-1.1,1.4c-0.4,0-0.4-0.4-0.7-0.4
												c-0.4,0-0.4,0.4-1.1,0c-0.4-0.4-0.7-1.1-1.1-1.4c-0.4-0.4-1.4-0.7-1.1-1.4c-0.7,0-0.4-1.4,0.4-1.4
												c0.7,0.4,0.4,1.1,1.4,0.7c0,0.7,0,0.7,0.4,1.1c0.4,0.4,0.7,0,0.7,0.7c0.7,0.4,1.1-0.4,1.4-0.4c0,0.4,1.1,0.7,1.1,1.1
												c0.4,0,1.4,0,1.8,0c0.4,0,0.4-0.4,0.4-0.7c0.4,0,0.4,0,0.7,0s1.4-0.4,1.1,0.7c0.4,0,0.7,0,1.4,0.4c0.7,0,0.7,0,1.1,0.4
												c0,0.7,2.5,1.1,2.8,1.1c0.4,0.4,1.1,0.4,1.1,1.1c0.7,0.4,0,0.7,0.4,1.1c0,0.4,0.4,0.4,0.7,0.7v0.4c0,0,0.7,0.4,0.4,0.4
												c0.4,0.4,0.4,0.4,0.4,1.1c0.7,0,1.4,1.1,1.4,1.8c0,0.4-0.4,0.7,0,1.1s0.7,0.4,1.1,0.4c0.7,0.7,0.4,1.1,1.1,1.8V159
												c-0.7-0.4,0-1.1-0.4-1.4c-0.4-0.4-1.4-0.4-1.8-0.7c-0.4-0.4-0.4-0.4-0.4-0.7s-0.7-0.4-0.4-0.7c0-0.4,0.7,0,0.7-0.4
												c0.4-0.4,0-0.7,0-1.1h0.4c0-0.4,0-1.4,0.7-1.1c0,0.7,0,1.8,0.7,1.4c0.4,0.7-0.4,1.1,0,1.4c0.4,0.4,0.7,0,0.7,0.4
												c0,0.4,0,0.7,0,1.1c0.7,0.4,0.7,1.4,1.8,1.4c0-0.4,0-0.4-0.4-0.7c0.7-0.7,0.4,0.4,0.4,0.4c0,0.4,0.4,0.4,0.7,0.7
												c0,0.4,0,0.7,0,1.1s0.4,0.4,0.4,1.1C310.9,159.7,312.3,161.1,313,161.5z M274,147.1c-0.7-1.1-0.7,0.7-1.1,0.7
												c-0.4,0.4-0.7-0.4-1.1-0.4c-0.4,0-0.7,0-1.1,0c-0.7-0.4-1.1-0.7-1.4-1.1c-0.4-0.4-0.7,0-0.7-0.4c0-0.4,0.7-0.4,0-0.7V145
												c-0.4,0-1.4,0.7-1.4,0c-0.7,0-1.1,0-1.8,0c0.4-1.1,1.1-1.1,2.1-1.1c0.7,0,1.8-0.4,2.5-0.4c0.4,0,0.7-0.4,1.1-0.4
												c0.4,0,0.7,0.4,1.1,0.4s0.7,0,1.1,0c0,0,0.4-0.7,0.7-0.4h0.4c0,0,0.4,0,0.4,0.4h0.4v0.4c0,0,0,0-0.4,0.4
												c0.4,0,0.4,0,0.4,0c0,0.4-1.8,0.4-0.7,1.1c0.7,0.4,1.8,0,2.5,0v0.4c0.4,0,0.4,0,0.7,0.4l0,0
												C277.2,147.8,274.4,146,274,147.1z M281.4,147.8c-1.1-0.4-0.7-0.7-0.7-1.8c0-0.7-1.1-1.1-1.1-1.8c-0.4,0-1.1-0.4-1.1-0.7
												c-0.7,0-0.7-0.4-1.1-0.7c0-0.4,0.4-1.1,0-1.4c0.4-0.4,0.7-0.7,0.4-1.1c0.7,0,0.7-0.7,1.4-0.7v-0.4c0.4,0,0.7,0,1.1,0l0,0
												v0.4c0.4,1.1-1.4,1.4-1.4,2.1c0.4,1.1,1.8,1.1,2.8,1.1c0,0.4,0,0.7,0.4,1.1c-1.1,0.7,0.7,1.1,1.1,1.1v0.4
												c0.4,0,0.7-0.4,1.1,0c-0.4,1.1,1.1,0.7,0.4,1.8c0.4,0,0.7,0.4,1.1,0.4C285.3,149.2,282.8,148.5,281.4,147.8z"/>
											<path class="st20" d="M289.8,199.4c0.7,0.4,1.1,0,1.4-0.4c0,0,0.4-0.4,0.4-0.7c0,0,0.7,0,0.7-0.4c0-0.4,0-0.7,0-0.7
												c0.4-0.4,0.7,0,0.7-0.4c0.4-0.4,0.4-0.7,0.4-1.4c0-1.1,1.1-1.1,2.1-1.4c0.4-0.4,1.1-0.4,0.7-1.1c-0.4-0.4-0.7,0-1.4-0.4
												c0-0.7,0.4-0.7-0.7-1.1c0-0.4,0.4-0.7,0.7-1.1c0-0.4,0-0.4,0-0.7c0.7,0,0.7-1.1,0.7-1.8c0-0.4,0.4-0.7,0.4-1.1
												s0-0.7,0-1.1c0-0.7,0.7-3.2-0.7-3.5c0-0.4-0.4-0.4-0.4-0.4h-0.4c0.7,1.1,0.4,1.1,0,1.8c-0.4,0.4,0,1.4-0.4,1.8
												c-0.4,0.4-0.7,0.4-1.1,0.7c-0.4,0.4-0.4,0.7-0.7,1.1c0,0.4-0.4,0.7-0.4,1.1c-0.4,0.4-0.7,0.4-1.1,0.7
												c-0.7,0.7-0.4,1.1-0.4,1.8c0,0.4,0,1.1,0,1.8c0,0.4-0.4,0.7-0.4,1.1c0,0-0.4,0.7-0.4,0.4l0.4,0.4c0,0.7,0,1.4-0.4,1.8
												C290.2,198,290.2,198.7,289.8,199.4z"/>
											<path class="st20" d="M241,213.5c-0.4-0.4-0.4-0.7-0.7-1.1c-0.4-0.7-0.7-1.1-1.1-1.8c-0.4-0.7-1.4-1.1-1.4-1.8
												c-0.4-0.7-0.4-1.8-1.1-1.8c0-0.7-0.4-1.1-0.4-1.4c-0.4,0-0.7-0.4-1.1-0.7c-0.4-0.4-0.4-0.7-0.4-1.1l-0.4-0.4v-0.4
												c0-0.4,0-0.7,0.7-0.7c0.4-0.4,0.7,0.4,1.1-0.4c0-0.4,0-0.7-0.4-1.1c-0.4-0.7-0.4-1.4-1.4-1.4c-0.4-0.4-0.4-0.4-0.4-0.7
												c-0.4-0.7-0.4-1.1-0.7-1.8c0-0.4,0-0.7,0-1.1c-0.4-0.4-0.4-0.4-0.7-0.4c-0.7-0.7-0.4-0.7,0.4-1.1
												c0.4-0.4,0.4-0.4,0.4-0.7c0,0-0.4-0.4,0-0.4c0,0,0.4,0,0.4-0.4c0.4-0.7,0.7-1.1,0.7-1.8c0-0.7-0.4-1.1-0.4-1.8
												c0-0.7,0.4-1.1-0.4-1.4c-0.4-0.4-1.4-0.4-1.4-0.7c-0.7,0-1.4,0.7-1.4-0.4c-1.1-0.4-0.7,1.1-1.8,0.7
												c-0.4-0.4-0.7-1.8-1.4-1.8c0-0.7,0.7-2.1-0.4-1.8c0-0.4,0-0.7,0-1.1c-0.4,0-0.4,0-0.4-0.4c-0.4-1.1,0.4-2.5-0.7-3.2
												c-0.4-0.4-1.1,0-1.4-0.4c-0.4-0.4-0.4-1.4-0.4-1.8c0-0.7,0-1.1-0.4-1.8c-0.4-0.7,0-1.1-0.4-1.8c-0.4-1.1-0.4-2.1-0.7-3.2
												c-1.8,11.6,1.1,23.9,8.4,34.4c2.8,3.9,6,7,9.5,9.5c0.4,0,0.7,0,1.1,0C241.7,213.8,241.4,213.8,241,213.5z"/>
											<path class="st20" d="M297.2,211.7L297.2,211.7c0,0.4-0.4,0.4-0.4,0.7c-0.4,0.4-0.4,0.4-0.4,0.7c0,0.4,0,0.4-0.4,0.4
												l-0.4,0.4c-0.4,0-0.4,0.4-0.7,0.4c-0.4,0.4-0.4,0.4-0.7,0.7c-0.4,0-0.7,0.4-1.1,0.4c-0.7,0-0.7-1.1-1.4-0.7
												c0,0.4-0.4,0.4-0.7,0.4c-0.4-0.4-0.7-0.4-1.1,0c-0.4,0.7-0.7,1.1-1.4,1.4c-0.7,0-0.4,0-1.1,0c0,0-0.4,0-0.7,0
												s0,0.4-0.4,0.4c-0.4,0.4-0.7,0.4-1.1,0.4c-0.4,0.4-0.7,0.4-1.1,0.7c-0.4,0.4-1.1,0-1.4,0.4c-0.4,0-1.1,0.4-1.4,0.4
												c0,0-0.4-0.4-0.7-0.4v0.4c-0.4,0-0.4,0.4-0.7,0.4H280l-0.4,0.4c0.4,0,0.4,0.4,0,0.4l-0.4,0.4c-0.4,0.4-1.4,0.4-1.4-0.4
												c-0.4,0.4-0.7,0.4-0.7,0.7c-0.4,0-0.7-0.4-0.7-0.4c-0.7,0-0.7,0.4-1.1,0.4c-0.7,0.4-1.4-0.4-1.8,0c0-0.4-0.7-0.4-0.4,0
												c-0.4,0-0.4,0-0.7,0s-0.7-0.4-0.7,0c-0.7-0.7-2.1,0.7-2.8,1.1c0,0,0,0.4-0.4,0.4c0,0-0.4,0-0.4,0.4
												c-0.4,0-0.4,0.4-0.7,0.4l-0.4,0.4c9.8,0.4,20-2.8,28.5-8.8c0,0,0,0,0.4-0.4c0-0.4,0-0.4,0-0.7c0-0.4,0.7-0.7,0-0.7
												c0.4-0.4,0-0.4,0-0.7C297.2,212.1,297.6,212.1,297.2,211.7z"/>
											<path class="st20" d="M250.9,140.4c0,0,1.1-0.4,1.1-0.7c0.4-0.4,0-0.7,0.7-0.7c0.4-0.7,0.7-1.1,1.1-1.8
												c0.4,0,0.4,0,0.4-0.4l0.4-0.4c-0.4,0.4-1.8,0.7-2.1,1.1c-0.4,0-0.7,0-1.1,0c-0.7,0.4-0.4,0.4-0.7,0.7
												C250.9,139,249.4,140.4,250.9,140.4z"/>
										</g>
										<g>
											<g>
												<defs>
													<path id="SVGID_2_" d="M306.7,149.5c15.1,20.7,10.5,49.9-10.2,65c-20.7,15.1-49.9,10.5-65-10.2
														c-15.1-20.7-10.5-49.9,10.2-65S291.6,128.8,306.7,149.5z"/>
												</defs>
												<clipPath id="SVGID_3_">
													<use xlink:href="#SVGID_2_"  style="overflow:visible;"/>
												</clipPath>
												
													<radialGradient id="SVGID_4_" cx="14.7228" cy="203.0826" r="40.0046" gradientTransform="matrix(0.8077 -0.5896 -0.5896 -0.8077 278.4071 338.0256)" gradientUnits="userSpaceOnUse">
													<stop  offset="0" style="stop-color:#FFFFFF"/>
													<stop  offset="0.2683" style="stop-color:#FBFBFB;stop-opacity:0.7317"/>
													<stop  offset="0.5196" style="stop-color:#F0F0F0;stop-opacity:0.4804"/>
													<stop  offset="0.7632" style="stop-color:#DEDEDD;stop-opacity:0.2368"/>
													<stop  offset="1" style="stop-color:#C4C4C3;stop-opacity:0"/>
												</radialGradient>
												<path class="st40" d="M208.4,146.7c13,17.9,9.1,42.9-8.8,55.8c-17.9,13-42.9,9.1-55.8-8.8c-13-17.9-9.1-42.9,8.8-55.8
													C170.4,125,195.4,128.8,208.4,146.7z"/>
											</g>
											<g>
												<defs>
													<path id="SVGID_5_" d="M306.7,149.5c15.1,20.7,10.5,49.9-10.2,65c-20.7,15.1-49.9,10.5-65-10.2
														c-15.1-20.7-10.5-49.9,10.2-65S291.6,128.8,306.7,149.5z"/>
												</defs>
												<clipPath id="SVGID_6_">
													<use xlink:href="#SVGID_5_"  style="overflow:visible;"/>
												</clipPath>
												
													<radialGradient id="SVGID_7_" cx="16.9229" cy="197.9929" r="28.955" gradientTransform="matrix(0.8077 -0.5896 -0.5896 -0.8077 278.4071 338.0256)" gradientUnits="userSpaceOnUse">
													<stop  offset="0" style="stop-color:#FFFFFF"/>
													<stop  offset="0.9607" style="stop-color:#C6C6C5;stop-opacity:3.934383e-02"/>
													<stop  offset="1" style="stop-color:#C4C4C3;stop-opacity:0"/>
												</radialGradient>
												<path class="st41" d="M204.8,149.2c11.6,16.2,8.1,38.3-7.7,50.2c-16.2,11.6-38.3,8.1-50.2-7.7
													c-11.6-16.2-8.1-38.3,7.7-50.2C170.8,129.5,193.2,133,204.8,149.2z"/>
											</g>
										</g>
									</g>
								</g>
							</g>
							<path class="st42" d="M252.6,133.7c-7,3.5-12.3,9.5-14.8,16.5c-5.3,17.2,8.1,36.9,29.9,43.6c19.7,6.3,40,0,47.4-14
								c0.7-10.5-2.1-21.1-8.8-30.2C294.1,132.3,271.9,126.4,252.6,133.7z"/>
						</g>
					</g>
				</g>
			</g>
		</g>
	</g>
</g>
</svg>
