<?xml version="1.0" encoding="utf-8"?>
<!-- Generator: Adobe Illustrator 23.0.0, SVG Export Plug-In . SVG Version: 6.00 Build 0)  -->
<svg version="1.1" id="Layer_1" xmlns="http://www.w3.org/2000/svg" xmlns:xlink="http://www.w3.org/1999/xlink" x="0px" y="0px"
	 width="264.1px" height="268.3px" viewBox="0 0 264.1 268.3" style="enable-background:new 0 0 264.1 268.3;" xml:space="preserve"
	>
<style type="text/css">
	.st0{fill:#CED5E8;}
	.st1{fill:#373739;}
	.st2{fill:#585859;}
	.st3{fill:#1959A9;}
	.st4{fill:#FFFFFF;}
	.st5{opacity:0.8;}
	.st6{fill:#1B74BB;}
	.st7{fill:#00A86E;}
	.st8{fill:#F79B7B;}
	.st9{fill:#FCB316;}
	.st10{fill:#DD8027;}
	.st11{fill:#007F56;}
	.st12{fill:#F06A3F;}
	.st13{fill:#153132;}
	.st14{fill:#5A4C54;}
	.st15{fill:#F1625E;}
	.st16{fill:#C52D4C;}
</style>
<g>
	<g>
		<ellipse class="st0" cx="132" cy="260.5" rx="132" ry="7.8"/>
	</g>
	<g>
		<g>
			<g>
				<g>
					<g>
						<g>
							<path class="st1" d="M151.1,264.1c41.3-1.4,83.9-7.1,106-83.1c6.6-22.6,2.3-39.7-4.9-52.6c-1.8-3.2-3.7-6.1-5.8-8.8l0,0
								c-0.8-1-1.5-2-2.3-2.9c-16.1-19.8-43.2-26.9-67.1-18.1c-13.4,4.9-30.7,12.1-46.1,21.6c-30.9,18.9-38.1,40.5-48.2,77.5
								c-0.9,3.2-1.7,6.7-2.4,10.5c-0.4,2-0.6,4.1-0.8,6.2C77.3,238.1,86.5,266.4,151.1,264.1z"/>
						</g>
					</g>
				</g>
				<g>
					<g>
						<g>
							<g>
								<path class="st2" d="M79.6,214.4c1.4,3.8,3.3,7.8,5.9,11.5c7.8,11.2,24,24.7,57.1,25.6c1.5,0,2.9,0.1,4.3,0.1
									c12.6,0,23.8-1.5,34-4.6c10.7-3.3,20-8.2,28.4-15c14.2-11.4,25.9-28.2,37.9-54.2c4.7-10.3,7.2-20.7,7.3-31
									c0.1-6.1-0.7-12.2-2.3-18.2c-1.8-3.2-3.7-6.1-5.8-8.8c0.5,1.2,1,2.4,1.5,3.7c4.3,11.9,7.3,30.7-3.1,53.2
									c-21.1,45.8-45.5,73.8-102.2,72.3c-32-0.8-47.6-13.8-55.1-24.5c-3.9-5.6-6.1-11.2-7.2-16.3
									C80.1,210.2,79.8,212.3,79.6,214.4z"/>
							</g>
						</g>
					</g>
				</g>
			</g>
			<g>
				<g>
					<g>
						<g>
							<g>
								<g>
									<path class="st3" d="M138.6,74.1c0,0-25.9,35.1-31.8,52.6s8.4,29.9,8.4,29.9l13.3,5C128.5,161.7,142.2,99.9,138.6,74.1z"/>
								</g>
							</g>
						</g>
					</g>
					<g>
						<g>
							<g>
								<g>
									<g>
										<path class="st4" d="M140.9,172.5c11.3,3.8,39,13.6,51,9.6c0.5-0.2,1-0.4,1.4-0.6c1.3-0.6,2.4-1.5,3.1-2.6
											c4.7-7.2,9.4-37.3,7.3-54.9c-0.3-2.2-0.4-4.6-0.4-7.1c-0.1-3.7,0.1-7.7,0.2-11.7c0.6-15,3-25.4-3.5-29
											c-5.8-3.3-13.1-5.8-17.7-7c-2.9-0.7-7.6-2.1-10.9-2.1L157,69.8c0,0-12.4,2.1-15.2,4.2c-2.9,2.1-4.3,11.4-9.5,19.9
											c-5.2,8.5-6.3,17-1.4,26.3c4.3,8.1,3.5,5,4.1,18.3C135.8,154.7,118.8,165.2,140.9,172.5z"/>
									</g>
								</g>
							</g>
						</g>
					</g>
					<g class="st5">
						<g>
							<path class="st0" d="M178.9,96.2c0,0-15.5-4-35.3-0.3l-0.5,13.7c0,0,21.8-2.4,35.5,1.1L178.9,96.2z"/>
						</g>
					</g>
					<g>
						<g>
							<g>
								<g class="st5">
									<path class="st0" d="M161.1,84.6c0.2,0,0.4,0,0.6,0c8.5-0.4,16.3-7.9,16.6-8.2c0.2-0.2,0.2-0.6,0-0.8
										c-0.2-0.2-0.6-0.2-0.8,0c-0.1,0.1-7.8,7.5-15.8,7.9c-7.7,0.4-8.6-7.2-8.7-7.6c0-0.3-0.3-0.5-0.6-0.5
										c-0.3,0-0.5,0.3-0.5,0.6C151.8,76.1,152.8,84.6,161.1,84.6z"/>
								</g>
							</g>
						</g>
					</g>
					<g>
						<g>
							<g>
								<g>
									<g class="st5">
										<path class="st0" d="M185.1,153.1c0.1,0,0.1-0.1,0.2-0.2c0.2-0.3,0.1-0.7-0.2-0.8c-11-6.7-21.6-9-28.5-9.8
											c-7.5-0.9-12.4-0.2-12.6-0.1c-0.3,0-0.6,0.4-0.5,0.7c0,0.3,0.4,0.6,0.7,0.5c0,0,4.9-0.7,12.3,0.1c6.8,0.8,17.2,3.1,28,9.7
											C184.6,153.3,184.9,153.3,185.1,153.1z"/>
									</g>
								</g>
							</g>
						</g>
					</g>
					<g>
						<g>
							<g>
								<path class="st6" d="M170.7,178c10.2-3.2,19.4-9.7,25.7-15.5c0.5-0.5,1-0.9,1.4-1.4c3.3-3.2,5.6-1.5,6.6-3.4
									c3.8-7,1.6-34.3,0-44.4c-1.6-10,5.3-28.4,1.6-35c-3.7-6.6-16.6-8.9-16.6-8.9s1.8-2.1-1.6-4.5c-3.5-2.4-12.6-1.4-12.6-1.4
									C174.7,107,168.5,147.4,170.7,178z"/>
							</g>
						</g>
					</g>
					<g>
						<g>
							<g>
								<path class="st4" d="M180.7,165.5c0.3,0,0.5-0.2,0.6-0.5c4.6-30.2,0.1-86.9,0-87.4c0-0.3-0.3-0.5-0.6-0.5
									c-0.3,0-0.5,0.3-0.5,0.6c0,0.6,4.6,57.2,0,87.2C180.1,165.2,180.3,165.5,180.7,165.5C180.6,165.5,180.7,165.5,180.7,165.5z"
									/>
							</g>
						</g>
					</g>
					<g>
						<g>
							<g>
								<g>
									<path class="st3" d="M171.4,170.1c0.3,0,0.5-0.2,0.6-0.5c6.1-34.6,6.5-94.4,6.6-95c0-0.3-0.3-0.6-0.6-0.6c0,0,0,0,0,0
										c-0.3,0-0.6,0.3-0.6,0.6c0,0.6-0.5,60.3-6.5,94.8C170.8,169.7,171,170,171.4,170.1C171.3,170.1,171.3,170.1,171.4,170.1z"
										/>
								</g>
							</g>
						</g>
					</g>
					<g>
						<g>
							<g>
								<g>
									<path class="st3" d="M181.4,74.2c0,0,0.1,0,0.1,0c4.8-1.3,7.7-4.1,7.9-4.2c0.2-0.2,0.2-0.6,0-0.8c-0.2-0.2-0.6-0.2-0.8,0
										l0,0c0,0-2.9,2.8-7.4,3.9c-0.3,0.1-0.5,0.4-0.4,0.7C181,74.1,181.2,74.2,181.4,74.2z"/>
								</g>
							</g>
						</g>
					</g>
					<g>
						<g>
							<g>
								<path class="st6" d="M126.5,159c0,0,3.6,12.2,17.2,18.1c1.7-33.2,5.5-71,10.4-111.3c0,0-5.2-0.9-7.3,2
									c-0.9,1.3-1.1,3.4-1.1,3.4s-2.6,0.5-5.5,1.9c-2.9,1.3-2.6,3.2-3.3,7.9c-0.7,4.7-7.9,12-10.3,21.8
									c-2.4,9.8,3.9,16.1,5.9,24.4C134.3,135.5,126.5,159,126.5,159z"/>
							</g>
						</g>
					</g>
					<g>
						<g>
							<g>
								<path class="st4" d="M138.1,164.1c0.3,0,0.6-0.2,0.6-0.6c1.3-45.1,9.5-85.4,9.6-85.8c0.1-0.3-0.1-0.6-0.4-0.7
									c-0.3-0.1-0.6,0.1-0.7,0.4c-0.1,0.4-8.3,40.8-9.7,86C137.6,163.9,137.8,164.1,138.1,164.1
									C138.1,164.1,138.1,164.1,138.1,164.1z"/>
							</g>
						</g>
					</g>
					<g>
						<g>
							<g>
								<g>
									<path class="st3" d="M150.6,75.5c0.3,0,0.5-0.2,0.6-0.5c0.1-0.3-0.2-0.6-0.5-0.7c0,0-3.7-0.7-4.5-3.3
										c-0.1-0.3-0.4-0.5-0.7-0.4c-0.3,0.1-0.5,0.4-0.4,0.7C146.1,74.7,150.3,75.5,150.6,75.5C150.5,75.5,150.5,75.5,150.6,75.5z"
										/>
								</g>
							</g>
						</g>
					</g>
					<g>
						<g>
							<g>
								<g>
									<path class="st3" d="M139.5,164.1c0.3,0,0.5-0.2,0.6-0.5c4-33.3,10.3-86.4,10.4-86.9c0-0.3-0.2-0.6-0.5-0.6
										c-0.3,0-0.6,0.2-0.6,0.5c-0.1,0.5-6.4,53.7-10.4,86.9C138.9,163.8,139.1,164.1,139.5,164.1
										C139.4,164.1,139.4,164.1,139.5,164.1z"/>
								</g>
							</g>
						</g>
					</g>
				</g>
				<g>
					<g>
						<g>
							<g>
								<g>
									<g>
										<path class="st7" d="M173,188c-1.7,1.2-4.5,2.5-8.5,3.8c-23.2,7.4-44.5-4.5-44.5-4.5c-1.3-6.4-0.5-13.6,1.6-16.2
											c-0.7-0.9-0.2-2.1-0.2-2.1l-21.3-22.2c12.1,10.1,27.2,13.4,38.8,20.4c0,0,0,0,0,0c3.4,2,6.4,3.8,8.6,5.1
											c3.4,1.9,7.7,2.1,11.9,1.5c8.3-1.1,16.2-5.2,16.2-5.2s26.6-12.1,31.6-11.6C211.2,157.3,190.3,179.1,173,188z"/>
									</g>
								</g>
							</g>
						</g>
					</g>
				</g>
				<g>
					<g>
						<g>
							<g>
								<g>
									<path class="st8" d="M132,206.6c0,0,6.8-2,8.9-4.2l4.8,11.2l-16.2,5.1C129.5,218.7,129.2,208.8,132,206.6z"/>
								</g>
							</g>
						</g>
						<g>
							<g>
								<g>
									<g>
										<g>
											<path class="st9" d="M92.9,239l20.9-46.4c0.8-0.1,1.8,0.2,2.9,0.6c4.1,1.5,9.8,5.6,13.4,8c0.4,0.3,0.8,0.5,1.2,0.8
												c0.6,0.4,1.1,0.7,1.6,0.9c3.2,1.5,1.5,3.2,1.5,3.2c-6,3-2.4,11.9-6,14c0,0-1.6,0.9-6.5,3.1c-5,2.2-10,7.5-14.6,11.8
												c-6,5.6-9.7,6.3-11.9,5.7C93.6,240.1,92.9,239,92.9,239z"/>
										</g>
									</g>
								</g>
							</g>
							<g>
								<g>
									<g>
										<g>
											<g>
												<g>
													<path class="st10" d="M92.9,239l20.9-46.4c0.8-0.1,1.8,0.2,2.9,0.6l-21.4,47.4C93.6,240.1,92.9,239,92.9,239z"/>
												</g>
											</g>
										</g>
									</g>
								</g>
							</g>
							<g>
								<g>
									<g>
										<g>
											<g>
												<g>
													<g>
														<g>
															<g>
																<g>
																	<g>
																		<g>
																			<path class="st10" d="M111.7,197.2l0.6-1.4c1,2.1,2.8,4.5,6.3,5.8c4.7,1.8,9,0.5,11.5-0.7
																				c0.4,0.3,0.8,0.5,1.2,0.8c-2.5,1.4-7.5,3.3-13.1,1.1C114.8,201.5,112.8,199.3,111.7,197.2z"/>
																		</g>
																	</g>
																</g>
															</g>
														</g>
													</g>
												</g>
											</g>
										</g>
									</g>
								</g>
							</g>
							<g>
								<g>
									<g>
										<g>
											<g>
												<g>
													<g>
														<g>
															<g>
																<g>
																	<g>
																		<path class="st4" d="M119.4,220.9c0.2-0.3,0.5-0.6,0.9-0.5c0.5,0.1,0.8,0.5,0.7,1l-0.6,3.2
																			c-0.1,0.5-0.5,0.8-1,0.7c-0.5-0.1-0.8-0.5-0.7-1l0.6-3.2C119.4,221,119.4,221,119.4,220.9z"/>
																	</g>
																</g>
															</g>
														</g>
													</g>
												</g>
											</g>
										</g>
									</g>
								</g>
							</g>
							<g>
								<g>
									<g>
										<g>
											<g>
												<g>
													<g>
														<g>
															<g>
																<g>
																	<g>
																		<path class="st4" d="M123.2,219.1c0.2-0.3,0.5-0.6,0.9-0.5c0.5,0.1,0.8,0.5,0.7,1l-0.6,3.2
																			c-0.1,0.5-0.5,0.8-1,0.7c-0.5-0.1-0.8-0.5-0.7-1l0.6-3.2C123.1,219.3,123.1,219.2,123.2,219.1z"/>
																	</g>
																</g>
															</g>
														</g>
													</g>
												</g>
											</g>
										</g>
									</g>
								</g>
							</g>
							<g>
								<g>
									<g>
										<g>
											<g>
												<g>
													<g>
														<g>
															<g>
																<g>
																	<g>
																		<path class="st4" d="M116.4,223.1c0.2-0.3,0.5-0.6,0.9-0.5c0.5,0.1,0.8,0.5,0.7,1l-0.6,3.2
																			c-0.1,0.5-0.5,0.8-1,0.7c-0.5-0.1-0.8-0.5-0.7-1l0.6-3.2C116.4,223.2,116.4,223.1,116.4,223.1z"/>
																	</g>
																</g>
															</g>
														</g>
													</g>
												</g>
											</g>
										</g>
									</g>
								</g>
							</g>
							<g>
								<g>
									<g>
										<g>
											<g>
												<g>
													<g>
														<g>
															<g>
																<g>
																	<g>
																		<path class="st4" d="M113.5,225.2c0.2-0.3,0.5-0.6,0.9-0.5c0.5,0.1,0.8,0.5,0.7,1l-0.6,3.2
																			c-0.1,0.5-0.5,0.8-1,0.7c-0.5-0.1-0.8-0.5-0.7-1l0.6-3.2C113.5,225.4,113.5,225.3,113.5,225.2z"/>
																	</g>
																</g>
															</g>
														</g>
													</g>
												</g>
											</g>
										</g>
									</g>
								</g>
							</g>
							<g>
								<g>
									<g>
										<g>
											<g>
												<g>
													<g>
														<g>
															<g>
																<g>
																	<g>
																		<path class="st4" d="M110.6,227.7c0.2-0.3,0.5-0.6,0.9-0.5c0.5,0.1,0.8,0.5,0.7,1l-0.6,3.2
																			c-0.1,0.5-0.5,0.8-1,0.7c-0.5-0.1-0.8-0.5-0.7-1l0.6-3.2C110.5,227.9,110.6,227.8,110.6,227.7z"/>
																	</g>
																</g>
															</g>
														</g>
													</g>
												</g>
											</g>
										</g>
									</g>
								</g>
							</g>
							<g>
								<g>
									<g>
										<g>
											<g>
												<g>
													<g>
														<g>
															<g>
																<g>
																	<g>
																		<path class="st4" d="M107.8,230.6c0.2-0.3,0.5-0.6,0.9-0.5c0.5,0.1,0.8,0.5,0.7,1l-0.6,3.2
																			c-0.1,0.5-0.5,0.8-1,0.7c-0.5-0.1-0.8-0.5-0.7-1l0.6-3.2C107.7,230.7,107.7,230.6,107.8,230.6z"/>
																	</g>
																</g>
															</g>
														</g>
													</g>
												</g>
											</g>
										</g>
									</g>
								</g>
							</g>
						</g>
					</g>
					<g>
						<g>
							<g>
								<path class="st7" d="M207.3,157c0,0,16.8-9.1,26.6-2.1c17.8,12.8-12.4,37.5-47,49.6C152.2,216.6,141,215,141,215
									s-7.5-2.1-4.8-14.3c0,0,19.9-7.6,30.3-15.5C176.9,177.2,183.9,167.5,207.3,157z"/>
							</g>
						</g>
					</g>
					<g>
						<g>
							<g>
								<g>
									<g>
										<path class="st11" d="M137.5,204.3c7.3-1.7,22-8.5,39.6-18.1c13.1-7.2,28.2-16.4,30.4-19.6c1.2-1.7,1.5-3.1,0.9-4.2
											c-0.9-1.6-3.5-1.7-4.7-1.7c-0.3,0-0.5,0.3-0.5,0.6l0,0c0,0.3,0.2,0.5,0.5,0.5c1.2,0,3.2,0.2,3.8,1.2
											c0.5,0.8-0.2,2.1-0.8,3.1c-1.8,2.6-14.4,10.7-30.1,19.2c-13.5,7.4-30.8,16-39.3,18L137.5,204.3z"/>
									</g>
								</g>
							</g>
						</g>
					</g>
					<g>
						<g>
							<g>
								<g>
									<g>
										<path class="st11" d="M138.9,199.1c0.8,6.4,2.5,12.2,6.1,16.7c0,0-3.1,2.2-5.9,0.6c-2.2-1.2-6.3-11.2-4.7-16.6
											C136.1,198.9,137.7,198.5,138.9,199.1z"/>
									</g>
								</g>
							</g>
						</g>
					</g>
				</g>
				<g>
					<g>
						<g>
							<g>
								<path class="st8" d="M182.8,205.3c0,0-6.9-1.3-8.8-3.7l-5.5,10.9l15.8,6.1C184.3,218.6,185.3,207.7,182.8,205.3z"/>
							</g>
						</g>
						<g>
							<g>
								<g>
									<g>
										<path class="st9" d="M219.4,241.3l-17.8-47.7c-0.8-0.1-1.8,0-2.9,0.4c-4.1,1.2-10.1,4.9-13.9,7c-0.4,0.3-0.9,0.5-1.2,0.7
											c-0.6,0.3-1.2,0.6-1.6,0.8c-3.3,1.2-1.9,2.2-1.9,2.2c6.5,3.1,1.7,13,5.3,15.3c0,0,1.5,1,6.3,3.5
											c4.8,2.5,9.5,8.1,13.8,12.8c5.6,6,9.3,6.9,11.5,6.5C218.6,242.4,219.4,241.3,219.4,241.3z"/>
									</g>
								</g>
							</g>
							<g>
								<g>
									<g>
										<g>
											<g>
												<path class="st10" d="M219.4,241.3l-17.8-47.7c-0.8-0.1-1.8,0-2.9,0.4l18.2,48.8C218.6,242.4,219.4,241.3,219.4,241.3z"
													/>
											</g>
										</g>
									</g>
								</g>
							</g>
							<g>
								<g>
									<g>
										<g>
											<g>
												<g>
													<g>
														<g>
															<g>
																<g>
																	<g>
																		<path class="st10" d="M203.5,198.4l-0.5-1.4c-1.1,2-3.1,4.3-6.7,5.4c-4.8,1.5-9-0.1-11.4-1.5
																			c-0.4,0.3-0.9,0.5-1.2,0.7c2.4,1.5,7.3,3.8,13,1.9C200.1,202.5,202.2,200.4,203.5,198.4z"/>
																	</g>
																</g>
															</g>
														</g>
													</g>
												</g>
											</g>
										</g>
									</g>
								</g>
							</g>
							<g>
								<g>
									<g>
										<g>
											<g>
												<g>
													<g>
														<g>
															<g>
																<g>
																	<path class="st4" d="M194.1,221.6c-0.1-0.4-0.5-0.6-0.9-0.5c-0.5,0.1-0.8,0.5-0.7,0.9l0.4,3.3
																		c0.1,0.5,0.5,0.8,0.9,0.7c0.5-0.1,0.8-0.5,0.7-0.9l-0.4-3.3C194.2,221.7,194.1,221.6,194.1,221.6z"/>
																</g>
															</g>
														</g>
													</g>
												</g>
											</g>
										</g>
									</g>
								</g>
							</g>
							<g>
								<g>
									<g>
										<g>
											<g>
												<g>
													<g>
														<g>
															<g>
																<g>
																	<path class="st4" d="M190.5,219.5c-0.1-0.4-0.5-0.6-0.9-0.5c-0.5,0.1-0.8,0.5-0.7,0.9l0.4,3.3
																		c0.1,0.5,0.5,0.8,0.9,0.7c0.5-0.1,0.8-0.5,0.7-0.9l-0.4-3.3C190.6,219.6,190.6,219.6,190.5,219.5z"/>
																</g>
															</g>
														</g>
													</g>
												</g>
											</g>
										</g>
									</g>
								</g>
							</g>
							<g>
								<g>
									<g>
										<g>
											<g>
												<g>
													<g>
														<g>
															<g>
																<g>
																	<path class="st4" d="M197,223.9c-0.1-0.4-0.5-0.6-0.9-0.5c-0.5,0.1-0.8,0.5-0.7,0.9l0.4,3.3
																		c0.1,0.5,0.5,0.8,0.9,0.7c0.5-0.1,0.8-0.5,0.7-0.9l-0.4-3.3C197,224,197,224,197,223.9z"/>
																</g>
															</g>
														</g>
													</g>
												</g>
											</g>
										</g>
									</g>
								</g>
							</g>
							<g>
								<g>
									<g>
										<g>
											<g>
												<g>
													<g>
														<g>
															<g>
																<g>
																	<path class="st4" d="M199.7,226.3c-0.1-0.4-0.5-0.6-0.9-0.5c-0.5,0.1-0.8,0.5-0.7,0.9l0.4,3.3
																		c0.1,0.5,0.5,0.8,0.9,0.7c0.5-0.1,0.8-0.5,0.7-0.9l-0.4-3.3C199.8,226.4,199.8,226.3,199.7,226.3z"/>
																</g>
															</g>
														</g>
													</g>
												</g>
											</g>
										</g>
									</g>
								</g>
							</g>
							<g>
								<g>
									<g>
										<g>
											<g>
												<g>
													<g>
														<g>
															<g>
																<g>
																	<path class="st4" d="M202.5,228.9c-0.1-0.4-0.5-0.6-0.9-0.5c-0.5,0.1-0.8,0.5-0.7,0.9l0.4,3.3
																		c0.1,0.5,0.5,0.8,0.9,0.7c0.5-0.1,0.8-0.5,0.7-0.9l-0.4-3.3C202.5,229.1,202.5,229,202.5,228.9z"/>
																</g>
															</g>
														</g>
													</g>
												</g>
											</g>
										</g>
									</g>
								</g>
							</g>
							<g>
								<g>
									<g>
										<g>
											<g>
												<g>
													<g>
														<g>
															<g>
																<g>
																	<path class="st4" d="M205.1,232c-0.1-0.4-0.5-0.6-0.9-0.5c-0.5,0.1-0.8,0.5-0.7,0.9l0.4,3.3
																		c0.1,0.5,0.5,0.8,0.9,0.7c0.5-0.1,0.8-0.5,0.7-0.9l-0.4-3.3C205.2,232.1,205.1,232,205.1,232z"/>
																</g>
															</g>
														</g>
													</g>
												</g>
											</g>
										</g>
									</g>
								</g>
							</g>
						</g>
					</g>
					<g>
						<g>
							<g>
								<g>
									<g>
										<path class="st7" d="M107,149.6c0,0-15.9-10.6-26.3-4.5c-18.9,11.1,8.9,38.5,42.3,53.7c33.3,15.2,44.7,14.6,44.7,14.6
											s7.7-1.4,6.1-13.7c0,0-19.2-9.4-28.8-18.2C135.4,172.6,129.3,162.2,107,149.6z"/>
									</g>
								</g>
							</g>
						</g>
					</g>
					<g>
						<g>
							<g>
								<path class="st11" d="M136.1,204.6c1.8,0.6,3.7,1.2,5.6,1.8c7.5,2.3,16,4.8,23.7,6.7l0,1.1c-7-1.7-15.1-4-24-6.8
									c-1.7-0.5-3.5-1.1-5.3-1.7L136.1,204.6z"/>
							</g>
						</g>
					</g>
					<g>
						<g>
							<g>
								<path class="st11" d="M172.1,203.1c-7.1-2.4-21.2-10.5-37.7-21.7c-12.4-8.4-26.6-18.9-28.5-22.3c-1-1.8-1.2-3.3-0.5-4.3
									c1-1.5,3.6-1.4,4.8-1.3c0.3,0,0.5,0.3,0.5,0.6l0,0c0,0.3-0.3,0.5-0.6,0.4c-1.2-0.1-3.2-0.1-3.9,0.9c-0.6,0.8,0,2.1,0.6,3.1
									c1.5,2.7,13.4,11.9,28.2,21.9c12.7,8.6,29.3,18.8,37.5,21.6L172.1,203.1z"/>
							</g>
						</g>
					</g>
					<g>
						<g>
							<g>
								<g>
									<path class="st11" d="M171.2,197.8c-1.4,6.3-3.6,11.9-7.6,16.1c0,0,2.9,2.5,5.8,1.2c2.3-1,7.3-10.6,6.2-16.1
										C174,197.8,172.5,197.3,171.2,197.8z"/>
								</g>
							</g>
						</g>
					</g>
				</g>
				<g>
					<g>
						<g>
							<g>
								<g>
									<path class="st6" d="M173.4,147.3l1.3,18.3c0,0,21.7-3.1,32.4-5.8c3.1-0.8,6.6-1.8,9.8-3.5c5.9-3.1,10.8-8.6,10.4-19.2
										c-0.1-3.4-0.8-7.4-2.1-11.9c-7.8-26.5-20.8-48.8-20.8-48.8C187.6,83.5,189,95.4,189,95.4c4.8,12.7,15.3,39.8,15.3,39.8
										C198.2,142.7,173.4,147.3,173.4,147.3z"/>
								</g>
							</g>
						</g>
					</g>
					<g>
						<g>
							<g>
								<path class="st3" d="M204.4,135.8c0.1,0,0.2,0,0.3-0.1c1.8-1.1,6.9-2.3,6.9-2.3c0.3-0.1,0.5-0.4,0.4-0.7
									c-0.1-0.3-0.4-0.5-0.7-0.4c-0.2,0-3.7,0.9-6,1.9c0.3-0.8,0.9-1.6,1.7-2.5c0.2-0.2,0.2-0.6-0.1-0.8c-0.2-0.2-0.6-0.2-0.8,0.1
									c-1.3,1.5-2.1,2.9-2.3,4.2c0,0.2,0.1,0.4,0.2,0.6C204.2,135.8,204.3,135.8,204.4,135.8z"/>
							</g>
						</g>
					</g>
					<g>
						<g>
							<g>
								<g>
									<path class="st3" d="M216.8,156.2c5.9-3.1,10.8-8.6,10.4-19.2C222.6,139.5,214.4,145.4,216.8,156.2z"/>
								</g>
							</g>
						</g>
					</g>
					<g>
						<g>
							<g>
								<g>
									<path class="st3" d="M187,144.5c0,0,0.1,0,0.1,0c10.8-2.8,17.3-8.6,17.6-8.8c0.2-0.2,0.2-0.5,0.1-0.7
										c-7.7-15.1-12.5-27.1-15.3-37.7c-0.1-0.3-0.4-0.5-0.7-0.4c-0.3,0.1-0.5,0.4-0.4,0.7c2.7,10.6,7.6,22.6,15.2,37.5
										c-1.5,1.2-7.6,5.9-16.8,8.3c-0.3,0.1-0.5,0.4-0.4,0.7C186.6,144.3,186.8,144.5,187,144.5z"/>
								</g>
							</g>
						</g>
					</g>
					<g>
						<g>
							<g>
								<g>
									<path class="st3" d="M191.3,105.7c0.1,0,0.2,0,0.4-0.1c0.2-0.2,0.3-0.6,0.1-0.8l-4-5c-0.2-0.2-0.6-0.3-0.8-0.1
										c-0.2,0.2-0.3,0.6-0.1,0.8l4,5C191,105.6,191.2,105.7,191.3,105.7z"/>
								</g>
							</g>
						</g>
					</g>
				</g>
				<g>
					<g>
						<g>
							<g>
								<g>
									<g>
										<g>
											<path class="st1" d="M172.7,59.7l-19.3,2.8c-12.5-1.3-16.5-6.2-18.6-16.8c-1-5.3-0.3-10,0.7-13.5c0.3-4,1.2-7.4,3-9.6
												c8.5-10.2,15.9-9.8,15.9-9.8c3.8-1.7,16.3-2.9,24.6,7.1c0,0,0,0,0,0c0.3,0.2,5.3,5.6,6.5,16.8
												C186.6,47.3,179.5,60.9,172.7,59.7z"/>
										</g>
									</g>
								</g>
							</g>
						</g>
					</g>
				</g>
				<g>
					<g>
						<g>
							<g>
								<path class="st1" d="M162,15.5c0,0-2-17.8,13.8-15.5c10.3,1.5,16.7,15.5,7.3,21.8C173.6,28.2,162,15.5,162,15.5z"/>
							</g>
						</g>
					</g>
				</g>
				<g>
					<path class="st9" d="M181.4,23.6c0.1,0,0.2,0,0.2-0.1c0.2-0.1,0.3-0.4,0.2-0.7c-3.7-6.7-8.9-9.6-12.6-10.9
						c-4-1.4-7.2-1.2-7.3-1.2c-0.3,0-0.5,0.3-0.5,0.5c0,0.3,0.2,0.5,0.5,0.5c0.1,0,12.3-0.6,19,11.6
						C181.1,23.5,181.3,23.6,181.4,23.6z"/>
				</g>
				<g>
					<g>
						<g>
							<g>
								<g>
									<g>
										<g>
											<g>
												<g>
													<path class="st1" d="M171.2,55.6c0,0,12.3-6.9,9.9-21.2c-2.4-14.3-11.9-23-26.3-18.8C154.8,15.6,156.2,57.1,171.2,55.6
														z"/>
												</g>
											</g>
										</g>
									</g>
								</g>
							</g>
						</g>
					</g>
					<g>
						<g>
							<g>
								<g>
									<g>
										<g>
											<g>
												<g>
													<path class="st1" d="M137,29.3c0,0-1.3,12.3,1,14.1c2.2,1.8,4.4-3.1,4.4-3.1S139.4,29.4,137,29.3z"/>
												</g>
											</g>
										</g>
									</g>
								</g>
							</g>
						</g>
					</g>
					<g>
						<g>
							<g>
								<g>
									<g>
										<g>
											<g>
												<g>
													<g>
														<g>
															<g>
																<path class="st12" d="M142.7,44.5c0,0-3.7-3.2-4.9,0.7c-1.2,4,1.3,11.2,5.8,9.3L142.7,44.5z"/>
															</g>
														</g>
													</g>
												</g>
											</g>
										</g>
									</g>
								</g>
							</g>
						</g>
						<g>
							<g>
								<g>
									<g>
										<path class="st7" d="M138.1,53.6c0.5,0.5,1.1,0.9,1.7,1.2c2.3,1.2,5.3,1.4,8.9-0.5c0,0,4.6-6-2.2-16.6
											c0,0-6.3-1.7-9.9,2.1c-0.4,0.4-0.8,0.9-1.1,1.5c-0.2,0.3-0.4,0.7-0.5,1.1C133.8,45.6,135,50.7,138.1,53.6z"/>
									</g>
								</g>
							</g>
							<g>
								<g>
									<g>
										<g>
											<g>
												<g>
													<g>
														<g>
															<g>
																<g>
																	<g>
																		<path class="st4" d="M138.3,38.5c-0.3-1.4-0.6-3.2-0.8-5.1c0.1,0,0.2,0.1,0.3,0.1c0.4,0,0.8-0.1,1.2-0.4
																			c0.2,1.8,0.4,3.5,0.7,4.8L138.3,38.5z"/>
																	</g>
																</g>
															</g>
														</g>
													</g>
												</g>
											</g>
										</g>
									</g>
								</g>
							</g>
							<g>
								<g>
									<g>
										<g>
											<g>
												<g>
													<g>
														<g>
															<g>
																<g>
																	<g>
																		<g>
																			<path class="st11" d="M138.1,53.6c0.5,0.5,1.1,0.9,1.7,1.2c-3.2-6.6-3.3-12.6-3.1-15c-0.4,0.4-0.8,0.9-1.1,1.5
																				C135.6,44,136,48.5,138.1,53.6z"/>
																		</g>
																	</g>
																</g>
															</g>
														</g>
													</g>
												</g>
											</g>
										</g>
									</g>
								</g>
							</g>
						</g>
						<g>
							<g>
								<g>
									<g>
										<g>
											<g>
												<g>
													<g>
														<g>
															<g>
																<g>
																	<path class="st8" d="M153.4,62.3l1.5,10.2c0,0,6.2,8,20.7-5c-1.6-4.1-4.2-9.5-3.5-13.6c0,0-1.1,1-2.9,2.1
																		c-0.4,0.2-0.8,0.5-1.2,0.7C164.2,59,158.5,61.9,153.4,62.3z"/>
																</g>
															</g>
														</g>
													</g>
												</g>
											</g>
										</g>
									</g>
								</g>
							</g>
							<g>
								<g>
									<g>
										<g>
											<g>
												<g>
													<g>
														<g>
															<g>
																<g>
																	<path class="st1" d="M153.4,62.3l0.7,4.8c4.2-1.6,11.5-5.1,15.1-11.1c-0.4,0.2-0.8,0.5-1.2,0.7
																		C164.2,59,158.5,61.9,153.4,62.3z"/>
																</g>
															</g>
														</g>
													</g>
												</g>
											</g>
										</g>
									</g>
								</g>
							</g>
						</g>
						<g>
							<g>
								<g>
									<g>
										<g>
											<g>
												<g>
													<g>
														<g>
															<g>
																<path class="st8" d="M139.5,44.9c0.2,1.1,0.3,2,0.5,3c1.2,7,2.2,10.8,4.2,12.3c9.9,7.6,27.3-5.8,27.8-6.2
																	c0,0,0,0,0,0c0.1-0.8,0.1-1.6,0.1-2.4c0.2-6.8-0.6-12.9-2.1-18.6c-0.6-6.2-5.1-11.3-11.2-12.6
																	c-6.3-1.3-11.3,2.1-14.3,3.6c-4.6,2.2-6.8,8.9-5.4,17.9C139.2,43,139.4,44,139.5,44.9z"/>
															</g>
														</g>
													</g>
												</g>
											</g>
										</g>
									</g>
								</g>
							</g>
						</g>
						<g>
							<g>
								<g>
									<path class="st1" d="M148.4,53.1c5.5,0,7.7-5.3,7.7-5.3c0.1-0.3,0-0.5-0.3-0.7c-0.3-0.1-0.5,0-0.7,0.3l0,0
										c-0.1,0.2-2.4,5.7-8.4,4.6c-0.3-0.1-0.5,0.1-0.6,0.4c-0.1,0.3,0.1,0.5,0.4,0.6C147.2,53.1,147.8,53.1,148.4,53.1z"/>
								</g>
							</g>
						</g>
						<g>
							<g>
								<path class="st1" d="M152.6,34.1c-1.4-0.5-1.1-2.6,0.4-2.7c2.6-0.2,6.6-0.1,7,2C160.5,36.4,155.7,35.1,152.6,34.1
									C152.7,34.1,152.6,34.1,152.6,34.1z"/>
							</g>
						</g>
						<g>
							<g>
								<path class="st1" d="M145.1,35c1.1-1,0-2.8-1.4-2.3c-2.4,0.9-6.1,2.6-5.6,4.6C138.8,40.2,142.7,37.1,145.1,35
									C145,35,145.1,35,145.1,35z"/>
							</g>
						</g>
						<g>
							<g>
								<g>
									<g>
										<g>
											<path class="st12" d="M152.4,55.6c-1,0.3-1.9,0.1-1.9,0c-0.2,0-0.3-0.2-0.2-0.4c0-0.2,0.2-0.3,0.4-0.2l0,0
												c0,0,1.7,0.4,2.9-0.7c0.1-0.1,0.3-0.1,0.5,0c0.1,0.1,0.1,0.3,0,0.5C153.5,55.2,152.9,55.5,152.4,55.6z"/>
										</g>
									</g>
								</g>
							</g>
						</g>
						<g>
							<g>
								<g>
									<g>
										<g>
											<path class="st1" d="M149,48.7c0.1,0,0.2-0.1,0.2-0.2c0.1-0.2,0-0.4-0.2-0.5l-2.4-0.8l1.4-1.4c0.1-0.1,0.1-0.2,0.1-0.3
												l-0.4-4c0-0.2-0.2-0.3-0.4-0.3c-0.2,0-0.3,0.2-0.3,0.4l0.4,3.8l-1.7,1.7c-0.1,0.1-0.1,0.2-0.1,0.3c0,0.1,0.1,0.2,0.2,0.3
												l3,1C148.8,48.8,148.9,48.8,149,48.7z"/>
										</g>
									</g>
								</g>
							</g>
						</g>
						<g>
							<g>
								<g>
									<g>
										<g>
											<g>
												<g>
													<g>
														<g>
															<g>
																<g>
																	<path class="st12" d="M155.2,44.9c0.1,0.8,1.9,1.2,4,0.9c2.1-0.3,3.7-1.2,3.6-2.1c-0.1-0.8-1.9-1.2-4-0.9
																		C156.7,43.2,155.1,44.1,155.2,44.9z"/>
																</g>
															</g>
														</g>
													</g>
												</g>
											</g>
										</g>
									</g>
								</g>
							</g>
						</g>
						<g class="st5">
							<g>
								<g>
									<g>
										<g>
											<g>
												<g>
													<g>
														<g>
															<g>
																<g>
																	<path class="st12" d="M139.5,45.9c0.2,1.1,0.3,2,0.5,3c1.9-0.4,3.3-1.2,3.2-2C143.1,46.1,141.5,45.7,139.5,45.9z"
																		/>
																</g>
															</g>
														</g>
													</g>
												</g>
											</g>
										</g>
									</g>
								</g>
							</g>
						</g>
						<g>
							<g>
								<g>
									<g>
										<g>
											<g>
												<g>
													<g>
														<g>
															<g>
																<g>
																	<path class="st1" d="M153.2,42c0.2,1.1,0.8,2,1.5,1.9c0.6-0.1,1-1.1,0.8-2.2c-0.2-1.1-0.8-2-1.5-1.9
																		C153.4,39.8,153,40.8,153.2,42z"/>
																</g>
															</g>
														</g>
													</g>
												</g>
											</g>
										</g>
									</g>
								</g>
							</g>
							<g>
								<g>
									<g>
										<g>
											<g>
												<g>
													<g>
														<g>
															<g>
																<g>
																	<path class="st1" d="M141.9,43.6c0.2,1.1,0.8,2,1.5,1.9c0.6-0.1,1-1.1,0.8-2.2c-0.2-1.1-0.8-2-1.5-1.9
																		C142.1,41.5,141.7,42.5,141.9,43.6z"/>
																</g>
															</g>
														</g>
													</g>
												</g>
											</g>
										</g>
									</g>
								</g>
							</g>
						</g>
						<g>
							<g>
								<g>
									<g>
										<g>
											<g>
												<g>
													<g>
														<g>
															<g>
																<path class="st1" d="M167.6,49.9c0.1,0.1,2.1,3.4,4.4,4.1c0,0,0,0,0,0c0,0,0,0,0,0c0.1-0.8,0.1-1.6,0.1-2.4
																	C172.1,51.5,169.8,51.5,167.6,49.9z"/>
															</g>
														</g>
													</g>
												</g>
											</g>
										</g>
									</g>
								</g>
							</g>
						</g>
						<g>
							<g>
								<g>
									<g>
										<g>
											<g>
												<g>
													<g>
														<g>
															<g>
																<path class="st8" d="M168.5,41.7c0,0,3.6-6.8,7.7-2.5c3.3,3.5-0.3,14.8-6.4,11.8L168.5,41.7z"/>
															</g>
														</g>
													</g>
												</g>
											</g>
										</g>
									</g>
								</g>
							</g>
						</g>
						<g>
							<g>
								<g>
									<g>
										<g>
											<g>
												<g>
													<g>
														<g>
															<g>
																<path class="st1" d="M170.3,49.2c0.2,0,0.4-0.2,0.4-0.5c-0.2-4.7,3.4-6.9,3.6-7c0.2-0.1,0.3-0.4,0.2-0.6
																	c-0.1-0.2-0.4-0.3-0.6-0.2c-0.2,0.1-4.3,2.6-4.1,7.8C169.7,49,170,49.2,170.3,49.2
																	C170.2,49.2,170.3,49.2,170.3,49.2z"/>
															</g>
														</g>
													</g>
												</g>
											</g>
										</g>
									</g>
								</g>
							</g>
						</g>
						<g>
							<g>
								<g>
									<g>
										<g>
											<g>
												<g>
													<g>
														<g>
															<g>
																<path class="st1" d="M174.2,45.7c0.1,0,0.3-0.1,0.3-0.2c0.1-0.2,0.1-0.5-0.2-0.6c-0.2-0.1-2.1-1.2-3.4-0.6
																	c-0.2,0.1-0.4,0.4-0.3,0.6c0.1,0.2,0.4,0.4,0.6,0.3c0.8-0.3,2.2,0.3,2.6,0.6C174,45.7,174.1,45.7,174.2,45.7z"/>
															</g>
														</g>
													</g>
												</g>
											</g>
										</g>
									</g>
								</g>
							</g>
						</g>
						<g>
							<g>
								<g>
									<g>
										<g>
											<g>
												<g>
													<g>
														<g>
															<g>
																<path class="st4" d="M148.3,43.9c-1.4-3.6,0.4-7.6,4-8.9c3.6-1.4,7.6,0.4,8.9,4c1.4,3.6-0.4,7.6-4,8.9
																	C153.7,49.3,149.7,47.5,148.3,43.9z M149.3,43.6c1.2,3,4.6,4.6,7.6,3.4c3-1.2,4.6-4.6,3.4-7.6
																	c-1.2-3-4.6-4.6-7.6-3.4C149.6,37.1,148.1,40.5,149.3,43.6z"/>
															</g>
														</g>
													</g>
												</g>
											</g>
										</g>
									</g>
								</g>
							</g>
						</g>
						<g>
							<g>
								<g>
									<g>
										<g>
											<g>
												<g>
													<g>
														<g>
															<g>
																<path class="st4" d="M161,39.9c0.1,0,0.1,0,0.2,0c3.7-1.7,7.3-0.4,7.3-0.4c0.3,0.1,0.6,0,0.7-0.3
																	c0.1-0.3,0-0.6-0.3-0.7c-0.2-0.1-3.9-1.5-8.1,0.4c-0.3,0.1-0.4,0.4-0.2,0.7C160.6,39.8,160.8,39.9,161,39.9z"/>
															</g>
														</g>
													</g>
												</g>
											</g>
										</g>
									</g>
								</g>
							</g>
						</g>
						<g>
							<g>
								<g>
									<g>
										<g>
											<g>
												<g>
													<g>
														<g>
															<g>
																<path class="st4" d="M133,45.7c-1.4-3.6,0.4-7.6,4-8.9c3.6-1.4,7.6,0.4,8.9,4c1.4,3.6-0.4,7.6-4,8.9
																	C138.4,51,134.4,49.2,133,45.7z M134,45.3c1.2,3,4.6,4.6,7.6,3.4c3-1.2,4.6-4.6,3.4-7.6c-1.2-3-4.6-4.6-7.6-3.4
																	C134.3,38.8,132.8,42.3,134,45.3z"/>
															</g>
														</g>
													</g>
												</g>
											</g>
										</g>
									</g>
								</g>
							</g>
						</g>
						<g>
							<g>
								<g>
									<g>
										<g>
											<g>
												<g>
													<g>
														<g>
															<g>
																<path class="st4" d="M148.7,41c0.1,0,0.1-0.1,0.2-0.2c0.1-0.2,0.1-0.5-0.2-0.7c-0.1,0-1.8-1.1-3.5,0.3
																	c-0.2,0.2-0.3,0.5-0.1,0.7c0.2,0.2,0.5,0.3,0.7,0.1c1.2-0.9,2.3-0.2,2.3-0.2C148.3,41.1,148.5,41.1,148.7,41z"/>
															</g>
														</g>
													</g>
												</g>
											</g>
										</g>
									</g>
								</g>
							</g>
						</g>
					</g>
					<g>
						<g>
							<g>
								<g>
									<g>
										<g>
											<g>
												<g>
													<path class="st1" d="M145,17.8c-4.2,1.9-7.5,5.4-9,9.7c-0.9,2.7-1.7,6.3,2.1,5.9c10.5-1.3,16.1-12.1,16.1-12.1
														s2,10,10.3,8.8c8.2-1.2,8-7.4,3.3-10.9C164,16.3,154.3,13.6,145,17.8z"/>
												</g>
											</g>
										</g>
									</g>
								</g>
							</g>
						</g>
					</g>
					<g>
						<g>
							<g>
								<g>
									<g>
										<g>
											<g>
												<path class="st1" d="M164.2,28.9c0,0,4.7,5,3,10.4c-1.7,5.4-1.8,9.8,0,12.7c0,0,0.5-5.7,2.5-10
													c1.7-3.5,3.3-6.2,2.1-10.3C170.9,28.8,168.8,26.1,164.2,28.9z"/>
											</g>
										</g>
									</g>
								</g>
							</g>
						</g>
					</g>
					<g>
						<g>
							<g>
								<g>
									<path class="st7" d="M171.8,53.4c3.6,0.9,6.4,0.4,8.5-0.9c0.3-0.2,0.6-0.4,0.9-0.7c4.4-3.6,4.7-11.2,2-14.9
										c-0.9-1.3-2-2.2-3.2-2.8c-0.3-0.2-0.7-0.3-1.1-0.4c-4.5-1.5-9.4,1.2-9.4,1.2C164.5,49,171.8,53.4,171.8,53.4z"/>
								</g>
							</g>
						</g>
						<g>
							<g>
								<g>
									<g>
										<g>
											<g>
												<path class="st4" d="M159,59.6c10.6-2.2,15.1-9.8,15.3-10.2c0.2-0.3,0.1-0.7-0.2-0.8c-0.3-0.2-0.7-0.1-0.8,0.2
													c-0.1,0.1-5.6,9.4-18.4,10.1c-0.3,0-0.6,0.3-0.6,0.6c0,0.3,0.3,0.6,0.6,0.6C156.4,60,157.7,59.9,159,59.6z"/>
											</g>
										</g>
									</g>
								</g>
							</g>
						</g>
						<g>
							<g>
								<g>
									<g>
										<g>
											<g>
												<path class="st13" d="M151.5,60c0.2,1.1,1.3,1.7,2.3,1.5s1.7-1.3,1.5-2.3s-1.3-1.7-2.3-1.5
													C151.9,57.9,151.2,58.9,151.5,60z"/>
											</g>
										</g>
									</g>
								</g>
							</g>
						</g>
						<g>
							<g>
								<g>
									<g>
										<g>
											<g>
												<g>
													<g>
														<g>
															<g>
																<g>
																	<g>
																		<path class="st11" d="M180.3,52.5c0.3-0.2,0.6-0.4,0.9-0.7c-3.4-7.6-2.2-14.2-1.2-17.7c-0.3-0.2-0.7-0.3-1.1-0.4
																			C177.9,37.4,176.7,44.5,180.3,52.5z"/>
																	</g>
																</g>
															</g>
														</g>
													</g>
												</g>
											</g>
										</g>
									</g>
								</g>
							</g>
						</g>
					</g>
					<g>
						<g>
							<g>
								<g>
									<g>
										<g>
											<g>
												<g>
													<g>
														<g>
															<g>
																<path class="st4" d="M137.2,24.7c0.9-1.7,1.9-2.8,2.4-3.3c0.4-1.2,0.9-2.3,1.5-3.4c2.2-3.5,5.7-5.7,10.4-6.4
																	c5.1-0.8,9.5,0.2,13.1,3c1.1,0.9,2.1,1.9,3,2.9c1.2,1.5,2.3,3.2,3.1,4.9c2.9,5.8,3.6,11.8,3.6,11.9l1.4-0.2
																	c-0.1-0.6-1.6-14-10.3-20.7c-3.9-3-8.7-4.1-14.2-3.3c-5.1,0.8-9,3.2-11.4,7C138.5,19.5,137.7,22.1,137.2,24.7z"/>
															</g>
														</g>
													</g>
												</g>
											</g>
										</g>
									</g>
								</g>
							</g>
						</g>
					</g>
				</g>
			</g>
			<g>
				<g>
					<g>
						<g>
							<g>
								<path class="st1" d="M190,178.6l4.8-9.2c1.2-2.3-0.5-5-3.1-5l-76,0.8L118,177L190,178.6z"/>
							</g>
						</g>
					</g>
				</g>
				<g>
					<g>
						<g>
							<g>
								<path class="st1" d="M119.3,176h68c1.6,0,2.8-1.3,2.6-3l-4.6-42c-0.2-1.6-1.7-3-3.3-3h-68c-1.6,0-2.8,1.3-2.6,3l4.6,42
									C116.2,174.7,117.7,176,119.3,176z"/>
							</g>
						</g>
					</g>
				</g>
				<g>
					<g>
						<g>
							<path class="st14" d="M188.3,177.8C188.4,177.8,188.4,177.8,188.3,177.8c0.4,0,0.6-0.3,0.6-0.6l-5.6-45
								c0-0.3-0.3-0.5-0.6-0.5c-0.3,0-0.5,0.3-0.5,0.6l5.6,45C187.8,177.6,188.1,177.8,188.3,177.8z"/>
						</g>
					</g>
				</g>
				<g>
					<g>
						<g>
							<g>
								<path class="st2" d="M155.2,152.8c0.3,3.4-2.2,6.3-5.6,6.5c-3.3,0.2-6.2-2.4-6.5-5.7c-0.3-3.4,2.2-6.3,5.6-6.5
									C152.1,146.8,155,149.4,155.2,152.8z"/>
							</g>
						</g>
					</g>
				</g>
				<g>
					<g>
						<g>
							<g>
								<path class="st1" d="M119,179.7h69c1.5,0,2.7-1.3,2.5-2.8l-0.7-4.8h-74l0.7,5.5C116.7,178.7,117.7,179.7,119,179.7z"/>
							</g>
						</g>
					</g>
				</g>
				<g>
					<g>
						<g>
							<g>
								<g>
									<path class="st9" d="M166.3,166.1l-0.3-2.9l2.3,0l-0.6-2.6l3,0l0.6,2.6l1.9,0l-0.6-2.6l3,0l0.6,2.6l2.6,0l0.3,2.9l-2.3,0
										l0.5,2.4l2.6,0l0.3,2.9l-2.3,0l0.6,2.6l-3,0l-0.6-2.6l-1.9,0l0.6,2.6l-3,0l-0.6-2.6l-2.6,0l-0.3-2.9l2.3,0l-0.5-2.4
										L166.3,166.1z M172.5,168.5l1.9,0l-0.5-2.4l-1.9,0L172.5,168.5z"/>
								</g>
							</g>
						</g>
					</g>
				</g>
			</g>
			<g>
				<g>
					<g>
						<g>
							<g>
								<path class="st15" d="M220.8,46.5c0,10.4,8.4,18.8,18.8,18.8c10.4,0,18.8-8.4,18.8-18.8c0-10.4-8.4-18.8-18.8-18.8
									C229.2,27.7,220.8,36.1,220.8,46.5z"/>
							</g>
						</g>
					</g>
					<g>
						<g>
							<g>
								<polygon class="st15" points="230,61.9 219.9,64 224.3,55.3 								"/>
							</g>
						</g>
					</g>
				</g>
				<g>
					<g>
						<g>
							<path class="st4" d="M241.2,42.5c0-0.9-0.9-1.3-1.9-1.3c-1.2,0-2.4,0.7-2.9,1.9l-5-2.5c1.4-2.7,4.3-4.6,8.8-4.6
								c4.5,0,7.8,1.9,7.8,5.4c0,4.3-4.5,5.1-4.5,7.3h-5.8C237.5,45.2,241.2,44.2,241.2,42.5z M236.7,53.1c0-1.9,1.5-3.3,3.7-3.3
								c2.2,0,3.7,1.4,3.7,3.3c0,1.9-1.5,3.4-3.7,3.4C238.2,56.5,236.7,55,236.7,53.1z"/>
						</g>
					</g>
				</g>
			</g>
		</g>
		<g>
			<g>
				<g>
					<g>
						<path class="st7" d="M48.2,206.3c0,0-7.7-12-26.3-23c-13.1-7.7-20.8-29.6-20.8-29.6s25.2,1.1,36.1,16.4
							C48.2,185.5,48.2,206.3,48.2,206.3z"/>
					</g>
				</g>
				<g>
					<g>
						<path class="st1" d="M48.3,206.6c-0.2,0-0.3-0.1-0.4-0.3c-3.5-13.4-11.3-23.1-17.2-28.8c-6.4-6.3-12-9.4-12-9.4
							c-0.2-0.1-0.2-0.3-0.1-0.5c0.1-0.2,0.3-0.2,0.5-0.1c0.1,0,5.7,3.2,12.2,9.5c5.9,5.8,13.8,15.7,17.4,29.2
							C48.7,206.4,48.6,206.6,48.3,206.6C48.4,206.6,48.3,206.6,48.3,206.6z"/>
					</g>
				</g>
			</g>
			<g>
				<g>
					<g>
						<path class="st7" d="M44.9,206c0,0-2.2-4.4-12-3.3c-9.9,1.1-15.3,6.6-32.9-3.3c0,0,13.1-11,27.4-8.8
							C41.6,192.9,42.7,198.4,44.9,206z"/>
					</g>
				</g>
				<g>
					<g>
						<path class="st1" d="M44.9,206.4c-0.1,0-0.2-0.1-0.3-0.2c0-0.1-4.5-7-11.5-8.3c-12.4-2.3-20.8,1.7-20.9,1.7
							c-0.2,0.1-0.4,0-0.5-0.2c-0.1-0.2,0-0.4,0.2-0.5c0.1,0,8.7-4.1,21.4-1.8c7.4,1.3,11.9,8.3,12,8.6c0.1,0.2,0.1,0.4-0.1,0.5
							C45.1,206.4,45,206.4,44.9,206.4z"/>
					</g>
				</g>
			</g>
			<g>
				<g>
					<g>
						<path class="st7" d="M49.2,205c0,0-0.9-4.8,7.7-9.8c8.6-5,16.2-3.9,24.4-22.3c0,0-17.1-0.9-27.2,9.3
							C44,192.5,46.4,197.5,49.2,205z"/>
					</g>
				</g>
				<g>
					<g>
						<path class="st1" d="M49.2,205.4c-0.2,0-0.4-0.1-0.4-0.3c0-0.3-0.6-8.6,4.5-14.1c8.8-9.4,18.1-11.3,18.2-11.3
							c0.2,0,0.4,0.1,0.4,0.3c0,0.2-0.1,0.4-0.3,0.4c-0.1,0-9.2,1.9-17.8,11.1c-4.9,5.3-4.3,13.5-4.3,13.5
							C49.6,205.2,49.4,205.4,49.2,205.4C49.2,205.4,49.2,205.4,49.2,205.4z"/>
					</g>
				</g>
			</g>
			<g>
				<g>
					<path class="st15" d="M59.3,210.9h-24c-1.4,0-2.6-1.2-2.6-2.6v-1.1c0-1.4,1.2-2.6,2.6-2.6h24c1.4,0,2.6,1.2,2.6,2.6v1.1
						C61.9,209.8,60.7,210.9,59.3,210.9z"/>
				</g>
			</g>
			<g>
				<g>
					<path class="st15" d="M47.4,264.5c-19.6,0-32-3.1-30-16.9c1.3-8.8,8.1-17.3,12.9-22.4c0.7-0.7,1.3-1.4,1.9-1.9
						c1.8-1.8,3-2.8,3-2.8l0.1-0.3l0.3-1.9l0.4-2.2l0.9-5.1l0.3-1.8l10.2-0.4l10.7,0.4l0.2,1.8l0.4,2.8l0.6,4.5l0.3,1.9l0,0.3
						c0,0,1.2,1,3,2.8c0.6,0.6,1.2,1.2,1.9,1.9c4.8,5.1,11.6,13.7,12.9,22.4C79.4,261.4,67,264.5,47.4,264.5z"/>
				</g>
			</g>
			<g>
				<g>
					<polygon class="st16" points="59.6,220.2 35.2,220.2 35.6,218.2 59.3,218.2 					"/>
				</g>
			</g>
			<g>
				<g>
					<path class="st16" d="M64.5,225.2H30.3c0.7-0.7,1.3-1.4,1.9-1.9h30.5C63.2,223.8,63.8,224.5,64.5,225.2z"/>
				</g>
			</g>
			<g>
				<g>
					<polygon class="st16" points="58.7,213.7 35.9,216 36.8,210.9 58.3,210.9 					"/>
				</g>
			</g>
		</g>
	</g>
</g>
<g>
	<g>
		<g>
			<g>
				<g>
					<ellipse class="st0" cx="48.8" cy="67.4" rx="26.9" ry="26.6"/>
				</g>
			</g>
		</g>
		<g>
			<g>
				<g>
					<g>
						<ellipse class="st7" cx="48.8" cy="63.9" rx="26.9" ry="26.6"/>
					</g>
				</g>
			</g>
		</g>
		<g>
			<g>
				<g>
					<g>
						<ellipse class="st4" cx="48.8" cy="63.9" rx="21.9" ry="21.6"/>
					</g>
				</g>
			</g>
		</g>
		<g>
			<g>
				<g>
					<path class="st0" d="M70.7,63.9c0,0.6,0,1.1-0.1,1.7c-0.9-11.1-10.3-19.9-21.8-19.9c-11.5,0-20.9,8.8-21.8,19.9
						c0-0.6-0.1-1.1-0.1-1.7c0-11.9,9.8-21.6,21.9-21.6C60.8,42.3,70.7,52,70.7,63.9z"/>
				</g>
			</g>
		</g>
	</g>
	<g>
		<g>
			<g>
				<path class="st1" d="M48.8,66.1c-0.2,0-0.3-0.1-0.4-0.2L37.6,51.6c-0.2-0.2-0.1-0.6,0.1-0.8c0.2-0.2,0.6-0.1,0.8,0.1l10.5,13.9
					l11.9-5.2c0.3-0.1,0.6,0,0.7,0.3c0.1,0.3,0,0.6-0.3,0.7L49,66.1C48.9,66.1,48.8,66.1,48.8,66.1z"/>
			</g>
		</g>
	</g>
</g>
</svg>
