<?xml version="1.0" encoding="utf-8"?>
<!-- Generator: Adobe Illustrator 23.0.0, SVG Export Plug-In . SVG Version: 6.00 Build 0)  -->
<svg version="1.1" id="Layer_1" xmlns="http://www.w3.org/2000/svg" xmlns:xlink="http://www.w3.org/1999/xlink" x="0px" y="0px"
	 width="53.6px" height="53.1px" viewBox="0 0 53.6 53.1" style="enable-background:new 0 0 53.6 53.1;" xml:space="preserve">
<style type="text/css">
	.st0{fill:#D3E3FE;}
	.st1{fill:#0069A2;}
	.st2{fill:#4591BB;}
	.st3{fill:#60A1C5;}
	.st4{fill:#87A7E5;}
	.st5{fill:#244477;}
	.st6{fill:#FE4079;}
	.st7{fill:#FBD871;}
	.st8{fill:#228AD0;}
	.st9{fill:#FEFEFE;}
</style>
<g>
	<path class="st0" d="M22.5,51.2c-1.4-0.3-2.9-0.7-4.3-1.2c-1-0.4-2.1-0.8-3-1.4c-0.1-1.5,1.2-3.3,3.2-3.2c5.6,0,11.2,0,16.8,0
		c1.5-0.1,2.9,1,3.2,2.6c0,0.2,0,0.4,0,0.6c-2.2,1.2-4.5,2-7,2.4c-0.1,0-0.2,0.1-0.3,0.1c-0.2-0.1-0.3-0.1-0.5,0
		c0,0-0.1,0.1-0.1,0.1c-0.2-0.1-0.3-0.1-0.5,0c-0.1,0-0.3,0.1-0.4,0.1c-0.2-0.1-0.4-0.1-0.6,0c-0.1,0-0.2,0-0.2,0.1
		c-0.1,0-0.1,0-0.2,0c-0.5-0.1-1-0.1-1.6,0c-0.2,0-0.4,0-0.6,0c-0.5-0.1-1-0.1-1.6,0c-0.1,0-0.1,0-0.2,0c0-0.1-0.1-0.1-0.2-0.1
		c-0.2-0.1-0.4-0.1-0.6,0c-0.1,0-0.3-0.1-0.4-0.1c-0.2-0.1-0.3-0.1-0.5,0c0,0-0.1-0.1-0.1-0.1C22.8,51.1,22.7,51.1,22.5,51.2z"/>
	<path class="st1" d="M12,6c1.8-1.3,3.7-2.3,5.7-3.1C20,2,22.2,1.4,24.6,1.2c0.1,0,0.2,0,0.2-0.1c0.2,0,0.3,0,0.5,0
		c0.1,0.1,0.2,0,0.2,0.1c0.1,0,0.2,0,0.4-0.1c0.6,0,1.2,0,1.8,0c0.1,0.1,0.2,0,0.4,0.1c0.1,0,0.2,0,0.2-0.1c0.2,0,0.3,0,0.5,0
		c0.5,0.2,1,0.2,1.5,0.2c4.1,0.6,7.8,2.1,11.2,4.5c0.1,0,0.1,0.1,0.2,0.1c0,0.2-0.2,0.2-0.4,0.2c-0.2,0-0.4,0-0.5,0
		c-9.3,0-18.6,0-27.9,0c-0.2,0-0.4,0-0.5,0C12.2,6.2,12,6.2,12,6z"/>
	<path class="st1" d="M1.7,24.2c0.2-0.4,0.2-0.9,0.2-1.4C2.3,20.3,3,17.9,4,15.6c0-0.1,0.1-0.2,0.1-0.2c0.2,0,0.2,0.2,0.2,0.4
		c0,0.2,0,0.3,0,0.5c0,6.7,0,13.4,0,20.1c0,0.3,0.2,0.7-0.2,0.9c-0.8-1.8-1.5-3.7-1.9-5.6c-0.2-1-0.3-1.9-0.5-2.9
		c0-0.1,0-0.2-0.1-0.3c0-0.2,0-0.4,0-0.6c0.1-0.1,0-0.2,0.1-0.2c0-0.1,0-0.2-0.1-0.4c0-0.6,0-1.2,0-1.8c0.1-0.1,0-0.2,0.1-0.4
		c0-0.1,0-0.2-0.1-0.2C1.7,24.6,1.7,24.4,1.7,24.2z"/>
	<path class="st1" d="M49.5,15.4c0.8,1.8,1.5,3.7,1.9,5.6c0.2,1,0.4,2,0.5,3c0,0.1-0.1,0.2,0.1,0.3c0,0.2,0,0.3,0,0.5
		c-0.1,0.1,0,0.2-0.1,0.2c0,0.1,0,0.2,0.1,0.4c0,0.6,0,1.2,0,1.8c-0.1,0.1,0,0.2-0.1,0.4c0,0.1,0,0.2,0.1,0.2c0,0.2,0,0.4,0,0.6
		c-0.2,0.4-0.2,0.9-0.2,1.4c-0.4,2.5-1.1,4.9-2.1,7.2c0,0.1-0.1,0.2-0.1,0.2c-0.2,0-0.2-0.2-0.2-0.4c0-0.2,0-0.3,0-0.5
		c0-6.7,0-13.4,0-20.1C49.3,16,49.1,15.6,49.5,15.4z"/>
	<path class="st2" d="M1.7,27.2c0.1,0.1,0.1,0.3,0.1,0.4c0,0-0.1,0-0.1,0C1.7,27.5,1.7,27.3,1.7,27.2z"/>
	<path class="st2" d="M51.9,27.6c0-0.1-0.1-0.3,0.1-0.4C52,27.3,52,27.5,51.9,27.6C52,27.6,51.9,27.6,51.9,27.6z"/>
	<path class="st2" d="M52,25.4c-0.1-0.1-0.1-0.3-0.1-0.4c0,0,0.1,0,0.1,0C52,25.2,52,25.3,52,25.4z"/>
	<path class="st2" d="M1.8,25c0,0.1,0.1,0.3-0.1,0.4C1.7,25.3,1.7,25.2,1.8,25C1.7,25,1.7,25,1.8,25z"/>
	<path class="st3" d="M1.7,27.6C1.7,27.6,1.7,27.6,1.7,27.6c0.1,0.1,0.1,0.2,0,0.2C1.7,27.7,1.7,27.6,1.7,27.6z"/>
	<path class="st3" d="M51.9,27.6C51.9,27.6,52,27.6,51.9,27.6c0.1,0.1,0.1,0.1,0.1,0.2C51.9,27.7,51.9,27.7,51.9,27.6z"/>
	<path class="st3" d="M52,25C52,25,51.9,25,52,25c-0.1-0.1-0.1-0.2,0-0.2C52,24.9,52,25,52,25z"/>
	<path class="st3" d="M1.8,25C1.7,25,1.7,25,1.8,25c-0.1-0.1-0.1-0.1-0.1-0.2C1.8,24.9,1.8,24.9,1.8,25z"/>
	<path class="st0" d="M49.5,15.4c-0.2,0.1-0.1,0.3-0.1,0.4c0,7,0,14,0,21c0,0.1-0.1,0.3,0.1,0.4c-1,2-2.2,3.8-3.6,5.5
		c0,0-0.1,0.1-0.1,0.1c-0.1,0-0.2,0-0.4,0c-12.4,0-24.8,0-37.2,0c-0.1,0-0.2,0-0.4,0c-0.9-1-1.7-2.1-2.4-3.2C5,38.8,4.6,38,4.1,37.2
		c0.2-0.1,0.1-0.3,0.1-0.4c0-7,0-14,0-21c0-0.1,0.1-0.3-0.1-0.4c0.1-0.2,0.1-0.4,0.1-0.7c0-1.4,0-2.8,0-4.2c0-1.1,0.2-2.2,1-3
		c0.7-0.8,1.5-1.2,2.5-1.4c1.2-0.2,2.5-0.1,3.7-0.1c0.2,0,0.4,0,0.6-0.1c0.1,0.2,0.3,0.1,0.4,0.1c9.6,0,19.2,0,28.8,0
		c0.1,0,0.3,0.1,0.4-0.1c0.2,0.1,0.4,0.1,0.6,0.1c1.2,0,2.4,0,3.7,0.1c1.7,0.2,3.3,1.8,3.4,3.5c0.1,1.7,0,3.4,0.1,5.1
		C49.4,15,49.4,15.2,49.5,15.4z"/>
	<path class="st1" d="M45.6,42.7c0.1,0,0.2,0,0.2,0.1c-2.1,2.4-4.6,4.3-7.4,5.8c-0.2-0.1-0.1-0.2-0.1-0.3c-0.2-1.6-1.3-2.7-2.9-2.7
		c-0.4-0.1-0.8,0-1.3,0c-0.3,0-0.4-0.1-0.5-0.4c0-0.6,0-1.2,0-1.9c0-0.3,0.2-0.5,0.5-0.5c1.6,0,3.3,0,4.9,0c2,0,4,0,6,0
		C45.3,42.8,45.4,42.8,45.6,42.7z"/>
	<path class="st1" d="M7.8,42.8c0-0.1,0.1-0.1,0.2-0.1c0.2,0.1,0.4,0,0.5,0c3.6,0,7.2,0,10.8,0c0.6,0,0.6,0,0.6,0.6
		c0,0.6,0,1.1,0,1.7c0,0.3-0.1,0.5-0.5,0.5c-0.4,0-0.8-0.1-1.2,0c-1.6,0.1-2.7,1.1-2.9,2.7c0,0.1,0,0.3-0.1,0.3
		C12.4,47.2,9.9,45.2,7.8,42.8z"/>
	<path class="st4" d="M18.3,45.6c0.4-0.1,0.8,0,1.3-0.1c0.3,0,0.3-0.1,0.3-0.3c0-0.6,0-1.2,0-1.9c0-0.4-0.1-0.5-0.5-0.5
		c-2.9,0-5.8,0-8.6,0c-0.7,0-1.4,0-2.2,0c-0.2,0-0.4,0-0.5-0.1c0.2,0,0.4,0,0.5,0c4.7,0,9.3,0,14,0c7.5,0,15,0,22.4,0
		c0.2,0,0.4,0,0.6,0c-0.2,0.1-0.4,0.1-0.6,0.1c-3.6,0-7.1,0-10.7,0c-0.4,0-0.6,0.1-0.6,0.5c0,0.6,0,1.2,0,1.8c0,0.3,0.1,0.3,0.3,0.3
		c0.4,0,0.8-0.1,1.3,0.1c-0.7,0-1.4,0-2.2,0c-4.8,0-9.6,0-14.4,0C18.7,45.6,18.5,45.6,18.3,45.6z"/>
	<path class="st5" d="M26.8,37.1c-6.1,0-12.1,0-18.2,0c-1.6,0-2.3-0.7-2.3-2.3c0-8.1,0-16.2,0-24.4c0-1.5,0.8-2.3,2.3-2.3
		c12.2,0,24.3,0,36.5,0c1.5,0,2.3,0.8,2.3,2.3c0,8.1,0,16.2,0,24.4c0,1.6-0.8,2.3-2.3,2.3C39,37.1,32.9,37.1,26.8,37.1z"/>
	<path class="st6" d="M33.8,26.3c-3.1,0-6.3,0-9.4,0c-0.9,0-1.4-0.4-1.4-1.1c0-0.7,0.5-1.1,1.4-1.1c6.3,0,12.5,0,18.8,0
		c1,0,1.6,0.6,1.3,1.4c-0.1,0.5-0.5,0.8-1.2,0.8c-1.7,0-3.4,0-5.1,0C36.7,26.3,35.3,26.3,33.8,26.3z"/>
	<path class="st7" d="M33.8,32.5c3.1,0,6.3,0,9.4,0c0.3,0,0.6,0,0.9,0.2c0.4,0.2,0.5,0.6,0.5,1c-0.1,0.5-0.3,0.8-0.8,0.9
		c-0.2,0-0.5,0.1-0.7,0.1c-6.2,0-12.4,0-18.6,0c-0.2,0-0.4,0-0.6,0c-0.5-0.1-0.9-0.5-0.9-1c0-0.5,0.3-0.9,0.8-1c0.2,0,0.4,0,0.6,0
		C27.5,32.5,30.7,32.5,33.8,32.5z"/>
	<path class="st8" d="M33.8,20c3.1,0,6.3,0,9.4,0c0.5,0,0.9,0.1,1.2,0.5c0.3,0.6,0,1.3-0.6,1.5c-0.2,0.1-0.4,0.1-0.7,0.1
		c-6.2,0-12.4,0-18.7,0c-0.2,0-0.5,0-0.7-0.1c-0.4-0.1-0.8-0.6-0.7-1c0-0.4,0.2-0.8,0.7-1c0.2-0.1,0.5-0.1,0.8-0.1
		C27.6,20,30.7,20,33.8,20z"/>
	<path class="st9" d="M33.8,30.5c-3.1,0-6.2,0-9.3,0c-0.9,0-1.4-0.4-1.4-1c0-0.7,0.5-1.1,1.4-1.1c6.3,0,12.5,0,18.8,0
		c0.2,0,0.3,0,0.5,0c0.5,0.1,0.9,0.5,0.9,1c0,0.5-0.4,0.9-0.9,1c-0.2,0-0.4,0-0.6,0C40,30.5,36.9,30.5,33.8,30.5z"/>
	<path class="st1" d="M13.9,34.7c-1.1,0-2.2,0-3.2,0c-0.3,0-0.5,0-0.8-0.1c-0.6-0.2-0.9-0.6-0.8-1.2c0-0.4,0.5-0.8,1-0.8
		c0.6,0,1.3,0,1.9,0c1.8,0,3.7,0,5.5,0c0.8,0,1.3,0.5,1.2,1.3c-0.1,0.5-0.6,0.9-1.3,0.9C16.3,34.7,15.1,34.7,13.9,34.7z"/>
	<path class="st1" d="M13.9,26.3c-1.2,0-2.4,0-3.6,0c-0.8,0-1.3-0.6-1.2-1.3c0.1-0.5,0.6-0.8,1.4-0.8c2.1,0,4.1,0,6.2,0
		c0.4,0,0.8,0,1.2,0.1c0.7,0.2,0.9,0.5,0.9,1.1c0,0.5-0.5,0.9-1.1,0.9C16.4,26.3,15.2,26.3,13.9,26.3z"/>
	<path class="st9" d="M13.9,20c1.2,0,2.4,0,3.6,0c0.5,0,0.9,0.2,1.1,0.6c0.3,0.6,0,1.3-0.7,1.5c-0.2,0.1-0.5,0.1-0.7,0.1
		c-2.3,0-4.5,0-6.8,0c0,0,0,0,0,0c-0.9,0-1.4-0.4-1.4-1.1c0-0.7,0.5-1.1,1.4-1.1C11.7,20,12.8,20,13.9,20z"/>
	<path class="st7" d="M13.9,28.4c1.3,0,2.5,0,3.8,0c0.5,0,0.8,0.2,1,0.6c0.2,0.4,0.1,0.8-0.2,1.1c-0.2,0.3-0.5,0.4-0.8,0.4
		c-2.5,0-5,0-7.6,0c-0.6,0-1.1-0.5-1.1-1c0-0.6,0.4-1,1.1-1C11.4,28.3,12.7,28.4,13.9,28.4z"/>
	<path class="st9" d="M24.8,19c-0.4,0-0.7-0.4-0.6-0.8c0-0.1,0.1-0.2,0.1-0.3c1.3-2.7,2.6-5.3,3.9-8c0.1-0.3,0.3-0.6,0.7-0.5
		c0.5,0,0.7,0.5,0.5,1c-0.9,2-1.9,3.9-2.9,5.9c-0.4,0.8-0.8,1.5-1.1,2.3C25.2,18.9,25,19,24.8,19z"/>
	<path class="st9" d="M32.4,15.2c-0.6-0.4-1.2-0.8-1.8-1.2c-0.5-0.3-0.6-0.7-0.3-1.1c0.3-0.4,0.6-0.5,1.1-0.2
		c0.9,0.5,1.7,1.1,2.5,1.7c0.7,0.5,0.7,1.1,0,1.5c-0.9,0.6-1.7,1.1-2.6,1.7c-0.4,0.3-0.8,0.2-1.1-0.2c-0.3-0.4-0.2-0.7,0.3-1
		C31.1,16,31.7,15.6,32.4,15.2z"/>
	<path class="st9" d="M21.2,15.2c0.7,0.4,1.2,0.8,1.8,1.2c0.5,0.3,0.6,0.7,0.3,1.1c-0.3,0.4-0.6,0.5-1.1,0.2
		c-0.9-0.6-1.7-1.1-2.6-1.7c-0.7-0.5-0.7-1.1,0-1.5c0.9-0.6,1.7-1.1,2.6-1.7c0.4-0.3,0.8-0.2,1.1,0.2c0.3,0.4,0.2,0.7-0.3,1
		C22.5,14.4,21.9,14.8,21.2,15.2z"/>
</g>
</svg>
