<?xml version="1.0" encoding="utf-8"?>
<!-- Generator: Adobe Illustrator 23.0.0, SVG Export Plug-In . SVG Version: 6.00 Build 0)  -->
<svg version="1.1" id="Layer_1" xmlns="http://www.w3.org/2000/svg" xmlns:xlink="http://www.w3.org/1999/xlink" x="0px" y="0px"
	 width="801.7px" height="857px" viewBox="0 0 801.7 857" style="enable-background:new 0 0 801.7 857;" xml:space="preserve">
<style type="text/css">
	.st0{fill:url(#SVGID_2_);}
	.st1{fill:#EE2328;}
	.st2{fill:#EA8554;}
	.st3{fill:#C0CFEB;}
	.st4{fill:#EF3D27;}
	.st5{fill:url(#SVGID_3_);}
	.st6{fill:#8FC5EA;}
	.st7{opacity:0.2;fill:#8FC5EA;enable-background:new    ;}
	.st8{fill:#FFFFFF;}
	.st9{fill:#DFE4E8;}
	.st10{fill:#77B7E1;}
	.st11{fill:#78B7E0;}
	.st12{fill:#2B6BB4;}
	.st13{opacity:0.2;}
	.st14{fill:#636768;}
	.st15{fill:#FFC829;}
	.st16{opacity:0.1;fill:#010101;enable-background:new    ;}
	.st17{fill:#263238;}
	.st18{fill:#60C8F3;}
	.st19{fill:#4977BB;}
	.st20{fill:#6C51A1;}
	.st21{fill:#FECF0C;}
	.st22{opacity:0.3;}
	.st23{fill:#332D2C;}
	.st24{enable-background:new    ;}
	.st25{fill:url(#SVGID_4_);}
	.st26{fill:#FED726;}
	.st27{fill:url(#SVGID_7_);}
	.st28{fill:url(#SVGID_8_);}
	.st29{fill:url(#SVGID_9_);}
	.st30{fill:url(#SVGID_10_);}
	.st31{fill:url(#SVGID_11_);}
	.st32{fill:url(#SVGID_12_);}
	.st33{fill:url(#SVGID_13_);}
	.st34{fill:url(#SVGID_14_);}
	.st35{fill:url(#SVGID_15_);}
	.st36{fill:url(#SVGID_16_);}
	.st37{fill:url(#SVGID_17_);}
	.st38{fill:url(#SVGID_18_);}
	.st39{fill:url(#SVGID_19_);}
	.st40{fill:url(#SVGID_20_);}
	.st41{fill:url(#SVGID_21_);}
	.st42{fill:url(#SVGID_22_);}
	.st43{fill:url(#SVGID_23_);}
	.st44{fill:url(#SVGID_24_);}
	.st45{fill:url(#SVGID_25_);}
	.st46{fill:url(#SVGID_26_);}
	.st47{fill:url(#SVGID_27_);}
	.st48{fill:url(#SVGID_28_);}
	.st49{fill:url(#SVGID_31_);}
	.st50{fill:url(#SVGID_33_);}
	.st51{fill:url(#SVGID_34_);}
	.st52{fill:url(#SVGID_35_);}
	.st53{fill:url(#SVGID_36_);}
	.st54{fill:url(#SVGID_37_);}
	.st55{fill:url(#SVGID_38_);}
	.st56{fill:url(#SVGID_39_);}
	.st57{fill:url(#SVGID_40_);}
	.st58{fill:url(#SVGID_41_);}
	.st59{fill:url(#SVGID_42_);}
	.st60{fill:url(#SVGID_43_);}
	.st61{fill:url(#SVGID_44_);}
	.st62{fill:url(#SVGID_45_);}
	.st63{fill:url(#SVGID_46_);}
	.st64{fill:url(#SVGID_47_);}
	.st65{fill:url(#SVGID_48_);}
	.st66{fill:url(#SVGID_49_);}
	.st67{fill:url(#SVGID_50_);}
	.st68{fill:url(#SVGID_51_);}
	.st69{fill:url(#SVGID_52_);}
</style>
<g>
	
		<linearGradient id="SVGID_2_" gradientUnits="userSpaceOnUse" x1="756.351" y1="32.4659" x2="316.6312" y2="500.5545" gradientTransform="matrix(1 0 0 -1 0 858)">
		<stop  offset="0" style="stop-color:#DBE2F3"/>
		<stop  offset="1" style="stop-color:#EAEFF8"/>
	</linearGradient>
	<path class="st0" d="M623.2,638.8c-16.2,16.8-30.6,26.7-41.7,34.1c-107.9,72.7-231.3,51.8-269.4,44.6
		C250.5,706,198.6,697.8,154,657.1c-101.4-92.5-96.5-285.4-19-404.9c9.2-14.2,86.6-129.9,210.2-146.2c3-0.4,5.3-0.6,7.3-0.8
		c19.1-2,137.6-12.8,234.3,68.9c13.8,11.7,36.1,32.8,56.7,65C718.9,356.7,719.1,538.9,623.2,638.8z"/>
	<g>
		<g>
			<path class="st1" d="M553.4,294.2L553.4,294.2c1.6-3.4,5.5-5.9,10.1-5.9c6.1-0.1,11.1,4.1,11.1,9.3c0-5.2,5-9.4,11.4-9.5
				c4.9,0,9.1,2.4,10.8,6l0,0c6.6,12.9-22.2,24.2-22.2,24.2S547.5,306.4,553.4,294.2z"/>
		</g>
	</g>
	<g>
		<g>
			<ellipse class="st2" cx="684.6" cy="639.2" rx="48.6" ry="48.6"/>
			<g>
				<path class="st3" d="M645.8,620.2c-0.1,0-0.1,0-0.2,0c-0.2-0.1-0.3-0.4-0.2-0.6c7.5-14.9,22.5-24.1,39.1-24.1
					c2.7,0,5.3,0.2,7.9,0.7c0.2,0,0.4,0.3,0.4,0.5s-0.3,0.4-0.5,0.4c-2.5-0.5-5.1-0.7-7.7-0.7c-16.3,0-31,9-38.3,23.6
					C646.2,620.1,646,620.2,645.8,620.2z"/>
			</g>
			<circle class="st4" cx="685.6" cy="640.3" r="39.8"/>
		</g>
		
			<linearGradient id="SVGID_3_" gradientUnits="userSpaceOnUse" x1="669.442" y1="223.1026" x2="703.2996" y2="223.1026" gradientTransform="matrix(1 0 0 -1 0 858)">
			<stop  offset="0" style="stop-color:#DBE2F3"/>
			<stop  offset="1" style="stop-color:#EAEFF8"/>
		</linearGradient>
		<path class="st5" d="M669.4,627.9c0,5.1,7.1,17.1,12,25c2.1,3.3,7.5,3.5,9.6,0.4c5-7.5,12.2-19.1,12.2-24.2
			c0-7.9-7.6-14.5-17-14.8C677,614,669.4,620.1,669.4,627.9z M677.2,628.2c0-4.2,4.1-7.5,9.1-7.3s9.1,3.7,9.1,7.9s-4.1,7.5-9.1,7.3
			S677.2,632.4,677.2,628.2z"/>
	</g>
</g>
<g>
	<polygon class="st6" points="562.3,650.6 210.9,650.6 210.9,353.3 386.6,241.7 562.3,353.3 	"/>
	<polygon class="st7" points="562.5,652 211.1,652 211.1,354.7 386.8,243.1 562.5,354.7 	"/>
	<g>
		<polygon class="st8" points="541.8,627.2 230.1,627.2 230.1,227 461.5,227 541.8,303.2 		"/>
		<polygon class="st9" points="461.5,227 541.8,303.2 461.5,303.2 		"/>
		<g>
			<rect x="260.5" y="294.1" class="st10" width="173.3" height="10.3"/>
		</g>
		<g>
			<rect x="260.5" y="320" class="st11" width="173.3" height="10.3"/>
		</g>
		<g>
			<rect x="260.5" y="346" class="st11" width="173.3" height="10.3"/>
		</g>
		<g>
			<rect x="260.4" y="371.9" class="st11" width="254" height="10.3"/>
		</g>
		<g>
			<rect x="260.4" y="397.9" class="st11" width="254" height="10.3"/>
		</g>
		<g>
			<rect x="260.4" y="423.8" class="st11" width="254" height="10.3"/>
		</g>
		<g>
			<rect x="260.4" y="449.7" class="st11" width="254" height="10.3"/>
		</g>
		<g>
			<rect x="260.4" y="475.7" class="st11" width="254" height="10.3"/>
		</g>
		<g>
			<rect x="260.4" y="501.6" class="st11" width="254" height="10.3"/>
		</g>
		<g>
			<rect x="260.4" y="527.6" class="st8" width="254" height="10.3"/>
		</g>
		<g>
			<rect x="260.4" y="553.5" class="st8" width="254" height="10.3"/>
		</g>
		<g>
			<rect x="260.4" y="579.4" class="st8" width="254" height="10.3"/>
		</g>
	</g>
	<path class="st12" d="M561.6,427.1V650H210.2V427.1c15.1,8.5,29.9,17.5,44.9,26.3c14.9,8.9,29.8,17.8,44.5,26.9
		c16.5,10,32.9,20.2,49.3,30.5c0.2-0.1,0.4-0.2,0.5-0.3c-0.2,0.1-0.3,0.3-0.4,0.4c12.3,7.7,24.6,15.4,36.9,23.1
		c12.2-7.7,24.5-15.5,36.8-23.1c-0.2-0.1-0.3-0.3-0.4-0.4c0.2,0.1,0.4,0.2,0.5,0.3c16.4-10.2,32.8-20.4,49.3-30.5
		c14.8-9,29.6-18,44.5-26.9C531.7,444.6,546.6,435.6,561.6,427.1z"/>
	<g class="st13">
		<path class="st6" d="M561.6,427.1c-14.2,10-28.7,19.5-43,29.3c-14.4,9.6-28.9,19.2-43.4,28.7c-15.1,9.9-30.3,19.7-45.5,29.5
			c-0.5,0.3-0.9,0.6-1.4,0.9c-13.5,8.6-27,17.2-40.5,25.8l-2,1.2l-2-1.2c-13.5-8.6-27-17.2-40.4-25.9c-0.5-0.3-1-0.6-1.4-0.9
			c-15.3-9.8-30.5-19.6-45.6-29.6c-14.5-9.4-28.9-19.1-43.3-28.7c-14.3-9.8-28.8-19.4-43-29.3c15.1,8.5,29.9,17.5,44.9,26.3
			c14.9,8.9,29.8,17.8,44.5,26.9c16.5,10,32.9,20.2,49.3,30.5c0.1,0,0.1,0,0.1,0.1c12.3,7.7,24.6,15.4,36.9,23.1
			c12.2-7.7,24.5-15.5,36.8-23.1c0.1-0.1,0.1-0.1,0.1-0.1c16.4-10.2,32.8-20.4,49.3-30.5c14.8-9,29.6-18,44.5-26.9
			C531.7,444.6,546.6,435.6,561.6,427.1z"/>
		<path class="st6" d="M349.5,510.5c-0.2,0.1-0.3,0.3-0.4,0.4c-1.8,1.6-3.7,3.2-5.5,4.7c-8.8,7.4-17.8,14.6-27,21.5
			c-11.2,8.5-22.6,16.7-34.1,24.9c-11.6,8-23.2,15.9-35,23.5c-11.9,7.6-23.9,15-36.3,21.8c10.7-9.3,21.7-18,32.9-26.5
			c11.2-8.5,22.7-16.7,34.1-24.9c11.6-8,23.2-15.9,35.1-23.5c9.4-6.1,19.1-12,28.9-17.6c2.3-1.3,4.5-2.6,6.9-3.9
			C349.1,510.7,349.3,510.6,349.5,510.5z"/>
		<path class="st6" d="M560.8,607.2c-12.4-6.8-24.4-14.2-36.3-21.8c-11.9-7.6-23.5-15.5-35.1-23.5c-11.5-8.1-23-16.3-34.1-24.9
			c-9.1-6.9-18.2-14-26.9-21.4c-1.9-1.6-3.7-3.2-5.6-4.7c-0.2-0.1-0.3-0.3-0.4-0.4c0.2,0.1,0.4,0.2,0.5,0.3c2.3,1.3,4.6,2.6,6.9,3.9
			c9.8,5.6,19.4,11.6,28.9,17.6c11.9,7.6,23.5,15.5,35,23.5c11.5,8.1,23,16.3,34.1,24.9C539.1,589.2,550.1,597.9,560.8,607.2z"/>
	</g>
</g>
<g>
	<g>
		<path class="st14" d="M311.3,428.7h-2.4v-1.3h2.4c1.4,0,2.9,0,4.3,0v1.3C314.1,428.7,312.7,428.7,311.3,428.7z M300.5,428.6
			c-2.3,0-4.5-0.1-6.7-0.2v-1.3c2.2,0.1,4.4,0.1,6.7,0.2V428.6z M324,428.5v-1.3c2.2-0.1,4.4-0.1,6.7-0.2v1.3
			C328.4,428.4,326.2,428.5,324,428.5z M339.1,428l-0.1-1.3c2.2-0.1,4.4-0.2,6.7-0.3l0.1,1.3C343.5,427.8,341.3,427.9,339.1,428z
			 M285.4,428c-2.3-0.1-4.5-0.3-6.7-0.5l0.1-1.3c2.2,0.2,4.4,0.3,6.7,0.4L285.4,428z M354.2,427.1l-0.1-1.3c2.2-0.1,4.4-0.3,6.7-0.5
			l0.1,1.3C358.6,426.8,356.4,427,354.2,427.1z M270.3,426.8c-2.3-0.2-4.5-0.5-6.7-0.8l0.2-1.2c2.2,0.3,4.4,0.5,6.7,0.8L270.3,426.8
			z M369.2,426l-0.1-1.3c2.2-0.2,4.4-0.4,6.7-0.6l0.1,1.3C373.7,425.6,371.4,425.8,369.2,426z M255.3,424.8
			c-2.3-0.4-4.5-0.7-6.6-1.1l0.2-1.2c2.1,0.4,4.3,0.8,6.6,1.1L255.3,424.8z M384.3,424.6l-0.1-1.3c2.2-0.2,4.4-0.5,6.7-0.7l0.1,1.3
			C388.7,424.2,386.5,424.4,384.3,424.6z M399.3,423l-0.1-1.2l1.7-0.2c1.6-0.2,3.3-0.4,4.9-0.6l0.2,1.2c-1.6,0.2-3.3,0.4-4.9,0.6
			L399.3,423z M240.4,422c-2.2-0.5-4.4-1-6.5-1.6l0.3-1.2c2.1,0.6,4.3,1.1,6.5,1.6L240.4,422z M414.3,421l-0.2-1.2
			c2.2-0.4,4.4-0.7,6.6-1.1l0.2,1.2C418.7,420.2,416.5,420.6,414.3,421z M429.2,418.2l-0.3-1.2c2.2-0.5,4.4-0.9,6.5-1.4l0.3,1.2
			C433.6,417.2,431.4,417.7,429.2,418.2z M225.8,418.1c-2.2-0.7-4.3-1.4-6.4-2.2l0.4-1.2c2,0.8,4.2,1.5,6.3,2.2L225.8,418.1z
			 M443.9,414.7l-0.3-1.2c2.2-0.6,4.3-1.1,6.5-1.7l0.3,1.2C448.2,413.6,446.1,414.2,443.9,414.7z M211.6,412.7
			c-2.1-0.9-4.1-1.9-6.1-2.9l0.6-1.1c1.9,1,4,2,6,2.9L211.6,412.7z M458.5,410.7l-0.4-1.2c2.1-0.6,4.3-1.3,6.4-1.9l0.4,1.2
			C462.7,409.4,460.6,410.1,458.5,410.7z M472.9,406.2l-0.4-1.2c2.1-0.7,4.2-1.4,6.3-2.2l0.4,1.2C477.1,404.7,475,405.5,472.9,406.2
			z M198.2,405.7c-1.9-1.2-3.8-2.4-5.6-3.7l0.7-1c1.8,1.3,3.6,2.5,5.5,3.7L198.2,405.7z M487.1,401.1l-0.4-1.2
			c2.1-0.8,4.2-1.6,6.3-2.4l0.5,1.2C491.3,399.6,489.2,400.4,487.1,401.1z M186,396.7c-1.7-1.5-3.4-3-4.9-4.6l0.9-0.9
			c1.5,1.6,3.2,3.1,4.9,4.6L186,396.7z M501.2,395.7l-0.5-1.2c2.1-0.8,4.1-1.7,6.2-2.6l0.5,1.2C505.4,394,503.3,394.8,501.2,395.7z
			 M515.2,389.8l-0.5-1.2c2.1-0.9,4.1-1.8,6.1-2.7l0.5,1.1C519.3,388,517.2,388.9,515.2,389.8z M175.4,385.8
			c-1.5-1.9-2.8-3.8-3.8-5.7l1.1-0.6c1,1.8,2.2,3.7,3.6,5.5L175.4,385.8z M528.9,383.5l-0.5-1.1c2-1,4.1-1.9,6.1-2.9l0.5,1.1
			C533,381.6,531,382.6,528.9,383.5z M542.6,376.9l-0.6-1.1c2-1,4-2,6-3l0.6,1.1C546.6,374.9,544.6,375.9,542.6,376.9z M168.8,372.1
			c-0.3-1.5-0.4-3.1-0.4-4.6c0-0.8,0-1.5,0.1-2.2l1.3,0.1c-0.1,0.7-0.1,1.4-0.1,2.1c0,1.5,0.1,2.9,0.4,4.4L168.8,372.1z M556,370
			l-0.6-1.1c2-1.1,4-2.1,5.9-3.2l0.6,1.1C560,367.9,558,368.9,556,370z M569.3,362.8l-0.6-1.1c2-1.1,3.9-2.2,5.8-3.3l0.6,1.1
			C573.2,360.5,571.3,361.6,569.3,362.8z M171.7,357.4l-1.2-0.5c0.8-2,1.8-4.1,3-6.1l1.1,0.7C173.4,353.5,172.4,355.5,171.7,357.4z
			 M582.4,355.2l-0.6-1.1c2-1.2,3.9-2.3,5.8-3.4l0.7,1.1C586.3,352.9,584.4,354,582.4,355.2z M595.3,347.3l-0.7-1.1
			c2.1-1.3,3.9-2.5,5.7-3.6l0.7,1.1C599.3,344.9,597.4,346.1,595.3,347.3z M179.5,344.8l-1-0.8c1.4-1.6,2.9-3.3,4.6-5l0.9,0.9
			C182.4,341.5,180.8,343.2,179.5,344.8z M608.1,339.1l-0.7-1c3.6-2.4,5.6-3.8,5.6-3.8l0.7,1C613.6,335.3,611.7,336.7,608.1,339.1z
			 M190.2,334.3l-0.8-1c1.7-1.4,3.5-2.8,5.3-4.2l0.7,1C193.6,331.6,191.8,333,190.2,334.3z M202.3,325.5l-0.7-1.1
			c1.8-1.2,3.8-2.4,5.7-3.6l0.6,1.1C206,323.1,204.1,324.3,202.3,325.5z M215.3,317.8l-0.6-1.1c1.9-1,4-2.1,6-3.1l0.6,1.1
			C219.2,315.7,217.2,316.7,215.3,317.8z M228.8,311.2l-0.5-1.1c2.1-0.9,4.2-1.8,6.2-2.6l0.5,1.2
			C232.9,309.4,230.9,310.2,228.8,311.2z"/>
		<g>
			<polygon class="st15" points="623,305.6 613.3,334.8 634.9,317 718.5,284.1 			"/>
			<polygon class="st16" points="623,305.6 613.3,334.8 634.9,317 718.5,284.1 			"/>
			<polygon class="st17" points="637.9,323.6 613.3,334.8 634.9,317 			"/>
			<polygon class="st15" points="634.9,317 718.5,284.1 651.1,353.5 			"/>
			<polygon class="st15" points="623,305.6 587.3,283.9 718.5,284.1 			"/>
		</g>
	</g>
	<g>
		<g>
			<path class="st14" d="M560.4,587.4c-1-1-2-1.9-3.1-2.9l1.1-1.2c1,1,2.1,1.9,3.1,2.9L560.4,587.4z"/>
			<path class="st14" d="M546.5,754.7v-1.6c2.8-0.1,5.7-0.2,8.4-0.5l0.2,1.6C552.3,754.4,549.4,754.6,546.5,754.7z M535.9,754.5
				c-2.8-0.2-5.6-0.4-8.5-0.7l0.2-1.6c2.8,0.3,5.6,0.6,8.4,0.7L535.9,754.5z M565.6,752.5l-0.3-1.5c2.8-0.6,5.5-1.3,8.1-2.1l0.5,1.5
				C571.2,751.2,568.4,751.9,565.6,752.5z M516.9,752.2c-2.7-0.5-5.5-1.1-8.3-1.8l0.4-1.5c2.8,0.7,5.6,1.2,8.2,1.7L516.9,752.2z
				 M498.3,747.7c-2.7-0.8-5.4-1.7-8.1-2.6l0.5-1.5c2.7,0.9,5.4,1.8,8,2.5L498.3,747.7z M583.8,746.5l-0.7-1.4c2.6-1.2,5-2.6,7.3-4
				l0.8,1.3C588.9,743.9,586.4,745.3,583.8,746.5z M480.2,741.5c-2.6-1-5.3-2.1-7.9-3.2l0.6-1.5c2.6,1.1,5.2,2.2,7.8,3.2
				L480.2,741.5z M599.8,735.9l-1.1-1.2c2.1-1.9,4-3.9,5.7-6l1.2,1C603.9,731.9,602,734,599.8,735.9z M462.7,733.9
				c-2.5-1.2-5-2.5-7.6-3.8l0.7-1.4c2.5,1.3,5.1,2.6,7.6,3.8L462.7,733.9z M445.8,725c-2.5-1.4-4.9-2.8-7.3-4.3l0.8-1.4
				c2.4,1.4,4.8,2.8,7.3,4.2L445.8,725z M611.7,720.8l-1.4-0.8c1.3-2.4,2.4-5,3.4-7.6l1.5,0.5C614.2,715.7,613,718.3,611.7,720.8z
				 M429.5,715.2c-2.4-1.5-4.7-3.1-7.1-4.7l0.9-1.3c2.3,1.6,4.6,3.1,7,4.7L429.5,715.2z M413.8,704.3c-2.3-1.7-4.5-3.4-6.8-5.1
				l1-1.2c2.2,1.7,4.5,3.4,6.7,5.1L413.8,704.3z M617.9,702.6l-1.6-0.3c0.5-2.7,0.8-5.5,0.9-8.3l1.6,0.1
				C618.6,697,618.3,699.9,617.9,702.6z M398.7,692.6c-2.2-1.8-4.4-3.6-6.5-5.5l1-1.2c2.1,1.8,4.3,3.6,6.5,5.4L398.7,692.6z
				 M616.9,683.6c-0.3-2.7-0.7-5.5-1.2-8.3l1.6-0.3c0.6,2.8,1,5.7,1.2,8.4L616.9,683.6z M384.3,680.1c-2.1-1.9-4.2-3.8-6.2-5.7
				l1.1-1.2c2.1,1.9,4.1,3.8,6.2,5.7L384.3,680.1z M370.4,667.1c-2-2-4-3.9-6.1-5.9l1.1-1.1c2,2,4,4,6,5.9L370.4,667.1z
				 M613.1,665.1c-0.8-2.6-1.7-5.3-2.8-7.9l1.5-0.6c1,2.7,2,5.4,2.8,8.1L613.1,665.1z M356.9,653.7c-2-2-3.9-4-5.9-6.1l1.1-1.1
				c2,2,3.9,4,5.9,6.1L356.9,653.7z M606.2,647.5c-1.2-2.5-2.5-5-3.9-7.5l1.4-0.8c1.4,2.5,2.7,5,3.9,7.6L606.2,647.5z M343.6,640
				c-1.9-2-3.9-4.1-5.8-6.1l1.1-1.1c2,2.1,3.9,4.1,5.8,6.1L343.6,640z M596.9,631c-1.5-2.3-3.1-4.7-4.7-7l1.3-0.9
				c1.7,2.4,3.2,4.7,4.7,7.1L596.9,631z M330.5,626.2l-5.8-6.1l1.1-1.1l5.8,6.1L330.5,626.2z M586,615.5c-1.7-2.2-3.5-4.4-5.3-6.6
				l1.2-1c1.9,2.2,3.7,4.4,5.3,6.6L586,615.5z M317.3,612.4c-1.9-2-3.9-4-5.9-6.1l1.1-1.1c2,2,3.9,4.1,5.9,6.1L317.3,612.4z
				 M573.7,601c-1.9-2-3.8-4.1-5.8-6.1l1.1-1.1c2,2.1,3.9,4.1,5.8,6.2L573.7,601z M304.1,598.8c-2-2-4-4-6-6l1.1-1.1c2,2,4,4,6,6
				L304.1,598.8z M290.5,585.4c-2-2-4-3.9-6.1-5.9l1.1-1.1c2.1,2,4.1,3.9,6.1,5.9L290.5,585.4z M276.7,572.3
				c-2.1-1.9-4.1-3.8-6.3-5.7l1.1-1.2c2.1,1.9,4.2,3.8,6.3,5.7L276.7,572.3z M262.6,559.7c-2.1-1.8-4.2-3.7-6.4-5.5l1-1.2
				c2.2,1.8,4.3,3.7,6.4,5.5L262.6,559.7z M248,547.4c-2.2-1.8-4.4-3.5-6.6-5.3l1-1.2c2.2,1.8,4.4,3.5,6.6,5.3L248,547.4z
				 M233.1,535.7c-2.2-1.7-4.5-3.4-6.8-5.1l0.9-1.3c2.3,1.7,4.6,3.4,6.8,5.1L233.1,535.7z M217.8,524.4c-2.3-1.6-4.6-3.2-6.9-4.8
				l0.9-1.3c2.3,1.6,4.7,3.2,7,4.8L217.8,524.4z M202.1,513.7c-2.3-1.5-4.7-3.1-7.1-4.6l0.9-1.3c2.4,1.5,4.8,3.1,7.1,4.6
				L202.1,513.7z M186,503.5c-2.4-1.5-4.8-2.9-7.2-4.4l0.8-1.4c2.5,1.5,4.9,2.9,7.3,4.4L186,503.5z M169.6,493.8
				c-2.4-1.4-4.9-2.8-7.4-4.1l0.8-1.4c2.5,1.4,5,2.8,7.4,4.1L169.6,493.8z M153,484.7c-2.5-1.3-5-2.6-7.5-3.9l0.7-1.4
				c2.5,1.3,5,2.6,7.5,3.9L153,484.7z M136,476c-2.5-1.2-5-2.5-7.6-3.7l0.7-1.4c2.6,1.2,5.1,2.5,7.6,3.7L136,476z M118.9,467.9
				c-2.5-1.2-5.1-2.3-7.7-3.5l0.6-1.4c2.6,1.2,5.2,2.3,7.7,3.5L118.9,467.9z M101.5,460.2c-2.6-1.1-5.2-2.2-7.8-3.3l0.6-1.5
				c2.6,1.1,5.2,2.2,7.8,3.3L101.5,460.2z"/>
			<path class="st14" d="M83.4,452.7c-1.3-0.5-2.6-1-3.9-1.6l0.6-1.5c1.3,0.5,2.6,1,3.9,1.6L83.4,452.7z"/>
		</g>
		<g>
			<polygon class="st15" points="135.8,452.8 149.8,491.1 120.5,468.2 8.6,427.6 			"/>
			<polygon class="st16" points="135.8,452.8 149.8,491.1 120.5,468.2 8.6,427.6 			"/>
			<polygon class="st17" points="116.8,477.2 149.8,491.1 120.5,468.2 			"/>
			<polygon class="st15" points="120.5,468.2 8.6,427.6 100.4,517.2 			"/>
			<polygon class="st15" points="135.8,452.8 182.4,422.8 8.6,427.6 			"/>
		</g>
	</g>
</g>
<g>
	<g>
		<path class="st18" d="M8.8,176.1c5.3,51.1,51.2,88.3,102.3,82.9c20.7-2.2,39-10.9,53.3-24l46.6,6.8l-23.3-40.3
			c5.7-13.8,8-29.1,6.4-44.8c-5.3-51.1-51.2-88.3-102.3-82.9S3.4,125,8.8,176.1z"/>
		<path class="st18" d="M36.7,99.2c10.1-9.9,22.4-17.5,35.9-22s28-5.8,42.1-3.9s27.9,6.9,39.7,14.9c11.9,8,21.9,18.6,29.2,31
			c14.5,24.8,17,56.4,5.7,83l-0.1-1.6l23.2,40.3l1.7,3l-3.4-0.5l-46.5-7.1l1.1-0.3c-12.9,11.7-29,19.7-46.1,22.7
			c-4.3,0.8-8.6,1.2-12.9,1.3c-4.3,0.4-8.6,0-12.9-0.2c-8.5-1-17.1-2.6-25.1-6c-8-3.1-15.6-7.3-22.5-12.5c-3.6-2.4-6.6-5.5-9.8-8.3
			c-2.9-3.2-6-6.2-8.4-9.7C17,209.8,10.8,193.1,8.8,176.1C5.8,148.1,16.1,118.8,36.7,99.2z M27.9,223.1c2.5,3.5,5.6,6.4,8.5,9.6
			c3.2,2.8,6.3,5.8,9.8,8.2c6.8,5.2,14.5,9.1,22.5,12.1c7.9,3.2,16.4,4.6,24.9,5.5c4.3,0.2,8.5,0.5,12.7,0c4.2-0.2,8.5-0.7,12.6-1.5
			c16.7-3.3,32.3-11.4,44.6-23l0.5-0.4l0.6,0.1l46.6,6.5l-1.7,2.5L186,202.5l-0.4-0.8l0.3-0.8c5.2-12.8,7.4-26.8,6.6-40.6
			c-1.1-13.7-4.8-27.4-11.8-39.4c-6.9-12-16.5-22.4-27.9-30.4s-24.7-13.1-38.4-15.2c-13.8-2.1-28-1.1-41.4,3.1
			C59.6,82.7,47.3,90,37.1,99.7C16.5,118.9,6,148.1,8.8,176.1C10.8,193.1,17.2,209.7,27.9,223.1z"/>
	</g>
	<g>
		<path class="st8" d="M125.3,193.5l-2-8.3c-0.5-2.2-0.5-4.5,0-6.6l2.8-11.9c2.5-10.6-3.1-21.1-12.8-25.8c0.1-0.2,0.2-0.4,0.2-0.7
			c0.7-3-1.3-6-4.4-6.7s-6.3,1.2-7,4.2c-0.1,0.2-0.1,0.5-0.1,0.7c-10.8,0.2-20.5,7.5-23,18.1l-2.8,11.9c-0.5,2.2-1.5,4.2-3,6
			l-5.5,6.7c-2.3,2.9-0.8,7.1,2.9,7.9l48.4,10.4C122.9,200.2,126.2,197.1,125.3,193.5z"/>
		<path class="st8" d="M88.7,196.1c-1.6-0.3-3,1-2.7,2.5c0.6,3.1,3,5.8,6.4,6.5s6.8-0.6,8.7-3.2c0.9-1.3,0.2-3.1-1.4-3.4L88.7,196.1
			z"/>
	</g>
	<g>
		<path class="st8" d="M51.6,179.6c-0.5,0-1-0.2-1.3-0.7c-4.9-7-6.6-15.4-4.9-23.6c1.7-8.2,6.6-15.3,13.9-20
			c0.7-0.5,1.7-0.3,2.1,0.4c0.5,0.7,0.3,1.6-0.4,2c-6.6,4.2-11.1,10.7-12.6,18.1c-1.5,7.5,0,15.1,4.4,21.4c0.5,0.7,0.3,1.6-0.4,2
			C52.2,179.5,51.9,179.6,51.6,179.6z"/>
		<path class="st8" d="M58,175.4c-0.5,0-1-0.2-1.3-0.7c-3.7-5.3-5-11.7-3.7-18s5.1-11.7,10.6-15.2c0.7-0.5,1.7-0.3,2.1,0.4
			c0.5,0.7,0.3,1.6-0.4,2c-4.9,3.1-8.2,7.9-9.3,13.4s0,11.1,3.3,15.8c0.5,0.7,0.3,1.6-0.4,2C58.6,175.3,58.3,175.4,58,175.4z"/>
		<path class="st8" d="M64.5,171.2c-0.5,0-1-0.2-1.3-0.7c-2.5-3.7-3.4-8-2.6-12.4c0.9-4.3,3.5-8,7.3-10.5c0.7-0.5,1.7-0.3,2.1,0.4
			c0.5,0.7,0.3,1.6-0.4,2c-3.1,2-5.2,5.1-6,8.6c-0.7,3.5,0,7.1,2.1,10.1c0.5,0.7,0.3,1.6-0.4,2C65.1,171.1,64.8,171.2,64.5,171.2z"
			/>
	</g>
	<g>
		<path class="st8" d="M139.7,200.2c-0.6,0-1.1-0.3-1.4-0.8c-0.4-0.7-0.1-1.6,0.7-2c7-3.5,12.2-9.4,14.6-16.7
			c2.4-7.3,1.7-15-1.9-21.7c-0.4-0.7-0.1-1.6,0.7-2s1.7-0.1,2.1,0.6c4,7.5,4.8,16,2.1,24s-8.4,14.5-16.1,18.4
			C140.2,200.2,139.9,200.2,139.7,200.2z"/>
		<path class="st8" d="M136.1,193.6c-0.6,0-1.1-0.3-1.4-0.8c-0.4-0.7-0.1-1.6,0.7-2c5.2-2.6,9-6.9,10.8-12.3c1.8-5.3,1.3-11-1.4-16
			c-0.4-0.7-0.1-1.6,0.7-2s1.7-0.1,2.1,0.6c3.1,5.7,3.6,12.2,1.6,18.3s-6.4,11.1-12.3,14C136.6,193.5,136.4,193.6,136.1,193.6z"/>
		<path class="st8" d="M132.6,186.9c-0.6,0-1.1-0.3-1.4-0.8c-0.4-0.7-0.1-1.6,0.7-2c3.3-1.7,5.8-4.5,6.9-7.9
			c1.1-3.4,0.8-7.1-0.9-10.3c-0.4-0.7-0.1-1.6,0.7-2s1.7-0.1,2.1,0.6c4.3,8.1,1,18-7.4,22.2C133,186.9,132.8,186.9,132.6,186.9z"/>
	</g>
</g>
<g>
	<path class="st19" d="M526.5,147.1l63.2,47.5c2,1.5,3.3,3.8,3.6,6.3l3.5,28.1c0.4,3.3,4.6,4.4,6.6,1.8l18.6-24.7l46.6-62.1
		c6.6-8.7,4.8-21.2-3.9-27.7l-75.9-57.1c-7.1-5.4-17.2-3.9-22.6,3.2l-43.4,57.8C516.3,128.7,518,140.7,526.5,147.1z"/>
	<path class="st8" d="M613.4,148c-2.2,3-1.6,7.2,1.3,9.5c3,2.2,7.2,1.6,9.5-1.3c2.2-3,1.6-7.2-1.3-9.5
		C619.9,144.5,615.6,145.1,613.4,148z"/>
	<path class="st8" d="M588,129c-2.2,3-1.6,7.2,1.3,9.5c3,2.2,7.2,1.6,9.5-1.3c2.2-3,1.6-7.2-1.3-9.5C594.5,125.4,590.3,126,588,129z
		"/>
	<path class="st8" d="M562.1,109.5c-2.2,3-1.6,7.2,1.3,9.5c3,2.2,7.2,1.6,9.5-1.3c2.2-3,1.6-7.2-1.3-9.5
		C568.6,105.9,564.3,106.5,562.1,109.5z"/>
</g>
<g>
	<path class="st20" d="M385.2,57.1h-28.4V28.6L385.2,57.1z M359.3,54.6h20l-20-20V54.6z"/>
</g>
<g>
	<g>
		<polygon class="st21" points="199.6,45.6 182,30.8 185.2,28 202.8,42.9 		"/>
	</g>
	<g>
		
			<rect x="180" y="36.2" transform="matrix(0.7071 -0.7071 0.7071 0.7071 29.1471 147.354)" class="st21" width="24.8" height="4.6"/>
	</g>
</g>
<g>
	<polygon class="st21" points="786.4,506.2 801.2,504.5 801.7,508.4 790,509.9 788.4,523.1 775.2,524.7 773.6,537.9 760.4,539.5 
		758.8,552.7 745.6,554.3 744,567.5 730.8,569.1 729.3,580.8 725.4,580.3 727.2,565.5 740.4,563.9 742,550.7 755.2,549.1 
		756.8,535.9 770,534.3 771.6,521.1 784.8,519.5 	"/>
</g>
<g class="st22">
	<rect x="78.2" y="689.9" class="st23" width="12.2" height="12.2"/>
	<rect x="61.4" y="654.5" class="st23" width="14.2" height="14.2"/>
	<rect x="81.4" y="622.5" class="st23" width="12.3" height="12.3"/>
	<rect x="111.4" y="591.8" class="st23" width="6.7" height="6.7"/>
	<rect x="161.9" y="643.3" class="st23" width="12" height="12"/>
	<rect x="59.5" y="592" class="st23" width="6.6" height="6.6"/>
	<rect x="118.2" y="641.7" class="st23" width="9" height="9"/>
	<rect x="136.3" y="605.8" class="st23" width="14" height="14"/>
	<rect x="28.9" y="654.5" class="st23" width="32.5" height="1.1"/>
	<rect x="128.6" y="684.6" class="st23" width="5.5" height="5.5"/>
	<rect x="31.7" y="678.7" class="st23" width="17.5" height="17.5"/>
	<rect x="98.8" y="663.2" class="st23" width="14.3" height="14.3"/>
	<rect x="88.5" y="713.8" class="st23" width="17.2" height="17.2"/>
	<rect x="42.7" y="622.1" class="st23" width="13.2" height="13.2"/>
</g>
<g>
	<path class="st20" d="M393.3,782.8h-30.6v-30.6L393.3,782.8z M365.4,780.1h21.5l-21.5-21.5V780.1z"/>
</g>
<g>
	<g>
		<polygon class="st21" points="503.8,803.3 486.2,788.5 489.5,785.7 507,800.6 		"/>
	</g>
	<g>
		
			<rect x="484.2" y="793.9" transform="matrix(0.7071 -0.7071 0.7071 0.7071 -417.5473 584.3857)" class="st21" width="24.8" height="4.6"/>
	</g>
</g>
<g>
	<g>
		<g class="st24">
			<g>
				
					<linearGradient id="SVGID_4_" gradientUnits="userSpaceOnUse" x1="589.4163" y1="526.3608" x2="611.924" y2="526.3608" gradientTransform="matrix(0.9552 0.2961 0.2961 -0.9552 -502.7883 1099.6799)">
					<stop  offset="0" style="stop-color:#ED9F21"/>
					<stop  offset="0.2548" style="stop-color:#F1AA1E"/>
					<stop  offset="1" style="stop-color:#FFC907"/>
				</linearGradient>
				<polygon id="SVGID_32_" class="st25" points="211.3,787 219.9,759.8 242.4,762.5 233.8,789 				"/>
			</g>
			<g>
				<defs>
					<polygon id="SVGID_5_" points="211.3,787 219.9,759.8 242.4,762.5 233.8,789 					"/>
				</defs>
				<clipPath id="SVGID_6_">
					<use xlink:href="#SVGID_5_"  style="overflow:visible;"/>
				</clipPath>
			</g>
		</g>
	</g>
	<g>
		<g>
			<polygon class="st26" points="219,760 203.2,749.7 225.5,752.6 241.5,762.7 			"/>
			
				<linearGradient id="SVGID_7_" gradientUnits="userSpaceOnUse" x1="247.4705" y1="119.9355" x2="242.6015" y2="114.1329" gradientTransform="matrix(0.9979 1.410000e-02 1.410000e-02 -0.9979 -23.9057 869.5729)">
				<stop  offset="0" style="stop-color:#FED725"/>
				<stop  offset="1" style="stop-color:#FED625"/>
			</linearGradient>
			<polygon class="st27" points="219,760 203.2,749.7 225.5,752.6 241.5,762.7 			"/>
			
				<linearGradient id="SVGID_8_" gradientUnits="userSpaceOnUse" x1="270.1359" y1="135.8636" x2="265.0915" y2="129.8519" gradientTransform="matrix(0.9957 2.820000e-02 2.820000e-02 -0.9957 -47.9212 880.9528)">
				<stop  offset="0" style="stop-color:#FED724"/>
				<stop  offset="1" style="stop-color:#FED424"/>
			</linearGradient>
			<polygon class="st28" points="219,759.9 203.2,749.7 225.5,752.6 241.5,762.7 			"/>
			
				<linearGradient id="SVGID_9_" gradientUnits="userSpaceOnUse" x1="292.2738" y1="152.598" x2="287.055" y2="146.3785" gradientTransform="matrix(0.9936 4.230000e-02 4.230000e-02 -0.9936 -71.8269 892.5257)">
				<stop  offset="0" style="stop-color:#FED722"/>
				<stop  offset="1" style="stop-color:#FED323"/>
			</linearGradient>
			<polygon class="st29" points="219,759.9 203.3,749.7 225.5,752.6 241.5,762.7 			"/>
			
				<linearGradient id="SVGID_10_" gradientUnits="userSpaceOnUse" x1="313.964" y1="170.0299" x2="308.5721" y2="163.6042" gradientTransform="matrix(0.9915 5.640000e-02 5.640000e-02 -0.9915 -95.7326 904.0986)">
				<stop  offset="0" style="stop-color:#FED721"/>
				<stop  offset="0.8589" style="stop-color:#FED322"/>
				<stop  offset="1" style="stop-color:#FED222"/>
			</linearGradient>
			<polygon class="st30" points="219,759.9 203.3,749.7 225.5,752.6 241.5,762.7 			"/>
			
				<linearGradient id="SVGID_11_" gradientUnits="userSpaceOnUse" x1="335.3886" y1="187.9866" x2="329.8252" y2="181.3565" gradientTransform="matrix(0.9893 7.050000e-02 7.050000e-02 -0.9893 -119.7481 915.4785)">
				<stop  offset="0" style="stop-color:#FED71F"/>
				<stop  offset="0.7398" style="stop-color:#FED320"/>
				<stop  offset="1" style="stop-color:#FED021"/>
			</linearGradient>
			<polygon class="st31" points="219,759.8 203.3,749.7 225.5,752.6 241.5,762.7 			"/>
			
				<linearGradient id="SVGID_12_" gradientUnits="userSpaceOnUse" x1="356.1539" y1="206.7188" x2="350.4208" y2="199.8864" gradientTransform="matrix(0.9872 8.460000e-02 8.460000e-02 -0.9872 -143.6538 927.0515)">
				<stop  offset="0" style="stop-color:#FED71D"/>
				<stop  offset="0.6548" style="stop-color:#FED31F"/>
				<stop  offset="1" style="stop-color:#FECF20"/>
			</linearGradient>
			<polygon class="st32" points="219,759.8 203.3,749.7 225.5,752.6 241.5,762.7 			"/>
			
				<linearGradient id="SVGID_13_" gradientUnits="userSpaceOnUse" x1="376.4116" y1="226.0716" x2="370.5107" y2="219.0391" gradientTransform="matrix(0.9851 9.870000e-02 9.870000e-02 -0.9851 -167.5595 938.6243)">
				<stop  offset="0" style="stop-color:#FED81C"/>
				<stop  offset="0.5907" style="stop-color:#FED31D"/>
				<stop  offset="1" style="stop-color:#FECE1F"/>
			</linearGradient>
			<polygon class="st33" points="219,759.8 203.3,749.7 225.5,752.6 241.5,762.7 			"/>
			
				<linearGradient id="SVGID_14_" gradientUnits="userSpaceOnUse" x1="396.327" y1="245.9005" x2="390.2604" y2="238.6705" gradientTransform="matrix(0.9829 0.1128 0.1128 -0.9829 -191.575 950.0043)">
				<stop  offset="0" style="stop-color:#FED81A"/>
				<stop  offset="0.5402" style="stop-color:#FED31B"/>
				<stop  offset="1" style="stop-color:#FECC1D"/>
			</linearGradient>
			<polygon class="st34" points="219,759.7 203.3,749.7 225.5,752.6 241.5,762.7 			"/>
			
				<linearGradient id="SVGID_15_" gradientUnits="userSpaceOnUse" x1="415.5162" y1="266.4105" x2="409.2864" y2="258.9863" gradientTransform="matrix(0.9808 0.1269 0.1269 -0.9808 -215.4807 961.577)">
				<stop  offset="0" style="stop-color:#FED818"/>
				<stop  offset="0.4996" style="stop-color:#FED31A"/>
				<stop  offset="1" style="stop-color:#FECB1C"/>
			</linearGradient>
			<polygon class="st35" points="219,759.7 203.4,749.7 225.5,752.6 241.5,762.7 			"/>
			
				<linearGradient id="SVGID_16_" gradientUnits="userSpaceOnUse" x1="434.0656" y1="287.5173" x2="427.6752" y2="279.9017" gradientTransform="matrix(0.9787 0.141 0.141 -0.9787 -239.3864 973.15)">
				<stop  offset="0" style="stop-color:#FED816"/>
				<stop  offset="0.4656" style="stop-color:#FED318"/>
				<stop  offset="1" style="stop-color:#FECA1B"/>
			</linearGradient>
			<polygon class="st36" points="219.1,759.7 203.4,749.7 225.5,752.6 241.4,762.7 			"/>
			
				<linearGradient id="SVGID_17_" gradientUnits="userSpaceOnUse" x1="452.2313" y1="309.0161" x2="445.6833" y2="301.2125" gradientTransform="matrix(0.9765 0.1551 0.1551 -0.9765 -263.4019 984.5298)">
				<stop  offset="0" style="stop-color:#FED814"/>
				<stop  offset="0.4369" style="stop-color:#FED316"/>
				<stop  offset="1" style="stop-color:#FEC81A"/>
			</linearGradient>
			<polygon class="st37" points="219.1,759.6 203.4,749.7 225.5,752.6 241.4,762.7 			"/>
			
				<linearGradient id="SVGID_18_" gradientUnits="userSpaceOnUse" x1="469.5645" y1="331.1313" x2="462.8618" y2="323.1432" gradientTransform="matrix(0.9744 0.1692 0.1692 -0.9744 -287.3076 996.1028)">
				<stop  offset="0" style="stop-color:#FED812"/>
				<stop  offset="0.4122" style="stop-color:#FED314"/>
				<stop  offset="1" style="stop-color:#FEC719"/>
			</linearGradient>
			<polygon class="st38" points="219.1,759.6 203.4,749.7 225.5,752.6 241.4,762.7 			"/>
			
				<linearGradient id="SVGID_19_" gradientUnits="userSpaceOnUse" x1="486.2137" y1="353.7433" x2="479.3593" y2="345.5747" gradientTransform="matrix(0.9723 0.1833 0.1833 -0.9723 -311.2133 1007.6757)">
				<stop  offset="0" style="stop-color:#FED810"/>
				<stop  offset="0.3907" style="stop-color:#FED413"/>
				<stop  offset="0.9508" style="stop-color:#FEC718"/>
				<stop  offset="1" style="stop-color:#FEC518"/>
			</linearGradient>
			<polygon class="st39" points="219.1,759.6 203.4,749.7 225.5,752.6 241.4,762.6 			"/>
			
				<linearGradient id="SVGID_20_" gradientUnits="userSpaceOnUse" x1="502.4502" y1="376.6514" x2="495.4478" y2="368.3062" gradientTransform="matrix(0.9701 0.1974 0.1974 -0.9701 -335.2288 1019.0556)">
				<stop  offset="0" style="stop-color:#FED80E"/>
				<stop  offset="0.3718" style="stop-color:#FED411"/>
				<stop  offset="0.9048" style="stop-color:#FEC716"/>
				<stop  offset="1" style="stop-color:#FEC418"/>
			</linearGradient>
			<polygon class="st40" points="219.1,759.6 203.5,749.7 225.5,752.6 241.4,762.6 			"/>
			
				<linearGradient id="SVGID_21_" gradientUnits="userSpaceOnUse" x1="517.7662" y1="400.097" x2="510.6193" y2="391.5797" gradientTransform="matrix(0.968 0.2115 0.2115 -0.968 -359.1345 1030.6285)">
				<stop  offset="0" style="stop-color:#FED80B"/>
				<stop  offset="0.3551" style="stop-color:#FED40F"/>
				<stop  offset="0.8641" style="stop-color:#FEC715"/>
				<stop  offset="1" style="stop-color:#FEC317"/>
			</linearGradient>
			<polygon class="st41" points="219.1,759.5 203.5,749.7 225.5,752.6 241.4,762.6 			"/>
			
				<linearGradient id="SVGID_22_" gradientUnits="userSpaceOnUse" x1="532.3762" y1="423.9237" x2="525.0884" y2="415.2384" gradientTransform="matrix(0.9659 0.2256 0.2256 -0.9659 -383.0402 1042.2014)">
				<stop  offset="0" style="stop-color:#FED809"/>
				<stop  offset="0.3401" style="stop-color:#FED40C"/>
				<stop  offset="0.8276" style="stop-color:#FEC714"/>
				<stop  offset="1" style="stop-color:#FEC116"/>
			</linearGradient>
			<polygon class="st42" points="219.1,759.5 203.5,749.7 225.5,752.6 241.4,762.6 			"/>
			
				<linearGradient id="SVGID_23_" gradientUnits="userSpaceOnUse" x1="546.477" y1="448.0107" x2="539.0522" y2="439.162" gradientTransform="matrix(0.9637 0.2397 0.2397 -0.9637 -407.0557 1053.5813)">
				<stop  offset="0" style="stop-color:#FED806"/>
				<stop  offset="0.3265" style="stop-color:#FED40A"/>
				<stop  offset="0.7946" style="stop-color:#FEC712"/>
				<stop  offset="1" style="stop-color:#FEC015"/>
			</linearGradient>
			<polygon class="st43" points="219.1,759.5 203.5,749.7 225.5,752.6 241.4,762.6 			"/>
			
				<linearGradient id="SVGID_24_" gradientUnits="userSpaceOnUse" x1="559.6368" y1="472.507" x2="552.079" y2="463.5" gradientTransform="matrix(0.9616 0.2538 0.2538 -0.9616 -430.9614 1065.1542)">
				<stop  offset="0" style="stop-color:#FED904"/>
				<stop  offset="0.3143" style="stop-color:#FED408"/>
				<stop  offset="0.7648" style="stop-color:#FDC711"/>
				<stop  offset="1" style="stop-color:#FEBF14"/>
			</linearGradient>
			<polygon class="st44" points="219.1,759.4 203.5,749.7 225.5,752.6 241.4,762.6 			"/>
			
				<linearGradient id="SVGID_25_" gradientUnits="userSpaceOnUse" x1="572.077" y1="497.2687" x2="564.3903" y2="488.1083" gradientTransform="matrix(0.9595 0.2679 0.2679 -0.9595 -454.8671 1076.7272)">
				<stop  offset="0" style="stop-color:#FED901"/>
				<stop  offset="0.3032" style="stop-color:#FED405"/>
				<stop  offset="0.7376" style="stop-color:#FDC70F"/>
				<stop  offset="1" style="stop-color:#FEBD14"/>
			</linearGradient>
			<polygon class="st45" points="219.1,759.4 203.6,749.7 225.5,752.6 241.4,762.6 			"/>
			
				<linearGradient id="SVGID_26_" gradientUnits="userSpaceOnUse" x1="583.9578" y1="522.2241" x2="576.1467" y2="512.9152" gradientTransform="matrix(0.9573 0.282 0.282 -0.9573 -478.8826 1088.1071)">
				<stop  offset="0" style="stop-color:#FED900"/>
				<stop  offset="0.293" style="stop-color:#FED403"/>
				<stop  offset="0.7128" style="stop-color:#FDC80D"/>
				<stop  offset="1" style="stop-color:#FEBC13"/>
			</linearGradient>
			<polygon class="st46" points="219.1,759.4 203.6,749.7 225.5,752.6 241.4,762.6 			"/>
			
				<linearGradient id="SVGID_27_" gradientUnits="userSpaceOnUse" x1="594.851" y1="547.4938" x2="586.9197" y2="538.0417" gradientTransform="matrix(0.9552 0.2961 0.2961 -0.9552 -502.7883 1099.6799)">
				<stop  offset="0" style="stop-color:#FED900"/>
				<stop  offset="0.2836" style="stop-color:#FED401"/>
				<stop  offset="0.6899" style="stop-color:#FDC80B"/>
				<stop  offset="1" style="stop-color:#FEBB12"/>
			</linearGradient>
			<polygon class="st47" points="219.2,759.3 203.6,749.7 225.5,752.6 241.3,762.6 			"/>
		</g>
	</g>
	<g>
		<g>
			<g class="st24">
				<g>
					
						<linearGradient id="SVGID_28_" gradientUnits="userSpaceOnUse" x1="611.7729" y1="1266.9722" x2="634.2805" y2="1266.9722" gradientTransform="matrix(0.9552 0.2961 0.2961 -0.9552 -502.7883 1099.6799)">
						<stop  offset="0" style="stop-color:#ED9F21"/>
						<stop  offset="0.2548" style="stop-color:#F1AA1E"/>
						<stop  offset="1" style="stop-color:#FFC907"/>
					</linearGradient>
					<polygon id="SVGID_1_" class="st48" points="451.9,86.2 460.5,59 483,61.7 474.4,88.2 					"/>
				</g>
				<g>
					<defs>
						<polygon id="SVGID_29_" points="451.9,86.2 460.5,59 483,61.7 474.4,88.2 						"/>
					</defs>
					<clipPath id="SVGID_30_">
						<use xlink:href="#SVGID_29_"  style="overflow:visible;"/>
					</clipPath>
				</g>
			</g>
		</g>
		<g>
			<g>
				<polygon class="st26" points="459.6,59.2 443.8,48.9 466.1,51.8 482.1,61.9 				"/>
				
					<linearGradient id="SVGID_31_" gradientUnits="userSpaceOnUse" x1="478.6577" y1="825.4891" x2="473.7887" y2="819.6865" gradientTransform="matrix(0.9979 1.410000e-02 1.410000e-02 -0.9979 -23.9057 869.5729)">
					<stop  offset="0" style="stop-color:#FED725"/>
					<stop  offset="1" style="stop-color:#FED625"/>
				</linearGradient>
				<polygon class="st49" points="459.6,59.2 443.8,48.9 466.1,51.8 482.1,61.9 				"/>
				
					<linearGradient id="SVGID_33_" gradientUnits="userSpaceOnUse" x1="491.7135" y1="845.9777" x2="486.6691" y2="839.9661" gradientTransform="matrix(0.9957 2.820000e-02 2.820000e-02 -0.9957 -47.9212 880.9528)">
					<stop  offset="0" style="stop-color:#FED724"/>
					<stop  offset="1" style="stop-color:#FED424"/>
				</linearGradient>
				<polygon class="st50" points="459.6,59.1 443.8,48.9 466.1,51.8 482.1,61.9 				"/>
				
					<linearGradient id="SVGID_34_" gradientUnits="userSpaceOnUse" x1="504.0626" y1="866.9407" x2="498.8438" y2="860.7211" gradientTransform="matrix(0.9936 4.230000e-02 4.230000e-02 -0.9936 -71.8269 892.5257)">
					<stop  offset="0" style="stop-color:#FED722"/>
					<stop  offset="1" style="stop-color:#FED323"/>
				</linearGradient>
				<polygon class="st51" points="459.6,59.1 443.9,48.9 466.1,51.8 482.1,61.9 				"/>
				
					<linearGradient id="SVGID_35_" gradientUnits="userSpaceOnUse" x1="515.8176" y1="888.3322" x2="510.4256" y2="881.9066" gradientTransform="matrix(0.9915 5.640000e-02 5.640000e-02 -0.9915 -95.7326 904.0986)">
					<stop  offset="0" style="stop-color:#FED721"/>
					<stop  offset="0.8589" style="stop-color:#FED322"/>
					<stop  offset="1" style="stop-color:#FED222"/>
				</linearGradient>
				<polygon class="st52" points="459.6,59.1 443.9,48.9 466.1,51.8 482.1,61.9 				"/>
				
					<linearGradient id="SVGID_36_" gradientUnits="userSpaceOnUse" x1="527.1856" y1="910.0466" x2="521.6222" y2="903.4164" gradientTransform="matrix(0.9893 7.050000e-02 7.050000e-02 -0.9893 -119.7481 915.4785)">
					<stop  offset="0" style="stop-color:#FED71F"/>
					<stop  offset="0.7398" style="stop-color:#FED320"/>
					<stop  offset="1" style="stop-color:#FED021"/>
				</linearGradient>
				<polygon class="st53" points="459.6,59 443.9,48.9 466.1,51.8 482.1,61.9 				"/>
				
					<linearGradient id="SVGID_37_" gradientUnits="userSpaceOnUse" x1="537.7543" y1="932.1803" x2="532.0212" y2="925.3478" gradientTransform="matrix(0.9872 8.460000e-02 8.460000e-02 -0.9872 -143.6538 927.0515)">
					<stop  offset="0" style="stop-color:#FED71D"/>
					<stop  offset="0.6548" style="stop-color:#FED31F"/>
					<stop  offset="1" style="stop-color:#FECF20"/>
				</linearGradient>
				<polygon class="st54" points="459.6,59 443.9,48.9 466.1,51.8 482.1,61.9 				"/>
				
					<linearGradient id="SVGID_38_" gradientUnits="userSpaceOnUse" x1="547.7036" y1="954.6461" x2="541.8027" y2="947.6136" gradientTransform="matrix(0.9851 9.870000e-02 9.870000e-02 -0.9851 -167.5595 938.6243)">
					<stop  offset="0" style="stop-color:#FED81C"/>
					<stop  offset="0.5907" style="stop-color:#FED31D"/>
					<stop  offset="1" style="stop-color:#FECE1F"/>
				</linearGradient>
				<polygon class="st55" points="459.6,59 443.9,48.9 466.1,51.8 482.1,61.9 				"/>
				
					<linearGradient id="SVGID_39_" gradientUnits="userSpaceOnUse" x1="557.2186" y1="977.3693" x2="551.152" y2="970.1394" gradientTransform="matrix(0.9829 0.1128 0.1128 -0.9829 -191.575 950.0043)">
					<stop  offset="0" style="stop-color:#FED81A"/>
					<stop  offset="0.5402" style="stop-color:#FED31B"/>
					<stop  offset="1" style="stop-color:#FECC1D"/>
				</linearGradient>
				<polygon class="st56" points="459.6,58.9 443.9,48.9 466.1,51.8 482.1,61.9 				"/>
				
					<linearGradient id="SVGID_40_" gradientUnits="userSpaceOnUse" x1="565.9105" y1="1000.4003" x2="559.6807" y2="992.9761" gradientTransform="matrix(0.9808 0.1269 0.1269 -0.9808 -215.4807 961.577)">
					<stop  offset="0" style="stop-color:#FED818"/>
					<stop  offset="0.4996" style="stop-color:#FED31A"/>
					<stop  offset="1" style="stop-color:#FECB1C"/>
				</linearGradient>
				<polygon class="st57" points="459.6,58.9 444,48.9 466.1,51.8 482.1,61.9 				"/>
				
					<linearGradient id="SVGID_41_" gradientUnits="userSpaceOnUse" x1="573.8884" y1="1023.7258" x2="567.4981" y2="1016.1101" gradientTransform="matrix(0.9787 0.141 0.141 -0.9787 -239.3864 973.15)">
					<stop  offset="0" style="stop-color:#FED816"/>
					<stop  offset="0.4656" style="stop-color:#FED318"/>
					<stop  offset="1" style="stop-color:#FECA1B"/>
				</linearGradient>
				<polygon class="st58" points="459.7,58.9 444,48.9 466.1,51.8 482,61.9 				"/>
				
					<linearGradient id="SVGID_42_" gradientUnits="userSpaceOnUse" x1="581.4229" y1="1047.2136" x2="574.8749" y2="1039.4099" gradientTransform="matrix(0.9765 0.1551 0.1551 -0.9765 -263.4019 984.5298)">
					<stop  offset="0" style="stop-color:#FED814"/>
					<stop  offset="0.4369" style="stop-color:#FED316"/>
					<stop  offset="1" style="stop-color:#FEC81A"/>
				</linearGradient>
				<polygon class="st59" points="459.7,58.8 444,48.9 466.1,51.8 482,61.9 				"/>
				
					<linearGradient id="SVGID_43_" gradientUnits="userSpaceOnUse" x1="588.0737" y1="1070.9342" x2="581.371" y2="1062.9462" gradientTransform="matrix(0.9744 0.1692 0.1692 -0.9744 -287.3076 996.1028)">
					<stop  offset="0" style="stop-color:#FED812"/>
					<stop  offset="0.4122" style="stop-color:#FED314"/>
					<stop  offset="1" style="stop-color:#FEC719"/>
				</linearGradient>
				<polygon class="st60" points="459.7,58.8 444,48.9 466.1,51.8 482,61.9 				"/>
				
					<linearGradient id="SVGID_44_" gradientUnits="userSpaceOnUse" x1="594.0061" y1="1094.8423" x2="587.1518" y2="1086.6737" gradientTransform="matrix(0.9723 0.1833 0.1833 -0.9723 -311.2133 1007.6757)">
					<stop  offset="0" style="stop-color:#FED810"/>
					<stop  offset="0.3907" style="stop-color:#FED413"/>
					<stop  offset="0.9508" style="stop-color:#FEC718"/>
					<stop  offset="1" style="stop-color:#FEC518"/>
				</linearGradient>
				<polygon class="st61" points="459.7,58.8 444,48.9 466.1,51.8 482,61.8 				"/>
				
					<linearGradient id="SVGID_45_" gradientUnits="userSpaceOnUse" x1="599.4996" y1="1118.8116" x2="592.4972" y2="1110.4664" gradientTransform="matrix(0.9701 0.1974 0.1974 -0.9701 -335.2288 1019.0556)">
					<stop  offset="0" style="stop-color:#FED80E"/>
					<stop  offset="0.3718" style="stop-color:#FED411"/>
					<stop  offset="0.9048" style="stop-color:#FEC716"/>
					<stop  offset="1" style="stop-color:#FEC418"/>
				</linearGradient>
				<polygon class="st62" points="459.7,58.8 444.1,48.9 466.1,51.8 482,61.8 				"/>
				
					<linearGradient id="SVGID_46_" gradientUnits="userSpaceOnUse" x1="604.0682" y1="1142.9329" x2="596.9211" y2="1134.4154" gradientTransform="matrix(0.968 0.2115 0.2115 -0.968 -359.1345 1030.6285)">
					<stop  offset="0" style="stop-color:#FED80B"/>
					<stop  offset="0.3551" style="stop-color:#FED40F"/>
					<stop  offset="0.8641" style="stop-color:#FEC715"/>
					<stop  offset="1" style="stop-color:#FEC317"/>
				</linearGradient>
				<polygon class="st63" points="459.7,58.7 444.1,48.9 466.1,51.8 482,61.8 				"/>
				
					<linearGradient id="SVGID_47_" gradientUnits="userSpaceOnUse" x1="607.9365" y1="1167.1255" x2="600.6487" y2="1158.4402" gradientTransform="matrix(0.9659 0.2256 0.2256 -0.9659 -383.0402 1042.2014)">
					<stop  offset="0" style="stop-color:#FED809"/>
					<stop  offset="0.3401" style="stop-color:#FED40C"/>
					<stop  offset="0.8276" style="stop-color:#FEC714"/>
					<stop  offset="1" style="stop-color:#FEC116"/>
				</linearGradient>
				<polygon class="st64" points="459.7,58.7 444.1,48.9 466.1,51.8 482,61.8 				"/>
				
					<linearGradient id="SVGID_48_" gradientUnits="userSpaceOnUse" x1="611.303" y1="1191.3447" x2="603.8783" y2="1182.4961" gradientTransform="matrix(0.9637 0.2397 0.2397 -0.9637 -407.0557 1053.5813)">
					<stop  offset="0" style="stop-color:#FED806"/>
					<stop  offset="0.3265" style="stop-color:#FED40A"/>
					<stop  offset="0.7946" style="stop-color:#FEC712"/>
					<stop  offset="1" style="stop-color:#FEC015"/>
				</linearGradient>
				<polygon class="st65" points="459.7,58.7 444.1,48.9 466.1,51.8 482,61.8 				"/>
				
					<linearGradient id="SVGID_49_" gradientUnits="userSpaceOnUse" x1="613.7703" y1="1215.5928" x2="606.2125" y2="1206.5858" gradientTransform="matrix(0.9616 0.2538 0.2538 -0.9616 -430.9614 1065.1542)">
					<stop  offset="0" style="stop-color:#FED904"/>
					<stop  offset="0.3143" style="stop-color:#FED408"/>
					<stop  offset="0.7648" style="stop-color:#FDC711"/>
					<stop  offset="1" style="stop-color:#FEBF14"/>
				</linearGradient>
				<polygon class="st66" points="459.7,58.6 444.1,48.9 466.1,51.8 482,61.8 				"/>
				
					<linearGradient id="SVGID_50_" gradientUnits="userSpaceOnUse" x1="615.5631" y1="1239.8035" x2="607.8765" y2="1230.6431" gradientTransform="matrix(0.9595 0.2679 0.2679 -0.9595 -454.8671 1076.7272)">
					<stop  offset="0" style="stop-color:#FED901"/>
					<stop  offset="0.3032" style="stop-color:#FED405"/>
					<stop  offset="0.7376" style="stop-color:#FDC70F"/>
					<stop  offset="1" style="stop-color:#FEBD14"/>
				</linearGradient>
				<polygon class="st67" points="459.7,58.6 444.2,48.9 466.1,51.8 482,61.8 				"/>
				
					<linearGradient id="SVGID_51_" gradientUnits="userSpaceOnUse" x1="616.8362" y1="1263.981" x2="609.0251" y2="1254.6721" gradientTransform="matrix(0.9573 0.282 0.282 -0.9573 -478.8826 1088.1071)">
					<stop  offset="0" style="stop-color:#FED900"/>
					<stop  offset="0.293" style="stop-color:#FED403"/>
					<stop  offset="0.7128" style="stop-color:#FDC80D"/>
					<stop  offset="1" style="stop-color:#FEBC13"/>
				</linearGradient>
				<polygon class="st68" points="459.7,58.6 444.2,48.9 466.1,51.8 482,61.8 				"/>
				
					<linearGradient id="SVGID_52_" gradientUnits="userSpaceOnUse" x1="617.2076" y1="1288.1052" x2="609.2762" y2="1278.6531" gradientTransform="matrix(0.9552 0.2961 0.2961 -0.9552 -502.7883 1099.6799)">
					<stop  offset="0" style="stop-color:#FED900"/>
					<stop  offset="0.2836" style="stop-color:#FED401"/>
					<stop  offset="0.6899" style="stop-color:#FDC80B"/>
					<stop  offset="1" style="stop-color:#FEBB12"/>
				</linearGradient>
				<polygon class="st69" points="459.8,58.5 444.2,48.9 466.1,51.8 481.9,61.8 				"/>
			</g>
		</g>
	</g>
</g>
</svg>
