<?xml version="1.0" encoding="utf-8"?>
<!-- Generator: Adobe Illustrator 23.0.0, SVG Export Plug-In . SVG Version: 6.00 Build 0)  -->
<svg version="1.1" id="Layer_1" xmlns="http://www.w3.org/2000/svg" xmlns:xlink="http://www.w3.org/1999/xlink" x="0px" y="0px"
	 width="283.1px" height="312.4px" viewBox="0 0 283.1 312.4" style="enable-background:new 0 0 283.1 312.4;" xml:space="preserve"
	>
<style type="text/css">
	.st0{fill:#99CAF2;}
	.st1{fill:#066AC9;}
	.st2{fill:#F4F6F9;}
</style>
<g>
	<path class="st0" d="M257.4,0.6c11.3,0.5,20.4,12.2,23.8,30.4c0.8,1.9-0.2,4.1,0.6,6c0,0.7,0,1.4,0.1,2.1c0.5,1.8,0.3,3.7,0.3,5.5
		c0,37.4,0,74.7,0,112.1c0,0.9-0.1,1.7-0.3,2.5c-2.8,4.8-6.6,7.3-10.1,10.4c-19.4,17.7-38.6,35.8-58,53.6
		c-8.3,7.6-16.5,15.4-24.9,22.9c-4.1,3.7-8.3,6.9-13.3,6.6c-1.8,0-3.6,0-5.5,0c-7.6-0.2-13.7-5.9-19.2-13.4
		c-14.9-20.4-29.7-41-44.6-61.3c-4.3-5.8-9.4-8.4-14.7-10.7c-2.3-0.9-4.7-0.7-7-0.1c-5.5,2.3-10.5,6-15.2,11.4
		c-20.2,23.5-40.5,46.7-60.9,69.8c-1.9,2.2-3.5,5.6-6.2,5.8c0-1.5-0.1-3-0.1-4.5c0-69.2,0-138.4,0-207.5c0-20.7,7.1-35.5,19.2-40.7
		c1.9-0.8,3.8-0.8,5.7-0.9c7-0.8,14.1-0.4,21.1-0.4c68.5,0.2,136.9,0,205.4,0.1C254.9,0.2,256.2-0.2,257.4,0.6z"/>
	<path class="st1" d="M2.4,236.3c11.2-10.4,22.5-20.8,33.7-31.2c11.7-10.8,23.3-21.6,35-32.4c4-3.7,8.4-6,13.3-7.1
		c2.6-0.6,5.1-0.6,7.7,0c7.9,1.6,13.9,7.2,19.7,13.8c8.9,10.3,18.3,20,27.4,30.1c5.8,6.4,11,13.5,17.5,18.7
		c3.9,3.2,8.1,5.9,13.1,5.7c2.1,0.7,4.2,0.7,6.4,0c5.1,0.3,9.3-2.8,13.4-5.8c11-8,21.8-16.2,32.7-24.3c10.5-7.8,21.1-15.6,31.6-23.5
		c9.2-6.8,18.3-13.7,27.5-20.6c1.3,0,0.9,1.2,0.9,2c0,33,0,66.1,0,99.1c0,0.3-0.1,0.5-0.2,0.8c0,6,0,11.9,0,17.9
		c-0.2,18.6-10,31.6-24.7,32.7c-0.9,0.1-1.7,0.1-2.6,0.1c-75.1,0-150.2,0-225.3,0c-9,0-16.5-3.6-22-12.9c-3.1-5.2-4.9-11.2-4.9-17.7
		C2.2,266.7,2.4,251.5,2.4,236.3z"/>
	<path class="st2" d="M92.1,67.7c0,14.8-11.9,26.7-26.6,26.7c-14.7,0-26.7-12.1-26.7-26.7c0-14.6,12.1-26.7,26.8-26.6
		C80.2,41.1,92.1,53,92.1,67.7z"/>
</g>
</svg>
