<?xml version="1.0" encoding="utf-8"?>
<!-- Generator: Adobe Illustrator 23.0.0, SVG Export Plug-In . SVG Version: 6.00 Build 0)  -->
<svg version="1.1" id="Layer_1" xmlns="http://www.w3.org/2000/svg" xmlns:xlink="http://www.w3.org/1999/xlink" x="0px" y="0px"
	 width="316px" height="330.4px" viewBox="0 0 316 330.4" style="enable-background:new 0 0 316 330.4;" xml:space="preserve">
<style type="text/css">
	.st0{fill:#010101;}
</style>
<g>
	<path class="st0" d="M285.6,54.5c-5.4,1.5-10.6,3.5-15.9,5.2c-3.2,1-3.3,1.1-2.7,4.3c0.8,4.6-1.9,11.7-7.7,14.4
		c-8.3,3.9-17,1.6-21.7-6.2c-2.8-4.6-3.5-9.7-2.9-14.9c0.9-7.7,8.3-14.2,17.5-12.2c4.2,1,7.5,3.1,10,6.5c0.8,1.1,1.4,1.1,2.5,0.7
		c2.7-1.1,5.3-2.1,8-3.1c3.2-1.3,6.5-2.1,9.7-3.5c0.9-0.4,1.3-0.8,1-1.9c-1.2-3.7-2.5-7.3-4.4-10.7c-4-7-9.9-11.6-17.7-13.5
		c-4.7-1.1-9.4-0.9-14.1-0.1c-4.6,0.7-8.8,2.6-12.9,4.6c-8.5,4.2-15.2,10.1-18.3,19.4c-1.4,4.3-2.3,8.5-2.5,13
		c-0.2,5.8,1,11.4,2.6,16.9c1.1,3.8,2.3,7.5,4.2,11c6.8,12.5,17.2,19,31.4,19.2c5.9,0.1,11.6-1.4,17.2-3.4
		c6.5-2.4,11.8-6.4,15.9-11.9c6.1-8.2,7.5-17.5,5.5-27.3c-0.4-1.7-0.5-3.5-1.4-5.2C287.9,54,287.8,53.9,285.6,54.5z"/>
</g>
<g>
	<path class="st0" d="M247.9,222.4c0.8-0.2,1.1-0.4,1.5-0.4c7-1.2,12-5.1,15.5-11.1c3.8-6.7,5.3-13.7,3.6-21.3
		c-1.9-8.9-6.6-15.6-15.1-19.4c-6-2.7-12.2-4.4-18.5-6.1c-5.1-1.4-10.1-2.8-15.5-2.7c-2.5,0-3.4,0.6-4.1,2.9
		c-0.7,2.1-1.3,4.3-1.9,6.4c-0.9,3.6-1.4,7.4-2.5,10.9c-3,9.8-5.4,19.8-8.2,29.6c-3.7,13-7.6,26-10.6,39.2c-0.4,1.8-0.8,3.7-1.1,5.5
		c-0.4,2.9,0.2,3.9,2.8,5c1.6,0.6,3.2,1.2,4.8,1.7c9.9,3.1,20,5.2,30.1,7.1c2.6,0.5,5.3,0.9,8,0.8c6.3-0.1,12-1.7,16.4-6.4
		c3.8-4.1,5.8-9.1,7.1-14.4C262.8,240.2,258.6,227.5,247.9,222.4z M227.6,202.3c1.7-5.5,3.3-11.1,5-16.8c3.3,1.1,6.4,1.9,9.3,3.1
		c4.1,1.7,6,5.1,5.2,8.9c-1,4.8-3.6,6.9-7.8,7.6c-3.8,0.6-7.4-0.5-11-1.4C227.4,203.5,227.3,203,227.6,202.3z M229.1,253
		c-3.9,0.8-7.6,0.3-11.3-0.9c-1.2-0.4-3.1-0.3-3.5-1.5c-0.3-0.9,0.6-2.3,0.9-3.5c1.5-4.8,3.4-9.5,4.5-14.6c4,1.1,8.1,1.5,11.7,3.7
		c3.1,1.9,4.7,5.4,4.2,9.3C235.3,249,232.6,252.3,229.1,253z"/>
</g>
<g>
	<path class="st0" d="M103,244.1c-4.2,0.7-8.4,0.8-12.6,1.1c-15.9,1-31.8,1.8-47.7,3.6c-10,1.1-20.1,1.7-30,3.4
		c-1.8,0.3-2.8,0.9-3.2,2.7c-1.4,5.6-3.2,11.1-4.1,16.9c-0.4,2.3-0.8,4.7-1.2,7c-0.5,2.4,0.4,3.9,2.6,5.1c7.7,4.1,15.4,8.3,23,12.7
		c8.8,5.1,17.7,10,26.6,15c10.9,6.1,21.2,13.3,32.9,18.1c3.3,1.4,3.6,1.3,4.5-2.3c0.1-0.5,0.2-1,0.3-1.5c1.7-6.7,2.7-13.6,3.5-20.5
		c0.4-2.8,0.3-3-2.4-4c-7.3-2.8-14.4-6-21.8-8.4c-1.8-0.6-1.8-0.7-1.5-2.7c0.8-4.7,2.4-9.2,2.9-13.9c0.1-1.2,0.8-1.1,1.7-1
		c7.7,1.1,15.4,1,23.1,1.6c2.3,0.2,2.8-0.2,3.3-2.4c0.9-3.6,1.9-7.1,2.2-10.8c0.5-5.3,1.5-10.4,2.4-15.6c0.6-3.6,0.1-4.2-3.6-4.1
		C103.5,244,103.3,244,103,244.1z M52.4,274.7c-0.5,2.7-1,5.3-1.9,7.9c-0.3,1-0.6,1.2-1.7,0.8c-5-1.9-10-3.7-15-5.5
		c-1-0.4-1.2-0.9-0.9-1.8c0.5-1.8,0.5-4.1,1.6-5.1c1.1-1,3.3,0.2,5,0.4c1.4,0.1,2.8,0.5,4.1,0.7c0,0,0,0,0,0
		c2.4,0.3,4.9,0.6,7.3,0.8C52.2,273.1,52.7,273.3,52.4,274.7z"/>
</g>
<g>
	<path class="st0" d="M99,123.6c-2.6,2.4-5,5-7.2,7.8c-4.3,5.3-8.6,10.6-13.1,15.8c-1.6,1.9-1.6,2.1,0.2,3.9
		c7.3,7.1,15.2,13.4,22.8,20.1c8,7,16.8,12.9,24.6,20.1c0.8,0.7,1.8,1.1,2.8,1.4c3.2,0.9,6.4,1.5,9.7,2.1c5.1,0.9,10.2,1.7,15.4,1.8
		c0.6,0,1.3,0,1.9-0.1c2.1-0.3,2.7-1.2,2.4-3.2c-0.2-1.1-0.4-2.3-0.8-3.4c-2-7.3-4.8-14.3-7.2-21.5c-0.4-1.1-0.7-2.2-1.6-3
		c-2.7-2.5-5.3-5.1-8.1-7.5c-9.3-7.9-18.8-15.7-27.9-23.9c-3.9-3.5-7.9-6.9-11.8-10.4C100.4,122.9,99.9,122.8,99,123.6z M85.5,141.2
		c2.6-3.2,5.2-6.5,7.9-9.8c16.6,14,32.6,28.6,48.9,42.9c-2.6,3.3-5.1,6.4-7.5,9.5c-0.2-0.1-0.4-0.2-0.6-0.3
		c-7.5-7-15.5-13.3-23.3-20c-1-0.8-2-1.7-2.9-2.6c-5.1-4.9-10.7-9.2-16.3-13.5c-2.1-1.6-4.1-3.4-6.1-5.1
		C85.1,141.9,85.2,141.6,85.5,141.2z M128.5,191.3c-0.6-0.1-0.9-0.4-1.2-0.7c-4.8-4.8-10.4-8.7-15.7-12.9
		c-6.7-5.3-13.2-11-19.6-16.6c-4.1-3.6-8.4-7-12.3-10.9c-0.3-0.3-0.6-0.6-1-1c1.6-1.9,3.2-3.8,4.7-5.7c0.5-0.6,0.9-0.7,1.5-0.2
		c0.5,0.4,1.1,0.7,1.5,1.2c3.4,3.1,7,6,10.7,8.7c4.7,3.5,8.8,7.7,13.2,11.4c7.3,6.1,14.5,12.3,21.8,18.4c0.3,0.2,0.5,0.5,0.8,0.7
		c0.8,0.5,1,1,0.3,1.9C131.7,187.5,130.1,189.4,128.5,191.3z M149.9,169.7c1.4,3.9,2.6,7.7,4,11.6c0.3,0.9,0.2,1.4-0.4,2.1
		c-2.9,3.3-5.5,6.8-8.5,10c-0.5,0.5-0.9,1.1-1.8,1c-4.4-0.7-8.9-1.3-13.7-2.5c7-7.8,12.8-16.1,19.2-24
		C149.6,168.3,149.7,169,149.9,169.7z M102.7,126.7c12.5,11.1,25.1,22,37.9,32.7c2.4,2,4.7,4.2,7.1,6.3c0.7,0.6,0.7,0.9,0.1,1.6
		c-1.6,2-3.3,4-4.8,6.3c-16.3-14.4-32.1-29.1-48.8-42.9c1.6-2.2,3.5-4,5.2-5.9c0.4-0.5,0.8-0.4,1.3,0
		C101.3,125.4,102,126,102.7,126.7z"/>
</g>
<g>
	<path class="st0" d="M59.8,73.7c-0.9-1.7-1.9-3.4-3.1-4.9c-3.8-5.1-7.8-10-12.3-15.8c10.8-2.4,21.4,1,30.8-4.5
		c-8.9-4.3-18.6-2.7-29.8-4c4.4-5.9,8.1-10.2,11.3-15c2.1-3.2,7.7-7.2,4-10.1c-3.4-2.6-6.4,3.8-9.3,6.5C48,29.1,46,33.7,41.2,36.3
		c-0.4-2.4-0.7-4-0.8-5.6c-0.4-5.2-0.6-10.3-1-15.5c-0.2-2.1-1.4-3.7-3.7-3.7c-2.3,0-3.6,1.9-3.7,3.8c-0.2,4.2,0.2,8.4,0.3,12.6
		c0.1,3.6,1.5,7.3-1.1,11.7c-4.2-4.8-7.7-9-11.4-12.9c-2.3-2.4-4.7-7.2-8.4-4.4c-4.2,3.2,0.6,6.1,2.5,8.8c1.7,2.4,3.8,4.4,5.6,6.7
		c1.6,2.2,4.3,3.7,4.7,7.6c-5.6,0.3-10.7,0.5-15.8,0.9c-3.4,0.3-8.5-0.5-8.3,4.3c0.2,5.1,5.4,3.2,8.6,3.2c5.8,0,11.7-0.4,19.4-0.8
		c-5.9,7.7-10.6,13.4-14.9,19.4C11,75.4,5.7,78.9,9.4,82c4.7,4,6.9-2.4,9.4-5.2c4.6-5.2,8.7-10.8,13-16.2c1.7,3.7,1.7,6.8,1.7,9.9
		c0,4.5-0.1,9.1,0.2,13.6c0.2,3.1,0.1,7.9,3.6,8c4.6,0.2,2.9-4.8,3.3-7.6c0.5-3.8,0.3-7.8,0.6-11.6c0.3-3-1-6.3,1.8-10
		c1.1,1.6,1.8,2.8,2.6,3.7c3.4,3.5,6.8,6.9,10.3,10.2c1,0.9,2.3,1.1,3.6,0.3C61,76.1,60.4,74.8,59.8,73.7z"/>
</g>
<g>
	<path class="st0" d="M179.6,30.5c-1.6-1.6-3.5-2.7-5.5-3.6c-2-0.9-4-1.9-6.1-2.6c-2.3-0.7-2.9-2-2.9-4.2c0.1-5.2-0.2-10.3-0.3-15.5
		c0-1.8-0.4-3.7-2.4-4.4c-1.9-0.7-3.4,0.3-4.8,1.6c-0.6,0.6-1.3,1.2-1.8,1.9c-2.9,3.7-6.2,7.2-8.7,11.2c-1.9,3-4.1,3.4-7,2.6
		c-2.7-0.8-5.6-0.8-8.3-0.5c-4.7,0.6-6.1,4.2-3.1,7.9c1.7,2,3.8,3.7,6.3,4.8c2,0.9,2.5,1.9,1.6,4.1c-1.7,4.4-3.2,8.9-4.7,13.3
		c-0.5,1.5-1.1,3.2,0.4,4.5c1.5,1.3,3.2,0.4,4.6-0.3c2.2-1.1,4.4-2.4,6.5-3.7c1.8-1.1,3.5-2.2,5.6-3.6c1.4,2.2,2.6,4.1,3.7,6
		c1.2,2,2.7,3.9,4.5,5.4c1.2,1,2.4,2.4,4.2,1.7c1.7-0.7,2.1-2.3,2.3-4c0.3-3.4,0.7-6.8,0.9-10.1c0.2-4.3,0.1-4.3,4.6-4.8
		c3.1-0.4,6.2-0.8,9.1-1.9C181.6,35.1,182,32.9,179.6,30.5z M166.5,35.7c-3.5,0.5-3.6,0.5-3.9,4c-0.4,4.3-0.8,8.5-1.3,12.8
		c-0.1,0.7,0.1,1.5-1.1,2c-1.9-1.4-3.3-3.4-4.8-5.4c-1.4-1.9-2.7-3.9-4-5.8c-1.9-2.6-2.2-2.7-4.9-0.9c-3.9,2.6-7.6,5.5-12.9,7.8
		c1.9-5.4,3.4-10,5.1-14.7c0.2-0.6,0.5-1.1,0.7-1.6c1.7-4,1.7-4-2.1-6.1c-2.3-1.3-4.7-2.5-6.4-4.6c-1.6-1.9-1.1-3,1.3-3.6
		c3-0.7,5.9-0.1,8.8,0.3c3.4,0.5,5.9-0.4,8-3.3c2.6-3.6,5.5-6.9,8.3-10.3c1.1-1.3,2.1-2.8,3.9-3.4c1.1,1.4,0.8,2.9,0.8,4.3
		c0.1,4.4,0.2,8.9,0,13.3c-0.1,2.6,0.9,4.1,3.2,5.1c2.7,1.2,5.3,2.5,7.9,3.9c1.7,0.9,3.5,1.6,4.8,3.8
		C174.1,34.9,170.3,35.1,166.5,35.7z"/>
</g>
</svg>
