<?xml version="1.0" encoding="utf-8"?>
<!-- Generator: Adobe Illustrator 23.0.0, SVG Export Plug-In . SVG Version: 6.00 Build 0)  -->
<svg version="1.1" id="Layer_1" xmlns="http://www.w3.org/2000/svg" xmlns:xlink="http://www.w3.org/1999/xlink" x="0px" y="0px"
	 width="54.2px" height="55.6px" viewBox="0 0 54.2 55.6" style="enable-background:new 0 0 54.2 55.6;" xml:space="preserve">
<style type="text/css">
	.st0{fill:#B5C3CE;}
	.st1{fill:#E9F5FE;}
	.st2{fill:#4F66CF;}
	.st3{fill:#C7EEFD;}
	.st4{fill:#02C6DC;}
	.st5{fill:#FDDE30;}
	.st6{fill:#FDD302;}
	.st7{fill:#678C97;}
	.st8{fill:#62DAFA;}
	.st9{fill:#F9C500;}
</style>
<g>
	<path class="st0" d="M5.2,8.8c0-0.2,0-0.4,0-0.6c0-0.5,0.2-0.8,0.7-0.9C6.3,7.2,6.8,7.1,7.2,7C7.8,6.8,8,6.3,7.7,5.7
		C7.5,5.4,7.2,5,7,4.7C6.8,4.3,6.8,3.9,7.1,3.6C7.4,3.3,7.7,3,8,2.7c0.3-0.3,0.7-0.3,1.1-0.1C9.4,2.8,9.7,3,10,3.2
		c0.8,0.5,1.3,0.2,1.5-0.7c0.1-0.3,0.1-0.5,0.2-0.8c0-0.4,0.2-0.7,0.6-0.9c0.6,0,1.3,0,1.9,0c0.6,0.3,0.6,1,0.7,1.5
		c0,0.2,0.1,0.4,0.1,0.6c0.2,0.4,0.7,0.6,1.1,0.4c0.4-0.2,0.7-0.4,1.1-0.7c0.5-0.3,0.8-0.3,1.3,0.1c0.2,0.2,0.5,0.5,0.7,0.7
		c0.4,0.4,0.4,0.8,0.1,1.3c-0.2,0.3-0.5,0.7-0.6,1c-0.3,0.5-0.1,1.1,0.5,1.2c0.3,0.1,0.6,0.1,0.9,0.2c0.9,0.2,1.1,0.4,1.1,1.3
		c0,0.1,0,0.2,0,0.3c0.3,0.7,0.1,1.4-0.7,1.6c-0.3,0.1-0.6,0.1-1,0.2c-0.6,0.1-0.8,0.4-0.8,0.8c0,0.5,0.5,1,0.9,1.1
		c0.2,0,0.5,0,0.7,0c7.9,0,15.7,0,23.6,0c0.3,0,0.6,0,0.9,0.1c0.2,0.2,0,0.3-0.1,0.3c-8.1,0-16.1,0-24.2,0c-0.2,0-0.3,0-0.5,0
		c-0.2,0-0.4,0.1-0.4,0.4c-0.1,0.9-0.7,1.3-1.4,1.8c-0.3,0.2-0.7,0.2-1.1-0.1c-0.3-0.2-0.6-0.4-0.9-0.6c-0.6-0.3-1-0.1-1.2,0.5
		c-0.1,0.4-0.2,0.7-0.3,1.1c-0.1,0.5-0.5,0.8-1,0.9c-0.1,0-0.3,0-0.4,0c-1.4,0-1.6-0.1-2-1.5c0-0.1,0-0.1,0-0.2
		c-0.2-0.9-0.6-1.1-1.5-0.6c-0.1,0.1-0.2,0.1-0.3,0.2c-0.4,0.3-0.9,0.6-1.4,0.3c-0.6-0.4-1.3-0.8-1.4-1.7c-0.1-0.4-0.2-0.5-0.6-0.5
		c-1.4,0-2.7,0-4.1,0c-0.3,0-0.5,0-0.7-0.2l0,0c0-0.1,0-0.1,0-0.2c0.2-0.1,0.5-0.1,0.7-0.1c1.4,0,2.8,0,4.2,0c0.6,0,1-0.2,1.2-0.8
		c0.2-0.5,0.1-0.9-0.4-1.1c-0.4-0.1-0.8-0.2-1.2-0.3C5.2,10.2,4.9,9.5,5.2,8.8z"/>
	<path class="st0" d="M36,54.4c-0.8-0.4-0.9-1.1-1.1-1.8c-1.1-4.2-2.1-8.4-3.2-12.6c0.1-0.1,0.2-0.1,0.3-0.1c0.9-0.1,1.7-0.1,2.6,0
		c0.1,0,0.2,0.1,0.3,0.1c0.4,1.7,0.8,3.3,1.2,5c0.7,2.6,1.3,5.1,2,7.7c0.2,0.7-0.1,1.2-1,1.7C36.7,54.4,36.3,54.4,36,54.4z"/>
	<path class="st0" d="M20.8,40.1c-1.1,4.3-2.2,8.6-3.3,13c-0.2,0.6-0.4,1.2-1.1,1.4c-0.3,0-0.6,0-0.9,0c-1-0.5-1.2-1-0.9-2.1
		c0.8-2.9,1.5-5.9,2.2-8.8c0-0.3,0.2-0.4,0.3-0.6c0.4-0.7,0.8-1.4,0.9-2.2c0-0.3,0-0.6,0.3-0.7c0.7-0.1,1.4-0.1,2.1,0
		C20.6,39.9,20.7,40,20.8,40.1z"/>
	<path class="st0" d="M25.8,54.4c-0.8-0.4-1-1-1-1.9c0-4.2,0-8.3,0-12.5c0.1-0.1,0.3-0.2,0.4-0.2c0.6,0,1.2,0,1.9,0
		c0.2,0,0.3,0,0.4,0.2c0,4.3,0,8.6,0,13c0,0.7-0.4,1.1-1.1,1.4C26.3,54.4,26.1,54.4,25.8,54.4z"/>
	<path class="st1" d="M27.6,40.1c-0.9,0-1.8,0-2.7,0c-1.4,0-2.7,0-4.1,0c-0.9,0-1.7,0-2.6,0c-0.2-0.1-0.2-0.4-0.2-0.6
		c-0.2-2.3-2.3-4.2-4.7-4.2c-0.3,0-0.7,0-1,0.1c-2,0.4-3.6,2.1-3.9,4.2c0,0.2,0.1,0.4-0.2,0.6c-1.2,0-2.5-0.1-3.7,0
		c-1.7,0.1-3.2-1.5-3.2-3.2c0-8.1,0-16.1,0-24.2c1.7,0,3.5,0,5.2,0c0.3,0,0.5,0,0.4,0.4c-0.1,0.3,0,0.6,0.3,0.9
		c1.2,1.3,1.3,1.3,2.7,0.3c0.8-0.6,1.4-0.3,1.6,0.7c0.1,0.3,0.1,0.6,0.2,1c0.1,0.2,0.2,0.4,0.4,0.5c0.2,0.1,0.3,0.2,0.5,0.2
		c2.2,0,1.8-0.1,2.2-1.6c0.2-1,0.8-1.3,1.6-0.7c1.6,1.1,1.5,0.8,2.8-0.5c0.2-0.2,0.3-0.6,0.2-0.9c-0.1-0.3,0-0.3,0.2-0.3
		c0.1,0,0.2,0,0.4,0c8,0,16,0,24,0c0.2,0,0.5-0.1,0.6,0.1c0,0.3-0.2,0.4-0.3,0.5c-2.7,2.7-5.4,5.4-8.1,8.1c-0.6,0.6-1.1,0.6-1.8,0
		c-1.1-1.1-2.3-2.3-3.4-3.4c-0.5-0.5-0.8-0.5-1.3,0c-2.9,2.8-5.7,5.7-8.5,8.5c-0.6,0.6-0.7,1.5-0.1,2.1c0.6,0.6,1.5,0.6,2.1,0
		c1.1-1,2.1-2.1,3.2-3.2c1-1,2.1-2.1,3.1-3.1c0.7-0.7,1.1-0.7,1.7,0c1.1,1.1,2.2,2.2,3.4,3.4c0.6,0.6,0.9,0.6,1.5,0
		c3.4-3.4,6.8-6.8,10.3-10.2c0.1-0.1,0.3-0.3,0.5-0.4c0.1-0.1,0.3-0.2,0.5,0c0.1,0.2,0.1,0.5,0.1,0.8c0,7,0,13.9,0,20.9
		c0,0.3,0,0.5,0,0.8c-0.3,1.5-1.1,2.4-2.6,2.6c-3.3,0-6.6,0-9.9,0c-1,0-2.1,0-3.1,0C30.3,40.1,29,40.1,27.6,40.1z"/>
	<path class="st2" d="M47.1,14.9c-0.9,0.9-1.9,1.9-2.8,2.8c-2.7,2.7-5.4,5.4-8.1,8.1c-0.6,0.6-0.9,0.6-1.6,0
		c-1.1-1.1-2.3-2.3-3.4-3.4c-0.6-0.6-0.9-0.6-1.5,0c-2.1,2.1-4.2,4.2-6.3,6.3c-0.6,0.6-1.2,0.8-1.9,0.5c-1-0.4-1.2-1.7-0.5-2.5
		c0.6-0.6,1.2-1.2,1.8-1.8c2.3-2.3,4.5-4.5,6.8-6.8c0.7-0.7,0.9-0.7,1.6,0c1.2,1.2,2.3,2.3,3.5,3.5c0.5,0.5,0.9,0.5,1.3,0
		c2.9-2.9,5.8-5.8,8.7-8.7c0.1-0.1,0.1-0.1,0.2-0.2c0.1-0.4,0.6-0.7,0.8-1c0.3-0.3,0.6-0.6,0.9-0.9c-0.4,0-0.8,0-1.1,0
		c-1.1-0.1-1.8-1.1-1.4-2c0.3-0.9,0.8-1.2,1.8-1.2c1.6,0,3.1,0,4.7,0c1.1,0,1.7,0.6,1.7,1.7c0,1.5,0,3.1,0,4.6
		c0,0.8-0.3,1.4-1.1,1.8c-0.7,0.5-1.8,0-2.1-1c-0.2-0.5-0.1-1-0.1-1.5c-0.5,0.5-0.9,0.9-1.4,1.4C47.4,14.7,47.3,14.9,47.1,14.9z"/>
	<path class="st3" d="M47.1,14.9c0.7-0.6,1.3-1.3,2-1.9c0,0.3,0,0.7,0,1c0,1.3,0.8,1.9,2.1,1.7c0,7.1,0,14.1,0,21.2
		c0,1.8-1.5,3.3-3.2,3.2c-1.1-0.1-2.2,0-3.3,0c0.8-0.3,1.5-0.6,2-1.4c0.3-0.6,0.5-1.1,0.5-1.8c0-7.1,0-14.2,0-21.4
		C47.2,15.3,47.3,15.1,47.1,14.9z"/>
	<path class="st4" d="M44,8.8c0,0.7,0.1,1.3,0.8,1.7c0.6,0.3,1.3,0.1,1.9,0.2c-0.6,0.7-1.3,1.3-1.9,2c-0.2,0-0.5,0-0.7,0
		c-8.1,0-16.3,0-24.4,0c-0.6,0-1.3-0.8-1.3-1.4c0-0.4,0.3-0.7,0.7-0.8c0.3-0.1,0.6-0.1,0.9-0.2c0.8-0.2,1-0.4,1-1.2
		c0-0.1,0-0.2,0-0.3C28.8,8.8,36.4,8.8,44,8.8z"/>
	<path class="st5" d="M8.2,40.1c0.1-2.8,2-4.3,3.7-4.8c0.1,0,0.2,0,0.4-0.1c0.8,0.1,1.5,0.5,2.1,1c2.7,2.4,2.1,6.9-1.2,8.4
		c-0.3,0.1-0.5,0.1-0.8,0.3C10.2,44.6,8.3,42.8,8.2,40.1z"/>
	<path class="st6" d="M12.3,45c0-0.2,0.2-0.2,0.3-0.2c3.5-1.4,4.4-5.7,1.7-8.3c-0.6-0.6-1.3-0.9-2.1-1.2c1.8-0.4,3.3,0.2,4.6,1.5
		c0.9,0.9,1.2,2.1,1.4,3.4c-0.1,1.3-0.5,2.4-1.4,3.4c-0.9,0.9-2,1.4-3.3,1.5C13.1,45.1,12.7,45,12.3,45z"/>
	<path class="st4" d="M5.2,8.8c0,0.2,0,0.4,0,0.6c0,0.5,0.3,0.8,0.8,0.9c0.4,0.1,0.8,0.1,1.2,0.2c0.7,0.2,0.8,0.7,0.5,1.3
		c-0.3,0.6-0.7,0.9-1.4,0.8c-1.6-0.1-3.3,0-4.9,0c-0.1-0.3-0.1-0.7,0-1c0.3-1.8,1.5-2.8,3.3-2.8C4.8,8.8,5,8.8,5.2,8.8z"/>
	<path class="st1" d="M1.3,11.6c0,0.3,0,0.7,0,1c0,0,0,0.1,0,0.1C1.1,12.4,1.2,12,1.3,11.6z"/>
	<path class="st7" d="M15.8,8.8c0,1.4-1.2,2.6-2.6,2.6c-1.4,0-2.6-1.3-2.6-2.7c0-1.5,1.2-2.6,2.7-2.6C14.6,6.2,15.8,7.3,15.8,8.8z"
		/>
	<path class="st4" d="M11.6,24.9c-1.3,0-2.5,0-3.8,0c-0.8,0-1.1-0.2-1.1-1c0-0.9,0-1.8,0-2.7c0-0.7,0.3-1,0.9-1c2.7,0,5.3,0,8,0
		c0.7,0,1,0.3,1,1c0,0.9,0,1.9,0,2.8c0,0.6-0.3,1-1,1C14.3,24.9,13,24.9,11.6,24.9z"/>
	<path class="st8" d="M38.6,33.9c2.5,0,5,0,7.5,0c0.2,0,0.5,0,0.7,0.2c0.3,0.2,0.4,0.5,0.3,0.8c-0.1,0.4-0.3,0.6-0.7,0.6
		c-0.2,0-0.3,0-0.5,0c-4.9,0-9.8,0-14.7,0c-0.1,0-0.2,0-0.3,0c-0.5,0-0.9-0.3-0.9-0.8c0-0.5,0.3-0.8,0.9-0.8c1.8,0,3.6,0,5.3,0
		C37.1,33.9,37.8,33.9,38.6,33.9z"/>
	<path class="st8" d="M41.7,31.9c-1.4,0-2.9,0-4.3,0c-0.7,0-1-0.2-1-0.8c0-0.5,0.3-0.8,1-0.8c2.9,0,5.9,0,8.8,0
		c0.4,0,0.8,0.1,0.9,0.6c0.1,0.4,0,0.6-0.3,0.9c-0.2,0.2-0.4,0.1-0.6,0.1C44.6,31.9,43.2,31.9,41.7,31.9z"/>
	<path class="st8" d="M10.4,26.4c0.9,0,1.7,0,2.6,0c0.6,0,0.9,0.3,1,0.8c0,0.5-0.4,0.8-1,0.8c-1.8,0-3.6,0-5.4,0
		c-0.6,0-0.9-0.3-0.9-0.8c0-0.5,0.3-0.8,0.9-0.8C8.6,26.4,9.5,26.4,10.4,26.4z"/>
	<path class="st9" d="M14,40.1c0,0.3,0,0.6,0,0.9c0,0.6-0.3,0.9-0.8,0.9c-0.5,0-0.9-0.3-0.9-0.8c0-0.7,0-1.4,0-2.1
		c0-0.5,0.4-0.8,0.9-0.8c0.5,0,0.8,0.3,0.8,0.9C14,39.4,14,39.8,14,40.1C14,40.1,14,40.1,14,40.1z"/>
</g>
</svg>
