<?xml version="1.0" encoding="utf-8"?>
<!-- Generator: Adobe Illustrator 23.0.0, SVG Export Plug-In . SVG Version: 6.00 Build 0)  -->
<svg version="1.1" id="Layer_1" xmlns="http://www.w3.org/2000/svg" xmlns:xlink="http://www.w3.org/1999/xlink" x="0px" y="0px"
	 width="158.7px" height="221.1px" viewBox="0 0 158.7 221.1" style="enable-background:new 0 0 158.7 221.1;" xml:space="preserve"
	>
<style type="text/css">
	.st0{fill:#0FA39A;}
	.st1{fill:#07877F;}
	.st2{fill:#EE6F2B;}
	.st3{fill:#F8BE27;}
	.st4{fill:#D32027;}
	.st5{fill:#B21F24;}
	.st6{fill:#78C8E6;}
	.st7{fill:#E2A125;}
	.st8{fill:#FFFFFF;}
	.st9{fill:#A3A5A8;}
	.st10{fill:#E91D30;}
	.st11{fill:#F2AC1D;}
	.st12{fill:#2176B9;}
	.st13{fill:#185C92;}
	.st14{fill:#2EA7DF;}
	.st15{fill:#2380AB;}
	.st16{fill:#EE5C2A;}
	.st17{fill:#AB411A;}
	.st18{fill:#0B9BD1;}
	.st19{fill:#057198;}
	.st20{fill:#FEC23C;}
	.st21{fill:#F89B3B;}
	.st22{fill:#F7923A;}
</style>
<g>
	<g>
		<g>
			<path class="st0" d="M79.4,127.6c6.5,2.9,13.7,4.7,13.6,14.2c0,2.1-2,3.7-1.9,6.1c0.1,1.6,1.8,3.3,1.9,4.9
				c0.4,13.8-14.6-4.2-17.2-7.7c-6.8-9.1-9.3-21.1-10.3-32.2c-0.3-3.9-4.3-7.4-0.1-10.1c5.9,3.7,3.1,10.1,4.7,15.6
				C71.5,123.4,75.3,125.7,79.4,127.6z"/>
			<path class="st1" d="M70.1,118.4c1.4,5,5.2,7.3,9.3,9.1c6.5,2.9,13.7,4.7,13.6,14.2c0,2.1-2,3.7-1.9,6.1c0.1,1.6,1.8,3.3,1.9,4.9
				c0,1.5-0.1,2.6-0.4,3.4c-2.5-2-5.1-4-6.4-6.9c-1.4-3,1.1-6.9,0.1-10.4c-2.2-7.6-12-7.1-15.3-13.6c-3.6-7.1,0.3-15.8-6-22
				c0,0,0,0-0.1-0.1c0.2-0.1,0.3-0.2,0.5-0.4C71.3,106.5,68.6,113,70.1,118.4z"/>
			<path class="st0" d="M104.2,119.7c0.5,8.7-0.5,17.7,9.7,22.2c2.2,1,4.6-0.4,7.2,0.9c1.7,0.9,2.8,3.7,4.5,4.5
				c14.4,7.2,1.3-18.4-1.4-23c-6.9-12.1-18.6-20.8-30-27.4c-4-2.3-6.1-8.4-10.6-5c1.6,8.4,9.4,8.5,14.6,12.9
				C103,108.8,103.9,114.2,104.2,119.7z"/>
			<path class="st1" d="M98.2,104.8c4.7,4,5.7,9.4,6,14.9c0.5,8.7-0.5,17.7,9.7,22.2c2.2,1,4.6-0.4,7.2,0.9c1.7,0.9,2.8,3.7,4.5,4.5
				c1.6,0.8,2.8,1.2,3.7,1.2c-1.1-3.8-2.2-7.7-4.8-10.6c-2.6-3-7.7-2.1-11-5c-7.1-6.2-2.8-17-8.3-23.9c-6-7.5-16.8-7.5-20.9-17.5
				c0,0,0-0.1,0-0.1c-0.2,0.1-0.4,0.2-0.6,0.4C85.2,100.3,93,100.4,98.2,104.8z"/>
			<g>
				<g>
					<path class="st2" d="M22.3,93.4c9.7,13.6,30.8,33.1,33.8,31c2.5-1.8-8.9-28.3-18.6-41.9c-4.9-6.9-16.6-7.3-16.6-7.3
						S17.7,87,22.3,93.4z"/>
					<path class="st2" d="M47.2,105.6c-3.8-4.7-8.7-8-13.1-12C29,89,24.4,84,20.3,78.5c0.3-2,0.7-3.3,0.7-3.3s11.6,0.4,16.6,7.3
						C47,95.7,58,121.3,56.2,124.2C55,117.4,51.3,110.7,47.2,105.6z"/>
					<path class="st2" d="M69.3,59.8c9.7,13.6,30.8,33.1,33.8,31c2.5-1.8-8.9-28.3-18.6-41.9C79.6,42,68,41.6,68,41.6
						S64.7,53.4,69.3,59.8z"/>
					<path class="st2" d="M80,56.6c2.9,6.1,2.4,10.9,5,16.1c2,3.8,3.9,8,6.8,11.3c-7.5-6.5-17-16.4-22.6-24.2
						C64.7,53.4,68,41.6,68,41.6s0.5,0,1.4,0.1C74,46.2,76.9,49.9,80,56.6z"/>
					<path class="st3" d="M53.1,103.6c-10.8-4.8-22.6-14.8-32.3-28.4C2.9,50.2-4.8,6.5,3.2,0.8c7.5-5.4,46.8,15.7,64.7,40.8
						c9.7,13.6,15.3,27.9,16.4,39.8c0,0-1.4,6-13.2,14.4C59.5,104,53.1,103.6,53.1,103.6z"/>
					<path class="st4" d="M1.1,24.2C-0.8,12.5-0.4,3.4,3.2,0.8c3.2-2.3,12.1,0.2,22.7,5.8c-1.8,2.6-5,6.1-11,10.4
						C8.8,21.4,4.1,23.4,1.1,24.2z"/>
					<path class="st5" d="M68.7,92.5c10.4-7.5,14-12.9,15-15.1c0.2,1.3,0.4,2.7,0.5,3.9c0,0-1.4,6-13.2,14.4
						c-11.5,8.2-17.9,7.8-17.9,7.8c-1.2-0.5-2.4-1.1-3.6-1.8C51.9,101.5,58.4,99.8,68.7,92.5z"/>
					<path class="st5" d="M17.2,46.9c4.9,6.9,14.5,8.5,21.5,3.6c6.9-4.9,8.5-14.5,3.6-21.4c-4.9-6.9-14.5-8.5-21.4-3.6
						C13.9,30.4,12.3,40,17.2,46.9z"/>
					<path class="st6" d="M19.5,45.3c4,5.6,11.8,6.9,17.5,2.9c5.6-4,6.9-11.8,2.9-17.5c-4-5.6-11.8-6.9-17.5-2.9
						C16.8,31.8,15.5,39.6,19.5,45.3z"/>
					<path class="st7" d="M3.2,0.8c0.1-0.1,0.2-0.1,0.3-0.2c0.3,5.9,1,10.6,1.6,15.8c1.4,13.7,5.1,27.1,10.3,39.8
						c4.9,11.8,11,23.4,22.5,30C48,92.1,60,92.8,71.3,90.4c3-0.7,6.1-1.5,9-2.7c-2,2.3-4.9,5-9.2,8.1c-11.5,8.2-17.9,7.8-17.9,7.8
						c-10.8-4.8-22.6-14.8-32.3-28.4C2.9,50.2-4.8,6.5,3.2,0.8z"/>
					<path class="st8" d="M21.9,84c0,0-0.1,0.8,0,2.2c0.1,0.7,0.2,1.5,0.4,2.5c0.2,1,0.5,2,1,3.1c0.5,1.1,1.1,2.3,1.9,3.4
						c0.4,0.6,0.8,1.1,1.3,1.7c0.4,0.6,0.9,1.1,1.4,1.7c0.9,1.2,2,2.3,3,3.5c1.1,1.1,2.2,2.3,3.3,3.5c1.1,1.2,2.2,2.3,3.4,3.4
						c1.1,1.1,2.2,2.2,3.3,3.2c1.1,1,2.2,2,3.2,2.8c1,0.9,2,1.7,3,2.5c3.7,3,6.4,4.8,6.4,4.8c0,0,0.1,0,0.1,0c0,0,0-0.1,0-0.1
						c0,0-2.3-2.2-5.8-5.5c-0.9-0.8-1.8-1.7-2.8-2.6c-1-0.9-2.1-1.9-3.2-2.9c-1.1-1-2.3-2-3.4-3.1c-1.2-1.1-2.3-2.1-3.5-3.2
						c-1.2-1.1-2.3-2.2-3.4-3.3c-1.1-1.1-2.1-2.2-3.1-3.4c-0.5-0.6-1-1.1-1.4-1.7c-0.4-0.6-0.9-1.1-1.3-1.6c-0.8-1.1-1.4-2.2-2-3.2
						c-0.5-1.1-0.9-2.1-1.1-3c-0.3-0.9-0.4-1.8-0.5-2.4C22,84.8,22.1,84,22.1,84C22.1,84,22.1,84,21.9,84C22,84,21.9,84,21.9,84z"/>
					<path class="st8" d="M75.8,45.6c0,0,0.8,0.2,2,0.8c0.6,0.3,1.3,0.7,2.1,1.3c0.8,0.5,1.6,1.2,2.5,2c0.8,0.8,1.7,1.8,2.4,2.9
						c0.4,0.5,0.7,1.2,1.1,1.8c0.4,0.6,0.7,1.2,1.1,1.9c0.8,1.3,1.4,2.6,2.2,4c0.7,1.4,1.4,2.8,2.1,4.3c0.7,1.4,1.3,2.9,1.9,4.3
						c0.6,1.4,1.2,2.9,1.8,4.2c0.6,1.4,1.2,2.7,1.7,3.9c0.6,1.2,1.1,2.4,1.6,3.5c2,4.4,3.3,7.2,3.3,7.2c0,0,0.1,0,0.1,0
						c0,0,0,0,0-0.1c0,0-0.8-3.1-2.4-7.6c-0.4-1.1-0.9-2.3-1.4-3.6c-0.5-1.3-1-2.6-1.6-4c-0.6-1.4-1.3-2.8-1.9-4.2
						c-0.7-1.4-1.4-2.9-2.1-4.3c-0.7-1.4-1.5-2.8-2.2-4.2c-0.8-1.4-1.5-2.7-2.3-4c-0.4-0.6-0.8-1.3-1.2-1.9
						c-0.4-0.6-0.8-1.2-1.2-1.7c-0.8-1.1-1.7-2.1-2.7-2.9c-0.9-0.8-1.8-1.5-2.6-2c-0.8-0.5-1.6-0.9-2.2-1.2
						c-1.3-0.6-2.1-0.7-2.1-0.8C75.8,45.5,75.8,45.5,75.8,45.6C75.8,45.6,75.8,45.6,75.8,45.6z"/>
					<path class="st8" d="M6.2,1.6c0,0,1.7,0.4,4.6,1.3c2.9,0.9,7,2.5,11.8,4.7c2.4,1.1,4.9,2.4,7.5,3.9c2.6,1.5,5.3,3.1,8,5
						c2.7,1.8,5.4,3.9,8,6.1c2.6,2.2,5.2,4.6,7.6,7.1c0.6,0.6,1.2,1.3,1.8,1.9c0.6,0.7,1.2,1.3,1.7,2c0.6,0.7,1.1,1.3,1.6,2
						c0.6,0.7,1,1.4,1.6,2c1.1,1.3,2,2.8,3,4.1c0.9,1.4,1.8,2.8,2.7,4.2c0.9,1.4,1.8,2.7,2.7,4c0.4,0.7,0.8,1.3,1.2,2
						c0.4,0.7,0.8,1.3,1.2,2c0.8,1.3,1.5,2.5,2.2,3.7c0.7,1.2,1.3,2.4,1.9,3.6c0.3,0.6,0.6,1.1,0.9,1.7c0.3,0.6,0.6,1.1,0.9,1.6
						c0.5,1.1,1,2.1,1.4,3.1c0.2,0.5,0.4,0.9,0.6,1.4c0.2,0.5,0.3,0.9,0.5,1.3c0.3,0.9,0.6,1.6,0.9,2.4c0.2,0.7,0.4,1.4,0.6,1.9
						c0.1,0.3,0.2,0.5,0.2,0.8c0.1,0.2,0.1,0.5,0.1,0.7c0.2,0.8,0.2,1.2,0.2,1.2l0.1,0c0,0,0-0.4-0.1-1.3c0-0.2-0.1-0.4-0.1-0.7
						c0-0.3-0.1-0.5-0.2-0.8c-0.1-0.6-0.3-1.3-0.5-2c-0.2-0.7-0.5-1.5-0.8-2.4c-0.1-0.4-0.3-0.9-0.5-1.4c-0.2-0.5-0.4-0.9-0.6-1.4
						c-0.4-1-0.8-2.1-1.3-3.2c-0.5-1.1-1.1-2.2-1.6-3.4c-0.6-1.2-1.2-2.4-1.8-3.7c-0.7-1.2-1.4-2.5-2.2-3.8c-0.4-0.7-0.8-1.3-1.1-2
						c-0.4-0.7-0.8-1.4-1.2-2c-0.9-1.3-1.7-2.7-2.6-4.1c-0.9-1.4-1.8-2.8-2.7-4.2c-0.5-0.7-1-1.4-1.5-2.1c-0.5-0.7-1-1.4-1.6-2.1
						c-0.5-0.7-1.1-1.4-1.6-2c-0.6-0.7-1.1-1.3-1.7-2c-0.6-0.7-1.2-1.3-1.8-1.9c-0.6-0.7-1.2-1.3-1.8-1.9c-2.5-2.5-5.1-4.9-7.8-7.1
						c-2.7-2.2-5.4-4.2-8.2-6c-5.5-3.6-11-6.5-15.8-8.6C18,5,13.8,3.6,10.9,2.7C8,1.8,6.2,1.5,6.2,1.5L6.2,1.6z"/>
					<path class="st8" d="M39.9,51.2c0,0,0.2-0.1,0.5-0.4c0.2-0.1,0.3-0.3,0.6-0.4c0.1-0.1,0.2-0.2,0.4-0.3c0.1-0.1,0.2-0.2,0.4-0.4
						c0.3-0.2,0.6-0.5,0.9-0.8c0.3-0.3,0.6-0.7,0.9-1.1c0.3-0.4,0.6-0.8,0.9-1.3c0.3-0.5,0.6-1,0.9-1.5c0.1-0.3,0.3-0.6,0.4-0.9
						c0.1-0.3,0.3-0.6,0.4-0.9c0.2-0.6,0.5-1.3,0.6-2c0.4-1.4,0.5-2.9,0.5-4.5c0-1.6-0.3-3.2-0.8-4.8c-0.5-1.6-1.3-3.1-2.2-4.5
						l-0.8-1c-0.2-0.3-0.5-0.6-0.8-1l-0.4-0.5c-0.1-0.2-0.3-0.3-0.5-0.4c-0.3-0.3-0.6-0.6-0.9-0.8c-1.3-1-2.7-1.9-4.2-2.5
						c-1.5-0.6-3-1-4.5-1c-0.7-0.1-1.4-0.1-2.1-0.1c-0.3,0-0.7,0.1-1,0.1c-0.3,0-0.7,0.1-1,0.1c-0.6,0.1-1.2,0.2-1.8,0.4
						c-0.5,0.2-1.1,0.3-1.5,0.5c-0.5,0.2-0.9,0.4-1.3,0.6c-0.4,0.2-0.7,0.4-1,0.6c-0.2,0.1-0.3,0.2-0.4,0.3
						c-0.1,0.1-0.3,0.2-0.4,0.3c-0.2,0.2-0.4,0.3-0.6,0.4c-0.3,0.2-0.5,0.4-0.5,0.4c0,0,0,0.1,0,0.1c0,0,0.1,0,0.1,0l0,0
						c0,0,0.2-0.1,0.5-0.3c0.2-0.1,0.4-0.2,0.6-0.3c0.1-0.1,0.2-0.1,0.4-0.2c0.1-0.1,0.3-0.1,0.5-0.2c0.3-0.1,0.7-0.3,1.1-0.4
						c0.4-0.1,0.8-0.3,1.3-0.4c0.5-0.1,1-0.2,1.5-0.4c0.5-0.1,1.1-0.1,1.7-0.2c0.3,0,0.6,0,0.9,0c0.3,0,0.6,0,0.9,0
						c0.6,0,1.3,0,2,0.2c1.3,0.1,2.7,0.5,4.1,1c1.4,0.5,2.7,1.3,4,2.2c0.3,0.2,0.6,0.5,0.9,0.7c0.2,0.1,0.3,0.2,0.4,0.4l0.4,0.4
						c0.6,0.5,1.1,1.2,1.6,1.8c0.9,1.3,1.7,2.7,2.2,4.2c0.5,1.5,0.8,3,0.9,4.5c0.1,1.5,0,3-0.3,4.3c-0.1,0.7-0.3,1.3-0.5,1.9
						c-0.1,0.3-0.2,0.6-0.3,0.9c-0.1,0.3-0.2,0.6-0.4,0.9c-0.3,0.5-0.5,1.1-0.8,1.5c-0.3,0.5-0.6,0.9-0.9,1.3
						c-0.3,0.4-0.6,0.7-0.9,1.1c-0.3,0.3-0.6,0.6-0.8,0.8c-0.1,0.1-0.2,0.2-0.4,0.4c-0.1,0.1-0.2,0.2-0.3,0.3
						c-0.2,0.2-0.4,0.3-0.5,0.5c-0.3,0.2-0.5,0.4-0.5,0.4C39.8,51.2,39.8,51.2,39.9,51.2C39.9,51.3,39.9,51.3,39.9,51.2z"/>
					<path class="st8" d="M36.4,47.4c0,0,0.1-0.1,0.3-0.2c0.1-0.1,0.2-0.2,0.4-0.3c0.1-0.1,0.2-0.1,0.2-0.2c0.1-0.1,0.2-0.2,0.3-0.2
						c0.2-0.2,0.4-0.4,0.6-0.6c0.2-0.2,0.4-0.5,0.6-0.7c0.2-0.3,0.4-0.6,0.7-0.9c0.2-0.3,0.4-0.7,0.6-1.1c0.1-0.2,0.2-0.4,0.3-0.6
						c0.1-0.2,0.2-0.4,0.3-0.6c0.1-0.4,0.3-0.9,0.4-1.4c0.3-0.9,0.3-2,0.3-3.1c0-1.1-0.2-2.2-0.6-3.3c-0.4-1.1-0.9-2.1-1.5-3.1
						l-0.5-0.7c-0.2-0.2-0.4-0.4-0.6-0.7l-0.3-0.3c-0.1-0.1-0.2-0.2-0.3-0.3c-0.2-0.2-0.4-0.4-0.6-0.6c-0.9-0.7-1.9-1.3-2.9-1.7
						c-1-0.4-2.1-0.7-3.1-0.7c-0.5-0.1-1,0-1.5,0c-0.2,0-0.5,0-0.7,0.1c-0.2,0-0.4,0-0.7,0.1c-0.4,0.1-0.8,0.2-1.2,0.3
						c-0.4,0.1-0.7,0.2-1.1,0.4c-0.3,0.1-0.6,0.3-0.9,0.4c-0.3,0.1-0.5,0.3-0.7,0.4c-0.1,0.1-0.2,0.1-0.3,0.2
						c-0.1,0.1-0.2,0.1-0.3,0.2c-0.2,0.1-0.3,0.2-0.4,0.3c-0.2,0.2-0.3,0.2-0.3,0.2c0,0,0,0,0,0.1c0,0,0,0,0.1,0l0,0
						c0,0,0.1-0.1,0.4-0.2c0.1-0.1,0.3-0.1,0.4-0.2c0.1,0,0.2-0.1,0.3-0.1c0.1,0,0.2-0.1,0.3-0.1c0.2-0.1,0.5-0.2,0.7-0.3
						c0.3-0.1,0.6-0.2,0.9-0.3c0.3-0.1,0.7-0.2,1-0.2c0.4-0.1,0.8-0.1,1.2-0.2c0.2,0,0.4,0,0.6,0c0.2,0,0.4,0,0.6,0
						c0.4,0,0.9,0,1.3,0.1c0.9,0.1,1.9,0.4,2.8,0.7c0.9,0.3,1.9,0.9,2.7,1.5c0.2,0.2,0.4,0.3,0.6,0.5c0.1,0.1,0.2,0.2,0.3,0.3
						l0.3,0.3c0.4,0.3,0.7,0.8,1.1,1.2c0.6,0.9,1.2,1.8,1.5,2.9c0.3,1,0.6,2.1,0.6,3.1c0,1,0,2-0.2,3c-0.1,0.5-0.2,0.9-0.3,1.3
						c-0.1,0.2-0.2,0.4-0.2,0.6c-0.1,0.2-0.2,0.4-0.2,0.6c-0.2,0.4-0.4,0.7-0.6,1c-0.2,0.3-0.4,0.6-0.6,0.9
						c-0.2,0.3-0.4,0.5-0.6,0.7c-0.2,0.2-0.4,0.4-0.6,0.6c-0.1,0.1-0.2,0.2-0.2,0.2c-0.1,0.1-0.2,0.1-0.2,0.2
						c-0.1,0.1-0.3,0.2-0.4,0.3C36.4,47.2,36.3,47.3,36.4,47.4C36.3,47.3,36.3,47.3,36.4,47.4C36.3,47.4,36.3,47.4,36.4,47.4z"/>
					<path class="st9" d="M18.3,29.9c0,0-0.1,0.1-0.2,0.4c-0.1,0.2-0.3,0.6-0.6,1.1c-0.1,0.2-0.2,0.5-0.4,0.8
						c-0.1,0.3-0.2,0.6-0.4,0.9c-0.1,0.3-0.2,0.7-0.4,1.1c-0.1,0.4-0.2,0.8-0.3,1.2c-0.2,0.9-0.3,1.8-0.4,2.8c0,0.3,0,0.5,0,0.8
						c0,0.3,0,0.5,0,0.8c0,0.3,0,0.5,0.1,0.8c0,0.3,0.1,0.5,0.1,0.8c0.2,1.1,0.6,2.2,1.1,3.3c0.1,0.3,0.3,0.5,0.4,0.8l0.5,0.8
						c0.2,0.3,0.3,0.5,0.5,0.7l0.3,0.4l0.3,0.3c0.8,0.9,1.6,1.8,2.6,2.5c1,0.7,2,1.3,3.1,1.7c1.1,0.4,2.1,0.6,3.2,0.7
						c1,0.1,2,0.1,2.9,0c0.9-0.1,1.7-0.2,2.4-0.4c0.7-0.2,1.3-0.4,1.8-0.6c1-0.4,1.5-0.7,1.5-0.7c0,0,0,0,0-0.1c0,0,0,0-0.1,0
						c0,0-0.6,0.2-1.5,0.4c-0.5,0.1-1.1,0.2-1.8,0.3c-0.7,0.1-1.5,0.2-2.3,0.2c-0.9,0-1.8,0-2.7-0.2c-1-0.1-2-0.4-2.9-0.8
						c-1-0.4-2-0.9-2.9-1.5c-0.9-0.6-1.8-1.4-2.5-2.2l-0.3-0.3l-0.3-0.3c-0.2-0.2-0.4-0.5-0.5-0.7L18.1,45c-0.1-0.2-0.3-0.5-0.4-0.7
						c-0.5-1-0.9-2-1.1-3.1c-0.1-0.3-0.1-0.5-0.2-0.8c-0.1-0.3-0.1-0.5-0.1-0.8c0-0.3-0.1-0.5-0.1-0.8c0-0.3,0-0.5,0-0.8
						c0-1,0.1-1.9,0.3-2.8c0.1-0.4,0.2-0.8,0.3-1.2c0.1-0.4,0.2-0.7,0.3-1.1c0.1-0.3,0.2-0.6,0.3-0.9c0.1-0.3,0.2-0.5,0.3-0.8
						c0.2-0.5,0.4-0.8,0.5-1.1C18.3,30,18.4,29.9,18.3,29.9C18.4,29.9,18.4,29.9,18.3,29.9C18.4,29.8,18.3,29.8,18.3,29.9z"/>
					<path class="st10" d="M19.6,12.3c0.3-0.2,0.5-0.4,0.8-0.6c1.3-1,3.1-2.1,3.3-3.9c0.2-2-2-2.7-3.5-3.3c-2.5-1-5.1-2-7.7-2.6
						C11.1,1.6,5.8-0.3,5,1.7C4.4,3.1,7,4.6,8,5c1.9,0.9,4.2,1.4,5.3,3.4c1.9,3.4-2.4,7.1-4.6,9.1c-0.3,0.3-1.9,1.6-1.5,2.1
						c1.2,1.6,4.4-1,5.4-1.8C15,16.1,17.2,14.1,19.6,12.3z"/>
					<path class="st11" d="M52,27.4c-2.5-2.7-5.1-5.4-7.9-7.8c-3.8-3.3-8.2-6-13.2-6.9c-1.7-0.3-5.3-0.3-4.2,2.3
						c1.3,2.9,4.7,4.2,7.4,5.4c11.7,5.1,19,16.2,25.6,26.6c4.1,6.6,8.6,14.7,8.9,22.7c0.1,2.3-4.6,20.1,2.2,16.3
						c1.7-0.9,3.2-2.4,4.8-3.6c1.2-0.9,3.1-2.2,3.9-3.3c3.9-5.3-2.1-13.3-4.3-17.9c-3.5-7.2-7.8-13.9-12.4-20.4
						c-3-4.3-6.3-8.3-9.7-12.3C52.7,28.2,52.4,27.8,52,27.4z"/>
					<path class="st2" d="M53.8,87.8c9.7,13.6,30.8,33.1,33.8,31c2.5-1.8-8.9-28.3-18.6-41.9C64.1,70,54.8,68,52.5,69.6
						C50.3,71.2,49.3,81.4,53.8,87.8z"/>
					<path class="st2" d="M52,70.1c5.5,19.8,19.2,36.6,35.7,48.5c0,0.1-0.1,0.1-0.1,0.2c-3,2.1-24.1-17.4-33.8-31
						C49.6,81.9,50.1,72.7,52,70.1z"/>
					<path class="st8" d="M55.1,72c0,0,0.2,0,0.6,0c0.4,0,1,0.1,1.7,0.3c0.7,0.2,1.6,0.5,2.6,0.8c1,0.4,2,0.9,3.1,1.7
						c1.1,0.7,2.2,1.6,3.1,2.7c0.5,0.5,1,1.1,1.5,1.7c0.3,0.3,0.4,0.6,0.7,0.9c0.2,0.3,0.5,0.7,0.7,1c0.8,1.4,1.7,2.9,2.5,4.4
						c0.8,1.5,1.5,3,2.3,4.6c0.7,1.6,1.5,3.1,2.2,4.7c0.7,1.5,1.4,3.1,2.1,4.5c0.7,1.5,1.4,2.9,2,4.2c0.6,1.3,1.3,2.6,1.8,3.8
						c2.3,4.7,3.9,7.7,3.9,7.7c0,0,0.1,0,0.1,0c0,0,0-0.1,0-0.1c0,0-0.3-0.8-0.8-2.3c-0.3-0.7-0.6-1.6-0.9-2.6
						c-0.4-1-0.8-2.1-1.3-3.3c-0.5-1.2-1-2.5-1.6-3.9c-0.6-1.4-1.2-2.8-1.9-4.3c-0.7-1.5-1.4-3-2.2-4.5c-0.8-1.5-1.6-3.1-2.4-4.6
						C74,88,73.2,86.5,72.3,85c-0.8-1.5-1.7-2.9-2.6-4.3c-0.2-0.4-0.5-0.7-0.7-1c-0.2-0.3-0.5-0.7-0.7-1c-0.5-0.6-1-1.2-1.6-1.7
						c-1.1-1.1-2.2-1.9-3.3-2.6c-1.1-0.7-2.2-1.2-3.2-1.6c-1-0.4-1.9-0.6-2.6-0.7c-0.7-0.1-1.3-0.2-1.8-0.2c-0.4,0-0.6,0-0.6,0l0,0
						C55.1,71.8,55.1,71.8,55.1,72C55.1,71.9,55.1,72,55.1,72z"/>
				</g>
				<path class="st8" d="M19.5,41.9c-1-2.6-1.1-5.6,0-8.1c1.6-3.5,5.6-3,6.2,1c0.4,2.6,0.5,5.5,1.8,7.7c0.8,1.3,2,2,3.3,2.6
					c1,0.4,3,0.9,2.6,2.4c-0.3,1.3-2.3,1.7-3.4,1.7C25.5,49.3,21.1,46.1,19.5,41.9z"/>
			</g>
			<path class="st12" d="M115.8,151c-0.8-0.4-1.6-0.9-2.3-1.5c-5.1-4.5-5.4-12.5-10.2-17.2c-2.5-2.4-5.2-3.5-8-5.1
				c-2.4-1.4-4.2-3.7-5.6-6.2c-0.3-0.6-1-2.1-1.7-2.2c-1.6-0.2-1.8,3.4-1.3,4.6c1.3,3.4,5.5,5.4,8,7.4c3,2.3,5.8,5.1,7.3,8.8
				c1.1,2.6,1.4,5.4,2.1,8.1c1.2,4.3,3.5,8.9,5.7,12.9c2.7,5,5.4,10,8.7,14.6c1.8,2.5,6,7.2,9.1,6.6c2-0.4,0.3-3.6-0.4-5.1
				c-1-2.2-2.1-4.4-2.4-6.7c-0.4-2.4,0.8-3.8,1.3-5.9c0.4-1.6,0.4-3.9-0.5-5.5c-1.3-2.3-4.8-4.3-6.8-5.8
				C117.8,152.1,116.8,151.6,115.8,151z"/>
			<path class="st13" d="M126,164.1c-0.5,2.1-1.7,3.5-1.3,5.9c0.4,2.4,1.4,4.6,2.4,6.7c0.5,1.2,1.8,3.5,1.2,4.5
				c-4.5-3.5-4.9-8.6-5.1-13.8c-0.1-3.1-0.9-6.5-3.1-9.1c-2.7-3.1-6.4-4.5-9.1-7.6c-5.6-6.2-4-14.8-11.7-19.9
				c-3.3-2.1-6.7-4.5-8.3-7.8c1.2,1.6,2.5,3,4.2,4c2.8,1.6,5.6,2.7,8,5.1c4.9,4.7,5.1,12.7,10.2,17.2c0.7,0.6,1.5,1.1,2.3,1.5
				c1,0.5,2,1.1,2.9,1.8c2,1.5,5.5,3.6,6.8,5.8C126.5,160.2,126.4,162.5,126,164.1z"/>
			<g>
				<path class="st14" d="M123.1,109.2c-4.9-1.8-6-4.8-8.8-8.2c-1.6-2-5.9-3.4-5.8-6.4c0.2-3.7,13.4,0.9,14.9,2.8
					c1.4,1.9,4.3,11,3.1,12.4C125.4,109.8,124.3,109.6,123.1,109.2z"/>
				<path class="st15" d="M114.3,100.9c-1.6-2-5.8-3.3-5.8-6.2c0,0,0,0,0,0c6.4-0.2,8.3,6.1,11.3,10.5c1.1,1.7,2.4,3.1,3.9,4.1
					c-0.2-0.1-0.4-0.1-0.5-0.2C118.2,107.4,117.1,104.4,114.3,100.9z"/>
			</g>
			<g>
				<path class="st12" d="M98.4,168.9c-0.6-3.6,0-5.3-3.6-7.5c-2.4,2.2-1.6,14.8,0.9,16.9c4.1,3.5,6.1-0.7,4.9-4.5
					C100.1,171.9,98.8,171,98.4,168.9z"/>
				<path class="st13" d="M100.1,178c-5.6-2.5-2.2-9.7-3.7-14.2c-0.2-0.6-0.4-1.2-0.7-1.7c2.6,1.9,2.1,3.6,2.6,6.9
					c0.3,2.1,1.7,3,2.2,4.9c0.5,1.6,0.4,3.3-0.2,4.5C100.4,178.1,100.3,178.1,100.1,178z"/>
			</g>
			<g>
				<path class="st14" d="M67.3,135.4c-0.6-3.6,0-5.3-3.6-7.5c-2.4,2.2-1.6,14.8,0.9,16.9c4.1,3.5,6.1-0.7,4.9-4.5
					C69,138.5,67.7,137.5,67.3,135.4z"/>
				<path class="st15" d="M69,144.5c-5.6-2.5-2.2-9.7-3.7-14.2c-0.2-0.6-0.4-1.2-0.7-1.7c2.6,1.9,2.1,3.6,2.6,6.9
					c0.3,2.1,1.7,3,2.2,4.9c0.5,1.6,0.4,3.3-0.2,4.5C69.3,144.7,69.1,144.6,69,144.5z"/>
			</g>
			<path class="st8" d="M113.9,94.6c0,0,0.3,0.1,0.7,0.1c0.2,0,0.5,0.1,0.8,0.2c0.3,0.1,0.7,0.2,1,0.3c0.2,0.1,0.4,0.1,0.6,0.2
				c0.2,0.1,0.4,0.2,0.6,0.3c0.4,0.2,0.8,0.4,1.2,0.7c0.4,0.3,0.8,0.5,1.2,0.9c0.4,0.3,0.8,0.7,1.1,1c0.3,0.4,0.7,0.8,0.9,1.2
				c0.3,0.4,0.5,0.8,0.8,1.2c0.2,0.4,0.5,0.8,0.6,1.2c0.2,0.4,0.4,0.8,0.5,1.1c0.2,0.4,0.3,0.7,0.4,1c0.1,0.3,0.2,0.6,0.3,0.8
				c0.1,0.4,0.3,0.7,0.3,0.7l0.1,0c0,0,0.1-0.3,0.1-0.8c0-0.1,0-0.3,0-0.4c0-0.1,0-0.3,0-0.5c0-0.3,0-0.7-0.1-1.1
				c0-0.2-0.1-0.4-0.1-0.7c-0.1-0.2-0.1-0.4-0.2-0.7c-0.1-0.5-0.4-0.9-0.6-1.4c-0.3-0.4-0.6-0.9-1-1.3c-0.4-0.4-0.8-0.8-1.2-1.2
				c-0.4-0.4-0.9-0.7-1.3-1c-0.4-0.3-0.9-0.6-1.4-0.8c-0.5-0.2-0.9-0.4-1.4-0.6c-0.2-0.1-0.4-0.1-0.7-0.2c-0.2-0.1-0.4-0.1-0.6-0.2
				c-0.4-0.1-0.8-0.2-1.1-0.2c-0.3-0.1-0.6-0.1-0.9-0.1c-0.5,0-0.7,0-0.7,0L113.9,94.6z"/>
			<path class="st8" d="M102.9,104.2c0,0,0.6,0.5,1.6,1.5c1,1,2.5,2.3,4.3,3.9c0.9,0.8,1.8,1.7,2.8,2.6c1,0.9,2,1.9,3.1,3
				c0.5,0.5,1,1.1,1.5,1.7c0.5,0.6,1,1.1,1.5,1.7c0.5,0.6,1,1.2,1.4,1.8c0.4,0.7,0.9,1.3,1.3,2c0.4,0.7,0.9,1.3,1.3,2
				c0.4,0.7,0.8,1.4,1.1,2c0.8,1.3,1.4,2.7,2.1,4c0.7,1.3,1.3,2.6,1.9,3.8c0.3,0.6,0.6,1.2,0.9,1.8c0.3,0.6,0.6,1.1,0.8,1.7
				c0.2,0.5,0.4,1.1,0.7,1.6c0.2,0.5,0.4,1,0.5,1.4c0.3,0.9,0.5,1.7,0.7,2.4c0.1,0.3,0.1,0.6,0.2,0.9c0,0.3,0.1,0.5,0.1,0.7
				c0.1,0.4,0.1,0.6,0.1,0.6l0.1,0c0,0,0-0.2,0-0.6c0-0.2,0-0.4,0-0.7c0-0.3,0-0.6-0.1-0.9c0-0.7-0.2-1.6-0.4-2.5
				c-0.2-1-0.5-2-0.9-3.2c-0.2-0.6-0.4-1.2-0.7-1.8c-0.3-0.6-0.5-1.2-0.8-1.8c-0.6-1.3-1.2-2.6-1.9-3.9c-0.7-1.3-1.4-2.7-2.3-4.1
				c-0.4-0.7-0.8-1.4-1.3-2c-0.4-0.7-0.9-1.3-1.4-2c-0.5-0.6-0.9-1.3-1.4-1.9c-0.5-0.7-1-1.2-1.6-1.8c-0.5-0.6-1.1-1.2-1.6-1.7
				c-0.5-0.6-1.1-1.1-1.6-1.6c-1.1-1.1-2.1-2-3.2-2.9c-1-0.9-2-1.7-2.9-2.5c-1.8-1.5-3.4-2.8-4.4-3.7c-1.1-0.9-1.7-1.4-1.7-1.4
				L102.9,104.2z"/>
			<path class="st8" d="M98.1,132.1c0,0,0.5,0.6,1.5,1.8c0.5,0.5,1,1.3,1.6,2.1c0.2,0.2,0.3,0.4,0.5,0.6c0.1,0.2,0.3,0.5,0.4,0.7
				c0.1,0.3,0.3,0.5,0.4,0.8c0.1,0.3,0.2,0.6,0.4,0.8c0.5,1.1,0.8,2.5,1.2,3.9c0.4,1.4,0.8,2.9,1.2,4.4c0.1,0.4,0.2,0.8,0.3,1.2
				c0.1,0.4,0.2,0.8,0.4,1.2c0.2,0.8,0.6,1.6,0.9,2.3c0.6,1.6,1.3,3.1,2,4.6c0.3,0.8,0.7,1.6,1,2.3l0.5,1.2c0.2,0.4,0.4,0.8,0.5,1.1
				c0.4,0.8,0.7,1.5,1.1,2.3l0.3,0.6c0.1,0.2,0.2,0.4,0.3,0.6c0.2,0.3,0.4,0.7,0.6,1c0.4,0.7,0.8,1.3,1.2,2c0.4,0.6,0.8,1.3,1.2,1.9
				c0.8,1.2,1.6,2.3,2.4,3.3c0.4,0.5,0.7,1,1.1,1.5c0.3,0.5,0.7,0.9,1,1.3c0.3,0.4,0.6,0.8,0.9,1.1c0.3,0.3,0.6,0.6,0.9,0.9
				c0.5,0.5,1,0.9,1.2,1.2c0.3,0.3,0.5,0.4,0.5,0.4l0.1-0.1c0,0-0.1-0.2-0.4-0.5c-0.2-0.3-0.6-0.7-1.1-1.3c-0.4-0.6-1-1.3-1.5-2.1
				c-0.6-0.8-1.2-1.9-1.8-2.9c-0.7-1.1-1.4-2.2-2.2-3.4c-0.8-1.2-1.5-2.5-2.4-3.9c-0.2-0.3-0.4-0.7-0.6-1c-0.1-0.2-0.2-0.4-0.3-0.5
				l-0.3-0.5c-0.4-0.7-0.7-1.4-1.1-2.2c-0.2-0.4-0.4-0.7-0.6-1.1l-0.5-1.1c-0.4-0.8-0.7-1.5-1.1-2.3c-0.7-1.5-1.4-3-2.1-4.5
				c-0.3-0.8-0.7-1.5-0.9-2.3c-0.1-0.4-0.3-0.8-0.4-1.1c-0.1-0.4-0.2-0.8-0.3-1.1c-0.5-1.5-0.9-3-1.3-4.4c-0.4-1.4-0.9-2.7-1.4-3.9
				c-0.1-0.3-0.3-0.6-0.4-0.9c-0.1-0.3-0.3-0.5-0.5-0.8c-0.2-0.2-0.3-0.5-0.5-0.7c-0.2-0.2-0.3-0.4-0.5-0.6
				c-0.7-0.8-1.2-1.5-1.7-2.1c-1-1.1-1.6-1.7-1.6-1.7L98.1,132.1z"/>
			<path class="st8" d="M94.6,163.7c0,0,0.1,0.3,0.1,0.7c0,0.4,0,1-0.1,1.8c-0.1,0.7-0.3,1.6-0.5,2.6c-0.1,1-0.2,2-0.1,3
				c0.1,1,0.1,2.1,0.4,3.1c0.3,1,0.7,1.8,1.2,2.5c0.5,0.6,1.1,1.1,1.5,1.3c0.2,0.1,0.4,0.2,0.5,0.2c0.1,0,0.2,0,0.2,0l0.1-0.1
				c0,0-0.2-0.2-0.5-0.5c-0.1-0.2-0.3-0.4-0.4-0.6c-0.2-0.2-0.3-0.5-0.5-0.8c-0.3-0.6-0.6-1.4-0.8-2.3c-0.2-0.9-0.5-1.8-0.7-2.8
				c-0.1-1-0.2-2-0.2-2.9c0-0.9,0.2-1.8,0.2-2.6c0-0.8,0-1.4-0.2-1.9c-0.1-0.2-0.1-0.4-0.2-0.5c0-0.1-0.1-0.2-0.1-0.2L94.6,163.7z"
				/>
			<path class="st8" d="M67,118.4c0,0,0,0.2,0.1,0.5c0.1,0.3,0.1,0.8,0.2,1.4c0,0.6,0.1,1.4,0.2,2.2c0.2,0.8,0.3,1.8,0.5,2.8
				c0.1,0.5,0.2,1,0.4,1.6c0.1,0.3,0.1,0.6,0.2,0.8c0.1,0.3,0.2,0.6,0.3,0.9c0.2,0.6,0.4,1.2,0.5,1.8c0.2,0.6,0.4,1.2,0.7,1.8
				c0.2,0.6,0.5,1.2,0.7,1.9c0.3,0.6,0.5,1.3,0.8,1.9c0.3,0.6,0.6,1.3,0.9,1.9c0.3,0.6,0.6,1.2,1,1.8c0.3,0.6,0.7,1.2,1.1,1.8
				c0.4,0.6,0.7,1.2,1.1,1.8c0.4,0.6,0.7,1.1,1.1,1.7c0.4,0.5,0.8,1.1,1.2,1.6c0.4,0.5,0.8,1,1.2,1.5c0.4,0.5,0.8,1,1.2,1.4
				c0.8,0.9,1.6,1.7,2.3,2.4c0.7,0.7,1.4,1.4,2,2c0.3,0.3,0.6,0.6,0.9,0.8c0.3,0.2,0.6,0.4,0.8,0.6c0.5,0.3,0.9,0.6,1.3,0.7
				c0.3,0.1,0.5,0.2,0.5,0.2l0.1-0.1c0,0-0.1-0.1-0.4-0.3c-0.3-0.2-0.6-0.5-1.1-0.9c-0.4-0.4-0.9-0.9-1.5-1.6
				c-0.5-0.6-1.1-1.4-1.8-2.2c-0.7-0.8-1.4-1.7-2.2-2.6c-0.7-0.9-1.6-1.9-2.3-2.9c-0.4-0.5-0.8-1-1.2-1.5c-0.4-0.5-0.8-1.1-1.2-1.6
				c-0.2-0.3-0.4-0.6-0.6-0.8l-0.6-0.9c-0.4-0.6-0.8-1.1-1.1-1.7c-0.3-0.6-0.7-1.2-1-1.8c-0.3-0.6-0.6-1.2-0.9-1.8
				c-0.3-0.6-0.6-1.2-0.9-1.8c-0.3-0.6-0.6-1.2-0.8-1.8c-0.2-0.6-0.5-1.2-0.7-1.8c-0.2-0.6-0.4-1.2-0.6-1.7
				c-0.1-0.3-0.2-0.6-0.3-0.8c-0.1-0.3-0.2-0.6-0.2-0.8c-0.2-0.5-0.3-1.1-0.4-1.6c-0.3-1-0.5-1.9-0.6-2.8c-0.2-0.8-0.3-1.5-0.3-2.2
				c-0.1-0.6-0.1-1.1-0.3-1.4c-0.1-0.3-0.1-0.5-0.1-0.5L67,118.4z"/>
			<path class="st8" d="M63.6,130.1c0,0-0.1,1-0.4,2.4c-0.1,0.4-0.1,0.8-0.2,1.2c-0.1,0.4-0.1,0.9-0.2,1.3c0,0.5-0.1,0.9-0.1,1.4
				c0,0.5,0,1,0,1.5c0,0.5,0,1,0.1,1.5c0,0.5,0.1,1,0.2,1.5c0.1,0.2,0.1,0.5,0.2,0.7l0.1,0.2l0,0.1l0,0.1c0,0.1,0.1,0.2,0.1,0.3
				c0.2,0.4,0.4,0.8,0.7,1.1c0.2,0.3,0.5,0.6,0.7,0.8c0.3,0.2,0.5,0.4,0.7,0.5c0.2,0.1,0.4,0.1,0.5,0.1c0.1,0,0.2,0,0.2,0l0-0.1
				c0,0,0,0-0.1-0.1c-0.1-0.1-0.2-0.1-0.3-0.3c-0.1-0.1-0.3-0.3-0.4-0.6c-0.1-0.2-0.3-0.5-0.4-0.8c-0.1-0.3-0.3-0.7-0.4-1
				c0-0.1-0.1-0.2-0.1-0.3l0-0.1c0,0,0,0,0-0.1l0-0.1c-0.1-0.2-0.1-0.4-0.2-0.6c-0.1-0.4-0.3-0.8-0.4-1.3c-0.1-0.4-0.2-0.9-0.3-1.4
				c-0.1-0.5-0.1-1-0.1-1.4c0-0.5,0-0.9,0-1.4c0-0.9,0-1.8,0-2.5c0-1.5,0-2.5,0-2.5L63.6,130.1z"/>
		</g>
		<path class="st16" d="M109.3,183.4c3.9,2.1,8.1,6.8,6.7,10.7c-1.7,4.7-6.5,3.6-8.5-0.2c-1-1.8-2.5-10.4-1.2-11.5
			C107.3,182.5,108.3,182.9,109.3,183.4z"/>
		<path class="st17" d="M116,194.2c-0.5,1.3-1.2,2.2-2,2.6c0.5-5.3-3-11-7.7-14.3c0,0,0.1-0.1,0.1-0.1c0.9,0.1,1.9,0.5,2.9,1
			C113.2,185.5,117.4,190.2,116,194.2z"/>
		<path class="st18" d="M105.9,197.4c-1.2-1.9-2.8-3.7-4-4.5c-3.5-2.2-3.1-0.1-4.8,2.9c-1.3,2.2-3.4,3.3-4.8,5.4
			c-3,4.7-0.1,11.8,2.6,16.1c2,3.2,7.4,6,9.5,1.4c1.9-4.1-3.4-7.3-2.2-10.8c0.9-2.8,4.9-1.6,5.4-5.1
			C107.8,201.3,107,199.3,105.9,197.4z"/>
		<path class="st19" d="M101.6,220.3c0.3-3.5-1.9-5.9-3.9-8.5c-0.8-1-2.5-3.7-0.5-4.7c1.2-0.6,2.6-0.7,4-0.9
			c2.3-0.4,4.9-1.2,6.4-3.1c-0.7,3.1-4.4,2.1-5.3,4.8c-1.2,3.5,4.1,6.7,2.2,10.8c-0.7,1.5-1.8,2.2-3,2.4
			C101.5,220.8,101.6,220.6,101.6,220.3z"/>
		<path class="st8" d="M98.8,218.3c-0.4-0.4-0.9-0.7-1.3-1.2c-0.4-0.4-0.7-0.9-1.1-1.3c-0.3-0.5-0.6-1-0.9-1.5
			c-0.3-0.5-0.5-1-0.7-1.6c-0.1-0.3-0.2-0.5-0.3-0.8c-0.1-0.3-0.2-0.5-0.3-0.8l-0.2-0.8c-0.1-0.3-0.1-0.6-0.1-0.8
			c-0.1-0.6-0.1-1.1-0.2-1.7c0-0.6,0-1.1,0.1-1.7c0-0.6,0.2-1.1,0.3-1.6c0.1-0.3,0.2-0.5,0.2-0.8l0.1-0.4l0.2-0.4
			c0.1-0.2,0.2-0.5,0.4-0.7l0.4-0.7c0.1-0.2,0.3-0.5,0.5-0.7c0.2-0.2,0.3-0.4,0.5-0.6c0.8-0.8,1.7-1.6,2.4-2.6
			c0.4-0.5,0.7-1,0.9-1.6c0.2-0.6,0.3-1.2,0.3-1.8l0,0l0,0l-0.1-0.3c0,0,0,0-0.1,0c0,0,0,0,0,0.1l0,0.3l0,0
			c-0.1,0.6-0.4,1.1-0.6,1.5c-0.3,0.5-0.7,0.9-1,1.3c-0.8,0.8-1.7,1.5-2.6,2.3c-0.2,0.2-0.4,0.4-0.6,0.7c-0.2,0.3-0.4,0.4-0.6,0.7
			l-0.5,0.8c-0.2,0.3-0.3,0.6-0.4,0.8l-0.2,0.4l-0.1,0.4c-0.1,0.3-0.2,0.6-0.2,0.9c-0.1,0.6-0.2,1.2-0.2,1.8c-0.1,0.6,0,1.2,0,1.8
			c0.1,0.6,0.1,1.2,0.3,1.8c0.1,0.3,0.1,0.6,0.2,0.9l0.3,0.9c0.1,0.3,0.2,0.6,0.3,0.8c0.1,0.3,0.2,0.6,0.3,0.8
			c0.3,0.5,0.5,1.1,0.8,1.6c0.3,0.5,0.7,1,1,1.4c0.4,0.4,0.8,0.9,1.2,1.3C97.8,217.7,98.3,218,98.8,218.3
			C98.7,218.4,98.8,218.4,98.8,218.3C98.8,218.4,98.8,218.3,98.8,218.3z"/>
		<path class="st8" d="M112.6,196.4c0,0-0.2,0-0.6-0.1c-0.1,0-0.2,0-0.3-0.1c-0.1,0-0.2-0.1-0.3-0.1c-0.1,0-0.2-0.1-0.4-0.1
			c-0.1-0.1-0.2-0.2-0.4-0.2c-0.3-0.1-0.5-0.4-0.7-0.6c-0.1-0.1-0.2-0.3-0.3-0.4c-0.1-0.1-0.2-0.3-0.3-0.4c-0.1-0.2-0.2-0.3-0.3-0.5
			c-0.1-0.2-0.2-0.4-0.2-0.5c-0.2-0.4-0.3-0.7-0.4-1.1c-0.2-0.8-0.4-1.6-0.5-2.3c-0.1-0.7-0.3-1.4-0.4-2c-0.1-0.3-0.1-0.6-0.2-0.8
			c0-0.2-0.1-0.5-0.1-0.6c-0.1-0.4-0.1-0.6-0.1-0.6c0,0,0,0,0,0c0,0,0,0,0,0c0,0,0,0.8,0,2.1c0,0.6,0.1,1.3,0.2,2.1
			c0.1,0.8,0.4,1.6,0.7,2.3c0.2,0.4,0.3,0.8,0.5,1.1c0.1,0.2,0.2,0.4,0.3,0.5c0.1,0.2,0.2,0.3,0.3,0.5c0.1,0.2,0.2,0.3,0.4,0.5
			c0.1,0.1,0.2,0.3,0.4,0.4c0.3,0.2,0.5,0.5,0.8,0.6c0.1,0.1,0.3,0.2,0.4,0.2c0.1,0,0.3,0.1,0.4,0.1c0.1,0,0.2,0.1,0.3,0.1
			c0.1,0,0.2,0,0.3,0C112.4,196.5,112.6,196.5,112.6,196.4C112.6,196.5,112.6,196.5,112.6,196.4
			C112.6,196.4,112.6,196.4,112.6,196.4z"/>
		<path class="st18" d="M139.9,195.5c-3.2-1.2-5.3-10.3-2.4-12.7c5.6-4.6,9.3,8.7,4.4,12.3C141.3,195.7,140.6,195.7,139.9,195.5z"/>
		<path class="st19" d="M137.6,182.8c0.8-0.6,1.5-0.9,2.2-0.9c-3,3.5-1.6,10,1.9,13.5c-0.6,0.3-1.2,0.3-1.7,0.1
			C136.7,194.3,134.6,185.2,137.6,182.8z"/>
		<path class="st16" d="M134.2,168.3c-1.7-3.2-2.3-8.3,0.4-10.2c3.3-2.4,5.9,0.6,5.5,4c-0.2,1.7-3.1,8.1-4.5,8.2
			C135.1,169.8,134.6,169.1,134.2,168.3z"/>
		<path class="st17" d="M137.6,166c1.3-2.7,1.6-5.6,0.8-8.3c1.2,0.8,2,2.5,1.7,4.4c-0.2,1.7-3.1,8.1-4.5,8.2
			c-0.3-0.2-0.5-0.5-0.7-0.8C136,168.5,136.9,167.3,137.6,166z"/>
		<path class="st8" d="M139.9,182.5c0,0,0.1,0.1,0.3,0.4c0.1,0.1,0.2,0.3,0.4,0.4c0.1,0.2,0.3,0.3,0.4,0.6c0.1,0.1,0.2,0.2,0.2,0.3
			c0.1,0.1,0.1,0.3,0.2,0.4c0.2,0.3,0.3,0.6,0.4,0.8c0.1,0.3,0.2,0.6,0.3,0.9c0.1,0.3,0.2,0.7,0.2,1c0,0.3,0.1,0.7,0.1,1
			c0,0.3,0,0.7,0,1c0,0.3,0,0.6,0,0.9c0,0.3,0,0.6,0,0.8c0,0.3,0,0.5-0.1,0.7c0,0.2,0,0.4-0.1,0.6c0,0.3-0.1,0.5-0.1,0.5v0
			c0,0,0,0,0,0.1c0,0,0,0,0,0c0,0,0.1-0.1,0.3-0.4c0.1-0.1,0.2-0.3,0.3-0.5c0.1-0.2,0.2-0.4,0.3-0.7c0-0.1,0.1-0.3,0.1-0.4
			c0-0.1,0.1-0.3,0.1-0.5c0.1-0.3,0.1-0.7,0.1-1c0-0.4,0-0.7-0.1-1.1c-0.1-0.4-0.1-0.7-0.2-1.1c-0.1-0.4-0.2-0.7-0.4-1.1
			c-0.1-0.3-0.3-0.7-0.4-1c-0.2-0.3-0.3-0.6-0.5-0.8c-0.1-0.1-0.2-0.3-0.3-0.4c-0.1-0.1-0.2-0.2-0.3-0.3c-0.2-0.2-0.4-0.4-0.5-0.5
			c-0.2-0.2-0.3-0.3-0.4-0.4C140.2,182.6,140,182.5,139.9,182.5C140,182.5,140,182.5,139.9,182.5
			C139.9,182.5,139.9,182.5,139.9,182.5z"/>
		<path class="st8" d="M135,158.6c0,0-0.1,0.1-0.3,0.3c-0.1,0.1-0.2,0.2-0.3,0.3c-0.1,0.1-0.2,0.3-0.3,0.5c-0.1,0.2-0.2,0.4-0.3,0.6
			c-0.1,0.2-0.2,0.5-0.2,0.8c-0.1,0.3-0.1,0.6-0.2,0.8c0,0.3-0.1,0.6,0,0.9c0,0.3,0,0.6,0,0.9c0,0.3,0.1,0.6,0.1,0.8
			c0.1,0.5,0.3,1,0.5,1.4c0.1,0.2,0.2,0.4,0.3,0.5c0.1,0.2,0.2,0.3,0.2,0.4c0.1,0.2,0.2,0.3,0.2,0.3c0,0,0,0,0,0c0,0,0,0,0,0
			c0,0,0-0.1-0.1-0.4c-0.1-0.2-0.2-0.6-0.3-1c-0.1-0.2-0.1-0.4-0.2-0.7c-0.1-0.2-0.1-0.5-0.2-0.8c-0.1-0.3-0.1-0.5-0.2-0.8
			c0-0.3-0.1-0.6-0.1-0.8c0-0.3,0-0.6,0-0.8c0-0.3,0-0.6,0.1-0.8c0-0.3,0.1-0.5,0.2-0.7c0.1-0.2,0.2-0.5,0.3-0.6
			c0.1-0.2,0.2-0.4,0.3-0.5c0.1-0.1,0.2-0.3,0.3-0.4C134.9,158.8,135,158.7,135,158.6C135,158.7,135,158.7,135,158.6
			C135,158.6,135,158.6,135,158.6z"/>
		<path class="st20" d="M128.4,193.1c5.7,3.2,6.3,7,9.1,11.9c1.6,2.8,6.5,5.3,5.8,8.9c-1,4.5-16.2-3.8-17.6-6.5
			c-1.3-2.6-3-14.3-1.2-15.8C125.7,191.8,127,192.3,128.4,193.1z"/>
		<path class="st21" d="M137.5,204.9c1.6,2.7,6.4,5.2,5.8,8.8c0,0,0,0,0,0c-7.9-1.1-8.9-9.1-11.6-15.2c-1-2.2-2.3-4.2-3.9-5.8
			c0.2,0.1,0.4,0.2,0.6,0.3C134,196.2,134.7,200.1,137.5,204.9z"/>
		<path class="st8" d="M135.3,212.2c0,0-0.3-0.2-0.8-0.6c-0.5-0.4-1.3-0.8-2.2-1.4c-0.5-0.3-1-0.6-1.5-0.9c-0.5-0.3-1-0.7-1.5-1.1
			c-0.2-0.2-0.5-0.4-0.7-0.7c-0.2-0.2-0.4-0.5-0.6-0.7c-0.2-0.3-0.4-0.6-0.5-0.9c-0.1-0.3-0.2-0.6-0.3-0.9c-0.4-1.3-0.4-2.7-0.6-4
			c-0.1-0.7-0.3-1.3-0.4-1.9c-0.1-0.6-0.3-1.2-0.4-1.7c-0.6-2.1-1.2-3.4-1.2-3.4l0,0c0,0-0.1-0.1-0.1,0c0,0,0,0,0,0.1
			c0,0-0.1,1.5,0.1,3.6c0,0.5,0.1,1.1,0.2,1.7c0.1,0.6,0.2,1.3,0.3,1.9c0.1,0.7,0.2,1.4,0.4,2.1c0.2,0.7,0.4,1.4,0.7,2.1
			c0.1,0.4,0.3,0.7,0.5,1.1c0.2,0.4,0.4,0.6,0.6,0.9c0.3,0.3,0.5,0.6,0.8,0.9c0.3,0.3,0.6,0.5,0.8,0.7c0.6,0.4,1.1,0.8,1.7,1
			c0.6,0.3,1.1,0.5,1.6,0.8c1,0.4,1.8,0.8,2.3,1.1c0.5,0.3,0.9,0.5,0.9,0.5c0,0,0.1,0,0.1,0C135.3,212.2,135.3,212.2,135.3,212.2z"
			/>
		<path class="st20" d="M153.8,182.5c0.6,0.7,1.1,1.4,1.6,2c1.4,1.9,3.9,4.4,3.2,7c-1.4,5.2-7.2,3-9.4-0.3c-2.4-3.8-0.3-8.3-2-12.3
			c-1.1-2.6-4-6-3-9C145.9,174.1,150.4,178.5,153.8,182.5z"/>
		<path class="st22" d="M144.3,172.5c0.8,3.8,3.5,5.8,5.9,8.5c1.5,1.7,0.9,2.7,0.5,4.7c-0.3,1.5-0.5,3.1,0.1,4.5
			c0.8,2,2.5,3.6,4.5,4.3c-2.2,0.2-4.9-1.4-6.1-3.4c-2.4-3.8-0.3-8.3-2-12.3c-1-2.5-3.8-5.8-3.1-8.7
			C144.1,170.9,144.1,171.7,144.3,172.5z"/>
		<path class="st8" d="M156.2,193.4c0,0,0.1-0.1,0.2-0.2c0.1-0.1,0.4-0.3,0.6-0.5c0.2-0.2,0.5-0.6,0.6-1c0.2-0.4,0.2-1,0.1-1.6
			c-0.2-1.2-0.8-2.4-1.6-3.5c-0.4-0.6-0.9-1.2-1.4-1.7c-0.5-0.6-1-1.2-1.4-1.7c-1-1.2-1.9-2.4-2.8-3.4c-0.5-0.5-0.9-1.1-1.4-1.5
			c-0.5-0.5-0.9-0.9-1.3-1.3c-0.2-0.2-0.4-0.4-0.5-0.6c-0.2-0.2-0.3-0.4-0.5-0.6c-0.3-0.4-0.5-0.7-0.7-1c-0.2-0.3-0.3-0.5-0.4-0.7
			c-0.1-0.2-0.1-0.2-0.1-0.2v0c0,0,0,0,0,0c0,0,0,0,0,0c0,0,0,0.1,0.1,0.3c0.1,0.2,0.1,0.4,0.3,0.7c0.1,0.1,0.1,0.3,0.2,0.5
			c0.1,0.2,0.2,0.4,0.3,0.6c0.3,0.4,0.6,0.8,0.9,1.3c0.4,0.4,0.8,0.9,1.2,1.4c0.4,0.5,0.9,1,1.3,1.6c0.9,1.1,1.9,2.2,2.9,3.4
			c0.5,0.6,1,1.2,1.5,1.7c0.5,0.5,1,1.1,1.4,1.7c0.8,1.1,1.5,2.3,1.7,3.4c0.1,0.5,0.1,1.1,0,1.5c-0.1,0.4-0.4,0.8-0.6,1
			c-0.2,0.2-0.4,0.4-0.6,0.5C156.2,193.3,156.1,193.3,156.2,193.4C156.1,193.3,156.1,193.3,156.2,193.4
			C156.1,193.4,156.1,193.4,156.2,193.4z"/>
	</g>
</g>
</svg>
