<?xml version="1.0" encoding="utf-8"?>
<!-- Generator: Adobe Illustrator 23.0.0, SVG Export Plug-In . SVG Version: 6.00 Build 0)  -->
<svg version="1.1" id="Layer_1" xmlns="http://www.w3.org/2000/svg" xmlns:xlink="http://www.w3.org/1999/xlink" x="0px" y="0px"
	 width="137px" height="134px" viewBox="0 0 137 134" style="enable-background:new 0 0 137 134;" xml:space="preserve">
<style type="text/css">
	.st0{fill:#8078BE;}
	.st1{fill:#8A83C4;}
	.st2{fill:#A19CCF;}
	.st3{fill:#C4C0E0;}
	.st4{fill:#D0462A;}
	.st5{fill:#453D82;}
	.st6{fill:#E9552D;}
	.st7{fill:#BB3F2A;}
	.st8{fill:#FECC71;}
	.st9{fill:#6A61B3;}
	.st10{fill:#FEE6BF;}
	.st11{fill:#453D83;}
	.st12{fill:#FED298;}
	.st13{fill:#FEC04F;}
	.st14{fill:#463E83;}
	.st15{fill:#0690CD;}
	.st16{fill:#FE9000;}
	.st17{fill:#AAA5D4;}
	.st18{fill:#948EC9;}
	.st19{fill:#FEA80B;}
	.st20{fill:#7F77BE;}
	.st21{fill:#F5A412;}
	.st22{fill:#40C0F9;}
	.st23{fill:#72D0FA;}
	.st24{fill:#FED299;}
	.st25{fill:#F67026;}
	.st26{fill:#07A8EF;}
	.st27{fill:#C0BCDF;}
	.st28{fill:#FDE4BE;}
</style>
<g>
	<path class="st0" d="M121.7,95.9c0.1-0.4,0.1-0.9,0.3-1.3c4.2-7.8,6.7-16.1,7.2-25c1-16.9-3.9-31.8-15-44.6c-1.1,1-1.1,2.2-0.9,3.5
		c0.2,0.9,0.5,1.8,0.8,2.7c0.2,0.6,0,0.9-0.7,0.8c-0.2,0,0,0-0.1,0c-2.4-1-4.8-1-7.2,0c-0.6,0.2-0.9,0-0.8-0.7c0-0.2,0,0,0-0.1
		c1-2.4,1-4.7,0-7.1c-0.3-0.7,0-1.1,0.8-0.8c0.8,0.3,1.7,0.5,2.5,0.7c1.3,0.3,2.6,0.1,3.6-0.9c-4.5-5-9.8-8.8-15.6-12
		c-7.3-3.9-15.1-6.2-23.4-7c-0.2,0-0.4,0-0.5-0.2c-0.5,0-1,0-1.4,0c-0.5,0.3-1,0.1-1.4,0.1c-0.5-0.1-1,0.1-1.4-0.1c-0.5,0-1,0-1.4,0
		C66.6,4,66,4,65.4,3.8c-0.4,0-0.8,0-1.2,0C64,4,63.8,4,63.5,3.8c-0.2,0-0.5,0-0.7,0c-1.5,0.3-3,0.2-4.5,0.4
		c-7.8,1.2-15.1,3.8-21.9,7.9c-0.4,0.3-1,0.4-1.1,1c0.2,0.6,0.7,0.6,1.2,0.7c5.3,1.1,9.1,4.2,11.1,9.2c0.6,1.5,0.7,1.5,2.3,1.6
		c0.8,0,1.6,0,2.4,0c1.9,0,1.9,0,2.6-1.8c1.8-4.3,4.9-7.2,9.3-8.6c6.8-2.2,14.2,0.9,17.5,7.2c0.2,0.5,0.4,1,0.8,1.3
		c1.4,0.8,3,0.8,4.5,1.3c6.6,1.9,12.6,5.1,17.7,9.7c8.3,7.3,13.3,16.4,15.2,27.3c0.1,0.5,0.1,1,0.1,1.4c1,0.7,1,1.6,0.4,2.5
		c0.5,7.6-0.6,14.9-3.7,21.9c-0.5,1.2-1.1,2.4-1.7,3.6c-0.4,0.9-0.3,1.1,0.7,1.2c0.5,0.1,1,0,1.5,0.1c1.9,0.5,3.5,1.5,3.8,3.7
		C121.3,95.7,121.4,95.9,121.7,95.9z"/>
	<path class="st0" d="M6.3,70.7c0.7,1.7,0.6,3.5,0.9,5.2C9.3,88,14.6,98.6,23,107.5c0.4,0.5,0.9,0.9,1.3,1.4
		c0.6,0.6,1.4,0.4,2.1,0.4c7.7,0,15.3,0,23,0c21.9,0,43.9,0,65.8,0c0.8,0,1.7,0.4,2.3-0.6c-0.4-0.5-1-0.4-1.6-0.4
		c-2.1,0-4.1,0-6.2,0c-0.6-0.1-1.3,0-1.9,0c-26.6,0-53.3,0-79.9,0c-2.4,0-2.4,0-2.4-2.5c0-3.2,0-6.5,0-9.7c0-1.6,0.1-1.7,1.7-1.7
		c8.5,0,17.1,0,25.6,0c0.7,0,1.4,0.1,2-0.2c0.1-0.1,0.2-0.2,0.1-0.4c-0.6-0.5-1.4-0.4-2.1-0.4c-8.7,0-17.4,0-26.1,0
		c-0.5,0-1,0-1.4,0c-0.8-0.1-1.2-0.5-0.6-1.3c0.4-0.4,0.9-0.4,1.3-0.4c2.1,0,4.2,0,6.4,0c1.5,0,1.6-0.3,1-1.5
		c-1.8-3.7-3.3-7.5-4.2-11.5c-0.1-0.5-0.2-1-0.7-1.2c-0.6-0.2-1.2-0.2-1.8-0.2c-3,0-6.1,0-9.1,0c-0.7,0-1.8,0.1-1.8-0.9
		c0-1,1.1-0.7,1.8-0.7c11.6,0,23.2,0,34.8,0c0.7,0,1.4,0.1,2.1-0.3c0.1-0.1,0.2-0.3,0-0.4c-0.6-0.5-1.4-0.3-2.1-0.3
		c-11,0-21.9,0-32.9,0c-0.3,0-0.6,0-1,0c-1.4,0-1.4-0.1-1.3-1.5c0.5-3.7,0.5-7.4,0-11.1c-0.1-0.6-0.1-1.2-0.5-1.7
		c-0.4-0.5-1.4-0.7-1.1-1.5c0.3-0.8,1.2-0.5,1.9-0.6c2,0,3.9,0,5.9,0c0.5,0,1,0.1,1.5-0.3c-1.1-3.6-0.4-7.3-0.6-10.9
		c-0.1-2.1,0.3-3.8,2.1-5c0.2-0.5-0.2-0.7-0.5-0.9c-4.1-2.7-6.5-6.5-7.1-11.4c0-0.3-0.1-0.7-0.4-1c-0.7,0-1,0.6-1.3,1.1
		c-4.2,6-7.3,12.5-9.2,19.6C7.1,53,6.4,56.6,6.4,60.2c0,0.1,0,0.2-0.1,0.3c0,0.6,0,1.1,0,1.7c0.2,0.5,0.2,1,0,1.4c0,0.8,0,1.6,0,2.4
		c0.2,0.6,0.2,1.1,0,1.7c0,0.4,0,0.8,0,1.2c0.2,0.2,0.2,0.5,0,0.7C6.3,70,6.3,70.3,6.3,70.7z"/>
	<path class="st1" d="M65.4,3.8c0.6,0.4,1.1,0.4,1.7,0C66.6,3.8,66,3.8,65.4,3.8z"/>
	<path class="st2" d="M70,4c0.5-0.1,1,0.2,1.4-0.2c-0.5,0-1,0-1.4,0C69.9,3.9,69.9,3.9,70,4C70,4,70,4,70,4z"/>
	<path class="st1" d="M70,4c0-0.1,0-0.2,0-0.2c-0.5,0-1,0-1.4,0C69,4.2,69.5,4,70,4z"/>
	<path class="st3" d="M63.5,3.8c0.2,0.3,0.5,0.3,0.7,0C64,3.8,63.8,3.8,63.5,3.8z"/>
	<path class="st4" d="M46.4,123.1c4.1,1.7,8.3,2.7,12.7,3.3c6.3,0.9,12.7,0.8,19-0.2c0.3,0,0.5-0.2,0.8-0.2c0.4-0.4,0.4-0.9,0.4-1.4
		c0-4,0-8.1,0-12.1c0-0.4,0-0.9-0.3-1.3c-0.5-0.4-1.1-0.3-1.7-0.3c-9.6,0-19.3,0-28.9,0c-0.6,0-1.1,0-1.6,0.3
		c-0.2,0.2-0.3,0.6-0.3,0.9C46.3,115.8,46.2,119.5,46.4,123.1z"/>
	<path class="st5" d="M46.7,111.3c10.7,0,21.5,0,32.2,0c0.4,0.4,0.9,0.4,1.3,0.4c2,0,3.9,0,5.9,0c5.6,0.1,11.2,0,16.8,0
		c1.4,0,2.7,0,4.1,0c0.6,0,1.2,0,1.7-0.4c2.3,0,4.6-0.1,7-0.1c4.2,0,6-1.7,6-5.9c0-3.1,0-6.2,0-9.4c-0.3-2.4-1.7-3.9-4-4.4
		c-1.5-0.1-3.1-0.3-4.6-0.3c-8.4,0-16.8,0-25.2,0c-5.4-0.1-10.7,0.1-16.1,0c-0.4,0-0.7,0-1,0.2c-0.5,0.8-0.5,1.7,0,2.6
		c0.4,0.3,0.8,0.3,1.3,0.3c12.5,0,25,0.1,37.6,0c2.3,0,4.6,0,7,0c1.7,0,2.4,0.7,2.5,2.4c0.1,3,0,6.1,0,9.1c0,1.3-0.9,2-1.6,2.8
		c-0.4,0.3-0.9,0.2-1.3,0.2c-30.1,0-60.1,0-90.2,0c-0.5,0-1,0-1.6,0c-0.4,0.5-0.7,1-0.4,1.6c0.3,0.6,0.9,0.7,1.5,0.7
		c0.5,0,1,0,1.4,0.1c0.5,0.3,1,0.4,1.5,0.4c3.6,0,7.2,0,10.8,0c2,0.1,4.1,0,6.1,0C45.8,111.7,46.3,111.7,46.7,111.3z"/>
	<path class="st6" d="M103,111.3c-5.6,0-11.2,0-16.8,0c-0.4,0.5-0.4,1-0.4,1.6c0,3.2,0,6.5,0,9.7c0,0.5-0.1,1.1,0.4,1.6
		c6.2-1.9,12-4.8,17.3-8.6C103.9,114.1,104.2,112.6,103,111.3z"/>
	<path class="st7" d="M86.2,124.1c0-4.3,0-8.6,0-12.8c-2.4,0-4.8,0-7.2,0c0,4.9,0,9.8,0,14.7C81.4,125.6,83.8,125.1,86.2,124.1z"/>
	<path class="st7" d="M46.7,111.3c-2.5,0-5,0-7.4,0c-0.3,0.3-0.4,0.8-0.4,1.2c0,2,0,4,0,6.1c0,0.4,0.1,0.9,0.4,1.2
		c2.2,1.5,4.7,2.4,7.2,3.3c0.5-0.4,0.3-0.9,0.3-1.3C46.7,118.3,46.7,114.8,46.7,111.3z"/>
	<path class="st8" d="M112.4,23c-2.1,1.2-4.1,0.5-6.1-0.2c-0.4-0.1-0.9-0.5-1.2-0.2c-0.4,0.4-0.1,0.9,0,1.3c0,0.1,0,0.2,0.1,0.2
		c1.1,2.3,0.9,4.5-0.1,6.8c-0.2,0.4-0.4,0.9-0.1,1.2c0.4,0.4,0.8,0.1,1.2-0.1c2.4-1,4.7-1,7,0c0.4,0.2,0.9,0.4,1.2,0.1
		c0.5-0.4,0-0.9-0.1-1.3c-0.1-0.5-0.2-1-0.4-1.5c-0.7-1.5-0.5-3,0.2-4.5c0,0,0-0.1,0-0.1C114.9,22.4,114.9,22.4,112.4,23z"/>
	<path class="st6" d="M39.2,119.8c0-2.8,0-5.7,0-8.5c-4.1,0-8.2,0-12.3,0C30.6,114.7,34.7,117.6,39.2,119.8z"/>
	<path class="st0" d="M103,111.3c0.7,1.3,0.4,2.8,0.5,4.2c1.9-1.3,3.7-2.7,5.3-4.2C106.8,111.3,104.9,111.3,103,111.3z"/>
	<path class="st5" d="M35.4,13.2c-3.7-0.2-7.2,0.5-10.2,2.7c-4.1,2.9-6.3,7-6.6,12.1c0,0.3,0,0.6-0.1,0.8c0.3,3.8,1.5,7.1,4.1,9.9
		c1.1,1.2,2.6,2.1,3.9,3.1c1.7,1.5,3.7,1.7,5.8,2c0.5,0.1,1,0,1.4,0c1.6,0.1,3.2-0.1,4.8-0.7c1-0.3,1.9-0.7,2.8-1.2
		c1.9-1,3.3-2.4,4.7-4c0.5-0.6,1.1-0.9,2-0.9c2.2,0,4.5,0,6.7,0c0.8,0,1.4,0.3,1.9,0.9c1.4,1.6,2.9,3.1,4.8,4.1
		c4.6,2.3,9.3,2.5,14.1,0.3c0.4-0.2,0.8-0.3,1.2-0.6c1.6-1.1,3.2-2.2,4.3-3.9c0.3-0.4,0.6-0.6,1.1-0.6c2.7-0.2,6.4,2.1,7.4,4.6
		c0.1,0.4,0.2,0.8,0.3,1.2c0.3,0.6,0.8,1,1.5,1.1c1.3-0.5,1.5-0.9,1.3-2.4c-0.6-3.3-2.8-5.1-5.6-6.3c-0.8-0.4-1.7-0.6-2.5-0.8
		c-0.4-0.1-1.2-0.1-1-0.8c0.2-0.7,0-1.9,1-1.9c2.7-0.1,5.5-0.6,8.1,0.6c3.9,1.8,6.2,4.8,6.6,9.1c0.1,1.7,0.8,2.3,2.2,1.8
		c0.3-0.6,0.6-1.2,0.8-1.8c-0.2-4.3-2.1-7.7-5.5-10.3c-2.3-1.7-4.8-2.6-7.7-2.6c-1.1,0-2.2,0-3.4,0c-0.8,0-1.2-0.3-1.2-1.1
		c-0.1-1.3-0.3-2.5-0.7-3.8c-0.2-0.5-0.3-1-0.8-1.3c-2.2-4.9-5.9-8.1-11.2-9.1C64.1,12,57.2,16,54.5,23.2c-0.3,0.8-0.6,1.1-1.5,1
		c-1.4-0.1-2.8,0.2-4.1-0.1c-1.4-0.4-1.2-2.2-1.9-3.2c-2.6-4.2-6.3-6.9-11.2-7.6C35.7,13.3,35.5,13.2,35.4,13.2z"/>
	<path class="st9" d="M82.8,22.6c0.7,1.8,1.2,3.7,1.2,5.6c0,0.8,0.4,0.9,1,0.9c2.4,0.1,4.8-0.3,7.2,0.4c5.1,1.6,8.2,5,9.4,10.2
		c0.1,0.7,0.2,1.3,0.3,2c1.2,0.2,1.5-0.9,2.1-1.5c0.4-0.5,0.3-1.5,1-1.6c0.7,0,0.9,0.9,1.4,1.4c0.5,0.5,1.1,1,1.8,1.2
		c0.8,0.2,1.2,0.6,0.8,1.4c-0.1,0.1,0,0.3,0.1,0.5c0.6,0.9,0.8,1.9,0.8,3c0,2.9,0,5.8,0,8.6c0,2.5-1.2,3.8-3.7,4.1
		c-1.2,0.1-2.4,0-3.6,0c-0.8,0-1.6-0.1-2.4,0.1c-0.6,0.8,0.3,0.9,0.6,1.2c1.4,1.1,2.4,2.4,3,4c1.5,3.9,0.6,7.8-2.5,10.7
		c-0.3,0.3-1.3,0.5-0.5,1.3c0.8,0.2,1.6,0.1,2.4,0.1c2.7,0,5.4,0,8.2,0c2.2,0,3.4,1.2,3.4,3.3c0.1,3.2,0.1,6.4,0,9.6
		c0,1.4-0.3,1.7-1.8,1.7c-5.2,0-10.4,0-15.6,0c-2.6,0-5.3,0-7.9,0c-0.4,0-0.9,0-1.3,0.2c-0.2,0.1-0.2,0.2-0.2,0.4
		c8.8,0,17.7,0,26.5,0c1.1,0,2.2,0,3.4,0c-0.8-0.5-1.6,0-2.5-0.3c2.1-4,3.8-8.2,4.8-12.6c0.9-4.3,1.2-8.6,1.1-12.9
		c0-0.4-0.2-0.8-0.2-1.2c-0.5-0.2-0.8,0.2-1.1,0.5c-0.6,0.5-1,1.2-1.3,2c-0.2,0.7-0.6,0.9-1.1,0.3c-0.8-1.1-1.8-2-3.1-2.5
		c-0.5-0.2-0.6-0.6-0.2-0.9c1.2-0.9,2.2-2,2.7-3.4c0.2-0.6,0.7-0.3,0.9,0.1c0.4,0.5,0.8,1.1,1.4,1.5c0.4,0.3,0.8,0.7,1.4,0.4
		c0.7-0.9,0.1-1.8-0.1-2.6c-1.5-8-4.8-15.1-10.1-21.3c-6.5-7.7-14.7-12.9-24.6-15.3C84.6,23,83.7,22.8,82.8,22.6z"/>
	<path class="st10" d="M120.3,62.5c-1.2-0.2-1.8-1.2-2.5-2.1c-0.8-1-1.1-1-1.5,0.1c-0.5,1.3-1.3,2.2-2.4,3c-1.1,0.7-1,1.1,0.1,1.5
		c1.3,0.5,2.3,1.3,3.1,2.5c0.7,1,1,0.9,1.4-0.2c0.5-1.2,1-2.3,2.2-2.8c0.1-0.1,0.3-0.3,0.4-0.4c0.7-0.5,0.6-0.9-0.2-1.3
		C120.7,62.8,120.5,62.6,120.3,62.5z"/>
	<path class="st10" d="M54.7,94c-9.5,0-19,0-28.5,0c-1,0-1.3,0.3-1.3,1.3c0.1,4.1,0,8.3,0,12.4c0,0.8,0.1,1.1,1,1.1
		c27.8,0,55.5,0,83.3,0c0.1,0,0.2,0,0.4,0c1-0.8,1.3-2,1-3.1c-0.2-0.5-0.5-0.8-1-0.9c-0.5-0.1-1-0.1-1.6-0.1c-7.9,0-15.8,0-23.7,0
		c-0.5,0-1,0-1.6-0.1c-0.4-0.1-0.7-0.2-0.8-0.6c0-0.4,0.3-0.6,0.6-0.8c0.6-0.2,1.3-0.2,1.9-0.2c7.6,0,15.2,0,22.8,0
		c0.4,0,0.9,0,1.3,0c1.7,0,2-0.5,1.9-2.1c-0.1-1.2-0.4-1.4-1.6-1.5c-0.3,0-0.6,0-1,0c-11.8,0-23.6,0-35.4,0c-0.6,0-1.1,0-1.7,0.1
		c-0.7,0.4-1.5,0.3-2.2,0c-1.5-0.1-2.9,0-4.4,0c-0.5,0-1.2,0-1.3-0.7c0-0.7,0.6-0.8,1.2-0.9c0.4-0.1,0.8-0.1,1.1-0.3
		c0.2-0.2,0.1-0.3,0-0.5c-0.2-0.2-0.4-0.4-0.6-0.6c-2.2-1.7-2.2-1.7-4.4-0.1c-1.3,1-2.7,1.8-4,2.8c-0.3,0.3-0.7,0.7-1.2,0.5
		c-0.4-0.2-0.2-0.8-0.2-1.2c0-1.1,0-2.2,0-3.2C55.1,94.7,55.3,94.2,54.7,94z"/>
	<path class="st10" d="M16.6,60.3c1,4.3,1,8.6,0.4,12.9c0,0.2-0.1,0.3-0.1,0.5c-0.3,1,0,1.4,1.2,1.4c11.7,0,23.3,0,35,0
		c0.5,0,1,0,1.6,0c0.1-0.1,0.2-0.2,0.3-0.4c0.2-1.6,0.1-3.2,0.1-4.8c0-0.8-0.5-1.2-1.3-1.3c-0.5,0-1,0-1.6,0c-7.9,0-15.8,0-23.6,0
		c-0.6,0-1.1,0-1.7-0.1c-0.4-0.1-0.7-0.3-0.7-0.7c0-0.4,0.3-0.6,0.7-0.7c0.6-0.1,1.1-0.1,1.7-0.1c8.3,0,16.6,0,25,0c0.5,0,1,0,1.4,0
		c5.2,0,10.5,0.1,15.7,0c2,0,3.9,0,5.9,0c0.4,0,0.8,0,1.2,0.1c0.4,0.1,0.8,0.3,0.8,0.8c0,0.5-0.3,0.7-0.8,0.8
		c-0.6,0.1-1.1,0.1-1.7,0.1c-1.3,0-2.6,0-3.8,0c-0.5,0-1.1,0-1.5,0.3c-0.3,0.6-0.3,1.2,0,1.8c0.5,0.4,1.1,0.3,1.6,0.3
		c6.8,0,13.5,0,20.3,0c1.8,0,2.2-0.3,2.4-2.1c0.2-1,0.1-2.1-0.1-3.1c-0.2-0.8-0.7-1.2-1.5-1.3c-0.5,0-1,0-1.6,0
		c-7.6,0-15.2,0-22.8,0c-0.5,0-1,0-1.4,0c-0.5-0.1-1.1-0.1-1.1-0.8c0-0.6,0.6-0.7,1.1-0.7c0.5-0.1,1,0,1.6,0c7.1,0,14.3,0,21.4,0
		c0.5,0,1,0,1.4,0c0.4-0.1,0.8-0.1,1-0.5c0.1-0.4-0.2-0.8-0.5-1c-0.5-0.5-1-0.8-1.5-1.1c-0.6-0.2-1.2-0.1-1.8-0.1
		c-23.5,0-47,0-70.6,0c-0.6,0-1.2-0.1-1.8,0.2C16.7,60.2,16.7,60.3,16.6,60.3z"/>
	<path class="st11" d="M100.3,75.9c2.6-2,4.2-4.6,4.3-7.9c0.1-3.8-1.7-6.7-4.8-8.9c-0.6-0.9-1.6-0.9-2.4-1.3
		c-2.2-0.6-4.4-0.2-6.6-0.3c-0.3,0-0.6,0-1,0c-3.2-0.1-6.4-0.1-9.6,0c-11.2-0.1-22.4-0.1-33.6,0c-2.7-0.1-5.5-0.1-8.2,0
		c-1.6,0-3.2,0-4.9,0c-2.5-0.1-4.9,0-7.4,0c-0.4,0-0.9,0-1.3,0.3c-2.7,0-5.4,0.1-8.1,0.1c-0.7,0-1.5-0.1-1.7,0.9
		c-0.2,1.1,0.6,1.4,1.4,1.6c0,0,0,0,0,0c0.4-0.2,0.8-0.1,1.2-0.1c24,0,48.1,0,72.1,0c1.8,0,3.6,0.1,5.4,0.3c3.4,0.5,5.7,2.3,6.5,5.7
		c0.9,3.8-1.8,7.6-5.6,8.3c-1.9,0.3-3.8,0.3-5.8,0.3c-6,0-11.9,0-17.9,0c-0.6,0-1.3-0.2-1.8,0.4c-0.3,0.8-0.4,1.6,0.1,2.4
		C71.1,78,71.6,78,72,78c3.2,0,6.4,0,9.5,0c2.1,0,4.2,0,6.2,0c3,0,5.9,0.2,8.9-0.3C98,77.3,99.4,77.2,100.3,75.9z"/>
	<path class="st12" d="M70.8,99.8c12.8,0,25.6,0,38.3,0c1.3,0,1.3,0.5,1.3,1.5c0,1-0.1,1.5-1.4,1.5c-8.5-0.1-16.9,0-25.4,0
		c-0.6,0-1.1,0-1.6,0.3c-0.4,0.3-0.6,0.7-0.5,1.2c0.1,0.5,0.5,0.8,1,0.8c0.3,0,0.6,0,1,0c8.4,0,16.7,0,25.1,0c1.8,0,2.2,0.6,1.6,2.3
		c-0.2,0.5-0.4,0.9-0.6,1.3c2.6,0,5.1,0,7.7,0.1c1.4-0.6,1.9-1.2,1.9-2.7c0-3.2,0-6.3,0-9.5c0-1.8-0.9-2.7-2.7-2.7
		c-2.3,0-4.6,0-6.9,0.1c-0.3,0.5,0,0.9,0.1,1.4c0.4,1.3,0.1,1.6-1.2,1.6c-0.4,0-0.8,0-1.2,0c-11.5,0-23.1,0-34.6,0
		c-0.7,0-1.5-0.1-2.1,0.3C70.3,98.1,70.2,99,70.8,99.8z"/>
	<path class="st6" d="M70.8,99.8c0-0.8,0-1.6,0-2.4c0.6-1.1,0.5-2.3,0-3.4c0-0.8,0-1.6,0-2.4c0.1-0.1,0.2-0.3,0.2-0.4
		c0.2-3.1,0.1-6.1,0.1-9.2c0-1,0-1.9,0-2.9c0-0.5,0-1-0.4-1.5c0-0.8,0-1.6,0-2.4c-0.1,0-0.1,0-0.2,0c-0.4,0.2-0.4,0.7-0.5,1.1
		c-1,3.2-4.1,5.4-7.3,5.4c-3.4,0-6.3-2.2-7.3-5.5c-0.1-0.4-0.2-0.8-0.4-1.1c-0.1-0.1-0.2-0.1-0.3,0c0,0,0,0.1,0,0.1
		c0,0.1,0,0.1,0,0.2c-0.5,0.8-0.3,1.6-0.2,2.5c0.2,0.5,0.1,1.1,0.1,1.7c0,4.3,0.1,8.6,0,13c0,0.5,0,1,0.2,1.4c0,0.1,0.1,0.1,0,0.2
		c0,1.8,0,3.5,0.1,5.3c0,0.3-0.1,0.7,0.2,0.9c0.4,0.3,0.7-0.1,1-0.3c2-1.4,4.1-2.8,6.1-4.2c0.5-0.4,0.9-0.4,1.4,0
		c0.7,0.6,1.5,1.1,2.3,1.7c0.9,1.1,2.1,1.8,3.4,2.4C69.7,99.7,70.2,100.9,70.8,99.8z"/>
	<path class="st13" d="M25.1,57.8c2.9,0,5.8,0.1,8.6-0.1c0.4-0.5,0.4-1,0.4-1.6c0-3.6,0-7.3,0-10.9c0-0.6,0.1-1.1-0.4-1.6
		c-2.5-0.1-4.9-0.8-7.2-1.8c-1.8,0.9-2.5,2.4-2.4,4.4c0.1,3,0,5.9,0,8.9C24.1,56.1,24.3,57.1,25.1,57.8z"/>
	<path class="st9" d="M28.6,77.6c0.8,4.8,2.6,9.2,4.9,13.7c-2.3,0-4.4,0-6.6,0c-0.8,0-1.7-0.3-2.4,0.2c0.4,0.5,1,0.4,1.6,0.4
		c7.1,0,14.3,0,21.4,0c0.5,0,1,0,1.4-0.2c0.1-0.1,0.2-0.2,0.2-0.4C48.6,90.9,48,91,47.4,91c-2.4,0-4.9,0-7.3,0
		c-1.4,0-1.7-0.2-1.7-1.6c0-3.7-0.2-7.4,0.2-11.2c0-0.2,0-0.5-0.1-0.7c-3.2-0.5-6.4-0.4-9.6-0.1C28.8,77.5,28.7,77.6,28.6,77.6z"/>
	<path class="st11" d="M28.6,77.6c3.3,0,6.6,0,9.8,0c0.4,0.4,0.9,0.4,1.3,0.4c3,0,6.1,0.1,9.1,0c1.8,0,3.6,0.2,5.4-0.1
		c0.1-0.1,0.3-0.2,0.3-0.3c0-0.8,0-1.6-0.1-2.3c-12.7,0-25.4,0-38.1,0c-0.7,0-1.2,0.2-1.3,1c-0.1,0.7,0.3,1.1,1,1.3
		c0.4,0.1,0.8,0.1,1.2,0.1C21.1,77.6,24.9,77.6,28.6,77.6z"/>
	<path class="st14" d="M49.1,91.6c-8.2,0-16.4,0-24.6,0c-0.6,0.3-0.9,0.8-0.7,1.5c0.2,0.7,0.9,0.7,1.5,0.7c9.8,0,19.5,0,29.3,0
		c0.2-1.7,0.1-3.3,0.1-5c0-3.4,0-6.7,0-10.1c0-0.4,0.1-0.7-0.1-1.1c0,0-0.1,0.1-0.1,0.1c-0.4,0.5-0.4,1.1-0.4,1.7c0,3.3,0,6.6,0,9.9
		c0,1.9,0,1.8-1.9,1.9C51.3,91.3,50.1,90.9,49.1,91.6z"/>
	<path class="st11" d="M16.9,86c0,0.4,0.3,0.6,0.6,0.6c1.4,0.4,2.4,1.3,3.2,2.5c0.7,1,1.1,1,1.5-0.2c0.4-1.4,1.4-2.3,2.5-3.1
		c0.7-0.5,1-1-0.2-1.4c-1.3-0.4-2.3-1.3-3.1-2.5c-0.7-1-1.1-1-1.5,0.2c-0.4,1.2-1.1,2.2-2.2,2.9C17.4,85.3,17.1,85.6,16.9,86z"/>
	<path class="st10" d="M70.8,93.9c0,1.1,0,2.3,0,3.4c12.8,0,25.7,0,38.5,0c1.1,0,1.4-0.5,1.1-1.7c-0.2-0.6-0.4-1.1-0.7-1.7
		c-0.5,0-1-0.1-1.6-0.1C95.7,93.9,83.2,93.9,70.8,93.9z"/>
	<path class="st15" d="M70.8,91.3c0,0.1,0,0.1,0,0.2c5.7,0,11.3,0,17,0c0-0.1,0-0.1,0-0.2c0.4-0.5,0.4-1,0.4-1.6c0-3.5,0-7,0-10.5
		c0-0.6,0-1.1-0.4-1.6c-2.1,0-4.2,0-6.2,0c-0.4,0.5-0.4,1.1-0.4,1.7c0,3.2,0,6.3,0,9.5c0,2.1,0,2.1-2.1,2.1c-2.2,0-4.5,0-6.7,0
		C71.8,91,71.2,90.9,70.8,91.3z"/>
	<path class="st16" d="M46.7,57.8c0.3,0,0.6,0.1,1,0.1c10.6,0,21.1,0,31.7,0c0.3,0,0.6-0.1,1-0.1c-0.1-0.1-0.2-0.2-0.3-0.3
		c-0.9-0.3-1.7-0.1-2.6-0.2c-1.3,0-1.4-0.1-1.5-1.5c0-4,0-8,0-12c0-0.6,0.1-1.3-0.4-1.8c-4.1,1.8-8.2,2.1-12.4,0.5
		c-0.6-0.2-1.2-0.5-1.9-0.8c-3.1-0.6-6.2-0.2-9.3-0.2c-0.2,0-0.4,0.1-0.6,0.2c-0.5,0.5-0.4,1.2-0.4,1.8c0,3.8,0,7.6,0,11.4
		c0,2.4,0,2.4-2.3,2.4c-0.6,0-1.2-0.1-1.8,0.2C46.9,57.5,46.8,57.6,46.7,57.8z"/>
	<path class="st17" d="M75.3,17.5c-4.3-2.7-8.7-2.6-13.1-0.1c-5.5,3.1-7.7,10-5.4,15.8c0.3,0.8,0.8,1.2,1.8,1.2
		c2.9-0.1,5.8-0.1,8.8-0.1c4.8-1.8,7.4-5.5,8.4-10.3C76.3,21.8,76.3,19.6,75.3,17.5z"/>
	<path class="st17" d="M40.2,17.4c-4-2.4-8.2-2.5-12.3-0.4C22,20,19.3,27.5,22,33.4c0.3,0.8,0.7,1.1,1.6,1c3-0.1,5.9-0.1,8.9-0.1
		c5-2,7.6-5.9,8.5-11c0.2-1.4,0.2-2.7,0-4C40.9,18.6,40.7,17.9,40.2,17.4z"/>
	<path class="st13" d="M80.3,57.7C80.3,57.7,80.3,57.8,80.3,57.7c3.2,0.2,6.5,0.2,9.7,0.1c2.2-1,3.4-2.9,4-5.1
		c0.6-2.6,0.4-5.2-1.3-7.4c-0.4-0.5-0.8-1-1.4-1.2c-0.5-0.2-1-0.4-1.3-1c-0.4-0.8-1.1-0.9-1.8-1.1c-0.4-0.1-0.8-0.2-1.2-0.4
		c-2.2-0.4-4.5-0.5-6.6,0.4C80,42.3,80,42.8,80,43.3c0,4.3,0,8.6,0,12.9C80,56.7,80,57.2,80.3,57.7z"/>
	<path class="st13" d="M46.7,57.8l0-0.1c0.4-0.4,0.3-1,0.3-1.5c0-4.3,0-8.6,0-12.9c0-0.5,0-1-0.3-1.5c-1.9-0.7-3.7-0.4-5.6-0.1
		c-0.9,0.4-1.8,0.8-2.7,1.2c-0.4,0.5-0.4,1-0.4,1.6c0,3.9,0,7.8,0,11.7c0,0.5-0.1,1.1,0.4,1.6C41.2,57.9,44,57.9,46.7,57.8z"/>
	<path class="st18" d="M75.3,17.5c0.2,1.2,0.5,2.4,0.5,3.5c0,5.8-2.6,10.1-7.7,12.9c-0.2,0.1-0.4,0.3-0.7,0.5c4,0,7.9,0,11.9,0
		c0.5,0,0.8,0,1.1-0.5C83.3,27.7,80.6,20.4,75.3,17.5z"/>
	<path class="st18" d="M40.2,17.4c2,6.7-1.3,13.4-7.1,16.5c-0.2,0.1-0.5,0.3-0.7,0.5c3.9,0,7.9,0,11.8,0c0.5,0,0.9-0.1,1.1-0.6
		C48.2,28,45.8,20.4,40.2,17.4z"/>
	<path class="st9" d="M99.3,41.6c0-5.2-4.9-10.1-10-10.2c-1.6,0-3.1,0-4.7,0c-0.7,0-1,0.1-1.2,0.9c-0.5,2.1-0.6,2.1,1.5,2.7
		c2.4,0.7,4.5,1.8,6.1,3.8c0.7,0.9,1.2,1.9,1.3,3c1.7,0.6,3.5,0.3,5.3,0.2C98.1,41.9,98.8,42,99.3,41.6z"/>
	<path class="st19" d="M97.7,41.8c-1.8,0-3.6-0.1-5.5,0.1c0.3,1,0,1.8-1,2.1c1.6,1.7,2.6,3.6,2.7,6.1c0.1,3.1-1.1,5.4-3.4,7.3
		c-0.2,0.2-0.3,0.3-0.5,0.5c1.5,0,3,0.1,4.5,0.1c1.1,0,2.1,0.2,3.2,0.3c0.4-0.4,0.4-1,0.4-1.6c0-4.4,0-8.8,0-13.3
		C98.1,42.8,98.1,42.2,97.7,41.8z"/>
	<path class="st16" d="M97.7,41.8c0,5.5,0,10.9,0,16.4c0.7,0.3,1.4,0.7,2.2,1c0.9,0,1.8-0.1,2.6-0.1c0.3-0.3,0.4-0.7,0.4-1.1
		c0-4.5,0.1-9,0-13.5c0-0.2,0-0.3-0.1-0.5c-0.3-0.6-0.7-1-1.4-0.8c-1.4,0.4-1.8,0.1-2-1.5C98.8,41.7,98.2,41.5,97.7,41.8z"/>
	<path class="st19" d="M80.3,57.7c0-5.3,0-10.6,0.1-15.9c-1.3-0.6-2.6-0.3-3.9-0.2c-0.3,0.2-0.6,0.3-0.9,0.5c0,4.8,0,9.6,0,14.4
		c0,1,0.3,1.3,1.3,1.3C78,57.6,79.1,57.7,80.3,57.7z"/>
	<path class="st9" d="M41.2,41.7c1.8,0,3.7,0,5.5,0.1c1.6,0.7,3.2,0.4,4.8,0c3.3,0,6.5,0,9.8-0.1c-1.9-1.2-3.6-2.6-4.9-4.5
		c-0.3-0.4-0.7-0.5-1.2-0.5c-2.7,0-5.3,0-8,0c-0.5,0-0.9,0.1-1.1,0.5C44.7,39.1,43.1,40.5,41.2,41.7z"/>
	<path class="st16" d="M38.5,57.8c0-5,0-9.9,0-14.9c-1.6,0.5-3.2,0.6-4.8,0.8c0,4.7,0,9.4,0,14.1C35.3,57.9,36.9,57.9,38.5,57.8z"/>
	<path class="st18" d="M78.1,37c-0.4-0.3-0.7-0.2-1.1-0.2c-5.5,0-11,0-16.4,0c-0.3,0-0.8-0.2-1,0.2c-0.2,0.4,0.4,0.7,0.6,0.9
		c4.3,4.1,11.9,4.4,16.4,0.6C77.1,38,77.8,37.7,78.1,37z"/>
	<path class="st18" d="M24.5,37c0.5,1,1.5,1.5,2.3,2.1c4.8,3.2,11.7,2.6,15.6-1.3c0.2-0.2,0.7-0.4,0.5-0.8c-0.2-0.3-0.6-0.1-0.9-0.1
		c-5.6,0-11.2,0-16.8,0C25,36.8,24.7,36.7,24.5,37z"/>
	<path class="st9" d="M76.5,41.6c1.3,0.4,2.6,0,3.9,0.2c2.2-0.1,4.5-0.4,6.7,0c0.9,0.1,1.8,0.7,2.7,0c-0.6-2.1-2.3-3.1-4.2-4
		c-0.5-0.2-1.1-0.4-1.6-0.5c-1.6-0.5-2.8-0.5-3.9,1.2C79.3,39.8,77.7,40.6,76.5,41.6z"/>
	<path class="st10" d="M101.3,43.2c0.4,0.2,0.8,0.4,1.2,0.6c0.9,0.7,1.6,1.5,2.3,2.3c0.8,1,1.5,0.9,1.9-0.2c0.4-1.3,1.5-2.1,2.3-3.1
		c0.8-0.6,0.9-1.2-0.2-1.6c-1.4-0.4-2.3-1.3-3.1-2.5c-0.7-1-1-0.9-1.4,0.2c-0.5,1.2-1,2.4-2.5,2.9C101.7,42.2,100.7,42.4,101.3,43.2
		z"/>
	<path class="st9" d="M51.3,34.4c0.8,0,1.7,0,2.5,0c0.2,0,0.6-0.1,0.7-0.2c0.1-0.8-0.4-1.4-0.5-2.2c-0.1-0.4-0.3-0.6-0.7-0.6
		c-1.3,0-2.6,0-3.8,0c-0.8,0-0.8,0.5-1,1c-0.6,1.9-0.5,1.9,1.4,1.9C50.3,34.4,50.8,34.4,51.3,34.4z"/>
	<path class="st20" d="M53.4,26.7c-1.2,0-2.3,0-3.5,0c-1-0.1-1.3,0.3-1,1.3c0.1,0.3,0.1,0.6,0.1,0.9c0.4,0.2,0.9,0.2,1.2-0.1
		C51.4,28.1,52.8,27.9,53.4,26.7z"/>
	<path class="st9" d="M53.4,26.7c-1.4,0.8-2.6,1.9-4.3,2.2c1.3,0.5,2.6,0.4,3.8,0.1C53.8,28.7,53.8,27.6,53.4,26.7z"/>
	<path class="st21" d="M89.7,41.7c-0.9,0-1.8,0-2.7,0c0.9,0.5,2,0.6,2.8,1.2C89.9,42.6,89.8,42.2,89.7,41.7z"/>
	<path class="st22" d="M100.3,75.9c-1.1,0.7-2.2,1.1-3.4,1.5c0.7,3.7,0.2,7.4,0.4,11c0,1-0.3,2-0.1,3c5.3,0,10.6,0,16,0
		c1.5,0,1.8-0.2,1.8-1.8c0-1.9,0-3.8,0-5.8c0-1.4,0-2.9,0-4.3c0-2.2-1.5-3.6-3.6-3.6C107.7,75.9,104,75.9,100.3,75.9z"/>
	<path class="st23" d="M97.2,91.4c0.4-0.6,0.5-1.3,0.5-2.1c0-3,0-5.9,0-8.9c0-1.1-0.1-2.1-0.7-3.1c-3,0.4-6.1,0.1-9.1,0.3
		c0,4.6,0,9.2,0,13.7C91,91.4,94.1,91.4,97.2,91.4z"/>
	<path class="st19" d="M109,42.7c-1.3,0.6-2,1.7-2.5,3c-0.4,1.1-0.7,1.1-1.4,0.2c-0.7-0.9-1.3-2-2.5-2.2c0,5.1,0,10.2,0,15.3
		c1.2,0,2.5,0.1,3.7,0c2.6-0.1,4-1.5,4-4.1c0-3.1,0-6.2,0-9.4C110.2,44.5,109.9,43.5,109,42.7z"/>
	<path class="st24" d="M49,105.1c4.6,0,9.3,0,13.9,0c0.8,0,1.8,0.1,1.7-1.1c0-1.1-0.9-1.3-1.8-1.3c-2.6,0-5.1,0-7.7,0
		c-6.4,0-12.9,0-19.3,0c-0.3,0-0.6,0-1,0c-0.7,0.1-1.4,0.4-1.4,1.3c0,1,0.7,1.1,1.5,1.1C39.7,105.1,44.4,105.1,49,105.1z"/>
	<path class="st24" d="M69.1,99.7c-1-0.9-2.2-1.7-3.4-2.4c-0.7,0-1.4,0-2.1,0.2c-0.6,0.2-0.9,0.6-0.8,1.3c0.1,0.7,0.5,0.9,1.2,0.9
		C65.7,99.8,67.4,99.7,69.1,99.7z"/>
	<path class="st12" d="M70.8,75.2c7.7,0,15.5,0,23.2,0c2.6,0,4.9-0.7,6.5-2.7c1.8-2.3,2.3-4.8,1.2-7.6c-1.1-2.7-3.3-4.3-6.2-4.6
		c-1.5,0-3.1-0.2-4.6,0.1c0.5,0.5,1.1,0.9,1.6,1.4c0.1,0.1,0.3,0.3,0.2,0.5c-0.1,0.2-0.3,0.2-0.5,0.2c-0.3,0-0.6,0-0.8,0
		c-7.9,0-15.8,0-23.7,0c-0.8,0-1.6,0-1.7,1c-0.1,0.7,0.2,1.2,0.9,1.3c0.4,0.1,0.8,0.1,1.2,0.1c8.3,0,16.7,0,25,0
		c0.9,0,1.4,0.1,1.6,1.2c0.2,1.3,0.1,2.5-0.1,3.8c-0.1,0.7-0.6,0.8-1.3,0.8c-7.5,0-15,0-22.5,0c-0.6,0.8-0.5,1.6-0.1,2.4
		c0.6,0.5,1.3,0.3,2,0.3c5.8,0,11.7,0,17.5,0c0.5,0,1-0.1,1.5,0.2c-0.5,0.9-1.4,1-2.3,1c-3.5,0-7,0-10.4,0c-2.1,0-4.2,0-6.4,0
		c-0.6,0-1.1-0.1-1.7,0.2C70.8,74.9,70.7,75,70.8,75.2L70.8,75.2z"/>
	<path class="st25" d="M70.7,75.2c0-0.1,0-0.1,0.1-0.2c0.4-0.6,0.4-1.3,0-1.9c0-0.8,0-1.6,0-2.4c0-0.6,0-1.1,0-1.7
		c0.4-0.8,0.5-1.6-0.1-2.4c-5.3,0-10.6,0-15.8,0c-0.4,0.4-0.5,1-0.4,1.5c0.4,2.1,0.2,4.2,0.2,6.3c0,0.2,0,0.4,0.1,0.6
		c0.5,3.3,2.3,5.5,5.5,6.6c3.1,1,5.9,0.1,8.2-2.1C69.7,78.3,70.3,76.8,70.7,75.2z"/>
	<path class="st12" d="M54.9,75c0-2.8,0-5.6,0-8.4c-9.2,0-18.3,0-27.5,0c-0.3,0-0.6,0-1,0.1c-0.6,0.1-0.9,0.5-0.9,1.1
		c0,0.6,0.3,1,0.9,1.1c0.4,0.1,0.8,0.1,1.2,0.1c8.6,0,17.1,0,25.7,0c1.1,0,1.4,0.3,1.3,1.3c-0.1,1.6,0,3.1,0,4.7
		C54.7,75,54.8,75,54.9,75z"/>
	<path class="st12" d="M70.7,66.6c0,0.8,0,1.6,0.1,2.4c2.2,0,4.4,0,6.6,0c0.8,0,1.5-0.1,1.5-1.2c0-1-0.6-1.2-1.5-1.2
		C75.2,66.6,72.9,66.6,70.7,66.6z"/>
	<path class="st0" d="M90.9,60.4c1.5,0,3-0.1,4.6-0.1c-0.4-0.3-0.9-0.2-1.3-0.2c-25.4,0-50.8,0-76.2,0c-0.5,0-1-0.2-1.4,0.2
		c5,0,10,0,15,0c19.2,0,38.5,0,57.7,0C89.9,60.3,90.4,60.3,90.9,60.4z"/>
	<path class="st26" d="M70.8,91.3c3.1,0,6.2,0,9.2,0c1.5,0,1.5,0,1.5-1.6c0-4,0-8.1,0-12.1c-3.6,0-7.2,0-10.8,0
		C70.8,82.2,70.8,86.8,70.8,91.3z"/>
	<path class="st23" d="M49.1,77.6c-3.5,0-7.1,0-10.6,0c-0.4,0.8-0.5,1.6-0.5,2.4c0,3.2,0,6.3,0,9.5c0,1.7,0.1,1.9,1.8,1.9
		c3.1,0,6.1,0,9.2,0c0.5-0.4,0.4-1,0.4-1.6c0-3.5,0-7,0-10.6C49.5,78.7,49.5,78.1,49.1,77.6z"/>
	<path class="st15" d="M49.1,77.6c0,4.6,0,9.2,0,13.7c0,0.1,0,0.1,0,0.2c1.4,0,2.9-0.1,4.3,0c0.9,0,1.2-0.2,1.2-1.2
		c-0.1-4.2-0.1-8.5-0.1-12.7C52.8,77.7,50.9,77.6,49.1,77.6z"/>
	<path class="st19" d="M51.5,41.8c-1.6-0.2-3.2,0-4.8,0c0,5.3,0,10.6,0.1,15.9c1.2,0,2.5,0,3.7,0c0.9,0,1.1-0.3,1.1-1.1
		C51.5,51.7,51.5,46.7,51.5,41.8z"/>
	<path class="st27" d="M66.4,19c-0.7,0.1-1.7,0.5-2.5,1.1c-1.9,1.4-3.4,3-3.9,5.4c-0.2,1.1,0.5,2.1,1.6,2.1c1.4,0.1,2.4-0.6,3.5-1.4
		c1.7-1.3,3-2.8,3.5-5C69,19.9,68.2,18.9,66.4,19z"/>
	<path class="st27" d="M26.4,27.6c1.5,0,2.4-0.7,3.4-1.4c1.7-1.3,3.1-2.9,3.5-5.1c0.2-1.1-0.5-2.1-1.6-2.1c-0.6,0-1.2,0.1-1.7,0.3
		c-2.6,1.3-4.5,3.2-5.2,6C24.4,26.7,25.2,27.7,26.4,27.6z"/>
	<path class="st28" d="M70.8,73.1c0,0.6,0,1.3,0,1.9c6.3,0,12.6,0,18.8,0c0.5,0,1,0.1,1.4-0.2c0.6-0.4,1.5-0.8,1.4-1.4
		c-0.1-0.6-1.1-0.2-1.7-0.2C84.1,73.1,77.4,73.1,70.8,73.1z"/>
</g>
</svg>
