<?xml version="1.0" encoding="utf-8"?>
<!-- Generator: Adobe Illustrator 23.0.0, SVG Export Plug-In . SVG Version: 6.00 Build 0)  -->
<svg version="1.1" id="Layer_1" xmlns="http://www.w3.org/2000/svg" xmlns:xlink="http://www.w3.org/1999/xlink" x="0px" y="0px"
	 width="615.1px" height="434.7px" viewBox="0 0 615.1 434.7" style="enable-background:new 0 0 615.1 434.7;" xml:space="preserve"
	>
<style type="text/css">
	.st0{fill:#263238;stroke:#263238;stroke-linecap:round;stroke-linejoin:round;stroke-miterlimit:10;}
	.st1{fill:#FFFFFF;stroke:#263238;stroke-linecap:round;stroke-linejoin:round;stroke-miterlimit:10;}
	.st2{fill-rule:evenodd;clip-rule:evenodd;fill:#FFDB59;}
	.st3{fill:#206CB5;}
	.st4{fill:#2B6BB4;}
	.st5{fill:#FFFFFF;}
	.st6{fill:#263238;}
	.st7{fill:url(#SVGID_1_);}
	.st8{fill:url(#SVGID_2_);}
	.st9{fill:url(#SVGID_3_);}
	.st10{fill:url(#SVGID_4_);}
	.st11{fill:url(#SVGID_5_);}
	.st12{fill:#FDC286;}
	.st13{fill:#579CD5;}
	.st14{fill:#388DCC;}
	.st15{fill:#3B5EAB;}
	.st16{fill:#20438F;}
	.st17{fill:url(#SVGID_6_);}
	.st18{fill:#FFDB59;}
	.st19{fill:#FEBC11;}
	.st20{fill:url(#SVGID_7_);stroke:#263238;stroke-linecap:round;stroke-linejoin:round;stroke-miterlimit:10;}
	.st21{fill:none;stroke:#263238;stroke-linecap:round;stroke-linejoin:round;stroke-miterlimit:10;}
	.st22{fill:url(#SVGID_8_);stroke:#263238;stroke-linecap:round;stroke-linejoin:round;stroke-miterlimit:10;}
	.st23{fill:url(#SVGID_9_);stroke:#263238;stroke-linecap:round;stroke-linejoin:round;stroke-miterlimit:10;}
	.st24{fill:none;stroke:#263238;stroke-width:2;stroke-linecap:round;stroke-linejoin:round;stroke-miterlimit:10;}
	.st25{fill:url(#SVGID_10_);stroke:#263238;stroke-linecap:round;stroke-linejoin:round;stroke-miterlimit:10;}
	.st26{fill:url(#SVGID_11_);stroke:#263238;stroke-linecap:round;stroke-linejoin:round;stroke-miterlimit:10;}
	.st27{fill:#5274B8;}
	.st28{opacity:0.3;fill:#2B6BB4;}
	.st29{fill:url(#SVGID_12_);}
	.st30{opacity:0.6;fill:#FFFFFF;}
	.st31{opacity:0.4;fill:#5274B8;}
	.st32{fill:url(#SVGID_13_);}
	.st33{fill:#373737;}
	.st34{fill:#4DB7B4;}
	.st35{fill:#3E70B7;}
	.st36{fill:#E5E64E;}
	.st37{fill:#E0CD27;}
</style>
<g>
	<g>
		<path class="st0" d="M484.8,321.8H126.6c-5.3,0-9.6-4.3-9.6-9.6V98.1c0-5.3,4.3-9.6,9.6-9.6h358.3c5.3,0,9.6,4.3,9.6,9.6v214.1
			C494.4,317.5,490.1,321.8,484.8,321.8z"/>
		<path class="st1" d="M471.6,309H139.7c-5.3,0-9.6-4.3-9.6-9.6V110.9c0-5.3,4.3-9.6,9.6-9.6h331.9c5.3,0,9.6,4.3,9.6,9.6v188.5
			C481.2,304.7,476.9,309,471.6,309z"/>
		<path class="st2" d="M313.5,304.7H152.2c-3.2,0-5.8-2.6-5.8-5.8V134.8c0-3.2,2.6-5.8,5.8-5.8h161.3c3.2,0,5.8,2.6,5.8,5.8v164.1
			C319.3,302.1,316.7,304.7,313.5,304.7z"/>
	</g>
</g>
<g>
	<g>
		<circle class="st3" cx="84.6" cy="149.9" r="6.9"/>
	</g>
	<g>
		<path class="st3" d="M73.4,136.5c-5.4,4.6-7.4,11.8-5.5,18.2l6.2,0.2c-2.2-4.7-1.1-10.5,3-14c4.5-3.7,11-3.5,15.2,0.2l0.7-6.5
			C86.9,131.3,79.1,131.8,73.4,136.5z"/>
		<path class="st3" d="M63.7,154.6c-1.7-7.6,0.8-15.8,7.2-21.1c6.5-5.5,15.4-6.3,22.6-3l0.6-5.9c-8.9-3.3-19.2-1.9-26.9,4.6
			c-7.7,6.4-10.9,16.2-9.4,25.3L63.7,154.6z"/>
	</g>
</g>
<g>
	<path class="st4" d="M577.3,138.7c0,20.3-16.5,36.8-36.7,36.8c-20.5,0-34.7-15.7-36.6-32.2c-1.3-10.9,1.7-20.7,8.9-28.9
		c7.3-8.3,16.6-12.6,27.7-12.6C560.7,101.8,577.5,118.1,577.3,138.7z"/>
	<g>
		<path class="st5" d="M545.7,152.5c-3.2,0-6.5,0-9.7,0c-1.2,0-1.6-0.4-1.6-1.5c0-5.1-0.2-10.1,0.1-15.2c0.2-3.2,1.5-6.2,3.5-8.7
			c1.4-1.7,2.8-3.4,4.4-5c0.5-0.5,0.8-1.1,0.8-1.8c0-0.9,0.1-1.7,0.1-2.6c0-1.1,0.3-2,1.3-2.4c1.1-0.4,2.1-0.2,3,0.6
			c0.8,0.8,1.2,1.8,1.4,2.9c0.7,2.7,0.1,5.3-1,7.8c-0.4,0.8-0.7,1.7-1.1,2.5c-0.3,0.5-0.1,0.7,0.4,0.8c0.2,0,0.5,0,0.8,0
			c2.9,0,5.8,0,8.7,0c1.6,0,2.7,0.8,3,2.1c0.4,1.5-0.2,3.3-1.5,3.9c-0.6,0.3-0.6,0.4-0.1,0.8c1.1,0.7,1.8,1.7,1.6,3.1
			c-0.2,1.1-0.7,1.8-1.7,2.1c-0.2,0.1-0.5,0-0.5,0.3c0,0.3,0.3,0.3,0.4,0.4c1.4,1,1.6,3.8-0.5,4.7c-0.4,0.2-0.6,0.3-0.2,0.7
			c0.9,0.9,0.9,2,0.5,3c-0.4,1-1.3,1.3-2.4,1.3C552.2,152.4,549,152.4,545.7,152.5C545.7,152.4,545.7,152.4,545.7,152.5z"/>
		<path class="st5" d="M530.5,155.4c-2.7,0-5.4,0-8,0c-0.8,0-1.2-0.4-1.3-1.2c0-0.4,0-0.8,0-1.2c0-5.6,0-11.2,0-16.9
			c0-1.4,0.3-1.7,1.7-1.7c2.4,0,4.8,0,7.2,0c1,0,1.5,0.4,1.5,1.3c0,5.9,0,11.8,0,17.7c0,0,0,0.1,0,0.1c-0.2,0-0.1,0.1,0,0.2
			c0,0.6,0,1.2-0.7,1.5c0-0.2-0.1-0.4-0.3-0.3C530.3,155,530.5,155.2,530.5,155.4z"/>
	</g>
</g>
<g>
	<g>
		<path class="st6" d="M545.4,318.2l1.8,22.7c0,3.4,5,6.2,11.2,6.2c6.2,0,11.2-2.8,11.2-6.2l1.8-22.7H545.4z"/>
	</g>
	<g>
		<g>
			<path class="st6" d="M571.3,318.2c0,4-5.8,7.2-12.9,7.2c-7.1,0-12.9-3.2-12.9-7.2s5.8-7.2,12.9-7.2
				C565.5,311,571.3,314.2,571.3,318.2z"/>
		</g>
	</g>
	<g>
		<path class="st3" d="M515.2,230.1c2.8,1.2,9.8,1.1,9.8,1.1c0.1,0-1.5-4.5-1.6-4.8c-1.5-3.2-6.3-8.4-10.2-7.9
			c-2.8,0.4-4.4,3.2-3.8,5.9C510,227,512.7,229,515.2,230.1z"/>
		<path class="st3" d="M517.5,250.2c2.9,0.4,9.1-1.4,9.6-1.5c1,3.5,2.3,6.9,3.8,10.4c0.9,2,1.8,3.9,2.7,5.9
			c-0.6-0.8-1.1-1.6-1.2-1.7c-2.3-2.7-8.3-6.5-12-4.9c-2.6,1.1-3.4,4.2-2.1,6.6c1.3,2.4,4.6,3.7,7.2,4c2.6,0.4,8-1,9.3-1.4
			c0.4,0.7,0.7,1.5,1.1,2.2c1.8,3.6,3.6,7.1,5.3,10.7c0.6,1.2,1.1,2.5,1.7,3.7c-0.5-0.7-0.9-1.3-1-1.4c-2.3-2.7-8.3-6.5-12-4.9
			c-2.6,1.1-3.4,4.2-2.1,6.6c1.3,2.4,4.6,3.7,7.2,4c2.5,0.4,7.4-0.9,9.1-1.4c0.5,1.3,1,2.6,1.5,3.9c0.3,0.9,0.6,1.7,0.8,2.6
			c0.2,0.9,0.5,1.8,0.7,2.6c0.4,1.7,0.8,3.4,1.2,5.1c0.3,1.2,0.5,2.3,0.7,3.4c-0.6-1.2-1.7-3.7-1.9-3.9c-1.9-3-7.3-7.7-11.1-6.7
			c-2.8,0.7-4,3.7-3.1,6.2c1,2.6,4,4.3,6.5,5.1c2.8,0.8,8.9,0.1,9.7,0c0.4,1.8,0.7,3.6,1,5.3c0.7,3.7,1.2,7.1,1.5,9.9h2.6
			c-0.5-2.9-1-6.4-1.8-10.3c-0.4-1.9-0.8-3.8-1.3-5.9c0.5-0.2,3.1-1.2,5.4-2.5c2,2.2,7.2,4.8,7.9,5.1c-0.7,1.7-1.4,3.4-2.1,5
			c-1.4,3.3-2.8,6.2-4,8.7h2.8c1-2.3,2.2-4.9,3.4-7.8c0.7-1.8,1.5-3.6,2.2-5.6c0.7,0.2,6.8,1.4,9.7,0.8c2.6-0.6,5.7-2,6.8-4.6
			c1.1-2.5,0.1-5.6-2.6-6.5c-3.7-1.3-9.5,3-11.6,5.8c-0.1,0.2-1.3,2.1-2,3.4c0.3-0.8,0.6-1.6,0.9-2.4c0.6-1.6,1.1-3.3,1.7-5
			c0.3-0.9,0.5-1.7,0.8-2.6c0.3-0.9,0.5-1.8,0.7-2.7c0.5-2.1,0.9-4.3,1.3-6.5c1.4,0.5,6.5,2.3,9.2,2.1c2.6-0.2,5.9-1.1,7.4-3.5
			c1.5-2.3,1-5.5-1.6-6.8c-3.5-1.8-9.8,1.5-12.3,4c-0.2,0.2-1.7,2.1-2.6,3.2c0.2-1.3,0.4-2.7,0.6-4c0.5-3.9,0.9-7.9,1.2-11.9
			c0.1-1.2,0.2-2.4,0.4-3.6c0.5,0.2,6.5,2.4,9.5,2.2c2.6-0.2,5.9-1.1,7.4-3.5c1.5-2.3,1-5.5-1.6-6.8c-3.5-1.8-9.8,1.5-12.3,4
			c-0.2,0.2-2.5,3-3,3.8c0.3-2.7,0.6-5.3,1-7.9c0.6-3.6,1.3-7.1,2.3-10.4c0.2,0.1,6.5,2.5,9.5,2.2c2.6-0.2,5.9-1.2,7.4-3.5
			c1.5-2.3,1-5.5-1.6-6.8c-3.5-1.8-9.8,1.5-12.3,4c-0.2,0.2-2.7,3.3-3.1,3.9c0.1-0.2,0.1-0.4,0.2-0.6c1.1-3.5,2.6-6.8,4.1-9.9
			c0.9-1.8,1.9-3.4,2.8-5c1.1,0.6,6.3,3.1,9,3.2c2.6,0.1,6-0.5,7.8-2.6c1.7-2.1,1.6-5.3-0.8-6.9c-3.3-2.2-9.9,0.4-12.7,2.6
			c-0.1,0.1-1.5,1.5-2.5,2.5c0.4-0.7,0.9-1.4,1.3-2.1c1.7-2.5,3.3-4.7,4.8-6.6c0.9-1.1,1.7-2,2.4-2.9c1.4,0,7-0.2,9.4-1.3
			c2.4-1.1,5.1-3.2,5.7-5.9c0.6-2.7-1.1-5.4-3.9-5.8c-3.9-0.4-8.6,5-10,8.2c-0.1,0.3-1.6,4.9-1.5,4.9c0,0,0.1,0,0.1,0
			c-0.7,0.8-1.5,1.8-2.4,2.8c-1.5,1.9-3.3,4-5,6.5c-1.7,2.5-3.5,5.2-5.2,8.2c-1.6,3-3.2,6.3-4.4,9.9c0,0,0,0.1,0,0.1
			c0-1.2,0-4.4-0.1-4.6c-0.5-3.5-3.4-10-7.3-10.7c-2.8-0.5-5.2,1.7-5.4,4.4c-0.2,2.8,1.8,5.6,3.8,7.3c2.2,2,8.4,3.9,8.9,4
			c-1.1,3.4-1.9,7-2.6,10.7c-0.4,2.1-0.7,4.3-1,6.4c0-1,0-1.9-0.1-2c-0.5-3.5-3.4-10-7.3-10.7c-2.8-0.5-5.2,1.7-5.4,4.4
			c-0.2,2.8,1.8,5.6,3.8,7.3c2,1.8,7.2,3.5,8.6,4c-0.1,0.8-0.2,1.6-0.3,2.5c-0.5,4-0.9,7.9-1.5,11.8c-0.2,1.4-0.4,2.7-0.7,4
			c0-0.9,0-1.6,0-1.8c-0.5-3.5-3.4-10-7.3-10.7c-2.8-0.5-5.2,1.7-5.4,4.4c-0.2,2.8,1.8,5.6,3.8,7.3c1.9,1.7,6.7,3.3,8.3,3.9
			c-0.3,1.4-0.6,2.7-0.9,4c-0.3,0.9-0.4,1.8-0.7,2.6c-0.3,0.9-0.6,1.7-0.8,2.6c-0.6,1.6-1.2,3.3-1.8,4.9c-0.4,1.1-0.8,2.1-1.3,3.2
			c0.2-1.4,0.6-4,0.6-4.2c0.1-2.3-0.8-6.2-2.4-8.8c0-0.3,0-0.7-0.1-1c-0.4-2.7-3-4.7-5.7-4c-3.8,1-6.2,7.7-6.4,11.2
			c0,0.2,0.1,2.5,0.2,3.9c-0.2-0.8-0.4-1.6-0.6-2.5c-0.4-1.7-0.8-3.4-1.3-5.2c-0.3-0.9-0.5-1.7-0.8-2.6c-0.2-0.9-0.6-1.8-0.9-2.7
			c-0.8-2.1-1.6-4.1-2.5-6.2c1.5-0.4,6.7-1.7,8.8-3.3c2.1-1.6,4.3-4.2,4.3-7c0-2.7-2.2-5.1-5-4.8c-3.9,0.4-7.3,6.7-8,10.1
			c0,0.2-0.3,2.8-0.4,4.1c-0.6-1.2-1.1-2.5-1.7-3.7c-1.8-3.5-3.6-7.1-5.5-10.6c-0.6-1.1-1.1-2.2-1.7-3.2c0.5-0.1,6.8-1.6,9.1-3.4
			c2.1-1.6,4.3-4.2,4.3-7c0-2.7-2.2-5.1-5-4.8c-3.9,0.4-7.3,6.7-8,10.1c-0.1,0.3-0.4,3.9-0.4,4.8c-1.2-2.4-2.4-4.8-3.5-7.2
			c-1.5-3.3-2.8-6.6-3.9-10c0.2-0.1,6.8-1.5,9.2-3.4c2.1-1.6,4.3-4.2,4.3-7c0-2.7-2.2-5.1-5-4.8c-3.9,0.4-7.3,6.7-8,10.1
			c-0.1,0.3-0.4,4.2-0.4,4.9c-0.1-0.2-0.1-0.4-0.2-0.6c-1.1-3.6-1.6-7.1-2-10.5c-0.2-2-0.3-3.8-0.4-5.7c1.2-0.2,6.9-0.9,9.3-2.3
			c2.3-1.4,4.7-3.7,5-6.5c0.3-2.7-1.6-5.3-4.5-5.3c-3.9,0-8,5.8-9.1,9.2c-0.1,0.2-0.5,2.1-0.7,3.5c0-0.8,0-1.7,0-2.5
			c0-3,0.2-5.7,0.4-8.1c0.1-1.4,0.3-2.6,0.4-3.8c1.1-0.8,5.7-4,7.1-6.3c1.4-2.2,2.5-5.5,1.5-8.1c-1-2.5-3.9-3.9-6.4-2.6
			c-3.5,1.8-4.4,8.9-3.9,12.4c0.1,0.3,1.4,4.9,1.4,4.9c0,0,0.1,0,0.1,0c-0.2,1.1-0.3,2.3-0.4,3.6c-0.2,2.4-0.5,5.2-0.6,8.2
			c-0.1,3-0.1,6.3,0.2,9.7c0.3,3.4,0.8,7,1.8,10.7c0,0,0,0.1,0,0.1c-0.6-1-2.5-3.6-2.6-3.8c-2.3-2.7-8.3-6.5-12-4.9
			c-2.6,1.1-3.4,4.2-2.1,6.6C511.7,248.6,514.9,249.8,517.5,250.2z"/>
		<path class="st3" d="M585.3,231.6c0.1,0,1.3-4.6,1.3-4.9c0.5-3.5-0.6-10.5-4.2-12.2c-2.6-1.2-5.4,0.3-6.4,2.8
			c-1,2.6,0.3,5.8,1.7,8C579.4,227.9,585.3,231.6,585.3,231.6z"/>
	</g>
	<path class="st3" d="M568.5,318.2c0,3.1-4.6,5.7-10.2,5.7c-5.6,0-10.2-2.5-10.2-5.7s4.6-5.7,10.2-5.7
		C564,312.5,568.5,315,568.5,318.2z"/>
</g>
<g>
	<linearGradient id="SVGID_1_" gradientUnits="userSpaceOnUse" x1="39.0499" y1="311.7229" x2="64.9297" y2="311.7229">
		<stop  offset="0" style="stop-color:#0B77BE"/>
		<stop  offset="1" style="stop-color:#4869B2"/>
	</linearGradient>
	<path class="st7" d="M39,297.3l1.8,22.7c0,3.4,5,6.2,11.2,6.2c6.2,0,11.2-2.8,11.2-6.2l1.8-22.7H39z"/>
</g>
<g>
	<g>
		<path class="st6" d="M64.9,297.3c0,4-5.8,7.2-12.9,7.2c-7.1,0-12.9-3.2-12.9-7.2s5.8-7.2,12.9-7.2
			C59.1,290.1,64.9,293.3,64.9,297.3z"/>
	</g>
</g>
<path class="st3" d="M62.2,297.3c0,3.1-4.6,5.7-10.2,5.7c-5.6,0-10.2-2.5-10.2-5.7s4.6-5.7,10.2-5.7
	C57.6,291.6,62.2,294.2,62.2,297.3z"/>
<g>
	<path class="st6" d="M15.1,215.4c2.6,1.1,9,1,9,1c0.1,0-1.4-4.2-1.5-4.4c-1.4-2.9-5.8-7.7-9.4-7.3c-2.6,0.3-4,2.9-3.4,5.4
		C10.4,212.6,12.9,214.4,15.1,215.4z"/>
	<path class="st6" d="M17.3,233.8c2.7,0.4,8.4-1.3,8.8-1.4c0.9,3.2,2.1,6.4,3.4,9.5c0.8,1.8,1.6,3.6,2.5,5.4c-0.5-0.8-1-1.4-1.1-1.5
		c-2.1-2.4-7.7-5.9-11-4.5c-2.4,1-3.1,3.9-1.9,6.1c1.2,2.2,4.2,3.4,6.6,3.7c2.4,0.4,7.3-1,8.6-1.3c0.3,0.7,0.7,1.4,1,2.1
		c1.6,3.3,3.3,6.5,4.8,9.8c0.5,1.1,1,2.3,1.5,3.4c-0.5-0.7-0.9-1.2-0.9-1.3c-2.1-2.4-7.7-5.9-11-4.5c-2.4,1-3.1,3.9-1.9,6.1
		c1.2,2.2,4.2,3.4,6.6,3.7c2.3,0.3,6.8-0.8,8.4-1.3c0.5,1.2,0.9,2.4,1.3,3.6c0.3,0.8,0.6,1.6,0.8,2.4c0.2,0.8,0.5,1.6,0.7,2.4
		c0.4,1.5,0.8,3.1,1.1,4.7c0.2,1.1,0.4,2.1,0.6,3.1c-0.5-1.1-1.6-3.4-1.7-3.5c-1.7-2.7-6.7-7-10.2-6.1c-2.5,0.6-3.7,3.4-2.8,5.7
		c0.9,2.4,3.6,3.9,5.9,4.7c2.5,0.8,8.2,0.1,8.9,0c0.3,1.7,0.7,3.3,0.9,4.9c0.6,3.4,1.1,6.5,1.4,9.1h2.4c-0.4-2.7-1-5.9-1.7-9.5
		c-0.3-1.7-0.7-3.5-1.2-5.4c0.4-0.2,2.8-1.1,5-2.3c1.9,2,6.6,4.4,7.2,4.7c-0.6,1.6-1.3,3.1-1.9,4.6c-1.3,3-2.6,5.7-3.7,8h2.6
		c0.9-2.1,2-4.5,3.1-7.2c0.7-1.6,1.3-3.4,2-5.1c0.7,0.1,6.3,1.3,8.9,0.7c2.4-0.5,5.2-1.9,6.3-4.2c1-2.3,0.1-5.1-2.4-5.9
		c-3.4-1.2-8.7,2.7-10.6,5.4c-0.1,0.2-1.2,2-1.8,3.1c0.3-0.7,0.5-1.4,0.8-2.2c0.5-1.5,1.1-3,1.6-4.6c0.2-0.8,0.5-1.6,0.7-2.4
		c0.3-0.8,0.4-1.7,0.6-2.5c0.5-2,0.8-4,1.2-6c1.3,0.5,6,2.1,8.4,1.9c2.4-0.2,5.4-1.1,6.8-3.2c1.4-2.1,0.9-5-1.4-6.2
		c-3.2-1.7-9,1.4-11.3,3.7c-0.1,0.1-1.6,2-2.4,3c0.2-1.2,0.4-2.4,0.5-3.7c0.4-3.6,0.8-7.2,1.1-10.9c0.1-1.1,0.2-2.2,0.3-3.3
		c0.5,0.2,6,2.2,8.7,2c2.4-0.2,5.4-1.1,6.8-3.2c1.4-2.1,0.9-5-1.4-6.2c-3.2-1.7-9,1.4-11.3,3.7c-0.2,0.2-2.3,2.8-2.8,3.5
		c0.3-2.5,0.5-4.9,0.9-7.3c0.5-3.3,1.2-6.5,2.1-9.6c0.2,0.1,6,2.3,8.7,2.1c2.4-0.2,5.4-1.1,6.8-3.2c1.4-2.1,0.9-5-1.4-6.2
		c-3.2-1.7-9,1.4-11.3,3.7c-0.2,0.2-2.4,3-2.8,3.6c0.1-0.2,0.1-0.4,0.1-0.6c1-3.3,2.4-6.3,3.8-9.1c0.8-1.6,1.7-3.1,2.6-4.5
		c1,0.5,5.8,2.8,8.3,2.9c2.4,0.1,5.5-0.5,7.1-2.4c1.6-1.9,1.4-4.9-0.7-6.3c-3-2-9.1,0.4-11.6,2.4c-0.1,0.1-1.4,1.4-2.3,2.3
		c0.4-0.6,0.8-1.3,1.2-1.9c1.5-2.3,3-4.3,4.4-6c0.8-1,1.5-1.9,2.2-2.7c1.3,0,6.4-0.2,8.6-1.2c2.2-1,4.7-2.9,5.2-5.5
		c0.5-2.5-1-5-3.6-5.3c-3.6-0.4-7.9,4.6-9.2,7.5c-0.1,0.3-1.4,4.5-1.4,4.5c0,0,0.1,0,0.1,0c-0.7,0.8-1.4,1.6-2.2,2.5
		c-1.4,1.7-3,3.7-4.6,6c-1.6,2.3-3.2,4.7-4.7,7.5c-1.5,2.8-3,5.8-4,9.1c0,0,0,0.1,0,0.1c0-1.1,0-4-0.1-4.3c-0.4-3.2-3.1-9.2-6.7-9.8
		c-2.6-0.5-4.7,1.5-4.9,4c-0.2,2.6,1.6,5.1,3.4,6.7c2,1.8,7.7,3.6,8.1,3.7c-1,3.1-1.8,6.5-2.4,9.9c-0.3,1.9-0.6,3.9-0.9,5.9
		c0-0.9,0-1.7,0-1.9c-0.4-3.2-3.1-9.2-6.7-9.8c-2.6-0.5-4.7,1.5-4.9,4c-0.2,2.6,1.6,5.1,3.4,6.7c1.8,1.6,6.6,3.2,7.9,3.6
		c-0.1,0.8-0.2,1.5-0.3,2.3c-0.4,3.6-0.9,7.3-1.4,10.8c-0.2,1.3-0.4,2.5-0.6,3.7c0-0.8,0-1.5,0-1.6c-0.4-3.2-3.1-9.2-6.7-9.8
		c-2.6-0.5-4.7,1.5-5,4c-0.2,2.6,1.6,5.1,3.4,6.7c1.7,1.6,6.1,3.1,7.7,3.6c-0.3,1.3-0.5,2.5-0.8,3.7c-0.2,0.8-0.4,1.6-0.7,2.4
		c-0.3,0.8-0.5,1.6-0.8,2.4c-0.5,1.5-1.1,3-1.7,4.5c-0.4,1-0.8,2-1.2,2.9c0.2-1.2,0.5-3.7,0.5-3.9c0-2.2-0.7-5.6-2.2-8.1
		c0-0.3,0-0.6-0.1-0.9c-0.4-2.5-2.7-4.3-5.2-3.6c-3.5,0.9-5.7,7.1-5.9,10.3c0,0.2,0.1,2.3,0.2,3.6c-0.2-0.8-0.3-1.5-0.5-2.3
		c-0.4-1.6-0.8-3.1-1.2-4.7c-0.2-0.8-0.5-1.6-0.7-2.4c-0.2-0.8-0.6-1.6-0.8-2.5c-0.7-1.9-1.5-3.8-2.3-5.7c1.4-0.3,6.2-1.5,8.1-3
		c1.9-1.5,4-3.9,3.9-6.4c0-2.5-2-4.7-4.6-4.4c-3.6,0.4-6.7,6.1-7.4,9.3c0,0.2-0.3,2.5-0.3,3.8c-0.5-1.1-1-2.3-1.6-3.4
		c-1.6-3.2-3.3-6.5-5.1-9.7c-0.5-1-1-2-1.6-3c0.5-0.1,6.2-1.4,8.4-3.1c1.9-1.5,4-3.9,3.9-6.4c0-2.5-2-4.7-4.6-4.4
		c-3.6,0.4-6.7,6.1-7.4,9.3c0,0.2-0.4,3.6-0.4,4.4c-1.1-2.2-2.2-4.4-3.3-6.6c-1.4-3-2.6-6.1-3.5-9.1c0.2-0.1,6.2-1.4,8.4-3.1
		c1.9-1.5,4-3.9,3.9-6.4c0-2.5-2-4.7-4.6-4.4c-3.6,0.4-6.7,6.1-7.4,9.3c-0.1,0.2-0.4,3.9-0.4,4.5c-0.1-0.2-0.1-0.4-0.2-0.5
		c-1-3.3-1.5-6.6-1.8-9.7c-0.2-1.8-0.3-3.5-0.3-5.2c1.1-0.1,6.4-0.8,8.5-2.1c2.1-1.3,4.4-3.4,4.6-6c0.3-2.5-1.5-4.9-4.1-4.9
		c-3.6,0-7.4,5.4-8.4,8.4c-0.1,0.2-0.4,1.9-0.7,3.2c0-0.8,0-1.5,0-2.3c0-2.7,0.2-5.3,0.3-7.5c0.1-1.3,0.2-2.4,0.4-3.5
		c1-0.7,5.2-3.7,6.5-5.8c1.3-2.1,2.3-5,1.3-7.4c-0.9-2.3-3.6-3.6-5.9-2.4c-3.2,1.7-4.1,8.2-3.5,11.3c0,0.3,1.3,4.5,1.3,4.5
		c0,0,0.1,0,0.1,0c-0.1,1-0.3,2.1-0.4,3.3c-0.2,2.2-0.4,4.7-0.5,7.5c-0.1,2.8-0.1,5.7,0.2,8.9c0.3,3.2,0.7,6.5,1.6,9.8
		c0,0,0,0.1,0,0.1c-0.6-0.9-2.2-3.3-2.4-3.5c-2.1-2.4-7.7-5.9-11-4.5c-2.4,1-3.1,3.9-1.9,6.1C12,232.4,14.9,233.5,17.3,233.8z"/>
	<path class="st6" d="M79.5,216.8c0.1,0,1.2-4.2,1.2-4.5c0.4-3.2-0.6-9.7-3.8-11.2c-2.4-1.1-5,0.2-5.8,2.6c-0.9,2.4,0.2,5.4,1.5,7.4
		C74.1,213.4,79.5,216.8,79.5,216.8z"/>
</g>
<g>
	
		<linearGradient id="SVGID_2_" gradientUnits="userSpaceOnUse" x1="704.0684" y1="288.8685" x2="767.4203" y2="288.8685" gradientTransform="matrix(0.1433 0.9897 -0.9897 0.1433 508.6264 -405.9201)">
		<stop  offset="0" style="stop-color:#FBAA1D"/>
		<stop  offset="1" style="stop-color:#FFDB59"/>
	</linearGradient>
	<polygon class="st8" points="358,359.3 336.3,370 339.8,394 322.9,376.6 301.2,387.3 312.4,365.9 295.6,348.6 319.4,352.7 
		330.7,331.3 334.1,355.2 	"/>
	
		<linearGradient id="SVGID_3_" gradientUnits="userSpaceOnUse" x1="748.4835" y1="336.9056" x2="796.864" y2="336.9056" gradientTransform="matrix(0.1433 0.9897 -0.9897 0.1433 508.6264 -405.9201)">
		<stop  offset="0" style="stop-color:#FBAA1D"/>
		<stop  offset="1" style="stop-color:#FFDB59"/>
	</linearGradient>
	<polygon class="st9" points="308.7,403.8 292.1,411.9 294.8,430.2 281.9,417 265.3,425.2 273.9,408.8 261,395.6 279.2,398.7 
		287.8,382.3 290.5,400.6 	"/>
	
		<linearGradient id="SVGID_4_" gradientUnits="userSpaceOnUse" x1="734.4648" y1="380.5874" x2="762.5965" y2="380.5874" gradientTransform="matrix(0.1433 0.9897 -0.9897 0.1433 508.6264 -405.9201)">
		<stop  offset="0" style="stop-color:#FBAA1D"/>
		<stop  offset="1" style="stop-color:#FFDB59"/>
	</linearGradient>
	<polygon class="st10" points="252.5,387.5 242.8,392.3 244.4,402.9 236.9,395.2 227.2,399.9 232.3,390.4 224.8,382.7 235.3,384.6 
		240.3,375.1 241.9,385.7 	"/>
</g>
<g>
	<linearGradient id="SVGID_5_" gradientUnits="userSpaceOnUse" x1="74.599" y1="341.2288" x2="113.603" y2="341.2288">
		<stop  offset="0" style="stop-color:#0B77BE"/>
		<stop  offset="1" style="stop-color:#4869B2"/>
	</linearGradient>
	<circle class="st11" cx="94.1" cy="341.2" r="19.5"/>
	<path class="st5" d="M103.1,338.4c-2.7-1.8-6.3-1.1-8.1,1.6c1.8-2.7,1.1-6.3-1.6-8.1c-2.7-1.8-6.3-1.1-8.1,1.6
		c-4.1,6.1,2.2,17.7,2.2,17.7s13.1,1.5,17.2-4.6C106.5,343.9,105.7,340.2,103.1,338.4z"/>
</g>
<g>
	<g>
		<path class="st12" d="M404.8,280.1c1.1,1.7,3,2.5,4.6,1.4l5.4-4l14.5,19.7l-29.7,21.8l-12.2-16.8l8-6c2.2-1.6,3.2-4.4,2.5-7.1
			c0,0-1.7-6.5-6-12.9C389,271.8,397.4,268.9,404.8,280.1z"/>
		<g>
			<path class="st12" d="M421,272.9l-10.7,7.8l3.8,5.2l10.7-7.8c1.4-1,1.7-3,0.7-4.5l0,0C424.4,272.2,422.4,271.9,421,272.9z"/>
			<path class="st12" d="M424.2,278.5l-10.7,7.9l3.8,5.2l10.7-7.9c1.4-1.1,1.7-3.1,0.7-4.5l0,0C427.7,277.7,425.7,277.4,424.2,278.5
				z"/>
			<path class="st12" d="M427.2,284.3l-10.2,7.5l3.6,4.9l10.2-7.5c1.4-1,1.7-2.9,0.7-4.3l0,0C430.5,283.6,428.6,283.3,427.2,284.3z"
				/>
			<path class="st12" d="M429.5,290.2l-9.1,6.7l3.2,4.4l9.1-6.7c1.2-0.9,1.5-2.6,0.6-3.8l0,0C432.4,289.6,430.7,289.3,429.5,290.2z"
				/>
		</g>
	</g>
	<g>
		
			<rect x="372.2" y="300.9" transform="matrix(0.806 -0.5919 0.5919 0.806 -113.3072 288.6614)" class="st13" width="23.1" height="32.5"/>
		
			<rect x="378.4" y="320" transform="matrix(0.806 -0.5919 0.5919 0.806 -117.1369 294.0185)" class="st14" width="23.1" height="11.4"/>
		
			<rect x="392.2" y="293.7" transform="matrix(-0.806 0.5919 -0.5919 -0.806 898.3905 321.024)" class="st15" width="8.9" height="28"/>
		
			<rect x="397.7" y="310.8" transform="matrix(-0.806 0.5919 -0.5919 -0.806 912.9731 331.449)" class="st16" width="8.9" height="9.1"/>
	</g>
</g>
<path class="st13" d="M222,33.8c0,1.8-1.5,3.3-3.3,3.3c-1.8,0-3.3-1.5-3.3-3.3c0-1.8,1.5-3.3,3.3-3.3C220.5,30.5,222,32,222,33.8z"
	/>
<path class="st13" d="M258.2,48.8c0,1.8-1.5,3.3-3.3,3.3c-1.8,0-3.3-1.5-3.3-3.3c0-1.8,1.5-3.3,3.3-3.3
	C256.7,45.5,258.2,47,258.2,48.8z"/>
<path class="st13" d="M369.8,52.1c0,1.8-1.5,3.3-3.3,3.3c-1.8,0-3.3-1.5-3.3-3.3c0-1.8,1.5-3.3,3.3-3.3
	C368.3,48.8,369.8,50.3,369.8,52.1z"/>
<path class="st13" d="M407.9,397.4c0,1.8-1.5,3.3-3.3,3.3c-1.8,0-3.3-1.5-3.3-3.3c0-1.8,1.5-3.3,3.3-3.3
	C406.4,394.2,407.9,395.6,407.9,397.4z"/>
<path class="st13" d="M452.7,365.5c0,1.8-1.5,3.3-3.3,3.3c-1.8,0-3.3-1.5-3.3-3.3s1.5-3.3,3.3-3.3
	C451.3,362.2,452.7,363.7,452.7,365.5z"/>
<path class="st13" d="M45.1,362.2c0,1.8-1.5,3.3-3.3,3.3c-1.8,0-3.3-1.5-3.3-3.3c0-1.8,1.5-3.3,3.3-3.3
	C43.6,358.9,45.1,360.4,45.1,362.2z"/>
<linearGradient id="SVGID_6_" gradientUnits="userSpaceOnUse" x1="317.0304" y1="37.4631" x2="336.5228" y2="37.4631">
	<stop  offset="0" style="stop-color:#0B77BE"/>
	<stop  offset="1" style="stop-color:#4869B2"/>
</linearGradient>
<path class="st17" d="M328.3,28.6l1,1.9c1,1.9,2.5,3.5,4.4,4.4l1.9,1c1.2,0.6,1.2,2.4,0,3l-1.9,1c-1.9,1-3.5,2.5-4.4,4.4l-1,1.9
	c-0.6,1.2-2.4,1.2-3,0l-1-1.9c-1-1.9-2.5-3.5-4.4-4.4l-1.9-1c-1.2-0.6-1.2-2.4,0-3l1.9-1c1.9-1,3.5-2.5,4.4-4.4l1-1.9
	C325.9,27.4,327.7,27.4,328.3,28.6z"/>
<path class="st18" d="M518.5,342.5l1,1.9c1,1.9,2.5,3.5,4.4,4.4l1.9,1c1.2,0.6,1.2,2.4,0,3l-1.9,1c-1.9,1-3.5,2.5-4.4,4.4l-1,1.9
	c-0.6,1.2-2.4,1.2-3,0l-1-1.9c-1-1.9-2.5-3.5-4.4-4.4l-1.9-1c-1.2-0.6-1.2-2.4,0-3l1.9-1c1.9-1,3.5-2.5,4.4-4.4l1-1.9
	C516.2,341.2,517.9,341.2,518.5,342.5z"/>
<path class="st4" d="M106.8,381.7l1,1.9c1,1.9,2.5,3.5,4.4,4.4l1.9,1c1.2,0.6,1.2,2.4,0,3l-1.9,1c-1.9,1-3.5,2.5-4.4,4.4l-1,1.9
	c-0.6,1.2-2.4,1.2-3,0l-1-1.9c-1-1.9-2.5-3.5-4.4-4.4l-1.9-1c-1.2-0.6-1.2-2.4,0-3l1.9-1c1.9-1,3.5-2.5,4.4-4.4l1-1.9
	C104.5,380.4,106.2,380.4,106.8,381.7z"/>
<path class="st19" d="M35.3,97.7l1,1.9c1,1.9,2.5,3.5,4.4,4.4l1.9,1c1.2,0.6,1.2,2.4,0,3l-1.9,1c-1.9,1-3.5,2.5-4.4,4.4l-1,1.9
	c-0.6,1.2-2.4,1.2-3,0l-1-1.9c-1-1.9-2.5-3.5-4.4-4.4l-1.9-1c-1.2-0.6-1.2-2.4,0-3l1.9-1c1.9-1,3.5-2.5,4.4-4.4l1-1.9
	C33,96.5,34.7,96.5,35.3,97.7z"/>
<g>
	<g>
		<linearGradient id="SVGID_7_" gradientUnits="userSpaceOnUse" x1="160.905" y1="245.661" x2="268.7871" y2="245.661">
			<stop  offset="0" style="stop-color:#00AEEF"/>
			<stop  offset="1" style="stop-color:#2E3192"/>
		</linearGradient>
		<path class="st20" d="M244.1,308.1l1.9-29.9c0,0,1.3,5.1,2.2,7.1c1,1.9,20.5-7.1,20.5-7.1s-5.1-34.7-8.3-47.2
			c-3.2-12.5-4.2-28.9-7.1-29.9c-2.9-1-39.2-18-40.1-18c-1,0-20.5,1.9-20.5,1.9l-31.8,19.3l4.8,103.7H244.1z"/>
		<path class="st21" d="M218.9,227.9c0,1.1-0.1,2.1-0.2,3.1"/>
		<path class="st21" d="M217,200.2c0,0,1.8,11.9,2,23.1"/>
		<line class="st21" x1="242.4" y1="225.2" x2="242.5" y2="220.1"/>
		<line class="st21" x1="241.4" y1="276.3" x2="242.3" y2="229"/>
	</g>
	<polygon class="st1" points="272.7,308.1 270.4,288.6 248.4,292.8 255.9,308.1 	"/>
	<linearGradient id="SVGID_8_" gradientUnits="userSpaceOnUse" x1="244.0404" y1="285.7232" x2="274.5458" y2="285.7232">
		<stop  offset="0" style="stop-color:#00AEEF"/>
		<stop  offset="1" style="stop-color:#2E3192"/>
	</linearGradient>
	<path class="st22" d="M244.9,283.7c0,0,4.9-2.1,11.2-5.9c6.3-3.8,12.2-4.9,14-1.7c1.7,3.1,5.6,11.9,4.2,13.3c-1.4,1.4-22,8-24.1,8
		s-5.9-7-5.9-7S243.5,287.2,244.9,283.7z"/>
	<linearGradient id="SVGID_9_" gradientUnits="userSpaceOnUse" x1="189.1599" y1="190.9342" x2="228.6524" y2="190.9342">
		<stop  offset="0" style="stop-color:#00AEEF"/>
		<stop  offset="1" style="stop-color:#2E3192"/>
	</linearGradient>
	<path class="st23" d="M196.5,175.8c0,0-3.6,2.9-4.8,4.8c-1.6,2.6-2.6,7.1-2.6,7.1L203,207l8.7-13.5l3.2-1.9l13.8,9.3
		c0,0-4.8-16.7-10-21.8C213.6,173.9,199.4,174.5,196.5,175.8z"/>
	<g>
		<path class="st0" d="M213.6,109c0,0,7.3,5.8,8,9.1c0.7,3.3-1.3,10.4-1.3,10.4l-9.6-18.8L213.6,109z"/>
		<path class="st1" d="M211.3,106.1c0,0,13.2,28.6,15.1,38.2c1.9,9.6,1,18.6-2.6,25.4c-3.5,6.7-7.4,5.8-7.4,5.8v21.8
			c0,0-17-13.5-18-15.1c-1-1.6-2.6-4.5-2.6-4.5s-1.9-14.1-8-18.3c0,0-8,1.3-10-6.1c-1.9-7.4-0.3-10,4.8-10.6c0,0-4.2-10.6-5.1-17.7
			c-1-7.1,10.9-9.3,18-13.8C202.6,106.8,211.3,106.1,211.3,106.1z"/>
		<polygon class="st0" points="216.5,175.5 210.2,173.1 216.1,183.9 		"/>
		<path class="st0" d="M182.1,145c0,0-4.2-1.6-8.7-7.4c-4.5-5.8-5.8-10.3,0.3-19.9c6.1-9.6,27.9-18.6,34-17.7c6.1,1,10,8.7,2.6,13.5
			c-7.4,4.8-16.4,6.7-16.4,6.7s3.5-2.9-0.3-3.5c-3.9-0.6-11.6,3.2-10.9,6.4c0.6,3.2,5.5,2.2,5.1,7.4c-0.3,5.1-4.8,10.6-3.2,12.5
			c1.6,1.9,5.5,3.5,2.2,4.5C183.7,148.5,182.1,145,182.1,145z"/>
		<line class="st21" x1="204.6" y1="150.1" x2="199.8" y2="154"/>
		<path class="st21" d="M202.3,152.7c0,0,6.1,5.8,16.7,1"/>
		<path class="st0" d="M204.6,154.6c0,0,1.9,4.2,7.1,5.5c5.1,1.3,2.6-4.5,2.6-4.5S207.1,155.6,204.6,154.6z"/>
		<path class="st6" d="M199,135.3c0.5,1.5,0.4,2.9-0.3,3.1c-0.7,0.2-1.6-0.8-2.1-2.3c-0.5-1.5-0.4-2.9,0.3-3.1
			C197.6,132.7,198.5,133.8,199,135.3z"/>
		<path class="st6" d="M215.7,130.5c0.5,1.5,0.4,2.9-0.3,3.1c-0.7,0.2-1.6-0.8-2.1-2.3s-0.4-2.9,0.3-3.1
			C214.3,127.9,215.2,128.9,215.7,130.5z"/>
		<path class="st21" d="M207.3,137.6l-13.3,4.4c-1.1,0.4-2.2-0.2-2.6-1.3l-2-5.9c-0.4-1.1,0.2-2.2,1.3-2.6l13.3-4.4
			c1.1-0.4,2.2,0.2,2.6,1.3l2,5.9C209,136.1,208.4,137.3,207.3,137.6z"/>
		<line class="st21" x1="206.4" y1="128.2" x2="211.1" y2="126.6"/>
		<line class="st21" x1="189.6" y1="134.9" x2="181.2" y2="143.2"/>
		<line class="st21" x1="227" y1="121.7" x2="220.8" y2="127"/>
		<path class="st21" d="M228.5,131.2l-13.3,4.4c-1.1,0.4-2.2-0.2-2.6-1.3l-2-5.9c-0.4-1.1,0.2-2.2,1.3-2.6l13.3-4.4
			c1.1-0.4,2.2,0.2,2.6,1.3l2,5.9C230.2,129.7,229.6,130.9,228.5,131.2z"/>
		<path class="st24" d="M192,129.9c0,0,3.9-4.8,9.6-4.2"/>
		<path class="st24" d="M209.7,123.2c0,0,2.6-2.6,7.4-1.3"/>
		<path class="st1" d="M210.7,129.3c0,0,9.6,18.6,8.7,19.9c-1,1.3-7.4,0-7.4,0"/>
	</g>
	<linearGradient id="SVGID_10_" gradientUnits="userSpaceOnUse" x1="142.4842" y1="236.743" x2="178.5644" y2="236.743">
		<stop  offset="0" style="stop-color:#00AEEF"/>
		<stop  offset="1" style="stop-color:#2E3192"/>
	</linearGradient>
	<path class="st25" d="M164.8,202.5c0,0-5.5,0-7.1,4.8c-1.6,4.8-16.7,59.7-15.1,61.3c1.6,1.6,21.8,2.9,24.1,2.2
		c2.2-0.6,11.9-37.6,11.9-37.6"/>
	<linearGradient id="SVGID_11_" gradientUnits="userSpaceOnUse" x1="140.8075" y1="273.7796" x2="172.9164" y2="273.7796">
		<stop  offset="0" style="stop-color:#00AEEF"/>
		<stop  offset="1" style="stop-color:#2E3192"/>
	</linearGradient>
	<path class="st26" d="M172.8,269.6c0,0,1.3-6.4-4.2-9c-5.5-2.6-14.4-2.2-19.9,1.9c-5.5,4.2-6.4,3.2-7.7,11.2
		c-1.3,8,4.2,13.2,8.7,14.1c4.5,1,8.3,1.9,13.8-3.5C168.9,278.9,172.8,269.6,172.8,269.6z"/>
	<path class="st1" d="M206.6,235.8c0,0-2.2,49.1-10.6,67.4c0,0,8,2.6,21.2,1.3c13.2-1.3,25.4-8.3,25.4-8.3s4.5-27,6.7-40.1
		c2.2-13.2,3.5-20.5,3.5-20.5s-2.9,2.2-19.3,3.2C217.2,239.6,206.6,235.8,206.6,235.8z"/>
	<g>
		<path class="st1" d="M185.6,276c0,0-18.6-11.6-21.2-11.6c-2.6,0-10.3,2.6-13.5,10c-3.2,7.4-2.9,11.2,1.3,12.5
			c4.2,1.3,31.1,3.9,34.4,3.9c3.2,0,10.9,1.6,15.4,1.6c4.5,0,16.4-1.3,18-3.9c1.6-2.6-11.6-1.6-12.5-1.9c-1-0.3,12-2.8,13.8-3.2
			c1.8-0.4,4.2-2.9,0.6-3.9c0,0,6.1-2.9,2.2-5.5l-17.9-3.2l5.5-1.2c0,0,12.5,3.4,12.4-0.5c-0.1-1.6-10.3-4.8-13.5-4.8
			c-3.2,0-20.2,11.6-20.2,11.6H185.6z"/>
		<line class="st21" x1="221.9" y1="279.5" x2="205.5" y2="278.2"/>
	</g>
</g>
<g>
	<g>
		<path class="st27" d="M388.6,205.5l-2.4,6.5c-0.4,1.2-1.4,2-2.6,2.2l-31.8,4.8c-2.1,0.3-3.3,2.4-2.7,4.7l11.2,45.9
			c0.6,2.3,2.7,3.9,4.7,3.6l75.8-11.5c2.1-0.3,3.3-2.4,2.7-4.7L430,201.7c-0.6-2.3-2.7-3.9-4.7-3.6l-34.1,5.2
			C390,203.5,389.1,204.3,388.6,205.5z"/>
		<path class="st28" d="M388.6,205.5l-2.4,6.5c-0.4,1.2-1.4,2-2.6,2.2l-31.8,4.8c-2.1,0.3-3.3,2.4-2.7,4.7l11.2,45.9
			c0.6,2.3,2.7,3.9,4.7,3.6l75.8-11.5c2.1-0.3,3.3-2.4,2.7-4.7L430,201.7c-0.6-2.3-2.7-3.9-4.7-3.6l-34.1,5.2
			C390,203.5,389.1,204.3,388.6,205.5z"/>
	</g>
	<linearGradient id="SVGID_12_" gradientUnits="userSpaceOnUse" x1="350.9154" y1="154.1812" x2="436.7104" y2="154.1812">
		<stop  offset="0" style="stop-color:#2B6BB4"/>
		<stop  offset="1" style="stop-color:#283071"/>
	</linearGradient>
	<path class="st29" d="M372.3,138.3c0.8,0,1.5,0,2.2,0.1c4.9-6.8,12.8-11.1,21.8-11.1c11.4,0,21.1,7.1,25,17.1
		c8.7,1.5,15.4,9.1,15.4,18.2c0,10.2-8.3,18.5-18.5,18.5h-45.9c-11.8,0-21.4-9.6-21.4-21.4C350.9,147.9,360.5,138.3,372.3,138.3z"/>
	<g>
		<polygon class="st27" points="374.3,173.6 374.3,226.9 413.4,226.9 413.4,185.2 401.8,173.6 		"/>
		<polygon class="st30" points="374.3,173.6 374.3,226.9 413.4,226.9 413.4,185.2 401.8,173.6 		"/>
		<polygon class="st31" points="401.8,185.2 401.8,173.6 413.4,185.2 		"/>
	</g>
	
		<rect x="372.8" y="273.2" transform="matrix(0.9888 -0.1493 0.1493 0.9888 -36.6531 58.9511)" class="st27" width="2.8" height="0.6"/>
	
		<rect x="378.6" y="271.8" transform="matrix(0.9888 -0.1494 0.1494 0.9888 -36.3553 60.3625)" class="st27" width="9.8" height="0.6"/>
	<linearGradient id="SVGID_13_" gradientUnits="userSpaceOnUse" x1="360.6075" y1="238.2658" x2="445.7256" y2="238.2658">
		<stop  offset="0" style="stop-color:#2B6BB4"/>
		<stop  offset="1" style="stop-color:#283071"/>
	</linearGradient>
	<path class="st32" d="M402.6,210.7l-3.6,6c-0.7,1.1-1.8,1.9-3,2l-31.8,4.8c-2.1,0.3-3.6,2.3-3.6,4.3l1.9,41.9
		c0.1,2.1,1.8,3.5,3.9,3.2l75.8-11.5c2.1-0.3,3.6-2.3,3.6-4.3l-2.2-50.5c-0.1-2.1-1.8-3.5-3.9-3.2l-34.1,5.2
		C404.3,208.9,403.2,209.6,402.6,210.7z"/>
	<path class="st5" d="M403.7,165.9c-0.2,0-0.4-0.1-0.5-0.2c-0.3-0.3-0.3-0.7,0-1c5.2-5.2,5.2-13.6,0-18.8c-2.5-2.5-5.8-3.9-9.4-3.9
		c-3.5,0-6.9,1.4-9.4,3.9c-2.5,2.5-3.9,5.8-3.9,9.4c0,3.5,1.4,6.9,3.9,9.4c0.3,0.3,0.3,0.7,0,1c-0.3,0.3-0.7,0.3-1,0
		c-2.8-2.8-4.3-6.4-4.3-10.4c0-3.9,1.5-7.6,4.3-10.4c2.8-2.8,6.4-4.3,10.4-4.3c3.9,0,7.6,1.5,10.4,4.3c5.7,5.7,5.7,15,0,20.7
		C404,165.8,403.9,165.9,403.7,165.9z"/>
	<path class="st5" d="M399.7,170v-15.3c0-1.4-1.1-2.5-2.5-2.5h-6.8c-1.4,0-2.5,1.1-2.5,2.5V170h-2.5l8.4,7.2l8.4-7.2H399.7z"/>
</g>
<g>
	
		<ellipse transform="matrix(8.391677e-02 -0.9965 0.9965 8.391677e-02 97.232 186.866)" class="st4" cx="150.2" cy="40.6" rx="21.9" ry="21.9"/>
	<g>
		<g>
			<path class="st33" d="M155.8,32.7l-0.8,0c-0.7,0-1.3-0.6-1.3-1.3l0-0.4c0-0.7,0.6-1.3,1.3-1.3l0.8,0c0.7,0,1.3,0.6,1.3,1.3l0,0.4
				C157.1,32.1,156.5,32.7,155.8,32.7z"/>
			<path class="st33" d="M160.3,34.8l-0.6-0.6c-0.5-0.5-0.5-1.3,0-1.8l0.3-0.3c0.5-0.5,1.3-0.5,1.8,0l0.6,0.6c0.5,0.5,0.5,1.3,0,1.8
				l-0.3,0.3C161.6,35.4,160.8,35.4,160.3,34.8z"/>
			<path class="st33" d="M161.9,39.6l0-0.8c0-0.7,0.6-1.3,1.3-1.3l0.4,0c0.7,0,1.3,0.6,1.3,1.3l0,0.8c0,0.7-0.6,1.3-1.3,1.3l-0.4,0
				C162.5,40.9,161.9,40.3,161.9,39.6z"/>
			<path class="st33" d="M159.7,44l0.6-0.6c0.5-0.5,1.3-0.5,1.8,0l0.3,0.3c0.5,0.5,0.5,1.3,0,1.8l-0.6,0.6c-0.5,0.5-1.3,0.5-1.8,0
				l-0.3-0.3C159.2,45.4,159.2,44.5,159.7,44z"/>
			<path class="st33" d="M155,45.7l0.8,0c0.7,0,1.3,0.6,1.3,1.3l0,0.4c0,0.7-0.6,1.3-1.3,1.3l-0.8,0c-0.7,0-1.3-0.6-1.3-1.3l0-0.4
				C153.7,46.2,154.3,45.7,155,45.7z"/>
			<path class="st33" d="M150.5,43.5l0.6,0.6c0.5,0.5,0.5,1.3,0,1.8l-0.3,0.3c-0.5,0.5-1.3,0.5-1.8,0l-0.6-0.6
				c-0.5-0.5-0.5-1.3,0-1.8l0.3-0.3C149.2,43,150,43,150.5,43.5z"/>
			<path class="st33" d="M148.9,38.8l0,0.8c0,0.7-0.6,1.3-1.3,1.3l-0.4,0c-0.7,0-1.3-0.6-1.3-1.3l0-0.8c0-0.7,0.6-1.3,1.3-1.3l0.4,0
				C148.3,37.4,148.9,38,148.9,38.8z"/>
			<path class="st33" d="M151.1,34.3l-0.6,0.6c-0.5,0.5-1.3,0.5-1.8,0l-0.3-0.3c-0.5-0.5-0.5-1.3,0-1.8l0.6-0.6
				c0.5-0.5,1.3-0.5,1.8,0l0.3,0.3C151.6,32.9,151.6,33.8,151.1,34.3z"/>
		</g>
		<path class="st33" d="M155.4,31.7c-4.1,0-7.5,3.4-7.5,7.5c0,4.1,3.4,7.5,7.5,7.5c4.1,0,7.5-3.4,7.5-7.5
			C162.9,35,159.5,31.7,155.4,31.7z M155.4,42.5c-1.8,0-3.3-1.5-3.3-3.3c0-1.8,1.5-3.3,3.3-3.3c1.8,0,3.3,1.5,3.3,3.3
			C158.7,41,157.2,42.5,155.4,42.5z"/>
		<path class="st5" d="M155.4,33.2c-3.3,0-5.9,2.7-5.9,5.9c0,3.3,2.7,5.9,5.9,5.9c3.3,0,5.9-2.7,5.9-5.9
			C161.3,35.9,158.7,33.2,155.4,33.2z M155.4,44.1c-2.7,0-4.9-2.2-4.9-4.9c0-2.7,2.2-4.9,4.9-4.9c2.7,0,4.9,2.2,4.9,4.9
			C160.3,41.9,158.1,44.1,155.4,44.1z"/>
		<g>
			<path class="st33" d="M143.9,40.7l-0.5-0.2c-0.5-0.2-0.7-0.7-0.5-1.2l0.1-0.2c0.2-0.5,0.7-0.7,1.2-0.5l0.5,0.2
				c0.5,0.2,0.7,0.7,0.5,1.2l-0.1,0.2C144.9,40.7,144.4,40.9,143.9,40.7z"/>
			<path class="st33" d="M146.4,43.2l-0.2-0.5c-0.2-0.5,0-1,0.4-1.2l0.2-0.1c0.5-0.2,1,0,1.2,0.4l0.2,0.5c0.2,0.5,0,1-0.4,1.2
				l-0.2,0.1C147.1,43.9,146.6,43.7,146.4,43.2z"/>
			<path class="st33" d="M146.3,46.7l0.2-0.5c0.2-0.5,0.7-0.7,1.2-0.5l0.2,0.1c0.5,0.2,0.7,0.7,0.5,1.2l-0.2,0.5
				c-0.2,0.5-0.7,0.7-1.2,0.5l-0.2-0.1C146.4,47.7,146.1,47.2,146.3,46.7z"/>
			<path class="st33" d="M143.8,49.1l0.5-0.2c0.5-0.2,1,0,1.2,0.4l0.1,0.2c0.2,0.5,0,1-0.4,1.2l-0.5,0.2c-0.5,0.2-1,0-1.2-0.4
				l-0.1-0.2C143.2,49.9,143.4,49.4,143.8,49.1z"/>
			<path class="st33" d="M140.3,49.1l0.5,0.2c0.5,0.2,0.7,0.7,0.5,1.2l-0.1,0.2c-0.2,0.5-0.7,0.7-1.2,0.5l-0.5-0.2
				c-0.5-0.2-0.7-0.7-0.5-1.2l0.1-0.2C139.3,49.2,139.9,48.9,140.3,49.1z"/>
			<path class="st33" d="M137.9,46.6l0.2,0.5c0.2,0.5,0,1-0.4,1.2l-0.2,0.1c-0.5,0.2-1,0-1.2-0.4l-0.2-0.5c-0.2-0.5,0-1,0.4-1.2
				l0.2-0.1C137.2,45.9,137.7,46.1,137.9,46.6z"/>
			<path class="st33" d="M138,43.1l-0.2,0.5c-0.2,0.5-0.7,0.7-1.2,0.5l-0.2-0.1c-0.5-0.2-0.7-0.7-0.5-1.2l0.2-0.5
				c0.2-0.5,0.7-0.7,1.2-0.5l0.2,0.1C137.9,42.1,138.1,42.6,138,43.1z"/>
			<path class="st33" d="M140.5,40.7l-0.5,0.2c-0.5,0.2-1,0-1.2-0.4l-0.1-0.2c-0.2-0.5,0-1,0.4-1.2l0.5-0.2c0.5-0.2,1,0,1.2,0.4
				l0.1,0.2C141.1,39.9,140.9,40.5,140.5,40.7z"/>
		</g>
		<path class="st33" d="M143.9,40c-2.7-1-5.7,0.4-6.7,3.2c-1,2.7,0.4,5.7,3.2,6.7c2.7,1,5.7-0.4,6.7-3.2C148,44,146.6,41,143.9,40z
			 M141.4,47.1c-1.2-0.4-1.8-1.8-1.4-3c0.4-1.2,1.8-1.8,3-1.4c1.2,0.4,1.8,1.8,1.4,3C143.9,46.9,142.6,47.5,141.4,47.1z"/>
		<path class="st5" d="M143.5,41c-2.2-0.8-4.5,0.3-5.3,2.5c-0.8,2.2,0.3,4.5,2.5,5.3s4.5-0.3,5.3-2.5
			C146.8,44.2,145.7,41.8,143.5,41z M141,48.1c-1.8-0.6-2.7-2.6-2.1-4.4c0.6-1.8,2.6-2.7,4.4-2.1c1.8,0.6,2.7,2.6,2.1,4.4
			C144.7,47.9,142.8,48.8,141,48.1z"/>
	</g>
</g>
<g>
	
		<ellipse transform="matrix(0.6307 -0.7761 0.7761 0.6307 129.1012 346.2583)" class="st18" cx="428.3" cy="37.5" rx="31.7" ry="31.7"/>
	<g>
		<g>
			
				<rect x="424.5" y="25.7" transform="matrix(0.5633 -0.8262 0.8262 0.5633 163.6191 371.1306)" class="st34" width="16.8" height="10.1"/>
			<polygon class="st34" points="423.7,44.3 423.3,37.5 422.9,30.6 429.8,35.3 436.7,40 430.2,42.2 			"/>
		</g>
		<polygon class="st33" points="436.7,44.3 431.6,51.8 413.8,39.7 419,32.1 413.8,28.6 405,41.6 433,60.7 441.9,47.7 		"/>
	</g>
</g>
<g>
	
		<ellipse transform="matrix(0.764 -0.6453 0.6453 0.764 -189.1927 211.6155)" class="st33" cx="194.6" cy="364.4" rx="23.3" ry="23.3"/>
	<g>
		<circle class="st5" cx="188.2" cy="370.8" r="4.4"/>
		<g>
			<g>
				<circle class="st5" cx="194.5" cy="354.4" r="4.4"/>
				
					<rect x="182.7" y="360.9" transform="matrix(0.373 -0.9278 0.9278 0.373 -216.909 404.8016)" class="st5" width="16.6" height="4"/>
			</g>
			<g>
				
					<ellipse transform="matrix(0.5168 -0.8561 0.8561 0.5168 -213.1979 351.3277)" class="st5" cx="204.6" cy="364.5" rx="4.4" ry="4.4"/>
				
					<rect x="187.8" y="366" transform="matrix(0.9278 -0.373 0.373 0.9278 -123.0978 99.7146)" class="st5" width="16.6" height="4"/>
			</g>
		</g>
	</g>
</g>
<g>
	
		<ellipse transform="matrix(8.022143e-02 -0.9968 0.9968 8.022143e-02 -4.1829 711.6291)" class="st35" cx="383.5" cy="358.1" rx="17" ry="17"/>
	<g>
		<path class="st36" d="M391.9,351.7h-10.5v-1.1c0-0.7-0.6-1.3-1.3-1.3h-5c-0.7,0-1.3,0.6-1.3,1.3v2.4v3.6v8.9
			c0,0.7,0.6,1.3,1.3,1.3h16.8c0.7,0,1.3-0.6,1.3-1.3V353C393.2,352.3,392.6,351.7,391.9,351.7z"/>
		<rect x="376" y="353.6" class="st5" width="15.1" height="7.1"/>
		<g>
			<rect x="376.9" y="354.5" class="st33" width="13.2" height="0.4"/>
			<rect x="376.9" y="355.6" class="st33" width="13.2" height="0.4"/>
			<rect x="376.9" y="356.7" class="st33" width="13.2" height="0.4"/>
		</g>
		<path class="st37" d="M373.8,357.9v7.7c0,0.7,0.6,1.3,1.3,1.3h16.8c0.7,0,1.3-0.6,1.3-1.3v-7.7H373.8z"/>
	</g>
</g>
<g>
	
		<ellipse transform="matrix(8.022158e-02 -0.9968 0.9968 8.022158e-02 218.6464 368.813)" class="st33" cx="309.2" cy="65.9" rx="10.2" ry="10.2"/>
	<g>
		<path class="st5" d="M313.8,70.7c0,0.3-0.2,0.6-0.6,0.6h-8.2c-0.3,0-0.6-0.2-0.6-0.6v-9.6c0-0.3,0.2-0.6,0.6-0.6h8.2
			c0.3,0,0.6,0.2,0.6,0.6V70.7z"/>
		<g>
			<g>
				<rect x="305.9" y="62.1" class="st34" width="1.1" height="1.1"/>
				<rect x="307.8" y="62.4" class="st34" width="4.6" height="0.5"/>
			</g>
			<g>
				<rect x="305.9" y="64.3" class="st34" width="1.1" height="1.1"/>
				<rect x="307.8" y="64.6" class="st34" width="4.6" height="0.5"/>
			</g>
			<g>
				<rect x="305.9" y="66.4" class="st34" width="1.1" height="1.1"/>
				<rect x="307.8" y="66.8" class="st34" width="4.6" height="0.5"/>
			</g>
			<g>
				<rect x="305.9" y="68.6" class="st34" width="1.1" height="1.1"/>
				<rect x="307.8" y="68.9" class="st34" width="4.6" height="0.5"/>
			</g>
		</g>
	</g>
</g>
</svg>
