<?xml version="1.0" encoding="utf-8"?>
<!-- Generator: Adobe Illustrator 23.0.0, SVG Export Plug-In . SVG Version: 6.00 Build 0)  -->
<svg version="1.1" id="Layer_1" xmlns="http://www.w3.org/2000/svg" xmlns:xlink="http://www.w3.org/1999/xlink" x="0px" y="0px"
	 width="296.9px" height="234.1px" viewBox="0 0 296.9 234.1" style="enable-background:new 0 0 296.9 234.1;" xml:space="preserve"
	>
<style type="text/css">
	.st0{fill:none;stroke:#000000;stroke-width:1.0481;stroke-miterlimit:10;}
	.st1{fill:#DBDFF0;}
	.st2{fill:#FFDB59;}
	.st3{fill:#E9EBF6;}
	.st4{fill:#1B75BC;}
	.st5{fill:#7FD2EC;}
	.st6{fill:#FFFFFF;}
	.st7{fill:#98DAF8;}
	.st8{fill:#2787C8;}
	.st9{fill:#4C4C4C;}
	.st10{fill:none;stroke:#4C4C4C;stroke-width:2;stroke-miterlimit:10;}
	.st11{fill:#FFFFFF;stroke:#4C4C4C;stroke-width:0.5;stroke-miterlimit:10;}
	.st12{fill:#3DB0E4;}
	.st13{fill:#FFDA59;}
	.st14{fill:#ECBE22;}
	.st15{fill:#3C5EAA;}
	.st16{fill:#F37422;}
	.st17{fill:#263238;}
	.st18{fill:#1F6DB5;}
</style>
<g>
	<g>
		<path class="st0" d="M105.6,35.7H11.8c-4.2,0-7.7,3.4-7.7,7.7v39.9c0,4.2,3.4,7.7,7.7,7.7h36.1l6.5,6.5l6.5-6.5h44.8
			c4.2,0,7.7-3.4,7.7-7.7V43.4C113.2,39.1,109.8,35.7,105.6,35.7z"/>
		<g>
			<g>
				<ellipse class="st1" cx="21.6" cy="51.8" rx="8" ry="8"/>
				<polygon class="st2" points="38.4,44.5 39.8,48.9 44.5,48.9 40.7,51.6 42.2,56 38.4,53.3 34.7,56.1 36.1,51.7 32.3,48.9 
					36.9,48.9 				"/>
				<polygon class="st2" points="53.2,44.5 54.6,48.9 59.3,48.9 55.5,51.6 57,56 53.2,53.3 49.5,56.1 50.9,51.7 47.1,48.9 
					51.8,48.9 				"/>
				<polygon class="st2" points="68,44.5 69.4,48.9 74.1,48.9 70.4,51.6 71.8,56 68,53.3 64.3,56.1 65.7,51.7 61.9,48.9 66.6,48.9 
									"/>
				<polygon class="st3" points="82.8,44.5 84.3,48.9 88.9,48.9 85.2,51.6 86.6,56 82.9,53.3 79.1,56.1 80.5,51.7 76.7,48.9 
					81.4,48.9 				"/>
				<polygon class="st3" points="97.6,44.5 99.1,48.9 103.7,48.9 100,51.6 101.4,56 97.7,53.3 93.9,56.1 95.3,51.7 91.5,48.9 
					96.2,48.9 				"/>
			</g>
			<g>
				<g>
					<rect x="13.2" y="63.4" class="st4" width="7.1" height="1.9"/>
					<rect x="22" y="63.4" class="st4" width="10.6" height="1.9"/>
				</g>
				<g>
					<g>
						<rect x="13.2" y="69" class="st5" width="15.3" height="1.9"/>
						<rect x="34.7" y="69" class="st5" width="35.7" height="1.9"/>
						<rect x="76.6" y="69" class="st5" width="27.5" height="1.9"/>
					</g>
					<g>
						<rect x="13.2" y="75" class="st5" width="34.1" height="1.9"/>
						<rect x="87.1" y="75" class="st5" width="17.1" height="1.9"/>
						<rect x="53.2" y="75" class="st5" width="29.9" height="1.9"/>
					</g>
					<g>
						<rect x="13.2" y="81" class="st5" width="43.6" height="1.9"/>
					</g>
				</g>
			</g>
		</g>
	</g>
</g>
<g>
	
		<rect x="89.3" y="96.7" transform="matrix(6.123234e-17 -1 1 6.123234e-17 41.7583 319.1121)" class="st6" width="182.2" height="83.9"/>
	<ellipse transform="matrix(0.365 -0.931 0.931 0.365 -9.6982 341.7711)" class="st7" cx="245.7" cy="178" rx="48.5" ry="48.5"/>
	<path class="st8" d="M213.6,214.4l0.2,12.2h-39.4l8.7-9.4c0,0,9.9,3.4,14-1.8l7,6.1L213.6,214.4z"/>
	<circle class="st7" cx="97.6" cy="185.3" r="48.5"/>
	<circle class="st7" cx="213.3" cy="48.3" r="41.5"/>
	
		<ellipse transform="matrix(0.9734 -0.2289 0.2289 0.9734 -20.6034 65.3996)" class="st7" cx="271.6" cy="121.5" rx="7.8" ry="7.8"/>
	<circle class="st7" cx="123.4" cy="35.9" r="5.2"/>
	
		<ellipse transform="matrix(0.7071 -0.7071 0.7071 0.7071 34.3475 111.5559)" class="st7" cx="151.8" cy="14.3" rx="14.3" ry="14.3"/>
	<circle class="st9" cx="207.9" cy="49.1" r="16"/>
	<g>
		<path class="st6" d="M141.7,81.5c-4.9,1.8-8.4,7.1-8.4,13.4c0,7.2,4.5,13.1,10.4,13.9"/>
		<g>
			<path class="st9" d="M141,80.5c-12.7,5.5-11.7,26.7,2.3,29.7c1.6,0.3,2.2-2.1,0.7-2.4c-12-2.5-12.4-20.5-1.7-25.1
				C143.8,82,142.5,79.8,141,80.5L141,80.5z"/>
		</g>
	</g>
	<path class="st9" d="M288.3,233.9H27.4v-0.5c0-4.3,3.4-7.7,7.7-7.7h245.4c4.3,0,7.7,3.4,7.7,7.7V233.9z"/>
	<path class="st9" d="M194.2,49.4c2.8-1,5.9-0.9,8.5,0.5c3.6,1.8,8.5,5.8,12.4,14.3c7.3,15.9,28.6,21.8,35.6,42.4
		c0,0,8.2,19.8-14.5,31.7c0,0,8.7-15.6-1.9-26.2c0,0,12.3,31.7-34.1,32l-15.1-1.2l-2.1-23.5c0,0,20.9-7.2,18.9-29.5
		C200,67.8,194.2,49.4,194.2,49.4L194.2,49.4z"/>
	<path class="st9" d="M141.3,96.5c0,0-1.1,5.7-14,7.1c-12.9,1.5-21.7,12.7-14.3,25.4c0,0-3.3-11.2,7.8-14.8c0,0-13.5,29.8,27.3,32.4
		l9.9-2.3l-0.4-22.3C157.5,121.9,143.7,119.6,141.3,96.5z"/>
	<g>
		<g>
			<path class="st9" d="M196.8,107c-4.6,7.1-13.4,11.9-21.4,13.9c-7,1.7-16,2.5-22.3-1.8c-4.5-3.1-7.1-8.2-8.6-13.3
				c-3.2-11.4-1.7-24.6,1.9-35.6c4-12.2,12.4-22,25.9-22.7c1.6-0.1,1.6-2.6,0-2.5c-23.4,1.1-31.2,25.9-32,45.8
				c-0.2,5.4,0.3,10.8,1.8,16c1.5,5.1,4.1,10,8.2,13.4c5.6,4.5,12.9,4.9,19.8,4.1c10.7-1.2,22.5-6.7,28.6-16
				C199.9,106.9,197.7,105.6,196.8,107L196.8,107z"/>
		</g>
	</g>
	<g>
		<g>
			<path class="st9" d="M148.7,102.9c1.4,5.5,7.4,7.2,12.4,5.9c5.1-1.3,9.2-5.6,9.5-11c0.1-1.6-2.4-1.6-2.5,0
				c-0.5,7.8-14.7,13.6-16.9,4.4C150.7,100.7,148.3,101.4,148.7,102.9L148.7,102.9z"/>
		</g>
	</g>
	<path class="st8" d="M149.1,143c0,0,12.4,5.4,48,0c0,0,26.1-0.1,45.7,52.2c0,0,10.4,27.7-8.2,32.6c-18.5,4.9-39.4-10.9-39.4-10.9
		s7.9-5.1,4.1-14.6c0,0-30.8-6.7-30.4,11.5H95C95,213.9,95.8,146.2,149.1,143z"/>
	<g>
		<g>
			<path class="st9" d="M148.5,144.1c7.7,3.3,17.7,2.8,25.7,2.5c5.8-0.2,11.5-0.8,17.2-1.5c2.1-0.3,4.2-0.8,6.2-0.8
				c2.4,0.1,4.9,1.1,7,2c13.1,5.8,22.2,18.7,28.7,30.9c5.9,11,14,27.1,10.2,40.2c-3.5,12-18.3,11.2-28,8.3c-7-2.1-13.9-5.5-19.8-9.9
				c0,0.7,0,1.4,0,2.2c4.3-2.8,6.4-8.1,5.5-13.1c-0.9-4.8-3.9-4.3-8.2-4.7c-10.3-1-25.4,0.2-25.5,13.7c0.4-0.4,0.8-0.8,1.3-1.3
				c-24.6,0-49.2,0-73.8,0c0.4,0.4,0.8,0.8,1.3,1.3c0.1-10.9,2.6-22.2,6.4-32.3c7.7-20.7,23.7-35.7,46.4-37.3c1.6-0.1,1.6-2.6,0-2.5
				c-17.5,1.2-32.3,9.8-41.7,24.6c-7.3,11.4-11.1,25-12.8,38.3c-0.4,3-0.7,6.1-0.8,9.2c0,0.7,0.6,1.3,1.3,1.3c24.6,0,49.2,0,73.8,0
				c0.7,0,1.2-0.6,1.3-1.3c0.1-11.1,12.7-11.9,21.2-11.3c1.5,0.1,6.2-0.1,7.5,1c-0.2-0.2,0.2,2.8,0.2,3c0.1,2-0.3,3.9-1.2,5.7
				c-0.8,1.4-1.9,2.8-3.3,3.7c-0.8,0.6-0.8,1.6,0,2.2c11.2,8.4,31.1,17.2,44.6,9.3c10.8-6.3,8.4-22.2,4.9-32.2
				c-5.8-16.7-15.2-34.6-29.4-45.7c-4.7-3.6-11.3-7.9-17.6-7.8c-6.6,0.1-13.4,1.8-20.1,2.2c-5.3,0.3-10.7,0.4-16,0
				c-3.3-0.2-9-1-11.3-1.9C148.3,141.3,147,143.5,148.5,144.1z"/>
		</g>
	</g>
	<path class="st9" d="M171.8,44.1c0,0-10.2,31.6,28.2,45.1c0,0,14.3-44.4-24.5-48.7c0,0-20.6-9.7-35.6,5.8
		c-15,15.5,2.6,36.4,2.6,36.4s1.2-9.6,5.1-17.7c4.9-10.1,13.9-19.2,26.7-18.4L171.8,44.1z"/>
	<g>
		<path class="st6" d="M175.4,225.7H87.2c-4.6,0-8.3-3.7-8.3-8.3v-58c0-4.6,3.7-8.3,8.3-8.3h88.2c4.6,0,8.3,3.7,8.3,8.3v58
			C183.7,221.9,180,225.7,175.4,225.7z"/>
		<g>
			<path class="st9" d="M175.4,224.4c-22.2,0-44.3,0-66.5,0c-5.3,0-10.5,0-15.8,0c-2.7,0-6.5,0.5-9.1-0.8c-5-2.5-3.9-9.3-3.9-13.9
				c0-6.5,0-12.9,0-19.4c0-10.2-0.9-20.8,0-31c0.6-6.8,5.9-7.1,11-7.1c4.8,0,9.6,0,14.4,0c14.3,0,28.5,0,42.8,0c8.8,0,18-0.7,26.8,0
				c7.7,0.6,7.4,6.8,7.4,12.4c0,7.1,0,14.1,0,21.2c0,7.6,0,15.2,0,22.8C182.4,214.6,183.9,223.7,175.4,224.4c-1.6,0.1-1.6,2.6,0,2.5
				c6.5-0.5,9.5-5.2,9.6-11.3c0.1-5.9,0-11.7,0-17.6c0-12.7,0.5-25.5,0-38.2c-0.4-11.5-11.5-10.1-19.6-10.1c-15.1,0-30.2,0-45.3,0
				c-10.7,0-21.5-0.4-32.3,0c-12.4,0.4-10.1,14-10.1,22.6c0,14.2,0,28.3,0,42.5c0,5,1.2,9.8,6.6,11.6c2.9,0.9,6.5,0.5,9.4,0.5
				c27.3,0,54.5,0,81.8,0C177,226.9,177,224.4,175.4,224.4z"/>
		</g>
	</g>
	<g>
		<g>
			<path class="st9" d="M199.6,97.5c-1.9,12.5-17.5,16.1-27.8,16.2c-1.6,0-1.6,2.5,0,2.5c11.4-0.2,28.2-4.4,30.2-18.1
				C202.2,96.6,199.8,95.9,199.6,97.5L199.6,97.5z"/>
		</g>
	</g>
	<g>
		<ellipse class="st6" cx="201.7" cy="95" rx="11.9" ry="14.1"/>
		<g>
			<path class="st9" d="M188.6,95c0.3,7.3,4.9,15.3,13.1,15.3c8,0,13.1-8,13.1-15.3c0-7.3-5.1-15.3-13.1-15.3
				C193.5,79.7,188.9,87.6,188.6,95c-0.1,1.6,2.4,1.6,2.5,0c0.3-6,3.8-12.8,10.6-12.8c6.6,0,10.6,6.8,10.6,12.8
				c0,5.7-3.5,11.9-9.6,12.7c-7.3,0.9-11.4-6.4-11.6-12.7C191,93.4,188.5,93.4,188.6,95z"/>
		</g>
	</g>
	<ellipse class="st9" cx="171.8" cy="115" rx="3.7" ry="3.1"/>
	<path class="st9" d="M166.7,89c0,1.9,1.2,3.4,2.6,3.4c1.4,0,2.6-1.5,2.6-3.4c0-1.9-1.2-3.4-2.6-3.4C167.8,85.5,166.7,87.1,166.7,89
		z"/>
	<path class="st9" d="M147.5,89c0,1.9,1.2,3.4,2.6,3.4c1.4,0,2.6-1.5,2.6-3.4c0-1.9-1.2-3.4-2.6-3.4C148.7,85.5,147.5,87.1,147.5,89
		z"/>
	<path class="st9" d="M140.7,76.4c0.4,2,2.6,0.4,6.4-0.3c3.8-0.7,7.7-0.3,7.3-2.4c-0.4-2-3.8-3.1-7.6-2.3
		C143,72.2,140.3,74.4,140.7,76.4z"/>
	<path class="st9" d="M164.5,73.6c-0.2,2,2.3,1.2,6.2,1.7c3.8,0.5,7.4,2,7.7,0c0.2-2-2.7-4.1-6.5-4.5
		C168,70.2,164.7,71.5,164.5,73.6z"/>
	<g>
		<g>
			<path class="st9" d="M156.5,97.1c-1.3-0.6-2.8-1.5-2.4-3.3c0.2-0.9,1.5-2.1,2.1-2.9c1.9-2.9,2.6-6.1,2.5-9.5c0-1.6-2.5-1.6-2.5,0
				c0,2.9-0.5,5.5-2,8c-0.8,1.3-2,2.4-2.6,3.8c-1.1,2.8,1.3,5,3.6,6.1C156.7,100,158,97.8,156.5,97.1L156.5,97.1z"/>
		</g>
	</g>
	<path class="st10" d="M156,88.8c0-6-4.9-10.8-10.8-10.8s-10.8,4.9-10.8,10.8s4.9,10.8,10.8,10.8c3,0,5.7-1.2,7.7-3.2"/>
	<circle class="st10" cx="171.8" cy="88.8" r="10.8"/>
	<path class="st10" d="M155.4,85.1c0,0,0.8-0.8,6.1,0"/>
	<line class="st10" x1="182.6" y1="89.8" x2="190.5" y2="90.2"/>
	<path class="st9" d="M183.7,119.1c0,0-8.6,12.4-25.8,9l-0.4-5.6C157.5,122.6,173.8,125.7,183.7,119.1z"/>
	
		<ellipse transform="matrix(0.7071 -0.7071 0.7071 0.7071 -94.014 147.6986)" class="st9" cx="131.3" cy="187.3" rx="6.8" ry="6.8"/>
	<g>
		<path class="st6" d="M188.8,44.4c0,0,9.8,9.4,10.8,37.9l9.6,1c0,0,1.6-25.2-9.3-34.5C199.9,48.7,192.9,42.7,188.8,44.4z"/>
		<g>
			<path class="st9" d="M187.9,45.2c2.1,2,3.5,5,4.7,7.6c4.1,9.2,5.4,19.5,5.8,29.4c0,0.7,0.6,1.2,1.3,1.3c3.2,0.3,6.4,0.6,9.6,1
				c0.7,0.1,1.2-0.6,1.3-1.3c0.5-8.1-0.3-16.8-2.9-24.5c-2.4-7-10.1-18-19.1-15.6c-1.6,0.4-0.9,2.8,0.7,2.4c3.9-1,8.8,2.7,11.4,5.5
				c3.4,3.8,5.1,9,6.1,13.9c1.3,6,1.7,12.3,1.3,18.3c0.4-0.4,0.8-0.8,1.3-1.3c-3.2-0.3-6.4-0.6-9.6-1c0.4,0.4,0.8,0.8,1.3,1.3
				c-0.4-10.1-1.8-20.5-5.8-29.9c-1.3-3.1-2.9-6.5-5.4-8.9C188.5,42.3,186.7,44.1,187.9,45.2z"/>
		</g>
	</g>
	<g>
		<ellipse class="st6" cx="204.7" cy="95" rx="11.9" ry="14.1"/>
		<g>
			<path class="st9" d="M191.5,95c0.3,7.3,4.9,15.3,13.1,15.3c8,0,13.1-8,13.1-15.3c0-7.3-5.1-15.3-13.1-15.3
				C196.4,79.7,191.8,87.6,191.5,95c-0.1,1.6,2.4,1.6,2.5,0c0.3-6,3.8-12.8,10.6-12.8c6.6,0,10.6,6.8,10.6,12.8
				c0,5.7-3.5,11.9-9.6,12.7c-7.3,0.9-11.4-6.4-11.6-12.7C194,93.4,191.5,93.4,191.5,95z"/>
		</g>
	</g>
	<path class="st11" d="M146.2,132.1c0,0,5.5-1.5,11.3-1.4v6.1C157.5,136.8,148.5,135.3,146.2,132.1z"/>
	<path class="st11" d="M200.8,132.1c0,0-11.9-1.5-17.7-1.4v6.1C183.1,136.8,198.5,135.3,200.8,132.1z"/>
	<g>
		<g>
			<path class="st9" d="M182.4,119.4c0,6.5,0,12.9,0,19.4c0,1.6,2.5,1.6,2.5,0c0-6.5,0-12.9,0-19.4
				C184.9,117.8,182.4,117.8,182.4,119.4L182.4,119.4z"/>
		</g>
	</g>
	<g>
		<g>
			<path class="st9" d="M156.2,122.6c0,5.4,0,10.9,0,16.3c0,1.6,2.5,1.6,2.5,0c0-5.4,0-10.9,0-16.3C158.7,121,156.2,121,156.2,122.6
				L156.2,122.6z"/>
		</g>
	</g>
	<path class="st12" d="M146.2,143.8c0,0,19.5,10.7,54.6,0v-11.7c0,0-32.4,9.8-54.6,0V143.8z"/>
	<g>
		<g>
			<path class="st9" d="M194.9,215.6c-2.7,2.7-6.8,2.5-10,0.8c-1.4-0.8-2.7,1.4-1.3,2.2c4.2,2.3,9.5,2.4,13-1.2
				C197.8,216.3,196.1,214.5,194.9,215.6L194.9,215.6z"/>
		</g>
	</g>
	<g>
		<g>
			<path class="st9" d="M199.6,203.6c8.5-2.7,18.4-1.8,26.9,0c1.6,0.3,2.2-2.1,0.7-2.4c-9-1.9-19.3-2.9-28.2,0
				C197.4,201.7,198.1,204.1,199.6,203.6L199.6,203.6z"/>
		</g>
	</g>
	<g>
		<g>
			<path class="st9" d="M214.8,200.8c-1-11.7-3.7-23.8-8.8-34.5c-0.7-1.4-2.9-0.2-2.2,1.3c4.9,10.2,7.5,21.9,8.5,33.2
				C212.4,202.4,214.9,202.4,214.8,200.8L214.8,200.8z"/>
		</g>
	</g>
	<g>
		<g>
			<path class="st9" d="M145.5,144.9c16.3,8.8,39,5,55.6,0.1c0.5-0.2,0.9-0.6,0.9-1.2c0-3.9,0-7.8,0-11.7c0-0.8-0.8-1.4-1.6-1.2
				c-16.9,5.1-37.4,7-53.9,0c-0.8-0.3-1.6,0.5-1.6,1.2c0,3.9,0,7.8,0,11.7c0,1.6,2.5,1.6,2.5,0c0-3.9,0-7.8,0-11.7
				c-0.5,0.4-1.1,0.8-1.6,1.2c16.9,7.1,38,5.2,55.3,0c-0.5-0.4-1.1-0.8-1.6-1.2c0,1.8,0,3.6,0,5.4c0,1.4,0,2.8,0,4.1
				c0,0.3,0.1,1,0,1.3c-0.7,1.5,0.6-0.3-0.5,0.5c-0.1,0.1-2.7,0.3-3.2,0.5c-1.5,0.4-2.9,0.7-4.4,1.1c-2.2,0.5-4.4,0.9-6.7,1.3
				c-4.7,0.7-9.4,1.1-14.2,1.1c-7.7,0-16.8-0.8-23.8-4.6C145.4,142,144.1,144.2,145.5,144.9z"/>
		</g>
	</g>
	<path class="st9" d="M156.8,111.5c0,0.5,0.7,0.8,1.5,0.8c0.8,0,1.5-0.4,1.5-0.8s-0.7-0.4-1.5-0.4
		C157.5,111.1,156.8,111,156.8,111.5z"/>
	<g>
		<circle class="st13" cx="271.5" cy="92.8" r="19.6"/>
		<path class="st14" d="M283.9,77.6c2.7,3.3,4.4,7.7,4.4,12.3c0,10.9-8.8,19.6-19.6,19.6c-4.6,0-9-1.7-12.3-4.4
			c3.6,4.5,9.1,7.2,15.2,7.2c10.9,0,19.6-8.8,19.6-19.6C291.1,86.7,288.3,81.1,283.9,77.6z"/>
		<path class="st15" d="M282.6,98.8c-1.6,4.6-5.9,7.9-11,7.9c-5.1,0-9.5-3.3-11-7.9c-0.4-1.2,0.6-2.5,1.9-2.5h18.4
			C282,96.3,282.9,97.5,282.6,98.8z"/>
		<path class="st6" d="M279.9,96.3v1.5c0,0.8-0.7,1.6-1.6,1.6h-13.6c-0.8,0-1.6-0.7-1.6-1.6v-1.5H279.9z"/>
		<g>
			<g>
				<path class="st15" d="M269.2,88.1c0-1.4-1.1-2.5-2.5-2.5s-2.5,1.1-2.5,2.5c0,1.4,1.1,2.5,2.5,2.5S269.2,89.5,269.2,88.1z"/>
			</g>
			<g>
				<path class="st15" d="M278.1,88.1c0-1.4-1.1-2.5-2.5-2.5c-1.4,0-2.5,1.1-2.5,2.5c0,1.4,1.1,2.5,2.5,2.5
					C277,90.6,278.1,89.5,278.1,88.1z"/>
			</g>
		</g>
		<path class="st16" d="M273.1,92.8c0-0.6-0.8-0.6-1.9-0.6s-1.9,0-1.9,0.6c0,0.6,0.8,1.1,1.9,1.1C272.3,93.9,273.1,93.5,273.1,92.8z
			"/>
	</g>
	<g>
		<g>
			<path class="st17" d="M264.4,214l0.8,11.3c0,1.8,2.5,3.2,5.6,3.2s5.6-1.4,5.6-3.2l0.8-11.3H264.4z"/>
		</g>
		<g>
			<g>
				<path class="st17" d="M277.4,214c0,1.9-2.9,3.6-6.5,3.6s-6.5-1.6-6.5-3.6c0-1.9,2.9-3.6,6.5-3.6
					C274.5,210.3,277.4,211.9,277.4,214z"/>
			</g>
		</g>
		<g>
			<path class="st18" d="M249.2,169.8c1.4,0.6,4.9,0.6,4.9,0.6s-0.7-2.3-0.8-2.4c-0.7-1.6-3.2-4.3-5.1-4c-1.4,0.2-2.2,1.6-1.9,3
				C246.6,168.2,248,169.2,249.2,169.8z"/>
			<path class="st18" d="M250.4,179.8c1.5,0.2,4.5-0.6,4.8-0.7c0.5,1.8,1.1,3.4,1.9,5.2c0.5,1,0.9,1.9,1.4,3
				c-0.3-0.4-0.6-0.7-0.6-0.8c-1.1-1.3-4.2-3.2-6-2.5c-1.3,0.6-1.7,2.1-1,3.3c0.6,1.2,2.3,1.9,3.6,2c1.3,0.2,4-0.6,4.7-0.7
				c0.2,0.4,0.4,0.7,0.6,1.1c0.9,1.8,1.8,3.5,2.6,5.4c0.3,0.6,0.6,1.2,0.8,1.9c-0.3-0.4-0.5-0.6-0.5-0.7c-1.1-1.3-4.2-3.2-6-2.5
				c-1.3,0.6-1.7,2.1-1,3.3c0.6,1.2,2.3,1.9,3.6,2c1.3,0.2,3.7-0.5,4.5-0.6c0.3,0.6,0.6,1.3,0.7,1.9c0.2,0.5,0.3,0.8,0.5,1.3
				c0.1,0.5,0.3,0.9,0.4,1.3c0.2,0.8,0.5,1.8,0.6,2.5c0.1,0.6,0.3,1.1,0.4,1.7c-0.3-0.6-0.8-1.9-0.9-1.9c-0.9-1.5-3.6-3.8-5.6-3.3
				c-1.4,0.4-2,1.9-1.5,3.2c0.5,1.3,1.9,2.1,3.2,2.5c1.4,0.5,4.5,0,4.8,0c0.2,0.9,0.4,1.9,0.5,2.7c0.4,1.9,0.6,3.5,0.7,5h1.3
				c-0.2-1.5-0.6-3.2-0.9-5.2c-0.2-0.9-0.4-1.9-0.6-3c0.2-0.1,1.6-0.6,2.7-1.3c1,1.1,3.6,2.4,4,2.5c-0.4,0.8-0.7,1.7-1,2.5
				c-0.7,1.7-1.4,3.2-2,4.4h1.4c0.6-1.1,1.1-2.4,1.7-3.9c0.4-0.8,0.7-1.9,1.1-2.8c0.4,0.1,3.4,0.7,4.8,0.4c1.3-0.3,2.9-1,3.4-2.3
				c0.6-1.2,0.1-2.8-1.3-3.2c-1.9-0.6-4.7,1.5-5.8,3c-0.1,0.1-0.6,1.1-1,1.7c0.2-0.4,0.3-0.7,0.5-1.2c0.3-0.8,0.6-1.7,0.8-2.5
				c0.1-0.5,0.3-0.8,0.4-1.3c0.2-0.5,0.3-0.9,0.4-1.4c0.3-1.1,0.5-2.1,0.6-3.2c0.7,0.3,3.2,1.1,4.5,1c1.3-0.1,3-0.6,3.7-1.8
				c0.7-1.1,0.5-2.8-0.7-3.4c-1.8-0.9-4.9,0.7-6.1,2c-0.1,0.1-0.8,1.1-1.3,1.7c0.1-0.6,0.2-1.3,0.3-2c0.3-1.9,0.5-4,0.6-5.9
				c0.1-0.6,0.1-1.2,0.2-1.9c0.3,0.1,3.2,1.2,4.7,1.1c1.3-0.1,3-0.6,3.7-1.8c0.7-1.1,0.5-2.8-0.7-3.4c-1.8-0.9-4.9,0.7-6.1,2
				c-0.1,0.1-1.2,1.5-1.5,1.9c0.2-1.3,0.3-2.7,0.5-4c0.3-1.8,0.6-3.5,1.1-5.2c0.1,0,3.2,1.2,4.7,1.1c1.3-0.1,3-0.6,3.7-1.8
				c0.7-1.1,0.5-2.8-0.7-3.4c-1.8-0.9-4.9,0.7-6.1,2c-0.1,0.1-1.3,1.7-1.6,1.9c0-0.1,0.1-0.2,0.1-0.3c0.6-1.8,1.3-3.4,2-4.9
				c0.5-0.8,0.9-1.7,1.4-2.5c0.6,0.3,3.2,1.6,4.5,1.6c1.3,0.1,3-0.3,3.9-1.3c0.8-1,0.7-2.7-0.4-3.4c-1.7-1.1-5,0.2-6.3,1.3
				c-0.1,0.1-0.7,0.7-1.3,1.3c0.2-0.4,0.5-0.7,0.6-1c0.8-1.2,1.7-2.3,2.4-3.3c0.5-0.6,0.8-1,1.2-1.5c0.6,0,3.5-0.1,4.7-0.6
				c1.2-0.6,2.6-1.6,2.9-3c0.3-1.3-0.6-2.7-1.9-2.9c-1.9-0.2-4.3,2.5-5,4.1c-0.1,0.2-0.7,2.4-0.7,2.4l0,0c-0.4,0.5-0.7,0.8-1.2,1.4
				c-0.7,0.9-1.7,2-2.5,3.2c-0.8,1.2-1.8,2.6-2.6,4.1c-0.8,1.5-1.6,3.2-2.2,4.9c0,0,0,0,0,0.1c0-0.6,0-2.2,0-2.3
				c-0.2-1.8-1.7-5-3.6-5.4c-1.4-0.3-2.6,0.8-2.7,2.2c-0.1,1.4,0.9,2.8,1.9,3.7c1.1,1,4.2,1.9,4.5,2c-0.6,1.8-0.9,3.5-1.3,5.4
				c-0.2,1-0.4,2.1-0.5,3.2c0-0.5,0-0.9,0-1c-0.2-1.8-1.7-5-3.6-5.4c-1.4-0.3-2.6,0.8-2.7,2.2c-0.1,1.4,0.9,2.8,1.9,3.7
				c1,0.9,3.6,1.8,4.3,1.9c-0.1,0.4-0.1,0.8-0.2,1.2c-0.3,1.9-0.5,4-0.7,5.9c-0.1,0.6-0.2,1.4-0.4,2c0-0.5,0-0.8,0-0.8
				c-0.2-1.8-1.7-5-3.6-5.4c-1.4-0.3-2.6,0.8-2.7,2.2s0.9,2.8,1.9,3.7c0.9,0.8,3.3,1.7,4.2,1.9c-0.2,0.6-0.3,1.4-0.5,2
				c-0.1,0.5-0.2,0.8-0.4,1.3c-0.2,0.5-0.3,0.8-0.5,1.3c-0.3,0.8-0.6,1.7-0.9,2.4c-0.2,0.6-0.5,1.1-0.6,1.6c0.1-0.6,0.3-2,0.3-2.1
				c0-1.2-0.4-3.1-1.2-4.5c0-0.2,0-0.4,0-0.6c-0.2-1.4-1.5-2.3-2.9-1.9c-1.9,0.5-3.2,3.9-3.2,5.7c0,0.1,0.1,1.2,0.1,1.9
				c-0.1-0.4-0.2-0.8-0.3-1.2c-0.2-0.8-0.5-1.7-0.6-2.6c-0.1-0.5-0.3-0.8-0.4-1.3s-0.3-0.9-0.5-1.3c-0.4-1-0.8-2-1.3-3.1
				c0.7-0.2,3.3-0.8,4.5-1.7c1-0.8,2.1-2.1,2.1-3.5c0-1.4-1.1-2.6-2.5-2.4c-1.9,0.2-3.7,3.3-4,5.1c0,0.1-0.1,1.4-0.2,2
				c-0.3-0.6-0.6-1.2-0.8-1.9c-0.8-1.8-1.9-3.5-2.8-5.3c-0.3-0.6-0.6-1.1-0.8-1.7c0.3-0.1,3.4-0.7,4.5-1.7c1-0.8,2.1-2.1,2.1-3.5
				c0-1.4-1.1-2.6-2.5-2.4c-1.9,0.2-3.7,3.3-4,5.1c0,0.1-0.2,1.9-0.2,2.4c-0.6-1.2-1.2-2.4-1.8-3.6c-0.7-1.7-1.4-3.3-1.9-5
				c0.1,0,3.4-0.7,4.6-1.7c1-0.8,2.1-2.1,2.1-3.5c0-1.4-1.1-2.6-2.5-2.4c-1.9,0.2-3.7,3.3-4,5.1c0,0.1-0.2,2.1-0.2,2.5
				c0-0.1-0.1-0.2-0.1-0.3c-0.6-1.8-0.8-3.6-1-5.3c-0.1-1-0.2-1.9-0.2-2.9c0.6-0.1,3.4-0.5,4.6-1.2c1.1-0.6,2.4-1.9,2.5-3.2
				c0.2-1.4-0.8-2.7-2.2-2.7c-1.9,0-4,3-4.5,4.6c0,0.1-0.2,1-0.4,1.8c0-0.4,0-0.8,0-1.2c0-1.5,0.1-2.9,0.2-4.1
				c0.1-0.6,0.1-1.3,0.2-1.9c0.6-0.4,2.9-2,3.5-3.2s1.2-2.8,0.7-4.1c-0.5-1.3-1.9-1.9-3.2-1.3c-1.8,0.9-2.2,4.5-1.9,6.2
				c0,0.2,0.6,2.5,0.7,2.4l0,0c-0.1,0.6-0.2,1.1-0.2,1.9c-0.1,1.2-0.3,2.6-0.3,4.1c0,1.5,0,3.2,0.1,4.8c0.2,1.8,0.4,3.5,0.9,5.4
				c0,0,0,0,0,0.1c-0.3-0.5-1.2-1.9-1.3-1.9c-1.1-1.3-4.2-3.2-6-2.5c-1.3,0.6-1.7,2.1-1,3.3C247.5,179.1,249.1,179.6,250.4,179.8z"
				/>
			<path class="st18" d="M284.4,170.5c0,0,0.6-2.3,0.6-2.5c0.3-1.8-0.3-5.3-2.1-6.1c-1.3-0.6-2.7,0.1-3.2,1.4c-0.5,1.3,0.1,3,0.8,4
				C281.4,168.7,284.4,170.5,284.4,170.5z"/>
		</g>
		<path class="st18" d="M276,214c0,1.6-2.3,2.9-5.1,2.9s-5.1-1.3-5.1-2.9c0-1.6,2.3-2.9,5.1-2.9C273.7,211.1,276,212.4,276,214z"/>
	</g>
</g>
</svg>
