<?xml version="1.0" encoding="utf-8"?>
<!-- Generator: Adobe Illustrator 23.0.0, SVG Export Plug-In . SVG Version: 6.00 Build 0)  -->
<svg version="1.1" id="Layer_1" xmlns="http://www.w3.org/2000/svg" xmlns:xlink="http://www.w3.org/1999/xlink" x="0px" y="0px"
	 width="367.1px" height="320px" viewBox="0 0 367.1 320" style="enable-background:new 0 0 367.1 320;" xml:space="preserve">
<style type="text/css">
	.st0{fill:#F5F5F5;}
	.st1{fill:#263238;}
	.st2{fill:#B65B52;}
	.st3{fill:#B55B52;}
	.st4{opacity:0.2;enable-background:new    ;}
	.st5{fill:#FFFFFF;}
	.st6{fill:#407BFF;}
	.st7{opacity:0.4;enable-background:new    ;}
	.st8{fill:#A02724;}
	.st9{opacity:0.6;fill:#FFFFFF;enable-background:new    ;}
	.st10{opacity:0.3;fill:#407BFF;enable-background:new    ;}
	.st11{opacity:0.9;fill:#407BFF;enable-background:new    ;}
	.st12{opacity:0.7;fill:#407BFF;enable-background:new    ;}
	.st13{opacity:0.5;fill:#407BFF;enable-background:new    ;}
	.st14{font-family:'Bauhaus93';}
	.st15{font-size:11.3591px;}
</style>
<g id="freepik--Shadow--inject-6">
	<ellipse id="freepik--path--inject-6" class="st0" cx="183.5" cy="302.4" rx="183.5" ry="10.7"/>
</g>
<g id="freepik--Character--inject-6">
	<path class="st1" d="M141.8,29.2c-3.1-6.4-9.9-4.3-9.3-9.7s-4.9-13.1-13.3-8.9s-3.7,14.1-3.7,14.1S111,42,118.7,47.4
		c6.2,4.3,19.5,0.5,17.5-5.6S144.8,35.6,141.8,29.2z"/>
	<path class="st1" d="M136.7,46.6c-0.1,0-0.2-0.1-0.2-0.2c-2.2-5.8,0.8-8.6,3.4-11.1c2.1-1.9,3.9-3.6,2.9-6.5
		c-1.1-3.3-3.5-4.2-5.5-4.9c-2.1-0.7-3.9-1.4-3.7-4.3c0.1-3.3-1.6-6.4-4.3-8.3c-1.8-1.2-4.9-2.1-9,0.2c-0.1,0.1-0.3,0-0.3-0.1
		c-0.1-0.1,0-0.3,0.1-0.3c3.4-1.9,6.7-1.9,9.5-0.2c2.9,1.9,4.7,5.2,4.6,8.7c-0.2,2.5,1.4,3.1,3.4,3.8s4.6,1.7,5.8,5.2
		c1.1,3.1-0.9,5-3,7c-2.6,2.5-5.4,5.1-3.3,10.6C137,46.4,136.9,46.5,136.7,46.6L136.7,46.6z"/>
	<path class="st2" d="M98.1,74.1c-0.3,0.5-0.4,0.7-0.6,1.1l-0.6,0.9c-0.4,0.6-0.9,1.2-1.3,1.8c-0.9,1.2-1.9,2.3-2.9,3.3
		c-2.1,2.2-4.5,4-7.1,5.6c-2.7,1.6-5.6,2.7-8.7,3.2c-1.6,0.3-3.1,0.4-4.7,0.3c-0.8,0-1.6-0.1-2.3-0.2l-0.6-0.1h-0.3l-0.4-0.1
		c-0.5-0.1-1-0.2-1.5-0.4c-1.6-0.6-3.2-1.5-4.5-2.6c-1.2-0.9-2.3-2-3.3-3.1c-1.9-2.1-3.6-4.3-5.1-6.6c-1.5-2.3-2.8-4.6-4.1-7
		s-2.4-4.7-3.4-7.3l3.9-2c1.4,2.1,2.8,4.3,4.3,6.3c1.5,2.1,3,4.1,4.6,6.1c1.5,1.9,3.2,3.7,5,5.4c0.8,0.8,1.7,1.5,2.6,2.1
		c0.7,0.5,1.5,0.9,2.3,1.1c0.1,0,0.3,0.1,0.4,0.1h0.4h0.4c0.5,0,1.1,0,1.6,0c1,0,2.1-0.2,3.1-0.4c2.1-0.5,4-1.3,5.8-2.5
		c1.9-1.2,3.6-2.6,5.1-4.3c0.8-0.8,1.5-1.7,2.2-2.6c0.4-0.4,0.7-0.9,1-1.4l0.5-0.7l0.4-0.6L98.1,74.1z"/>
	<path class="st1" d="M98.3,64.4c-8,0.4-9.9,5.5-9.9,5.5l9.2,14c0,0,3.9-4.2,5-8.9C103.6,70.1,103.7,64.2,98.3,64.4z"/>
	<path class="st3" d="M51,62.4l-0.4-7.6l-7.4,5.5c0,0,1.8,3.9,5.3,4.7L51,62.4z"/>
	<polygon class="st3" points="45.9,48.9 41.2,53.9 43.2,60.3 50.5,54.8 	"/>
	<polygon class="st3" points="140.3,288.1 131.7,288.9 127.3,268.9 135.9,268.1 	"/>
	<polygon class="st3" points="219.3,262.2 212.7,268 197.5,254.7 204.1,248.9 	"/>
	<path class="st1" d="M209.3,265.9l5.9-7.9c0.2-0.3,0.6-0.4,0.9-0.2l6.8,3.7c0.7,0.4,0.9,1.2,0.5,1.9c0,0.1-0.1,0.1-0.1,0.2
		c-2.1,2.7-3.3,3.9-5.9,7.4c-1.6,2.1-4.9,7.1-7.1,10.1s-5.2,0.9-4.6-0.4c3-6.4,3.1-10.1,3-13.1C208.8,266.9,209,266.4,209.3,265.9z"
		/>
	<path class="st1" d="M130.6,286.3H141c0.4,0,0.7,0.3,0.8,0.6l2.3,8.2c0.2,0.7-0.2,1.4-0.9,1.6c-0.1,0-0.2,0.1-0.4,0
		c-3.6-0.1-5.4-0.3-9.9-0.3c-2.8,0-10,0.3-13.9,0.3s-4.6-3.8-3-4.2c7-1.6,11-3.7,13.3-5.7C129.6,286.5,130.1,286.3,130.6,286.3z"/>
	<polygon class="st4" points="127.3,268.9 129.6,279.2 138.4,279.2 135.9,268.1 	"/>
	<polygon class="st4" points="204.1,249 197.5,254.7 205.3,261.6 212,255.8 	"/>
	<path class="st1" d="M92.2,66.1c0,0-3.7,2.5,17,49.6l34.3-9.5c-4.1-13.7-6.3-22.3-6.9-52.6c-5.1,0.3-10.1,1-15.1,2.1
		c-5.3,1.1-10.5,2.5-15.6,4.3C99.4,62.4,92.2,66.1,92.2,66.1z"/>
	<path class="st3" d="M115.6,38.7c0.3,5.3,1.6,14.7,6,17c0,0,3.4,15.8-9.1,31.9C99.2,76,106,60,106,60c5.3-2.8,4.1-7,2.1-10.6
		L115.6,38.7z"/>
	<path class="st0" d="M121.6,55.7c0,0,3.4,15.8-9.1,31.9C99.2,76,106,60,106,60s1.9,4.9,5.9,6.6C114.4,65.1,119.5,60.5,121.6,55.7z"
		/>
	<path class="st5" d="M112.9,65.9c0,0,7.1-2.6,12.3-0.7c0.5-2.8,1.1-8.8-1.1-10.4c-0.9,0-1.8,0.3-2.5,0.8L112.9,65.9z"/>
	<path class="st5" d="M110.9,66c0,0-4.6-1.1-9.2,3.4c-0.3-2.8-0.1-7.6,2.2-9.2c0.8-0.4,1.7-0.7,2.6-0.8
		C107.5,61.9,109,64.1,110.9,66z"/>
	<path class="st4" d="M114.7,39.8c0.7,3,0.7,6.1,0.1,9.1c-0.4,2.1-2.7,3.6-5.2,4.5c-0.3-1.4-0.8-2.8-1.6-4L114.7,39.8z"/>
	<path class="st1" d="M100.6,20.8c-7.4,10.2-0.1,23.7,6.3,23.4c4.7-0.2,10.9-6.2,10.1-11.6C115.8,24.6,104.3,15.7,100.6,20.8z"/>
	<path class="st3" d="M122.9,32.5c-1.8,8.5-2.3,12.1-7.3,16c-7.4,5.8-17.5,2-18.3-6.8c-0.7-7.9,2.3-20.5,11.1-22.9
		c6.1-1.8,12.5,1.8,14.3,7.9C123.3,28.6,123.4,30.6,122.9,32.5z"/>
	<path class="st6" d="M115.6,19.3c-0.4,2.5,4.7,9.5,10.4,9.5c2.8,0,3.6-4.2,0.9-8.1C123.4,15.7,116.1,15.8,115.6,19.3z"/>
	<path class="st1" d="M104,21c-0.6,4.3,8.5,15.8,18.3,15.7c4.8-0.1,5.7-11,2.1-15.1C117.5,13.5,104.8,14.7,104,21z"/>
	<path class="st1" d="M119.5,34.2c-3,0.6-1.2,4.6,0.6,6.7C122.3,39.3,124.2,33.2,119.5,34.2z"/>
	<path class="st1" d="M111.6,24.6c-7.1,3-14.1-4.6-16.2-8c5.1,0.7,15.8-6.3,20.2,2.6C118.7,25.4,111.6,24.6,111.6,24.6z"/>
	<path class="st1" d="M110,24c-4.8,4.2-12.4,0.2-14.9-1.9c4.3-0.8,10.8-9.2,16.7-3.4C115.9,22.8,110,24,110,24z"/>
	<path class="st3" d="M125,38.9c-0.4,1.6-1.5,3-2.9,3.9c-1.9,1.2-3.4-0.4-3.4-2.5c0.1-1.9,1.1-4.7,3.3-5.1c1.5-0.2,2.9,0.9,3.1,2.4
		C125.2,38.1,125.1,38.5,125,38.9z"/>
	<path class="st6" d="M109.2,115.6c0,0-3.5,68.9,1.4,94.9c5.1,27.1,14.8,65.7,14.8,65.7l16.3-0.8c0,0-6.1-49-7.6-70
		c-2-28.8,0.2-96.8,0.2-96.8L109.2,115.6z"/>
	<path class="st7" d="M109.2,115.6c0,0-3.5,68.9,1.4,94.9c5.1,27.1,14.8,65.7,14.8,65.7l16.3-0.8c0,0-6.1-49-7.6-70
		c-2-28.8,0.2-96.8,0.2-96.8L109.2,115.6z"/>
	<path class="st4" d="M133.7,134.6c-2.4-6.4-4.5-9.9-5-3.5c-0.9,13.4,1.1,28.8,4.6,36.4C133.4,156.1,133.5,144.5,133.7,134.6z"/>
	<polygon class="st6" points="142.8,276.2 124.2,277.1 122,270.3 142.2,268.7 	"/>
	<path class="st6" d="M118.3,113.1c0,0,19.6,56.3,33,87.3c10.8,25.1,50.3,60.2,50.3,60.2l9.3-7.8c0,0-28.2-40-35.7-57
		c-23.9-54.5-16.8-77.6-31.7-89.7L118.3,113.1z"/>
	<path class="st7" d="M118.3,113.1c0,0,19.6,56.3,33,87.3c10.8,25.1,50.3,60.2,50.3,60.2l9.3-7.8c0,0-28.2-40-35.7-57
		c-23.9-54.5-16.8-77.6-31.7-89.7L118.3,113.1z"/>
	<polygon class="st6" points="211.7,252.8 201.3,261.8 196.2,258.1 208.5,247.8 	"/>
	<path class="st6" d="M143.5,104l2.3,2.6c0.2,0.2,0,0.5-0.4,0.6l-36,10c-0.3,0.1-0.6,0-0.7-0.2l-1.1-3c-0.1-0.2,0.2-0.5,0.5-0.6
		l34.7-9.6C143.1,103.8,143.4,103.9,143.5,104z"/>
	<path class="st6" d="M139.9,109.2l0.9-0.3c0.2,0,0.3-0.2,0.3-0.3l-1.4-3.8c0-0.1-0.2-0.2-0.4-0.1l-0.9,0.3
		c-0.2,0.1-0.3,0.2-0.3,0.3l1.4,3.8C139.5,109.2,139.7,109.2,139.9,109.2z"/>
	<path class="st7" d="M139.9,109.2l0.9-0.3c0.2,0,0.3-0.2,0.3-0.3l-1.4-3.8c0-0.1-0.2-0.2-0.4-0.1l-0.9,0.3
		c-0.2,0.1-0.3,0.2-0.3,0.3l1.4,3.8C139.5,109.2,139.7,109.2,139.9,109.2z"/>
	<path class="st6" d="M112.1,116.8l0.9-0.3c0.2,0,0.3-0.2,0.3-0.3l-1.4-3.8c0-0.1-0.2-0.2-0.4-0.1l-0.9,0.3
		c-0.2,0.1-0.3,0.2-0.3,0.3l1.4,3.8C111.8,116.8,112,116.9,112.1,116.8z"/>
	<path class="st7" d="M112.1,116.8l0.9-0.3c0.2,0,0.3-0.2,0.3-0.3l-1.4-3.8c0-0.1-0.2-0.2-0.4-0.1l-0.9,0.3
		c-0.2,0.1-0.3,0.2-0.3,0.3l1.4,3.8C111.8,116.8,112,116.9,112.1,116.8z"/>
	<path class="st6" d="M126,113l0.9-0.3c0.2,0,0.3-0.2,0.3-0.3l-1.4-3.8c0-0.1-0.2-0.2-0.4-0.1l-0.9,0.3c-0.2,0.1-0.3,0.2-0.3,0.3
		l1.4,3.8C125.6,113,125.8,113,126,113z"/>
	<path class="st7" d="M126,113l0.9-0.3c0.2,0,0.3-0.2,0.3-0.3l-1.4-3.8c0-0.1-0.2-0.2-0.4-0.1l-0.9,0.3c-0.2,0.1-0.3,0.2-0.3,0.3
		l1.4,3.8C125.6,113,125.8,113,126,113z"/>
	<ellipse transform="matrix(0.1594 -0.9872 0.9872 0.1594 58.6713 135.3517)" class="st1" cx="108.8" cy="33.2" rx="1.3" ry="0.8"/>
	<path class="st1" d="M101.8,32.4c-0.1,0.7-0.5,1.2-1,1.2c-0.5,0-0.7-0.7-0.6-1.4c0.1-0.7,0.6-1.2,1-1.2
		C101.6,31.1,101.9,31.7,101.8,32.4z"/>
	<path class="st1" d="M101.3,31.1l-1.6-0.7C99.7,30.4,100.4,31.8,101.3,31.1z"/>
	<path class="st8" d="M103.7,33.8c-0.9,1.5-1.9,2.9-3.1,4.2c0.7,0.6,1.5,0.9,2.4,0.8L103.7,33.8z"/>
	<path class="st1" d="M104.9,41.8c-0.1,0-0.1-0.1-0.1-0.2c0-0.1,0.1-0.2,0.2-0.2c0,0,0,0,0,0c1.8,0.2,3.5-0.4,4.8-1.6
		c0.1-0.1,0.2-0.1,0.3,0c0.1,0.1,0.1,0.2,0,0.3c0,0,0,0,0,0C108.8,41.4,106.9,42.1,104.9,41.8C105,41.8,104.9,41.8,104.9,41.8z"/>
	<path class="st1" d="M112.9,30.1c-0.1,0-0.1-0.1-0.1-0.1c-0.5-0.9-1.4-1.6-2.4-1.7c-0.2,0-0.4-0.2-0.4-0.4c0,0,0,0,0,0
		c0-0.2,0.2-0.4,0.4-0.4c1.3,0.2,2.5,0.9,3.1,2.1c0.1,0.2,0,0.5-0.2,0.6C113.2,30.2,113.1,30.1,112.9,30.1L112.9,30.1z"/>
	<path class="st1" d="M98.6,28.3L98.6,28.3c-0.2-0.2-0.2-0.4-0.1-0.6c0.9-1,2.2-1.6,3.5-1.5c0.2,0,0.4,0.2,0.3,0.4c0,0,0,0,0,0
		c0,0.2-0.2,0.4-0.5,0.4c-1.1-0.1-2.1,0.4-2.7,1.2C99,28.4,98.7,28.4,98.6,28.3z"/>
	<path class="st2" d="M139.7,58.2c1.7,2,3.6,4.1,5.5,6c1.9,1.9,3.8,3.9,5.8,5.7c3.9,3.7,8.1,6.9,12.7,9.6c1.1,0.6,2.2,1.2,3.4,1.7
		c0.9,0.4,1.9,0.7,3,0.8c2.3,0.2,4.6,0,6.7-0.8c2.4-0.8,4.7-2,6.9-3.4c1.1-0.7,2.2-1.5,3.3-2.3s2.1-1.7,3.1-2.5l3.4,2.8
		c-0.9,1.2-1.9,2.4-2.9,3.5c-1,1.1-2.1,2.2-3.3,3.1c-2.4,2.1-5,3.8-7.8,5.1c-3.1,1.5-6.5,2.2-9.9,2.1c-1.8-0.1-3.6-0.4-5.3-1
		c-1.5-0.5-2.9-1.2-4.3-1.9c-5.3-2.8-10.3-6.3-14.7-10.3c-2.2-2-4.4-4-6.4-6.1c-1-1.1-2-2.1-3-3.2s-1.9-2.2-2.9-3.4L139.7,58.2z"/>
	<path class="st3" d="M191.3,77.6l5-4l-6.3-4.3c0,0-2.9,3.8-2.1,7.3L191.3,77.6z"/>
	<polygon class="st3" points="200.3,69.1 195.6,65.4 190,69.3 196.3,73.6 	"/>
	<path class="st1" d="M136.6,53.5c3.7,0.1,5.9,3.8,5.9,3.8l-6.3,14.9c0,0-5.7-3.5-5.4-8.3C131.2,58.9,132.4,53.4,136.6,53.5z"/>
	<path class="st6" d="M206.5,270.2c-0.1-0.1-0.2-0.1-0.3-0.2c-0.2-0.2-0.3-0.4-0.2-0.7c0.3-1.1,3.2-2.2,3.6-2.3c0.1,0,0.2,0,0.2,0
		c0,0.1,0,0.2,0,0.2c-0.5,1.1-1.4,2.9-2.5,3.1C207.1,270.4,206.8,270.3,206.5,270.2z M209.3,267.5c-1.2,0.5-2.7,1.3-2.8,1.9
		c0,0.1,0,0.2,0.1,0.3c0.2,0.2,0.4,0.3,0.7,0.3C207.9,269.8,208.6,268.9,209.3,267.5L209.3,267.5z"/>
	<path class="st6" d="M206,267.3c-0.1,0-0.1-0.1-0.2-0.2c-0.2-0.3-0.2-0.7,0-0.9c0.2-0.3,0.4-0.5,0.8-0.5c1.2-0.3,3.2,1.2,3.3,1.3
		c0.1,0,0.1,0.1,0.1,0.2c0,0.1-0.1,0.1-0.1,0.2C209,267.7,206.8,267.8,206,267.3z M209.2,267c-0.8-0.6-1.7-0.9-2.6-0.9
		c-0.2,0-0.4,0.2-0.5,0.3c-0.1,0.2-0.1,0.3,0,0.4C206.5,267.3,208.2,267.3,209.2,267L209.2,267z"/>
	<path class="st6" d="M126,288c-0.7,0.1-1.4-0.1-2-0.5c-0.3-0.2-0.5-0.6-0.5-1c0-0.2,0.1-0.4,0.3-0.6c0.9-0.6,4.5,0.9,5.2,1.3
		c0.1,0,0.2,0.2,0.1,0.3c0,0.1-0.1,0.1-0.1,0.1C127.9,287.9,127,288,126,288z M124.4,286.3c-0.1,0-0.3,0-0.4,0.1
		c-0.1,0-0.1,0.1-0.1,0.2c0,0.3,0.1,0.5,0.4,0.7c0.6,0.5,2,0.5,3.9,0.2C126.9,286.8,125.7,286.4,124.4,286.3L124.4,286.3z"/>
	<path class="st6" d="M128.8,287.7L128.8,287.7c-1.2-0.5-3.6-2.4-3.5-3.3c0-0.2,0.2-0.5,0.7-0.5c2-0.2,2.9,3.5,3,3.7
		c0,0.1,0,0.2-0.1,0.2C128.9,287.7,128.9,287.7,128.8,287.7z M126.3,284.2h-0.1c-0.2,0-0.3,0.1-0.3,0.2c-0.1,0.6,1.5,2.1,2.7,2.7
		C128.2,286.2,127.5,284.2,126.3,284.2L126.3,284.2z"/>
	<path class="st1" d="M109.2,32.1l-1.6-0.7C107.6,31.4,108.3,32.8,109.2,32.1z"/>
</g>
<g id="freepik--Smartphone--inject-6">
	<path class="st6" d="M303.9,296.2H195c-7.6,0-13.8-6.2-13.8-13.8V21.5c0-7.6,6.2-13.8,13.8-13.8h108.9c7.6,0,13.8,6.2,13.8,13.8
		v260.8C317.7,290,311.5,296.2,303.9,296.2z"/>
	<path class="st6" d="M183.8,95.1H182c-1.4,0-2.6-1.2-2.6-2.6V58.9c0-1.4,1.2-2.6,2.6-2.6h1.9c1.4,0,2.6,1.2,2.6,2.6v33.5
		C186.4,93.9,185.3,95.1,183.8,95.1z"/>
	<path class="st6" d="M320.2,75.2H318c-1.4,0-2.5-1.1-2.5-2.5v-14c0-1.4,1.1-2.5,2.5-2.5h2.1c1.4,0,2.5,1.1,2.5,2.5v14
		C322.6,74.1,321.5,75.2,320.2,75.2z"/>
	<path class="st6" d="M320.2,100.2H318c-1.4,0-2.5-1.1-2.5-2.5v-14c0-1.4,1.1-2.5,2.5-2.5h2.1c1.4,0,2.5,1.1,2.5,2.5v14
		C322.6,99.1,321.5,100.2,320.2,100.2z"/>
	<path class="st6" d="M306.8,296.2H197.8c-7.6,0-13.8-6.2-13.8-13.8V21.5c0-7.6,6.2-13.8,13.8-13.8h108.9c7.6,0,13.8,6.2,13.8,13.8
		v260.8C320.6,290,314.4,296.2,306.8,296.2z"/>
	<path class="st9" d="M306.8,296.2H197.8c-7.6,0-13.8-6.2-13.8-13.8V21.5c0-7.6,6.2-13.8,13.8-13.8h108.9c7.6,0,13.8,6.2,13.8,13.8
		v260.8C320.6,290,314.4,296.2,306.8,296.2z"/>
	<circle class="st10" cx="252.3" cy="278.6" r="7.8"/>
	<rect x="187.3" y="29.7" class="st5" width="130" height="235.4"/>
	<path class="st6" d="M232.7,72.4h39.3c2.2,0,4,1.8,4,4v39.3c0,2.2-1.8,4-4,4h-39.3c-2.2,0-4-1.8-4-4V76.4
		C228.7,74.2,230.5,72.4,232.7,72.4z"/>
	<rect x="236.3" y="72.4" class="st5" width="0.9" height="17"/>
	<path class="st5" d="M236.8,92.3c-0.9,0-1.7-0.8-1.7-1.7c0-0.9,0.8-1.7,1.7-1.7c0.9,0,1.7,0.8,1.7,1.7l0,0
		C238.5,91.6,237.7,92.3,236.8,92.3z M236.8,89.9c-0.4,0-0.7,0.3-0.7,0.7c0,0.4,0.3,0.7,0.7,0.7c0.4,0,0.7-0.3,0.7-0.7l0,0
		C237.6,90.2,237.2,89.9,236.8,89.9L236.8,89.9L236.8,89.9z"/>
	<path class="st5" d="M241.8,105.5c-0.9,0-1.7-0.7-1.7-1.7c0-0.9,0.7-1.7,1.7-1.7c0.9,0,1.7,0.7,1.7,1.7c0,0,0,0,0,0
		C243.5,104.8,242.8,105.5,241.8,105.5z M241.8,103.1c-0.4,0-0.7,0.3-0.7,0.7c0,0.4,0.3,0.7,0.7,0.7c0.4,0,0.7-0.3,0.7-0.7
		c0,0,0,0,0,0C242.6,103.4,242.3,103.1,241.8,103.1C241.8,103.1,241.8,103.1,241.8,103.1L241.8,103.1z"/>
	<path class="st5" d="M262.6,116.4c-0.9,0-1.7-0.8-1.7-1.7s0.8-1.7,1.7-1.7c0.9,0,1.7,0.8,1.7,1.7l0,0
		C264.3,115.6,263.5,116.4,262.6,116.4z M262.6,114c-0.4,0-0.7,0.3-0.7,0.7c0,0.4,0.3,0.7,0.7,0.7c0,0,0,0,0,0
		c0.4,0,0.7-0.3,0.7-0.7C263.3,114.3,263,114,262.6,114z"/>
	<path class="st5" d="M247,95.8c-0.9,0-1.7-0.8-1.7-1.7c0-0.9,0.8-1.7,1.7-1.7c0.9,0,1.7,0.8,1.7,1.7l0,0
		C248.7,95,248,95.8,247,95.8z M247,93.4c-0.4,0-0.7,0.3-0.7,0.7c0,0.4,0.3,0.7,0.7,0.7c0.4,0,0.7-0.3,0.7-0.7
		C247.8,93.7,247.4,93.4,247,93.4C247,93.4,247,93.4,247,93.4z"/>
	<polygon class="st5" points="237.1,119.6 236.2,119.6 236.2,97.9 241.4,92.7 241.4,72.4 242.3,72.4 242.3,93.1 237.1,98.3 	"/>
	<polygon class="st5" points="247.5,119.6 246.6,119.6 246.6,104.9 251.7,99.7 251.7,72.4 252.7,72.4 252.7,100.1 247.5,105.2 	"/>
	<polygon class="st5" points="263.1,113.5 262.1,113.5 262.1,94.8 256.9,89.6 256.9,72.4 257.9,72.4 257.9,89.2 263.1,94.4 	"/>
	<path class="st5" d="M267.8,100.3c-0.9,0-1.7-0.8-1.7-1.7c0-0.9,0.8-1.7,1.7-1.7c0.9,0,1.7,0.8,1.7,1.7l0,0
		C269.5,99.5,268.7,100.3,267.8,100.3z M267.8,97.8c-0.4,0-0.7,0.3-0.7,0.7c0,0.4,0.3,0.7,0.7,0.7c0,0,0,0,0,0
		c0.4,0,0.7-0.3,0.7-0.7C268.5,98.2,268.2,97.8,267.8,97.8C267.8,97.8,267.8,97.8,267.8,97.8z"/>
	<polygon class="st5" points="268.2,97.4 267.3,97.4 267.3,94.8 262.1,89.6 262.1,72.4 263.1,72.4 263.1,89.2 268.2,94.4 	"/>
	<rect x="246.6" y="72.4" class="st5" width="0.9" height="20.5"/>
	<rect x="241.4" y="105.1" class="st5" width="0.9" height="14.6"/>
	<path class="st5" d="M252.2,109.8c-0.9,0-1.7-0.8-1.7-1.7s0.8-1.7,1.7-1.7c0.9,0,1.7,0.8,1.7,1.7l0,0
		C253.9,109.1,253.1,109.8,252.2,109.8z M252.2,107.4c-0.4,0-0.7,0.3-0.7,0.7c0,0.4,0.3,0.7,0.7,0.7c0.4,0,0.7-0.3,0.7-0.7
		C252.9,107.8,252.6,107.4,252.2,107.4z"/>
	<rect x="251.7" y="109.4" class="st5" width="0.9" height="10.3"/>
	<path class="st5" d="M267.8,106.1c-0.9,0-1.7-0.8-1.7-1.7s0.8-1.7,1.7-1.7c0.9,0,1.7,0.8,1.7,1.7l0,0
		C269.5,105.3,268.7,106.1,267.8,106.1z M267.8,103.7c-0.4,0-0.7,0.3-0.7,0.7c0,0.4,0.3,0.7,0.7,0.7c0,0,0,0,0,0
		c0.4,0,0.7-0.3,0.7-0.7C268.5,104,268.2,103.7,267.8,103.7z"/>
	<rect x="267.3" y="105.6" class="st5" width="0.9" height="14"/>
	<polygon class="st5" points="263,86.8 262.3,86.1 267.3,81.1 267.3,72.4 268.2,72.4 268.2,81.5 	"/>
	<path class="st5" d="M257.4,100.8c-0.9,0-1.7-0.8-1.7-1.7c0-0.9,0.8-1.7,1.7-1.7c0.9,0,1.7,0.8,1.7,1.7c0,0,0,0,0,0
		C259.1,100,258.3,100.8,257.4,100.8z M257.4,98.3c-0.4,0-0.7,0.3-0.7,0.7c0,0.4,0.3,0.7,0.7,0.7c0,0,0,0,0,0c0.4,0,0.7-0.3,0.7-0.7
		C258.1,98.7,257.8,98.3,257.4,98.3z"/>
	<rect x="256.9" y="100.3" class="st5" width="0.9" height="19.4"/>
	<path class="st6" d="M295.6,189.6H209v-16.5h86.6V189.6z M209.9,188.7h84.7v-14.6h-84.7V188.7z"/>
	<rect x="211.8" y="176.4" class="st6" width="5.1" height="10"/>
	<rect x="218.5" y="176.4" class="st6" width="5.1" height="10"/>
	<rect x="225.2" y="176.4" class="st6" width="5.1" height="10"/>
	<rect x="231.9" y="176.4" class="st11" width="5.1" height="10"/>
	<rect x="238.7" y="176.4" class="st12" width="5.1" height="10"/>
	<rect x="245.4" y="176.4" class="st13" width="5.1" height="10"/>
	<rect x="252.1" y="176.4" class="st10" width="5.1" height="10"/>
	<rect x="250.8" y="208.4" class="st6" width="2.8" height="17.3"/>
	<polygon class="st6" points="259.2,220 257.9,218.9 252.2,225 246.5,218.9 245.2,220 252.2,227.5 	"/>
	<rect x="240.6" y="230.1" class="st6" width="23.2" height="2.8"/>
	<path class="st10" d="M270.6,20c0-1.4-1.1-2.6-2.6-2.6c-1.4,0-2.6,1.1-2.6,2.6s1.1,2.6,2.6,2.6c0,0,0,0,0,0
		C269.5,22.5,270.6,21.4,270.6,20L270.6,20z"/>
	<path class="st10" d="M237.9,17.4h21.3c1.4,0,2.6,1.1,2.6,2.6v0c0,1.4-1.1,2.6-2.6,2.6h-21.3c-1.4,0-2.6-1.1-2.6-2.6v0
		C235.4,18.5,236.5,17.4,237.9,17.4z"/>
	<text transform="matrix(1 0 0 1 223.806 162.9389)" class="st6 st14 st15">DOWNLOAD</text>
</g>
</svg>
