<?xml version="1.0" encoding="utf-8"?>
<!-- Generator: Adobe Illustrator 23.0.0, SVG Export Plug-In . SVG Version: 6.00 Build 0)  -->
<svg version="1.1" id="Layer_1" xmlns="http://www.w3.org/2000/svg" xmlns:xlink="http://www.w3.org/1999/xlink" x="0px" y="0px"
	 width="88.2px" height="133.5px" viewBox="0 0 88.2 133.5" style="enable-background:new 0 0 88.2 133.5;" xml:space="preserve">
<style type="text/css">
	.st0{fill:#FED681;}
	.st1{fill:#FED892;}
	.st2{fill:#FE6464;}
	.st3{fill:#D1555A;}
	.st4{fill:#EAB35F;}
	.st5{fill:#FEC26E;}
	.st6{fill:#FEFEFE;}
	.st7{fill:#FEE59F;}
</style>
<g>
	<path class="st0" d="M15.9,83.8c-1.5-1.7-3.4-3.2-4.9-4.9C5.5,72.5,2,65.3,0.6,57.1C0,53.2-0.2,49.3,0.2,45.4
		c0.4-4.6,1.6-9,3.4-13.2c2.1-4.9,5-9.3,8.7-13.1C16.8,14.5,22,11,28,8.7c3.7-1.4,7.5-2.4,11.4-2.8c0.1,0,0.3-0.1,0.4-0.2
		c0.4,0,0.8,0,1.2,0c0.5,0.2,1,0.2,1.5,0c1,0,2,0,3,0c0.5,0.2,1,0.2,1.5,0c0.4,0,0.8,0,1.2,0c1.1,0.5,2.2,0.5,3.4,0.6
		C59.3,7.6,66,10.7,72,15.5c4.8,3.9,8.6,8.5,11.4,14c1.9,3.7,3.3,7.6,4.1,11.7c1.7,9.3,0.7,18.4-3.3,27c-2.3,5-5.6,9.4-9.5,13.3
		c-0.8,0.8-1.7,1.3-2.3,2.2c-0.9,1.3-2.3,2-3.6,2.9c-6.2,4.1-13,6.5-20.3,7.2C48.2,94,48,94,47.8,94c-0.8-0.5-1.6-0.3-2.4-0.2
		c-1.6,0.1-3.3-0.3-4.9,0.2c-4.7-0.5-9.4-1.5-13.7-3.4c-3.6-1.6-7-3.5-10.1-6C16.3,84.4,16.1,84.2,15.9,83.8z"/>
	<path class="st1" d="M42.6,5.7c-0.5,0.4-1,0.4-1.5,0C41.6,5.7,42.1,5.7,42.6,5.7z"/>
	<path class="st1" d="M47.1,5.7c-0.5,0.4-1,0.4-1.5,0C46.1,5.7,46.6,5.7,47.1,5.7z"/>
	<path class="st2" d="M39,98c-3.9,11.2-7.7,22.5-11.6,33.7c-0.7,2.1-2.7,2.4-4.1,0.6c-2.1-2.7-4.2-5.4-6.2-8.1
		c-0.6-0.8-1.1-0.9-2-0.7c-3.2,0.9-6.4,1.7-9.6,2.6c-1,0.3-2,0.3-2.8-0.6c-0.7-0.8-0.6-1.7-0.3-2.7c3.8-11.1,7.6-22.2,11.5-33.3
		c0.2-0.6,0.4-1.2,0.6-1.7c6.9,5.3,14.7,8.6,23.3,9.7C38.4,97.5,38.8,97.6,39,98z"/>
	<path class="st2" d="M73.6,87.8c3.9,11.3,7.8,22.7,11.7,34c0.2,0.5,0.3,0.9,0.5,1.4c0.6,2-0.8,3.5-2.9,3c-2-0.5-3.9-1-5.9-1.6
		c-1.3-0.4-2.7-0.7-4-1.1c-0.9-0.3-1.4-0.1-2,0.7c-2,2.8-4.1,5.4-6.2,8.1c-1,1.3-2.1,1.5-3.2,0.7c-0.6-0.4-0.8-1.1-1-1.7
		c-3.5-10.2-7-20.4-10.5-30.6c-0.3-0.9-0.6-1.8-0.9-2.7c0.3-0.5,0.8-0.5,1.3-0.6c8-1.1,15.3-4,21.9-8.8C72.8,88.4,73.1,88,73.6,87.8
		z"/>
	<path class="st3" d="M39,98c-2.8-0.5-5.5-0.9-8.2-1.7c-5.7-1.6-10.8-4.3-15.6-7.6c-0.3-0.2-0.6-0.5-0.6-0.9c0.4-1.3,0.9-2.7,1.3-4
		c2.1,1.3,4,2.9,6.2,4.1c4.8,2.7,9.9,4.5,15.3,5.4c1,0.2,2.2-0.2,3,0.7C40,95.4,39.5,96.7,39,98z"/>
	<path class="st3" d="M73.6,87.8C73.2,89,72,89.4,71.1,90c-4.8,3.2-10.1,5.6-15.7,6.9c-2,0.5-4.1,0.8-6.2,1.2
		c-0.5-1.3-0.9-2.7-1.4-4c0.7-0.9,1.8-0.5,2.6-0.7c7.8-1.1,14.8-4.2,21-9.1c0.3-0.2,0.6-0.3,0.9-0.5C72.7,85.1,73.2,86.5,73.6,87.8z
		"/>
	<path class="st4" d="M81.6,49.8c-0.1,20.8-16.7,37.4-37.5,37.4c-20.8,0-37.5-16.6-37.4-37.6c0-21,16.8-37.4,37.4-37.4
		C64.9,12.3,81.5,28.9,81.6,49.8z"/>
	<path class="st5" d="M69.1,27.7c0.1,1,1,1.5,1.5,2.3c3.4,4.7,5.6,9.8,6.3,15.6c1.2,9.6-1.4,18.2-7.5,25.6
		c-3.7,4.4-8.3,7.6-13.7,9.6c-3.9,1.4-8,2.2-12.2,2.1c-6-0.2-11.6-1.8-16.7-5c-4.9-3-8.7-7-11.5-12c-2-3.5-3.3-7.2-3.8-11.2
		c-0.7-4.9-0.4-9.8,1.1-14.5c2.2-7,6.3-12.8,12.3-17.2c4.6-3.3,9.8-5.3,15.4-6c7.2-0.9,14.1,0.5,20.4,4.2c0.2,0.1,0.5,0.2,0.7,0.3
		c0.2,0.9-0.5,1.4-0.9,2C59,25,57.3,26.3,54.9,27c3.8,1.4,6.3,3.7,7.5,7.6c0.7-1.7,1.3-3.2,2.4-4.4c1-1.1,2.1-1.8,3.4-2.5
		C68.5,27.6,68.8,27.4,69.1,27.7z"/>
	<path class="st6" d="M69.1,27.7c-1.7,0.6-3,1.6-4.2,3c-1.1,1.3-1.7,2.9-2.5,4.5c-1.2-4.2-3.9-6.8-8.1-8.1c3-1.1,5.6-2.7,7-5.7
		c0.6-0.7,0.5-1.7,1.3-2.6c1.1,4.3,3.8,7,8,8.1C70.1,27.5,69.5,27.4,69.1,27.7z"/>
	<path class="st4" d="M44.3,23.4c3.2,0,5.4,1.8,6.8,5.1c1,2.4,2.3,4.7,3.4,7.1c0.2,0.4,0.5,0.6,1,0.6c3.2,0.5,6.5,0.9,9.7,1.5
		c2.5,0.5,4.3,2.1,5.1,4.6c0.8,2.7,0.2,5-1.8,6.9c-1.9,1.9-3.7,3.8-5.7,5.6c-1.2,1.1-1.3,2.1-1,3.6c0.6,2.6,1.1,5.2,1.4,7.8
		c0.7,5.5-4.8,9.6-10.1,7c-2.5-1.2-4.9-2.6-7.4-3.9c-0.8-0.5-1.5-0.7-2.5-0.1c-2.4,1.4-5,2.6-7.5,3.9c-2.7,1.4-5.4,1.3-7.7-0.6
		c-2.1-1.7-3-4.1-2.4-6.9c0.6-2.8,1-5.7,1.5-8.5c0.1-0.7-0.2-1-0.6-1.4c-2.1-2.1-4.1-4.1-6.2-6.2c-2.1-2.1-3-4.5-1.9-7.4
		c1-2.9,3.2-4.2,6.1-4.6c2.8-0.4,5.5-0.9,8.3-1.2c0.7-0.1,1-0.4,1.3-1c1.3-2.6,2.6-5.3,4-7.9C39.3,24.7,41.4,23.4,44.3,23.4z"/>
	<path class="st0" d="M57.8,68.8c-0.9,0.8-1.8,0.9-3,0.3c-3.1-1.7-6.3-3.3-9.5-5c-0.8-0.5-1.5-0.5-2.4,0.1c-3.2,1.8-6.4,3.5-9.7,5.1
		c-1.7,0.9-3.6-0.4-3.5-2.3c0.2-2.3,0.7-4.6,1.1-6.8c0.3-1.6,0.6-3.3,0.9-4.9c0.1-0.7-0.3-1.1-0.7-1.5c-2.7-2.4-5.2-4.9-7.7-7.4
		c-0.8-0.7-1.3-1.5-0.9-2.6c0.4-1.2,1.2-1.7,2.4-1.8c3.4-0.5,6.8-1,10.2-1.5c1.1-0.1,1.8-0.5,2.3-1.6c0.3-0.8,0.7-1.7,1.3-2.4
		c0.9,0.1,1,0.9,1.3,1.5c3.9,6.7,7.9,13.4,11.8,20.1c1.9,3.2,3.7,6.4,5.6,9.6C57.6,67.9,58,68.3,57.8,68.8z"/>
	<path class="st7" d="M57.8,68.8c-3-5-5.9-10-8.9-15c-3.5-5.8-6.9-11.7-10.4-17.5c0.3-1.6,1.3-2.9,2-4.4c0.4-0.9,0.9-1.9,1.4-2.8
		c0.5-0.9,1.3-1.6,2.4-1.5c1,0.1,1.8,0.7,2.3,1.7c1.1,2.4,2.3,4.7,3.5,7c0.1,0.3,0.3,0.5,0.5,0.7c0.2,0.7-0.4,0.8-0.8,1.1
		c-0.6,0.5-1.3,0.8-2.1,1.2c2.9,1.8,2.9,1.8,4.5,4.5c0.4-0.8,0.7-1.5,1.3-2.1c0.5-0.5,0.9-1.3,1.8-1.1c2.8,0.4,5.6,0.7,8.4,1.2
		c2.5,0.5,3.2,2.7,1.4,4.5c-1.3,1.4-2.8,2.7-4.2,4c-1,1-2,2.1-3.1,3c-1.1,0.9-1.1,1.9-0.9,3.1c0.7,3.4,1.2,6.9,1.8,10.4
		C58.9,67.7,58.5,68.4,57.8,68.8z"/>
	<path class="st6" d="M55.3,40.6c-1.7,0.8-2.3,2.4-3.1,4.3c-0.9-2.8-2.5-4.5-5.2-5.4c1.4-0.9,2.8-1.2,3.6-2.4c0.8-0.7,1-1.8,1.7-2.9
		c0.9,2.6,2.5,4.3,5,5.1C56.8,40.1,55.7,39.9,55.3,40.6z"/>
</g>
</svg>
