<?xml version="1.0" encoding="utf-8"?>
<!-- Generator: Adobe Illustrator 23.0.0, SVG Export Plug-In . SVG Version: 6.00 Build 0)  -->
<svg version="1.1" id="Layer_1" xmlns="http://www.w3.org/2000/svg" xmlns:xlink="http://www.w3.org/1999/xlink" x="0px" y="0px"
	 width="417.8px" height="377.6px" viewBox="0 0 417.8 377.6" style="enable-background:new 0 0 417.8 377.6;" xml:space="preserve"
	>
<style type="text/css">
	.st0{fill:#FE4F19;}
	.st1{fill:#5C546A;}
	.st2{fill:#E5BD93;}
	.st3{fill:#E2001E;}
	.st4{fill:#7E5C62;}
	.st5{fill:#986459;}
	.st6{fill:#4BB8EB;}
	.st7{fill:#FEEAB6;}
	.st8{fill:#4BB8EA;}
</style>
<g>
	<path class="st0" d="M8.3,189.5c3.2-4.8,6.5-9.7,9.6-14.6c11.6-18.2,23.2-36.4,34.7-54.6c2.3-3.6,5-5.3,9.4-5.3
		c37.6,0.1,75.2,0.1,112.8,0.1c1.1,0,2.1,0.1,3.2,0.1c0.1,2.4-1.9,3.4-3.2,4.8c-22.8,22.9-45.7,45.8-68.6,68.6
		c-2.6,2.6-5.5,5.1-7.1,8.6c-0.5,1.1-1.5,1.9-2.8,2.1c-6.3,0.6-12.5,0.3-18.8,0.3c-16.5,0-33,0.2-49.5-0.1c-4.1,0-8.2,0-12.3,0
		c-3.7,0-6.5-1.3-7.4-5.2C8.3,192.7,8.3,191.1,8.3,189.5z"/>
	<path class="st1" d="M398.7,364.6c4,0,8,0,12,0.1c4.4,0.1,7.2,2.7,7.2,6.5c-0.1,3.7-2.9,6.2-7.3,6.3c-0.8,0-1.6,0-2.4,0
		c-130.1,0-260.1,0-390.2,0.1c-4,0-7.3-0.7-9.7-4.1c0-1.6,0-3.2,0-4.8c1.4-4,4.4-5.2,8.3-5.2c3.8,0.1,7.6,0,11.5,0
		c8.7-0.3,17.3-0.1,26-0.1c36.4,0,72.8,0,109.1,0c1.6,0,3.2-0.1,4.8,0.1c4.4-0.1,8.7-0.1,13.1,0c8.5-0.1,16.9-0.2,25.4,0
		c4.3-0.1,8.7-0.1,13,0c8.5-0.1,16.9-0.2,25.4,0c4.4-0.1,8.8-0.1,13.1,0c6.5-0.3,13-0.1,19.5-0.1c38,0,76.1,0,114.1,0
		C394.1,363.5,396.6,363,398.7,364.6z"/>
	<path class="st2" d="M27.4,364.6c0-55.4,0-110.7,0-166.1c23.5,0,47-0.1,70.5-0.1c6,6.8,7.4,6.8,14.1,0.1
		c31.7-31.7,63.5-63.5,95.2-95.2c1-1,2.1-2.1,3.1-3.1c1.9-1.9,3.7-1.9,5.5,0c0.9,0.9,1.9,1.9,2.8,2.8c31.8,31.8,63.7,63.7,95.5,95.5
		c1.4,1.4,2.7,2.9,4.5,3.9c3.1,1.8,5.5,1.3,7.6-1.7c1-1.4,1.6-3.1,3.6-3.4c7.9-0.6,15.7-0.2,23.6-0.3c13.1-0.1,26.1,0,39.2,0
		c2.1,0,4.3-0.4,6,1.4c0,23.2-0.1,46.3-0.1,69.5c0,32.2,0,64.5,0,96.7c-25.8,0-51.7,0.1-77.5,0.1c-21.1,0-42.1,0-63.2,0
		c-1.8-1.9-1.3-4.3-1.3-6.5c0-24.5,0-49.1,0-73.6c0-13.7-7.4-21-21-21c-15.3,0-30.7,0-46,0c-12.5,0-20.1,7.7-20.2,20.2
		c0,24.8,0,49.6,0,74.4c0,2.2,0.5,4.6-1.3,6.5C121.2,364.7,74.3,364.6,27.4,364.6z"/>
	<path class="st0" d="M398.7,198.4c-23.5,0-46.9,0-70.4-0.1c-7.8-10.7-18-19.2-27.2-28.6c-16.5-16.8-33.3-33.4-49.9-50.1
		c-1.3-1.3-3.1-2.2-2.9-4.5c16.7,0,33.3-0.1,50-0.1c22.1,0,44.3,0,66.4-0.1c3.7,0,6.3,1.3,8.3,4.4c14.2,22.5,28.5,45,42.9,67.4
		c1.7,2.6,2.8,5.2,1,8.2c-1.6,2.7-4.3,3.3-7.3,3.2C405.9,198.3,402.3,198.4,398.7,198.4z"/>
	<path class="st3" d="M248.2,115.3c3.3,3.4,6.6,6.9,10,10.3c21.9,21.9,43.8,43.9,65.8,65.8c2,2,3.7,4.2,4.2,7
		c-2.4,7.3-7.1,8.4-12.7,2.7c-33.1-33-66.2-66.1-99.1-99.2c-2.7-2.7-4-2.7-6.8,0c-32.7,32.9-65.5,65.6-98.2,98.4
		c-0.4,0.4-0.7,0.8-1.1,1.1c-5.4,5.3-10.1,4.1-12.5-3c0.6-2.9,2.2-5,4.2-7c24.3-24.3,48.6-48.5,72.9-72.8c1-1,2-2.1,3-3.2
		c9.9-9.3,19.5-19,28.9-28.8c2.1-5.6,10.4-5.6,12.5,0C228.7,96.3,238.3,106,248.2,115.3z"/>
	<path class="st0" d="M219.6,12.7c18.4,0,36.8,0,55.1,0c3.2,0,6.2,0.2,7.9,3.4c1.8,3.2,0.3,5.9-1.5,8.5c-2.6,3.8-5.1,7.8-7.8,11.6
		c-1.1,1.5-1.1,2.7,0,4.3c2.8,4,5.5,8.2,8.2,12.3c1.6,2.4,2.7,4.9,1.1,7.8c-1.6,2.8-4.1,3.4-7.1,3.4c-18.6,0-37.3,0-55.9,0
		c-1.6-1.4-1.4-3.4-1.4-5.2c-0.1-13.6-0.1-27.2,0-40.8C218.2,16.1,218,14.2,219.6,12.7z"/>
	<path class="st1" d="M219.6,12.7c0,17.1,0,34.1,0,51.2c-0.1,7.5-0.2,15-0.3,22.5c-5.7-4.4-6.8-4.4-12.5,0c0-26.5-0.1-53-0.1-79.5
		c0-4.1,2.7-6.8,6.3-6.9c3.5,0,6.2,2.7,6.4,6.8C219.6,8.7,219.5,10.7,219.6,12.7z"/>
	<path class="st4" d="M168.2,364.7c0-26.8,0.4-53.5-0.1-80.3c-0.2-12.8,8.9-22.7,22.4-22.2c15,0.6,30.1,0.6,45.1,0
		c13.5-0.5,22.6,9.4,22.4,22.2c-0.5,26.8-0.1,53.5-0.1,80.3c-4.3,0-8.6,0-12.9,0c-1.6-1.8-1.2-4-1.2-6.1c0-16.8,0-33.6,0-50.4
		c0-6.1-0.1-6.2-6.3-6.2c-3.6,0-7.2,0-10.8,0c-5.7,0-5.9,0.2-5.9,5.8c0,16.8,0,33.6,0,50.4c0,2.2,0.4,4.6-1.2,6.5
		c-4.3,0-8.6,0-12.9,0c-1.6-1.8-1.2-4-1.2-6.1c0-16.8,0-33.6,0-50.4c0-6.1-0.1-6.2-6.3-6.2c-3.6,0-7.2,0-10.8,0
		c-5.7,0-5.9,0.2-5.9,5.8c0,16.8,0,33.6,0,50.4c0,2.2,0.4,4.6-1.2,6.5C176.8,364.7,172.5,364.7,168.2,364.7z"/>
	<path class="st5" d="M181.1,364.7c0-20,0.1-40-0.1-60c0-3.2,0.9-4.2,4.1-4c5.9,0.2,11.7,0.2,17.6,0c3.1-0.1,4.1,0.8,4.1,4
		c-0.1,20-0.1,40-0.1,60C198.1,364.7,189.6,364.7,181.1,364.7z"/>
	<path class="st5" d="M219.5,364.7c0-19.9,0.1-39.9-0.1-59.8c0-3.4,1-4.3,4.3-4.2c5.7,0.2,11.4,0.2,17.1,0c3.3-0.1,4.3,0.8,4.3,4.2
		c-0.2,19.9-0.1,39.9-0.1,59.8C236.5,364.7,228,364.7,219.5,364.7z"/>
	<path class="st4" d="M213.2,243.1c-24.6,0-44.9-20-44.9-44.5c-0.1-24.8,20.1-45.1,44.8-45c24.5,0,44.7,20.2,44.7,44.7
		C257.9,222.9,237.7,243.1,213.2,243.1z"/>
	<path class="st4" d="M292.7,275.1c-4.9,0-9.9,0.1-14.8,0c-4.6-0.1-7.2-2.6-7.2-7.2c-0.1-9.6-0.2-19.2,0-28.8
		c0.3-12,10.4-21.6,22.3-21.6c11.9,0,22.1,9.6,22.4,21.6c0.2,9.6,0.1,19.2,0.1,28.8c0,4.6-2.6,7.2-7.2,7.2
		C303.1,275.2,297.9,275.1,292.7,275.1z"/>
	<path class="st4" d="M75.2,275.1c-4.9,0-9.8,0.1-14.8,0c-5.1-0.1-7.4-2.3-7.4-7.3c-0.1-9.6-0.1-19.2,0-28.7
		c0.2-11.3,9.4-20.7,20.7-21.5c11.3-0.8,21.7,7.2,23.4,18.5c1.6,10.7,0.6,21.5,0.5,32.3c0,4.6-2.8,6.7-7.7,6.8
		C85.1,275.2,80.2,275.1,75.2,275.1z"/>
	<path class="st4" d="M350.3,275.1c-4.9,0-9.8,0.1-14.8,0c-5-0.1-7.3-2.4-7.3-7.4c-0.1-9.4-0.1-18.9,0-28.3
		c0.2-11.6,9.4-21.1,20.8-21.8c11.4-0.7,21.5,7.2,23.2,18.6c1.6,10.7,0.6,21.5,0.5,32.3c0,4.5-2.8,6.6-7.4,6.6
		C360.4,275.2,355.3,275.1,350.3,275.1z"/>
	<path class="st4" d="M110.6,253c0-4.9-0.1-9.8,0-14.8c0.4-10.9,9.8-20.1,21-20.7c11-0.6,21.6,7.9,23,18.5c1.4,10.5,0.7,21,0.5,31.5
		c-0.1,5.4-2.7,7.5-8.2,7.5c-9.6,0-19.2,0-28.7,0c-5.6,0-7.7-2.2-7.7-7.7C110.5,262.6,110.5,257.8,110.6,253
		C110.5,253,110.6,253,110.6,253z"/>
	<path class="st4" d="M110.7,320c0-6,0-12,0-18c0-5.1,2.6-7.6,7.6-7.6c9.9-0.1,19.7-0.1,29.6,0c5.1,0,7.6,2.6,7.6,7.6
		c0,12,0,24,0,35.9c0,5.1-2.6,7.6-7.6,7.6c-9.9,0.1-19.7,0.1-29.6,0c-5.1,0-7.6-2.6-7.6-7.6C110.6,331.9,110.7,325.9,110.7,320z"/>
	<path class="st4" d="M373.1,319.9c0,6,0,12,0,18c0,5.1-2.6,7.6-7.6,7.6c-9.9,0.1-19.7,0.1-29.6,0c-5.1,0-7.6-2.6-7.6-7.6
		c0-12,0-24,0-35.9c0-5.1,2.6-7.6,7.6-7.6c9.9-0.1,19.7-0.1,29.6,0c5.1,0,7.6,2.6,7.6,7.6C373.1,308,373.1,313.9,373.1,319.9z"/>
	<path class="st4" d="M53,319.5c0-6-0.1-12,0-18c0.1-4.8,2.3-7.2,7.1-7.2c10-0.1,20-0.1,29.9,0c4.9,0,7.6,2.3,7.7,7.2
		c0.2,12.2,0.2,24.5,0,36.7c-0.1,4.9-2.8,7.2-7.7,7.2c-9.8,0.1-19.7,0.1-29.5,0c-5.2,0-7.4-2.3-7.5-7.6
		C52.9,331.8,53,325.7,53,319.5z"/>
	<path class="st4" d="M270.6,319.5c0-6-0.1-12,0-18c0.1-4.8,2.3-7.2,7.1-7.2c10-0.1,20-0.1,29.9,0c4.9,0,7.6,2.3,7.7,7.2
		c0.2,12.2,0.2,24.5,0,36.7c-0.1,4.9-2.8,7.2-7.7,7.2c-10,0.1-20,0.1-29.9,0c-4.7,0-7-2.4-7.1-7.2
		C270.5,332.1,270.6,325.8,270.6,319.5z"/>
	<path class="st6" d="M213.2,287.9c-9.4,0-18.9-0.1-28.3,0.1c-2.9,0.1-3.9-0.6-3.8-3.7c0.2-6.9,2.2-9.1,9-9.1c15.4,0,30.9,0,46.3,0
		c6.9,0,10.4,4.7,8.8,11.3c-0.5,2.1-2,1.4-3.2,1.4C232.3,288,222.7,287.9,213.2,287.9z"/>
	<path class="st7" d="M245,198.7c-0.3,17.6-15.2,32-32.5,31.6c-17.5-0.4-31.7-15.1-31.4-32.3c0.3-17.6,15.2-32,32.5-31.6
		C231.1,166.8,245.3,181.4,245,198.7z"/>
	<path class="st6" d="M292.8,243.1c-1.9,0-3.7,0-5.6,0c-4,0-4.5-0.6-3.5-4.7c1.1-5,5.4-8.4,9.9-8c5.1,0.5,8.8,4.7,9,10
		c0.1,2.1-0.6,2.9-2.7,2.7C297.6,243,295.2,243.1,292.8,243.1z"/>
	<path class="st6" d="M292.7,262.3c-1.9,0-3.7-0.1-5.6,0c-2.6,0.2-3.8-0.4-3.8-3.4c0-3,1.4-3.1,3.7-3.1c4.4,0.1,8.8,0.2,13.2,0
		c2.8-0.1,2.5,1.6,2.5,3.4c0,1.7,0.1,3.2-2.4,3.1C297.8,262.2,295.2,262.3,292.7,262.3z"/>
	<path class="st6" d="M75.4,243.1c-2,0-4-0.2-6,0c-3.5,0.5-4-1.3-3.6-4.2c0.6-5.1,5.4-9.1,10.2-8.5c5.4,0.7,9.5,5.8,9,10.9
		c-0.2,1.7-1.2,1.8-2.4,1.8C80.2,243.1,77.8,243.1,75.4,243.1z"/>
	<path class="st6" d="M75.5,255.9c1.9,0,3.7,0.1,5.6,0c2.3-0.1,4-0.2,4,3.2c0,3.1-1.4,3.4-3.9,3.3c-4.2-0.1-8.5-0.2-12.7,0
		c-2.5,0.1-2.8-1.2-2.7-3.2c0-1.8-0.1-3.5,2.6-3.3C70.7,256.1,73.1,255.9,75.5,255.9z"/>
	<path class="st6" d="M350.4,243.1c-1.7,0-3.4,0-5.2,0c-4.5,0-5-0.7-4.1-5.1c1-4.8,6-8.4,10.6-7.5c5.2,1,9.1,6.2,8.4,10.9
		c-0.2,1.5-1.1,1.6-2.2,1.6C355.5,243.1,353,243.1,350.4,243.1z"/>
	<path class="st6" d="M350.4,262.3c-1.9,0-3.7-0.1-5.6,0c-2.4,0.1-3.9,0-3.9-3.2c0-3.2,1.6-3.3,3.9-3.2c4.2,0.1,8.5,0.2,12.7,0
		c2.6-0.1,2.6,1.4,2.7,3.3c0,1.9-0.1,3.4-2.7,3.2C355.2,262.2,352.8,262.3,350.4,262.3z"/>
	<path class="st6" d="M132.8,243.1c-1.5,0-2.9,0-4.4,0c-5.3,0-6.8-2.5-4.3-7.3c2.1-4.1,6.7-6.2,11-5c4.6,1.3,7.8,6,7.4,10.5
		c-0.1,1.4-0.9,1.8-2.1,1.7C137.9,243.1,135.3,243.1,132.8,243.1z"/>
	<path class="st8" d="M132.7,262.3c-1.9,0-3.7-0.1-5.6,0c-2.3,0.1-4,0.1-4-3.2c0-3.2,1.5-3.3,3.9-3.3c4.2,0.1,8.5,0.2,12.7,0
		c2.6-0.1,2.7,1.3,2.7,3.2c0,1.9,0,3.4-2.6,3.3C137.5,262.2,135.1,262.3,132.7,262.3z"/>
	<path class="st6" d="M132.7,313.5c-1.9,0-3.7-0.1-5.6,0c-2.6,0.3-3.7-0.5-3.7-3.4c0-3.1,1.5-3.1,3.7-3c4.4,0.1,8.8,0.1,13.2,0
		c2.8-0.1,2.4,1.7,2.4,3.4c0.1,1.7,0,3.2-2.4,3C137.7,313.4,135.2,313.5,132.7,313.5z"/>
	<path class="st6" d="M133.1,332.7c-2,0-4-0.1-6,0c-2.6,0.2-3.7-0.4-3.8-3.4c0-3,1.5-3.1,3.7-3.1c4.4,0.1,8.8,0.1,13.2,0
		c2.8-0.1,2.4,1.7,2.4,3.4c0,1.7,0.1,3.2-2.4,3.1C137.9,332.6,135.5,332.7,133.1,332.7z"/>
	<path class="st6" d="M350.6,313.5c-1.9,0-3.8-0.2-5.6,0c-3.5,0.5-4.3-1.1-4-4.3c0.2-1.8,0.9-2.2,2.5-2.2c4.8,0,9.6,0.1,14.4,0
		c2.9-0.1,2.3,1.8,2.4,3.5c0.1,1.8-0.1,3.2-2.5,3C355.4,313.4,353,313.5,350.6,313.5z"/>
	<path class="st6" d="M350.9,326.3c1.9,0,3.7,0.1,5.6,0c2.4-0.2,3.9,0.1,3.9,3.3c0,3.3-1.6,3.2-4,3.2c-4.3-0.1-8.5-0.2-12.8,0
		c-2.7,0.1-2.6-1.4-2.6-3.3c0-1.9,0.1-3.4,2.7-3.2C346.1,326.5,348.5,326.3,350.9,326.3z"/>
	<path class="st6" d="M75.4,307.1c2,0,4,0.1,6,0c2.2-0.1,3.7,0.1,3.7,3.1c0,3-1.2,3.5-3.8,3.4c-4.2-0.2-8.5-0.2-12.7,0
		c-2.4,0.1-2.8-1-2.8-3.1c0-2.1,0.1-3.7,2.9-3.4C70.9,307.3,73.2,307.1,75.4,307.1z"/>
	<path class="st6" d="M75.4,332.7c-2,0-4-0.1-6,0c-2.6,0.2-3.7-0.5-3.7-3.4c0-3,1.5-3.1,3.7-3c4.2,0.1,8.5,0.2,12.7,0
		c2.8-0.1,2.8,1.4,2.9,3.4c0,2.1-0.5,3.2-2.9,3C79.9,332.6,77.6,332.7,75.4,332.7z"/>
	<path class="st6" d="M292.8,313.5c-1.9,0-3.7-0.1-5.6,0c-2.3,0.1-4,0.1-4-3.2c0-3.2,1.5-3.3,3.9-3.3c4.2,0.1,8.5,0.2,12.7,0
		c2.6-0.1,2.7,1.3,2.7,3.2c0,1.9,0,3.5-2.6,3.3C297.6,313.4,295.2,313.5,292.8,313.5z"/>
	<path class="st6" d="M292.7,326.3c2,0,4,0,6,0c2.2-0.1,4-0.3,4.1,3.1c0.1,3.6-1.9,3.4-4.2,3.3c-4-0.1-8-0.1-11.9,0
		c-2.4,0.1-3.2-0.7-3.2-3.1c0-2.6,0.8-3.6,3.4-3.4C288.7,326.5,290.7,326.3,292.7,326.3z"/>
	<path class="st1" d="M203.4,204.7c-3.1,0-6.1,0.1-9.2,0c-4-0.2-6.8-3-6.7-6.5c0.1-3.4,2.7-6,6.6-6.2c3.2-0.2,6.4-0.2,9.6,0
		c2.6,0.2,3.2-0.8,3.1-3.2c-0.2-3.1-0.1-6.1,0-9.2c0.2-4.1,2.8-6.8,6.3-6.8c3.5,0,6.3,2.7,6.4,6.8c0.1,6.1,0.2,12.2,0,18.4
		c-0.1,4.2-2.6,6.5-6.8,6.8c-0.3,0-0.5,0-0.8,0C209,204.7,206.2,204.7,203.4,204.7C203.4,204.7,203.4,204.7,203.4,204.7z"/>
</g>
</svg>
