<?xml version="1.0" encoding="utf-8"?>
<!-- Generator: Adobe Illustrator 23.0.0, SVG Export Plug-In . SVG Version: 6.00 Build 0)  -->
<svg version="1.1" id="Layer_1" xmlns="http://www.w3.org/2000/svg" xmlns:xlink="http://www.w3.org/1999/xlink" x="0px" y="0px"
	 width="47.5px" height="48.6px" viewBox="0 0 47.5 48.6" style="enable-background:new 0 0 47.5 48.6;" xml:space="preserve">
<style type="text/css">
	.st0{fill:#0E365C;}
	.st1{fill:#1F5C98;}
	.st2{fill:#FE641A;}
	.st3{fill:#FE8756;}
	.st4{fill:#00FEE6;}
	.st5{fill:#00DCC0;}
	.st6{fill:#FE9E00;}
	.st7{fill:#FED295;}
	.st8{fill:#FE8856;}
	.st9{fill:#BC0533;}
	.st10{fill:#F9184B;}
</style>
<g>
	<path class="st0" d="M32.7,38.4c-0.7,2.3-1.5,4.5-2.9,6.5c-1,1.4-2.1,2.5-3.8,3c-0.5,0.1-1,0.2-1.5,0.1c-0.1-0.1-0.1-0.2-0.1-0.3
		c0-0.8-0.1-1.5,0-2.3c0.1-0.2,0.3-0.2,0.5-0.3c0.8-0.1,1.4-0.6,2-1.2c1.1-1.2,1.8-2.6,2.3-4.1c0.3-0.7,0.5-1.4,0.7-2.2
		c0.2-0.9,0.5-1.8,0.6-2.7c0.2-1,0.4-2,0.5-2.9c0.2-1.2,0.3-2.3,0.3-3.5c0.1-1.4,0.1-2.8,0.1-4.1c0-1.2-0.1-2.5-0.2-3.7
		c0-1.2-0.2-2.3-0.4-3.5c-0.1-1-0.3-1.9-0.5-2.9c-0.2-0.9-0.4-1.8-0.7-2.7c-0.6-1.9-1.3-3.8-2.3-5.5c-0.4-0.7-0.9-1.2-1.5-1.8
		c-0.3-0.3-0.7-0.5-1.1-0.7c-0.2-0.1-0.4-0.1-0.4-0.4c-0.1-0.7,0-1.5,0-2.2c0-0.2,0-0.3,0.1-0.4c0.2,0,0.3,0,0.5,0
		c3.1,0.8,4.7,3.2,6,5.8c0.7,1.4,1.2,2.8,1.6,4.3c0.2,0.1,0.2,0.3,0.3,0.5c0.2,0.7,0.4,1.4,0.5,2.2c0.4,1.7,0.6,3.5,0.8,5.3
		c0,0.2,0,0.4,0.1,0.6c0.1,1.2,0.2,2.4,0.2,3.6c0,0.6,0,1.1,0.1,1.6c0.1,0.7-0.1,1.4-0.1,2.1c0,1.2,0,2.3-0.2,3.5
		c-0.1,1.9-0.4,3.8-0.8,5.7c-0.1,0.8-0.3,1.5-0.6,2.3C32.8,38.1,32.8,38.3,32.7,38.4z"/>
	<path class="st1" d="M24.4,45.2c0,0.9,0,1.8,0,2.8c-1.6-0.1-2.8-0.9-3.9-2c-1.5-1.6-2.5-3.5-3.3-5.6c-0.3-0.8-0.6-1.7-0.9-2.5
		c-0.2-0.1-0.2-0.3-0.2-0.5c-0.2-0.7-0.4-1.5-0.6-2.2c-0.4-1.7-0.6-3.4-0.8-5.1c0-0.2,0-0.3,0-0.5c-0.2-1.2-0.2-2.5-0.3-3.7
		c0-1.3,0-2.5,0-3.8c0-1.2,0.1-2.3,0.2-3.5c0.1-1.5,0.3-3,0.6-4.4c0.1-0.4,0.1-0.8,0.2-1.1c0.2-0.7,0.3-1.4,0.5-2.1
		c0.1-0.2,0.1-0.4,0.2-0.5c0.5-1.6,1-3.1,1.8-4.6c0.9-1.7,1.9-3.2,3.5-4.3c0.6-0.4,1.3-0.6,2-0.9c0.3,0,0.7,0,1,0c0,0.9,0,1.9,0,2.8
		l-0.1,0.1c-1.3,0.1-2.2,1-2.9,2c-1.2,1.7-1.9,3.7-2.5,5.7c-0.3,0.9-0.5,1.8-0.6,2.7c-0.2,0.9-0.4,1.8-0.4,2.8
		c-0.2,1.1-0.3,2.3-0.3,3.4c-0.1,1.6-0.1,3.2-0.1,4.8c0,1.1,0.1,2.2,0.2,3.3c0,1.2,0.2,2.3,0.4,3.5c0.1,0.9,0.3,1.8,0.5,2.7
		s0.4,1.8,0.7,2.6c0.6,2,1.3,4,2.5,5.8c0.7,1,1.4,1.8,2.6,2.2C24.3,45.1,24.4,45.1,24.4,45.2z"/>
	<path class="st2" d="M33.2,13.4c-0.2-0.9-0.5-1.8-0.7-2.7c1-0.3,2-0.4,3-0.5c1.8-0.2,3.7-0.2,5.5,0.2c1.4,0.3,2.7,0.9,3.7,2
		c1.2,1.4,1.4,3.1,1,4.9c-0.6,2.3-1.9,4.1-3.3,5.8c-0.6,0.7-1.1,1.3-1.8,1.9c-0.2,0-0.3-0.1-0.4-0.2c-0.4-0.6-1-1-1.5-1.5
		c-0.1-0.1-0.1-0.2-0.1-0.3c0.1-0.2,0.3-0.4,0.4-0.5c1.2-1.2,2.3-2.6,3.1-4.1c0.5-0.8,0.8-1.7,0.8-2.7c0-0.8-0.3-1.3-1-1.7
		c-0.8-0.5-1.7-0.7-2.6-0.8c-1.8-0.2-3.7,0.1-5.5,0.4C33.6,13.5,33.4,13.6,33.2,13.4z"/>
	<path class="st3" d="M15.6,35.2c0.2,0.9,0.5,1.8,0.7,2.7c-2,0.4-4,0.7-6.1,0.7c-1.3,0-2.6-0.2-3.8-0.7c-2.8-1.1-4.1-3.5-3.3-6.4
		c0.5-2.1,1.6-3.8,3-5.4c0.6-0.8,1.3-1.6,2.1-2.2c0.1,0,0.2,0.1,0.3,0.2c0.5,0.5,1,1,1.5,1.5c0.1,0.1,0.2,0.2,0.2,0.4
		c-0.1,0.3-0.3,0.4-0.5,0.6c-1.3,1.3-2.4,2.7-3.2,4.3c-0.3,0.7-0.6,1.5-0.6,2.3s0.4,1.4,1,1.7c0.7,0.4,1.6,0.6,2.4,0.7
		c1.9,0.2,3.7,0,5.6-0.4C15.2,35.2,15.4,35.1,15.6,35.2z"/>
	<path class="st4" d="M10,25.8c-0.6-0.7-1.3-1.3-1.9-2c-0.9-1.1-1.8-2.2-2.5-3.4c-0.8-1.4-1.5-2.8-1.8-4.5c-0.2-1.3,0-2.5,0.8-3.7
		c0.1,0,0.2,0.1,0.2,0.2c0.2,0.9,0.8,1.5,1.5,2c0.1,0,0.1,0.1,0.2,0.2c0.1,0.7,0.2,1.5,0.4,2.2c0.7,1.7,1.7,3.1,2.8,4.5
		c0.1,0.2,0.3,0.4,0.4,0.5c0.7,0.7,1.2,1.5,2,2.1c0.6,0.6,1.3,1.2,1.9,1.7c0.1,0.1,0.3,0.2,0.3,0.4c0.1,1.2,0.2,2.5,0.3,3.7
		c-0.2,0.1-0.3-0.1-0.4-0.1c-1.4-1-2.7-2.1-4-3.3C10.3,26.1,10.1,26,10,25.8z"/>
	<path class="st5" d="M38.7,22.9c0.7,0.7,1.3,1.3,2,2c1.1,1.3,2.2,2.7,3.1,4.2c0.9,1.6,1.5,3.3,1.4,5.2c0,0.3,0,0.5-0.2,0.8
		c-0.2,0-0.2-0.2-0.3-0.3c-0.4-0.8-1.1-1.3-2-1.6c-0.1,0-0.2-0.1-0.3-0.2c-0.3-0.6-0.5-1.3-0.8-2c-0.7-1.4-1.6-2.6-2.6-3.8
		c-0.1-0.1-0.2-0.3-0.3-0.4c-0.7-0.7-1.4-1.4-2-2.1c-0.6-0.6-1.2-1.1-1.9-1.7c-0.1-0.1-0.2-0.2-0.3-0.3c-0.1-1.2-0.1-2.4-0.2-3.7
		c0.1,0,0.2,0,0.3,0.1c1.4,1,2.8,2.1,4,3.3C38.5,22.7,38.6,22.8,38.7,22.9z"/>
	<path class="st6" d="M7.9,8.4c1.2-0.1,2.1,0.5,2.8,1.4c0.5,0.3,0.6,0.9,0.7,1.4c0.1,0.4,0,0.8,0,1.2c-0.4,1.5-1.3,2.4-2.8,2.7
		c-0.2,0-0.5,0.1-0.7-0.2c-0.1-0.1-0.1-0.3-0.1-0.5c0-1.8,0-3.7,0-5.5C7.8,8.8,7.8,8.6,7.9,8.4z"/>
	<path class="st6" d="M42.3,33c1.2,0.3,2.1,1,2.6,2.1c0.5,1.6,0.2,2.9-1.2,3.9c-0.6,0.4-1.2,0.7-2,0.6c-0.2-0.2-0.2-0.4-0.2-0.6
		c0-1.8,0-3.7,0-5.5c0-0.2,0-0.4,0.1-0.5C41.9,32.8,42.1,32.9,42.3,33z"/>
	<path class="st7" d="M41.7,33c0,2.2,0,4.4,0,6.7c-0.8,0-1.5-0.3-2.1-0.7c-0.4-0.1-0.6-0.4-0.8-0.7c-0.4-0.6-0.6-1.2-0.6-1.9
		c0.1-1.7,1.2-3.1,2.8-3.4C41.3,32.9,41.5,32.8,41.7,33z"/>
	<path class="st7" d="M7.9,8.4c0,2.2,0,4.4,0,6.6c-0.4,0.2-1.1,0-1.5-0.3c-1-0.5-1.6-1.4-1.9-2.5c0-1.4,0.5-2.6,1.7-3.4
		C6.7,8.5,7.3,8.4,7.9,8.4z"/>
	<path class="st5" d="M38.4,36.3c0,1.1,0.5,1.9,1.2,2.6C39.1,39.1,38.5,39,38,39c-1.8,0-3.6-0.2-5.4-0.7c0.2-0.9,0.4-1.8,0.7-2.7
		c0.1-0.1,0.3-0.1,0.5,0c1.4,0.3,2.8,0.4,4.3,0.5C38.1,36.2,38.3,36.2,38.4,36.3z"/>
	<path class="st4" d="M11.2,12.5c0.1-1,0-1.9-0.5-2.7c1.8-0.1,3.6,0.2,5.4,0.6c-0.2,0.9-0.4,1.8-0.6,2.6c-0.1,0.1-0.3,0.1-0.4,0.1
		c-1.1-0.2-2.2-0.4-3.3-0.5C11.5,12.6,11.4,12.6,11.2,12.5z"/>
	<path class="st5" d="M31.3,20.5c-1.8-1.2-3.6-2.3-5.5-3.3c-0.5-0.3-1-0.5-1.5-0.8c0-0.1,0-0.1,0-0.2c0-0.8,0-1.6,0-2.4
		c0-0.2,0-0.3,0.1-0.5l0,0c0.2-0.1,0.4,0.1,0.6,0.2c1,0.5,1.9,1,2.8,1.5s1.8,1,2.6,1.5c0.2,0.1,0.4,0.2,0.5,0.4
		C31.1,18.1,31.3,19.3,31.3,20.5z"/>
	<path class="st5" d="M29.9,37.6c-1.8-0.6-3.5-1.3-5.2-2c-0.1-0.1-0.2-0.1-0.4-0.2c-0.1-0.1-0.1-0.2-0.1-0.4c0-0.8-0.1-1.7,0-2.5
		c0.2-0.3,0.4-0.1,0.6,0c1,0.4,1.9,0.9,2.9,1.3c0.8,0.3,1.6,0.6,2.4,0.9c0.2,0.1,0.4,0.1,0.5,0.3C30.4,35.8,30.2,36.7,29.9,37.6z"/>
	<path class="st2" d="M27.7,33.8c-1.1-0.4-2.2-1-3.3-1.4c-0.1,0-0.1,0-0.1-0.1c2.5-1.1,4.8-2.4,7.1-3.8c-0.1,1.2-0.1,2.3-0.4,3.5
		c-0.2,0.4-0.6,0.5-1,0.7c-0.6,0.4-1.2,0.7-1.9,1C28.1,33.8,27.9,33.9,27.7,33.8z"/>
	<path class="st2" d="M27.8,15c-1.1-0.6-2.3-1.1-3.4-1.7c1.2-0.6,2.5-1,3.7-1.4c0.5-0.2,1.1-0.3,1.7-0.5c0.3,0.9,0.5,1.8,0.7,2.7
		c0,0.1-0.1,0.1-0.1,0.1C29.5,14.5,28.7,14.9,27.8,15z"/>
	<path class="st2" d="M38.5,26.8c-1.4,1.2-2.8,2.3-4.4,3.3c0.1-1.2,0.1-2.4,0.2-3.5c0.1-0.4,0.5-0.5,0.8-0.7c0.5-0.3,0.9-0.8,1.4-1
		C37.3,25.4,37.9,26.1,38.5,26.8z"/>
	<path class="st4" d="M24.3,32.3l0.1,0.1c0,1,0,2,0,3c-0.1,0-0.1,0-0.2-0.1c-0.4,0-0.7-0.2-1-0.4c-0.8-0.4-1.6-0.8-2.4-1.3
		c-0.9-0.5-1.7-1-2.6-1.5c-0.2-0.1-0.3-0.2-0.4-0.4c-0.2-1.2-0.4-2.3-0.4-3.5c2.1,1.4,4.2,2.7,6.5,3.9
		C24.1,32.2,24.2,32.3,24.3,32.3z"/>
	<path class="st4" d="M24.4,13.4c0,1,0.1,2,0,3c-0.2,0.1-0.4,0-0.6-0.1c-0.9-0.5-1.9-0.9-2.8-1.3c-0.7-0.3-1.5-0.6-2.3-0.9
		c-0.2-0.1-0.4-0.1-0.5-0.3c0.1-0.9,0.3-1.8,0.6-2.7C20.7,11.8,22.6,12.5,24.4,13.4z"/>
	<path class="st3" d="M21,14.9c1.2,0.4,2.2,1,3.4,1.5l0,0c-2.2,1-4.4,2.2-6.5,3.4c-0.1,0.1-0.3,0.2-0.4,0.2c0-1.2,0.1-2.3,0.4-3.5
		c0.3-0.4,0.9-0.6,1.3-0.9C19.7,15.4,20.3,15,21,14.9z"/>
	<path class="st8" d="M10.2,21.9c1.5-1.2,2.9-2.3,4.5-3.3c-0.1,1.2-0.1,2.3-0.2,3.5c0,0.1-0.1,0.2-0.1,0.2c-0.7,0.5-1.4,1.1-2.1,1.6
		h-0.1C11.4,23.3,10.8,22.6,10.2,21.9z"/>
	<path class="st8" d="M20.9,33.7c1.1,0.6,2.2,1.1,3.3,1.7c-1.7,0.7-3.4,1.4-5.2,1.8c-0.3-0.9-0.5-1.8-0.7-2.7c0-0.1,0.1-0.1,0.2-0.2
		c0.7-0.2,1.4-0.4,2-0.7C20.7,33.6,20.8,33.6,20.9,33.7z"/>
	<path class="st9" d="M25,19.4c2.1,0.1,4,1.9,4.3,4c0.4,2.7-1.1,5.1-3.8,5.7c-0.2,0-0.4,0.1-0.5,0.1c-0.6,0.1-0.7,0-0.7-0.6
		c0-2.9,0-5.8,0-8.6C24.3,19.4,24.3,19.3,25,19.4z"/>
	<path class="st10" d="M25,19.4c-0.5-0.1-0.6,0.1-0.6,0.6c0,2.9,0,5.8,0,8.6c0,0.5,0.1,0.7,0.6,0.6c-1.3,0.2-2.5-0.2-3.6-1
		c-1.6-1.2-2.3-3.3-1.8-5.3c0.6-2,2.2-3.4,4.3-3.6C24.2,19.3,24.6,19.2,25,19.4z"/>
</g>
</svg>
