<?xml version="1.0" encoding="utf-8"?>
<!-- Generator: Adobe Illustrator 23.0.0, SVG Export Plug-In . SVG Version: 6.00 Build 0)  -->
<svg version="1.1" xmlns="http://www.w3.org/2000/svg" xmlns:xlink="http://www.w3.org/1999/xlink" x="0px" y="0px"
	 width="341.33px" height="444.37px" viewBox="0 0 341.33 444.37" style="enable-background:new 0 0 341.33 444.37;"
	 xml:space="preserve">
<g id="Background_Complete">
</g>
<g id="Background_Simple" style="display:none;">
	<path style="display:inline;fill:#EBEBEB;" d="M349.73,199.07l-0.96-0.73c-8.07-6.12-18.82-7.49-27.91-3.22
		c-1.17,0.55-2.3,1.18-3.37,1.9c-7.76,5.16-12.6,14.48-12.41,23.89c0.11,5.54,1.8,11.29-0.1,16.47c-2.47,6.74-9.94,9.87-16.65,12.28
		c-6.71,2.41-14.18,5.56-16.62,12.31c-1.53,4.23-0.65,9.03,1.23,13.14c4.98,10.88,16.65,17.76,28.45,18.81s23.57-3.09,33.49-9.52
		c13.9-9.01,24.95-23.04,28.48-39.35C366.9,228.73,362.13,210.28,349.73,199.07z"/>
	<path style="display:inline;fill:#EBEBEB;" d="M-46.93,116.12l1.17,1c9.89,8.45,23.58,10.99,35.54,6.19
		c1.54-0.62,3.03-1.35,4.46-2.18c10.32-6.04,17.22-17.63,17.68-29.7c0.27-7.1-1.47-14.6,1.34-21.1
		c3.66-8.45,13.47-11.92,22.25-14.51c8.77-2.59,18.58-6.08,22.21-14.55c2.27-5.3,1.5-11.53-0.61-16.93
		C51.54,10.01,37.09,0.33,22.04-1.88S-8.4,0.33-21.59,7.84c-18.48,10.52-33.69,27.68-39.42,48.34S-62.01,100.84-46.93,116.12z"/>
	
		<ellipse transform="matrix(0.2327 -0.9725 0.9725 0.2327 202.631 348.1242)" style="display:inline;fill:#EBEBEB;" cx="321.95" cy="45.64" rx="29.95" ry="29.95"/>
	<circle style="display:inline;fill:#EBEBEB;" cx="-4.61" cy="206.83" r="25.37"/>
</g>
<g id="Shape">
	<g>
		<path style="fill:#066AC9;" d="M62.64,158.31c-0.91-8.12,4.92-15.34,10.83-20.97c5.91-5.64,12.63-11.37,14.36-19.36
			c1.32-6.11-0.58-12.39-1.44-18.59c-0.86-6.19-0.28-13.38,4.56-17.34c8.51-6.97,23.18,0.13,31.82-6.68
			c9.19-7.25,0.95-23.6,11.3-29.07c9.98-5.28,18.3,10.25,24.32-2.77c8.09-17.5,23.82-7.74,23.82-7.74
			c6.19,4.47,9.42,16.02,16.82,17.9c10.94,2.78,22.46-10.55,32.44-5.27c10.34,5.47,5.12,23.58,14.31,30.82
			c8.64,6.81,23.17-1.29,31.68,5.68c4.84,3.96,5.42,11.15,4.56,17.34c-0.86,6.19-2.76,12.47-1.44,18.59
			c1.73,7.98,8.45,13.72,14.36,19.36s11.75,12.86,10.83,20.97c-1.01,8.92-9.77,15.12-12.11,23.79c-3.49,12.91,8.2,26.81,3.46,39.32
			c-5.96,15.74-30.96,14.01-40.6,27.81c-3.63,5.2-4.46,11.83-7.24,17.52c-6.11,12.48-21.01,18.67-34.9,18.47
			c-11.73-0.16-22.98-4.02-33.94-8.4c-8.58,3.07-17.36,5.41-26.42,5.53c-13.89,0.19-28.79-5.99-34.9-18.47
			c-2.79-5.69-3.61-12.33-7.24-17.52c-9.64-13.8-34.64-12.07-40.6-27.81c-4.74-12.51,6.94-26.41,3.46-39.32
			C72.41,173.44,63.65,167.24,62.64,158.31z"/>
		<g style="opacity:0.8;">
			<path style="fill:#FFFFFF;" d="M62.96,158.31c-0.91-8.12,4.92-15.34,10.83-20.97c5.91-5.64,12.63-11.37,14.36-19.36
				c1.32-6.11-0.58-12.39-1.44-18.59c-0.86-6.19-0.28-13.38,4.56-17.34c8.51-6.97,23.18,0.13,31.82-6.68
				c9.19-7.25,0.95-23.6,11.3-29.07c9.98-5.28,18.3,10.25,24.32-2.77c8.09-17.5,23.82-7.74,23.82-7.74
				c6.19,4.47,9.42,16.02,16.82,17.9c10.94,2.78,22.46-10.55,32.44-5.27c10.34,5.47,5.12,23.58,14.31,30.82
				c8.64,6.81,23.17-1.29,31.68,5.68c4.84,3.96,5.42,11.15,4.56,17.34c-0.86,6.19-2.76,12.47-1.44,18.59
				c1.73,7.98,8.45,13.72,14.36,19.36c5.91,5.64,11.75,12.86,10.83,20.97c-1.01,8.92-9.77,15.12-12.11,23.79
				c-3.49,12.91,8.2,26.81,3.46,39.32c-5.96,15.74-30.96,14.01-40.6,27.81c-3.63,5.2-4.46,11.83-7.24,17.52
				c-6.11,12.48-21.01,18.67-34.9,18.47c-11.73-0.16-22.98-4.02-33.94-8.4c-8.58,3.07-17.36,5.41-26.42,5.53
				c-13.89,0.19-28.79-5.99-34.9-18.47c-2.79-5.69-3.61-12.33-7.24-17.52c-9.64-13.8-34.64-12.07-40.6-27.81
				c-4.74-12.51,6.94-26.41,3.46-39.32C72.73,173.44,63.96,167.24,62.96,158.31z"/>
		</g>
	</g>
</g>
<g id="Color_palette">
	<g>
		<g>
			<g>
				<path style="fill:#F5F5F5;" d="M233.6,130.37l-10.65-12.59c-0.72-0.85-0.63-2.1,0.2-2.8l48.12-40.71
					c0.83-0.7,2.08-0.58,2.8,0.27l10.65,12.59c0.72,0.85,0.63,2.1-0.2,2.8l-48.12,40.71C235.57,131.34,234.32,131.22,233.6,130.37z"
					/>
			</g>
			<g>
				<g>
					<path style="fill:#263238;" d="M233.6,130.37c0,0,0.08,0.13,0.31,0.32c0.23,0.18,0.63,0.42,1.22,0.44
						c0.29,0.01,0.62-0.06,0.94-0.22c0.32-0.17,0.6-0.45,0.92-0.71c0.64-0.54,1.38-1.16,2.21-1.85c3.33-2.8,8.14-6.84,14.07-11.83
						c5.93-5.01,13-10.96,20.84-17.58c1.96-1.66,3.97-3.35,6.02-5.08c1.03-0.87,2.06-1.74,3.11-2.63c0.53-0.45,1.05-0.86,1.58-1.36
						c0.52-0.55,0.69-1.39,0.45-2.11c-0.11-0.36-0.35-0.69-0.58-0.94l-0.68-0.8c-0.45-0.54-0.91-1.08-1.37-1.62
						c-0.92-1.08-1.84-2.18-2.77-3.28c-1.86-2.2-3.75-4.43-5.66-6.69c-0.51-0.62-1.38-0.92-2.17-0.73
						c-0.39,0.08-0.76,0.32-1.03,0.56l-0.84,0.71c-1.12,0.94-2.22,1.88-3.33,2.81c-2.2,1.86-4.37,3.7-6.5,5.5
						c-4.26,3.61-8.37,7.09-12.29,10.41c-7.82,6.64-14.87,12.61-20.79,17.64c-1.48,1.26-2.89,2.45-4.22,3.59
						c-0.71,0.61-0.88,1.67-0.5,2.45c0.19,0.4,0.5,0.68,0.74,0.99c0.26,0.3,0.51,0.6,0.76,0.9c2,2.34,3.72,4.36,5.13,6.02
						c1.41,1.64,2.5,2.92,3.25,3.79c0.37,0.42,0.65,0.75,0.85,0.98C233.5,130.27,233.6,130.37,233.6,130.37s-0.09-0.12-0.27-0.35
						c-0.19-0.24-0.47-0.57-0.83-1c-0.74-0.89-1.82-2.18-3.2-3.84c-1.4-1.66-3.1-3.7-5.08-6.06c-0.25-0.29-0.5-0.59-0.76-0.9
						c-0.25-0.31-0.55-0.6-0.71-0.95c-0.34-0.7-0.19-1.66,0.45-2.2c1.34-1.13,2.75-2.32,4.23-3.57c5.93-5.01,13-10.96,20.84-17.58
						c3.92-3.31,8.03-6.79,12.3-10.39c2.13-1.8,4.3-3.64,6.5-5.5c1.1-0.93,2.21-1.87,3.33-2.81l0.84-0.71
						c0.27-0.25,0.54-0.42,0.88-0.49c0.66-0.16,1.39,0.09,1.82,0.62c1.91,2.26,3.8,4.49,5.66,6.69c0.93,1.1,1.86,2.19,2.77,3.28
						c0.46,0.54,0.92,1.08,1.37,1.62l0.68,0.8c0.24,0.27,0.41,0.51,0.52,0.83c0.2,0.61,0.06,1.32-0.38,1.78
						c-0.48,0.44-1.04,0.89-1.55,1.33c-1.05,0.89-2.08,1.76-3.11,2.63c-2.05,1.74-4.05,3.43-6.01,5.09
						c-7.82,6.64-14.87,12.61-20.79,17.63c-5.9,5.02-10.68,9.09-14,11.91c-0.82,0.7-1.56,1.33-2.19,1.88
						c-0.32,0.26-0.59,0.55-0.9,0.71c-0.31,0.16-0.62,0.23-0.9,0.22c-0.57,0-0.97-0.23-1.2-0.4
						C233.7,130.49,233.61,130.36,233.6,130.37z"/>
				</g>
			</g>
		</g>
		<g>
			
				<rect x="267.45" y="77.8" transform="matrix(0.7676 -0.6409 0.6409 0.7676 8.2488 195.1411)" style="fill:#FF725E;" width="11.52" height="16.8"/>
		</g>
		<g>
			
				<rect x="238.65" y="101.84" transform="matrix(0.7676 -0.6409 0.6409 0.7676 -13.8565 182.27)" style="fill:#FF725E;" width="11.52" height="16.8"/>
		</g>
		<g>
			
				<rect x="248.26" y="93.82" transform="matrix(0.7676 -0.6409 0.6409 0.7676 -6.4793 186.5664)" style="fill:#FF725E;" width="11.52" height="16.8"/>
		</g>
		<g>
			
				<rect x="257.88" y="85.79" transform="matrix(0.7676 -0.6409 0.6409 0.7676 0.9037 190.866)" style="fill:#FF725E;" width="11.52" height="16.8"/>
		</g>
		<g style="opacity:0.8;">
			<rect x="267.45" y="77.8" transform="matrix(0.7676 -0.6409 0.6409 0.7676 8.2488 195.1411)" width="11.52" height="16.8"/>
		</g>
		<g style="opacity:0.5;">
			<rect x="238.65" y="101.84" transform="matrix(0.7676 -0.6409 0.6409 0.7676 -13.8565 182.27)" width="11.52" height="16.8"/>
		</g>
		<g style="opacity:0.6;">
			<rect x="248.26" y="93.82" transform="matrix(0.7676 -0.6409 0.6409 0.7676 -6.4793 186.5664)" width="11.52" height="16.8"/>
		</g>
		<g style="opacity:0.7;">
			<rect x="257.88" y="85.79" transform="matrix(0.7676 -0.6409 0.6409 0.7676 0.9037 190.866)" width="11.52" height="16.8"/>
		</g>
		<g>
			<g>
				<path style="fill:#F5F5F5;" d="M235.71,129.82l-13.53-9.43c-0.91-0.63-1.15-1.86-0.54-2.74l35.52-50.98
					c0.61-0.88,1.85-1.07,2.76-0.44l13.53,9.43c0.91,0.63,1.15,1.86,0.54,2.74l-35.52,50.98
					C237.85,130.26,236.62,130.45,235.71,129.82z"/>
			</g>
			<g>
				<g>
					<path style="fill:#263238;" d="M235.71,129.82c0,0,0.11,0.1,0.38,0.23c0.26,0.11,0.71,0.25,1.27,0.12
						c0.28-0.06,0.58-0.2,0.85-0.44c0.27-0.24,0.46-0.58,0.71-0.91c0.48-0.68,1.03-1.46,1.64-2.33c2.47-3.52,6.03-8.61,10.44-14.88
						c4.4-6.29,9.63-13.78,15.44-22.1c1.45-2.08,2.94-4.21,4.46-6.39c0.76-1.09,1.53-2.19,2.3-3.3l0.58-0.84
						c0.18-0.28,0.42-0.54,0.56-0.9c0.29-0.7,0.14-1.53-0.33-2.11c-0.23-0.3-0.56-0.5-0.83-0.69l-0.85-0.6
						c-0.57-0.4-1.14-0.8-1.72-1.2c-1.15-0.8-2.31-1.61-3.48-2.43c-2.34-1.63-4.71-3.28-7.11-4.96c-0.65-0.46-1.55-0.54-2.26-0.17
						c-0.35,0.17-0.65,0.49-0.85,0.79l-0.62,0.89c-0.83,1.19-1.65,2.37-2.46,3.54c-1.63,2.34-3.24,4.65-4.81,6.91
						c-3.15,4.53-6.2,8.91-9.09,13.07c-5.79,8.33-11,15.84-15.38,22.14c-1.09,1.58-2.14,3.06-3.11,4.52
						c-0.44,0.82-0.22,1.86,0.41,2.44c0.66,0.54,1.31,0.93,1.94,1.38c2.51,1.73,4.66,3.22,6.43,4.45c1.76,1.21,3.13,2.15,4.07,2.8
						c0.46,0.31,0.81,0.55,1.06,0.72C235.58,129.74,235.71,129.82,235.71,129.82s-0.12-0.09-0.35-0.26
						c-0.25-0.18-0.59-0.42-1.04-0.75c-0.93-0.66-2.29-1.62-4.04-2.85c-1.76-1.24-3.91-2.74-6.4-4.49c-0.61-0.44-1.3-0.88-1.9-1.37
						c-0.56-0.53-0.75-1.47-0.36-2.19c0.95-1.41,2.03-2.91,3.12-4.48c4.4-6.29,9.63-13.78,15.44-22.1c2.9-4.16,5.95-8.53,9.11-13.06
						c1.58-2.27,3.19-4.57,4.82-6.91c0.82-1.17,1.64-2.35,2.46-3.53l0.62-0.89c0.2-0.3,0.42-0.53,0.72-0.68
						c0.59-0.31,1.35-0.24,1.9,0.15c2.4,1.67,4.78,3.33,7.12,4.96c1.17,0.81,2.33,1.62,3.48,2.43c0.58,0.4,1.15,0.8,1.72,1.2
						l0.86,0.6c0.29,0.2,0.57,0.38,0.76,0.63c0.39,0.5,0.52,1.2,0.28,1.78c-0.11,0.28-0.33,0.54-0.52,0.83l-0.58,0.84
						c-0.77,1.11-1.54,2.21-2.3,3.3c-1.52,2.18-3,4.31-4.45,6.4c-5.79,8.33-11,15.84-15.38,22.14c-4.36,6.3-7.9,11.41-10.35,14.95
						c-0.61,0.88-1.15,1.67-1.62,2.35c-0.24,0.33-0.43,0.68-0.68,0.9c-0.25,0.23-0.54,0.37-0.81,0.43
						c-0.55,0.13-0.98,0.01-1.24-0.09C235.83,129.9,235.71,129.81,235.71,129.82z"/>
				</g>
			</g>
		</g>
		<g>
			
				<rect x="255.38" y="69.93" transform="matrix(0.5765 -0.8171 0.8171 0.5765 46.5959 246.5627)" style="fill:#FF725E;" width="11.52" height="16.8"/>
		</g>
		<g>
			
				<rect x="233.76" y="100.59" transform="matrix(0.5765 -0.8171 0.8171 0.5765 12.3839 241.8709)" style="fill:#FF725E;" width="11.52" height="16.8"/>
		</g>
		<g>
			
				<rect x="240.97" y="90.36" transform="matrix(0.5765 -0.8171 0.8171 0.5765 23.7992 243.4341)" style="fill:#FF725E;" width="11.52" height="16.8"/>
		</g>
		<g>
			
				<rect x="248.2" y="80.12" transform="matrix(0.5765 -0.8171 0.8171 0.5765 35.2264 245.0031)" style="fill:#FF725E;" width="11.52" height="16.8"/>
		</g>
		<g style="opacity:0.5;">
			<rect x="255.38" y="69.93" transform="matrix(0.5765 -0.8171 0.8171 0.5765 46.5959 246.5627)" width="11.52" height="16.8"/>
		</g>
		<g style="opacity:0.3;">
			<rect x="240.97" y="90.36" transform="matrix(0.5765 -0.8171 0.8171 0.5765 23.7992 243.4341)" width="11.52" height="16.8"/>
		</g>
		<g style="opacity:0.4;">
			<rect x="248.2" y="80.12" transform="matrix(0.5765 -0.8171 0.8171 0.5765 35.2264 245.0031)" width="11.52" height="16.8"/>
		</g>
		<g>
			<g>
				<path style="fill:#F5F5F5;" d="M235.63,131.82l-15.66-5.16c-1.05-0.35-1.62-1.49-1.27-2.56l20.44-61.99
					c0.35-1.07,1.49-1.65,2.55-1.3l15.66,5.16c1.05,0.35,1.62,1.49,1.27,2.56l-20.44,61.99
					C237.82,131.59,236.68,132.17,235.63,131.82z"/>
			</g>
			<g>
				<g>
					<path style="fill:#263238;" d="M235.63,131.82c0,0,0.14,0.07,0.44,0.11c0.29,0.03,0.78,0.02,1.29-0.3
						c0.25-0.16,0.5-0.4,0.69-0.72c0.18-0.33,0.27-0.72,0.42-1.12c0.27-0.82,0.59-1.75,0.94-2.81c1.41-4.24,3.45-10.36,5.97-17.92
						c2.51-7.57,5.49-16.58,8.81-26.59c0.83-2.5,1.67-5.07,2.54-7.69c0.43-1.31,0.87-2.63,1.31-3.97c0.22-0.67,0.44-1.34,0.67-2.01
						c0.12-0.32,0.22-0.73,0.18-1.11c-0.04-0.38-0.17-0.76-0.4-1.08c-0.22-0.32-0.54-0.57-0.89-0.73c-0.37-0.14-0.69-0.23-1.04-0.35
						c-0.69-0.23-1.38-0.45-2.07-0.68c-1.38-0.46-2.78-0.92-4.19-1.38c-2.81-0.93-5.67-1.87-8.55-2.82
						c-0.79-0.27-1.71-0.03-2.27,0.58c-0.29,0.28-0.47,0.7-0.57,1.05l-0.35,1.07c-0.47,1.43-0.94,2.84-1.4,4.25
						c-0.93,2.81-1.84,5.59-2.74,8.31c-1.79,5.45-3.52,10.71-5.17,15.71c-3.29,10.01-6.25,19.03-8.74,26.61
						c-0.62,1.89-1.21,3.7-1.77,5.4c-0.07,0.22-0.14,0.42-0.2,0.65c-0.05,0.23-0.06,0.46-0.03,0.69c0.05,0.46,0.25,0.89,0.55,1.21
						c0.3,0.33,0.72,0.54,1.11,0.64c0.39,0.13,0.77,0.25,1.15,0.38c3.01,0.98,5.6,1.82,7.72,2.52c2.11,0.68,3.76,1.21,4.89,1.58
						c0.55,0.17,0.98,0.31,1.27,0.4C235.48,131.79,235.63,131.82,235.63,131.82s-0.14-0.06-0.43-0.16c-0.3-0.1-0.72-0.25-1.26-0.43
						c-1.12-0.38-2.76-0.93-4.87-1.64c-2.12-0.71-4.7-1.57-7.71-2.57c-0.38-0.12-0.76-0.25-1.15-0.38c-0.4-0.11-0.75-0.29-1.02-0.59
						c-0.27-0.3-0.45-0.68-0.49-1.1c-0.06-0.42,0.08-0.82,0.23-1.25c0.57-1.7,1.16-3.51,1.79-5.4c2.51-7.57,5.49-16.58,8.81-26.59
						c1.65-5.01,3.39-10.26,5.19-15.71c0.9-2.72,1.81-5.5,2.74-8.31c0.46-1.41,0.93-2.82,1.4-4.25l0.35-1.07
						c0.11-0.36,0.24-0.67,0.49-0.92c0.47-0.51,1.25-0.71,1.91-0.49c2.89,0.95,5.74,1.89,8.56,2.82c1.41,0.46,2.8,0.92,4.19,1.38
						c0.69,0.23,1.38,0.46,2.07,0.68c0.34,0.11,0.7,0.22,1.01,0.34c0.3,0.14,0.57,0.35,0.75,0.62c0.39,0.55,0.44,1.25,0.17,1.89
						c-0.22,0.67-0.44,1.35-0.66,2.02c-0.44,1.34-0.88,2.66-1.31,3.97c-0.86,2.62-1.71,5.19-2.53,7.69
						c-3.29,10.01-6.25,19.03-8.74,26.61c-2.47,7.57-4.47,13.7-5.86,17.95c-0.34,1.06-0.65,2-0.91,2.82c-0.14,0.4-0.23,0.8-0.4,1.11
						c-0.17,0.31-0.41,0.54-0.65,0.7c-0.49,0.32-0.96,0.35-1.25,0.33C235.78,131.87,235.63,131.81,235.63,131.82z"/>
				</g>
			</g>
		</g>
		<g>
			<g>
				<path style="fill:#263238;" d="M235.55,131.95c-0.06-0.01-0.1,0.8-0.5,2.16c-0.44,1.33-1.24,3.31-3.08,5.05
					c-1.79,1.74-4.65,3.2-7.98,3.15c-3.28-0.05-6.96-1.71-9.07-4.93c-1.09-1.57-1.67-3.39-1.86-5.17c-0.18-1.79,0.12-3.54,0.71-5.08
					c0.59-1.54,1.49-2.87,2.54-3.91c1.04-1.04,2.22-1.8,3.37-2.31c2.31-1.03,4.44-1.1,5.84-0.96c0.35,0.05,0.66,0.09,0.94,0.13
					c0.27,0.04,0.49,0.11,0.68,0.14c0.37,0.08,0.57,0.11,0.58,0.09c0.01-0.02-0.18-0.1-0.54-0.22c-0.18-0.06-0.4-0.14-0.67-0.21
					c-0.28-0.06-0.6-0.12-0.95-0.19c-1.42-0.23-3.63-0.24-6.07,0.77c-1.21,0.5-2.46,1.27-3.57,2.35c-1.12,1.07-2.09,2.46-2.73,4.09
					c-0.64,1.62-0.97,3.48-0.79,5.38c0.2,1.89,0.81,3.83,1.96,5.5c0.54,0.85,1.24,1.58,1.96,2.25c0.75,0.63,1.54,1.21,2.4,1.62
					c1.7,0.86,3.53,1.3,5.28,1.31c1.75,0,3.4-0.38,4.81-1.01c1.42-0.63,2.6-1.49,3.52-2.42c1.88-1.87,2.63-3.95,2.99-5.34
					c0.17-0.71,0.23-1.27,0.25-1.65C235.59,132.15,235.57,131.95,235.55,131.95z"/>
			</g>
		</g>
		<g>
			<path style="fill:#263238;" d="M230.42,118.72c-1.32-0.43-2.74,0.28-3.17,1.6c-0.43,1.32,0.28,2.74,1.6,3.17
				c1.32,0.43,2.74-0.28,3.17-1.6C232.45,120.58,231.74,119.16,230.42,118.72z"/>
		</g>
		<g>
			
				<rect x="240.98" y="62.29" transform="matrix(0.3132 -0.9497 0.9497 0.3132 102.3413 282.8816)" style="fill:#FF725E;" width="11.52" height="16.8"/>
		</g>
		<g>
			
				<rect x="237.08" y="74.13" transform="matrix(0.3132 -0.9497 0.9497 0.3132 88.417 287.3078)" style="fill:#FF725E;" width="11.52" height="16.8"/>
		</g>
		<g>
			
				<rect x="233.16" y="86.03" transform="matrix(0.3132 -0.9497 0.9497 0.3132 74.4207 291.7544)" style="fill:#FF725E;" width="11.52" height="16.8"/>
		</g>
		<g>
			
				<rect x="229.23" y="97.92" transform="matrix(0.3132 -0.9497 0.9497 0.3132 60.4333 296.1958)" style="fill:#FF725E;" width="11.52" height="16.8"/>
		</g>
		<g style="opacity:0.8;">
			
				<rect x="229.23" y="97.92" transform="matrix(0.3132 -0.9497 0.9497 0.3132 60.4333 296.1958)" style="fill:#FFFFFF;" width="11.52" height="16.8"/>
		</g>
		<g style="opacity:0.6;">
			
				<rect x="233.16" y="86.03" transform="matrix(0.3132 -0.9497 0.9497 0.3132 74.4207 291.7544)" style="fill:#FFFFFF;" width="11.52" height="16.8"/>
		</g>
		<g style="opacity:0.4;">
			
				<rect x="237.08" y="74.13" transform="matrix(0.3132 -0.9497 0.9497 0.3132 88.417 287.3078)" style="fill:#FFFFFF;" width="11.52" height="16.8"/>
		</g>
	</g>
</g>
<g id="Device">
	<g>
		<path style="fill:#455A64;" d="M138.93,69.22l-9.29,43.18L90.54,87.87l5.99-32.67c0.2-1.09,1.33-1.75,2.38-1.39l38.83,13.31
			C138.62,67.41,139.13,68.32,138.93,69.22z"/>
		<polygon style="fill:#455A64;" points="89.9,125.98 129.64,112.4 90.54,87.72 62.83,92.45 		"/>
		<polygon style="fill:#263238;" points="127.54,109.67 91.93,87.33 98.2,56 135.77,69.59 		"/>
		<g>
			<path style="fill:#263238;" d="M124.68,112.2c-1.87-1.23-14.94-9.87-34.94-23.08l-0.03-0.02l-0.04,0.01
				c-4.89,0.98-10.17,2.03-15.65,3.12l-0.19,0.04l0.14,0.14c0.48,0.45,0.99,0.93,1.5,1.41c10.03,9.4,19.26,18.07,26.53,24.89
				l0.03,0.03l0.04-0.01C115.54,114.84,123.15,112.64,124.68,112.2c-1.54,0.43-9.17,2.58-22.64,6.37l0.08,0.02
				c-7.26-6.83-16.49-15.5-26.51-24.92c-0.51-0.48-1.03-0.96-1.5-1.41l-0.05,0.17c5.48-1.1,10.76-2.16,15.65-3.13l-0.07-0.01
				C109.7,102.4,122.81,110.98,124.68,112.2z"/>
		</g>
		<g>
			<path style="fill:#263238;" d="M80.58,99.82c0,0-0.22,0.03-0.63,0.11c-0.48,0.1-1.07,0.21-1.79,0.35
				c-1.64,0.34-3.84,0.79-6.46,1.33l-0.14,0.03l0.09,0.11c2.11,2.5,4.62,5.47,7.33,8.68l0.04,0.05l0.06-0.02
				c0.16-0.05,0.34-0.1,0.51-0.15c3.35-0.96,6.51-1.86,9.26-2.65l0.15-0.04l-0.12-0.11c-2.43-2.26-4.49-4.18-6.02-5.6
				c-0.68-0.63-1.25-1.15-1.7-1.56C80.79,100,80.58,99.82,80.58,99.82s0.2,0.21,0.59,0.59c0.44,0.42,1,0.96,1.67,1.61
				c1.5,1.43,3.53,3.35,5.93,5.63l0.04-0.15c-2.75,0.78-5.91,1.67-9.26,2.62c-0.18,0.05-0.35,0.1-0.51,0.15l0.11,0.03
				c-2.72-3.2-5.24-6.16-7.36-8.65l-0.05,0.14c2.61-0.57,4.79-1.04,6.42-1.39c0.72-0.16,1.31-0.29,1.79-0.4
				C80.36,99.88,80.58,99.82,80.58,99.82z"/>
		</g>
		<g>
			<path style="fill:#263238;" d="M77.11,100.37c-0.04,0.04,1.63,1.92,3.73,4.2c2.1,2.28,3.83,4.1,3.88,4.06
				c0.04-0.04-1.63-1.92-3.73-4.2C78.89,102.15,77.15,100.33,77.11,100.37z"/>
		</g>
		<g>
			<path style="fill:#FFFFFF;" d="M114.49,96.89c0,0-0.02-0.12-0.08-0.35c-0.08-0.28-0.17-0.6-0.27-0.98
				c-0.27-0.94-0.62-2.15-1.04-3.59c-0.92-3.12-2.14-7.25-3.49-11.82c-2.52-8.46-4.25-14.24-4.98-16.71c0,0,0.01,0.12,0.06,0.35
				c0.05,0.23,0.14,0.56,0.25,0.99c0.26,0.94,0.6,2.15,1.01,3.6c0.91,3.12,2.12,7.26,3.46,11.83c1.37,4.56,2.61,8.69,3.55,11.81
				c0.44,1.44,0.81,2.63,1.1,3.57c0.12,0.37,0.22,0.69,0.31,0.97C114.44,96.77,114.49,96.89,114.49,96.89z"/>
		</g>
		<g>
			<path style="fill:#FFFFFF;" d="M115.83,90.82c0.05-0.02-1.11-4.28-2.59-9.53c-1.49-5.25-2.74-9.49-2.79-9.47
				c-0.05,0.02,1.11,4.28,2.59,9.53C114.52,86.6,115.77,90.84,115.83,90.82z"/>
		</g>
	</g>
</g>
<g id="Pen">
	<g>
		<g>
			<g>
				<polygon style="fill:#FAFAFA;" points="24.37,140.31 69.82,146.89 72.84,158.91 78.76,162.53 67.04,180.95 61.11,177.06 
					48.57,178.7 				"/>
				<g>
					<path style="fill:#263238;" d="M24.37,140.31c0.67,1.07,9.92,15.85,24.09,38.47l0.05,0.08l0.09-0.01
						c3.99-0.52,8.19-1.07,12.54-1.63l-0.1-0.02c1.87,1.23,3.88,2.55,5.92,3.9l0.13,0.08l0.08-0.13c1.92-3.02,3.94-6.18,5.99-9.4
						c1.95-3.06,3.86-6.07,5.74-9.02l0.09-0.14l-0.14-0.08c-2.01-1.22-3.98-2.43-5.92-3.61l0.07,0.09
						c-1.05-4.16-2.06-8.17-3.03-12.02l-0.02-0.09l-0.09-0.01C43.21,142.98,25.63,140.49,24.37,140.31
						c1.26,0.19,18.83,2.79,45.43,6.73l-0.12-0.11c0.97,3.85,1.97,7.86,3.02,12.02l0.02,0.06l0.05,0.03
						c1.94,1.19,3.91,2.39,5.92,3.62l-0.05-0.22c-1.87,2.94-3.79,5.96-5.74,9.02c-2.05,3.22-4.06,6.39-5.98,9.4l0.21-0.05
						c-2.04-1.34-4.05-2.66-5.92-3.89l-0.05-0.03l-0.05,0.01c-4.35,0.57-8.56,1.13-12.54,1.65l0.14,0.07
						C34.38,156.09,25.04,141.38,24.37,140.31z"/>
				</g>
			</g>
			<path style="fill:#263238;" d="M48.75,165.03c3.06,2.01,7.16,1.12,9.14-1.99c1.98-3.11,1.1-7.27-1.96-9.29
				c-3.06-2.01-7.16-1.12-9.14,1.99C44.81,158.86,45.68,163.02,48.75,165.03z"/>
			<g>
				<path style="fill:#263238;" d="M24.37,140.31c-0.05,0.07,6.18,4.4,13.9,9.67c7.73,5.27,14.03,9.48,14.07,9.41
					c0.05-0.07-6.17-4.4-13.9-9.67C30.71,144.45,24.41,140.24,24.37,140.31z"/>
			</g>
			<path style="fill:#FFC661;" d="M187.97,248.16L187.97,248.16c3.15-4.94,1.77-11.54-3.07-14.77L84.83,166.8l-11.44,17.98
				l99.97,66.53C178.24,254.55,184.8,253.14,187.97,248.16z"/>
			<polygon style="fill:#FFE05F;" points="72.29,186.5 85.75,165.36 78.52,160.61 65.06,181.75 			"/>
		</g>
		<g>
			<polygon style="fill:#FF725E;" points="25.38,143.67 27.99,139.84 24.22,137.18 21.61,141.01 			"/>
			<g>
				<g>
					<path style="fill:#FF725E;" d="M2.97,171.31c0.19,0.14,10.25-14.27,22.46-32.17c12.21-17.91,21.95-32.53,21.76-32.67
						c-0.19-0.14-10.25,14.27-22.46,32.17C12.52,156.55,2.78,171.17,2.97,171.31z"/>
				</g>
				<path style="fill:#FF725E;" d="M2.47,172.04c0.62,0.43,1.46,0.28,1.89-0.35c0.43-0.63,0.27-1.49-0.34-1.92s-1.46-0.28-1.89,0.35
					C1.7,170.74,1.86,171.6,2.47,172.04z"/>
				<path style="fill:#FF725E;" d="M46.41,107.6c0.62,0.43,1.46,0.28,1.89-0.35c0.43-0.63,0.27-1.49-0.34-1.92
					c-0.62-0.43-1.46-0.28-1.89,0.35C45.64,106.31,45.8,107.17,46.41,107.6z"/>
			</g>
		</g>
		<polygon style="opacity:0.3;" points="84.83,166.8 73.39,184.77 76.07,186.56 85.79,167.43 		"/>
		<polygon style="opacity:0.5;fill:#FFFFFF;" points="74.83,166.4 77.8,177.41 76.22,180.33 73.17,169.02 		"/>
	</g>
</g>
<g id="Pencil">
	<g>
		<g>
			<g>
				<polygon style="fill:#FF725E;" points="332.57,136.03 315.21,168.24 240.91,226.97 223.8,203.24 296.74,145.98 				"/>
				<g style="opacity:0.7;">
					<path style="fill:#FFFFFF;" d="M296.74,145.98c0.1,1.45,1.26,2.56,2.66,2.17c-1.66,2.13-1.79,5.33-0.3,7.59
						c1.49,2.26,4.48,3.4,7.09,2.71c-0.77,2.56-0.06,5.51,1.79,7.44c1.85,1.93,4.77,2.77,7.36,2.11l17.23-31.97L296.74,145.98z"/>
				</g>
				<path style="fill:#FF725E;" d="M325.59,148.98c0,0-6.94,0.98-7.7-8.88l14.68-4.08L325.59,148.98z"/>
			</g>
		</g>
		<path style="opacity:0.3;" d="M306.19,158.45l-73.13,56.92l7.86,11.61l74.3-58.73l0.13-0.24c0,0-1.5,0.47-3.34,0.08
			c-1.23-0.26-2.68-0.88-3.86-2.04c-1.52-1.49-2.13-3.29-2.24-4.77C305.77,159.68,306.19,158.45,306.19,158.45z"/>
		<path style="opacity:0.3;" d="M299.4,148.15l-73.4,58.13l-2.19-3.04l72.94-57.25c0,0,0.06,2.11,2.12,2.26
			C299.02,148.25,299.2,148.18,299.4,148.15z"/>
		<g>
			<path style="fill:#FFFFFF;" d="M314.13,157.05c-0.01-0.02-0.07,0.16-0.34,0.22c-0.25,0.06-0.74-0.04-0.9-0.55
				c-0.16-0.48-0.1-1.15,0.14-1.84c0.13-0.34,0.34-0.68,0.68-0.91c0.33-0.23,0.79-0.35,1.2-0.16c0.41,0.17,0.69,0.6,0.85,1.07
				c0.16,0.47,0.2,1,0.22,1.55c0.02,1.08-0.12,2.28-0.59,3.4c-0.24,0.54-0.64,1.08-1.24,1.26c-0.59,0.18-1.27-0.03-1.75-0.45
				c-0.97-0.89-1.26-2.38-1.26-3.76c0.04-2.83,1.74-5.42,3.96-6.42c0.56-0.23,1.18-0.2,1.67,0.09c0.49,0.28,0.86,0.72,1.16,1.17
				c0.57,0.92,0.94,1.89,1.17,2.79c0.47,1.81,0.37,3.35,0.23,4.38c-0.08,0.51-0.17,0.91-0.24,1.18c-0.07,0.27-0.1,0.41-0.1,0.41
				s0.23-0.54,0.42-1.57c0.17-1.03,0.29-2.59-0.17-4.42c-0.23-0.91-0.59-1.89-1.17-2.84c-0.3-0.47-0.68-0.93-1.21-1.24
				c-0.53-0.32-1.23-0.35-1.82-0.11c-2.32,1.03-4.05,3.68-4.1,6.59c-0.01,0.72,0.09,1.44,0.28,2.12c0.2,0.67,0.52,1.33,1.06,1.79
				c0.53,0.45,1.27,0.69,1.94,0.48c0.67-0.21,1.1-0.8,1.35-1.37c0.48-1.17,0.62-2.37,0.59-3.48c-0.02-0.55-0.07-1.1-0.24-1.59
				c-0.17-0.49-0.47-0.96-0.94-1.15c-0.47-0.2-0.98-0.06-1.33,0.19c-0.36,0.25-0.58,0.62-0.71,0.98c-0.23,0.72-0.29,1.39-0.1,1.91
				c0.19,0.54,0.74,0.65,0.99,0.56C314.09,157.22,314.13,157.03,314.13,157.05z"/>
		</g>
		<g>
			<path style="fill:#FFFFFF;" d="M311.63,142.17c-0.02,0.01,0.15,0.39,0.27,1.13c0.12,0.73,0.13,1.83-0.19,3.12
				c-0.3,1.3-0.96,2.75-1.77,4.32c-0.78,1.57-1.72,3.34-2,5.4c-0.28,2.05,0.14,4.05,0.92,5.65c0.78,1.61,1.95,2.79,3.04,3.57
				c1.1,0.79,2.13,1.18,2.85,1.4c0.72,0.21,1.14,0.25,1.14,0.25c0-0.01-0.1-0.04-0.29-0.08c-0.19-0.04-0.47-0.12-0.82-0.24
				c-0.7-0.24-1.71-0.65-2.78-1.44c-1.06-0.79-2.2-1.95-2.95-3.54c-0.76-1.57-1.16-3.54-0.89-5.54c0.27-2.01,1.2-3.76,1.97-5.34
				c0.8-1.58,1.45-3.05,1.74-4.37c0.31-1.31,0.28-2.43,0.13-3.16C311.83,142.54,311.63,142.17,311.63,142.17z"/>
		</g>
		<g>
			<path style="fill:#FFFFFF;" d="M303.36,144.01c-0.05,0.03,0.87,0.38,1.29,1.71c0.4,1.29,0.4,3.22,0.29,5.29
				c-0.13,2.08-0.49,3.94-0.83,5.27c-0.16,0.66-0.32,1.19-0.43,1.56c-0.11,0.37-0.17,0.57-0.15,0.58c0.01,0,0.09-0.19,0.23-0.55
				c0.13-0.36,0.31-0.89,0.49-1.55c0.37-1.32,0.76-3.19,0.89-5.29c0.07-1.05,0.07-2.05,0.02-2.96c-0.04-0.91-0.15-1.73-0.38-2.39
				c-0.23-0.66-0.6-1.12-0.91-1.36C303.57,144.08,303.36,144.01,303.36,144.01z"/>
		</g>
		<g>
			<path style="fill:#FFFFFF;" d="M299.85,156.64c0.02,0.01,0.25-0.39,0.56-1.07c0.29-0.68,0.68-1.68,0.64-2.85
				c-0.02-1.17-0.62-2.17-1.23-2.61c-0.3-0.23-0.59-0.35-0.8-0.41c-0.2-0.06-0.32-0.06-0.32-0.05c-0.01,0.04,0.47,0.1,1.03,0.57
				c0.57,0.45,1.1,1.38,1.12,2.51c0.04,1.12-0.31,2.1-0.57,2.79C300.01,156.2,299.82,156.62,299.85,156.64z"/>
		</g>
		<g>
			<path style="fill:#FFFFFF;" d="M316.42,140.44c-0.01,0-0.03,0.05-0.08,0.15c-0.05,0.1-0.12,0.26-0.2,0.46
				c-0.08,0.2-0.17,0.46-0.17,0.78c-0.01,0.32,0.11,0.68,0.28,1.03c0.32,0.72,0.87,1.47,1.38,2.35c0.52,0.87,1.01,1.89,1.42,2.99
				c0.84,2.2,1.27,4.3,1.59,5.81c0.13,0.66,0.26,1.25,0.37,1.8c0.09,0.42,0.14,0.66,0.16,0.65c0.01,0-0.02-0.24-0.08-0.67
				c-0.06-0.43-0.16-1.05-0.3-1.81c-0.28-1.52-0.7-3.63-1.54-5.86c-0.42-1.11-0.92-2.13-1.45-3.01c-0.53-0.88-1.09-1.62-1.42-2.31
				c-0.4-0.68-0.32-1.32-0.16-1.72C316.35,140.68,316.43,140.45,316.42,140.44z"/>
		</g>
	</g>
</g>
<g id="Light_bulb">
	<g>
		<g>
			<g>
				<path style="fill:#FF5F91;" d="M155.9,56.22c-0.15-14.14,11.2-25.73,25.34-25.88c14.14-0.15,25.73,11.2,25.88,25.34
					c0.11,10.24-5.81,19.14-14.46,23.33c0.03,3.03,0.07,6.46,0.07,6.46l-22.45,0.23c0,0-0.17-3.62-0.26-6.86
					C161.73,74.67,156,66.14,155.9,56.22z"/>
				<g>
					<path style="fill:#263238;" d="M178.4,85.51c0,0,0-0.11-0.03-0.32c-0.03-0.22-0.07-0.53-0.11-0.92
						c-0.11-0.81-0.26-2.01-0.51-3.54c-0.24-1.53-0.57-3.41-1.08-5.56c-0.52-2.14-1.23-4.57-2.4-7.1c-0.59-1.26-1.26-2.56-2.15-3.81
						c-0.45-0.61-1.02-1.21-1.77-1.55c-0.75-0.35-1.68-0.34-2.43,0.1c-0.37,0.22-0.68,0.59-0.8,1.02c-0.13,0.43-0.08,0.91,0.12,1.31
						c0.4,0.81,1.17,1.36,2,1.68c1.7,0.57,3.65,0.41,5.32-0.43c1.68-0.84,3.01-2.43,3.57-4.31c0.27-0.94,0.41-1.96,0.12-2.96
						c-0.25-0.99-1.23-1.87-2.35-1.76c-0.55,0.05-1.05,0.43-1.29,0.92c-0.25,0.48-0.31,1.05-0.19,1.58
						c0.26,1.07,1.04,1.86,1.83,2.53c1.63,1.32,3.83,2.04,5.99,1.67c2.14-0.36,4.05-1.8,4.91-3.74c0.45-0.96,0.55-2.11,0.14-3.1
						c-0.21-0.49-0.6-0.95-1.14-1.12c-0.52-0.2-1.11-0.09-1.58,0.16c-0.47,0.25-0.85,0.67-1.07,1.14c-0.23,0.47-0.34,0.98-0.38,1.48
						c-0.06,1,0.09,2,0.42,2.92c0.64,1.85,1.99,3.4,3.65,4.26c1.66,0.86,3.58,1.08,5.31,0.67c0.85-0.2,1.72-0.55,2.29-1.25
						c0.56-0.68,0.71-1.76,0.12-2.47c-0.29-0.34-0.73-0.52-1.16-0.55c-0.43-0.03-0.85,0.06-1.22,0.25
						c-0.76,0.38-1.21,1.09-1.55,1.77c-0.63,1.4-1.13,2.75-1.64,4.05c-1.99,5.18-3.4,9.45-4.35,12.41
						c-0.47,1.48-0.82,2.63-1.05,3.42c-0.11,0.38-0.2,0.68-0.26,0.89c-0.06,0.2-0.08,0.31-0.08,0.31s0.04-0.1,0.11-0.3
						c0.07-0.21,0.16-0.51,0.29-0.88c0.26-0.79,0.63-1.93,1.11-3.4c0.98-2.94,2.42-7.2,4.44-12.37c0.51-1.28,1.03-2.66,1.65-4.02
						c0.33-0.66,0.77-1.32,1.44-1.66c0.65-0.33,1.57-0.34,2.07,0.24c0.49,0.58,0.37,1.53-0.13,2.13c-0.51,0.62-1.32,0.96-2.15,1.15
						c-1.66,0.39-3.51,0.17-5.11-0.66c-1.6-0.82-2.89-2.32-3.51-4.1c-0.31-0.89-0.46-1.85-0.4-2.8c0.06-0.94,0.44-1.92,1.29-2.37
						c0.41-0.22,0.9-0.3,1.33-0.14c0.44,0.14,0.77,0.52,0.95,0.95c0.37,0.89,0.29,1.95-0.14,2.85c-0.82,1.84-2.65,3.22-4.68,3.56
						c-2.05,0.35-4.17-0.34-5.74-1.6c-0.76-0.64-1.5-1.41-1.72-2.35c-0.11-0.46-0.05-0.96,0.16-1.37c0.21-0.41,0.6-0.71,1.05-0.75
						c0.45-0.05,0.92,0.11,1.28,0.4c0.37,0.28,0.61,0.69,0.74,1.14c0.26,0.9,0.14,1.89-0.12,2.78c-0.53,1.81-1.81,3.34-3.41,4.14
						c-1.6,0.81-3.49,0.97-5.09,0.43c-0.78-0.29-1.49-0.83-1.85-1.54c-0.38-0.71-0.1-1.62,0.57-2c0.66-0.4,1.52-0.41,2.19-0.1
						c0.69,0.31,1.23,0.87,1.68,1.47c0.87,1.22,1.55,2.51,2.14,3.76c1.18,2.5,1.89,4.92,2.43,7.05c0.53,2.14,0.86,4.01,1.13,5.53
						c0.24,1.52,0.43,2.71,0.56,3.53c0.06,0.39,0.11,0.7,0.15,0.92C178.37,85.41,178.4,85.51,178.4,85.51z"/>
				</g>
				<path style="fill:#263238;" d="M172.05,89.84l19.27-0.2c0.8-0.01,1.44-0.66,1.43-1.46l0,0c-0.01-0.8-0.66-1.44-1.46-1.43
					l-19.27,0.2c-0.8,0.01-1.44,0.66-1.43,1.46l0,0C170.6,89.21,171.25,89.85,172.05,89.84z"/>
				<path style="fill:#263238;" d="M172.07,91.1l19.27-0.2c0.8-0.01,1.45,0.63,1.46,1.43c0.01,0.8-0.63,1.45-1.43,1.46l-2.12,0.02
					l-2.75,5.37c-0.31,0.61-0.94,1-1.63,1.01l-6.89,0.07c-0.7,0.01-1.34-0.38-1.66-0.99l-2.78-5.3L172.1,94
					c-0.8,0.01-1.45-0.63-1.46-1.43C170.63,91.77,171.27,91.11,172.07,91.1z"/>
			</g>
			<g style="opacity:0.2;">
				<path style="fill:#FFFFFF;" d="M197.79,39.46c-1.74-1.57-3.56-2.67-5.16-3.36c-1.61-0.69-2.99-1.02-3.96-1.11
					c-0.97-0.09-1.52,0.01-1.57,0.21c-0.11,0.47,1.84,1.14,4.48,2.85c2.62,1.68,5.92,4.64,7.93,8.85c2,4.21,2.23,8.64,1.88,11.74
					c-0.32,3.13-1.03,5.06-0.6,5.28c0.19,0.09,0.61-0.27,1.15-1.08c0.54-0.81,1.16-2.09,1.63-3.77c0.48-1.68,0.77-3.78,0.64-6.13
					c-0.12-2.34-0.7-4.91-1.87-7.39"/>
			</g>
			<g style="opacity:0.2;">
				<path style="fill:#FFFFFF;" d="M180.95,36.38c1.62-0.03,3.05-0.49,3.21-1.35c0.07-0.43-0.24-0.88-0.83-1.23
					c-0.59-0.35-1.46-0.58-2.43-0.57c-0.97,0.02-1.83,0.28-2.41,0.64c-0.58,0.37-0.87,0.83-0.79,1.25"/>
			</g>
			<g>
				<path style="fill:#455A64;" d="M176.68,99.73c0.02,0.05,0.51-0.18,1.32-0.42c0.81-0.24,1.97-0.47,3.26-0.45
					c1.29,0.03,2.44,0.29,3.25,0.57c0.8,0.27,1.28,0.52,1.3,0.47c0.02-0.03-0.42-0.35-1.23-0.68c-0.8-0.33-1.98-0.65-3.32-0.67
					c-1.33-0.02-2.53,0.24-3.34,0.55C177.12,99.4,176.67,99.7,176.68,99.73z"/>
			</g>
			<g>
				<path style="fill:#455A64;" d="M173.49,94.05c0,0.09,3.49,0.12,7.78,0.08c4.3-0.04,7.78-0.15,7.78-0.24
					c0-0.09-3.49-0.12-7.78-0.08C176.98,93.85,173.49,93.96,173.49,94.05z"/>
			</g>
			<g>
				<path style="fill:#455A64;" d="M174.72,96.32c0,0.04,0.72,0.11,1.9,0.17c1.18,0.06,2.8,0.11,4.6,0.12
					c1.8,0.01,3.42-0.03,4.6-0.09c1.18-0.05,1.9-0.12,1.9-0.16c0-0.04-0.73-0.06-1.91-0.06c-1.27,0-2.85,0-4.59-0.01
					c-1.74-0.01-3.32-0.02-4.59-0.03C175.45,96.27,174.73,96.28,174.72,96.32z"/>
			</g>
		</g>
		<g>
			<path style="fill:#263238;" d="M211.06,37.1c0.06,0.13,2.93-1.09,6.41-2.72c3.48-1.63,6.26-3.05,6.2-3.18
				c-0.06-0.13-2.93,1.09-6.41,2.72C213.77,35.55,211,36.98,211.06,37.1z"/>
		</g>
		<g>
			<path style="fill:#263238;" d="M197.38,25.19c0.06,0.04,0.84-1,2.04-2.73c1.2-1.73,2.8-4.14,4.5-6.86
				c1.7-2.72,3.17-5.22,4.19-7.05c1.03-1.83,1.61-2.99,1.55-3.03c-0.06-0.04-0.76,1.06-1.86,2.84c-1.18,1.9-2.67,4.31-4.31,6.97
				c-1.67,2.65-3.17,5.04-4.37,6.93C198,24.05,197.32,25.15,197.38,25.19z"/>
		</g>
		<g>
			<path style="fill:#263238;" d="M182.32,7.79c-0.14,0-0.36,3.27-0.49,7.3c-0.13,4.04-0.12,7.31,0.02,7.32
				c0.14,0,0.36-3.26,0.49-7.3C182.47,11.07,182.46,7.8,182.32,7.79z"/>
		</g>
		<g>
			<path style="fill:#263238;" d="M156.46,4.45c-0.13,0.06,1.9,4.63,4.52,10.2c2.62,5.57,4.85,10.04,4.98,9.98
				c0.13-0.06-1.9-4.62-4.52-10.2C158.81,8.85,156.58,4.39,156.46,4.45z"/>
		</g>
		<g>
			<path style="fill:#263238;" d="M145.5,25.19c-0.09,0.11,2.23,2.1,5.17,4.44c2.94,2.34,5.4,4.15,5.49,4.04
				c0.09-0.11-2.23-2.1-5.17-4.44C148.04,26.89,145.58,25.09,145.5,25.19z"/>
		</g>
	</g>
</g>
<g id="Cursor">
	<polygon style="fill:#263238;" points="89.6,225.15 86.36,242.37 83.69,237.56 77.96,246.15 75.1,244.22 80.83,235.63 
		75.57,234.82 	"/>
</g>
<g id="Character">
	<g>
		<g>
			<g>
				<g>
					<g>
						<g>
							<g>
								<g>
									<g>
										<path style="fill:#263238;" d="M144.43,234.12c-6.73-3.31-10.84-10.38-13.18-17.51c-2.35-7.13-3.33-14.67-5.96-21.7
											c-1.96-5.24,0.51-13.47-4.08-16.66c-5.75-4-5.45-14.25-3.08-19.31c2.58-5.52,9.33-9.51,9.82-11.26
											c1.29-4.61-2.63-9.72-1.03-14.23c3.76-10.6,12.43-9,12.43-9c4.08-4.71,9.58-10.94,18.33-12.99
											c9.49-2.23,23.43-3.72,31.72,1.41c8.28,5.13,14.38,8.57,16.88,17.99"/>
									</g>
								</g>
							</g>
						</g>
						<path style="fill:#FFBE9D;" d="M137.3,168.79c2.05-23.82,22.04-42.07,45.95-41.94l2.37,0.01
							c25.6,1.64,38.52,24.29,36.17,49.84l-1.18,128.55l-63.82-0.11l1.62-49.25c0,0-24.6-3.96-24.77-28.58
							C133.57,215.42,135.39,190.93,137.3,168.79z"/>
						<g>
							<g>
								<g>
									<g>
										<g>
											<g>
												<g>
													<path style="fill:#263238;" d="M148.22,187.28c-0.08,1.86,1.43,3.45,3.37,3.57c1.93,0.11,3.56-1.29,3.64-3.15
														c0.08-1.86-1.43-3.45-3.37-3.57C149.93,184.01,148.3,185.42,148.22,187.28z"/>
												</g>
											</g>
										</g>
									</g>
								</g>
							</g>
						</g>
						<g>
							<g>
								<g>
									<g>
										<g>
											<g>
												<g>
													<g>
														<path style="fill:#263238;" d="M142.16,179.55c0.43,0.46,3.11-1.5,6.89-1.47c3.78-0.02,6.54,1.94,6.96,1.48
															c0.2-0.2-0.24-1.03-1.44-1.92c-1.19-0.88-3.21-1.75-5.57-1.75c-2.36,0-4.34,0.86-5.49,1.74
															C142.35,178.52,141.95,179.35,142.16,179.55z"/>
													</g>
												</g>
											</g>
										</g>
									</g>
								</g>
							</g>
						</g>
						<g>
							<g>
								<g>
									<g>
										<g>
											<g>
												<g>
													<path style="fill:#263238;" d="M183.71,187.28c-0.08,1.86,1.43,3.45,3.37,3.56c1.93,0.11,3.57-1.29,3.64-3.15
														c0.08-1.86-1.43-3.45-3.37-3.57C185.42,184.01,183.78,185.42,183.71,187.28z"/>
												</g>
											</g>
										</g>
									</g>
								</g>
							</g>
						</g>
						<g>
							<g>
								<g>
									<g>
										<g>
											<g>
												<g>
													<g>
														<path style="fill:#263238;" d="M179.86,178.69c0.38,0.51,3.25-1.15,7.01-0.71c3.76,0.39,6.3,2.64,6.76,2.22
															c0.22-0.18-0.12-1.05-1.22-2.06c-1.08-1.01-3-2.08-5.34-2.34c-2.34-0.25-4.41,0.38-5.64,1.13
															C180.16,177.69,179.67,178.46,179.86,178.69z"/>
													</g>
												</g>
											</g>
										</g>
									</g>
								</g>
							</g>
						</g>
						<g>
							<g>
								<g>
									<g>
										<g>
											<g>
												<g>
													<path style="fill:#263238;" d="M165.82,209.73c0.02-0.22-2.33-0.63-6.14-1.14c-0.97-0.11-1.88-0.3-2.04-0.96
														c-0.22-0.7,0.19-1.74,0.66-2.86c0.92-2.33,1.88-4.78,2.9-7.34c4.02-10.45,6.94-19.05,6.52-19.2
														c-0.42-0.16-4.03,8.18-8.05,18.63c-0.97,2.58-1.9,5.03-2.78,7.38c-0.37,1.1-1.01,2.34-0.52,3.79
														c0.26,0.72,0.96,1.25,1.58,1.42c0.62,0.19,1.16,0.21,1.64,0.24C163.43,209.92,165.81,209.95,165.82,209.73z"/>
												</g>
											</g>
										</g>
									</g>
								</g>
							</g>
						</g>
						<g>
							<g>
								<g>
									<path style="fill:#263238;" d="M180.06,163.33c0.43,1,4.17,0.29,8.64,0.56c4.47,0.18,8.12,1.26,8.65,0.31
										c0.24-0.46-0.44-1.39-1.95-2.29c-1.49-0.91-3.83-1.71-6.51-1.85c-2.68-0.13-5.09,0.44-6.66,1.19
										C180.64,162,179.87,162.85,180.06,163.33z"/>
								</g>
							</g>
						</g>
						<g>
							<g>
								<g>
									<path style="fill:#263238;" d="M143.97,169.91c0.66,0.86,3.27-0.01,6.41-0.04c3.13-0.13,5.78,0.61,6.4-0.29
										c0.27-0.43-0.14-1.3-1.3-2.12c-1.14-0.82-3.05-1.49-5.2-1.44c-2.15,0.06-4.02,0.83-5.12,1.7
										C144.05,168.6,143.68,169.49,143.97,169.91z"/>
								</g>
							</g>
						</g>
						<g>
							<g>
								<g>
									<g>
										<g>
											<g>
												<g>
													<g>
														<g>
															<g>
																<g>
																	<g>
																		<path style="fill:#263238;" d="M204.48,129.05c-0.1,5.45-2.74,10.8-7,14.21c-4.26,3.4-10.06,4.8-15.4,3.69
																			c-4.14-0.85-8.66-3.06-12.31-0.93c-3.84,2.25-4.13,7.95-7.55,10.79c-4.9,4.06-12.44-0.02-18.58,1.65
																			c-4.74,1.29-7.78,5.72-10.99,9.44c-3.21,3.71-7.98,7.21-12.65,5.7c0.4-4.22,0.8-8.49,2.15-12.52
																			c1.35-4.02,3.76-7.84,7.36-10.07c1.98-1.22,4.26-1.95,6.1-3.37c3.98-3.07,5.01-8.53,7.52-12.88
																			c3.24-5.61,9.34-9.46,15.79-9.97c5.37-0.43,10.85,1.31,16.11,0.11c3.88-0.89,7.31-3.32,11.24-3.97
																			c7.65-1.28,14.61,4.35,20,9.92"/>
																	</g>
																</g>
															</g>
														</g>
													</g>
												</g>
											</g>
										</g>
										<g>
											<g>
												<path style="fill:#263238;" d="M179.86,139.34c3.44-0.9,10.47-2.95,12.37-5.87c4.12-6.34,11.23-10.58,18.39-10.02
													c7.16,0.55,13.91,6.37,15.2,13.96c8.67,0.26,17,5.9,20.98,14.18c3.98,8.29,3.43,18.89-1.37,26.68
													c-1.26,2.04-2.84,4.07-2.93,6.52c-0.11,3.03,2.08,5.48,3.6,8.02c4.16,6.93,3.62,16.31,0.12,23.68
													c-3.5,7.37-5.91,9.93-10.69,11.31c-9.36,2.71-0.54,21.6-16,21.26l-1.87-55.44c-0.39,0.2-0.87,0.38-1.46,0.5
													c-9.2,1.86-10-16.03-7.84-21.1c-3.24-3.01-6.52-6.07-8.96-9.86c-2.44-3.79-4.44-14.02-3.79-18.59
													C192.3,144.69,178.35,139.73,179.86,139.34z"/>
											</g>
										</g>
									</g>
								</g>
							</g>
						</g>
						<g>
							<g>
								<g>
									<g>
										<g>
											<g>
												<g>
													<g>
														<g>
															<g>
																<g>
																	<g>
																		<g>
																			<g>
																				<g>
																					<g>
																						<g>
																							<path style="fill:#FFBE9D;" d="M216.37,193.95c0.42-0.18,16.94-4.91,16.31,11.92
																								c-0.63,16.83-17.39,12.72-17.4,12.24C215.26,217.62,216.37,193.95,216.37,193.95z"/>
																						</g>
																					</g>
																				</g>
																			</g>
																		</g>
																	</g>
																</g>
															</g>
														</g>
													</g>
												</g>
											</g>
										</g>
									</g>
								</g>
							</g>
							<g>
								<g>
									<g>
										<g>
											<g>
												<g>
													<g>
														<g>
															<g>
																<g>
																	<g>
																		<g>
																			<g>
																				<g>
																					<g>
																						<g>
																							<g>
																								<path style="fill:#EB996E;" d="M220.65,211.93c0.08-0.05,0.29,0.22,0.77,0.46c0.47,0.24,1.3,0.42,2.19,0.13
																									c1.8-0.59,3.4-3.35,3.6-6.38c0.1-1.53-0.17-3-0.66-4.23c-0.47-1.25-1.23-2.14-2.12-2.33
																									c-0.88-0.24-1.54,0.27-1.76,0.74c-0.24,0.46-0.15,0.8-0.24,0.83c-0.05,0.04-0.35-0.3-0.19-0.99
																									c0.08-0.33,0.29-0.72,0.7-1.03c0.42-0.31,1.02-0.46,1.64-0.37c1.29,0.14,2.42,1.38,2.96,2.72
																									c0.62,1.36,0.95,3.01,0.84,4.73c-0.23,3.39-2.09,6.49-4.55,7.11c-1.2,0.27-2.17-0.13-2.66-0.54
																									C220.67,212.33,220.59,211.95,220.65,211.93z"/>
																							</g>
																						</g>
																					</g>
																				</g>
																			</g>
																		</g>
																	</g>
																</g>
															</g>
														</g>
													</g>
												</g>
											</g>
										</g>
									</g>
								</g>
							</g>
						</g>
						<g>
							<path style="fill:#263238;" d="M243.68,221.42c-2.11,2.17-3.2,5.28-2.91,8.29c0.29,3.01,1.97,5.86,4.45,7.58
								c-1.4,1.21-3.31,1.82-5.15,1.63c-0.7,2.11,2.25,3.62,2.8,5.77c0.33,1.29-0.29,2.68-1.26,3.59c-0.97,0.91-2.25,1.42-3.51,1.85
								c-3.76,1.26-7.72,1.93-11.68,1.97c-2.31,0.02-4.9-0.31-6.35-2.11c-1.21-1.5-1.27-3.58-1.29-5.5
								c-0.03-4.79-0.06-9.57-0.1-14.36c-0.01-1.41,0.01-2.93,0.84-4.08c0.94-1.31,2.65-1.76,4.22-2.12
								c6.84-1.58,13.68-3.16,20.52-4.74"/>
						</g>
					</g>
					<path style="fill:#EB996E;" d="M158.42,255.89c0,0,22.49-2.93,35.77-12.6c0,0-7.36,20.37-35.92,20.31L158.42,255.89z"/>
				</g>
				<g>
					<g>
						<g>
							<g>
								<g>
									<g>
										<g>
											<g>
												<path style="fill:#263238;" d="M178.55,211.58c-0.61-0.08-0.91,4.03-4.63,6.69c-3.71,2.68-8.06,1.91-8.13,2.48
													c-0.07,0.25,0.92,0.87,2.76,1.05c1.81,0.19,4.49-0.21,6.77-1.84c2.27-1.64,3.36-3.96,3.62-5.63
													C179.22,212.63,178.84,211.58,178.55,211.58z"/>
											</g>
										</g>
									</g>
								</g>
							</g>
						</g>
					</g>
				</g>
			</g>
			<g>
				<path style="fill:#455A64;" d="M239.65,185.56c0.01,0.01,0.21-0.13,0.57-0.42c0.33-0.33,0.84-0.82,1.25-1.62
					c0.85-1.55,1.33-4.35,0.12-7.35c-0.61-1.5-1.69-2.92-3.05-4.2c-1.37-1.28-3.05-2.4-4.86-3.43c-1.82-1.04-3.79-1.99-5.73-3.13
					c-1.93-1.14-3.86-2.49-5.36-4.32c-1.51-1.82-2.5-3.96-3.32-6.05c-0.82-2.1-1.47-4.19-2.27-6.13c-0.79-1.94-1.7-3.73-2.84-5.23
					c-1.14-1.49-2.48-2.68-3.92-3.4c-2.93-1.41-5.77-1.04-7.33-0.24c-0.82,0.38-1.31,0.89-1.65,1.21c-0.3,0.36-0.44,0.56-0.43,0.57
					c0.05,0.07,0.57-0.86,2.16-1.6c1.54-0.73,4.3-1.02,7.09,0.38c1.37,0.71,2.66,1.87,3.75,3.33c1.09,1.47,1.98,3.23,2.74,5.15
					c0.77,1.92,1.42,4.01,2.24,6.14c0.83,2.11,1.83,4.31,3.39,6.2c1.56,1.9,3.54,3.28,5.5,4.43c1.97,1.15,3.94,2.1,5.75,3.11
					c1.81,1.01,3.46,2.09,4.81,3.33c1.34,1.23,2.41,2.61,3.01,4.03c1.21,2.88,0.81,5.6,0.03,7.12
					C240.5,185,239.59,185.51,239.65,185.56z"/>
			</g>
			<g>
				<path style="fill:#455A64;" d="M134.44,180.04c0.01-0.01-0.06-0.09-0.2-0.24c-0.16-0.17-0.37-0.39-0.62-0.67
					c-0.52-0.61-1.32-1.5-2.16-2.78c-0.85-1.27-1.79-2.9-2.56-4.92c-0.78-2.02-1.41-4.43-1.6-7.15c-0.2-2.71,0.12-5.73,1.09-8.78
					c0.97-3.04,2.62-6.12,5.01-8.8c1.19-1.35,2.59-2.55,4.1-3.7c1.49-1.16,3.07-2.33,4.43-3.82c1.39-1.48,2.27-3.38,2.99-5.29
					c0.74-1.89,1.39-3.88,2.66-5.48c0.63-0.79,1.43-1.44,2.33-1.85c0.9-0.42,1.89-0.61,2.88-0.62c1.99-0.02,3.93,0.59,5.72,1.34
					c1.79,0.77,3.5,1.72,5.27,2.45c1.76,0.73,3.62,1.28,5.49,1.21c1.89-0.03,3.6-0.8,5.11-1.61c1.52-0.81,2.95-1.66,4.47-2.13
					c3.03-0.97,6.15-0.76,8.69,0.14c2.57,0.88,4.56,2.47,5.9,4.15c1.35,1.69,2.12,3.43,2.54,4.88c0.43,1.46,0.53,2.66,0.56,3.46
					c0.03,0.8-0.01,1.23,0.02,1.23c0,0,0.08-0.42,0.08-1.23c0.01-0.81-0.06-2.02-0.47-3.51c-0.4-1.49-1.16-3.27-2.51-5.01
					c-1.35-1.73-3.37-3.39-6.01-4.31c-2.6-0.94-5.8-1.18-8.94-0.2c-1.58,0.48-3.04,1.35-4.55,2.14c-1.51,0.79-3.14,1.51-4.91,1.53
					c-1.77,0.05-3.57-0.47-5.29-1.19c-1.74-0.72-3.43-1.67-5.26-2.46c-1.83-0.77-3.82-1.4-5.92-1.38c-1.05,0.01-2.11,0.21-3.09,0.67
					c-0.98,0.45-1.84,1.15-2.51,2c-1.34,1.71-2,3.74-2.73,5.62c-0.72,1.9-1.56,3.71-2.89,5.13c-1.3,1.44-2.86,2.6-4.35,3.77
					c-1.51,1.15-2.95,2.38-4.15,3.77c-2.43,2.75-4.09,5.89-5.06,8.99c-0.97,3.11-1.27,6.18-1.05,8.93c0.21,2.76,0.87,5.2,1.69,7.23
					c0.81,2.04,1.79,3.67,2.66,4.93C133.08,178.98,134.44,180.04,134.44,180.04z"/>
			</g>
		</g>
		<g>
			<path style="fill:#455A64;" d="M319.68,362.3c0,0-26.88-78.22-31.73-81.85c-15.76-11.82-66.53-20.95-66.53-20.95
				s-12.76,33.69-36.23,33.44c-23.66-0.24-31.25-25.55-31.25-25.55s-33.59-1.37-47.25,5.17c-5.46,2.62-41.53,73.8-41.53,73.8
				l39.5,15.87l-11.03,80.62L292,442.94l-1.88-79.95L319.68,362.3z"/>
			<g>
				<path style="fill:#263238;" d="M272.1,301.91c0.1,0.1,3.49-3.03,7.58-6.99c4.09-3.96,7.32-7.26,7.22-7.36
					c-0.1-0.1-3.49,3.03-7.58,6.99C275.24,298.52,272.01,301.81,272.1,301.91z"/>
			</g>
			<g>
				<path style="fill:#263238;" d="M216.51,270.01c-0.04,0.14,1.19,0.54,2.56,1.31c1.38,0.76,2.37,1.59,2.47,1.48
					c0.1-0.09-0.78-1.13-2.22-1.92C217.88,270.07,216.54,269.88,216.51,270.01z"/>
			</g>
			<g>
				<path style="fill:#263238;" d="M213.81,283.93c0.13-0.01-0.03-1.34-1.07-2.56c-1.03-1.23-2.32-1.61-2.35-1.48
					c-0.06,0.14,1.03,0.69,1.96,1.81C213.31,282.81,213.67,283.97,213.81,283.93z"/>
			</g>
			<g>
				<path style="fill:#263238;" d="M207.07,290.68c0.12-0.07-0.39-1.12-1.13-2.34c-0.75-1.22-1.45-2.15-1.57-2.08
					s0.39,1.12,1.13,2.34C206.25,289.83,206.95,290.76,207.07,290.68z"/>
			</g>
			<g>
				<path style="fill:#263238;" d="M194.49,296.14c0.14-0.02,0.1-1.02-0.08-2.24c-0.19-1.22-0.45-2.19-0.59-2.17
					c-0.14,0.02-0.1,1.02,0.08,2.24C194.09,295.19,194.35,296.16,194.49,296.14z"/>
			</g>
			<g>
				<path style="fill:#263238;" d="M182.99,298.18c0.15,0,0.23-1.35,0.66-2.95c0.41-1.6,1-2.82,0.87-2.89
					c-0.11-0.07-0.93,1.09-1.36,2.76C182.71,296.77,182.86,298.18,182.99,298.18z"/>
			</g>
			<g>
				<path style="fill:#263238;" d="M170.07,296.14c0.15,0.02,0.39-1.48,0.95-3.24c0.55-1.77,1.21-3.13,1.08-3.2
					c-0.11-0.07-1,1.22-1.57,3.05C169.95,294.57,169.94,296.13,170.07,296.14z"/>
			</g>
			<g>
				<path style="fill:#263238;" d="M160.57,289.36c0.15,0.02,0.37-1.51,1.33-3.1c0.93-1.6,2.16-2.54,2.07-2.66
					c-0.05-0.12-1.51,0.69-2.51,2.4C160.45,287.71,160.44,289.37,160.57,289.36z"/>
			</g>
			<g>
				<path style="fill:#FAFAFA;" d="M239.32,277.11c0-0.01-0.07,0.07-0.21,0.24c-0.16,0.2-0.37,0.45-0.62,0.75
					c-0.57,0.72-1.36,1.7-2.35,2.93c-2.07,2.61-4.96,6.28-8.43,10.66l-0.11,0.14l0.11,0.14c3.4,4.24,7.41,9.22,11.69,14.55l0.2,0.25
					l0.2-0.25c0.03-0.04,0.06-0.08,0.1-0.12c4.22-5.27,8.18-10.22,11.56-14.43l0.11-0.14l-0.11-0.14
					c-3.62-4.37-6.65-8.03-8.82-10.65c-1.03-1.23-1.86-2.22-2.46-2.93c-0.26-0.31-0.47-0.55-0.64-0.75
					C239.39,277.18,239.32,277.1,239.32,277.11c0,0.01,0.08,0.12,0.22,0.31c0.17,0.22,0.38,0.49,0.64,0.82
					c0.59,0.74,1.4,1.77,2.41,3.05c2.09,2.62,5.03,6.29,8.53,10.67l0-0.28c-3.39,4.2-7.37,9.13-11.61,14.39
					c-0.03,0.04-0.07,0.08-0.1,0.12l0.4,0c-4.3-5.31-8.33-10.28-11.75-14.5l0,0.27c3.35-4.39,6.15-8.06,8.14-10.68
					c0.96-1.28,1.73-2.3,2.29-3.05c0.25-0.33,0.45-0.6,0.61-0.82C239.25,277.23,239.32,277.12,239.32,277.11z"/>
			</g>
			<g>
				<path style="fill:#FAFAFA;" d="M262.04,269.13c-0.03,0.02,0.17,0.32,0.56,0.85c0.39,0.53,0.96,1.28,1.67,2.2
					c1.43,1.84,3.42,4.36,5.65,7.12c0.82,1.01,1.61,1.99,2.35,2.9l0.19,0.24l0.19-0.24c1.65-2.07,3.05-3.88,4.04-5.17
					c0.98-1.29,1.54-2.07,1.5-2.11c-0.04-0.04-0.69,0.68-1.74,1.92c-1.05,1.24-2.5,3-4.18,5.05l0.38,0
					c-0.73-0.91-1.52-1.89-2.33-2.91c-2.23-2.76-4.27-5.25-5.77-7.03c-0.75-0.89-1.36-1.61-1.79-2.09
					C262.32,269.37,262.07,269.11,262.04,269.13z"/>
			</g>
			<g>
				<path style="fill:#FAFAFA;" d="M310.99,336.97c-0.02-0.01-0.22,0.21-0.58,0.63c-0.4,0.48-0.91,1.11-1.53,1.87
					c-1.35,1.69-3.19,4.01-5.38,6.76l0.34,0c-2.31-2.88-5.03-6.27-7.94-9.9c-1.3-1.61-2.57-3.18-3.76-4.65l0,0.31
					c3.23-4.22,6.05-7.89,8.11-10.59c0.96-1.28,1.74-2.33,2.33-3.12c0.54-0.73,0.82-1.14,0.79-1.16c-0.02-0.02-0.35,0.35-0.93,1.06
					c-0.62,0.77-1.44,1.78-2.44,3.03c-2.1,2.67-4.96,6.3-8.25,10.48l-0.12,0.15l0.12,0.15c1.19,1.47,2.45,3.04,3.75,4.66
					c2.93,3.61,5.67,6.99,7.99,9.85l0.17,0.22l0.17-0.22c2.14-2.8,3.93-5.16,5.24-6.88c0.59-0.79,1.07-1.44,1.44-1.94
					C310.84,337.23,311.01,336.98,310.99,336.97z"/>
			</g>
			<g>
				<path style="fill:#FAFAFA;" d="M233.22,355.91c0-0.01-0.08,0.06-0.23,0.21c-0.18,0.18-0.41,0.41-0.69,0.69
					c-0.65,0.65-1.53,1.55-2.64,2.67c-2.33,2.39-5.59,5.73-9.49,9.72l-0.12,0.12l0.1,0.15c2.95,4.57,6.41,9.94,10.11,15.68
					l0.17,0.27l0.22-0.22c0.03-0.03,0.07-0.07,0.11-0.11c4.75-4.8,9.2-9.31,12.99-13.15l0.13-0.13l-0.1-0.15
					c-3.15-4.73-5.78-8.68-7.66-11.51c-0.9-1.33-1.62-2.4-2.14-3.17c-0.23-0.33-0.41-0.6-0.56-0.82
					C233.28,355.98,233.22,355.89,233.22,355.91s0.06,0.12,0.19,0.33c0.15,0.23,0.33,0.53,0.55,0.88c0.51,0.8,1.2,1.9,2.08,3.28
					c1.81,2.82,4.35,6.78,7.38,11.5l0.03-0.28c-3.81,3.83-8.28,8.32-13.04,13.1c-0.04,0.04-0.07,0.08-0.11,0.11l0.39,0.04
					c-3.72-5.73-7.21-11.09-10.17-15.65l-0.03,0.27c3.79-4.02,6.95-7.38,9.21-9.77c1.09-1.17,1.96-2.11,2.6-2.79
					c0.28-0.3,0.51-0.55,0.69-0.75C233.13,356.01,233.22,355.92,233.22,355.91z"/>
			</g>
			<g>
				<path style="fill:#FAFAFA;" d="M265.64,350.91c-0.02-0.02-0.28,0.2-0.75,0.63c-0.52,0.49-1.18,1.11-1.99,1.87l0.23,0.02
					c-1.85-2.98-4.96-7.86-8.51-13.34c-0.53-0.81-1.05-1.62-1.54-2.38l-0.03,0.31c3.27-3.42,6.13-6.45,8.17-8.64
					c0.97-1.05,1.76-1.92,2.38-2.59c0.55-0.62,0.84-0.96,0.82-0.99c-0.02-0.02-0.36,0.28-0.95,0.86c-0.65,0.65-1.48,1.48-2.49,2.49
					c-2.1,2.13-5.01,5.12-8.29,8.52l-0.14,0.14l0.11,0.17c0.49,0.76,1.01,1.57,1.54,2.38c3.55,5.48,6.73,10.32,8.69,13.23l0.1,0.15
					l0.12-0.13c0.77-0.8,1.4-1.45,1.89-1.97C265.43,351.19,265.66,350.93,265.64,350.91z"/>
			</g>
			<g>
				<path style="fill:#FAFAFA;" d="M194.95,389.5c0-0.01-0.08,0.06-0.23,0.21c-0.18,0.18-0.41,0.41-0.69,0.69
					c-0.65,0.65-1.53,1.55-2.64,2.67c-2.33,2.39-5.59,5.73-9.49,9.72l-0.12,0.12l0.1,0.15c2.95,4.57,6.41,9.94,10.11,15.68
					l0.17,0.27l0.22-0.22c0.03-0.03,0.07-0.07,0.11-0.11c4.75-4.8,9.2-9.31,12.99-13.15l0.13-0.13l-0.1-0.15
					c-3.15-4.73-5.78-8.68-7.66-11.51c-0.9-1.33-1.62-2.4-2.14-3.17c-0.23-0.33-0.41-0.6-0.56-0.82
					C195.02,389.58,194.96,389.49,194.95,389.5c0,0.01,0.06,0.12,0.19,0.33c0.15,0.23,0.33,0.53,0.55,0.88
					c0.51,0.8,1.2,1.9,2.08,3.28c1.81,2.82,4.35,6.78,7.38,11.5l0.03-0.28c-3.81,3.83-8.28,8.32-13.04,13.1
					c-0.04,0.04-0.07,0.08-0.11,0.11l0.39,0.04c-3.72-5.73-7.21-11.09-10.17-15.65l-0.03,0.27c3.79-4.02,6.95-7.38,9.21-9.77
					c1.09-1.17,1.96-2.11,2.6-2.79c0.28-0.3,0.51-0.55,0.69-0.75C194.87,389.61,194.95,389.52,194.95,389.5z"/>
			</g>
			<g>
				<path style="fill:#FAFAFA;" d="M150.79,345.36c0-0.01-0.08,0.06-0.23,0.21c-0.18,0.18-0.41,0.41-0.69,0.69
					c-0.65,0.65-1.53,1.55-2.64,2.67c-2.33,2.39-5.59,5.73-9.49,9.72l-0.12,0.12l0.1,0.15c2.95,4.57,6.41,9.94,10.11,15.68
					l0.17,0.27l0.22-0.22c0.03-0.03,0.07-0.07,0.11-0.11c4.75-4.8,9.2-9.31,12.99-13.15l0.13-0.13l-0.1-0.15
					c-3.15-4.73-5.78-8.68-7.66-11.51c-0.9-1.33-1.62-2.4-2.14-3.17c-0.23-0.33-0.41-0.6-0.56-0.82
					C150.85,345.44,150.79,345.35,150.79,345.36s0.06,0.12,0.19,0.33c0.15,0.23,0.33,0.53,0.55,0.88c0.51,0.8,1.2,1.9,2.08,3.28
					c1.81,2.82,4.35,6.78,7.38,11.5l0.03-0.28c-3.81,3.83-8.28,8.32-13.04,13.1c-0.04,0.04-0.07,0.08-0.11,0.11l0.39,0.04
					c-3.72-5.73-7.21-11.09-10.17-15.65l-0.03,0.27c3.79-4.02,6.95-7.38,9.21-9.77c1.09-1.17,1.96-2.11,2.6-2.79
					c0.28-0.3,0.51-0.55,0.69-0.75C150.7,345.47,150.79,345.37,150.79,345.36z"/>
			</g>
			<g>
				<path style="fill:#FAFAFA;" d="M112.59,282.53c0-0.01-0.08,0.06-0.23,0.21c-0.18,0.18-0.41,0.41-0.69,0.69
					c-0.65,0.65-1.53,1.55-2.64,2.67c-2.33,2.39-5.59,5.73-9.49,9.72l-0.12,0.12l0.1,0.15c2.95,4.57,6.41,9.94,10.11,15.68
					l0.17,0.27l0.22-0.22c0.03-0.03,0.07-0.07,0.11-0.11c4.75-4.8,9.2-9.31,12.99-13.15l0.13-0.13l-0.1-0.15
					c-3.15-4.73-5.78-8.68-7.66-11.51c-0.9-1.33-1.62-2.4-2.14-3.17c-0.23-0.33-0.41-0.6-0.56-0.82
					C112.66,282.61,112.59,282.52,112.59,282.53c0,0.01,0.06,0.12,0.19,0.33c0.15,0.23,0.33,0.53,0.55,0.88
					c0.51,0.8,1.2,1.9,2.08,3.28c1.81,2.82,4.35,6.78,7.38,11.5l0.03-0.28c-3.81,3.83-8.28,8.32-13.04,13.1
					c-0.04,0.04-0.07,0.07-0.11,0.11l0.39,0.04c-3.72-5.73-7.21-11.09-10.17-15.65l-0.03,0.27c3.79-4.02,6.95-7.38,9.21-9.77
					c1.09-1.17,1.96-2.11,2.6-2.79c0.28-0.3,0.51-0.55,0.69-0.75C112.51,282.64,112.59,282.55,112.59,282.53z"/>
			</g>
			<g>
				<path style="fill:#FAFAFA;" d="M67.9,340.99c-0.02,0.01,0.14,0.26,0.44,0.71c0.36,0.5,0.81,1.14,1.36,1.92
					c1.25,1.7,2.94,4.02,4.95,6.76l0.12,0.17l0.18-0.11c2.7-1.69,5.83-3.65,9.16-5.74c0.99-0.62,1.96-1.24,2.89-1.82l0.22-0.14
					l-0.14-0.21c-2.94-4.44-5.54-8.37-7.46-11.27c-0.92-1.35-1.68-2.46-2.25-3.31c-0.54-0.77-0.84-1.18-0.87-1.17
					c-0.03,0.02,0.23,0.46,0.72,1.26c0.54,0.86,1.25,2,2.12,3.39c1.88,2.92,4.44,6.88,7.32,11.36l0.08-0.35
					c-0.93,0.58-1.9,1.2-2.89,1.82c-3.32,2.11-6.44,4.09-9.13,5.79l0.3,0.05c-2.07-2.7-3.81-4.98-5.09-6.65
					c-0.59-0.75-1.08-1.36-1.46-1.85C68.11,341.2,67.92,340.98,67.9,340.99z"/>
			</g>
			<g>
				<path style="fill:#FAFAFA;" d="M189.13,307.07c0-0.01-0.08,0.06-0.23,0.21c-0.18,0.18-0.41,0.41-0.69,0.69
					c-0.65,0.65-1.53,1.55-2.64,2.67c-2.33,2.39-5.59,5.73-9.49,9.72l-0.12,0.12l0.1,0.15c2.95,4.57,6.41,9.94,10.11,15.68
					l0.17,0.27l0.22-0.22c0.03-0.03,0.07-0.07,0.11-0.11c4.75-4.8,9.2-9.31,12.99-13.15l0.13-0.13l-0.1-0.15
					c-3.15-4.73-5.78-8.68-7.66-11.51c-0.9-1.33-1.62-2.4-2.14-3.17c-0.23-0.33-0.41-0.6-0.56-0.82
					C189.19,307.14,189.13,307.05,189.13,307.07c0,0.01,0.06,0.12,0.19,0.33c0.15,0.23,0.33,0.53,0.55,0.88
					c0.51,0.8,1.2,1.9,2.08,3.28c1.81,2.82,4.35,6.78,7.38,11.5l0.03-0.28c-3.81,3.83-8.28,8.32-13.04,13.1
					c-0.04,0.04-0.07,0.08-0.11,0.11l0.39,0.04c-3.72-5.73-7.21-11.09-10.17-15.65l-0.03,0.27c3.79-4.02,6.95-7.38,9.21-9.77
					c1.09-1.17,1.96-2.11,2.6-2.79c0.28-0.3,0.51-0.55,0.69-0.75C189.04,307.17,189.13,307.08,189.13,307.07z"/>
			</g>
			<g style="opacity:0.3;">
				<path d="M264.26,327.14c1.88,23.08,3.41,45.62,5.8,68.72l-1.31,0.22C261.39,374.16,262.14,350.16,264.26,327.14z"/>
			</g>
			<g>
				<path style="fill:#263238;" d="M263.96,318.51c-0.14,0.01,0.5,11.97,1.42,26.72c0.93,14.75,1.79,26.7,1.93,26.69
					c0.14-0.01-0.5-11.97-1.42-26.72C264.97,330.46,264.1,318.5,263.96,318.51z"/>
			</g>
			<g style="opacity:0.3;">
				<path d="M128.56,368.22c5.24-25.04,12.49-49.6,19.76-74.13c1.12-3.78,2.27-7.62,4.44-10.91c2.17-3.29,5.55-6.01,9.47-6.43
					l-0.29,5.05c-6.83,21.5-8.71,44.21-13.04,66.35c-4.33,22.14-11.6,44.61-27.05,61.05C123.48,395.45,125.73,381.78,128.56,368.22z
					"/>
			</g>
		</g>
		<g>
			<g>
				<g>
					<path style="fill:#FFBE9D;" d="M115.68,406.47c4.61,0,31.66,9.84,31.66,9.84s88.2-14.82,122.75-20.5l-3.07-32.15l45.03-1.18
						l9.18,38.24l0.13,0.51c2.78,10.67,1.55,22.07-3.79,31.71c-3.03,5.47-7.93,11.13-12.89,11.13c-26.55,0-165.74,0.1-165.74,0.1
						l-22.24-0.33c-4.61-3.58-1.54-1.02-5.63-0.51c-4.1,0.51-17.41-0.51-17.41-0.51s-7.68-0.51-10.24-4.61
						c-2.56-4.1-6.14-14.33-6.14-15.87C77.28,420.8,111.07,406.47,115.68,406.47z"/>
				</g>
				<path style="fill:#EB996E;" d="M98.75,428.62c-0.01,0.03,0.26,0.21,0.76,0.51c0.5,0.3,1.24,0.72,2.16,1.23
					c1.83,1.02,4.38,2.41,7.2,3.92c1.4,0.77,2.8,1.41,3.87,2.23c1.09,0.81,1.79,1.86,1.92,2.87c0.16,1-0.11,1.83-0.43,2.29
					c-0.33,0.46-0.63,0.62-0.6,0.66c0.01,0.01,0.08-0.02,0.22-0.1c0.14-0.08,0.32-0.23,0.52-0.46c0.39-0.46,0.74-1.35,0.6-2.44
					c-0.07-0.54-0.25-1.13-0.6-1.67c-0.34-0.54-0.82-1.04-1.38-1.48c-1.12-0.88-2.52-1.54-3.92-2.3c-2.82-1.51-5.39-2.85-7.26-3.8
					c-0.93-0.48-1.69-0.85-2.22-1.11C99.06,428.72,98.76,428.59,98.75,428.62z"/>
				<path style="fill:#EB996E;" d="M92.86,431.58c0,0.05,0.41,0.15,1.1,0.11c0.68-0.04,1.62-0.26,2.55-0.76
					c0.92-0.51,1.61-1.18,2.01-1.74c0.4-0.55,0.55-0.96,0.5-0.98c-0.11-0.08-0.96,1.38-2.73,2.33
					C94.54,431.51,92.85,431.45,92.86,431.58z"/>
			</g>
			<g>
				<path style="fill:#EB996E;" d="M269.48,395.78c-0.01,0.1,1.92,0.29,4.95,1.08c1.51,0.38,3.28,0.97,5.19,1.75
					c1.9,0.8,3.93,1.81,5.96,3.05c2.02,1.26,3.82,2.64,5.38,3.99c1.54,1.37,2.85,2.69,3.87,3.87c2.05,2.36,3.08,4.01,3.17,3.95
					c0.03-0.02-0.22-0.44-0.69-1.18c-0.23-0.38-0.52-0.83-0.91-1.32c-0.38-0.5-0.78-1.09-1.3-1.68c-0.99-1.23-2.29-2.59-3.83-3.99
					c-1.56-1.38-3.38-2.79-5.42-4.07c-2.05-1.26-4.12-2.27-6.05-3.05c-1.94-0.76-3.74-1.32-5.28-1.66c-0.76-0.2-1.47-0.31-2.08-0.42
					c-0.61-0.12-1.15-0.18-1.59-0.22C269.97,395.78,269.48,395.75,269.48,395.78z"/>
			</g>
			<g>
				<path style="fill:#FFBE9D;" d="M142.43,246.83c0,0,7.57-2.92,6.49-6.74c-1.07-3.81-3.97-6.32-3.97-6.32s-5.66-7.36-7.63-7.59
					c-1.97-0.24-4.11,2.27-4.11,2.27s-3.73-2.92-6.35-1.5c-2.62,1.42-7.77,5.32-7.77,5.32s-7,0.15-8.02,2.18
					c-1.01,2.03-4.78,12.17-4.78,12.17s0.44,7.11,3.01,8.9c2.04,1.42,18.48,15.74,18.48,15.74s-24.51,52.61-33.01,68.93
					c-6.53,12.53-31.97,51.14-32.26,57.4c-0.3,6.26-3.12,15.05,1.56,20.14c4.68,5.09,4.9,17.94,15.56,19.84
					c10.67,1.9,10.63,3.32,17.05-1.32c6.41-4.63,27.89-17.36,35.53-59.65c7.64-42.29,25.92-93.2,25.92-93.2s7.03-9.9,6.91-11.45
					c-0.12-1.55,0.47-9-5.28-12.84S142.43,246.83,142.43,246.83z"/>
				<path style="fill:#EB996E;" d="M123.39,251.06c0.02-0.03-0.35-0.26-0.95-0.74c-0.6-0.49-1.41-1.26-2.27-2.34
					c-0.86-1.08-1.75-2.47-2.68-4.04c-0.47-0.79-0.97-1.61-1.36-2.51c-0.38-0.89-0.64-1.9-0.48-2.9c0.15-1.01,0.68-1.9,1.29-2.66
					c0.62-0.76,1.32-1.42,1.98-2.05c1.33-1.27,2.51-2.43,3.53-3.36c1.02-0.93,1.9-1.64,2.5-2.12c0.61-0.48,0.95-0.75,0.93-0.77
					c-0.01-0.02-0.38,0.2-1.02,0.65c-0.64,0.45-1.54,1.12-2.6,2.03c-1.06,0.91-2.26,2.05-3.6,3.3c-0.67,0.62-1.39,1.28-2.03,2.07
					c-0.64,0.78-1.21,1.74-1.38,2.84c-0.18,1.11,0.11,2.19,0.51,3.12c0.41,0.94,0.93,1.76,1.4,2.54c0.95,1.57,1.87,2.96,2.78,4.03
					c0.9,1.08,1.76,1.83,2.39,2.29c0.32,0.22,0.58,0.39,0.76,0.48C123.28,251.02,123.38,251.07,123.39,251.06z"/>
				<path style="fill:#EB996E;" d="M111.07,234.45c0.01,0.01,0.1-0.16,0.35-0.42c0.26-0.25,0.74-0.52,1.41-0.77
					c1.35-0.48,3.48-0.83,6.25-0.92l0.02,0l0.02-0.01c1.61-1.2,3.54-2.61,5.82-4.1c1.15-0.68,2.34-1.73,3.88-1.54
					c1.5,0.13,2.98,0.89,4.31,1.86l0.09,0.06l0.07-0.08c0.74-0.8,1.62-1.57,2.68-2.01c0.52-0.2,1.14-0.33,1.65-0.11
					c0.52,0.24,1.01,0.62,1.47,1.03c1.84,1.65,3.52,3.67,5.23,5.79c0.87,1.06,1.65,2.2,2.32,3.45c0.65,1.25,1.26,2.59,1.58,4.01
					c0.02,0.17,0.08,0.35,0.06,0.52l-0.04,0.53c-0.1,0.34-0.2,0.69-0.4,1c-0.37,0.63-0.88,1.19-1.47,1.66
					c-1.17,0.95-2.56,1.71-4.02,2.29l-0.28,0.11l0.24,0.17c2.89,2.11,5.91,4.3,9.06,6.55c1.58,1.12,3.19,2.25,4.82,3.41
					c0.82,0.57,1.65,1.14,2.49,1.72c0.41,0.29,0.86,0.56,1.25,0.87l0.6,0.46c0.2,0.16,0.37,0.34,0.55,0.52
					c1.48,1.39,2.47,3.28,3.03,5.28c0.58,2.01,0.69,4.17,0.68,6.32c-0.05,0.44-0.33,0.96-0.56,1.44c-0.25,0.48-0.51,0.96-0.79,1.43
					c-0.55,0.94-1.14,1.88-1.74,2.8c-1.2,1.86-2.47,3.71-3.77,5.56l-0.02,0.02l-0.01,0.02c-3.28,9.27-6.5,19.11-9.64,29.27
					c-2.8,9.07-5.38,17.98-7.7,26.63c-1.18,4.32-2.24,8.59-3.29,12.77c-0.98,4.19-1.99,8.29-2.82,12.32
					c-0.9,4.01-1.62,7.96-2.37,11.79c-0.39,1.91-0.78,3.78-1.17,5.63c-0.2,0.92-0.36,1.85-0.59,2.75c-0.24,0.9-0.48,1.79-0.72,2.67
					c-0.24,0.88-0.47,1.76-0.71,2.62c-0.12,0.43-0.23,0.86-0.35,1.29c-0.14,0.42-0.28,0.84-0.42,1.26
					c-0.56,1.67-1.11,3.31-1.64,4.92c-0.63,1.57-1.25,3.11-1.86,4.62c-0.15,0.38-0.3,0.75-0.45,1.12c-0.17,0.36-0.34,0.72-0.51,1.08
					c-0.34,0.72-0.68,1.43-1.02,2.13c-2.72,5.58-5.75,10.35-8.78,14.24c-3.06,3.87-6.08,6.88-8.69,9.18
					c-2.6,2.31-4.8,3.89-6.28,4.96c-0.74,0.53-1.3,0.94-1.69,1.22c-0.38,0.28-0.57,0.43-0.57,0.43s0.2-0.13,0.59-0.39
					c0.39-0.27,0.97-0.67,1.71-1.19c1.5-1.05,3.71-2.61,6.34-4.91c2.62-2.29,5.67-5.29,8.76-9.16c3.06-3.89,6.11-8.66,8.86-14.26
					c0.34-0.7,0.68-1.41,1.03-2.13c0.17-0.36,0.35-0.72,0.52-1.08c0.15-0.37,0.3-0.75,0.46-1.13c0.61-1.51,1.24-3.06,1.87-4.63
					c0.54-1.61,1.09-3.26,1.66-4.93c0.14-0.42,0.28-0.84,0.42-1.26c0.12-0.43,0.23-0.86,0.35-1.3c0.24-0.87,0.47-1.74,0.71-2.63
					c0.24-0.88,0.48-1.78,0.72-2.67c0.23-0.9,0.4-1.83,0.6-2.75c0.39-1.85,0.78-3.73,1.18-5.64c0.75-3.82,1.47-7.77,2.38-11.78
					c0.84-4.03,1.85-8.12,2.83-12.31c1.05-4.17,2.12-8.44,3.3-12.76c2.33-8.64,4.9-17.55,7.7-26.62c3.14-10.15,6.36-20,9.63-29.26
					l-0.02,0.05c1.3-1.85,2.57-3.71,3.78-5.58c0.61-0.93,1.19-1.87,1.75-2.82c0.28-0.47,0.54-0.96,0.8-1.44
					c0.23-0.51,0.51-0.96,0.6-1.6c0-2.18-0.11-4.36-0.71-6.43c-0.58-2.05-1.6-4-3.14-5.45c-0.19-0.18-0.37-0.37-0.58-0.53
					l-0.62-0.47c-0.41-0.33-0.84-0.58-1.26-0.87c-0.84-0.57-1.66-1.15-2.49-1.71c-1.63-1.15-3.24-2.28-4.82-3.4
					c-3.14-2.26-6.16-4.44-9.07-6.53l-0.04,0.28c1.49-0.6,2.89-1.36,4.1-2.35c0.61-0.49,1.14-1.08,1.54-1.75
					c0.21-0.33,0.32-0.71,0.43-1.09l0.05-0.59c0.02-0.2-0.05-0.39-0.07-0.58c-0.34-1.48-0.95-2.82-1.62-4.09
					c-0.68-1.26-1.49-2.44-2.36-3.49c-1.73-2.13-3.41-4.14-5.29-5.81c-0.47-0.41-0.97-0.8-1.54-1.06c-0.63-0.25-1.28-0.09-1.84,0.12
					c-1.13,0.47-2.01,1.26-2.77,2.08l0.16-0.02c-1.38-0.99-2.87-1.75-4.44-1.88c-0.78-0.07-1.56,0.11-2.2,0.48
					c-0.63,0.36-1.23,0.73-1.8,1.11c-2.28,1.51-4.19,2.94-5.8,4.15l0.04-0.01c-2.78,0.12-4.91,0.49-6.27,0.99
					c-0.67,0.26-1.15,0.55-1.41,0.81c-0.15,0.11-0.2,0.26-0.26,0.33C111.1,234.41,111.07,234.45,111.07,234.45z"/>
				<path style="fill:#EB996E;" d="M135.42,241.81c-0.02,0.01,0,0.2,0.1,0.54c0.1,0.34,0.29,0.82,0.62,1.36
					c0.65,1.07,2,2.39,3.92,2.88c1.92,0.48,3.74-0.05,4.82-0.68c0.55-0.32,0.95-0.65,1.19-0.9c0.25-0.25,0.36-0.41,0.34-0.43
					c-0.05-0.06-0.57,0.53-1.67,1.08c-1.07,0.55-2.79,0.99-4.59,0.54c-1.79-0.46-3.1-1.66-3.78-2.65
					C135.68,242.55,135.49,241.78,135.42,241.81z"/>
				<path style="fill:#EB996E;" d="M132.89,252.38c0.02-0.03-0.38-0.23-1.03-0.68c-0.65-0.45-1.55-1.16-2.5-2.2
					c-0.97-1.03-1.98-2.38-3.07-3.91c-0.54-0.76-1.12-1.56-1.56-2.46c-0.44-0.89-0.72-1.91-0.55-2.94c0.15-1.03,0.68-1.95,1.27-2.76
					c0.59-0.81,1.27-1.53,1.89-2.24c1.23-1.43,2.27-2.77,3.18-3.85c0.91-1.08,1.7-1.91,2.27-2.47c0.56-0.56,0.89-0.85,0.87-0.88
					c-0.01-0.01-0.1,0.05-0.27,0.18c-0.17,0.13-0.41,0.32-0.71,0.58c-0.6,0.52-1.43,1.33-2.38,2.4c-0.95,1.06-2.01,2.39-3.25,3.79
					c-0.62,0.7-1.31,1.42-1.93,2.25c-0.61,0.83-1.18,1.8-1.35,2.93c-0.19,1.13,0.13,2.25,0.6,3.18c0.47,0.94,1.07,1.74,1.62,2.5
					c1.11,1.52,2.16,2.87,3.16,3.89c1,1.03,1.94,1.72,2.62,2.14c0.35,0.2,0.62,0.35,0.81,0.43
					C132.78,252.35,132.88,252.39,132.89,252.38z"/>
			</g>
		</g>
	</g>
</g>
<g id="Desk">
	<g>
		<path style="fill:#263238;" d="M-8.83,444.12c0,0.14,86.02,0.25,192.11,0.25c106.12,0,192.12-0.11,192.12-0.25
			c0-0.14-86-0.25-192.12-0.25C77.19,443.86-8.83,443.98-8.83,444.12z"/>
	</g>
</g>
</svg>
