<?xml version="1.0" encoding="utf-8"?>
<!-- Generator: Adobe Illustrator 23.0.0, SVG Export Plug-In . SVG Version: 6.00 Build 0)  -->
<svg version="1.1" id="Layer_1" xmlns="http://www.w3.org/2000/svg" xmlns:xlink="http://www.w3.org/1999/xlink" x="0px" y="0px"
	 width="480px" height="408px" viewBox="0 0 480 408" style="enable-background:new 0 0 480 408;" xml:space="preserve">
<style type="text/css">
	.st0{fill:#FDD762;}
	.st1{fill:#ED3995;}
	.st2{opacity:0.5;fill:#1F3F7A;}
	.st3{fill:#62489D;}
	.st4{fill:#1F3F7A;}
	.st5{fill:#FBC1B1;}
	.st6{fill:#7651A1;}
	.st7{fill:#7E56A3;}
	.st8{fill:#FFFFFF;}
	.st9{fill:#EA9C92;}
	.st10{fill:#9267AC;}
	.st11{fill:#D8892A;}
	.st12{fill:#BFA1CC;}
	.st13{fill:#694B9E;}
	.st14{fill:#97CB5D;}
	.st15{fill:#C13F27;}
	.st16{fill:#DB5426;}
	.st17{fill:#EE612E;}
	.st18{fill:#D0118B;}
	.st19{fill:#E7A323;}
	.st20{fill:#F8BF2E;}
	.st21{fill:#5793CE;}
	.st22{fill:#3B6DAB;}
	.st23{fill:#D4EAF9;}
	.st24{fill:#FAFDFF;}
	.st25{opacity:0.4;fill:#D4EAF9;}
	.st26{fill:#285089;}
</style>
<g>
	
		<rect x="8.1" y="237.8" transform="matrix(-0.5744 -0.8186 0.8186 -0.5744 -182.9256 387.8171)" class="st0" width="2.6" height="7.4"/>
	
		<rect x="10.3" y="233.1" transform="matrix(-0.5744 -0.8186 0.8186 -0.5744 -175.7087 382.28)" class="st0" width="2.6" height="7.4"/>
	
		<rect x="12.4" y="228.5" transform="matrix(-0.5744 -0.8186 0.8186 -0.5744 -168.4918 376.7431)" class="st0" width="2.6" height="7.4"/>
	
		<rect x="14.6" y="223.8" transform="matrix(-0.5744 -0.8186 0.8186 -0.5744 -161.2749 371.206)" class="st0" width="2.6" height="7.4"/>
</g>
<g>
	<path class="st1" d="M410.3,146.8l1.2-2c0,0,1,0.5,2,0.2c0.8-0.3,1.5-1,2.1-2.2c2.1-4.3,5.9-4.6,7.6-4.2l-0.5,2.2l0.3-1.1l-0.3,1.1
		c-0.3-0.1-3.3-0.6-5,2.9c-0.9,1.8-2.1,3-3.5,3.4C412.2,147.8,410.5,146.9,410.3,146.8z"/>
</g>
<ellipse class="st2" cx="67.8" cy="255.8" rx="13.8" ry="8"/>
<g>
	<path class="st3" d="M59.1,155.3c0,0,0.4,7.6,0.9,12.7c0.6,5.1,12.9-3.9,12.9-3.9v-5.8L59.1,155.3z"/>
	<g>
		<path class="st4" d="M65.7,250c0.2,0.5,3.4,4.4,6.6,5.3c1.4,0.4,2.3,0.5,2.9,0.4c0.6-0.1,1-0.7,0.8-1.3c-0.5-1.5-2.1-4.8-6.1-6.8
			C64.5,245,65.7,250,65.7,250z"/>
		<path class="st4" d="M64.6,251.5c0,0,1.2,2.8,1.6,5.2c0.2,1.4-0.6,3.3-1.2,4.6c-0.4,0.8-1.4,0.9-2.1,0.4c-1-0.9-2.4-2.6-2.6-5
			c-0.4-4,0-4.7,0-4.7L64.6,251.5z"/>
		<path class="st0" d="M56.9,203.4c0,0-0.4,5,0,10.6c0.4,5.6,1.9,31.5,2.2,37.8c0,0-0.1,1.9,3.5,1.5c3.7-0.4,3.4-2.5,3.4-2.5
			s5.1-0.1,5.3-3.1c0.2-3,5.3-36.2,5.3-48.2L56.9,203.4z"/>
		<g>
			<path class="st5" d="M78.5,177.4l2.5,3.9l8.7,10.5c0,0-0.3,1-1.4,1.2c-0.8,0.2-8.1-6.8-11.3-9.8c-0.8-0.8-1-2.1-0.3-3.1
				L78.5,177.4z"/>
			<path class="st6" d="M73.6,161.4c0,0,4-0.1,5.4,5.7c1.4,5.8,2.5,13,1.3,13.6c-3.6,1.8-5.9-0.3-5.9-0.3L73.6,161.4z"/>
			<path class="st7" d="M74.8,161.7c-0.7-0.3-1.4-0.3-2.2-0.1c-3.4,1-16.2,4.7-18.4,6.6c-2.4,2.1,3.7,13.8,3.6,17.7
				c-0.1,3.8-0.5,8.4-0.9,12.6c-0.3,4.2-0.8,6.5,2.6,8.3c3.4,1.8,9.3,1.9,13.6-1.5c4.4-3.3,3.6-5.6,3.4-8
				c-0.2-2.4-1.7-12.9-1.5-15.8c0,0,1.5-1.1,2.7-3.1c1.1-1.9-0.9-5.5-1.7-7.8s0.5-5,0.2-6.9C76.1,162.4,75.5,162,74.8,161.7z"/>
			<path class="st8" d="M70.7,165.7c0.3,2.1-1.7,4.1-4.3,4.4c-2.7,0.3-5-1.1-5.3-3.2c-0.3-2.1,1.7-4.1,4.3-4.4
				C68,162.1,70.4,163.5,70.7,165.7z"/>
			<path class="st5" d="M69.3,165.8c0.2,1.5-1.2,2.9-3.1,3.2c-1.9,0.2-3.6-0.8-3.8-2.3c-0.2-1.5,1.2-2.9,3.1-3.2
				C67.4,163.3,69.1,164.3,69.3,165.8z"/>
			<path class="st5" d="M67.4,160.9c0,0-2.3-1.9-2.8-0.9c-0.5,1-0.8,5.1-0.8,5.1l4.6,1.2l-0.7-4.2C67.7,162.1,68.6,161.3,67.4,160.9
				z"/>
			<path class="st5" d="M74.6,156.3c-0.2,3.8-3.5,6.7-7.3,6.4c-3.8-0.2-6.7-3.5-6.4-7.3c0.2-3.8,3.5-6.7,7.3-6.4
				C71.9,149.3,74.8,152.5,74.6,156.3z"/>
			<path class="st9" d="M64.3,161.1c0,0.2-0.1,0.4-0.1,0.7c0.5,2.4,4,3.4,4,3.4l-0.5-3.2c0,0,0.4-0.4,0.3-0.7
				C66.6,160.9,64.8,160.5,64.3,161.1z"/>
			<path class="st5" d="M74.6,156.3c-0.2,3.8-3.5,6.7-7.3,6.4c-3.8-0.2-6.7-3.5-6.4-7.3c0.2-3.8,3.5-6.7,7.3-6.4
				C71.9,149.3,74.8,152.5,74.6,156.3z"/>
			<polygon class="st5" points="50.8,185 51.6,203.4 54.3,203.6 56,187.1 			"/>
			<path class="st6" d="M59.7,183.5c-0.9-3.9-2.6-12.6-2.6-12.6l-0.8,8.6c0.9,2.6,1.6,4.9,1.6,6.3c-0.1,2.3-0.2,4.8-0.4,7.3l0,0
				C57.4,193,60.5,187.4,59.7,183.5z"/>
			<path class="st10" d="M54.8,167.7c0,0-2.1,0.8-3.4,7.4c-1.2,6.6-2.1,13.2,0,14.1c2.2,0.9,4,1.5,4.6-0.3c0.6-1.8,1-10.3,1.1-13.3
				C57.3,172.5,57.4,168.3,54.8,167.7z"/>
			<path class="st5" d="M89,191c0,0,1.2,0.4,2,1.3c0.7,0.8,1.1,1.4,1.4,1.8c0.7,1,1.2,3.2,0.8,3.4c-0.4,0.3-2.7-3.6-3.1-2.7
				c-0.4,0.9,0,1.7-0.5,1.8c-0.5,0-2.2-3.9-3.5-5.1C84.9,190.4,89,191,89,191z"/>
		</g>
		<path class="st11" d="M66,250.7c0,0,0.6,0,1.5-0.2l0,0l1-40.4L66,250.7z"/>
	</g>
	<g>
		<path class="st7" d="M62.1,228.9l-1.4-1.9l-15-8.7c-0.5-0.3-0.9-1-0.9-1.7l0-12.3l-0.9-1.1l0.8-0.5l0,0c0.2-0.1,0.4-0.1,0.6,0
			l17,9.9c0.5,0.3,0.9,1,0.9,1.7l0,13.4c0,0.4-0.1,0.6-0.3,0.7l0,0L62.1,228.9z"/>
		<path class="st12" d="M51.7,221.9l-1.1-0.6l-5.9-10.2l0-6.7l-0.9-1.1l0.8-0.5l0,0c0.2-0.1,0.4-0.1,0.6,0l17,9.9
			c0.3,0.1,0.5,0.4,0.6,0.8L51.7,221.9z"/>
		<path class="st12" d="M44.3,203.8l-0.4-0.5l0.8-0.5l0,0c0.2-0.1,0.4-0.1,0.6,0l0.3,0.2L44.3,203.8z"/>
		<path class="st7" d="M62.5,212.8c0.4,0.3,0.7,0.9,0.7,1.4l-1.7,1l-0.8-1.4L62.5,212.8z"/>
		<path class="st10" d="M61.6,213.1l-17-9.9c-0.5-0.3-0.9,0-0.9,0.7l0,13.4c0,0.6,0.4,1.4,0.9,1.7l17,9.9c0.5,0.3,0.9,0,0.9-0.7
			l0-13.4C62.4,214.2,62.1,213.4,61.6,213.1z"/>
	</g>
	<path class="st5" d="M51.6,203.2c0,0-0.7,4.3-0.6,5.7c0.1,1.4,0.8,3.6,1.4,3.6c0.6,0,0-5.5,1-5c1,0.5,1.1,1.5,1.5,1.2
		c0.4-0.3-0.8-5-0.4-7C54.8,199.6,51.6,203.2,51.6,203.2z"/>
	<path class="st9" d="M70.4,156.5c3.4,1.2,4.1,0.5,4.1,0.4c0-0.2,0.1-0.4,0.1-0.6c0-0.8,0-1.5-0.2-2.2l-8.9-1.2
		C65.4,152.9,66.8,155.3,70.4,156.5z"/>
	<path class="st3" d="M74.9,149.5c-0.8-0.7-3.7-4.1-9-3.3c-3.3,0.5-6,2.7-6.7,7.8c-0.4,3.4,0.8,6.8,3.2,9.3c0.1-0.1,0.3-0.1,0.4-0.2
		c1.3-0.9,1.5-1.3,1.5-1.3l0.3-2.6c0-0.4-0.3-0.7-0.7-0.7c-0.3,0-0.6-0.2-1-0.6c-0.8-1-0.4-2.5,1.1-2.6c0.8,0,1.1-0.5,1.2-0.9
		c0.1-0.3,0.5-0.5,0.8-0.4c1.7,0.6,5.9,2,8.7,1.2C78.1,154.2,75.7,150.2,74.9,149.5z"/>
	<path class="st8" d="M70.9,159.6l2.1-0.6c0,0-1,1.6-2.5,2c-1.5,0.4-1.7-0.8-1.7-0.8L70.9,159.6z"/>
	<polygon class="st12" points="55.2,208.5 53.4,207.5 54.1,208.6 55,208.9 	"/>
</g>
<g>
	<g>
		<polygon class="st2" points="415.9,265.8 402,257.8 388.1,265.8 402,273.8 		"/>
		<polygon class="st2" points="402,257.8 388.1,249.8 374.2,257.8 388.1,265.8 		"/>
		<polygon class="st13" points="404.1,251 404.1,227 415.9,220.2 415.9,244.2 		"/>
		<polygon class="st10" points="404.1,227 392.3,220.2 392.3,244.2 404.1,251 		"/>
		<polygon class="st6" points="415.9,220.2 404.1,213.4 392.3,220.2 404.1,227 		"/>
	</g>
	<g>
		<polygon class="st14" points="415.9,253.3 404.1,246.5 404.1,251 415.9,257.8 		"/>
	</g>
	<g>
		<polygon class="st15" points="392.3,257.8 392.3,221.5 404.1,214.7 404.1,251 		"/>
		<polygon class="st16" points="392.3,221.5 380.5,214.7 380.5,251 392.3,257.8 		"/>
		<polygon class="st17" points="404.1,214.7 392.3,207.9 380.5,214.7 392.3,221.5 		"/>
		<polygon class="st18" points="392.3,257.8 392.3,221.5 404.1,214.7 404.1,251 		"/>
		<polygon class="st18" points="392.3,221.5 380.5,214.7 380.5,251 392.3,257.8 		"/>
		<polygon class="st1" points="404.1,214.7 392.3,207.9 380.5,214.7 392.3,221.5 		"/>
	</g>
	<g>
		<polygon class="st19" points="404.1,264.6 404.1,244.2 415.9,237.4 415.9,257.8 		"/>
		<polygon class="st20" points="404.1,244.2 392.3,237.4 392.3,257.8 404.1,264.6 		"/>
		<polygon class="st0" points="415.9,237.4 404.1,230.6 392.3,237.4 404.1,244.2 		"/>
	</g>
</g>
<g>
	<g>
		<path class="st21" d="M294.9,133.4c-0.5,0-1-0.4-1-1V93.2c0-0.5,0.4-1,1-1c0.5,0,1,0.4,1,1v39.3
			C295.9,133,295.4,133.4,294.9,133.4z"/>
		<g>
			<g>
				<rect x="291.5" y="90.7" class="st21" width="6.8" height="14.7"/>
				<path class="st21" d="M297.3,106.8c-1.3,0.8-3.5,0.8-4.8,0c-1.3-0.8-1.3-2,0-2.8c1.3-0.8,3.5-0.8,4.8,0
					C298.7,104.8,298.7,106.1,297.3,106.8z"/>
			</g>
			<g>
				<rect x="289.4" y="70.2" class="st21" width="11" height="23.1"/>
				<path class="st22" d="M291.5,93.1v5c2,0.9,4.8,0.9,6.8,0v-5C296.3,92.2,293.5,92.2,291.5,93.1z"/>
				<path class="st21" d="M298.8,95.5c-2.2,1.2-5.7,1.2-7.8,0c-2.2-1.2-2.2-3.3,0-4.5c2.2-1.2,5.7-1.2,7.8,0
					C301,92.3,301,94.3,298.8,95.5z"/>
			</g>
		</g>
	</g>
	<g>
		<path class="st21" d="M333.2,154.9c-0.5,0-1-0.4-1-1v-39.3c0-0.5,0.4-1,1-1s1,0.4,1,1V154C334.1,154.5,333.7,154.9,333.2,154.9z"
			/>
		<g>
			<g>
				<rect x="329.8" y="112.3" class="st21" width="6.8" height="14.7"/>
				<path class="st21" d="M335.6,128.4c-1.3,0.8-3.5,0.8-4.8,0c-1.3-0.8-1.3-2,0-2.8c1.3-0.8,3.5-0.8,4.8,0
					C336.9,126.3,336.9,127.6,335.6,128.4z"/>
			</g>
			<g>
				<rect x="327.7" y="91.7" class="st21" width="11" height="23.1"/>
				<path class="st22" d="M329.8,114.7v5c2,0.9,4.8,0.9,6.8,0v-5C334.6,113.8,331.8,113.8,329.8,114.7z"/>
				<path class="st21" d="M337.1,117.1c-2.2,1.2-5.7,1.2-7.8,0c-2.2-1.2-2.2-3.3,0-4.5c2.2-1.2,5.7-1.2,7.8,0
					C339.3,113.8,339.3,115.8,337.1,117.1z"/>
			</g>
		</g>
	</g>
	<g>
		<g>
			<polygon class="st21" points="370.4,130 385.2,121.3 371.1,103.7 367.4,109.8 			"/>
			<path class="st21" d="M262.8,33.4l23.6-13.6c0,0-0.9,13.6-0.9,13.6c0,0-13.6,4.2-13.6,4.2L262.8,33.4z"/>
			<path class="st21" d="M374.5,85.8c-1.8-1-3.5-1.6-5.1-1.9C367,71.3,358.3,58,347.9,52c-3.1-1.8-6.1-2.8-8.8-3
				c-1.4-15.2-12-32.4-24.8-39.8c-6.7-3.9-12.8-4.3-17.3-2l0,0l-0.2,0.1c-0.1,0.1-0.2,0.1-0.3,0.2l-13.9,8.2l4.6,3.7
				c-4.2,1.8-6.8,6.5-6.8,13.4c0,12.7,8.9,28.2,19.9,34.5l74.2,53c8.3,4.8,15,0.9,15-8.6C389.5,102.1,382.8,90.5,374.5,85.8z"/>
			<path class="st21" d="M281.1,27.2l32-18.7c-6.2-3.2-11.8-3.5-16-1.3l0,0l-0.2,0.1c-0.1,0.1-0.2,0.1-0.3,0.2l-13.9,8.2l4.6,3.7
				C284.3,20.7,282.1,23.4,281.1,27.2z"/>
			<path class="st21" d="M340.2,82.2l23.3-13.7c-4-6.9-9.5-13-15.6-16.5c-0.8-0.5-1.6-0.9-2.4-1.2l-29.7,17.4L340.2,82.2z"/>
			<path class="st23" d="M289.1,17.3l10.4,6l19.1-11.2c-1.4-1.1-2.8-2.1-4.3-2.9c-2.3-1.3-4.5-2.3-6.7-2.8L289.1,17.3z"/>
			<path class="st23" d="M361,64.5l-18.6,11l6.5,7.2l16.9-10C364.4,69.9,362.8,67.1,361,64.5z"/>
			<path class="st23" d="M359.9,94.4c-1.8-1-3.5-1.6-5.1-1.9c-2.4-12.5-11.1-25.8-21.5-31.8c-3.1-1.8-6.1-2.8-8.8-3
				c-1.4-15.2-12-32.4-24.8-39.8c-13.8-8-25-1.5-25,14.4c0,0.5,0,1.1,0,1.6c-10.1-4.7-18,0.6-18,12.5c0,12.7,8.9,28.2,19.9,34.5
				l83.2,48c8.3,4.8,15,0.9,15-8.6C374.9,110.8,368.1,99.2,359.9,94.4z"/>
			<g>
				<path class="st8" d="M274.7,33.9c0-0.5,0-1.1,0-1.6c0,0,0,0,0-0.1c-5.6-2.2-10.4-1.2-13.4,2.3C264.6,31.7,269.3,31.4,274.7,33.9
					z"/>
				<path class="st8" d="M361.1,93.2c-1.8-1-3.5-1.6-5.1-1.9c-2.4-12.5-11.1-25.8-21.5-31.8c-3.1-1.8-6.1-2.8-8.8-3
					c-1.4-15.2-12-32.4-24.8-39.8c-8.6-5-16.2-4.3-20.7,0.7c4.6-3.9,11.6-4.1,19.4,0.5c12.8,7.4,23.4,24.7,24.8,39.8
					c2.7,0.2,5.7,1.2,8.8,3c10.4,6,19.1,19.3,21.5,31.8c1.6,0.3,3.3,0.9,5.1,1.9c8.3,4.8,15,16.4,15,25.9c0,3.4-0.9,6.1-2.4,8
					c2.2-1.7,3.6-4.9,3.6-9.2C376.1,109.6,369.4,98,361.1,93.2z"/>
			</g>
			<g>
				<path class="st22" d="M273,37.7l6.3,2.9l-0.3-6.9c0-0.5,0-1,0-1.4c0-6.1,1.9-10.6,5.2-12.5c3.4-1.9,8.2-1.3,13.5,1.7
					C309,28,319,44.1,320.3,58.1l0.3,3.5l3.5,0.3c2.2,0.2,4.5,1,7,2.4c9.1,5.2,17.3,17.4,19.5,29l0.6,2.9l2.9,0.5
					c1.2,0.2,2.4,0.6,3.7,1.4c7,4,12.9,14.2,12.9,22.3c0,3-0.8,5.2-2.3,6.1c-1.5,0.8-3.8,0.5-6.4-1l-83.2-48
					c-9.7-5.6-17.8-19.7-17.8-30.9c0-4.4,1.3-7.7,3.5-9.2c0.9-0.6,2-0.9,3.3-0.9C269.4,36.4,271.1,36.8,273,37.7z"/>
			</g>
		</g>
		<g>
			<polygon class="st21" points="314.5,89.8 316.7,88.7 314.5,87 			"/>
			<polygon class="st21" points="307.9,60.1 310,59.1 310.1,60.2 			"/>
			<polygon class="st21" points="320.7,82.9 323,81.7 318.7,77.7 			"/>
			<g>
				<path class="st21" d="M316,88.6l-10.4-6.1c-0.5-0.3-1-1.1-1-1.7l0-12L317,76l0,12C317,88.6,316.6,88.9,316,88.6z"/>
				<path class="st21" d="M310,59.1l-11.2,7.2c-0.5,0.3-0.1,1.4,0.6,1.9l11.5,6.7l11.5,6.7c0.7,0.4,1.1-0.3,0.6-1.1l-11.1-20.4
					C311.4,59.3,310.5,58.8,310,59.1z"/>
			</g>
			<g>
				<path class="st23" d="M313.8,89.7l-10.4-6.1c-0.5-0.3-1-1.1-1-1.7l0-12l12.3,7.2l0,12C314.8,89.8,314.3,90,313.8,89.7z"/>
				<path class="st23" d="M307.8,60.2l-11.2,7.2c-0.5,0.3-0.1,1.4,0.6,1.9l11.5,6.7l11.5,6.7c0.7,0.4,1.1-0.3,0.6-1.1l-11.1-20.4
					C309.1,60.4,308.3,59.9,307.8,60.2z"/>
			</g>
		</g>
	</g>
	<path class="st23" d="M293.9,102.9c0,0.7-0.5,1-1.1,0.6c-0.6-0.3-1.1-1.2-1.1-1.8c0-0.7,0.5-1,1.1-0.6
		C293.4,101.4,293.9,102.2,293.9,102.9z"/>
	<path class="st23" d="M332.2,124.7c0,0.7-0.5,1-1.1,0.6c-0.6-0.3-1.1-1.2-1.1-1.8c0-0.7,0.5-1,1.1-0.6
		C331.8,123.2,332.2,124.1,332.2,124.7z"/>
</g>
<g>
	<g>
		<g>
			<path class="st2" d="M263.7,273.1l-48.6-27.7c-1.8-1-1.6-2.8,0.5-4l28-16.1c2.1-1.2,5.2-1.3,6.9-0.3l48.6,27.7
				c1.8,1,1.6,2.8-0.5,4l-28,16.1C268.6,274,265.5,274.2,263.7,273.1z"/>
			<path class="st22" d="M303.4,243.4L303.4,243.4V129.9l-45.1-11.8l-8.3-4.8c-1.9-1.1-5.2-1-7.4,0.3l-7.8,4.5l-24.1,0l7.1,109.5
				c-0.1,0.7,0.4,1.5,1.3,2l45,34c1.9,1.1,5.2,1,7.4-0.3l30-17.3C302.9,245.2,303.5,244.2,303.4,243.4z"/>
			<path class="st23" d="M246.5,112.6c-1.4,0-2.8,0.4-4,1l-7.8,4.5l-24.1,0v113.8c-0.1,0.7,0.4,1.5,1.3,2l52.1,29.7
				c0.9,0.5,2.2,0.8,3.5,0.7l0.5-114.5L246.5,112.6z"/>
			<path class="st21" d="M264.6,263.8c1.6,0.7,4,0.7,5.9-0.1V148.5h-5.9V263.8z"/>
			<path class="st23" d="M264.2,149.8L212,120.1c-1.9-1.1-1.7-3,0.5-4.3l30-17.3c2.2-1.3,5.5-1.4,7.4-0.3l52.1,29.7
				c1.9,1.1,1.7,3-0.5,4.3l-30,17.3C269.4,150.8,266.1,150.9,264.2,149.8z"/>
			<path class="st24" d="M301.6,130.1l-30,17.3c-2.2,1.3-5.5,1.4-7.4,0.3L212,118c-0.4-0.2-0.7-0.5-1-0.8c-0.7,1.1-0.4,2.2,1,3
				l52.1,29.7c1.9,1.1,5.2,1,7.4-0.3l30-17.3c1.7-1,2.2-2.4,1.5-3.5C302.8,129.2,302.3,129.7,301.6,130.1z"/>
			<g>
				<path class="st4" d="M265.6,137.8l-34.7-20.1c-0.9-0.5-0.8-1.4,0.2-2l14-8.1c1-0.6,2.6-0.7,3.5-0.1l34.7,20.1
					c0.9,0.5,0.8,1.4-0.2,2l-14,8.1C268.1,138.2,266.5,138.3,265.6,137.8z"/>
				<g>
					<path class="st23" d="M246.9,118.6l-2-1.2c-0.1-0.1-0.1-0.2,0-0.3l1.9-1.1c0.1-0.1,0.4-0.1,0.5,0l2,1.2c0.1,0.1,0.1,0.2,0,0.3
						l-1.9,1.1C247.2,118.6,247,118.6,246.9,118.6z"/>
					<path class="st23" d="M253.6,122.4l-2-1.2c-0.1-0.1-0.1-0.2,0-0.3l1.9-1.1c0.1-0.1,0.4-0.1,0.5,0l2,1.2c0.1,0.1,0.1,0.2,0,0.3
						l-1.9,1.1C254,122.5,253.7,122.5,253.6,122.4z"/>
					<path class="st23" d="M260.3,126.3l-2-1.2c-0.1-0.1-0.1-0.2,0-0.3l1.9-1.1c0.1-0.1,0.4-0.1,0.5,0l2,1.2c0.1,0.1,0.1,0.2,0,0.3
						l-1.9,1.1C260.7,126.4,260.5,126.4,260.3,126.3z"/>
					<path class="st23" d="M267.1,130.2l-2-1.2c-0.1-0.1-0.1-0.2,0-0.3l1.9-1.1c0.1-0.1,0.4-0.1,0.5,0l2,1.2c0.1,0.1,0.1,0.2,0,0.3
						l-1.9,1.1C267.4,130.2,267.2,130.2,267.1,130.2z"/>
				</g>
				<path class="st21" d="M230.9,117.7L230.9,117.7c0.1,0,0.2-0.1,0.2-0.1l14-8.1c1-0.6,2.6-0.7,3.5-0.1l34.7,20.1
					c0.8-0.6,0.9-1.4,0-1.9l-34.7-20.1c-0.9-0.5-2.5-0.5-3.5,0.1l-14,8.1C230.1,116.2,230,117.1,230.9,117.7z"/>
			</g>
		</g>
		<g>
			<path class="st4" d="M277.5,172.3l19.7-11.3c1.1-0.6,2-2.4,2-3.8v-7.1c0-1.5-0.9-2.2-2-1.5l-19.7,11.3c-1.1,0.6-2,2.4-2,3.8v7.1
				C275.4,172.3,276.3,172.9,277.5,172.3z"/>
			<path class="st8" d="M298.2,148.4c0.3,0.3,0.5,0.8,0.5,1.5v7.1c0,1.5-0.9,3.2-2,3.8L276.9,172c-0.4,0.2-0.7,0.3-1,0.2
				c0.4,0.3,0.9,0.4,1.5,0.1l19.7-11.3c1.1-0.6,2-2.4,2-3.8v-7.1C299.2,149.1,298.8,148.5,298.2,148.4z"/>
			<g>
				<path class="st22" d="M283.4,164.6l1.8-1c0.2-0.1,0.4-0.5,0.4-0.8v-1.9c0-0.3-0.2-0.5-0.4-0.3l-1.8,1c-0.2,0.1-0.4,0.5-0.4,0.8
					v1.9C283,164.6,283.2,164.8,283.4,164.6z"/>
				<path class="st8" d="M289.5,161.1l1.8-1c0.2-0.1,0.4-0.5,0.4-0.8v-1.9c0-0.3-0.2-0.5-0.4-0.3l-1.8,1c-0.2,0.1-0.4,0.5-0.4,0.8
					v1.9C289,161.1,289.2,161.3,289.5,161.1z"/>
			</g>
		</g>
		<g>
			<path class="st4" d="M277.5,223.3l19.7-11.3c1.1-0.6,2-2.4,2-3.8v-7.1c0-1.5-0.9-2.2-2-1.5l-19.7,11.3c-1.1,0.6-2,2.4-2,3.8v7.1
				C275.4,223.3,276.3,223.9,277.5,223.3z"/>
			<path class="st8" d="M298.2,199.4c0.3,0.3,0.5,0.8,0.5,1.5v7.1c0,1.5-0.9,3.2-2,3.8L276.9,223c-0.4,0.2-0.7,0.3-1,0.2
				c0.4,0.3,0.9,0.4,1.5,0.1l19.7-11.3c1.1-0.6,2-2.4,2-3.8v-7.1C299.2,200.1,298.8,199.5,298.2,199.4z"/>
			<g>
				<path class="st22" d="M283.4,215.6l1.8-1c0.2-0.1,0.4-0.5,0.4-0.8v-1.9c0-0.3-0.2-0.5-0.4-0.3l-1.8,1c-0.2,0.1-0.4,0.5-0.4,0.8
					v1.9C283,215.6,283.2,215.8,283.4,215.6z"/>
				<path class="st8" d="M289.5,212.1l1.8-1c0.2-0.1,0.4-0.5,0.4-0.8v-1.9c0-0.3-0.2-0.5-0.4-0.3l-1.8,1c-0.2,0.1-0.4,0.5-0.4,0.8
					v1.9C289,212.1,289.2,212.3,289.5,212.1z"/>
			</g>
		</g>
		<g>
			<path class="st4" d="M277.5,248.8l19.7-11.3c1.1-0.6,2-2.4,2-3.8v-7.1c0-1.5-0.9-2.2-2-1.5l-19.7,11.3c-1.1,0.6-2,2.4-2,3.8v7.1
				C275.4,248.8,276.3,249.5,277.5,248.8z"/>
			<path class="st8" d="M298.2,224.9c0.3,0.3,0.5,0.8,0.5,1.5v7.1c0,1.5-0.9,3.2-2,3.8l-19.7,11.3c-0.4,0.2-0.7,0.3-1,0.2
				c0.4,0.3,0.9,0.4,1.5,0.1l19.7-11.3c1.1-0.6,2-2.4,2-3.8v-7.1C299.2,225.6,298.8,225,298.2,224.9z"/>
			<g>
				<path class="st22" d="M283.4,241.1l1.8-1c0.2-0.1,0.4-0.5,0.4-0.8v-1.9c0-0.3-0.2-0.5-0.4-0.3l-1.8,1c-0.2,0.1-0.4,0.5-0.4,0.8
					v1.9C283,241.1,283.2,241.3,283.4,241.1z"/>
				<path class="st8" d="M289.5,237.6l1.8-1c0.2-0.1,0.4-0.5,0.4-0.8v-1.9c0-0.3-0.2-0.5-0.4-0.3l-1.8,1c-0.2,0.1-0.4,0.5-0.4,0.8
					v1.9C289,237.6,289.2,237.8,289.5,237.6z"/>
			</g>
		</g>
		<g>
			<path class="st4" d="M277.5,197.8l19.7-11.3c1.1-0.6,2-2.4,2-3.8v-7.1c0-1.5-0.9-2.2-2-1.5l-19.7,11.3c-1.1,0.6-2,2.4-2,3.8v7.1
				C275.4,197.8,276.3,198.4,277.5,197.8z"/>
			<path class="st8" d="M298.2,173.9c0.3,0.3,0.5,0.8,0.5,1.5v7.1c0,1.5-0.9,3.2-2,3.8l-19.7,11.3c-0.4,0.2-0.7,0.3-1,0.2
				c0.4,0.3,0.9,0.4,1.5,0.1l19.7-11.3c1.1-0.6,2-2.4,2-3.8v-7.1C299.2,174.6,298.8,174,298.2,173.9z"/>
			<g>
				<path class="st22" d="M283.4,190.1l1.8-1c0.2-0.1,0.4-0.5,0.4-0.8v-1.9c0-0.3-0.2-0.5-0.4-0.3l-1.8,1c-0.2,0.1-0.4,0.5-0.4,0.8
					v1.9C283,190.1,283.2,190.3,283.4,190.1z"/>
				<path class="st8" d="M289.5,186.6l1.8-1c0.2-0.1,0.4-0.5,0.4-0.8v-1.9c0-0.3-0.2-0.5-0.4-0.3l-1.8,1c-0.2,0.1-0.4,0.5-0.4,0.8
					v1.9C289,186.6,289.2,186.8,289.5,186.6z"/>
			</g>
		</g>
	</g>
	<g>
		<path class="st21" d="M260.4,165.1l-45.5-26.3c-1-0.6-1.8-2.2-1.8-3.5v-8.7c0-1.4,0.8-2,1.8-1.4l45.5,26.3c1,0.6,1.8,2.2,1.8,3.5
			v8.7C262.2,165,261.4,165.7,260.4,165.1z"/>
		<path class="st25" d="M259.1,162l-42.9-24.8c-0.5-0.3-0.9-1.1-0.9-1.8v-6.5c0-0.7,0.4-1,0.9-0.7l42.9,24.8
			c0.5,0.3,0.9,1.1,0.9,1.8v6.5C260,162,259.6,162.3,259.1,162z"/>
		<path class="st23" d="M225.1,139.1l-6.4-3.7c-0.5-0.3-0.9-1.1-0.9-1.7l0,0c0-0.7,0.4-1,0.9-0.7l6.4,3.7c0.5,0.3,0.9,1.1,0.9,1.7
			l0,0C226,139.1,225.6,139.4,225.1,139.1z"/>
		<path class="st4" d="M230.5,141.1c0,0.7-0.5,0.9-1,0.6c-0.6-0.3-1-1.1-1-1.8c0-0.7,0.5-0.9,1-0.6
			C230.1,139.6,230.5,140.4,230.5,141.1z"/>
		<path class="st4" d="M234.2,143.2c0,0.7-0.5,0.9-1,0.6c-0.6-0.3-1-1.1-1-1.8c0-0.7,0.5-0.9,1-0.6
			C233.8,141.7,234.2,142.5,234.2,143.2z"/>
		<path class="st23" d="M237.9,145.3c0,0.7-0.5,0.9-1,0.6c-0.6-0.3-1-1.1-1-1.8c0-0.7,0.5-0.9,1-0.6
			C237.5,143.9,237.9,144.7,237.9,145.3z"/>
		<path class="st4" d="M241.7,147.5c0,0.7-0.5,0.9-1,0.6c-0.6-0.3-1-1.1-1-1.8c0-0.7,0.5-0.9,1-0.6
			C241.2,146,241.7,146.8,241.7,147.5z"/>
		<path class="st4" d="M257.3,158.4l-2.2-1.2c-0.3-0.2-0.6-0.7-0.6-1.1v-2.3c0-0.4,0.3-0.6,0.6-0.4l2.2,1.2c0.3,0.2,0.6,0.7,0.6,1.1
			v2.3C257.8,158.4,257.6,158.6,257.3,158.4z"/>
	</g>
	<g>
		<path class="st21" d="M260.4,180.4l-45.5-26.3c-1-0.6-1.8-2.2-1.8-3.5v-8.7c0-1.4,0.8-2,1.8-1.4l45.5,26.3c1,0.6,1.8,2.2,1.8,3.5
			v8.7C262.2,180.4,261.4,181,260.4,180.4z"/>
		<path class="st25" d="M259.1,177.3l-42.9-24.8c-0.5-0.3-0.9-1.1-0.9-1.8v-6.5c0-0.7,0.4-1,0.9-0.7l42.9,24.8
			c0.5,0.3,0.9,1.1,0.9,1.8v6.5C260,177.3,259.6,177.6,259.1,177.3z"/>
		<path class="st23" d="M225.1,154.4l-6.4-3.7c-0.5-0.3-0.9-1.1-0.9-1.7l0,0c0-0.7,0.4-1,0.9-0.7l6.4,3.7c0.5,0.3,0.9,1.1,0.9,1.7
			l0,0C226,154.4,225.6,154.7,225.1,154.4z"/>
		<path class="st8" d="M230.5,156.4c0,0.7-0.5,0.9-1,0.6c-0.6-0.3-1-1.1-1-1.8c0-0.7,0.5-0.9,1-0.6
			C230.1,154.9,230.5,155.7,230.5,156.4z"/>
		<path class="st4" d="M234.2,158.5c0,0.7-0.5,0.9-1,0.6c-0.6-0.3-1-1.1-1-1.8c0-0.7,0.5-0.9,1-0.6
			C233.8,157,234.2,157.8,234.2,158.5z"/>
		<ellipse transform="matrix(0.866 -0.5 0.5 0.866 -48.2828 139.8923)" class="st23" cx="236.9" cy="160" rx="0.9" ry="1.5"/>
		<ellipse transform="matrix(0.866 -0.5 0.5 0.866 -48.8558 142.0305)" class="st4" cx="240.6" cy="162.2" rx="0.9" ry="1.5"/>
		<path class="st4" d="M257.3,173.7l-2.2-1.2c-0.3-0.2-0.6-0.7-0.6-1.1v-2.3c0-0.4,0.3-0.6,0.6-0.4l2.2,1.2c0.3,0.2,0.6,0.7,0.6,1.1
			v2.3C257.8,173.7,257.6,173.9,257.3,173.7z"/>
	</g>
	<g>
		<path class="st21" d="M260.4,195.7l-45.5-26.3c-1-0.6-1.8-2.2-1.8-3.5v-8.7c0-1.4,0.8-2,1.8-1.4l45.5,26.3c1,0.6,1.8,2.2,1.8,3.5
			v8.7C262.2,195.7,261.4,196.3,260.4,195.7z"/>
		<path class="st25" d="M259.1,192.7l-42.9-24.8c-0.5-0.3-0.9-1.1-0.9-1.8v-6.5c0-0.7,0.4-1,0.9-0.7l42.9,24.8
			c0.5,0.3,0.9,1.1,0.9,1.8v6.5C260,192.6,259.6,193,259.1,192.7z"/>
		<path class="st23" d="M225.1,169.7l-6.4-3.7c-0.5-0.3-0.9-1.1-0.9-1.7l0,0c0-0.7,0.4-1,0.9-0.7l6.4,3.7c0.5,0.3,0.9,1.1,0.9,1.7
			l0,0C226,169.7,225.6,170,225.1,169.7z"/>
		<path class="st8" d="M230.5,171.7c0,0.7-0.5,0.9-1,0.6c-0.6-0.3-1-1.1-1-1.8c0-0.7,0.5-0.9,1-0.6
			C230.1,170.2,230.5,171,230.5,171.7z"/>
		<path class="st4" d="M234.2,173.8c0,0.7-0.5,0.9-1,0.6c-0.6-0.3-1-1.1-1-1.8c0-0.7,0.5-0.9,1-0.6
			C233.8,172.3,234.2,173.2,234.2,173.8z"/>
		<path class="st23" d="M237.9,176c0,0.7-0.5,0.9-1,0.6c-0.6-0.3-1-1.1-1-1.8c0-0.7,0.5-0.9,1-0.6
			C237.5,174.5,237.9,175.3,237.9,176z"/>
		<path class="st4" d="M241.7,178.1c0,0.7-0.5,0.9-1,0.6c-0.6-0.3-1-1.1-1-1.8c0-0.7,0.5-0.9,1-0.6
			C241.2,176.6,241.7,177.4,241.7,178.1z"/>
		<path class="st4" d="M257.3,189l-2.2-1.2c-0.3-0.2-0.6-0.7-0.6-1.1v-2.3c0-0.4,0.3-0.6,0.6-0.4l2.2,1.2c0.3,0.2,0.6,0.7,0.6,1.1
			v2.3C257.8,189,257.6,189.2,257.3,189z"/>
	</g>
	<g>
		<path class="st21" d="M260.4,211l-45.5-26.3c-1-0.6-1.8-2.2-1.8-3.5v-8.7c0-1.4,0.8-2,1.8-1.4l45.5,26.3c1,0.6,1.8,2.2,1.8,3.5
			v8.7C262.2,211,261.4,211.6,260.4,211z"/>
		<path class="st25" d="M259.1,208l-42.9-24.8c-0.5-0.3-0.9-1.1-0.9-1.8v-6.5c0-0.7,0.4-1,0.9-0.7l42.9,24.8
			c0.5,0.3,0.9,1.1,0.9,1.8v6.5C260,208,259.6,208.3,259.1,208z"/>
		<path class="st23" d="M225.1,185.1l-6.4-3.7c-0.5-0.3-0.9-1.1-0.9-1.7l0,0c0-0.7,0.4-1,0.9-0.7l6.4,3.7c0.5,0.3,0.9,1.1,0.9,1.7
			l0,0C226,185,225.6,185.3,225.1,185.1z"/>
		<path class="st4" d="M230.5,187c0,0.7-0.5,0.9-1,0.6c-0.6-0.3-1-1.1-1-1.8c0-0.7,0.5-0.9,1-0.6C230.1,185.5,230.5,186.3,230.5,187
			z"/>
		<path class="st4" d="M234.2,189.1c0,0.7-0.5,0.9-1,0.6c-0.6-0.3-1-1.1-1-1.8c0-0.7,0.5-0.9,1-0.6
			C233.8,187.6,234.2,188.5,234.2,189.1z"/>
		<path class="st23" d="M237.9,191.3c0,0.7-0.5,0.9-1,0.6c-0.6-0.3-1-1.1-1-1.8c0-0.7,0.5-0.9,1-0.6S237.9,190.6,237.9,191.3z"/>
		<ellipse transform="matrix(0.866 -0.5 0.5 0.866 -64.1666 146.1331)" class="st4" cx="240.6" cy="192.8" rx="0.9" ry="1.5"/>
		<path class="st23" d="M257.3,204.3l-2.2-1.2c-0.3-0.2-0.6-0.7-0.6-1.1v-2.3c0-0.4,0.3-0.6,0.6-0.4l2.2,1.2
			c0.3,0.2,0.6,0.7,0.6,1.1v2.3C257.8,204.3,257.6,204.5,257.3,204.3z"/>
	</g>
	<g>
		<path class="st21" d="M260.4,226.3L214.8,200c-1-0.6-1.8-2.2-1.8-3.5v-8.7c0-1.4,0.8-2,1.8-1.4l45.5,26.3c1,0.6,1.8,2.2,1.8,3.5
			v8.7C262.2,226.3,261.4,226.9,260.4,226.3z"/>
		<path class="st25" d="M259.1,223.3l-42.9-24.8c-0.5-0.3-0.9-1.1-0.9-1.8v-6.5c0-0.7,0.4-1,0.9-0.7l42.9,24.8
			c0.5,0.3,0.9,1.1,0.9,1.8v6.5C260,223.3,259.6,223.6,259.1,223.3z"/>
		<path class="st23" d="M225.1,200.4l-6.4-3.7c-0.5-0.3-0.9-1.1-0.9-1.7l0,0c0-0.7,0.4-1,0.9-0.7l6.4,3.7c0.5,0.3,0.9,1.1,0.9,1.7
			l0,0C226,200.3,225.6,200.7,225.1,200.4z"/>
		<path class="st4" d="M230.5,202.3c0,0.7-0.5,0.9-1,0.6c-0.6-0.3-1-1.1-1-1.8s0.5-0.9,1-0.6C230.1,200.8,230.5,201.6,230.5,202.3z"
			/>
		<path class="st8" d="M234.2,204.4c0,0.7-0.5,0.9-1,0.6c-0.6-0.3-1-1.1-1-1.8s0.5-0.9,1-0.6C233.8,203,234.2,203.8,234.2,204.4z"/>
		<path class="st23" d="M237.9,206.6c0,0.7-0.5,0.9-1,0.6s-1-1.1-1-1.8c0-0.7,0.5-0.9,1-0.6C237.5,205.1,237.9,205.9,237.9,206.6z"
			/>
		<path class="st8" d="M241.7,208.7c0,0.7-0.5,0.9-1,0.6c-0.6-0.3-1-1.1-1-1.8c0-0.7,0.5-0.9,1-0.6
			C241.2,207.2,241.7,208,241.7,208.7z"/>
		<path class="st23" d="M257.3,219.6l-2.2-1.2c-0.3-0.2-0.6-0.7-0.6-1.1V215c0-0.4,0.3-0.6,0.6-0.4l2.2,1.2c0.3,0.2,0.6,0.7,0.6,1.1
			v2.3C257.8,219.6,257.6,219.8,257.3,219.6z"/>
	</g>
	<g>
		<path class="st21" d="M260.4,241.6l-45.5-26.3c-1-0.6-1.8-2.2-1.8-3.5v-8.7c0-1.4,0.8-2,1.8-1.4l45.5,26.3c1,0.6,1.8,2.2,1.8,3.5
			v8.7C262.2,241.6,261.4,242.2,260.4,241.6z"/>
		<path class="st25" d="M259.1,238.6l-42.9-24.8c-0.5-0.3-0.9-1.1-0.9-1.8v-6.5c0-0.7,0.4-1,0.9-0.7l42.9,24.8
			c0.5,0.3,0.9,1.1,0.9,1.8v6.5C260,238.6,259.6,238.9,259.1,238.6z"/>
		<path class="st23" d="M225.1,215.7l-6.4-3.7c-0.5-0.3-0.9-1.1-0.9-1.7l0,0c0-0.7,0.4-1,0.9-0.7l6.4,3.7c0.5,0.3,0.9,1.1,0.9,1.7
			l0,0C226,215.7,225.6,216,225.1,215.7z"/>
		<path class="st4" d="M230.5,217.6c0,0.7-0.5,0.9-1,0.6c-0.6-0.3-1-1.1-1-1.8c0-0.7,0.5-0.9,1-0.6
			C230.1,216.1,230.5,216.9,230.5,217.6z"/>
		<path class="st4" d="M234.2,219.8c0,0.7-0.5,0.9-1,0.6c-0.6-0.3-1-1.1-1-1.8c0-0.7,0.5-0.9,1-0.6
			C233.8,218.3,234.2,219.1,234.2,219.8z"/>
		<path class="st23" d="M237.9,221.9c0,0.7-0.5,0.9-1,0.6c-0.6-0.3-1-1.1-1-1.8c0-0.7,0.5-0.9,1-0.6
			C237.5,220.4,237.9,221.2,237.9,221.9z"/>
		<path class="st4" d="M241.7,224c0,0.7-0.5,0.9-1,0.6c-0.6-0.3-1-1.1-1-1.8c0-0.7,0.5-0.9,1-0.6C241.2,222.5,241.7,223.4,241.7,224
			z"/>
		<path class="st4" d="M257.3,235l-2.2-1.2c-0.3-0.2-0.6-0.7-0.6-1.1v-2.3c0-0.4,0.3-0.6,0.6-0.4l2.2,1.2c0.3,0.2,0.6,0.7,0.6,1.1
			v2.3C257.8,234.9,257.6,235.1,257.3,235z"/>
	</g>
	<g>
		<path class="st21" d="M260.4,256.9l-45.5-26.3c-1-0.6-1.8-2.2-1.8-3.5v-8.7c0-1.4,0.8-2,1.8-1.4l45.5,26.3c1,0.6,1.8,2.2,1.8,3.5
			v8.7C262.2,256.9,261.4,257.5,260.4,256.9z"/>
		<path class="st25" d="M259.1,253.9l-42.9-24.8c-0.5-0.3-0.9-1.1-0.9-1.8v-6.5c0-0.7,0.4-1,0.9-0.7l42.9,24.8
			c0.5,0.3,0.9,1.1,0.9,1.8v6.5C260,253.9,259.6,254.2,259.1,253.9z"/>
		<path class="st23" d="M225.1,231l-6.4-3.7c-0.5-0.3-0.9-1.1-0.9-1.7l0,0c0-0.7,0.4-1,0.9-0.7l6.4,3.7c0.5,0.3,0.9,1.1,0.9,1.7l0,0
			C226,231,225.6,231.3,225.1,231z"/>
		<path class="st8" d="M254.5,247.1c0,1.3-0.9,1.8-2,1.1c-1.1-0.6-2-2.2-2-3.4c0-1.3,0.9-1.8,2-1.1
			C253.6,244.3,254.5,245.8,254.5,247.1z"/>
		<path class="st4" d="M230.5,233.1c0,0.7-0.5,0.9-1,0.6c-0.6-0.3-1-1.1-1-1.8c0-0.7,0.5-0.9,1-0.6
			C230.1,231.6,230.5,232.4,230.5,233.1z"/>
		<path class="st23" d="M234.2,235.3c0,0.7-0.5,0.9-1,0.6c-0.6-0.3-1-1.1-1-1.8c0-0.7,0.5-0.9,1-0.6
			C233.8,233.8,234.2,234.6,234.2,235.3z"/>
		<ellipse transform="matrix(0.866 -0.5 0.5 0.866 -86.6556 150.1743)" class="st4" cx="236.9" cy="236.8" rx="0.9" ry="1.5"/>
	</g>
</g>
<g>
	<g>
		<g>
			<path class="st2" d="M328.3,310.1l-48.6-27.7c-1.8-1-1.6-2.8,0.5-4l28-16.1c2.1-1.2,5.2-1.3,6.9-0.3l48.6,27.7
				c1.8,1,1.6,2.8-0.5,4l-28,16.1C333.2,311,330.1,311.2,328.3,310.1z"/>
			<path class="st22" d="M368,280.4L368,280.4V166.9l-45.1-11.8l-8.3-4.8c-1.9-1.1-5.2-1-7.4,0.3l-7.8,4.5l-24.1,0l7.1,109.5
				c-0.1,0.7,0.4,1.5,1.3,2l45,34c1.9,1.1,5.2,1,7.4-0.3l30-17.3C367.5,282.2,368.1,281.3,368,280.4z"/>
			<path class="st23" d="M311.1,149.6c-1.4,0-2.8,0.4-4,1l-7.8,4.5l-24.1,0v113.8c-0.1,0.7,0.4,1.5,1.3,2l52.1,29.7
				c0.9,0.5,2.2,0.8,3.5,0.7l0.5-114.5L311.1,149.6z"/>
			<path class="st21" d="M329.2,300.8c1.6,0.7,4,0.7,5.9-0.1V185.5h-5.9V300.8z"/>
			<path class="st23" d="M328.8,186.8l-52.1-29.7c-1.9-1.1-1.7-3,0.5-4.3l30-17.3c2.2-1.3,5.5-1.4,7.4-0.3l52.1,29.7
				c1.9,1.1,1.7,3-0.5,4.3l-30,17.3C334,187.8,330.7,187.9,328.8,186.8z"/>
			<path class="st24" d="M366.2,167.1l-30,17.3c-2.2,1.3-5.5,1.4-7.4,0.3L276.6,155c-0.4-0.2-0.7-0.5-1-0.8c-0.7,1.1-0.4,2.2,1,3
				l52.1,29.7c1.9,1.1,5.2,1,7.4-0.3l30-17.3c1.7-1,2.2-2.4,1.5-3.5C367.4,166.3,366.9,166.7,366.2,167.1z"/>
			<g>
				<path class="st4" d="M330.2,174.8l-34.7-20.1c-0.9-0.5-0.8-1.4,0.2-2l14-8.1c1-0.6,2.6-0.7,3.5-0.1l34.7,20.1
					c0.9,0.5,0.8,1.4-0.3,2l-14,8.1C332.7,175.3,331.1,175.3,330.2,174.8z"/>
				<g>
					<path class="st23" d="M311.5,155.6l-2-1.2c-0.1-0.1-0.1-0.2,0-0.3l1.9-1.1c0.1-0.1,0.4-0.1,0.5,0l2,1.2c0.1,0.1,0.1,0.2,0,0.3
						l-1.9,1.1C311.8,155.6,311.6,155.7,311.5,155.6z"/>
					<path class="st23" d="M318.2,159.4l-2-1.2c-0.1-0.1-0.1-0.2,0-0.3l1.9-1.1c0.1-0.1,0.4-0.1,0.5,0l2,1.2c0.1,0.1,0.1,0.2,0,0.3
						l-1.9,1.1C318.6,159.5,318.3,159.5,318.2,159.4z"/>
					<path class="st23" d="M324.9,163.3l-2-1.2c-0.1-0.1-0.1-0.2,0-0.3l1.9-1.1c0.1-0.1,0.4-0.1,0.5,0l2,1.2c0.1,0.1,0.1,0.2,0,0.3
						l-1.9,1.1C325.3,163.4,325.1,163.4,324.9,163.3z"/>
					<path class="st23" d="M331.7,167.2l-2-1.2c-0.1-0.1-0.1-0.2,0-0.3l1.9-1.1c0.1-0.1,0.4-0.1,0.5,0l2,1.2c0.1,0.1,0.1,0.2,0,0.3
						l-1.9,1.1C332,167.2,331.8,167.2,331.7,167.2z"/>
				</g>
				<path class="st21" d="M295.5,154.7L295.5,154.7c0.1,0,0.2-0.1,0.2-0.1l14-8.1c1-0.6,2.6-0.7,3.5-0.1l34.7,20.1
					c0.8-0.6,0.9-1.4,0-1.9l-34.7-20.1c-0.9-0.5-2.5-0.5-3.5,0.1l-14,8.1C294.7,153.3,294.6,154.2,295.5,154.7z"/>
			</g>
		</g>
		<g>
			<path class="st4" d="M342.1,209.3l19.7-11.3c1.1-0.6,2-2.4,2-3.8v-7.1c0-1.5-0.9-2.2-2-1.5l-19.7,11.3c-1.1,0.6-2,2.4-2,3.8v7.1
				C340,209.3,340.9,210,342.1,209.3z"/>
			<path class="st8" d="M362.8,185.4c0.3,0.3,0.5,0.8,0.5,1.5v7.1c0,1.5-0.9,3.2-2,3.8l-19.7,11.3c-0.4,0.2-0.7,0.3-1,0.2
				c0.4,0.3,0.9,0.4,1.5,0.1l19.7-11.3c1.1-0.6,2-2.4,2-3.8v-7.1C363.8,186.1,363.4,185.5,362.8,185.4z"/>
			<g>
				<path class="st22" d="M348,201.7l1.8-1c0.2-0.1,0.4-0.5,0.4-0.8v-1.9c0-0.3-0.2-0.5-0.4-0.3l-1.8,1c-0.2,0.1-0.4,0.5-0.4,0.8
					v1.9C347.6,201.7,347.7,201.8,348,201.7z"/>
				<path class="st8" d="M354,198.2l1.8-1c0.2-0.1,0.4-0.5,0.4-0.8v-1.9c0-0.3-0.2-0.5-0.4-0.3l-1.8,1c-0.2,0.1-0.4,0.5-0.4,0.8v1.9
					C353.6,198.2,353.8,198.3,354,198.2z"/>
			</g>
		</g>
		<g>
			<path class="st4" d="M342.1,260.3l19.7-11.3c1.1-0.6,2-2.4,2-3.8v-7.1c0-1.5-0.9-2.2-2-1.5l-19.7,11.3c-1.1,0.6-2,2.4-2,3.8v7.1
				C340,260.3,340.9,261,342.1,260.3z"/>
			<path class="st8" d="M362.8,236.4c0.3,0.3,0.5,0.8,0.5,1.5v7.1c0,1.5-0.9,3.2-2,3.8l-19.7,11.3c-0.4,0.2-0.7,0.3-1,0.2
				c0.4,0.3,0.9,0.4,1.5,0.1l19.7-11.3c1.1-0.6,2-2.4,2-3.8v-7.1C363.8,237.1,363.4,236.5,362.8,236.4z"/>
			<g>
				<path class="st22" d="M348,252.7l1.8-1c0.2-0.1,0.4-0.5,0.4-0.8v-1.9c0-0.3-0.2-0.5-0.4-0.3l-1.8,1c-0.2,0.1-0.4,0.5-0.4,0.8
					v1.9C347.6,252.7,347.7,252.8,348,252.7z"/>
				<path class="st8" d="M354,249.2l1.8-1c0.2-0.1,0.4-0.5,0.4-0.8v-1.9c0-0.3-0.2-0.5-0.4-0.3l-1.8,1c-0.2,0.1-0.4,0.5-0.4,0.8v1.9
					C353.6,249.2,353.8,249.3,354,249.2z"/>
			</g>
		</g>
		<g>
			<path class="st4" d="M342.1,285.8l19.7-11.3c1.1-0.6,2-2.4,2-3.8v-7.1c0-1.5-0.9-2.2-2-1.5l-19.7,11.3c-1.1,0.6-2,2.4-2,3.8v7.1
				C340,285.8,340.9,286.5,342.1,285.8z"/>
			<path class="st8" d="M362.8,261.9c0.3,0.3,0.5,0.8,0.5,1.5v7.1c0,1.5-0.9,3.2-2,3.8l-19.7,11.3c-0.4,0.2-0.7,0.3-1,0.2
				c0.4,0.3,0.9,0.4,1.5,0.1l19.7-11.3c1.1-0.6,2-2.4,2-3.8v-7.1C363.8,262.6,363.4,262,362.8,261.9z"/>
			<g>
				<path class="st22" d="M348,278.2l1.8-1c0.2-0.1,0.4-0.5,0.4-0.8v-1.9c0-0.3-0.2-0.5-0.4-0.3l-1.8,1c-0.2,0.1-0.4,0.5-0.4,0.8
					v1.9C347.6,278.2,347.7,278.3,348,278.2z"/>
				<path class="st8" d="M354,274.7l1.8-1c0.2-0.1,0.4-0.5,0.4-0.8v-1.9c0-0.3-0.2-0.5-0.4-0.3l-1.8,1c-0.2,0.1-0.4,0.5-0.4,0.8v1.9
					C353.6,274.7,353.8,274.8,354,274.7z"/>
			</g>
		</g>
		<g>
			<path class="st4" d="M342.1,234.8l19.7-11.3c1.1-0.6,2-2.4,2-3.8v-7.1c0-1.5-0.9-2.2-2-1.5l-19.7,11.3c-1.1,0.6-2,2.4-2,3.8v7.1
				C340,234.8,340.9,235.5,342.1,234.8z"/>
			<path class="st8" d="M362.8,210.9c0.3,0.3,0.5,0.8,0.5,1.5v7.1c0,1.5-0.9,3.2-2,3.8l-19.7,11.3c-0.4,0.2-0.7,0.3-1,0.2
				c0.4,0.3,0.9,0.4,1.5,0.1l19.7-11.3c1.1-0.6,2-2.4,2-3.8v-7.1C363.8,211.6,363.4,211,362.8,210.9z"/>
			<g>
				<path class="st22" d="M348,227.2l1.8-1c0.2-0.1,0.4-0.5,0.4-0.8v-1.9c0-0.3-0.2-0.5-0.4-0.3l-1.8,1c-0.2,0.1-0.4,0.5-0.4,0.8
					v1.9C347.6,227.2,347.7,227.3,348,227.2z"/>
				<path class="st8" d="M354,223.7l1.8-1c0.2-0.1,0.4-0.5,0.4-0.8v-1.9c0-0.3-0.2-0.5-0.4-0.3l-1.8,1c-0.2,0.1-0.4,0.5-0.4,0.8v1.9
					C353.6,223.7,353.8,223.8,354,223.7z"/>
			</g>
		</g>
	</g>
	<g>
		<path class="st21" d="M325,202.1l-45.5-26.3c-1-0.6-1.8-2.2-1.8-3.5v-8.7c0-1.4,0.8-2,1.8-1.4l45.5,26.3c1,0.6,1.8,2.2,1.8,3.5
			v8.7C326.8,202.1,326,202.7,325,202.1z"/>
		<path class="st25" d="M323.7,199.1l-42.9-24.8c-0.5-0.3-0.9-1.1-0.9-1.8V166c0-0.7,0.4-1,0.9-0.7l42.9,24.8
			c0.5,0.3,0.9,1.1,0.9,1.8v6.5C324.6,199,324.2,199.4,323.7,199.1z"/>
		<path class="st23" d="M289.7,176.1l-6.4-3.7c-0.5-0.3-0.9-1.1-0.9-1.7l0,0c0-0.7,0.4-1,0.9-0.7l6.4,3.7c0.5,0.3,0.9,1.1,0.9,1.7
			l0,0C290.6,176.1,290.2,176.4,289.7,176.1z"/>
		<path class="st4" d="M295.1,178.1c0,0.7-0.5,0.9-1,0.6s-1-1.1-1-1.8s0.5-0.9,1-0.6C294.7,176.6,295.1,177.4,295.1,178.1z"/>
		<path class="st4" d="M298.8,180.2c0,0.7-0.5,0.9-1,0.6c-0.6-0.3-1-1.1-1-1.8c0-0.7,0.5-0.9,1-0.6
			C298.4,178.7,298.8,179.6,298.8,180.2z"/>
		<path class="st23" d="M302.5,182.4c0,0.7-0.5,0.9-1,0.6c-0.6-0.3-1-1.1-1-1.8c0-0.7,0.5-0.9,1-0.6
			C302.1,180.9,302.5,181.7,302.5,182.4z"/>
		<path class="st4" d="M306.2,184.5c0,0.7-0.5,0.9-1,0.6c-0.6-0.3-1-1.1-1-1.8c0-0.7,0.5-0.9,1-0.6
			C305.8,183,306.2,183.8,306.2,184.5z"/>
		<path class="st4" d="M321.8,195.4l-2.2-1.2c-0.3-0.2-0.6-0.7-0.6-1.1v-2.3c0-0.4,0.3-0.6,0.6-0.4l2.2,1.2c0.3,0.2,0.6,0.7,0.6,1.1
			v2.3C322.4,195.4,322.2,195.6,321.8,195.4z"/>
	</g>
	<g>
		<path class="st21" d="M325,217.4l-45.5-26.3c-1-0.6-1.8-2.2-1.8-3.5v-8.7c0-1.4,0.8-2,1.8-1.4l45.5,26.3c1,0.6,1.8,2.2,1.8,3.5
			v8.7C326.8,217.4,326,218,325,217.4z"/>
		<path class="st25" d="M323.7,214.4l-42.9-24.8c-0.5-0.3-0.9-1.1-0.9-1.8v-6.5c0-0.7,0.4-1,0.9-0.7l42.9,24.8
			c0.5,0.3,0.9,1.1,0.9,1.8v6.5C324.6,214.4,324.2,214.7,323.7,214.4z"/>
		<path class="st23" d="M289.7,191.5l-6.4-3.7c-0.5-0.3-0.9-1.1-0.9-1.7l0,0c0-0.7,0.4-1,0.9-0.7l6.4,3.7c0.5,0.3,0.9,1.1,0.9,1.7
			l0,0C290.6,191.4,290.2,191.7,289.7,191.5z"/>
		<path class="st8" d="M295.1,193.4c0,0.7-0.5,0.9-1,0.6c-0.6-0.3-1-1.1-1-1.8c0-0.7,0.5-0.9,1-0.6
			C294.7,191.9,295.1,192.7,295.1,193.4z"/>
		<path class="st4" d="M298.8,195.5c0,0.7-0.5,0.9-1,0.6c-0.6-0.3-1-1.1-1-1.8c0-0.7,0.5-0.9,1-0.6
			C298.4,194,298.8,194.9,298.8,195.5z"/>
		<path class="st23" d="M302.5,197.7c0,0.7-0.5,0.9-1,0.6c-0.6-0.3-1-1.1-1-1.8c0-0.7,0.5-0.9,1-0.6
			C302.1,196.2,302.5,197,302.5,197.7z"/>
		<path class="st4" d="M306.2,199.8c0,0.7-0.5,0.9-1,0.6c-0.6-0.3-1-1.1-1-1.8s0.5-0.9,1-0.6C305.8,198.3,306.2,199.1,306.2,199.8z"
			/>
		<path class="st4" d="M321.8,210.7l-2.2-1.2c-0.3-0.2-0.6-0.7-0.6-1.1v-2.3c0-0.4,0.3-0.6,0.6-0.4l2.2,1.2c0.3,0.2,0.6,0.7,0.6,1.1
			v2.3C322.4,210.7,322.2,210.9,321.8,210.7z"/>
	</g>
	<g>
		<path class="st21" d="M325,232.7l-45.5-26.3c-1-0.6-1.8-2.2-1.8-3.5v-8.7c0-1.4,0.8-2,1.8-1.4l45.5,26.3c1,0.6,1.8,2.2,1.8,3.5
			v8.7C326.8,232.7,326,233.3,325,232.7z"/>
		<path class="st25" d="M323.7,229.7l-42.9-24.8c-0.5-0.3-0.9-1.1-0.9-1.8v-6.5c0-0.7,0.4-1,0.9-0.7l42.9,24.8
			c0.5,0.3,0.9,1.1,0.9,1.8v6.5C324.6,229.7,324.2,230,323.7,229.7z"/>
		<path class="st23" d="M289.7,206.8l-6.4-3.7c-0.5-0.3-0.9-1.1-0.9-1.7l0,0c0-0.7,0.4-1,0.9-0.7l6.4,3.7c0.5,0.3,0.9,1.1,0.9,1.7
			l0,0C290.6,206.7,290.2,207.1,289.7,206.8z"/>
		<ellipse transform="matrix(0.866 -0.5 0.5 0.866 -64.6494 174.9243)" class="st8" cx="294.1" cy="208.1" rx="0.9" ry="1.5"/>
		<ellipse transform="matrix(0.866 -0.5 0.5 0.866 -65.2223 177.0626)" class="st4" cx="297.8" cy="210.2" rx="0.9" ry="1.5"/>
		<path class="st23" d="M302.5,213c0,0.7-0.5,0.9-1,0.6s-1-1.1-1-1.8c0-0.7,0.5-0.9,1-0.6C302.1,211.5,302.5,212.3,302.5,213z"/>
		<path class="st4" d="M306.2,215.1c0,0.7-0.5,0.9-1,0.6c-0.6-0.3-1-1.1-1-1.8c0-0.7,0.5-0.9,1-0.6
			C305.8,213.6,306.2,214.5,306.2,215.1z"/>
		<path class="st4" d="M321.8,226l-2.2-1.2c-0.3-0.2-0.6-0.7-0.6-1.1v-2.3c0-0.4,0.3-0.6,0.6-0.4l2.2,1.2c0.3,0.2,0.6,0.7,0.6,1.1
			v2.3C322.4,226,322.2,226.2,321.8,226z"/>
	</g>
	<g>
		<path class="st21" d="M325,248l-45.5-26.3c-1-0.6-1.8-2.2-1.8-3.5v-8.7c0-1.4,0.8-2,1.8-1.4l45.5,26.3c1,0.6,1.8,2.2,1.8,3.5v8.7
			C326.8,248,326,248.6,325,248z"/>
		<path class="st25" d="M323.7,245l-42.9-24.8c-0.5-0.3-0.9-1.1-0.9-1.8v-6.5c0-0.7,0.4-1,0.9-0.7l42.9,24.8
			c0.5,0.3,0.9,1.1,0.9,1.8v6.5C324.6,245,324.2,245.3,323.7,245z"/>
		<path class="st23" d="M289.7,222.1l-6.4-3.7c-0.5-0.3-0.9-1.1-0.9-1.7l0,0c0-0.7,0.4-1,0.9-0.7l6.4,3.7c0.5,0.3,0.9,1.1,0.9,1.7
			l0,0C290.6,222.1,290.2,222.4,289.7,222.1z"/>
		<path class="st4" d="M295.1,224c0,0.7-0.5,0.9-1,0.6c-0.6-0.3-1-1.1-1-1.8c0-0.7,0.5-0.9,1-0.6C294.7,222.5,295.1,223.3,295.1,224
			z"/>
		<path class="st4" d="M298.8,226.2c0,0.7-0.5,0.9-1,0.6c-0.6-0.3-1-1.1-1-1.8c0-0.7,0.5-0.9,1-0.6
			C298.4,224.7,298.8,225.5,298.8,226.2z"/>
		<path class="st23" d="M302.5,228.3c0,0.7-0.5,0.9-1,0.6c-0.6-0.3-1-1.1-1-1.8c0-0.7,0.5-0.9,1-0.6
			C302.1,226.8,302.5,227.6,302.5,228.3z"/>
		<path class="st4" d="M306.2,230.4c0,0.7-0.5,0.9-1,0.6c-0.6-0.3-1-1.1-1-1.8c0-0.7,0.5-0.9,1-0.6
			C305.8,228.9,306.2,229.8,306.2,230.4z"/>
		<path class="st23" d="M321.8,241.4l-2.2-1.2c-0.3-0.2-0.6-0.7-0.6-1.1v-2.3c0-0.4,0.3-0.6,0.6-0.4l2.2,1.2
			c0.3,0.2,0.6,0.7,0.6,1.1v2.3C322.4,241.3,322.2,241.5,321.8,241.4z"/>
	</g>
	<g>
		<path class="st21" d="M325,263.3l-45.5-26.3c-1-0.6-1.8-2.2-1.8-3.5v-8.7c0-1.4,0.8-2,1.8-1.4l45.5,26.3c1,0.6,1.8,2.2,1.8,3.5
			v8.7C326.8,263.3,326,263.9,325,263.3z"/>
		<path class="st25" d="M323.7,260.3l-42.9-24.8c-0.5-0.3-0.9-1.1-0.9-1.8v-6.5c0-0.7,0.4-1,0.9-0.7l42.9,24.8
			c0.5,0.3,0.9,1.1,0.9,1.8v6.5C324.6,260.3,324.2,260.6,323.7,260.3z"/>
		<path class="st23" d="M289.7,237.4l-6.4-3.7c-0.5-0.3-0.9-1.1-0.9-1.7l0,0c0-0.7,0.4-1,0.9-0.7l6.4,3.7c0.5,0.3,0.9,1.1,0.9,1.7
			l0,0C290.6,237.4,290.2,237.7,289.7,237.4z"/>
		<ellipse transform="matrix(0.866 -0.5 0.5 0.866 -79.9602 179.0269)" class="st4" cx="294.1" cy="238.7" rx="0.9" ry="1.5"/>
		<ellipse transform="matrix(0.866 -0.5 0.5 0.866 -80.5331 181.1651)" class="st8" cx="297.8" cy="240.9" rx="0.9" ry="1.5"/>
		<ellipse transform="matrix(0.866 -0.5 0.5 0.866 -81.1061 183.3034)" class="st23" cx="301.5" cy="243" rx="0.9" ry="1.5"/>
		<path class="st8" d="M306.2,245.7c0,0.7-0.5,0.9-1,0.6c-0.6-0.3-1-1.1-1-1.8c0-0.7,0.5-0.9,1-0.6
			C305.8,244.3,306.2,245.1,306.2,245.7z"/>
		<path class="st23" d="M321.8,256.7l-2.2-1.2c-0.3-0.2-0.6-0.7-0.6-1.1V252c0-0.4,0.3-0.6,0.6-0.4l2.2,1.2c0.3,0.2,0.6,0.7,0.6,1.1
			v2.3C322.4,256.7,322.2,256.9,321.8,256.7z"/>
	</g>
	<g>
		<path class="st21" d="M325,278.7l-45.5-26.3c-1-0.6-1.8-2.2-1.8-3.5v-8.7c0-1.4,0.8-2,1.8-1.4l45.5,26.3c1,0.6,1.8,2.2,1.8,3.5
			v8.7C326.8,278.6,326,279.2,325,278.7z"/>
		<path class="st25" d="M323.7,275.6l-42.9-24.8c-0.5-0.3-0.9-1.1-0.9-1.8v-6.5c0-0.7,0.4-1,0.9-0.7l42.9,24.8
			c0.5,0.3,0.9,1.1,0.9,1.8v6.5C324.6,275.6,324.2,275.9,323.7,275.6z"/>
		<path class="st23" d="M289.7,252.7l-6.4-3.7c-0.5-0.3-0.9-1.1-0.9-1.7l0,0c0-0.7,0.4-1,0.9-0.7l6.4,3.7c0.5,0.3,0.9,1.1,0.9,1.7
			l0,0C290.6,252.7,290.2,253,289.7,252.7z"/>
		<path class="st4" d="M295.1,254.6c0,0.7-0.5,0.9-1,0.6c-0.6-0.3-1-1.1-1-1.8c0-0.7,0.5-0.9,1-0.6
			C294.7,253.2,295.1,254,295.1,254.6z"/>
		<path class="st4" d="M298.8,256.8c0,0.7-0.5,0.9-1,0.6c-0.6-0.3-1-1.1-1-1.8c0-0.7,0.5-0.9,1-0.6
			C298.4,255.3,298.8,256.1,298.8,256.8z"/>
		<path class="st23" d="M302.5,258.9c0,0.7-0.5,0.9-1,0.6c-0.6-0.3-1-1.1-1-1.8c0-0.7,0.5-0.9,1-0.6
			C302.1,257.4,302.5,258.2,302.5,258.9z"/>
		<path class="st4" d="M306.2,261.1c0,0.7-0.5,0.9-1,0.6c-0.6-0.3-1-1.1-1-1.8c0-0.7,0.5-0.9,1-0.6
			C305.8,259.6,306.2,260.4,306.2,261.1z"/>
		<path class="st4" d="M321.8,272l-2.2-1.2c-0.3-0.2-0.6-0.7-0.6-1.1v-2.3c0-0.4,0.3-0.6,0.6-0.4l2.2,1.2c0.3,0.2,0.6,0.7,0.6,1.1
			v2.3C322.4,272,322.2,272.2,321.8,272z"/>
	</g>
	<g>
		<path class="st21" d="M325,294l-45.5-26.3c-1-0.6-1.8-2.2-1.8-3.5v-8.7c0-1.4,0.8-2,1.8-1.4l45.5,26.3c1,0.6,1.8,2.2,1.8,3.5v8.7
			C326.8,293.9,326,294.6,325,294z"/>
		<path class="st25" d="M323.7,290.9l-42.9-24.8c-0.5-0.3-0.9-1.1-0.9-1.8v-6.5c0-0.7,0.4-1,0.9-0.7l42.9,24.8
			c0.5,0.3,0.9,1.1,0.9,1.8v6.5C324.6,290.9,324.2,291.2,323.7,290.9z"/>
		<path class="st23" d="M289.7,268l-6.4-3.7c-0.5-0.3-0.9-1.1-0.9-1.7l0,0c0-0.7,0.4-1,0.9-0.7l6.4,3.7c0.5,0.3,0.9,1.1,0.9,1.7l0,0
			C290.6,268,290.2,268.3,289.7,268z"/>
		<path class="st8" d="M296.3,270.8c0,1.3-0.9,1.8-2,1.1c-1.1-0.6-2-2.2-2-3.4c0-1.3,0.9-1.8,2-1.1
			C295.4,268,296.3,269.5,296.3,270.8z"/>
		<path class="st4" d="M304,275.3c0,0.7-0.5,0.9-1,0.6c-0.6-0.3-1-1.1-1-1.8c0-0.7,0.5-0.9,1-0.6C303.5,273.8,304,274.6,304,275.3z"
			/>
		<path class="st23" d="M307.7,277.4c0,0.7-0.5,0.9-1,0.6c-0.6-0.3-1-1.1-1-1.8c0-0.7,0.5-0.9,1-0.6
			C307.2,275.9,307.7,276.7,307.7,277.4z"/>
		<ellipse transform="matrix(0.866 -0.5 0.5 0.866 -97.891 192.539)" class="st4" cx="310.3" cy="278.9" rx="0.9" ry="1.5"/>
		<path class="st23" d="M321.8,287.3l-2.2-1.2c-0.3-0.2-0.6-0.7-0.6-1.1v-2.3c0-0.4,0.3-0.6,0.6-0.4l2.2,1.2
			c0.3,0.2,0.6,0.7,0.6,1.1v2.3C322.4,287.3,322.2,287.5,321.8,287.3z"/>
	</g>
</g>
<path class="st21" d="M249.2,281.5c-0.2,0-0.5-0.1-0.6-0.3c-0.2-0.3-0.1-0.7,0.2-0.9l9-5.2c1-0.6,1.7-1.7,1.7-2.9v-4.8
	c0-0.4,0.3-0.7,0.7-0.7c0.4,0,0.7,0.3,0.7,0.7v4.8c0,1.6-0.9,3.2-2.3,4l-9,5.2C249.5,281.5,249.3,281.5,249.2,281.5z"/>
<g>
	<g>
		<g>
			<g>
				
					<rect x="242.3" y="277.3" transform="matrix(0.4974 0.8675 -0.8675 0.4974 368.8493 -70.2166)" class="st21" width="5.5" height="11.8"/>
				<path class="st21" d="M252.1,281.4c0-1.2-0.9-2.7-1.9-3.4c-1.1-0.6-1.9-0.1-1.9,1.1c0,1.2,0.9,2.7,1.9,3.4
					C251.2,283.2,252.1,282.7,252.1,281.4z"/>
			</g>
			<g>
				
					<rect x="229.2" y="280.5" transform="matrix(0.4974 0.8675 -0.8675 0.4974 368.7907 -57.0932)" class="st21" width="8.9" height="18.5"/>
				<path class="st22" d="M240.2,282.8l3.5-2c1.4,1,2.6,3,2.7,4.7l-3.5,2C241.5,286.5,240.4,284.6,240.2,282.8z"/>
				<path class="st21" d="M244.8,287c0-2-1.4-4.4-3.1-5.4c-1.7-1-3.1-0.2-3.1,1.8c0,2,1.4,4.4,3.1,5.4
					C243.4,289.8,244.8,289,244.8,287z"/>
			</g>
		</g>
	</g>
	<path class="st23" d="M248.8,280.2c0.5-0.3,0.5-0.8,0-1c-0.5-0.3-1.3-0.3-1.8,0c-0.5,0.3-0.5,0.8,0,1
		C247.5,280.4,248.3,280.4,248.8,280.2z"/>
</g>
<g>
	<g>
		<path class="st2" d="M206.5,390.4l-113-65.2c-3.2-1.8-2.8-5.1,0.9-7.2l76.9-44.4c3.7-2.1,9.3-2.4,12.5-0.5l113,65.2
			c3.2,1.8,2.8,5.1-0.9,7.2l-76.9,44.4C215.3,392.1,209.7,392.3,206.5,390.4z"/>
		<path class="st21" d="M233.8,387.3c-0.1,0-0.2,0-0.3-0.1l-21.6-12.8c-0.3-0.2-0.4-0.6-0.2-0.9c0.2-0.3,0.6-0.4,0.9-0.2l21.6,12.8
			c0.3,0.2,0.4,0.6,0.2,0.9C234.2,387.2,234,387.3,233.8,387.3z"/>
		<path class="st4" d="M298.9,326.1l-15.4-2l-99.7-57.6c-3.2-1.8-8.8-1.6-12.5,0.5l-70.7,40.8l-9.3-1.2v5.3l0,0
			c-0.1,1.2,0.6,2.4,2.1,3.3l113,65.2c3.2,1.8,8.8,1.6,12.5-0.5l76.9-44.4c2.1-1.2,3.1-2.7,3.1-4.2l0,0V326.1z"/>
		<path class="st22" d="M224,289.7l-7.1-4.1H139l-38.4,22.2l-9.3-1.2v5.3l0,0c-0.1,1.2,0.6,2.4,2.1,3.3l113,65.2
			c1.7,1,4,1.4,6.4,1.2L224,289.7z"/>
		<path class="st21" d="M95.5,307.1l-4.1-0.5v5.3l0,0c-0.1,1.2,0.6,2.4,2.1,3.3l2,1.1V307.1z"/>
		<path class="st26" d="M207.6,380.9c3,1.1,7.4,0.9,10.6-0.7v-11.8h-10.6V380.9z"/>
		<path class="st23" d="M206.5,375.1l-113-65.2c-3.2-1.8-2.8-5.1,0.9-7.2l76.9-44.4c3.7-2.1,9.3-2.4,12.5-0.5l113,65.2
			c3.2,1.8,2.8,5.1-0.9,7.2l-76.9,44.4C215.3,376.7,209.7,376.9,206.5,375.1z"/>
		<path class="st8" d="M295.9,328.2l-76.9,44.4c-3.7,2.1-9.3,2.4-12.5,0.5l-113-65.2c-1-0.6-1.7-1.4-2-2.2c-0.5,1.5,0.1,3,2,4.1
			l113,65.2c3.2,1.8,8.8,1.6,12.5-0.5l76.9-44.4c2.5-1.4,3.5-3.4,2.9-5C298.4,326.2,297.4,327.3,295.9,328.2z"/>
		<g>
			<path class="st4" d="M141.5,288.3l-5.1-3c-0.4-0.2-0.4-0.7,0.1-0.9l6-3.5c0.5-0.3,1.2-0.3,1.6-0.1l5.1,3c0.4,0.2,0.4,0.7-0.1,0.9
				l-6,3.5C142.7,288.5,141.9,288.5,141.5,288.3z"/>
			<path class="st4" d="M149.4,292.8l-5.1-3c-0.4-0.2-0.4-0.7,0.1-0.9l6-3.5c0.5-0.3,1.2-0.3,1.6-0.1l5.1,3c0.4,0.2,0.4,0.7-0.1,0.9
				l-6,3.5C150.6,293,149.8,293.1,149.4,292.8z"/>
			<path class="st4" d="M157.3,297.4l-5.1-3c-0.4-0.2-0.4-0.7,0.1-0.9l6-3.5c0.5-0.3,1.2-0.3,1.6-0.1l5.1,3c0.4,0.2,0.4,0.7-0.1,0.9
				l-6,3.5C158.4,297.6,157.7,297.6,157.3,297.4z"/>
			<path class="st4" d="M168.2,293.6l-5.1-3c-0.4-0.2-0.4-0.7,0.1-0.9l5.1-2.9c0.5-0.3,1.2-0.3,1.6-0.1l5.1,3
				c0.4,0.2,0.4,0.7-0.1,0.9l-5.1,2.9C169.4,293.8,168.7,293.8,168.2,293.6z"/>
			<path class="st4" d="M176.1,298.2l-5.1-3c-0.4-0.2-0.4-0.7,0.1-0.9l5.1-2.9c0.5-0.3,1.2-0.3,1.6-0.1l5.1,3
				c0.4,0.2,0.4,0.7-0.1,0.9l-5.1,2.9C177.3,298.4,176.5,298.4,176.1,298.2z"/>
			<path class="st4" d="M184,302.7l-5.1-3c-0.4-0.2-0.4-0.7,0.1-0.9l5.1-2.9c0.5-0.3,1.2-0.3,1.6-0.1l5.1,3c0.4,0.2,0.4,0.7-0.1,0.9
				l-5.1,2.9C185.2,302.9,184.4,303,184,302.7z"/>
			<path class="st4" d="M191.9,307.3l-5.1-3c-0.4-0.2-0.4-0.7,0.1-0.9l5.1-2.9c0.5-0.3,1.2-0.3,1.6-0.1l5.1,3
				c0.4,0.2,0.4,0.7-0.1,0.9l-5.1,2.9C193.1,307.5,192.3,307.5,191.9,307.3z"/>
			<path class="st4" d="M199.8,311.8l-5.1-3c-0.4-0.2-0.4-0.7,0.1-0.9l5.1-2.9c0.5-0.3,1.2-0.3,1.6-0.1l5.1,3
				c0.4,0.2,0.4,0.7-0.1,0.9l-5.1,2.9C201,312.1,200.2,312.1,199.8,311.8z"/>
			<path class="st4" d="M207.7,316.4l-5.1-3c-0.4-0.2-0.4-0.7,0.1-0.9l5.1-2.9c0.5-0.3,1.2-0.3,1.6-0.1l5.1,3
				c0.4,0.2,0.4,0.7-0.1,0.9l-5.1,2.9C208.8,316.6,208.1,316.6,207.7,316.4z"/>
			<path class="st4" d="M215.6,321l-5.1-3c-0.4-0.2-0.4-0.7,0.1-0.9l5.1-2.9c0.5-0.3,1.2-0.3,1.6-0.1l5.1,3c0.4,0.2,0.4,0.7-0.1,0.9
				l-5.1,2.9C216.7,321.2,216,321.2,215.6,321z"/>
			<path class="st4" d="M223.5,325.5l-5.1-3c-0.4-0.2-0.4-0.7,0.1-0.9l5.1-2.9c0.5-0.3,1.2-0.3,1.6-0.1l5.1,3
				c0.4,0.2,0.4,0.7-0.1,0.9l-5.1,2.9C224.6,325.7,223.9,325.8,223.5,325.5z"/>
			<path class="st4" d="M231.4,330.1l-5.1-3c-0.4-0.2-0.4-0.7,0.1-0.9l5.1-2.9c0.5-0.3,1.2-0.3,1.6-0.1l5.1,3
				c0.4,0.2,0.4,0.7-0.1,0.9L233,330C232.5,330.3,231.8,330.3,231.4,330.1z"/>
			<path class="st4" d="M239.3,334.6l-5.1-3c-0.4-0.2-0.4-0.7,0.1-0.9l5.1-2.9c0.5-0.3,1.2-0.3,1.6-0.1l5.1,3
				c0.4,0.2,0.4,0.7-0.1,0.9l-5.1,2.9C240.4,334.8,239.7,334.9,239.3,334.6z"/>
			<path class="st22" d="M179.9,291.5l-5.1-3c-0.4-0.2-0.4-0.7,0.1-0.9l5.1-2.9c0.5-0.3,1.2-0.3,1.6-0.1l5.1,3
				c0.4,0.2,0.4,0.7-0.1,0.9l-5.1,2.9C181,291.7,180.3,291.7,179.9,291.5z"/>
			<path class="st22" d="M171.9,286.8l-5.1-3c-0.4-0.2-0.4-0.7,0.1-0.9l5.1-2.9c0.5-0.3,1.2-0.3,1.6-0.1l5.1,3
				c0.4,0.2,0.4,0.7-0.1,0.9l-5.1,2.9C173,287,172.3,287.1,171.9,286.8z"/>
			<path class="st4" d="M163.8,282.2l-11-6.4c-0.4-0.2-0.4-0.7,0.1-0.9l5.1-2.9c0.5-0.3,1.2-0.3,1.6-0.1l11,6.4
				c0.4,0.2,0.4,0.7-0.1,0.9l-5.1,2.9C165,282.4,164.2,282.4,163.8,282.2z"/>
			<path class="st4" d="M169.4,276.6l-8.9-5.2c-0.4-0.2-0.4-0.7,0.1-0.9l5.1-2.9c0.5-0.3,1.2-0.3,1.6-0.1l8.9,5.2
				c0.4,0.2,0.4,0.7-0.1,0.9l-5.1,2.9C170.6,276.8,169.9,276.8,169.4,276.6z"/>
			<path class="st22" d="M187.8,296l-5.1-3c-0.4-0.2-0.4-0.7,0.1-0.9l5.1-2.9c0.5-0.3,1.2-0.3,1.6-0.1l5.1,3
				c0.4,0.2,0.4,0.7-0.1,0.9l-5.1,2.9C188.9,296.2,188.2,296.3,187.8,296z"/>
			<path class="st4" d="M195.7,300.6l-5.1-3c-0.4-0.2-0.4-0.7,0.1-0.9l5.1-2.9c0.5-0.3,1.2-0.3,1.6-0.1l5.1,3
				c0.4,0.2,0.4,0.7-0.1,0.9l-5.1,2.9C196.8,300.8,196.1,300.8,195.7,300.6z"/>
			<path class="st4" d="M203.6,305.1l-5.1-3c-0.4-0.2-0.4-0.7,0.1-0.9l5.1-2.9c0.5-0.3,1.2-0.3,1.6-0.1l5.1,3
				c0.4,0.2,0.4,0.7-0.1,0.9l-5.1,2.9C204.7,305.3,204,305.4,203.6,305.1z"/>
			<path class="st4" d="M211.5,309.7l-5.1-3c-0.4-0.2-0.4-0.7,0.1-0.9l5.1-2.9c0.5-0.3,1.2-0.3,1.6-0.1l5.1,3
				c0.4,0.2,0.4,0.7-0.1,0.9l-5.1,2.9C212.6,309.9,211.9,309.9,211.5,309.7z"/>
			<path class="st4" d="M219.4,314.2l-5.1-3c-0.4-0.2-0.4-0.7,0.1-0.9l5.1-2.9c0.5-0.3,1.2-0.3,1.6-0.1l5.1,3
				c0.4,0.2,0.4,0.7-0.1,0.9l-5.1,2.9C220.5,314.5,219.8,314.5,219.4,314.2z"/>
			<path class="st4" d="M227.3,318.8l-5.1-3c-0.4-0.2-0.4-0.7,0.1-0.9l5.1-2.9c0.5-0.3,1.2-0.3,1.6-0.1l5.1,3
				c0.4,0.2,0.4,0.7-0.1,0.9l-5.1,2.9C228.4,319,227.7,319,227.3,318.8z"/>
			<path class="st4" d="M235.1,323.4l-5.1-3c-0.4-0.2-0.4-0.7,0.1-0.9l5.1-2.9c0.5-0.3,1.2-0.3,1.6-0.1l5.1,3
				c0.4,0.2,0.4,0.7-0.1,0.9l-5.1,2.9C236.3,323.6,235.6,323.6,235.1,323.4z"/>
			<path class="st4" d="M243,327.9l-5.1-3c-0.4-0.2-0.4-0.7,0.1-0.9l5.1-2.9c0.5-0.3,1.2-0.3,1.6-0.1l5.1,3c0.4,0.2,0.4,0.7-0.1,0.9
				l-5.1,2.9C244.2,328.1,243.5,328.2,243,327.9z"/>
			<path class="st4" d="M250.9,332.5l-5.1-3c-0.4-0.2-0.4-0.7,0.1-0.9l5.1-2.9c0.5-0.3,1.2-0.3,1.6-0.1l5.1,3
				c0.4,0.2,0.4,0.7-0.1,0.9l-5.1,2.9C252.1,332.7,251.4,332.7,250.9,332.5z"/>
			<path class="st4" d="M265,340.6l-11.2-6.4c-0.4-0.2-0.4-0.7,0.1-0.9l5.1-2.9c0.5-0.3,1.2-0.3,1.6-0.1l11.2,6.4
				c0.4,0.2,0.4,0.7-0.1,0.9l-5.1,2.9C266.1,340.8,265.4,340.8,265,340.6z"/>
			<path class="st4" d="M280.4,331.7l-9.4-5.4c-0.4-0.2-0.4-0.7,0.1-0.9l5.1-2.9c0.5-0.3,1.2-0.3,1.6-0.1l9.4,5.4
				c0.4,0.2,0.4,0.7-0.1,0.9l-5.1,2.9C281.5,331.9,280.8,332,280.4,331.7z"/>
			<path class="st4" d="M201.6,295.1l-5.1-3c-0.4-0.2-0.4-0.7,0.1-0.9l5.1-2.9c0.5-0.3,1.2-0.3,1.6-0.1l5.1,3
				c0.4,0.2,0.4,0.7-0.1,0.9l-5.1,2.9C202.7,295.3,202,295.4,201.6,295.1z"/>
			<path class="st4" d="M193.5,290.4l-5.1-3c-0.4-0.2-0.4-0.7,0.1-0.9l5.1-2.9c0.5-0.3,1.2-0.3,1.6-0.1l5.1,3
				c0.4,0.2,0.4,0.7-0.1,0.9l-5.1,2.9C194.6,290.7,193.9,290.7,193.5,290.4z"/>
			<path class="st22" d="M185.4,285.8l-5.1-3c-0.4-0.2-0.4-0.7,0.1-0.9l5.1-2.9c0.5-0.3,1.2-0.3,1.6-0.1l5.1,3
				c0.4,0.2,0.4,0.7-0.1,0.9l-5.1,2.9C186.5,286,185.8,286,185.4,285.8z"/>
			<path class="st4" d="M177.3,281.1l-5.1-3c-0.4-0.2-0.4-0.7,0.1-0.9l5.1-2.9c0.5-0.3,1.2-0.3,1.6-0.1l5.1,3
				c0.4,0.2,0.4,0.7-0.1,0.9l-5.1,2.9C178.4,281.3,177.7,281.3,177.3,281.1z"/>
			<path class="st4" d="M209.5,299.7l-5.1-3c-0.4-0.2-0.4-0.7,0.1-0.9l5.1-2.9c0.5-0.3,1.2-0.3,1.6-0.1l5.1,3
				c0.4,0.2,0.4,0.7-0.1,0.9l-5.1,2.9C210.6,299.9,209.9,299.9,209.5,299.7z"/>
			<path class="st4" d="M217.4,304.2l-5.1-3c-0.4-0.2-0.4-0.7,0.1-0.9l5.1-2.9c0.5-0.3,1.2-0.3,1.6-0.1l5.1,3
				c0.4,0.2,0.4,0.7-0.1,0.9l-5.1,2.9C218.5,304.4,217.8,304.5,217.4,304.2z"/>
			<path class="st4" d="M225.3,308.8l-5.1-3c-0.4-0.2-0.4-0.7,0.1-0.9l5.1-2.9c0.5-0.3,1.2-0.3,1.6-0.1l5.1,3
				c0.4,0.2,0.4,0.7-0.1,0.9l-5.1,2.9C226.4,309,225.7,309,225.3,308.8z"/>
			<path class="st4" d="M233.2,313.4l-5.1-3c-0.4-0.2-0.4-0.7,0.1-0.9l5.1-2.9c0.5-0.3,1.2-0.3,1.6-0.1l5.1,3
				c0.4,0.2,0.4,0.7-0.1,0.9l-5.1,2.9C234.3,313.6,233.6,313.6,233.2,313.4z"/>
			<path class="st4" d="M241.1,317.9l-5.1-3c-0.4-0.2-0.4-0.7,0.1-0.9l5.1-2.9c0.5-0.3,1.2-0.3,1.6-0.1l5.1,3
				c0.4,0.2,0.4,0.7-0.1,0.9l-5.1,2.9C242.2,318.1,241.5,318.2,241.1,317.9z"/>
			<path class="st4" d="M249,322.5l-5.1-3c-0.4-0.2-0.4-0.7,0.1-0.9l5.1-2.9c0.5-0.3,1.2-0.3,1.6-0.1l5.1,3c0.4,0.2,0.4,0.7-0.1,0.9
				l-5.1,2.9C250.1,322.7,249.4,322.7,249,322.5z"/>
			<path class="st4" d="M256.9,327l-5.1-3c-0.4-0.2-0.4-0.7,0.1-0.9l5.1-2.9c0.5-0.3,1.2-0.3,1.6-0.1l5.1,3c0.4,0.2,0.4,0.7-0.1,0.9
				l-5.1,2.9C258,327.2,257.3,327.3,256.9,327z"/>
			<path class="st4" d="M264.8,331.6l-5.1-3c-0.4-0.2-0.4-0.7,0.1-0.9l5.1-2.9c0.5-0.3,1.2-0.3,1.6-0.1l5.1,3
				c0.4,0.2,0.4,0.7-0.1,0.9l-5.1,2.9C265.9,331.8,265.2,331.8,264.8,331.6z"/>
			<path class="st4" d="M272.7,336.2l-5.1-3c-0.4-0.2-0.4-0.7,0.1-0.9l5.1-2.9c0.5-0.3,1.2-0.3,1.6-0.1l5.1,3
				c0.4,0.2,0.4,0.7-0.1,0.9l-5.1,2.9C273.8,336.4,273.1,336.4,272.7,336.2z"/>
			<path class="st4" d="M197.4,283.8l-5.1-3c-0.4-0.2-0.4-0.7,0.1-0.9l5.1-2.9c0.5-0.3,1.2-0.3,1.6-0.1l5.1,3
				c0.4,0.2,0.4,0.7-0.1,0.9l-5.1,2.9C198.6,284.1,197.9,284.1,197.4,283.8z"/>
			<path class="st4" d="M189.6,279.3l-5.1-3c-0.4-0.2-0.4-0.7,0.1-0.9l5.1-2.9c0.5-0.3,1.2-0.3,1.6-0.1l5.1,3
				c0.4,0.2,0.4,0.7-0.1,0.9l-5.1,2.9C190.7,279.5,190,279.5,189.6,279.3z"/>
			<path class="st4" d="M181.7,274.8l-5.1-3c-0.4-0.2-0.4-0.7,0.1-0.9l5.1-2.9c0.5-0.3,1.2-0.3,1.6-0.1l5.1,3
				c0.4,0.2,0.4,0.7-0.1,0.9l-5.1,2.9C182.9,275,182.1,275,181.7,274.8z"/>
			<path class="st4" d="M173.9,270.2l-5.1-3c-0.4-0.2-0.4-0.7,0.1-0.9l5.1-2.9c0.5-0.3,1.2-0.3,1.6-0.1l5.1,3
				c0.4,0.2,0.4,0.7-0.1,0.9l-5.1,2.9C175,270.4,174.3,270.5,173.9,270.2z"/>
			<path class="st4" d="M182,265.6l-5.1-3c-0.4-0.2-0.4-0.7,0.1-0.9l1.7-1c0.5-0.3,1.2-0.3,1.6-0.1l5.1,3c0.4,0.2,0.4,0.7-0.1,0.9
				l-1.7,1C183.1,265.8,182.4,265.8,182,265.6z"/>
			<path class="st4" d="M192.2,271.5l-5.1-3c-0.4-0.2-0.4-0.7,0.1-0.9l1.7-1c0.5-0.3,1.2-0.3,1.6-0.1l5.1,3c0.4,0.2,0.4,0.7-0.1,0.9
				l-1.7,1C193.3,271.7,192.6,271.7,192.2,271.5z"/>
			<path class="st4" d="M200,276l-5.1-3c-0.4-0.2-0.4-0.7,0.1-0.9l1.7-1c0.5-0.3,1.2-0.3,1.6-0.1l5.1,3c0.4,0.2,0.4,0.7-0.1,0.9
				l-1.7,1C201.2,276.2,200.4,276.2,200,276z"/>
			<path class="st4" d="M207.9,280.5l-5.1-3c-0.4-0.2-0.4-0.7,0.1-0.9l1.7-1c0.5-0.3,1.2-0.3,1.6-0.1l5.1,3c0.4,0.2,0.4,0.7-0.1,0.9
				l-1.7,1C209,280.7,208.3,280.8,207.9,280.5z"/>
			<path class="st4" d="M215.7,285l-5.1-3c-0.4-0.2-0.4-0.7,0.1-0.9l1.7-1c0.5-0.3,1.2-0.3,1.6-0.1l5.1,3c0.4,0.2,0.4,0.7-0.1,0.9
				l-1.7,1C216.8,285.3,216.1,285.3,215.7,285z"/>
			<path class="st4" d="M259.4,310.3l-5.1-3c-0.4-0.2-0.4-0.7,0.1-0.9l1.7-1c0.5-0.3,1.2-0.3,1.6-0.1l5.1,3c0.4,0.2,0.4,0.7-0.1,0.9
				l-1.7,1C260.5,310.5,259.8,310.5,259.4,310.3z"/>
			<path class="st4" d="M267.2,314.8l-5.1-3c-0.4-0.2-0.4-0.7,0.1-0.9l1.7-1c0.5-0.3,1.2-0.3,1.6-0.1l5.1,3c0.4,0.2,0.4,0.7-0.1,0.9
				l-1.7,1C268.3,315,267.6,315,267.2,314.8z"/>
			<path class="st4" d="M275,319.3l-5.1-3c-0.4-0.2-0.4-0.7,0.1-0.9l1.7-1c0.5-0.3,1.2-0.3,1.6-0.1l5.1,3c0.4,0.2,0.4,0.7-0.1,0.9
				l-1.7,1C276.1,319.5,275.4,319.5,275,319.3z"/>
			<path class="st4" d="M282.8,323.8l-5.1-3c-0.4-0.2-0.4-0.7,0.1-0.9l1.7-1c0.5-0.3,1.2-0.3,1.6-0.1l5.1,3c0.4,0.2,0.4,0.7-0.1,0.9
				l-1.7,1C284,324,283.2,324.1,282.8,323.8z"/>
			<path class="st4" d="M205.3,288.4l-5.1-3c-0.4-0.2-0.4-0.7,0.1-0.9l5.1-2.9c0.5-0.3,1.2-0.3,1.6-0.1l5.1,3
				c0.4,0.2,0.4,0.7-0.1,0.9l-5.1,2.9C206.5,288.6,205.7,288.6,205.3,288.4z"/>
			<path class="st4" d="M213.2,293l-5.1-3c-0.4-0.2-0.4-0.7,0.1-0.9l5.1-2.9c0.5-0.3,1.2-0.3,1.6-0.1l5.1,3c0.4,0.2,0.4,0.7-0.1,0.9
				l-5.1,2.9C214.4,293.2,213.6,293.2,213.2,293z"/>
			<path class="st4" d="M221.1,297.5l-5.1-3c-0.4-0.2-0.4-0.7,0.1-0.9l5.1-2.9c0.5-0.3,1.2-0.3,1.6-0.1l5.1,3
				c0.4,0.2,0.4,0.7-0.1,0.9l-5.1,2.9C222.3,297.7,221.5,297.8,221.1,297.5z"/>
			<path class="st4" d="M229,302.1l-5.1-3c-0.4-0.2-0.4-0.7,0.1-0.9l5.1-2.9c0.5-0.3,1.2-0.3,1.6-0.1l5.1,3c0.4,0.2,0.4,0.7-0.1,0.9
				l-5.1,2.9C230.2,302.3,229.4,302.3,229,302.1z"/>
			<path class="st4" d="M236.9,306.6l-5.1-3c-0.4-0.2-0.4-0.7,0.1-0.9l5.1-2.9c0.5-0.3,1.2-0.3,1.6-0.1l5.1,3
				c0.4,0.2,0.4,0.7-0.1,0.9l-5.1,2.9C238.1,306.8,237.3,306.9,236.9,306.6z"/>
			<path class="st4" d="M244.8,311.2l-5.1-3c-0.4-0.2-0.4-0.7,0.1-0.9l5.1-2.9c0.5-0.3,1.2-0.3,1.6-0.1l5.1,3
				c0.4,0.2,0.4,0.7-0.1,0.9l-5.1,2.9C245.9,311.4,245.2,311.4,244.8,311.2z"/>
			<path class="st4" d="M252.7,315.8l-5.1-3c-0.4-0.2-0.4-0.7,0.1-0.9l5.1-2.9c0.5-0.3,1.2-0.3,1.6-0.1l5.1,3
				c0.4,0.2,0.4,0.7-0.1,0.9l-5.1,2.9C253.8,316,253.1,316,252.7,315.8z"/>
			<path class="st4" d="M260.6,320.3l-5.1-3c-0.4-0.2-0.4-0.7,0.1-0.9l5.1-2.9c0.5-0.3,1.2-0.3,1.6-0.1l5.1,3
				c0.4,0.2,0.4,0.7-0.1,0.9l-5.1,2.9C261.7,320.5,261,320.6,260.6,320.3z"/>
			<path class="st4" d="M268.5,324.9l-5.1-3c-0.4-0.2-0.4-0.7,0.1-0.9l5.1-2.9c0.5-0.3,1.2-0.3,1.6-0.1l5.1,3
				c0.4,0.2,0.4,0.7-0.1,0.9l-5.1,2.9C269.6,325.1,268.9,325.1,268.5,324.9z"/>
			<path class="st4" d="M160.2,289l-15.1-8.7c-0.4-0.2-0.4-0.7,0.1-0.9l5.1-2.9c0.5-0.3,1.2-0.3,1.6-0.1l15.1,8.7
				c0.4,0.2,0.4,0.7-0.1,0.9l-5.1,2.9C161.3,289.2,160.6,289.2,160.2,289z"/>
			<path class="st4" d="M257.2,345l-15.1-8.7c-0.4-0.2-0.4-0.7,0.1-0.9l5.1-2.9c0.5-0.3,1.2-0.3,1.6-0.1l15.1,8.7
				c0.4,0.2,0.4,0.7-0.1,0.9l-5.1,2.9C258.3,345.2,257.6,345.2,257.2,345z"/>
			<path class="st4" d="M225.6,336.8l-5.1-3c-0.4-0.2-0.4-0.7,0.1-0.9l6-3.5c0.5-0.3,1.2-0.3,1.6-0.1l5.1,3c0.4,0.2,0.4,0.7-0.1,0.9
				l-6,3.5C226.8,337,226,337,225.6,336.8z"/>
			<path class="st4" d="M168.3,303.7l-8.2-4.7c-0.4-0.2-0.4-0.7,0.1-0.9l6-3.5c0.5-0.3,1.2-0.3,1.6-0.1l8.2,4.7
				c0.4,0.2,0.4,0.7-0.1,0.9l-6,3.5C169.4,303.9,168.7,303.9,168.3,303.7z"/>
			<path class="st4" d="M218,332.4l-8.2-4.7c-0.4-0.2-0.4-0.7,0.1-0.9l6-3.5c0.5-0.3,1.2-0.3,1.6-0.1l8.2,4.7
				c0.4,0.2,0.4,0.7-0.1,0.9l-6,3.5C219.1,332.6,218.4,332.7,218,332.4z"/>
			<path class="st4" d="M179.7,310.3l-8.2-4.7c-0.4-0.2-0.4-0.7,0.1-0.9l6-3.5c0.5-0.3,1.2-0.3,1.6-0.1l8.2,4.7
				c0.4,0.2,0.4,0.7-0.1,0.9l-6,3.5C180.8,310.5,180.1,310.5,179.7,310.3z"/>
			<path class="st4" d="M179.3,301.1l35.6,20.5c0.4,0.3,0.4,0.7,0,0.9l-6.2,3.6c-0.4,0.3-1.2,0.3-1.6,0l-35.6-20.5L179.3,301.1z"/>
			<path class="st4" d="M247.7,345.1l5.7,3.3c0.3,0.2,0.3,0.5-0.1,0.8l-2.5,1.4c-0.4,0.2-1,0.2-1.3,0.1l-5.7-3.3
				c-0.3-0.2-0.3-0.5,0.1-0.8l2.5-1.4C246.8,344.9,247.4,344.9,247.7,345.1z"/>
			<path class="st4" d="M239.7,340.5l5.7,3.3c0.3,0.2,0.3,0.5-0.1,0.8l-2.5,1.4c-0.4,0.2-1,0.2-1.3,0.1l-5.7-3.3
				c-0.3-0.2-0.3-0.5,0.1-0.8l2.5-1.4C238.8,340.3,239.4,340.3,239.7,340.5z"/>
			<path class="st4" d="M231.8,335.9l5.7,3.3c0.3,0.2,0.3,0.5-0.1,0.8l-2.5,1.4c-0.4,0.2-1,0.2-1.3,0.1l-5.7-3.3
				c-0.3-0.2-0.3-0.5,0.1-0.8l2.5-1.4C230.9,335.8,231.5,335.7,231.8,335.9z"/>
			<path class="st4" d="M244.1,338l5.7,3.3c0.3,0.2,0.3,0.5-0.1,0.8l-2.5,1.4c-0.4,0.2-1,0.2-1.3,0.1l-5.7-3.3
				c-0.3-0.2-0.3-0.5,0.1-0.8l2.5-1.4C243.2,337.8,243.8,337.8,244.1,338z"/>
		</g>
	</g>
	<path class="st21" d="M177.1,350.6c-0.9,0-1.7-0.2-2.4-0.6l-39.5-22.8c-0.7-0.4-1.1-1-1.1-1.7c0-0.8,0.5-1.5,1.5-2.1l26.1-15.1
		c1.6-0.9,4-1,5.4-0.2l39.5,22.8c0.7,0.4,1.1,1,1.1,1.7c0,0.8-0.5,1.5-1.5,2.1l-26.1,15.1C179.2,350.3,178.1,350.6,177.1,350.6z
		 M164.7,308.8c-0.8,0-1.7,0.2-2.4,0.6l-26.1,15.1c-0.5,0.3-0.9,0.7-0.9,1c0,0.3,0.3,0.5,0.5,0.7l39.5,22.8l0,0
		c1,0.6,2.9,0.5,4.1-0.2l26.1-15.1c0.5-0.3,0.9-0.7,0.9-1c0-0.3-0.3-0.5-0.5-0.7l-39.5-22.8C166,308.9,165.4,308.8,164.7,308.8z"/>
	<g>
		<path class="st8" d="M168,325.7l3.9-2.2c0.4-0.2,1-0.2,1.4,0.1l0,0c0.4,0.2,0.5,0.6,0.1,0.8l-3.9,2.2c-0.4,0.2-1,0.2-1.4-0.1l0,0
			C167.7,326.3,167.6,325.9,168,325.7z"/>
		<path class="st8" d="M159.8,330.3l5.7-3.2c0.4-0.2,1-0.2,1.4,0.1l0,0c0.4,0.2,0.5,0.6,0.1,0.8l-5.7,3.2c-0.4,0.2-1,0.2-1.4-0.1
			l0,0C159.4,330.9,159.4,330.5,159.8,330.3z"/>
		<path class="st8" d="M180.8,332.8l7.4-4.1c0.4-0.2,1-0.2,1.4,0.1l0,0c0.4,0.2,0.5,0.6,0.1,0.8l-7.4,4.1c-0.4,0.2-1,0.2-1.4-0.1
			l0,0C180.5,333.4,180.4,333,180.8,332.8z"/>
		<path class="st8" d="M179.4,326.4l2.4-1.4c0.4-0.2,1-0.2,1.4,0.1l0,0c0.4,0.2,0.5,0.6,0.1,0.8l-2.4,1.4c-0.4,0.2-1,0.2-1.4-0.1
			l0,0C179.1,327,179.1,326.6,179.4,326.4z"/>
		<path class="st8" d="M174,322.3l1.6-0.9c0.4-0.2,1-0.2,1.4,0.1l0,0c0.4,0.2,0.5,0.6,0.1,0.8l-1.6,0.9c-0.4,0.2-1,0.2-1.4-0.1l0,0
			C173.7,322.9,173.6,322.5,174,322.3z"/>
		<path class="st8" d="M167.3,318.9l1.9-1.1c0.4-0.2,1-0.2,1.4,0.1l0,0c0.4,0.2,0.5,0.6,0.1,0.8l-1.9,1.1c-0.4,0.2-1,0.2-1.4-0.1
			l0,0C167,319.5,167,319.1,167.3,318.9z"/>
		<path class="st8" d="M159.8,323.1l5.1-2.8c0.4-0.2,1-0.2,1.4,0.1l0,0c0.4,0.2,0.5,0.6,0.1,0.8l-5.1,2.8c-0.4,0.2-1,0.2-1.4-0.1
			l0,0C159.5,323.7,159.5,323.3,159.8,323.1z"/>
		<path class="st8" d="M162.5,318.1l3.7-2c0.4-0.2,1-0.2,1.4,0.1l0,0c0.4,0.2,0.5,0.6,0.1,0.8l-3.7,2c-0.4,0.2-1,0.2-1.4-0.1l0,0
			C162.1,318.7,162.1,318.3,162.5,318.1z"/>
		<path class="st8" d="M170.4,331.5l6.5-3.6c0.4-0.2,1-0.2,1.4,0.1l0,0c0.4,0.2,0.5,0.6,0.1,0.8l-6.5,3.6c-0.4,0.2-1,0.2-1.4-0.1
			l0,0C170.1,332,170.1,331.7,170.4,331.5z"/>
		<path class="st8" d="M173.8,333.2l11.2-6.3c0.4-0.2,1-0.2,1.4,0.1l0,0c0.4,0.2,0.5,0.6,0.1,0.8l-11.2,6.3c-0.4,0.2-1,0.2-1.4-0.1
			l0,0C173.4,333.7,173.4,333.4,173.8,333.2z"/>
		<path class="st8" d="M172.2,326.9l6.5-3.6c0.4-0.2,1-0.2,1.4,0.1l0,0c0.4,0.2,0.5,0.6,0.1,0.8l-6.5,3.6c-0.4,0.2-1,0.2-1.4-0.1
			l0,0C171.9,327.5,171.9,327.1,172.2,326.9z"/>
		<path class="st8" d="M165.6,334.2l2.3-1.3c0.4-0.2,1-0.2,1.4,0.1l0,0c0.4,0.2,0.5,0.6,0.1,0.8l-2.3,1.3c-0.4,0.2-1,0.2-1.4-0.1
			l0,0C165.2,334.8,165.2,334.4,165.6,334.2z"/>
		<path class="st8" d="M164.6,324l7.8-4.3c0.4-0.2,1-0.2,1.4,0.1l0,0c0.4,0.2,0.5,0.6,0.1,0.8l-7.8,4.3c-0.4,0.2-1,0.2-1.4-0.1l0,0
			C164.3,324.6,164.3,324.2,164.6,324z"/>
	</g>
</g>
<path class="st21" d="M279.8,278.6c-0.9,0-1.7-0.2-2.5-0.7l-34.8-20.2c-1.1-0.6-1.7-1.8-1.8-3c0-1.3,0.6-2.4,1.7-3l9.6-5.8
	c0.3-0.2,0.7-0.1,0.9,0.2c0.2,0.3,0.1,0.7-0.2,0.9l-9.6,5.8c-0.7,0.4-1.1,1.1-1.1,1.9c0,0.8,0.4,1.5,1.1,1.9l34.8,20.2
	c1.2,0.7,2.6,0.7,3.8,0l12-7.3c0.3-0.2,0.7-0.1,0.9,0.2c0.2,0.3,0.1,0.7-0.2,0.9l-12,7.3C281.6,278.4,280.7,278.6,279.8,278.6z"/>
<g>
	<g>
		<polygon class="st2" points="190.4,239 176.6,231 162.7,239 176.6,247.1 		"/>
		<polygon class="st13" points="180.6,228.4 180.6,178.5 192.4,171.7 192.4,221.6 		"/>
		<polygon class="st10" points="180.6,178.5 168.8,171.7 168.8,221.6 180.6,228.4 		"/>
		<polygon class="st6" points="192.4,171.7 180.6,164.9 168.8,171.7 180.6,178.5 		"/>
	</g>
	<g>
		<polygon class="st14" points="192.4,230.7 180.6,223.9 180.6,228.4 192.4,235.2 		"/>
	</g>
	<g>
		<polygon class="st15" points="168.8,235.2 168.8,198.9 180.6,192.1 180.6,228.4 		"/>
		<polygon class="st16" points="168.8,198.9 157,192.1 157,228.4 168.8,235.2 		"/>
		<polygon class="st17" points="180.6,192.1 168.8,185.3 157,192.1 168.8,198.9 		"/>
		<polygon class="st18" points="168.8,235.2 168.8,198.9 180.6,192.1 180.6,228.4 		"/>
		<polygon class="st18" points="168.8,198.9 157,192.1 157,228.4 168.8,235.2 		"/>
		<polygon class="st1" points="180.6,192.1 168.8,185.3 157,192.1 168.8,198.9 		"/>
	</g>
	<g>
		<polygon class="st19" points="180.6,242 180.6,221.6 192.4,214.8 192.4,235.2 		"/>
		<polygon class="st20" points="180.6,221.6 168.8,214.8 168.8,235.2 180.6,242 		"/>
		<polygon class="st0" points="192.4,214.8 180.6,208 168.8,214.8 180.6,221.6 		"/>
	</g>
</g>
<g>
	<g>
		<g>
			<path class="st4" d="M301.4,195.8c0,0-2.4-1.2-3.9,0.6c-1.5,1.8-3.6,6.1-3.7,9c-0.1,2.9,2.3,2.7,3.7,2c1.4-0.7,5.5-6.6,5.7-7.7
				c0.2-1.2-0.3-2.7-0.7-3C302.2,196.3,301.4,195.8,301.4,195.8z"/>
			<path class="st23" d="M302,195.3l0.1,2.5c0,0.5-0.2,1-0.7,1.3c-0.4,0.2-1,0.4-1.9,0.3c-1.8-0.3-2-0.8-2.1-3.3
				C297.3,193.5,302,195.3,302,195.3z"/>
			<g>
				<path class="st4" d="M292.6,191c0,0-2.4-1.2-3.9,0.6c-1.5,1.8-3.6,6.1-3.7,9c-0.1,2.9,2.3,2.7,3.7,2c1.4-0.7,5.5-6.6,5.7-7.7
					c0.2-1.2-0.3-2.7-0.7-3C293.4,191.5,292.6,191,292.6,191z"/>
				<path class="st23" d="M293.2,190.5l0.1,2.5c0,0.5-0.2,1-0.7,1.3c-0.4,0.2-1,0.4-1.9,0.3c-1.8-0.3-2-0.8-2.1-3.3
					C288.5,188.8,293.2,190.5,293.2,190.5z"/>
				<path class="st0" d="M314.6,144.7c-0.7-11.6-12.5,1.7-12.5,1.7l-8.1,7.9l-7.3,8c-1.4,1.6-2.1,3.7-1.8,5.8l3,22.5
					c0.1,1.1,1.1,1.9,2.2,1.9c0.3,0,0.7,0,1.1-0.1c2.6-0.4,2.4-2.9,2.4-2.9l-0.5-21l15.3-9.2C308.4,159.3,315.3,156.3,314.6,144.7z"
					/>
			</g>
			<path class="st0" d="M323.4,149.1c-0.7-11.6-12.5,1.7-12.5,1.7l-8.1,7.9l-7.3,8c-1.4,1.6-2.1,3.7-1.8,5.8l3,22.5
				c0.1,1.1,1.1,1.9,2.2,1.9c0.3,0,0.7,0,1.1-0.1c2.6-0.4,2.4-2.9,2.4-2.9l-0.5-21l15.3-9.2C317.2,163.7,324.2,160.7,323.4,149.1z"
				/>
			<path class="st7" d="M316.4,111.9c9,3.7,8.8,9,8.8,9s-1.8,19.4-1.2,32.4c0.3,5.4-28.8,5.8-24.5-8.6c5.1-17.1,3.2-30.9,5.6-33
				C307.6,109.7,314.1,111,316.4,111.9z"/>
			<path class="st5" d="M319.3,116.6c-0.5,1.8-2.9,2.8-5.3,2.1c-2.5-0.6-4.1-2.6-3.6-4.5c0.5-1.8,2.9-2.8,5.3-2.1
				C318.2,112.8,319.8,114.8,319.3,116.6z"/>
			<path class="st8" d="M315.5,119.4c-0.5,0-1.1-0.1-1.6-0.2c-1.3-0.3-2.4-1-3.1-1.9c-0.8-1-1.1-2-0.8-3c0.3-1,1-1.8,2.2-2.3
				c1.1-0.4,2.4-0.5,3.7-0.2c1.3,0.3,2.4,1,3.1,1.9c0.8,0.9,1.1,2,0.8,3l0,0c-0.3,1-1,1.8-2.2,2.3
				C316.9,119.3,316.2,119.4,315.5,119.4z M314.2,112.4c-0.6,0-1.2,0.1-1.7,0.3c-0.9,0.4-1.5,1-1.7,1.7c-0.2,0.7,0,1.6,0.6,2.3
				c0.6,0.8,1.6,1.4,2.7,1.6c1.1,0.3,2.2,0.2,3.2-0.1c0.9-0.4,1.5-1,1.7-1.7v0c0.2-0.7,0-1.6-0.6-2.3c-0.6-0.8-1.6-1.4-2.7-1.6
				C315.1,112.5,314.6,112.4,314.2,112.4z"/>
			<path class="st5" d="M312.8,111.5c0,0,0.1,0.4-0.1,3.2c0,0.9,3.1,1.7,3.9,0.9c0.8-0.8,0.5-1.7,0.7-4.7
				C317.5,107.9,312.8,111.5,312.8,111.5z"/>
			<path class="st9" d="M317.3,111c0,0-0.8,2.8-4.6,3.9l0.1-2.6L317.3,111z"/>
			
				<ellipse transform="matrix(0.5076 -0.8616 0.8616 0.5076 63.2357 321.6827)" class="st5" cx="313.1" cy="105.5" rx="6.9" ry="6.9"/>
			<path class="st9" d="M314.6,105.8c0,0-3.8,1.6-6.4,1.6c-2.6,0-2.1-2.2-2.1-2.2l7.8-1.1L314.6,105.8z"/>
			<path class="st1" d="M307.4,106.2c0,0,3.3-1.4,6.2-0.8c0.7,0.1,1.3,0.5,1.8,1c0.1,0.2,0.3,0.3,0.5,0.4c0.5,0.1,1.4-2,2.4-2.1
				c1,0,1.7,0.7,0.8,2c-0.8,1.3-0.5,2.8-0.2,3c0.4,0.2,4.4-2.9,0.9-9.9c-3.5-7-12.5-3.2-13.9-1.8c0,0-1.5,1.3-2.7,0.1
				C303.2,98.2,301.9,108.2,307.4,106.2z"/>
			<path class="st5" d="M320.2,135.2v5.3c0,0.6-0.3,1.2-0.7,1.6l-10.8,9.8l1.2,1.9l14.3-9.3c0.7-0.5,1.1-1.2,1.2-2l1-10.2
				L320.2,135.2z"/>
			<path class="st7" d="M324.5,118.3c0,0,3.3,4.9,4.5,17.9c0,0-5.6,1.8-8.8,0.8C317,136,324.5,118.3,324.5,118.3z"/>
			<path class="st3" d="M319.6,124.6c0,0-1.3,6.9-1.4,10.1c0,0.9,0.5,1.7,1.4,2l0,0V124.6z"/>
		</g>
		<g>
			<path class="st4" d="M316.8,158.7l-2.4-0.3l-15.4-8.9c-0.5-0.3-1.4-0.2-1.9,0.1l-10.9,6.3l-1.4-0.2v1.4l0,0
				c0,0.2,0.1,0.4,0.3,0.5l17.5,10.1c0.5,0.3,1.4,0.2,1.9-0.1l11.9-6.9c0.3-0.2,0.5-0.4,0.5-0.6l0,0V158.7z"/>
			<path class="st22" d="M305.2,153.1l-1.1-0.6h-12l-5.9,3.4l-1.4-0.2v1.4l0,0c0,0.2,0.1,0.4,0.3,0.5l17.5,10.1
				c0.3,0.2,0.6,0.2,1,0.2L305.2,153.1z"/>
			<path class="st21" d="M285.4,155.7l-0.6-0.1v1.4l0,0c0,0.2,0.1,0.4,0.3,0.5l0.3,0.2V155.7z"/>
			<path class="st26" d="M302.7,167.8c0.5,0.2,1.1,0.1,1.6-0.1v-2.4h-1.6V167.8z"/>
			<path class="st8" d="M302.5,166.2l-17.5-10.1c-0.5-0.3-0.4-0.8,0.1-1.1l11.9-6.9c0.6-0.3,1.4-0.4,1.9-0.1l17.5,10.1
				c0.5,0.3,0.4,0.8-0.1,1.1l-11.9,6.9C303.9,166.5,303,166.5,302.5,166.2z"/>
			<path class="st23" d="M302.2,164.7l-14.5-8.4c-0.4-0.2-0.4-0.7,0.1-0.9l6.4-3.6c0.5-0.3,1.2-0.3,1.6-0.1l14.5,8.4
				c0.4,0.2,0.4,0.7-0.1,0.9l-6.4,3.6C303.4,164.9,302.6,164.9,302.2,164.7z"/>
		</g>
		<path class="st5" d="M297.8,147.9l-0.2,1.2c-0.2,1-0.1,2.1,0.1,3.1l0.2,1.1c0.1,0.6,0.6,1.1,1.2,1.2l0,0c0.5,0.1,0.9-0.2,1-0.7
			l0.3-2.6c0,0,0.7,0.9,1,0.9s-0.4-2.6-1.1-4C299.5,146.5,297.8,147.9,297.8,147.9z"/>
		<path class="st5" d="M303.7,128.7l-1.9,3.7c-0.4,0.9-0.7,1.8-0.8,2.8l-0.8,12.7l-2.5-0.1l-1.1-14.2c0-0.4,0-0.9,0.1-1.3l1.3-7.2
			L303.7,128.7z"/>
		<g>
			<path class="st4" d="M301.9,167.2l-1.5-1.9l-15.4-8.9c-0.5-0.3-0.9-1.1-0.9-1.7l0-12.6l-0.9-1.2l0.8-0.5l0,0
				c0.2-0.1,0.4-0.1,0.6,0l17.4,10.1c0.5,0.3,0.9,1.1,0.9,1.7l0,13.7c0,0.4-0.1,0.6-0.3,0.7l0,0L301.9,167.2z"/>
			<path class="st22" d="M291.3,160l-1.1-0.6l-6-10.4l0-6.8l-0.9-1.2l0.8-0.5l0,0c0.2-0.1,0.4-0.1,0.6,0l17.4,10.1
				c0.3,0.2,0.5,0.4,0.7,0.8L291.3,160z"/>
			<path class="st21" d="M283.7,141.4l-0.4-0.5l0.8-0.5l0,0c0.2-0.1,0.4-0.1,0.6,0l0.3,0.2L283.7,141.4z"/>
			<path class="st26" d="M302.3,150.7c0.4,0.3,0.7,0.9,0.7,1.5l-1.7,1l-0.8-1.4L302.3,150.7z"/>
			<path class="st8" d="M301.4,151.1L283.9,141c-0.5-0.3-0.9,0-0.9,0.7l0,13.7c0,0.7,0.4,1.4,0.9,1.7l17.4,10.1
				c0.5,0.3,0.9,0,0.9-0.7l0-13.7C302.3,152.1,301.9,151.3,301.4,151.1z"/>
		</g>
		<path class="st5" d="M309.9,153.7l-0.3,0.6c-0.3,0.7-0.8,1.2-1.5,1.6l-1.7,1.1c-0.5,0.3-1.2,0.4-1.8,0c0,0,0,0-0.1,0
			c-0.6-0.3-0.6-1.1-0.1-1.6l1.8-1.9c0,0-1,0.8-1.3,0.5c-0.2-0.2,1-1.4,1.9-1.4c0.9,0,1.8-0.8,1.8-0.8L309.9,153.7z"/>
		<path class="st7" d="M305.3,111.7c0,0-6.6,7.2-9.3,13.8c0,0,2.3,4.1,7.8,5.7C309.4,132.9,305.3,111.7,305.3,111.7z"/>
		<path class="st3" d="M302.6,130.8l1.1-10.4l-2.5,9.7C301.6,130.4,302.1,130.6,302.6,130.8z"/>
		<path class="st8" d="M310.3,110.3l-1.8-0.5c0,0,0.9,1.3,2.1,1.7c1.2,0.3,1.4-0.7,1.4-0.7L310.3,110.3z"/>
	</g>
</g>
<g>
	<path class="st2" d="M112.4,281.7l-19.9-11.5c-1.2-0.7-1.1-1.9,0.3-2.8l19.2-11.1c1.4-0.8,3.5-0.9,4.8-0.2l19.9,11.5
		c1.2,0.7,1.1,1.9-0.3,2.8l-19.2,11.1C115.8,282.4,113.6,282.4,112.4,281.7z"/>
	<g>
		<path class="st22" d="M143.3,258.9L143.3,258.9v-8.6l-19.3,0l-6.7-3.9c-1.5-0.9-4.2-0.8-6,0.2l-6.2,3.6l-19.3,0v8.8
			c0,0.6,0.3,1.2,1,1.6l24.9,14.4c1.5,0.9,4.2,0.8,6-0.2l24.1-13.9C142.9,260.4,143.4,259.6,143.3,258.9z"/>
		<path class="st22" d="M114.6,245.9c-1.1,0-2.3,0.3-3.2,0.8l-6.2,3.6l-19.3,0v8.8c0,0.6,0.3,1.2,1,1.6l24.9,14.4
			c0.7,0.4,1.7,0.6,2.8,0.6V245.9z"/>
		<path class="st21" d="M88.1,250.3l-2.2,0v8.8c0,0.6,0.3,1.2,1,1.6l1.2,0.7V250.3z"/>
		<path class="st21" d="M112.2,275.3c1.3,0.6,3.2,0.5,4.8-0.1v-10h-4.8V275.3z"/>
		<path class="st23" d="M111.8,266.3l-24.9-14.4c-1.5-0.9-1.3-2.4,0.4-3.4l24.1-13.9c1.8-1,4.4-1.1,6-0.2l24.9,14.4
			c1.5,0.9,1.3,2.4-0.4,3.4l-24.1,13.9C116,267.1,113.4,267.2,111.8,266.3z"/>
		<path class="st21" d="M112.3,263.7l-20.9-12.1c-1.3-0.7-1.1-2,0.4-2.9l20.2-11.7c1.5-0.9,3.7-0.9,5-0.2l20.9,12.1
			c1.3,0.7,1.1,2-0.4,2.9l-20.2,11.6C115.8,264.4,113.6,264.5,112.3,263.7z"/>
		<g>
			<path class="st23" d="M134.2,261.2c0,0.6-0.5,1.4-1,1.7c-0.6,0.3-1,0.1-1-0.6s0.5-1.4,1-1.7C133.7,260.3,134.2,260.6,134.2,261.2
				z"/>
			<path class="st23" d="M137.4,259.3c0,0.6-0.5,1.4-1,1.7s-1,0.1-1-0.6s0.5-1.4,1-1.7C137,258.4,137.4,258.7,137.4,259.3z"/>
			<path class="st23" d="M140.7,257.5c0,0.6-0.5,1.4-1,1.7c-0.6,0.3-1,0.1-1-0.6s0.5-1.4,1-1.7C140.2,256.5,140.7,256.8,140.7,257.5
				z"/>
		</g>
	</g>
	<g>
		<path class="st22" d="M143.3,245.2L143.3,245.2v-8.6l-19.3,0l-6.7-3.9c-1.5-0.9-4.2-0.8-6,0.2l-6.2,3.6l-19.3,0v8.8
			c0,0.6,0.3,1.2,1,1.6l24.9,14.4c1.5,0.9,4.2,0.8,6-0.2l24.1-13.9C142.9,246.6,143.4,245.9,143.3,245.2z"/>
		<path class="st22" d="M114.6,232.1c-1.1,0-2.3,0.3-3.2,0.8l-6.2,3.6l-19.3,0v8.8c0,0.6,0.3,1.2,1,1.6l24.9,14.4
			c0.7,0.4,1.7,0.6,2.8,0.6V232.1z"/>
		<path class="st21" d="M88.1,236.5l-2.2,0v8.8c0,0.6,0.3,1.2,1,1.6l1.2,0.7V236.5z"/>
		<path class="st21" d="M112.2,261.6c1.3,0.6,3.2,0.5,4.8-0.1v-10h-4.8V261.6z"/>
		<path class="st23" d="M111.8,252.6l-24.9-14.4c-1.5-0.9-1.3-2.4,0.4-3.4l24.1-13.9c1.8-1,4.4-1.1,6-0.2l24.9,14.4
			c1.5,0.9,1.3,2.4-0.4,3.4l-24.1,13.9C116,253.3,113.4,253.5,111.8,252.6z"/>
		<path class="st21" d="M112.3,250l-20.9-12.1c-1.3-0.7-1.1-2,0.4-2.9l20.2-11.7c1.5-0.9,3.7-0.9,5-0.2l20.9,12.1
			c1.3,0.7,1.1,2-0.4,2.9l-20.2,11.7C115.8,250.6,113.6,250.7,112.3,250z"/>
		<g>
			<path class="st23" d="M134.2,247.4c0,0.6-0.5,1.4-1,1.7c-0.6,0.3-1,0.1-1-0.6s0.5-1.4,1-1.7C133.7,246.5,134.2,246.8,134.2,247.4
				z"/>
			<path class="st23" d="M137.4,245.6c0,0.6-0.5,1.4-1,1.7c-0.6,0.3-1,0.1-1-0.6s0.5-1.4,1-1.7C137,244.7,137.4,244.9,137.4,245.6z"
				/>
			<path class="st23" d="M140.7,243.7c0,0.6-0.5,1.4-1,1.7c-0.6,0.3-1,0.1-1-0.6c0-0.6,0.5-1.4,1-1.7
				C140.2,242.8,140.7,243.1,140.7,243.7z"/>
		</g>
	</g>
	<g>
		<path class="st22" d="M143.3,231.4L143.3,231.4v-8.6l-19.3,0l-6.7-3.9c-1.5-0.9-4.2-0.8-6,0.2l-6.2,3.6l-19.3,0v8.8
			c0,0.6,0.3,1.2,1,1.6l24.9,14.4c1.5,0.9,4.2,0.8,6-0.2l24.1-13.9C142.9,232.9,143.4,232.1,143.3,231.4z"/>
		<path class="st22" d="M114.6,218.4c-1.1,0-2.3,0.3-3.2,0.8l-6.2,3.6l-19.3,0v8.8c0,0.6,0.3,1.2,1,1.6l24.9,14.4
			c0.7,0.4,1.7,0.6,2.8,0.6V218.4z"/>
		<path class="st21" d="M88.1,222.8l-2.2,0v8.8c0,0.6,0.3,1.2,1,1.6l1.2,0.7V222.8z"/>
		<path class="st21" d="M112.2,247.8c1.3,0.6,3.2,0.5,4.8-0.1v-10h-4.8V247.8z"/>
		<path class="st23" d="M111.8,238.8l-24.9-14.4c-1.5-0.9-1.3-2.4,0.4-3.4l24.1-13.9c1.8-1,4.4-1.1,6-0.2l24.9,14.4
			c1.5,0.9,1.3,2.4-0.4,3.4l-24.1,13.9C116,239.6,113.4,239.7,111.8,238.8z"/>
		<path class="st21" d="M112.3,236.2l-20.9-12.1c-1.3-0.7-1.1-2,0.4-2.9l20.2-11.7c1.5-0.9,3.7-0.9,5-0.2l20.9,12.1
			c1.3,0.7,1.1,2-0.4,2.9L117.3,236C115.8,236.9,113.6,237,112.3,236.2z"/>
		<g>
			<path class="st23" d="M134.2,233.7c0,0.6-0.5,1.4-1,1.7c-0.6,0.3-1,0.1-1-0.6c0-0.6,0.5-1.4,1-1.7
				C133.7,232.8,134.2,233.1,134.2,233.7z"/>
			<path class="st23" d="M137.4,231.8c0,0.6-0.5,1.4-1,1.7c-0.6,0.3-1,0.1-1-0.6c0-0.6,0.5-1.4,1-1.7
				C137,230.9,137.4,231.2,137.4,231.8z"/>
			<path class="st23" d="M140.7,230c0,0.6-0.5,1.4-1,1.7c-0.6,0.3-1,0.1-1-0.6c0-0.6,0.5-1.4,1-1.7C140.2,229,140.7,229.3,140.7,230
				z"/>
		</g>
	</g>
	<g>
		<path class="st22" d="M143.3,217.7L143.3,217.7v-8.6l-19.3,0l-6.7-3.9c-1.5-0.9-4.2-0.8-6,0.2l-6.2,3.6l-19.3,0v8.8
			c0,0.6,0.3,1.2,1,1.6l24.9,14.4c1.5,0.9,4.2,0.8,6-0.2l24.1-13.9C142.9,219.1,143.4,218.4,143.3,217.7z"/>
		<path class="st22" d="M114.6,204.6c-1.1,0-2.3,0.3-3.2,0.8l-6.2,3.6l-19.3,0v8.8c0,0.6,0.3,1.2,1,1.6l24.9,14.4
			c0.7,0.4,1.7,0.6,2.8,0.6V204.6z"/>
		<path class="st21" d="M88.1,209l-2.2,0v8.8c0,0.6,0.3,1.2,1,1.6l1.2,0.7V209z"/>
		<path class="st21" d="M112.2,234.1c1.3,0.6,3.2,0.5,4.8-0.1v-10h-4.8V234.1z"/>
		<path class="st23" d="M111.8,225.1l-24.9-14.4c-1.5-0.9-1.3-2.4,0.4-3.4l24.1-13.9c1.8-1,4.4-1.1,6-0.2l24.9,14.4
			c1.5,0.9,1.3,2.4-0.4,3.4l-24.1,13.9C116,225.8,113.4,225.9,111.8,225.1z"/>
		<path class="st21" d="M112.3,222.5l-20.9-12.1c-1.3-0.7-1.1-2,0.4-2.9l20.2-11.7c1.5-0.9,3.7-0.9,5-0.2l20.9,12.1
			c1.3,0.7,1.1,2-0.4,2.9l-20.2,11.7C115.8,223.1,113.6,223.2,112.3,222.5z"/>
		<g>
			<path class="st23" d="M134.2,219.9c0,0.6-0.5,1.4-1,1.7c-0.6,0.3-1,0.1-1-0.6c0-0.6,0.5-1.4,1-1.7
				C133.7,219,134.2,219.3,134.2,219.9z"/>
			<path class="st23" d="M137.4,218.1c0,0.6-0.5,1.4-1,1.7c-0.6,0.3-1,0.1-1-0.6c0-0.6,0.5-1.4,1-1.7S137.4,217.4,137.4,218.1z"/>
			<path class="st23" d="M140.7,216.2c0,0.6-0.5,1.4-1,1.7c-0.6,0.3-1,0.1-1-0.6c0-0.6,0.5-1.4,1-1.7
				C140.2,215.3,140.7,215.6,140.7,216.2z"/>
		</g>
	</g>
	<g>
		<path class="st22" d="M143.3,203.9L143.3,203.9v-8.6l-19.3,0l-6.7-3.9c-1.5-0.9-4.2-0.8-6,0.2l-6.2,3.6l-19.3,0v8.8
			c0,0.6,0.3,1.2,1,1.6l24.9,14.4c1.5,0.9,4.2,0.8,6-0.2l24.1-13.9C142.9,205.4,143.4,204.6,143.3,203.9z"/>
		<path class="st22" d="M114.6,190.9c-1.1,0-2.3,0.3-3.2,0.8l-6.2,3.6l-19.3,0v8.8c0,0.6,0.3,1.2,1,1.6l24.9,14.4
			c0.7,0.4,1.7,0.6,2.8,0.6V190.9z"/>
		<path class="st21" d="M88.1,195.3l-2.2,0v8.8c0,0.6,0.3,1.2,1,1.6l1.2,0.7V195.3z"/>
		<path class="st21" d="M112.2,220.3c1.3,0.6,3.2,0.5,4.8-0.1v-10h-4.8V220.3z"/>
		<path class="st23" d="M111.8,211.3l-24.9-14.4c-1.5-0.9-1.3-2.4,0.4-3.4l24.1-13.9c1.8-1,4.4-1.1,6-0.2l24.9,14.4
			c1.5,0.9,1.3,2.4-0.4,3.4l-24.1,13.9C116,212.1,113.4,212.2,111.8,211.3z"/>
		<path class="st21" d="M112.3,208.7l-20.9-12.1c-1.3-0.7-1.1-2,0.4-2.9l20.2-11.7c1.5-0.9,3.7-0.9,5-0.2l20.9,12.1
			c1.3,0.7,1.1,2-0.4,2.9l-20.2,11.7C115.8,209.4,113.6,209.5,112.3,208.7z"/>
		<g>
			
				<rect x="122.5" y="209.6" transform="matrix(0.8659 -0.5002 0.5002 0.8659 -87.7284 92.2755)" class="st8" width="11.6" height="0.4"/>
			<path class="st23" d="M134.2,206.2c0,0.6-0.5,1.4-1,1.7c-0.6,0.3-1,0.1-1-0.6s0.5-1.4,1-1.7C133.7,205.3,134.2,205.6,134.2,206.2
				z"/>
			<path class="st23" d="M137.4,204.3c0,0.6-0.5,1.4-1,1.7c-0.6,0.3-1,0.1-1-0.6s0.5-1.4,1-1.7C137,203.4,137.4,203.7,137.4,204.3z"
				/>
			<path class="st23" d="M140.7,202.5c0,0.6-0.5,1.4-1,1.7c-0.6,0.3-1,0.1-1-0.6c0-0.6,0.5-1.4,1-1.7
				C140.2,201.5,140.7,201.8,140.7,202.5z"/>
		</g>
	</g>
	<g>
		<path class="st22" d="M143.3,190.1L143.3,190.1v-8.6l-19.3,0l-6.7-3.9c-1.5-0.9-4.2-0.8-6,0.2l-6.2,3.6l-19.3,0v8.8
			c0,0.6,0.3,1.2,1,1.6l24.9,14.4c1.5,0.9,4.2,0.8,6-0.2l24.1-13.9C142.9,191.5,143.4,190.8,143.3,190.1z"/>
		<path class="st22" d="M114.6,177c-1.1,0-2.3,0.3-3.2,0.8l-6.2,3.6l-19.3,0v8.8c0,0.6,0.3,1.2,1,1.6l24.9,14.4
			c0.7,0.4,1.7,0.6,2.8,0.6V177z"/>
		<path class="st21" d="M88.1,181.4l-2.2,0v8.8c0,0.6,0.3,1.2,1,1.6l1.2,0.7V181.4z"/>
		<path class="st21" d="M112.2,206.5c1.3,0.6,3.2,0.5,4.8-0.1v-10h-4.8V206.5z"/>
		<path class="st23" d="M111.8,197.5l-24.9-14.4c-1.5-0.9-1.3-2.4,0.4-3.4l24.1-13.9c1.8-1,4.4-1.1,6-0.2l24.9,14.4
			c1.5,0.9,1.3,2.4-0.4,3.4l-24.1,13.9C116,198.2,113.4,198.4,111.8,197.5z"/>
		<path class="st8" d="M141.9,181.6l-24.1,13.9c-1.8,1-4.4,1.1-6,0.2l-24.9-14.4c-0.3-0.2-0.6-0.4-0.8-0.7c-0.5,0.8-0.3,1.8,0.8,2.4
			l24.9,14.4c1.5,0.9,4.2,0.8,6-0.2l24.1-13.9c1.4-0.8,1.8-1.9,1.2-2.8C142.8,180.9,142.4,181.3,141.9,181.6z"/>
		<g>
			<path class="st23" d="M134.2,192.3c0,0.6-0.5,1.4-1,1.7c-0.6,0.3-1,0.1-1-0.6s0.5-1.4,1-1.7C133.7,191.4,134.2,191.7,134.2,192.3
				z"/>
			<path class="st23" d="M124.3,197.8c0,0.6-0.5,1.4-1,1.7c-0.6,0.3-1,0.1-1-0.6c0-0.6,0.5-1.4,1-1.7
				C123.8,196.9,124.3,197.2,124.3,197.8z"/>
			<path class="st8" d="M124.3,212.1c0,0.6-0.5,1.4-1,1.7c-0.6,0.3-1,0.1-1-0.6s0.5-1.4,1-1.7C123.8,211.2,124.3,211.4,124.3,212.1z
				"/>
			<path class="st23" d="M137.4,190.5c0,0.6-0.5,1.4-1,1.7c-0.6,0.3-1,0.1-1-0.6c0-0.6,0.5-1.4,1-1.7S137.4,189.8,137.4,190.5z"/>
			<path class="st23" d="M140.7,188.6c0,0.6-0.5,1.4-1,1.7c-0.6,0.3-1,0.1-1-0.6c0-0.6,0.5-1.4,1-1.7
				C140.2,187.7,140.7,188,140.7,188.6z"/>
		</g>
		<g>
			<path class="st21" d="M113.3,188.5l-11.7-6.7c-0.7-0.4-0.6-1.1,0.2-1.6l11.3-6.5c0.8-0.5,2.1-0.5,2.8-0.1l11.7,6.7
				c0.7,0.4,0.6,1.1-0.2,1.6l-11.3,6.5C115.3,188.9,114,189,113.3,188.5z"/>
			<path class="st23" d="M114.4,182.9l-1.6-0.9c-0.1-0.1-0.1-0.2,0-0.2l1.6-0.9c0.1-0.1,0.3-0.1,0.4,0l1.6,0.9
				c0.1,0.1,0.1,0.2,0,0.2l-1.6,0.9C114.7,183,114.5,183,114.4,182.9z"/>
			<path class="st22" d="M101.6,181.8L101.6,181.8c0.1,0,0.1-0.1,0.2-0.1l11.3-6.5c0.8-0.5,2.1-0.5,2.8-0.1l11.6,6.7
				c0.7-0.5,0.7-1.1,0-1.5l-11.7-6.7c-0.7-0.4-2-0.4-2.8,0.1l-11.3,6.5C101,180.7,100.9,181.4,101.6,181.8z"/>
		</g>
	</g>
	<g>
		<path class="st23" d="M110.9,199.5c0,0.7-0.5,1-1.1,0.6c-0.6-0.3-1.1-1.2-1.1-1.8c0-0.7,0.5-1,1.1-0.6
			C110.4,198,110.9,198.8,110.9,199.5z"/>
		<path class="st21" d="M107.6,197.6c0,0.7-0.5,1-1.1,0.6c-0.6-0.3-1.1-1.2-1.1-1.8c0-0.7,0.5-1,1.1-0.6
			C107.1,196.1,107.6,196.9,107.6,197.6z"/>
		<path class="st23" d="M110.9,203.5c0,0.7-0.5,1-1.1,0.6c-0.6-0.3-1.1-1.2-1.1-1.8c0-0.7,0.5-1,1.1-0.6
			C110.4,202,110.9,202.8,110.9,203.5z"/>
		<path class="st23" d="M107.6,201.6c0,0.7-0.5,1-1.1,0.6c-0.6-0.3-1.1-1.2-1.1-1.8c0-0.7,0.5-1,1.1-0.6
			C107.1,200.1,107.6,200.9,107.6,201.6z"/>
	</g>
	<g>
		<path class="st23" d="M110.9,213.2c0,0.7-0.5,1-1.1,0.6c-0.6-0.3-1.1-1.2-1.1-1.8s0.5-1,1.1-0.6
			C110.4,211.7,110.9,212.5,110.9,213.2z"/>
		<path class="st23" d="M107.6,211.3c0,0.7-0.5,1-1.1,0.6c-0.6-0.3-1.1-1.2-1.1-1.8c0-0.7,0.5-1,1.1-0.6
			C107.1,209.8,107.6,210.6,107.6,211.3z"/>
		<path class="st21" d="M110.9,217.1c0,0.7-0.5,1-1.1,0.6c-0.6-0.3-1.1-1.2-1.1-1.8c0-0.7,0.5-1,1.1-0.6
			C110.4,215.6,110.9,216.5,110.9,217.1z"/>
		<path class="st23" d="M107.6,215.3c0,0.7-0.5,1-1.1,0.6c-0.6-0.3-1.1-1.2-1.1-1.8c0-0.7,0.5-1,1.1-0.6
			C107.1,213.8,107.6,214.6,107.6,215.3z"/>
	</g>
	<g>
		<path class="st23" d="M110.9,226.8c0,0.7-0.5,1-1.1,0.6c-0.6-0.3-1.1-1.2-1.1-1.8c0-0.7,0.5-1,1.1-0.6
			C110.4,225.3,110.9,226.2,110.9,226.8z"/>
		<path class="st21" d="M107.6,225c0,0.7-0.5,1-1.1,0.6c-0.6-0.3-1.1-1.2-1.1-1.8c0-0.7,0.5-1,1.1-0.6
			C107.1,223.5,107.6,224.3,107.6,225z"/>
		<path class="st23" d="M110.9,230.8c0,0.7-0.5,1-1.1,0.6c-0.6-0.3-1.1-1.2-1.1-1.8c0-0.7,0.5-1,1.1-0.6
			C110.4,229.3,110.9,230.1,110.9,230.8z"/>
		<path class="st21" d="M107.6,228.9c0,0.7-0.5,1-1.1,0.6c-0.6-0.3-1.1-1.2-1.1-1.8s0.5-1,1.1-0.6
			C107.1,227.4,107.6,228.3,107.6,228.9z"/>
	</g>
	<g>
		<path class="st21" d="M110.9,240.7c0,0.7-0.5,1-1.1,0.6c-0.6-0.3-1.1-1.2-1.1-1.8c0-0.7,0.5-1,1.1-0.6
			C110.4,239.2,110.9,240,110.9,240.7z"/>
		<path class="st23" d="M107.6,238.8c0,0.7-0.5,1-1.1,0.6c-0.6-0.3-1.1-1.2-1.1-1.8c0-0.7,0.5-1,1.1-0.6
			C107.1,237.3,107.6,238.1,107.6,238.8z"/>
		<path class="st23" d="M110.9,244.6c0,0.7-0.5,1-1.1,0.6c-0.6-0.3-1.1-1.2-1.1-1.8c0-0.7,0.5-1,1.1-0.6
			C110.4,243.1,110.9,244,110.9,244.6z"/>
		<path class="st21" d="M107.6,242.7c0,0.7-0.5,1-1.1,0.6c-0.6-0.3-1.1-1.2-1.1-1.8s0.5-1,1.1-0.6
			C107.1,241.2,107.6,242.1,107.6,242.7z"/>
	</g>
	<g>
		<path class="st21" d="M110.9,254.3c0,0.7-0.5,1-1.1,0.6c-0.6-0.3-1.1-1.2-1.1-1.8c0-0.7,0.5-1,1.1-0.6
			C110.4,252.8,110.9,253.7,110.9,254.3z"/>
		<path class="st23" d="M107.6,252.4c0,0.7-0.5,1-1.1,0.6c-0.6-0.3-1.1-1.2-1.1-1.8c0-0.7,0.5-1,1.1-0.6
			C107.1,250.9,107.6,251.8,107.6,252.4z"/>
		<path class="st21" d="M110.9,258.3c0,0.7-0.5,1-1.1,0.6c-0.6-0.3-1.1-1.2-1.1-1.8c0-0.7,0.5-1,1.1-0.6
			C110.4,256.8,110.9,257.6,110.9,258.3z"/>
		<path class="st23" d="M107.6,256.4c0,0.7-0.5,1-1.1,0.6c-0.6-0.3-1.1-1.2-1.1-1.8s0.5-1,1.1-0.6
			C107.1,254.9,107.6,255.7,107.6,256.4z"/>
	</g>
	<g>
		<path class="st23" d="M110.9,268.2c0,0.7-0.5,1-1.1,0.6c-0.6-0.3-1.1-1.2-1.1-1.8c0-0.7,0.5-1,1.1-0.6
			C110.4,266.7,110.9,267.5,110.9,268.2z"/>
		<path class="st21" d="M107.6,266.3c0,0.7-0.5,1-1.1,0.6c-0.6-0.3-1.1-1.2-1.1-1.8c0-0.7,0.5-1,1.1-0.6
			C107.1,264.8,107.6,265.6,107.6,266.3z"/>
		<path class="st23" d="M110.9,272.1c0,0.7-0.5,1-1.1,0.6c-0.6-0.3-1.1-1.2-1.1-1.8c0-0.7,0.5-1,1.1-0.6
			C110.4,270.6,110.9,271.5,110.9,272.1z"/>
		<path class="st23" d="M107.6,270.3c0,0.7-0.5,1-1.1,0.6c-0.6-0.3-1.1-1.2-1.1-1.8c0-0.7,0.5-1,1.1-0.6
			C107.1,268.8,107.6,269.6,107.6,270.3z"/>
	</g>
</g>
<g>
	<path class="st2" d="M386.2,336.7c-9.2-5.3-24.2-5.3-33.5,0c-9.2,5.3-9.2,14,0,19.3c9.2,5.3,24.2,5.3,33.5,0
		C395.4,350.7,395.4,342.1,386.2,336.7z M377.2,350.8c-4.2,2.5-11.1,2.5-15.4,0c-4.2-2.5-4.2-6.4,0-8.9c4.2-2.5,11.1-2.5,15.4,0
		C381.4,344.4,381.4,348.4,377.2,350.8z"/>
	<g>
		<g>
			<path class="st19" d="M349.3,329.4l8.4,0.1c0.6-0.8,1.5-1.6,2.7-2.2c4.6-2.7,11.9-2.9,17-0.6l5-4.7l7.7,0.1
				c-0.4-0.2-0.8-0.5-1.2-0.7c-10.7-6.2-28.1-6.2-38.9,0c-2,1.1-3.6,2.4-4.8,3.8L349.3,329.4z"/>
			<polygon class="st20" points="390.1,309.8 390.1,322.1 382.4,322 382.4,309.7 			"/>
			<polygon class="st19" points="377.4,314.4 377.4,326.7 382.4,322 382.4,309.7 			"/>
			<path class="st19" d="M357.7,317.3v12.3l11.1-9l8.6,6.2v-12.3l-7.9-3.8c0,0-10.8,3.3-11.4,3.5
				C357.5,314.2,357.7,317.3,357.7,317.3z"/>
			<polygon class="st19" points="349.3,317.2 349.3,329.4 357.7,329.5 357.7,317.3 			"/>
			<polygon class="st20" points="345.2,312.9 345.2,325.1 349.3,329.4 349.3,317.2 			"/>
			<path class="st0" d="M349.3,317.2l8.4,0.1c0.6-0.8,1.5-1.6,2.7-2.2c4.6-2.7,11.9-2.9,17-0.6l5-4.7l7.7,0.1
				c-0.4-0.2-0.8-0.5-1.2-0.7c-10.7-6.2-28.1-6.2-38.9,0c-2,1.1-3.6,2.4-4.8,3.8L349.3,317.2z"/>
		</g>
		<g>
			<path class="st18" d="M379.9,315.9v11.3l7.3-1.8c0,0-0.4-6.6-0.6-6.8C386.5,318.5,379.9,315.9,379.9,315.9z"/>
			<g>
				<path class="st18" d="M374.4,327.2v12.3l0.8,0.8l5.2-3c0,0-0.8-9.4-0.9-9.5C379.3,327.6,374.4,327.2,374.4,327.2z"/>
				<path class="st18" d="M384.3,324l-4.4,4.2c3.7,2.9,3.2,7-1.3,9.6c-1.2,0.7-2.7,1.3-4.2,1.6l4.6,4.9l-4,3.8c5.1-0.6,10-2,14-4.3
					c9.2-5.3,10.5-13.5,3.9-19.6L384.3,324z"/>
				<polygon class="st18" points="374.9,335.9 374.9,348.1 384.9,344.3 396.9,332.8 396.9,319.7 384.2,329.8 				"/>
				<path class="st1" d="M384.3,311.8l-4.4,4.2c3.7,2.9,3.2,7-1.3,9.6c-1.2,0.7-2.7,1.3-4.2,1.6l4.6,4.9l-4,3.8c5.1-0.6,10-2,14-4.3
					c9.2-5.3,10.5-13.5,3.9-19.6L384.3,311.8z"/>
			</g>
		</g>
		<g>
			<path class="st10" d="M374.9,344.3l-4-4.3c-3.7,0.2-7.6-0.5-10.5-2.1c-3-1.7-4.2-4-3.7-6.3l-9.6-0.1l-3.7-3.9
				c-3.2,5.5-1,11.9,6.6,16.3c5.6,3.2,13,4.8,20.4,4.6L374.9,344.3z"/>
			<polygon class="st10" points="370.4,336.2 370.4,348.4 342,332.7 342,320.4 346.2,322.1 			"/>
			<polygon class="st7" points="374.9,332 374.9,344.3 370.4,348.4 370.4,336.2 			"/>
			<path class="st6" d="M374.9,332l-4-4.3c-3.7,0.2-7.6-0.5-10.5-2.1c-3-1.7-4.2-4-3.7-6.3l-9.6-0.1l-3.7-3.9
				c-3.2,5.5-1,11.9,6.6,16.3c5.6,3.2,13,4.8,20.4,4.6L374.9,332z"/>
		</g>
	</g>
</g>
<g>
	<g>
		<path class="st18" d="M143.3,148.8l-21.7-12.5c-0.4-0.2-0.8-0.3-1.1-0.1c0,0,0,0,0,0l-2.1,1.2c0,0,0.9,0.3,1.5,0.5v15.8
			c0,1.3,0.8,2.8,1.7,3.3l20.7,12v1.9l2.1-1.2l0,0c0.4-0.2,0.6-0.7,0.6-1.4v-16.1C145,150.8,144.3,149.3,143.3,148.8z"/>
		<path class="st1" d="M141.2,170.8l-21.7-12.5c-1-0.6-1.7-2.1-1.7-3.3v-16.1c0-1.3,0.8-1.9,1.7-1.3l21.7,12.5
			c1,0.6,1.7,2.1,1.7,3.3v16.1C142.9,170.8,142.1,171.4,141.2,170.8z"/>
	</g>
	<g>
		<path class="st8" d="M126.8,152.7c0,0.9-0.7,1.3-1.5,0.8c-0.8-0.5-1.5-1.6-1.5-2.5s0.7-1.3,1.5-0.8
			C126.1,150.6,126.8,151.8,126.8,152.7z"/>
		<path class="st8" d="M131.2,155.3c0,0.9-0.7,1.3-1.5,0.8c-0.8-0.5-1.5-1.6-1.5-2.5c0-0.9,0.7-1.3,1.5-0.8
			C130.5,153.2,131.2,154.3,131.2,155.3z"/>
		<path class="st8" d="M135.6,157.8c0,0.9-0.7,1.3-1.5,0.8c-0.8-0.5-1.5-1.6-1.5-2.5c0-0.9,0.7-1.3,1.5-0.8
			C135,155.8,135.6,156.9,135.6,157.8z"/>
	</g>
</g>
<g>
	<g>
		<path class="st21" d="M131,128.5L109.3,116c-0.4-0.2-0.8-0.3-1.1-0.1l0,0l-2.1,1.2c0,0,0.9,0.3,1.5,0.5v15.8
			c0,1.3,0.8,2.8,1.7,3.3l20.7,12v1.9l2.1-1.2l0,0c0.4-0.2,0.6-0.7,0.6-1.4v-16.1C132.7,130.5,131.9,129,131,128.5z"/>
		<path class="st23" d="M128.8,150.5L107.1,138c-1-0.6-1.7-2.1-1.7-3.3v-16.1c0-1.3,0.8-1.9,1.7-1.3l21.7,12.5
			c1,0.6,1.7,2.1,1.7,3.3v16.1C130.6,150.5,129.8,151.1,128.8,150.5z"/>
	</g>
	<g>
		<path class="st8" d="M114.4,132.4c0,0.9-0.7,1.3-1.5,0.8c-0.8-0.5-1.5-1.6-1.5-2.5c0-0.9,0.7-1.3,1.5-0.8
			C113.7,130.3,114.4,131.5,114.4,132.4z"/>
		<path class="st8" d="M118.8,135c0,0.9-0.7,1.3-1.5,0.8c-0.8-0.5-1.5-1.6-1.5-2.5c0-0.9,0.7-1.3,1.5-0.8
			C118.2,132.9,118.8,134,118.8,135z"/>
		<path class="st8" d="M123.3,137.5c0,0.9-0.7,1.3-1.5,0.8c-0.8-0.5-1.5-1.6-1.5-2.5c0-0.9,0.7-1.3,1.5-0.8
			C122.6,135.5,123.3,136.6,123.3,137.5z"/>
	</g>
</g>
<g>
	<g>
		<path class="st20" d="M76.1,300.4l-21.7-12.5c-0.4-0.2-0.8-0.3-1.1-0.1c0,0,0,0,0,0l-2.1,1.2c0,0,0.9,0.3,1.5,0.5v15.8
			c0,1.3,0.8,2.8,1.7,3.3l20.7,12v1.9l2.1-1.2l0,0c0.4-0.2,0.6-0.7,0.6-1.4v-16.1C77.9,302.4,77.1,300.9,76.1,300.4z"/>
		<path class="st19" d="M77.3,321.3L77.3,321.3c0.3-0.2,0.6-0.7,0.6-1.4v-16.1c0-0.6-0.2-1.3-0.5-1.9l-17.4,10l15.2,8.8v1.9
			L77.3,321.3z"/>
		<path class="st0" d="M74,322.4l-21.7-12.5c-1-0.6-1.7-2.1-1.7-3.3v-16.1c0-1.3,0.8-1.9,1.7-1.3L74,301.6c1,0.6,1.7,2.1,1.7,3.3
			v16.1C75.7,322.4,75,323,74,322.4z"/>
	</g>
</g>
<g>
	<g>
		<g>
			<g>
				
					<rect x="321.2" y="299.5" transform="matrix(-0.632 0.775 -0.775 -0.632 765.296 247.4253)" class="st21" width="5.5" height="11.8"/>
				<path class="st21" d="M328.1,311.3c1.2-0.4,2.2-1.8,2.4-3c0.2-1.2-0.6-1.8-1.7-1.4c-1.2,0.4-2.2,1.8-2.4,3
					C326.2,311.1,327,311.8,328.1,311.3z"/>
			</g>
			<g>
				
					<rect x="311.8" y="293.2" transform="matrix(-0.632 0.775 -0.775 -0.632 747.9898 243.1772)" class="st21" width="8.9" height="12.1"/>
				<path class="st22" d="M322.6,300.8l3.1,2.5c-0.4,1.7-1.9,3.5-3.5,4.2l-3.1-2.5C319.6,303.3,321,301.6,322.6,300.8z"/>
				
					<ellipse transform="matrix(0.632 -0.775 0.775 0.632 -116.7013 360.2138)" class="st21" cx="320.9" cy="303" rx="4.4" ry="2.6"/>
				<path class="st21" d="M311,298.9c1.9-0.7,3.6-2.9,4-4.9c0.3-2-0.9-3-2.8-2.3c-1.9,0.7-3.6,2.9-4,4.9
					C307.9,298.6,309.1,299.6,311,298.9z"/>
				<path class="st23" d="M311.3,297.4c1.1-0.4,2.1-1.6,2.2-2.7c0.2-1.1-0.5-1.7-1.6-1.3c-1.1,0.4-2.1,1.6-2.2,2.7
					C309.5,297.2,310.2,297.8,311.3,297.4z"/>
			</g>
		</g>
	</g>
	<path class="st23" d="M328.1,307.9c0.4,0.4,0.9,0.2,1-0.4s-0.2-1.3-0.6-1.7c-0.4-0.4-0.9-0.2-1,0.4
		C327.4,306.8,327.7,307.5,328.1,307.9z"/>
</g>
<path class="st21" d="M242.4,391.2c-1.5,0-3-0.4-4.3-1.2l-5.9-3.5c-0.3-0.2-0.4-0.6-0.2-0.9c0.2-0.3,0.6-0.4,0.9-0.2l5.9,3.5
	c2.3,1.4,5,1.4,7.3,0c2.3-1.4,3.5-3.8,3.4-6.5l-0.1-1.8c-2.1-29-5.9-82.9,16.8-88.7c7.8-2,13.2-3.9,17.1-5.3
	c11.7-4.2,12.5-3.9,28.5,8.2c0.3,0.2,0.3,0.6,0.1,0.9c-0.2,0.3-0.6,0.4-0.9,0.1c-16-12.1-16.2-12-27.3-8c-3.9,1.4-9.3,3.3-17.2,5.4
	c-21.6,5.5-17.9,58.7-15.8,87.3l0.1,1.8c0.2,3.2-1.3,6.1-4,7.7C245.4,390.8,243.9,391.2,242.4,391.2z"/>
<g>
	<ellipse class="st2" cx="287" cy="389.6" rx="21.5" ry="12.4"/>
	<g>
		<path class="st4" d="M297.2,384.3c1.2,0.5,2,1.9,1.9,3.3c0,0.7-0.1,1.3-0.3,1.6c-0.4,0.8-1.6,1.9-3.7,1.1c-2-0.8-6.5-5-6.7-7.8
			C288.2,377.5,294,382.9,297.2,384.3z"/>
		<path class="st4" d="M285.4,392.7c0,0,0.5,2.9,0.2,3.5c-0.2,0.5-1.6,1.7-3.7,1.4c-2.1-0.2-8-2.3-9.4-6.2
			c-2.1-6.1,11.5,0.5,11.5,0.5L285.4,392.7z"/>
		<path class="st0" d="M279.6,345.6l-0.5,46c0,1.6,1.1,3,2.5,3.2c0.2,0,0.4,0.1,0.6,0.1c1.4,0.1,2.3-0.5,2.7-1.1
			c0.4-0.5,0.6-1.2,0.6-1.9l0.6-19.6l2.9-17.6l4.1,31.1c0.1,0.8,0.5,1.6,1.1,2c0.4,0.3,1.1,0.5,1.8,0.5c1.2,0,2-0.7,2.5-1.2
			c0.4-0.4,0.6-1,0.6-1.7l-1.6-18.7l-0.6-23.9L279.6,345.6z"/>
		<path class="st5" d="M285.5,304.4l0.7,4.2c0,0,0,1.4-1.6,1.8c-1.6,0.4-2.1-0.6-2.1-0.6l-0.7-4.7L285.5,304.4z"/>
		<path class="st5" d="M277,304.5c2.7,2.7,6.7,2.9,9.1,0.5c2.4-2.4,2.1-6.5-0.6-9.1c-2.7-2.7-6.7-2.9-9.1-0.5
			C274.1,297.8,274.3,301.9,277,304.5z"/>
		<path class="st7" d="M285.3,308.7c0.1,0,6.8-4.3,9.2,0.2c4,7.3,3.8,30.9,2.5,34c-1.2,2.8-4.1,4.9-6.2,6.1c-1.8,1-3.9,1.7-6,1.7
			c-2.1,0-6.1-1.8-5.9-4.6c0.7-12.5-0.4-23.1-1.5-33.3C277.6,312.7,278.8,311.3,285.3,308.7z"/>
		<path class="st11" d="M289,354.7l4.1,31.1c0.1,0.8,0.5,1.6,1.1,2c0.1,0.1,0.2,0.1,0.3,0.2c-0.8-0.6-3.3-26.7-3.8-29.6
			C290.4,355.5,289,354.7,289,354.7z"/>
	</g>
	<polygon class="st5" points="264,310.1 260.4,298.2 262.3,297.4 266.6,306.7 	"/>
	<polygon class="st5" points="300.5,300.7 297.8,288.4 295.7,288.4 296.5,298.6 	"/>
	<path class="st7" d="M277.6,312.7c0,0-6.5,1.3-10.6-6.3c-0.4-0.7-1.3-0.8-1.7-0.2c-0.7,1-1.5,2.6-1.1,4.2c2,7.4,13,9,14.9,13.3
		C281,328.1,277.6,312.7,277.6,312.7z"/>
	<path class="st7" d="M289.6,307.1c0,0,5.2,0.4,5.9-4.1c0.4-2.3,0.5-3.7,0.5-4.5c0-0.5,0.5-0.9,1-0.9c1.2,0.2,3.1,0.5,3.4,1.3
		c0.4,1.2,1.1,7.3-4,16.6C293.1,321.8,289.6,307.1,289.6,307.1z"/>
	<path class="st5" d="M297.8,288.4l0-1.4c0-0.5-0.2-1-0.4-1.4l-1.4-2.3l-0.4-0.5c-0.3-0.4-1-0.5-1.4-0.2l-0.3,0.2
		c-0.4,0.3-0.7,0.7-0.6,1.2l0.7,2l-0.9-0.2c-0.2,0-0.4,0.1-0.4,0.3l0,0c0,0.2,0.1,0.3,0.2,0.4l1.5,0.6l1.4,2L297.8,288.4z"/>
	<path class="st5" d="M260.3,298.3l-0.4-1.3c-0.2-0.5-0.2-1-0.1-1.5l0.5-2.7l0.2-0.6c0.2-0.5,0.7-0.8,1.3-0.7l0.4,0.1
		c0.5,0.1,0.9,0.5,1,0.9l0,2.1l0.8-0.5c0.2-0.1,0.4,0,0.5,0.1l0,0c0.1,0.1,0.1,0.3-0.1,0.4l-1.2,1.1l-0.7,2.6L260.3,298.3z"/>
	<path class="st13" d="M280.6,321.7c0.6,2.7-1.1,23.7,4.3,28.9c-2.1,0-6.1-1.8-5.9-4.6c0.4-8.4,0.1-15.9-0.5-23
		c-2.1-2.8-8-4.5-11.6-8C267.2,315,280,319,280.6,321.7z"/>
	<path class="st8" d="M287.7,307.5l-0.9-1c0,0-1.5,1.6-2.7,1.8c0,0-1.5,0.4-2.2,0.5l-0.6,1.6C281.3,310.5,286.1,310.1,287.7,307.5z"
		/>
	<path class="st4" d="M280.9,302.6c-0.2,0.1-0.5,0.1-0.7,0c-0.4-0.2-1-1.8-1.9-1.7c-1.3,0.2-3.1,2.9-5.4-0.9c-1.2-2-0.5-3-1.1-4.1
		c0,0,0.2,0.6,5.2-2.5c5-3.1,9.1,0.7,10.4,2.8c1.3,2.1,2.1,6.3-1.2,8.7c-0.5,0.4-4.1-0.3-4.1-0.6c-0.1-0.3,0.9-0.8,0.3-1.5
		C282,302.3,281.5,302.3,280.9,302.6z"/>
</g>
<polygon class="st19" points="51.2,289 63.1,305.8 75.2,303.1 62.9,307.1 "/>
<polygon class="st19" points="64.5,306.3 65.5,306 75.2,322.5 "/>
<polygon class="st19" points="62,305.3 51.3,308.9 61.4,304.3 "/>
<g>
	<path class="st18" d="M56.6,290.4c0-3.7-2.6-8.3-5.9-10.1c-1.6-0.9-3-1-4.1-0.5l0,0l-0.1,0c0,0,0,0,0,0l-2,1.2l1-0.1
		c-0.4,0.7-0.6,1.6-0.6,2.7c0,3.7,2.6,8.3,5.9,10.1c0.9,0.5,1.7,0.7,2.4,0.8c-0.1,0.3-0.4,0.9-0.4,0.9l2.1-1.2c0,0,0.1,0,0.1-0.1
		l0.1-0.1c0,0,0,0,0,0C56,293.5,56.6,292.2,56.6,290.4z"/>
	<path class="st1" d="M54.5,291.6c0,3.7-2.6,5.2-5.9,3.4c-3.2-1.9-5.9-6.4-5.9-10.1s2.6-5.2,5.9-3.4
		C51.9,283.4,54.5,287.9,54.5,291.6z"/>
</g>
<g>
	<path class="st8" d="M48.6,292c-0.3-0.2-0.6-0.4-0.8-0.6c-0.2-0.2-0.4-0.5-0.5-0.7c-0.1-0.3-0.2-0.6-0.3-0.8c0-0.3-0.1-0.6-0.1-1
		l1.1,0.6c0,0.2,0,0.4,0,0.5c0,0.1,0,0.3,0.1,0.4c0,0.1,0.1,0.3,0.2,0.4c0.1,0.1,0.2,0.2,0.3,0.3c0.1,0,0.2,0.1,0.2,0.1
		c0.1,0,0.1,0,0.2,0c0,0,0.1-0.1,0.1-0.1c0-0.1,0-0.1,0.1-0.2c0-0.1,0-0.2,0-0.3c0-0.1,0-0.2,0-0.3c0-0.1,0-0.2,0-0.4
		c0-0.2,0-0.3,0-0.5c0-0.1,0-0.3,0-0.4c0-0.1-0.1-0.3-0.1-0.4c0-0.1-0.1-0.2-0.2-0.3c-0.1-0.1-0.2-0.2-0.3-0.2
		c-0.2-0.1-0.3-0.1-0.4,0c-0.1,0.1-0.2,0.2-0.2,0.3l-0.9-0.5l0-4.1l2.9,1.7v1.2l-2-1.1L48,287c0.1-0.1,0.2-0.1,0.4-0.1
		c0.2,0,0.3,0.1,0.5,0.2c0.2,0.1,0.5,0.3,0.7,0.5c0.2,0.2,0.3,0.4,0.4,0.7c0.1,0.3,0.2,0.6,0.2,0.9c0.1,0.3,0.1,0.6,0.1,1
		c0,0.3,0,0.6,0,0.9c0,0.2-0.1,0.5-0.2,0.7c-0.1,0.2-0.2,0.3-0.3,0.4c-0.1,0.1-0.3,0.1-0.5,0.1C49.1,292.2,48.8,292.1,48.6,292z"/>
</g>
<path class="st1" d="M178.5,128.3c-5.7,0-10.4-4.7-10.4-10.4c0-5.7,4.7-10.4,10.4-10.4c5.7,0,10.4,4.7,10.4,10.4
	C188.9,123.6,184.2,128.3,178.5,128.3z M178.5,109.8c-4.5,0-8.1,3.6-8.1,8.1c0,4.5,3.6,8.1,8.1,8.1c4.5,0,8.1-3.6,8.1-8.1
	C186.6,113.4,182.9,109.8,178.5,109.8z"/>
<path class="st0" d="M144,382.4c-4.1,0-7.4-3.3-7.4-7.4c0-4.1,3.3-7.4,7.4-7.4c4.1,0,7.4,3.3,7.4,7.4
	C151.4,379.1,148.1,382.4,144,382.4z M144,369.9c-2.8,0-5.1,2.3-5.1,5.1c0,2.8,2.3,5.1,5.1,5.1c2.8,0,5.1-2.3,5.1-5.1
	C149.1,372.2,146.8,369.9,144,369.9z"/>
<path class="st1" d="M209.8,74.8l-5-10.2l10.2-5l5,10.2L209.8,74.8z M207.8,65.6l3,6.1l6.1-3l-3-6.1L207.8,65.6z"/>
<g>
	
		<rect x="381" y="67.6" transform="matrix(0.7071 -0.7071 0.7071 0.7071 64.5846 293.3581)" class="st10" width="10.8" height="2.3"/>
	
		<rect x="385.3" y="63.3" transform="matrix(0.7071 -0.7071 0.7071 0.7071 64.5776 293.3481)" class="st10" width="2.3" height="10.8"/>
</g>
<circle class="st0" cx="169.2" cy="124.7" r="7.5"/>
<path class="st0" d="M73.9,235c0,3-2.5,5.5-5.5,5.5c-3,0-5.5-2.5-5.5-5.5c0-3,2.5-5.5,5.5-5.5C71.5,229.5,73.9,231.9,73.9,235z"/>
<path class="st1" d="M136.1,385.5c0,2.4-2,4.4-4.4,4.4c-2.4,0-4.4-2-4.4-4.4s2-4.4,4.4-4.4C134.2,381.1,136.1,383.1,136.1,385.5z"/>
<g>
	<g>
		<path class="st10" d="M471.1,217.8c-0.5,1.3-1.9,2-3.2,1.5c-1.3-0.5-2-1.9-1.5-3.2c0.5-1.3,1.9-2,3.2-1.5
			C470.9,215.1,471.6,216.5,471.1,217.8z"/>
	</g>
	
		<rect x="452.5" y="197" transform="matrix(0.9357 0.3528 -0.3528 0.9357 100.7838 -148.4727)" class="st0" width="10.5" height="10.5"/>
</g>
</svg>
