<?xml version="1.0" encoding="utf-8"?>
<!-- Generator: Adobe Illustrator 23.0.0, SVG Export Plug-In . SVG Version: 6.00 Build 0)  -->
<svg version="1.1" id="Layer_1" xmlns="http://www.w3.org/2000/svg" xmlns:xlink="http://www.w3.org/1999/xlink" x="0px" y="0px"
	 width="55.1px" height="59.3px" viewBox="0 0 55.1 59.3" style="enable-background:new 0 0 55.1 59.3;" xml:space="preserve">
<style type="text/css">
	.st0{fill:#66CBFE;}
	.st1{fill:#98EDFE;}
	.st2{fill:#CEF6FE;}
	.st3{fill:#E0E5EF;}
	.st4{fill:#80A9FE;}
	.st5{fill:#CED6E5;}
	.st6{fill:#6680FE;}
	.st7{fill:#A2B0CB;}
	.st8{fill:#F2F4F8;}
</style>
<g>
	<path class="st0" d="M29.1,1.4c0.7,0.3,1.5,0.3,2.2,0.5c2.8,0.9,5.1,2.6,7,4.7c0.6,0.6,1.1,1.3,1.6,1.9c0.7,0.5,1,1.3,1.4,1.9
		c0.4,0.6,0.7,1.3,1,1.9c1.3,2.5,2.1,5.1,2.8,7.8c0.4,1.9,0.7,3.9,0.9,5.9c0.1,1.2,0.1,2.4,0.1,3.6c0,1.2-0.1,2.4-0.1,3.5
		c-0.2,2.1-0.5,4.1-1,6.1c-0.6,2.7-1.5,5.2-2.8,7.7c-0.5,1.2-1.3,2.3-2,3.4c-0.1,0.1-0.2,0.2-0.4,0.3c-1.4,1.8-2.9,3.5-4.9,4.8
		c-1.7,1.2-3.6,2-5.7,2.3c-0.1,0-0.1,0.1-0.2,0.1c-0.5,0-1,0-1.4,0c-0.1-0.1-0.2-0.2-0.2-0.4c0-0.9-0.1-1.9,0-2.8
		c0.1-0.3,0.4-0.3,0.6-0.3c2.2-0.2,4.2-1.1,5.9-2.5c0.5-0.4,0.9-0.9,1.4-1.3c1-1,1.8-2.1,2.5-3.2c0.9-1.3,1.5-2.7,2.1-4.2
		c0.7-1.8,1.3-3.7,1.6-5.7c0.4-2,0.6-4,0.7-6c0.2-3.4-0.1-6.7-0.7-10c-0.3-2-0.9-3.8-1.6-5.7c-0.5-1.5-1.3-2.9-2.1-4.2
		c-0.7-1.2-1.5-2.3-2.5-3.2c-1.6-1.7-3.5-3-5.9-3.5C29,5,28.5,5,28,4.9c-0.2,0-0.4,0-0.5-0.3c-0.1-0.9,0-1.9,0-2.8
		c0-0.1,0.1-0.3,0.2-0.4C28.1,1.4,28.6,1.4,29.1,1.4z"/>
	<path class="st1" d="M27.7,54.7c0,1.1,0,2.2,0,3.3c-0.5,0-1,0-1.4,0c-0.5-0.2-1.1-0.3-1.7-0.4c-2.1-0.6-4-1.7-5.7-3.1
		c-1.3-1.1-2.3-2.4-3.4-3.7c-0.7-0.6-1-1.4-1.5-2.1c-0.3-0.6-0.6-1.1-0.9-1.7c-1.2-2.4-2-5-2.7-7.6c-0.4-2-0.7-4-0.9-6
		c0-1.3-0.2-2.6-0.1-3.9c0-1.1,0.1-2.2,0.2-3.2c0.2-1.5,0.3-3,0.6-4.5c0.1-0.5,0.2-1.1,0.4-1.6c0.6-2.5,1.4-4.9,2.5-7.2
		c0.1-0.2,0.2-0.4,0.2-0.6c0.6-1,1.1-2.1,1.8-3.1c0.1-0.2,0.2-0.4,0-0.6c0.5,0,0.8-0.4,1.1-0.8C18.1,5.2,20.7,3.1,24,2
		c0.7-0.2,1.5-0.4,2.2-0.5c0.2-0.1,0.5,0,0.7-0.1c0.3,0,0.5,0,0.8,0c0,1.1,0,2.2,0,3.3c-0.3,0.3-0.8,0.2-1.2,0.2
		c-2.3,0.4-4.2,1.4-5.8,2.9c-0.3,0.2-0.6,0.4-0.8,0.7c-1,1-1.8,2.1-2.5,3.3c-0.8,1.3-1.4,2.7-2,4.1c-0.7,1.9-1.3,3.9-1.7,5.9
		c-0.6,3.1-0.9,6.2-0.7,9.3c0.1,1.9,0.3,3.8,0.6,5.7c0.1,0.3,0.2,0.6,0.3,0.9c0,0.4,0.1,0.8,0.2,1.1c0.4,1.5,0.8,3.1,1.4,4.5
		c0.5,1.4,1.2,2.8,2,4.1c0.7,1.2,1.6,2.3,2.6,3.4c0.8,0.6,1.4,1.4,2.3,1.9c1.5,1,3.2,1.6,5,1.8C27.4,54.6,27.5,54.6,27.7,54.7z"/>
	<path class="st2" d="M26.9,1.4c-0.2,0.2-0.4,0.1-0.7,0.1c0,0,0-0.1,0-0.1C26.4,1.4,26.7,1.4,26.9,1.4z"/>
	<path class="st3" d="M10.5,20c-0.3,1.3-0.5,2.6-0.7,4c-0.1,0.7-0.2,1.4-0.3,2.1c-0.5,1-1.2,1.7-1.8,2.6c-0.2,0.4-0.5,0.8-0.6,1.2
		c-0.7,1.1-1.2,2.4-1.6,3.6c-0.3,1.1-0.6,2.2-0.6,3.4c-0.1,2.6,0.8,5,2.6,6.9C9,45.5,11,46.4,13.2,47c0.7,1.3,1.5,2.6,2.3,3.9
		c-2.8-0.3-5.5-0.9-7.9-2.4c-1.9-1.2-3.4-2.8-4.5-4.7c-0.9-1.6-1.4-3.4-1.6-5.3c-0.3-2.6,0.3-5.1,1.2-7.5c0.2-0.4,0.5-0.8,0.5-1.3
		c0.4-1,0.9-1.9,1.5-2.8c0.2-0.3,0.4-0.7,0.6-1c0.7-0.8,1.3-1.8,2-2.6c0.9-1,1.7-2,2.7-3C10.1,20.1,10.2,19.9,10.5,20z"/>
	<path class="st4" d="M5.3,25.8c-0.2,0.8-0.8,1.5-1.2,2.2c-0.3,0.5-0.4,1.2-0.9,1.6c-0.6-1.5-1.2-3-1.5-4.7
		c-0.8-4.3,0.2-8.2,3.1-11.5c2.2-2.5,5.1-3.9,8.4-4.5c0.6-0.1,1.2-0.2,1.7-0.2c0.2,0.1,0.6-0.1,0.3,0.3c-0.7,1-1.3,2-1.8,3
		c-0.1,0.1-0.2,0.2-0.3,0.3c-0.1,0.2-0.4,0.2-0.6,0.3c-2.8,0.8-5,2.3-6.4,4.9c-0.9,1.7-1.4,3.6-1.1,5.6c0.1,0.7,0.2,1.5,0.4,2.2
		C5.4,25.5,5.4,25.7,5.3,25.8z"/>
	<path class="st5" d="M42.1,12.5c-0.7-1.3-1.5-2.6-2.3-3.9c3.5,0.3,6.7,1.3,9.5,3.6c2.5,2.2,4,4.9,4.5,8.2c0.4,2.7-0.1,5.3-1.1,7.9
		c-0.2,0.5-0.5,1-0.6,1.5c-0.4,1-0.9,1.9-1.4,2.7c-0.2,0.4-0.4,0.7-0.6,1.1c-0.2,0.1-0.3,0.3-0.5,0.5c-1.3,1.8-2.7,3.4-4.2,5
		c-0.2,0.2-0.3,0.4-0.6,0.4c0.4-1.9,0.8-3.7,0.9-5.6c0-0.2,0.1-0.3,0.1-0.5c0.2-0.5,0.5-0.9,0.8-1.3c0.5-0.8,1.1-1.6,1.5-2.4
		c0.6-1.2,1.3-2.5,1.6-3.8c1.1-3.6,0.7-6.9-1.7-9.9c-1.3-1.6-3.1-2.6-5-3.2C42.7,12.6,42.4,12.6,42.1,12.5z"/>
	<path class="st6" d="M50,33.7c0-0.1,0-0.3,0.1-0.4c0.7-1.1,1.3-2.2,1.9-3.4c0,0,0.1-0.1,0.1-0.1c1,2.2,1.7,4.6,1.8,7.1
		c0.1,6-3.5,11-9.2,12.9c-1.6,0.5-3.2,0.9-4.8,1c0.8-1.2,1.6-2.4,2.2-3.8c0.2-0.2,0.5-0.2,0.7-0.3c3-0.9,5.3-2.5,6.7-5.4
		c1.1-2.3,1.1-4.6,0.6-7.1C49.9,34.1,49.8,33.9,50,33.7z"/>
	<path class="st5" d="M27.5,45.9c1.4-0.3,2.6-0.9,3.9-1.4c1.8-0.8,3.5-1.6,5.1-2.7c1.4-0.9,2.8-1.9,4.1-3c0.4-0.3,0.7-0.6,1.1-0.9
		c-0.2,1.4-0.6,2.7-1,4c-0.2,0.5-0.3,1.1-0.6,1.6c-0.2,0.4-0.6,0.6-0.9,0.8c-1.5,1-3,1.9-4.6,2.6c-0.3,0.2-0.7,0.3-1,0.5
		c-1.2,0.4-2.3,0.9-3.4,1.4c-0.8,0.3-1.6,0.5-2.3,0.8c-0.1,0-0.2-0.1-0.3-0.2c-0.1-1.1,0-2.2-0.1-3.3C27.5,46,27.5,46,27.5,45.9z"/>
	<path class="st6" d="M41.7,21.6c-1.7-1.5-3.5-2.9-5.4-4.1c-2.6-1.6-5.3-2.9-8.2-3.8c-0.1,0-0.2-0.1-0.3-0.1c0-0.2,0.1-0.3,0.3-0.3
		c1.8-0.5,3.5-1,5.4-1.2c0.8,0.2,1.6,0.7,2.3,1.1c1.2,0.6,2.4,1.4,3.5,2.1c0.3,0.2,0.6,0.4,0.8,0.7C40.8,17.8,41.4,19.7,41.7,21.6z"
		/>
	<path class="st5" d="M33.5,12.2c-2,0.2-3.9,0.7-5.8,1.3c0,0-0.1,0-0.1,0c-0.2-0.2-0.2-0.5-0.2-0.8c0-0.8,0.1-1.6-0.1-2.4
		c-0.1-0.1-0.1-0.2-0.1-0.4c0.7,0.1,1.2-0.2,1.9-0.3c2.1-0.5,4.2-0.9,6.4-1c1,0.9,1.8,2,2.4,3.2C37.5,12.1,37,12,36.6,12
		C35.6,12.1,34.5,12.3,33.5,12.2z"/>
	<path class="st6" d="M35.5,50.9c-2.5-0.1-4.9-0.6-7.2-1.3c-0.1,0-0.2-0.1-0.4-0.1c0-0.3,0.3-0.2,0.4-0.3c1.6-0.5,3.2-1.1,4.8-1.8
		c0.2-0.1,0.4-0.1,0.6-0.1c0.3-0.2,0.6-0.1,0.9-0.1c0.8,0.1,1.5,0.1,2.3,0.1c0.4,0,0.8,0,1.2,0.3c-0.4,0.8-1,1.5-1.5,2.2
		C36.1,50.2,35.9,50.6,35.5,50.9z"/>
	<path class="st6" d="M44.9,20.2c0.7,0.4,1.1,1,1.6,1.5c1.2,1.3,2.3,2.7,3.3,4.1c-0.1,0.9-0.5,1.6-0.9,2.4c-0.2,0.5-0.4,1-0.7,1.4
		c-0.2-0.1-0.3-0.2-0.3-0.3c-0.5-1-1.2-1.9-1.9-2.8c-0.1-0.2-0.1-0.3-0.2-0.5c-0.2-1.8-0.4-3.6-0.8-5.4
		C44.9,20.5,44.9,20.3,44.9,20.2z"/>
	<path class="st3" d="M27.4,10.1c0.3,0,0.2,0.3,0.2,0.5c0,1,0,2,0,3c-1.2,0.2-2.3,0.7-3.4,1.2c-2.3,1-4.6,2.2-6.6,3.6
		c-1.5,1-2.8,2.1-4.1,3.3c0.4-2,0.9-4,1.8-5.9c1.3-0.9,2.6-1.8,4-2.5c0.9-0.5,1.7-0.9,2.6-1.3c1.6-0.7,3.2-1.3,4.9-1.9
		C26.9,10.1,27.2,10,27.4,10.1z"/>
	<path class="st4" d="M27.5,45.9C27.5,45.9,27.5,46,27.5,45.9c-0.2,0.3-0.4,0.3-0.6,0.4c-1.4,0.4-2.9,0.8-4.3,1c-0.2,0-0.5,0-0.7,0
		c-1.7-0.6-3.2-1.5-4.7-2.5c-0.7-0.4-1.3-0.8-1.9-1.3c-0.8-1.7-1.2-3.5-1.6-5.2c0-0.1-0.1-0.3,0.1-0.4c2.9,2.6,6.1,4.8,9.6,6.4
		C24.7,44.9,26.1,45.4,27.5,45.9z"/>
	<path class="st3" d="M21.8,47.2c1.7-0.1,3.4-0.6,5-1c0.2-0.1,0.5-0.1,0.7-0.2c0.2,0.2,0.1,0.4,0.1,0.6c0,1,0,1.9,0,2.9
		c-2.1,0.6-4.2,1-6.3,1.3c-0.5,0.1-1,0.1-1.5,0.2c-1-1-1.8-2.1-2.5-3.3c0.4-0.3,1-0.2,1.4-0.2C19.7,47.4,20.7,47.2,21.8,47.2z"/>
	<path class="st4" d="M27.4,10.1c-1.8,0.5-3.4,1.1-5.1,1.9c-0.2,0.1-0.3,0.2-0.5,0.1c-0.1,0.1-0.3,0.1-0.5,0.1
		c-1.2-0.1-2.4-0.2-3.7-0.3c-0.1,0-0.3,0-0.4-0.2c0.8-1.1,1.5-2.3,2.5-3.2c2.6,0.2,5.1,0.7,7.5,1.3C27.3,10,27.4,10.1,27.4,10.1z"/>
	<path class="st4" d="M10.4,39.4c-1.9-1.8-3.5-3.8-5-5.9c0.3-1.3,0.9-2.4,1.5-3.5c0-0.1,0.1-0.1,0.2-0.1c0.2,0.1,0.3,0.3,0.4,0.4
		c0.5,0.8,1.1,1.6,1.7,2.4c0.2,0.2,0.3,0.5,0.4,0.7c0.1,1,0.3,2,0.4,3c0.1,0.9,0.3,1.7,0.5,2.6C10.4,39.1,10.5,39.3,10.4,39.4z"/>
	<path class="st5" d="M35.9,30.1c0,2.7,0,5.3,0,8c0,0.8-0.6,1.2-1.1,1.6c-1.2,0.9-2.6,1.2-4.1,1.4c-1,0.2-2.1,0.3-3.1,0.2
		c-0.2-0.2-0.2-0.4-0.2-0.6c0-2.4,0-4.9,0-7.3c0-0.1,0-0.1,0-0.2c0-0.1,0-0.1,0.1-0.2c0.6-0.3,1.3-0.2,2-0.2
		c1.5-0.2,2.9-0.5,4.3-1.1c0.7-0.3,1.4-0.8,1.8-1.5C35.7,30.1,35.8,30,35.9,30.1z"/>
	<path class="st3" d="M27.6,33.1c0,2.8,0,5.5,0,8.3c-2.3,0-4.5-0.3-6.6-1.3c-1.1-0.5-1.8-1.4-1.7-2.7c0.1-2.4,0-4.8,0-7.2
		c0.2,0,0.2,0.1,0.3,0.2c0.4,0.7,1.1,1.2,1.8,1.5c1.7,0.8,3.6,1,5.5,1.1C27.2,32.9,27.4,32.8,27.6,33.1z"/>
	<path class="st5" d="M27.6,33.1c-2.1,0-4.2-0.3-6.2-1.1c-0.9-0.4-1.7-0.9-2.1-1.9c0-2.8,0-5.5,0-8.3c0.1,0,0.1,0,0.2,0.1
		c0.7,1.3,2,1.7,3.2,2.1c1.4,0.4,2.8,0.6,4.3,0.6c0.2,0,0.4,0,0.6,0.1c0,0.1,0.1,0.1,0.1,0.2c0.1,0.3,0.1,0.6,0.1,0.8
		c0,2.2,0,4.3,0,6.5C27.8,32.5,27.9,32.8,27.6,33.1L27.6,33.1z"/>
	<path class="st7" d="M27.7,33c0-2.8,0-5.5,0-8.3c0.2-0.2,0.5-0.2,0.7-0.2c1.5,0,3-0.3,4.5-0.7C34,23.5,35,23,35.7,22
		c0.1-0.1,0.1-0.2,0.3-0.1c0,2.7,0,5.4,0,8.2c-0.4,1.1-1.4,1.6-2.4,2C31.7,32.8,29.7,33.1,27.7,33z"/>
	<path class="st3" d="M35.9,21.9c-0.8,1.4-2.2,1.9-3.6,2.3c-1.5,0.4-3.1,0.6-4.7,0.6c0,0,0,0,0,0c-0.2-0.2-0.2-0.5-0.2-0.7
		c0-1.7,0-3.4,0-5.2c0-0.3,0-0.5,0.2-0.7c2.3,0,4.5,0.3,6.6,1.3c0.5,0.2,0.9,0.6,1.3,1C36,20.9,36,21.4,35.9,21.9z"/>
	<path class="st8" d="M27.6,18.1c0,2.2,0,4.4,0,6.6c-2.3,0-4.5-0.3-6.6-1.3c-0.8-0.4-1.4-0.9-1.7-1.7c-0.1-1.1,0.6-1.7,1.4-2.2
		c1.5-0.8,3.1-1.2,4.8-1.4C26.3,18.1,27,18.1,27.6,18.1z"/>
</g>
</svg>
