<?xml version="1.0" encoding="utf-8"?>
<!-- Generator: Adobe Illustrator 23.0.0, SVG Export Plug-In . SVG Version: 6.00 Build 0)  -->
<svg version="1.1" id="Layer_1" xmlns="http://www.w3.org/2000/svg" xmlns:xlink="http://www.w3.org/1999/xlink" x="0px" y="0px"
	 width="51.6px" height="50.9px" viewBox="0 0 51.6 50.9" style="enable-background:new 0 0 51.6 50.9;" xml:space="preserve">
<style type="text/css">
	.st0{fill:#FE9833;}
	.st1{fill:#FEBA33;}
	.st2{fill:#384949;}
	.st3{fill:#E56B2E;}
	.st4{fill:#D2D2D7;}
	.st5{fill:#EBEBF0;}
	.st6{fill:#4A696F;}
	.st7{fill:#6AA8FE;}
	.st8{fill:#B9B9BF;}
</style>
<g>
	<path class="st0" d="M45.6,38.9c1.6,0,3.1,0,4.7,0c0.7,0,1,0.5,1.4,1c0,3.3,0,6.7,0,10c-0.1,0.5-0.5,0.9-1,1c-8.1,0-16.2,0-24.3,0
		c-0.1-0.2-0.2-0.4-0.2-0.6c0-1.6,0-3.3,0-4.9c0-0.2,0-0.3,0.1-0.5c0.1-0.2,0.3-0.2,0.4-0.2c0.7-0.3,1-0.7,1-1.4c0-1.2,0-2.4,0-3.7
		c0-0.2,0-0.5,0.1-0.7c1,0,2,0,3,0c0.2,0.2,0.1,0.5,0.1,0.7c0,1.2,0,2.4,0,3.6c0,0.5,0.1,0.9,0.6,1.2c0.4,0.3,0.9,0.3,1.4,0.1
		c0.5-0.3,0.7-0.7,0.7-1.2c0-1.2,0-2.4,0-3.7c0-0.2,0-0.5,0.1-0.7c1,0,2,0,3,0c0.2,0.2,0.1,0.5,0.1,0.7c0,1.2,0,2.4,0,3.6
		c0,0.5,0.1,0.9,0.6,1.2c0.4,0.3,0.9,0.3,1.4,0.1c0.5-0.3,0.7-0.7,0.7-1.2c0-1.2,0-2.4,0-3.7c0-0.2,0-0.5,0.1-0.7c1,0,2,0,3,0
		c0.2,0.2,0.1,0.5,0.1,0.7c0,1.2,0,2.4,0,3.6c0,0.5,0.1,0.9,0.6,1.2c0.4,0.3,0.9,0.3,1.4,0.1c0.5-0.3,0.7-0.7,0.7-1.2
		c0-1.2,0-2.4,0-3.7C45.5,39.4,45.4,39.1,45.6,38.9z"/>
	<path class="st1" d="M26.3,44.9c0,2,0,4,0,6c-8.1,0-16.2,0-24.2,0c-0.6-0.1-1-0.5-1.1-1.1c0-3.3,0-6.5,0-9.8c0.4-0.8,1-1.1,1.9-1.1
		c1.4,0.1,2.7,0,4.1,0c0.2,0.2,0.1,0.5,0.1,0.7c0,1.2,0,2.4,0,3.6c0,0.5,0.1,0.9,0.6,1.2c0.4,0.3,0.9,0.3,1.4,0.1
		c0.5-0.3,0.7-0.7,0.7-1.2c0-1.2,0-2.4,0-3.7c0-0.2,0-0.5,0.1-0.7c1,0,2,0,3,0c0.2,0.2,0.1,0.5,0.1,0.7c0,1.2,0,2.4,0,3.6
		c0,0.5,0.1,0.9,0.6,1.2c0.4,0.3,0.9,0.3,1.4,0.1c0.5-0.3,0.7-0.7,0.7-1.2c0-1.2,0-2.4,0-3.7c0-0.2,0-0.5,0.1-0.7c1,0,2,0,3,0
		c0.2,0.2,0.1,0.5,0.1,0.7c0,1.2,0,2.4,0,3.6c0,0.5,0.1,0.9,0.6,1.2c0.4,0.3,0.9,0.3,1.4,0.1c0.5-0.3,0.7-0.7,0.7-1.2
		c0-1.2,0-2.4,0-3.7c0-0.2,0-0.5,0.1-0.7c1,0,2,0,3,0c0.2,0.2,0.1,0.4,0.1,0.7c0,1,0,2.1,0,3.1C24.9,43.7,25.2,44.5,26.3,44.9
		C26.3,44.8,26.3,44.8,26.3,44.9z"/>
	<path class="st2" d="M44.4,0.2c0.4,0.2,0.8,0.4,1.1,0.8c0.9,0.9,1.7,1.7,2.6,2.6c0.8,0.9,0.5,2.2-0.6,2.5c-0.5,0.1-0.9,0-1.3-0.3
		c-0.2-0.1-0.3-0.3-0.5-0.4c0,8.5,0,16.9,0,25.4c0.2,0,0.3-0.2,0.4-0.3c0.6-0.5,1.5-0.5,2.1,0c0.6,0.6,0.6,1.5,0,2.1c-1,1-2,2-3,3
		c-0.6,0.6-1.5,0.6-2.1-0.1c-1-0.9-1.9-1.9-2.9-2.9c-0.6-0.6-0.6-1.5-0.1-2.1c0.6-0.6,1.5-0.6,2.2,0c0.1,0.1,0.2,0.2,0.4,0.3
		c0-8.5,0-17,0-25.5c-0.2,0.2-0.3,0.3-0.4,0.4c-0.6,0.5-1.5,0.5-2.1,0c-0.6-0.6-0.6-1.5,0-2.1c1-1,2-2,3-3c0.2-0.2,0.5-0.3,0.7-0.4
		C44,0.2,44.2,0.2,44.4,0.2z"/>
	<path class="st3" d="M20.8,0.2c1.1,0.6,1.9,1.5,2.9,2.3C28.8,6.7,33.9,11,39,15.3c0.5,0.4,0.8,0.9,0.7,1.6c-0.1,0.6-0.4,0.9-1,1.1
		c-0.5,0.2-1,0.1-1.4-0.3c-0.2-0.1-0.3-0.3-0.5-0.4c-0.5-0.2-0.8-0.6-1.2-0.9c-1.7-1.4-3.4-2.8-5.1-4.3c-3.3-2.7-6.5-5.4-9.8-8.1
		c-0.2-0.1-0.3-0.3-0.4-0.5c-0.1-0.9,0-1.9,0-2.8c0-0.2,0-0.3,0.1-0.5C20.5,0.2,20.7,0.2,20.8,0.2z"/>
	<path class="st0" d="M20.4,0.2c0,1.1,0,2.3,0,3.4c0,0,0,0,0,0.1c-0.5,0.6-1.2,1.1-1.8,1.6c-2.7,2.2-5.3,4.4-8,6.6
		c-0.1,0.1-0.2,0.1-0.3,0.2c-2,1.6-3.9,3.3-5.9,4.9c-0.1,0.1-0.3,0.2-0.5,0.3c-0.1,0.1-0.3,0.2-0.4,0.3c-0.8,0.6-1.9,0.4-2.3-0.5
		C1.1,17.1,1,17,1,17c0-0.3,0-0.5,0-0.8c0.2-0.4,0.5-0.8,0.9-1.1c5.8-4.8,11.6-9.6,17.4-14.4c0.2-0.2,0.5-0.3,0.8-0.4
		C20.2,0.2,20.3,0.2,20.4,0.2z"/>
	<path class="st4" d="M30.5,12.1c2.1,1.7,4.2,3.4,6.2,5.2c0,0.2,0,0.5,0,0.7c-0.2,0.2-0.5,0.1-0.8,0.1c-3,0-6,0-8.9,0
		c-0.2,0-0.4,0-0.6,0c-0.8,0.1-1.2,0.6-1.3,1.3c0,0.2,0,0.3,0,0.5c0,2.7,0,5.3,0,8c0,1.4,0.5,1.8,1.8,1.8c3,0,6,0,9,0
		c0.3,0,0.6-0.1,0.8,0.1c0,1.5,0,3,0,4.5c0,0.8-0.6,1.4-1.4,1.4c-4.5,0-8.9,0-13.4,0c-0.2-0.3-0.1-0.6-0.1-0.9c0-4.8,0-9.7,0-14.5
		c0-0.2,0-0.3,0-0.5c0-1.2-0.1-1.5-1.3-1.9c-0.1,0-0.1-0.1-0.1-0.1c-0.1-0.2-0.1-0.4-0.1-0.5c0-1.6,0-3.1,0-4.7c0-0.2,0-0.5,0.1-0.7
		c0.2-0.2,0.4-0.1,0.7-0.1c2.9,0,5.8,0,8.7,0C30,11.9,30.2,12,30.5,12.1z"/>
	<path class="st5" d="M20.4,12.1c0,2,0,3.9,0,5.9c-0.2,0.2-0.5,0.2-0.8,0.2c-2.5,0-5,0-7.5,0c-0.2,0-0.4,0-0.6,0
		c-0.8,0.1-1.3,0.6-1.4,1.4c0,0.2,0,0.4,0,0.6c0,5,0,9.9,0,14.9c0,0.3,0.1,0.6-0.1,0.9c-1.5,0-3,0-4.4,0c-1,0-1.6-0.6-1.6-1.6
		c0-5.5,0-10.9,0-16.4c0-0.2,0.1-0.4-0.1-0.6c2.1-1.7,4.2-3.5,6.3-5.2c0.3-0.1,0.6-0.2,0.9-0.2c2.9,0,5.7,0,8.6,0
		C19.9,11.9,20.1,11.9,20.4,12.1C20.3,12.1,20.4,12.1,20.4,12.1z"/>
	<path class="st6" d="M10,35.9c0-5.1,0-10.2,0-15.3c0-0.3,0-0.7,0-1c0-1,0.6-1.6,1.6-1.6c2.8,0,5.5,0,8.3,0c0.2,0,0.3,0,0.5,0
		c0,0,0,0,0,0c0.2,0.2,0.2,0.4,0.2,0.7c0,5.5,0,11,0,16.6c0,0.2,0,0.5-0.2,0.7C16.9,35.9,13.5,35.9,10,35.9z"/>
	<path class="st7" d="M36.7,30c-3.5,0-6.9,0-10.4,0c-0.8,0-1.5-0.7-1.5-1.5c0-3,0-6,0-9c0-0.8,0.7-1.5,1.5-1.5c3.5,0,6.9,0,10.4,0
		C36.7,22,36.7,26,36.7,30z"/>
	<path class="st2" d="M20.4,35.9c0-6,0-11.9,0-17.9c0.9,0,1.5,0.6,1.5,1.5c0,3.3,0,6.6,0,9.9c0,2.1,0,4.3,0,6.4
		C21.4,35.9,20.9,35.9,20.4,35.9z"/>
	<path class="st6" d="M10,38.9c0,1.4,0,2.9,0,4.3c0,1-0.6,1.6-1.5,1.6c-0.9,0-1.5-0.7-1.5-1.6c0-1.4,0-2.9,0-4.3
		C8,38.9,9,38.9,10,38.9z"/>
	<path class="st6" d="M15.9,38.9c0,1.4,0,2.9,0,4.3c0,1-0.6,1.6-1.5,1.6c-0.9,0-1.5-0.7-1.5-1.6c0-1.4,0-2.9,0-4.3
		C14,38.9,14.9,38.9,15.9,38.9z"/>
	<path class="st6" d="M21.9,38.9c0,1.4,0,2.9,0,4.3c0,1-0.6,1.6-1.5,1.6c-0.9,0-1.5-0.7-1.5-1.6c0-1.4,0-2.9,0-4.3
		C19.9,38.9,20.9,38.9,21.9,38.9z"/>
	<path class="st2" d="M33.7,38.9c0,1.4,0,2.9,0,4.3c0,1-0.6,1.6-1.5,1.6c-0.9,0-1.5-0.7-1.5-1.6c0-1.4,0-2.9,0-4.3
		C31.8,38.9,32.8,38.9,33.7,38.9z"/>
	<path class="st2" d="M39.7,38.9c0,1.4,0,2.9,0,4.3c0,1-0.6,1.6-1.5,1.6c-0.9,0-1.5-0.7-1.5-1.6c0-1.4,0-2.9,0-4.3
		C37.7,38.9,38.7,38.9,39.7,38.9z"/>
	<path class="st2" d="M45.6,38.9c0,1.4,0,2.9,0,4.3c0,1-0.6,1.6-1.5,1.6c-0.9,0-1.5-0.7-1.5-1.6c0-1.4,0-2.9,0-4.3
		C43.6,38.9,44.6,38.9,45.6,38.9z"/>
	<path class="st2" d="M27.8,38.9c0,1.4,0,2.9,0,4.3c0,1-0.5,1.5-1.5,1.6c0,0,0,0,0,0c-0.2-0.2-0.2-0.4-0.2-0.7c0-1.5,0-3.1,0-4.6
		c0-0.2,0-0.5,0.2-0.7C26.8,38.9,27.3,38.9,27.8,38.9z"/>
	<path class="st6" d="M26.3,38.9c0,2,0,3.9,0,5.9c-0.9,0-1.5-0.6-1.5-1.5c0-1.5,0-2.9,0-4.4C25.3,38.9,25.8,38.9,26.3,38.9z"/>
	<path class="st8" d="M30.5,12.1c-3.4,0-6.7,0-10.1,0c-0.2-0.2-0.2-0.4-0.2-0.7c0-2.4,0-4.7,0-7.1c0-0.2,0-0.5,0.2-0.7c0,0,0,0,0,0
		C23.7,6.5,27.1,9.2,30.5,12.1C30.4,12,30.5,12.1,30.5,12.1z"/>
	<path class="st4" d="M20.4,3.7c0,2.8,0,5.6,0,8.4c-3.4,0-6.8,0-10.2,0c2.1-1.8,4.3-3.6,6.4-5.3c1.1-0.9,2.1-1.8,3.2-2.6
		C20,4,20.1,3.8,20.4,3.7z"/>
</g>
</svg>
