<?xml version="1.0" encoding="utf-8"?>
<!-- Generator: Adobe Illustrator 23.0.0, SVG Export Plug-In . SVG Version: 6.00 Build 0)  -->
<svg version="1.1" id="Layer_1" xmlns="http://www.w3.org/2000/svg" xmlns:xlink="http://www.w3.org/1999/xlink" x="0px" y="0px"
	 width="51.6px" height="49.2px" viewBox="0 0 51.6 49.2" style="enable-background:new 0 0 51.6 49.2;" xml:space="preserve">
<style type="text/css">
	.st0{fill:#010101;}
</style>
<g>
	<g>
		<g>
			<path class="st0" d="M29.7,41.3c0,0-0.1-0.1-0.2-0.2c-0.1-0.1-0.2-0.4-0.3-0.7c0-0.1,0-0.3,0-0.5c0-0.1,0-0.2,0-0.3
				c0-0.1,0-0.2,0.1-0.3c0.1-0.5,0.4-1,0.9-1.6c0.4-0.5,0.8-0.9,1.3-1.3c0.4-0.4,0.9-0.7,1.3-1c0.4-0.3,0.7-0.5,1-0.7
				c0.1-0.1,0.2-0.1,0.3-0.2c0.1,0,0.1-0.1,0.1-0.1s-0.1,0.8-0.2,1.6c-0.2,0.9-0.5,1.9-0.8,2.3c-0.2,0.2-0.5,0.5-0.8,0.8
				c-0.4,0.3-0.8,0.6-1.1,0.9c-0.4,0.3-0.7,0.6-1,0.8c-0.1,0.1-0.2,0.2-0.3,0.3C29.8,41.3,29.7,41.3,29.7,41.3z"/>
			<path class="st0" d="M34.7,38.7c0,0-0.1-0.1-0.2-0.2c-0.1-0.1-0.2-0.4-0.2-0.7c0-0.3,0-0.7,0.1-1.1c0.1-0.4,0.3-0.9,0.7-1.4
				c0.3-0.4,0.6-0.9,1-1.2c0.3-0.4,0.7-0.7,1-1.1c0.3-0.3,0.6-0.6,0.7-0.8c0.1-0.1,0.2-0.2,0.2-0.2c0,0,0.1-0.1,0.1-0.1s0,0,0,0.1
				c0,0.1,0,0.2,0,0.3c0,0.1,0,0.3,0,0.5c0,0.2,0,0.4,0,0.6c0,0.1,0,0.2,0,0.3c0,0.1,0,0.2,0,0.3c0,0.2,0,0.4-0.1,0.6
				c0,0.2-0.1,0.4-0.1,0.6c-0.1,0.2-0.1,0.3-0.2,0.4c-0.1,0.2-0.4,0.5-0.7,0.9c-0.3,0.3-0.7,0.7-1,1c-0.4,0.3-0.7,0.6-0.9,0.8
				C34.8,38.6,34.7,38.7,34.7,38.7z"/>
			<path class="st0" d="M39.4,35.9c0,0-0.1-0.1-0.2-0.2c-0.1-0.1-0.2-0.3-0.3-0.6c-0.1-0.3-0.1-0.6-0.1-1c0-0.4,0.1-0.9,0.4-1.5
				c0.2-0.5,0.4-0.9,0.6-1.3c0.2-0.4,0.4-0.8,0.6-1.2c0.2-0.3,0.3-0.6,0.4-0.8c0.1-0.1,0.1-0.2,0.1-0.2c0,0,0,0,0-0.1c0,0,0,0,0,0
				s0,0,0.1,0.1c0,0.1,0.1,0.2,0.1,0.3c0.1,0.1,0.1,0.3,0.2,0.4c0,0.1,0.1,0.2,0.1,0.3c0,0,0,0.1,0,0.1c0,0,0,0.1,0,0.1
				c0.1,0.2,0.1,0.4,0.2,0.6c0,0.2,0.1,0.4,0.1,0.6c0,0.1,0,0.2,0,0.3c0,0.1,0,0.2,0,0.3c0,0.1,0,0.2,0,0.2c0,0.1,0,0.1,0,0.2
				c0,0.1,0,0.1-0.1,0.2c0,0.1-0.1,0.1-0.1,0.2c0,0.1-0.1,0.2-0.1,0.3c0,0.1-0.1,0.2-0.2,0.3c-0.2,0.4-0.5,0.8-0.8,1.1
				c-0.1,0.2-0.3,0.3-0.4,0.5c-0.1,0.1-0.3,0.3-0.4,0.4C39.6,35.6,39.5,35.7,39.4,35.9C39.4,35.8,39.4,35.9,39.4,35.9z"/>
			<path class="st0" d="M43.3,32.1c0,0-0.1,0-0.2-0.1c-0.1-0.1-0.3-0.3-0.5-0.5c-0.1-0.1-0.2-0.3-0.2-0.4c0-0.1-0.1-0.2-0.1-0.2
				c0-0.1-0.1-0.2-0.1-0.3c0-0.1,0-0.2-0.1-0.3c0-0.1,0-0.2,0-0.3c0-0.1,0-0.2,0-0.4c0-0.1,0-0.1,0-0.2c0-0.1,0-0.1,0-0.2
				c0-0.5,0.1-0.9,0.1-1.4c0.1-0.4,0.1-0.9,0.2-1.3c0.1-0.4,0.1-0.7,0.2-0.9c0-0.1,0-0.2,0-0.3c0-0.1,0-0.1,0-0.1s0.1,0.1,0.3,0.3
				c0.1,0.1,0.2,0.2,0.3,0.4c0.1,0.1,0.2,0.3,0.3,0.5c0.2,0.3,0.5,0.7,0.6,1.1c0.1,0.2,0.2,0.4,0.2,0.5c0,0.2,0.1,0.3,0.1,0.4
				c0,0.1,0,0.3,0,0.5c0,0.1,0,0.2,0,0.3c0,0.1,0,0.2-0.1,0.3c0,0.1-0.1,0.2-0.1,0.3c0,0.1-0.1,0.2-0.1,0.3c0,0.1-0.1,0.2-0.1,0.3
				c0,0.1-0.1,0.2-0.1,0.3c-0.2,0.4-0.3,0.8-0.5,1c-0.1,0.1-0.1,0.2-0.2,0.3C43.3,32,43.3,32.1,43.3,32.1z"/>
			<path class="st0" d="M45.9,27.3c0,0-0.1,0-0.3-0.1c-0.2-0.1-0.4-0.1-0.6-0.3c-0.2-0.2-0.4-0.4-0.6-0.7c-0.1-0.1-0.1-0.2-0.1-0.3
				c0-0.1-0.1-0.2-0.1-0.3c0-0.1,0-0.1-0.1-0.2c0-0.1,0-0.1-0.1-0.2c0-0.1,0-0.1-0.1-0.2c0-0.1,0-0.1-0.1-0.2
				c-0.1-0.4-0.2-0.9-0.3-1.4c0-0.1,0-0.2-0.1-0.3c0-0.1,0-0.2,0-0.3c0-0.2-0.1-0.4-0.1-0.6c0-0.2,0-0.4-0.1-0.5c0-0.2,0-0.3,0-0.4
				c0-0.1,0-0.2,0-0.3c0-0.1,0-0.1,0-0.1s0.1,0.1,0.4,0.2c0.2,0.1,0.5,0.3,0.8,0.6c0.1,0.1,0.3,0.3,0.5,0.4c0.1,0.1,0.1,0.1,0.2,0.2
				c0.1,0.1,0.1,0.1,0.2,0.2c0.1,0.1,0.2,0.3,0.3,0.4c0.1,0.1,0.2,0.3,0.2,0.4c0,0.1,0,0.1,0.1,0.2c0,0,0,0.1,0,0.1c0,0,0,0.1,0,0.1
				c0,0.2,0.1,0.4,0.1,0.6c0,0.4,0,0.9,0,1.3c0,0.4-0.1,0.8-0.1,1.1c0,0,0,0.1,0,0.1c0,0,0,0.1,0,0.1c0,0.1,0,0.1,0,0.1
				C46,27.3,45.9,27.3,45.9,27.3z"/>
			<path class="st0" d="M47,21.9c0,0-0.1,0-0.3,0c-0.2,0-0.4,0-0.6-0.1c-0.3-0.1-0.5-0.3-0.8-0.5c-0.1-0.1-0.3-0.3-0.4-0.5
				c0,0-0.1-0.1-0.1-0.1c0,0-0.1-0.1-0.1-0.1c-0.1-0.1-0.2-0.2-0.2-0.3c-0.1-0.1-0.1-0.2-0.2-0.3c-0.1-0.1-0.1-0.2-0.2-0.3
				c-0.1-0.1-0.1-0.2-0.2-0.3c0,0-0.1-0.1-0.1-0.1l0-0.1l0-0.1c-0.1-0.2-0.2-0.4-0.3-0.6c0-0.1-0.1-0.2-0.1-0.3
				c0-0.1-0.1-0.2-0.1-0.3c-0.2-0.3-0.3-0.6-0.4-0.8c0-0.1-0.1-0.2-0.1-0.2c0-0.1,0-0.1,0-0.1s0,0,0.1,0c0.1,0,0.2,0,0.3,0.1
				c0.1,0,0.3,0.1,0.4,0.1c0.1,0,0.2,0.1,0.3,0.1c0.1,0,0.2,0.1,0.3,0.1c0.2,0.1,0.4,0.1,0.6,0.2c0.2,0.1,0.4,0.2,0.5,0.3
				c0,0,0.1,0,0.1,0.1c0,0,0.1,0,0.1,0.1c0.1,0.1,0.1,0.1,0.2,0.2c0.1,0.1,0.1,0.1,0.2,0.1c0,0,0.1,0,0.1,0.1c0,0,0,0,0.1,0.1
				c0.1,0.1,0.1,0.2,0.2,0.4c0,0.1,0.1,0.2,0.1,0.2c0,0.1,0.1,0.2,0.1,0.3c0,0,0,0.1,0.1,0.1c0,0,0,0.1,0.1,0.1
				c0,0.1,0.1,0.2,0.1,0.3c0,0.1,0,0.1,0,0.2c0,0.1,0,0.1,0,0.2c0,0.1,0.1,0.2,0.1,0.3c0,0.1,0,0.1,0,0.2c0,0,0,0.1,0,0.1
				c0,0.1,0,0.2,0.1,0.3c0,0.2,0.1,0.4,0.1,0.5c0,0.1,0,0.3,0,0.3C47,21.9,47,21.9,47,21.9z"/>
			<path class="st0" d="M46.3,16.5c0,0-0.1,0-0.2,0.1c-0.1,0-0.4,0.1-0.6,0.1c-0.3,0-0.6-0.1-0.9-0.2c-0.2-0.1-0.4-0.2-0.6-0.3
				c-0.2-0.1-0.4-0.3-0.6-0.4c-0.7-0.5-1.3-1.2-1.8-1.8c-0.1-0.1-0.1-0.1-0.2-0.2c-0.1-0.1-0.1-0.1-0.2-0.2
				c-0.1-0.1-0.2-0.2-0.3-0.3c-0.2-0.2-0.2-0.3-0.2-0.3s0.2,0,0.4,0c0.1,0,0.3,0,0.5,0c0.2,0,0.4,0,0.5,0c0,0,0.1,0,0.1,0
				c0,0,0.1,0,0.1,0c0.1,0,0.2,0,0.3,0c0.1,0,0.2,0,0.3,0c0.1,0,0.2,0,0.3,0.1c0.2,0,0.4,0.1,0.5,0.1c0.1,0.1,0.3,0.1,0.4,0.2
				c0.1,0.1,0.2,0.2,0.3,0.3c0.1,0.1,0.1,0.1,0.2,0.2c0.1,0.1,0.1,0.1,0.2,0.2c0.1,0.1,0.1,0.2,0.2,0.2c0.1,0.1,0.1,0.2,0.2,0.3
				l0.1,0.1c0,0,0.1,0.1,0.1,0.1c0.1,0.1,0.1,0.2,0.2,0.3c0.1,0.2,0.2,0.3,0.3,0.5c0.1,0.2,0.2,0.3,0.2,0.4c0.1,0.1,0.1,0.2,0.2,0.3
				C46.3,16.5,46.3,16.5,46.3,16.5z"/>
			<path class="st0" d="M43.9,11.6c0,0-0.1,0.1-0.2,0.2c-0.1,0.1-0.3,0.2-0.6,0.3c-0.1,0-0.3,0.1-0.4,0.1c-0.2,0-0.3,0-0.5,0
				c-0.1,0-0.2,0-0.3,0c-0.1,0-0.2,0-0.3-0.1c-0.1,0-0.2-0.1-0.3-0.1c-0.1,0-0.2-0.1-0.4-0.1c-0.1,0-0.2-0.1-0.3-0.1
				c-0.1,0-0.2-0.1-0.3-0.2c-0.2-0.1-0.4-0.2-0.6-0.3c-0.2-0.1-0.4-0.2-0.6-0.4c-0.1-0.1-0.2-0.1-0.3-0.2c-0.1-0.1-0.2-0.1-0.2-0.2
				c-0.1-0.1-0.2-0.1-0.2-0.2c-0.1-0.1-0.1-0.1-0.2-0.1C38.1,10,38,9.9,37.9,9.8c-0.1-0.1-0.2-0.1-0.2-0.2c-0.1,0-0.1-0.1-0.1-0.1
				s0,0,0.1,0c0.1,0,0.2,0,0.3-0.1c0.3-0.1,0.6-0.1,1-0.2c0.1,0,0.2,0,0.3,0c0.1,0,0.2,0,0.3,0c0.2,0,0.4,0,0.6,0c0.2,0,0.4,0,0.5,0
				c0.2,0,0.3,0.1,0.4,0.1c0.1,0,0.1,0,0.2,0.1c0.1,0,0.1,0.1,0.2,0.1c0.1,0,0.1,0.1,0.2,0.1c0.1,0,0.2,0.1,0.2,0.2
				c0.1,0.1,0.2,0.1,0.2,0.2c0.1,0.1,0.2,0.1,0.2,0.2c0.2,0.1,0.3,0.3,0.5,0.4c0.1,0.1,0.2,0.1,0.2,0.2c0.1,0.1,0.1,0.1,0.2,0.2
				c0.1,0.1,0.2,0.2,0.3,0.3C43.7,11.4,43.8,11.5,43.9,11.6C43.9,11.6,43.9,11.6,43.9,11.6z"/>
		</g>
		<path class="st0" d="M40.2,7.2c0,0-0.1,0-0.3,0c-0.1,0-0.2,0-0.4,0c-0.1,0-0.2,0-0.2,0c-0.1,0-0.2,0-0.3-0.1
			c-0.4-0.1-0.8-0.2-1.3-0.5c-0.5-0.2-1-0.5-1.6-1c-0.5-0.4-0.9-0.7-1.3-1.1c-0.4-0.4-0.8-0.8-1.1-1.1c-0.3-0.3-0.6-0.6-0.8-0.8
			c-0.2-0.2-0.3-0.3-0.3-0.3s0.1,0,0.2,0c0.1,0,0.3,0,0.5,0.1c0.4,0.1,0.9,0.2,1.5,0.3c0.6,0.2,1.2,0.3,1.7,0.6
			c0.5,0.2,1,0.4,1.2,0.6c0.5,0.4,1.2,1.2,1.8,2c0.1,0.1,0.1,0.2,0.2,0.3c0.1,0.1,0.1,0.2,0.2,0.3c0.1,0.2,0.2,0.3,0.3,0.5
			C40,6.9,40.1,7,40.2,7.1C40.2,7.2,40.2,7.2,40.2,7.2z"/>
		<g>
			<path class="st0" d="M32,40.9c0,0,0,0.1,0.1,0.3c0.1,0.2,0.2,0.4,0.4,0.6c0.2,0.2,0.5,0.4,1,0.5c0.4,0.1,1,0.2,1.7,0.2
				c0.6,0,1.2-0.1,1.8-0.3c0.6-0.2,1.2-0.4,1.7-0.6c0.5-0.2,1-0.4,1.3-0.6c0.2-0.1,0.3-0.2,0.4-0.2c0.1,0,0.1-0.1,0.1-0.1
				s-0.2-0.1-0.5-0.1c-0.3-0.1-0.7-0.2-1.2-0.3c-0.5-0.1-1-0.2-1.4-0.3c-0.4-0.1-0.9-0.1-1.1-0.1c-0.3,0-0.7,0.1-1.2,0.2
				c-0.5,0.1-1,0.3-1.4,0.4c-0.5,0.1-0.9,0.3-1.2,0.4C32.2,40.8,32,40.9,32,40.9z"/>
			<path class="st0" d="M36.9,38.3c0,0,0,0.1,0.1,0.3c0.1,0.1,0.2,0.3,0.5,0.5c0.1,0.1,0.3,0.2,0.4,0.3c0.2,0.1,0.4,0.1,0.6,0.2
				c0.4,0.1,1,0.1,1.8,0c0.6-0.1,1.2-0.3,1.8-0.6c0.6-0.3,1.2-0.6,1.7-1c0.1-0.1,0.2-0.2,0.4-0.2c0.1-0.1,0.2-0.2,0.3-0.2
				c0.2-0.2,0.4-0.3,0.5-0.4c0.1-0.1,0.3-0.2,0.3-0.3c0.1-0.1,0.1-0.1,0.1-0.1s-0.2,0-0.5,0c-0.2,0-0.4,0-0.6,0c-0.2,0-0.4,0-0.7,0
				c-0.5,0-1,0-1.4,0c-0.1,0-0.2,0-0.3,0c-0.1,0-0.2,0-0.3,0c-0.2,0-0.4,0-0.5,0.1c-0.3,0.1-0.7,0.2-1.1,0.4
				c-0.4,0.2-0.9,0.4-1.4,0.6c-0.4,0.2-0.9,0.4-1.2,0.5C37.1,38.2,36.9,38.3,36.9,38.3z"/>
			<path class="st0" d="M41.5,35.1c0,0,0,0.1,0.2,0.2c0.1,0.1,0.3,0.3,0.5,0.4c0.1,0.1,0.3,0.1,0.5,0.2c0.2,0,0.4,0.1,0.6,0.1
				c0.1,0,0.2,0,0.4,0c0.1,0,0.3-0.1,0.4-0.1c0.1,0,0.3-0.1,0.5-0.1c0.1,0,0.2-0.1,0.2-0.1c0.1,0,0.2-0.1,0.3-0.1
				c0.6-0.3,1.1-0.7,1.6-1.1c0.5-0.5,1-1,1.4-1.4c0.4-0.5,0.7-0.9,0.9-1.2c0.1-0.2,0.2-0.3,0.2-0.4c0.1-0.1,0.1-0.1,0.1-0.1
				s-0.2,0.1-0.5,0.2c-0.2,0.1-0.3,0.1-0.5,0.2c-0.1,0-0.2,0.1-0.3,0.1c-0.1,0-0.2,0.1-0.3,0.1c-0.2,0.1-0.5,0.1-0.7,0.2
				c-0.1,0-0.2,0.1-0.3,0.1c-0.1,0-0.2,0.1-0.3,0.1c-0.1,0-0.2,0.1-0.3,0.1c-0.1,0-0.2,0.1-0.3,0.1c-0.1,0-0.2,0.1-0.2,0.1
				c-0.1,0-0.2,0.1-0.2,0.1c-0.1,0-0.1,0.1-0.2,0.1c-0.1,0-0.1,0.1-0.2,0.2c-0.2,0.1-0.3,0.3-0.5,0.4c-0.4,0.3-0.8,0.6-1.2,0.9
				c-0.4,0.3-0.7,0.5-1,0.7c-0.1,0.1-0.2,0.2-0.3,0.2C41.5,35.1,41.5,35.1,41.5,35.1z"/>
			<path class="st0" d="M45.1,30.8c0,0,0.1,0.1,0.2,0.2c0.1,0.1,0.3,0.2,0.6,0.2c0.1,0,0.3,0,0.5,0c0.2,0,0.4-0.1,0.6-0.1
				c0.2-0.1,0.5-0.2,0.7-0.4c0.2-0.2,0.5-0.4,0.8-0.6c0.4-0.4,0.8-1,1.2-1.6c0.2-0.3,0.3-0.6,0.5-0.9c0.1-0.1,0.1-0.3,0.2-0.4
				c0.1-0.1,0.1-0.3,0.2-0.4c0.1-0.3,0.2-0.5,0.3-0.8c0.1-0.2,0.1-0.4,0.2-0.6c0-0.2,0.1-0.3,0.1-0.4c0-0.1,0-0.2,0-0.2
				s-0.2,0.1-0.4,0.3c-0.1,0-0.1,0.1-0.2,0.1c-0.1,0.1-0.2,0.1-0.2,0.2c-0.2,0.1-0.4,0.2-0.5,0.4c-0.2,0.1-0.4,0.3-0.6,0.4
				c-0.2,0.1-0.4,0.3-0.6,0.4c-0.2,0.1-0.3,0.3-0.5,0.4c-0.1,0.1-0.1,0.1-0.2,0.2c-0.1,0.1-0.1,0.1-0.2,0.2c0,0.1-0.1,0.1-0.1,0.2
				c-0.1,0.1-0.1,0.1-0.2,0.2c-0.1,0.1-0.1,0.2-0.2,0.3C47.1,28,47,28.1,47,28.2c-0.3,0.4-0.5,0.8-0.8,1.2c0,0-0.1,0.1-0.1,0.1
				c0,0-0.1,0.1-0.1,0.1c-0.1,0.1-0.1,0.2-0.2,0.3c-0.1,0.2-0.2,0.3-0.3,0.4c-0.1,0.1-0.2,0.2-0.2,0.3
				C45.1,30.7,45.1,30.8,45.1,30.8z"/>
			<path class="st0" d="M47.2,25.5c0,0,0.1,0,0.2,0.1c0.2,0,0.4,0.1,0.7,0c0.1,0,0.3-0.1,0.5-0.1c0.2-0.1,0.3-0.2,0.5-0.3
				c0.1-0.1,0.2-0.1,0.3-0.2c0.1-0.1,0.2-0.2,0.3-0.3c0.1-0.1,0.2-0.2,0.3-0.4c0.1-0.1,0.2-0.3,0.3-0.4c0.1-0.1,0.1-0.3,0.2-0.4
				c0.1-0.1,0.1-0.3,0.2-0.4c0.1-0.3,0.2-0.6,0.3-0.9c0-0.1,0-0.2,0.1-0.2c0-0.1,0-0.2,0-0.2c0-0.2,0.1-0.3,0.1-0.5
				c0-0.2,0-0.3,0.1-0.5c0-0.2,0-0.3,0-0.4c0-0.1,0-0.3,0-0.4c0-0.1,0-0.1,0-0.2c0,0,0-0.1,0-0.1c0,0,0-0.1,0-0.1c0-0.2,0-0.5,0-0.6
				c0-0.2,0-0.3,0-0.4c0-0.1,0-0.2,0-0.2s-0.1,0.2-0.3,0.4c0,0.1-0.1,0.1-0.2,0.2c-0.1,0.1-0.1,0.1-0.2,0.2
				c-0.1,0.2-0.3,0.3-0.4,0.5c-0.1,0.2-0.3,0.4-0.4,0.5c-0.1,0.2-0.3,0.4-0.4,0.5c-0.1,0.2-0.3,0.3-0.4,0.5
				c-0.1,0.2-0.2,0.3-0.2,0.4c-0.1,0.3-0.2,0.6-0.4,1.1c-0.1,0.2-0.1,0.4-0.2,0.7c-0.1,0.2-0.1,0.5-0.2,0.7
				c-0.1,0.2-0.1,0.4-0.2,0.6c0,0.1-0.1,0.2-0.1,0.3c0,0.1-0.1,0.2-0.1,0.2c-0.1,0.1-0.1,0.3-0.1,0.3C47.2,25.5,47.2,25.5,47.2,25.5
				z"/>
			<path class="st0" d="M47.7,19.9c0,0,0.1,0,0.3,0c0.2,0,0.4-0.1,0.6-0.2c0.2-0.1,0.5-0.3,0.8-0.7c0.2-0.4,0.5-0.9,0.6-1.6
				c0-0.1,0-0.3,0.1-0.4c0-0.1,0-0.2,0-0.2c0,0,0-0.1,0-0.1c0,0,0-0.1,0-0.1c0-0.3,0-0.6,0-1c0-0.6-0.2-1.3-0.3-1.8
				c-0.1-0.3-0.1-0.5-0.2-0.8c-0.1-0.2-0.1-0.4-0.2-0.6c-0.1-0.3-0.2-0.5-0.2-0.5s-0.1,0.2-0.2,0.5c0,0.1-0.1,0.2-0.1,0.2
				c0,0.1-0.1,0.2-0.1,0.3c-0.1,0.2-0.1,0.4-0.2,0.6c-0.1,0.2-0.2,0.4-0.2,0.6c0,0.1-0.1,0.2-0.1,0.3c0,0.1-0.1,0.2-0.1,0.3
				c0,0.1-0.1,0.2-0.1,0.3c0,0,0,0.1,0,0.1c0,0,0,0.1,0,0.1c0,0.2-0.1,0.3-0.1,0.5c0,0.1,0,0.3,0,0.5c0,0.1,0,0.2,0,0.3
				c0,0.1,0,0.2,0,0.3c0,0.1,0,0.2,0,0.3c0,0.1,0,0.2,0,0.4c0,0.1,0,0.2,0,0.3c0,0.1,0,0.2,0,0.3c0,0.1,0,0.1,0,0.2c0,0,0,0.1,0,0.1
				c0,0,0,0.1,0,0.1c0,0.1,0,0.2,0,0.3c0,0.1,0,0.2,0,0.3c0,0.1,0,0.2,0,0.2c0,0.2,0,0.3,0,0.4C47.7,19.8,47.7,19.9,47.7,19.9
				C47.7,19.9,47.7,19.9,47.7,19.9z"/>
			<path class="st0" d="M46.3,14.4c0,0,0.1,0,0.2-0.1c0.1-0.1,0.3-0.2,0.5-0.4c0.2-0.2,0.4-0.5,0.5-0.9c0.1-0.2,0.1-0.4,0.1-0.7
				c0-0.1,0-0.3,0-0.4c0-0.1,0-0.2,0-0.2c0-0.1,0-0.2,0-0.3c0-0.1,0-0.3-0.1-0.4c0-0.1-0.1-0.3-0.1-0.4c0-0.1,0-0.1-0.1-0.2
				c0-0.1,0-0.1-0.1-0.2c0-0.1-0.1-0.3-0.2-0.4C47.1,9.6,47,9.5,47,9.3c0-0.1-0.1-0.1-0.1-0.2c0-0.1-0.1-0.1-0.1-0.2
				c-0.1-0.1-0.1-0.3-0.2-0.4c-0.1-0.1-0.1-0.2-0.2-0.4c-0.3-0.5-0.5-0.8-0.7-1.1c-0.1-0.1-0.2-0.2-0.2-0.3s-0.1-0.1-0.1-0.1
				s0,0.2,0,0.5c0,0.3-0.1,0.7-0.1,1.1c0,0.2,0,0.4-0.1,0.6c0,0.2,0,0.4,0,0.6c0,0.1,0,0.2,0,0.3c0,0.1,0,0.2,0,0.3
				c0,0.2,0,0.3,0,0.5c0,0.1,0.1,0.3,0.1,0.5c0.1,0.2,0.1,0.4,0.2,0.6c0.1,0.2,0.1,0.4,0.2,0.6c0,0.1,0.1,0.2,0.1,0.3
				c0,0.1,0,0.1,0.1,0.2c0,0.1,0,0.1,0.1,0.2c0.1,0.2,0.1,0.4,0.2,0.6c0,0.1,0.1,0.2,0.1,0.3c0,0,0,0.1,0,0.1c0,0,0,0.1,0,0.1
				C46.3,14.3,46.3,14.4,46.3,14.4z"/>
			<path class="st0" d="M43.4,9.6c0,0,0.1,0,0.2-0.1c0.1-0.1,0.3-0.2,0.4-0.5c0.1-0.2,0.2-0.5,0.2-0.9c0-0.2,0-0.4-0.1-0.7
				c0-0.1-0.1-0.3-0.1-0.4c0-0.1,0-0.1-0.1-0.2c0-0.1-0.1-0.1-0.1-0.2c-0.2-0.5-0.5-1-0.8-1.5c-0.3-0.5-0.7-0.9-1-1.3
				c-0.3-0.4-0.7-0.7-0.9-0.9c-0.1-0.1-0.2-0.2-0.3-0.2c-0.1-0.1-0.1-0.1-0.1-0.1s0,0.2,0,0.5c0,0.1,0,0.3,0,0.5
				c0,0.2,0,0.4,0.1,0.6c0,0.2,0,0.4,0.1,0.6c0,0.1,0,0.2,0,0.3c0,0.1,0,0.2,0,0.3c0.1,0.4,0.1,0.7,0.2,1c0.1,0.1,0.1,0.3,0.2,0.4
				c0.1,0.1,0.2,0.3,0.3,0.5c0.1,0.2,0.2,0.4,0.4,0.5c0.1,0.1,0.1,0.2,0.2,0.3c0.1,0.1,0.1,0.2,0.2,0.3C42.7,8.7,43,9,43.1,9.2
				c0.1,0.1,0.1,0.2,0.2,0.3C43.3,9.6,43.4,9.6,43.4,9.6z"/>
		</g>
	</g>
	<g>
		<g>
			<path class="st0" d="M21.9,41.3c0,0,0.1-0.1,0.2-0.2c0.1-0.1,0.2-0.4,0.3-0.7c0-0.1,0-0.3,0-0.5c0-0.1,0-0.2,0-0.3
				c0-0.1,0-0.2-0.1-0.3c-0.1-0.5-0.4-1-0.9-1.6c-0.4-0.5-0.8-0.9-1.3-1.3c-0.4-0.4-0.9-0.7-1.3-1c-0.4-0.3-0.7-0.5-1-0.7
				c-0.1-0.1-0.2-0.1-0.3-0.2c-0.1,0-0.1-0.1-0.1-0.1s0.1,0.8,0.2,1.6c0.2,0.9,0.5,1.9,0.8,2.3c0.2,0.2,0.5,0.5,0.8,0.8
				c0.4,0.3,0.8,0.6,1.1,0.9c0.4,0.3,0.7,0.6,1,0.8c0.1,0.1,0.2,0.2,0.3,0.3C21.8,41.3,21.9,41.3,21.9,41.3z"/>
			<path class="st0" d="M16.9,38.7c0,0,0.1-0.1,0.2-0.2c0.1-0.1,0.2-0.4,0.2-0.7c0-0.3,0-0.7-0.1-1.1c-0.1-0.4-0.3-0.9-0.7-1.4
				c-0.3-0.4-0.6-0.9-1-1.2c-0.3-0.4-0.7-0.7-1-1.1c-0.3-0.3-0.6-0.6-0.7-0.8c-0.1-0.1-0.2-0.2-0.2-0.2c0,0-0.1-0.1-0.1-0.1
				s0,0,0,0.1c0,0.1,0,0.2,0,0.3c0,0.1,0,0.3,0,0.5c0,0.2,0,0.4,0,0.6c0,0.1,0,0.2,0,0.3c0,0.1,0,0.2,0,0.3c0,0.2,0,0.4,0.1,0.6
				c0,0.2,0.1,0.4,0.1,0.6c0.1,0.2,0.1,0.3,0.2,0.4c0.1,0.2,0.4,0.5,0.7,0.9c0.3,0.3,0.7,0.7,1,1c0.4,0.3,0.7,0.6,0.9,0.8
				C16.8,38.6,16.9,38.7,16.9,38.7z"/>
			<path class="st0" d="M12.2,35.9c0,0,0.1-0.1,0.2-0.2c0.1-0.1,0.2-0.3,0.3-0.6c0.1-0.3,0.1-0.6,0.1-1c0-0.4-0.1-0.9-0.4-1.5
				c-0.2-0.5-0.4-0.9-0.6-1.3c-0.2-0.4-0.4-0.8-0.6-1.2c-0.2-0.3-0.3-0.6-0.4-0.8c-0.1-0.1-0.1-0.2-0.1-0.2c0,0,0,0,0-0.1
				c0,0,0,0,0,0s0,0-0.1,0.1c0,0.1-0.1,0.2-0.1,0.3c-0.1,0.1-0.1,0.3-0.2,0.4c0,0.1-0.1,0.2-0.1,0.3c0,0,0,0.1,0,0.1
				c0,0,0,0.1,0,0.1c-0.1,0.2-0.1,0.4-0.2,0.6c0,0.2-0.1,0.4-0.1,0.6c0,0.1,0,0.2,0,0.3c0,0.1,0,0.2,0,0.3c0,0.1,0,0.2,0,0.2
				c0,0.1,0,0.1,0,0.2c0,0.1,0,0.1,0.1,0.2c0,0.1,0.1,0.1,0.1,0.2c0,0.1,0.1,0.2,0.1,0.3c0,0.1,0.1,0.2,0.2,0.3
				c0.2,0.4,0.5,0.8,0.8,1.1c0.1,0.2,0.3,0.3,0.4,0.5c0.1,0.1,0.3,0.3,0.4,0.4C12,35.6,12.1,35.7,12.2,35.9
				C12.2,35.8,12.2,35.9,12.2,35.9z"/>
			<path class="st0" d="M8.3,32.1c0,0,0.1,0,0.2-0.1c0.1-0.1,0.3-0.3,0.5-0.5C9,31.3,9.1,31.2,9.2,31c0-0.1,0.1-0.2,0.1-0.2
				c0-0.1,0.1-0.2,0.1-0.3c0-0.1,0-0.2,0.1-0.3c0-0.1,0-0.2,0-0.3c0-0.1,0-0.2,0-0.4c0-0.1,0-0.1,0-0.2c0-0.1,0-0.1,0-0.2
				c0-0.5-0.1-0.9-0.1-1.4c-0.1-0.4-0.1-0.9-0.2-1.3C9,26.1,9,25.8,8.9,25.5c0-0.1,0-0.2,0-0.3c0-0.1,0-0.1,0-0.1s-0.1,0.1-0.3,0.3
				c-0.1,0.1-0.2,0.2-0.3,0.4C8.2,26,8,26.1,7.9,26.3c-0.2,0.3-0.5,0.7-0.6,1.1c-0.1,0.2-0.2,0.4-0.2,0.5c0,0.2-0.1,0.3-0.1,0.4
				c0,0.1,0,0.3,0,0.5c0,0.1,0,0.2,0,0.3c0,0.1,0,0.2,0.1,0.3c0,0.1,0,0.2,0.1,0.3c0,0.1,0.1,0.2,0.1,0.3c0,0.1,0.1,0.2,0.1,0.3
				c0,0.1,0.1,0.2,0.1,0.3c0.2,0.4,0.3,0.8,0.5,1c0.1,0.1,0.1,0.2,0.2,0.3C8.3,32,8.3,32.1,8.3,32.1z"/>
			<path class="st0" d="M5.7,27.3c0,0,0.1,0,0.2-0.1c0.2-0.1,0.4-0.1,0.6-0.3c0.2-0.2,0.4-0.4,0.7-0.7c0.1-0.1,0.1-0.2,0.1-0.3
				c0-0.1,0.1-0.2,0.1-0.3c0-0.1,0-0.1,0.1-0.2c0-0.1,0-0.1,0.1-0.2c0-0.1,0-0.1,0.1-0.2c0-0.1,0-0.1,0.1-0.2
				c0.1-0.4,0.2-0.9,0.3-1.4c0-0.1,0-0.2,0-0.3c0-0.1,0-0.2,0-0.3c0-0.2,0.1-0.4,0.1-0.6c0-0.2,0-0.4,0.1-0.5c0-0.2,0-0.3,0-0.4
				c0-0.1,0-0.2,0-0.3c0-0.1,0-0.1,0-0.1S8.1,21,7.9,21.2c-0.2,0.1-0.5,0.3-0.8,0.6c-0.2,0.1-0.3,0.3-0.5,0.4
				c-0.1,0.1-0.2,0.1-0.2,0.2c-0.1,0.1-0.1,0.1-0.2,0.2C6,22.7,5.9,22.9,5.8,23c-0.1,0.1-0.2,0.3-0.2,0.4c0,0.1,0,0.1-0.1,0.2
				c0,0,0,0.1,0,0.1c0,0,0,0.1,0,0.1c0,0.2,0,0.4-0.1,0.6c0,0.4,0,0.9,0,1.3c0,0.4,0.1,0.8,0.1,1.1c0,0,0,0.1,0,0.1c0,0,0,0.1,0,0.1
				c0,0.1,0,0.1,0,0.1C5.7,27.3,5.7,27.3,5.7,27.3z"/>
			<path class="st0" d="M4.6,21.9c0,0,0.1,0,0.3,0c0.2,0,0.4,0,0.6-0.1c0.2-0.1,0.5-0.3,0.8-0.5c0.1-0.1,0.3-0.3,0.4-0.5
				c0,0,0.1-0.1,0.1-0.1c0,0,0.1-0.1,0.1-0.1c0.1-0.1,0.2-0.2,0.2-0.3c0.1-0.1,0.1-0.2,0.2-0.3c0.1-0.1,0.1-0.2,0.2-0.3
				c0.1-0.1,0.1-0.2,0.2-0.3c0,0,0-0.1,0.1-0.1l0-0.1l0-0.1C8,18.9,8,18.7,8.1,18.5c0-0.1,0.1-0.2,0.1-0.3c0-0.1,0.1-0.2,0.1-0.3
				c0.2-0.3,0.3-0.6,0.4-0.8c0-0.1,0.1-0.2,0.1-0.2c0-0.1,0-0.1,0-0.1s0,0-0.1,0c-0.1,0-0.2,0-0.3,0.1c-0.1,0-0.3,0.1-0.4,0.1
				c-0.1,0-0.2,0.1-0.3,0.1c-0.1,0-0.2,0.1-0.3,0.1c-0.2,0.1-0.4,0.1-0.6,0.2c-0.2,0.1-0.4,0.2-0.5,0.3c0,0-0.1,0-0.1,0.1
				c0,0-0.1,0-0.1,0.1C6.2,17.9,6.1,18,6.1,18c-0.1,0.1-0.1,0.1-0.2,0.1c0,0-0.1,0-0.1,0.1c0,0,0,0-0.1,0.1
				c-0.1,0.1-0.1,0.2-0.2,0.4c0,0.1-0.1,0.2-0.1,0.2c0,0.1-0.1,0.2-0.1,0.3c0,0,0,0.1-0.1,0.1c0,0,0,0.1-0.1,0.1
				c0,0.1-0.1,0.2-0.1,0.3c0,0.1,0,0.1-0.1,0.2C5,20,5,20,5,20.1c0,0.1-0.1,0.2-0.1,0.3c0,0.1,0,0.1,0,0.2c0,0,0,0.1,0,0.1
				c0,0.1,0,0.2-0.1,0.3c0,0.2-0.1,0.4-0.1,0.5c0,0.1,0,0.3,0,0.3C4.6,21.9,4.6,21.9,4.6,21.9z"/>
			<path class="st0" d="M5.3,16.5c0,0,0.1,0,0.2,0.1c0.1,0,0.4,0.1,0.6,0.1c0.3,0,0.6-0.1,0.9-0.2c0.2-0.1,0.4-0.2,0.6-0.3
				c0.2-0.1,0.4-0.3,0.6-0.4c0.7-0.5,1.3-1.2,1.8-1.8c0.1-0.1,0.1-0.1,0.2-0.2c0.1-0.1,0.1-0.1,0.2-0.2c0.1-0.1,0.2-0.2,0.3-0.3
				c0.2-0.2,0.2-0.3,0.2-0.3s-0.2,0-0.4,0c-0.1,0-0.3,0-0.5,0c-0.2,0-0.4,0-0.5,0c0,0-0.1,0-0.1,0c0,0-0.1,0-0.1,0
				c-0.1,0-0.2,0-0.3,0c-0.1,0-0.2,0-0.3,0c-0.1,0-0.2,0-0.3,0.1c-0.2,0-0.4,0.1-0.5,0.1c-0.1,0.1-0.3,0.1-0.4,0.2
				c-0.1,0.1-0.2,0.2-0.3,0.3C7.1,13.9,7,13.9,7,14c-0.1,0.1-0.1,0.1-0.2,0.2c-0.1,0.1-0.1,0.2-0.2,0.2c-0.1,0.1-0.1,0.2-0.2,0.3
				l-0.1,0.1c0,0-0.1,0.1-0.1,0.1C6.2,15,6.1,15.1,6,15.2c-0.1,0.2-0.2,0.3-0.3,0.5c-0.1,0.2-0.2,0.3-0.2,0.4
				c-0.1,0.1-0.1,0.2-0.2,0.3C5.3,16.5,5.3,16.5,5.3,16.5z"/>
			<path class="st0" d="M7.7,11.6c0,0,0.1,0.1,0.2,0.2C8,11.8,8.2,11.9,8.4,12c0.1,0,0.3,0.1,0.4,0.1c0.2,0,0.3,0,0.5,0
				c0.1,0,0.2,0,0.3,0c0.1,0,0.2,0,0.3-0.1c0.1,0,0.2-0.1,0.3-0.1c0.1,0,0.2-0.1,0.4-0.1c0.1,0,0.2-0.1,0.3-0.1
				c0.1,0,0.2-0.1,0.3-0.2c0.2-0.1,0.4-0.2,0.6-0.3c0.2-0.1,0.4-0.2,0.6-0.4c0.1-0.1,0.2-0.1,0.3-0.2c0.1-0.1,0.2-0.1,0.2-0.2
				c0.1-0.1,0.2-0.1,0.2-0.2c0.1-0.1,0.1-0.1,0.2-0.1c0.1-0.1,0.2-0.2,0.3-0.2c0.1-0.1,0.2-0.1,0.2-0.2C14,9.6,14,9.6,14,9.6
				s0,0-0.1,0c-0.1,0-0.2,0-0.3-0.1c-0.2-0.1-0.6-0.1-1-0.2c-0.1,0-0.2,0-0.3,0c-0.1,0-0.2,0-0.3,0c-0.2,0-0.4,0-0.6,0
				c-0.2,0-0.4,0-0.5,0c-0.2,0-0.3,0.1-0.4,0.1c-0.1,0-0.1,0-0.2,0.1c-0.1,0-0.1,0.1-0.2,0.1c-0.1,0-0.1,0.1-0.2,0.1
				c-0.1,0-0.2,0.1-0.2,0.2C9.7,9.9,9.6,9.9,9.5,10c-0.1,0.1-0.2,0.1-0.2,0.2c-0.2,0.1-0.3,0.3-0.5,0.4c-0.1,0.1-0.2,0.1-0.2,0.2
				c-0.1,0.1-0.1,0.1-0.2,0.2c-0.1,0.1-0.2,0.2-0.3,0.3C7.9,11.4,7.8,11.5,7.7,11.6C7.7,11.6,7.7,11.6,7.7,11.6z"/>
		</g>
		<path class="st0" d="M11.4,7.2c0,0,0.1,0,0.3,0c0.1,0,0.2,0,0.4,0c0.1,0,0.2,0,0.2,0c0.1,0,0.2,0,0.3-0.1C13,7,13.4,6.9,13.9,6.6
			c0.5-0.2,1-0.5,1.6-1c0.5-0.4,0.9-0.7,1.3-1.1c0.4-0.4,0.8-0.8,1.1-1.1c0.3-0.3,0.6-0.6,0.8-0.8c0.2-0.2,0.3-0.3,0.3-0.3
			s-0.1,0-0.2,0c-0.1,0-0.3,0-0.5,0.1c-0.4,0.1-0.9,0.2-1.5,0.3c-0.6,0.2-1.2,0.3-1.7,0.6c-0.5,0.2-1,0.4-1.2,0.6
			c-0.5,0.4-1.2,1.2-1.8,2c-0.1,0.1-0.1,0.2-0.2,0.3C12,6.2,12,6.3,11.9,6.3c-0.1,0.2-0.2,0.3-0.3,0.5c-0.1,0.1-0.1,0.2-0.2,0.3
			C11.4,7.2,11.4,7.2,11.4,7.2z"/>
		<g>
			<path class="st0" d="M19.6,40.9c0,0,0,0.1-0.1,0.3c-0.1,0.2-0.2,0.4-0.4,0.6c-0.2,0.2-0.5,0.4-1,0.5c-0.4,0.1-1,0.2-1.7,0.2
				c-0.6,0-1.2-0.1-1.8-0.3c-0.6-0.2-1.2-0.4-1.7-0.6c-0.5-0.2-1-0.4-1.3-0.6c-0.2-0.1-0.3-0.2-0.4-0.2c-0.1,0-0.1-0.1-0.1-0.1
				s0.2-0.1,0.5-0.1c0.3-0.1,0.7-0.2,1.2-0.3c0.5-0.1,1-0.2,1.4-0.3c0.4-0.1,0.8-0.1,1.1-0.1c0.3,0,0.7,0.1,1.2,0.2
				c0.5,0.1,1,0.3,1.4,0.4c0.5,0.1,0.9,0.3,1.2,0.4C19.4,40.8,19.6,40.9,19.6,40.9z"/>
			<path class="st0" d="M14.7,38.3c0,0,0,0.1-0.1,0.3c-0.1,0.1-0.2,0.3-0.5,0.5c-0.1,0.1-0.3,0.2-0.4,0.3c-0.2,0.1-0.4,0.1-0.6,0.2
				c-0.4,0.1-1,0.1-1.8,0c-0.6-0.1-1.2-0.3-1.8-0.6c-0.6-0.3-1.2-0.6-1.7-1c-0.1-0.1-0.2-0.2-0.4-0.2c-0.1-0.1-0.2-0.2-0.3-0.2
				c-0.2-0.2-0.4-0.3-0.5-0.4c-0.1-0.1-0.3-0.2-0.3-0.3c-0.1-0.1-0.1-0.1-0.1-0.1s0.2,0,0.5,0c0.2,0,0.4,0,0.6,0c0.2,0,0.4,0,0.7,0
				c0.5,0,1,0,1.4,0c0.1,0,0.2,0,0.3,0c0.1,0,0.2,0,0.3,0c0.2,0,0.4,0,0.5,0.1c0.3,0.1,0.7,0.2,1.1,0.4c0.4,0.2,0.9,0.4,1.4,0.6
				c0.4,0.2,0.9,0.4,1.2,0.5C14.5,38.2,14.7,38.3,14.7,38.3z"/>
			<path class="st0" d="M10.1,35.1c0,0,0,0.1-0.2,0.2c-0.1,0.1-0.3,0.3-0.5,0.4c-0.1,0.1-0.3,0.1-0.5,0.2c-0.2,0-0.4,0.1-0.6,0.1
				c-0.1,0-0.2,0-0.4,0c-0.1,0-0.3-0.1-0.4-0.1c-0.1,0-0.3-0.1-0.5-0.1c-0.1,0-0.2-0.1-0.2-0.1c-0.1,0-0.2-0.1-0.3-0.1
				C6,35.2,5.5,34.8,5,34.3c-0.5-0.5-1-1-1.4-1.4c-0.4-0.5-0.7-0.9-0.9-1.2c-0.1-0.2-0.2-0.3-0.2-0.4c0-0.1-0.1-0.1-0.1-0.1
				s0.2,0.1,0.5,0.2c0.2,0.1,0.3,0.1,0.5,0.2c0.1,0,0.2,0.1,0.3,0.1c0.1,0,0.2,0.1,0.3,0.1c0.2,0.1,0.5,0.1,0.7,0.2
				c0.1,0,0.2,0.1,0.3,0.1C5.3,32,5.4,32,5.5,32c0.1,0,0.2,0.1,0.3,0.1c0.1,0,0.2,0.1,0.3,0.1c0.1,0,0.2,0.1,0.2,0.1
				c0.1,0,0.1,0.1,0.2,0.1c0.1,0,0.1,0.1,0.2,0.1c0.1,0,0.2,0.1,0.2,0.2c0.2,0.1,0.3,0.3,0.5,0.4c0.4,0.3,0.8,0.6,1.2,0.9
				c0.4,0.3,0.7,0.5,1,0.7C9.8,34.9,9.9,35,10,35C10.1,35.1,10.1,35.1,10.1,35.1z"/>
			<path class="st0" d="M6.5,30.8c0,0-0.1,0.1-0.2,0.2c-0.1,0.1-0.3,0.2-0.6,0.2c-0.1,0-0.3,0-0.5,0c-0.2,0-0.4-0.1-0.6-0.1
				c-0.2-0.1-0.4-0.2-0.7-0.4c-0.3-0.2-0.5-0.4-0.8-0.6c-0.4-0.4-0.8-1-1.2-1.6c-0.2-0.3-0.3-0.6-0.5-0.9c-0.1-0.1-0.1-0.3-0.2-0.4
				c-0.1-0.1-0.1-0.3-0.2-0.4C1,26.5,0.9,26.2,0.8,26c-0.1-0.2-0.1-0.4-0.2-0.6c0-0.2-0.1-0.3-0.1-0.4c0-0.1,0-0.2,0-0.2
				s0.2,0.1,0.4,0.3c0.1,0,0.1,0.1,0.2,0.1c0.1,0.1,0.2,0.1,0.2,0.2c0.2,0.1,0.4,0.2,0.5,0.4c0.2,0.1,0.4,0.3,0.6,0.4
				c0.2,0.1,0.4,0.3,0.6,0.4c0.2,0.1,0.3,0.3,0.5,0.4C3.7,27,3.7,27,3.8,27.1c0.1,0.1,0.1,0.1,0.2,0.2c0,0.1,0.1,0.1,0.1,0.2
				c0.1,0.1,0.1,0.1,0.2,0.2c0.1,0.1,0.1,0.2,0.2,0.3c0.1,0.1,0.1,0.2,0.2,0.3c0.3,0.4,0.5,0.8,0.8,1.2c0,0,0.1,0.1,0.1,0.1
				c0,0,0.1,0.1,0.1,0.1c0.1,0.1,0.1,0.2,0.2,0.3c0.1,0.2,0.2,0.3,0.3,0.4c0.1,0.1,0.2,0.2,0.2,0.3C6.5,30.7,6.5,30.8,6.5,30.8z"/>
			<path class="st0" d="M4.4,25.5c0,0-0.1,0-0.2,0.1c-0.2,0-0.4,0.1-0.7,0c-0.1,0-0.3-0.1-0.5-0.1c-0.2-0.1-0.3-0.2-0.5-0.3
				c-0.1-0.1-0.2-0.1-0.3-0.2c-0.1-0.1-0.2-0.2-0.3-0.3c-0.1-0.1-0.2-0.2-0.3-0.4c-0.1-0.1-0.2-0.3-0.3-0.4
				c-0.1-0.1-0.1-0.3-0.2-0.4c-0.1-0.1-0.1-0.3-0.2-0.4c-0.1-0.3-0.2-0.6-0.3-0.9c0-0.1,0-0.2-0.1-0.2c0-0.1,0-0.2,0-0.2
				c0-0.2-0.1-0.3-0.1-0.5c0-0.2,0-0.3-0.1-0.5c0-0.2,0-0.3,0-0.4c0-0.1,0-0.3,0-0.4c0-0.1,0-0.1,0-0.2c0,0,0-0.1,0-0.1
				c0,0,0-0.1,0-0.1c0-0.2,0-0.5,0-0.6c0-0.2,0-0.3,0-0.4c0-0.1,0-0.2,0-0.2s0.1,0.2,0.3,0.4c0,0.1,0.1,0.1,0.2,0.2
				C1.1,18.9,1.1,19,1.2,19c0.1,0.2,0.3,0.3,0.4,0.5c0.1,0.2,0.3,0.4,0.4,0.5c0.1,0.2,0.3,0.4,0.4,0.5c0.1,0.2,0.3,0.3,0.4,0.5
				C2.9,21.3,3,21.4,3,21.5c0.1,0.3,0.2,0.6,0.4,1.1c0.1,0.2,0.1,0.4,0.2,0.7c0.1,0.2,0.1,0.5,0.2,0.7C3.9,24.2,4,24.4,4,24.6
				c0,0.1,0.1,0.2,0.1,0.3c0,0.1,0.1,0.2,0.1,0.2c0,0.1,0.1,0.3,0.1,0.3C4.4,25.5,4.4,25.5,4.4,25.5z"/>
			<path class="st0" d="M3.9,19.9c0,0-0.1,0-0.3,0c-0.2,0-0.4-0.1-0.6-0.2c-0.2-0.1-0.5-0.3-0.8-0.7c-0.2-0.4-0.5-0.9-0.6-1.6
				c0-0.1,0-0.3-0.1-0.4c0-0.1,0-0.2,0-0.2c0,0,0-0.1,0-0.1c0,0,0-0.1,0-0.1c0-0.3,0-0.6,0-1c0-0.6,0.2-1.3,0.3-1.8
				C2,13.5,2.1,13.2,2.2,13c0.1-0.2,0.1-0.4,0.2-0.6c0.1-0.3,0.2-0.5,0.2-0.5s0.1,0.2,0.2,0.5c0,0.1,0.1,0.2,0.1,0.2
				c0,0.1,0.1,0.2,0.1,0.3c0.1,0.2,0.1,0.4,0.2,0.6c0.1,0.2,0.2,0.4,0.2,0.6c0,0.1,0.1,0.2,0.1,0.3c0,0.1,0.1,0.2,0.1,0.3
				c0,0.1,0.1,0.2,0.1,0.3c0,0,0,0.1,0,0.1c0,0,0,0.1,0,0.1c0,0.2,0.1,0.3,0.1,0.5c0,0.1,0,0.3,0,0.5c0,0.1,0,0.2,0,0.3
				c0,0.1,0,0.2,0,0.3c0,0.1,0,0.2,0,0.3c0,0.1,0,0.2,0,0.4c0,0.1,0,0.2,0,0.3c0,0.1,0,0.2,0,0.3c0,0.1,0,0.1,0,0.2c0,0,0,0.1,0,0.1
				c0,0,0,0.1,0,0.1c0,0.1,0,0.2,0,0.3c0,0.1,0,0.2,0,0.3c0,0.1,0,0.2,0,0.2c0,0.2,0,0.3,0,0.4C3.9,19.8,3.9,19.9,3.9,19.9
				C3.9,19.9,3.9,19.9,3.9,19.9z"/>
			<path class="st0" d="M5.3,14.4c0,0-0.1,0-0.2-0.1c-0.1-0.1-0.3-0.2-0.5-0.4c-0.2-0.2-0.4-0.5-0.5-0.9C4,12.9,4,12.7,3.9,12.4
				c0-0.1,0-0.3,0-0.4c0-0.1,0-0.2,0-0.2c0-0.1,0-0.2,0-0.3c0-0.1,0-0.3,0.1-0.4c0-0.1,0.1-0.3,0.1-0.4c0-0.1,0-0.1,0.1-0.2
				c0-0.1,0-0.1,0.1-0.2C4.4,10,4.4,9.9,4.5,9.8c0.1-0.1,0.1-0.3,0.2-0.4c0-0.1,0.1-0.1,0.1-0.2c0-0.1,0.1-0.1,0.1-0.2
				C4.9,8.8,5,8.7,5,8.6c0.1-0.1,0.1-0.2,0.2-0.4C5.5,7.7,5.8,7.4,6,7.1C6.1,7,6.1,6.9,6.2,6.8c0.1-0.1,0.1-0.1,0.1-0.1s0,0.2,0,0.5
				c0,0.3,0.1,0.7,0.1,1.1c0,0.2,0,0.4,0.1,0.6c0,0.2,0,0.4,0,0.6c0,0.1,0,0.2,0,0.3c0,0.1,0,0.2,0,0.3c0,0.2,0,0.3,0,0.5
				c0,0.1-0.1,0.3-0.1,0.5c-0.1,0.2-0.1,0.4-0.2,0.6C6.1,11.8,6.1,12,6,12.2c0,0.1-0.1,0.2-0.1,0.3c0,0.1,0,0.1-0.1,0.2
				c0,0.1,0,0.1-0.1,0.2c-0.1,0.2-0.1,0.4-0.2,0.6c0,0.1-0.1,0.2-0.1,0.3c0,0,0,0.1,0,0.1c0,0,0,0.1,0,0.1
				C5.3,14.3,5.3,14.4,5.3,14.4z"/>
			<path class="st0" d="M8.3,9.6c0,0-0.1,0-0.2-0.1C7.9,9.4,7.8,9.3,7.7,9C7.5,8.8,7.4,8.5,7.4,8.1c0-0.2,0-0.4,0.1-0.7
				c0-0.1,0.1-0.3,0.1-0.4c0-0.1,0-0.1,0.1-0.2c0-0.1,0.1-0.1,0.1-0.2c0.2-0.5,0.5-1,0.8-1.5c0.3-0.5,0.7-0.9,1-1.3
				c0.3-0.4,0.6-0.7,0.9-0.9c0.1-0.1,0.2-0.2,0.3-0.2c0.1-0.1,0.1-0.1,0.1-0.1s0,0.2,0,0.5c0,0.1,0,0.3,0,0.5c0,0.2,0,0.4-0.1,0.6
				c0,0.2,0,0.4-0.1,0.6c0,0.1,0,0.2,0,0.3c0,0.1,0,0.2,0,0.3c-0.1,0.4-0.1,0.7-0.2,1c-0.1,0.1-0.1,0.3-0.2,0.4
				C10,6.9,9.9,7,9.8,7.2C9.7,7.4,9.6,7.6,9.4,7.8C9.4,7.8,9.3,7.9,9.3,8C9.2,8.1,9.1,8.2,9.1,8.3C8.9,8.7,8.6,9,8.5,9.2
				C8.4,9.4,8.4,9.5,8.3,9.5C8.3,9.6,8.3,9.6,8.3,9.6z"/>
		</g>
	</g>
	<path class="st0" d="M25.1,42.9c0,0-3.9,2.9-4.2,6.5l2.6-3.5l2.1-2.5L25.1,42.9z"/>
	<path class="st0" d="M26.1,42.9c0,0,3.9,2.9,4.2,6.5L28,46.1l-2.3-2.7L26.1,42.9z"/>
	<path class="st0" d="M25.6,43.5c0,0-1.8-0.8-2.1-1.8c0,0-0.2-3-0.2-3.2c0,0,2.3,2.8,2.5,3C25.9,41.6,25.6,43.5,25.6,43.5z"/>
	<path class="st0" d="M25.6,43.5c0,0,1.8-0.8,2.1-1.8c0,0,0.2-3,0.2-3.2c0,0-2.3,2.8-2.5,3C25.3,41.6,25.6,43.5,25.6,43.5z"/>
</g>
<g>
	<path d="M36.2,17.2L36.2,17.2L36.2,17.2l-6.7-1l-3-6.1l-3,6.1l-6.7,1l4.9,4.8l-1.2,6.7l0,0v0l0,0l6-3.2l6,3.2l0,0v0l0,0L31.3,22
		L36.2,17.2L36.2,17.2z M23.5,25.4l1-0.6l1-0.5l1-0.5l0.1,0l0.1,0c0.7,0.3,1.4,0.7,2.1,1.1l1.7,0.9l-0.1-0.8L30,23.8
		c-0.1-0.8-0.2-1.5-0.4-2.3l0-0.1l0.1-0.1l0.8-0.7l0.8-0.7l0.8-0.7c0.3-0.2,0.5-0.5,0.8-0.7c-0.2,0.3-0.5,0.5-0.7,0.8L31.4,20
		l-0.8,0.8l-0.7,0.7c0.1,0.7,0.3,1.5,0.4,2.2l0.2,1.1l0.2,1.1l0.1,0.4l-0.3-0.2l-2-1.1c-0.7-0.4-1.3-0.7-2-1.1l-0.9,0.5l-1,0.5
		L23.5,25.4c-0.3,0.3-0.6,0.4-1,0.6C22.8,25.8,23.1,25.6,23.5,25.4z M23.6,18.1c-0.4,0-0.7,0.1-1.1,0.1c-0.4,0-0.7,0.1-1.1,0.1
		c-0.4,0-0.7,0-1.1,0.1c0.4-0.1,0.7-0.1,1.1-0.2c0.4-0.1,0.7-0.1,1.1-0.2c0.4,0,0.7-0.1,1.1-0.1l1-0.1l0.4-1c0.2-0.3,0.3-0.7,0.5-1
		l0.2-0.5l0.2-0.5c0.2-0.3,0.3-0.7,0.5-1c-0.1,0.3-0.3,0.7-0.4,1l-0.2,0.5l-0.2,0.5c-0.1,0.3-0.3,0.7-0.4,1l-0.4,1l0,0.1l-0.1,0
		L23.6,18.1z M22.2,22.1l0.1-0.4L22,21.5l-3.9-3.8l5.4-0.8l0.4-0.1l0.2-0.3l2.4-4.9l2.4,4.9l0.2,0.3l0.4,0.1l5.4,0.8l-1.6,0.5
		l-4.6-0.7l-2.1-4.2l-2.1,4.2l-4.6,0.7l3.3,3.2L22.3,26l-1,1.4L22.2,22.1z"/>
</g>
</svg>
