<?xml version="1.0" encoding="utf-8"?>
<!-- Generator: Adobe Illustrator 23.0.0, SVG Export Plug-In . SVG Version: 6.00 Build 0)  -->
<svg version="1.1" id="Layer_1" xmlns="http://www.w3.org/2000/svg" xmlns:xlink="http://www.w3.org/1999/xlink" x="0px" y="0px"
	 width="50.6px" height="51.8px" viewBox="0 0 50.6 51.8" style="enable-background:new 0 0 50.6 51.8;" xml:space="preserve">
<style type="text/css">
	.st0{fill:#4FAAF6;}
	.st1{fill:#E8EEFE;}
	.st2{fill:#3C589F;}
	.st3{fill:#2A428B;}
	.st4{fill:#1885E9;}
	.st5{fill:#D2DBFA;}
	.st6{fill:#9AD7F8;}
	.st7{fill:#F4EA37;}
	.st8{fill:#4ED3DD;}
	.st9{fill:#FBAC6D;}
	.st10{fill:#FC985B;}
	.st11{fill:#BDC7F6;}
	.st12{fill:#73C2F8;}
	.st13{fill:#76C3F7;}
	.st14{fill:#3434F4;}
	.st15{fill:#BABA04;}
</style>
<g>
	<path class="st0" d="M9.8,1.2c9.6,0,19.2,0,28.7,0c1,0.2,1.4,0.8,1.5,1.9c0,1.3,0,2.7,0,4c0,6.1,0,12.3,0,18.4c0,0.3,0.1,0.7-0.2,1
		c-0.2,0.2-0.5,0.2-0.7,0.2c-5.5,0-11,0-16.5,0c-0.2,0-0.5,0-0.7-0.1c-0.1-0.1-0.2-0.2-0.2-0.3c0-1.1-0.1-2.2,0-3.2
		c0.2-0.4,0.4-0.1,0.7,0c1,0.6,1.7,0.6,2.3-0.1c0.2-0.2,0.3-0.4,0.4-0.7c0.5-1.3,1-2.5,1.4-3.8c0.2-0.5,0.4-1,0.6-1.4
		c0.1-0.2,0.2-0.5,0.4-0.6c0.2-0.1,0.5,0,0.7,0c3,0,6,0,9,0c0.2,0,0.3,0,0.5,0c0.5-0.1,0.8-0.3,0.8-0.8c0-0.2,0-0.4,0-0.5
		c0-2.9,0-5.8,0-8.7c0-0.2,0-0.4,0-0.5c-0.1-0.6-0.3-0.8-0.9-0.8c-0.7,0-1.3,0-2,0c-3.6,0-7.2,0-10.7,0c-0.2,0-0.5,0-0.7,0.1
		c-0.4,0.2-0.5,0.5-0.5,0.9c0,1,0,2.1,0,3.1c0,2,0,4.1,0,6.1c0,0.3,0,0.7,0.2,1c0.2,0.5-0.2,0.9-0.3,1.4c-0.1,0.3-0.2,0.5-0.3,0.8
		c-0.3,0.8-0.9,1-1.6,0.6c-0.7-0.4-1.3-0.8-1.9-1.3c-0.6-0.4-1.2-0.7-1.9-0.9c-0.2,0-0.4,0-0.6-0.2c0-0.3,0.3-0.3,0.5-0.3
		c2.1-0.7,3-3,1.8-4.9c-0.6-1-2.2-1.9-3.7-1.3c-2.1,0.8-2.7,3-1.8,4.7c0.4,0.7,1,1.2,1.8,1.5c0.2,0.1,0.4,0.1,0.5,0.2
		c-0.1,0.3-0.3,0.2-0.5,0.3c-0.7,0.2-1.4,0.4-2,0.9c-1.5,1.1-2,2.6-2,4.4c0,1.3,0,2.6,0,3.9c0,0.3,0,0.5-0.2,0.7
		c-0.8,0.2-1.7,0.1-2.5,0.1c-0.3,0-0.6,0-0.9-0.1c-0.1-0.2-0.1-0.4-0.1-0.7c0-5.9,0-11.7,0-17.6c0-0.1,0-0.2,0-0.3
		c0-1.1,0-2.2,0-3.3c0-0.5,0-1,0-1.5c0-0.5,0.1-0.9,0.4-1.3C8.9,1.4,9.3,1.3,9.8,1.2z"/>
	<path class="st1" d="M0,38.9c0-0.8,0-1.5,0-2.3c0.1-0.1,0.3-0.2,0.5-0.2c1,0,1.9,0,2.9,0c1.7,0,3.4,0,5,0c2.1-0.1,4.3,0,6.4,0
		c0.7,0,1.4,0,2.1,0c0.2,0,0.4,0,0.6,0c7.1,0,14.2,0,21.3,0c0.3,0,0.7,0,1,0c0.3,0.1,0.5,0.1,0.8,0.1c2.3,0,4.7,0,7,0
		c0.8,0,0.8,0.1,0.9,0.8c0,0.3,0,0.7,0,1c0,1.5-0.9,2.7-2.4,3.2c0,0,0,0,0,0c0.6-0.1,1.2-0.3,1.8,0.1c-0.1,0.3-0.4,0.2-0.6,0.2
		c-0.5,0-1,0-1.5,0c-4.4,0-8.8,0-13.2,0c-0.1,0-0.3,0-0.4,0c-0.5,0-0.6,0.1-0.6,0.6c0,1.7,0,3.4,0,5.1c0,0.3,0,0.6-0.1,0.8
		c0,0.1-0.1,0.1-0.2,0c-0.2-0.2-0.1-0.5-0.1-0.8c0-1.7,0-3.4,0-5c0-0.7,0-0.7-0.7-0.7c-3.3,0-6.6,0-9.9,0c-0.7,0-0.7,0-0.7,0.7
		c0,1.7,0,3.4,0,5c0,0.3,0,0.5-0.1,0.8c0,0.1-0.1,0.1-0.2,0.1c-0.2-0.2-0.2-0.5-0.2-0.8c0-1.6,0-3.3,0-4.9c0-0.9,0-0.9-0.9-0.9
		c-4.7,0-9.4,0-14,0c-0.4,0-0.8,0-1.1-0.1C1.3,41.6,0.4,40.7,0,38.9z"/>
	<path class="st2" d="M3.4,36.6c-1.1,0-2.2,0-3.4,0c0-9.7,0-19.5,0-29.2c0.3-1.8,1.6-2.9,3.6-2.9c1.4,0,2.8,0,4.1,0
		c0.2,0,0.5,0,0.7,0.2c0,1.1,0,2.2,0,3.4C8.2,8.1,8,8.1,7.7,8.1c-0.8,0-1.5,0-2.3,0c-1.3,0-1.9,0.6-1.9,1.9c0,5.8,0,11.6,0,17.4
		c0,2.8,0,5.5,0,8.3C3.5,36,3.6,36.3,3.4,36.6z"/>
	<path class="st3" d="M50.6,7.4c0,9.7,0,19.5,0,29.2c-0.1,0.1-0.3,0.2-0.5,0.2c-0.6,0-1.3,0.1-1.9-0.1C48,36.4,48,36.1,48,35.8
		c0-2.9,0-5.8,0-8.7c0-6.3,0-12.5,0-18.8c0-1.6-0.7-2.7-2.1-3.4c-0.1-0.1-0.3-0.1-0.4-0.2c0-0.2,0.2-0.2,0.3-0.2
		c0.7,0,1.4-0.1,2.2,0.1C49.4,4.9,50.4,5.8,50.6,7.4z"/>
	<path class="st1" d="M31.2,48.4c1,0,2,0,3.1,0c0.5,0.2,0.6,0.5,0.6,1c0,0.5,0,0.9,0,1.4c0,0.5-0.2,0.9-0.7,1c-6.7,0-13.4,0-20.1,0
		c-0.4-0.2-0.5-0.6-0.5-1.1c0-0.5,0-1,0-1.4c0-0.6,0.3-0.8,0.9-0.8c1.6,0,3.3,0,4.9,0c0,0,0.1,0,0.1,0c0.1-0.1,0.3-0.2,0.5-0.2
		c0.9,0,1.9,0,2.8,0c0.5,0,1,0,1.5,0c0.7,0,1.3,0,2,0c0.5,0,1,0,1.5,0c0.9,0,1.9,0,2.8,0c0.2,0,0.4,0,0.5,0.2
		C31.1,48.4,31.2,48.4,31.2,48.4z"/>
	<path class="st4" d="M39.8,26.5c0-7.7,0-15.4,0-23.1c0-1-0.4-1.7-1.3-2.1c0.8,0,1.6,0,2.4,0C41.8,1.5,42.3,2,42.3,3
		c0,0.6,0,1.1,0,1.7c0,1.1,0,2.2,0,3.3c0,0.1,0,0.1,0,0.2c0,0.2,0,0.3,0,0.5c0,5.7,0,11.3,0,17c0,0.3,0,0.6-0.1,0.9
		c-0.1,0.1-0.2,0.2-0.4,0.2C41.2,26.7,40.5,26.8,39.8,26.5C39.8,26.6,39.8,26.5,39.8,26.5z"/>
	<path class="st5" d="M48.2,36.6c0.8,0,1.6,0,2.4,0c0,0.8,0,1.6,0,2.4c-0.3,1.1-1,2-2.1,2.5c-0.3,0.1-0.5,0.2-0.8,0.2
		c-0.6,0-1.2,0-1.9,0c0.4-0.3,0.9-0.4,1.2-0.7c0.9-0.8,1.3-1.8,1.2-3c-0.1-1.2,0-1.2-1.2-1.2c-2.2,0-4.4,0-6.6,0
		c-0.2,0-0.4,0.1-0.6-0.1c0,0,0,0,0.1-0.1c0.8-0.2,1.5-0.1,2.3-0.1c0.9,0,1.8,0,2.6,0c0.7,0,1.5,0,2.2,0c0.1,0,0.1,0,0.2,0
		C47.5,36.4,47.9,36.4,48.2,36.6z"/>
	<path class="st5" d="M34.2,51.8c0.4-0.3,0.7-0.7,0.6-1.2c0-0.3,0-0.6,0-0.8c0-0.5-0.1-1-0.5-1.3c0.6,0,1.3,0,1.9,0
		c0.6,0,1,0.4,1,0.9c0,0.5,0,1,0,1.5c0,0.4-0.3,0.7-0.6,0.9C35.7,51.8,35,51.8,34.2,51.8z"/>
	<path class="st5" d="M39.8,36.6c-7.4,0-14.8,0-22.2,0c-0.2,0-0.5,0-0.7,0c-0.2-0.2-0.2-0.4-0.2-0.7c0-2.9,0-5.8,0-8.8
		c0-0.2,0-0.5,0.1-0.7c0.1-0.1,0.3-0.2,0.5-0.2c1,0,2,0,3,0c0.5,0,1.1-0.2,1.6,0.1c1.4,0,2.9,0,4.3,0c4.5,0,9,0,13.5,0c0,0,0,0,0,0
		C40,26.7,40,27,40,27.2c0,2.9,0,5.8,0,8.7C40,36.1,40,36.4,39.8,36.6L39.8,36.6z"/>
	<path class="st6" d="M3.4,36.6c0-8.9,0-17.8,0-26.7C3.4,8.7,4.1,8,5.2,8c1.1,0,2.1,0,3.2,0c0,6,0,11.9,0,17.9c0,0.2,0,0.5,0,0.7
		c0.2,0.2,0.1,0.4,0.1,0.7c0,2.9,0,5.8,0,8.7c0,0.2,0,0.5-0.2,0.7C6.7,36.6,5,36.6,3.4,36.6z"/>
	<path class="st1" d="M23.9,16.2c-0.2-0.2-0.3-0.4-0.3-0.7c0-3.3,0-6.6,0-9.9c0-0.4,0.1-0.7,0.6-0.9c0.2-0.1,0.3,0,0.5,0
		c3.6,0,7.2,0,10.8,0c0.8,0,1.1,0.2,1.1,1.1c0,2.1,0,4.1,0,6.2c0,1,0,2.1,0,3.1c0,0.2,0,0.5-0.1,0.7c-0.1,0.5-0.3,0.7-0.9,0.7
		c-0.6,0-1.2,0-1.9,0c-2.1,0-4.1,0-6.2,0c-0.3-0.1-0.2-0.3-0.1-0.5c0.1-0.3,0.3-0.6,0.1-1c0-0.3,0-0.5,0.1-0.8
		c0.5-1.8,0.9-3.7,1.4-5.5c0-0.2,0.1-0.3,0.1-0.5c0-0.3-0.1-0.5-0.5-0.6c-0.3-0.1-0.5,0-0.7,0.3C28,8,28,8.2,27.9,8.4
		c-0.4,1.5-0.8,3-1.1,4.5c-0.1,0.2-0.1,0.5-0.3,0.7c-0.2,0.1-0.5,0.1-0.7,0.1c-0.3,0.1-0.5,0.2-0.7,0.4c-0.5,0.4-0.5,1.1-0.8,1.6
		C24.2,15.9,24.2,16.1,23.9,16.2z"/>
	<path class="st7" d="M8.4,36.6c0-3.4,0-6.7,0-10.1c1.1,0,2.2,0,3.4,0c0.2-0.2,0.4-0.2,0.6-0.2c1.3,0,2.5,0,3.8,0
		c0.2,0,0.5,0,0.7,0.2c0,3.3,0,6.7,0,10c-0.7,0-1.3,0-2,0C12.7,36.6,10.6,36.6,8.4,36.6z"/>
	<path class="st8" d="M16.9,26.5c-1.5,0-3,0-4.6,0c-0.2,0-0.4,0-0.5,0c0-1.9-0.1-3.7,0.1-5.6c0.1-1.5,0.8-2.6,2.1-3.5
		c0.2-0.1,0.3,0.1,0.5,0.2c0.5,0.4,0.9,0.7,1.4,1.1c0.7,0.6,1.4,0.6,2.1,0c0.5-0.4,1-0.8,1.4-1.1c0.2-0.1,0.3-0.3,0.5-0.2
		c0.6,0.4,1.2,0.8,1.9,1.2c0.7,0.5,1.2,0.3,1.6-0.5c0.1-0.2,0.2-0.5,0.3-0.7c0.5-0.1,0.8,0,1.1,0.4c0,0.2,0,0.4-0.1,0.6
		c-0.5,1.4-1,2.8-1.6,4.1c-0.1,0.3-0.2,0.6-0.5,0.6c-0.2-0.1-0.3-0.2-0.5-0.3c-0.2-0.2-0.2-0.5-0.2-0.7c0-0.3,0-0.5-0.1-0.8
		c-0.1-0.2-0.2-0.4-0.4-0.4c-0.3,0-0.4,0.1-0.6,0.3c-0.2,0.3-0.2,0.6-0.2,0.9c0,1.2,0,2.5,0,3.7c0,0.2,0,0.5-0.2,0.7
		C19.2,26.5,18,26.5,16.9,26.5z"/>
	<path class="st5" d="M27.5,16.3c2.6,0,5.3,0,7.9,0c0.7,0,1-0.2,1-1c0-2,0-4,0-6c0-1.2,0-2.5,0-3.7c0-0.7-0.3-0.9-0.9-0.9
		c-3.8,0-7.6,0-11.3,0c0.2-0.1,0.3-0.1,0.5-0.1c4.3,0,8.7,0,13,0c0.7,0,1.1,0.3,1.1,1c0,3.2,0,6.5,0,9.7c0,0.8-0.4,1.1-1.2,1.1
		C34.3,16.4,30.9,16.4,27.5,16.3C27.4,16.4,27.5,16.3,27.5,16.3z"/>
	<path class="st9" d="M15.8,16.2c-1.5-0.6-2.3-1.7-2.3-3.2c0-1.5,0.9-2.6,2.3-3.1c1.3,0.4,1.9,1.3,2.2,2.6c0.3,1.4-0.4,2.9-1.7,3.6
		C16.1,16.1,16,16.2,15.8,16.2z"/>
	<path class="st10" d="M15.8,16.2c0.6-0.4,1.2-0.8,1.6-1.4c1-1.6,0.5-3.9-1.2-4.7C16,10,15.9,10,15.8,9.8c1.7-0.6,3.6,0.3,4.2,2.1
		c0.6,1.8-0.3,3.7-2.1,4.3c-0.2,0.1-0.4,0.1-0.7,0.2c-0.3,0.3-0.6,0.2-0.9,0C16.2,16.3,16,16.3,15.8,16.2z"/>
	<path class="st8" d="M22.4,23.1c0.3-0.4,0.4-1,0.6-1.6c0.4-1.3,0.7-2.5,1.1-3.8c0,0,0.1,0,0.1-0.1c0.5,0.2,1.1,0.3,1.5,0.7
		c-0.4,1.4-0.8,2.8-1.2,4.2C24.2,23.5,23.2,24.1,22.4,23.1z"/>
	<path class="st1" d="M16.4,16.4c0.3,0,0.6,0,0.9,0c0.9,0.1,1.8,0.4,2.5,1c-0.6,0.5-1.2,1-1.8,1.4c-0.8,0.6-1.6,0.6-2.3,0
		c-0.6-0.5-1.2-0.9-1.8-1.4C14.6,16.8,15.5,16.6,16.4,16.4z"/>
	<path class="st8" d="M21.1,26.5c0-1.3,0-2.5,0-3.8c0-0.1,0-0.3,0-0.4c0.1-0.3,0.3-0.5,0.6-0.5c0.3,0,0.5,0.3,0.5,0.6
		c0,0.4,0,0.7,0,1.1c0,1,0,2,0,2.9C21.9,26.5,21.5,26.5,21.1,26.5z"/>
	<path class="st10" d="M26.7,18.5c-0.7-0.2-1.3-0.4-2-0.7c-0.2-0.2-0.1-0.4,0-0.6c0.2-0.4,0.3-0.8,0.5-1.2c0.2-0.5,0.3-1.1-0.1-1.6
		C25,14.3,24.9,14.1,25,14c0.4-0.5,0.9-0.5,1.5-0.5c0.2,0.3,0,0.5,0,0.8c0,0.2-0.1,0.5,0,0.7c0.2,0.3,0.6,0.4,0.9,0.1
		c0.1-0.1,0.2-0.3,0.4-0.3c0.2,0.3,0,0.7-0.1,1c0,0.2-0.1,0.3-0.2,0.5c0,0,0,0.1-0.1,0.1C27.2,17.1,26.9,17.8,26.7,18.5z"/>
	<path class="st9" d="M25,14c0.5,0.7,0.6,1.4,0.2,2.2c-0.2,0.5-0.5,1-0.5,1.6c0,0,0,0,0,0s0,0,0,0c-0.3-0.2-0.7-0.3-1.1-0.4
		c0.1-0.4,0.3-0.8,0.4-1.2c0.2-0.5,0.4-1,0.6-1.4C24.6,14.4,24.7,14.2,25,14z"/>
	<path class="st5" d="M22.8,48.4c-1.1,0-2.2,0-3.4,0c0-2.1,0-4.1,0-6.2c0-0.4,0.1-0.6,0.5-0.6c3.5,0,7.1,0,10.6,0
		c0.5,0,0.5,0.2,0.5,0.6c0,2.1,0,4.1,0,6.2c-1.1,0-2.2,0-3.4,0c-0.2-0.2-0.1-0.4-0.2-0.6c0-0.6,0-1.2,0-1.8c0-1-0.6-1.6-1.6-1.6
		c-0.5,0-1,0-1.4,0c-1,0-1.5,0.6-1.6,1.6c0,0.6,0,1.2,0,1.8C23,48,23,48.2,22.8,48.4z"/>
	<path class="st2" d="M48.2,36.6c-0.3,0-0.7,0-1,0c-0.2-0.3-0.1-0.6-0.1-0.9c0-8.5,0-17,0-25.4c0-0.2,0-0.5,0-0.7
		c-0.2-1-0.8-1.4-1.8-1.4c-0.8,0-1.6,0-2.5,0c-0.2,0-0.4,0-0.6-0.1c0-1.1,0-2.2,0-3.4c1.1,0,2.2,0,3.4,0c0.8,0.3,1.5,0.6,2,1.3
		c0.4,0.6,0.7,1.2,0.7,2C48.2,17.5,48.2,27,48.2,36.6z"/>
	<path class="st11" d="M22.8,48.4c0-0.8,0-1.6,0-2.4c0-1.1,0.7-1.8,1.8-1.8c0.5,0,1,0,1.5,0c1,0,1.7,0.7,1.7,1.7c0,0.8,0,1.6,0,2.5
		c-0.5,0-1,0-1.5,0C26,48.3,26,48.1,26,47.8c0-0.5,0-0.9,0-1.4c0-0.3-0.1-0.5-0.5-0.5c-1-0.1-1,0-1,0.9c0,0.3,0,0.7,0,1
		c0,0.2,0,0.4-0.3,0.5C23.8,48.4,23.3,48.4,22.8,48.4z"/>
	<path class="st5" d="M24.3,48.4c0.2-0.7,0.1-1.3,0.1-2c0-0.7,0-0.7,0.7-0.7c1.1,0,1.1,0,1.1,1.1c0,0.5-0.1,1,0.1,1.6
		C25.6,48.4,24.9,48.4,24.3,48.4z"/>
	<path class="st6" d="M44.8,36.6c-0.9,0-1.8,0-2.7,0C42,36.4,42,36.1,42,35.9c0-2.9,0-5.8,0-8.7c0-0.2,0-0.5,0.2-0.7
		c0-6,0-12,0-18.1c0-0.1,0-0.3,0-0.4c0.5-0.1,1-0.1,1.6,0c0.7,0.1,1,0.6,1.2,1.2C45,9.5,45,9.8,45,10.1c0,8.5,0,17,0,25.6
		C45,36,45.1,36.3,44.8,36.6z"/>
	<path class="st12" d="M44.8,36.6c0-8.9,0-17.8,0-26.7c0-0.5-0.1-0.9-0.4-1.3c-0.3-0.4-0.7-0.6-1.2-0.5c-0.3,0-0.7,0-1,0
		c0,0,0-0.1,0-0.1c1.1,0,2.2,0,3.2,0c1,0,1.6,0.5,1.8,1.5c-0.1,0.2,0,0.4,0,0.6c0,8.7,0,17.3,0,26c0,0.2,0,0.4,0,0.6
		C46.3,36.6,45.6,36.6,44.8,36.6z"/>
	<path class="st11" d="M42.2,26.5c0,3.4,0,6.7,0,10.1c-0.8,0-1.6,0-2.4,0c0-3.4,0-6.7,0-10.1C40.6,26.5,41.4,26.5,42.2,26.5z"/>
	<path class="st13" d="M47.1,36.6c0-8.8,0-17.7,0-26.5c0-0.2-0.1-0.4,0.1-0.6c0,0.2,0,0.5,0,0.7c0,8.8,0,17.6,0,26.5
		C47.2,36.6,47.1,36.6,47.1,36.6z"/>
	<path class="st14" d="M25.2,31c0.1-0.2,0.3-0.2,0.4-0.2c4.3,0,8.6,0,12.9,0c0.4,0,0.7,0,0.9,0.4c0.3,0.4,0,1-0.4,1.1
		c-0.1,0-0.3,0-0.4,0c-4.4,0-8.8,0-13.2,0c-0.1,0-0.2,0-0.3,0C25.1,31.9,25.1,31.4,25.2,31z"/>
	<path class="st1" d="M25.2,31c0.2,0.5,0.2,0.9-0.1,1.4c-0.7,1.2-2.2,1.2-3,0c-0.4-0.4-0.4-0.9-0.1-1.4c0.3-0.7,0.8-1.1,1.5-1.1
		C24.3,29.9,24.9,30.2,25.2,31z"/>
	<path class="st14" d="M22,31c-0.2,0.5-0.2,0.9,0.1,1.4c-0.6,0-1.2,0-1.9,0c-0.4,0-0.7-0.3-0.8-0.7c0-0.4,0.2-0.7,0.6-0.8
		c0.6-0.1,1.2,0,1.8,0C22,30.8,22,30.9,22,31z"/>
	<path class="st2" d="M27.7,14.8c-0.3,0.6-0.6,0.8-1.1,0.6c-0.4-0.2-0.5-0.5-0.4-1c0.1-0.2,0.1-0.5,0.2-0.7c0-0.1,0-0.2,0-0.2
		c0.5-1.8,0.9-3.7,1.4-5.5c0.1-0.3,0.2-0.6,0.5-0.7c0.3-0.1,0.6-0.1,0.8,0.1c0.3,0.2,0.3,0.5,0.2,0.9c-0.4,1.7-0.9,3.4-1.3,5.1
		C28,13.9,27.9,14.4,27.7,14.8z"/>
	<path class="st15" d="M12.7,32.3c-0.1,0-0.2,0-0.3,0c-0.5,0-0.8-0.3-0.9-0.7c0-0.4,0.2-0.7,0.7-0.8c0.3-0.1,0.7-0.1,1,0
		c0.4,0.1,0.7,0.5,0.7,0.9c-0.1,0.4-0.4,0.6-0.8,0.7C12.9,32.3,12.8,32.3,12.7,32.3z"/>
</g>
</svg>
