<?xml version="1.0" encoding="utf-8"?>
<!-- Generator: Adobe Illustrator 23.0.0, SVG Export Plug-In . SVG Version: 6.00 Build 0)  -->
<svg version="1.1" id="Layer_1" xmlns="http://www.w3.org/2000/svg" xmlns:xlink="http://www.w3.org/1999/xlink" x="0px" y="0px"
	 width="394px" height="276px" viewBox="0 0 394 276" style="enable-background:new 0 0 394 276;" xml:space="preserve">
<style type="text/css">
	.st0{fill:#544F57;}
	.st1{fill:#8E8B90;}
	.st2{fill:#928F94;}
	.st3{fill:#DC636E;}
	.st4{fill:#E18085;}
	.st5{fill:#F8F5F5;}
	.st6{fill:#E17F85;}
	.st7{fill:#EEE6E3;}
	.st8{fill:#FEDF7D;}
	.st9{fill:#FECF64;}
	.st10{fill:#665E66;}
	.st11{fill:#FEEFAE;}
	.st12{fill:#D94A54;}
	.st13{fill:#D9CFCA;}
</style>
<g>
	<path class="st0" d="M387.2,152.6c0.3,0.2,0.5,0.4,0.8,0.7c0,1,0,2,0,3c-0.5,0.5-0.5,1,0,1.5c0,4.3,0,8.5,0,12.8
		c-0.5,0.5-0.5,1,0,1.5c0,1.3,0,2.5,0,3.8c-1.6,2.6-1.3,5.7-1.9,8.5c-3.7,19.3-12.4,36-25.1,50.8c-2.2-0.5-2-2.4-2.1-3.9
		c-0.7-5.8-0.8-11.6-1.3-17.4c-0.5-5.9-0.6-11.9-1.3-17.8c-0.4-4.7-0.4-9.3,3.6-12.7c8.1-9.4,16-19.2,24.1-28.7
		C384.9,153.6,385.4,152.1,387.2,152.6z"/>
	<path class="st1" d="M388,172c-0.9-0.5-0.8-1,0-1.5C388,171,388,171.5,388,172z"/>
	<path class="st2" d="M388,157.8c-0.8-0.5-0.9-1,0-1.5C388,156.8,388,157.3,388,157.8z"/>
	<path class="st3" d="M222.8,252.1c-19.1,11.4-39.9,17-62,18c0.9-8.5,0.3-17.1,0.4-25.6c0-3.2-0.4-3.4-3.5-2c-2.3,1-4.4,2.3-7,2.5
		c-0.4-0.1-0.8-0.3-1-0.7c-0.7-1.7-0.5-3.4-0.5-5.2c0-12,0-23.9,0-35.9c0-4.6-0.5-4.9-4.9-4.5c-22,2.3-42.2,9.4-60.4,22.2
		c-0.9,0.6-1.8,1.3-3,1.4c-2.9-3.6-4.8-7.5-4.8-12.2c5.9-5.2,12.8-8.7,19.7-12c15.6-7.5,32-12,49.3-13.1c2.8-0.2,4-1.4,4-4.2
		c0-10.9,0-21.7,0-32.6c0-2.6-1.1-3.7-3.6-3.6c-1.2,0-2.5,0-3.7,0c-37.2,0-74.5,0-111.7,0c-2.2,0-4.9,0.8-6.4-1.8c0-3.5,0-7,0-10.5
		c1.1-2.2,3.1-1.8,4.9-1.8c8.6-0.1,17.2,0,25.8,0c29.7,0,59.4,0,89.1,0c5.5,0,5.6-0.1,5.6-5.7c0-9.9,0-19.7,0-29.6
		c0-4.5-0.5-4.9-4.8-5.3C114.2,87.3,87.8,76.2,65,56.4c-2.6-2.2-5.9-3.9-7.2-7.4c2-3.3,4.9-5.7,7.7-8.2c1.9-0.9,3,0.5,4.2,1.6
		c15.7,14.7,33.9,24.9,54.7,30.3c6.4,1.7,12.9,2.7,19.5,3.5c4.8,0.6,5.2,0.3,5.3-4.5c0-20,0-39.9,0-59.9c0-1.4-0.1-2.7,0.1-4.1
		c0.2-1.3,0.5-2.5,2.2-2.5c2.9,0,5.7,0.1,8.6,0c2.1-0.1,2.9,0.9,3.1,2.8c0.1,1.4,0.1,2.7,0.1,4.1c0,19.5,0,38.9,0,58.4
		c0,6.3,0.1,6.2,6.3,5.6c14-1.5,27.4-5.4,40.2-11.1c7.1-3.2,7.4-3.7,3.4-10.2c-11.3-18.9-26.4-34-45.2-45.5
		c-1.2-0.7-2.5-1.3-3.2-2.5c-0.9-1.6,0-1.7,1.3-1.3c25.8,1.5,48.7,10.6,69.4,25.7c4,2.9,7.8,6.1,11.4,9.6
		c-7,7.1-14.8,13.2-23.2,18.6c-3.9,2.5-3.7,2.5-2.2,6.7c0.8,2,2.5,3.9,1.8,6.3c-0.2,0.4-0.4,0.7-0.7,0.9
		c-14.3,8.4-29.9,13.2-46.2,15.6c-3,0.4-5.9,1-8.9,0.9c-2.8-0.1-4.1,1.1-4.1,4c0,11,0,22,0,33c0,2.5,1.1,3.6,3.6,3.6
		c3.4-0.1,6.7-0.1,10.1,0c1.6,0,3.3-0.1,4.4,1.5c0.5,4.1-0.8,7.8-2.6,11.4c-1.3,1.3-2.9,1.3-4.5,1.3c-2.5,0.1-5,0.1-7.5,0
		c-2.3,0-3.5,0.8-3.5,3.3c0,11.1,0,22.2,0,33.3c0,2.6,1.2,3.8,3.9,3.9c3.8,0.2,7.7,0.3,11.4,1.6c2.9,3.9,3.9,8.3,4,13
		c-1.3,1.1-2.8,0.7-4.3,0.4c-3.8-0.7-7.7-1-11.5-1.6c-2.5-0.4-3.7,0.6-3.7,3.3c0,10.6,0,21.2,0,31.8c0,3.2,0.4,3.4,3.1,1.8
		c8.6-4.9,16.4-10.9,23.6-17.6c2.1-1,2.5,0.9,3.2,2c3.4,5.1,7,10.2,11.3,14.6c4.8,6.2,11.1,10.6,17.1,15.5
		C222.2,250.7,223.3,251,222.8,252.1z"/>
	<path class="st4" d="M57.8,48.9c6.3,4.8,11.9,10.5,18.5,15.1C92,75,109.2,82.6,128,86.5c6,1.2,11.9,2.4,18.1,2.3
		c2.9,0,4.3,1.2,4.3,4.6c-0.2,11.4-0.2,22.7,0,34.1c0.1,3.4-1,4.1-4.3,4.1c-39.1-0.1-78.2-0.1-117.4-0.1c-1.7,0-3.5-0.4-5.1,0.7
		c1.4-28.6,10.7-54.3,28.5-76.9C53.9,53.1,55.5,50.7,57.8,48.9z"/>
	<path class="st4" d="M23.6,142.7c1.6,1.1,3.4,0.7,5.1,0.7c39,0,77.9,0.1,116.9-0.1c3.9,0,4.8,1.1,4.7,4.8
		c-0.2,11.1-0.2,22.2,0,33.3c0.1,3.3-1.1,4.6-4.2,4.7c-18.1,0.8-35,5.8-51.2,13.5c-6.6,3.1-12.9,7.1-18.9,11.3c-0.6,0-1-0.3-1.4-0.7
		c-2.6-3.2-5.1-6.5-8.5-8.9c-6.3-4.8-13.4-7.3-21.1-8.1c-1.4-0.1-2.7,0.1-4,0.5c-1.9,0.2-3.8,0.7-5.4-0.8
		c-5.5-12.5-9.4-25.5-11-39.1C24.2,150.2,23.9,146.5,23.6,142.7z"/>
	<path class="st4" d="M151.8,5.5c-2.5,0.6-1.4,2.6-1.5,4c-0.1,21.2-0.2,42.4,0.1,63.7c0,3.9-1.3,4.7-4.7,4.3
		c-24.5-2.6-46.9-10.6-66.6-25.8c-3.7-2.9-7.5-5.8-10.7-9.2c-0.8-0.8-1.5-1.7-2.8-1.7c24.3-22.6,53.2-34.2,86.2-35.9
		c0.2,0.1,0.3,0.3,0.2,0.4C151.9,5.4,151.8,5.5,151.8,5.5z"/>
	<path class="st5" d="M263.6,59.5c8.6-0.7,17.3-1.1,25.9-0.7c5.1,0.3,10.2,1.3,15.3,2c5.8,9.2,11.6,18.5,17.4,27.7
		c1.4,2.2,3.2,4.1,3.4,6.9c-0.7,2.7-3.4,3.5-5,5.3c-4.7,5.3-10.4,9.5-15.3,14.6c-0.8,0.8-1.6,1.6-2.7,1.9
		c-13.1,0.6-26.2,0.2-39.2,0.2c-1.1,0-2.3-0.3-3.1-1.1c-7.1-6.7-14.5-12.9-21.1-20.1c-0.5-1.3-0.1-2.4,0.6-3.5
		c6.6-10.8,13.3-21.5,20.3-32C261,59.7,262.2,59.3,263.6,59.5z"/>
	<path class="st6" d="M80.6,222.2c16.5-12.4,35-20.2,55.4-23.2c3.5-0.5,7.1-1,10.7-1.5c2.7-0.4,3.7,0.6,3.7,3.5
		c-0.1,14.6-0.1,29.2-0.1,43.8c-0.5,1.5-1.9,1.8-3.2,2.3c-14.8,5.6-30.1,8.3-45.9,8.6c-2.1,0-4.2-0.3-6.3-0.5
		c-5.5-2.8-10.6-6.2-15.8-9.6c-0.8-0.9-0.6-1.9-0.3-2.8c1.8-5.8,1.9-11.7,1.3-17.7C80,224,79.7,223,80.6,222.2z"/>
	<path class="st6" d="M151.8,5.5c0-0.2,0-0.4,0-0.6c4.8-0.1,9.6-0.5,14.4,0.6c-1.6,1.6,0.5,1.7,1,2c4.6,2.8,9,5.7,13.3,9
		c15.3,11.6,27.4,25.9,36.6,42.7c1.2,2.2,0.1,2.9-1.4,3.8c-7.8,4.6-16.2,7.5-24.8,10.1c-7.5,2.2-15.3,3.3-23,4.4
		c-5,0.7-5.5,0.3-5.5-4.9c0-21-0.1-42,0.1-63c0-3.3-0.9-4.5-4.2-4.2C156,5.7,153.9,5.5,151.8,5.5z"/>
	<path class="st7" d="M357.3,195.2c0.7,10.4,1.4,20.9,2.3,31.3c0.2,2.9-0.3,5.9,1.4,8.5c-9.9,10.7-21.3,19.4-34.6,25.4
		c-0.8-0.2-1.7-0.2-2.5-0.6c-9.1-4.7-18.6-8.9-27.5-14c-0.2-0.3-0.3-0.7-0.3-1c0.9-2.1,3-2.6,4.7-3.5c19.9-10.7,34.7-26.3,44.8-46.4
		c2.2-4.3,2.1-4.5-2.1-7c-5.8-3.5-11.6-7-17.3-10.5c-1.1-0.6-2.3-1.1-2.8-2.3c3.6-3.5,3-7.8,2.3-12.1c0.8-0.6,1.7-0.4,2.4,0.1
		c8.3,5,16.8,9.5,24.7,15.1c0.2,0.3,0.4,0.6,0.5,0.9c0.2,2.1-0.8,3.8-1.5,5.7c-1.8,4.9-1.9,4.9,2.4,7.5
		C355.5,193,356.5,194,357.3,195.2z"/>
	<path class="st7" d="M387.2,152.6c-7.5,7.8-14,16.6-21,24.8c-1.7,2-3.4,3.9-5.1,5.9c-3.9,0.6-6.1-1.9-8.3-4.5l0-0.1
		c-0.8-1.2-0.3-2.4,0-3.6c5.7-22.7,4-44.9-4.7-66.5c-0.3-0.8-0.7-1.6-0.8-2.5c0-0.4,0.1-0.8,0.4-1.1c0.6-0.3,1.2-0.4,1.8-0.2
		c8.2,2,16.5,3.6,24.4,6.4c5.9,10.3,10.1,21.2,12.2,32.9C386.6,146.9,387.4,149.7,387.2,152.6z"/>
	<path class="st0" d="M296.6,245.5c10.1,4.7,20.2,9.4,29.8,15c-29.4,13.1-58.9,13.1-88.3,0c-0.3-1.7,1.3-2,2.3-2.5
		c2.8-1.4,5.5-2.9,8.4-4.1c0.6-0.2,1.2-0.3,1.8-0.3c14.1,0.1,27.7-2.5,40.8-7.8C293,245,294.8,244.1,296.6,245.5z"/>
	<path class="st8" d="M10.1,252.1c-8-13.7-8.4-27.4-0.1-41.2c1.5-0.4,2.3,0.6,3.2,1.5c8.9,8.9,19.6,13.2,32.2,12.6c1,0,2,0,2.9,0.3
		c0.4,0.1,0.7,0.3,1,0.6c0.5,4.3-1.6,7.6-4.2,10.7c-0.3,0.2-0.7,0.4-1,0.5c-10.6,0.3-20,3.7-28.3,10.4
		C13.9,249.1,12.8,251.7,10.1,252.1z"/>
	<path class="st8" d="M67,201.2c3.6,2.2,6.2,5.4,8.3,9.1c0.3,1.5-0.4,2.7-1.3,3.7c-6.2,6.2-13.4,10.6-22,12.3c-1,0.2-2,0.5-2.8-0.3
		L49,226c-0.9-2.5,0.5-4.9,0.5-7.4c0.1-2.6-0.7-3.6-3.5-3.2c-10.1,1.1-18.6-2.5-25.7-9.6c-1.2-1.2-2.6-2.4-2-4.5
		c5-4.3,11.1-6.5,17.3-8.3c2,0,3.9,0,5.9-0.1c2.2-0.7,3.1,0.9,4.1,2.3c2.6,3.8,4,8.2,5.1,12.7c1,4.3,1.5,4.3,5.4,2.2
		C60.4,207.9,63.4,204.2,67,201.2z"/>
	<path class="st9" d="M49,226c7.9-1.4,15-4.7,21.2-9.9c2-1.7,4-3.4,5-5.9c0.3,0.2,0.5,0.5,0.8,0.7c1.9,3.6,3.5,7.3,4.5,11.2
		c1.6,7.9,1.1,15.7-1.5,23.3c-1.1,2-2.1,4-3.2,6c-1.1,0.9-1.9,0.1-2.6-0.6c-7.4-7.9-16.5-12.3-27.2-13.5c-0.6-0.1-1.2-0.3-1.6-0.9
		C46.7,233.3,48.3,229.8,49,226z"/>
	<path class="st9" d="M67.1,261.3c-13.4,11.9-34.8,11.8-48.8-0.1c-0.3-1,0.2-1.7,0.7-2.4c12.5-15.4,33.6-14.6,46.2-1.8
		C66.3,258.2,67.5,259.5,67.1,261.3z"/>
	<path class="st3" d="M94.8,255.1c0.7-0.7,1.6-0.6,2.4-0.6c14.5,0.3,28.6-1.8,42.5-6c3.5-1.1,7-2.5,10.5-3.7c0,0,0.1,0,0.1,0
		c0.6,0.5,0.9,1.2,0.9,2c0.2,7.8,0.6,15.6-0.2,23.4C131.2,269.2,112.4,264.5,94.8,255.1z"/>
	<path class="st0" d="M373.9,111.2c-4.2,0.5-7.8-1.5-11.7-2.4c-5-1-9.8-2.6-14.7-3.9c-2.6-2.3-3.6-5.6-5.2-8.5
		c-6.6-11.2-15.1-20.7-24.9-29c-1.1-0.9-2.6-1.6-2.1-3.5c13.9,4.1,26.1,11.4,36.9,20.9C360.9,92.4,368.1,101.3,373.9,111.2z"/>
	<path class="st10" d="M315.3,63.9c5.2,5.1,10.6,10,15.5,15.3c7,7.6,12.6,16.2,16.7,25.7l0.1,0.4c-4.4,0.5-8.4-1.7-12.6-2.4
		c-1.6-0.5-3.3-0.8-5-1.3c-3.1-1-4.2-3.4-4.9-6.3c-6.4-10.4-12.9-20.7-19.3-31.1c-0.6-1-2.2-1.8-1.1-3.4
		C308.3,61.9,311.8,62.9,315.3,63.9z"/>
	<path class="st8" d="M67.1,261.3c-9.1-14.9-32.8-17.8-45.1-4.2c-1.3,1.4-2.5,2.8-3.8,4.1c-2.4-1.6-4.3-3.7-6.1-5.9
		c-0.1-1.8,1.3-1.6,2.3-1.7c11.1-0.9,19.9-5.9,26.9-14.3c0.9-1.1,1.8-2.1,3-2.8c0,0,0.1-0.1,0.1-0.1c11.8,0.4,21.6,5.2,29.4,14
		c0.5,0.6,1.1,1,1.9,1C73.6,255.3,71.2,259.1,67.1,261.3z"/>
	<path class="st11" d="M18.3,201.3c4.1,7.2,10.8,10.7,18.5,12.6c3.4,0.8,6.8,1.3,10.3,0.2c2.1-0.7,3.6,0,3.4,2.7
		c-0.1,3.1-0.5,6.2-1.6,9.1c-5.8,0-11.6,0.4-17.3-1.3c-7.6-2.2-14-6.1-19.4-11.8c-0.7-0.7-1.5-1.3-2.3-1.9
		C11.8,206.9,14.8,203.9,18.3,201.3z"/>
	<path class="st12" d="M223,72.2c-0.9-2.2-1.5-4.6-2.7-6.5c-2-3.1-1.4-4.7,1.8-6.5c8.2-4.6,15.2-10.8,22.2-16.9
		c0.8-0.7,1.4-1.5,2.5-1.4c2.6,2.1,5,4.5,7,7.2c0.4,1.1,0.1,1.9-0.7,2.7c-8.3,8.4-17.6,15.3-27.7,21.2
		C224.7,72.3,223.9,72.7,223,72.2z"/>
	<path class="st12" d="M151,270.1c-1.1-1.5-0.7-3.3-0.7-5c0-6.8,0-13.6,0-20.3c3.3-1.5,6.5-3,9.8-4.5c1.7-0.8,2.2-0.3,2.2,1.5
		c0,8.6,0,17.1,0,25.7c0,1.3-0.7,2-1.5,2.8C157.5,270.1,154.3,270.1,151,270.1z"/>
	<path class="st11" d="M44.5,236.5c-6.8,10.5-16.4,16.5-28.8,18c-1.2,0.1-2.5-0.4-3.5,0.8c-0.7-1.1-1.4-2.1-2.1-3.2
		C19.2,241.7,30.5,236.2,44.5,236.5z"/>
	<path class="st3" d="M223,72.2c11.2-6.1,21.2-13.9,30.3-22.8c0.3-0.3,0.4-0.9,0.6-1.4c3.2,3.8,6.5,7.7,9.7,11.5
		c-0.7,1.2-2.2,0.8-3.1,1.5c-2,1.6-4.6,1.7-7,2.5c-8.7,2.7-17.2,5.9-25,10.8c-1.1,0.7-2.3,1.6-3.8,1.3C223.3,75,222.6,73.9,223,72.2
		L223,72.2z"/>
	<path class="st7" d="M248.6,254.6c-3.2,2.5-7.4,3.3-10.5,5.9c-5.4-2.2-10.3-5.5-15.3-8.4c-0.4-0.5-0.8-0.9-1.3-1.4
		c1-1,2.3-0.9,3.5-0.6c7,1.8,14.1,2.8,21.3,3.3C247.2,253.6,248,253.8,248.6,254.6z"/>
	<path class="st13" d="M352.8,178.8c2.8,1.5,5.1,3.7,8.3,4.5c-3.5,3.3-4.4,7.4-3.7,12c-1.8-1.1-3.5-2.5-5.4-3.3
		c-3.4-1.3-2.8-3.3-1.7-5.8C351.2,183.7,351.9,181.2,352.8,178.8z"/>
	<path class="st5" d="M248.6,254.6c-8.1,0-16-1.3-23.8-3.3c-1.1-0.3-2.2-0.3-3.3-0.5c-6.4-4.5-12.6-9.3-17.4-15.6
		c-1.9-4.6-0.2-9.4-0.1-14c0.2-7.3,1.1-14.6,1.3-22c0-1.1,0.2-2.2,0.7-3.3c0.9-1.6,2.3-2.6,3.8-3.5c9.3-5.6,18.6-11.2,27.9-16.8
		c1-0.6,2-1.1,3.1-1.2c1.6-0.1,2.8,0.8,4,1.7c9.3,6.9,18.7,13.6,28.1,20.3c1.7,1.2,3.6,2.3,4.1,4.6c0.5,13,0.4,25.9,0.1,38.8
		c-0.3,1.8-1.4,2.8-3,3.5c-6.8,2.8-13.2,6.4-19.7,9.6c-1.5,0.7-3.1,0.7-4.5,1.5C249.5,254.5,249.1,254.5,248.6,254.6z"/>
	<path class="st5" d="M178.6,142.7c0.9-3.4,1.7-6.9,2.6-10.3c1.8-8.1,3.8-16.2,10.6-21.8c11.1-2.9,22.2-5.9,33.3-8.6
		c1.3-0.3,2.7-0.7,4.1-0.4c1.6,0.5,2.8,1.6,4,2.7c5.7,5.5,11.7,10.6,17.3,16.3c0.9,0.9,1.7,1.8,1.9,3.1c0,0.2,0.1,0.5,0,0.7
		c-4,13-8,26-13,38.6c-3.3,2.9-7.3,4.7-11,7c-6.5,4-13,7.9-19.5,11.9c-1.6,1-3.1,2.1-5.1,2c-3.5-1.7-5.2-5.2-7.6-7.9
		c-5.7-6.6-11.1-13.3-16.7-20c-1-1.2-2.1-2.4-2.7-4C176.3,148.7,176.7,145.6,178.6,142.7z"/>
	<path class="st6" d="M191.5,111.5c-3.2,2.4-4.2,6.3-5.8,9.7c-1.7,3.7-3,7.5-4.5,11.3c-3.1-1.8-6.5-0.8-9.8-0.8
		c-9.1-0.2-9.1-0.1-9.1-9.3c0-9.9,0.1-19.7,0-29.6c0-2.7,1-3.9,3.6-4c19.9-0.8,38.3-6.6,55.8-15.8c0.4-0.2,0.9-0.4,1.3-0.7
		c0.5,1,1,2,1.5,3.1c0.2,1.6-1.1,2.1-2,2.8C209.7,87,199.5,98.3,191.5,111.5z"/>
	<path class="st10" d="M177.3,152.4c8.1,9.7,16.3,19.3,24.4,29c0.6,0.7,1.2,1.3,1.8,1.9c4.8,2.9,6,6.8,3.7,12
		c-0.7,9.2-1.4,18.4-2.1,27.6c-0.3,4.1-0.6,8.2-0.9,12.3c-5.6-4.9-9.2-11.3-13.4-17.3c-3.7-3-4.7-7.7-6.7-11.7
		c-0.9-1.9-2.3-3.9-1.7-6.3c-1.2-4-2.4-8-3.6-12c-3.1-4.9-2.5-10.6-3.2-16c-0.6-4.8-0.3-9.7-0.1-14.6
		C175.5,155.4,175.7,153.6,177.3,152.4z"/>
	<path class="st6" d="M182.4,199.8c2.4,6.2,5.3,12.1,8.4,18c-0.7,3.4-4,4.3-6.1,6.3c-6,5.4-12.9,9.7-19.9,13.8
		c-2,1.2-2.6,0.5-2.6-1.6c0-12,0.1-24,0-36c0-2.2,0.8-3,2.9-2.7C170.9,198.2,176.6,199,182.4,199.8z"/>
	<path class="st6" d="M177.3,152.4c-1.7,10.9-0.8,21.6,1.1,32.3c0.2,1,0.2,2,0.4,3c-4-0.9-8-1.6-12.1-1.5c-3,0.1-4.5-0.9-4.5-4.3
		c0.2-11.6,0.2-23.2,0-34.8c0-3.1,1-3.7,3.9-3.8c4.2-0.1,8.5,0.9,12.6-0.7C178.2,146,177.7,149.2,177.3,152.4z"/>
	<path class="st9" d="M67,201.2c-3.1,5.8-8.4,8.9-14.2,11.3c-1.5,0.6-2.1,0.4-2.4-1.4c-1-5.6-2.5-11.1-5.9-15.9
		c-0.8-1.2-1.6-2.2-3.1-2.4c4.1-1.6,8.1,0,11.9,1C58.4,195.3,63.2,197.5,67,201.2z"/>
	<path class="st10" d="M191.5,111.5c-0.8-1.5,0.5-2.3,1.1-3.2c7.8-12.5,17.9-22.9,30-31.3c0.7-0.5,1.3-1.1,2-1.6
		c9-5.3,18.3-9.9,28.4-12.7c2.5-0.7,5.1-1.1,7.6-1.6c-6.5,10.3-12.9,20.7-19.4,31c-0.7,1-1.2,2.2-1.8,3.2c-1.5,5.2-4.2,7.1-9.6,6.9
		c-10.8,2.7-21.6,5.3-32.5,8C195.3,110.6,193.4,111,191.5,111.5z"/>
	<path class="st7" d="M229.7,102.2c4.2-0.9,7.7-2.8,9.6-6.9c4.5,4.3,9,8.6,13.5,12.9c0.7,0.7,1.7,1.1,2.3,1.9
		c3.9,5.6,9.2,6.9,15.9,6.6c10.7-0.5,21.5-0.2,32.2-0.2c2.4-0.8,4.9-2.4,6.8,0.9c-1.7,1.4-3.8,1.1-5.7,1.1c-14.2,0-28.4,0.1-42.6,0
		c-3.8,0-7.3,0-8.9,4.3c-0.2,0.5-0.7,0.6-1.2,0.7c-5.8-7-13.2-12.5-19.6-18.9C231.2,103.8,230.2,103.2,229.7,102.2z"/>
	<path class="st7" d="M310,117.2c-2.1-1.5-4.6-0.3-6.8-0.8c6.1-6.9,13.3-12.6,20-18.9c0.7-0.7,1.3-1.5,2-2.2
		c1.9,4.1,5.5,5.9,9.7,6.8c0.5,1-0.1,1.7-0.8,2.2c-6.6,6-13.1,12.2-19.6,18.3c-0.5,0.4-1,0.8-1.6,0.8
		C310.7,121.9,310,119.7,310,117.2z"/>
	<path class="st10" d="M310,117.2c1.7,1.7,1.6,4.3,2.9,6.2c1.1,0.6,1.4,1.7,1.8,2.8c3.9,11.2,7.4,22.6,11,33.9
		c0.3,0.9,0.6,1.9,0.2,2.9c0.1,0.4,0,0.8,0.2,1.1c2.5,4.5,2.1,8.2-2.8,10.8c-3,3.8-7.2,6-11,8.7c-7.8,5.7-15.6,11.5-23.6,17
		c-0.5,0.3-1,0.7-1.5,1.1c-4.9,3.7-7.1,3.3-11-1.7c-11.7-8.4-23.3-16.8-35-25.1c-5.2-1.1-7.7-5.3-2.7-11.9c4.5-13.1,9-26.3,13-39.6
		c2.7-6.3,2.7-6.3,9.9-6.3C277.7,117.2,293.8,117.2,310,117.2z"/>
	<path class="st5" d="M288.3,200c11.7-8.4,23.3-16.8,35-25.1c7.6,4.5,15.2,9,22.8,13.4c2.1,1.2,2.5,2.6,1.4,4.9
		c-10.2,21.2-25.4,37.8-46.3,48.9c-1.6,0.9-3.2,1.9-4.7,2.8c-3.8-0.1-7.1-1.3-9.1-4.8c-0.7-12.3-0.3-24.6-0.3-37
		C287.1,201.9,287.6,200.9,288.3,200z"/>
	<path class="st5" d="M325.9,163c-4.6-13.1-9-26.3-13-39.5c5.8-7.1,13.2-12.5,19.7-18.9c0.8-0.8,1.8-1.3,2.2-2.4
		c4.3,0.7,8.6,1.7,12.7,3.2c5.5,11.1,7.9,22.9,9.1,35.1c1.3,13.1-0.3,25.7-3.9,38.3C343.8,173.5,334.8,168.2,325.9,163z"/>
	<path class="st10" d="M288.3,241c2.6,1.5,5.2,3.1,8.2,3.9c0,0.2,0.1,0.4,0.1,0.6c-2.2-0.3-4.1,0.9-6,1.7
		c-13.1,5.2-26.6,7.7-40.6,7.4c7.6-3.8,15.2-7.7,22.8-11.5c1.2-0.6,2.3-1.3,3.5-2C280.9,237,284.6,237,288.3,241z"/>
	<path class="st7" d="M288.3,241c-4-2.6-8-2.6-12,0c0-13.7,0-27.3,0-41c4,4.1,8,4,12.1,0C288.3,213.6,288.3,227.3,288.3,241z"/>
	<path class="st7" d="M238.6,163c-0.1,0.4-0.1,0.8-0.2,1.1c-2.4,4.5-2,8.3,2.9,10.8c-11.4,6.8-22.7,13.6-34.1,20.4
		c0.7-4.6-0.2-8.7-3.7-12c6.8-2.4,12.2-7.1,18.4-10.6C227.5,169.6,233,166.2,238.6,163z"/>
</g>
</svg>
