<?xml version="1.0" encoding="UTF-8"?>
<svg width="1200" height="480" viewBox="0 0 1200 480" xmlns="http://www.w3.org/2000/svg" role="img" aria-label="数字人客服核心能力">
  <rect width="1200" height="480" rx="24" fill="#0F172A"/>
  <g font-family="Inter, system-ui, -apple-system, Segoe UI, Roboto, Helvetica, Arial" fill="#E2E8F0">
    <text x="600" y="56" text-anchor="middle" font-size="28" font-weight="700">核心能力一览</text>
    <g font-size="16">
      <rect x="80" y="100" width="310" height="120" rx="12" fill="#1F2937"/>
      <text x="235" y="140" text-anchor="middle" font-weight="600">数字人呈现</text>
      <text x="235" y="168" text-anchor="middle" opacity="0.85">2D/3D Avatar · 表情动作</text>

      <rect x="445" y="100" width="310" height="120" rx="12" fill="#1F2937"/>
      <text x="600" y="140" text-anchor="middle" font-weight="600">实时对话</text>
      <text x="600" y="168" text-anchor="middle" opacity="0.85">ASR+LLM+TTS · 打断</text>

      <rect x="810" y="100" width="310" height="120" rx="12" fill="#1F2937"/>
      <text x="965" y="140" text-anchor="middle" font-weight="600">多语字幕</text>
      <text x="965" y="168" text-anchor="middle" opacity="0.85">实时字幕 · 术语高亮</text>

      <rect x="80" y="260" width="310" height="120" rx="12" fill="#1F2937"/>
      <text x="235" y="300" text-anchor="middle" font-weight="600">知识驱动</text>
      <text x="235" y="328" text-anchor="middle" opacity="0.85">RAG · 工具调用</text>

      <rect x="445" y="260" width="310" height="120" rx="12" fill="#1F2937"/>
      <text x="600" y="300" text-anchor="middle" font-weight="600">录制质检</text>
      <text x="600" y="328" text-anchor="middle" opacity="0.85">时间线对齐 · 评分</text>

      <rect x="810" y="260" width="310" height="120" rx="12" fill="#1F2937"/>
      <text x="965" y="300" text-anchor="middle" font-weight="600">安全合规</text>
      <text x="965" y="328" text-anchor="middle" opacity="0.85">告知与水印 · 审计</text>
    </g>
  </g>
</svg>
