<?xml version="1.0" encoding="UTF-8"?>
<svg width="90px" height="90px" viewBox="0 0 90 90" version="1.1" xmlns="http://www.w3.org/2000/svg" xmlns:xlink="http://www.w3.org/1999/xlink">
    <title>Call Center</title>
    <g stroke="none" stroke-width="1" fill="none" fill-rule="evenodd">
        <g transform="translate(10.000000, 5.000000)" stroke="#3578E5" stroke-width="2">
            <path d="M50,20 C50,8.954 41.046,0 30,0 C18.954,0 10,8.954 10,20" stroke-linecap="round"></path>
            <path d="M0,25 C0,22.239 2.239,20 5,20 L55,20 C57.761,20 60,22.239 60,25 L60,75 C60,77.761 57.761,80 55,80 L5,80 C2.239,80 0,77.761 0,75 L0,25 Z"></path>
            <path d="M15,40 L45,40" stroke-linecap="round"></path>
            <path d="M15,50 L45,50" stroke-linecap="round"></path>
            <path d="M15,60 L45,60" stroke-linecap="round"></path>
            <circle cx="20" cy="30" r="5"></circle>
            <circle cx="40" cy="30" r="5"></circle>
            <circle cx="30" cy="70" r="5"></circle>
        </g>
    </g>
</svg>