<?xml version="1.0" encoding="utf-8"?>
<!-- Generator: Adobe Illustrator 23.0.0, SVG Export Plug-In . SVG Version: 6.00 Build 0)  -->
<svg version="1.1" id="Capa_1" xmlns="http://www.w3.org/2000/svg" xmlns:xlink="http://www.w3.org/1999/xlink" x="0px" y="0px"
	 width="512px" height="341.3px" viewBox="0 0 512 341.3" style="enable-background:new 0 0 512 341.3;" xml:space="preserve">
<style type="text/css">
	.st0{fill-rule:evenodd;clip-rule:evenodd;fill:#234C8B;}
	.st1{fill-rule:evenodd;clip-rule:evenodd;fill:#FFFFFF;}
	.st2{fill-rule:evenodd;clip-rule:evenodd;fill:#CC202A;}
	.st3{fill:none;stroke:#000000;stroke-width:0.497;stroke-miterlimit:2.613;}
</style>
<path class="st0" d="M512,298.5V41.8H0v256.7H512z"/>
<path class="st1" d="M256,175.2V41.8H0v133.3L256,175.2L256,175.2z"/>
<path class="st0" d="M115.1,98.6V41.8H0v56.8H115.1L115.1,98.6z M115.1,118.6v56.6H0v-56.6H115.1L115.1,118.6z M140.9,98.6V41.8H256
	v56.8H140.9L140.9,98.6z M140.9,118.6v56.6H256v-56.6H140.9z"/>
<path class="st1" d="M75.9,98.6h39.2v-6.7l-97-50.1H0v17.4L75.9,98.6L75.9,98.6z"/>
<path class="st2" d="M256,115.3v-13.1H0v13.1H256L256,115.3z M0,54.3V41.8l108.3,56.8H85.7L0,54.3z"/>
<path class="st1" d="M76.2,118.6h38.9v7.5l-84.4,49H0v-12.8L76.2,118.6z M180.1,98.6h-39.2v-6.7l97-50.1H256v17.4L180.1,98.6z
	 M179.7,118.6h-38.9v7.5l84.4,49H256v-12.8L179.7,118.6z"/>
<path class="st2" d="M236.2,175.2l-95.4-56.6h16.9l98.2,56.6L236.2,175.2L236.2,175.2z M135.7,175.2V41.8h-15.3v133.3L135.7,175.2
	L135.7,175.2z M19.7,175.2l95.4-56.6H98.2L0,175.2H19.7L19.7,175.2z M256,54.3V41.8L147.7,98.6h22.5L256,54.3z"/>
<path class="st1" d="M393.3,256.4l2.4,6.6l6.6-2.2l-3.6,6l5.8,3.8l-6.9,0.9l0.7,7l-5-4.9l-5,4.9l0.7-7l-6.9-0.9l5.8-3.8l-3.6-6
	l6.6,2.2L393.3,256.4L393.3,256.4z M135,215.6l4.8,13.1l13.2-4.4l-7.2,12l11.7,7.7l-13.8,1.8l1.3,13.9l-10-9.7l-10,9.7l1.3-13.9
	l-13.8-1.8l11.7-7.7l-7.2-12l13.2,4.4L135,215.6L135,215.6z M341.5,148.9l2.4,6.6l6.6-2.2l-3.6,6l5.8,3.8l-6.9,0.9l0.7,7l-5-4.9
	l-5,4.9l0.7-7l-6.9-0.9l5.8-3.8l-3.6-6l6.6,2.2L341.5,148.9L341.5,148.9z M395.2,65.1l2.4,6.6l6.6-2.2l-3.6,6l5.8,3.8l-6.9,0.9
	l0.7,7l-5-4.9l-5,4.9l0.7-7l-6.9-0.9l5.8-3.8l-3.6-6l6.6,2.2L395.2,65.1L395.2,65.1z M453,128.9l2.4,6.6l6.6-2.2l-3.6,6l5.8,3.8
	l-6.9,0.9l0.7,7l-5-4.9l-5,4.9l0.7-7l-6.9-0.9l5.8-3.8l-3.6-6l6.6,2.2L453,128.9L453,128.9z M426.9,186.2l1.5,4.1h4.3l-3.4,2.7
	l1.2,4.2l-3.6-2.4l-3.6,2.4l1.2-4.2l-3.4-2.7h4.3L426.9,186.2z"/>
<path class="st3" d="M512,298.5V41.8H0v256.7H512z"/>
</svg>
