<svg width="192" height="192" viewBox="0 0 192 192" fill="none" xmlns="http://www.w3.org/2000/svg">
  <rect width="192" height="192" rx="32" fill="#3386FF"/>
  <g>
    <path d="M47 34C47 34 60 46 97 63C134 80 120 112 120 112C120 112 126 90 144 86C162 82 156 54 176 94C176 94 154 86 144 120C134 154 90 154 90 154C90 154 80 148 74 146C68 144 52 158 52 158C52 158 36 146 24 114C12 82 34 90 34 90C34 90 80 104 80 104C80 104 44 92 47 34Z" fill="white"/>
    <circle cx="148" cy="78" r="3" fill="#3386FF"/>
  </g>
</svg>