<?xml version="1.0" encoding="utf-8"?>
<!-- Generator: Adobe Illustrator 22.1.0, SVG Export Plug-In . SVG Version: 6.00 Build 0)  -->
<svg version="1.1" id="Layer_1" xmlns="http://www.w3.org/2000/svg" xmlns:xlink="http://www.w3.org/1999/xlink" x="0px" y="0px"
	 viewBox="0 0 2415.2 598" style="enable-background:new 0 0 2415.2 598;" xml:space="preserve">
<style type="text/css">
	.st0{fill:url(#SVGID_1_);}
	.st1{fill:#FFFFFF;}
	.st2{fill:#182359;}
</style>
<linearGradient id="SVGID_1_" gradientUnits="userSpaceOnUse" x1="1324.224" y1="292.3224" x2="1330.111" y2="286.6224" gradientTransform="matrix(170.576 0 0 170.625 -226106.4688 -49070.5078)">
	<stop  offset="0" style="stop-color:#00AEFF"/>
	<stop  offset="1" style="stop-color:#3369E7"/>
</linearGradient>
<path class="st0" d="M78.7,0h440.4c43.3,0,78.7,35.2,78.7,78.7v440.6c0,43.3-35.2,78.7-78.7,78.7H78.7C35.4,598,0,562.8,0,519.3
	V78.5C0,35.2,35.2,0,78.7,0L78.7,0z"/>
<path class="st1" d="M305.8,151.1c-93.2,0-168.9,75.6-168.9,169S212.6,489,305.8,489s168.9-75.6,168.9-169S399.2,151.1,305.8,151.1
	L305.8,151.1z M305.8,439.1c-65.7,0-119-53.3-119-119s53.3-119,119-119s119,53.3,119,119S371.6,439.1,305.8,439.1z M305.8,225.5
	v88.7c0,2.5,2.7,4.4,5.1,3.1l78.7-40.8c1.8-0.9,2.4-3.1,1.5-4.9c-16.3-28.7-46.6-48.2-81.6-49.5C307.6,222,305.8,223.5,305.8,225.5
	L305.8,225.5z M195.5,160.3L185.2,150c-10.2-10.2-26.5-10.2-36.6,0l-12.3,12.3c-10.2,10.2-10.2,26.5,0,36.6l10.2,10.2
	c1.6,1.6,4,1.3,5.4-0.4c6-8.2,12.5-16,19.8-23.2c7.4-7.4,15.1-14,23.4-20C196.8,164.5,197,162,195.5,160.3L195.5,160.3z
	 M361.1,133.5V113c0-14.3-11.6-25.9-25.9-25.9h-60.4c-14.3,0-25.9,11.6-25.9,25.9v21c0,2.4,2.2,4,4.5,3.4
	c16.9-4.9,34.6-7.4,52.6-7.4c17.2,0,34.3,2.4,50.8,6.9C358.9,137.5,361.1,135.9,361.1,133.5L361.1,133.5z"/>
<path class="st2" d="M1494.7,457.4c0,48.4-12.3,83.8-37.2,106.3c-24.8,22.5-62.8,33.7-113.9,33.7c-18.7,0-57.5-3.6-88.5-10.5
	l11.4-56.2c25.9,5.4,60.2,6.9,78.2,6.9c28.5,0,48.8-5.8,60.9-17.4c12.2-11.6,18.1-28.8,18.1-51.7v-11.6c-7.1,3.4-16.3,6.9-27.8,10.5
	c-11.4,3.4-24.7,5.3-39.5,5.3c-19.6,0-37.4-3.1-53.5-9.3c-16.1-6.2-30.1-15.2-41.5-27.2c-11.4-12-20.5-27-26.8-45
	c-6.3-18-9.6-50.1-9.6-73.6c0-22.1,3.4-49.9,10.2-68.4c6.9-18.5,16.7-34.5,29.9-47.7c13.1-13.2,29-23.4,47.7-30.8
	c18.7-7.4,40.6-12.2,64.4-12.2c23,0,44.3,2.9,64.9,6.3c20.7,3.4,38.3,7.1,52.6,11.1L1494.7,457.4z M1297.6,317.4
	c0,29.7,6.5,62.8,19.6,76.5s29.9,20.7,50.6,20.7c11.2,0,21.9-1.6,31.9-4.7s18-6.7,24.3-11.1V222.7c-5.1-1.1-26.3-5.4-46.8-6
	c-25.8-0.7-45.3,9.8-59.1,26.7C1304.5,260.3,1297.6,289.8,1297.6,317.4L1297.6,317.4z M1831.4,317.4c0,23.9-3.4,42.1-10.5,61.8
	s-17,36.6-29.9,50.6c-12.9,14-28.3,24.8-46.4,32.5c-18.1,7.6-46.1,12-60,12c-14-0.2-41.7-4.2-59.7-12c-18-7.8-33.4-18.5-46.3-32.5
	c-12.9-14-22.9-30.8-30.1-50.6c-7.3-19.8-10.9-37.9-10.9-61.8c0-23.9,3.3-47,10.5-66.6c7.3-19.6,17.4-36.3,30.5-50.2
	c13.1-14,28.7-24.7,46.4-32.3c18-7.6,37.7-11.2,59.1-11.2s41.2,3.8,59.3,11.2c18.1,7.6,33.7,18.3,46.4,32.3
	c12.9,14,22.9,30.7,30.1,50.2C1827.6,270.4,1831.4,293.5,1831.4,317.4L1831.4,317.4z M1758.8,317.6c0-30.7-6.7-56.2-19.8-74
	c-13.1-18-31.4-26.8-54.8-26.8c-23.4,0-41.7,8.9-54.8,26.8c-13.1,18-19.4,43.3-19.4,74c0,31,6.5,51.9,19.6,69.8
	c13.1,18.1,31.4,27,54.8,27s41.7-9.1,54.8-27C1752.3,369.3,1758.8,348.6,1758.8,317.6L1758.8,317.6z M1989.3,474.3
	c-116.3,0.5-116.3-94-116.3-109l-0.2-335.2l70.9-11.2v333c0,8.5,0,62.6,45.5,62.8V474.3z M2114.3,474.3H2043V168.1l71.3-11.2V474.3z
	 M2078.6,123.3c23.8,0,43.2-19.2,43.2-43s-19.2-43-43.2-43s-43.2,19.2-43.2,43S2054.8,123.3,2078.6,123.3L2078.6,123.3z
	 M2291.5,157.1c23.4,0,43.2,2.9,59.1,8.7c16,5.8,28.8,14,38.3,24.3c9.4,10.3,16.1,24.5,20.1,39.4c4.2,14.9,6.2,31.2,6.2,49.2v182.5
	c-10.9,2.4-27.4,5.1-49.5,8.3c-22.1,3.3-47,4.9-74.5,4.9c-18.3,0-35.2-1.8-50.2-5.3c-15.2-3.4-28.1-9.1-39-16.9
	c-10.7-7.8-19-17.8-25.2-30.1c-6-12.3-9.1-29.7-9.1-47.9c0-17.4,3.4-28.5,10.2-40.4c6.9-12,16.1-21.8,27.8-29.4
	c11.8-7.6,25.2-13.1,40.6-16.3c15.4-3.3,31.6-4.9,48.2-4.9c7.8,0,16,0.5,24.7,1.5s17.8,2.5,27.6,4.9v-11.6c0-8.2-0.9-16-2.9-23.2
	c-2-7.4-5.4-13.8-10.2-19.4c-4.9-5.6-11.2-10-19.2-13.1s-18.1-5.4-30.3-5.4c-16.3,0-31.2,2-44.8,4.4s-24.8,5.1-33.4,8.2l-8.5-58.2
	c8.9-3.1,22.1-6.2,39.2-9.3S2271.9,157.1,2291.5,157.1L2291.5,157.1z M2297.5,414.4c21.8,0,37.9-1.3,49.2-3.4v-72.2
	c-4-1.1-9.6-2.4-17-3.4c-7.4-1.1-15.6-1.8-24.7-1.8c-7.8,0-15.8,0.5-23.8,1.8c-8,1.1-15.2,3.3-21.6,6.3c-6.3,3.1-11.6,7.4-15.4,13.1
	c-4,5.6-5.8,8.9-5.8,17.4c0,16.7,5.8,26.3,16.3,32.6C2265.4,411.4,2279.5,414.4,2297.5,414.4L2297.5,414.4z M896.9,158.9
	c23.4,0,43.2,2.9,59.1,8.7c16,5.8,28.8,14,38.3,24.3c9.6,10.5,16.1,24.5,20.1,39.4c4.2,14.9,6.2,31.2,6.2,49.2v182.5
	c-10.9,2.4-27.4,5.1-49.5,8.3c-22.1,3.3-47,4.9-74.5,4.9c-18.3,0-35.2-1.8-50.2-5.3c-15.2-3.4-28.1-9.1-39-16.9
	c-10.7-7.8-19-17.8-25.2-30.1c-6-12.3-9.1-29.7-9.1-47.9c0-17.4,3.4-28.5,10.2-40.4c6.9-12,16.1-21.8,27.8-29.4
	c11.8-7.6,25.2-13.1,40.6-16.3c15.4-3.3,31.6-4.9,48.2-4.9c7.8,0,16,0.5,24.7,1.5c8.5,0.9,17.8,2.5,27.6,4.9v-11.6
	c0-8.2-0.9-16-2.9-23.2c-2-7.4-5.4-13.8-10.2-19.4c-4.9-5.6-11.2-10-19.2-13.1c-8-3.1-18.1-5.4-30.3-5.4c-16.3,0-31.2,2-44.8,4.4
	s-24.8,5.1-33.4,8.2l-8.5-58.2c8.9-3.1,22.1-6.2,39.2-9.3C859,160.3,877.3,158.9,896.9,158.9L896.9,158.9z M903.1,416.4
	c21.8,0,37.9-1.3,49.2-3.4v-72.2c-4-1.1-9.6-2.4-17-3.4c-7.4-1.1-15.6-1.8-24.7-1.8c-7.8,0-15.8,0.5-23.8,1.8
	c-8,1.1-15.2,3.3-21.6,6.3c-6.3,3.1-11.6,7.4-15.4,13.1c-4,5.6-5.8,8.9-5.8,17.4c0,16.7,5.8,26.3,16.3,32.6S885.1,416.4,903.1,416.4
	L903.1,416.4z M1190.6,474.3c-116.3,0.5-116.3-94-116.3-109l-0.2-335.2l70.9-11.2v333c0,8.5,0,62.6,45.5,62.8L1190.6,474.3z"/>
</svg>
