<?xml version="1.0" encoding="utf-8"?>
<!-- Generator: Adobe Illustrator 23.0.0, SVG Export Plug-In . SVG Version: 6.00 Build 0)  -->
<svg version="1.1" id="Layer_1" xmlns="http://www.w3.org/2000/svg" xmlns:xlink="http://www.w3.org/1999/xlink" x="0px" y="0px"
	 width="2353.8px" height="2375.1px" viewBox="0 0 2353.8 2375.1" style="enable-background:new 0 0 2353.8 2375.1;"
	 xml:space="preserve">
<style type="text/css">
	.st0{fill-rule:evenodd;clip-rule:evenodd;}
	.st1{fill-rule:evenodd;clip-rule:evenodd;fill:#FFFFFF;}
	.st2{fill-rule:evenodd;clip-rule:evenodd;fill:#C1352C;}
</style>
<g>
	<path class="st0" d="M1180.4,55C551.6,55,41.1,565.7,41.1,1194.7c0,629,510.6,1139.7,1139.4,1139.7
		c628.8,0,1139.4-510.7,1139.4-1139.7C2319.8,565.7,1809.3,55,1180.4,55L1180.4,55z"/>
	<path class="st1" d="M1180.4,79.4c615.6,0,1114.9,499.4,1114.9,1115.2S1796,2309.9,1180.4,2309.9S65.6,1810.5,65.6,1194.7
		S564.8,79.4,1180.4,79.4z"/>
	<path class="st0" d="M1179.8,363.1c-459,0-831.2,372.4-831.2,831.6s372.2,831.6,831.2,831.6s831.2-372.4,831.2-831.6
		S1638.8,363.1,1179.8,363.1L1179.8,363.1z"/>
	<path class="st1" d="M1179.8,381.7c448.8,0,812.7,364,812.7,812.9s-363.9,813-812.7,813s-812.7-364-812.7-813
		S731,381.7,1179.8,381.7L1179.8,381.7z"/>
	<path class="st0" d="M705.6,1325.9l27.7,84.3c22.2,67.9,34.2,93,58.7,133.2c41.3,67.4,80.9,136.4,134.1,195.7
		c56,62.5,117.9,120.6,186.3,169.6l57.6,35.3l50-33.2c123.9-82.1,206.4-192.4,315.6-344c6.5-8.8,7-13.6,19.6-31
		c12.5-17.4,28.2-45.1,28.8-46.2c50.6-96.2,56.5-125.5,81-192.4c8.6-22.3,16.3-62,21.7-85.3c6.5-28.8,8.7-89.7,8.7-128.3V647H664.3
		l0.6,439.8c-0.6,29.3,5.4,58.1,9.7,86.9C682.3,1224.8,692,1275.9,705.6,1325.9z"/>
	<path class="st1" d="M1208.3,1032.9c0,2.2-20.6,31-40.7,34.8l-467.8,0.6c-15.3,0-15.3-20.2-15.3-25v-149
		c0-23.4,26.6-21.7,10.9-21.7h472.2c1.6,0,10.9,1.1,10.9-6.5V671.4l10.8-2.7l42.9,64.7c-4.3,14.1-15.8,26.6-19.5,41.3
		c-1.1,4.3,1.6,9.8,3.8,14.1c2.8,4.9,12.5,6,15.2,4.3c8.8-6.5,18.5-16.3,25-27.7l32.1,25c1.6,0.6-34.2,32.1-39.1,86.9
		c-1.1,10.4-12,27.8-18.5,24.5c-15.2-7.6,9.3-40.2-1.1-62.5c-2.7-6.5-13.6-6.5-19-2.2c-6.5,6-2.7,15.2-3.2,22.3L1208.3,1032.9z
		 M1225.4,1077.8l437.9,1.1c10.9,0,17.4,6-4.9,21.7l-61.9,49.5c0.5,0-16.8-15.2-24.4-19c-12-6.5-17.4-7.6-29.9-4.9
		c-4.3,0.6-7.6,6-8.1,10.4c-1.6,10.4,9.8,18.5,17.9,20.1c6.5,1.1,21.8,12.5,21.8,12.5l-31,29.9c0,0-10.3-1.6-14.1-5.4
		c-3.8-3.8-23.9-25.6-26.1-26.1c-15.8-6.5-30.9-11.4-53.7-15.2c-0.5,0-47.8,2.7-51.7-4.9c-4.9-9.8,37.5-18.5,48.9-19.5
		c13.1-1.1,20.1-0.6,28.2-1.1c22.3-2.7,19.6-14.2,13.1-14.2h-9.2l-254.8,0.6c-12.5,0-14.7-6.5-27.7-15.2c-3.3-2.2-14.7-13.6-13-17.4
		C1198.8,1077.8,1209.1,1074.6,1225.4,1077.8L1225.4,1077.8z"/>
	<path class="st2" d="M707.3,1083.4l434.4,0.7c8.5,0,18.2,4.6,18.2,14.2v161.1c0,8.4-4.6,18.1-14,18.1l-424-1.2
		c-9.1,0-12.8-7.4-12.8-17.6l-24.7-156.4C684.3,1092.2,698.5,1083.4,707.3,1083.4z M704,666.7h437.7c8.5,0,18.1,4.6,18.1,14.2v161.1
		c0,8.4-4.5,18.2-14.1,18.2H704c-9.1,0-19.7-4.5-19.7-14.9V680C684.3,669.9,695.2,666.7,704,666.7z"/>
	<path class="st1" d="M1465.3,1033.5c7-0.5,20.1-2.7,20.1,5.4c0,6.5-4.4,6.5-8.1,8.1l-236.4-0.5h-15.2c-7.1-1.6-2.2-7.6,4.4-13.1
		L1657,696c10.4-7.7,15.8-4.9,15.8,7l0.6,347.9c0,6.5,1.7,15.2-3.8,15.2c-4.9,0-8.1-3.3-12.5-4.9l-65.1-36.4
		c-10.9,11.4-25.5,20.7-41.3,19.6c-6-0.5-14.2-2.2-13.6-9.3c1.1-15.2,40.2-33.2,40.7-32.6l-28.2-35.3c-2.7-3.3-6.5-0.5-9.8,0
		c-13,1.6-19.6,14.7-31,20.1c-33.7,15.7-77.1,20.7-105.4,15.7c-3.9-1.1-10.4,3.8-6,7.7C1415.5,1028,1440.4,1036.3,1465.3,1033.5
		L1465.3,1033.5z M777.1,1479.5c-31.6-69.6-50.5-143.5-54.4-160.9c-4.3-17.4,11.5-21.7,26.6-21.7H1145c5.4,0,12.5-2.7,16.8,1.1
		c6,5.4,3.3,14.1,4.3,21.8v171.8c0.5,16.8-7,13.1-10.4,15.2H816.3C787.5,1506.7,785.3,1497.4,777.1,1479.5L777.1,1479.5z
		 M1541.7,1484.8l13.6,14.7c2.2,4.9-1.6,7-5.4,17.4c0,1.6-8.1,10.9-14.1,19.6c-56.5,84.3-182.6,251.1-287.4,333.2
		c-6.5,5.4-33.2,28.2-41.3,34.2c-7.1,4.9-22.8,16.3-30.4,17.4c-8.2,1.7-5.4-23.9-6-28.8c0-1.1,0.6-2.7,0.6-3.8l44.5-45.1
		c4.9-6-7.6-20.6-13.1-22.9c-5.9-2.2-11.9-8.7-11.9-21.2c0-4.4,6-7.6,9.8-10.4c8.6-4.8,18.5,12,22.8,18c4.4,6,8.7,20.6,11.4,18.5
		l41.3-37.6c0-4.3-5.4-6.5-7.6-9.7c-25-34.3-35.3-72.8-20.1-120.7c5.4-16.8,1-20.1-13.7,0c-14.6,20.1-13.6,46.8-20.6,70.7
		c-6,19.5-17.4,24.5-17.4,18.5l1.1-14.7v-584.4c0.5-24,25.5-12,30.4-6.5L1541.7,1484.8L1541.7,1484.8z"/>
	<path class="st2" d="M827.6,1518.7h313.9c8.5,0,18.2,4.6,18.2,14.2V1694c0,8.5-4.5,18.2-13.9,18.2H943.9
		c-19.9,0-19.7-2.2-27.6-10.5c-29.2-30-104.5-149.9-113.8-177.6C800,1517.2,818.9,1518.7,827.6,1518.7L827.6,1518.7z"/>
	<path class="st0" d="M293.4,1796.1c13.4,20.2,27.5,40,42.3,59.3l5.5-4.2c-1.5-2.1-3.2-4.1-4.7-6.2c-8.1-10.6-6.9-21.1,1.3-26.9
		l90.5-65.5c-24.5,44.2-46.4,89.8-65.3,136.7c1,1.3,2.1,2.6,3.2,3.9c49.4-10.5,98.1-23.9,145.8-40.2l-80,76.9
		c-7.5,7.4-17.9,5.8-24.2-0.3c-2.7-2.9-5.4-5.8-8.1-8.7l-5.1,4.7c20.7,22.7,42.4,44.5,65,65.3l4.8-5.1c-2.3-2.1-4.6-4.2-6.9-6.3
		c-8.1-7.6-9.3-18.3-2.4-25.4l88.2-90.7c7.4-6.8,16.7-6.5,22.7-0.8c2.1,1.9,4.1,3.9,6.2,5.8l4.8-5.1c-12.1-11.2-23.9-22.7-35.4-34.5
		c-45,16.4-90.8,30.2-137.4,41.2c18.3-44.1,39.1-87.1,62.4-128.9c-10-13.4-19.5-27.1-28.7-41l-5.7,3.7c1.3,2.1,2.7,4.2,4.1,6.2
		c5.9,8.7,4.3,18.3-3.1,23.4L329.8,1806c-9.8,6.1-19.3,2.9-24.2-3.9c-2.3-3.2-4.5-6.4-6.6-9.7L293.4,1796.1L293.4,1796.1z
		 M521.2,596.8c17-19.1,34.8-37.5,53.4-55.1l-4.6-4.9c-1.6,1.5-3.2,3.1-4.7,4.7c-8.1,7.7-17.6,7.5-25,0.2l-39.9-39.9
		c2.9-2.9,5.7-5.8,8.7-8.6c34.4,3.8,68.2,9.5,100.8,16.9c12.3-10.4,24.8-20.5,37.6-30.2l-4.2-5.4c-14.3,9.7-22.1,10.7-32.9,8.1
		c-26-6.2-52.3-11.3-78.8-15.3c6.9-8.8,11.7-19.2,13.9-30.2c2.3-13.3,0.1-24.6-8.4-34.8c-7.6-9.2-21-15.1-36-13.6
		c-12,1.2-25.5,5.7-46.5,25.4c-11.3,10.7-21.1,22.9-31.8,34c-10.7,10.9-21.1,22.1-31.3,33.6l5.4,4.7c1.7-1.9,3.2-3.6,4.9-5.4
		c8.7-9.8,19.5-10.9,26.3-4.5c30.8,28.8,61.7,57.7,92.5,86.5c6.5,6.1,7,16.5,0,24.3c-1.6,1.6-3.2,3.4-4.7,5.1
		C517.7,593.9,519.4,595.3,521.2,596.8L521.2,596.8z M1979.5,1910c20.2-23,39.4-46.9,57.5-71.6l-5.5-4.1c-1.5,2.1-3.1,4.2-4.7,6.3
		c-7.9,10.6-18.2,12.6-26.3,6.1l-44.4-34.5c2.5-3.2,5-6.6,7.5-9.8c35.4-1.6,70.7-5.1,105.8-10.6c10.5-16.1,20.6-32.4,30.2-49
		l-6.1-3.5c-11,17.2-18.9,21.7-30.5,23.6c-27.2,4.3-54.6,7.5-82,9.6c5.2-10.5,7-22.5,5.8-32.7c-1.7-13.2-7.4-23-18.7-30.2
		c-10.1-6.4-24.3-8.1-37.3-4.1c-10.3,3-20.7,9.4-34.9,28.8c-7.7,10.5-14.2,21.7-22.3,31.8c-8,10-16.2,19.8-24.7,29.5l5.4,4.7
		c1.4-1.6,2.9-3.2,4.3-4.8c7.2-8.2,16.9-9.2,24-3.3c32.6,27,65.1,53.8,97.6,80.8c6.9,5.7,7.3,16.8-0.9,26.3
		c-1.7,2.1-3.5,4.1-5.3,6.2C1976,1907,1977.8,1908.5,1979.5,1910L1979.5,1910z M413.2,747.2c12.7-22.2,26.4-43.9,40.9-65l-5.6-3.8
		c-1.3,1.9-2.5,3.6-3.7,5.5c-6.4,9.3-15.7,11.1-24.4,5.4l-47.2-30.8c2.2-3.4,4.5-6.8,6.7-10.2c33.9-3.3,68-4.7,102.1-4.2
		c9.8-12.7,20-25.2,30.5-37.3l-5.2-4.6c-12,12.4-19.4,15-30.6,14.7c-26.8-0.6-53.6-0.1-80.3,1.5c5.2-10.5,7.8-22.3,7.3-32.5
		c-0.3-13.6-4.8-24.2-15.3-32.5c-9.3-7.4-23.7-10.4-37.9-5.8c-11.5,3.6-23.8,10.9-40.4,34.6c-8.8,12.7-15.8,26.6-24,39.7
		c-8.1,13-16,26.1-23.6,39.3l6.3,3.7c1.2-2.2,2.5-4.3,3.7-6.5c6.5-11.3,16.8-14.6,24.7-9.8c36.1,21.9,72.2,43.7,108.4,65.6
		c7.6,4.6,10.3,14.6,5,23.7c-1.1,2.1-2.3,3.9-3.5,6.1C409.2,745,411.2,746.1,413.2,747.2L413.2,747.2z M1064.9,306.7
		c20.2-2.7,40.4-4.8,60.8-6.2l-0.3-6.6c-2.2,0.2-4.4,0.3-6.5,0.5c-11.7,0.8-18.7-5.3-19.5-14.5l-10.6-110.9
		c46.8,39,89.6,82.6,127.7,130.1c1.9,0.1,3.9,0.1,6,0.2l6.1-149.5c0.4-10.3,8.5-16.4,21.3-15.7l8.3,0.5l0.5-6.8
		c-24.3-1.7-48.7-2.5-73.1-2.5v6.9h7.8c13.5,0.2,21,7.2,20.7,17.3l-2.7,99.9c-37.3-43.5-78.6-83.6-123.2-119.6
		c-15.5,1.4-31,3.2-46.4,5.3l0.9,6.9c8-1,16.1,1.5,22.2,6.8c2.7,2.3,5.5,4.8,8.4,7.1l13.5,124.3c0.8,11.1-5.4,17.8-15,19.1
		c-2.5,0.3-5,0.6-7.6,0.9L1064.9,306.7L1064.9,306.7z M669.4,463.7c20.8-14.8,42.2-28.7,64.1-41.7l-3.4-5.8
		c-2.2,1.3-4.2,2.5-6.3,3.8c-8.9,5.3-18.2,3.1-23-4.7c-9.1-14.3-18.1-28.7-27.2-43c1-28.9,3.3-58.1,6.8-87.5
		c3.4-23.9,12.3-31.9,23.8-36.7l-3.1-6c-20.7,10.7-41,22-61.1,33.8l3.5,5.8c2.2-1.4,4.6-2.7,6.9-4.1c7.6-4.5,12.3-2.6,14.3,0.9
		c1.5,2.6,1.7,5.7,1.2,9.9c-2.6,24.7-4.3,49.5-5.1,74.3c-22.8-9.8-46-18.8-69.5-26.9c-3.4-1.3-6.7-1.5-9.3-5.2
		c-2.5-3.5-1.5-7.8,4.2-11.7c3.6-2.5,7.3-5,10.9-7.4l-3.9-5.8c-25.7,17.3-50.7,35.8-74.9,55.3l4.2,5.1c12.1-10.3,22.6-13.3,41.3-7.4
		c28.6,8.7,56.8,18.7,84.5,29.9l27.7,41.2c5.7,8.5,3.2,18.7-3.3,23.3c-2.4,1.7-4.8,3.4-7.2,5.1C666.7,460.1,668.1,461.8,669.4,463.7
		L669.4,463.7z M811.1,200.6c2.7-1.1,5.4-2.2,8.2-3.2c11.3-4.1,20.9,0,23.6,8l29.4,84.1c7.6,20.6,16.7,30,25.9,35.6
		c12.5,7.8,32.5,11.8,59.3,4.6c20.8-5.5,34.9-14.6,43.3-23.8c10.8-11.8,17.2-27,12-55.4l-15.7-85.6c-1.6-8.1,5.9-17,16.1-18.7
		c3.3-0.5,6.6-1,9.9-1.5l-1.2-7c-24.1,3.8-48.1,8.4-71.9,13.9l1.4,6.7c3.3-0.8,6.5-1.5,9.7-2.1c10.4-2.3,19.6,3,21.3,11.3
		c5.8,29,11.8,58.1,17.6,87.1c3.7,18.8,0.4,30.5-5,38.7c-5.8,9.2-18.4,18.8-34.6,23c-15.5,4-30.8,0.9-42.1-7.7
		c-7.1-5.4-12.5-11.9-17.8-28.4l-26.1-83.3c-3.2-9.8,3.2-19,11.5-21.5c3.7-1,7.4-2.1,11.1-3.2l-1.8-6.5c-29.4,8.4-58.4,18-86.9,28.8
		C809.4,196.3,810.3,198.4,811.1,200.6L811.1,200.6z M1668.1,2153.7c47.1-24.4,92.4-52.2,135.4-83.3c-4.5-16.1-9.3-32.1-14.2-47.9
		l-6.4,3.3c4,23,2.3,28.3,0.4,34c-3.2,9.7-9.5,18.3-22.2,26.7c-11,7.3-22,14.4-33.3,21.2c-7.2,4.3-12.4,3.2-15.7-2.2
		c-21.8-36.9-43.5-73.8-65.4-110.8c-4.9-9.2-2.5-17.9,6.4-23.4c2-1.2,4-2.4,6-3.7l-3.9-5.8c-21.6,13.7-43.8,26.4-66.5,38.1l3.2,6
		c1.8-0.9,3.5-1.8,5.5-2.9c10.1-5.3,19.4-2.2,23.6,5.3c20.3,36.8,40.6,73.4,60.9,110.1c5.1,10.6,0.5,20-7.8,24.5
		c-3.1,1.7-6.2,3.3-9.3,4.9C1666,2149.7,1667,2151.7,1668.1,2153.7L1668.1,2153.7z M1537.5,371.2c42,18.1,82.5,39.4,121.1,63.7
		c11.7-9.7,23.6-19.1,35.6-28.4c-1.4-1.5-2.9-3.1-4.3-4.7c-7.8,4.1-16.4,9.9-24.3,11.5c-9.8,2.1-20.5,0.4-30.4-5.3
		c-13-7.6-26.3-14.8-39.7-21.7c-3.5-1.7-4.7-5.5-3.3-8.2l30.5-60.7c14.4,7.2,28.7,14.8,42.7,22.8c11.1,6.2,13.3,16.4,9,23.8
		l-5.5,9.2c2,1.2,4.2,2.6,6.4,3.8l33.6-55.7c-2.2-1.3-4.5-2.7-6.7-4.1l-4.4,7.5c-5.7,9.6-16.1,11.9-26.7,6
		c-14.1-8.1-28.4-15.7-42.9-23l30.5-60.5c15.5,7.8,30.8,16,45.9,24.6c21.9,12.4,27.1,27.1,18.5,45.5c2.2,1.4,4.4,2.8,6.7,4.2
		c6-11.7,11.8-23.4,17.8-35.1c-45.2-28.2-92.4-53-141.4-74l-2.6,6.1l11.5,5c8.7,3.9,12.6,11.9,9,19.5L1568.7,362
		c-3.5,7.7-12.1,10.6-18.6,7.7c-3.4-1.5-6.8-3-10.1-4.4C1539.1,367.2,1538.4,369.2,1537.5,371.2L1537.5,371.2z M1436.9,334.7
		c2.2,0.6,4.4,1.3,6.6,2.1c33.6-40.7,69.7-79.2,108-115.4c15.9-15.3,27.7-14.3,37.3-8.9l2.7-6.4c-19.4-8-39-15.5-58.9-22.3l-2.2,6.5
		c1.3,0.5,2.5,0.9,3.8,1.4c11,3.8,13.6,9.7,11.6,14.8c-0.7,1.8-1.8,3.3-3.3,4.5c-28.7,27.3-56.1,55.9-82.1,85.7
		c-4.3-38.5-10.4-76.8-18.2-114.8c-1-4.2-1.1-5.7-0.6-7.7c1.4-5.3,6.2-8.4,15.8-6.4c3.1,0.8,6.2,1.7,9.3,2.5l1.8-6.4
		c-27.7-7.6-55.7-14.1-83.8-19.5l-1.2,6.6c12.4,1.7,22,9.1,25.3,22.7C1421.6,226.6,1431,280.4,1436.9,334.7L1436.9,334.7z
		 M1973.4,775.9c11.9,22.7,22.9,46,32.7,69.8l6.3-2.6c-0.8-2.1-1.8-4.3-2.7-6.4c-4.4-10.2-0.6-18.7,6.1-22.4
		c42.7-19.1,85.5-38.4,128.2-57.7c4,8.6,7.6,17.2,11.3,25.9c8.5,20.4,4.4,35.1-16,43.9c0.9,2.4,1.9,4.9,2.8,7.3
		c12.9-5.9,25.8-11.8,38.6-17.8c-20-53.5-44.2-105.3-72.5-154.8c-12.9,6-25.7,12.2-38.5,18.3l4,6.9c19.5-9.4,33.6-3.3,44.6,18
		c3.8,7.5,7.7,15,11.3,22.6l-123.2,60.1c-9.5,4.7-18.1,1.7-22.2-4.8c-1.6-3.1-3.2-6.2-4.9-9.2
		C1977.4,773.8,1975.5,774.9,1973.4,775.9L1973.4,775.9z M1686,452.7c21.1,14.4,41.7,29.8,61.6,45.9l4.3-5.1l-5.2-4.2
		c-8.7-7-9.9-16.7-3.5-24.8l34.4-44.7c3.2,2.6,6.5,5.1,9.7,7.6c0.6,34.1-0.7,68.2-3.9,102.1c11.9,10.9,23.6,22,34.9,33.4l4.9-4.8
		c-11.5-12.9-13.5-20.5-12.2-31.6c2.7-26.3,4.3-53.1,4.8-80.2c10.1,5.9,21.6,9.6,31.8,9.9c13.6,0.7,24.5-3,33.7-12.7
		c8-8.7,12.1-22.8,8.7-37.4c-2.6-11.8-8.9-24.7-31.2-42.9c-12-9.9-25.2-17.9-37.7-27.3c-12.2-9.1-24.6-18-37.2-26.6l-4.1,5.8
		c2,1.4,4.1,2.8,6.1,4.2c10.8,7.4,13.3,17.9,7.8,25.4l-74,102.9c-5.1,7.3-15.3,9.2-24,3.2c-1.8-1.3-3.8-2.6-5.7-3.9
		C1688.7,448.9,1687.3,450.8,1686,452.7L1686,452.7z M2157.9,1626.8c6.7-15.7,13-31.6,19-47.6c2.2-6,5-11.8,7.4-17.8
		c2.1-5.3,4.2-10.6,6.1-16c15.2-46.4,11.3-76.8,3-96.3c-9.8-23.1-29.9-39.8-55.6-45c-30.6-6.1-56.9,2.9-77.4,21.1
		c-13.5,12-25.5,28.9-36.7,63c-3.8,11.4-7.3,23.8-7.6,24.2c-1.3,4.5-2.7,9.1-4.5,13.5c-4.1,11-8.5,21.9-13.2,32.6l6.5,2.8l3-7
		c3.5-8.5,13.2-12.6,21-9.6l117.4,46.6c7.8,3.4,9.5,6.6,10.5,11.5c0.6,3.7,0.1,8.8-1.6,13.2c-1.2,2.7-2.3,5.3-3.4,8.1
		C2153.8,1625,2155.8,1625.9,2157.9,1626.8L2157.9,1626.8z"/>
	<path class="st1" d="M983.2,1777.2l-18.5-21.7c-4.8-7.1-30.4-26.1,12.5-27.8h161.9c13.6,0,19.5,1.7,17.4,15.2v144.6
		c-0.1,8.7-3.6,17.1-9.8,23.3c-14.7-5.4-27.1-15.7-39.6-24.9C1062.5,1853.6,1021,1817.2,983.2,1777.2z"/>
	<path class="st0" d="M116.6,1212c0.1,24.3,1,48.4,2.7,72.7l6.8-0.5l-0.5-7.8c-0.9-13.3,5.9-21.4,15.8-21.7l111.6-5
		c-44.8,23.4-88.1,49.5-129.7,78.2c0.2,1.7,0.4,3.3,0.6,5c47,18.5,95.1,34,144,46.5l-109.2,20.6c-10.3,1.9-18.1-5-20-13.7
		c-0.6-3.9-1.4-7.8-2.1-11.6l-6.8,1c4.8,30.4,10.9,60.5,18.4,90.4l6.7-1.7c-0.8-3-1.5-6-2.1-9c-2.6-10.8,2.1-20.3,11.8-22.4
		l123.4-27.3c10-1.8,17.5,3.6,19.5,11.8c0.6,2.7,1.3,5.4,2,8.1l6.9-1.7c-4-16-7.6-32.1-10.6-48.3c-46.6-10.9-92.5-24.6-137.5-41
		c39.6-26.8,80.6-51.3,123-73.3c-1-16.7-1.6-33.4-1.6-50.1H283c0,2.5,0,4.9,0.1,7.4c0.1,10.5-6.5,17.6-15.5,17.9l-126.2,3.8
		c-11.6-0.2-17.7-8.3-18.2-16.5c-0.1-3.9-0.2-7.8-0.2-11.8L116.6,1212L116.6,1212z M187.4,1589.8c7.6,19.6,15.6,38.9,24.2,58.1
		l6.1-2.7c-0.6-1.5-1.4-3.2-2-4.7c-5-11.2-2.2-15.8,1.9-17.6c0.9-0.4,2.5-1,7.8-0.6c12.3,0.6,24.7,1,36.8,1.3
		c9.6,21.2,19.9,42,30.9,62.4c-7.4,10.1-14.7,20.4-21.9,30.8c-1.5,2.2-2.6,3.1-4,3.8c-4.3,2.5-11,0.8-14.7-6.1
		c-1.7-3.1-3.4-6.3-5.1-9.5l-6.4,3.4c13.5,25.3,28,50.1,43.5,74.3l5.8-3.7c-7.8-12.2-8-22.5-2.1-31.5c30-46.7,63-91.4,98.8-133.8
		c-1-2-2.2-4-3.2-6.1c-54.5,3.6-109.3,3.7-163.8,0.3c-15.4-1.2-21.8-8.1-24.5-14.9c-0.6-1.9-1.4-3.7-2.2-5.5L187.4,1589.8z M336,925
		c5.2-16.8,10.9-33.4,17.1-49.9l-6.2-2.3c-0.6,1.4-1.1,2.8-1.7,4.2c-3.5,9.6-8.4,10.7-12.7,9.2c-1-0.4-2.5-1-6.3-4.4
		c-8.8-8.3-17.6-16.7-26.3-25.3c7.7-20.4,16-40.5,25-60.4c12.4,0.1,24.7,0.4,37.2,0.7c2.5,0.2,3.9,0.6,5.5,1.3
		c4.4,2.1,7.2,7.8,4.4,13.8c-1.3,2.8-2.6,5.6-3.8,8.2l6.4,2.9c9.8-21.9,20.6-43.4,32.1-64.4l-5.9-3.3c-5.9,10.9-14,15-24.5,14.3
		c-55.5-4-111.3-4.4-166.8-1.2l-3.4,7.7c35.8,41.7,74.2,81.1,115,117.9c10.9,10.3,11.9,18.3,10.1,24c-0.6,1.7-1,3.2-1.5,4.8L336,925
		L336,925z M1827.5,572.6c1.6,1.5,3.2,3.2,4.8,4.9l0.9-0.6c2.1-1.4,6.3-1.4,9.3,1.7c0.3,0.3,0.5,0.7,0.8,1.1c0.3,0.3,0.6,0.7,1,1.1
		c3.6,5,4.8,11,7.4,16.2c5.7,11.5,7,13.2,10,16.6c20.3,23.9,52,27.1,70.5,13.5c22.2-16.4,19.2-42.2,15.9-62.1
		c-2.3-13.6-5-27.1-8-40.5c-3.6-16.7-0.4-25,5.6-30.4c10.9-10,27.7-8.4,41.5,7.8c16.3,19,17.2,46.4-6.1,65.6c1.7,2,3.3,4.1,4.9,6.1
		l42.4-32.5c-1.9-2.4-3.6-4.7-5.4-7c-4.1,2-7.9,0.5-10.5-2.6c-2.1-2.7-2.3-4.3-3-6c-3.5-7.9-6.7-20.7-18.3-34.1
		c-21.3-24.5-50.6-27.6-70.1-8.6c-9.9,9.5-14.4,23.9-9.7,46c2.9,12.9,5.4,25.8,7.6,38.5c4.8,27-1.5,37.1-9,43.1
		c-12.9,10.1-29.7,8.7-42-5.8c-13.2-15.6-15.8-36.9,1.1-60.4c1.6-2.1,3.2-4.3,4.8-6.5c-1.6-1.8-3.3-3.4-4.9-5.2
		C1855,545.8,1841.3,559.3,1827.5,572.6L1827.5,572.6z M2040,942c7,24.6,13,49.4,17.9,74.5l6.7-1.3c-0.5-2.4-0.9-4.9-1.5-7.2
		c-2-10.1,3.2-18.1,12.1-20.2c16.6-3.7,33.1-7.5,49.5-11.2c27.2,10.7,54,22.5,80.2,35.4c21.4,11.2,26,22.2,26.7,34.7l6.6-0.9
		c-3.1-23.1-6.9-46.1-11.6-68.9l-6.5,1.4c0.5,2.6,1,5.2,1.5,7.8c1.7,8.5-1.6,12.5-5.5,13.2c-3.1,0.6-5.9-0.5-9.7-2.2
		c-22.4-10.7-45.2-20.6-68.4-29.7c16.8-18.3,33-37.2,48.5-56.6c2.4-2.7,3.5-5.8,8-7c4.1-1.2,7.8,1.2,9.7,7.8
		c1.1,4.3,2.2,8.7,3.4,12.9l6.8-1.7c-7.8-30.1-16.8-59.8-27.2-89.1l-6.3,2.3c5.7,14.7,5,25.6-6.7,41.4c-17.8,24-36.6,47.3-56.4,69.7
		l-48,12.4c-10,2.5-18.7-3.2-20.8-10.8c-0.9-2.8-1.5-5.6-2.4-8.5C2044.3,940.9,2042.1,941.5,2040,942L2040,942z M2107.4,1729.3
		c15-26.8,28.9-54.2,41.5-82.2l-6.1-2.7c-1.4,3-2.9,6.1-4.3,9.2c-5.3,11.4-13.4,14.4-21.1,10.7l-118.5-57.6
		c-6.6-3.2-9.2-11.3-6-18.3c1.5-3.3,3.1-6.5,4.5-9.7l-6.4-2.9c-10.6,23.4-22.1,46.3-34.7,68.7l6,3.2c1.7-2.8,3.2-5.8,4.9-8.8
		c4-7.4,12.1-10,19.1-6.3l115.1,60.5c8.9,4.6,10.4,13.6,6.5,21c-2.1,4-4.4,8-6.5,12L2107.4,1729.3L2107.4,1729.3z M304.4,1068.8
		c3.8-27.6,8.9-55.1,15.2-82.2c5.1-22.3,2.9-36.4-2.3-46.9c-5.6-11.4-15.8-20.6-28.2-24.4c-18.9-5.8-39.9,2.6-51.1,25.3
		c-1.5-20.7-12.9-36.2-28.5-40.9c-21.4-6.5-52.1,8.1-63.9,60.8c-2.5,11.3-3.8,23-5.6,34.5c-0.8,5.4-1.4,10.7-2.3,15.9
		c-1.9,11.6-3.7,23.1-5.3,34.8l6.9,1c0.5-3.6,1-7.1,1.5-10.6c1.3-8.7,10-16.7,19-15.2l124.3,20.2c10.5,1.7,15.9,10.1,14.8,18.6
		c-0.5,2.7-0.9,5.4-1.3,8.2C300,1068.2,302.2,1068.5,304.4,1068.8L304.4,1068.8z M1907.5,668.8c15,20.8,29,42.3,42.2,64.4l5.7-3.3
		c-1.4-2.5-3-4.9-4.3-7.4c-5.6-9.1-3.3-16.7,3.8-21.2l111.3-70.5c6.3-4,15.1-1.1,19.8,6.6c2.1,3.7,4.4,7.3,6.5,10.9l6.1-3.5
		c-15.7-26.3-32.5-51.9-50.3-76.8l-5.4,4c2.3,3.3,4.6,6.5,6.9,9.9c5.6,8.1,4.5,17.5-1.9,21.8l-107.6,72.9
		c-8.5,5.7-16.4,3.6-20.5-2.1c-2.2-3.1-4.5-6.3-6.8-9.4L1907.5,668.8L1907.5,668.8z M153.8,1487.4c8,29.6,17.3,58.9,27.9,87.8
		l6.4-2.3c-1.3-3.2-2.3-6.4-3.5-9.6c-4.2-11.7-0.5-19.6,7.5-22.3l124.9-42c7-2.4,14.6,1.6,17.1,8.8c1.2,3.4,2.4,6.8,3.7,10.1
		l6.4-2.3c-8.8-24.1-16.5-48.5-23.3-73.3l-6.5,1.7c0.8,3.3,1.7,6.5,2.7,9.8c2.3,8.1-1.7,15.5-9.3,17.9l-124.5,37.5
		c-9.6,2.9-17-2.5-19.3-10.4c-1.3-4.4-2.5-8.8-3.8-13.1L153.8,1487.4L153.8,1487.4z"/>
	<path class="st1" d="M1032.1,817.9h-170c-10.8,0-10.3,8.1,1.6,8.1h168.5C1041.8,826.1,1040.8,817.9,1032.1,817.9z"/>
	<path class="st0" d="M1901.6,1993.3c21-19.4,31.1-39.7,33.3-62.3c2.4-23.3-6.7-49.2-28.7-68.9c-19.8-17.6-44.2-25.3-66.2-24.9
		c-20.7,0.6-42.8,9.7-58.2,23.8c-16.6,15.4-27.5,40.5-27.1,66.4c0.3,17.4,7,39.2,19.7,56c15.1,19.6,36.5,31.5,55.7,33.7
		C1855.5,2020.3,1883,2010.6,1901.6,1993.3L1901.6,1993.3z"/>
	<path class="st1" d="M1091.2,1669.9l-161.9-0.5c-11.9,0-13.6,9.2,1.1,9.2l160.8-0.6C1105.8,1678,1104.2,1669.9,1091.2,1669.9z"/>
	<path class="st0" d="M2220.9,1426.3c4.2-20.5,8-41.3,11-62l-6.6-0.9l-0.9,5.1c-1.8,12.1-6.8,14.4-11.1,13.6c-1.1-0.2-2.6-0.5-7-3.6
		c-10-7.2-20.1-14.3-30.3-21.1c3.5-23,6.1-46.1,7.9-69.2c11.8-4.5,23.5-9.1,35.1-14c2.5-0.9,3.8-1.2,5.4-1.1c5,0.4,9.7,5.3,9.2,13.1
		c-0.3,3.7-0.6,7.2-0.9,10.8l7.1,0.6c2.4-28.6,3.6-57.3,3.7-86h-6.9c-0.1,14.4-5.7,23.1-15.4,27.6c-50.5,23-102.4,42.7-155.5,58.9
		c-0.2,2.3-0.5,4.7-0.6,7c47.8,26.5,93.9,56.1,137.8,88.6c12.3,9.3,13.9,18.6,12.5,25.7c-0.4,1.9-0.8,3.8-1.2,5.7L2220.9,1426.3
		L2220.9,1426.3z"/>
	<path class="st1" d="M1021,1238.6H855.3c-6.5,0-9.8,8.1,0,8.1H1021C1027.5,1246.8,1032.4,1238.6,1021,1238.6z"/>
	<path class="st0" d="M475.9,2005.7c23,20.4,46.9,39.7,71.5,58l4-5.5l-8.1-6c-10-7.6-11.2-16.2-6-22.9l81.2-103.7
		c4.5-5.8,12.9-6.7,19.1-2.1c2.9,2.2,5.8,4.4,8.7,6.5l4.2-5.6c-20.6-15.3-40.5-31.4-59.7-48.4l-4.5,5.1c2.6,2.2,5.1,4.5,7.7,6.6
		c6.4,5.6,7.1,14,2.1,20l-83.4,99.9c-6.4,7.7-15.5,7.2-21.8,1.9c-3.5-2.9-6.9-5.8-10.4-8.8L475.9,2005.7L475.9,2005.7z M1500.8,2223
		c29-9.2,57.7-19.6,85.8-31.3l-2.6-6.3c-3.7,1.5-7.2,3-10.9,4.5c-9.6,3.8-18,0.8-21.3-7.8l-22.5-59.3c14.4-5.5,28.6-11.3,42.7-17.5
		c13.2-5.8,23.3-2.5,28.4,8.3l3.4,7.2c2.3-1.1,4.6-2.3,6.9-3.4l-27.8-58.7c-2.2,1-4.3,2-6.5,3.1l3,6.4c5.2,11.2,1.3,21.3-12.7,27.4
		c-13.6,5.9-27.3,11.5-41.1,16.7l-24.1-63c14.8-5.6,29.5-11.7,43.9-18.2c16.5-7.3,29.4-4.6,41,13.3c2-1,4.2-2,6.3-3.1
		c-6.7-11.1-13.3-22.2-19.9-33.3c-40.1,19.7-81.6,36.3-124.2,49.8l2,6.4c2.3-0.8,4.6-1.4,6.9-2.2c11.3-3.7,17.8,0.1,19.9,6.1
		l43.4,125.5c2.8,9.5-1.8,15.9-11.5,19.1c-3.6,1.2-7.3,2.3-11.1,3.5C1499.2,2218.6,1500,2220.9,1500.8,2223z"/>
	<path class="st1" d="M2169.5,1564.3l-140.7-50.7c0.5-7.1,1.8-13.5,4.5-22c14.3-43,48.9-65.8,96.9-54.9
		c47,10.7,67.5,53.2,51.4,102.2C2179.2,1546.3,2175.3,1554.8,2169.5,1564.3L2169.5,1564.3z"/>
	<path class="st0" d="M851.6,2223c66.4,21.3,123.2-19.5,133.5-74.4c10.1-51.2-12.4-76.8-35.1-83c-13.7-3.7-27.2-1.4-40.3,7.5
		c-12.1,8.2-21.1,20.2-25.5,34.2c-10.9,32.4,6.5,57.5,32,64.3c10.4,2.9,22.6,2.7,35.2-2c-11.2,21.7-25.1,34.3-42,42.3
		c-18.6,9.2-36.9,10.2-55.6,4.9C853.1,2218.7,852.3,2220.9,851.6,2223L851.6,2223z"/>
	<path class="st1" d="M1895.1,1984.3c-13.8,11.6-28.1,15.3-43,11.8c-12.7-2.8-33.5-14.6-50.4-35.3c-16.5-20.1-24-42.4-25-54
		c-1.2-15.6,3.8-27.9,13.6-37.1c11.4-10.5,24.4-14.6,42-10.8c12.3,2.7,31.8,11.7,50.2,29.5c16.9,16.3,26.3,34.6,28.9,47.2
		C1915.4,1953.6,1909.7,1970.1,1895.1,1984.3z"/>
	<path class="st0" d="M985.4,2211c25.5,5,51.3,9,77.1,12c-1.6,14.1-3.1,28.2-4.6,42.2c8.1,1,16.4,1.8,24.6,2.6l4-42.3
		c8.4,0.8,16.8,1.5,25.3,2l1.2-18.7c-8.2-0.6-16.5-1.2-24.7-1.9l10.3-111.7c-4.5-0.3-8.9-0.9-13.3-1.3c-29.8,35.5-62,68.9-96.6,99.8
		L985.4,2211L985.4,2211z M1197.6,2275.3c43.9-2.9,63.1-49.4,59.3-91.5c-2.7-32.9-16.4-58.6-27.5-70.6c-12.6-13-25-17.4-34.4-17.2
		c-7,0.1-15.1,2.3-23.1,7.8c-15.8,11.2-34.8,38.1-36.9,78.6C1132.1,2233.4,1158.1,2275.2,1197.6,2275.3z M756.6,2184.4
		c23.3,10.1,47,19.4,71,27.9l2.2-6.4c-3.4-1.3-6.9-2.5-10.3-3.7c-6.8-2.4-11.5-10.6-9.1-16.6l55.7-147.3c-15,0.8-30.1,1.2-45.2,1.3
		v6.4c4.9,0.6,6.1,0.6,9,1.8c4.9,1.9,7.2,6.1,4.3,13.2l-46.9,115.2c-2.6,6.5-11.1,9.2-18.7,6c-3.1-1.3-6.2-2.7-9.5-4.1L756.6,2184.4
		L756.6,2184.4z M1263.3,301.9c25.5,2.2,51,5.6,76.2,10l1.2-6.6c-2.9-0.4-5.7-0.9-8.5-1.5c-10.4-1.7-14.9-8.4-13.6-16.7l19.2-130.4
		c1.1-7.3,9.2-12.1,18-10.8c4.3,0.8,8.4,1.4,12.6,2.2l1.2-6.9c-30.1-5.3-60.5-9.3-90.9-12l-0.5,6.8c4,0.3,7.8,0.7,11.8,1.1
		c10,1,16.4,7.8,15.4,15.8l-14.9,129c-1.3,10.1-8.2,14.7-15.1,14.2c-3.8-0.4-7.6-0.7-11.5-1L1263.3,301.9L1263.3,301.9z"/>
	<path class="st1" d="M835.2,1203.5c-1.1,4.3-2.7,14.2,0.5,16.9c6,4.8,15.2-0.6,22.3-2.2c7-1.6,39.7-12,64.1,1.6
		c0.5,0,8.1,0,8.1-13.1v-76.1c-7-6.5-11.4-9.8-20.1-9.8c-14.1,0-36.4,4.9-36.4,4.9c-4.9,2.1-21.2,4.3-21.8,6.5L835.2,1203.5
		L835.2,1203.5z M862.8,717.2l-15.2,58.7l-3.8,12.5c-2.7,10.3,4.9,12,9.3,11.5c4.3-0.5,36.4-14.7,56-8.2c4.8,1.7,14.7,3.8,18.4,4.3
		c7.1,1.1,11.5-2.7,11.5-10.4v-80.9l-13.1-3.8c-12-2.2-26.6-0.6-35.3,6.5c-6.5,4.8-11.5,4.8-16.8,7L862.8,717.2L862.8,717.2z
		 M928.1,1568.8l-21.2,70.7c0.6,3.8-0.5,9.2,3.3,10.8c3.8,1.7,6.5,2.7,9.8,4.3c3.2,1.7,44.5-8.7,52.7-7.6c8.7,1.1,13.5,1.6,21.8,4.9
		c4.8-2.2,8.1-8.2,8.1-13.6v-76.6c-4.9-5.4-22.8-9.2-28.2-6.5C949.8,1567.7,930.8,1560.6,928.1,1568.8L928.1,1568.8z M1037.7,1207.5
		l-22.3-73.4c-1-3.3-12-4.3-38-10.4c-23.4-6-33.2,3.3-33.2,7.1v77.1c0,8.2,0.6,12.6,7,10.4c18.5-6.5,43.5-9.3,66.3,0
		c3.8,0,13.1,4.3,16.3,2.7c2.2-1.1,4.3-3.8,4.3-6.5L1037.7,1207.5L1037.7,1207.5z M1019,711.9l-12-2.7c-8.7-3.8-15.7-14.2-36.4-7.7
		l-16.9,4.4v79.8c1.1,2.2,1.1,13.1,10.4,10.4c9.2-3.3,22.8-8.1,32.6-6.5c15.2,1.7,27.7,11.5,42.4,13.1c9.2-3.8,8.1-7,5.4-16.9
		L1019,711.9L1019,711.9z M1020,1561.9v76.6c0,11.4,4.9,14.7,12.5,14.2c8.7-0.5,20.1-2.7,28.2-3.3c16.3-1.7,30.4,8.2,47.3,6
		c1.1-2.7,4.3-6,4.3-8.7l-17.9-72.3c-4.9-20.1-8.1-2.1-45.7-17.9C1043.9,1554.3,1024.3,1557.5,1020,1561.9L1020,1561.9z
		 M493.8,495.2l-51.5-51.7c3.5-6.1,7.8-11.6,12.9-16.4c16.8-16.1,40.1-17.6,55.3-0.3c8,9.1,10.3,18.1,8.6,28.4
		c-1.5,9.7-8.1,23-21.1,35.9C496.6,492.4,495.2,493.9,493.8,495.2L493.8,495.2z M1783.2,412.6l44.5-57.9c6.7,2.9,12.4,6.4,18.1,10.9
		c18.1,14.7,22.6,37.5,7.4,54.8c-8,9.1-16.7,12.5-27.1,12.2c-10-0.3-23.8-5-38.3-16.3C1786.4,415.1,1784.8,413.8,1783.2,412.6
		L1783.2,412.6z M365.4,653.5l-61.2-39.9c2.4-6.9,5.4-12.8,9.4-18.7c13.2-19.4,35.5-25.6,54-11.8c9.7,7.2,13.9,15.7,14.4,26.1
		c0.3,10-3.2,24.1-13.3,39.4C367.7,650.3,366.6,652,365.4,653.5L365.4,653.5z M301.7,1014.7l-71.6-14c0-5.4,0.4-8.9,1.4-13.8
		c6.9-32.7,28.4-43.6,47.4-38.4c22,5.9,33.5,25.2,28,50.8C305.7,1004.6,304,1009.8,301.7,1014.7z M1948.9,1806.6l-57.7-44.9
		c2.2-5.8,5-10.9,8.5-15.7c11.9-15.7,32.3-20.7,51.3-7.7c10.1,6.9,14.5,14.9,15.3,25.1c0.8,9.7-2.9,24-14,38.4
		C1951.3,1803.5,1950.1,1805,1948.9,1806.6z M1004.4,2195.5c24.4-22.7,47.7-46.6,69.7-71.7l-9.3,80.6
		C1044.6,2202,1024.5,2199,1004.4,2195.5z M218.2,998.6L153,985.9c-0.7-6.7-0.4-13.4,1.1-19.9c5-24,25.8-38.5,45.6-33.2
		c19.5,5,28.7,20,21.9,51.8C220.6,989.6,219.4,994.1,218.2,998.6L218.2,998.6z M1197.3,2265.8c-12.1-0.6-36.3-6.2-34.6-81.9
		c0.8-40.6,10.3-61.3,12.1-64.7c6.3-10.8,13.3-14.1,20.2-14.2c7.9,0,30.1,4,34.5,80.9c1.6,30.1-3.6,52-6.4,58.6
		C1216.2,2260.9,1205.9,2265.5,1197.3,2265.8L1197.3,2265.8z M2165.7,1350.4c-19.1-12.4-38.4-24.4-58.1-35.9
		c21.6-6.8,43.2-14.2,64.7-22.2C2170.6,1311.7,2168.4,1331.2,2165.7,1350.4z M274.9,1623.7c22.9,0.2,45.7-0.3,68.2-1.3
		c-14.6,17.5-28.7,35.4-42.3,53.7C291.6,1658.9,283,1641.4,274.9,1623.7z M291.3,847.9c-16.2-16.2-31.9-32.8-47.1-49.9
		c23-1.3,45.8-2,68.6-2.1C305.2,813,298,830.4,291.3,847.9z M962,2141.8c-1,4.3-2.5,8.8-4,12.9c-8,7.1-21.6,10-31.7,7.3
		c-21-5.6-23-35.2-15.5-59.9c8.2-27,23.3-31.4,33.8-28.6c9.9,2.7,14.2,10,17.3,18.7C965,2101.3,967.3,2118.7,962,2141.8L962,2141.8z
		"/>
	<path class="st0" d="M2161.6,1103.8c-14,0-25.3,11.3-25.3,25.3c0,13.9,11.3,25.3,25.3,25.3c13.9,0,25.3-11.3,25.3-25.3
		C2186.9,1115.1,2175.6,1103.8,2161.6,1103.8z M221.2,1103.8c-14,0-25.3,11.3-25.3,25.3c0,13.9,11.3,25.3,25.3,25.3
		c13.9,0,25.3-11.3,25.3-25.3C246.5,1115.1,235.2,1103.8,221.2,1103.8z M709.5,2033.1c-13.9,0-25.3,11.3-25.3,25.3
		c0,13.9,11.3,25.3,25.3,25.3c13.9,0,25.3-11.3,25.3-25.3C734.8,2044.4,723.5,2033.1,709.5,2033.1z M1395.7,2131.2
		c-13.9,0-25.3,11.3-25.3,25.3c0,13.9,11.3,25.3,25.3,25.3c14-0.5,24.8-12.3,24.3-26.3C1419.5,2142.3,1408.9,2131.8,1395.7,2131.2z"
		/>
</g>
</svg>
