<?xml version="1.0" encoding="UTF-8"?>
<svg width="1200" height="480" viewBox="0 0 1200 480" xmlns="http://www.w3.org/2000/svg" role="img" aria-label="音频客服核心能力">
  <rect width="1200" height="480" rx="24" fill="#0F172A"/>
  <g font-family="Inter, system-ui, -apple-system, Segoe UI, Roboto, Helvetica, Arial" fill="#E2E8F0">
    <text x="600" y="56" text-anchor="middle" font-size="28" font-weight="700">核心能力一览</text>
    <g font-size="16">
      <rect x="80" y="100" width="310" height="120" rx="12" fill="#1F2937"/>
      <text x="235" y="140" text-anchor="middle" font-weight="600">实时音频通话</text>
      <text x="235" y="168" text-anchor="middle" opacity="0.85">低时延 · 降噪回声抑制</text>

      <rect x="445" y="100" width="310" height="120" rx="12" fill="#1F2937"/>
      <text x="600" y="140" text-anchor="middle" font-weight="600">ASR/TTS</text>
      <text x="600" y="168" text-anchor="middle" opacity="0.85">热词/情感 · 流式播报</text>

      <rect x="810" y="100" width="310" height="120" rx="12" fill="#1F2937"/>
      <text x="965" y="140" text-anchor="middle" font-weight="600">Barge-in</text>
      <text x="965" y="168" text-anchor="middle" opacity="0.85">打断即停 · 即时响应</text>

      <rect x="80" y="260" width="310" height="120" rx="12" fill="#1F2937"/>
      <text x="235" y="300" text-anchor="middle" font-weight="600">录音与回放</text>
      <text x="235" y="328" text-anchor="middle" opacity="0.85">分轨时间码 · 质检</text>

      <rect x="445" y="260" width="310" height="120" rx="12" fill="#1F2937"/>
      <text x="600" y="300" text-anchor="middle" font-weight="600">联动打通</text>
      <text x="600" y="328" text-anchor="middle" opacity="0.85">IVR/工单/CRM</text>

      <rect x="810" y="260" width="310" height="120" rx="12" fill="#1F2937"/>
      <text x="965" y="300" text-anchor="middle" font-weight="600">安全合规</text>
      <text x="965" y="328" text-anchor="middle" opacity="0.85">加密存储 · 审计留痕</text>
    </g>
  </g>
</svg>
