<?xml version="1.0" encoding="utf-8"?>
<!-- Generator: Adobe Illustrator 18.0.0, SVG Export Plug-In . SVG Version: 6.00 Build 0)  -->
<!DOCTYPE svg PUBLIC "-//W3C//DTD SVG 1.1//EN" "http://www.w3.org/Graphics/SVG/1.1/DTD/svg11.dtd">
<svg version="1.1" id="Layer_1" xmlns="http://www.w3.org/2000/svg" xmlns:xlink="http://www.w3.org/1999/xlink" x="0px" y="0px"
	 viewBox="0 0 64 64" enable-background="new 0 0 64 64" xml:space="preserve">
<g>
	<g>
		<polygon fill="#2ECC71" points="37,8 63.2,32 37,56 37,43 1,43 1,22 37,22 		"/>
	</g>
	<g>
		<path fill="#2C2C3D" d="M37,57c-0.1,0-0.3,0-0.4-0.1C36.2,56.8,36,56.4,36,56V44H1c-0.6,0-1-0.4-1-1V22c0-0.6,0.4-1,1-1h35V8
			c0-0.4,0.2-0.8,0.6-0.9C37,6.9,37.4,7,37.7,7.3l26.2,24c0.2,0.2,0.3,0.5,0.3,0.7s-0.1,0.5-0.3,0.7l-26.2,24
			C37.5,56.9,37.2,57,37,57z M2,42h35c0.6,0,1,0.4,1,1v10.7L61.7,32L38,10.3V22c0,0.6-0.4,1-1,1H2V42z"/>
	</g>
</g>
</svg>
