<?xml version="1.0" encoding="utf-8"?>
<!-- Generator: Adobe Illustrator 18.0.0, SVG Export Plug-In . SVG Version: 6.00 Build 0)  -->
<!DOCTYPE svg PUBLIC "-//W3C//DTD SVG 1.1//EN" "http://www.w3.org/Graphics/SVG/1.1/DTD/svg11.dtd">
<svg version="1.1" id="Layer_1" xmlns="http://www.w3.org/2000/svg" xmlns:xlink="http://www.w3.org/1999/xlink" x="0px" y="0px"
	 viewBox="0 0 64 64" enable-background="new 0 0 64 64" xml:space="preserve">
<g>
	<g id="XMLID_1_">
		<g>
			<g>
				<g>
					<path fill="#EAEBEF" d="M63,21.6v35.3c0,3.3-2.7,6-6,6H7c-3.3,0-6-2.7-6-6V21.6H63z M55,38v-8h-8v8H55z M42,54v-8h-8v8H42z
						 M42,38v-8h-8v8H42z M29,54v-8h-8v8H29z M29,38v-8h-8v8H29z M16,54v-8H8v8H16z M16,38v-8H8v8H16z"/>
				</g>
			</g>
			<g>
				<g>
					<rect x="34" y="46" fill="#FFF7D7" width="8" height="8"/>
				</g>
			</g>
			<g>
				<g>
					<rect x="47" y="30" fill="#FFFFFF" width="8" height="8"/>
				</g>
			</g>
			<g>
				<g>
					<rect x="21" y="30" fill="#FFFFFF" width="8" height="8"/>
				</g>
			</g>
			<g>
				<g>
					<rect x="34" y="30" fill="#FFFFFF" width="8" height="8"/>
				</g>
			</g>
			<g>
				<g>
					<rect x="8" y="30" fill="#FFFFFF" width="8" height="8"/>
				</g>
			</g>
			<g>
				<g>
					<rect x="21" y="46" fill="#FFFFFF" width="8" height="8"/>
				</g>
			</g>
			<g>
				<g>
					<rect x="8" y="46" fill="#FFFFFF" width="8" height="8"/>
				</g>
			</g>
			<g>
				<g>
					<path fill="#F44E57" d="M18,6.1h28h11c3.3,0,6,2.7,6,6v9.5H1v-9.5c0-3.3,2.7-6,6-6H18z"/>
				</g>
			</g>
		</g>
		<g>
			<g>
				<g>
					<path fill="#2C2C3D" d="M57,63.9H7c-3.9,0-7-3.1-7-7V12.1c0-3.9,3.1-7,7-7h50c3.9,0,7,3.1,7,7v44.8C64,60.8,60.9,63.9,57,63.9z
						 M7,7.1c-2.8,0-5,2.2-5,5v44.8c0,2.8,2.2,5,5,5h50c2.8,0,5-2.2,5-5V12.1c0-2.8-2.2-5-5-5H7z"/>
				</g>
			</g>
			<g>
				<g>
					<rect x="17" fill="#2C2C3D" width="2" height="14"/>
				</g>
			</g>
			<g>
				<g>
					<rect x="45" fill="#2C2C3D" width="2" height="14"/>
				</g>
			</g>
			<g>
				<g>
					<rect x="1" y="20.6" fill="#2C2C3D" width="62" height="2"/>
				</g>
			</g>
			<g>
				<g>
					<path fill="#2C2C3D" d="M16,39H8c-0.6,0-1-0.4-1-1v-8c0-0.6,0.4-1,1-1h8c0.6,0,1,0.4,1,1v8C17,38.6,16.6,39,16,39z M9,37h6v-6
						H9V37z"/>
				</g>
			</g>
			<g>
				<g>
					<path fill="#2C2C3D" d="M16,55H8c-0.6,0-1-0.4-1-1v-8c0-0.6,0.4-1,1-1h8c0.6,0,1,0.4,1,1v8C17,54.6,16.6,55,16,55z M9,53h6v-6
						H9V53z"/>
				</g>
			</g>
			<g>
				<g>
					<path fill="#2C2C3D" d="M29,39h-8c-0.6,0-1-0.4-1-1v-8c0-0.6,0.4-1,1-1h8c0.6,0,1,0.4,1,1v8C30,38.6,29.6,39,29,39z M22,37h6
						v-6h-6V37z"/>
				</g>
			</g>
			<g>
				<g>
					<path fill="#2C2C3D" d="M29,55h-8c-0.6,0-1-0.4-1-1v-8c0-0.6,0.4-1,1-1h8c0.6,0,1,0.4,1,1v8C30,54.6,29.6,55,29,55z M22,53h6
						v-6h-6V53z"/>
				</g>
			</g>
			<g>
				<g>
					<path fill="#2C2C3D" d="M42,39h-8c-0.6,0-1-0.4-1-1v-8c0-0.6,0.4-1,1-1h8c0.6,0,1,0.4,1,1v8C43,38.6,42.6,39,42,39z M35,37h6
						v-6h-6V37z"/>
				</g>
			</g>
			<g>
				<g>
					<path fill="#2C2C3D" d="M42,55h-8c-0.6,0-1-0.4-1-1v-8c0-0.6,0.4-1,1-1h8c0.6,0,1,0.4,1,1v8C43,54.6,42.6,55,42,55z M35,53h6
						v-6h-6V53z"/>
				</g>
			</g>
			<g>
				<g>
					<path fill="#2C2C3D" d="M55,39h-8c-0.6,0-1-0.4-1-1v-8c0-0.6,0.4-1,1-1h8c0.6,0,1,0.4,1,1v8C56,38.6,55.6,39,55,39z M48,37h6
						v-6h-6V37z"/>
				</g>
			</g>
		</g>
	</g>
</g>
</svg>
