<?xml version="1.0" encoding="utf-8"?>
<!-- Generator: Adobe Illustrator 18.0.0, SVG Export Plug-In . SVG Version: 6.00 Build 0)  -->
<!DOCTYPE svg PUBLIC "-//W3C//DTD SVG 1.1//EN" "http://www.w3.org/Graphics/SVG/1.1/DTD/svg11.dtd">
<svg version="1.1" id="Layer_1" xmlns="http://www.w3.org/2000/svg" xmlns:xlink="http://www.w3.org/1999/xlink" x="0px" y="0px"
	 viewBox="0 0 64 64" enable-background="new 0 0 64 64" xml:space="preserve">
<g id="XMLID_12_">
	<g>
		<g>
			<path fill="#9E6161" d="M54,12v49c0,1.1-0.9,2-2,2H12c-1.1,0-2-0.9-2-2V12c0-1.1,0.9-2,2-2h7v3v2h-4v43h34V15h-4v-2v-3h7
				C53.1,10,54,10.9,54,12z"/>
		</g>
		<g>
			<path fill="#FFFFFF" d="M49,15v43H15V15h4v2h26v-2H49z M44.2,24c0-0.6-0.5-1-1.1-1H21.4c-0.6,0-1.1,0.4-1.1,1c0,0.5,0.5,1,1.1,1
				h21.7C43.7,25,44.2,24.6,44.2,24z M44,30c0-0.5-0.5-1-1.1-1H21.1c-0.6,0-1.1,0.5-1.1,1s0.5,1,1.1,1h21.7C43.5,31,44,30.5,44,30z
				 M44,36c0-0.5-0.5-1-1.1-1H21.1c-0.6,0-1.1,0.5-1.1,1s0.5,1,1.1,1h21.7C43.5,37,44,36.5,44,36z M44,42c0-0.5-0.5-1-1.1-1H21.1
				c-0.6,0-1.1,0.5-1.1,1s0.5,1,1.1,1h21.7C43.5,43,44,42.5,44,42z"/>
		</g>
		<g>
			<polygon fill="#FFD05C" points="45,15 45,17 19,17 19,15 19,13 45,13 			"/>
		</g>
		<g>
			<path fill="#FFB533" d="M45,10v3H19v-3V7h7c0-3.3,2.7-6,6-6s6,2.7,6,6h7V10z M34,7c0-1.1-0.9-2-2-2c-1.1,0-2,0.9-2,2s0.9,2,2,2
				C33.1,9,34,8.1,34,7z"/>
		</g>
		<g>
			<path fill="#D3D5DD" d="M43.1,23c0.6,0,1.1,0.4,1.1,1c0,0.5-0.5,1-1.1,1H21.4c-0.6,0-1.1-0.5-1.1-1c0-0.6,0.5-1,1.1-1H43.1z"/>
		</g>
		<g>
			<path fill="#D3D5DD" d="M42.9,29c0.6,0,1.1,0.5,1.1,1s-0.5,1-1.1,1H21.1c-0.6,0-1.1-0.5-1.1-1s0.5-1,1.1-1H42.9z"/>
		</g>
		<g>
			<path fill="#D3D5DD" d="M42.9,35c0.6,0,1.1,0.5,1.1,1s-0.5,1-1.1,1H21.1c-0.6,0-1.1-0.5-1.1-1s0.5-1,1.1-1H42.9z"/>
		</g>
		<g>
			<path fill="#D3D5DD" d="M42.9,41c0.6,0,1.1,0.5,1.1,1s-0.5,1-1.1,1H21.1c-0.6,0-1.1-0.5-1.1-1s0.5-1,1.1-1H42.9z"/>
		</g>
		<g>
			<path fill="#2E2E2E" d="M32,5c1.1,0,2,0.9,2,2s-0.9,2-2,2c-1.1,0-2-0.9-2-2S30.9,5,32,5z"/>
		</g>
	</g>
	<path fill="#2E2E2E" d="M52,9h-6V7c0-0.6-0.4-1-1-1h-6.1c-0.5-3.4-3.4-6-6.9-6s-6.4,2.6-6.9,6H19c-0.6,0-1,0.4-1,1v2h-6
		c-1.7,0-3,1.3-3,3v49c0,1.7,1.3,3,3,3h40c1.7,0,3-1.3,3-3V12C55,10.3,53.7,9,52,9z M20,8h6c0.6,0,1-0.4,1-1c0-2.8,2.2-5,5-5
		s5,2.2,5,5c0,0.6,0.4,1,1,1h6v8H20V8z M45,18c0.6,0,1-0.4,1-1v-1h2v41H16V16h2v1c0,0.6,0.4,1,1,1H45z M53,61c0,0.6-0.4,1-1,1H12
		c-0.6,0-1-0.4-1-1V12c0-0.6,0.4-1,1-1h6v3h-4v45h36V14h-4v-3h6c0.6,0,1,0.4,1,1V61z"/>
</g>
</svg>
