<?xml version="1.0" encoding="utf-8"?>
<!-- Generator: Adobe Illustrator 18.0.0, SVG Export Plug-In . SVG Version: 6.00 Build 0)  -->
<!DOCTYPE svg PUBLIC "-//W3C//DTD SVG 1.1//EN" "http://www.w3.org/Graphics/SVG/1.1/DTD/svg11.dtd">
<svg version="1.1" id="Layer_1" xmlns="http://www.w3.org/2000/svg" xmlns:xlink="http://www.w3.org/1999/xlink" x="0px" y="0px"
	 viewBox="0 0 64 64" enable-background="new 0 0 64 64" xml:space="preserve">
<g>
	<g id="XMLID_2_">
		<g>
			<g>
				<path fill="#F9F7E4" d="M35,32c0-1.7-1.3-3-3-3s-3,1.3-3,3s1.3,3,3,3S35,33.7,35,32z M14.3,49.7C9.8,45.2,7,38.9,7,32
					s2.8-13.2,7.3-17.7S25.1,7,32,7s13.2,2.8,17.7,7.3S57,25.1,57,32s-2.8,13.2-7.3,17.7S38.9,57,32,57S18.8,54.2,14.3,49.7z"/>
			</g>
			<g>
				<path fill="#FCDA4F" d="M29,32c0-1.7,1.3-3,3-3s3,1.3,3,3s-1.3,3-3,3S29,33.7,29,32z"/>
			</g>
			<g>
				<path fill="#8E85C6" d="M32,1c17.1,0,31,13.9,31,31S49.1,63,32,63S1,49.1,1,32S14.9,1,32,1z M57,32c0-6.9-2.8-13.2-7.3-17.7
					S38.9,7,32,7s-13.2,2.8-17.7,7.3S7,25.1,7,32s2.8,13.2,7.3,17.7S25.1,57,32,57s13.2-2.8,17.7-7.3S57,38.9,57,32z"/>
			</g>
		</g>
		<g>
			<g>
				<path fill="#2C2C3D" d="M32,64C14.4,64,0,49.6,0,32S14.4,0,32,0s32,14.4,32,32S49.6,64,32,64z M32,2C15.5,2,2,15.5,2,32
					s13.5,30,30,30s30-13.5,30-30S48.5,2,32,2z"/>
			</g>
			<g>
				<path fill="#2C2C3D" d="M32,58c-6.9,0-13.5-2.7-18.4-7.6S6,38.9,6,32s2.7-13.5,7.6-18.4S25.1,6,32,6s13.5,2.7,18.4,7.6
					S58,25.1,58,32s-2.7,13.5-7.6,18.4S38.9,58,32,58z M32,8c-6.4,0-12.4,2.5-17,7S8,25.6,8,32s2.5,12.4,7,17s10.6,7,17,7
					s12.4-2.5,17-7s7-10.6,7-17s-2.5-12.4-7-17S38.4,8,32,8z"/>
			</g>
			<g>
				<path fill="#2C2C3D" d="M43,33h-7c-0.6,0-1-0.4-1-1s0.4-1,1-1h7c0.6,0,1,0.4,1,1S43.6,33,43,33z"/>
			</g>
			<g>
				<path fill="#2C2C3D" d="M32,29c-0.6,0-1-0.4-1-1V17c0-0.6,0.4-1,1-1s1,0.4,1,1v11C33,28.6,32.6,29,32,29z"/>
			</g>
			<g>
				<path fill="#2C2C3D" d="M32,13c-0.6,0-1-0.4-1-1V7c0-0.6,0.4-1,1-1s1,0.4,1,1v5C33,12.6,32.6,13,32,13z"/>
			</g>
			<g>
				<path fill="#2C2C3D" d="M32,58c-0.6,0-1-0.4-1-1v-5c0-0.6,0.4-1,1-1s1,0.4,1,1v5C33,57.6,32.6,58,32,58z"/>
			</g>
			<g>
				<path fill="#2C2C3D" d="M57,33h-5c-0.6,0-1-0.4-1-1s0.4-1,1-1h5c0.6,0,1,0.4,1,1S57.6,33,57,33z"/>
			</g>
			<g>
				<path fill="#2C2C3D" d="M12,33H7c-0.6,0-1-0.4-1-1s0.4-1,1-1h5c0.6,0,1,0.4,1,1S12.6,33,12,33z"/>
			</g>
			<g>
				<path fill="#2C2C3D" d="M49.7,50.7c-0.3,0-0.5-0.1-0.7-0.3l-3.5-3.5c-0.4-0.4-0.4-1,0-1.4s1-0.4,1.4,0l3.5,3.5
					c0.4,0.4,0.4,1,0,1.4C50.2,50.6,49.9,50.7,49.7,50.7z"/>
			</g>
			<g>
				<path fill="#2C2C3D" d="M17.9,18.9c-0.3,0-0.5-0.1-0.7-0.3L13.6,15c-0.4-0.4-0.4-1,0-1.4s1-0.4,1.4,0l3.5,3.5
					c0.4,0.4,0.4,1,0,1.4C18.4,18.8,18.1,18.9,17.9,18.9z"/>
			</g>
			<g>
				<path fill="#2C2C3D" d="M14.3,50.7c-0.3,0-0.5-0.1-0.7-0.3c-0.4-0.4-0.4-1,0-1.4l3.5-3.5c0.4-0.4,1-0.4,1.4,0s0.4,1,0,1.4
					L15,50.4C14.8,50.6,14.6,50.7,14.3,50.7z"/>
			</g>
			<g>
				<path fill="#2C2C3D" d="M46.1,18.9c-0.3,0-0.5-0.1-0.7-0.3c-0.4-0.4-0.4-1,0-1.4l3.5-3.5c0.4-0.4,1-0.4,1.4,0s0.4,1,0,1.4
					l-3.5,3.5C46.7,18.8,46.4,18.9,46.1,18.9z"/>
			</g>
			<g>
				<path fill="#2C2C3D" d="M32,36c-2.2,0-4-1.8-4-4s1.8-4,4-4s4,1.8,4,4S34.2,36,32,36z M32,30c-1.1,0-2,0.9-2,2s0.9,2,2,2
					s2-0.9,2-2S33.1,30,32,30z"/>
			</g>
		</g>
	</g>
</g>
</svg>
