<?xml version="1.0" encoding="utf-8"?>
<!-- Generator: Adobe Illustrator 18.0.0, SVG Export Plug-In . SVG Version: 6.00 Build 0)  -->
<!DOCTYPE svg PUBLIC "-//W3C//DTD SVG 1.1//EN" "http://www.w3.org/Graphics/SVG/1.1/DTD/svg11.dtd">
<svg version="1.1" id="Layer_1" xmlns="http://www.w3.org/2000/svg" xmlns:xlink="http://www.w3.org/1999/xlink" x="0px" y="0px"
	 viewBox="0 0 64 64" enable-background="new 0 0 64 64" xml:space="preserve">
<g>
	<g id="XMLID_2_">
		<g>
			<g>
				<path fill="#31C3A6" d="M63,32c0,3.8-0.7,7.4-1.9,10.7l-0.2-0.1c-0.4-2.3-2.9-4.8-5-4.9c-2.1-0.1-4.3,0.5-6.4,0
					c-2.5-0.6-5.1-11.3-3.3-13.2c1.4-1.5,4.5-8.8,3.1-9.4c-1.4-0.6-4.8,0.2-6.3-0.3c-1.3-0.4-6.2-5.8-6.8-8
					c-0.7-2.3-0.5-3.2-0.5-5.6v0C51.1,3,63,16.1,63,32z"/>
			</g>
			<g>
				<path fill="#49A3DF" d="M60.9,42.6l0.2,0.1C59.5,47,57,50.8,53.9,54c-2.6,0.3-12.4-2.2-15.8-3.9c-1.8-0.9-7.4-7.5-9.3-7.4
					c-2.9,0.1-6,2.1-6.7,5.3c-0.3,1.5,2.1,5.3,2.5,6.5c0.8,2.4,0.7,5.2-0.4,7.5l0,0c-9.5-2.5-17.3-9.4-20.9-18.5h0
					c2,0.6,11.8-1.2,11.4-3.2c-0.4-2.1-1.1-4.2,0.6-6c1.2-1.2,3.2-1,4.7-1.1c1.1,0,2.4-0.2,3.3-0.9c0.5-0.4,5.2-6.7,5.4-7.3
					c0.2-0.6,0-1.5-0.1-2.1c-0.3-1.4-6-5.8-6.6-6c-0.5-0.2-2.6,2.1-3.5,2.9C16.7,21.2,8.4,17.2,6,15.1C11.6,6.6,21.1,1,32,1
					c1.2,0,2.5,0.1,3.7,0.2v0c0,2.3-0.2,3.3,0.5,5.6c0.6,2.2,5.5,7.5,6.8,8c1.4,0.5,4.9-0.3,6.3,0.3c1.4,0.6-1.7,7.9-3.1,9.4
					c-1.8,1.9,0.8,12.6,3.3,13.2c2.1,0.5,4.3-0.1,6.4,0C58,37.9,60.5,40.3,60.9,42.6z M36,37.7c0.4-0.8,0.3-1.8-0.3-2.4
					c-0.4-0.4-0.9-0.6-1.4-0.6c-0.8,0-1.5,0.3-1.9,1c-0.4,0.7-0.5,1.7,0,2.4c0.3,0.5,1.2,1.2,1.9,1.1C34.9,38.9,35.6,38.4,36,37.7z"
					/>
			</g>
			<g>
				<path fill="#31C3A6" d="M38,50.1c3.4,1.7,13.2,4.2,15.8,3.9c-5.6,5.6-13.3,9-21.9,9c-2.7,0-5.4-0.3-7.9-1l0,0
					c1.1-2.3,1.2-5.1,0.4-7.5c-0.4-1.2-2.8-5-2.5-6.5c0.6-3.2,3.8-5.2,6.7-5.3C30.7,42.6,36.3,49.2,38,50.1z"/>
			</g>
			<g>
				<path fill="#31C3A6" d="M35.7,35.3c0.6,0.7,0.7,1.7,0.3,2.4c-0.3,0.7-1,1.2-1.8,1.4c-0.7,0.2-1.6-0.5-1.9-1.1
					c-0.4-0.7-0.4-1.7,0-2.4c0.4-0.6,1.2-1,1.9-1C34.8,34.7,35.3,34.9,35.7,35.3z"/>
			</g>
			<g>
				<path fill="#31C3A6" d="M28.5,22.9c0.2,0.6,0.4,1.5,0.1,2.1c-0.2,0.6-5,6.9-5.4,7.3c-0.9,0.7-2.2,0.9-3.3,0.9
					c-1.5,0-3.5-0.1-4.7,1.1c-1.7,1.7-1,3.9-0.6,6c0.4,2-9.5,3.8-11.4,3.2h0C1.8,40,1,36.1,1,32c0-6.2,1.8-12.1,5-16.9
					c2.3,2.1,10.7,6.2,12.4,4.7c0.9-0.8,3-3.1,3.5-2.9C22.5,17.1,28.2,21.5,28.5,22.9z"/>
			</g>
		</g>
		<g>
			<path fill="#2C2C3D" d="M64,32C64,15.8,51.9,2.1,35.8,0.2C34.6,0.1,33.3,0,32,0C21.2,0,11.1,5.4,5.2,14.5C1.8,19.7,0,25.8,0,32
				c0,4.1,0.8,8.1,2.3,11.9C6,53.3,14.1,60.4,23.9,63c2.6,0.7,5.4,1,8.1,1c8.4,0,16.4-3.2,22.4-9.1c0.3-0.1,0.5-0.3,0.6-0.6
				c3.1-3.2,5.5-7,7-11.2C63.3,39.5,64,35.8,64,32z M6.3,16.5c3,2.1,10.5,5.9,12.8,4c0.3-0.2,0.7-0.6,1.1-1c0.5-0.5,1.3-1.2,1.7-1.6
				c1.4,0.9,5.4,4.2,5.7,5.1c0.1,0.4,0.3,1.2,0.2,1.5c-0.4,0.7-4.5,6.3-5.1,6.9c-0.6,0.5-1.5,0.7-2.7,0.7l-0.5,0
				c-1.6,0-3.5,0-4.8,1.4c-1.9,1.9-1.4,4.3-1,6.3l0.1,0.5c-0.8,1-7.3,2.6-9.7,2.3c-1.3-3.4-2-7-2-10.7C2,26.5,3.5,21.2,6.3,16.5z
				 M4.8,44.6c3.1-0.1,8.5-1.2,10.2-2.7c0.8-0.7,0.8-1.4,0.7-1.8l-0.1-0.6c-0.4-2-0.6-3.4,0.5-4.4c0.7-0.8,2.2-0.8,3.4-0.8l0.6,0
				c1.7,0,2.9-0.4,3.9-1.1c0.5-0.4,5.5-6.9,5.8-7.8c0.3-0.9,0.1-2-0.1-2.7c-0.5-1.9-6.5-6.4-7.2-6.7c-0.9-0.3-1.7,0.4-3.5,2.2
				c-0.4,0.4-0.7,0.7-1,0.9c-1,0.7-7.5-1.9-10.4-4.1C13,6.8,22.1,2,32,2c0.9,0,1.8,0.1,2.7,0.1c0,0.1,0,0.2,0,0.2
				c0,1.6,0,2.7,0.5,4.7c0.7,2.4,5.8,8.1,7.5,8.6c0.8,0.3,2,0.2,3.3,0.1c0.9,0,2.1-0.1,2.7,0c0.1,1.4-2,6.7-3.2,7.9
				c-1.9,2-0.2,8.3,0,9c0.6,2,1.8,5.4,3.7,5.9c1.4,0.4,2.9,0.2,4.2,0.1c0.8-0.1,1.6-0.1,2.4-0.1c1.7,0.1,3.7,2.1,4.1,4
				c0,0,0,0.1,0,0.1c-1.5,3.7-3.7,7.2-6.5,10.1c-2.8,0.1-11.7-2.2-14.9-3.8c-0.6-0.3-1.9-1.6-3.1-2.7c-3.1-3-5.1-4.8-6.6-4.8
				c0,0,0,0,0,0c-3.1,0.1-6.9,2.2-7.6,6.1c-0.2,1.2,0.6,3.1,1.8,5.4c0.3,0.7,0.7,1.3,0.8,1.6c0.6,2,0.6,4.2,0,6
				C15.3,58.4,8.4,52.4,4.8,44.6z M25.5,61.3c0.7-2.2,0.8-4.8,0-7.1c-0.2-0.5-0.5-1.1-0.9-1.9c-0.6-1.1-1.7-3.4-1.6-4.1
				c0.5-2.8,3.3-4.4,5.7-4.5c0.9,0,3.7,2.8,5.3,4.2c1.7,1.6,2.8,2.7,3.6,3.1c2.8,1.4,9.7,3.3,13.9,3.9C46,59.5,39.2,62,32,62
				C29.8,62,27.6,61.7,25.5,61.3z M60.9,40.1c-1.2-1.8-3.1-3.2-5-3.3c-0.9,0-1.8,0-2.6,0.1C52,37,50.8,37,49.7,36.8
				c-0.3-0.1-1.4-1.3-2.3-4.5c-1-3.6-1-6.6-0.5-7.1c1.3-1.4,4.1-7.4,3.7-9.8c-0.1-0.8-0.6-1.1-0.9-1.3c-1-0.4-2.4-0.4-3.8-0.3
				c-1,0.1-2,0.1-2.5,0c-1.1-0.4-5.7-5.5-6.2-7.3c-0.5-1.7-0.5-2.6-0.5-4.2c0,0,0,0,0,0C51.2,4.6,62,17.2,62,32
				C62,34.8,61.6,37.5,60.9,40.1z"/>
			<path fill="#2C2C3D" d="M34,40.1c0.2,0,0.3,0,0.5-0.1c1-0.3,1.9-1,2.4-1.9c0.6-1.2,0.4-2.6-0.4-3.5c-0.5-0.6-1.3-0.9-2.2-1
				c-1.1,0-2.1,0.6-2.7,1.4c-0.7,1-0.7,2.4-0.1,3.4C31.9,39.3,33,40.1,34,40.1z M33.2,36.2c0.2-0.3,0.6-0.5,1.1-0.5
				c0.2,0,0.5,0.1,0.7,0.3c0.3,0.3,0.3,0.9,0.1,1.3c-0.2,0.4-0.6,0.7-1.1,0.8c-0.2,0-0.6-0.3-0.8-0.6C32.9,37.1,32.9,36.6,33.2,36.2
				z"/>
		</g>
	</g>
</g>
</svg>
