<?xml version="1.0" encoding="utf-8"?>
<!-- Generator: Adobe Illustrator 18.0.0, SVG Export Plug-In . SVG Version: 6.00 Build 0)  -->
<!DOCTYPE svg PUBLIC "-//W3C//DTD SVG 1.1//EN" "http://www.w3.org/Graphics/SVG/1.1/DTD/svg11.dtd">
<svg version="1.1" id="Layer_1" xmlns="http://www.w3.org/2000/svg" xmlns:xlink="http://www.w3.org/1999/xlink" x="0px" y="0px"
	 viewBox="0 0 64 64" enable-background="new 0 0 64 64" xml:space="preserve">
<g>
	<g id="XMLID_1_">
		<g>
			<g>
				<polygon fill="#A57E76" points="54.9,26.1 63,34.3 60.1,37 55.1,32 32,8.6 8.9,32 3.9,37 1,34.3 32,3 47.9,19.1 				"/>
			</g>
			<g>
				<path fill="#EFE4D8" d="M27,29h5h5v-8h-5h-5V29z M24,51.9h7V46v-6h-7h-7v6v5.8H24z M32,8.6L55.1,32L55,32v25h-6V40H39v17H9V32
					L8.9,32L32,8.6z"/>
			</g>
			<g>
				<polygon fill="#A57E76" points="55,57 55,61 9,61 9,57 39,57 49,57 				"/>
			</g>
			<g>
				<rect x="49" y="57" fill="#A57E76" width="6" height="0"/>
			</g>
			<g>
				<polygon fill="#EFE4D8" points="55,15 55,26 54.9,26.1 47.9,19.1 48,19 48,15 				"/>
			</g>
			<g>
				<rect x="48" y="11" fill="#98A6B7" width="7" height="4"/>
			</g>
			<g>
				<rect x="39" y="57" fill="#A57E76" width="10" height="0"/>
			</g>
			<g>
				<rect x="39" y="40" fill="#98A6B7" width="10" height="17"/>
			</g>
			<g>
				<rect x="9" y="57" fill="#A57E76" width="30" height="0"/>
			</g>
			<g>
				<rect x="32" y="21" fill="#82CCF4" width="5" height="8"/>
			</g>
			<g>
				<rect x="27" y="21" fill="#82CCF4" width="5" height="8"/>
			</g>
			<g>
				<rect x="24" y="46" fill="#82CCF4" width="7" height="5.8"/>
			</g>
			<g>
				<rect x="24" y="40" fill="#82CCF4" width="7" height="6"/>
			</g>
			<g>
				<rect x="17" y="46" fill="#82CCF4" width="7" height="5.8"/>
			</g>
			<g>
				<rect x="17" y="40" fill="#82CCF4" width="7" height="6"/>
			</g>
		</g>
		<g>
			<g>
				<path fill="#2C2C3D" d="M9,58c-0.6,0-1-0.4-1-1V32c0-0.6,0.4-1,1-1s1,0.4,1,1v25C10,57.6,9.6,58,9,58z"/>
			</g>
			<g>
				<rect x="9" y="56" fill="#2C2C3D" width="46" height="2"/>
			</g>
			<g>
				<path fill="#2C2C3D" d="M55,58c-0.6,0-1-0.4-1-1V32c0-0.6,0.4-1,1-1s1,0.4,1,1v25C56,57.6,55.6,58,55,58z"/>
			</g>
			<g>
				<path fill="#2C2C3D" d="M55,62H9c-0.6,0-1-0.4-1-1v-4c0-0.6,0.4-1,1-1h46c0.6,0,1,0.4,1,1v4C56,61.6,55.6,62,55,62z M10,60h44
					v-2H10V60z"/>
			</g>
			<g>
				<path fill="#2C2C3D" d="M48,57V41h-8v16l-2,0V40c0-0.6,0.4-1,1-1h10c0.6,0,1,0.4,1,1v17L48,57z"/>
			</g>
			<g>
				<path fill="#2C2C3D" d="M31,52.9H17c-0.6,0-1-0.4-1-1V40c0-0.6,0.4-1,1-1h14c0.6,0,1,0.4,1,1v11.8C32,52.4,31.6,52.9,31,52.9z
					 M18,50.9h12V41H18V50.9z"/>
			</g>
			<g>
				<rect x="23" y="40" fill="#2C2C3D" width="2" height="12"/>
			</g>
			<g>
				<rect x="17" y="45" fill="#2C2C3D" width="14" height="2"/>
			</g>
			<g>
				<path fill="#2C2C3D" d="M56,26h-2V12h-5v7h-2v-8c0-0.6,0.4-1,1-1h7c0.6,0,1,0.4,1,1V26z"/>
			</g>
			<g>
				<rect x="48" y="14" fill="#2C2C3D" width="7" height="2"/>
			</g>
			<g>
				<path fill="#2C2C3D" d="M38,29h-2v-7h-8v7h-2v-8c0-0.6,0.4-1,1-1h10c0.6,0,1,0.4,1,1V29z"/>
			</g>
			<g>
				<rect x="31" y="21" fill="#2C2C3D" width="2" height="8"/>
			</g>
			<g>
				<path fill="#2C2C3D" d="M39,30H25c-0.6,0-1-0.4-1-1s0.4-1,1-1h14c0.6,0,1,0.4,1,1S39.6,30,39,30z"/>
			</g>
			<g>
				<path fill="#2C2C3D" d="M60.1,38c-0.3,0-0.5-0.1-0.7-0.3L32,10L4.6,37.8c-0.4,0.4-1,0.4-1.4,0l-2.9-2.7C0.1,34.9,0,34.6,0,34.4
					s0.1-0.5,0.3-0.7l31-31.4c0.4-0.4,1-0.4,1.4,0l31,31.4c0.2,0.2,0.3,0.5,0.3,0.7c0,0.3-0.1,0.5-0.3,0.7l-2.9,2.7
					C60.6,38,60.4,38,60.1,38z M2.4,34.3l1.4,1.3L31.3,7.9c0.4-0.4,1-0.4,1.4,0l27.4,27.8l1.4-1.3L32,4.4L2.4,34.3z"/>
			</g>
			<g>
				<path fill="#2C2C3D" d="M42,50c-0.6,0-1-0.4-1-1v-3c0-0.6,0.4-1,1-1s1,0.4,1,1v3C43,49.6,42.6,50,42,50z"/>
			</g>
		</g>
	</g>
</g>
</svg>
