<?xml version="1.0" encoding="utf-8"?>
<!-- Generator: Adobe Illustrator 18.0.0, SVG Export Plug-In . SVG Version: 6.00 Build 0)  -->
<!DOCTYPE svg PUBLIC "-//W3C//DTD SVG 1.1//EN" "http://www.w3.org/Graphics/SVG/1.1/DTD/svg11.dtd">
<svg version="1.1" id="Layer_1" xmlns="http://www.w3.org/2000/svg" xmlns:xlink="http://www.w3.org/1999/xlink" x="0px" y="0px"
	 viewBox="0 0 64 64" enable-background="new 0 0 64 64" xml:space="preserve">
<g id="XMLID_3_">
	<g>
		<g>
			<g>
				<path fill="#CCDBE2" d="M63,39.1v8c0,1.7-1.3,3-3,3H39.9H24.1H4c-1.7,0-3-1.3-3-3v-8H63z M34,44.6c0-1.1-0.9-2-2-2
					c-1.1,0-2,0.9-2,2s0.9,2,2,2C33.1,46.6,34,45.7,34,44.6z"/>
			</g>
		</g>
		<g>
			<g>
				<path fill="#58677A" d="M63,4v35.1H1V4c0-1.7,1.3-3,3-3h56C61.7,1,63,2.3,63,4z M58.9,35V5H5v30H58.9z"/>
			</g>
		</g>
		<g>
			<g>
				<rect x="5" y="5" fill="#B1DAE5" width="53.9" height="30"/>
			</g>
		</g>
		<g>
			<g>
				<path fill="#CCDBE2" d="M40.8,58.3L44,63H33.9h-3.9H20l3.2-4.7c0.6-0.8,0.9-1.8,0.9-2.8v-5v-0.4h15.9v0.4v5
					C39.9,56.5,40.2,57.4,40.8,58.3z"/>
			</g>
		</g>
		<g>
			<g>
				<path fill="#58677A" d="M32,42.6c1.1,0,2,0.9,2,2s-0.9,2-2,2c-1.1,0-2-0.9-2-2S30.9,42.6,32,42.6z"/>
			</g>
		</g>
	</g>
	<g>
		<g>
			<g>
				<path fill="#2C2C3D" d="M60,51.1H4c-2.2,0-4-1.8-4-4V4c0-2.2,1.8-4,4-4h56c2.2,0,4,1.8,4,4v43.1C64,49.3,62.2,51.1,60,51.1z
					 M4,2C2.9,2,2,2.9,2,4v43.1c0,1.1,0.9,2,2,2h56c1.1,0,2-0.9,2-2V4c0-1.1-0.9-2-2-2H4z"/>
			</g>
		</g>
		<g>
			<g>
				<path fill="#2C2C3D" d="M32,47.6c-1.7,0-3-1.3-3-3s1.3-3,3-3s3,1.3,3,3S33.7,47.6,32,47.6z M32,43.6c-0.6,0-1,0.4-1,1s0.4,1,1,1
					s1-0.4,1-1S32.6,43.6,32,43.6z"/>
			</g>
		</g>
		<g>
			<g>
				<path fill="#2C2C3D" d="M63,40.1H1c-0.6,0-1-0.4-1-1s0.4-1,1-1h62c0.6,0,1,0.4,1,1S63.6,40.1,63,40.1z"/>
			</g>
		</g>
		<g>
			<g>
				<path fill="#2C2C3D" d="M44,64H20c-0.4,0-0.7-0.2-0.9-0.5c-0.2-0.3-0.2-0.7,0.1-1l3.2-4.7c0.4-0.7,0.7-1.4,0.7-2.2v-5
					c0-0.6,0.4-1,1-1s1,0.4,1,1v5c0,1.2-0.4,2.4-1,3.4L21.9,62h20.2L40,58.8c-0.7-1-1-2.2-1-3.4v-5c0-0.6,0.4-1,1-1s1,0.4,1,1v5
					c0,0.8,0.2,1.6,0.7,2.2l3.2,4.7c0.2,0.3,0.2,0.7,0.1,1C44.7,63.8,44.4,64,44,64z"/>
			</g>
		</g>
		<g>
			<g>
				<path fill="#2C2C3D" d="M58.9,36H5c-0.6,0-1-0.4-1-1V5c0-0.6,0.4-1,1-1h53.9c0.6,0,1,0.4,1,1v30C59.9,35.6,59.4,36,58.9,36z
					 M6,34h51.9V6H6V34z"/>
			</g>
		</g>
		<g>
			<g>
				<path fill="#2C2C3D" d="M34,58H24c-0.6,0-1-0.4-1-1s0.4-1,1-1h10c0.6,0,1,0.4,1,1S34.6,58,34,58z"/>
			</g>
		</g>
	</g>
</g>
</svg>
