<?xml version="1.0" encoding="utf-8"?>
<!-- Generator: Adobe Illustrator 18.0.0, SVG Export Plug-In . SVG Version: 6.00 Build 0)  -->
<!DOCTYPE svg PUBLIC "-//W3C//DTD SVG 1.1//EN" "http://www.w3.org/Graphics/SVG/1.1/DTD/svg11.dtd">
<svg version="1.1" id="Layer_1" xmlns="http://www.w3.org/2000/svg" xmlns:xlink="http://www.w3.org/1999/xlink" x="0px" y="0px"
	 viewBox="0 0 64 64" enable-background="new 0 0 64 64" xml:space="preserve">
<g id="XMLID_3_">
	<g>
		<g>
			<path fill="#FF5F5F" d="M52,47c0,4.4,2.8,8.1,6.7,9.4v0c-3.4-1.1-10.3-2-18.8-2.3C37.4,54,34.8,54,32,54s-5.4,0-8,0.2
				c-8.7,0.3-15.8,1.2-19,2.4v0c4.1-1.3,7-5.1,7-9.5c0-0.5,0-1.2,0-1.9c5.2-0.7,12.2-1.1,20-1.1s14.8,0.4,20,1.1V47z"/>
		</g>
		<g>
			<path fill="#BEBECC" d="M28,5c0-2.2,1.8-4,4-4c1.1,0,2.1,0.5,2.8,1.2C35.5,2.9,36,3.9,36,5v2l-0.1,0.4C34.7,7.1,33.3,7,32,7
				l-3.9,0.4L28,7V5z"/>
		</g>
		<g>
			<path fill="#BEBECC" d="M40,54.2c-0.3,4.1-3.8,7.3-8,7.3s-7.6-3.2-8-7.3c2.5-0.1,5.2-0.2,8-0.2S37.4,54,40,54.2z"/>
		</g>
		<g>
			<path fill="#F7C331" d="M32,61.5l0,1.5c-16,0-29-2.8-29-5c0-0.5,0.7-1,2-1.5c3.3-1.2,10.3-2,19-2.4C24.4,58.3,27.8,61.5,32,61.5z
				"/>
		</g>
		<g>
			<path fill="#F7C331" d="M32,61.5c4.2,0,7.6-3.2,8-7.3c8.5,0.3,15.4,1.2,18.8,2.3c1.5,0.5,2.3,1,2.3,1.5c0,2.2-13,5-29,5h0
				L32,61.5z"/>
		</g>
		<g>
			<path fill="#FCDA4F" d="M52,27v18.1C46.8,44.4,39.8,44,32,44s-14.8,0.4-20,1.1c0-5.9,0-18.1,0-18.1c0-5.5,2.2-10.5,5.9-14.1
				c2.7-2.7,6.3-4.7,10.2-5.5L32,7c1.3,0,2.7,0.1,3.9,0.4C45.1,9.2,52,17.3,52,27z"/>
		</g>
	</g>
	<g>
		<g>
			<path fill="#2C2C3D" d="M36,8c-0.6,0-1-0.4-1-1V5c0-0.8-0.3-1.5-0.9-2.1C33.5,2.3,32.8,2,32,2c-1.7,0-3,1.3-3,3v2
				c0,0.6-0.4,1-1,1s-1-0.4-1-1V5c0-2.8,2.2-5,5-5c1.3,0,2.6,0.5,3.5,1.5C36.5,2.4,37,3.7,37,5v2C37,7.6,36.6,8,36,8z"/>
		</g>
		<g>
			<path fill="#2C2C3D" d="M32,62.5c-4.7,0-8.6-3.6-9-8.3c0-0.2,0-0.5,0-0.7h2c0,0.2,0,0.4,0,0.6c0.3,3.6,3.4,6.4,7,6.4
				s6.7-2.8,7-6.4c0-0.2,0-0.4,0-0.6h2c0,0.3,0,0.5,0,0.8C40.6,58.9,36.7,62.5,32,62.5z"/>
		</g>
		<g>
			<path fill="#2C2C3D" d="M32,64L32,64c-12.6,0-30-2.1-30-6c0-1.5,2-2.2,2.7-2.4c3.4-1.2,10.5-2.1,19.3-2.4c2.4-0.1,5.1-0.2,8-0.2
				s5.6,0.1,8,0.2c8.6,0.3,15.5,1.2,19,2.3c1.3,0.4,3,1.1,3,2.5C62,61.9,44.6,64,32,64z M4.1,58c1.7,1.5,12.7,4,27.9,4h0
				c15.2,0,26.2-2.5,27.9-4c-0.2-0.1-0.6-0.4-1.5-0.6c-3.3-1.1-10.2-1.9-18.5-2.2C37.5,55.1,34.8,55,32,55s-5.5,0.1-7.9,0.2
				c-8.5,0.3-15.6,1.2-18.7,2.3C4.7,57.7,4.3,57.9,4.1,58z"/>
		</g>
		<g>
			<path fill="#2C2C3D" d="M52,46.1c0,0-0.1,0-0.1,0C46.5,45.4,39.4,45,32,45s-14.5,0.4-19.9,1.1c-0.5,0.1-1-0.3-1.1-0.9
				c-0.1-0.5,0.3-1,0.9-1.1C17.3,43.4,24.5,43,32,43s14.7,0.4,20.1,1.1c0.5,0.1,0.9,0.6,0.9,1.1C52.9,45.7,52.5,46.1,52,46.1z"/>
		</g>
		<g>
			<path fill="#2C2C3D" d="M5,57.5c-0.4,0-0.8-0.3-1-0.7c-0.2-0.5,0.1-1.1,0.7-1.3C8.5,54.4,11,51,11,47V27c0-5.6,2.2-10.9,6.2-14.8
				c3-3,6.7-4.9,10.7-5.8l4-0.4c1.6,0,2.9,0.1,4.2,0.4C45.9,8.4,53,17,53,27v20c0,3.8,2.4,7.2,6,8.5c0.1,0,0.2,0.1,0.2,0.1l-0.3,1
				l-0.3,0.9l0.3-0.9l-0.4,0.9c-0.1,0-0.2-0.1-0.3-0.1C54,55.9,51,51.7,51,47V27c0-9-6.4-16.8-15.3-18.6C34.5,8.1,33.3,8,32,8
				l-3.8,0.4c-3.6,0.7-6.9,2.5-9.6,5.2C15,17.2,13,21.9,13,27v20c0,4.8-3.1,9.1-7.7,10.5C5.2,57.5,5.1,57.5,5,57.5z"/>
		</g>
	</g>
</g>
</svg>
