<?xml version="1.0" encoding="utf-8"?>
<!-- Generator: Adobe Illustrator 18.0.0, SVG Export Plug-In . SVG Version: 6.00 Build 0)  -->
<!DOCTYPE svg PUBLIC "-//W3C//DTD SVG 1.1//EN" "http://www.w3.org/Graphics/SVG/1.1/DTD/svg11.dtd">
<svg version="1.1" id="Layer_1" xmlns="http://www.w3.org/2000/svg" xmlns:xlink="http://www.w3.org/1999/xlink" x="0px" y="0px"
	 viewBox="0 0 64 64" enable-background="new 0 0 64 64" xml:space="preserve">
<g id="XMLID_18_">
	<g>
		<g>
			<path fill="#316CFF" d="M55,62.9H9c0-8.9,5.9-16.5,14-19.1l0.1,0.2c0.5,4.5,4.3,8,8.9,8s8.5-3.5,9-8l0.1-0.2
				C49.1,46.4,55,54,55,62.9z"/>
		</g>
		<g>
			<path fill="#F7BE8F" d="M48.8,22.2c0.7,0.7,1.2,1.7,1.2,2.8c0,2.2-1.8,4-4,4l-0.1,0c0.1-0.6,0.1-1.3,0.1-2c0-1.3,0-3.8,0-6
				C47.1,21,48.1,21.5,48.8,22.2z"/>
		</g>
		<g>
			<path fill="#434259" d="M41.6,4.8L42,5c4.2,3.1,7,6.2,7,11.8V22l-0.2,0.2C48.1,21.5,47.1,21,46,21c0-2.1,0-4,0-4l-6-5
				c-1.8,4.7-7.2,8-12.5,8c-3.6,0-7.2-1.5-9.5-4v1c0,0,0,1.9,0,4c-1.1,0-2.1,0.5-2.8,1.2L15,22v-7c0-3.7,1.2-6.5,3.2-8.7
				C21.4,2.8,26,0.8,30.7,1c3.7,0.1,6.9,1.1,11.3,0c0.2,0.7,0.2,1.4,0.1,2C42,3.7,41.8,4.3,41.6,4.8z"/>
		</g>
		<g>
			<path fill="#FAD3A1" d="M27,40.1c-0.7-0.3-1.4-0.6-2-1c-3.8-2.2-6.3-5.9-6.9-10.2C18,28.3,18,27.7,18,27c0-1.3,0-3.8,0-6
				c0-2.1,0-4,0-4v-1c2.3,2.5,5.9,4,9.5,4c5.3,0,10.7-3.3,12.5-8l6,5c0,0,0,1.9,0,4c0,2.2,0,4.7,0,6c0,0.7,0,1.3-0.1,2
				c-0.3,1.8-0.9,3.5-1.7,5c-1.2,2.1-3,3.9-5.1,5.1c-0.7,0.4-1.3,0.7-2,1c-1.6,0.6-3.3,0.9-5,0.9S28.6,40.7,27,40.1z M39,25.5
				c0-0.8-0.7-1.5-1.5-1.5S36,24.7,36,25.5s0.7,1.5,1.5,1.5S39,26.3,39,25.5z M28,25.5c0-0.8-0.7-1.5-1.5-1.5S25,24.7,25,25.5
				s0.7,1.5,1.5,1.5S28,26.3,28,25.5z"/>
		</g>
		<g>
			<path fill="#FFFFFF" d="M41,43.8L41,44c-0.5,4.5-4.3,8-9,8s-8.4-3.5-8.9-8L23,43.8c1.3-0.4,2.6-0.7,4-0.8c0,1.4,0.6,2.6,1.5,3.5
				S30.6,48,32,48c2.8,0,5-2.2,5-5C38.4,43.1,39.7,43.4,41,43.8z"/>
		</g>
		<g>
			<circle fill="#2D2D2D" cx="37.5" cy="25.5" r="1.5"/>
		</g>
		<g>
			<path fill="#F7BE8F" d="M37,40.1V43c0,2.8-2.2,5-5,5c-1.4,0-2.6-0.6-3.5-1.5S27,44.4,27,43v-2.9c1.6,0.6,3.3,0.9,5,0.9
				S35.4,40.7,37,40.1z"/>
		</g>
		<g>
			<circle fill="#2D2D2D" cx="26.5" cy="25.5" r="1.5"/>
		</g>
		<g>
			<path fill="#F7BE8F" d="M18.1,29L18,29c-2.2,0-4-1.8-4-4c0-1.1,0.4-2.1,1.2-2.8c0.7-0.7,1.7-1.2,2.8-1.2c0,2.2,0,4.7,0,6
				C18,27.7,18,28.3,18.1,29z"/>
		</g>
	</g>
	<g>
		<path fill="#2C2C3D" d="M41.3,42.9c-1.1-0.3-2.2-0.6-3.3-0.7v-1.4c0.5-0.2,1-0.5,1.5-0.7c2.3-1.3,4.2-3.2,5.5-5.5
			c0.8-1.4,1.4-2.9,1.7-4.6c2.4-0.3,4.3-2.4,4.3-4.9c0-1.1-0.4-2.1-1-3c0,0,0,0,0,0v-5.2c0-5.8-2.9-9.2-7.2-12.4
			C43,4,43.1,3.5,43.1,3.1c0,0,0,0,0,0c0,0,0,0,0,0c0,0,0,0,0,0c0,0,0,0,0,0c0.1-0.8,0-1.5-0.1-2.3c-0.1-0.3-0.2-0.5-0.5-0.6
			C42.3,0,42,0,41.8,0c-2.9,0.7-5.3,0.5-7.7,0.2C33,0.2,31.9,0,30.8,0c-5.1-0.2-9.9,1.9-13.3,5.6C15.1,8.2,14,11.3,14,15v7
			c0,0,0,0,0,0c-0.6,0.9-1,1.9-1,3c0,2.5,1.9,4.6,4.3,4.9c0.8,4.2,3.4,7.9,7.2,10.1c0.5,0.3,1,0.5,1.5,0.7v1.4
			c-1.1,0.2-2.2,0.4-3.3,0.7C13.9,45.7,8,53.7,8,62.9c0,0.6,0.4,1,1,1h46c0.6,0,1-0.4,1-1C56,53.7,50.1,45.7,41.3,42.9z M32,42
			c1.4,0,2.7-0.2,4-0.5V43c0,2.2-1.8,4-4,4c-1.1,0-2.1-0.4-2.8-1.2S28,44.1,28,43v-1.5C29.3,41.8,30.6,42,32,42z M27.8,47.2
			c1.1,1.1,2.6,1.8,4.2,1.8c2.9,0,5.4-2.1,5.9-4.9c0.7,0.1,1.3,0.2,2,0.4c-0.7,3.7-4,6.4-7.8,6.4c-3.9,0-7.1-2.7-7.8-6.4
			c0.6-0.2,1.3-0.3,2-0.4C26.3,45.3,26.9,46.4,27.8,47.2z M47,27.8c0-0.3,0-0.6,0-0.8v-4.8c0.4,0.1,0.8,0.4,1.1,0.7
			c0.6,0.6,0.9,1.3,0.9,2.1C49,26.3,48.1,27.4,47,27.8z M19,6.9c2.9-3.2,7.3-5.1,11.7-4.9c1.1,0,2.1,0.1,3.1,0.3
			c2.3,0.2,4.6,0.5,7.4,0c0,0.2,0,0.4,0,0.7c0,0,0,0,0,0c0,0,0,0,0,0c-0.1,0.5-0.2,1-0.4,1.6c-0.2,0.6-0.5,0.9-0.5,0.9
			c-0.3,0.4-0.3,1.1,0.2,1.4C40.6,6.9,40.8,7,41,7c0.3,0,0.6-0.1,0.8-0.4c0,0,0.1-0.2,0.2-0.3c3.7,2.8,6,5.6,6,10.5v3.7
			c-0.3-0.1-0.7-0.3-1-0.3V17c0-0.3-0.1-0.6-0.4-0.8l-6-5C40.4,11,40.1,11,39.7,11s-0.6,0.3-0.7,0.6c-1.6,4.2-6.6,7.4-11.6,7.4
			c-3.3,0-6.7-1.4-8.8-3.7c-0.3-0.3-0.7-0.4-1.1-0.3C17.3,15.2,17,15.6,17,16v4.1c-0.3,0.1-0.7,0.2-1,0.3V15C16,11.8,17,9.2,19,6.9z
			 M15,25c0-0.8,0.3-1.6,0.9-2.1c0.3-0.3,0.7-0.6,1.1-0.7V27c0,0.3,0,0.5,0,0.8C15.9,27.4,15,26.3,15,25z M19.1,28.8
			C19,28.2,19,27.6,19,27v-8.8c2.4,1.7,5.5,2.8,8.5,2.8c5.4,0,10.5-3,12.9-7.4l4.6,3.9V27c0,0.6,0,1.2-0.1,1.8
			c-0.2,1.7-0.8,3.2-1.6,4.7c-1.1,2-2.8,3.6-4.7,4.8c-0.6,0.4-1.3,0.7-1.9,0.9c-2.9,1.1-6.3,1.1-9.3,0c-0.6-0.2-1.2-0.5-1.9-0.9
			C22,36.2,19.7,32.8,19.1,28.8z M10,61.9c0.4-7.5,5.2-14,12.2-16.7c1,4.5,5,7.8,9.8,7.8c4.7,0,8.8-3.3,9.8-7.8
			c6.9,2.7,11.8,9.3,12.2,16.7H10z"/>
		<path fill="#2C2C3D" d="M32,37c1.2,0,2.6-0.4,3.6-1.2c0.4-0.3,0.6-0.9,0.2-1.4c-0.3-0.4-0.9-0.6-1.4-0.2C33.8,34.7,32.8,35,32,35
			s-1.8-0.3-2.5-0.8c-0.5-0.3-1.1-0.2-1.4,0.2c-0.3,0.5-0.2,1.1,0.2,1.4C29.4,36.5,30.8,37,32,37z"/>
	</g>
</g>
</svg>
