<?xml version="1.0" encoding="utf-8"?>
<!-- Generator: Adobe Illustrator 18.0.0, SVG Export Plug-In . SVG Version: 6.00 Build 0)  -->
<!DOCTYPE svg PUBLIC "-//W3C//DTD SVG 1.1//EN" "http://www.w3.org/Graphics/SVG/1.1/DTD/svg11.dtd">
<svg version="1.1" id="Layer_1" xmlns="http://www.w3.org/2000/svg" xmlns:xlink="http://www.w3.org/1999/xlink" x="0px" y="0px"
	 viewBox="0 0 64 64" enable-background="new 0 0 64 64" xml:space="preserve">
<g id="XMLID_31_">
	<g>
		<g>
			<polygon fill="#FFD41D" points="61.5,25 45.1,39.6 50.2,61.5 32,49.6 13.8,61.5 18.9,39.6 2.5,25 23.9,23.4 32,2.5 40.1,23.4 			
				"/>
		</g>
	</g>
	<g>
		<g>
			<path fill="#2D2D2D" d="M51.8,63.7L32,50.8L12.2,63.7l5.6-23.8L0.1,24.2l23.1-1.8L32-0.3l8.8,22.7l23.1,1.8L46.2,39.9L51.8,63.7z
				 M32,48.4l16.7,10.9L44,39.2l15.1-13.4l-19.7-1.5L32,5.3l-7.4,19.1L4.9,25.9L20,39.2l-4.7,20.1L32,48.4z"/>
		</g>
	</g>
</g>
</svg>
