<?xml version="1.0" encoding="utf-8"?>
<!-- Generator: Adobe Illustrator 23.0.0, SVG Export Plug-In . SVG Version: 6.00 Build 0)  -->
<svg version="1.1" id="Layer_1" xmlns="http://www.w3.org/2000/svg" xmlns:xlink="http://www.w3.org/1999/xlink" x="0px" y="0px"
	 width="384.9px" height="390.3px" viewBox="0 0 384.9 390.3" style="enable-background:new 0 0 384.9 390.3;" xml:space="preserve"
	>
<style type="text/css">
	.st0{fill:#FAC014;}
	.st1{fill:#FEF09F;}
	.st2{fill:#010101;}
</style>
<g>
	<path d="M384.5,328.8c-1.2,1.9-2.5,3.6-4.1,5.2c-16.5,16.4-32.9,32.9-49.3,49.3c-5.4,5.4-8.7,5.4-14.2-0.1
		c-12.8-12.8-25.6-25.6-38.4-38.4c-1.3-1.3-2.3-2.1-4.5-1.4c-14.2,4.5-26.9-3.2-29.7-17.8c-0.3-1.5-0.8-2-2.3-2.3
		c-13.5-1.8-23.2-16-17.8-30.4c0.6-1.6,0-2.3-0.9-3.2c-3.4-3.3-6.7-6.7-10.1-10.1c-7.6-7.6-15.5-14.8-20.6-25
		c-2.4,3.5-4.3,6.8-6.7,9.8c-7.1,9-15.7,16.4-23.7,24.5c-1.6,1.6-2.1,2.8-1.4,5.1c4.3,13-3.3,26-16.7,28.9c-2.6,0.5-3.4,1.6-3.9,4.2
		c-2.6,12.7-15.6,20.4-28,16.6c-3.1-0.9-4.7-0.2-6.7,1.9c-12.6,12.7-25.2,25.3-37.9,38c-5.1,5.1-8.6,5.1-13.7,0
		c-16.7-16.7-33.4-33.4-50.1-50.1c-4.9-4.9-4.9-8.4,0.1-13.4c12.9-12.9,25.8-25.8,38.7-38.7c1.6-1.5,2.1-2.8,1.3-5.1
		c-4.3-13.4,3.8-26.7,17.8-29.1c1.7-0.3,2.1-0.9,2.5-2.4c3.4-15.1,15.5-22.1,30.1-17.6c1.4,0.4,2.2,0.3,3.2-0.7
		c3.6-3.7,7.2-7.3,10.9-10.8c1.3-1.2,1.2-2.6,1.2-4.1c0-14.6,0-29.2,0-43.9c0-2.3,0.3-4.5,1-6.6c14.7-46.4,29.6-92.8,44.1-139.3
		c3-9.7,9-15.7,18.7-18.3c2.5,0,5,0,7.5,0c3.4,0.6,6.8,1.1,9.7,3.3c1,0.7,2.2,0.7,3.1,0c2.9-2.2,6.3-2.6,9.7-3.3c2.5,0,5,0,7.5,0
		c10.2,1.1,15.9,7.2,18.9,16.5c3.7,11.4,7.4,22.8,10.9,34.2c1.8,6.1,0.3,9.3-5.3,12.2c-5.8,0.5-8.7-1.2-10.6-6.6
		c-3.6-10.3-6.6-20.7-9.9-31.1c-0.5-1.5-1-3.1-1.6-4.6c-1.5-3.4-4.3-5-7.4-4.2c-3.2,0.8-5.2,3.6-4.8,7.4c0.6,5.1,1.5,10.1,2.4,15.2
		c3.5,21.8,7.1,43.7,10.5,65.5c0.5,3.2,1.7,5.4,4.8,6.9c7.9,4.1,11.9,11.2,12.1,19.8c0.4,19.9,0.2,39.7,0.1,59.6
		c0,5.7-3.6,9.4-8.6,9.4c-4.9-0.1-8.4-3.8-8.4-9.6c-0.1-18.2,0-36.5-0.1-54.7c0-1.7,0.1-3.5-0.3-5.2c-0.8-3.1-3.2-5.1-6.1-5.1
		c-3,0-5.4,2-6.1,5.1c-0.4,1.5-0.3,3-0.3,4.5c0,28.5-0.1,57,0,85.5c0.1,13.6,5.1,25.4,14.5,35.1c5.2,5.4,10.6,10.6,15.9,16
		c2.1,2.2,3.7,2.3,5.9,0.1c11.6-11.7,23.3-23.3,35-35c2.7-2.7,2.7-3.3-0.1-6.1c-2.8-2.9-5.6-5.7-8.5-8.5c-3.4-3.2-4.9-7-4.9-11.7
		c0.2-11.5-0.3-23,0.2-34.5c0.4-9.1-1.3-17.6-4.2-26c-2.8-7.9-5-16-7.7-23.9c-0.5-1.5-1-3.1-1.3-4.7c-1-5.2,0.5-8.1,5.5-10.5
		c6.1-0.6,9.2,1,11,6.6c4.5,13.9,9,27.8,13.2,41.8c0.5,1.8,0.5,3.7,0.5,5.6c0,13.7,0.1,27.5,0,41.2c0,3.1,0.8,5.6,3.2,7.6
		c0.9,0.7,1.7,1.5,2.4,2.4c3.9,5.1,8.1,7,15,5.3c9.1-2.3,20.9,5.9,23.7,15.5c1.1,3.8,3,5.5,6.7,6.8c11.7,3.9,17.9,15.3,15.2,27.4
		c-0.8,3.6,0.1,5.8,2.6,8.3c12.1,11.9,24.1,24,36.1,36c1.6,1.6,3,3.3,3.7,5.5C384.5,325.8,384.5,327.3,384.5,328.8z"/>
	<path d="M384.5,122.6c-2.2,4-5.5,5.4-10.1,5.3c-20.2-0.2-40.5-0.1-60.7-0.1c-4.5,0-7.3-1.9-8.4-5.5c-1.5-4.9,2.3-9.5,8-9.5
		c13.2-0.1,26.5,0,39.7,0c7.1,0,14.2,0.2,21.4-0.1c4.6-0.2,7.9,1.3,10.1,5.3C384.5,119.6,384.5,121.1,384.5,122.6z"/>
	<path d="M40.3,127.8c-10.2,0-20.5,0-30.7,0c-5.6,0-9.1-3-9-7.7c0.1-4.5,3.5-7.3,9-7.3c20.5,0,40.9,0,61.4,0c5.6,0,9.1,3,9,7.7
		c-0.1,4.5-3.5,7.3-9,7.3C60.8,127.8,50.5,127.8,40.3,127.8z"/>
	<path d="M96,60.3c0,5.6-5.6,9.2-10.8,6.7c-3.9-2-7.6-4.3-11.3-6.5c-13.5-7.8-27-15.5-40.4-23.3c-4.2-2.5-5.5-6.7-3.3-10.5
		s6.4-4.7,10.7-2.5c0.6,0.3,1.1,0.6,1.6,0.9c14.4,8.3,28.9,16.7,43.3,25c2.3,1.3,4.5,2.6,6.8,4C94.9,55.4,96,57.6,96,60.3z"/>
	<path d="M96,180.3c0,2.7-1.1,4.9-3.4,6.3c-17.4,10.1-34.8,20.2-52.3,30.2c-3.7,2.1-8,0.7-10.1-2.8c-2.1-3.6-1.2-7.9,2.6-10.1
		c17.4-10.2,34.8-20.3,52.4-30.2C90.2,170.9,96,174.7,96,180.3z"/>
	<path class="st0" d="M246.5,97.2c0.9,6.2,3.2,11.9,5.2,17.8c-5.3,3.1-6.3,5.6-4.4,11.5c3.9,12.2,7.8,24.5,11.7,36.7
		c0.7,2.2,1,4.3,1,6.6c-0.1,15.2,0,30.5-0.1,45.7c0,3.4,1,6,3.4,8.3c4,3.8,7.7,7.8,11.7,11.6c1.4,1.4,1.8,2.2,0.1,3.8
		c-13,12.8-25.9,25.7-38.7,38.7c-1.5,1.5-2.3,1.6-3.8,0c-6.1-6.3-12.5-12.3-18.5-18.6c-9.4-9.9-14.2-21.9-14.2-35.6
		c-0.1-29,0-58,0-87c0-5.5,2.9-8.9,7.4-9c4.7-0.1,7.6,3.4,7.6,9.1c0,19.2,0,38.5,0,57.7c0,4.8,3.2,8.1,7.5,8.1s7.3-3.3,7.5-8.1
		c0-0.4,0-0.7,0-1.1c0-19.1,0-38.2,0-57.4c0-10.1-4.6-17.4-13.9-21.6c-1.6-0.7-2.3-1.6-2.5-3.2c-4.4-27.8-8.9-55.7-13.4-83.5
		c-0.7-4.6,1.5-8.3,5.6-9.3c3.9-1,7.7,1.3,9.2,5.7c3.7,11.5,7.3,23.1,10.9,34.6c1.8,5.5,4.2,7,10.1,6.5c1.8,5.9,3.6,11.7,5.4,17.6
		c0.1,1.2-1,1.6-1.7,2.2c-2.2,2-3.2,4.4-2.2,7.3s3.3,4.2,6.3,4.4C244.7,96.9,245.7,96.4,246.5,97.2z"/>
	<path class="st0" d="M185,181.3c0,13.9,0,27.7,0,41.6c0,14.8-5.3,27.5-15.8,38c-5.6,5.7-11.4,11.3-16.9,17c-1.5,1.5-2.3,1.5-3.8,0
		c-12.8-13-25.7-25.9-38.7-38.7c-1.6-1.6-1.4-2.4,0.1-3.8c4-3.8,7.7-7.8,11.7-11.6c2.4-2.3,3.5-4.9,3.5-8.3c-0.1-15.4,0-30.7,0-46.1
		c0-1.6,0.1-3.2,0.6-4.8c14.8-46.7,29.6-93.3,44.4-140c1.5-4.8,5.1-7.2,9.2-6.1c4.3,1.1,6.3,4.9,5.5,10c-0.2,1.4-0.4,2.7-0.6,4.1
		c-4.2,26.1-8.4,52.2-12.6,78.4c-0.3,1.9-1,2.9-2.9,3.8c-8.9,4.1-13.5,11.2-13.5,21c-0.1,19.4,0,38.7,0,58.1c0,5.5,2.9,8.9,7.4,8.9
		s7.5-3.4,7.5-8.8c0-19,0-38,0-57c0-1.8,0-3.5,0.9-5.1c1.6-3,5-4.6,8.2-3.9c3.6,0.8,5.9,3.8,5.9,8C185.1,151.1,185,166.2,185,181.3z
		"/>
	<path class="st0" d="M61,369c-0.6-0.6-1.2-1-1.7-1.6c-13-13-26-26-39-38.9c-1.3-1.3-1.5-2.1-0.1-3.5c11.1-11,22.1-22,33.1-33.1
		c1.3-1.4,2-1.1,3.2,0.1c13,13.1,26.1,26.2,39.2,39.2c1.5,1.5,1.1,2.2-0.2,3.4c-10.9,10.8-21.7,21.7-32.6,32.6
		C62.4,367.8,61.8,368.4,61,369z"/>
	<path class="st0" d="M287.7,332.9c13.8-13.8,27.5-27.5,41.2-41.2c1.1-1.1,1.6-0.9,2.6,0.1c11.2,11.2,22.4,22.5,33.7,33.6
		c1.3,1.3,0.8,1.9-0.2,2.9c-13.1,13.1-26.2,26.1-39.2,39.2c-1.2,1.2-1.9,1.5-3.2,0.1C311,356.1,299.4,344.6,287.7,332.9z"/>
	<path class="st1" d="M126,322c0,3.3-1.4,5.4-3.9,6.8c-2.5,1.3-5.1,1.3-7.5-0.2c-1.1-0.7-2.1-1.8-3.1-2.7
		c-16.5-16.5-33.1-33-49.6-49.6c-1.3-1.3-2.8-2.6-3.4-4.4c-1-3.1-0.5-6,2.1-8.2c2.5-2.2,5.4-2.5,8.3-1c1.1,0.6,2,1.4,2.9,2.3
		c17,17,33.9,33.9,50.9,50.9C124.7,317.7,126.2,319.7,126,322z"/>
	<path class="st1" d="M319.3,261.8c3.2,0,5.4,1.3,6.7,3.8c1.4,2.5,1.3,5.1-0.2,7.5c-0.6,1.1-1.6,1.9-2.5,2.8
		c-16.7,16.7-33.4,33.4-50.1,50.1c-1.4,1.4-2.8,2.9-4.8,3.4c-3.4,0.7-6.3-0.2-8.2-3.1c-1.8-2.8-1.7-5.7,0.2-8.4
		c0.5-0.7,1.1-1.3,1.7-2c17-17,33.9-33.9,50.9-50.9C314.9,263.2,316.8,261.7,319.3,261.8z"/>
	<path class="st1" d="M140.5,308.5c-3,0-4.9-1-6.5-2.7c-17.3-17.3-34.6-34.6-51.9-51.9c-3.6-3.7-3.8-8.1-0.5-11.2
		c3.2-3.1,7.4-3,11,0.6c17.4,17.4,34.8,34.8,52.2,52.2c2.4,2.4,3.3,5.3,1.9,8.5C145.5,306.8,143.1,308.3,140.5,308.5z"/>
	<path class="st1" d="M305.8,247.9c-0.1,2.5-1.1,4.3-2.6,5.8c-17.4,17.4-34.8,34.8-52.2,52.1c-3.5,3.5-7.9,3.5-11,0.4
		s-3.1-7.5,0.4-11c17.3-17.4,34.8-34.8,52.1-52.2c2.5-2.5,5.5-3.5,8.9-1.9C304.3,242.6,305.7,245,305.8,247.9z"/>
	<path d="M355.9,30.7c-0.2,2.6-1.5,4.8-3.9,6.2c-17.2,10-34.5,20-51.8,29.8c-4,2.3-8.3,0.9-10.3-2.8S289,56,293,53.6
		c17.1-9.9,34.2-19.9,51.4-29.7C349.8,20.9,356.1,24.6,355.9,30.7z"/>
	<path d="M355.9,209.8c0,6.4-6.2,9.7-11.6,6.7c-8-4.5-16-9.2-24-13.8c-8.7-5-17.5-10.1-26.2-15.1c-4.9-2.9-6.5-7.1-4.1-11.1
		c2.3-3.9,6.6-4.8,11.4-2c16.5,9.5,33,19,49.5,28.5C353.8,204.7,355.8,206.8,355.9,209.8z"/>
	<path class="st2" d="M246.5,97.2c-4.8,1.1-8.2-0.3-9.9-4.1c-1.7-3.9-0.1-7.4,4.6-10.2c5.2-0.2,8,1.3,9.3,5
		C251.9,91.5,250.6,94.4,246.5,97.2z"/>
</g>
</svg>
