<?xml version="1.0" encoding="utf-8"?>
<!-- Generator: Adobe Illustrator 23.0.0, SVG Export Plug-In . SVG Version: 6.00 Build 0)  -->
<svg version="1.1" id="Layer_1" xmlns="http://www.w3.org/2000/svg" xmlns:xlink="http://www.w3.org/1999/xlink" x="0px" y="0px"
	 width="119.7px" height="163.2px" viewBox="0 0 119.7 163.2" style="enable-background:new 0 0 119.7 163.2;" xml:space="preserve"
	>
<style type="text/css">
	.st0{fill:#00A86E;}
	.st1{fill:#373739;}
	.st2{fill:#F1625E;}
	.st3{fill:#C52D4C;}
</style>
<g>
	<g>
		<g>
			<g>
				<path class="st0" d="M71,77.4c0,0-11.3-17.7-38.7-33.9C12.9,32.2,1.6,0,1.6,0s37.1,1.6,53.2,24.2C71,46.8,71,77.4,71,77.4z"/>
			</g>
		</g>
		<g>
			<g>
				<path class="st1" d="M71.1,77.9c-0.2,0-0.5-0.2-0.5-0.4C65.4,57.8,54,43.5,45.3,35c-9.4-9.2-17.6-13.8-17.7-13.9
					c-0.3-0.1-0.4-0.5-0.2-0.8c0.1-0.3,0.5-0.4,0.8-0.2c0.1,0,8.5,4.7,17.9,14.1c8.8,8.6,20.3,23.1,25.6,43c0.1,0.3-0.1,0.6-0.4,0.7
					C71.2,77.9,71.2,77.9,71.1,77.9z"/>
			</g>
		</g>
	</g>
	<g>
		<g>
			<g>
				<path class="st0" d="M66.1,77c0,0-3.2-6.5-17.7-4.8C33.9,73.8,25.8,81.9,0,67.3c0,0,19.4-16.1,40.3-12.9
					C61.3,57.7,62.9,65.7,66.1,77z"/>
			</g>
		</g>
		<g>
			<g>
				<path class="st1" d="M66.2,77.6c-0.2,0-0.4-0.1-0.5-0.3c-0.1-0.1-6.6-10.3-17-12.2c-18.3-3.3-30.7,2.5-30.8,2.6
					c-0.3,0.1-0.6,0-0.7-0.3c-0.1-0.3,0-0.6,0.3-0.7c0.1-0.1,12.9-6.1,31.5-2.7c10.9,2,17.5,12.3,17.7,12.7c0.2,0.3,0.1,0.6-0.2,0.8
					C66.4,77.6,66.3,77.6,66.2,77.6z"/>
			</g>
		</g>
	</g>
	<g>
		<g>
			<g>
				<path class="st0" d="M72.5,75.5c0,0-1.3-7.1,11.3-14.5c12.6-7.4,23.9-5.7,35.9-32.8c0,0-25.2-1.4-40.1,13.7
					C64.8,57.1,68.3,64.5,72.5,75.5z"/>
			</g>
		</g>
		<g>
			<g>
				<path class="st1" d="M72.4,76.1c-0.3,0-0.5-0.2-0.5-0.5c0-0.5-0.9-12.7,6.6-20.8c12.9-13.8,26.7-16.6,26.8-16.7
					c0.3-0.1,0.6,0.1,0.6,0.4c0.1,0.3-0.1,0.6-0.4,0.6c-0.1,0-13.6,2.8-26.2,16.3C72.1,63.3,73,75.3,73,75.5
					C73,75.8,72.8,76,72.4,76.1C72.5,76.1,72.4,76.1,72.4,76.1z"/>
			</g>
		</g>
	</g>
	<g>
		<g>
			<path class="st2" d="M88.5,84.2H50.8c-1.4,0-2.6-1.2-2.6-2.6v-4c0-1.4,1.2-2.6,2.6-2.6h37.8c1.4,0,2.6,1.2,2.6,2.6v4
				C91.1,83.1,90,84.2,88.5,84.2z"/>
		</g>
	</g>
	<g>
		<g>
			<path class="st2" d="M69.8,163.2c-28.8,0-47.2-4.6-44.2-24.9c1.9-12.9,11.9-25.5,19-33c1-1.1,1.9-2,2.8-2.9
				c2.6-2.6,4.4-4.1,4.4-4.1l0.1-0.5l0.5-2.9l0.6-3.3l1.3-7.5l0.5-2.6L69.8,81l15.7,0.7l0.4,2.6l0.6,4.1l0.9,6.7l0.4,2.9l0.1,0.5
				c0,0,1.8,1.5,4.4,4.1c0.9,0.8,1.8,1.8,2.8,2.9c7.1,7.5,17.2,20.1,19,33C117,158.6,98.7,163.2,69.8,163.2z"/>
		</g>
	</g>
	<g>
		<g>
			<polygon class="st3" points="87.8,97.9 51.9,97.9 52.4,95 87.4,95 			"/>
		</g>
	</g>
	<g>
		<g>
			<path class="st3" d="M95,105.3H44.6c1-1.1,1.9-2,2.8-2.9h44.9C93.1,103.3,94,104.2,95,105.3z"/>
		</g>
	</g>
	<g>
		<g>
			<polygon class="st3" points="86.5,88.4 52.9,91.7 54.3,84.2 85.9,84.2 			"/>
		</g>
	</g>
</g>
</svg>
