<?xml version="1.0" encoding="utf-8"?>
<!-- Generator: Adobe Illustrator 23.0.0, SVG Export Plug-In . SVG Version: 6.00 Build 0)  -->
<svg version="1.1" id="Layer_1" xmlns="http://www.w3.org/2000/svg" xmlns:xlink="http://www.w3.org/1999/xlink" x="0px" y="0px"
	 width="46.5px" height="46.5px" viewBox="0 0 46.5 46.5" style="enable-background:new 0 0 46.5 46.5;" xml:space="preserve">
<style type="text/css">
	.st0{fill:#4BD6C7;}
	.st1{fill:#97E7DD;}
	.st2{fill:#4AD5C6;}
	.st3{fill:#98E8DE;}
	.st4{fill:#CBF3EE;}
</style>
<g>
	<path d="M0,23c0.2-0.4,0.6-0.5,1-0.5c3.4,0,6.7,0,10.1,0c0.4,0,0.5-0.1,0.5-0.5c0-1,0-1-1-1c-0.6,0-1.1,0-1.7,0
		C8.3,21,8,20.7,8,20.3c0-0.4,0.3-0.7,0.9-0.7c0.8,0,1.6,0,2.4,0c0.3,0,0.3-0.1,0.3-0.3c0-0.4,0.1-0.9-0.1-1.1
		c-0.2-0.3-0.7-0.1-1.1-0.1c-1.5,0-3,0-4.4,0c-0.3,0-0.4,0.1-0.5,0.3c-0.5,0.9-1.5,1.3-2.4,1c-0.9-0.2-1.6-1.1-1.6-2.1
		s0.7-1.8,1.6-2.1c1-0.2,1.9,0.2,2.4,1.1c0.1,0.2,0.3,0.3,0.5,0.3c1.8,0,3.5,0,5.3,0c0.3,0,0.4-0.1,0.4-0.4c0-0.6,0-1.2,0.1-1.8
		s0.4-0.8,1-0.7c0.4,0,0.5,0.4,0.5,0.7c0,0.4-0.1,0.8-0.1,1.2c0,5,0,10,0,15c0,0.3,0,0.6,0.1,0.9c0.2,0.8,0.7,1.3,1.5,1.5
		c0.4,0.1,0.7,0.1,1.1,0.1c4.9,0,9.8,0,14.7,0c0.4,0,0.8-0.1,1.3-0.1c0.3,0,0.7,0,0.8,0.5c0.1,0.6-0.1,0.9-0.7,1
		c-0.6,0.1-1.2,0.1-1.9,0.1c-0.2,0-0.3,0-0.3,0.3c0,0.6,0,1.1,0,1.7c0,0.5,0.2,0.9,0.5,1.2c1.4,1.4,2.8,2.8,4.2,4.2
		c0.2,0.2,0.4,0.2,0.6,0.1c1.1-0.3,2.3,0.3,2.6,1.4c0.3,1.1-0.3,2.3-1.5,2.6c-1.1,0.3-2.3-0.3-2.6-1.5c-0.1-0.4-0.1-0.8,0-1.1
		s0-0.5-0.2-0.8c-1.3-1.2-2.5-2.5-3.8-3.8c-0.8-0.8-1.2-1.7-1.2-2.9c0-0.4,0-0.8,0-1.3c0-0.2-0.1-0.3-0.3-0.3
		c-1.3-0.1-1.3-0.1-1.3,1.2c0,0.5,0,1.1,0,1.6S26.5,38,26.1,38c-0.4,0-0.7-0.3-0.7-0.8c0-0.8,0-1.6,0-2.4c0-0.3-0.1-0.4-0.3-0.3
		c-0.4,0-0.9-0.1-1.1,0.1c-0.3,0.2-0.1,0.7-0.1,1.1c0,3.1,0,6.2,0,9.4c0,0.7-0.2,1.1-0.7,1c-0.5,0-0.7-0.3-0.7-1c0-3.4,0-6.7,0-10.1
		c0-0.4-0.1-0.5-0.5-0.5c-1.1,0-1.1,0-1.1,1.1c0,0.6,0,1.1,0,1.7c0,0.5-0.3,0.8-0.7,0.8c-0.4,0-0.7-0.3-0.7-0.8c0-0.8,0-1.7,0-2.5
		c0-0.2-0.1-0.3-0.3-0.3c-1.2,0-1.2,0-1.2,1.2c0,1.5,0,3,0,4.4c0,0.2,0,0.4,0.3,0.5c0.9,0.5,1.3,1.5,1.1,2.4c-0.2,0.9-1.1,1.6-2,1.6
		c-1,0-1.8-0.7-2.1-1.6c-0.3-1,0.2-2,1.1-2.4c0.2-0.1,0.3-0.2,0.3-0.4c0-1.8,0-3.6,0-5.3c0-0.3-0.1-0.4-0.3-0.4
		c-0.7,0-1.4,0.1-2-0.1c-1.7-0.5-2.7-1.8-2.7-3.6c0-0.3,0-0.7,0-1c0-0.2,0-0.3-0.3-0.3c-0.6,0-1.1,0-1.7,0c-0.4,0-0.8,0.2-1.1,0.5
		c-1.4,1.4-2.8,2.8-4.2,4.2c-0.1,0.1-0.2,0.2-0.1,0.4c0.4,1.2-0.2,2.4-1.4,2.7c-1.2,0.4-2.3-0.3-2.7-1.5C0.1,36,0,36,0,36
		c0-0.3,0-0.6,0-0.9c0.3-1.3,1.3-2,2.6-1.7c0.4,0.1,0.6,0,0.8-0.3c1.3-1.3,2.6-2.6,3.9-3.9c0.6-0.6,1.4-1,2.3-1c0.4,0,0.9,0,1.3,0
		c0.4,0,0.5-0.1,0.5-0.5c0-0.1,0,0,0,0c0-0.7,0-0.7-0.7-0.7c-0.5,0-1.1,0-1.6,0c-0.2,0-0.5,0-0.7-0.1c-0.4-0.2-0.6-0.5-0.5-0.8
		c0.1-0.4,0.3-0.7,0.8-0.7c0.7,0,1.4,0,2.2,0c0.2,0,0.5,0.1,0.6-0.2c0.1-0.3,0.1-0.7,0-1c-0.1-0.2-0.3-0.1-0.4-0.1
		c-0.9,0-1.8,0-2.8,0c-2.2,0-4.5,0-6.7,0c-0.2,0-0.5,0-0.7,0c-0.4-0.1-0.7-0.2-0.7-0.6C0,23.3,0,23.1,0,23z"/>
	<path d="M13.9,12.7c-0.1-0.6,0.1-0.9,0.7-1c0.6-0.1,1.2-0.1,1.9-0.1c0.2,0,0.3,0,0.3-0.3c0-0.6,0-1.1,0-1.7c0-0.4-0.2-0.8-0.5-1.1
		c-1.4-1.4-2.8-2.8-4.2-4.2c-0.1-0.1-0.2-0.2-0.4-0.1C10.5,4.6,9.3,4,9,2.8c-0.4-1.2,0.3-2.3,1.5-2.7L10.6,0c0.3,0,0.5,0,0.8,0
		c1.3,0.3,2.1,1.3,1.8,2.6c-0.1,0.4,0,0.6,0.3,0.8c1.3,1.3,2.6,2.6,3.9,3.9c0.6,0.6,1,1.4,1,2.3c0,0.4,0,0.9,0,1.3
		c0,0.4,0.1,0.5,0.5,0.5c0.1,0,0,0,0,0c0.7,0,0.7,0,0.7-0.7c0-0.5,0-1.1,0-1.6c0-0.2,0-0.5,0.1-0.7c0.2-0.4,0.5-0.6,0.8-0.5
		C20.8,8,21,8.3,21,8.7c0,0.7,0,1.4,0,2.2c0,0.2-0.1,0.5,0.2,0.6c0.3,0.1,0.7,0.1,1,0c0.2-0.1,0.1-0.3,0.1-0.4c0-0.9,0-1.8,0-2.8
		c0-2.2,0-4.5,0-6.7c0-0.2,0-0.5,0-0.7C22.4,0.4,22.6,0.1,23,0c0.1,0,0.2,0,0.4,0c0.4,0.2,0.5,0.6,0.5,1c0,3.4,0,6.8,0,10.1
		c0,0.4,0.1,0.5,0.5,0.5c1.1,0,1.1,0,1.1-1.1c0-0.6,0-1.1,0-1.7c0-0.6,0.3-0.9,0.7-0.9c0.4,0,0.7,0.3,0.7,0.9c0,0.8,0,1.6,0,2.4
		c0,0.3,0.1,0.3,0.3,0.3c0.4,0,0.9,0.1,1.1-0.1c0.3-0.2,0.1-0.7,0.1-1.1c0-1.5,0-3,0-4.4c0-0.3-0.1-0.4-0.3-0.5
		c-1-0.4-1.4-1.4-1.2-2.3c0.3-1,1.1-1.6,2.1-1.6s1.8,0.7,2.1,1.6C31.3,4,30.9,5,30,5.5c-0.2,0.1-0.3,0.3-0.3,0.5c0,1.8,0,3.5,0,5.3
		c0,0.3,0.1,0.4,0.4,0.4c0.7,0,1.4,0,2.1,0.2c1.6,0.5,2.6,1.8,2.6,3.6c0,0.4,0,0.7,0,1.1c0,0.2,0.1,0.3,0.3,0.3c0.6,0,1.2,0,1.9,0
		c0.4,0,0.8-0.2,1.1-0.5c1.4-1.4,2.8-2.8,4.2-4.2c0.2-0.2,0.2-0.3,0.1-0.5C42,10.5,42.7,9.3,43.8,9c1.1-0.3,2.3,0.3,2.7,1.5
		c0.3,1.2-0.3,2.3-1.5,2.6c-0.4,0.1-0.8,0.1-1.1,0s-0.5,0-0.7,0.2c-1.3,1.3-2.6,2.6-3.9,3.9c-0.7,0.7-1.5,1.1-2.6,1.1
		c-0.5,0-0.9,0-1.4,0c-0.2,0-0.3,0-0.3,0.3c-0.1,1.3-0.1,1.3,1.2,1.3c0.5,0,1,0,1.4,0c0.6,0,1,0.2,1,0.7c0,0.4-0.3,0.7-0.9,0.7
		c-0.8,0-1.5,0-2.3,0c-0.3,0-0.5,0-0.4,0.4c0,0.4-0.2,0.9,0.1,1.1c0.2,0.2,0.7,0.1,1.1,0.1c3.1,0,6.2,0,9.4,0c0.7,0,1.1,0.2,1.1,0.7
		s-0.3,0.7-1.1,0.7c-3.4,0-6.7,0-10.1,0c-0.3,0-0.5,0.1-0.5,0.4c0,0.4-0.1,0.8,0.1,1c0.2,0.2,0.7,0.1,1,0.1c0.6,0,1.1,0,1.7,0
		c0.5,0,0.8,0.3,0.8,0.7c0,0.4-0.3,0.7-0.8,0.7c-0.8,0-1.7,0-2.5,0c-0.3,0-0.4,0-0.4,0.3c0,0.4-0.1,0.9,0.1,1.1
		c0.2,0.3,0.7,0.1,1.1,0.1c1.5,0,2.9,0,4.4,0c0.3,0,0.4,0,0.6-0.3c0.5-0.9,1.5-1.3,2.4-1.1c0.9,0.2,1.6,1.1,1.6,2.1
		s-0.7,1.8-1.6,2.1c-1,0.2-1.9-0.2-2.4-1.1c-0.1-0.2-0.3-0.3-0.5-0.3c-1.8,0-3.5,0-5.3,0c-0.3,0-0.4,0.1-0.4,0.4
		c0,0.6,0,1.2-0.1,1.8c-0.1,0.6-0.4,0.8-1,0.7c-0.5,0-0.5-0.4-0.5-0.7c0-0.4,0.1-0.8,0.1-1.2c0-5,0-10,0-15c0-0.3,0-0.6-0.1-0.9
		c-0.2-0.8-0.7-1.3-1.5-1.5c-0.4-0.1-0.7-0.1-1.1-0.1c-4.9,0-9.8,0-14.7,0c-0.4,0-0.8,0.1-1.3,0.1C14.3,13.2,13.9,13.1,13.9,12.7z"
		/>
	<path class="st0" d="M13.9,12.7c0.2,0.3,0.4,0.4,0.8,0.4c1.3-0.2,2.7-0.1,4-0.1c4.1,0,8.2,0,12.2,0c1.7,0,2.6,0.9,2.6,2.6
		c0,5.1,0,10.1,0,15.2c0,0.3,0,0.6-0.1,0.9c0,0.4,0.1,0.7,0.4,0.9c-0.2,0.5-0.6,0.9-1.2,1.2c-0.2-0.3-0.4-0.4-0.8-0.4
		c-1.4,0.2-2.7,0.1-4.1,0.1c-4,0-8.1,0-12.1,0c-1.7,0-2.6-0.9-2.6-2.6c0-5.1,0-10.1,0-15.2c0-0.3,0-0.6,0.1-0.9
		c0-0.4-0.1-0.7-0.4-0.9C12.9,13.3,13.3,12.9,13.9,12.7z"/>
	<path class="st1" d="M2.1,36.3c-0.4,0-0.8-0.4-0.7-0.8c0-0.4,0.4-0.7,0.8-0.7s0.8,0.4,0.7,0.8C2.9,36,2.5,36.3,2.1,36.3z"/>
	<path class="st2" d="M17.4,43.6c-0.4,0-0.8-0.3-0.8-0.7s0.3-0.8,0.8-0.8c0.4,0,0.7,0.3,0.8,0.7C18.2,43.2,17.8,43.6,17.4,43.6z"/>
	<path class="st1" d="M35.5,45c-0.4,0-0.8-0.4-0.8-0.8c0-0.4,0.4-0.7,0.8-0.7c0.4,0,0.8,0.4,0.8,0.8C36.3,44.7,35.9,45,35.5,45z"/>
	<path class="st2" d="M3.6,16.6c0.4,0,0.8,0.4,0.7,0.8c0,0.4-0.4,0.7-0.8,0.7s-0.7-0.3-0.8-0.7C2.8,17,3.2,16.6,3.6,16.6z"/>
	<path class="st1" d="M10.8,2.9c-0.4,0-0.8-0.4-0.8-0.8s0.4-0.8,0.8-0.8c0.4,0,0.8,0.4,0.7,0.8C11.6,2.6,11.2,2.9,10.8,2.9z"/>
	<path class="st1" d="M44.3,10.1c0.4,0,0.8,0.4,0.8,0.8c0,0.4-0.3,0.8-0.8,0.8c-0.4,0-0.8-0.4-0.8-0.8
		C43.5,10.4,43.9,10.1,44.3,10.1z"/>
	<path class="st2" d="M29,2.8c0.4,0,0.8,0.4,0.7,0.8c0,0.4-0.4,0.7-0.8,0.7s-0.8-0.4-0.7-0.8S28.6,2.8,29,2.8z"/>
	<path class="st2" d="M43.6,29c0,0.4-0.4,0.8-0.8,0.8c-0.4,0-0.7-0.4-0.7-0.8s0.3-0.8,0.8-0.8C43.2,28.3,43.6,28.6,43.6,29z"/>
	<path class="st3" d="M31.9,23.2c0,2.6,0,5.1,0,7.7c0,0.8-0.2,1-1,1c-5.1,0-10.3,0-15.4,0c-0.8,0-1-0.2-1-1c0-5.1,0-10.3,0-15.4
		c0-0.8,0.2-1,1-1c5.1,0,10.2,0,15.3,0c0.8,0,1,0.2,1,1C31.9,18.1,31.9,20.6,31.9,23.2z"/>
	<path d="M21.1,15.3c0.7,0,1.3,0.2,1.8,0.6c0.2,0.2,0.4,0.2,0.6,0c1.5-1.2,3.8-0.5,4.4,1.2c0.1,0.3,0.1,0.5,0.1,0.8
		c-0.1,0.3,0,0.4,0.3,0.5c1.2,0.5,2,1.4,2.1,2.8c0.1,0.8-0.2,1.5-0.7,2.1c-0.2,0.2-0.2,0.3,0,0.6c1.1,1.4,0.9,3.2-0.5,4.3
		c-0.3,0.2-0.4,0.4-0.5,0.8c-0.3,1.3-1.8,2.3-3.2,2.2c-0.8-0.1-1.5-0.3-2.1-0.9c-0.2-0.2-0.3-0.1-0.4,0c-1.4,1.3-3.5,1.1-4.7-0.3
		c-0.4-0.4-0.6-0.9-0.6-1.4c0-0.2-0.1-0.4-0.3-0.5c-1.4-1.1-1.9-3-0.8-4.6c0.1-0.1,0.1-0.2,0-0.4c-1.2-1.6-0.5-3.9,1.6-4.7
		c0.2-0.1,0.3-0.2,0.3-0.4c-0.1-1.3,0.8-2.5,2.2-2.7C20.9,15.3,21,15.3,21.1,15.3z"/>
	<path class="st4" d="M23.9,21.6c0-0.3,0-0.6,0-0.8c0-0.5-0.3-0.7-0.7-0.7c-0.4,0-0.6,0.3-0.6,0.7c0,1,0,2.1,0,3.1
		c0,0.2,0,0.3,0,0.5c-0.3-0.1-0.5-0.2-0.7-0.3c-0.4-0.1-0.7,0-0.9,0.3c-0.1,0.3,0,0.7,0.3,0.9c0.1,0.1,0.2,0.1,0.3,0.2
		c0.6,0.3,0.9,0.7,0.9,1.3c0,0.5,0,1,0,1.5c-0.1,0.8-0.7,1.3-1.6,1.4c-0.8,0.1-1.6-0.4-1.9-1.1c-0.2-0.5,0-1,0.3-1.4
		c0.2-0.3,0.3-0.6,0.1-0.9c-0.2-0.3-0.5-0.3-0.8-0.2c-0.2,0.1-0.3,0.2-0.4,0.4c-0.2,0.3-0.3,0.2-0.5,0c-0.8-1-0.4-2.5,0.8-3.1
		c0.2-0.1,0.5-0.2,0.8-0.3c0.4-0.2,0.5-0.4,0.4-0.8s-0.4-0.5-0.7-0.5c-0.4,0-0.7,0.2-1.1,0.4c-0.2,0.1-0.3,0.1-0.4-0.1
		c-0.4-0.8-0.1-1.8,0.8-2.3c0.4-0.2,0.8-0.3,1.2-0.3c0.6-0.1,0.8-0.5,0.5-1.1s-0.3-1,0-1.4c0.4-0.4,1.1-0.6,1.7-0.3
		c0.4,0.2,0.7,0.4,0.8,0.9c0,0.4,0.2,0.7,0.7,0.7s0.6-0.3,0.7-0.7c0.1-0.6,0.5-0.9,1-1c0.6-0.1,1.2,0.1,1.5,0.6s0.2,0.9-0.4,1.1
		c-0.2,0-0.4,0.1-0.6,0.2C25,18.6,24.9,19,25,19.3s0.5,0.5,0.8,0.4c0.6-0.2,1.2-0.3,1.8-0.1c0.7,0.3,1.2,0.7,1.3,1.5
		c0.1,0.8-0.3,1.3-0.9,1.7c-0.7,0.5-0.7,0.9,0,1.4c1,0.7,1.2,1.7,0.5,2.5c-0.2,0.2-0.2,0.2-0.4,0c-0.3-0.5-0.8-0.9-1.4-1.1
		c-0.5-0.2-0.9-0.1-1,0.3c-0.2,0.4,0,0.7,0.5,0.9c0.3,0.2,0.7,0.3,0.9,0.7c0.3,0.5,0.3,1.2-0.2,1.6c-0.5,0.5-1.4,0.7-2.1,0.4
		c-0.7-0.3-1-0.8-1-1.6c0-1.3,0-2.5,0-3.8c0-1,0.5-1.6,1.6-1.7c0.1,0,0.2,0,0.3,0c0.4-0.1,0.7-0.4,0.6-0.8S26,21,25.6,21
		C25,21.1,24.5,21.2,23.9,21.6z"/>
</g>
</svg>
