<?xml version="1.0" encoding="utf-8"?>
<!-- Generator: Adobe Illustrator 23.0.0, SVG Export Plug-In . SVG Version: 6.00 Build 0)  -->
<svg version="1.1" id="Layer_1" xmlns="http://www.w3.org/2000/svg" xmlns:xlink="http://www.w3.org/1999/xlink" x="0px" y="0px"
	 width="46.3px" height="46.3px" viewBox="0 0 46.3 46.3" style="enable-background:new 0 0 46.3 46.3;" xml:space="preserve">
<style type="text/css">
	.st0{fill:#010101;}
	.st1{fill:#C7E6F8;}
	.st2{fill:#F9D69A;}
	.st3{fill:#E5E5E5;}
</style>
<g>
	<path d="M0,21.7C0.2,21.2,0.7,21,1.2,21c1.9,0,3.9,0,5.8,0c0.3,0,0.5-0.1,0.6-0.3c1.1-1.9,2.2-3.9,3.3-5.8c0.1-0.2,0.1-0.4,0-0.6
		c-0.6-1-1.1-2-1.6-3C9.2,11,9,10.8,9.1,10.4s0.4-0.6,0.7-0.7c0.4-0.1,0.7,0.1,0.9,0.5c0.6,1,1.1,2,1.6,3c0.2,0.3,0.4,0.4,0.7,0.4
		c2.1,0,4.2,0,6.2,0c0.4,0,0.6-0.1,0.7-0.4c1.2-2,2.4-4.1,3.5-6.1c0.6-0.4,1-0.6,1.6-0.6c2.4,0,4.8,0,7.1,0c0.3,0,0.5-0.1,0.6-0.3
		C33.5,5,34.2,3.8,35,2.6c0.1-0.2,0.2-0.3,0.3-0.4c0.3-0.3,0.7-0.4,1.1-0.1c0.4,0.2,0.5,0.7,0.4,1.1c-0.1,0.2-0.2,0.3-0.3,0.5
		c-0.7,1.2-1.5,2.4-2.3,3.5C34,7.5,34,7.7,34.2,8c1.2,2,2.3,3.9,3.4,5.9c0.4,0.6,0.4,1.1,0,1.8c-1.2,2-2.3,4-3.5,6
		c-0.1,0.2-0.2,0.4,0,0.7c1.1,1.9,2.2,3.8,3.3,5.7c0.1,0.3,0.3,0.3,0.6,0.3c1.2,0,2.4,0,3.6,0c0.4,0,0.7,0.1,0.9,0.5
		c0.2,0.3,0.1,0.6-0.1,0.9c-0.2,0.3-0.5,0.4-0.9,0.4c-1.2,0-2.4,0-3.6,0c-0.3,0-0.5,0.1-0.6,0.3c-1.1,1.9-2.2,3.8-3.3,5.7
		c-0.1,0.2-0.1,0.4,0,0.6c1.2,2,2.3,4,3.5,6.1c0,0.1,0.1,0.2,0.1,0.2c0.3,0.6,0.2,1.1-0.3,1.4c-0.5,0.3-1,0.1-1.3-0.5
		c-1.2-2.1-2.4-4.2-3.6-6.3c-0.1-0.3-0.3-0.4-0.6-0.4c-2.2,0-4.3,0-6.5,0c-0.3,0-0.4,0.1-0.6,0.3c-0.6,1.1-1.3,2.1-2,3.2
		c-0.4,0.6-0.9,0.7-1.3,0.5c-0.5-0.3-0.6-0.8-0.2-1.4c0.6-1.1,1.3-2.1,2-3.1c0.1-0.2,0.1-0.4,0-0.6c-1.1-1.9-2.2-3.8-3.3-5.7
		c0.1-0.4,0-0.5-0.3-0.5c-2.2,0-4.4,0-6.6,0c-0.3,0-0.4,0.1-0.6,0.3c-0.6,0.9-1.3,1.9-2,2.8c-0.4,0.5-0.9,0.7-1.3,0.4
		c-0.5-0.3-0.5-0.9-0.1-1.4c0.6-0.9,1.3-1.8,1.9-2.7c0.2-0.2,0.2-0.4,0-0.6c-1.1-1.9-2.2-3.7-3.2-5.6c-0.1-0.3-0.3-0.3-0.6-0.3
		c-2,0-3.9,0-5.9,0c-0.6,0-1-0.2-1.2-0.7C0,22,0,21.9,0,21.7z"/>
	<path class="st0" d="M46.3,29.4c-0.2,0.3-0.4,0.6-0.9,0.6s-0.8-0.2-0.9-0.6c-0.1-0.4,0.1-0.8,0.5-1s0.9,0,1.1,0.3
		c0.1,0.1,0.1,0.2,0.2,0.3C46.3,29.1,46.3,29.3,46.3,29.4z"/>
	<path d="M18.8,5.3c0,0.9,0,1.7,0,2.6c0,0.5-0.1,0.6-0.6,0.7c-0.5,0-0.6-0.2-0.6-0.7c0-0.6,0-1.3,0-1.9c0-0.3,0-0.4-0.3-0.4
		c-0.5,0-0.9,0-1.4,0c-0.2,0-0.3,0.1-0.3,0.3c0,0.7,0,1.4,0,2.1c0,0.4-0.2,0.5-0.6,0.5c-0.4,0-0.6-0.1-0.6-0.6c0-1.8,0-3.7,0-5.5
		c0-0.4,0.2-0.5,0.6-0.5c0.3,0,0.6,0.1,0.6,0.5c0,0.6,0,1.3,0,1.9c0,0.2,0.1,0.3,0.3,0.3c0.5,0,0.9,0,1.4,0c0.2,0,0.3-0.1,0.3-0.3
		c0-0.6,0-1.2,0-1.9c0-0.4,0.2-0.6,0.6-0.6s0.6,0.1,0.6,0.6C18.8,3.4,18.8,4.3,18.8,5.3z"/>
	<path d="M43.4,21.3c0,0.9,0,1.8,0,2.7c0,0.4-0.2,0.6-0.6,0.6c-0.4,0-0.6-0.2-0.6-0.6c0-0.7,0-1.4,0-2c0-0.3,0-0.4-0.3-0.4
		c-0.5,0-0.9,0-1.4,0c-0.2,0-0.3,0.1-0.3,0.3c0,0.7,0,1.4,0,2.1c0,0.4-0.2,0.5-0.6,0.6c-0.4,0-0.6-0.1-0.6-0.6c0-1.8,0-3.7,0-5.5
		c0-0.4,0.2-0.5,0.6-0.5c0.3,0,0.6,0.1,0.6,0.5c0,0.6,0,1.3,0,1.9c0,0.2,0,0.3,0.3,0.3c0.5,0,1,0,1.4,0c0.2,0,0.3-0.1,0.3-0.3
		c0-0.6,0-1.2,0-1.8c0-0.5,0.2-0.6,0.6-0.6c0.4,0,0.6,0.1,0.6,0.6C43.4,19.5,43.4,20.4,43.4,21.3z"/>
	<path d="M3.3,28.8c0,0.5,0,0.9,0,1.4c0,0.6,0.4,0.9,0.9,0.9s0.8-0.2,0.9-0.8c0.1-0.4,0.3-0.6,0.7-0.5c0.4,0,0.5,0.3,0.5,0.7
		c0,0.7-0.4,1.2-1.1,1.5c-0.6,0.3-1.3,0.3-1.9,0.1c-0.8-0.3-1.2-0.8-1.2-1.6c0-1,0-2.1,0-3.1s0.7-1.6,1.7-1.7c0.6-0.1,1.2,0,1.8,0.4
		c0.4,0,0.6,0.4,0.7,0.9c0,0.3,0,0.6-0.4,0.7s-0.7-0.1-0.8-0.5c-0.1-0.5-0.4-0.7-0.9-0.7s-0.8,0.3-0.9,0.8
		C3.3,27.8,3.3,28.3,3.3,28.8L3.3,28.8z"/>
	<path class="st0" d="M8.3,8.4C7.8,8.4,7.4,8,7.4,7.5s0.4-0.9,0.9-0.9S9.2,7,9.2,7.5S8.8,8.5,8.3,8.4z"/>
	<path class="st0" d="M21.1,43.5c0,0.5-0.4,0.9-0.9,0.9s-0.9-0.4-0.9-0.9s0.4-0.9,0.9-0.9S21.1,43,21.1,43.5z"/>
	<path d="M8.4,35.8c0,0.5-0.4,0.9-0.9,0.9s-0.9-0.4-0.9-0.9s0.4-0.9,0.9-0.9C8.1,34.9,8.5,35.3,8.4,35.8z"/>
	<path class="st1" d="M28.8,35.4c-1.1,0-2.2,0-3.3,0c-0.3,0-0.4-0.1-0.5-0.3c-1.1-1.9-2.2-3.8-3.3-5.7c-0.1-0.2-0.1-0.3,0-0.5
		c1.1-1.9,2.2-3.8,3.3-5.8c0.1-0.2,0.3-0.3,0.5-0.3c2.2,0,4.4,0,6.6,0c0.3,0,0.4,0.1,0.5,0.3c1.1,1.9,2.2,3.8,3.3,5.7
		c0.1,0.2,0.1,0.3,0,0.5c-1.1,1.9-2.2,3.8-3.3,5.8c-0.1,0.2-0.3,0.3-0.5,0.3C31,35.4,29.9,35.4,28.8,35.4L28.8,35.4z"/>
	<path class="st2" d="M16.3,28.2c-1.1,0-2.2,0-3.3,0c-0.3,0-0.4-0.1-0.6-0.3c-1.1-1.9-2.2-3.8-3.3-5.7C9,22,9,21.8,9.1,21.6
		c1.1-1.9,2.2-3.9,3.3-5.8c0.1-0.2,0.2-0.3,0.5-0.3c2.2,0,4.4,0,6.6,0c0.2,0,0.3,0.1,0.5,0.3c1.1,1.9,2.2,3.9,3.3,5.8
		c0.1,0.2,0.1,0.4,0,0.6c-1.1,1.9-2.2,3.8-3.3,5.7c-0.1,0.2-0.3,0.3-0.5,0.3C18.5,28.2,17.4,28.2,16.3,28.2L16.3,28.2z"/>
	<path class="st3" d="M28.8,21c-1.1,0-2.2,0-3.3,0c-0.2,0-0.4-0.1-0.5-0.3c-1.1-1.9-2.2-3.9-3.3-5.8c-0.1-0.2-0.1-0.3,0-0.5
		c1.1-1.9,2.2-3.8,3.3-5.7c0.1-0.2,0.3-0.3,0.5-0.3c2.2,0,4.4,0,6.6,0c0.3,0,0.4,0.1,0.5,0.3c1.1,1.9,2.2,3.8,3.3,5.7
		c0.1,0.2,0.1,0.4,0,0.6c-1.1,1.9-2.2,3.8-3.3,5.7c-0.1,0.2-0.3,0.3-0.5,0.3C31,21,29.9,21,28.8,21L28.8,21z"/>
</g>
</svg>
