<?xml version="1.0" encoding="utf-8"?>
<!-- Generator: Adobe Illustrator 23.0.0, SVG Export Plug-In . SVG Version: 6.00 Build 0)  -->
<svg version="1.1" id="Layer_1" xmlns="http://www.w3.org/2000/svg" xmlns:xlink="http://www.w3.org/1999/xlink" x="0px" y="0px"
	 width="43.3px" height="44.4px" viewBox="0 0 43.3 44.4" style="enable-background:new 0 0 43.3 44.4;" xml:space="preserve">
<style type="text/css">
	.st0{fill:#D70027;}
	.st1{fill:#FEBBAA;}
	.st2{fill:#006DEF;}
	.st3{fill:#FEAB95;}
	.st4{fill:#C90024;}
	.st5{fill:#CE0025;}
	.st6{fill:#F0F1F1;}
</style>
<g>
	<path class="st0" d="M21.2,21.3c-0.4-0.4-0.9-0.9-1.3-1.3c-2.7-2.7-5.4-5.3-8-8c-1.8-1.8-2.4-4.1-1.7-6.6s2.4-4.1,4.8-4.7
		s4.6,0.1,6.4,1.8c0.6,0.6,0.6,0.6,1.1,0c1.2-1.2,2.6-1.9,4.3-2c0,0,0,0,0.1,0.1c2.9,0.6,5.1,2.8,5.6,5.7c0.3,2.2-0.2,4.1-1.8,5.7
		c-3,3-5.9,6-8.9,8.9C21.6,21.2,21.5,21.4,21.2,21.3z"/>
	<path class="st1" d="M24.2,37.8c0-2.5,0-5,0-7.5s1.1-4.3,3.2-5.6c2.2-1.3,4.4-2.5,6.5-3.8c0.1,0,0.1-0.1,0.2-0.2
		c0.7-0.3,1.4-0.1,2,0.3c0.3,0.2,0.4,0.1,0.5-0.2c0.7-2.2,1.4-4.5,2.2-6.7c0.3-0.8,0.7-1.4,1.5-1.7c0.5-0.2,0.9-0.2,1.4-0.1
		c0,0.2,0.2,0.2,0.4,0.3c1,0.5,1.4,1.5,1.1,2.6c-1.1,4-2.1,8.1-3.2,12.1c-0.2,0.7-0.6,1.2-1.1,1.6c-1,0.8-1.9,1.7-2.9,2.6
		c-0.7,0.6-1.4,1.2-2,1.8s-0.9,1.3-0.9,2.2c0,0.8,0,1.6,0,2.3C32.9,38,32.7,38,32.5,38c-2.6,0-5.2,0-7.7,0
		C24.6,38,24.4,38,24.2,37.8z"/>
	<path class="st1" d="M9.8,20.8c1.4,0.8,2.7,1.6,4.1,2.4c1.2,0.7,2.4,1.3,3.5,2.1c1.5,1.2,2.3,2.7,2.4,4.6c0,2.6,0,5.2,0,7.9
		C19.6,38,19.4,38,19.2,38c-2.6,0-5.2,0-7.7,0c-0.2,0-0.4,0-0.6-0.2c0-0.6,0-1.2,0-1.8c0.1-1.4-0.5-2.4-1.6-3.3
		c-1.3-1.1-2.5-2.3-3.8-3.3s-1.7-2.3-2-3.8c-0.9-3.5-1.8-6.9-2.8-10.4c-0.3-1.1,0.1-2.1,1.2-2.6c0.1-0.1,0.3-0.1,0.3-0.3
		c1.4-0.2,2.5,0.4,2.9,1.8c0.8,2.2,1.5,4.5,2.2,6.8c0,0.1,0.1,0.2,0.1,0.4C8.1,20.8,8.9,20.4,9.8,20.8z"/>
	<path class="st2" d="M10.8,37.8c3,0,6,0,8.9,0c0.7,0,0.7,0,0.7,0.8c0,1.6,0,3.2,0,4.8c0,0.3-0.1,0.4-0.4,0.4c-3.2,0-6.4,0-9.7,0
		c-0.3,0-0.4-0.1-0.4-0.4c0-1.7,0-3.3,0-5c0-0.5,0.1-0.7,0.6-0.6C10.6,37.8,10.7,37.8,10.8,37.8z"/>
	<path class="st2" d="M24.2,37.8c3,0,6,0,8.9,0c0.7,0,0.7,0,0.7,0.8c0,1.6,0,3.2,0,4.8c0,0.3-0.1,0.4-0.4,0.4c-3.2,0-6.4,0-9.7,0
		c-0.3,0-0.4-0.1-0.4-0.4c0-1.7,0-3.3,0-5c0-0.5,0.1-0.7,0.6-0.6C24.1,37.8,24.1,37.8,24.2,37.8z"/>
	<path class="st3" d="M9.8,20.8c-0.1,0.1-0.2,0-0.2,0c-0.8-0.1-1.5,0.1-2.2,0.7c-0.4-1.1-0.7-2.1-1-3.2c-0.5-1.4-0.9-2.8-1.4-4.2
		c-0.4-1.2-1.1-1.7-2.4-1.8c-0.2,0-0.3,0-0.4-0.1C1.9,11,2.4,9.9,3.5,9.4c1-0.4,2.3,0.1,2.8,1.2C6.5,11,6.6,11.5,6.8,12
		C7.8,15,8.8,17.9,9.8,20.8z"/>
	<path class="st3" d="M41.8,12.3c-0.2,0.1-0.3,0.1-0.5,0.1c-0.9-0.1-2,0.6-2.3,1.7c-0.7,2.3-1.5,4.7-2.3,7c-0.1,0.3-0.1,0.5-0.5,0.2
		c-0.6-0.5-1.3-0.5-2.1-0.5c1-2.9,2-5.8,3-8.7c0.1-0.4,0.3-0.8,0.4-1.1c0.4-1.2,1.7-1.9,2.8-1.5C41.5,9.9,42.1,11.1,41.8,12.3z"/>
	<path class="st4" d="M21.2,21.3c0.2-0.1,0.3-0.2,0.5-0.4c3-3,5.9-5.9,8.9-8.9c2.3-2.3,2.5-6.1,0.5-8.7c-1.1-1.4-2.5-2.2-4.3-2.5
		h-0.1c0-0.1,0-0.1,0.1-0.1c0.3-0.1,0.7,0,1,0c0.2,0,0.4,0,0.6,0l0,0C28.7,0.8,29,0.8,29.3,1c0.2,0,0.4,0.1,0.6,0.2
		c0.3,0.1,0.5,0.2,0.7,0.4C30.8,1.7,31,1.8,31.2,2c0.2,0.1,0.4,0.3,0.6,0.5C32,2.6,32.2,2.8,32.3,3c0.5,0.5,0.9,1.2,1.2,1.9l0,0
		c0.1,0.3,0.2,0.6,0.3,1c0,0.1,0,0.2,0,0.3C34,6.3,33.9,6.5,34,6.7c0,0.1,0,0.1-0.1,0.1c0.2,0.3,0.1,0.6,0.1,1C34,7.9,34,8,34,8
		c-0.1,0.2,0,0.3-0.1,0.5c-0.1,0.6-0.3,1.2-0.6,1.7c-0.3,0.7-0.8,1.3-1.3,1.9c-3.2,3.2-6.3,6.3-9.5,9.5c-0.6,0.6-0.4,0.7-1.1,0
		C21.3,21.5,21.2,21.4,21.2,21.3z"/>
	<path class="st0" d="M33.5,4.8c-0.3-0.1-0.2-0.4-0.4-0.6c-0.3-0.4-0.6-0.9-0.9-1.3c0.5,0.3,0.7,0.7,0.9,1.2
		C33.4,4.3,33.5,4.6,33.5,4.8z"/>
	<path class="st0" d="M29.3,1c-0.3-0.1-0.6-0.1-0.9-0.3C28.7,0.8,29,0.7,29.3,1z"/>
	<path class="st0" d="M33.8,5.8c-0.1-0.3-0.3-0.6-0.3-1C33.7,5.1,33.8,5.4,33.8,5.8z"/>
	<path class="st5" d="M27.8,0.7c-0.3,0-0.7,0-1,0V0.6C27.1,0.6,27.5,0.6,27.8,0.7C27.9,0.7,27.9,0.7,27.8,0.7L27.8,0.7z"/>
	<path class="st0" d="M30.6,1.6c-0.2-0.1-0.5-0.2-0.7-0.4C30.2,1.2,30.4,1.3,30.6,1.6z"/>
	<path class="st0" d="M31.8,2.4c-0.2-0.1-0.4-0.3-0.6-0.5C31.5,2,31.7,2.1,31.8,2.4z"/>
	<path class="st0" d="M34,7.8c0-0.3,0-0.6-0.1-0.9C34.2,7.1,34,7.4,34,7.8z"/>
	<path class="st0" d="M34,6.7c-0.2-0.2-0.1-0.4-0.2-0.6C34.1,6.2,33.9,6.5,34,6.7z"/>
	<path class="st0" d="M27.8,0.7L27.8,0.7c0.2-0.1,0.4-0.1,0.6,0C28.2,0.7,28,0.7,27.8,0.7z"/>
	<path class="st0" d="M33.9,8.5c0-0.2-0.1-0.4,0.1-0.5C34,8.2,34,8.4,33.9,8.5z"/>
	<path class="st6" d="M23.4,13.2c0,0.4,0,0.8,0,1.2c0,0.2-0.1,0.3-0.3,0.3c-0.8,0-1.6,0-2.5,0c-0.3,0-0.3-0.1-0.3-0.3
		c0-0.7,0-1.5,0-2.2c0-0.3-0.1-0.5-0.4-0.4c-0.7,0-1.5,0-2.2,0c-0.3,0-0.3-0.1-0.3-0.3c0-0.8,0-1.6,0-2.3c0-0.3,0.1-0.3,0.3-0.3
		c0.7,0,1.5,0,2.2,0c0.3,0,0.5-0.1,0.5-0.4c0-0.7,0-1.5,0-2.2c0-0.2,0.1-0.3,0.3-0.3c0.8,0,1.6,0,2.4,0c0.3,0,0.3,0.1,0.3,0.3
		c0,0.7,0,1.5,0,2.2c0,0.3,0.1,0.5,0.4,0.4c0.7,0,1.5,0,2.2,0c0.3,0,0.3,0.1,0.3,0.3c0,0.8,0,1.6,0,2.3c0,0.3-0.1,0.3-0.3,0.3
		c-0.7,0-1.5,0-2.2,0c-0.3,0-0.4,0.1-0.4,0.4C23.5,12.5,23.4,12.9,23.4,13.2z"/>
	<path class="st3" d="M36.9,22.3c0.3,1,0,2.1-1.1,2.7c-1.3,0.7-2.7,1.5-4,2.2c-0.5,0.3-0.9,0.2-1-0.2c-0.2-0.4,0-0.7,0.5-1
		c1.5-0.8,3.1-1.7,4.6-2.5C36.3,23.3,36.7,22.9,36.9,22.3z"/>
	<path class="st3" d="M7,22.4c0.6,1.2,1.9,1.5,3,2.2c0.9,0.6,1.9,1.1,2.9,1.6c0.3,0.2,0.5,0.6,0.3,0.9c-0.1,0.3-0.6,0.4-0.9,0.2
		c-1.1-0.6-2.3-1.2-3.4-1.9C8.5,25.2,8,25,7.6,24.7C7,24.2,6.7,23.1,7,22.4z"/>
</g>
</svg>
