<?xml version="1.0" encoding="utf-8"?>
<!-- Generator: Adobe Illustrator 23.0.0, SVG Export Plug-In . SVG Version: 6.00 Build 0)  -->
<svg version="1.1" id="Layer_1" xmlns="http://www.w3.org/2000/svg" xmlns:xlink="http://www.w3.org/1999/xlink" x="0px" y="0px"
	 width="56px" height="52.6px" viewBox="0 0 56 52.6" style="enable-background:new 0 0 56 52.6;" xml:space="preserve">
<style type="text/css">
	.st0{fill:#FEE252;}
	.st1{fill:#FEAFA9;}
	.st2{fill:#6E82B6;}
	.st3{fill:#97C969;}
	.st4{fill:#80D5FA;}
	.st5{fill:#7FD5FA;}
	.st6{fill:#466089;}
</style>
<g>
	<path class="st0" d="M14,50.5c0-9.4,0-18.9,0-28.3c0-0.5,0.1-0.6,0.6-0.6c2.4,0,4.7,0,7.1,0c0.5,0,0.6,0.2,0.6,0.6
		c0,9.4,0,18.9,0,28.3c-0.2,0.2-0.4,0.2-0.7,0.2c-2.3,0-4.6,0-6.9,0C14.4,50.7,14.2,50.7,14,50.5z"/>
	<path class="st1" d="M32.6,36.6c0,4.6,0,9.3,0,13.9c-0.2,0.2-0.4,0.2-0.7,0.2c-2.3,0-4.6,0-6.9,0c-0.2,0-0.5,0-0.7-0.2
		c0-8,0-16.1,0-24.1c0-0.7,0-0.7,0.7-0.7c0.9,0,1.8,0,2.7,0c0.2,0.2,0.1,0.4,0,0.6c-0.6,3,0.2,5.7,2.2,8c0.6,0.7,1.4,1.3,2.2,1.8
		C32.3,36.3,32.6,36.3,32.6,36.6z"/>
	<path class="st2" d="M32.6,36.6c-1.3-0.7-2.5-1.6-3.3-2.8c-1.7-2.4-2.2-4.9-1.6-7.8c0-0.1,0-0.2,0-0.3c0.5-1.4,1.1-2.7,2.1-3.8
		c1.4-1.5,3-2.4,5-2.8c0.2,0,0.3-0.1,0.5-0.2c-0.7,0-1.3,0-2,0c-1.3,0-2.7,0-4,0c-0.4,0-0.5-0.1-0.5-0.5c0-0.4,0-0.7,0-1.1
		c0-0.4,0.1-0.5,0.5-0.5c4.1,0,8.3,0,12.4,0c0.5,0,1.2-0.2,1.4,0.1c0.3,0.3,0.1,1,0.1,1.5c0,0.4-0.1,0.5-0.5,0.5c-1.6,0-3.2,0-4.9,0
		c1.5,0.3,2.8,0.8,4,1.6c4.1,2.8,5.3,8.5,2.5,12.7c-0.1,0.1-0.2,0.3-0.3,0.4c-0.3,0.6-0.8,1.1-1.3,1.6c-0.2,0.2-0.4,0.5-0.8,0.5
		c-1.8,1.2-3.7,1.8-5.9,1.7C35,37.5,33.8,37.1,32.6,36.6z"/>
	<path class="st3" d="M3.7,50.5c0-1.4,0-2.9,0-4.3c0-3.9,0-7.8,0-11.7c0-0.4,0.1-0.5,0.5-0.5c2.4,0,4.8,0,7.2,0
		c0.4,0,0.5,0.1,0.5,0.5c0,5.3,0,10.7,0,16c-0.2,0.2-0.4,0.2-0.7,0.2c-2.3,0-4.6,0-6.9,0C4.1,50.7,3.9,50.7,3.7,50.5z"/>
	<path class="st2" d="M3.7,50.5c2.7,0,5.5,0,8.2,0c0.7,0,1.4,0,2.1,0c2.8,0,5.5,0,8.3,0c0.7,0,1.4,0,2.1,0c2.8,0,5.5,0,8.3,0
		c0.7,0,1.4,0,2.1,0c0.2-0.2,0.4-0.2,0.7-0.2c2.3,0,4.6,0,6.9,0c0.2,0,0.5,0,0.7,0.2c3.7,0,7.3,0,11,0c0.4,0,0.6,0.1,0.6,0.6
		c0,0.4,0,0.7,0,1.1c0,0.4-0.1,0.4-0.5,0.4c-16.6,0-33.2,0-49.9,0c-0.4,0-0.5-0.1-0.5-0.5C3.7,51.6,3.7,51.1,3.7,50.5z"/>
	<path class="st4" d="M6.2,16.4c-1.3-1.3-2.1-2.8-2.4-4.6c-0.5-3,0.4-5.6,2.6-7.7C8,2.6,10,1.8,12.2,1.8c0.2,0.2,0.2,0.4,0.2,0.6
		c0,2.6,0,5.2,0,7.8c0,0.3-0.2,0.5-0.4,0.7c-1.8,1.8-3.5,3.5-5.3,5.3C6.6,16.3,6.4,16.4,6.2,16.4z"/>
	<path class="st5" d="M42.9,50.5c-2.8,0-5.5,0-8.3,0c0-2.6,0-5.2,0-7.7c0-0.4,0.1-0.5,0.5-0.5c2.4,0,4.8,0,7.3,0
		c0.4,0,0.5,0.1,0.5,0.5C42.9,45.4,42.9,48,42.9,50.5z"/>
	<path class="st1" d="M12.3,10.4c0-2.9,0-5.7,0-8.6c4.6-0.1,8.7,4,8.6,8.6c-0.1,0.1-0.3,0.2-0.5,0.2c-2.5,0-5,0-7.5,0
		c-0.1,0-0.2,0-0.3,0C12.4,10.5,12.3,10.4,12.3,10.4z"/>
	<path class="st3" d="M12.3,10.4C12.3,10.4,12.3,10.4,12.3,10.4c0.3,0.1,0.4,0.2,0.6,0.3c1.7,1.7,3.4,3.4,5.2,5.2
		c0.1,0.1,0.3,0.2,0.3,0.5c-1.2,1.3-2.8,2.1-4.5,2.4c-2.8,0.5-5.2-0.3-7.3-2.1c-0.1-0.1-0.2-0.2-0.2-0.3
		C8.2,14.4,10.2,12.4,12.3,10.4z"/>
	<path class="st2" d="M45.3,34.8c0.1,0,0.2,0,0.3-0.1c0.2-0.3,0.3-0.2,0.5,0c0,0,0.1,0.1,0.1,0.1c2.6,2.6,5.3,5.3,7.9,7.9
		c0.3,0.3,0.3,0.5,0,0.8c-0.8,0.7-1.5,1.5-2.2,2.2c-0.2,0.2-0.3,0.2-0.5,0c-2.7-2.7-5.4-5.4-8.1-8.1c-0.4-0.4,0.2-0.5,0.1-0.8
		C43.9,36.1,44.6,35.4,45.3,34.8z"/>
	<path class="st2" d="M36.1,3.3c2.3,0,4.5,0,6.8,0c0.4,0,0.5,0.1,0.5,0.5c-0.1,0.5,0.2,1.2-0.1,1.5c-0.3,0.3-1,0.1-1.5,0.1
		c-4.1,0-8.2,0-12.3,0c-0.4,0-0.6-0.1-0.5-0.5c0-0.3,0-0.7,0-1c0-0.4,0.1-0.6,0.6-0.6C31.6,3.3,33.9,3.3,36.1,3.3z"/>
	<path class="st2" d="M36.2,7.8c2.2,0,4.4,0,6.7,0c0.4,0,0.6,0.1,0.5,0.5c0,0.3,0,0.7,0,1c0,0.4-0.1,0.5-0.5,0.5
		c-4.1,0-8.3,0-12.4,0c-0.4,0-0.8,0-1.1,0c-0.3,0-0.4-0.1-0.4-0.4c0-0.5-0.2-1.2,0.1-1.5c0.3-0.3,1-0.1,1.5-0.1
		C32.4,7.8,34.3,7.8,36.2,7.8z"/>
	<path class="st2" d="M36.1,14.4c-2.3,0-4.5,0-6.8,0c-0.4,0-0.5-0.1-0.5-0.5c0-0.3,0-0.7,0-1c0-0.4,0.1-0.6,0.6-0.6
		c3.2,0,6.4,0,9.6,0c1.3,0,2.6,0,3.9,0c0.3,0,0.4,0.1,0.4,0.4c-0.1,0.5,0.2,1.2-0.1,1.6c-0.3,0.3-1,0.1-1.5,0.1
		C39.8,14.4,38,14.4,36.1,14.4z"/>
	<path class="st0" d="M18.3,16.4c-2-2-4-4-6-6c2.8,0,5.6,0,8.5,0C20.8,12.7,20,14.7,18.3,16.4z"/>
	<path class="st5" d="M26.8,3.6c0,0.5,0,0.9,0,1.4c0,0.3-0.1,0.4-0.3,0.4c-0.9,0-1.9,0-2.8,0c-0.3,0-0.3-0.1-0.3-0.4
		c0-0.9,0-1.9,0-2.8c0-0.3,0.1-0.4,0.4-0.4c0.9,0,1.8,0,2.7,0c0.3,0,0.4,0.1,0.4,0.4C26.8,2.7,26.8,3.1,26.8,3.6z"/>
	<path class="st1" d="M26.8,8.2c-0.1,0.5,0.2,1.2-0.1,1.5c-0.4,0.3-1.1,0.1-1.6,0.1c-0.4,0-0.9,0-1.3,0c-0.3,0-0.4-0.1-0.4-0.4
		c0-0.9,0-1.8,0-2.7c0-0.3,0.1-0.4,0.4-0.4c0.9,0,1.8,0,2.7,0c0.4,0,0.4,0.1,0.4,0.5C26.8,7.2,26.8,7.7,26.8,8.2z"/>
	<path class="st0" d="M25.1,10.9c0.4,0,0.9,0,1.3,0c0.3,0,0.4,0.1,0.4,0.3c0,0.9,0,1.9,0,2.8c0,0.3-0.1,0.3-0.4,0.3
		c-0.9,0-1.9,0-2.8,0c-0.3,0-0.4-0.1-0.4-0.4c0-0.9,0-1.8,0-2.7c0-0.3,0.1-0.4,0.4-0.4C24.2,10.9,24.6,10.9,25.1,10.9z"/>
	<path class="st3" d="M23.3,17.2c0-0.5,0-0.9,0-1.4c0-0.3,0.1-0.4,0.3-0.4c0.9,0,1.9,0,2.8,0c0.3,0,0.3,0.1,0.3,0.4
		c0,0.9,0,1.9,0,2.8c0,0.3-0.1,0.4-0.4,0.4c-0.9,0-1.8,0-2.7,0c-0.3,0-0.4-0.1-0.4-0.4C23.3,18.1,23.3,17.6,23.3,17.2z"/>
	<path class="st6" d="M45.3,34.8c-0.4,0.7-1,1.1-1.5,1.6c-0.2,0.2-0.3,0.4-0.6,0.4c-0.3-0.3-0.7-0.7-1-1c0.8-0.6,1.5-1.3,2.1-2.1
		C44.6,34.1,44.9,34.4,45.3,34.8z"/>
	<path class="st5" d="M43.9,28.2c0,4-3.3,7.2-7.3,7.2c-4,0-7.2-3.3-7.2-7.2c0-4,3.3-7.2,7.3-7.2C40.7,21,43.9,24.3,43.9,28.2z"/>
</g>
</svg>
