<?xml version="1.0" encoding="utf-8"?>
<!-- Generator: Adobe Illustrator 23.0.0, SVG Export Plug-In . SVG Version: 6.00 Build 0)  -->
<svg version="1.1" id="Layer_1" xmlns="http://www.w3.org/2000/svg" xmlns:xlink="http://www.w3.org/1999/xlink" x="0px" y="0px"
	 width="298.6px" height="339px" viewBox="0 0 298.6 339" style="enable-background:new 0 0 298.6 339;" xml:space="preserve">
<style type="text/css">
	.st0{fill:#CED5E8;}
	.st1{fill:#F79B7B;}
	.st2{fill:#C52D4C;}
	.st3{fill:#F06A3F;}
	.st4{fill:#FBAC39;}
	.st5{fill:#DD8027;}
	.st6{fill:#FFFFFF;}
	.st7{fill:#373739;}
	.st8{fill:#585859;}
	.st9{fill:#F1625E;}
	.st10{fill:#1959A9;}
	.st11{fill:#1B74BB;}
	.st12{fill:#00A86E;}
	.st13{fill:#007F56;}
	.st14{opacity:0.8;}
	.st15{fill:#366F36;}
	.st16{fill:#A0BC4F;}
	.st17{fill:#7CA540;}
	.st18{fill:#BC7E55;}
	.st19{fill:#1E1635;}
</style>
<g>
	<g>
		<ellipse class="st0" cx="152.8" cy="331.5" rx="138.2" ry="8.4"/>
	</g>
	<g>
		<g>
			<g>
				<g>
					<g>
						<g>
							<g>
								<path class="st1" d="M145.1,88l-0.2,0.8l-0.1,0.6l-0.2,1.2c-0.1,0.7-0.2,1.5-0.4,2.2c-0.2,1.5-0.4,2.9-0.5,4.3
									c-0.3,2.9-0.5,5.7-0.7,8.5c-0.1,2.8-0.2,5.7-0.1,8.5c0,2.8,0.2,5.7,0.4,8.5c0.2,2.8,0.5,5.6,0.8,8.4
									c0.2,1.4,0.4,2.8,0.6,4.2c0.1,0.7,0.2,1.4,0.3,2.1l0.4,2.1c0.1,0.7,0.3,1.4,0.4,2.1c0.1,0.7,0.3,1.4,0.4,2.1
									c0.3,1.4,0.6,2.8,1,4.1c0.2,0.7,0.3,1.4,0.5,2.1l0.6,2.1l0.1,0.5l0.1,0.3l0.2,0.5c0.1,0.5,0.3,0.9,0.5,1.3
									c0.2,0.4,0.3,0.8,0.5,1.2c0.2,0.4,0.3,0.7,0.5,1l0.3,0.5c0.1,0.2,0.2,0.3,0.3,0.5l0.3,0.4l0.3,0.4c0.2,0.3,0.4,0.5,0.5,0.8
									c0.7,1,1.4,1.8,2.1,2.5c0.7,0.7,1.3,1.4,2,2c1.3,1.2,2.5,2.3,3.8,3.3c2.5,2,4.9,3.6,7.3,5.2c4.8,3.1,9.6,5.7,14.4,8.2
									c4.8,2.5,9.6,4.8,14.5,7c2.4,1.1,4.9,2.2,7.3,3.2c1.2,0.5,2.4,1,3.7,1.5l1.9,0.8l1.9,0.8l8.4-18.9l-1.6-0.8l-1.7-0.9
									l-3.4-1.7c-2.2-1.2-4.5-2.4-6.7-3.6c-4.4-2.4-8.8-4.9-13-7.4c-2.1-1.3-4.2-2.6-6.3-3.9c-2-1.3-4-2.7-5.9-4
									c-1.9-1.4-3.7-2.7-5.2-4.1c-0.8-0.7-1.4-1.3-2-1.9c-0.5-0.6-0.9-1.1-1-1.3c0,0,0,0,0,0c0,0,0,0,0,0c0,0,0,0,0,0l0,0
									c0,0,0,0,0,0c0,0.1,0.1,0.1,0.1,0.2c0,0.1,0.1,0.2,0.1,0.3c0.1,0.1,0.1,0.2,0.2,0.4l0,0.1c0,0,0,0,0,0l0-0.1l0-0.2l-0.1-0.4
									l-0.4-1.7c-0.1-0.6-0.2-1.1-0.4-1.7c-0.2-1.1-0.4-2.3-0.6-3.4c-0.1-0.6-0.2-1.2-0.3-1.7c-0.1-0.6-0.2-1.2-0.3-1.7
									c-0.3-2.3-0.6-4.6-0.8-7c-0.2-2.3-0.3-4.7-0.4-7c-0.1-2.3-0.1-4.7-0.1-7c0-2.3,0.1-4.7,0.3-7c0.2-2.3,0.4-4.7,0.6-6.9
									c0.1-1.1,0.3-2.3,0.5-3.4c0.1-0.6,0.2-1.1,0.3-1.6l0.1-0.8l0.1-0.5L145.1,88z"/>
							</g>
						</g>
					</g>
					<g>
						<path class="st2" d="M173,94.4l4.8,36.1c-7.1,4-13.9,6.8-20,8L173,94.4z"/>
					</g>
					<g>
						<g>
							<g>
								<g>
									<path class="st3" d="M162.9,150.2c0.1,0,0.2,0,0.3-0.1c3.7-2,8.8-3.7,8.8-3.7c0.3-0.1,0.5-0.5,0.4-0.8
										c-0.1-0.3-0.5-0.5-0.8-0.4c-0.2,0.1-5.3,1.7-9,3.8c-0.3,0.2-0.4,0.6-0.3,0.9C162.4,150.1,162.6,150.2,162.9,150.2z"/>
								</g>
							</g>
						</g>
						<g>
							<g>
								<g>
									<path class="st3" d="M171.5,146.6c0.3,0,0.6-0.2,0.6-0.6c0-0.3-0.2-0.7-0.6-0.7c-2.6-0.3-6.1-0.3-6.2-0.3c0,0,0,0,0,0
										c-0.3,0-0.6,0.3-0.6,0.6c0,0.3,0.3,0.6,0.6,0.6C165.3,146.3,168.8,146.3,171.5,146.6C171.4,146.6,171.4,146.6,171.5,146.6z
										"/>
								</g>
							</g>
						</g>
					</g>
				</g>
				<g>
					<g>
						<g>
							<g>
								<g>
									<g>
										<polygon class="st1" points="239.9,294.8 246.5,305.5 259,300 253.3,288.5 										"/>
									</g>
								</g>
							</g>
						</g>
						<g>
							<g>
								<g>
									<g>
										<g>
											<g>
												<g>
													<path class="st4" d="M298.6,306.1L251.3,327c-0.6-0.5-1.2-1.3-1.8-2.4c-2.1-3.9-3.6-10.8-4.8-15.1
														c-0.1-0.5-0.3-1-0.4-1.4c-0.2-0.7-0.4-1.3-0.6-1.7c-1.5-3.3,1.7-4,1.7-4c6.9,2.6,9.2-6.9,13.4-6c0,0,1.8,0.4,7,2.1
														c5.2,1.7,12.6,1.1,19.1,1c8.3-0.2,11.6,1.9,12.9,3.7C298.9,304.7,298.6,306.1,298.6,306.1z"/>
												</g>
											</g>
										</g>
									</g>
								</g>
							</g>
							<g>
								<g>
									<g>
										<g>
											<g>
												<path class="st5" d="M298.6,306.1L251.3,327c-0.6-0.5-1.2-1.3-1.8-2.4l48.3-21.4C298.9,304.7,298.6,306.1,298.6,306.1z"
													/>
											</g>
										</g>
									</g>
								</g>
							</g>
							<g>
								<g>
									<g>
										<g>
											<g>
												<g>
													<path class="st5" d="M256.1,324.9l-1.4,0.6c0.7-2.2,0.9-5.3-0.8-8.7c-2.3-4.6-6.5-6.5-9.2-7.3c-0.1-0.5-0.3-1-0.4-1.4
														c2.8,0.7,7.9,2.6,10.7,8.1C256.7,319.5,256.7,322.5,256.1,324.9z"/>
												</g>
											</g>
										</g>
									</g>
								</g>
							</g>
							<g>
								<g>
									<g>
										<g>
											<g>
												<path class="st6" d="M266.3,301.7c-0.3,0.2-0.8,0.1-1-0.3c-0.3-0.4-0.2-0.9,0.2-1.2l2.6-2c0.4-0.3,0.9-0.2,1.2,0.2
													c0.3,0.4,0.2,0.9-0.2,1.2l-2.6,2C266.4,301.6,266.4,301.7,266.3,301.7z"/>
											</g>
										</g>
									</g>
								</g>
							</g>
							<g>
								<g>
									<g>
										<g>
											<g>
												<path class="st6" d="M262.3,300.6c-0.3,0.2-0.8,0.1-1-0.3c-0.3-0.4-0.2-0.9,0.2-1.2l2.6-2c0.4-0.3,0.9-0.2,1.2,0.2
													c0.3,0.4,0.2,0.9-0.2,1.2l-2.6,2C262.4,300.5,262.3,300.5,262.3,300.6z"/>
											</g>
										</g>
									</g>
								</g>
							</g>
							<g>
								<g>
									<g>
										<g>
											<g>
												<path class="st6" d="M270,302.1c-0.3,0.2-0.8,0.1-1-0.3c-0.3-0.4-0.2-0.9,0.2-1.2l2.6-2c0.4-0.3,0.9-0.2,1.2,0.2
													c0.3,0.4,0.2,0.9-0.2,1.2l-2.6,2C270.1,302.1,270.1,302.1,270,302.1z"/>
											</g>
										</g>
									</g>
								</g>
							</g>
							<g>
								<g>
									<g>
										<g>
											<g>
												<path class="st6" d="M273.7,302.5c-0.3,0.2-0.8,0.1-1-0.3c-0.3-0.4-0.2-0.9,0.2-1.2l2.6-2c0.4-0.3,0.9-0.2,1.2,0.2
													c0.3,0.4,0.2,0.9-0.2,1.2l-2.6,2C273.8,302.4,273.8,302.4,273.7,302.5z"/>
											</g>
										</g>
									</g>
								</g>
							</g>
							<g>
								<g>
									<g>
										<g>
											<g>
												<path class="st6" d="M277.6,302.6c-0.3,0.2-0.8,0.1-1-0.3c-0.3-0.4-0.2-0.9,0.2-1.2l2.6-2c0.4-0.3,0.9-0.2,1.2,0.2
													c0.3,0.4,0.2,0.9-0.2,1.2l-2.6,2C277.7,302.5,277.7,302.5,277.6,302.6z"/>
											</g>
										</g>
									</g>
								</g>
							</g>
							<g>
								<g>
									<g>
										<g>
											<g>
												<path class="st6" d="M281.7,302.3c-0.3,0.2-0.8,0.1-1-0.3c-0.3-0.4-0.2-0.9,0.2-1.2l2.6-2c0.4-0.3,0.9-0.2,1.2,0.2
													c0.3,0.4,0.2,0.9-0.2,1.2l-2.6,2C281.8,302.3,281.7,302.3,281.7,302.3z"/>
											</g>
										</g>
									</g>
								</g>
							</g>
						</g>
					</g>
					<g>
						<g>
							<g>
								<g>
									<path class="st7" d="M210.6,191.3c-4.4-4.3-39-14-62-7.6c-2.6,5.1-6,17.9,2.3,29.8c30.2,4.9,47.1,15.1,47.1,15.1
										s10.7,24.8,17.1,33.9c6.4,9.1,21,38,21,38l22-9.4C258,291.1,222.5,203.1,210.6,191.3z"/>
								</g>
							</g>
						</g>
					</g>
					<g>
						<g>
							<g>
								<path class="st8" d="M233.6,295.1c0.1,0,0.2,0,0.2,0l21.5-9c0.3-0.1,0.5-0.5,0.3-0.8c-0.1-0.3-0.5-0.5-0.8-0.3l-21.5,9
									c-0.3,0.1-0.5,0.5-0.3,0.8C233.1,294.9,233.3,295.1,233.6,295.1z"/>
							</g>
						</g>
					</g>
					<g>
						<g>
							<g>
								<path class="st8" d="M237.2,293.3c0.1,0,0.2,0,0.2,0c0.3-0.1,0.5-0.5,0.4-0.8c0-0.1-4.6-11.4-15.1-27.3
									c-10.4-15.8-21.4-42.6-21.5-42.9c-0.1-0.3-0.5-0.5-0.8-0.3c-0.3,0.1-0.5,0.5-0.3,0.8c0.1,0.3,11.1,27.2,21.6,43.1
									c10.4,15.8,14.9,27,14.9,27.1C236.7,293.1,237,293.3,237.2,293.3z"/>
							</g>
						</g>
					</g>
				</g>
				<g>
					<g>
						<g>
							<g>
								<g>
									<polygon class="st1" points="184.4,296.7 186,309.1 199.7,309.1 199.2,296.3 									"/>
								</g>
							</g>
						</g>
					</g>
					<g>
						<g>
							<g>
								<g>
									<path class="st4" d="M233.5,330.8h-51.7c-0.4-0.7-0.6-1.7-0.7-2.9c-0.3-4.4,1.1-11.4,1.8-15.8c0.1-0.5,0.2-1,0.2-1.4
										c0.1-0.7,0.2-1.3,0.2-1.8c0-3.6,3.2-3,3.2-3c5.2,5.1,11.2-2.6,14.6,0c0,0,1.5,1.1,5.6,4.8c4.1,3.7,11.1,6.1,17,8.6
										c7.7,3.2,9.9,6.4,10.3,8.6C234.2,329.6,233.5,330.8,233.5,330.8z"/>
								</g>
							</g>
						</g>
						<g>
							<g>
								<g>
									<g>
										<g>
											<g>
												<path class="st5" d="M233.5,330.8h-51.7c-0.4-0.7-0.6-1.7-0.7-2.9h52.8C234.2,329.6,233.5,330.8,233.5,330.8z"/>
											</g>
										</g>
									</g>
								</g>
							</g>
						</g>
						<g>
							<g>
								<g>
									<g>
										<g>
											<g>
												<g>
													<path class="st5" d="M187,330.8h-1.5c1.5-1.8,3-4.4,2.8-8.3c-0.2-5.1-3.3-8.6-5.4-10.4c0.1-0.5,0.2-1,0.2-1.4
														c2.3,1.8,6.2,5.6,6.5,11.7C189.7,326.1,188.5,328.8,187,330.8z"/>
												</g>
											</g>
										</g>
									</g>
								</g>
							</g>
						</g>
						<g>
							<g>
								<g>
									<g>
										<g>
											<g>
												<path class="st6" d="M205.7,313.7c-0.4,0-0.7-0.3-0.8-0.6c-0.1-0.5,0.2-0.9,0.6-1l3.2-0.8c0.5-0.1,0.9,0.2,1,0.6
													c0.1,0.5-0.2,0.9-0.6,1l-3.2,0.8C205.8,313.7,205.8,313.7,205.7,313.7z"/>
											</g>
										</g>
									</g>
								</g>
							</g>
						</g>
						<g>
							<g>
								<g>
									<g>
										<g>
											<g>
												<path class="st6" d="M202.5,311c-0.4,0-0.7-0.3-0.8-0.6c-0.1-0.5,0.2-0.9,0.6-1l3.2-0.8c0.5-0.1,0.9,0.2,1,0.6
													c0.1,0.5-0.2,0.9-0.6,1l-3.2,0.8C202.6,311,202.6,311,202.5,311z"/>
											</g>
										</g>
									</g>
								</g>
							</g>
						</g>
						<g>
							<g>
								<g>
									<g>
										<g>
											<g>
												<path class="st6" d="M208.9,315.6c-0.4,0-0.7-0.3-0.8-0.6c-0.1-0.5,0.2-0.9,0.6-1l3.2-0.8c0.5-0.1,0.9,0.2,1,0.6
													c0.1,0.5-0.2,0.9-0.6,1l-3.2,0.8C209.1,315.6,209,315.6,208.9,315.6z"/>
											</g>
										</g>
									</g>
								</g>
							</g>
						</g>
						<g>
							<g>
								<g>
									<g>
										<g>
											<g>
												<path class="st6" d="M212.2,317.4c-0.4,0-0.7-0.3-0.8-0.6c-0.1-0.5,0.2-0.9,0.6-1l3.2-0.8c0.5-0.1,0.9,0.2,1,0.6
													c0.1,0.5-0.2,0.9-0.6,1l-3.2,0.8C212.3,317.4,212.2,317.4,212.2,317.4z"/>
											</g>
										</g>
									</g>
								</g>
							</g>
						</g>
						<g>
							<g>
								<g>
									<g>
										<g>
											<g>
												<path class="st6" d="M215.7,319c-0.4,0-0.7-0.3-0.8-0.6c-0.1-0.5,0.2-0.9,0.6-1l3.2-0.8c0.5-0.1,0.9,0.2,1,0.6
													c0.1,0.5-0.2,0.9-0.6,1l-3.2,0.8C215.8,319,215.8,319,215.7,319z"/>
											</g>
										</g>
									</g>
								</g>
							</g>
						</g>
						<g>
							<g>
								<g>
									<g>
										<g>
											<g>
												<path class="st6" d="M219.5,320.5c-0.4,0-0.7-0.3-0.8-0.6c-0.1-0.5,0.2-0.9,0.6-1l3.2-0.8c0.5-0.1,0.9,0.2,1,0.6
													c0.1,0.5-0.2,0.9-0.6,1l-3.2,0.8C219.7,320.5,219.6,320.5,219.5,320.5z"/>
											</g>
										</g>
									</g>
								</g>
							</g>
						</g>
					</g>
				</g>
				<g>
					<g>
						<g>
							<g>
								<g>
									<g>
										<g>
											<g>
												<g>
													<g>
														<g>
															<g>
																<g>
																	<g>
																		<path class="st9" d="M80.7,193.6c0,0.2,0.1,0.4,0.1,0.6c0.1,0.1,0.2,0.2,0.3,0.2c8,6.2,17.4,10.3,27,12.6
																			c0.3,0.1,0.7,0.2,1,0.2c1.6,0.4,3.3,0.7,4.9,1c2.2,0.4,4.5,0.7,6.7,0.8c2,0.2,3.9,0.3,5.8,0.3
																			c8.3,0.2,16.1-0.9,22.8-3c0.3-0.1,0.5-0.2,0.8-0.2c1.8-0.6,3.4-1.2,5-2c0.2-0.1,0.5-0.2,0.7-0.3
																			c1-0.5,1.9-1,2.8-1.5c-0.1-3.2-0.2-7-0.1-11.1c0-0.3,0-0.7,0-1c0.1-5.7,0.2-11.8,0.5-17.4c0-0.3,0-0.5,0-0.8
																			c0.1-2.9,0.3-5.7,0.4-8.2c0-0.3,0-0.5,0-0.8c0.1-2.1,0.2-4,0.3-5.5c0-0.4,0-0.8,0.1-1.2c0-0.3,0-0.6,0.1-0.9v0
																			c0.1-1.1,0.2-2.1,0.3-3.2c0.1-1.7,0.3-3.3,0.5-4.8c0.2-1.8,0.4-3.5,0.6-5.2c0.2-1.8,0.5-3.5,0.8-5.2
																			c0.3-1.8,0.6-3.5,0.9-5.2c1.1-5.8,2.4-10.8,3.6-15.1c0.1-0.3,0.2-0.6,0.3-0.9c0.5-1.7,1-3.3,1.5-4.8
																			c0.1-0.3,0.2-0.7,0.3-1c2.8-8.3,5.1-13.2,5.1-16.6c0.1-6.9-5-9.2-10.3-12c-0.3-0.1-0.5-0.3-0.7-0.4
																			c-0.9-0.5-1.8-1-2.7-1.5c-0.4-0.2-0.7-0.5-1.1-0.7c-0.2-0.2-0.5-0.3-0.7-0.5c-2.1-1.6-3.9-3.7-5.1-6.5l-20-4.2
																			c0,0-1.9,1-5.1,1.9c-0.3,0.1-0.6,0.2-0.9,0.2c-0.4,0.1-0.8,0.2-1.2,0.3c-0.3,0.1-0.5,0.1-0.8,0.1
																			c-0.2,0-0.4,0.1-0.6,0.1c-1.9,0.3-4.1,0.5-6.6,0.4c-0.3,0-0.5,0-0.8,0c-0.2,0-0.4,0-0.5,0
																			c-1.7-0.1-3.3,0.1-4.9,0.6c0,0,0,0,0,0c-0.3,0.1-0.6,0.2-0.9,0.3c-6.5,2.6-11.6,10.4-14.9,22.3
																			c-0.9,3.3-1.8,6.6-2.7,9.7c-0.1,0.3-0.2,0.7-0.3,1c-0.2,0.7-0.4,1.4-0.6,2.1l0,0c-0.1,0.3-0.1,0.5-0.2,0.7
																			c-0.7,2.5-1.3,4.9-2,7.3c0,0,0,0,0,0c-0.1,0.3-0.1,0.5-0.2,0.8c0,0,0,0,0,0c0,0.1-0.1,0.3-0.1,0.4l-0.4,1.4
																			c-2.2,8.6-4.1,16.8-5.3,25.1c-0.2,1.7-0.5,3.5-0.7,5.2c0,0.4-0.1,0.9-0.1,1.4c0,0.1,0,0.2,0,0.3
																			c0,0.2,0,0.4-0.1,0.6c0,0.1,0,0.2,0,0.3c-0.3,3.1-0.7,7.5-1.1,12.3c0,0.3,0,0.5-0.1,0.8
																			C80.9,174.4,80.1,187.7,80.7,193.6z"/>
																	</g>
																</g>
															</g>
														</g>
													</g>
												</g>
											</g>
										</g>
									</g>
								</g>
							</g>
						</g>
						<g>
							<g>
								<g>
									<g>
										<g>
											<g>
												<path class="st2" d="M141.7,83.6c-8-1.7-12.3-11.7-12.5-12.1c-0.1-0.3,0-0.6,0.3-0.7c0.3-0.1,0.6,0,0.8,0.3
													c0,0.1,4.4,10.3,12.1,11.5c7.6,1.2,10.6-4.4,10.7-4.6c0.1-0.3,0.5-0.4,0.8-0.2c0.3,0.1,0.4,0.5,0.2,0.8
													c0,0.1-3.5,6.6-11.9,5.2C142,83.7,141.9,83.6,141.7,83.6z"/>
											</g>
										</g>
									</g>
								</g>
							</g>
						</g>
						<g>
							<g>
								<g>
									<path class="st2" d="M133.6,190c-7.5-1.6-15.3-5.4-23.1-11.5c-10.7-8.3-17.7-18-17.7-18.1c-0.2-0.3-0.1-0.6,0.1-0.8
										c0.3-0.2,0.6-0.1,0.8,0.1c0.1,0.1,7,9.6,17.5,17.9c9.7,7.5,24.4,15.5,40,10.5c0.3-0.1,0.6,0.1,0.7,0.4
										c0.1,0.3-0.1,0.6-0.4,0.7C145.8,191.1,139.8,191.3,133.6,190z"/>
								</g>
							</g>
						</g>
						<g>
							<g>
								<g>
									<g>
										<g>
											<g>
												<path class="st2" d="M138.1,184.3C138.1,184.3,138.1,184.3,138.1,184.3c-11.7-2.7-18-20.3-18.3-21.1
													c-0.1-0.3,0.1-0.6,0.4-0.7c0.3-0.1,0.6,0.1,0.7,0.4c0.1,0.2,6.3,17.8,17.4,20.4c0.3,0.1,0.5,0.4,0.4,0.7
													C138.7,184.2,138.4,184.4,138.1,184.3z"/>
											</g>
										</g>
									</g>
								</g>
							</g>
						</g>
						<g>
							<g>
								<g>
									<g>
										<g>
											<g>
												<g>
													<path class="st2" d="M159.7,156.3c-1.5-1-2.8-2.2-3.9-3.6c-2.6-3.4-3-6.9-1-9.8c0.4-0.6,0.8-1.1,1.1-1.6
														c4-5.9,4.4-6.5,4.1-16.2c-0.1-3,0.7-5.4,2.5-7.1c1.2-1.1,2.7-1.8,4.1-2.2c-0.1,0.3-0.2,0.6-0.3,0.9
														c-1.2,0.4-2.4,0.9-3.3,1.8c-1.6,1.5-2.4,3.7-2.3,6.5c0.4,9.9-0.2,10.7-4.2,16.6c-0.3,0.5-0.7,1-1.1,1.6
														c-2.4,3.5-0.4,7.1,1,8.9c0.9,1.2,2.1,2.3,3.3,3.2l0,0C159.7,155.7,159.7,156,159.7,156.3z"/>
												</g>
											</g>
										</g>
									</g>
								</g>
							</g>
							<g>
								<g>
									<g>
										<g>
											<g>
												<g>
													<path class="st2" d="M83,150.1c1.6,0.9,3.1,1.5,4.5,1.8c3.9,0.8,7.3-0.4,9.4-2.5c2.6-2.6,3.6-7.1,0.5-10.6
														c-3-3.4-1.7-5.2-0.1-7.5c1.6-2.3,3.6-5.1,1.5-10c-1.2-2.9-3-4.8-5.4-5.8c-1.2-0.5-2.4-0.7-3.6-0.7
														c-0.1,0.3-0.1,0.5-0.2,0.8c1.1,0,2.3,0.2,3.5,0.7c2.2,0.9,3.9,2.7,5,5.4c1.9,4.6,0.2,7-1.4,9.3
														c-1.7,2.4-3.3,4.6,0.1,8.5c2.5,2.8,2.3,6.8-0.5,9.6c-2.8,2.8-7.8,3.8-13.3,0.5c0,0.2,0,0.4-0.1,0.6
														C83.1,149.9,83,150,83,150.1z"/>
												</g>
											</g>
										</g>
									</g>
								</g>
							</g>
							<g>
								<g>
									<g>
										<g>
											<g>
												<g>
													<path class="st2" d="M131.6,139.8c-5-4.8-3.4-8.5-1.6-12.8c1.7-4.1,3.7-8.8,0.4-15.2c-0.1-0.1-0.1-0.3-0.2-0.4
														c-1.3-2.4-3.9-3.7-6.6-3.1c-2.7,0.6-4.6,2.7-4.8,5.4c-0.4,4.6-2.7,10.3-6.6,16.5c-2.6,4.2-3.2,8.7-1.5,13.1
														c2.2,5.8,7.8,10.7,12.7,12.8c0.6,0.3,1.2,0.5,1.8,0.7c3.8,1.1,8-0.5,9.9-3.8C137.5,149.1,136.2,144.2,131.6,139.8z
														 M134.6,152.6c-1.8,3-5.6,4.5-9.1,3.4c-5.1-1.5-11.7-6.7-14-13c-1.6-4.3-1.1-8.5,1.4-12.5c1.8-2.8,3.2-5.5,4.3-8
														c1.4-3.2,2.2-6.1,2.4-8.8c0.2-2.4,1.8-4.3,4.2-4.8c1.1-0.2,2.2-0.1,3.2,0.3c1.1,0.5,2,1.3,2.6,2.4
														c0.1,0.1,0.1,0.3,0.2,0.4c3.1,6.1,1.3,10.4-0.4,14.6c-1.8,4.4-3.6,8.5,1.8,13.7C135.4,144.5,136.7,149.1,134.6,152.6z"
														/>
												</g>
											</g>
										</g>
									</g>
								</g>
							</g>
							<g>
								<g>
									<g>
										<g>
											<g>
												<g>
													<path class="st2" d="M158.8,110.1c-4.5-1.9-7.7-6.2-7.7-8.7c0-0.7,0.3-1.2,1-1.4c5.6-2,7.9-5.7,8.7-13.9
														c0.2-2,1-3.5,2.3-4.5c0.1,0,0.1-0.1,0.2-0.1c-0.2-0.1-0.5-0.3-0.7-0.4c-1.5,1.1-2.3,2.8-2.5,4.9
														c-0.8,7.9-2.9,11.4-8.2,13.3c-0.9,0.3-1.4,1.1-1.5,2.1c-0.1,2.7,3.2,7.3,8.1,9.4c0.7,0.3,1.6,0.6,2.6,0.8
														c2,0.4,4.4,0.5,7.1-0.6c0.1-0.3,0.2-0.7,0.3-1C164.5,111.9,160.9,111,158.8,110.1z"/>
												</g>
											</g>
										</g>
									</g>
								</g>
							</g>
							<g>
								<g>
									<g>
										<g>
											<g>
												<g>
													<path class="st2" d="M140.7,94.3c-1.3-2.6-3.8-4.3-6.6-4.6c-2.4-0.2-4.2,0.7-5.1,2.6c-1.3,2.5,0.3,4,1.9,5.4
														c1.7,1.6,3.6,3.3,2.6,6.8c-0.9,3.3,0,6.1,2.4,7.5c0.5,0.3,1,0.4,1.5,0.6c1.5,0.3,3-0.1,4-1.1
														C145.1,107.3,143,98.7,140.7,94.3z M140.8,110.8c-1,1.1-2.9,1.3-4.5,0.4c-2.1-1.2-2.9-3.6-2-6.6
														c1.1-3.9-1.1-5.9-2.8-7.5c-1.6-1.4-2.7-2.5-1.7-4.5c0.8-1.6,2.3-2.4,4.4-2.2c0.3,0,0.5,0.1,0.8,0.1
														c2.2,0.5,4.1,2,5.2,4.1C142.2,98.9,144.3,107,140.8,110.8z"/>
												</g>
											</g>
										</g>
									</g>
								</g>
							</g>
							<g>
								<g>
									<g>
										<g>
											<g>
												<g>
													<path class="st2" d="M152.6,128.2c-0.6-4.3-4-7.7-8.3-8c-2.5-0.2-4.2,0.7-5,2.6c-1,2.7,0.8,4.6,2.6,6.5
														c2.1,2.2,4.1,4.3,1.8,7.6c-2,2.8-2.4,5.2-1.1,6.6c0.4,0.4,1,0.7,1.6,0.9c1.5,0.3,3.6-0.2,5.7-1.4
														c1.4-0.8,2.2-2.5,2.6-4.5C153.2,135.4,153,131.5,152.6,128.2z M149.6,142.2c-2.7,1.6-5.3,1.8-6.4,0.7
														c-1-1-0.5-3.1,1.2-5.6c2.6-3.8,0.2-6.3-1.9-8.6c-1.7-1.8-3.3-3.5-2.4-5.7c0.6-1.6,2-2.3,4.2-2.1c0.3,0,0.6,0.1,0.9,0.1
														c1.7,0.4,3.2,1.3,4.4,2.5c1.2,1.3,2,2.9,2.2,4.7C152.8,135.9,152,140.8,149.6,142.2z"/>
												</g>
											</g>
										</g>
									</g>
								</g>
							</g>
							<g>
								<g>
									<g>
										<g>
											<g>
												<g>
													<path class="st2" d="M158.9,171.9c-3.5-1.1-4.8,0.8-6.3,3c-1.3,2-2.8,4.2-6.3,5c-4.2,1-7.9-1.7-9.4-4.9
														c-1.1-2.4-1.3-5.7,1.6-7.9c1.4-1,2.1-2,2.2-3.1c0.2-1.5-0.8-2.9-1.9-4.2c-1.3-1.7-2.6-3.3-1.6-5.3
														c0.8-1.7,2.3-2.7,4.2-2.8c0.7,0,1.4,0,2.1,0.2c2.8,0.6,5.7,2.7,7.7,5.8c2.5,3.8,5.6,5.4,8,6.1c0-0.3,0-0.5,0-0.8
														c-2.2-0.7-5.1-2.2-7.4-5.7c-2.7-4.1-6.8-6.6-10.5-6.3c-2.2,0.2-3.9,1.3-4.8,3.3c-1.2,2.5,0.4,4.4,1.7,6.1
														c1,1.2,1.9,2.4,1.7,3.6c-0.1,0.8-0.7,1.7-1.9,2.6c-2.7,2.1-3.4,5.4-1.8,8.8c1.2,2.5,3.6,4.8,6.6,5.4
														c1.1,0.2,2.4,0.2,3.6,0c3.7-0.9,5.4-3.4,6.7-5.3c1.5-2.2,2.5-3.8,5.6-2.7C158.9,172.5,158.9,172.2,158.9,171.9z"/>
												</g>
											</g>
										</g>
									</g>
								</g>
							</g>
							<g>
								<g>
									<g>
										<g>
											<g>
												<g>
													<path class="st2" d="M120,163.4c0-0.2,0.3-3.9-1.9-6.1c-1.1-1.1-2.7-1.7-4.6-1.5c-3.9,0.2-5.6-1.1-7.6-2.6
														c-1.3-1-2.8-2.2-5-2.9c-3.1-1-5.5,0.9-6.4,3.1c-1,2.5-0.4,5.9,3.2,7.5c3.2,1.5,5.8,1.1,7.8,0.8
														c2.1-0.3,3.6-0.5,5.1,1.2c1.5,1.7,3.3,2.8,4.9,3.2c0.7,0.2,1.4,0.2,2.1,0C118.9,165.7,119.7,164.8,120,163.4
														C120,163.5,120,163.4,120,163.4z M117.5,165.3c-1.7,0.5-4.3-0.7-6.2-2.9c-0.8-0.9-1.7-1.4-2.5-1.6
														c-1-0.2-2.1-0.1-3.3,0.1c-2,0.3-4.4,0.6-7.4-0.8c-3.1-1.4-3.7-4.4-2.8-6.5c0.7-1.9,2.8-3.6,5.4-2.7
														c2.1,0.7,3.5,1.8,4.8,2.8c2,1.6,3.9,3,8.1,2.8c1.7-0.1,3.1,0.3,4,1.3c1.8,1.9,1.7,5.2,1.6,5.5
														C119,164.4,118.4,165.1,117.5,165.3z"/>
												</g>
											</g>
										</g>
									</g>
								</g>
							</g>
							<g>
								<g>
									<g>
										<g>
											<g>
												<g>
													<path class="st2" d="M87.8,176.3c1.9-1.2,4.2-2.7,3.9-6.8c-0.2-2-1-3.6-2.4-4.8c-2.1-1.7-5.1-2.2-7.3-2.3
														c0,0.3,0,0.5-0.1,0.8c0.9,0,1.9,0.1,2.9,0.3c1.4,0.3,2.8,0.8,4,1.7c1.3,1,2,2.5,2.2,4.3c0.3,3.6-1.6,4.9-3.5,6.1
														c-2,1.3-4,2.6-1.5,6.6c2.4,4,1.4,8.4-0.9,10.4c-1.2,1-2.7,1.3-4.2,1c0,0.2,0,0.4,0.1,0.6c0.1,0.1,0.2,0.2,0.3,0.2
														c1.6,0.2,3.1-0.2,4.3-1.2c2.6-2.2,3.7-7,1.1-11.3C84.4,178.5,85.8,177.6,87.8,176.3z"/>
												</g>
											</g>
										</g>
									</g>
								</g>
							</g>
							<g>
								<g>
									<g>
										<g>
											<g>
												<g>
													<path class="st2" d="M147.8,200.4c-1.6-1.6-4-2.2-7.1-1.9c-4,0.4-5.9,2.2-7.4,3.6c-2.2,2-3.5,3.2-10-1
														c-6.9-4.5-12.6-4-15-1.6c-1.8,1.8-1.8,4.5-0.3,7.5c0.3,0.1,0.7,0.2,1,0.2c-1.7-2.9-1.8-5.5-0.2-7.2
														c1.3-1.4,3.8-2,7.1-1.3c2,0.4,4.4,1.4,6.9,3c6.6,4.3,8.4,3.2,10.9,0.9c1.5-1.4,3.2-2.9,7-3.4c2.8-0.3,5,0.2,6.5,1.7
														c1.7,1.7,2,4.2,2.1,5.4c0.3-0.1,0.5-0.2,0.8-0.2C150,204.7,149.6,202.2,147.8,200.4z"/>
												</g>
											</g>
										</g>
									</g>
								</g>
							</g>
							<g>
								<g>
									<g>
										<g>
											<g>
												<g>
													<path class="st2" d="M105.7,189.7c-2.2-1.5-1.9-2.2-1.2-3.6c0.6-1.2,1.4-2.8,1-5.4c-0.2-1.5-0.9-2.6-2-3.4
														c-2.6-1.8-6.9-0.8-7.1-0.7c0,0,0,0-0.1,0c-3.8,1.8-4.2,5.8-4.1,10c0.2,5.4,2.8,9,7.3,10.3c0.1,0,0.3,0.1,0.4,0.1
														c3,0.6,6.1-1.1,7.1-3.1C107.8,192.3,107.3,190.8,105.7,189.7z M106.4,193.5c-0.9,1.8-3.9,3.4-6.6,2.6
														c-5.3-1.5-6.6-6-6.7-9.6c-0.2-5.3,0.8-7.9,3.6-9.2c0.4-0.1,4.2-0.9,6.4,0.6c0.9,0.6,1.5,1.6,1.6,2.8
														c0.3,2.4-0.4,3.8-1,5c-0.8,1.7-1.2,2.8,1.4,4.6C106.6,191.2,107,192.3,106.4,193.5z"/>
												</g>
											</g>
										</g>
									</g>
								</g>
							</g>
							<g>
								<g>
									<g>
										<g>
											<g>
												<g>
													<path class="st2" d="M155.7,203.7c-1.5-1.7-2.1-3.6-1.8-5.5c0.4-2.9,2.8-5.4,4.5-7c0-0.3,0-0.7,0-1
														c-1.9,1.6-4.8,4.5-5.3,7.9c-0.3,2.1,0.3,4.2,1.9,6C155.3,204,155.5,203.9,155.7,203.7
														C155.7,203.7,155.7,203.7,155.7,203.7z"/>
												</g>
											</g>
										</g>
									</g>
								</g>
							</g>
						</g>
					</g>
					<g>
						<g>
							<g>
								<path class="st7" d="M170.5,37.4c0,0,11.4-2.4,11.6-6.7c0.2-4-4.5-3.6-4.5-3.6s5.5-9,2.4-10.8c-3.2-1.8-7.1,3.3-7.1,3.3
									s2.9-10.7-1-9.9c-3.9,0.8-4.4,6.7-4.4,6.7s-12.8-4.6-20.1-2.4c-5,1.5-6.1,6.3-6.1,6.3s-3-1.8-5.1-0.7
									c-2.1,1.1-0.2,4.8-0.2,4.8s-3.2,2.5-2.2,6.4c1,4,3.8,11.8,3.8,11.8L170.5,37.4z"/>
							</g>
							<g>
								<g>
									<g>
										<g>
											<g>
												<g>
													<g>
														<g>
															<path class="st1" d="M154.5,68.9l-1.1,5.2c-0.7,0.4-1.4,0.7-2.1,0.9c-10.2,3.5-18.6-5.3-18.6-5.3l3.8-18.1l15.8,15.2
																L154.5,68.9z"/>
														</g>
													</g>
												</g>
											</g>
										</g>
									</g>
								</g>
								<g>
									<g>
										<g>
											<g>
												<g>
													<g>
														<g>
															<g>
																<path class="st7" d="M154.5,68.9l-1.1,5.2c-0.7,0.4-1.4,0.7-2.1,0.9c-7.1-4.7-11-14-11-14l12.1,5.8L154.5,68.9z"/>
															</g>
														</g>
													</g>
												</g>
											</g>
										</g>
									</g>
								</g>
							</g>
							<g>
								<g>
									<g>
										<g>
											<g>
												<g>
													<g>
														<g>
															<g>
																<path class="st7" d="M164.5,26.6c0,0,12.4,3.8,5,16.1C169.5,42.7,163.5,30,164.5,26.6z"/>
															</g>
														</g>
													</g>
												</g>
											</g>
										</g>
									</g>
								</g>
								<g>
									<g>
										<g>
											<g>
												<g>
													<g>
														<g>
															<g>
																<path class="st3" d="M165.8,47.1c0,0,3.7-2.9,4.6,1c0.9,3.9-1.8,10.7-6.1,8.6L165.8,47.1z"/>
															</g>
														</g>
													</g>
												</g>
											</g>
										</g>
									</g>
								</g>
								<g>
									<g>
										<g>
											<g>
												<g>
													<g>
														<g>
															<g>
																<path class="st1" d="M166.4,60.1c0,0-2.3,10.8-13.5,8.4c-11.1-2.4-16.9-12.7-17.2-13.2c0,0,0,0,0,0l0.4-2.3
																	l1.8-11.9l1-6.4c0,0,1-11.6,12.2-11.4c8.2,0.1,15.3,3,18.1,7.9c1.1,1.8,1.5,3.9,1.3,6.2l-2,11.4l-0.5,2.8
																	L166.4,60.1z"/>
															</g>
														</g>
													</g>
												</g>
											</g>
										</g>
									</g>
								</g>
								<g>
									<g>
										<g>
											<path class="st7" d="M143.5,42.5c0,0,1.7,6.6,5.3,6.3c3.7-0.3,7.7,0.1,10.5,2.2c0,0,5.7-0.8,8.3,2
												c1.8,1.9-2.4,15.9-10.2,16.5c-7.8,0.5-17.2-4.2-18.1-11.6c-0.9-7.5,0.5-13.3,0.5-13.3L143.5,42.5z"/>
										</g>
									</g>
								</g>
								<g>
									<g>
										<path class="st6" d="M161.7,54.1c0,0-6.3-0.6-9.4-2.4c0,0-1.4,6.2,4,6.7C160.5,58.9,161.7,54.1,161.7,54.1z"/>
									</g>
								</g>
								<g>
									<g>
										<g>
											<g>
												<g>
													<g>
														<g>
															<g>
																<g>
																	<path class="st3" d="M153.5,47c-0.2,0.8-1.9,1.1-3.9,0.7c-2-0.4-3.5-1.4-3.3-2.2c0.2-0.8,1.9-1.1,3.9-0.7
																		C152.2,45.3,153.7,46.3,153.5,47z"/>
																</g>
															</g>
														</g>
													</g>
												</g>
											</g>
										</g>
									</g>
								</g>
								<g>
									<g>
										<g>
											<g>
												<g>
													<g>
														<g>
															<g>
																<g>
																	<path class="st3" d="M167.9,51.5c-0.3,0-0.6-0.1-0.9-0.1c-2-0.4-3.5-1.4-3.3-2.2c0.2-0.8,1.9-1.1,3.9-0.7
																		c0.3,0.1,0.5,0.1,0.8,0.2L167.9,51.5z"/>
																</g>
															</g>
														</g>
													</g>
												</g>
											</g>
										</g>
									</g>
								</g>
								<g>
									<g>
										<g>
											<g>
												<g>
													<g>
														<g>
															<g>
																<g>
																	<path class="st7" d="M154.3,42.7c-0.2,1.1-0.9,1.8-1.5,1.7c-0.6-0.1-0.9-1.1-0.7-2.2c0.2-1.1,0.9-1.8,1.5-1.7
																		C154.2,40.6,154.5,41.6,154.3,42.7z"/>
																</g>
															</g>
														</g>
													</g>
												</g>
											</g>
										</g>
									</g>
									<g>
										<g>
											<g>
												<g>
													<g>
														<g>
															<g>
																<g>
																	<path class="st7" d="M165,44.9c-0.2,1.1-0.9,1.8-1.5,1.7c-0.6-0.1-0.9-1.1-0.7-2.2c0.2-1.1,0.9-1.8,1.5-1.7
																		C164.9,42.9,165.2,43.9,165,44.9z"/>
																</g>
															</g>
														</g>
													</g>
												</g>
											</g>
										</g>
									</g>
									<g>
										<g>
											<g>
												<g>
													<g>
														<g>
															<g>
																<g>
																	<path class="st7" d="M158.4,49.2c-0.2-0.1-0.4-0.3-0.4-0.5c0.1-0.2,0.3-0.4,0.5-0.4c1.6,0.3,2.6-0.4,2.9-0.7
																		c-1-4-2-8.1-2-8.1c-0.1-0.2,0.1-0.5,0.3-0.5c0.2-0.1,0.5,0.1,0.5,0.3c0,0,1,4.2,2.1,8.3c0,0.1,0,0.3-0.1,0.4
																		C162.3,48.1,161,49.8,158.4,49.2z"/>
																</g>
															</g>
														</g>
													</g>
												</g>
											</g>
										</g>
									</g>
									<g>
										<g>
											<g>
												<g>
													<g>
														<g>
															<g>
																<g>
																	<path class="st7" d="M150,36.6c0.5-1.1,1.9-3,5.6-2.4c0.4,0.1,0.8,0.5,0.8,0.9l0,0c0,0.6-0.4,1.1-1,1
																		c-1,0-2.5,0.2-3.6,1.6c-0.4,0.4-1,0.5-1.4,0.1l-0.1-0.1C149.9,37.4,149.8,37,150,36.6z"/>
																</g>
															</g>
														</g>
													</g>
												</g>
											</g>
										</g>
									</g>
									<g>
										<g>
											<g>
												<g>
													<g>
														<g>
															<g>
																<g>
																	<path class="st7" d="M168.6,40.5c0-1.2-0.5-3.5-4.1-4.5c-0.4-0.1-0.9,0.1-1.1,0.5l0,0c-0.3,0.5,0,1.1,0.5,1.3
																		c0.9,0.4,2.2,1.2,2.7,2.9c0.1,0.5,0.7,0.8,1.3,0.6l0.1,0C168.4,41.3,168.6,41,168.6,40.5z"/>
																</g>
															</g>
														</g>
													</g>
												</g>
											</g>
										</g>
									</g>
								</g>
								<g>
									<g>
										<g>
											<g>
												<g>
													<g>
														<g>
															<g>
																<path class="st7" d="M140.2,51.6c-0.1,0.1-2.2,3.1-4.4,3.6c0,0,0,0,0,0l0.4-2.3C136.1,52.9,137.9,53,140.2,51.6z"/>
															</g>
														</g>
													</g>
												</g>
											</g>
										</g>
									</g>
								</g>
								<g>
									<g>
										<g>
											<g>
												<g>
													<g>
														<g>
															<g>
																<path class="st1" d="M139.8,43.7c0,0-3.1-6.7-7.2-2.8c-3.4,3.2-0.5,14,5.3,11.7L139.8,43.7z"/>
															</g>
														</g>
													</g>
												</g>
											</g>
										</g>
									</g>
								</g>
								<g>
									<g>
										<g>
											<g>
												<g>
													<g>
														<g>
															<g>
																<path class="st7" d="M137.7,50.8c-0.2,0-0.4-0.3-0.4-0.5c0.4-4.5-2.9-6.8-3-6.9c-0.2-0.1-0.3-0.4-0.1-0.6
																	c0.1-0.2,0.4-0.3,0.6-0.1c0.2,0.1,3.9,2.7,3.4,7.7C138.2,50.6,138,50.8,137.7,50.8
																	C137.7,50.8,137.7,50.8,137.7,50.8z"/>
															</g>
														</g>
													</g>
												</g>
											</g>
										</g>
									</g>
								</g>
								<g>
									<g>
										<g>
											<g>
												<g>
													<g>
														<g>
															<g>
																<path class="st7" d="M134.1,47.2c-0.1,0-0.2-0.1-0.3-0.2c-0.1-0.2,0-0.5,0.2-0.6c0.2-0.1,2.1-1,3.3-0.4
																	c0.2,0.1,0.3,0.4,0.2,0.6c-0.1,0.2-0.4,0.3-0.6,0.2c-0.7-0.4-2.1,0.2-2.5,0.4C134.3,47.2,134.2,47.2,134.1,47.2z"/>
															</g>
														</g>
													</g>
												</g>
											</g>
										</g>
									</g>
								</g>
							</g>
							<g>
								<g>
									<g>
										<g>
											<g>
												<g>
													<path class="st7" d="M169.2,31.2c-0.2,0.4-0.4,0.7-0.7,0.9c-2.7,1.8-7.6-0.1-12.1-2.6c-4.5-2.5-8.5,0.3-8.5,0.3
														c0.4,4.8-4.2,4.3-4,7.9c0.2,3.7-1.1,8.2-1.1,8.2l-2.7-1c-0.3-1.8-1.4-3.1-2.1-3.8l1-6.4c0,0,1-11.6,12.2-11.4
														C159.3,23.4,166.4,26.3,169.2,31.2z"/>
												</g>
											</g>
										</g>
									</g>
								</g>
							</g>
						</g>
					</g>
				</g>
				<g>
					<g>
						<g>
							<g>
								<path class="st7" d="M85.7,184.1c0,0-10.7,42.1,44.7,42.1c29.6,0,43.6-2.9,43.6-2.9s0.7,26.1,2.1,37.1
									c1.4,11,6.3,38.5,6.3,38.5l23.3,1.8c0,0,3.7-95.6-10.6-104.4c-14.3-8.8-34.8-9.1-70-12.4C125,183.9,93.4,178.6,85.7,184.1z"
									/>
							</g>
						</g>
					</g>
				</g>
				<g>
					<g>
						<g>
							<path class="st8" d="M185.5,291.3c0,0,0.1,0,0.1,0c0.3-0.1,0.6-0.4,0.5-0.8c-3.2-13.4-4.5-32.7-5.5-48.2
								c-1-15.3-1.6-23.3-3.2-24.7c-1.7-1.5-6.9-1-15.5-0.1c-10.6,1.1-26.7,2.8-44.1,0.9c-8.6-1-15.2-4.4-19.6-10
								c-7.9-10.2-6.1-24.4-6.1-24.6c0-0.3-0.2-0.7-0.5-0.7c-0.3,0-0.7,0.2-0.7,0.5c-0.1,0.6-1.9,14.9,6.3,25.5
								c4.6,6,11.5,9.5,20.5,10.5c17.5,2,33.7,0.3,44.4-0.9c7.4-0.8,13.2-1.4,14.6-0.2c0.3,0.3,0.9,1.6,1.5,7.4
								c0.5,4.3,0.8,9.9,1.3,16.5c1,15.5,2.3,34.9,5.6,48.4C185,291.2,185.2,291.3,185.5,291.3z"/>
						</g>
					</g>
				</g>
				<g>
					<g>
						<g>
							<path class="st8" d="M205.4,293.2c0.3,0,0.6-0.3,0.6-0.6c0-0.3-0.2-0.6-0.6-0.7l-23.8-1.4c-0.4,0-0.6,0.2-0.7,0.6
								c0,0.3,0.2,0.6,0.6,0.7L205.4,293.2C205.3,293.2,205.3,293.2,205.4,293.2z"/>
						</g>
					</g>
				</g>
				<g>
					<g>
						<g>
							<g>
								<path class="st0" d="M141.3,196.2h69.8c0.2,0,0.3-0.1,0.3-0.3v-8.6c0-0.2-0.1-0.3-0.3-0.3h-69.8c-0.2,0-0.3,0.1-0.3,0.3v8.6
									C141,196,141.1,196.2,141.3,196.2z"/>
							</g>
						</g>
					</g>
					<g>
						<g>
							<g>
								<g>
									<path class="st6" d="M218.7,196.2c2.6,0,5-1.8,5.6-4.3l13.2-49.3c0.8-3-1.5-6-4.6-6h-31.5c-2.1,0-4,1.4-4.6,3.5l-15.8,56.1
										H218.7z"/>
								</g>
							</g>
						</g>
					</g>
					<g>
						<g>
							<g>
								<path class="st0" d="M196.8,140.1l-15.6,55.6h-3.6l15.6-55.6c0.6-2,2.4-3.5,4.6-3.5h3.6C199.3,136.6,197.4,138,196.8,140.1z
									"/>
							</g>
						</g>
					</g>
					<g>
						<g>
							<g>
								<path class="st0" d="M205.7,167.2c-0.7,3.1,1.2,5.6,4.3,5.6c3.1,0,6.2-2.5,6.9-5.6c0.7-3.1-1.2-5.6-4.3-5.6
									S206.5,164.1,205.7,167.2z"/>
							</g>
						</g>
					</g>
				</g>
				<g>
					<g>
						<g>
							<g>
								<path class="st1" d="M162.8,176.1c0,0,14.3,1,18.8,5.3l-2.8,9.9c0,0-8.5-3.5-10.9-3.2c-2.4,0.3-3.8,4.2-11.7,1.9
									L162.8,176.1z"/>
							</g>
						</g>
					</g>
				</g>
				<g>
					<g>
						<path class="st1" d="M162.7,175.4l-1.6-0.7l-1.7-0.7c-1.1-0.5-2.2-1-3.3-1.5c-2.2-1-4.4-2-6.6-3.1c-4.4-2.1-8.7-4.3-12.9-6.7
							c-4.2-2.4-8.2-4.9-11.8-7.6c-0.9-0.7-1.8-1.4-2.7-2.1c-0.9-0.7-1.7-1.4-2.5-2.1c-1.6-1.4-3-2.9-4.1-4.3
							c-0.6-0.7-1.1-1.4-1.4-2c-0.3-0.6-0.6-1.2-0.9-1.9c-0.6-1.4-1-3.1-1.3-4.9c-0.6-3.7-0.6-7.9-0.2-12.3
							c0.4-4.4,1.1-8.9,2.2-13.3c0.5-2.2,1.1-4.5,1.7-6.7c0.3-1.1,0.6-2.2,1-3.3c0.2-0.5,0.3-1.1,0.5-1.6l0.3-0.8l0.1-0.4l0.1-0.2
							l0-0.1l0,0c3-6.3,0.4-13.8-5.9-16.8c-6.3-3-13.8-0.4-16.8,5.9c-0.3,0.6-0.5,1.2-0.7,1.9l-0.4,1.3l-0.1,0.3l-0.1,0.3l-0.1,0.5
							l-0.3,1c-0.2,0.7-0.3,1.4-0.5,2c-0.3,1.3-0.6,2.7-0.9,4c-0.6,2.7-1,5.4-1.4,8.1c-0.8,5.4-1.4,11-1.4,16.7
							c0,2.9,0.1,5.8,0.3,8.7c0.3,3,0.7,6,1.5,9.1c0.8,3.1,1.8,6.3,3.4,9.4c0.8,1.6,1.7,3.1,2.8,4.7c1.1,1.5,2.1,2.7,3.2,3.9
							c2.2,2.4,4.5,4.3,6.8,6.1c2.3,1.8,4.6,3.4,7,4.8c4.7,2.9,9.5,5.4,14.2,7.7c4.8,2.3,9.6,4.3,14.5,6.3c2.4,1,4.9,1.9,7.3,2.7
							c1.2,0.4,2.5,0.9,3.7,1.3l1.9,0.6l1.9,0.6c4.2,1.4,8.8-1,10.1-5.2c1.3-4-0.7-8.3-4.6-9.9L162.7,175.4z"/>
					</g>
					<g>
						<path class="st3" d="M104.3,148.3c0,0,0.1,0,0.1,0c4.9-1.5,10.3-1.2,10.4-1.2c0.3,0,0.5-0.2,0.5-0.5c0-0.3-0.2-0.5-0.5-0.5
							c-0.2,0-5.7-0.2-10.7,1.3c-0.3,0.1-0.4,0.4-0.3,0.6C103.9,148.2,104.1,148.3,104.3,148.3z"/>
					</g>
					<g>
						<path class="st3" d="M113.6,147.1c0.1,0,0.3-0.1,0.4-0.2c0.2-0.2,0.2-0.5-0.1-0.7c-1.8-1.6-4.1-2.3-4.2-2.3
							c-0.3-0.1-0.5,0.1-0.6,0.3c-0.1,0.3,0.1,0.5,0.3,0.6c0,0,2.2,0.7,3.8,2.1C113.3,147,113.4,147.1,113.6,147.1z"/>
					</g>
					<g>
						<g>
							<path class="st9" d="M86.5,116.5l10.3,2.8l0.8,0.2l7.1,2l0.9,0.2l9.2,2.5l0.7-3.3l0.2-0.8l1.7-7.7l0.2-0.8l3.1-14.5
								c0.8-3.3,1.4-7.5,0.9-10.9c-0.7-5-5.1-11.6-13.3-12c-1.5-0.1-2.8,0.1-4.1,0.6c-0.3,0.1-0.5,0.2-0.8,0.3
								c-2.5,1.1-4.6,3.2-6.5,5.8c-0.2,0.2-0.3,0.4-0.4,0.6c-3.5,5.3-5.9,12.8-7.5,19.7c-0.1,0.3-0.1,0.5-0.2,0.8
								c-0.7,3.3-1.3,6.5-1.7,9.3c-0.1,0.4-0.1,0.8-0.2,1.3C86.8,114.2,86.6,115.4,86.5,116.5z"/>
						</g>
					</g>
					<g>
						<g>
							<g>
								<g>
									<g>
										<g>
											<path class="st2" d="M87,112.8c1.2-1.4,2.7-2.4,5.5-1.9c3.4,0.6,6.1-0.5,7.2-3.1c0.2-0.5,0.3-1,0.4-1.5
												c0.2-1.5-0.3-3-1.4-3.9c-2.5-1.9-6.1-1.8-9.6-0.9c-0.1,0.3-0.1,0.5-0.2,0.8c3.4-0.9,7-1.1,9.3,0.7
												c1.2,0.9,1.5,2.8,0.8,4.5c-1,2.2-3.3,3.2-6.4,2.6c-2.6-0.5-4.2,0.3-5.5,1.4C87.1,112,87,112.4,87,112.8z"/>
										</g>
									</g>
								</g>
							</g>
						</g>
					</g>
					<g>
						<g>
							<g>
								<g>
									<g>
										<g>
											<path class="st2" d="M96.8,95.5c0.4,0.4,1,0.7,1.6,0.9c1.5,0.3,3.6-0.2,5.7-1.4c1.4-0.8,2.2-2.5,2.6-4.5
												c0.6-3,0.4-6.9,0-10.2c-0.3-2-1.2-3.9-2.6-5.3c-0.3,0.1-0.5,0.2-0.8,0.3c0.1,0.1,0.3,0.3,0.4,0.4c1.2,1.3,2,2.9,2.2,4.7
												c1,7.5,0.2,12.5-2.2,13.9c-2.7,1.6-5.3,1.8-6.4,0.7c-1-1.1-0.5-3.1,1.2-5.6c2.5-3.6,0.4-6.1-1.6-8.2
												c-0.2,0.2-0.3,0.4-0.4,0.6c1.9,2.1,3.5,4.1,1.4,7.2C96,91.8,95.6,94.1,96.8,95.5z"/>
										</g>
									</g>
								</g>
							</g>
						</g>
					</g>
					<g>
						<g>
							<path class="st2" d="M117.3,111.9c1.7-10.1,3.8-19.6,3.9-19.7c0-0.2,0.2-0.3,0.5-0.3c0.2,0,0.3,0.2,0.3,0.5
								c0,0.1-2.2,9.5-3.9,19.6C118,112.3,117.3,112.4,117.3,111.9z"/>
						</g>
					</g>
					<g>
						<g>
							<path class="st2" d="M120.1,99.7c0.1,0,0.1,0,0.2-0.1l3.9-2.5c0.2-0.1,0.2-0.3,0.1-0.5c-0.1-0.2-0.3-0.2-0.5-0.1l-3.9,2.5
								c-0.2,0.1-0.2,0.3-0.1,0.5C119.8,99.6,119.9,99.7,120.1,99.7z"/>
						</g>
					</g>
				</g>
				<g>
					<g>
						<path class="st6" d="M145.3,100.8c1.3,0,2.5-0.5,3.6-1.4c6.2-5.4,6.1-25.2,6.1-26c0-0.4-0.3-0.7-0.7-0.7c0,0,0,0,0,0
							c-0.4,0-0.7,0.3-0.7,0.7c0,0.2,0,19.9-5.7,24.9c-1,0.9-2,1.2-3.2,1c-7.6-1-11-23.1-11.7-31.5c0-0.4-0.4-0.7-0.8-0.7
							c-0.4,0-0.7,0.4-0.7,0.8c0,0.1,0.7,7.9,2.5,15.7c2.5,10.8,6.1,16.5,10.5,17.1C144.8,100.8,145.1,100.8,145.3,100.8z"/>
					</g>
				</g>
			</g>
			<g>
				<g>
					<g>
						<g>
							<path class="st10" d="M88,285.1h74.8c1.7,0,3.2-1.4,3.2-3.2c0-1.7-1.4-3.2-3.2-3.2H88c-1.7,0-3.2,1.4-3.2,3.2
								C84.8,283.7,86.3,285.1,88,285.1z"/>
						</g>
					</g>
				</g>
				<g>
					<g>
						<g>
							<g>
								<path class="st11" d="M169.7,333.5c0.1,0,0.3,0,0.4,0c1.7-0.2,3-1.8,2.7-3.6l-13.6-101.7c-0.2-1.6-1.6-2.7-3.1-2.7H95
									c-1.6,0-2.9,1.2-3.1,2.8L78.5,329.9c-0.2,1.7,1,3.3,2.7,3.6c1.7,0.2,3.3-1,3.6-2.7l13-99h55.5l13.3,99
									C166.7,332.4,168.1,333.5,169.7,333.5z"/>
							</g>
						</g>
					</g>
				</g>
				<g>
					<g>
						<g>
							<g>
								<path class="st11" d="M138.4,228.6H98.8c-12.6,0-26-6.9-27.9-19.3c-2.6-16.6-3.2-32.6-2.5-47.4c0.8-16.7,7.3-32.1,20.4-42.5
									l0,0c0,0-5.7,64.3-0.6,82.1C95,225.3,138.4,228.6,138.4,228.6z"/>
							</g>
						</g>
					</g>
				</g>
			</g>
		</g>
		<g>
			<g>
				<g>
					<g>
						<path class="st11" d="M259.6,96.2v19c0,2.5-2,4.6-4.6,4.6h-34.5l-10.4,3.7c-1.1,0.4-2.1-0.7-1.7-1.7l3.9-10.2V96.2
							c0-2.5,2-4.6,4.6-4.6h38.1C257.6,91.7,259.6,93.7,259.6,96.2z"/>
					</g>
				</g>
			</g>
			<g>
				<g>
					<g>
						<g>
							<path class="st10" d="M229.6,106.3c0,1.8-1.5,3.3-3.3,3.3c-1.8,0-3.3-1.5-3.3-3.3c0-1.8,1.5-3.3,3.3-3.3
								C228.2,103,229.6,104.5,229.6,106.3z"/>
						</g>
					</g>
				</g>
				<g>
					<g>
						<g>
							<path class="st10" d="M240.1,106.3c0,1.8-1.5,3.3-3.3,3.3c-1.8,0-3.3-1.5-3.3-3.3c0-1.8,1.5-3.3,3.3-3.3
								C238.6,103,240.1,104.5,240.1,106.3z"/>
						</g>
					</g>
				</g>
				<g>
					<g>
						<g>
							<path class="st10" d="M250.5,106.3c0,1.8-1.5,3.3-3.3,3.3c-1.8,0-3.3-1.5-3.3-3.3c0-1.8,1.5-3.3,3.3-3.3
								C249,103,250.5,104.5,250.5,106.3z"/>
						</g>
					</g>
				</g>
			</g>
		</g>
	</g>
</g>
<g>
	<g>
		<g>
			<g>
				<g>
					<g>
						<path class="st11" d="M80.4,42.2h-7.3c-0.7,0-1.2-0.5-1.2-1.2V2.1c0-0.7,0.5-1.2,1.2-1.2h7.3c0.7,0,1.2,0.5,1.2,1.2V41
							C81.5,41.6,81,42.2,80.4,42.2z"/>
					</g>
				</g>
			</g>
			<g>
				<g>
					<g>
						<path class="st10" d="M78.9,23h-4.4c-0.6,0-1.2-0.5-1.2-1.2v-0.5c0-0.6,0.5-1.2,1.2-1.2h4.4c0.6,0,1.2,0.5,1.2,1.2v0.5
							C80.1,22.4,79.6,23,78.9,23z"/>
					</g>
				</g>
			</g>
			<g>
				<g>
					<g>
						<rect x="71.9" y="4.3" class="st10" width="9.7" height="1.6"/>
					</g>
				</g>
			</g>
			<g>
				<g>
					<g>
						<rect x="71.9" y="7.6" class="st10" width="9.7" height="1.6"/>
					</g>
				</g>
			</g>
			<g>
				<g>
					<g>
						<rect x="71.9" y="32.2" class="st10" width="9.7" height="1.6"/>
					</g>
				</g>
			</g>
			<g>
				<g>
					<g>
						<rect x="71.9" y="35.5" class="st10" width="9.7" height="1.6"/>
					</g>
				</g>
			</g>
		</g>
		<g>
			<g>
				<g>
					<g>
						<path class="st12" d="M61.9,42.2h-9.1c-0.2,0-0.3-0.1-0.3-0.3V1.2c0-0.2,0.1-0.3,0.3-0.3h9.1c0.2,0,0.3,0.1,0.3,0.3v40.6
							C62.2,42,62.1,42.2,61.9,42.2z"/>
					</g>
				</g>
			</g>
			<g>
				<g>
					<g>
						<g>
							<path class="st13" d="M59.6,23h-4.4c-0.6,0-1.2-0.5-1.2-1.2v-0.5c0-0.6,0.5-1.2,1.2-1.2h4.4c0.6,0,1.2,0.5,1.2,1.2v0.5
								C60.7,22.4,60.2,23,59.6,23z"/>
						</g>
					</g>
				</g>
			</g>
			<g>
				<g>
					<g>
						<g>
							<rect x="52.5" y="4.3" class="st13" width="9.7" height="1.6"/>
						</g>
					</g>
				</g>
			</g>
			<g>
				<g>
					<g>
						<g>
							<rect x="52.5" y="7.6" class="st13" width="9.7" height="1.6"/>
						</g>
					</g>
				</g>
			</g>
			<g>
				<g>
					<g>
						<g>
							<rect x="52.5" y="32.2" class="st13" width="9.7" height="1.6"/>
						</g>
					</g>
				</g>
			</g>
			<g>
				<g>
					<g>
						<g>
							<rect x="52.5" y="35.5" class="st13" width="9.7" height="1.6"/>
						</g>
					</g>
				</g>
			</g>
		</g>
		<g>
			<g>
				<g>
					<g>
						<path class="st9" d="M70.7,42.2h-7.3c-0.7,0-1.2-0.5-1.2-1.2V2.1c0-0.7,0.5-1.2,1.2-1.2h7.3c0.7,0,1.2,0.5,1.2,1.2V41
							C71.9,41.6,71.3,42.2,70.7,42.2z"/>
					</g>
				</g>
			</g>
			<g>
				<g>
					<g>
						<path class="st2" d="M69.2,23h-4.4c-0.6,0-1.2-0.5-1.2-1.2v-0.5c0-0.6,0.5-1.2,1.2-1.2h4.4c0.6,0,1.2,0.5,1.2,1.2v0.5
							C70.4,22.4,69.9,23,69.2,23z"/>
					</g>
				</g>
			</g>
			<g>
				<g>
					<g>
						<rect x="62.2" y="4.3" class="st2" width="9.7" height="1.6"/>
					</g>
				</g>
			</g>
			<g>
				<g>
					<g>
						<rect x="62.2" y="7.6" class="st2" width="9.7" height="1.6"/>
					</g>
				</g>
			</g>
			<g>
				<g>
					<g>
						<rect x="62.2" y="32.2" class="st2" width="9.7" height="1.6"/>
					</g>
				</g>
			</g>
			<g>
				<g>
					<g>
						<rect x="62.2" y="35.5" class="st2" width="9.7" height="1.6"/>
					</g>
				</g>
			</g>
		</g>
		<g>
			<g>
				<g>
					<g>
						<path class="st4" d="M97.2,40.7l-9,1.4c-0.2,0-0.3-0.1-0.3-0.2L81.5,1.8c0-0.2,0.1-0.3,0.2-0.3l9-1.4C90.8,0,91,0.1,91,0.3
							l6.5,40.1C97.5,40.5,97.4,40.7,97.2,40.7z"/>
					</g>
				</g>
			</g>
			<g>
				<g>
					<g>
						<g>
							<path class="st5" d="M92.8,22l-6.1,1c-0.1,0-0.3-0.1-0.3-0.2L86,20.5c0-0.1,0.1-0.3,0.2-0.3l6.1-1c0.1,0,0.3,0.1,0.3,0.2
								l0.4,2.3C93,21.8,92.9,22,92.8,22z"/>
						</g>
					</g>
				</g>
			</g>
			<g>
				<g>
					<g>
						<g>
							<rect x="82" y="4" transform="matrix(0.9873 -0.1592 0.1592 0.9873 0.3434 13.8862)" class="st5" width="9.7" height="1.6"/>
						</g>
					</g>
				</g>
			</g>
			<g>
				<g>
					<g>
						<g>
							
								<rect x="82.6" y="7.3" transform="matrix(0.9873 -0.1592 0.1592 0.9873 -0.1731 14.0125)" class="st5" width="9.7" height="1.6"/>
						</g>
					</g>
				</g>
			</g>
			<g>
				<g>
					<g>
						<g>
							
								<rect x="86.5" y="31.6" transform="matrix(0.9873 -0.1592 0.1592 0.9873 -3.9851 14.9453)" class="st5" width="9.7" height="1.6"/>
						</g>
					</g>
				</g>
			</g>
			<g>
				<g>
					<g>
						<g>
							
								<rect x="87" y="34.8" transform="matrix(0.9873 -0.1592 0.1592 0.9873 -4.5012 15.0696)" class="st5" width="9.7" height="1.6"/>
						</g>
					</g>
				</g>
			</g>
		</g>
	</g>
	<g>
		<g>
			<g class="st14">
				<g>
					<g>
						<polygon class="st0" points="122.1,53.2 34.5,53.2 32.6,48.1 124.3,48.1 						"/>
					</g>
				</g>
			</g>
			<g>
				<g>
					<g>
						<g>
							<rect x="32.6" y="42.1" class="st7" width="91.7" height="6.1"/>
						</g>
					</g>
				</g>
				<g>
					<g>
						<g>
							<g>
								<g>
									<polygon class="st7" points="42,48.1 44.4,53.3 50.2,53.3 51.8,48.1 									"/>
								</g>
							</g>
						</g>
					</g>
					<g>
						<g>
							<g>
								<polygon class="st7" points="115,48.1 112.5,53.3 106.7,53.3 105.1,48.1 								"/>
							</g>
						</g>
					</g>
				</g>
			</g>
		</g>
	</g>
</g>
<g>
	<g>
		<path class="st15" d="M45.6,230.9c0,0,1-7.6,4.3-12.8c1.5-2.4,2.4-4.3,2.6-5.5c0.1-0.6,0.1-1.1,0.1-0.4c0,2.2-2.2,5.9-1.3,10.1
			c1.1,5.1,1.3,12-0.1,13.8C49.8,237.9,45.6,230.9,45.6,230.9z"/>
		<path class="st16" d="M53.7,244.7c0.8-1.3,2.9-7.4,12.4-12.7c9.5-5.3,11.7-9.1,11.3-12.2c-0.3-3.1,0.6-2.3,0.7,0.7
			c0.1,5.3-9.3,16.7-10.8,22.9c-1.5,6.2-5,28.2-9.1,31.4C54.1,278.1,49.9,250.7,53.7,244.7z"/>
		<path class="st15" d="M22.3,270.1c-0.1-1,1.4-14.9-4.1-21.9c-5.5-7-9.4-8.9-13.4-17.8c-2.7-6.1-3.1-9-3.6-10.5
			c-0.3-0.7-1.4-1.2-1.2-1.2c0.3,0,0.2,0.1,1.5,0.8c4,2,14.2,7.6,17.8,15.6c4.9,10.6,11.9,24.7,11.9,26.7s4.8,16.9,4.8,16.9
			L22.3,270.1z"/>
		<path class="st16" d="M35.2,278.2c-0.7-1.4-6.5-8.5-10.9-22.2c-4.4-13.8-9-12.9-6.2-31c2.8-18.2,6.2-18.2,4.9-24
			c-1.2-5.8,0.1-2.9,0.7,0.7c1,6.1,3.4,12,7.9,18.3c4.6,6.3,7.1,8.6,10.1,16.6c3,7.9,9.3,27.3,2.5,35.4
			C37.3,280.2,35.2,278.2,35.2,278.2z"/>
		<path class="st17" d="M38.3,300.8c0,0-6.9-22.7-4.6-36.9c2.2-14.3,7.8-41.2,7.6-48.6c-0.2-7.4-1.5-9.9-0.7-9.3
			c0.7,0.6-0.2,3.5,3.3,12.2c4.1,10.5,12.4,20.4,13.6,29.9c1.2,9.5,2.1,14.9-0.7,25.6c-2.7,10.7-5.7,21.3-9.6,30.2
			C43.1,312.8,38.3,300.8,38.3,300.8z"/>
		<path class="st16" d="M40.9,295.4c0,0,0.9-13.2-10.8-22.3C18.4,264,17,262.3,17,262.3s3.3,2.4,4.5,7.9c1.2,5.5,0.2,6.9,3.6,14.9
			c3.4,8.1,7.9,6.4,7.7,13.1c-0.2,6.7,1,6.7,3.1,6.9C38,305.2,40.9,302,40.9,295.4z"/>
		<path class="st17" d="M20.7,264.6c-7.8-7.8-4-9.3-6.6-14.2c-2.6-4.8-6.1-7.7-8.4-10.4c-2.3-2.6-2-5-1,0.5c1,5.5-0.3,8.4,3,13
			s5.8,5.5,10.1,9.4c4.3,3.9,7.5,6.3,7.5,6.3S24.2,268.1,20.7,264.6z"/>
		<path class="st15" d="M63,249.7c0,0,2.6-6.4,7.2-10.4c3.5-3,5.2-4.9,6-6.5c0.3-0.5,0.4-1,0.5-1.4c0.1-0.6,0-1,0.1-0.9
			c0.4,0.1-0.4,1.6-0.6,4.6c-0.3,4.5,1.8,7.5-1.2,14.3c-3,6.8-3.9,13.1-10.7,17.3c-6.8,4.1-8.5,5.8-8.1,4.6
			C56.7,270,63,249.7,63,249.7z"/>
		<path class="st16" d="M53.2,273.1c10-7.8,15.4-10.7,15.4-10.7s-2.6,5.5-7,10.6c-5.9,6.9-8.8,3.4-8.1,26.5s-4.8,5-4.8,5.5
			C48.7,305.6,38.5,284.6,53.2,273.1z"/>
	</g>
	<g>
		<path class="st18" d="M23.8,294.8c-0.5,0-0.9,0.4-0.9,0.9c0,0.5,0,1.1,0,1.7c0,14.7,2.7,27.9,6.9,37c0.1,0.3,0.5,0.5,0.8,0.5h23.7
			c0.4,0,0.7-0.2,0.8-0.5c4.2-9.1,6.9-22.3,6.9-37c0-0.6,0-1.1,0-1.7c0-0.5-0.4-0.9-0.9-0.9H23.8z"/>
		<path class="st19" d="M61.8,304.6H26.9l34.4,5.8C61.5,308.5,61.7,306.6,61.8,304.6z"/>
	</g>
</g>
</svg>
