<?xml version="1.0" encoding="utf-8"?>
<!-- Generator: Adobe Illustrator 23.0.0, SVG Export Plug-In . SVG Version: 6.00 Build 0)  -->
<svg version="1.1" id="Layer_1" xmlns="http://www.w3.org/2000/svg" xmlns:xlink="http://www.w3.org/1999/xlink" x="0px" y="0px"
	 width="63.3px" height="55.9px" viewBox="0 0 63.3 55.9" style="enable-background:new 0 0 63.3 55.9;" xml:space="preserve">
<style type="text/css">
	.st0{fill:#EF5454;}
	.st1{fill:#444444;}
	.st2{fill:#3762CB;}
	.st3{fill:#8A80BC;}
	.st4{fill:#FFCEBF;}
	.st5{fill:#4671C5;}
	.st6{fill:#4570C5;}
	.st7{fill:#EEA3A8;}
	.st8{fill:#F4A5A7;}
	.st9{fill:#3863CB;}
	.st10{fill:#3963CB;}
	.st11{fill:#3862CB;}
</style>
<g>
	<path class="st0" d="M47.8,29.1c-3.6,2.7-7.1,5.5-10.7,8.2c-1.4,1.1-2.8,1.1-4.2,0c-5.5-4.2-11-8.3-16.4-12.6c-2.5-2-4-4.7-4.5-7.9
		c-0.6-4.2,0.6-7.8,3.6-10.8c4.2-4.2,11.1-4.6,15.8-1c0.8,0.6,1.4,1.2,2,2c0.6,0.7,1.1,1.5,1.5,2.3c0.3-0.2,0.3-0.4,0.5-0.6
		c2.4-4,5.9-6.1,10.6-6.1c6-0.1,11.2,4.6,12,10.6c0.6,4.7-1,8.5-4.6,11.6c-0.6-0.3-0.7-0.9-0.7-1.5c-0.1-0.8-0.1-1.5,0.4-2.3
		c0.4-0.7,0.3-1.4-0.1-2c-0.5-0.7-0.5-1.3-0.5-2.1c0-1.5-0.3-2.8-1-4.1c-1.2-2.2-3.2-3.1-5.6-3.5c-1.4-0.2-2.8-0.1-4.2,0.1
		c-0.2,0-0.3,0.1-0.5,0.1c-1.3,0.3-3.9,2.1-4.6,3.2c-0.5,0.7-0.7,1.5-0.7,2.4c0,0.8,0,1.6,0,2.3c0,0.7,0,1.3-0.3,1.9
		c-0.3,0.6-0.1,1.2,0.1,1.7c0.4,1,0.4,2.1,0,3.1c-0.3,0.7-0.7,1.4-1,2.1c-0.4,1.1-0.2,2.3,0.8,3.1c0.6,0.5,1.2,0.9,1.8,1.3
		c0.3,0.2,0.6,0.3,0.9,0c0.6-0.4,1.2-0.8,1.7-1.2c0.7-0.6,1-1.3,1.1-2.1c0-0.6,0.2-0.7,0.7-0.5c1.7,0.6,3.5,0.6,5.2,0
		c0.1,0,0.3-0.1,0.4,0c0.2,0.3,0.1,0.6,0.2,0.9C47.6,28.4,48,28.7,47.8,29.1z"/>
	<path class="st1" d="M0,44.9c0-2,0-4,0-6.1c0-1.1,0.5-1.6,1.6-1.6c3,0,6,0,9,0c0.7,0,1.2-0.2,1.7-0.6c1.2-1,2.6-1.6,4.2-1.6
		c1.6,0,3.1-0.2,4.7,0.1c2.5,0.4,4.3,1.8,5.2,4.2c0.2,0.5,0.5,0.8,1.1,0.8c4.1,0,8.2,0,12.3,0c2.8,0,5.2,2.5,5.1,5.3
		c0,0.5,0.1,0.5,0.5,0.5c3.6,0,7.2,0.1,10.8,0.1c2.4,0,4.1,1.2,4.7,3.2c0.1,0.4,0.2,0.8,0.2,1.2c0,0.9-0.6,1.6-1.5,1.7
		c-4.5,0.4-8.9,0.7-13.4,1.1c-5.1,0.4-10.2,0.8-15.3,1.3c-1.4,0.1-2.8-0.1-4.1-0.3c-3.1-0.3-6.3-0.7-9.4-1c-1.9-0.2-3.9-0.4-5.8-0.6
		c-2.5-0.3-5-0.1-7.5,0c-0.8,0-1.7,0.1-2.5,0.1c-0.9,0-1.5-0.6-1.5-1.5C0,49.1,0,47,0,44.9z"/>
	<path class="st2" d="M47.8,29.1c-0.1-0.4-0.4-0.7-0.4-1.1c-0.1-0.3,0-0.7-0.1-1c-2,0.8-4,0.9-6.1,0c0.2,1.8-0.9,2.7-2.2,3.6
		c-1.5,1-1.1,0.9-2.5,0c-0.4-0.2-0.7-0.5-1-0.7c-1.2-0.9-1.5-2.2-0.9-3.6c0.2-0.4,0.3-0.9,0.6-1.3c0.6-0.9,0.6-1.9,0.5-2.9
		c0-0.2-0.1-0.4-0.2-0.6c-0.4-0.8-0.5-1.6-0.1-2.4c0.1-0.3,0.1-0.5,0.2-0.8c0-1.3-0.1-2.7,0.1-4c0.2-1.1,0.8-2.1,1.7-2.7
		c0.6-0.4,1.2-0.9,1.8-1.3c0.8-0.6,1.8-0.8,2.8-0.9c1.7-0.2,3.4-0.2,5,0.2c3,0.8,4.7,2.8,5.2,5.8c0.2,0.8,0.1,1.6,0.1,2.5
		c0,0.4,0.1,0.7,0.3,1c0.6,0.8,0.7,1.7,0.2,2.6c-0.5,1-0.4,1.9-0.1,2.9c0.1,0.2,0.2,0.4,0.3,0.6c0.2,0.5,0.4,0.9,0.6,1.4
		c0.5,1.2,0.3,2.2-0.5,3.2c-0.7,0.7-1.5,1.2-2.3,1.7c-0.2,0.2-0.4,0.1-0.7,0C49.5,30.5,48.5,30,47.8,29.1z"/>
	<path class="st2" d="M33.6,16.9c0,0.3,0,0.6,0,0.8c0,0.5,0.1,0.9,0.4,1.3c1.1,1.5,0.3,3.5-1.5,3.9c-0.3,0.1-0.5,0.2-0.6,0.5
		c-1.2,3-3.8,4.8-6.9,4.8c-3.1,0-5.7-1.8-6.9-4.8C18,23.2,17.8,23,17.5,23c-1.9-0.4-2.6-2.5-1.5-4c0.2-0.3,0.2-0.5,0.3-0.8
		c0-1-0.1-2.1,0.1-3.1c0.3-1.3,2.3-4.3,3.4-5c0.8-0.5,1.7-0.8,2.7-0.8c1.4,0,2.9,0,4.3,0c3.9,0,6.7,2.8,6.8,6.7
		C33.6,16.2,33.6,16.6,33.6,16.9z"/>
	<path class="st3" d="M47.3,27.1c0.3,0.3,0.1,0.7,0.1,1C47.2,27.7,47.4,27.4,47.3,27.1z"/>
	<path class="st4" d="M32.9,47.6c3.1,0,6.3,0,9.5,0c0.7,0,1.4-0.1,1.9-0.6c0.2-0.2,0.4-0.2,0.6-0.2c3.9,0,7.7,0.1,11.6,0.1
		c2,0,3.4,1.2,3.7,3c0.2,0.9,0,1.1-0.9,1.2c-4.4,0.4-8.8,0.7-13.2,1.1c-4.6,0.4-9.2,0.7-13.8,1.2c-2.2,0.2-4.3,0-6.4-0.3
		c-2.8-0.3-5.6-0.6-8.4-0.9c-2.1-0.2-4.2-0.5-6.3-0.7c-2.3-0.2-4.7-0.1-7,0c-0.9,0-1.7,0.1-2.6,0.1c-0.4,0-0.6-0.2-0.6-0.7
		c0-1.4,0-2.9,0-4.3c0-2.5,0-5.1,0-7.6c0-0.9,0-1,1-1c2.9,0,5.9,0,8.8,0c0.8,0,1.5-0.2,2.1-0.8c1.1-1,2.4-1.5,3.9-1.4
		c1.5,0,2.9-0.2,4.4,0.1c2.2,0.4,3.6,1.6,4.4,3.6c0.5,1.1,0.8,1.3,2,1.3c4,0,7.9,0,11.9,0c2.2,0,3.8,1.3,4.3,3.4
		c0.1,0.4,0.1,0.8,0.1,1.1c0,0.5-0.4,1-1,1c-0.3,0-0.5,0-0.8,0c-6.3,0-12.6,0-18.9,0c-0.4,0-1-0.1-1,0.5c0,0.6,0.6,0.4,1,0.5
		C26.5,47.6,29.7,47.6,32.9,47.6z"/>
	<path class="st4" d="M38.3,17.1c0.8,0.9,1.8,1.5,2.9,1.6c0.7,0.1,1.5,0.3,2.1,0c1-0.4,1.9,0.1,2.8,0c1.5,0,3,0,4.5,0
		c1,0,1.7,0.6,1.7,1.5c0,0.9-0.6,1.5-1.6,1.5c-0.5,0-0.6,0.3-0.7,0.7c-1.3,4.1-6,5.7-9.4,3.2c-1.1-0.8-1.8-1.8-2.2-3.1
		c-0.1-0.5-0.3-0.7-0.9-0.7c-0.8,0-1.4-0.7-1.4-1.4c0-0.7,0.5-1.4,1.3-1.5c0.6,0,0.8-0.4,0.7-0.9C38.2,17.6,38.2,17.4,38.3,17.1z"/>
	<path class="st5" d="M42.4,17.8c-1.6,0-2.8-0.4-3.6-1.7c-0.8-1.3-0.8-2.7,0-3.9c0.6-0.9,1.5-1.5,2.7-1.7c1.9-0.3,3.8-0.4,5.7,0.2
		c2.4,0.8,3.7,2.5,4.2,4.8c0.1,0.7,0.1,1.3,0.1,2c0,0.3-0.1,0.5-0.4,0.5c-1.7,0-3.5,0.1-5.2,0c-1.4-0.1-2.5-0.7-3.3-1.9
		c-0.2-0.3-0.4-0.5-0.7-0.4c-0.4,0.2-0.3,0.5-0.2,0.8C41.8,16.9,42,17.3,42.4,17.8z"/>
	<path class="st5" d="M53.2,27.5c0,0.7-0.4,1.2-0.8,1.6c-0.1,0.1-0.2,0.1-0.3,0.2c-0.5,0.3-1,1.1-1.5,0.8c-1-0.5-2.1-1.1-2.3-2.4
		c-0.1-0.7,0.3-1.3,0.7-1.8c0.4-0.4,0.8-0.8,1-1.2c0.2-0.3,0.4-0.4,0.8-0.4c0.8-0.1,1.3,0.1,1.6,1C52.7,26,53.2,26.7,53.2,27.5z"/>
	<path class="st5" d="M37.4,24.4c0.6-0.1,1,0.1,1.3,0.6c0.4,0.6,1,1,1.3,1.6c0.4,0.9,0.2,1.9-0.6,2.5c-0.3,0.2-0.7,0.4-1,0.7
		c-0.5,0.5-0.9,0.4-1.3,0c-0.4-0.3-0.8-0.6-1.2-1c-0.7-0.7-0.8-1.3-0.4-2.2c0.3-0.6,0.6-1.2,0.9-1.8C36.6,24.2,37.1,24.5,37.4,24.4z
		"/>
	<path class="st6" d="M37.3,13.2c-0.1,1.5,0.3,2.9-0.1,4.3c-0.1,0.3-0.2,0.5-0.5,0.4c-0.3,0-0.2-0.3-0.1-0.5c0-1.1-0.1-2.2,0.1-3.2
		C36.8,13.9,36.9,13.5,37.3,13.2z"/>
	<path class="st7" d="M37.3,23.3c-0.4,0-0.6,0-0.6-0.4c0-0.1-0.1-0.4,0.2-0.3c0.3,0.1,0.7,0.1,0.7,0.5
		C37.7,23.5,37.4,23.3,37.3,23.3z"/>
	<path class="st8" d="M51.3,23.3c-0.1-0.1-0.4,0.2-0.4-0.2c0-0.4,0.3-0.5,0.6-0.5c0.3,0,0.2,0.2,0.3,0.3
		C51.8,23.3,51.6,23.4,51.3,23.3z"/>
	<path class="st5" d="M23,17.9c-2.3,0.1-4.3-1.4-4.4-3.6c-0.1-2.2,1.4-4.1,3.7-4.2c1.7-0.1,3.4-0.1,5.1,0c2.6,0.1,4.9,2.1,5.2,4.8
		c0.1,0.8,0.1,1.6,0.1,2.5c0,0.4-0.1,0.5-0.5,0.5c-1.8,0-3.6,0-5.4,0c-1.5,0-2.6-0.8-3.5-2c-0.2-0.3-0.4-0.5-0.8-0.4
		c-0.4,0.2-0.3,0.6-0.2,0.9C22.3,16.9,22.6,17.4,23,17.9z"/>
	<path class="st4" d="M18.7,17c1.4,1.8,3.4,2,5.4,1.9c0.1,0,0.2,0,0.3,0c0.4-0.6,0.9-0.2,1.3-0.1c0.8,0.2,1.6,0.2,2.4,0.2
		c1.2,0,2.4,0,3.7,0c1,0,1.7,0.6,1.7,1.5c0,0.9-0.6,1.6-1.7,1.6c-0.4,0-0.6,0.3-0.7,0.6c-0.9,2.8-3.3,4.7-6.2,4.6
		c-2.8,0-5.2-1.9-6-4.5c-0.1-0.5-0.4-0.7-0.9-0.8c-0.8,0-1.4-0.6-1.5-1.4c-0.1-0.8,0.5-1.5,1.3-1.7c0.9-0.2,0.8-0.2,0.9-1.1
		C18.6,17.6,18.5,17.3,18.7,17z"/>
	<path class="st6" d="M17.6,14.3c0.5,1.2,0,2.2,0,3.3c0,0.1,0,0.3-0.2,0.3c-0.1,0-0.1-0.1-0.1-0.2C17.3,16.7,17,15.5,17.6,14.3z"/>
	<path class="st9" d="M41.7,20.6c0,0.2,0,0.3,0,0.5c-0.1,0.5-0.3,0.8-0.9,0.8c-0.5,0-0.8-0.3-0.9-0.8c-0.1-0.5,0.1-1.1-0.2-1.6
		c-0.1-0.1,0.1-0.3,0.2-0.2c0.3,0.2,0.6,0,0.9,0C41.5,19.3,41.7,19.7,41.7,20.6z"/>
	<path class="st2" d="M46.8,20.6c0-1.1,0.2-1.3,1.3-1.2c0.1,0,0.2-0.1,0.3-0.1c0.2,0,0.4,0.1,0.2,0.3c-0.3,0.4-0.1,0.8-0.1,1.2
		c0,0.7-0.3,1.1-0.8,1.2c-0.6,0-0.9-0.4-0.9-1.2C46.8,20.7,46.8,20.7,46.8,20.6z"/>
	<path class="st10" d="M44.3,24.7c-0.6,0-1.1-0.2-1.5-0.5c-0.2-0.2-0.4-0.4-0.2-0.7c0.2-0.3,0.4-0.2,0.7-0.1c0.7,0.5,1.3,0.5,1.9,0
		c0.2-0.2,0.5-0.2,0.6,0.1c0.2,0.2,0.1,0.5-0.1,0.7C45.4,24.5,44.9,24.6,44.3,24.7z"/>
	<path class="st11" d="M29.4,20.9c0,0.9-0.3,1.4-0.9,1.4c-0.6,0-0.9-0.4-0.9-1.4c0-0.1,0-0.2,0-0.3c0-0.7,0.4-1.1,0.9-1.1
		c0.5,0,0.9,0.4,0.9,1.1C29.4,20.7,29.4,20.8,29.4,20.9z"/>
	<path class="st2" d="M22.3,20.9c0,0.1,0,0.3,0,0.4c0,0.6-0.4,0.9-0.9,0.9c-0.5,0-0.9-0.4-0.9-1c0-0.3,0-0.5,0-0.8
		c0-0.6,0.4-1,0.9-1c0.5,0,0.9,0.4,0.9,1C22.3,20.6,22.3,20.7,22.3,20.9z"/>
	<path class="st11" d="M25,25c-0.6,0-1.1-0.2-1.6-0.6c-0.2-0.2-0.3-0.4-0.1-0.7c0.2-0.3,0.5-0.3,0.7-0.1c0.7,0.5,1.3,0.5,2,0
		c0.2-0.2,0.5-0.2,0.7,0c0.2,0.3,0.1,0.5-0.1,0.7C26.1,24.8,25.5,25,25,25z"/>
</g>
</svg>
