<?xml version="1.0" encoding="utf-8"?>
<!-- Generator: Adobe Illustrator 23.0.0, SVG Export Plug-In . SVG Version: 6.00 Build 0)  -->
<svg version="1.1" id="Layer_1" xmlns="http://www.w3.org/2000/svg" xmlns:xlink="http://www.w3.org/1999/xlink" x="0px" y="0px"
	 width="323.6px" height="424px" viewBox="0 0 323.6 424" style="enable-background:new 0 0 323.6 424;" xml:space="preserve">
<style type="text/css">
	.st0{fill:#263238;}
	.st1{fill:#E7515B;}
	.st2{fill:#455B64;}
	.st3{fill:#FFFFFF;}
	.st4{fill:#E8E8E3;}
	.st5{font-family:'Montserrat-Regular';}
	.st6{font-size:8.299px;}
	.st7{opacity:0.1;}
	.st8{fill:#E0E0E0;}
	.st9{opacity:0.2;fill:#FFFFFF;}
	.st10{opacity:0.2;}
	.st11{fill:#FBBD9D;}
	.st12{fill:#EC996F;}
</style>
<g>
	<path class="st0" d="M317,420.2c0,0.1-69.4,0.3-155.1,0.3c-85.7,0-155.1-0.1-155.1-0.3c0-0.1,69.4-0.3,155.1-0.3
		C247.5,420,317,420.1,317,420.2z"/>
</g>
<g>
	<g>
		<g>
			<path class="st1" d="M249.3,297.8c-15.4-10.8-19-30.8-18.3-48.8c0.1-3-0.2-6.2,1.2-8.8c1.4-2.6,4.8-4.4,7.5-3.2
				c2.2,1.1,3.2,3.6,4.5,5.8c1.7,2.9,4.1,5.2,7,6.7c1.9,1,4.3,1.6,6.2,0.6c2.6-1.4,2.9-5,2.9-8c0-5.6-0.1-11.1-0.1-16.7
				c0-3,0-6,0.9-8.9s3-5.5,5.8-6.3c2.8-0.8,6.4,0.8,7,3.8c0.3,1.2,0,2.5,0.1,3.7c0.1,1.2,0.7,2.6,1.8,3c1.2,0.4,2.4-0.5,3.3-1.4
				c3.1-3,5.2-6.9,7.1-10.8c2-3.9,3.9-7.8,6.7-11.1c2.8-3.3,6.7-5.9,11-6.1c4.3-0.2,8.8,2.4,9.9,6.6c1.1,4.2-1.4,8.5-4,11.9
				c-4,5.1-8.7,9.5-13.9,13.2c-0.9,0.7-2,1.4-2.3,2.5c-0.6,2,1.2,4,3.2,4.6c2.2,0.7,4.6,0.5,7,0.8c2.3,0.3,4.9,1.3,5.7,3.5
				c1.2,3.1-1.3,6.3-3.8,8.4c-5,4.2-10.8,7.5-16.9,9.8c-2.2,0.8-4.5,1.5-6.3,3.1c-1.8,1.5-2.8,4.2-1.8,6.3c1.1,2.1,3.8,2.8,6.1,2.4
				c2.3-0.4,4.4-1.7,6.6-2.5c4.1-1.6,9.4-1.3,12,2.3c1.7,2.3,1.9,5.6,1,8.4c-0.9,2.8-2.6,5.2-4.5,7.4c-6.6,7.7-15,13.9-24.5,17.3
				C267.6,300.4,258.8,301.3,249.3,297.8"/>
		</g>
	</g>
	<g>
		<g>
			<g>
				<path class="st0" d="M309.3,193.8c0,0-0.1,0.1-0.3,0.3c-0.2,0.2-0.5,0.5-0.9,0.8c-0.8,0.7-1.9,1.7-3.4,3.1
					c-2.9,2.7-7,6.8-11.4,12.3c-2.2,2.8-4.5,5.9-7,9.3c-2.4,3.4-5,7.1-7.5,11c-2.5,4-5.1,8.2-7.4,12.8c-1.2,2.3-2.2,4.7-3.2,7.1
					c-1,2.4-2.1,4.9-3.2,7.4c-4.2,10-8,19.7-10.7,28.8c-2.7,9-4.3,17.4-5,24.5c-0.7,7.1-0.6,12.9-0.3,16.9c0.2,2,0.3,3.5,0.4,4.6
					c0.1,0.5,0.1,0.9,0.1,1.2c0,0.3,0,0.4,0,0.4c0,0,0-0.1-0.1-0.4c0-0.3-0.1-0.7-0.2-1.2c-0.2-1-0.4-2.6-0.6-4.6
					c-0.4-4-0.6-9.8,0.1-16.9c0.7-7.1,2.2-15.6,4.9-24.6c2.7-9.1,6.4-18.8,10.6-28.8c1.1-2.5,2.1-5,3.2-7.4c1-2.4,2.1-4.8,3.2-7.1
					c2.3-4.6,4.9-8.9,7.4-12.8c2.6-4,5.1-7.6,7.6-11c2.4-3.4,4.8-6.5,7-9.3c4.5-5.5,8.6-9.6,11.6-12.2c1.5-1.3,2.7-2.3,3.5-3
					c0.4-0.3,0.7-0.6,0.9-0.8C309.2,193.8,309.3,193.8,309.3,193.8z"/>
			</g>
		</g>
	</g>
	<g>
		<g>
			<g>
				<path class="st0" d="M271.2,243.1c0,0-0.1-0.4-0.3-1.3c-0.2-0.8-0.3-2-0.6-3.5c-0.4-3-0.9-7.1-1.3-11.7c-0.5-4.6-1-8.7-1.4-11.6
					c-0.2-1.5-0.4-2.7-0.6-3.5c-0.1-0.8-0.2-1.3-0.2-1.3c0,0,0.2,0.4,0.4,1.3c0.2,0.8,0.5,2,0.7,3.5c0.6,3,1.1,7.1,1.6,11.6
					c0.5,4.5,0.9,8.6,1.2,11.7c0.2,1.4,0.3,2.6,0.4,3.5C271.2,242.6,271.2,243.1,271.2,243.1z"/>
			</g>
		</g>
	</g>
	<g>
		<g>
			<g>
				<path class="st0" d="M309.6,235.9c0,0-0.5,0.1-1.5,0.2c-1,0.1-2.4,0.2-4.2,0.4c-3.5,0.4-8.4,1.1-13.7,2.1
					c-5.3,1-10.1,2.1-13.5,3c-1.7,0.4-3.1,0.8-4.1,1.1c-1,0.3-1.5,0.4-1.5,0.4c0,0,0.5-0.2,1.4-0.6c0.9-0.3,2.3-0.8,4-1.3
					c3.4-1,8.2-2.2,13.5-3.2c5.3-1,10.2-1.6,13.7-1.9c1.8-0.2,3.2-0.2,4.2-0.2C309,235.9,309.6,235.9,309.6,235.9z"/>
			</g>
		</g>
	</g>
	<g>
		<g>
			<g>
				<path class="st0" d="M254.4,285.8c0,0-0.1-0.2-0.3-0.5c-0.2-0.4-0.4-0.8-0.7-1.4c-0.6-1.2-1.3-3-2.3-5.2
					c-1.9-4.4-4.2-10.6-6.7-17.4c-2.5-6.8-4.8-13-6.6-17.5c-0.9-2.2-1.6-3.9-2.1-5.2c-0.2-0.6-0.4-1-0.6-1.4
					c-0.1-0.3-0.2-0.5-0.2-0.5c0,0,0.1,0.2,0.3,0.5c0.2,0.4,0.4,0.8,0.7,1.4c0.6,1.2,1.3,3,2.3,5.2c1.9,4.4,4.2,10.6,6.7,17.4
					c2.5,6.8,4.8,13,6.6,17.4c0.9,2.2,1.6,3.9,2.1,5.2c0.2,0.6,0.4,1,0.6,1.4C254.4,285.6,254.4,285.8,254.4,285.8z"/>
			</g>
		</g>
	</g>
	<g>
		<g>
			<g>
				<path class="st0" d="M305.5,269.4c0,0-0.2,0.1-0.5,0.2c-0.4,0.1-0.9,0.3-1.5,0.5c-1.4,0.4-3.2,1-5.5,1.8c-4.6,1.5-11,3.6-18,6
					c-7,2.4-13.4,4.5-18.1,5.9c-2.3,0.7-4.2,1.3-5.5,1.6c-0.6,0.2-1.1,0.3-1.5,0.4c-0.3,0.1-0.5,0.1-0.5,0.1c0,0,0.2-0.1,0.5-0.2
					c0.4-0.1,0.9-0.3,1.5-0.5c1.4-0.4,3.2-1,5.5-1.8c4.6-1.5,11-3.6,18-6c7-2.4,13.4-4.5,18-5.9c2.3-0.7,4.2-1.3,5.5-1.6
					c0.6-0.2,1.1-0.3,1.5-0.4C305.3,269.4,305.5,269.3,305.5,269.4z"/>
			</g>
		</g>
	</g>
</g>
<g>
	<g>
		<g>
			<path class="st1" d="M284.7,26.8l-5.2,1.8l-2.2-6.7c-4.1-12.4-17-19.1-28.9-14.8c-11.9,4.2-18.2,17.8-14.2,30.2l2.2,6.7l-5.2,1.8
				c-4,1.4-6.2,6.1-4.8,10.3l14.3,43.8c1.4,4.3,5.8,6.5,9.9,5.1L304,86c4.1-1.5,6.3-6.1,4.9-10.4l-14.3-43.8
				C293.2,27.6,288.7,25.3,284.7,26.8z M244,33.8c-2.2-6.8,1.2-14.2,7.8-16.6c6.5-2.3,13.6,1.3,15.8,8.1l2.2,6.7l-23.6,8.4L244,33.8
				z M274,72.7l3.7,11.2c0.2,0.5-0.1,1-0.6,1.1l-5.1,1.8c-0.4,0.1-0.9-0.1-1-0.5l-3.7-11.2c-4-0.2-7.6-2.8-9-7
				c-1.8-5.4,1-11.3,6.2-13.2c5.2-1.9,10.8,1,12.6,6.5C278.4,65.6,277,70,274,72.7z"/>
		</g>
	</g>
	<g>
		<path class="st0" d="M279.3,28.5c0,0.1-9.5,3.7-21.4,8c-11.9,4.3-21.6,7.7-21.6,7.5c0-0.1,9.5-3.7,21.4-8
			C269.5,31.8,279.2,28.4,279.3,28.5z"/>
	</g>
	<g>
		<g>
			<path class="st0" d="M290.6,30.4c0,0,0,0.1,0.1,0.3c0.1,0.2,0.2,0.5,0.3,0.8c0.3,0.7,0.6,1.7,1.1,3c0.9,2.7,2.2,6.5,3.8,11.2
				c1.6,4.7,3.5,10.4,5.6,16.6c1,3.1,2.2,6.4,3.3,9.8c0.5,1.7,0.9,3.6,0.8,5.5c-0.1,0.9-0.3,1.9-0.8,2.8c-0.5,0.9-1.1,1.6-1.9,2.2
				c-1.5,1.2-3.3,1.9-5.1,2.6c-1.7,0.6-3.5,1.2-5.2,1.9c-3.4,1.2-6.6,2.4-9.7,3.5c-6.2,2.2-11.8,4.2-16.5,5.9
				c-4.7,1.6-8.5,3-11.1,3.9c-1.3,0.4-2.3,0.8-3,1c-0.3,0.1-0.6,0.2-0.8,0.3c-0.2,0.1-0.3,0.1-0.3,0.1c0,0,0.1,0,0.3-0.1
				c0.2-0.1,0.5-0.2,0.8-0.3c0.7-0.3,1.7-0.7,3-1.1c2.7-1,6.4-2.4,11.1-4.1c4.7-1.7,10.3-3.7,16.5-6c3.1-1.1,6.4-2.3,9.7-3.5
				c1.7-0.6,3.4-1.2,5.1-1.9c1.7-0.6,3.5-1.3,4.9-2.5c0.7-0.6,1.3-1.3,1.8-2.1c0.4-0.8,0.7-1.7,0.8-2.6c0.2-1.8-0.2-3.6-0.7-5.3
				c-1.1-3.4-2.2-6.7-3.2-9.8c-2.1-6.3-3.9-11.9-5.5-16.6c-1.5-4.7-2.8-8.5-3.7-11.2c-0.4-1.3-0.7-2.3-1-3.1
				c-0.1-0.3-0.2-0.6-0.2-0.8C290.6,30.5,290.6,30.4,290.6,30.4z"/>
		</g>
	</g>
	<g>
		<g>
			<path class="st0" d="M262.5,16.6c0,0-0.5-0.3-1.5-0.7c-1-0.4-2.5-0.8-4.4-0.9c-1.9-0.1-4.2,0.2-6.4,1.2c-2.3,1-4.5,2.7-6.1,5.1
				c-1.6,2.4-2.3,5.1-2.3,7.6c0,2.5,0.5,4.7,1,6.5c0.5,1.8,1.1,3.3,1.4,4.3c0.4,1,0.6,1.6,0.5,1.6c0,0-0.3-0.5-0.7-1.5
				c-0.4-1-1-2.4-1.6-4.2c-0.6-1.8-1.1-4.1-1.1-6.7c0-2.6,0.7-5.4,2.4-7.9c1.7-2.5,4-4.3,6.4-5.3c2.4-1,4.7-1.3,6.6-1.1
				c1.9,0.1,3.4,0.6,4.4,1.1c0.5,0.2,0.9,0.4,1.1,0.6C262.3,16.5,262.5,16.5,262.5,16.6z"/>
		</g>
	</g>
	<g>
		<g>
			<path class="st0" d="M262.9,55.7c0,0,0.2-0.1,0.5-0.3c0.3-0.2,0.9-0.4,1.5-0.6c0.7-0.2,1.6-0.4,2.6-0.4c1-0.1,2.3,0.1,3.5,0.5
				c2.6,0.9,4.9,3.5,6.1,7c0.6,1.7,0.6,3.8,0,5.7c-0.6,2-1.7,3.8-3.3,5.4l0.1-0.3c1.3,3.6,2.8,7.6,4.3,11.7l0.1,0.3l-0.3,0.1
				c-0.7,0.2-1.5,0.5-2.3,0.8c-1.7,0.6-3.3,1.1-5,1.7l-0.2,0.1l-0.1-0.2c-1.4-4.1-2.9-8.1-4-11.8l0.2,0.2c-2-0.1-3.9-1-5.4-2.1
				c-1.5-1.1-2.6-2.5-3.4-4c-0.7-1.5-1.1-3.1-1.1-4.5c0-1.4,0.4-2.8,0.8-3.9c0.9-2.2,2.3-3.6,3.4-4.4
				C262.2,55.9,262.9,55.7,262.9,55.7c0,0-0.6,0.3-1.6,1.1c-1,0.8-2.3,2.2-3.2,4.4c-0.9,2.1-1.2,5.2,0.3,8.1
				c0.7,1.4,1.8,2.8,3.3,3.8c1.4,1.1,3.2,1.9,5.1,2l0.2,0l0,0.2c1.1,3.7,2.6,7.6,4,11.8l-0.3-0.2c1.6-0.5,3.3-1.1,5-1.7
				c0.8-0.3,1.6-0.5,2.3-0.8l-0.2,0.3c-1.5-4.1-2.9-8.1-4.3-11.7l-0.1-0.1l0.1-0.1c1.5-1.5,2.6-3.3,3.2-5.2c0.5-1.9,0.5-3.8,0-5.5
				c-1.1-3.4-3.3-5.9-5.8-6.8c-1.2-0.5-2.4-0.6-3.4-0.6c-1,0-1.9,0.2-2.6,0.4C263.6,55.4,262.9,55.7,262.9,55.7z"/>
		</g>
	</g>
</g>
<g>
	<g>
		<g>
			<path class="st2" d="M232,344.4l-99.9-0.5c-12-0.1-21.7-9.8-21.7-21.8l1.1-250.4c0.1-12,9.8-21.7,21.9-21.7l99.9,0.5
				c12,0.1,21.7,9.8,21.7,21.8l-1.1,250.4C253.8,334.8,244,344.5,232,344.4z"/>
		</g>
		<g>
			<path class="st3" d="M233.1,59.2l-19.4-0.1c-2.6,0-4.7,2.2-4.7,4.9l0,3.5c0,2.7-2.1,4.9-4.7,4.9l-37.7-0.2
				c-2.6,0-4.7-2.2-4.7-4.9l0-3.5c0-2.7-2.1-4.9-4.7-4.9l-6.8,0l-16.9-0.1c-8.4,0-15.3,6.8-15.3,15.2l-1,244.4
				c0,8.4,6.8,15.3,15.2,15.3l99.7,0.5c8.4,0,15.3-6.8,15.3-15.2l1-244.4C248.3,66,241.5,59.2,233.1,59.2z"/>
		</g>
		<g>
			<g>
				<g>
					<g>
						<path class="st1" d="M219.7,301.4l-74.1-0.3c-0.8,0-1.4-0.8-1.4-1.9l0.1-19.4c0-1,0.6-1.9,1.4-1.9l74.1,0.3
							c0.8,0,1.4,0.8,1.4,1.9l-0.1,19.4C221.1,300.6,220.5,301.4,219.7,301.4z"/>
					</g>
					<g>
						<text transform="matrix(0.9566 4.419677e-03 -4.230001e-03 1 165.699 292.0566)" class="st4 st5 st6">SING UP</text>
					</g>
				</g>
			</g>
		</g>
	</g>
	<g>
		<g>
			
				<rect x="134.6" y="130.9" transform="matrix(1 4.615699e-03 -4.615699e-03 1 0.6168 -0.6793)" class="st1" width="25.7" height="4.7"/>
			
				<rect x="134.6" y="130.9" transform="matrix(1 4.615699e-03 -4.615699e-03 1 0.6168 -0.6793)" class="st7" width="25.7" height="4.7"/>
		</g>
		<g>
			<g>
				<path class="st8" d="M235.8,159.9c0,0,0.2,0,0.6-0.1c0.4-0.1,0.9-0.6,1-1.3c0-1.6,0-3.9,0-6.9c0-1.5,0-3.2,0-5
					c0-0.5,0-0.9,0-1.4c0-0.5,0-0.9-0.3-1.3c-0.3-0.4-0.7-0.6-1.2-0.6c-0.5,0-1,0-1.6,0c-4.3,0-9.1,0-14.4,0
					c-21.4-0.1-51-0.2-83.6-0.3c-0.4,0-0.9,0.2-1.1,0.6c-0.3,0.4-0.3,0.8-0.3,1.3c0,1,0,2,0,3c0,2,0,4,0,6c0,1,0,2,0,3
					c0,0.5,0,1,0,1.4c0.1,0.4,0.4,0.7,0.8,0.9c0.2,0.1,0.4,0.1,0.6,0.1l0.7,0l1.5,0c1,0,1.9,0,2.9,0c7.7,0,15.1,0.1,22.2,0.1
					c14.1,0.1,26.9,0.2,37.6,0.2c10.7,0.1,19.3,0.2,25.3,0.2c3,0,5.3,0.1,6.9,0.1c0.8,0,1.4,0,1.8,0
					C235.6,159.9,235.8,159.9,235.8,159.9s-0.2,0-0.6,0c-0.4,0-1,0-1.8,0c-1.6,0-3.9,0-6.9,0c-6,0-14.7,0-25.4,0
					c-10.7,0-23.5-0.1-37.6-0.1c-7.1,0-14.5-0.1-22.2-0.1c-1,0-1.9,0-2.9,0l-1.5,0l-0.7,0c-0.3,0-0.6,0-0.8-0.1
					c-0.5-0.2-0.9-0.7-1.1-1.2c-0.1-0.3-0.1-0.6-0.1-0.8l0-0.7c0-1,0-2,0-3c0-2,0-4,0-6c0-1,0-2,0-3c0-0.3,0-0.5,0-0.8
					c0-0.3,0.2-0.6,0.3-0.8c0.3-0.5,0.9-0.8,1.5-0.8c32.7,0.2,62.2,0.3,83.6,0.5c5.3,0,10.2,0.1,14.4,0.1c0.5,0,1.1,0,1.6,0
					c0.6,0,1.1,0.3,1.4,0.7c0.3,0.4,0.3,1,0.3,1.5c0,0.5,0,0.9,0,1.4c0,1.8,0,3.5,0,5c0,3-0.1,5.3-0.1,6.9c-0.1,0.8-0.7,1.3-1.1,1.4
					C236,160,235.8,159.9,235.8,159.9z"/>
			</g>
		</g>
		<g>
			
				<rect x="141.5" y="149.1" transform="matrix(1 4.619129e-03 -4.619129e-03 1 0.7008 -0.7607)" class="st1" width="47" height="4.4"/>
			
				<rect x="141.5" y="149.1" transform="matrix(1 4.619129e-03 -4.619129e-03 1 0.7008 -0.7607)" class="st9" width="47" height="4.4"/>
		</g>
		<g>
			
				<rect x="134.4" y="174" transform="matrix(1 4.615683e-03 -4.615683e-03 1 0.8155 -0.678)" class="st1" width="25.7" height="4.7"/>
			
				<rect x="134.4" y="174" transform="matrix(1 4.615683e-03 -4.615683e-03 1 0.8155 -0.678)" class="st7" width="25.7" height="4.7"/>
		</g>
		<g>
			<g>
				<path class="st8" d="M235.1,203c0,0,0.2,0,0.6-0.1c0.4-0.1,0.9-0.4,1.3-1.1c0.2-0.4,0.2-0.8,0.2-1.3c0-0.5,0-1,0-1.6
					c0-1.2,0-2.5,0-4c0-1.5,0-3.2,0-5c0-0.5,0-0.9,0-1.4c0-0.5,0-0.9-0.3-1.3c-0.2-0.4-0.6-0.7-1.1-0.8c-0.4-0.1-1-0.1-1.5-0.1
					c-4.2,0-9.1,0-14.4,0c-21.3-0.1-50.8-0.2-83.3-0.3c-0.9,0-1.7,0.7-1.8,1.6c0,1,0,2,0,3c0,2,0,4,0,6c0,1,0,2,0,3
					c0,0.5-0.1,1,0.1,1.4c0.1,0.4,0.4,0.8,0.7,1c0.4,0.2,0.8,0.3,1.2,0.3l1.5,0c1,0,1.9,0,2.9,0c7.7,0,15.1,0.1,22.1,0.1
					c14.1,0.1,26.8,0.2,37.5,0.2c10.7,0.1,19.3,0.2,25.3,0.2c3,0,5.3,0.1,6.9,0.1c0.8,0,1.4,0,1.8,0C234.9,203,235.1,203,235.1,203
					s-0.2,0-0.6,0c-0.4,0-1,0-1.8,0c-1.6,0-3.9,0-6.9,0c-6,0-14.6,0-25.3,0c-10.7,0-23.4-0.1-37.5-0.1c-7.1,0-14.5-0.1-22.1-0.1
					c-1,0-1.9,0-2.9,0l-1.5,0c-0.5,0-1.1-0.1-1.5-0.4c-0.5-0.3-0.8-0.8-0.9-1.3c-0.1-0.6-0.1-1-0.1-1.5c0-1,0-2,0-3c0-2,0-4,0-6
					c0-1,0-2,0-3.1c0.1-1.2,1.2-2.1,2.3-2.1c32.5,0.2,62,0.3,83.3,0.5c5.3,0,10.2,0.1,14.4,0.1c0.5,0,1.1-0.1,1.6,0.1
					c0.5,0.2,1,0.5,1.2,1c0.3,0.4,0.3,1,0.3,1.5c0,0.5,0,0.9,0,1.4c0,1.8,0,3.5,0,5c0,1.5,0,2.8,0,4c0,0.6,0,1.1,0,1.6
					c0,0.5,0,0.9-0.2,1.3c-0.4,0.7-1,1-1.3,1.1C235.3,203,235.1,203,235.1,203z"/>
			</g>
		</g>
		<g>
			
				<rect x="134.2" y="218.9" transform="matrix(1 4.596258e-03 -4.596258e-03 1 1.0185 -0.6738)" class="st1" width="25.7" height="4.7"/>
			
				<rect x="134.2" y="218.9" transform="matrix(1 4.596258e-03 -4.596258e-03 1 1.0185 -0.6738)" class="st7" width="25.7" height="4.7"/>
		</g>
		<g>
			<g>
				<path class="st8" d="M234.9,247.9c0,0,0.2,0,0.6-0.1c0.4-0.1,0.9-0.4,1.3-1.1c0.2-0.4,0.2-0.8,0.2-1.3c0-0.5,0-1,0-1.6
					c0-1.2,0-2.5,0-4c0-1.5,0-3.2,0-5c0-0.5,0-0.9,0-1.4c0-0.5,0-0.9-0.3-1.3c-0.2-0.4-0.6-0.7-1.1-0.8c-0.4-0.1-1-0.1-1.5-0.1
					c-4.2,0-9.1,0-14.4,0c-21.3-0.1-50.8-0.2-83.3-0.3c-0.9,0-1.7,0.7-1.8,1.6c0,1,0,2,0,3c0,2,0,4,0,6c0,1,0,2,0,3
					c0,0.5-0.1,1,0.1,1.4c0.1,0.4,0.4,0.8,0.7,1c0.4,0.2,0.8,0.3,1.2,0.3l1.5,0c1,0,1.9,0,2.9,0c7.7,0,15.1,0.1,22.1,0.1
					c14.1,0.1,26.8,0.2,37.5,0.2c10.7,0.1,19.3,0.2,25.3,0.2c3,0,5.3,0.1,6.9,0.1c0.8,0,1.4,0,1.8,0
					C234.7,247.9,234.9,247.9,234.9,247.9s-0.2,0-0.6,0c-0.4,0-1,0-1.8,0c-1.6,0-3.9,0-6.9,0c-6,0-14.6,0-25.3,0
					c-10.7,0-23.4-0.1-37.5-0.1c-7.1,0-14.5-0.1-22.1-0.1c-1,0-1.9,0-2.9,0l-1.5,0c-0.5,0-1.1-0.1-1.5-0.4c-0.5-0.3-0.8-0.8-0.9-1.3
					c-0.1-0.6-0.1-1-0.1-1.5c0-1,0-2,0-3c0-2,0-4,0-6c0-1,0-2,0-3.1c0.1-1.2,1.2-2.1,2.3-2.1c32.5,0.2,62,0.3,83.3,0.5
					c5.3,0,10.2,0.1,14.4,0.1c0.5,0,1.1-0.1,1.6,0.1c0.5,0.2,1,0.5,1.2,1c0.3,0.4,0.3,1,0.3,1.5c0,0.5,0,0.9,0,1.4c0,1.8,0,3.5,0,5
					c0,1.5,0,2.8,0,4c0,0.6,0,1.1,0,1.6c0,0.5,0,1-0.2,1.3c-0.4,0.7-1,1-1.3,1.1C235.1,247.9,234.9,247.9,234.9,247.9z"/>
			</g>
		</g>
		<g>
			
				<rect x="141.3" y="192.2" transform="matrix(1 4.619090e-03 -4.619090e-03 1 0.8997 -0.7594)" class="st1" width="47" height="4.4"/>
			
				<rect x="141.3" y="192.2" transform="matrix(1 4.619090e-03 -4.619090e-03 1 0.8997 -0.7594)" class="st9" width="47" height="4.4"/>
		</g>
		<g>
			<g>
				<g>
					<path class="st1" d="M145.6,239.7c0,1.2-0.9,2.2-2.1,2.2c-1.1,0-2.1-1-2-2.2c0-1.2,0.9-2.2,2.1-2.2
						C144.7,237.5,145.6,238.5,145.6,239.7z"/>
				</g>
				<g>
					<path class="st1" d="M152,239.8c0,1.2-0.9,2.2-2.1,2.2s-2.1-1-2-2.2c0-1.2,0.9-2.2,2.1-2.2C151.1,237.6,152,238.6,152,239.8z"
						/>
				</g>
				<g>
					<path class="st1" d="M158.4,239.8c0,1.2-0.9,2.2-2.1,2.2c-1.1,0-2.1-1-2-2.2c0-1.2,0.9-2.2,2.1-2.2
						C157.5,237.6,158.4,238.6,158.4,239.8z"/>
				</g>
				<g>
					<path class="st1" d="M164.7,239.8c0,1.2-0.9,2.2-2.1,2.2c-1.1,0-2.1-1-2-2.2c0-1.2,0.9-2.2,2.1-2.2
						C163.8,237.6,164.7,238.6,164.7,239.8z"/>
				</g>
				<g>
					<path class="st1" d="M171.1,239.9c0,1.2-0.9,2.2-2.1,2.2c-1.1,0-2.1-1-2-2.2c0-1.2,0.9-2.2,2.1-2.2
						C170.2,237.7,171.1,238.7,171.1,239.9z"/>
				</g>
				<g>
					<path class="st1" d="M177.5,239.9c0,1.2-0.9,2.2-2.1,2.2c-1.1,0-2.1-1-2-2.2c0-1.2,0.9-2.2,2.1-2.2
						C176.6,237.7,177.5,238.7,177.5,239.9z"/>
				</g>
				<g>
					<path class="st1" d="M183.9,239.9c0,1.2-0.9,2.2-2.1,2.2c-1.1,0-2.1-1-2-2.2c0-1.2,0.9-2.2,2.1-2.2
						C182.9,237.7,183.9,238.7,183.9,239.9z"/>
				</g>
				<g>
					<path class="st1" d="M190.2,240c0,1.2-0.9,2.2-2.1,2.2c-1.1,0-2.1-1-2-2.2c0-1.2,0.9-2.2,2.1-2.2
						C189.3,237.8,190.2,238.7,190.2,240z"/>
				</g>
				<g>
					<path class="st1" d="M196.6,240c0,1.2-0.9,2.2-2.1,2.2c-1.1,0-2.1-1-2-2.2c0-1.2,0.9-2.2,2.1-2.2
						C195.7,237.8,196.6,238.8,196.6,240z"/>
				</g>
			</g>
			<g class="st10">
				<g>
					<path class="st3" d="M145.6,239.7c0,1.2-0.9,2.2-2.1,2.2c-1.1,0-2.1-1-2-2.2c0-1.2,0.9-2.2,2.1-2.2
						C144.7,237.5,145.6,238.5,145.6,239.7z"/>
				</g>
				<g>
					<path class="st3" d="M152,239.8c0,1.2-0.9,2.2-2.1,2.2s-2.1-1-2-2.2c0-1.2,0.9-2.2,2.1-2.2C151.1,237.6,152,238.6,152,239.8z"
						/>
				</g>
				<g>
					<path class="st3" d="M158.4,239.8c0,1.2-0.9,2.2-2.1,2.2c-1.1,0-2.1-1-2-2.2c0-1.2,0.9-2.2,2.1-2.2
						C157.5,237.6,158.4,238.6,158.4,239.8z"/>
				</g>
				<g>
					<path class="st3" d="M164.7,239.8c0,1.2-0.9,2.2-2.1,2.2c-1.1,0-2.1-1-2-2.2c0-1.2,0.9-2.2,2.1-2.2
						C163.8,237.6,164.7,238.6,164.7,239.8z"/>
				</g>
				<g>
					<path class="st3" d="M171.1,239.9c0,1.2-0.9,2.2-2.1,2.2c-1.1,0-2.1-1-2-2.2c0-1.2,0.9-2.2,2.1-2.2
						C170.2,237.7,171.1,238.7,171.1,239.9z"/>
				</g>
				<g>
					<path class="st3" d="M177.5,239.9c0,1.2-0.9,2.2-2.1,2.2c-1.1,0-2.1-1-2-2.2c0-1.2,0.9-2.2,2.1-2.2
						C176.6,237.7,177.5,238.7,177.5,239.9z"/>
				</g>
				<g>
					<path class="st3" d="M183.9,239.9c0,1.2-0.9,2.2-2.1,2.2c-1.1,0-2.1-1-2-2.2c0-1.2,0.9-2.2,2.1-2.2
						C182.9,237.7,183.9,238.7,183.9,239.9z"/>
				</g>
				<g>
					<path class="st3" d="M190.2,240c0,1.2-0.9,2.2-2.1,2.2c-1.1,0-2.1-1-2-2.2c0-1.2,0.9-2.2,2.1-2.2
						C189.3,237.8,190.2,238.7,190.2,240z"/>
				</g>
				<g>
					<path class="st3" d="M196.6,240c0,1.2-0.9,2.2-2.1,2.2c-1.1,0-2.1-1-2-2.2c0-1.2,0.9-2.2,2.1-2.2
						C195.7,237.8,196.6,238.8,196.6,240z"/>
				</g>
			</g>
		</g>
		<g>
			<g>
				<path class="st1" d="M187.6,95.6c1.3-0.6,2.3-2,2.3-3.6c0-2.1-1.6-3.9-3.6-3.9c-2,0-3.6,1.7-3.7,3.9c0,1.7,1,3.1,2.3,3.6
					c-5.6,0.8-5.3,6.9-5.3,6.9l13.2,0.1C192.8,102.6,193.1,96.5,187.6,95.6z"/>
				<path class="st7" d="M187.6,95.6c1.3-0.6,2.3-2,2.3-3.6c0-2.1-1.6-3.9-3.6-3.9c-2,0-3.6,1.7-3.7,3.9c0,1.7,1,3.1,2.3,3.6
					c-5.6,0.8-5.3,6.9-5.3,6.9l13.2,0.1C192.8,102.6,193.1,96.5,187.6,95.6z"/>
			</g>
			<g>
				
					<rect x="161.9" y="106.5" transform="matrix(1 4.615101e-03 -4.615101e-03 1 0.5064 -0.8547)" class="st1" width="47.2" height="5.6"/>
				
					<rect x="161.9" y="106.5" transform="matrix(1 4.615101e-03 -4.615101e-03 1 0.5064 -0.8547)" class="st9" width="47.2" height="5.6"/>
			</g>
		</g>
	</g>
</g>
<g>
	<g>
		<g>
			<path class="st1" d="M35.6,135.8c0,0-0.2,0-0.5,0.1c-0.3,0-0.8,0.1-1.4,0.1c-0.6,0-1.3,0.1-2.2,0.3c-0.4,0.1-0.9,0.1-1.4,0.3
				c-0.5,0.1-1,0.3-1.5,0.4c-2.2,0.7-4.8,1.8-7.4,3.7c-2.6,1.9-5.2,4.6-7.3,8.1c-1.1,1.7-1.8,3.7-2.5,5.8c-0.6,2.1-1.1,4.4-1.1,6.8
				c-0.1,1.2,0,2.4,0.1,3.6c0,0.6,0.2,1.2,0.2,1.8c0.1,0.6,0.2,1.2,0.4,1.9c0.5,2.5,1.5,4.9,2.8,7.3c2.6,4.7,6.9,8.7,12.2,11.1
				c2.7,1.2,5.6,1.8,8.6,1.9c3,0.2,6.1-0.3,9-1.3l0.9-0.3l0.1,0l0.1,0.1c4.3,2.2,8.5,4.3,12.6,6.4l-0.4,0.3
				c-1.3-4.2-2.7-8.2-3.9-12.1l0-0.1l0.1-0.1c3.2-3.2,5.4-7.1,6.6-11c1.2-4,1.4-8,1-11.7c-0.5-3.7-1.7-7.1-3.3-9.9
				c-1.6-2.9-3.6-5.2-5.7-7c-2.1-1.8-4.3-3-6.2-3.9c-2-0.8-3.8-1.4-5.2-1.6c-0.7-0.1-1.4-0.2-2-0.3c-0.6,0-1-0.1-1.4-0.1
				c-0.4,0-0.7-0.1-0.9-0.1C35.7,135.8,35.6,135.8,35.6,135.8c0,0,0.1,0,0.3,0c0.2,0,0.5,0,0.9,0c0.4,0,0.9,0,1.5,0.1
				c0.6,0.1,1.2,0.2,2,0.3c1.5,0.3,3.3,0.8,5.3,1.6c2,0.9,4.2,2.1,6.3,3.9c2.1,1.8,4.2,4.1,5.8,7c1.7,2.9,2.9,6.3,3.4,10.1
				c0.5,3.8,0.3,7.9-0.9,11.9c-1.2,4-3.5,8-6.7,11.2l0.1-0.3c1.3,3.9,2.6,7.9,3.9,12.1l0.2,0.6l-0.6-0.3c-4.1-2.1-8.3-4.2-12.6-6.4
				l0.2,0l-0.9,0.3c-3,1-6.1,1.5-9.2,1.3c-3.1-0.1-6.1-0.8-8.8-2c-5.4-2.4-9.8-6.5-12.4-11.3c-1.3-2.4-2.3-4.9-2.8-7.4
				c-0.2-0.6-0.3-1.3-0.4-1.9c-0.1-0.6-0.2-1.2-0.2-1.9c0-1.2-0.2-2.5-0.1-3.7c0-2.4,0.6-4.7,1.2-6.9c0.7-2.1,1.5-4.1,2.6-5.9
				c2.1-3.5,4.8-6.3,7.4-8.1c2.7-1.9,5.3-3,7.5-3.6c0.6-0.1,1.1-0.3,1.6-0.4c0.5-0.1,1-0.2,1.4-0.2c0.9-0.1,1.6-0.3,2.2-0.2
				c0.6,0,1,0,1.4,0C35.4,135.8,35.6,135.8,35.6,135.8z"/>
		</g>
	</g>
	<g>
		<g>
			<path class="st1" d="M41.3,159.1h-1.8l-4-5.6v-3.7c0,0-2.9-0.2-2.5,4.7c0.3,4.8,0,3.6,0,3.6s-6.1,0-6.6,0.6
				c-0.4,0.4-0.5,6.4-0.6,9.7c0,1.6,1,3.2,2.5,3.6c0.2,0.1,0.4,0.1,0.7,0.1c1.5,0,9.2-1.2,9.2-1.2h3.2V159.1z"/>
		</g>
		<g>
			<polygon class="st1" points="46.6,158.1 45.4,170.8 42.3,170.8 42.3,158.4 			"/>
		</g>
	</g>
</g>
<g>
	<g>
		<g>
			<g>
				<path class="st1" d="M84.3,415.5v-8.6l-15.3-0.1l-0.1,12.9l1,0.1c4.2,0.3,21.5,0.7,24.4-0.2C97.3,418.6,84.3,415.5,84.3,415.5z"
					/>
			</g>
			<g>
				<g>
					<path class="st0" d="M94.5,418.8c0,0.1-5.7,0.3-12.8,0.3c-7.1,0-12.8-0.1-12.8-0.3c0-0.1,5.7-0.3,12.8-0.3
						C88.7,418.5,94.5,418.6,94.5,418.8z"/>
				</g>
			</g>
			<g>
				<g>
					<path class="st0" d="M84.5,417.2c-0.1-0.1,0-0.5,0.3-1c0.3-0.4,0.7-0.7,0.8-0.6c0.1,0.1-0.1,0.5-0.4,0.9
						C85,417,84.7,417.3,84.5,417.2z"/>
				</g>
			</g>
			<g>
				<g>
					<path class="st0" d="M85.5,417.8c-0.1,0-0.1-0.6,0.2-1.1c0.3-0.5,0.7-0.9,0.8-0.8c0.1,0.1-0.1,0.5-0.4,1
						C85.9,417.4,85.6,417.8,85.5,417.8z"/>
				</g>
			</g>
			<g>
				<g>
					<path class="st0" d="M73.5,418.7c-0.1,0-0.3-0.2-0.6-0.6c-0.3-0.4-0.8-0.9-1.3-1.3c-0.6-0.4-1.2-0.7-1.7-0.7
						c-0.5-0.1-0.8,0-0.8-0.1c0-0.1,0.3-0.3,0.8-0.3c0.5,0,1.3,0.2,2,0.7c0.6,0.5,1.1,1.1,1.3,1.5C73.4,418.4,73.5,418.7,73.5,418.7
						z"/>
				</g>
			</g>
			<g>
				<g>
					<path class="st0" d="M84.6,415.6c0.1,0.1-0.2,0.4-0.6,0.6c-0.4,0.2-0.8,0.1-0.9,0c0-0.1,0.3-0.3,0.7-0.5
						C84.2,415.5,84.5,415.5,84.6,415.6z"/>
				</g>
			</g>
			<g>
				<g>
					<path class="st0" d="M84.3,414.8c0,0.1-0.4,0.3-0.9,0.3c-0.5,0-0.9-0.1-0.9-0.2c0-0.1,0.4-0.3,0.9-0.3
						C83.9,414.5,84.3,414.6,84.3,414.8z"/>
				</g>
			</g>
		</g>
		<g>
			<g>
				<path class="st1" d="M122,415.5l0-8.6l-15.3-0.1l-0.1,12.8l1,0.1c4.2,0.3,21.5,0.8,24.4-0.1C135,418.6,122,415.5,122,415.5z"/>
			</g>
			<g>
				<g>
					<path class="st0" d="M132.2,418.8c0,0.1-5.7,0.3-12.8,0.3c-7.1,0-12.8-0.1-12.8-0.3c0-0.1,5.7-0.3,12.8-0.3
						C126.5,418.5,132.2,418.7,132.2,418.8z"/>
				</g>
			</g>
			<g>
				<g>
					<path class="st0" d="M122.3,417.2c-0.1-0.1,0-0.5,0.3-1c0.3-0.4,0.7-0.7,0.8-0.6c0.1,0.1-0.1,0.5-0.4,0.9
						C122.7,417,122.4,417.3,122.3,417.2z"/>
				</g>
			</g>
			<g>
				<g>
					<path class="st0" d="M123.3,417.8c-0.1,0-0.1-0.6,0.2-1.1c0.3-0.5,0.7-0.9,0.8-0.8c0.1,0.1-0.1,0.5-0.4,1
						C123.7,417.4,123.4,417.8,123.3,417.8z"/>
				</g>
			</g>
			<g>
				<g>
					<path class="st0" d="M111.2,418.7c-0.1,0-0.3-0.2-0.6-0.6c-0.3-0.4-0.8-0.9-1.3-1.3c-0.6-0.4-1.2-0.7-1.7-0.7
						c-0.5-0.1-0.8,0-0.8-0.1c0-0.1,0.3-0.3,0.8-0.3c0.5,0,1.3,0.2,2,0.7c0.6,0.5,1.1,1.1,1.3,1.5
						C111.2,418.4,111.3,418.7,111.2,418.7z"/>
				</g>
			</g>
			<g>
				<g>
					<path class="st0" d="M122.3,415.6c0.1,0.1-0.2,0.4-0.6,0.6c-0.4,0.2-0.8,0.1-0.9,0c0-0.1,0.3-0.3,0.7-0.5
						C121.9,415.5,122.3,415.5,122.3,415.6z"/>
				</g>
			</g>
			<g>
				<g>
					<path class="st0" d="M122.1,414.8c0,0.1-0.4,0.3-0.9,0.3c-0.5,0-0.9-0.1-0.9-0.2c0-0.1,0.4-0.3,0.9-0.3
						C121.7,414.5,122.1,414.6,122.1,414.8z"/>
				</g>
			</g>
		</g>
		<g>
			<path class="st11" d="M178.5,161.6c-0.4-0.4-1.4-0.2-1.4-0.2s0.2-1.2,0-1.7c-0.2-0.6-1.4-0.5-1.4-0.5s-0.1-0.5,0-1.4
				c0-0.2-0.1-0.4-0.3-0.5c-0.6-0.4-1.9-0.3-1.9-0.3c-0.8-0.6,2.4-4.9,3.5-6.3c1.1-1.4,1-2.5-0.1-2.5c-0.7,0-4.4,4.2-5.5,5.6
				c-1.1,1.4-4.1,5.3-4.2,2.2c-0.1-3.1-1.4-5.5-2.1-5.9c-0.8-0.4-1.6,0.5-1.2,1.4c0.4,0.7,0.6,2.1,0.7,3.1c0.1,0.8,0.1,1.7-0.1,2.5
				c-0.5,2.3-1.1,3.9-1.3,4.5l-0.1,0c0,0-21.8,20.9-23.4,22.4c-1.4,1.3-29.8-1.6-35.5-2.2c-1.6-0.2-3.9-0.5-5.8-0.4
				c-2.5,0.1-2.9,0.5-5.4,0.5c-7.6,0.1-13.8,0.8-18.5,1.6c-5.7,1-10.3,5-12.1,10.5c-5.7,17.9-18.7,60.3-21,84.1
				c-1.8,3.4-3.9,7.4-4.7,9.7c-1.6,4.4-1.2,4.5-0.7,4.6c1.5,0.3,3.1-7.6,3.7-5.7c0.6,1.9-3.2,9.4-1.6,9.6c2,0.3,3.6-8,3.8-8.7
				c0.2-0.7,1.2-0.4,1,0.2c-0.3,0.9-3.1,10.2-1.1,10.5c1.1,0.2,1.2-1.8,1.2-1.8s2-8.9,2.9-8.8c0.9,0.2-0.1,5.5-0.5,7.2
				c-0.5,1.7,0.2,2.7,1.1,2.2c0.6-0.3,2.2-5.6,2.6-7.4c0.4-1.7,1.5-6.6,2.9-3.8c1.4,2.8,3.5,4.4,4.4,4.4c0.9,0,1.3-1.2,0.5-1.8
				c-0.6-0.5-1.4-1.6-1.9-2.5c-0.4-0.7-0.8-1.5-1-2.3c-0.7-3.2-0.7-5.1-0.7-5.1l-0.2-1c2.2-11.1,8.7-43.6,18-64.4l3.8,7.9l1.7,5.8
				L66.4,252l43.4-0.6l-6.5-24.9l7.9-26l0,0c8.5,0.2,30.4,0.5,34-1.1c4.6-2,28.3-31.9,28.3-31.9h0c1.6-1.3,3.2-2.6,4.4-3.8
				C177.9,163.6,179.4,162.4,178.5,161.6z"/>
		</g>
		<g>
			<g>
				<path class="st1" d="M64.5,233.5c1.3-4.3,7.7-25.6,7.7-25.6s3.2,17.3,2.3,19.4c-1,2.4-2.7,5.2-2.7,5.2
					c-7.3,11.2-6.4,16.8-6.4,16.8l44.3-1.4c0.1-6.2-3.6-20.6-4.3-22.9c-0.8-2.3,1.8-9.8,1.8-9.8s5-5.1,4.8-7.7c-0.4-5.3-0.9-7-0.9-7
					l27,1l-0.8-18.3l-38.8-3.9c-1.3,3.8-13.6,1.9-13.6,1.9c-13.2,0.4-14,2.9-19.5,7.1C60,192.6,51,229.2,51,229.2L64.5,233.5z"/>
			</g>
			<g>
				<g>
					<path class="st0" d="M90.7,229.2c0,0.1-0.9,0.1-2.3,0.1c-1.4,0-3.4-0.1-5.6-0.3c-2.2-0.2-4.2-0.5-5.6-0.8
						c-1.4-0.3-2.3-0.5-2.3-0.6c0-0.1,0.9,0,2.3,0.2c1.4,0.2,3.4,0.4,5.6,0.7c2.2,0.2,4.2,0.4,5.6,0.5
						C89.8,229,90.7,229.1,90.7,229.2z"/>
				</g>
			</g>
			<g>
				<g>
					<path class="st0" d="M93.8,225.4c0,0.1-0.9,0.4-2.4,0.8c-1.5,0.4-3.7,0.9-6.1,1.2c-2.4,0.3-4.6,0.3-6.2,0.3
						c-1.6,0-2.5-0.2-2.5-0.2c0-0.1,1-0.1,2.5-0.1c1.6,0,3.7-0.2,6.1-0.4c2.4-0.3,4.5-0.7,6-1C92.8,225.5,93.7,225.3,93.8,225.4z"/>
				</g>
			</g>
			<g>
				<g>
					<path class="st0" d="M108.7,208.6c0.1,0,0,0.9-0.3,2.3c-0.3,1.4-0.7,3.3-1.2,5.4c-0.5,2.1-1,4-1.4,5.3
						c-0.4,1.3-0.7,2.2-0.8,2.1c-0.1,0,0.1-0.9,0.4-2.2c0.4-1.6,0.8-3.4,1.3-5.3c0.5-2,0.9-3.8,1.3-5.3
						C108.4,209.4,108.6,208.6,108.7,208.6z"/>
				</g>
			</g>
			<g>
				<g>
					<path class="st0" d="M65,231c0,0.1-3.1-0.6-6.8-1.6c-3.7-1-6.7-2-6.7-2.1c0-0.1,3.1,0.6,6.8,1.6C62,229.9,65,230.8,65,231z"/>
				</g>
			</g>
			<g>
				<g>
					<path class="st0" d="M111.7,200.3c0,0-0.4,0.1-1.1,0c-0.7-0.1-1.8-0.2-3-0.7c-1.2-0.5-2.7-1.2-4-2.4c-1.3-1.2-2.5-2.8-3.3-4.7
						c-0.8-1.9-1-3.9-0.9-5.6c0.1-1.8,0.6-3.3,1.4-4.5c0.8-1.1,1.8-1.7,2.5-1.9c0.4-0.1,0.7-0.1,0.9-0.1c0.2,0,0.3,0,0.3,0
						c0,0-0.4,0-1.1,0.3c-0.7,0.2-1.6,0.8-2.3,1.9c-1.4,2.1-1.7,6-0.3,9.7c0.7,1.8,1.8,3.4,3.1,4.5c1.3,1.2,2.6,1.9,3.8,2.4
						C110,200.2,111.7,200.1,111.7,200.3z"/>
				</g>
			</g>
			<g>
				<g>
					<path class="st0" d="M135,201.1c-0.1,0-0.3-4.1-0.2-9.2c0-5.1,0.1-9.2,0.3-9.2c0.1,0,0.3,4.1,0.2,9.2
						C135.3,197,135.1,201.1,135,201.1z"/>
				</g>
			</g>
		</g>
		<g>
			<g>
				<path class="st11" d="M98.3,180.4c0.1-2.2,0.3-4.8,0.3-4.8s5.5-0.6,5.9-6.3c0.3-5.7,0-18.8,0-18.8l-10.1-5.1l-11.1,8.7l1.7,28.5
					l10.2,0.6C96.9,183.4,98.2,182.1,98.3,180.4z"/>
			</g>
			<g>
				<g>
					<path class="st12" d="M99.3,164.8c0,0,0,0.1-0.1,0.2c-0.1,0.1-0.3,0.3-0.6,0.3c-0.6,0-1.3-0.7-1.5-1.6c-0.1-0.4-0.1-0.9,0-1.3
						c0.1-0.4,0.3-0.8,0.6-0.9c0.1-0.1,0.3,0,0.4,0c0.1,0.1,0.2,0.1,0.2,0.2c0.1,0.2,0,0.3,0,0.3c0,0,0-0.1-0.1-0.2
						c-0.1-0.1-0.3-0.2-0.5-0.1c-0.2,0.1-0.4,0.4-0.4,0.7c-0.1,0.3-0.1,0.7,0,1.1c0.2,0.8,0.7,1.4,1.2,1.5c0.2,0,0.4-0.1,0.5-0.1
						C99.2,164.9,99.3,164.8,99.3,164.8z"/>
				</g>
			</g>
			<g>
				<path class="st0" d="M107.9,147.4c-0.8-2.6-3.6-3.9-6.1-4.6c-3.9-1.1-8.1-1.6-11.8-0.2c-3.8,1.4-8.3,3.8-8.3,8
					c-2.2-0.2-3.5,1.8-4.4,4.2c-0.5,1.4-0.9,3-0.9,4.6l0,0c-0.3,5.5-1.8,13-5.4,17c-2,2.2-4.8,3.8-5.9,6.6c-1,2.4-0.5,5.3-1.4,7.7
					c-0.8,2.2-2.7,3.7-4,5.6c-2.9,4.1-3.1,9.8-1,14.4c2.1,4.6,6.3,7.9,10.9,9.4c4.6,1.5,9.7,1.4,14.4,0.1c3.5-0.9,6.9-2.4,9.6-4.8
					c2.8-2.4,4.9-5.7,5.5-9.3c0.7-4.1-0.4-8.2-1.3-12.3c-2.7-12.8-1.9-13.5,1.5-25.4c0.1-0.2,0.1-0.4,0.2-0.6c0-0.2,0.1-0.3,0.1-0.5
					l0,0c0.1-0.5,0.2-0.9,0.2-1.4c-1,0.4-2.1,0.1-2.9-0.6c-0.7-0.8-1-2-0.7-3c0.4-1.2,1.5-2,2.6-2.4s2.3-0.7,3.4-1.2
					c2.3-1.1,3.9-3.4,5-5.8C107.9,151.1,108.5,149.2,107.9,147.4z"/>
			</g>
			<g>
				<g>
					<path class="st1" d="M99.7,165.1c0,0,0.2,0.4,0.5,1c0.3,0.6,0.7,1.5,1.1,2.5l0.1,0.2l-0.2,0c-0.3,0-0.7,0.1-1,0.1
						c-0.7,0-1.3,0.1-2,0.1c-0.1,0-0.2-0.1-0.3-0.2c0-0.1,0-0.2,0-0.3c0-0.2,0.1-0.3,0.1-0.4l0.2-0.7c0.2-0.9,0.4-1.4,0.4-1.4
						c0,0,0,0.6-0.2,1.4l-0.1,0.7c-0.1,0.2-0.1,0.6,0,0.6c0.5,0,1.2-0.1,1.9-0.2c0.3,0,0.7-0.1,1-0.1l-0.1,0.2c-0.4-1-0.8-1.9-1-2.6
						C99.8,165.5,99.7,165.1,99.7,165.1z"/>
				</g>
			</g>
		</g>
		<g>
			<g>
				<path class="st0" d="M65.5,249.3l44.3-1.4l19.3,75.3l-3.6,86.4h-23.5l2.9-84.6l-17.2-52.4L90.5,413l-23.7,0.3l-2.5-131.9
					c-0.1-3.7-1.3-11.9-0.9-15.6L65.5,249.3z"/>
			</g>
			<g>
				<g>
					<path class="st2" d="M93.7,273.7c0,0.1-0.8,0-2.2-0.1s-3.2-0.4-5.2-0.8c-2-0.4-3.8-0.9-5.1-1.2c-1.3-0.4-2.1-0.7-2.1-0.7
						c0-0.1,3.3,0.6,7.3,1.4C90.5,273.1,93.8,273.6,93.7,273.7z"/>
				</g>
			</g>
			<g>
				<g>
					<path class="st2" d="M125.3,404.9c0,0.1-5.3,0.3-11.9,0.3c-6.6,0-11.9-0.1-11.9-0.3c0-0.1,5.3-0.3,11.9-0.3
						C120,404.7,125.3,404.8,125.3,404.9z"/>
				</g>
			</g>
			<g>
				<g>
					<path class="st2" d="M90.3,409.4c0,0.1-5.2,0.3-11.5,0.3c-6.4,0-11.5-0.1-11.5-0.3c0-0.1,5.2-0.3,11.5-0.3
						C85.1,409.1,90.3,409.2,90.3,409.4z"/>
				</g>
			</g>
			<g>
				<g>
					<path class="st2" d="M87.2,409c-0.1,0-0.8-30.7-1.4-68.5c-0.6-37.8-1-68.5-0.9-68.5c0.1,0,0.8,30.7,1.4,68.5
						C87,378.4,87.3,409,87.2,409z"/>
				</g>
			</g>
			<g>
				<g>
					<path class="st2" d="M122.2,404.9c0,0,0-0.1,0-0.4c0-0.3,0-0.7,0-1.2c0-1.1,0.1-2.6,0.1-4.6c0.1-4,0.3-9.8,0.6-16.9
						c0.5-14.3,1.3-34.1,2.1-55.8c0-0.2,0-0.4,0-0.6l0,0.1c-5.3-21-10-40.1-13.4-53.9c-1.7-6.9-3.1-12.4-4-16.3
						c-0.5-1.9-0.8-3.4-1.1-4.4c-0.1-0.5-0.2-0.9-0.3-1.2c-0.1-0.3-0.1-0.4-0.1-0.4c0,0,0.1,0.1,0.1,0.4c0.1,0.3,0.2,0.7,0.3,1.1
						c0.3,1,0.7,2.5,1.2,4.4c1,3.9,2.4,9.4,4.2,16.3c3.5,13.8,8.3,32.8,13.6,53.8l0,0l0,0c0,0.2,0,0.4,0,0.6
						c-0.9,21.8-1.7,41.5-2.3,55.8c-0.3,7.1-0.6,12.9-0.8,16.9c-0.1,2-0.2,3.5-0.2,4.6c0,0.5-0.1,0.9-0.1,1.2
						C122.2,404.8,122.2,404.9,122.2,404.9z"/>
				</g>
			</g>
			<g>
				<g>
					<path class="st2" d="M114.5,323.6c0,0.1-2.3,0.7-5.2,1.2c-2.2,0.4-4,0.6-4.8,0.7l0-0.2c0.3,0.1,0.4,0.1,0.4,0.2
						c0,0-0.2,0-0.4,0l-0.6,0l0.6-0.2c0.8-0.2,2.6-0.6,4.8-1C112.1,323.8,114.5,323.5,114.5,323.6z"/>
				</g>
			</g>
			<g>
				<g>
					<path class="st2" d="M114.1,326.5c0,0.1-2.1,0-4.7-0.2c-2.6-0.2-4.6-0.4-4.6-0.5c0-0.1,2.1-0.2,4.7,0
						C112,326,114.1,326.3,114.1,326.5z"/>
				</g>
			</g>
			<g>
				<path class="st10" d="M65.3,250.9c1.1,1.5,2.6,2,4.4,2.3c1.8,0.3,3.6,0.1,5.4-0.1c11.4-1.3,23.6-2.4,34.8-5.2
					c-14.5,0.8-29.8,0.5-44.3,1.4c0,0-0.1,1-0.2,1.2"/>
			</g>
			<g class="st10">
				<polygon points="80.2,271.3 88.4,303.1 87.8,272.7 				"/>
			</g>
		</g>
	</g>
</g>
</svg>
