<?xml version="1.0" encoding="utf-8"?>
<!-- Generator: Adobe Illustrator 23.0.0, SVG Export Plug-In . SVG Version: 6.00 Build 0)  -->
<svg version="1.1" id="Layer_1" xmlns="http://www.w3.org/2000/svg" xmlns:xlink="http://www.w3.org/1999/xlink" x="0px" y="0px"
	 width="63.4px" height="61.9px" viewBox="0 0 63.4 61.9" style="enable-background:new 0 0 63.4 61.9;" xml:space="preserve">
<style type="text/css">
	.st0{fill:#634085;}
	.st1{fill:#F8A48D;}
	.st2{fill:#6F4F8F;}
	.st3{fill:#705190;}
	.st4{fill:#6E4E8F;}
	.st5{fill:#80649D;}
	.st6{fill:#6D4D8D;}
	.st7{fill:#705090;}
	.st8{fill:#A490B9;}
	.st9{fill:#AF9DC0;}
	.st10{fill:#B6A6C6;}
	.st11{fill:#B09FC2;}
	.st12{fill:#BEAFCC;}
	.st13{fill:#B36E59;}
	.st14{fill:#FECABD;}
	.st15{fill:#FEDCCD;}
	.st16{fill:#E1B786;}
	.st17{fill:#A45E4D;}
	.st18{fill:#E1A670;}
	.st19{fill:#F8A48E;}
	.st20{fill:#634086;}
	.st21{fill:#A55E4D;}
	.st22{fill:#78CFB0;}
	.st23{fill:#F8A58E;}
	.st24{fill:#F7A58E;}
	.st25{fill:#E3A874;}
	.st26{fill:#DC636E;}
	.st27{fill:#61A1F8;}
	.st28{fill:#E1A770;}
	.st29{fill:#B36D59;}
	.st30{fill:#A45E4E;}
</style>
<g>
	<path class="st0" d="M32.9,1.3c0.2,0,0.4,0,0.6,0c0.1,0.1,0.2,0.1,0.4,0c0.1,0,0.2,0,0.4,0c1.3,0.1,2.7,0.2,4,0.5
		c2,0.5,4,1.1,5.9,1.9c0.2,0.1,0.5,0.2,0.6,0.5c0,0.1,0,0.2-0.1,0.2c-0.9,0.8-1,1.8-0.9,2.9c0,2.9,0,5.9,0,8.8c0,0.3,0,0.6-0.1,0.9
		c-0.2,0.4-0.4,0.1-0.6,0c-0.6-0.6-1.2-1.2-1.8-1.8c-0.9-0.9-1.8-1.1-3-0.6c-1.6,1-1.8,2.7-0.5,4.1c2.6,2.6,5.2,5.3,7.9,7.8
		c0.7,0.7,1.2,1.6,1.2,2.6c0,2.4,0.1,4.9,0,7.3c-0.1,0.2,0,0.5-0.4,0.4c-0.2-0.2-0.1-0.5-0.1-0.7c0-1,0-2,0-3c0-1.2-0.5-2.1-1.7-2.5
		c-0.9-0.3-1.8,0.1-2.4,1.1C42,31.8,42,32.2,41.6,32c-0.2-0.5-0.1-1-0.1-1.5c0.1-1.2-0.5-1.9-1.5-2.4c-1.4-0.4-2.7,0.6-2.8,2.1
		c0,0.5,0.1,0.9-0.1,1.4c-0.3,0.2-0.4-0.1-0.4-0.3c-0.3-0.7-0.9-1.1-1.6-1.2c-0.2-0.1-0.4-0.1-0.5-0.3c-0.1-0.2,0-0.5,0.1-0.7
		c0.3-1,0.4-2.1,0.4-3.2c0-3,0-6,0-9c0-0.9-0.3-1.6-1.1-2c-0.8-0.3-1.5-0.1-2,0.5c-0.1,0.1-0.2,0.4-0.5,0.3
		c-0.2-0.1-0.2-0.4-0.2-0.6c0-1.1,0-2.1,0-3.2c0-0.1,0-0.2,0-0.3c-0.1-1.1-0.7-1.8-1.8-2c-0.9-0.2-1.8,0.3-2.3,1.1
		c-0.1,0.2-0.1,0.5-0.4,0.4c-0.2-0.5-0.1-1-0.1-1.6c0-1.2-0.5-1.9-1.6-2.3C23.5,7,22.3,8,22.2,9.7c0,0.3,0.1,0.8-0.2,1
		c-0.1,0-0.2-0.1-0.2-0.2c-0.4-0.7-0.9-1.1-1.6-1.2c-1.5-0.1-2.5,0.8-2.5,2.3c0,3.2,0,6.4,0,9.6c0,0.3,0,0.6-0.1,0.9
		c-0.2,0.4-0.4,0.1-0.6-0.1c-0.6-0.6-1.3-1.2-1.9-1.9c-0.8-0.9-1.8-1.1-2.9-0.6c-1.6,0.9-1.9,2.7-0.7,4c0.6,0.7,1.3,1.3,1.9,2
		c0.2,0.2,0.5,0.4,0.3,0.8c-0.6,0.7-0.8,1.4-0.7,2.3c0,0.3,0,0.5-0.1,0.8c-0.3,0.2-0.4-0.1-0.4-0.3c-0.3-0.6-0.8-1-1.4-1.1
		c-1.5-0.3-2.7,0.7-2.7,2.3c0,1.7,0,3.5,0,5.2c0,1.5,0,3,0,4.5c0,0.3,0,0.6-0.1,0.8c-0.3,0.4-0.4,0.1-0.6-0.1
		C7.1,40.2,6.5,39.6,6,39c-0.9-0.9-1.9-1.2-3-0.6c-0.3,0-0.4,0.4-0.7,0.2c-0.4-1-0.5-2.1-0.6-3.1c0-0.4,0-0.8-0.1-1.2
		c0-0.5,0-0.9,0-1.4c0.1-0.3,0.1-0.6,0-0.8c0-0.4,0-0.8,0-1.2c0.1-0.2,0.1-0.5,0-0.7c0-0.4,0-0.7,0-1.1c0.1-1.3,0.2-2.5,0.5-3.8
		c1.1-4.9,3.2-9.3,6.4-13.1c2.7-3.2,5.9-5.7,9.6-7.6c3-1.5,6.2-2.6,9.6-3c0.6-0.1,1.1,0,1.7-0.1c0.2,0,0.3,0,0.5,0
		c0.1,0.1,0.2,0.1,0.2,0c0.2,0,0.4,0,0.6,0c0.3,0.1,0.6,0.1,0.8,0c0.2,0,0.5,0,0.7,0C32.4,1.4,32.6,1.4,32.9,1.3z"/>
	<path class="st0" d="M61,23.9c0.5,1.7,0.7,3.3,0.9,5c0,0.1,0,0.2,0.1,0.3c0,0.1,0,0.2,0,0.4c-0.1,0.1-0.1,0.2,0,0.4
		c0,0.2,0,0.5,0,0.7c-0.1,0.2-0.1,0.5,0,0.7c0,0.2,0,0.4,0,0.6c-0.1,0.2-0.1,0.5,0,0.7c0,0.2,0,0.3,0,0.5c-0.1,0.1,0,0.2-0.1,0.3
		c0,0.1,0,0.2,0.1,0.3c0,0.2,0,0.3,0,0.5c-0.3,0.6-0.2,1.2-0.3,1.9c-0.5,3-1.3,5.9-2.7,8.7c-0.3-0.1-0.3-0.4-0.3-0.7
		c0-5,0-9.9,0-14.9c0-0.9,0.3-1.8,0.7-2.7c0.4-0.7,0.9-1.4,1.1-2.2C60.7,24.1,60.8,23.9,61,23.9z"/>
	<path class="st1" d="M14.4,56.5c-1.1-0.8-2.2-1.5-3.1-2.5c-0.2-0.3-0.1-0.6-0.1-0.9c0-1-0.3-1.9-1.1-2.6c-1.7-1.6-3.3-3.3-4.9-4.9
		c-0.3-0.3-0.5-0.6-0.8-0.9c-0.4-0.7-1-1.1-1.5-1.7c-0.6-0.6-1.1-1.1-1.5-1.9c0-0.4,0-0.9,0-1.3c0.2-0.5,0.2-1.1,0.9-1.3
		c0.2-0.1,0.3-0.3,0.6-0.3c0.2,0.2,0.1,0.4,0.1,0.6c-0.1,0.9,0.1,1.6,0.8,2.3c3.3,3.2,6.5,6.5,9.8,9.7c0.9,0.9,1.3,1.8,1.3,3.1
		c0,0.7,0,1.4,0,2.1C14.7,56.1,14.8,56.4,14.4,56.5z"/>
	<path class="st2" d="M-413.8,173.3c1.2,1.8,1.2,3.5,0,5.3C-413.8,176.8-413.8,175.1-413.8,173.3z"/>
	<path class="st3" d="M31.4,1.3c-0.3,0.2-0.6,0.2-0.8,0C30.8,1.3,31.1,1.3,31.4,1.3z"/>
	<path class="st4" d="M32.9,1.3c-0.3,0.2-0.6,0.2-0.8,0C32.4,1.3,32.6,1.3,32.9,1.3z"/>
	<path class="st5" d="M-413.8,161.3c1.2,1.5,1.1,3,0,4.5C-413.8,164.3-413.8,162.8-413.8,161.3z"/>
	<path class="st6" d="M62,31.4c-0.2-0.2-0.2-0.5,0-0.7C62,30.9,62,31.1,62,31.4z"/>
	<path class="st7" d="M62,32.7c-0.2-0.2-0.2-0.5,0-0.7C62,32.2,62,32.4,62,32.7z"/>
	<path class="st8" d="M61.9,33.5c0-0.1,0-0.3,0.1-0.4C62,33.3,62,33.4,61.9,33.5C62,33.5,62,33.5,61.9,33.5z"/>
	<path class="st9" d="M62,29.9c-0.2-0.1-0.2-0.2,0-0.4C62,29.7,62,29.8,62,29.9z"/>
	<path class="st10" d="M33.9,1.3c-0.1,0.2-0.2,0.1-0.4,0C33.6,1.3,33.7,1.3,33.9,1.3z"/>
	<path class="st11" d="M29.9,1.3c-0.1,0.1-0.2,0.1-0.2,0C29.8,1.3,29.9,1.3,29.9,1.3z"/>
	<path class="st12" d="M61.9,33.5C61.9,33.5,62,33.5,61.9,33.5c0.1,0.1,0.1,0.2,0.1,0.2C61.9,33.7,61.9,33.6,61.9,33.5z"/>
	<path class="st13" d="M61,23.9c-0.5,1.7-1.8,3-2,4.7c0,0.2-0.1,0.4-0.1,0.6c0,5,0,10,0,15c0,0.2,0,0.4,0.1,0.5
		c-1.4,2.9-3.2,5.5-5.4,7.8c-1.2,1.2-2.4,2.4-3.8,3.3c-0.2-0.3-0.2-0.6-0.2-0.9c0-1.5,0-3.1,0-4.6c0.8-4.2,0.2-8.4,0.4-12.7
		c0-0.5-0.1-0.9-0.3-1.4c0-2.1,0-4.2,0-6.3c0-1.1-0.3-2-1.1-2.7c-3.3-3.3-6.5-6.5-9.8-9.8c-0.6-0.6-1-1.4-0.9-2.3
		c0-0.3,0.1-0.6,0.3-0.9c1.2-0.5,2.3-0.3,3.2,0.7c0.7,0.7,1.4,1.4,2.1,2.1c0.6,0.5,1.3,0.5,2,0.5c0.6,0,1.2-0.1,1.8,0.1
		c1.7,0.4,2.8,1.4,3.4,3c0.1,0.4,0.4,0.7,0.9,0.6c0.5-0.1,0.6-0.4,0.6-0.9c0-0.8,0-1.6,0-2.4c0-0.7,0.1-0.8,0.8-0.8
		c0.6,0,1.2,0,1.9-0.1c0.9-0.2,1.6-0.6,2.1-1.4c0.1-0.2,0.2-0.4,0.5-0.5c0.3,0.1,0.2,0.4,0.3,0.7c0,0.2,0,0.4,0.1,0.7
		c0.4-0.2,0.4-0.5,0.4-0.9c0-1.3,0-2.5,0-3.8c0-0.3,0-0.7,0.1-1c0.2-0.7,0.6-1.3,1.4-1.5c1.1,0.3,1.7,0.9,1.7,2c0,3.3,0,6.6,0,9.9
		C61.3,22.3,61.1,23.1,61,23.9z"/>
	<path class="st14" d="M14.4,56.5c0,0,0.1-0.1,0.1-0.1c0-1.2,0.1-2.4-0.1-3.6c-0.1-0.6-0.4-1.2-0.9-1.6c-3.2-3.2-6.4-6.4-9.6-9.6
		c-1-1-1.4-2-1.1-3.3c1.1-0.6,2.1-0.4,3,0.5c0.8,0.7,1.5,1.5,2.3,2.3c0.6,0.5,1.3,0.5,2,0.5c0.7,0,1.4,0,2.1,0.2
		c0.3,0.1,0.5,0.1,0.7,0.3c0.1,0.2,0.1,0.5,0.1,0.7c0,0.8,0,1.6,0,2.4c0,0.2,0,0.5,0.1,0.7c0.1,0.3,0.4,0.5,0.7,0.5
		c0.4,0,0.6-0.3,0.6-0.6c0-0.3,0-0.7,0-1.1c0-0.3,0-0.6,0.1-0.9c0.2-0.3,0.3-0.1,0.4,0c0.2,0.2,0.2,0.5,0.4,0.7
		c0.1,0.2,0.2,0.3,0.4,0.3c0.2-0.1,0.1-0.3,0.1-0.5c-0.2-0.6-0.5-1.1-0.9-1.5c-0.1-0.2-0.3-0.3-0.4-0.6c-0.1-0.5,0.2-0.7,0.7-0.7
		c1.3,0,2.6,0,3.8,0c0.6,0,0.7,0.2,0.7,0.8c0,1,0,2,0,3c0,0.7,0.3,1.1,0.7,1.1c0.5,0,0.7-0.4,0.7-1.1c0-2.9,0-5.9,0-8.8
		c0-0.7-0.2-1.1-0.7-1.1c-0.5,0-0.7,0.4-0.7,1.1c0,0.9,0,1.8,0,2.7c0,0.7-0.2,0.9-0.9,0.9c-1.2,0-2.4,0-3.6,0
		c-0.7,0-0.8-0.2-0.9-0.9c0-0.8,0-1.6,0-2.4c0-0.6-0.1-1.2-0.6-1.6c-0.1-0.2-0.1-0.5-0.1-0.7c0-2,0-3.9,0-5.9c0-1.2,0.5-2.2,1.7-2.7
		c0.1,0,0.3-0.1,0.4,0c0.9,0.3,1.5,0.9,1.7,1.8c0,0.1,0,0.3,0,0.4c0,3.1,0,6.2,0,9.3c0,0.1,0,0.2,0,0.2c0,0.2-0.1,0.6,0.2,0.6
		c0.3,0,0.4-0.2,0.5-0.5c0.1-0.3,0.1-0.6,0.1-0.9c0-2,0-4,0-6c0-1.3,0.5-2.1,1.8-2.6c1.1,0.1,2,1,2.1,2.2c0,0.6,0,1.2,0,1.8
		c0,0.8,0,1.6,0,2.4c0,1.7,0,3.3,0,5c0,0.2,0,0.3,0,0.5c0,0.1,0,0.3,0.1,0.3c0.1,0,0.2-0.1,0.2-0.2c0.1-0.2,0.1-0.5,0.1-0.7
		c0-1.2,0-2.4,0-3.5c0-0.7,0.1-1.3,0.5-1.9c0.3-0.3,0.6-0.6,1-0.7c1.1,0.1,1.7,0.9,1.8,2c0,1.6,0,3.2,0,4.7c0,0.2,0,0.4,0,0.6
		c0.3,0,0.4-0.3,0.7-0.2c0.3,0.1,0.2,0.3,0.1,0.5c-0.2,1.1,0.3,2,1,2.7c3.2,3.2,6.4,6.4,9.6,9.5c0.9,0.9,1.3,1.8,1.2,3
		c0,1.4,0,2.8,0,4.2c0,0.3,0,0.5-0.2,0.7c-1,0.3-2.1,0.5-3.2,0.6c-0.2-0.2-0.1-0.5-0.1-0.8c0-1.8,0-3.5,0-5.3c0-1.1-0.3-2.1-1.2-2.9
		c-0.4-0.4-0.9-0.8-1.2-1.3c-2.2-2.2-4.5-4.4-6.7-6.8c0,0,0-0.1,0-0.1c0,0.7,0,1.4-0.1,2.2c-0.2,1.3-0.7,2.5-1.4,3.6
		c-0.6,1-0.9,2.1-0.9,3.3c0,2.2,0,4.3,0,6.5c0,0.3,0,0.6-0.1,0.8c-1-0.2-2-0.5-2.9-0.9C18.6,58.9,16.4,57.9,14.4,56.5z"/>
	<path class="st15" d="M38.7,61.1c0-1.8,0-3.6,0-5.4c0-0.9-0.3-1.6-0.9-2.3c-3.2-3.2-6.5-6.5-9.7-9.7c-1-1-1.5-2-1.1-3.4
		c0.6-0.6,1.3-0.4,2-0.3c0.5,0.1,0.8,0.3,1.2,0.7c0.8,0.7,1.5,1.5,2.2,2.3c0.4,0.5,1,0.7,1.7,0.6c0.4,0,0.9,0,1.4,0
		c1.4,0,2.6,0.6,3.5,1.7c0.3,0.4,0.3,0.9,0.5,1.3c0.2,0.3,0.4,0.5,0.8,0.5c1.1,0.1,2.1,0.1,3.2,0c0.4-0.1,0.8-0.2,0.7-0.7
		c0-0.4-0.4-0.7-0.9-0.6c-0.5,0-0.9,0-1.4,0c-0.9,0-1-0.1-1-1c0-2.2,0-4.5,0-6.7c0-0.4,0-0.7,0-1.1c0-0.4-0.2-0.7-0.6-0.8
		c-0.4-0.1-0.7,0.1-0.9,0.5c-0.1,0.2-0.1,0.5-0.1,0.8c0,2.1,0,4.1,0,6.2c0,0.2,0,0.3,0,0.5c0,0.2,0,0.4-0.2,0.5
		c-0.2,0.1-0.3,0-0.5-0.2c-1.1-1-2.4-1.2-3.8-1.3c-0.2,0-0.3,0-0.5,0c-0.8,0-0.9-0.1-0.9-0.9c0-2.3,0-4.7,0-7c0-1,0-2,0-3
		c0-1.2,0.8-2.1,1.9-2.1c1,0.1,1.4,0.9,1.8,1.6c0.3,0.4,0.2,0.9,0.2,1.3c0,2.2,0,4.4,0,6.6c0,0.2-0.1,0.6,0.2,0.6
		c0.3,0,0.4-0.3,0.5-0.6c0.1-0.3,0-0.5,0-0.8c0-2.7,0-5.4,0-8.1c0-0.7,0.1-1.4,0.5-2c0.4-0.5,0.8-0.9,1.5-0.7c1,0.3,1.6,1,1.7,2
		c0,0.7,0,1.3,0,2c0.2,0.3,0.2,0.6,0.2,0.9c0,2.1,0,4.1,0,6.2c0,0.2,0,0.4,0,0.5c0,0.2-0.1,0.6,0.2,0.6c0.3,0,0.4-0.3,0.5-0.6
		c0.1-0.3,0.1-0.6,0.1-0.9c0-2,0-4,0-6c0-0.6,0.1-1.2,0.6-1.8c0.3-0.4,0.7-0.7,1.3-0.7c1.2,0.3,1.9,1.1,1.9,2.3c0,1.4,0,2.7,0,4.1
		c0.2,0.2,0.2,0.5,0.2,0.8c0,1.4,0,2.8,0,4.2c0,0.2,0,0.3,0,0.5c0,0.1,0,0.2,0.1,0.2c0.1,0,0.1,0,0.2-0.1c0.1-0.2,0.1-0.5,0.1-0.7
		c0-1.2,0-2.4,0-3.5c0-0.5,0-0.9,0.2-1.4c0.3-0.7,0.7-1.2,1.5-1.2c0.4,0,0.8,0.2,1,0.6c0.3,0.5,0.5,1,0.5,1.6c0,3,0,6.1,0,9.1
		c0,1.2-0.1,2.4-0.5,3.5c0,0.6-0.3,1.2-0.6,1.6c-0.9,1.3-1.2,2.8-1.2,4.3c0,0.3,0.1,0.7-0.1,1c-0.1,0.1-0.3,0.3-0.5,0.4
		c-2.7,1.5-5.5,2.7-8.5,3.4C38.8,61.1,38.8,61.1,38.7,61.1z"/>
	<path class="st16" d="M32.2,43.1c-0.8-0.8-1.5-1.6-2.3-2.3C29,40,28,39.9,27,40.4c-0.4,0.1-0.6,0.4-0.9,0.6
		c-0.2-0.1-0.1-0.3-0.1-0.4c0-1.8,0-3.6,0-5.3c0-1-0.6-1.7-1.5-1.8c-0.3-0.1-0.7,0.2-1,0.1c-0.5-0.4-0.9-0.9-1.2-1.4
		c0-0.4,0-0.8,0-1.2c0-1.5-0.4-2.2-1.9-2.7c-0.5,0.2-1,0.2-1.5,0.3c-0.6-0.1-0.9-0.7-1.3-1c-0.3-0.8-0.8-1.3-1.5-1.7
		c-0.4-0.2-0.7-0.5-1-0.8c-0.8-0.8-1.7-1.7-2.5-2.5c-0.8-0.8-0.9-2.1-0.4-2.9c1.1-0.5,2.1-0.3,3,0.5c0.8,0.8,1.5,1.5,2.3,2.3
		c0.6,0.5,1.3,0.5,2.1,0.5s1.5-0.1,2.2,0.1c0.9,0.3,1.6,0.7,2.2,1.4c0.2,0.5,0.3,0.9,0.1,1.4c-0.2,0.6-0.2,0.6,0.4,0.6
		c1.4,0.1,2.9,0,4.3,0c0.5,0,0.8-0.3,0.8-0.6c0-0.4-0.3-0.7-0.8-0.7c-0.7-0.1-1.5,0-2.2,0c-0.7,0-0.8-0.1-0.9-0.8c0-0.6,0-1.2,0-1.8
		c0-0.5,0.2-0.7,0.7-0.7c0.6,0,1.1,0,1.7,0c0.1,0,0.2,0,0.3,0c0.6,0,1-0.3,1-0.7c0-0.4-0.4-0.7-1-0.7c-0.6,0-1.3,0-1.9,0
		c-0.5,0-0.7-0.2-0.7-0.7c0-0.7,0-1.3,0-2c0-0.5,0.2-0.7,0.7-0.7c0.7,0,1.3,0,2,0c0.2,0,0.4,0,0.6,0c0.3-0.1,0.6-0.3,0.6-0.6
		c0-0.4-0.2-0.6-0.5-0.7c-0.3-0.1-0.7,0-1-0.2c0-0.1,0,0,0,0c-0.2-1.5-0.3-2.9,0-4.3c0.2-0.7,0.7-1.2,1.5-1.4c1.2,0.2,1.8,0.9,1.9,2
		c0.1,1.1-0.1,2.2,0.1,3.2c0.3,2.1,0.2,4.3,0.2,6.4c0,0.1,0,0.4,0.2,0.4c0.2,0,0.2-0.2,0.3-0.3c0-0.2,0-0.4,0-0.6c0-1.2,0-2.4,0-3.7
		c0-0.6,0.1-1.1,0.4-1.6c0.3-0.5,0.8-0.8,1.4-0.6c0.8,0.3,1.3,0.9,1.3,1.8c0,3.5,0,7,0,10.4c0,1-0.3,2-0.6,2.9
		c-0.1,0.1-0.3,0.2-0.5,0.2c-1.1,0.4-1.7,1.1-1.7,2.3c0,1.4,0,2.7,0,4.1c0,1.9,0,3.8,0,5.7C32.5,42.6,32.6,42.9,32.2,43.1z"/>
	<path class="st16" d="M24.2,26.5c-0.2,0.1-0.4,0.1-0.6-0.1c-0.2-0.2-0.1-0.4,0.1-0.6c0.3-0.4,0.2-0.9,0-1.3
		c0.1-0.9-0.4-1.4-1.2-1.8c-0.8-0.4-1.7-0.4-2.5-0.4c-1.6,0-1.6,0-1.6-1.6c0-2.8,0-5.5,0-8.3c0-0.6,0.1-1.1,0.2-1.6
		c0.2-0.9,1-1.5,1.8-1.5c0.8,0.2,1.4,0.6,1.7,1.5c0.4,0.4,0.4,0.9,0.4,1.4c0,2.2,0,4.4,0,6.5c0,0.2-0.2,0.6,0.2,0.7
		c0.3,0,0.4-0.4,0.5-0.7c0-0.3,0-0.6,0-0.8c0-2.7,0-5.5,0-8.2c0-0.9,0.3-1.6,1-2.2c0.3-0.2,0.6-0.4,1-0.3c1,0.2,1.7,1.1,1.8,2.1
		c0,0.6,0,1.3,0,1.9c0,0,0.1,0.1,0.1,0.1c0.1,1.3,0.2,2.6,0,3.9c-0.2,0.2-0.5,0.2-0.7,0.2c-0.3,0-0.7,0-1.1,0c-0.7,0-0.9,0.3-0.9,1
		c0,1.1,0,2.1,0,3.2c0,1.5,0,3,0,4.5C24.1,24.9,24.1,25.7,24.2,26.5z"/>
	<path class="st17" d="M49.7,36.1c-0.3-0.2-0.5-0.4-0.8-0.5c-0.7-0.1-1.3,0-1.8,0.5c-0.1,0.1-0.2,0.3-0.4,0.3c0-2.2,0-4.4,0-6.6
		c0-1.4-0.4-2.4-1.4-3.4c-2.6-2.5-5.1-5.1-7.7-7.6c-1.4-1.3-1.1-3.6,0.6-4.4c-0.3,1.3,0,2.4,1,3.3c3.3,3.2,6.5,6.4,9.7,9.6
		c0.7,0.7,1,1.5,1,2.5c0,1.9,0,3.8,0,5.7C49.8,35.7,49.9,35.9,49.7,36.1z"/>
	<path class="st14" d="M11.2,27.9c0.9,0.2,1.2,0.9,1.6,1.5c0.2,0.4,0.2,0.8,0.2,1.2c0,1.7,0,3.3,0,5c0,1.5,0,3,0,4.6
		c0,0.3,0,0.5-0.1,0.7c-0.1,0.1-0.3,0.1-0.5,0.1c-0.8-0.2-1.6-0.1-2.5-0.2c-0.7,0-0.8-0.1-0.8-0.8c0-3.4,0-6.7,0-10.1
		c0-0.8,0.4-1.5,1.1-1.9C10.5,27.8,10.9,27.8,11.2,27.9z"/>
	<path class="st14" d="M32.2,43.1c0.2-0.2,0.1-0.4,0.1-0.7c0-3.3,0-6.7,0-10c0-1.4,1-2.4,2.4-2.4c0.2,0,0.4,0,0.5,0.1
		c-1.2,0.4-1.7,1.3-1.7,2.6c0,3.2,0,6.4,0,9.6c0,0.5,0.1,0.7,0.7,0.7c1.4,0,2.8,0,4.1,0.9c0.3,0.2,0.5,0.4,0.8,0.6
		c0.2-0.1,0.1-0.3,0.1-0.5c0-2.3,0-4.6,0-6.8c0-0.2-0.1-0.4,0.1-0.6c0.2,0.2,0.2,0.5,0.2,0.8c0,2.9,0,5.8,0,8.6c0,0.3,0,0.6-0.2,0.8
		c-0.6-1.9-1.8-2.8-3.9-2.8c-0.3,0-0.7,0-1.1,0C33.4,43.9,32.7,43.7,32.2,43.1z"/>
	<path class="st17" d="M50.5,20.7c-0.6-1.6-1.7-2.6-3.3-2.9c-0.8-0.1-1.7-0.1-2.5,0c-0.6,0-0.9-0.1-1.2-0.6c0-3.4,0-6.7,0-10.1
		c0-1.2,0.2-2.1,1.2-2.8c0.5-0.1,1-0.4,1.5-0.2c0,0.3-0.2,0.3-0.4,0.5c-0.7,0.4-1,1-1,1.8c0,3.2,0,6.5,0,9.7c0,0.7,0.1,0.7,0.7,0.7
		c0.6,0,1.3,0,1.9,0.1c1,0.2,1.9,0.7,2.7,1.4c0.1-0.3,0.1-0.6,0.1-0.9c0-1,0-2,0-3c0-0.2-0.1-0.6,0.3-0.5c0.1,0.3,0.1,0.5,0.1,0.8
		c0,1.8,0,3.5,0,5.2C50.7,20.1,50.8,20.5,50.5,20.7z"/>
	<path class="st18" d="M20.2,9.2c-1.2,0.4-1.8,1.2-1.8,2.7c0,3.2,0,6.5,0,9.7c0,0.4,0.2,0.6,0.6,0.6c0.6,0,1.2,0,1.8,0
		c1,0,1.9,0.4,2.7,1.1c0.4,0.3,0.3,0.9,0.1,1.3c-0.8-1-1.9-1.5-3.2-1.5c-0.6,0-1.3,0-1.9,0c-0.6,0-0.9-0.2-1.2-0.6
		c0-3.6,0-7.2,0-10.9c0-1.4,1.2-2.5,2.6-2.4C20.1,9.1,20.2,9.2,20.2,9.2z"/>
	<path class="st19" d="M11.2,27.9c-1,0.1-1.9,0.9-1.9,2c0,3.4,0,6.9,0,10.3c0,0.4,0.1,0.5,0.5,0.5c1,0,2,0,3,0.2
		c0.2,0.3,0.2,0.6,0,0.9c-1.2-0.5-2.4-0.4-3.5-0.3c-0.6,0-0.9-0.2-1.2-0.6c0-3.6,0-7.1,0-10.7C8.2,28.5,9.7,27.4,11.2,27.9z"/>
	<path class="st18" d="M25,7.2c-1.2,0.2-1.8,1.3-1.8,2.2c0,3,0,5.9,0,8.9c0,0.5,0,1-0.6,1.2c-0.3,0.2-0.5,0.1-0.5-0.3
		c0-1.7,0-3.4,0-5.1c0-1.2,0.2-2.3-0.2-3.5C22.2,10.4,22,10,22,9.6C22.1,8,23.2,7,24.7,7.1C24.8,7.1,24.9,7.2,25,7.2z"/>
	<path class="st14" d="M40,28c-1.2,0-1.9,1.2-1.9,2.4c0,3,0,5.9,0,8.9c0,0.4-0.1,0.7-0.4,1c-0.2,0.1-0.4,0.2-0.5,0.2
		c-0.2-0.1-0.1-0.3-0.1-0.5c0-2.4,0-4.8,0-7.2c0-0.4-0.1-0.8,0-1.2c0-0.6,0-1.1,0-1.7C37.1,28.9,38.4,27.5,40,28z"/>
	<path class="st18" d="M12.1,19.5c-0.3,1.3,0,2.4,1.1,3.4c1,0.9,2,1.8,2.9,2.9c-0.1,0-0.2,0-0.4,0c-0.7,0-1.2,0.3-1.9,0.5
		c0-0.3-0.2-0.4-0.4-0.5c-0.7-0.7-1.4-1.4-2-2.1C10.1,22.4,10.5,20.3,12.1,19.5z"/>
	<path class="st14" d="M44.5,30.4c-1.3,0.5-1.7,1.4-1.7,2.7c0.1,2,0,4.1,0,6.1c0,0.5-0.1,1-0.6,1.3c-0.4,0.2-0.6,0.1-0.6-0.3
		c0-2.7,0-5.4,0-8.1c0.4-0.8,0.9-1.5,1.9-1.7C43.9,30.3,44.2,30.2,44.5,30.4z"/>
	<path class="st1" d="M13.8,26.3c0.6-0.4,1.1-0.8,1.9-0.5c-1.2,0.6-1.7,1.5-1.7,2.9c0,2.1,0,4.1,0,6.2c-0.4,0.2-0.7,0.5-1.1,0.7
		c0-1.7,0-3.4,0-5.2c0-0.3-0.2-0.7,0-1c0-0.5,0-1,0-1.5C12.9,27.3,13.2,26.7,13.8,26.3z"/>
	<path class="st18" d="M26.8,15.3c0-1.3,0-2.7,0-4c0.4-0.9,1-1.5,1.9-1.7c0.3-0.1,0.5-0.1,0.8,0C29.3,9.8,29,9.8,28.8,10
		c-0.5,0.4-0.9,1-0.9,1.7c0,1.2,0,2.4,0,3.6C27.5,15.5,27.1,15.5,26.8,15.3z"/>
	<path class="st18" d="M34,14.8c-1,0-1.6,0.8-1.7,1.9c0,1.4,0,2.9,0,4.3c0,0.3,0,0.6-0.2,0.8C32,21.9,31.8,22,31.6,22
		c-0.2-0.1-0.1-0.3-0.1-0.4c0-1.4,0-2.8,0-4.1c-0.1-1.9-0.1-3.9-0.1-5.8c0.2,0.7,0.1,1.3,0.1,2c0,0.7,0,1.5,0,2.3
		C32.1,14.9,32.9,14.4,34,14.8z"/>
	<path class="st14" d="M46.6,36.3c0.7-0.9,1.4-1,2.3-0.7c-1-0.1-1.6,0.8-1.7,2.1c0,1.4,0,2.7,0,4.1c0,0.3,0,0.6-0.3,0.8
		c-0.1,0.1-0.2,0.2-0.4,0.1c-0.2-0.1-0.1-0.2-0.1-0.4c0-0.7,0-1.4,0-2.1c0-1.2,0-2.4,0-3.6C46.6,36.7,46.5,36.5,46.6,36.3z"/>
	<path class="st16" d="M23.7,60.8c0-2.6,0-5.2,0-7.7c0-0.9,0.3-1.9,0.8-2.7c1.2-1.8,1.8-3.8,1.7-6.1c0.1,0.2,0.3,0.3,0.4,0.5
		c2,2,4,4,6,6c0.2,0.2,0.3,0.3,0.5,0.5c0.1,1,0.1,2.1,0.1,3.1c0,2.2,0,4.4,0,6.6c0,0.3,0.1,0.6-0.2,0.9c-3,0.1-5.9-0.2-8.8-0.9
		C23.9,60.9,23.8,60.9,23.7,60.8z"/>
	<path class="st20" d="M32.9,61.9c0-3.4,0-6.8,0-10.2c0-0.1,0-0.3,0.1-0.4c0.5,0.5,1,1,1.5,1.5c0.7,0.6,1,1.4,1,2.4
		c0,2.2,0,4.4,0,6.5C34.6,61.8,33.8,61.8,32.9,61.9z"/>
	<path class="st20" d="M4.4,44.7c0.3,0,0.4,0.2,0.5,0.4c1.7,1.7,3.4,3.4,5.1,5.1c1,0.9,1.4,1.9,1.3,3.3c0,0.2,0,0.3,0,0.5
		c-2.1-1.8-3.9-4-5.4-6.4C5.4,46.7,4.9,45.7,4.4,44.7z"/>
	<path class="st21" d="M47.8,57.2c0-0.9,0-1.8,0.1-2.6c0.1-0.8,0.3-1.5,0.8-2.1c0.4-0.7,0.8-1.4,1.1-2.1c0.2,0.2,0.1,0.4,0.1,0.6
		c0,1.6,0,3.3,0,4.9C49.2,56.4,48.5,56.8,47.8,57.2z"/>
	<path class="st13" d="M50.5,13.7c-0.2,0.2-0.1,0.5-0.1,0.7c0,1.4,0,2.8,0,4.3c-0.4-0.3-0.6-0.6-1-0.8c-0.9-0.6-1.8-0.9-2.9-1
		c-0.5,0-0.9,0-1.4,0c-0.4,0-0.5-0.1-0.5-0.6c0-3.4,0-6.9,0-10.3c0-0.7,0.4-1.3,1-1.7C45.8,4.2,46,4.2,46.2,4
		c0.8,0.1,1.3,0.5,1.7,1.2c0.1,0.2,0.2,0.3,0.3,0.4c0.3,0.3,0.2,0.6,0.2,0.9c0,2.2,0,4.4,0,6.6c0,0.2,0,0.3,0,0.5
		c0,0.2-0.1,0.5,0.2,0.6c0.3,0,0.4-0.3,0.5-0.5c0.1-0.3,0.1-0.6,0.1-0.8c0-2.5,0-5,0-7.6c0-1.4,0.2-2.6,1.5-3.4c1.2,0,2.2,1,2.3,2.2
		c0,0.7-0.1,1.4,0.1,2C52.9,6.2,53,6.3,53,6.4c-0.1,1.1,0,2.3-0.1,3.4c0,0.1,0,0.2-0.1,0.3c-0.3,0.3-0.6,0.2-0.9,0.2
		c-1,0-1.3,0.3-1.3,1.3c0,0.5,0,1,0,1.5C50.7,13.3,50.7,13.6,50.5,13.7z"/>
	<path class="st13" d="M55.6,4.4c1.2,0.3,1.9,1.1,1.9,2.3c0,1.2,0,2.3,0,3.5c0,0.2-0.1,0.4,0.1,0.6c0.2,0.5,0.1,1-0.1,1.5
		c-0.3,0.1-0.4-0.2-0.5-0.4c-0.6-0.9-1.5-1.4-2.5-1.5c-0.3,0-0.5-0.1-0.6-0.3c-0.1-1.3-0.1-2.5,0-3.8C53.9,5.2,54.7,4.5,55.6,4.4z"
		/>
	<path class="st17" d="M50.5,1.9c0.1,0.1,0.3,0.1,0,0.3c-1,0.5-1.3,1.4-1.3,2.5c0,2.9,0,5.8,0,8.6c0,0.5-0.1,0.8-0.5,1.1
		c-0.1,0.1-0.3,0.2-0.4,0.1c-0.2-0.1-0.1-0.3-0.1-0.4c0-1.5,0-3.1,0-4.6c0-1.3,0-2.6,0-3.8c0-0.6,0-1.1,0-1.7c0.1-1,0.9-1.8,1.9-1.9
		C50.2,2,50.4,2,50.5,1.9z"/>
	<path class="st21" d="M55.6,4.4C54.4,4.9,53.9,5.7,54,7c0,1,0,2.1,0,3.1c-0.4,0.2-0.8,0.2-1.2,0c0-1.3-0.1-2.6,0.1-3.9
		C53,5,54.5,4,55.6,4.4z"/>
	<path class="st17" d="M57.4,12.2c0.2-0.5,0-1,0.2-1.5c0.3-0.9,1-1.3,2-1.2c-1.2,0.6-1.4,1.7-1.3,3c0,1.1,0,2.2,0,3.4
		c0,0.2,0,0.4-0.1,0.6c-0.1,0.3-0.3,0.4-0.6,0.4c-0.2-0.1-0.1-0.3-0.1-0.5c-0.1-0.3,0.1-0.7-0.1-1C57.6,14.2,57.6,13.2,57.4,12.2z"
		/>
	<path class="st0" d="M57.4,12.2c0.5,1,0.4,2.1,0,3.1c-0.8,1.5-2.1,2.1-3.8,2.1c-1.3,0-1.3,0-1.3,1.3c0,0.6,0,1.2,0,1.8
		c0,0.6-0.3,1-0.9,1c-0.6,0-0.9-0.3-0.9-0.8c0-2.3,0-4.7,0-7c0-0.8,0-1.7,0-2.5c0-0.8,0.3-1.1,1.1-1.2c0.4,0,0.8,0,1.2,0
		c0.4,0,0.8,0,1.2,0c0.6,0.2,1.2,0.1,1.8,0.5C56.5,10.9,57,11.5,57.4,12.2z"/>
	<path class="st22" d="M12.9,35.6c0.2-0.4,0.5-0.8,1.1-0.7c0.6,0.2,0.7,0.6,0.7,1.2c0,1,0,2,0,3c0,0.4,0.1,0.6,0.5,0.6
		c1.3,0,2.6,0,4,0c0.3,0,0.5-0.1,0.5-0.5c0-1,0-2.1,0-3.1c0-0.7,0.3-1.1,0.9-1.1c0.5,0,0.9,0.4,0.9,1.1c0,3.1,0,6.2,0,9.3
		c0,0.7-0.3,1.1-0.9,1.1c-0.5,0-0.9-0.4-0.9-1.1c0-1.1,0-2.2,0-3.4c0-0.5-0.1-0.6-0.6-0.6c-1.2,0-2.5,0-3.7,0
		c-0.6,0-0.8,0.2-0.6,0.8c0.2,0.4,0.2,0.9,0,1.3c0,0.6,0,1.3,0,1.9c0,0.6-0.3,1-0.8,1c-0.5,0-0.9-0.4-1-1.1c0-1,0-2,0-3
		c0-0.2,0-0.3,0-0.5c0-0.3,0-0.6,0-0.9C12.9,39.2,12.9,37.4,12.9,35.6z"/>
	<path class="st23" d="M18.7,28.4c0.5-0.2,1.1-0.3,1.7-0.2c-0.5,0.3-1,0.5-1.3,1c-0.2,0.4-0.4,0.9-0.4,1.3c0,2.2,0,4.4,0,6.6
		c0,0.5-0.1,1-0.6,1.2c-0.4,0.2-0.6,0.1-0.6-0.3c0-1.8,0-3.6,0-5.4c0-1.6,0-3.2,0-4.8c0.5,0.5,0.2,1,0.2,1.5
		C17.9,28.9,18.2,28.5,18.7,28.4z"/>
	<path class="st23" d="M23.4,33.4c0.3-0.1,0.7-0.3,1.1,0c-0.9,0.4-1.4,1.1-1.4,2.3c0,1.3,0,2.7,0,4c0,0.2,0,0.4-0.1,0.6
		c-0.2,0.2-0.3,0.4-0.6,0.4c-0.3,0-0.1-0.4-0.1-0.6c0-1.8,0-3.7,0-5.6C22.5,34,22.7,33.4,23.4,33.4z"/>
	<path class="st24" d="M14.7,43.5c0-0.4,0-0.9,0-1.3c0.6,0.5,1,1.2,1.3,2c0.1,0.2,0,0.5-0.2,0.6c-0.2,0.1-0.5,0.1-0.6-0.2
		C15.1,44.1,15,43.8,14.7,43.5z"/>
	<path class="st18" d="M23.4,33.4c-0.6,0.2-0.9,0.7-1.2,1.2c0-0.8,0-1.6,0-2.5C22.7,32.4,23.1,32.9,23.4,33.4z"/>
	<path class="st25" d="M18.7,28.4c-0.4,0.3-0.7,0.7-1,1.1c-0.2-0.6,0.1-1.2-0.2-1.7c0-0.1,0-0.2,0-0.3c0.4,0,0.5,0.4,0.7,0.5
		C18.4,28.1,18.5,28.3,18.7,28.4z"/>
	<path class="st26" d="M39.2,46.6c0-3.4,0-6.8,0-10.2c0.2-0.5,0.6-0.7,1.1-0.6c0.6,0.1,0.7,0.6,0.7,1.1c0,2.6,0,5.2,0,7.9
		c0,0.5,0.1,0.7,0.7,0.7c0.5,0,1,0,1.5-0.1c0.6,0,1.1,0.3,1.1,0.8c0.1,0.6-0.2,0.9-0.9,1c-1.1,0.1-2.1,0.1-3.2,0
		C39.7,47.3,39.3,47.1,39.2,46.6z"/>
	<path class="st27" d="M26.8,15.3c0.4,0,0.8,0,1.2,0c0.3,0,0.5,0,0.8,0c0.6,0,1,0.4,1,0.9c0,0.5-0.4,0.9-1,0.9c-0.9,0-1.7,0-2.5,0
		c-0.3,0-0.5,0.1-0.5,0.5c0,0.7,0,1.5,0,2.2c0,0.3,0.1,0.4,0.4,0.4c0.8,0,1.5,0,2.3,0c0.6,0,0.9,0.3,1,0.8c0,0.5-0.3,0.9-0.9,1
		c-0.8,0-1.5,0-2.3,0c-0.4,0-0.5,0.1-0.5,0.5c0,0.7,0,1.3,0,2c0,0.4,0.1,0.5,0.5,0.5c0.8,0,1.6,0,2.4,0c0.7,0,1.1,0.3,1.1,0.9
		c0,0.6-0.4,0.9-1.2,0.9c-1.2,0-2.4,0-3.6,0c-0.3,0-0.6,0-0.8-0.1c-0.2-0.3-0.3-0.6-0.3-0.9c0-3.1,0-6.1,0-9.2
		c0-0.8,0.3-1.1,1.2-1.1C25.6,15.3,26.2,15.3,26.8,15.3z"/>
	<path class="st28" d="M27.9,18.1c0,0.4,0,0.9-0.3,1.3c-0.2,0.2-0.4,0.4-0.7,0.3c-0.3-0.1-0.1-0.4-0.2-0.6c0-0.5,0-1,0-1.5
		c0-0.5,0.2-0.6,0.6-0.6c0.4,0,0.7,0.1,0.6,0.6C27.9,17.8,27.9,18,27.9,18.1z"/>
	<path class="st29" d="M54.2,11.9c1,0,1.7,0.8,1.8,1.7c0,1-0.8,1.8-1.9,2c-1.8,0.2-1.8,0.2-1.8-1.6c0-0.7,0-1.4,0-2.1
		c0.4-0.2,0.6,0,0.6,0.4c0,0.5,0,1.1,0,1.6c0,0.1,0,0.3,0.1,0.3c0.1,0,0.3-0.1,0.3-0.2c0.3-0.3,0.3-0.6,0.3-0.9c0-0.3,0-0.6,0-0.9
		C53.9,12.1,53.9,11.8,54.2,11.9z"/>
	<path class="st30" d="M54.2,11.9c-0.3,0-0.2,0.3-0.3,0.5c0,0.3,0,0.6,0,0.9c0,0.4-0.1,0.7-0.4,1c-0.2,0.2-0.4,0.3-0.6,0.3
		c-0.3-0.1-0.1-0.4-0.1-0.6c0-0.5,0-1.1,0-1.6c0-0.3-0.1-0.5-0.5-0.5C52.9,11.8,53.6,11.8,54.2,11.9z"/>
</g>
</svg>
