<?xml version="1.0" encoding="utf-8"?>
<!-- Generator: Adobe Illustrator 23.0.0, SVG Export Plug-In . SVG Version: 6.00 Build 0)  -->
<svg version="1.1" id="Layer_1" xmlns="http://www.w3.org/2000/svg" xmlns:xlink="http://www.w3.org/1999/xlink" x="0px" y="0px"
	 width="60.4px" height="74.7px" viewBox="0 0 60.4 74.7" style="enable-background:new 0 0 60.4 74.7;" xml:space="preserve">
<style type="text/css">
	.st0{fill:#FED05C;}
	.st1{fill:#5A5A5A;}
	.st2{fill:#FECDBE;}
	.st3{fill:#2ABBC7;}
	.st4{fill:#FEEFAC;}
	.st5{fill:#444444;}
	.st6{fill:#FEAF9D;}
	.st7{fill:#CDCDCD;}
	.st8{fill:#FEE077;}
	.st9{fill:#FEA68E;}
	.st10{fill:#BEBEBE;}
	.st11{fill:#ABABAB;}
	.st12{fill:#0DABB9;}
	.st13{fill:#FED05B;}
	.st14{fill:#494949;}
	.st15{fill:#FEA698;}
	.st16{fill:#FD8F83;}
	.st17{fill:#FBFBFB;}
</style>
<g>
	<path class="st0" d="M40.5,2.2c0.5,0.4,0.7,1,0.7,1.7c0,1.2,0,2.3,0,3.5c0,0.2,0,0.4-0.1,0.6C41,8.6,40.5,9.1,40,9
		c-0.5,0-1-0.5-1-1.1c0-1.5,0-3.1,0-4.6c0-0.5,0.3-0.8,0.7-1.1C39.9,2.2,40.2,2.2,40.5,2.2z"/>
	<path class="st1" d="M4.9,40.8c0-0.1-0.1-0.1-0.2-0.1c-1.1-0.1-1.1-0.1-1.1-1.2c0-2.8-0.1-5.5,0.1-8.3c0.2-4.5,4-8,8.5-8
		c3.1,0,6.2,0,9.2,0c2.7,0.4,4.3,2,5.1,4.5c0.1,0.3,0.2,0.7,0.2,1.1c0.2,2.9,0.3,5.8-1.5,8.3c-1.4,2-3.3,3.3-5.7,3.7
		c-0.2,0-0.4,0.1-0.6,0.1c-1.5,0.1-2.9,0-4.4,0c-2.6,0-5.2,0-7.7,0C6,40.8,5.4,41.1,4.9,40.8z"/>
	<path class="st2" d="M6.5,40.7c3.9,0,7.7,0,11.6,0c0.3,0,0.6,0,0.8,0c0.8-0.1,1.5-0.2,2.2-0.2c2.7,0,4.8-1.1,6.5-3.1
		c0.2-0.3,0.4-0.7,0.8-0.7c0.3,0.1,0.4,0.4,0.5,0.7c0.8,1.7,1.2,3.6,1.2,5.5c0,2,0.1,4-0.1,6c-0.1,0.8-0.1,1.6-0.6,2.3
		c-0.1,0.1-0.3,0-0.4-0.1c-0.7-0.7-2.6-0.9-3.5-0.5c-0.3,0.2-0.5,0.4-0.5,0.8c0.1,0.5,0.4,0.7,0.8,0.8c1,0.1,1.9,0.1,2.9-0.1
		c0.5,0.2,0.2,0.5,0.1,0.7c-1,2.4-2.7,4.3-4.9,5.7c-2,1.3-4.3,2-6.7,1.9c-1.1-0.1-2.2-0.4-3.3-0.9c-0.2-0.1-0.3-0.2-0.4-0.3
		c-1.5-0.8-2.9-1.7-4-3c-1.6-1.7-2.7-3.7-3.1-6c-0.1-0.7-0.7-0.5-1-0.7c0.4-0.2,0.5-0.6,0.5-1.1c0-2.1,0-4.2,0-6.2
		C6.2,41.6,6.1,41.1,6.5,40.7z"/>
	<path class="st3" d="M34,72.8c-0.2,0-0.5,0-0.7,0c-10.2,0-20.4,0-30.7,0c-0.7,0-0.8-0.2-0.8-0.8c0-1.5,0.1-3.1,0.8-4.5
		c1.4-2.7,3.6-4.1,6.6-4.2c1.5-0.1,3.1,0,4.6,0c0.2,0.2,0.2,0.5,0.2,0.8c0.4,4,4.6,6.2,7.9,4.1c1.5-0.9,2.3-2.3,2.4-4.1
		c0-0.3-0.1-0.6,0.2-0.8c1,0,2,0,3,0c3.2,0.4,5.6,2.5,6.4,5.6c0.3,1.1,0.3,2.2,0.3,3.4C34.2,72.5,34.1,72.7,34,72.8z"/>
	<path class="st4" d="M35.2,30.7c-0.5-1.5-1.2-3-2-4.4c-1-1.7-1.9-3.5-1.7-5.6c0.2-4.6,3.9-8.2,8.1-8.2c3.8,0.4,6.5,3.7,7,6.9
		c0.3,2,0.1,4-1,5.8c-0.8,1.5-1.6,3-2.2,4.5c-0.1,0.3-0.2,0.6-0.5,0.7c-0.1,0-0.1,0-0.2-0.1c-0.2-0.3-0.1-0.6,0-0.9
		c0.3-1.3,0.5-2.5,0.7-3.8c0-0.3,0.1-0.5,0.1-0.8c0-0.4-0.3-0.7-0.7-0.8c-0.4-0.1-0.7,0.1-0.9,0.5c-0.1,0.2-0.1,0.4-0.2,0.7
		c-0.3,1.5-0.6,2.9-0.9,4.4c-0.1,0.3-0.1,0.6-0.4,0.8c-0.4,0.1-0.8,0.1-1.2,0c-0.3-0.2-0.3-0.6-0.3-0.9c-0.3-1.5-0.6-2.9-0.8-4.3
		c0-0.2-0.1-0.4-0.2-0.6c-0.2-0.4-0.5-0.6-0.9-0.5c-0.4,0.1-0.6,0.3-0.7,0.8c0,0.5,0.1,1,0.2,1.6c0.2,1,0.4,2.1,0.6,3.1
		c0.1,0.3,0.2,0.6,0,0.9C36.7,30.8,35.9,30.7,35.2,30.7z"/>
	<path class="st2" d="M39.8,72.8c-1.6,0-3.2,0-4.8,0c-0.2-0.3-0.2-0.6-0.2-0.9c0-1.3,0-2.6,0-3.9c0-0.5-0.1-0.8-0.6-0.9
		c-1.3-0.4-1.8-1.5-1.5-2.8c0.2-0.2,0.1-0.5,0.1-0.7c0-1.7,0-3.5,0-5.2c0-0.4,0-0.9,0.3-1.3c0.3-0.2,0.6-0.2,0.9-0.2
		c2.4,0,4.8-0.1,7.2,0.1c0.8,0.1,1.1,0.3,1.1,1.2c0,2.3,0,4.5,0,6.8c0,1.1-0.5,1.8-1.6,2.2c-0.7,0-0.8,0.4-0.8,1c0,1.2,0,2.5,0,3.7
		C40,72.2,40,72.6,39.8,72.8z"/>
	<path class="st5" d="M28.5,36.7c-1.5,2.2-3.6,3.6-6.2,3.9c-1.1,0.2-2.2,0.1-3.4,0.1c1.2-0.3,2.3-0.6,3.4-1.3
		c2.2-1.5,3.7-3.5,4.1-6.1c0.3-1.9,0.4-3.8-0.2-5.7c-0.7-2.2-2.2-3.6-4.4-4.1c-0.2-0.1-0.3-0.1-0.5-0.2c0.2,0,0.5,0,0.7,0
		c0.8,0.1,1.6,0,2.4,0.1c2.2,0.2,3.7,1.4,4.8,3.3c0.2,0.4,0.5,0.6,0.9,0.6c2.1,0.1,3.8,1.6,4.6,4c0.3,0.4,0.2,0.9,0.3,1.4
		c0,0.3,0,0.6,0,1c-0.2,0.4,0.1,1-0.3,1.4c-0.2,2-0.4,4.1-0.6,6.1c-0.8,0.2-1.6-0.1-2.3-0.3c-0.2-0.2-0.2-0.5-0.3-0.8
		c-0.4-1.6-1.1-3.1-2.1-4.5C29,35.8,29,36.4,28.5,36.7z"/>
	<path class="st6" d="M24.5,63.3c0.1,2-0.6,3.6-2.2,4.8c-1.7,1.2-3.6,1.4-5.5,0.5c-1.9-0.9-2.9-2.5-3-4.6c0-0.2,0-0.5,0-0.7
		c0-1.4,0-2.9,0-4.3c0.1,0,0.3,0,0.4,0.1c-0.1,0.4-0.1,0.8-0.1,1.2c0,1,0.1,1.1,1,1.4c2.7,0.8,5.3,0.8,7.9,0
		c0.4-0.1,0.8-0.4,1.3-0.3C24.5,62.1,24.5,62.7,24.5,63.3z"/>
	<path class="st6" d="M28.5,36.7c0.3-0.6,0.6-1.1,0.9-1.7c1.2,1.7,2.1,3.5,2.4,5.5c0.4,0.5,0.5,1,0.5,1.5c0,2,0.1,4,0,5.9
		c0,0.5,0,1-0.3,1.4c-0.3,0.9-0.4,1.8-0.8,2.6c-1.2,3-3.3,5.3-6.2,6.8c-0.1,0.1-0.3,0.1-0.4,0.2c-0.5,0.5-1.2,0.6-1.9,0.8
		c-1.4,0.4-2.9,0.6-4.4,0.5c-0.3,0-0.6,0.1-0.7-0.3c3.5,0.1,6.4-1.3,8.8-3.7c1.2-1.1,2-2.5,2.7-4c0.1-0.1,0.1-0.3,0-0.3
		c0-0.4,0.1-0.7,0.4-1c0.4-0.6,0.5-1.3,0.5-2c0.2-2.4,0.2-4.9,0.1-7.3C29.9,40,29.4,38.3,28.5,36.7z"/>
	<path class="st7" d="M34.8,32.5c-0.2-0.5-0.2-0.9-0.1-1.4c0.2-0.1,0.4-0.3,0.6-0.4c0.6-0.4,1.4-0.2,2.1-0.3c0.7-0.3,1.4-0.3,2.1,0
		c0.4,0,0.8,0,1.3,0c0.5-0.3,1-0.2,1.5-0.1c0.4,0.1,0.8,0.2,1.1,0.5c0.5,0.5,0.5,1.2,0,1.9c-0.1,0.2-0.3,0.3-0.1,0.6
		c0.8,1.1,0.4,2.1-0.9,2.5c-1.8,0.1-3.6,0-5.4,0.1c-0.4,0-0.8,0-0.9,0.6c0,0.2-0.1,0.3-0.2,0.4c0,0,0,0,0-0.1c0.1-0.9-0.4-1.5-1-2
		c0-0.5-0.1-1,0.1-1.4C35.4,33.2,35,32.9,34.8,32.5z"/>
	<path class="st6" d="M40.8,67.1c1.1-0.4,1.4-1.2,1.4-2.3c0-2.2,0-4.5,0-6.7c0-0.6-0.2-0.8-0.8-0.8c-2.7-0.2-5.5-0.1-8.2-0.1
		c0.3-0.7,0.9-1,1.6-1c1.7,0,3.4,0,5,0c0.4-0.3,0.9-0.2,1.4-0.2c0.5,0,0.8-0.1,0.8-0.7c0-1.8,0-3.6,0-5.4c0-0.6-0.2-1.1-0.6-1.5
		c-0.1-0.1-0.3-0.3-0.3-0.5c1.3-0.6,2.8,0.5,2.8,2c0,4.5,0,9,0,13.5c0,0.6,0,1.1,0,1.7c0,1.3-0.6,2-2,2c-0.1,0-0.2,0-0.3,0
		C41.2,67.2,41,67.3,40.8,67.1z"/>
	<path class="st8" d="M43,30.5c0.8-2,1.8-3.8,2.7-5.6c1.3-2.7,1.3-5.4-0.2-8c-1.2-2.2-3.1-3.6-5.6-4.2c-0.1,0-0.1-0.1-0.2-0.1
		c4.6-0.4,8.5,3.4,8.9,7.5c0.2,2.1-0.3,3.9-1.3,5.6c-0.9,1.6-1.7,3.2-2.3,4.9C44.2,30.8,43.6,30.8,43,30.5z"/>
	<path class="st9" d="M6.5,40.7c-0.2,2.8-0.2,5.5-0.1,8.3c0,0.7-0.5,0.2-0.8,0.4c-2-0.1-3.8-1.6-4.1-3.5c-0.3-2.1,0.8-4.1,2.8-4.9
		c0.2-0.1,0.3-0.1,0.5-0.2C5.4,40.7,5.9,40.6,6.5,40.7z"/>
	<path class="st9" d="M31.9,49.4c0.2-2.1,0.1-4.3,0.1-6.4c0-0.8-0.1-1.6-0.3-2.4c0.7,0.3,1.6,0.2,2.3,0.4c1.1,0.6,2.1,1.4,2.5,2.7
		c0.9,3-1.1,5.7-4.2,5.7C32.2,49.4,32.1,49.4,31.9,49.4z"/>
	<path class="st9" d="M17.6,60c1,0.3,1.9,0.2,2.9,0.1c1.4-0.1,2.7-0.5,4-1c0,0.8,0,1.7,0,2.5c-2.2,1-4.5,1.3-6.9,1
		c-1-0.1-2.1-0.4-3.1-0.8c-0.4-0.1-0.6-0.3-0.5-0.8c0-0.5,0-0.9,0-1.4c0-0.2,0-0.4,0.3-0.5C15.3,59.5,16.4,59.9,17.6,60z"/>
	<path class="st10" d="M35.8,37c0-0.1,0-0.3,0-0.4c0.2-0.2,0.5-0.2,0.8-0.2c1.8,0,3.5,0,5.3,0c0.9,0,1.1,0.2,0.8,1.1
		c-0.4,1.7-1.8,2.9-3.3,3.2C37.4,40.2,36,38.8,35.8,37z"/>
	<path class="st2" d="M41,47.9c0.8,0.6,1.1,1.3,1.1,2.3c0,1.7,0,3.5,0,5.2c0,0.6-0.2,0.8-0.8,0.8c-0.5-0.1-1,0-1.6,0
		c0-2.1,0-4.2,0-6.3C39.8,48.9,40.2,48.2,41,47.9z"/>
	<path class="st11" d="M39.4,40.7c1.4-0.6,2.6-1.4,3.1-3c0.3-1.1,0.3-1.1-0.8-1.1c-2,0-3.9,0-5.9,0c-0.1-0.7,0.1-0.9,0.8-0.8
		c1.9,0,3.9,0,5.8,0c0.5-0.1,1-0.2,1.5-0.2c0.9,0,0.9,0,0.8,0.9C44.7,39.1,41.9,41.2,39.4,40.7z"/>
	<path class="st12" d="M32.8,64.3c0.2,0.3,0.1,0.6,0.1,0.9c0.1,1.1,0.6,1.7,1.7,1.8c0.5,0.1,0.5,0.2,0.5,0.6c0,1.7,0,3.5,0,5.2
		c-0.3,0-0.7,0-1.1,0c0-1.5,0.1-3-0.4-4.4c-1-2.7-2.9-4.4-5.8-5c-0.1,0-0.2-0.1-0.2-0.1C29.3,63.2,31.1,63.4,32.8,64.3z"/>
	<path class="st13" d="M28.2,7.1c0.4,0,0.6,0.2,0.9,0.4c1,1,2.1,2,3.1,3.1c0.6,0.6,0.6,1.1,0.2,1.6c-0.4,0.5-1.1,0.5-1.6-0.1
		c-1-1-2.1-2.1-3.1-3.1c-0.3-0.3-0.6-0.7-0.3-1.2C27.4,7.3,27.7,7.1,28.2,7.1z"/>
	<path class="st13" d="M53,8.1c0,0.4-0.2,0.7-0.4,0.9c-1,1-2.1,2.1-3.1,3.1c-0.6,0.5-1.2,0.6-1.6,0.1c-0.5-0.5-0.4-1,0.1-1.6
		c1-1,2.1-2.1,3.1-3.1c0.4-0.4,0.8-0.5,1.3-0.3C52.8,7.3,52.9,7.7,53,8.1z"/>
	<path class="st13" d="M54.5,18.1c0.8,0,1.5,0,2.3,0c0.7,0,1.1,0.4,1.1,1c0,0.6-0.4,1.1-1,1.1c-1.6,0-3.2,0-4.8,0
		c-0.6,0-1-0.5-1-1.1c0-0.6,0.3-1,1-1C52.9,18.1,53.7,18.1,54.5,18.1z"/>
	<path class="st13" d="M25.6,20.2c-0.7,0-1.4,0-2.1,0c-0.8,0-1.2-0.4-1.2-1.1c0-0.7,0.4-1,1.2-1c1.5,0,3,0,4.5,0
		c0.7,0,1.1,0.4,1.1,1c0,0.6-0.4,1.1-1.2,1.1C27.1,20.2,26.3,20.2,25.6,20.2z"/>
	<path class="st10" d="M44.6,36.4c0.1-0.6-0.2-0.8-0.8-0.7c-0.5,0.1-1,0-1.4,0c0.5-0.3,1-0.6,1-1.3c0-0.6-0.1-1-0.8-1.3
		c0.6-0.4,1-0.9,0.9-1.5c-0.1-0.6-0.6-1-1.2-1.1c0.2-0.2,0.3-0.2,0.6-0.1c0.1,0,0.1,0,0.1,0c0.6,0,1.3-0.1,1.9,0.2
		c0.8,1.1,0.8,1.7-0.3,2.5c0.5,0.2,0.8,0.6,0.9,1.1c0.1,0.5-0.2,0.9-0.6,1.3C44.6,35.8,44.9,36.2,44.6,36.4z"/>
	<path class="st6" d="M40.8,67.1c0.2,0,0.5,0,0.7,0c0,1.7,0,3.4,0,5.1c0,0.6-0.1,0.8-0.7,0.7c-0.3,0-0.6,0-1,0c0-1.6,0-3.2,0-4.8
		C39.8,67.1,39.8,67.1,40.8,67.1z"/>
	<path class="st14" d="M24.4,23.3c-0.8,0-1.6,0.1-2.4-0.1C22.8,23.2,23.6,23,24.4,23.3z"/>
	<path class="st15" d="M19.1,51.2c1,0,2.1,0,3.2,0c0.6,0,0.7,0.3,0.6,0.8c-0.6,2.2-2.1,3.1-3.8,3.1c-2-0.1-3.2-1.1-3.7-3.3
		c-0.1-0.4,0.1-0.5,0.4-0.5C16.9,51.2,18,51.2,19.1,51.2z"/>
	<path class="st1" d="M14,46c0,0.4,0,0.8,0,1.2c0,0.6-0.5,1-1,1c-0.6,0-1-0.3-1-0.9c0-0.9,0-1.8,0-2.7c0-0.6,0.5-0.9,1-0.9
		c0.5,0,1,0.4,1,1C14,45.1,14,45.6,14,46z"/>
	<path class="st16" d="M11,52.3c-0.3,0-0.9,0.1-1.4-0.1C9.2,52,9,51.7,9,51.2c0-0.5,0.2-0.8,0.7-0.9c1-0.3,2-0.2,3.1,0
		c0.4,0.1,0.7,0.5,0.7,1c-0.1,0.6-0.5,0.9-1,1C12,52.3,11.6,52.3,11,52.3z"/>
	<path class="st16" d="M29.4,51c0,0.3-0.2,0.7-0.4,1c-1.1,0.5-2.2,0.3-3.4,0.1c-0.5-0.1-0.6-0.5-0.6-0.9c0-0.5,0.2-0.8,0.6-1
		c1-0.3,2-0.3,3.1,0C29.1,50.3,29.2,50.7,29.4,51z"/>
	<path class="st1" d="M24.4,46c0-0.4,0-0.8,0-1.2c0-0.6,0.4-0.9,0.9-1c0.5-0.1,1.1,0.3,1.1,0.9c0.1,0.9,0.1,1.7,0,2.6
		c0,0.6-0.6,1-1.1,0.9c-0.6,0-0.9-0.4-1-1c0,0,0-0.1,0-0.1C24.4,46.7,24.4,46.3,24.4,46L24.4,46z"/>
	<path class="st13" d="M42.8,30.5c-0.2,0-0.4,0-0.6,0.1c-0.6,0-1.1,0-1.6-0.1c0.4-1.8,0.7-3.6,1.1-5.4c0.1-0.8,0.6-1.2,1.2-1.1
		c0.6,0.1,1,0.7,0.8,1.5c-0.3,1.5-0.6,3-0.9,4.6C42.8,30.2,42.8,30.3,42.8,30.5z"/>
	<path class="st13" d="M39.4,30.5c-0.7,0-1.4,0-2.1,0c-0.3-1.6-0.6-3.1-0.9-4.7c0-0.1-0.1-0.2-0.1-0.3c-0.1-0.8,0.2-1.3,0.8-1.4
		c0.7-0.1,1.1,0.3,1.3,1.2C38.7,26.9,39.2,28.7,39.4,30.5z"/>
	<path class="st17" d="M34.8,32.5c0.1,0.1,0.2,0.1,0.3,0.2c0.1,0.1,0.4,0.2,0.3,0.4c-0.1,0.1-0.3,0.5-0.6,0.3
		C34.8,33.2,34.8,32.9,34.8,32.5z"/>
</g>
</svg>
