<?xml version="1.0" encoding="utf-8"?>
<!-- Generator: Adobe Illustrator 23.0.0, SVG Export Plug-In . SVG Version: 6.00 Build 0)  -->
<svg version="1.1" id="Layer_1" xmlns="http://www.w3.org/2000/svg" xmlns:xlink="http://www.w3.org/1999/xlink" x="0px" y="0px"
	 width="500px" height="500px" viewBox="0 0 500 500" style="enable-background:new 0 0 500 500;" xml:space="preserve">
<style type="text/css">
	.st0{fill:#F5F5F5;}
	.st1{fill:#E0E0E0;}
	.st2{fill:#EBEBEB;}
	.st3{fill:#FAFAFA;}
	.st4{fill:#263238;}
	.st5{fill:#455A64;}
	.st6{fill:#FFFFFF;}
	.st7{fill:#90CAF9;}
	.st8{fill:#FFBE9D;}
	.st9{fill:#EB996E;}
	.st10{opacity:0.3;}
	.st11{opacity:0.5;}
	.st12{opacity:0.4;}
</style>
<g id="freepik--background-complete--inject-37">
	<path class="st0" d="M415.5,289.9c-21.2-9.5-30-32.9-33.4-54.8c-0.6-3.7-1.7-7.4-0.6-10.9s4.7-6.5,8.3-5.6c2.9,0.8,4.7,3.7,6.7,6
		c2.7,3.1,6.2,5.3,10.1,6.5c2.5,0.8,5.5,0.9,7.6-0.8c2.8-2.3,2.3-6.7,1.6-10.3c-1.3-6.7-2.7-13.5-4-20.2c-0.7-3.6-1.4-7.3-1-10.9
		s2.4-7.3,5.6-8.9s7.9-0.4,9.3,3c0.4,1.5,0.8,3,1,4.5c0.4,1.5,1.4,3,2.9,3.2s2.8-1.2,3.6-2.4c3-4.4,4.7-9.5,6.1-14.7
		s2.9-10.4,5.5-15s6.7-8.7,11.8-9.9s11.2,0.9,13.5,5.7s0.3,10.6-2.1,15.3c-3.6,7-8.3,13.5-13.7,19.2c-1.1,0.9-1.9,2.2-2.2,3.6
		c-0.3,2.6,2.4,4.5,4.9,4.9c2.9,0.4,5.7-0.4,8.6-0.7s6.2,0.5,7.7,2.9c2.2,3.4-0.2,7.9-2.7,11c-5.1,6.2-11.3,11.6-18.2,15.7
		c-2.5,1.5-5.1,2.9-6.9,5.1s-2.5,5.8-0.7,8.1s5.3,2.5,8,1.4s4.9-3,7.4-4.6c4.6-2.8,11.1-3.7,15.1,0c2.6,2.4,3.6,6.3,3.1,9.9
		c-0.6,3.6-1.9,7-3.8,10c-6.2,10.9-14.9,20.3-25.7,26.5S427.8,292,415.5,289.9"/>
	<path class="st1" d="M418.6,275.2c1.3-12.5,3.4-25,6.2-37.3l2.1-9.7c0.7-3.2,1.4-6.3,2.3-9.4c1.7-5.8,3.7-11.6,6-17.2
		c2.2-5.4,4.5-10.4,6.6-15.1s4.3-9,6.4-12.9c3.3-6.1,7-12,11.2-17.5c1.5-2,2.7-3.4,3.5-4.4c0.4-0.5,0.7-0.9,1-1.1
		c0.1-0.1,0.2-0.3,0.3-0.4c-0.1,0.1-0.2,0.3-0.3,0.4l-0.9,1.2c-0.8,1-2,2.5-3.4,4.5c-4.1,5.6-7.8,11.4-11,17.5
		c-2,3.9-4.1,8.2-6.3,12.9s-4.4,9.7-6.5,15.1c-2.3,5.6-4.3,11.3-6,17.1c-0.9,3-1.6,6.1-2.3,9.3l-2.1,9.7
		c-2.8,12.3-4.9,24.7-6.2,37.2"/>
	<path class="st1" d="M429.4,218.7c-0.3-0.5-0.5-1-0.6-1.5c-0.4-1-0.9-2.4-1.5-4.1c-1.2-3.5-2.7-8.4-4.3-13.8s-3.2-10.3-4.4-13.7
		c-0.6-1.7-1.1-3.1-1.5-4.1c-0.2-0.5-0.4-1-0.5-1.5c0.3,0.4,0.5,0.9,0.7,1.4c0.5,0.9,1,2.3,1.7,4c1.4,3.4,3,8.3,4.6,13.7
		s3,10.2,4.1,13.8c0.5,1.7,0.9,3.1,1.3,4.2C429.1,217.7,429.3,218.2,429.4,218.7z"/>
	<path class="st1" d="M474.2,201.2c-0.6,0.2-1.2,0.4-1.8,0.6c-1.2,0.3-2.9,0.8-5,1.5c-4.2,1.3-9.9,3.2-16.1,5.7s-11.7,4.9-15.6,6.8
		c-2,0.9-3.5,1.7-4.6,2.3c-0.5,0.3-1.1,0.6-1.7,0.8c0.5-0.4,1-0.7,1.6-1c1.1-0.6,2.6-1.5,4.5-2.5c3.9-2,9.4-4.5,15.6-7
		c5.3-2.1,10.7-3.9,16.2-5.5c2.1-0.6,3.8-1,5-1.3C472.9,201.3,473.5,201.2,474.2,201.2z"/>
	<path class="st1" d="M419,274.2c-0.2-0.1-0.3-0.3-0.4-0.5l-1.1-1.5c-1-1.3-2.3-3.3-3.9-5.7c-3.3-4.9-7.5-11.8-12.2-19.5
		s-8.9-14.6-12-19.6l-3.8-5.9l-1-1.6c-0.1-0.2-0.2-0.4-0.3-0.6c0.2,0.2,0.3,0.3,0.4,0.5l1.1,1.5c1,1.3,2.3,3.3,3.9,5.7
		c3.3,4.9,7.5,11.8,12.2,19.5s8.9,14.6,12,19.6l3.8,5.9l1,1.6C418.8,273.8,418.9,274,419,274.2z"/>
	<path class="st1" d="M476.9,242.6c0,0-0.2,0.1-0.6,0.4l-1.7,1l-6.2,3.4c-5.2,2.9-12.4,6.9-20.4,11.4c-7.9,4.5-15.2,8.5-20.5,11.3
		c-2.6,1.4-4.8,2.5-6.3,3.2l-1.7,0.8c-0.2,0.1-0.4,0.2-0.6,0.3c0.2-0.1,0.4-0.3,0.6-0.4l1.7-0.9l6.2-3.4c5.2-2.9,12.4-6.9,20.4-11.4
		s15.2-8.5,20.5-11.3c2.6-1.4,4.8-2.5,6.3-3.2l1.7-0.8C476.5,242.7,476.7,242.6,476.9,242.6z"/>
	<path class="st1" d="M58.6,158.8l1.3,4.9c0,0,24.1-16.9,41.8-12.2l0,0c0.8,0.9,1.9,1.3,3.1,1.2l6.7-0.8c1.4-0.2,2.6-1.3,2.9-2.7
		l0,0c0,0,14.1-10.9,32.2-5.8l6.8,1.4L127.6,84l-79.1,2L58.6,158.8z"/>
	<path class="st2" d="M52.8,152.7l2.2,8.9c0,0,22.9-21.4,52.8-10.9L91.6,109C91.6,109,52.8,143.1,52.8,152.7z"/>
	<path class="st0" d="M33.7,88.7c0,0,26.3-31.1,57.5-2.4l16.6,64.4c0,0-35.2-23-57.5,4.6L33.7,88.7z"/>
	<path class="st2" d="M107.7,150.7c0,0,23.4-23.3,47.1-9.1l-18.6-58.1l-44.5,5L107.7,150.7z"/>
	<path class="st0" d="M91.1,86.3c0,0,4.8-23,25.2-25.3l13.1-1l19.8,58.1c0,0-32,3.2-41.5,32.7L91.1,86.3z"/>
	<path class="st1" d="M107.7,150.7c-0.4-0.8-0.7-1.6-0.8-2.5c-0.5-1.8-1.1-4.1-1.9-6.9c-1.6-6-3.7-13.9-6-22.7s-4.4-16.6-6-22.7
		c-0.7-2.7-1.3-5-1.8-6.9c-0.3-0.8-0.5-1.7-0.5-2.6c0.4,0.8,0.7,1.6,0.9,2.4c0.6,1.6,1.3,3.9,2.2,6.8c1.7,5.8,4,13.7,6.3,22.6
		s4.3,16.9,5.7,22.8c0.7,2.9,1.2,5.3,1.6,6.9C107.5,148.9,107.7,149.8,107.7,150.7z"/>
	<path class="st1" d="M124.8,71.3c0,0.2-2.1,0.3-5.3,1c-8.5,2-15.8,7.2-20.6,14.5c-1.8,2.8-2.6,4.7-2.7,4.7s0.1-0.5,0.4-1.4
		c0.5-1.3,1-2.5,1.7-3.6c4.5-7.8,12.2-13.2,21.1-14.8c1.3-0.3,2.7-0.4,4-0.4C124.3,71.1,124.8,71.2,124.8,71.3z"/>
	<path class="st1" d="M127.9,77.7c0,0.2-2.1,0.3-5.3,1c-8.5,2-15.8,7.2-20.6,14.5c-1.8,2.8-2.6,4.7-2.7,4.7s0.1-0.5,0.4-1.4
		c0.4-1.3,1-2.5,1.7-3.6c4.5-7.8,12.2-13.2,21.1-14.8c1.3-0.3,2.7-0.4,4-0.4C127,77.5,127.4,77.5,127.9,77.7z"/>
	<path class="st1" d="M129.9,84.9c0,0.2-2.1,0.3-5.3,1c-8.5,2-15.8,7.2-20.6,14.5c-1.8,2.8-2.6,4.7-2.7,4.7s0.1-0.5,0.4-1.4
		c0.5-1.3,1-2.5,1.7-3.6c4.5-7.8,12.2-13.2,21.1-14.8c1.3-0.3,2.7-0.4,4-0.4C129.4,84.8,129.9,84.9,129.9,84.9z"/>
	<path class="st1" d="M132.8,91.5c0,0.2-2.1,0.3-5.3,1c-8.4,2-15.8,7.2-20.5,14.5c-1.8,2.8-2.6,4.7-2.7,4.7s0.1-0.5,0.4-1.4
		c0.5-1.3,1-2.5,1.7-3.6c4.5-7.8,12.2-13.2,21.1-14.8c1.3-0.3,2.7-0.4,4-0.4C132.3,91.4,132.8,91.4,132.8,91.5z"/>
	<path class="st1" d="M136,98.3c0,0.2-2.1,0.3-5.3,1c-8.5,2-15.8,7.2-20.6,14.5c-1.8,2.8-2.6,4.7-2.7,4.6s0.1-0.5,0.4-1.4
		c0.5-1.3,1-2.5,1.7-3.6c4.5-7.8,12.2-13.2,21.1-14.8c1.3-0.3,2.7-0.4,4-0.4C135,98.2,135.5,98.2,136,98.3z"/>
	<path class="st1" d="M139.9,106c0,0.2-2.3,0.3-5.8,1.2c-2,0.5-4.1,1.2-6,2c-2.4,1-4.6,2.3-6.8,3.7c-2.1,1.4-4.2,3-6.1,4.8
		c-1.5,1.5-2.9,3-4.2,4.7c-2.1,2.9-2.9,5-3.1,5c0.1-0.5,0.2-1,0.4-1.5c0.2-0.6,0.5-1.2,0.8-1.7c0.4-0.7,0.8-1.5,1.2-2.2
		c1.2-1.8,2.6-3.5,4.1-5c1.9-1.9,4-3.5,6.2-5c2.2-1.4,4.6-2.7,7-3.7c2-0.8,4.1-1.4,6.2-1.9c0.8-0.2,1.6-0.3,2.4-0.4
		c0.6-0.1,1.2-0.1,1.9-0.1C138.8,105.9,139.3,105.9,139.9,106z"/>
	<path class="st1" d="M141.6,112.4c0,0.2-2.3,0.3-5.8,1.2c-2,0.6-4,1.3-5.9,2.2c-2.3,1.1-4.6,2.4-6.7,3.9c-2.1,1.5-4.1,3.2-5.9,5
		c-1.5,1.5-2.8,3.1-4.1,4.9c-2.1,3-2.9,5.1-3.1,5c0.1-0.5,0.2-1.1,0.4-1.5c0.2-0.6,0.5-1.2,0.8-1.7c0.4-0.8,0.8-1.5,1.2-2.2
		c1.2-1.8,2.5-3.6,4-5.1c1.8-1.9,3.8-3.6,6-5.2c2.2-1.5,4.5-2.8,6.9-3.9c2-0.9,4.1-1.5,6.2-2c0.8-0.2,1.6-0.3,2.5-0.4
		c0.6-0.1,1.2-0.1,1.9-0.1C140.5,112.2,141.1,112.2,141.6,112.4z"/>
	<path class="st1" d="M94.9,136c-0.1,0.1-1.9-1.4-5.2-3.1c-8.7-4.6-19.1-4.7-27.9-0.3c-3.3,1.6-5.1,3.2-5.3,3s0.3-0.5,1.2-1.2
		c1.2-1,2.4-1.8,3.7-2.5c8.9-5,19.8-4.8,28.6,0.4c1.3,0.8,2.5,1.6,3.7,2.6C94.6,135.5,95,135.9,94.9,136z"/>
	<path class="st1" d="M92.6,127.8c-0.1,0.2-1.9-1.4-5.2-3.1c-8.7-4.6-19.1-4.7-27.9-0.3c-3.3,1.7-5.1,3.2-5.3,3s0.4-0.5,1.2-1.2
		c1.2-1,2.4-1.8,3.7-2.5c8.9-4.9,19.8-4.8,28.6,0.3c1.3,0.8,2.5,1.6,3.7,2.6C92.3,127.3,92.6,127.7,92.6,127.8z"/>
	<path class="st1" d="M90.3,119.5c-0.1,0.2-1.9-1.4-5.2-3.1c-8.7-4.6-19.1-4.7-27.9-0.3c-3.3,1.7-5.1,3.2-5.3,3s0.4-0.5,1.2-1.2
		c1.2-1,2.4-1.8,3.7-2.5c8.9-4.9,19.8-4.8,28.6,0.3c1.3,0.8,2.5,1.6,3.7,2.6C89.9,119,90.3,119.5,90.3,119.5z"/>
	<path class="st1" d="M87.9,111.3c-0.1,0.2-1.9-1.4-5.2-3.1c-8.7-4.6-19.1-4.8-27.9-0.3c-3.3,1.7-5.1,3.2-5.3,3s0.3-0.5,1.2-1.2
		c1.2-1,2.4-1.8,3.7-2.5c8.9-4.9,19.8-4.8,28.6,0.3c1.3,0.8,2.5,1.6,3.7,2.6C87.6,110.8,88,111.2,87.9,111.3z"/>
	<path class="st1" d="M85.6,103.1c-0.1,0.2-1.9-1.4-5.2-3.1c-8.7-4.6-19.1-4.7-27.9-0.3c-3.3,1.7-5.1,3.2-5.3,3s0.4-0.5,1.2-1.2
		c1.2-1,2.4-1.8,3.7-2.5c8.9-4.9,19.8-4.8,28.6,0.3c1.3,0.8,2.5,1.6,3.7,2.6C85.3,102.6,85.7,103,85.6,103.1z"/>
	<path class="st1" d="M83.3,94.8c-0.1,0.2-1.9-1.4-5.2-3.1C69.4,87.1,59,87,50.2,91.4c-3.3,1.6-5.1,3.2-5.3,3s0.4-0.5,1.2-1.2
		c1.2-1,2.4-1.8,3.7-2.5c8.9-4.9,19.8-4.8,28.6,0.3c1.3,0.8,2.5,1.6,3.7,2.6C82.9,94.3,83.3,94.8,83.3,94.8z"/>
	<path class="st2" d="M212.6,389.5c0,0-9,6.9-0.4,16c0.1,0.2,0.4,0.2,0.6,0.2l78.9-0.5c0,0,6.7-7.6,1.1-16.3L212.6,389.5z"/>
	<path class="st1" d="M274.3,396.7c0,0.1-9.8,0.2-21.9,0.2s-21.9-0.1-21.9-0.2s9.8-0.2,21.9-0.2
		C264.4,396.5,274.3,396.6,274.3,396.7z"/>
	<path class="st1" d="M262,399.6c0,0.1-4.6,0.1-10.3,0.1s-10.3-0.1-10.3-0.1s4.6-0.2,10.3-0.2S262,399.5,262,399.6z"/>
	<path class="st1" d="M282.3,405c0,0,0.2-0.9,0.4-2.4c0.3-1.9,0.5-3.8,0.5-5.8c0-1.9-0.2-3.8-0.6-5.7c-0.3-1.5-0.5-2.4-0.5-2.4
		s0.1,0.2,0.2,0.6s0.3,1,0.5,1.7c0.4,1.9,0.6,3.8,0.7,5.8c0,1.9-0.2,3.9-0.5,5.8c-0.1,0.7-0.3,1.3-0.4,1.7
		C282.5,404.6,282.4,404.8,282.3,405z"/>
	<path class="st1" d="M288.2,388.9c0.1,0.2,0.3,0.4,0.4,0.6c0.1,0.2,0.2,0.5,0.4,0.7c0.2,0.3,0.3,0.7,0.4,1c0.3,0.9,0.6,1.7,0.8,2.6
		c0.2,1.1,0.3,2.2,0.4,3.3c0,1.1-0.1,2.2-0.3,3.3c-0.2,0.9-0.4,1.8-0.7,2.6c-0.1,0.4-0.3,0.7-0.4,1c-0.1,0.2-0.2,0.5-0.3,0.7
		c-0.1,0.2-0.2,0.4-0.3,0.6c-0.1,0,0.4-0.9,0.9-2.3c0.3-0.9,0.5-1.7,0.6-2.6c0.2-1.1,0.3-2.2,0.3-3.3c0-1.1-0.1-2.2-0.3-3.3
		c-0.2-0.9-0.4-1.7-0.7-2.6C288.6,389.8,288.2,388.9,288.2,388.9z"/>
	<path class="st1" d="M225,405.1c-0.1-0.2-0.3-0.3-0.4-0.5c-0.1-0.2-0.3-0.4-0.4-0.7c-0.1-0.3-0.3-0.6-0.4-0.9
		c-0.3-0.8-0.6-1.6-0.8-2.5c-0.2-1-0.3-2.1-0.3-3.2c0-1.1,0.2-2.1,0.4-3.2c0.2-0.8,0.5-1.7,0.8-2.5c0.1-0.3,0.3-0.6,0.4-0.9
		c0.1-0.2,0.2-0.4,0.4-0.6c0.1-0.2,0.2-0.4,0.4-0.5c0.1,0-0.4,0.8-1,2.1c-0.3,0.8-0.6,1.6-0.8,2.5c-0.2,1-0.3,2.1-0.4,3.1
		c0,1,0.1,2.1,0.3,3.1c0.2,0.8,0.4,1.7,0.7,2.5C224.6,404.3,225.1,405.1,225,405.1z"/>
	<path class="st1" d="M216.5,407.1c-0.2-0.2-0.3-0.4-0.4-0.6c-0.2-0.2-0.3-0.5-0.4-0.7c-0.1-0.3-0.3-0.6-0.5-1
		c-0.4-0.9-0.7-1.8-0.9-2.8c-0.3-1.2-0.4-2.4-0.4-3.6c0-1.2,0.1-2.4,0.3-3.6c0.2-1,0.4-1.9,0.8-2.8c0.1-0.3,0.3-0.7,0.4-1
		c0.1-0.3,0.2-0.5,0.4-0.8c0.1-0.2,0.2-0.4,0.4-0.6c0.1,0-0.4,0.9-1,2.5c-0.3,0.9-0.5,1.9-0.7,2.8c-0.2,1.2-0.3,2.3-0.3,3.5
		c0,2.1,0.5,4.3,1.2,6.3C216,406.1,216.6,407,216.5,407.1z"/>
	<path class="st2" d="M288.8,429.3v15.1h-29.2v-15.1H288.8z"/>
	<path class="st1" d="M194.4,437c0,0.1,0,0.3,0,0.4c0.3,4.6,4.1,8.1,8.7,8.1h87v-1.1h-20.6c-4.2,0-7.5-3.4-7.5-7.5l0,0
		c0-4.2,3.4-7.5,7.5-7.5h20.7v-1.6l-87.1,0.3c-4.8,0-8.7,3.9-8.7,8.7C194.4,436.8,194.4,436.9,194.4,437z"/>
	<path class="st1" d="M288.8,437.1c0,0.1-6,0.2-13.4,0.2s-13.4-0.1-13.4-0.2s6-0.2,13.4-0.2S288.8,437,288.8,437.1z"/>
	<path class="st1" d="M288.4,440.5c0,0.1-5.7,0.2-12.7,0.2s-12.7-0.1-12.7-0.2s5.7-0.2,12.7-0.2S288.4,440.4,288.4,440.5z"/>
	<path class="st1" d="M288.8,443.6c0,0.1-5.1,0.2-11.4,0.2s-11.4-0.1-11.4-0.2s5.1-0.1,11.4-0.1S288.8,443.5,288.8,443.6z"/>
	<path class="st1" d="M288.8,434c0,0.1-5.9,0.2-13.1,0.2s-13.1-0.1-13.1-0.2s5.9-0.2,13.1-0.2S288.8,433.9,288.8,434z"/>
	<path class="st1" d="M288.4,431c0,0.1-5.2,0.2-11.7,0.2S265,431,265,431s5.2-0.1,11.7-0.1S288.4,430.9,288.4,431z"/>
	<path class="st0" d="M205,428.3c-0.7,0.7-1.3,1.4-1.9,2.2c-2.7,3.9-2.6,9.1,0.2,12.9c0.6,0.8,1.2,1.5,1.9,2.1
		c-0.2-0.1-0.4-0.3-0.6-0.5c-0.5-0.5-1-1-1.5-1.6c-3-3.9-3-9.3-0.1-13.2c0.4-0.6,0.9-1.1,1.4-1.6C204.6,428.6,204.8,428.4,205,428.3
		z"/>
	<path class="st0" d="M202,427.9c-0.7,0.7-1.3,1.4-1.9,2.2c-2.7,3.9-2.6,9.1,0.1,12.9c0.6,0.8,1.2,1.5,1.9,2.1
		c-0.2-0.1-0.4-0.3-0.6-0.5c-0.5-0.5-1-1-1.4-1.6c-3-3.9-3-9.3-0.1-13.2c0.4-0.6,0.9-1.1,1.4-1.6C201.6,428.2,201.8,428.1,202,427.9
		z"/>
	<path class="st0" d="M261.2,428.3c-0.7,0.7-1.3,1.4-1.9,2.2c-2.7,3.9-2.6,9.1,0.2,12.9c0.6,0.8,1.2,1.5,1.9,2.1
		c-0.2-0.1-0.4-0.3-0.6-0.5c-0.5-0.5-1-1-1.5-1.6c-3-3.9-3-9.3-0.2-13.2c0.4-0.6,0.9-1.1,1.4-1.6
		C260.7,428.6,260.9,428.4,261.2,428.3z"/>
	<path class="st0" d="M258.2,427.9c-0.7,0.7-1.3,1.4-1.9,2.2c-2.7,3.9-2.6,9.1,0.2,12.9c0.6,0.8,1.2,1.5,1.9,2.1
		c-0.2-0.1-0.4-0.3-0.6-0.5c-0.5-0.5-1-1-1.5-1.6c-3-3.9-3-9.3-0.1-13.2c0.4-0.6,0.9-1.1,1.4-1.6C257.8,428.2,258,428.1,258.2,427.9
		z"/>
	<path class="st0" d="M214.9,439.1l-0.1-6.1c0-0.5,0-1.1-0.2-1.6c-0.2-0.5-0.6-0.9-1.2-1c-0.8-0.4-2,0.3-2.5,1.2
		c-0.5,0.9-0.7,2-0.6,3c0,1.6,0.1,3.2,0.2,4.9c0,0.8,0.2,1.5,0.6,2.2c0.4,0.9,1.5,1.4,2.4,1c0.6-0.2,1-0.7,1.1-1.3
		C214.8,440.6,214.9,439.9,214.9,439.1z"/>
	<path class="st0" d="M248.7,437.4c0,0.1-6.3,0.1-14.1,0.1s-14.1-0.1-14.1-0.1s6.3-0.2,14.1-0.2S248.7,437.3,248.7,437.4z"/>
	<polygon class="st0" points="209.1,427.7 208.9,413.3 216.7,413.3 216.9,427.7 	"/>
	<path class="st1" d="M216.2,415.9c-2.4,0.2-4.8,0.2-7.2,0C211.4,415.7,213.8,415.7,216.2,415.9z"/>
	<path class="st1" d="M216.2,418.1c-2.4,0.2-4.8,0.2-7.2,0C211.4,417.9,213.8,417.9,216.2,418.1z"/>
	<path class="st1" d="M216.2,420.3c-2.4,0.2-4.8,0.2-7.2,0C211.4,420.1,213.8,420.1,216.2,420.3z"/>
	<path class="st1" d="M216.2,422.5c-2.4,0.2-4.8,0.2-7.2,0C211.4,422.3,213.8,422.3,216.2,422.5z"/>
	<path class="st1" d="M216.2,424.7c-2.4,0.2-4.8,0.2-7.2,0C211.4,424.5,213.8,424.5,216.2,424.7z"/>
	<path class="st2" d="M208.5,413h86.4c1,5.1,1,10.4,0,15.5h-86v-1h5.3c1.4,0,2.5-1.1,2.5-2.5c0,0,0,0,0,0v-8.6
		c0-1.4-1.1-2.5-2.5-2.5c0,0,0,0,0,0h-5.6L208.5,413z"/>
	<path class="st3" d="M228.9,420.7h1.4c0,0,0.1,0,0.1,0c0.1,0.1,0.2,0.2,0.2,0.3c0,0,0,0.1,0,0.1c0,0.1-0.1,0.3-0.1,0.4
		c-0.2,0.6-0.5,1.2-0.9,1.6c-0.3,0.4-0.7,0.6-1.2,0.6h-0.2c-0.4-0.1-0.8-0.3-1-0.7c-0.3-0.5-0.5-1.1-0.4-1.7c0-0.4,0.1-0.8,0.2-1.2
		c0.2-0.6,0.4-1.2,0.9-1.7c0.3-0.4,0.8-0.7,1.3-0.7c0.2,0,0.4,0,0.6,0.1c0.4,0.2,0.7,0.6,0.8,1c0,0,0,0.1,0,0.1
		c0,0.2-0.1,0.3-0.3,0.3c0,0,0,0,0,0h-0.1c-0.1,0-0.2-0.1-0.2-0.2l0,0c0-0.1-0.1-0.2-0.2-0.4c-0.1-0.2-0.4-0.4-0.7-0.4
		c-0.2,0-0.3,0.1-0.5,0.2c-0.4,0.3-0.6,0.7-0.8,1.1c-0.2,0.5-0.3,1.1-0.4,1.6c0,0.4,0.1,0.9,0.3,1.3c0.1,0.3,0.4,0.5,0.8,0.6
		c0.3,0,0.5-0.2,0.7-0.4c0.3-0.4,0.6-0.8,0.7-1.3h-1c-0.2,0-0.3-0.2-0.4-0.4v-0.1C228.6,420.8,228.7,420.7,228.9,420.7z"/>
	<path class="st3" d="M233.8,417.9c0,0,0,0.1,0,0.1c0.1,0.2,0.4,2,1,5.4c0,0,0,0.1,0,0.1c0,0.1,0,0.1,0,0.2
		c-0.1,0.1-0.2,0.2-0.3,0.2h-0.1c-0.1,0-0.2-0.1-0.2-0.2l-0.3-1.8h-1.8l-0.9,1.8c0,0,0,0,0,0.1c-0.1,0.1-0.2,0.1-0.3,0.2
		c-0.1,0-0.1,0-0.2-0.1c-0.1-0.1-0.1-0.2-0.1-0.3c0,0,0-0.1,0-0.1l0.3-0.6c1.2-2.7,2-4.3,2.2-4.8c0-0.1,0.2-0.2,0.3-0.2
		C233.6,417.7,233.7,417.8,233.8,417.9z M233.4,419.1l-1,2h1.4L233.4,419.1z"/>
	<path class="st3" d="M238.6,423.8H236c-0.1,0-0.1,0-0.2-0.1c-0.1,0-0.1-0.2-0.1-0.3l0,0c0-0.1,0.2-1.9,0.7-5.3c0,0,0-0.1,0-0.1
		c0-0.1,0.2-0.2,0.3-0.2c0,0,0.1,0,0.1,0c0.1,0,0.2,0.2,0.2,0.3c0,0.2-0.1,0.7-0.2,1.5c-0.3,2.3-0.5,3.5-0.5,3.6h2.2
		c0.1,0,0.1,0,0.2,0c0.1,0,0.2,0.2,0.2,0.3c0,0,0,0.1,0,0.1C238.9,423.6,238.8,423.7,238.6,423.8z"/>
	<path class="st3" d="M242.2,417.9v0.1c0.1,0.2,0.4,2,1,5.4c0,0,0,0.1,0,0.1c0,0.1,0,0.1,0,0.2c-0.1,0.1-0.2,0.2-0.3,0.2h-0.1
		c-0.1,0-0.2-0.1-0.2-0.2l-0.3-1.8h-1.8l-0.9,1.8v0.1c-0.1,0.1-0.2,0.2-0.3,0.2c-0.1,0-0.1,0-0.2-0.1c-0.1-0.1-0.2-0.2-0.1-0.4
		c0.1-0.1,0.1-0.3,0.3-0.6c1.2-2.7,2-4.3,2.2-4.8c0-0.1,0.2-0.2,0.3-0.2C242,417.7,242.1,417.8,242.2,417.9z M241.8,419.1l-1,2h1.4
		L241.8,419.1z"/>
	<path class="st3" d="M246.3,421c0.2,0.6,0.4,1,0.5,1.3c0.3,0.7,0.4,1.1,0.4,1.2c0,0.1,0,0.1-0.1,0.1c-0.1,0.1-0.2,0.2-0.3,0.1
		c-0.1,0-0.2-0.1-0.3-0.2c0-0.1,0-0.1-0.1-0.1c-0.1-0.3-0.4-0.9-0.7-1.8l-1.5,2c-0.1,0.1-0.2,0.2-0.3,0.2c-0.1,0-0.1,0-0.2,0
		c-0.1-0.1-0.2-0.2-0.1-0.3v-0.1c0-0.1,0.1-0.2,0.2-0.3c0.5-0.6,1-1.4,1.6-2.3c-0.1-0.2-0.1-0.3-0.2-0.5c-0.6-1.5-0.8-2.3-0.8-2.3
		c0,0,0-0.1,0-0.1c0-0.1,0.1-0.2,0.3-0.2c0.1,0,0.2,0.1,0.3,0.2l0.9,2.4l1.7-2.4c0.1-0.1,0.2-0.1,0.3-0.1c0,0,0.1,0,0.1,0
		c0.1,0.1,0.2,0.2,0.1,0.3c0,0,0,0.1,0,0.1L246.3,421z"/>
	<path class="st3" d="M252.8,417.8c0,0,0.1,0,0.1,0c0.1,0.1,0.2,0.2,0.2,0.3c-0.4,3.4-0.7,5.2-0.7,5.5c-0.1,0.5-0.3,1-0.6,1.4
		c-0.4,0.6-1,0.9-1.7,0.9c-0.3,0-0.6-0.1-0.8-0.2c-0.4-0.2-0.7-0.4-0.9-0.8c0,0,0-0.1,0-0.1c0-0.1,0-0.1,0-0.2
		c0.1-0.1,0.3-0.2,0.4-0.1c0,0,0.1,0.1,0.1,0.1c0.3,0.5,0.8,0.7,1.3,0.8c0.4,0,0.8-0.2,1-0.5c0.4-0.5,0.6-1,0.6-1.6
		c-0.1,0.2-0.2,0.3-0.4,0.4c-0.3,0.2-0.6,0.3-0.9,0.3h-0.2c-0.4-0.1-0.8-0.3-1-0.7c-0.3-0.5-0.5-1.1-0.4-1.7c0-0.3,0-0.6,0-1
		c0.1-0.8,0.2-1.5,0.4-2.3c0,0,0-0.1,0-0.1c0-0.1,0.1-0.2,0.3-0.2c0.1,0,0.1,0,0.2,0c0.1,0,0.2,0.1,0.1,0.3c0,0.2-0.1,0.6-0.1,1.2
		c-0.1,0.6-0.2,1.2-0.2,1.8c0,0.5,0.1,1,0.2,1.4c0.2,0.4,0.4,0.6,0.8,0.6h0.1c0.3-0.1,0.6-0.3,0.8-0.6c0.3-0.4,0.5-0.9,0.6-1.4
		l0.4-3c0,0,0-0.1,0-0.1C252.4,417.7,252.5,417.6,252.8,417.8C252.7,417.7,252.7,417.7,252.8,417.8z"/>
	<path class="st0" d="M291.6,428.6c-0.1,0-0.2-3.6-0.2-7.9s0.1-7.9,0.2-7.9s0.2,3.5,0.2,7.9S291.7,428.6,291.6,428.6z"/>
	<path class="st1" d="M220.9,428.6c-0.1,0-0.2-3.6-0.2-7.9s0.1-7.9,0.2-7.9s0.2,3.5,0.2,7.9S221,428.6,220.9,428.6z"/>
	<path class="st0" d="M293.1,428.6c-0.1,0-0.2-3.6-0.2-7.9s0.1-7.9,0.2-7.9s0.1,3.5,0.1,7.9S293.2,428.6,293.1,428.6z"/>
	<path class="st1" d="M219.5,428.6c-0.1,0-0.2-3.6-0.2-7.9s0.1-7.9,0.2-7.9s0.2,3.5,0.2,7.9S219.6,428.6,219.5,428.6z"/>
	<path class="st1" d="M270.6,415.4L270.6,415.4l9.1,7.4l0.1,0.1h-0.1l-1.2,0.3l-7.7,2l0,0l-7-3l-2-0.8l-0.5-0.2l-0.1-0.1h0h0h0.1
		l0.5,0.2l2,0.8l7,2.9l0,0l7.7-2l1.2-0.3v0.1L270.6,415.4L270.6,415.4L270.6,415.4"/>
	<polygon class="st1" points="278.9,421.6 279.4,422 280.1,421.9 279.8,422.5 280.2,423.1 279.5,423 279,423.5 278.9,422.9 
		278.3,422.6 278.9,422.3 	"/>
	<polygon class="st1" points="270.2,424.5 270.5,424.8 271,424.6 270.8,425 271,425.4 270.6,425.4 270.3,425.7 270.2,425.3 
		269.8,425.1 270.2,424.9 	"/>
	<polygon class="st1" points="260.5,420.5 261,420.5 261.4,420.1 261.5,420.6 262,420.8 261.6,421.1 261.6,421.6 261.1,421.3 
		260.6,421.5 260.8,421 	"/>
	<polygon class="st1" points="283,415.5 283.6,415.5 283.9,415.1 284,415.6 284.5,415.8 284.1,416.1 284.1,416.6 283.7,416.3 
		283.1,416.5 283.3,415.9 	"/>
	<polygon class="st1" points="270.2,415.1 270.5,415.2 270.8,414.9 270.9,415.2 271.2,415.3 270.9,415.5 270.9,415.9 270.6,415.6 
		270.3,415.8 270.4,415.4 	"/>
	<path class="st1" d="M283.8,415.9c0,0-3-0.1-6.6-0.2s-6.6-0.3-6.6-0.3s3,0.1,6.6,0.2S283.8,415.8,283.8,415.9z"/>
	<path class="st1" d="M287.1,412.8h-87.6c-1.1-2.6-1.4-5.1,0-7.3h87.6C288.2,407.8,288.2,410.5,287.1,412.8z"/>
	<rect x="217.7" y="407.6" class="st2" width="47.5" height="2.6"/>
	<path class="st1" d="M202.9,412.9c-0.3-0.2-0.5-0.5-0.7-0.9c-0.4-0.8-0.7-1.7-0.8-2.6c-0.1-0.9,0-1.8,0.3-2.7
		c0.1-0.4,0.3-0.7,0.5-1c-0.1,0.4-0.2,0.7-0.3,1.1c-0.5,1.7-0.3,3.5,0.4,5.1C202.6,412.2,202.7,412.5,202.9,412.9z"/>
	<path class="st1" d="M204.8,412.9c-0.3-0.2-0.5-0.5-0.7-0.9c-0.9-1.6-1.1-3.5-0.5-5.3c0.1-0.4,0.3-0.7,0.5-1c0,0-0.1,0.4-0.3,1.1
		c-0.2,0.8-0.3,1.7-0.2,2.6c0.1,0.9,0.3,1.7,0.7,2.5C204.5,412.2,204.6,412.5,204.8,412.9z"/>
	<path class="st0" d="M283.6,412.7c0.4-1.2,0.6-2.4,0.6-3.6c0-1.2-0.2-2.4-0.6-3.6c0.6,1.1,0.9,2.3,0.9,3.6
		C284.5,410.4,284.2,411.6,283.6,412.7z"/>
	<path class="st0" d="M281.9,412.7c-0.1,0,0.3-1.6,0.3-3.5s-0.4-3.5-0.3-3.5c0.4,1.1,0.6,2.3,0.6,3.5
		C282.6,410.4,282.4,411.6,281.9,412.7z"/>
</g>
<g id="freepik--Blackboard--inject-37">
	<rect x="86.6" y="126.6" class="st4" width="331.9" height="237.1"/>
	<rect x="94.5" y="136" class="st5" width="313.8" height="218.5"/>
	<path class="st4" d="M408.3,354.5c0-1.7-0.1-85.6-0.2-218.5l0.2,0.2l-313.7,0.1l0,0l0.3-0.3c0,78.1,0,152.2,0,218.5l-0.2-0.2
		L408.3,354.5l-313.7,0.2h-0.2v-0.2c0-66.2,0-140.4,0-218.5v-0.3h0.3l313.7,0.1h0.2v0.2C408.4,268.9,408.3,352.8,408.3,354.5z"/>
	<rect x="75.8" y="363.6" class="st4" width="361" height="9.4"/>
	<path class="st5" d="M428.4,363.6c0,0.1-64,0.3-142.9,0.3s-142.9-0.1-142.9-0.3s64-0.3,142.9-0.3S428.4,363.5,428.4,363.6z"/>
	<path class="st5" d="M95.7,135.6c-1.6-1.3-3.1-2.8-4.6-4.3c-1.6-1.4-3-2.9-4.4-4.5c1.7,1.2,3.3,2.6,4.8,4.1
		C93.1,132.3,94.5,133.9,95.7,135.6z"/>
	<path class="st5" d="M418.5,127c-1.5,1.8-3.1,3.5-4.8,5c-1.6,1.7-3.4,3.3-5.2,4.7c1.5-1.8,3.1-3.5,4.8-5.1
		C415,130,416.7,128.4,418.5,127z"/>
	<path class="st5" d="M419.7,363.3c-3.9-2.5-7.5-5.5-10.6-8.9c1.9,1.3,3.7,2.8,5.4,4.3C416.3,360.2,418.1,361.7,419.7,363.3z"/>
	<path class="st6" d="M363.4,250.5c0,0,0-0.1,0-0.3s0-0.4,0-0.8c0-0.7,0-1.7,0-2.9c0-2.6,0-6.4-0.1-11.2c0-9.6-0.1-23.3-0.1-39.7
		l0.2,0.2h-54.8l0,0l0.3-0.3c0,20.1,0,38.9,0,54.8l-0.2-0.2l39.7,0.1l11.2,0.1h3L363.4,250.5c0.1-0.1,0-0.1-0.2-0.1h-0.7h-2.9
		l-11.1,0.1l-39.8,0.1h-0.2v-0.2c0-15.9,0-34.8,0-54.8v-0.3h0.3h54.8h0.2v0.2c0,16.5-0.1,30.2-0.1,39.8c0,4.8,0,8.5-0.1,11.1
		c0,1.3,0,2.2,0,2.9c0,0.3,0,0.6,0,0.7S363.4,250.5,363.4,250.5z"/>
	<path class="st6" d="M363.4,250.5l0.4-0.3l1.3-0.8l4.9-3.1l17.9-11.1l-0.1,0.2c0-14.3,0-33.3-0.1-54l0.3,0.3h-0.2l-54-0.1h0.1
		L315.4,192l-5,2.8l-1.3,0.7l-0.5,0.2l0.4-0.3l1.3-0.8l5-2.9l18.3-10.5h0h0l54-0.1h0.4v0.3c0,20.8,0,39.7-0.1,54v0.1l-0.1,0.1
		l-18,11l-4.9,3l-1.3,0.8C363.7,250.4,363.5,250.5,363.4,250.5z"/>
	<path class="st6" d="M387.9,181.4c0.1,0.1-5.4,3.4-12.1,7.4s-12.3,7-12.4,6.9s5.4-3.4,12.1-7.4S387.8,181.3,387.9,181.4z"/>
	<path class="st6" d="M311.1,248.3c0.1,0.1-0.5,0.6-1.2,1s-1.4,0.6-1.4,0.5s0.5-0.6,1.2-1S311.1,248.1,311.1,248.3z"/>
	<path class="st6" d="M316.3,245.3c0.1,0.1-0.5,0.6-1.2,1s-1.4,0.6-1.4,0.5s0.5-0.6,1.2-1S316.3,245.1,316.3,245.3z"/>
	<path class="st6" d="M321.5,242.3c0.1,0.1-0.5,0.6-1.2,1s-1.4,0.6-1.4,0.5s0.5-0.6,1.2-1S321.5,242.1,321.5,242.3z"/>
	<path class="st6" d="M326.8,239.3c0.1,0.1-0.5,0.6-1.2,1s-1.4,0.6-1.4,0.5s0.5-0.6,1.2-1S326.7,239.2,326.8,239.3z"/>
	<path class="st6" d="M332,236.3c0.1,0.1-0.5,0.6-1.2,1s-1.4,0.6-1.4,0.5s0.5-0.6,1.2-1S331.9,236.2,332,236.3z"/>
	<path class="st6" d="M333.3,231.1c0.1,0,0.3,0.7,0.3,1.5s-0.1,1.5-0.3,1.5s-0.3-0.7-0.2-1.5S333.1,231.1,333.3,231.1z"/>
	<path class="st6" d="M333.3,225.1c0.1,0,0.3,0.7,0.3,1.5s-0.1,1.5-0.3,1.5s-0.3-0.7-0.3-1.5S333.2,225.1,333.3,225.1z"/>
	<path class="st6" d="M333.4,219.1c0.1,0,0.3,0.7,0.3,1.5s-0.1,1.5-0.3,1.5s-0.3-0.7-0.3-1.5S333.2,219.1,333.4,219.1z"/>
	<path class="st6" d="M333.4,213.1c0.1,0,0.3,0.7,0.3,1.5s-0.1,1.5-0.3,1.5s-0.3-0.7-0.3-1.5S333.3,213.1,333.4,213.1z"/>
	<path class="st6" d="M333.5,207.1c0.1,0,0.3,0.7,0.2,1.5s-0.1,1.5-0.3,1.5s-0.3-0.7-0.3-1.5S333.3,207.1,333.5,207.1z"/>
	<path class="st6" d="M333.5,201.1c0.1,0,0.3,0.7,0.3,1.5s-0.1,1.5-0.3,1.5s-0.3-0.7-0.3-1.5S333.4,201.1,333.5,201.1z"/>
	<path class="st6" d="M333.5,195.1c0.1,0,0.3,0.7,0.3,1.5s-0.1,1.5-0.3,1.5s-0.3-0.7-0.3-1.5S333.4,195.1,333.5,195.1z"/>
	<path class="st6" d="M333.6,189.1c0.1,0,0.3,0.7,0.3,1.5s-0.1,1.5-0.3,1.5s-0.3-0.7-0.2-1.5S333.5,189.1,333.6,189.1z"/>
	<path class="st6" d="M333.6,183.1c0.1,0,0.3,0.7,0.3,1.5s-0.1,1.5-0.3,1.5s-0.3-0.7-0.3-1.5S333.5,183.1,333.6,183.1z"/>
	<path class="st6" d="M384.9,235.4c0-0.1,0.7-0.3,1.5-0.3s1.5,0.1,1.5,0.3s-0.7,0.3-1.5,0.3S384.9,235.5,384.9,235.4z"/>
	<path class="st6" d="M378.9,235.4c0-0.1,0.7-0.3,1.5-0.3s1.5,0.1,1.5,0.3s-0.7,0.3-1.5,0.3S378.9,235.5,378.9,235.4z"/>
	<path class="st6" d="M372.9,235.4c0-0.1,0.7-0.3,1.5-0.3s1.5,0.1,1.5,0.3s-0.7,0.3-1.5,0.3S372.9,235.5,372.9,235.4z"/>
	<path class="st6" d="M366.9,235.4c0-0.1,0.7-0.3,1.5-0.3s1.5,0.1,1.5,0.3s-0.7,0.3-1.5,0.3S366.9,235.5,366.9,235.4z"/>
	<path class="st6" d="M360.9,235.4c0-0.1,0.7-0.3,1.5-0.3s1.5,0.1,1.5,0.3s-0.7,0.3-1.5,0.3S360.9,235.5,360.9,235.4z"/>
	<path class="st6" d="M354.9,235.4c0-0.1,0.7-0.3,1.5-0.3s1.5,0.1,1.5,0.3s-0.7,0.3-1.5,0.3S354.9,235.5,354.9,235.4z"/>
	<path class="st6" d="M348.9,235.4c0-0.1,0.7-0.3,1.5-0.3s1.5,0.1,1.5,0.3s-0.7,0.3-1.5,0.3S348.9,235.5,348.9,235.4z"/>
	<path class="st6" d="M342.9,235.4c0-0.1,0.7-0.3,1.5-0.3s1.5,0.1,1.5,0.3s-0.7,0.3-1.5,0.3S342.9,235.5,342.9,235.4z"/>
	<path class="st6" d="M336.9,235.4c0-0.1,0.7-0.3,1.5-0.3s1.5,0.1,1.5,0.3s-0.7,0.3-1.5,0.3S336.9,235.5,336.9,235.4z"/>
	<path class="st6" d="M333.2,235.4c0-0.2,0.1-0.4,0.3-0.4c0.2,0,0.4,0.1,0.4,0.3c0,0.2-0.1,0.4-0.3,0.4c0,0,0,0-0.1,0
		C333.4,235.7,333.3,235.5,333.2,235.4z"/>
	<path class="st6" d="M394.5,217.1c0.5,0,0.9,0,1.4-0.1c1.2-0.3,2.2-1,2.8-2.1c0.8-1.7,0.7-3.6-0.2-5.2c-0.2-0.4-0.6-0.8-1.1-0.9
		c-0.5-0.1-1,0.1-1.4,0.4c-0.8,0.8-1.4,1.8-1.7,2.9c-0.4,1.2-0.7,2.4-0.8,3.7h-0.5c0-4-0.1-7.4-0.1-9.9c0-1.2,0-2.1,0-2.9
		c0-0.3,0-0.7,0.1-1c0.1,0.3,0.1,0.7,0.1,1c0,0.8,0.1,1.8,0.1,2.9c0.1,2.5,0.2,5.9,0.3,9.9H393c0.1-1.3,0.3-2.6,0.8-3.9
		c0.2-0.6,0.5-1.1,0.8-1.7c0.3-0.6,0.7-1.1,1.2-1.4c0.5-0.4,1.2-0.5,1.8-0.4c0.6,0.1,1.1,0.5,1.4,1.1c1,1.8,1,3.9,0.1,5.6
		c-0.7,1.2-1.8,2-3.1,2.2c-0.4,0.1-0.7,0.1-1.1,0C394.6,217.2,394.5,217.1,394.5,217.1z"/>
	<path class="st6" d="M367.9,175.1c0,0,0,0.1-0.1,0.2c-0.1,0.2-0.3,0.3-0.5,0.4c-0.3,0.2-0.7,0.2-1,0.2c-0.5,0-1-0.2-1.4-0.6
		c-0.4-0.4-0.7-1-0.9-1.5c-0.2-0.6-0.5-1.3-0.6-1.9c-0.4-1.5-0.7-3.1-0.8-4.7h0.5c0.3,2.1,0.2,4.2-0.2,6.3c-0.3,1.3-1,2.4-1.9,3.2
		c-0.5,0.4-1.2,0.5-1.8,0.4c-0.6-0.1-1.1-0.5-1.4-1.1c-0.9-1.8-0.9-3.9,0.1-5.7c0.6-1.2,1.6-2.1,2.9-2.6c0.3-0.1,0.7-0.3,1-0.3
		c0.2-0.1,0.4-0.1,0.4,0s-0.5,0.1-1.3,0.6c-1.1,0.6-2,1.5-2.6,2.6c-0.4,0.8-0.6,1.6-0.6,2.5c-0.1,1,0.1,1.9,0.6,2.8
		c0.2,0.4,0.7,0.7,1.1,0.9c0.5,0.1,1,0,1.4-0.3c0.9-0.7,1.5-1.8,1.7-2.9c0.4-2,0.5-4.1,0.2-6.1h0.5c0.1,1.6,0.3,3.1,0.7,4.6
		c0.2,0.7,0.4,1.3,0.6,1.9c0.2,0.5,0.4,1,0.8,1.4c0.6,0.5,1.4,0.7,2.1,0.4C367.5,175.5,367.7,175.3,367.9,175.1z"/>
	<path class="st6" d="M275.6,236.4c0,0,0,0.1,0,0.3l0.1,0.9c0.1,0.8,0.2,1.9,0.3,3.4c0.2,3,0.6,7.2,0.6,12.6
		c0.1,6.2-0.6,12.4-2.1,18.5c-0.9,3.6-2.3,7-4,10.3c-1.9,3.5-4.3,6.7-7.1,9.5c-2.9,2.9-5.8,5.5-8.3,8.4c-2.4,2.8-4.3,5.9-5.7,9.3
		c-2.3,5.8-3.5,11.9-3.7,18.1c-0.2,5.3,0,9.6,0.1,12.5c0.1,1.5,0.1,2.6,0.2,3.4c0,0.4,0,0.7,0,0.9c0,0.1,0,0.2,0,0.3
		c0-0.1,0-0.2,0-0.3c0-0.2-0.1-0.5-0.1-0.9c-0.1-0.8-0.1-2-0.3-3.4c-0.2-3-0.5-7.3-0.3-12.6c0.1-6.3,1.3-12.4,3.6-18.3
		c1.4-3.4,3.3-6.6,5.8-9.4c2.5-2.9,5.5-5.6,8.3-8.4c2.8-2.7,5.2-5.9,7.1-9.3c1.7-3.2,3.1-6.6,4-10.2c1.5-6,2.3-12.2,2.2-18.4
		c0-5.3-0.3-9.6-0.4-12.5c-0.1-1.5-0.1-2.6-0.2-3.4c0-0.4,0-0.7,0-0.9C275.6,236.6,275.6,236.5,275.6,236.4z"/>
	<path class="st6" d="M264.4,253.4c-0.5-0.9-0.9-1.8-1.2-2.7c-0.7-1.7-1.6-4-2.7-6.6l-0.2-0.4h0.5c-1.1,2-1.9,4.1-2.5,6.2
		c-0.5,1.7-0.6,2.7-0.7,2.7c0-0.9,0.1-1.8,0.4-2.7c0.5-2.2,1.3-4.4,2.4-6.4l0.3-0.5l0.2,0.5c0,0.1,0.1,0.3,0.2,0.4
		c1,2.6,1.9,4.9,2.5,6.6C263.9,251.6,264.2,252.5,264.4,253.4z"/>
	<path class="st6" d="M259.3,348.1c-0.1,0,0.1-23.4,0.7-52.2s1-52.2,1.2-52.2s-0.1,23.4-0.7,52.2S259.5,348.1,259.3,348.1z"/>
	<path class="st6" d="M281.5,294c0,0.1-8.2,0.3-18.3,0.3S245,294.2,245,294s8.2-0.3,18.3-0.3C273.4,293.7,281.5,293.9,281.5,294z"/>
	<path class="st6" d="M277.5,298c0.9-0.5,1.8-1,2.7-1.3c1.7-0.8,4.1-1.8,6.7-2.9v0.5l-0.3-0.1c-2.8-0.9-5.3-1.8-7.2-2.5
		c-1-0.3-2-0.7-2.9-1.2c1,0.2,2,0.5,3,0.8c1.9,0.6,4.4,1.4,7.2,2.3l0.3,0.1l0.7,0.2l-0.6,0.3c-2.6,1.1-5.1,2.1-6.8,2.8
		C279.4,297.5,278.4,297.8,277.5,298z"/>
	<path class="st6" d="M281.6,286.8c0,0-0.1,0.1-0.2,0.4l-0.6,0.7l0.4-0.8c0.3-0.6,1.2-2,2.3-3.6c0.8-1.3,1.8-2.6,2.9-3.7
		c-0.7,1.4-1.5,2.8-2.5,4c-1.1,1.6-2.1,2.9-2.6,3.4l-0.2-0.1C281.5,286.9,281.6,286.8,281.6,286.8z"/>
	<path class="st6" d="M287.9,286.1c-1.2-0.9-2.3-1.9-3.3-3c-1.1-1-2.1-2.2-2.9-3.4c1.2,0.9,2.3,1.9,3.3,3
		C286.1,283.7,287.1,284.9,287.9,286.1z"/>
	<path class="st6" d="M254.7,284.7c0,0,0.3-0.2,0.8-0.1c0.7,0.2,1.3,0.8,1.4,1.6c0.1,1.1-0.1,2.2-0.6,3.1c-0.2,0.6-0.6,1.1-1.1,1.6
		c-1,0.8-2.4,0.7-3.2-0.3c-0.2-0.2-0.3-0.5-0.4-0.7c-0.2-0.6-0.3-1.3-0.2-1.9c0.2-1.1,0.7-2.1,1.5-2.8c0.6-0.5,1.3-0.7,2.1-0.6
		c0.5,0.1,0.7,0.4,0.7,0.4s-0.3-0.1-0.7-0.2c-0.7,0-1.3,0.2-1.8,0.6c-0.7,0.7-1.1,1.6-1.3,2.6c-0.1,0.6,0,1.1,0.2,1.7
		c0.2,0.5,0.7,1,1.2,1.1c0.6,0.1,1.2,0,1.6-0.4c0.4-0.4,0.8-0.8,1-1.3c0.5-0.9,0.7-1.9,0.6-2.9c-0.1-0.7-0.5-1.2-1.1-1.5
		C255.1,284.7,254.9,284.7,254.7,284.7z"/>
	<path class="st6" d="M249.6,250.7c-0.1,0.1-0.9-0.8-1.7-1.9c-0.6-0.6-1-1.4-1.3-2.2c0.1-0.1,0.9,0.8,1.7,1.9
		C248.9,249.2,249.3,249.9,249.6,250.7z"/>
	<path class="st6" d="M247.4,256.1c0.4-1.8,1-3.6,1.7-5.4c0.6-1.8,1.3-3.5,2.2-5.2c-0.4,1.8-1,3.6-1.7,5.4
		C249.1,252.7,248.3,254.4,247.4,256.1z"/>
	<path class="st6" d="M306.7,296.1c-2-1.7-3.8-3.7-5.3-5.9C303.4,291.9,305.2,293.9,306.7,296.1z"/>
	<path class="st6" d="M305.5,304.4c0.1-0.8,0.2-1.6,0.5-2.3c0.4-1.4,1-3.4,1.7-5.5s1.5-4,2.1-5.3c0.3-0.7,0.7-1.5,1.1-2.1
		c-0.2,0.8-0.4,1.5-0.8,2.2c-0.5,1.4-1.2,3.2-2,5.3s-1.4,4-1.8,5.4C306.1,302.9,305.8,303.7,305.5,304.4z"/>
	<path class="st6" d="M324.2,293.5c-2.7,0.3-5.5,0.3-8.2,0C318.7,293.1,321.5,293.1,324.2,293.5z"/>
	<path class="st6" d="M325.1,300.2c-3.2,0.3-6.3,0.3-9.5,0C318.8,299.8,322,299.8,325.1,300.2z"/>
	<path class="st6" d="M338,303.3c-2.8-2.7-5.4-5.7-7.8-8.9c1.5,1.3,2.8,2.7,4.1,4.3C335.7,300.1,336.9,301.7,338,303.3z"/>
	<path class="st6" d="M337.4,293.1c-0.3,0.7-0.7,1.4-1.1,2.1l-2.9,4.8l-2.8,4.8c-0.4,0.7-0.8,1.4-1.3,2c0.2-0.8,0.5-1.5,0.9-2.1
		c0.7-1.3,1.6-3,2.7-4.9s2.2-3.6,3-4.8C336.4,294.3,336.9,293.7,337.4,293.1z"/>
	<path class="st6" d="M345.2,290.4c0,0.1-2.5-0.4-6.1-0.2h-0.4l0.2-0.4c0.9-1.4,1.9-2.9,2.9-4.6c0.8-1.3,1.9-2.6,1.6-3.9
		c-0.1-0.6-0.6-1-1.1-1.1c-0.5-0.1-1.1,0-1.5,0.2c-0.7,0.4-1.2,1-1.6,1.7c-0.1,0.3-0.3,0.5-0.5,0.8c0.1-0.3,0.2-0.6,0.3-0.9
		c0.4-0.8,0.9-1.4,1.6-1.9c0.5-0.3,1.2-0.4,1.8-0.3c0.8,0.1,1.4,0.7,1.5,1.4c0.1,0.8,0,1.6-0.4,2.3c-0.4,0.7-0.8,1.3-1.2,2l-3,4.6
		l-0.2-0.4c1.5,0,3,0,4.4,0.3C344.1,290,344.6,290.1,345.2,290.4z"/>
	<path class="st6" d="M370.4,282.7c0,0,0.3,0.2,1,0.5c0.9,0.4,2,0.4,2.9,0c1.4-0.6,2.2-2,2.1-3.5c-0.1-0.8-0.6-1.6-1.3-2
		c-0.8-0.5-1.7-0.6-2.5-0.3l-0.2-0.5l0.3-0.1c0.9-0.2,1.8-0.7,2.5-1.3c0.7-0.6,1-1.4,0.8-2.3c-0.2-0.8-0.7-1.4-1.4-1.7
		c-0.6-0.3-1.3-0.3-2-0.1c-1,0.3-1.9,0.9-2.5,1.7c-0.4,0.6-0.6,1-0.7,1c0.1-0.4,0.3-0.7,0.5-1.1c0.6-1,1.5-1.7,2.5-2
		c0.7-0.2,1.6-0.2,2.3,0.1c1.4,0.5,2.2,2.1,1.6,3.5c-0.2,0.5-0.5,0.9-0.9,1.2c-0.8,0.7-1.7,1.2-2.7,1.4l-0.3,0.1l-0.2-0.5
		c1.7-0.7,3.7,0.2,4.3,1.9c0.1,0.3,0.2,0.5,0.2,0.8c0.1,1.7-0.9,3.2-2.4,3.8c-1,0.3-2.1,0.3-3.1-0.2c-0.3-0.1-0.5-0.3-0.7-0.5
		C370.5,282.8,370.4,282.8,370.4,282.7z"/>
	<path class="st6" d="M385.7,270.5c0.1-0.1,0.3-0.2,0.4-0.2c0.5,0,0.9,0.2,1.1,0.6c0.2,0.3,0.3,0.6,0.3,0.9c0,0.4-0.1,0.8-0.3,1.1
		c-0.5,0.8-1.1,1.4-1.8,2c-0.8,0.7-1.7,1.4-2.6,2c-1.1,0.5-1.7,1.6-1.8,2.7c0.1,1.3,0.9,2.4,2.2,2.8c1.3,0.5,2.8,0.3,3.9-0.5
		c0.6-0.4,1-1,1.1-1.6c0.1-0.7-0.1-1.3-0.5-1.8c-0.9-1-2-1.7-3.3-2c-1.2-0.3-2.4-0.9-3.3-1.8c-0.4-0.4-0.7-1-0.9-1.5
		c-0.1-0.5-0.1-1.1,0.2-1.6c0.4-0.8,1.1-1.5,1.9-1.9c0.6-0.3,1.3-0.4,2-0.5c0.5,0,1-0.1,1.3-0.1c0.1,0,0.3,0,0.4,0
		c0,0-0.6,0.1-1.7,0.2c-0.6,0.1-1.3,0.3-1.9,0.6c-0.8,0.4-1.4,1-1.7,1.8c-0.4,1-0.1,2,0.7,2.7c0.9,0.8,2,1.4,3.1,1.6
		c1.4,0.3,2.6,1.1,3.6,2.1c0.5,0.6,0.7,1.4,0.6,2.2c-0.1,0.8-0.6,1.5-1.3,2c-1.3,0.9-3,1.1-4.5,0.6c-0.7-0.2-1.3-0.7-1.8-1.3
		c-0.4-0.6-0.7-1.3-0.7-2c0-0.7,0.2-1.4,0.6-1.9c0.4-0.5,0.9-0.9,1.4-1.2c0.9-0.6,1.7-1.2,2.6-1.9c0.7-0.5,1.3-1.1,1.8-1.9
		c0.4-0.5,0.4-1.2,0.1-1.8c-0.2-0.4-0.6-0.6-1-0.6C385.9,270.5,385.8,270.5,385.7,270.5z"/>
	<path class="st6" d="M395.7,278.5c-0.6,0.2-1.2,0.3-1.8,0.4l-1.9,0.3c-0.4,0.1-0.8,0.1-1.2,0.1c-0.2,0-0.5-0.1-0.7-0.2
		c-0.2-0.2-0.4-0.4-0.4-0.7c0-0.5,0.1-0.9,0.3-1.3c0.1-0.4,0.3-0.7,0.5-1l0.8-1.8c0.2-0.6,0.5-1.1,0.9-1.6c-0.1,0.6-0.3,1.2-0.5,1.7
		c-0.2,0.6-0.5,1.2-0.7,1.8c-0.1,0.4-0.3,0.7-0.4,1c-0.2,0.3-0.3,0.7-0.3,1c0,0.3,0.3,0.4,0.6,0.5c0.4,0,0.7,0,1.1-0.1l1.9-0.1
		C394.5,278.4,395.1,278.4,395.7,278.5z"/>
	<path class="st6" d="M396.7,283.9c-0.4-2.1-0.7-4.2-0.8-6.3c-0.3-2.1-0.3-4.2-0.2-6.3c0.4,2.1,0.7,4.2,0.8,6.3
		C396.7,279.6,396.8,281.8,396.7,283.9z"/>
	<path class="st6" d="M375.5,302.8c0.1,0,0.1,0.4,0.2,1.1h-0.3c-0.2-1.7-0.4-3.7-0.6-6c-0.4-3.9-0.9-7.1-0.7-7.1
		c0.3,0.6,0.4,1.3,0.5,2c0.3,1.3,0.5,3,0.7,5c0.2,2,0.4,4,0.4,6h-0.3C375.4,303.5,375.4,303.1,375.5,302.8z"/>
	<path class="st6" d="M387.1,289.7c-2.1,0.9-4.3,1.6-6.5,1.8c1-0.5,2.1-0.9,3.2-1.2C384.8,290,385.9,289.8,387.1,289.7z"/>
	<path class="st6" d="M380.3,301.5c0.3,0,0.5,0.1,0.8,0.2c0.7,0.1,1.5,0,2.1-0.2c1-0.3,1.9-1.1,2.4-2c0.3-0.5,0.4-1.2,0.4-1.8
		c0-0.6-0.3-1.2-0.8-1.6c-0.6-0.4-1.4-0.5-2.1-0.2c-0.7,0.3-1.3,0.6-1.9,1.1l-0.3,0.3v-0.4c-0.1-1.4-0.2-2.8,0-4.2
		c0-0.5,0.1-1.1,0.2-1.6c0.1,0-0.1,2.4,0.3,5.8l-0.4-0.2c0.6-0.5,1.3-0.9,2-1.2c0.8-0.4,1.8-0.3,2.6,0.3c0.6,0.5,1,1.2,1,2
		c0,0.7-0.1,1.4-0.5,2c-0.6,1-1.6,1.8-2.7,2.1c-0.7,0.2-1.5,0.2-2.3,0C380.5,301.8,380.3,301.6,380.3,301.5z"/>
	<path class="st6" d="M366.1,290.3c0,0.1-0.9,0.3-2.1,0.3s-2.1-0.1-2.1-0.3C363.3,289.9,364.8,289.9,366.1,290.3z"/>
	<path class="st6" d="M136.9,294.8c-0.1,0-0.3-21.8-0.3-48.8s0.1-48.8,0.3-48.8s0.3,21.8,0.3,48.8S137,294.8,136.9,294.8z"/>
	<path class="st6" d="M139.8,198.1c-1.3-1.8-2.4-3.7-3.3-5.7h0.5v0.1c-0.8,2.1-1.7,4.1-2.8,6.1c0.6-2.2,1.4-4.2,2.4-6.3l0.1-0.1
		l0.2-0.5l0.3,0.5C138,194,139,196,139.8,198.1z"/>
	<path class="st6" d="M136.3,185.7c-0.1,0.1-0.9-0.4-1.5-1.4s-0.8-1.9-0.7-1.9s0.5,0.8,1.1,1.7S136.4,185.6,136.3,185.7z"/>
	<path class="st6" d="M134.8,188.5c0.3-1.2,0.7-2.4,1.2-3.5c0.4-1.2,0.8-2.3,1.4-3.4c-0.1,1.2-0.4,2.5-0.9,3.6
		C136.1,186.4,135.5,187.5,134.8,188.5z"/>
	<path class="st6" d="M129.9,210.1c0.4-1,0.6-2,0.9-3c0.1-1,0.1-2.1,0.1-3.1C131.8,206,131.4,208.4,129.9,210.1L129.9,210.1z"/>
	<path class="st6" d="M130.8,206c0.1,0-0.1,0.4-0.8,0.6c-0.8,0.2-1.6-0.3-1.7-1.1s0.3-1.6,1.1-1.7c0.2,0,0.3,0,0.5,0
		c0.6,0.1,0.8,0.5,0.8,0.5s-0.3-0.2-0.8-0.1c-0.6,0-1,0.5-1,1.1c0,0.6,0.5,1,1.1,1C130.5,206.2,130.8,205.9,130.8,206z"/>
	<path class="st6" d="M212.8,287.9c0,0.1-18.7,0.3-41.7,0.3s-41.8-0.1-41.8-0.3s18.7-0.3,41.8-0.3S212.8,287.7,212.8,287.9z"/>
	<path class="st6" d="M213.7,287.8c-1.2-0.2-2.4-0.6-3.4-1.1c-1.2-0.4-2.2-0.9-3.3-1.6C209.3,285.6,211.6,286.5,213.7,287.8
		L213.7,287.8z"/>
	<path class="st6" d="M214.6,288.1c-0.8,0.6-1.8,1-2.8,1.2c-0.9,0.4-1.9,0.7-2.9,0.8C210.6,289.1,212.6,288.4,214.6,288.1z"/>
	<path class="st6" d="M132.9,290.5c0.6,0.4,1,1,1.1,1.7c0.2,0.8,0.1,1.5-0.2,2.3c-0.2,0.4-0.5,0.8-0.8,1.1c-0.5,0.3-1.1,0.4-1.6,0.1
		c-0.8-0.6-1.2-1.5-1.2-2.5c0-0.8,0.3-1.6,0.9-2.1c0.4-0.3,0.9-0.5,1.5-0.5c0.4,0,0.5,0.2,0.5,0.2s-0.2,0-0.5,0
		c-0.5,0-0.9,0.2-1.2,0.5c-0.5,0.5-0.7,1.1-0.7,1.8c0,0.8,0.4,1.6,1,2.1c0.3,0.2,0.7,0.2,1,0c0.3-0.2,0.5-0.5,0.7-0.9
		c0.3-0.6,0.4-1.3,0.2-2C133.5,291.7,133.3,291.1,132.9,290.5z"/>
	<path class="st6" d="M200.9,291.6c0,0,0.3-0.2,0.7,0.2c0.2,0.2,0.4,0.5,0.4,0.8c0,0.4-0.2,0.8-0.5,1.1c-0.6,0.6-1.7,0.9-2.2,1.7
		c-0.2,0.4-0.2,0.9,0,1.4c0.3,0.4,0.8,0.7,1.3,0.6c0.5-0.1,0.9-0.4,1.1-0.9c0.2-0.5,0-1-0.3-1.3c-0.3-0.4-0.7-0.7-1.1-0.9
		c-0.5-0.2-0.8-0.5-1-1c-0.1-0.4,0-0.8,0.3-1.2c0.2-0.2,0.4-0.4,0.7-0.5c0.2-0.1,0.5-0.2,0.7-0.1c0,0-0.3,0.1-0.6,0.3
		c-0.2,0.1-0.4,0.3-0.6,0.5c-0.2,0.3-0.2,0.6-0.1,0.9c0.2,0.7,1.4,0.8,2.1,1.7c0.4,0.5,0.6,1.2,0.4,1.8c-0.2,0.7-0.8,1.2-1.5,1.3
		c-0.7,0.1-1.4-0.3-1.8-0.9c-0.3-0.6-0.3-1.3,0-1.9c0.3-0.4,0.7-0.8,1.2-1c0.4-0.2,0.7-0.4,1.1-0.7c0.2-0.2,0.4-0.5,0.5-0.8
		c0-0.2,0-0.5-0.2-0.7C201.2,291.6,200.9,291.6,200.9,291.6z"/>
	<path class="st6" d="M200.7,289.6c-0.3-1.5-0.3-3.1,0-4.6C201,286.6,201,288.1,200.7,289.6z"/>
	<path class="st6" d="M223,288c-0.5,0.2-0.9,0.2-1.4,0.2l-1.6,0.1c-0.1,0-0.2,0-0.4-0.1c-0.2-0.1-0.2-0.3-0.2-0.5
		c0-0.2,0.2-0.4,0.3-0.5l0.7-0.7c0.5-0.4,0.8-0.9,0.8-1.5c0.1-0.4-0.2-0.9-0.6-1c-0.3,0-0.6,0-0.9,0.2c-0.2,0.1-0.4,0.1-0.4,0.1
		s0.1-0.1,0.3-0.3c0.3-0.3,0.7-0.4,1.1-0.4c0.6,0.1,1.1,0.7,1.1,1.3c0,0.7-0.4,1.4-0.9,1.8l-0.7,0.7c-0.1,0.1-0.2,0.2-0.2,0.3
		s-0.1,0-0.1,0l0,0c0,0,0,0,0-0.1h0.1h1.6C222.1,287.8,222.5,287.8,223,288z"/>
	<path class="st6" d="M148,287.9c-0.1-0.5-0.1-1-0.1-1.4c0-1,0-2.3-0.1-3.8c-0.1-3.2-0.1-7.7-0.1-12.9l0.3,0.3h-4.9
		c0.5-0.5,0.1-0.1,0.3-0.3l0,0v1.4c0,0.5,0,0.9,0,1.4v2.6c0,1.7,0,3.4,0,4.9c0,3.1-0.1,5.7-0.1,7.8l-0.1-0.2l3.5,0.1
		C147.5,287.8,148,287.8,148,287.9c-0.4,0-0.8,0-1.2,0l-3.6,0.1H143v-0.2c0-2.1-0.1-4.8-0.1-7.8c0-1.5,0-3.2,0-4.9v-5.4l0,0
		c0.1-0.1-0.3,0.3,0.3-0.3h5.1v0.3c0,5.2-0.1,9.8-0.1,13c0,1.5-0.1,2.8-0.1,3.8C148.1,286.9,148.1,287.4,148,287.9z"/>
	<path class="st6" d="M194.1,287.9c0-0.2,0-0.4,0-0.6c0-0.4,0-0.9,0-1.5c0-1.4-0.1-3.3-0.1-5.6c-0.1-4.7-0.1-11.3-0.1-18.8l0.3,0.3
		h-4.9c0.5-0.5,0.1-0.1,0.3-0.3l0,0v8.1c0,2.6,0,5,0,7.3c0,4.5-0.1,8.3-0.1,11.1l-0.1-0.1l3.6,0.1h1L194.1,287.9
		c0.1-0.1-0.3-0.1-1.2,0l-3.6,0.1h-0.1v-0.1c0-2.8-0.1-6.6-0.1-11.1c0-2.3,0-4.7,0-7.3v-4c0-0.7,0-1.4,0-2v-2.1l0,0l0.3-0.3h5.1v0.3
		c0,7.5-0.1,14.2-0.1,18.9c0,2.3-0.1,4.2-0.1,5.5c0,0.6,0,1.1,0,1.5C194.3,287.5,194.2,287.7,194.1,287.9z"/>
	<path class="st6" d="M159.6,287.9c0-0.2,0-0.5,0-0.7c0-0.5,0-1.1,0-1.9c0-1.7,0-4.1-0.1-7c0-5.9-0.1-14.1-0.1-23.4l0.3,0.3h-4.9
		c0.5-0.5,0.1-0.1,0.3-0.3l0,0v5.2c0,1.7,0,3.4,0,5c0,3.3,0,6.4,0,9.2c0,5.6-0.1,10.3-0.1,13.5l-0.1-0.1l3.6,0.1h0.9h0.3
		c-0.1,0-0.2,0-0.3,0h-0.9l-3.6,0.1h-0.1v-0.1c0-3.2,0-7.9-0.1-13.5c0-2.8,0-5.9,0-9.2c0-1.6,0-3.3,0-5v-5.2l0,0
		c0.1-0.1-0.3,0.3,0.3-0.3h5.1v0.3c-0.1,9.3-0.1,17.6-0.1,23.5c0,2.9-0.1,5.3-0.1,6.9c0,0.8,0,1.4,0,1.9
		C159.8,287.4,159.7,287.6,159.6,287.9z"/>
	<path class="st6" d="M171.1,287.8c0-0.1,0-0.2,0-0.3c0-0.2,0-0.5,0-0.8c0-0.7,0-1.7,0-3c0-2.6-0.1-6.3-0.1-10.9
		c0-9.2-0.1-21.9-0.1-36.2l0.3,0.3h-4.9c0.5-0.5,0.1-0.1,0.3-0.3v4.3c0,1.4,0,2.8,0,4.1v8c0,5.2,0,10,0,14.5
		c-0.1,8.8-0.1,15.8-0.1,20.2l-0.1-0.1l3.6,0.1h0.9h0.3h-0.3H170l-3.6,0.1h-0.1v-0.1c0-4.4-0.1-11.4-0.1-20.2c0-4.4,0-9.3,0-14.4
		c0-2.6,0-5.3,0-8v-8.4c0.1-0.1-0.3,0.3,0.3-0.3h5.1v0.3c-0.1,14.3-0.1,27.1-0.1,36.3c0,4.5-0.1,8.2-0.1,10.8c0,1.2,0,2.2,0,2.9
		c0,0.3,0,0.5,0,0.7S171.1,287.8,171.1,287.8z"/>
	<path class="st6" d="M182.8,287.8c0,0,0-0.2,0-0.5s0-0.8,0-1.3c0-1.2,0-2.8,0-5c0-4.4,0-10.6-0.1-18.4c0-15.5-0.1-37-0.1-61
		l0.3,0.3H178c0.5-0.5,0.1-0.1,0.3-0.2v14.8c0,4.8,0,9.5,0,14.1c0,9.1,0,17.5,0,25c-0.1,15-0.1,26.4-0.1,32.2l-0.1-0.1l3.6,0h0.9
		h0.3c-0.1,0-0.2,0-0.3,0h-0.9H178H178v-0.1c0-5.8-0.1-17.2-0.1-32.2c0-7.5,0-16,0-25c0-4.5,0-9.2,0-14.1v-14.7
		c0.1-0.1-0.3,0.2,0.3-0.3h4.9v0.3c0,24.1-0.1,45.6-0.1,61.2c0,7.7-0.1,14-0.1,18.3c0,2.1,0,3.8,0,5v1.3
		C182.8,287.5,182.8,287.6,182.8,287.8z"/>
	<path class="st6" d="M264,161.6l0.5,0.2c0.4,0.1,0.9,0.3,1.5,0.6c2,0.8,3.8,1.7,5.6,2.9c2.8,1.8,5.3,4.1,7.3,6.7
		c2.8,3.5,4.7,7.6,5.5,11.9c0.9,5.3,0.2,10.8-2,15.7c-1.2,2.7-3,5.2-5.1,7.3c-1.1,1.1-2.3,2.1-3.6,2.9c-0.7,0.4-1.4,0.8-2.1,1.2
		s-1.4,0.7-2.2,1c-6.1,2.4-13.1,2.5-20.1,1.9c-3.5-0.3-7-0.9-10.6-1.4c-3.7-0.5-7.3-1.4-10.8-2.5c-3.6-1.1-6.8-3-9.6-5.4
		c-1.3-1.2-2.5-2.6-3.5-4.2c-0.9-1.5-1.7-3.2-2.3-4.9c-1-3.3-1.4-6.9-1-10.3c0.4-3.3,1.3-6.6,2.8-9.5c3-5.4,7.5-9.9,13-12.8
		c4.7-2.5,9.9-4.2,15.2-4.9c4.4-0.5,8.8-0.5,13.2-0.1c3.3,0.3,6.6,0.9,9.8,1.6c2.7,0.6,4.7,1.1,6.1,1.5l1.6,0.5l0.5,0.2
		c0,0-0.2,0-0.5-0.1l-1.6-0.4c-1.4-0.4-3.5-0.9-6.1-1.4c-3.2-0.7-6.5-1.2-9.8-1.5c-4.4-0.4-8.8-0.4-13.1,0.2
		c-5.3,0.7-10.4,2.3-15.1,4.9c-5.4,2.9-9.8,7.3-12.8,12.6c-1.5,2.9-2.4,6.1-2.8,9.4c-0.4,3.4,0,6.8,1,10.1c0.5,1.7,1.3,3.3,2.2,4.8
		c1,1.5,2.1,2.9,3.4,4.1c2.8,2.4,6,4.2,9.5,5.3c3.5,1.1,7,1.9,10.6,2.4c3.6,0.6,7.1,1.1,10.6,1.4c6.9,0.7,13.9,0.6,19.9-1.8
		c5.7-2.2,10.3-6.6,12.8-12.2c2.2-4.8,3-10.2,2.1-15.4c-0.8-4.3-2.6-8.4-5.4-11.8c-2-2.6-4.5-4.9-7.2-6.7c-1.7-1.2-3.6-2.2-5.5-3
		c-0.7-0.3-1.2-0.4-1.5-0.6S264,161.6,264,161.6z"/>
	<path class="st6" d="M229.1,195.5c-0.3,0.1-0.7,0.1-1.1,0.1c-0.7,0-1.7,0.1-2.9,0.1h-1c-0.4,0-0.7,0-1.1-0.1
		c-0.2-0.1-0.4-0.2-0.6-0.4c-0.1-0.2-0.2-0.4-0.2-0.6l-0.1-1.2c-0.1-1.6-0.2-3.4-0.3-5.3s-0.2-3.6-0.2-5.3c0-0.8,0.2-1.6,0.6-2.3
		c0.4-0.6,0.9-1.1,1.6-1.4c0.9-0.3,2-0.4,2.9-0.3c0.4,0,0.7,0.1,1.1,0.2c-0.4,0-0.7,0-1.1,0c-1,0-1.9,0.1-2.8,0.5
		c-0.6,0.3-1.1,0.7-1.4,1.2c-0.3,0.7-0.5,1.4-0.4,2.1c0,1.6,0.2,3.4,0.3,5.3s0.2,3.6,0.3,5.3c0.1,0.8-0.1,1.8,0.5,1.9
		c0.3,0.1,0.7,0.1,1,0.1h1c1.2,0,2.2,0,2.9,0C228.4,195.3,228.7,195.4,229.1,195.5z"/>
	<path class="st6" d="M227.6,186.9c-0.9,0.3-1.8,0.4-2.7,0.3c-0.9,0.1-1.8,0-2.7-0.2c0.9-0.3,1.8-0.4,2.7-0.3
		C225.8,186.6,226.7,186.6,227.6,186.9z"/>
	<path class="st6" d="M241.2,184.5c-1.4,0.2-2.8,0.3-4.1,0.2c-1.4,0.1-2.8,0.1-4.1,0.1c1.3-0.4,2.7-0.6,4.1-0.6
		C238.5,184,239.9,184.1,241.2,184.5z"/>
	<path class="st6" d="M242,190.7c-1.3,0.3-2.7,0.4-4.1,0.3c-1.4,0.1-2.7-0.1-4.1-0.5c1.4-0.1,2.7-0.1,4.1,0
		C239.3,190.5,240.6,190.5,242,190.7z"/>
	<path class="st6" d="M264,194.5c0,0,0-0.6,0-1.6c-0.1-1.5-0.3-2.9-0.8-4.3c-0.2-1-0.7-1.8-1.5-2.5c-0.5-0.3-1-0.2-1.4,0.1
		c-0.5,0.4-0.8,0.8-1.1,1.4c-1.2,2.2-1.3,5.1-1.3,8.1h-0.5c0.1-2,0.1-4-0.1-6c-0.1-0.8-0.2-1.6-0.4-2.4c-0.1-0.7-0.5-1.4-1.1-1.9
		c-0.6-0.4-1.3-0.4-1.9,0c-0.6,0.4-1,1-1.2,1.6c-0.2,0.7-0.3,1.4-0.4,2.1c-0.1,0.7-0.1,1.4-0.2,2c-0.1,1.2-0.1,2.5,0,3.7h-0.4
		c-0.1-2.9-0.2-5.4-0.3-7.1c0-0.8,0-1.4,0-1.9c0-0.2,0-0.5,0-0.7c0.1,0.2,0.1,0.4,0.1,0.7c0,0.5,0.1,1.1,0.1,1.9
		c0.1,1.8,0.3,4.2,0.4,7.1h-0.4c-0.1-1.3-0.1-2.5-0.1-3.8c0-0.7,0.1-1.4,0.1-2.1c0.1-0.7,0.2-1.5,0.4-2.2c0.2-0.8,0.7-1.5,1.4-1.9
		c0.4-0.2,0.8-0.4,1.2-0.4c0.4,0,0.9,0.2,1.2,0.4c0.7,0.5,1.2,1.3,1.3,2.2c0.2,0.8,0.3,1.7,0.4,2.5c0.2,2,0.2,4.1,0.1,6.1h-0.5
		c0-3,0.2-6,1.5-8.3c0.3-0.6,0.7-1.1,1.2-1.5c0.5-0.4,1.3-0.4,1.9-0.1c0.8,0.7,1.4,1.6,1.6,2.7c0.4,1.4,0.7,2.9,0.6,4.4
		c0,0.4,0,0.8-0.1,1.2C264.1,194.2,264.1,194.4,264,194.5z"/>
	<path class="st6" d="M275.5,193.6c-0.2,0.2-0.4,0.3-0.6,0.4c-0.6,0.3-1.3,0.5-2,0.5c-1.1,0-2.1-0.3-3-0.8c-2.3-1.5-3-4.5-1.7-6.9
		c0.5-0.9,1.3-1.6,2.3-2.1c0.6-0.3,1.3-0.5,2-0.5c0.3,0,0.5,0,0.8,0.1c-0.9,0.1-1.8,0.3-2.6,0.7c-0.9,0.5-1.6,1.2-2,2
		c-1.1,2.2-0.5,4.9,1.5,6.3c0.8,0.5,1.8,0.8,2.8,0.9C273.8,194.2,274.7,194,275.5,193.6z"/>
	<path class="st6" d="M278.6,178.8c-2,0.1-3.9,0.5-5.8,1l-0.9,0.3l0.6-0.7c1.3-1.2,2.4-2.5,3.3-4c0.7-1.2,0.9-2.6,0.7-4
		c-0.1-0.6-0.5-1.1-1-1.1c-0.5,0-1,0.2-1.5,0.4c-0.7,0.3-1.3,0.8-1.8,1.4c-0.4,0.4-0.5,0.7-0.5,0.7s0-0.3,0.4-0.8
		c0.5-0.7,1.1-1.3,1.8-1.7c0.5-0.3,1.1-0.5,1.7-0.5c0.4,0,0.7,0.2,1,0.5c0.2,0.3,0.4,0.6,0.5,1c0.3,1.5,0.1,3.1-0.7,4.4
		c-0.9,1.5-2.1,2.9-3.4,4.1l-0.2-0.4c1.4-0.4,2.8-0.6,4.3-0.7C277.5,178.7,278.1,178.7,278.6,178.8z"/>
	<path class="st6" d="M392.6,300.7c0.3-0.1,0.6-0.2,0.9-0.3c0.8-0.2,1.5-0.5,2.2-1c1-0.7,1.6-1.7,1.8-2.9c0.1-0.7-0.1-1.3-0.4-1.9
		c-0.3-0.6-0.9-1.1-1.6-1.2c-0.7-0.2-1.5,0.1-2,0.6l-0.4-0.4c0.5-0.4,1-0.8,1.6-1.1c0.4-0.3,0.8-0.7,1-1.1c0.2-0.4,0.1-0.9-0.2-1.2
		c-0.3-0.3-0.7-0.4-1.1-0.4c-0.6,0.1-1.2,0.3-1.6,0.7c-0.4,0.3-0.5,0.4-0.6,0.4s0.1-0.2,0.5-0.5c0.5-0.5,1.1-0.8,1.7-0.9
		c0.5,0,1,0.1,1.4,0.4c0.5,0.4,0.6,1.1,0.4,1.6c-0.2,0.6-0.6,1.1-1.2,1.4c-0.5,0.3-1,0.7-1.5,1.1l-0.4-0.4c0.7-0.7,1.6-0.9,2.5-0.7
		c0.9,0.2,1.6,0.7,2,1.5c0.4,0.7,0.5,1.5,0.4,2.2c-0.2,1.3-1,2.4-2.1,3.1c-0.7,0.5-1.5,0.8-2.3,0.9
		C393.3,300.7,393,300.7,392.6,300.7z"/>
	<path class="st6" d="M405.5,305.6c0,0.1-7.8,1.4-17.5,2.8s-17.6,2.4-17.6,2.2s7.8-1.4,17.5-2.8S405.5,305.4,405.5,305.6z"/>
	<path class="st6" d="M342.8,310.8c0,0.1-7.8,1-17.4,2s-17.4,1.7-17.4,1.5s7.8-1.1,17.4-2S342.8,310.6,342.8,310.8z"/>
	<path class="st6" d="M344.7,315.1c0,0.1-7.3,1.1-16.3,2.1s-16.3,1.7-16.3,1.6s7.3-1.1,16.3-2.1S344.7,315,344.7,315.1z"/>
	<rect x="216" y="360" class="st3" width="34.4" height="3.8"/>
	<path class="st7" d="M263.9,320.2v43.5h74.8L263.9,320.2z M275.4,337.8l31.1,18.4h-31.1V337.8z"/>
	<path class="st4" d="M271.1,324.4c-0.3,1-0.8,1.9-1.4,2.7c-0.4,0.9-1.1,1.7-1.8,2.4C268.7,327.6,269.8,325.9,271.1,324.4
		L271.1,324.4z"/>
	<path class="st4" d="M282.2,330.8c-0.3,0.9-0.7,1.8-1.3,2.6c-0.5,0.9-1.1,1.7-1.8,2.3C279.8,333.9,280.9,332.2,282.2,330.8z"/>
	<path class="st4" d="M293.3,337.2c-0.4,0.9-0.9,1.7-1.6,2.4c-0.5,0.8-1.2,1.5-2,2.1c0.4-0.9,0.9-1.7,1.6-2.4
		C292.3,338,293.2,337.1,293.3,337.2z"/>
	<path class="st4" d="M304.2,343.8c-0.4,0.9-0.9,1.7-1.6,2.4c-0.5,0.8-1.2,1.5-2,2.1c0.4-0.9,0.9-1.7,1.6-2.4
		C303.2,344.7,304.1,343.7,304.2,343.8z"/>
	<path class="st4" d="M315.6,350.3c-0.3,0.9-0.8,1.8-1.5,2.6c-0.5,0.9-1.1,1.7-1.9,2.3c0.3-0.9,0.8-1.8,1.5-2.6
		C314.2,351.8,314.8,351,315.6,350.3z"/>
	<path class="st4" d="M327.4,357.2c-0.3,0.9-0.7,1.7-1.3,2.5c-0.4,0.8-1,1.6-1.7,2.2c0.3-0.9,0.7-1.7,1.3-2.5
		C326.1,358.6,326.7,357.8,327.4,357.2z"/>
	<path class="st4" d="M274.5,326.4c0.1,0.1-0.1,0.7-0.6,1.4s-0.9,1.2-1,1.1s0.1-0.7,0.6-1.4S274.4,326.4,274.5,326.4z"/>
	<path class="st4" d="M278.2,328.5c0.1,0.1-0.1,0.7-0.6,1.4s-0.9,1.2-1,1.1s0.1-0.7,0.6-1.4S278.1,328.4,278.2,328.5z"/>
	<path class="st4" d="M286.3,333.2c0.1,0.1-0.1,0.7-0.6,1.4s-0.9,1.2-1,1.1s0.1-0.7,0.6-1.4S286.2,333.1,286.3,333.2z"/>
	<path class="st4" d="M289.9,335.2c0.1,0.1-0.1,0.7-0.6,1.4s-0.9,1.2-1,1.1s0.1-0.7,0.6-1.4S289.8,335.2,289.9,335.2z"/>
	<path class="st4" d="M297.2,339.8c0.1,0.1-0.1,0.7-0.6,1.4s-0.9,1.2-1,1.1s0.1-0.7,0.6-1.4S297.1,339.7,297.2,339.8z"/>
	<path class="st4" d="M300.7,341.8c0.1,0.1-0.1,0.7-0.5,1.4s-0.9,1.2-1,1.1s0.1-0.7,0.6-1.4S300.6,341.7,300.7,341.8z"/>
	<path class="st4" d="M308.2,346.1c0.1,0.1-0.1,0.7-0.5,1.4s-0.9,1.2-1,1.1s0.1-0.7,0.6-1.4S308.1,346,308.2,346.1z"/>
	<path class="st4" d="M312.2,348.5c0.1,0.1-0.1,0.7-0.6,1.4s-0.9,1.2-1,1.1s0.1-0.7,0.6-1.4S312.1,348.4,312.2,348.5z"/>
	<path class="st4" d="M319.5,352.7c0.1,0.1-0.1,0.7-0.6,1.4s-0.9,1.2-1,1.1s0.1-0.7,0.6-1.4S319.3,352.7,319.5,352.7z"/>
	<path class="st4" d="M323.6,355.1c0.1,0.1-0.1,0.7-0.6,1.4s-0.9,1.2-1,1.1s0.1-0.7,0.6-1.4S323.5,355,323.6,355.1z"/>
</g>
<g id="freepik--Character--inject-37">
	<path class="st4" d="M62.1,231.3c-2.3-4.4-7.7-6-12.1-3.7c-4.4,2.3-6,7.7-3.7,12.1c1.6,3,4.8,4.9,8.3,4.7c4.4-0.2,8-3.5,11-6.8"/>
	<path class="st7" d="M65.6,229.7c-0.2-1-1.2-1.6-2.1-1.4c0,0,0,0,0,0c-1,0.3-1.7,1-1.9,2c-0.2,1-0.2,1.9,0.1,2.9
		c0.4,1.4,1.1,2.8,2,4c0.6,0.8,1.6,1.6,2.6,1.3s1.2-1.8,1.1-2.8c-0.2-2.4-0.9-4.8-2.1-7"/>
	<path class="st4" d="M90.5,190.5c4.7-6.9,10.9-13,18.3-16.7s16.4-4.9,24.4-2.2s14.6,9.5,16.1,17.7c1.2,6.5,0.2,16.7,5,21.2
		c10,9.2,8.5,26.6,2.6,36.6c0,0-9.1,11,0.7,21.1c0,0,5.8,4.1,2.9,15.2c-4.5,17.3,15.2,26.9,3.3,24.2l-39.8-4.4l-4.4-45.1"/>
	<path class="st4" d="M67,214.9c-2.5,1.8-3.4,5.2-3.1,8.3c0.2,3.1,1.4,6,2.2,9s1.2,6.3,0,9.1c-2,4.9-7.7,6.9-12,10
		c-6.8,4.9-10.5,13-9.9,21.3c0.2,2.4,0.8,4.9-0.1,7.1c-1,2.6-3.6,4.1-5.2,6.3c-2.5,3.5-2.1,8.4-0.2,12.3s5.1,6.9,8.3,9.8
		c14.7-12.8,31.1-23.5,48.7-31.8"/>
	<path class="st5" d="M61.5,233.8c-0.8,0.1-1.7,0.2-2.5,0.2c-2,0.1-4.1,0.6-5.9,1.4c-1.8,0.9-3.3,2.3-4.2,4.1
		c-0.3,0.8-0.6,1.6-0.7,2.4c-0.1-0.2-0.1-0.5,0-0.7c0-0.6,0.2-1.3,0.4-1.9c0.8-2,2.4-3.6,4.3-4.5c1.9-0.9,4-1.3,6.1-1.3
		C59.8,233.6,60.6,233.6,61.5,233.8z"/>
	<path class="st8" d="M216,278.9l19.5,6.3c0,0,13.6-8.3,14.3-11.4s-0.6-3.5-1.2-3.5c0,0,4.8-4.2,2.3-8.1c0,0,4.3-4.5,1.4-7.3
		l-1.6-1.3c0,0,2.1-4.2,0.4-7.4c-0.6-1-1.8-1.5-2.9-1.1l-16,5.9L222,258L216,278.9z"/>
	<polygon class="st3" points="239.9,251.5 245.3,231.8 249.8,231.3 245.6,247 	"/>
	<path class="st8" d="M217.7,272.7l4.8-15.9l17.3-12.9c1.1,1.8,1.1,4.1,0,5.9c-1.8,3.3-4.5,5.9-5.1,6.8s-3.1,5.6-3.1,5.6
		c1.6,4.2,1.8,8.8,0.6,13.2"/>
	<path class="st9" d="M232.2,275.4c0-0.3,0.1-0.6,0.2-0.9c0.1-0.3,0.1-0.7,0.2-1.1c0.1-0.5,0.2-1,0.2-1.5c0.1-1.4,0.1-2.8,0-4.2
		c-0.2-1.8-0.6-3.6-1.3-5.3v-0.1v-0.1l2.2-4.1l0.6-1.1l0.3-0.6l0.4-0.5l1.7-2c1.2-1.4,2.2-2.9,3.1-4.5c0.9-1.7,0.8-3.7-0.1-5.4
		l0.4,0.1l-1.5,1.1l-15.8,11.8l0.1-0.1c-1.5,4.8-2.7,8.7-3.6,11.5c-0.4,1.4-0.8,2.4-1,3.2l-0.3,0.8c-0.1,0.2-0.1,0.3-0.1,0.3
		c0-0.1,0-0.2,0.1-0.3l0.2-0.9c0.2-0.8,0.5-1.9,0.9-3.3c0.8-2.9,2-6.8,3.4-11.6v-0.1h0.1l15.8-11.9l1.5-1.1l0.2-0.2l0.1,0.2
		c1.1,1.8,1.1,4,0.1,5.9c-0.9,1.6-2,3.2-3.2,4.6l-1.7,2c-0.1,0.2-0.3,0.3-0.4,0.5l-0.3,0.5l-0.6,1.1l-2.2,4v-0.2
		c0.7,1.7,1.1,3.6,1.2,5.5c0.1,1.4,0.1,2.8-0.1,4.2c-0.1,0.5-0.1,1-0.3,1.5c-0.1,0.4-0.2,0.7-0.3,1.1
		C232.4,274.8,232.3,275.1,232.2,275.4z"/>
	<path class="st9" d="M250.8,253.8c-0.4,0.3-0.7,0.6-1.1,0.8l-3.2,2l-4.8,2.8c-1,0.7-2.1,1-3.3,1c-0.7-0.1-1.3-0.4-1.7-0.9
		c-0.4-0.5-0.6-1.2-0.6-1.9c0.1-1.2,0.7-2.4,1.5-3.3c0.7-0.9,1.4-1.7,2.2-2.5c1.3-1.3,2.8-2.6,4.3-3.6c1-0.7,2.1-1.4,3.3-1.9
		c0.4-0.2,0.8-0.4,1.3-0.5c-0.4,0.3-0.8,0.5-1.2,0.7c-0.8,0.4-1.9,1.1-3.1,2.1c-1.5,1.1-2.9,2.3-4.2,3.7c-0.8,0.8-1.5,1.6-2.1,2.5
		c-0.8,0.8-1.3,1.9-1.4,3c0,0.5,0.1,1.1,0.5,1.5c0.3,0.4,0.8,0.7,1.3,0.7c1.1,0,2.1-0.3,3-0.9l4.9-2.7l3.3-1.8
		C249.9,254.2,250.4,253.9,250.8,253.8z"/>
	<path class="st9" d="M251,262.2c-0.3,0.3-0.6,0.6-1,0.8c-0.7,0.5-1.7,1.2-2.9,2c-1.5,1-3,1.9-4.5,2.7c-0.5,0.3-1,0.5-1.5,0.6
		c-0.6,0.1-1.2-0.1-1.7-0.4c-0.9-0.8-1.4-2-1.1-3.3c0.3-1.1,0.8-2.2,1.7-3c0.7-0.8,1.5-1.5,2.3-2.2c1.4-1.1,2.8-2.2,4.3-3.1
		c1.3-0.8,2.3-1.4,3-1.9c0.4-0.2,0.8-0.4,1.2-0.6c-0.3,0.3-0.6,0.5-1,0.8l-2.9,2c-1.4,1-2.8,2.1-4.1,3.2c-0.8,0.7-1.5,1.4-2.2,2.1
		c-0.8,0.8-1.3,1.7-1.5,2.8c-0.2,1,0.2,2.1,0.9,2.8c0.4,0.3,0.8,0.4,1.3,0.4c0.5-0.1,0.9-0.3,1.3-0.5c1.8-0.9,3.3-1.8,4.6-2.6l3-1.9
		C250.2,262.6,250.6,262.4,251,262.2z"/>
	<path class="st9" d="M248.7,270.3c-0.3,0.2-0.5,0.4-0.8,0.6c-0.5,0.4-1.3,0.9-2.3,1.5c-1.2,0.7-2.4,1.3-3.7,1.9
		c-0.8,0.3-1.6,0.6-2.4,0.7c-0.5,0.1-1,0-1.4-0.2c-0.5-0.3-0.8-0.7-0.8-1.3c-0.1-0.5,0-1,0.1-1.4c0.1-0.4,0.4-0.9,0.7-1.2
		c0.5-0.6,1.1-1.2,1.8-1.7c1.1-0.9,2.2-1.6,3.4-2.4c1-0.6,1.8-1.1,2.4-1.4c0.3-0.2,0.6-0.3,0.9-0.4c-0.3,0.2-0.5,0.4-0.8,0.6
		l-2.3,1.5c-1.1,0.7-2.2,1.5-3.3,2.4c-1.1,1-2.7,2.1-2.4,3.8c0,0.4,0.2,0.7,0.5,0.9c0.3,0.2,0.7,0.2,1.1,0.1
		c0.8-0.1,1.5-0.4,2.3-0.7c1.3-0.5,2.5-1.1,3.7-1.8C246.4,271.4,247.5,270.8,248.7,270.3z"/>
	<path class="st9" d="M249.7,274c-0.1,0.3-0.3,0.6-0.4,0.8c-0.5,0.7-1,1.4-1.6,2c-0.9,0.9-1.8,1.8-2.8,2.5c-0.6,0.4-1.2,0.9-1.8,1.3
		c-0.7,0.5-1.4,0.9-2.2,1.1c-0.4,0.1-0.9,0.1-1.3-0.1c-0.4-0.2-0.7-0.6-0.8-1c-0.2-0.8-0.1-1.6,0.2-2.3c0.5-1.2,1.2-2.3,2.1-3.2
		c0.6-0.6,1.3-1.2,2-1.6c0.3-0.2,0.6-0.3,0.9-0.4c-2,1.3-3.6,3.1-4.5,5.3c-0.3,0.6-0.4,1.3-0.2,2c0.2,0.7,0.9,1,1.6,0.9
		c0.7-0.2,1.4-0.6,2-1c0.6-0.4,1.2-0.8,1.8-1.3c1-0.7,1.9-1.5,2.8-2.4C248.9,275.1,249.6,274,249.7,274z"/>
	<path class="st7" d="M214.4,278.3l-24,51.3l-21-27.4c-13.1-16.8-23.9-20.8-23.9-20.8l-19.1-5.1l-39-2.1l-3.4,1.9l-23.5,9.9
		c0,0,2.2,25.4,6.7,45.6s8.2,42.2,8.2,42.2c1.6,14.5-9.2,70.3-9.2,70.3h107.6l-23-69.2c2.6-8.4,4.8-17,6.6-25.7l0,0l20,13.6
		c0,0,30,16.9,40.9-11.5l18.9-66L214.4,278.3z"/>
	<path class="st4" d="M156.1,350.4c0-0.5,0-1,0-1.5c0-0.5,0.1-1.1,0-1.8s0-1.5,0-2.3c-0.1-2-0.2-4-0.5-6c-0.4-2.4-0.9-4.9-1.5-7.2
		c-0.7-2.4-1.5-4.7-2.5-7c-0.8-1.8-1.7-3.6-2.7-5.4c-0.4-0.8-0.8-1.4-1.2-2s-0.7-1.1-1-1.5c-0.3-0.4-0.6-0.8-0.8-1.3
		c0.4,0.3,0.7,0.7,1,1.1c0.3,0.4,0.7,0.9,1,1.4s0.8,1.2,1.3,2c1.1,1.7,2,3.5,2.8,5.4c2,4.5,3.4,9.4,4,14.3c0.3,2,0.4,4,0.4,6.1
		c0,0.9,0,1.6-0.1,2.3s-0.1,1.3-0.1,1.8C156.2,349.4,156.2,349.9,156.1,350.4z"/>
	<path class="st4" d="M152.2,307.9c0.2,0.1-0.7,2.3-1.9,5c-0.6,1.6-1.5,3.2-2.4,4.7c0.5-1.7,1.2-3.3,2-4.9c0.6-1.3,1.2-2.5,1.6-3.4
		C151.7,308.7,151.9,308.3,152.2,307.9z"/>
	<path class="st4" d="M192.2,344.4c-0.5-0.6-0.9-1.3-1.1-2.1c-0.7-1.8-1.2-3.6-1.4-5.5c-0.2-1.9-0.2-3.8,0.2-5.7
		c0.1-0.8,0.3-1.5,0.6-2.3c-0.4,2.6-0.5,5.2-0.3,7.9C190.5,339.4,191.2,342,192.2,344.4z"/>
	<path class="st3" d="M169.4,322.9c0.1,0,0.2,1.2,0.6,3.1c0.5,2.5,1.1,5,1.9,7.5c0.8,2.4,1.8,4.8,2.9,7.1c0.5,0.9,1,1.9,1.4,2.9
		c0,0-0.2-0.2-0.5-0.7s-0.7-1.2-1.2-2c-2.5-4.6-4.1-9.6-4.8-14.7c-0.1-1-0.2-1.8-0.2-2.3C169.4,323.5,169.4,323.2,169.4,322.9z"/>
	<path class="st3" d="M173.2,335.7c0.6-0.9,1.1-1.8,1.6-2.8c1-2.4,1.3-5,0.7-7.5l-0.1-0.3l0.5,0.1c-1.5,2-2.4,4.4-2.6,6.9
		c-0.2,1.9,0,3.1-0.1,3.1c-0.1-0.3-0.2-0.5-0.2-0.8c-0.1-0.8-0.1-1.5-0.1-2.3c0.2-2.6,1-5.1,2.5-7.2l0.3-0.5l0.1,0.6l0.1,0.3
		c0.6,2.6,0.3,5.3-0.9,7.7c-0.3,0.7-0.8,1.4-1.3,2C173.4,335.5,173.2,335.7,173.2,335.7z"/>
	<path class="st3" d="M170.1,331.8c-0.3-0.1-0.6-0.2-0.9-0.3c-0.8-0.3-1.5-0.8-2.2-1.2c-1-0.7-2-1.5-2.9-2.4c-0.5-0.5-1-1.1-1.4-1.7
		c-0.2-0.3-0.5-0.7-0.7-1c-0.3-0.4-0.3-0.9-0.2-1.4c0.1-0.3,0.4-0.5,0.6-0.5c0.2,0,0.5,0,0.7,0.1c0.4,0.2,0.7,0.4,1,0.7
		c0.6,0.4,1.2,0.9,1.7,1.5c0.9,0.9,1.7,1.9,2.4,2.9c0.5,0.7,0.9,1.5,1.2,2.2c0.1,0.3,0.2,0.6,0.3,0.9c-0.1,0-0.6-1.2-1.8-2.9
		c-0.7-1-1.5-1.9-2.4-2.8c-0.5-0.5-1.1-1-1.7-1.4c-0.3-0.2-0.6-0.4-0.9-0.6c-0.3-0.1-0.6-0.1-0.7,0.1c-0.1,0.3,0,0.6,0.2,0.9
		c0.2,0.3,0.4,0.6,0.6,0.9c0.4,0.6,0.9,1.1,1.4,1.7c0.8,0.9,1.8,1.7,2.8,2.4C169,331.2,170.2,331.7,170.1,331.8z"/>
	<path class="st3" d="M171.5,340.2c-0.2,0.1-0.5,0.2-0.7,0.2c-0.7,0.2-1.4,0.2-2.1,0.2c-2.4-0.1-4.6-1.1-6.4-2.7l-0.3-0.3l0.4-0.1
		l0.7-0.2c2.5-0.5,5.1-0.1,7.3,1.2c0.6,0.4,1.2,0.9,1.8,1.4c0.4,0.4,0.5,0.6,0.5,0.7c-0.8-0.7-1.6-1.3-2.4-1.8c-2.1-1.2-4.6-1.5-7-1
		l-0.6,0.2l0.1-0.4c1.6,1.6,3.7,2.5,6,2.7C169.6,340.3,170.5,340.3,171.5,340.2z"/>
	<path class="st3" d="M86.1,344.3c0,0.3,0,0.6,0,0.9c0,0.6-0.1,1.4-0.2,2.3c-0.4,2.6-0.9,5.1-1.7,7.5c-0.8,2.5-1.8,4.9-3.1,7.1
		c-0.5,0.9-0.9,1.6-1.2,2s-0.5,0.7-0.5,0.7c0.4-1,0.9-1.9,1.4-2.8c1.1-2.3,2.1-4.7,2.9-7.1c0.8-2.4,1.4-4.9,1.9-7.5
		C85.9,345.5,86,344.3,86.1,344.3z"/>
	<path class="st3" d="M82.3,357.1c0,0-0.3-0.2-0.6-0.6c-0.5-0.6-0.9-1.3-1.3-2c-1.2-2.4-1.5-5.1-0.9-7.7l0.1-0.3l0.1-0.6l0.3,0.5
		c1.5,2.1,2.4,4.6,2.6,7.2c0,0.8,0,1.6-0.1,2.3c0,0.3-0.1,0.6-0.2,0.8c-0.1,0,0.1-1.2-0.1-3.1c-0.3-2.5-1.2-4.9-2.6-6.9l0.5-0.1v0.3
		c-0.5,2.5-0.3,5.1,0.7,7.5C81.3,355.3,81.8,356.2,82.3,357.1z"/>
	<path class="st3" d="M85.4,353.2c0-0.1,1.2-0.6,2.9-1.8c1-0.7,1.9-1.5,2.7-2.4c0.5-0.5,1-1.1,1.4-1.7c0.2-0.3,0.4-0.6,0.6-0.9
		c0.2-0.3,0.2-0.6,0.2-0.9c-0.1-0.2-0.4-0.3-0.7-0.1c-0.3,0.2-0.6,0.4-0.9,0.6c-0.6,0.4-1.1,0.9-1.7,1.4c-0.9,0.8-1.7,1.8-2.4,2.8
		c-1.2,1.7-1.7,3-1.8,2.9c0-0.3,0.2-0.6,0.3-0.9c0.3-0.8,0.7-1.5,1.2-2.2c0.7-1.1,1.5-2,2.4-2.9c0.5-0.5,1.1-1,1.7-1.5
		c0.3-0.3,0.6-0.5,1-0.6c0.2-0.1,0.5-0.1,0.7-0.1c0.3,0.1,0.5,0.2,0.7,0.5c0.1,0.5,0.1,1-0.2,1.4c-0.2,0.3-0.4,0.7-0.7,1
		c-1.2,1.6-2.7,3-4.3,4.1c-0.7,0.5-1.4,0.9-2.2,1.2C86,353.1,85.7,353.2,85.4,353.2z"/>
	<path class="st3" d="M84,361.6c0.9,0.1,1.9,0.1,2.8,0.1c2.3-0.2,4.4-1.1,6-2.7l0.1,0.4l-0.6-0.2c-2.4-0.5-4.9-0.2-7,1
		c-0.8,0.5-1.6,1.1-2.3,1.8c0.1-0.2,0.3-0.5,0.5-0.7c0.5-0.6,1.1-1,1.8-1.4c2.2-1.3,4.8-1.8,7.3-1.2l0.7,0.2l0.4,0.1l-0.3,0.3
		c-1.7,1.7-4,2.6-6.4,2.7c-0.7,0-1.4,0-2.1-0.2C84.5,361.8,84.2,361.7,84,361.6z"/>
	<path class="st3" d="M123.2,309c0,0,0.3,0.2,0.6,0.6s0.9,1,1.5,1.8c1.5,2.1,2.9,4.3,4,6.6c1.1,2.3,2.1,4.8,2.8,7.3
		c0.3,1,0.4,1.7,0.6,2.3c0.1,0.3,0.1,0.6,0.1,0.9c-0.4-1-0.7-2-1-3c-0.8-2.4-1.8-4.8-2.9-7.1c-1.1-2.3-2.4-4.5-3.8-6.7
		C123.9,310,123.2,309,123.2,309z"/>
	<path class="st3" d="M129.5,320.8c-0.3,0.1-0.6,0.1-0.9,0c-0.8-0.1-1.6-0.3-2.3-0.6c-2.5-0.9-4.6-2.7-6-4.9l-0.2-0.2l-0.3-0.5
		l0.6,0.1c2.6,0.5,4.9,1.6,6.8,3.4c0.6,0.5,1.1,1.1,1.6,1.7c0.3,0.4,0.5,0.7,0.4,0.7s-0.8-0.9-2.2-2.2c-1.9-1.6-4.2-2.7-6.7-3.1
		l0.3-0.4l0.1,0.2c1.4,2.2,3.4,3.9,5.7,4.9C127.5,320.3,128.5,320.6,129.5,320.8z"/>
	<path class="st3" d="M129,315.9c-0.1,0,0.4-1.3,0.8-3.3c0.2-1.2,0.3-2.4,0.3-3.7c0-0.7-0.1-1.4-0.2-2.2c-0.1-0.4-0.1-0.8-0.2-1.1
		c-0.1-0.3-0.3-0.6-0.5-0.8c-0.2-0.1-0.5,0.1-0.6,0.4c-0.1,0.3-0.2,0.7-0.3,1.1c-0.1,0.7-0.2,1.4-0.2,2.2c-0.1,1.2,0,2.5,0.2,3.7
		c0.3,2.1,0.8,3.3,0.7,3.3c-0.2-0.3-0.3-0.5-0.4-0.8c-0.3-0.8-0.5-1.6-0.7-2.4c-0.2-1.2-0.3-2.5-0.3-3.8c0-0.7,0.1-1.5,0.2-2.2
		c0-0.4,0.1-0.8,0.2-1.2c0.1-0.2,0.2-0.4,0.4-0.6c0.2-0.1,0.5-0.2,0.8-0.1c0.4,0.2,0.7,0.6,0.8,1.1c0.1,0.4,0.2,0.8,0.2,1.2
		c0.1,0.7,0.1,1.5,0.1,2.2c0,1.3-0.1,2.5-0.4,3.8c-0.2,0.8-0.4,1.6-0.7,2.4C129.3,315.3,129.2,315.6,129,315.9z"/>
	<path class="st3" d="M133.8,322.9c0.7-0.6,1.4-1.2,2-1.9c1.5-1.7,2.3-3.9,2.4-6.1l0.4,0.2l-0.6,0.3c-2.1,1.3-3.6,3.3-4.3,5.6
		c-0.3,1-0.4,2-0.5,3c-0.1-0.3-0.1-0.5-0.1-0.8c0-0.8,0.1-1.5,0.3-2.3c0.6-2.5,2.2-4.6,4.4-5.9l0.6-0.3l0.4-0.2v0.5
		c-0.1,2.4-1,4.7-2.7,6.4c-0.5,0.5-1,1-1.6,1.3C134.3,322.7,134.1,322.8,133.8,322.9z"/>
	<path class="st3" d="M91.1,421.5c0,0,0.2,0.2,0.6,0.6s0.9,1,1.5,1.8c3.1,4.2,5.4,8.9,6.9,13.9c0.3,1,0.5,1.7,0.6,2.3
		c0.1,0.3,0.1,0.6,0.1,0.9c-0.4-1-0.7-2-1-3c-0.8-2.4-1.8-4.8-2.9-7.1c-1.1-2.3-2.4-4.5-3.9-6.7C92.2,423.3,91.6,422.4,91.1,421.5z"
		/>
	<path class="st3" d="M97.3,433.3c-0.3,0.1-0.6,0.1-0.9,0c-0.8-0.1-1.6-0.3-2.3-0.6c-2.5-0.9-4.6-2.7-6-4.9l-0.1-0.2l-0.3-0.5
		l0.6,0.1c2.6,0.5,4.9,1.6,6.8,3.4c0.6,0.5,1.1,1.1,1.6,1.7c0.2,0.2,0.3,0.5,0.4,0.7c-0.1,0.1-0.8-0.9-2.2-2.2
		c-1.9-1.6-4.2-2.7-6.7-3.1l0.3-0.4l0.1,0.2c1.4,2.2,3.4,3.9,5.7,4.9C95.3,432.7,96.3,433,97.3,433.3z"/>
	<path class="st3" d="M96.8,428.4c-0.1,0,0.4-1.3,0.8-3.3c0.2-1.2,0.3-2.4,0.3-3.7c0-0.7-0.1-1.5-0.2-2.2c0-0.4-0.1-0.7-0.2-1.1
		c-0.1-0.3-0.3-0.6-0.5-0.8c-0.2-0.1-0.5,0.1-0.6,0.4c-0.1,0.3-0.2,0.7-0.3,1.1c-0.1,0.7-0.2,1.4-0.2,2.2c-0.1,1.2,0,2.5,0.2,3.7
		c0.3,2.1,0.8,3.3,0.7,3.3c-0.2-0.3-0.3-0.5-0.4-0.8c-0.3-0.8-0.5-1.6-0.7-2.4c-0.2-1.2-0.3-2.5-0.3-3.8c0-0.7,0.1-1.5,0.2-2.2
		c0.1-0.4,0.2-0.8,0.3-1.2c0.1-0.2,0.2-0.4,0.5-0.6c0.2-0.2,0.5-0.2,0.8-0.1c0.5,0.2,0.8,0.7,0.9,1.2c0.1,0.4,0.2,0.8,0.2,1.2
		c0.1,0.7,0.1,1.5,0.2,2.2c0,1.3-0.1,2.5-0.4,3.8c-0.2,0.8-0.4,1.6-0.7,2.4C97.1,427.9,97,428.1,96.8,428.4z"/>
	<path class="st3" d="M101.7,435.3c0.7-0.6,1.4-1.2,2-1.9c1.5-1.7,2.3-3.9,2.4-6.1l0.4,0.2l-0.6,0.3c-2.1,1.3-3.6,3.3-4.3,5.6
		c-0.2,1-0.4,2-0.5,3c-0.1-0.3-0.1-0.5-0.1-0.8c0-0.8,0.1-1.5,0.3-2.3c0.6-2.5,2.2-4.6,4.3-5.9l0.6-0.3l0.4-0.2v0.5
		c-0.1,2.4-1,4.7-2.7,6.4c-0.5,0.5-1,1-1.6,1.3C102.1,435.2,101.9,435.3,101.7,435.3z"/>
	<path class="st3" d="M217.7,308.1c0,0.3-0.1,0.6-0.2,0.9c-0.1,0.5-0.4,1.3-0.7,2.2c-0.9,2.4-2,4.8-3.3,7c-1.3,2.2-2.8,4.4-4.5,6.3
		c-0.6,0.8-1.2,1.4-1.6,1.7c-0.2,0.2-0.4,0.4-0.6,0.6c0.6-0.9,1.3-1.7,2-2.5c3.2-4,5.8-8.5,7.7-13.2
		C216.8,310,217.2,309,217.7,308.1z"/>
	<path class="st3" d="M211.3,319.8c0,0-0.2-0.2-0.5-0.7c-0.4-0.7-0.6-1.5-0.8-2.2c-0.6-2.6-0.3-5.3,0.8-7.8l0.1-0.2l0.2-0.5l0.2,0.5
		c1,2.4,1.4,5,1,7.6c-0.1,0.8-0.3,1.5-0.6,2.3c-0.2,0.5-0.3,0.8-0.4,0.8s0.4-1.1,0.6-3.1c0.3-2.5-0.1-5-1.1-7.3h0.5l-0.1,0.2
		c-1.1,2.3-1.4,4.9-0.9,7.4C210.6,317.8,210.9,318.8,211.3,319.8z"/>
	<path class="st3" d="M215.1,316.7c0-0.1,1.3-0.4,3.2-1.2c1.1-0.5,2.2-1.1,3.2-1.8c0.6-0.4,1.2-0.9,1.7-1.3c0.3-0.2,0.6-0.5,0.8-0.8
		c0.2-0.2,0.4-0.5,0.4-0.9c0-0.2-0.3-0.4-0.7-0.3c-0.3,0.1-0.7,0.2-1,0.4c-1.8,0.8-3.4,1.9-4.9,3.2c-1.6,1.4-2.3,2.5-2.4,2.5
		c0.1-0.3,0.3-0.6,0.5-0.8c0.5-0.7,1-1.3,1.6-1.9c0.9-0.9,1.9-1.7,3-2.3c0.6-0.4,1.3-0.8,2-1.1c0.4-0.2,0.8-0.3,1.1-0.4
		c0.2-0.1,0.5,0,0.7,0.1c0.3,0.1,0.5,0.3,0.5,0.6c0,0.5-0.1,1-0.5,1.3c-0.3,0.3-0.6,0.6-0.9,0.8c-0.6,0.5-1.1,0.9-1.8,1.4
		c-1,0.7-2.2,1.3-3.4,1.8c-0.8,0.3-1.6,0.6-2.4,0.7C215.8,316.6,215.4,316.7,215.1,316.7z"/>
	<path class="st3" d="M212,324.6c0.9,0.3,1.8,0.5,2.7,0.7c2.2,0.3,4.5-0.2,6.4-1.4v0.5l-0.6-0.3c-2.2-1-4.7-1.2-7-0.5
		c-1,0.3-1.9,0.7-2.8,1.2c0,0,0.2-0.2,0.6-0.5c0.6-0.4,1.3-0.8,2-1c2.4-0.8,5-0.7,7.4,0.4l0.6,0.3l0.4,0.2l-0.4,0.2
		c-2,1.3-4.4,1.7-6.8,1.3c-0.7-0.1-1.4-0.3-2-0.6C212.4,324.9,212.2,324.7,212,324.6z"/>
	<path class="st3" d="M86.3,336.4c0.4-0.9,0.8-1.7,1-2.7c0.5-2.2,0-4.6-1.4-6.4h0.4l-0.1,0.1c-0.8,0.9-1.4,2.1-1.5,3.4
		c-0.1,1,0,2,0.3,3C85.4,334.7,85.8,335.6,86.3,336.4c-0.7-0.7-1.3-1.5-1.6-2.4c-0.4-1-0.6-2.1-0.5-3.2c0.2-1.4,0.7-2.6,1.6-3.6
		L86,327l0.2-0.2l0.2,0.3c0.8,1.1,1.3,2.3,1.5,3.6c0.2,1.1,0.1,2.2-0.2,3.2c-0.2,0.7-0.5,1.4-0.9,2
		C86.6,336.3,86.4,336.5,86.3,336.4z"/>
	<path class="st3" d="M137.2,300.1c0.8-0.4,1.6-1,2.4-1.6c1.7-1.5,2.7-3.7,2.6-6l0.3,0.2h-0.1c-1.2,0.3-2.3,0.9-3.2,1.8
		c-0.7,0.8-1.2,1.7-1.5,2.7C137.4,298.2,137.2,299.1,137.2,300.1c-0.2-1-0.2-2,0.1-2.9c0.2-1.1,0.7-2.1,1.5-2.9c0.9-1,2.1-1.7,3.4-2
		h0.1l0.3-0.1v0.3c0.1,1.3-0.2,2.7-0.9,3.9c-0.5,1-1.2,1.8-2,2.5c-0.6,0.5-1.2,0.8-1.9,1.1C137.7,300,137.4,300.1,137.2,300.1z"/>
	<path class="st3" d="M218.8,296.5c0.5-0.8,1-1.6,1.3-2.5c0.8-2.2,0.6-4.6-0.6-6.5l0.4,0.1l-0.1,0.1c-1,0.8-1.7,1.9-2,3.1
		c-0.2,1-0.2,2,0,3C218.1,294.7,218.4,295.6,218.8,296.5c-0.7-0.8-1.1-1.7-1.3-2.7c-0.3-1.1-0.3-2.2-0.1-3.3
		c0.3-1.3,1.1-2.5,2.1-3.4l0.1-0.1l0.2-0.2l0.2,0.3c0.7,1.2,1,2.5,1.1,3.8c0,1.1-0.2,2.2-0.6,3.1c-0.3,0.7-0.6,1.3-1.1,1.8
		C219.1,296.3,218.8,296.5,218.8,296.5z"/>
	<path class="st3" d="M183.6,357.3c0.5-0.8,1-1.6,1.3-2.5c0.8-2.2,0.6-4.6-0.6-6.5l0.4,0.1l-0.1,0.1c-1.8,1.5-2.5,3.9-2,6.2
		C182.8,355.5,183.2,356.4,183.6,357.3c-0.7-0.8-1.1-1.7-1.3-2.7c-0.3-1.1-0.3-2.2-0.1-3.3c0.3-1.3,1.1-2.5,2.1-3.4l0.1-0.1l0.2-0.2
		l0.2,0.3c0.7,1.2,1,2.5,1,3.8c0,1.1-0.2,2.1-0.6,3.1c-0.3,0.7-0.6,1.3-1.1,1.8C183.8,357.1,183.6,357.3,183.6,357.3z"/>
	<path class="st3" d="M78.8,438c-0.3-0.9-0.7-1.8-1.2-2.6c-1.3-1.9-3.3-3.1-5.6-3.4l0.3-0.3v0.1c0.1,1.3,0.6,2.5,1.3,3.5
		c0.6,0.8,1.4,1.4,2.4,1.8C76.9,437.5,77.8,437.8,78.8,438c-1,0.1-2-0.1-2.9-0.5c-1-0.4-1.9-1-2.7-1.9c-0.9-1.1-1.4-2.4-1.5-3.7
		v-0.1v-0.3H72c1.3,0.1,2.6,0.6,3.7,1.4c0.9,0.6,1.6,1.4,2.2,2.3c0.4,0.6,0.7,1.3,0.8,2C78.8,437.5,78.8,437.7,78.8,438z"/>
	<path class="st3" d="M202.1,352.1c0-0.1,1.5-0.8,3.9-2.3c1.4-0.9,2.6-2,3.6-3.3c1.2-1.5,1.8-3.5,1.6-5.5c-0.3-0.2,0.4,0.3,0.3,0.2
		h-0.2h-0.2c-0.1,0-0.3,0-0.4,0.1s-0.5,0.1-0.8,0.2c-0.5,0.1-1,0.3-1.4,0.5c-0.9,0.4-1.7,0.9-2.4,1.5c-1.2,1-2.2,2.3-2.9,3.8
		c-0.6,1.4-0.9,2.9-1,4.4c-0.1-0.4-0.1-0.8-0.1-1.2c0.1-1.1,0.3-2.2,0.7-3.3c1-2.5,3-4.5,5.4-5.6c0.5-0.2,1-0.4,1.5-0.5
		c0.3-0.1,0.5-0.1,0.8-0.2l0.4-0.1h0.2h0.2c0,0,0.6,0.4,0.3,0.2c0.2,2.1-0.4,4.2-1.7,5.8c-1,1.3-2.3,2.4-3.8,3.3
		c-1,0.6-1.9,1.1-2.9,1.5C202.9,351.9,202.5,352,202.1,352.1z"/>
	<path class="st3" d="M153.1,437.3c0-0.1,1.5-0.8,3.9-2.3c1.4-0.9,2.6-2,3.6-3.2c1.2-1.5,1.8-3.5,1.6-5.5l0.3,0.2h-0.1h-0.1H162
		l-0.4,0.1c-0.3,0-0.5,0.1-0.8,0.2c-0.5,0.1-1,0.3-1.4,0.5c-0.9,0.4-1.7,0.9-2.4,1.5c-1.3,1-2.2,2.3-2.9,3.8c-0.6,1.4-0.9,2.9-1,4.4
		c-0.1-0.4-0.1-0.8-0.1-1.2c0.2-2.8,1.5-5.5,3.7-7.3c0.8-0.6,1.6-1.2,2.5-1.6c0.5-0.2,1-0.4,1.5-0.5c0.3-0.1,0.5-0.1,0.8-0.2
		s0.3-0.1,0.4-0.1h0.2h0.2c-0.1,0,0.5,0.4,0.3,0.2c0.2,2.1-0.4,4.2-1.7,5.8c-1,1.3-2.3,2.4-3.8,3.3c-1,0.6-2,1.1-3,1.5
		C153.8,437,153.5,437.2,153.1,437.3z"/>
	<path class="st3" d="M101.5,333.1c0-0.1,1.5-0.8,3.9-2.3c1.4-0.9,2.6-2,3.6-3.3c1.2-1.6,1.8-3.5,1.6-5.5c-0.3-0.2,0.3,0.3,0.3,0.2
		h-0.2h-0.2c-0.1,0-0.3,0-0.4,0.1s-0.5,0.1-0.8,0.2c-0.5,0.1-1,0.3-1.4,0.5c-0.9,0.4-1.7,0.9-2.4,1.5c-1.3,1-2.2,2.3-2.9,3.8
		c-0.6,1.4-0.9,2.9-1,4.4c-0.1-0.4-0.1-0.8-0.1-1.2c0.1-1.1,0.3-2.2,0.7-3.3c0.6-1.6,1.6-2.9,2.9-4c0.8-0.6,1.6-1.2,2.5-1.6
		c0.5-0.2,1-0.4,1.5-0.5c0.3-0.1,0.5-0.1,0.8-0.2l0.4-0.1h0.2h0.2l0.3,0.2c0.2,2.1-0.4,4.2-1.7,5.8c-1,1.3-2.3,2.4-3.8,3.3
		c-1,0.6-2,1.1-3,1.5C102.2,332.8,101.9,333,101.5,333.1z"/>
	<path class="st8" d="M139.3,204.6c-1.4-11-11.6-23-33.2-18L85,193.5c-3.3,0.6-5.6,3.6-5.3,6.9l7.8,83.2c1,10.1,9.4,17.8,19.5,17.8
		l0,0c10.8,0,19.6-8.8,19.6-19.6c0-0.3,0-0.6,0-0.9c-0.4-10-0.8-18-0.8-18s13.9-3.3,15.6-21.9C142.4,231.8,140.9,216.8,139.3,204.6z
		"/>
	<path class="st4" d="M133.8,217.3c0.1,1.3-0.8,2.4-2.1,2.5c-1.2,0.2-2.4-0.7-2.6-1.9c0,0,0-0.1,0-0.1c-0.1-1.3,0.8-2.4,2.1-2.5
		C132.5,215.1,133.6,216,133.8,217.3C133.8,217.2,133.8,217.3,133.8,217.3z"/>
	<path class="st4" d="M137,214.1c-0.3,0.3-2.1-0.9-4.7-0.7s-4.3,1.6-4.6,1.3c-0.2-0.1,0.1-0.7,0.9-1.4c1-0.8,2.3-1.3,3.7-1.4
		c1.3-0.1,2.6,0.2,3.8,0.9C136.8,213.4,137.1,214,137,214.1z"/>
	<path class="st4" d="M109.6,218.6c0.1,1.3-0.8,2.4-2.1,2.5c-1.2,0.2-2.4-0.7-2.6-1.9c0,0,0-0.1,0-0.1c-0.1-1.3,0.8-2.4,2.1-2.5
		C108.2,216.4,109.4,217.2,109.6,218.6C109.6,218.5,109.6,218.5,109.6,218.6z"/>
	<path class="st4" d="M111.9,215.5c-0.3,0.3-2.2-0.9-4.7-0.7s-4.3,1.6-4.6,1.3c-0.2-0.1,0.1-0.7,0.9-1.4c1-0.8,2.3-1.3,3.7-1.4
		c1.3-0.1,2.6,0.2,3.8,0.9C111.7,214.8,112,215.3,111.9,215.5z"/>
	<path class="st4" d="M122.2,233c0-0.1,1.5-0.5,4.1-1c0.6-0.1,1.2-0.3,1.3-0.7c0-0.7-0.2-1.3-0.6-1.9l-2.2-4.8
		c-3.1-6.8-5.4-12.5-5.2-12.6s3,5.3,6.2,12.2c0.8,1.7,1.5,3.3,2.2,4.8c0.5,0.8,0.6,1.6,0.5,2.5c-0.2,0.5-0.5,0.8-1,1
		c-0.4,0.1-0.7,0.2-1.1,0.2C123.8,233,122.2,233.1,122.2,233z"/>
	<path class="st9" d="M125.9,262.9c-8.6,0.7-17.3-1-25-4.9c0,0,7.1,12.5,25.3,9.6L125.9,262.9z"/>
	<path class="st9" d="M121.5,239.2c-1.1-1.2-2.7-1.7-4.2-1.4c-1.1,0.2-2.1,0.8-2.8,1.7c-0.6,0.9-0.6,2.1,0,3
		c0.9,0.9,2.2,1.1,3.4,0.6c1.2-0.5,2.2-1.2,3.1-2.1c0.3-0.2,0.5-0.5,0.7-0.8c0.2-0.3,0.1-0.7-0.1-0.9"/>
	<path class="st4" d="M114.8,235.2c0.4,0,0.6,2.7,3.1,4.5s5.4,1.3,5.4,1.7c0,0.2-0.6,0.6-1.8,0.7c-1.6,0.1-3.2-0.3-4.5-1.2
		c-1.3-0.9-2.1-2.3-2.4-3.8C114.3,235.9,114.6,235.2,114.8,235.2z"/>
	<path class="st4" d="M111.9,208.4c-0.2,0.7-2.8,0.6-5.7,1.1s-5.3,1.5-5.7,0.9c-0.2-0.3,0.2-1,1.1-1.7c2.5-1.8,5.7-2.4,8.7-1.6
		C111.4,207.6,112,208.1,111.9,208.4z"/>
	<path class="st4" d="M135.8,208.2c-0.4,0.6-2.2,0.1-4.3,0.2s-3.8,0.6-4.3,0.1c-0.2-0.3,0-0.9,0.8-1.5c1-0.7,2.2-1.1,3.4-1.2
		c1.2-0.1,2.5,0.3,3.5,0.9C135.7,207.3,136,207.9,135.8,208.2z"/>
	<path class="st4" d="M101.3,188c3.4,5.5,12.9,4.7,19.4,5.2c1.6,0.1,3.1,0.1,4.7,0.3c1.6,0.2,3,0.9,4.1,2c1.4,1.5,1.6,3.7,2.4,5.5
		c1.6,3.6,5,6,8.9,6.2c1.1,0,2.4-0.2,2.8-1.2c0.3-0.7,0.3-1.4,0.1-2.1c-0.9-4.8-2-9.7-4.5-13.9c-2.9-4.8-7.6-8.4-13-9.9
		c-5.4-1.5-18.4-0.7-23.3,2"/>
	<path class="st4" d="M100.6,180.9c6.6,8,6.3,20.8-0.6,28.6c-3.9,4.4-10,8.1-9.9,14c0.1,6.5,8.1,10.7,8.7,17.2
		c0.7,6.7-6.7,11.7-7.6,18.4c-0.7,5.4,2.9,10.3,6.9,14s8.7,6.8,11.4,11.5c2.9,5.2,2.8,11.7,1,17.4s-5.2,10.7-8.8,15.5
		c-5.6-1.4-11.3-2.1-17-2.1c0.2-2.2,0.3-4.4,0.5-6.5c0.4,2.5-1.5,4.9-3.8,5.9s-4.9,1-7.4,0.8c-7.7-0.5-15.3-1.7-22.8-3.6
		c2.8-3.4,5.6-6.8,7.2-10.9s1.6-9-1-12.6c-2.1-2.9-5.5-4.5-7.5-7.4c-2.9-4.4-1.4-10.5,1.7-14.8s7.6-7.3,11.4-10.9s7.2-8.4,7.1-13.6
		c-0.2-6.8-6.3-12.5-6.3-19.4c0-7.8,7.8-13.3,10.3-20.6c1.8-5.3,1-10.9,4.2-15.6c2.4-3.6,6.4-5.9,10.7-6.2
		C93.2,179.5,96.8,179.1,100.6,180.9"/>
	<path class="st5" d="M104.3,190.4c0,0.2,0,0.4,0,0.6c0,0.6-0.1,1.2-0.2,1.8c-0.4,2.1-1.1,4.2-2.1,6.1c-1.5,2.9-3.6,5.4-6.1,7.5
		c-1.5,1.2-3.1,2.2-4.9,3c-1.9,0.8-3.8,1.4-5.8,1.9c-2,0.4-3.9,1.2-5.6,2.1c-1.6,1-2.8,2.4-3.6,4.1c-1.4,3.3-1.7,6.6-2.8,9.2
		c-0.5,1.2-1.1,2.2-1.9,3.2c-0.6,0.7-1.4,1.3-2.2,1.8c-0.5,0.3-1.1,0.4-1.7,0.5c-0.2,0-0.4,0-0.6,0c0.8-0.1,1.5-0.3,2.2-0.7
		c0.8-0.5,1.5-1.1,2.1-1.8c0.8-1,1.4-2,1.8-3.1c1.1-2.5,1.2-5.8,2.7-9.2c0.8-1.8,2.1-3.3,3.7-4.3c1.8-1,3.7-1.8,5.8-2.2
		c2-0.5,3.9-1.1,5.8-1.9c1.7-0.8,3.3-1.7,4.8-2.9c2.5-2,4.6-4.5,6.1-7.3c1-1.9,1.8-3.9,2.3-6C104.2,191.2,104.2,190.4,104.3,190.4z"
		/>
	<path class="st5" d="M152.8,209.4c-0.2-0.3-0.5-0.6-0.8-0.8c-0.9-0.6-1.9-0.8-2.9-0.7c-0.6,0-1.4,0.1-2.1,0.2
		c-0.8,0.1-1.7,0.1-2.5,0c-1.9-0.2-3.8-0.6-5.6-1.4c-3.2-1.4-5.9-3.8-7.7-6.9c-0.5-0.9-1-1.9-1.3-2.9c-0.2-0.4-0.2-0.7-0.3-1.1
		c0.6,1.3,1.2,2.6,1.9,3.8c1.8,2.9,4.5,5.2,7.6,6.6c1.7,0.8,3.5,1.2,5.4,1.4c0.8,0.1,1.6,0.1,2.4,0.1c0.8,0,1.5-0.1,2.2-0.1
		c1.1,0,2.1,0.3,3,0.9c0.2,0.2,0.4,0.4,0.6,0.7C152.8,209.3,152.8,209.4,152.8,209.4z"/>
	<path class="st5" d="M149.7,195.6c-0.2,0-0.4,0-0.6,0c-0.6,0-1.1-0.1-1.6-0.3c-2-0.5-3.9-1.5-5.4-2.9c-1-1-1.9-2.1-2.6-3.4
		c-0.7-1.4-1.3-2.9-2-4.4c-0.7-1.6-1.7-3.1-3-4.3c-1.4-1.2-3.1-2.1-4.9-2.6c-3.6-0.8-7.3-0.6-10.8,0.7c-2.8,1-5.6,2.2-8.3,3.5
		c-2.3,1.1-4.2,2-5.6,2.5c-0.7,0.3-1.2,0.4-1.6,0.5c-0.2,0.1-0.4,0.1-0.6,0.1c0.2-0.1,0.3-0.2,0.5-0.2l1.5-0.6
		c1.3-0.6,3.2-1.4,5.5-2.6c2.7-1.4,5.5-2.7,8.3-3.7c3.5-1.3,7.4-1.6,11.1-0.8c1.9,0.5,3.7,1.4,5.1,2.7c1.3,1.3,2.4,2.8,3.1,4.4
		c0.7,1.6,1.3,3.1,2,4.4c0.6,1.2,1.4,2.4,2.4,3.3c1.5,1.4,3.2,2.4,5.2,3C148.9,195.5,149.7,195.5,149.7,195.6z"/>
	<path class="st5" d="M78.5,191.9c0-0.4,0.1-0.7,0.3-1.1c0.3-1,0.8-1.9,1.3-2.7c3.8-6,11.6-8,17.8-4.5c0.9,0.5,1.7,1.1,2.5,1.8
		c0.3,0.2,0.5,0.5,0.7,0.8c-1.1-0.9-2.2-1.6-3.4-2.3c-6-3.2-13.5-1.3-17.3,4.4C79.7,189.4,79,190.6,78.5,191.9z"/>
	<path class="st5" d="M65.2,312.5c0,0,0.4,0,1.2-0.2c1.1-0.3,2.2-0.8,3.1-1.5c1.4-1.2,2.5-2.7,3.2-4.4c0.4-1.1,0.7-2.2,0.8-3.4
		c0.1-1.3,0-2.6-0.3-3.8c-0.7-2.9-1.9-5.6-3.5-8.1c-1.7-2.7-3.8-5.5-5.6-8.6c-0.9-1.6-1.7-3.3-2.3-5.1c-0.6-1.9-0.9-3.8-0.9-5.8
		c0-4.1,1.3-8.2,3.6-11.6c1.2-1.7,2.6-3.3,4.2-4.6c1.6-1.2,3.4-2.2,5.2-3.1c1.7-0.8,3.4-1.8,4.9-3c1.4-1.2,2.5-2.7,3.1-4.4
		c1-3.2,1.2-6.7,0.6-10c-0.5-3.2-1.2-6.1-1.5-8.8c-0.3-2.5-0.2-5,0.4-7.4c0.3-1.8,1-3.6,2-5.2c0.6-1,1.5-1.9,2.5-2.5
		c0.3-0.2,0.5-0.3,0.8-0.4c0.1,0,0.2-0.1,0.3-0.1c0,0-0.4,0.1-1.1,0.5c-1,0.6-1.8,1.5-2.4,2.5c-0.9,1.6-1.6,3.3-1.9,5.2
		c-0.5,2.4-0.6,4.9-0.3,7.3c0.3,2.7,1,5.6,1.6,8.8c0.7,3.4,0.5,7-0.6,10.3c-0.7,1.8-1.8,3.4-3.3,4.6c-1.6,1.2-3.2,2.2-5,3.1
		c-1.8,0.9-3.5,1.9-5.1,3.1c-1.6,1.3-3,2.8-4.1,4.4c-2.3,3.4-3.5,7.3-3.5,11.3c0,1.9,0.3,3.8,0.8,5.6c0.6,1.7,1.3,3.4,2.3,5
		c1.8,3.1,3.9,5.9,5.5,8.7c1.6,2.5,2.8,5.3,3.5,8.3c0.3,1.3,0.3,2.6,0.3,3.9c-0.1,1.2-0.4,2.3-0.8,3.4c-0.7,1.8-1.9,3.4-3.4,4.5
		c-0.9,0.7-2,1.2-3.2,1.5C66,312.5,65.6,312.5,65.2,312.5z"/>
	<path class="st5" d="M145.3,282.2c0.8-0.7,1.3-1.6,1.7-2.6c0.8-2.8,0.5-5.8-0.7-8.4c-0.6-1.7-1.5-3.5-2.1-5.6
		c-0.3-1.1-0.5-2.2-0.6-3.3c0-0.6,0-1.2,0-1.8s0.2-1.2,0.3-1.8c0.7-2.5,1.8-4.8,3.3-6.9c1.5-2.2,3.2-4.4,4.8-6.6
		c1.6-2.2,2.8-4.6,3.5-7.2c0.6-2.4,0.3-5-0.8-7.3c-1-2-2.3-4-3.8-5.7c-1.4-1.7-2.7-3.2-3.8-4.7c-1-1.4-1.8-2.8-2.4-4.4
		c-0.5-1.2-0.7-2.4-0.7-3.7c0-0.8,0.1-1.6,0.3-2.4c0.1-0.3,0.2-0.5,0.3-0.8c-0.3,1-0.4,2.1-0.4,3.1c0.1,1.2,0.3,2.5,0.8,3.6
		c0.6,1.5,1.4,3,2.4,4.3c1,1.5,2.4,3,3.8,4.6c1.6,1.7,2.9,3.7,3.9,5.7c1.1,2.4,1.4,5,0.8,7.6c-0.7,2.7-2,5.2-3.6,7.4
		c-1.6,2.3-3.3,4.4-4.8,6.6c-1.5,2-2.6,4.3-3.3,6.7c-0.1,0.6-0.3,1.2-0.3,1.7s0,1.1-0.1,1.7c0.1,1.1,0.3,2.2,0.6,3.2
		c0.6,2,1.4,3.9,2.1,5.6c1.2,2.7,1.4,5.8,0.5,8.6c-0.3,0.7-0.7,1.4-1.3,2c-0.1,0.2-0.3,0.3-0.4,0.4
		C145.4,282.1,145.3,282.2,145.3,282.2z"/>
	<path class="st5" d="M42.4,300.4c-0.2-0.3-0.3-0.5-0.4-0.8c-0.3-0.9-0.3-1.8-0.2-2.6c0.3-1.4,0.8-2.7,1.6-3.8
		c0.9-1.4,2.1-2.7,3.2-4.5c1.1-1.9,1.6-4.1,1.6-6.3c0-2.5-0.2-5.1-0.6-7.6c-0.4-2.8-0.3-5.7,0.3-8.5c0.9-2.9,2.5-5.6,4.8-7.7
		c2.2-2.1,4.5-4.1,6.9-5.9c2.2-1.7,4.3-3.6,6.3-5.6c3.8-3.8,6.5-7.9,7.7-11.8c0.5-1.7,0.9-3.5,1-5.3c0.1-1.4,0.1-2.7-0.1-4.1
		c-0.1-0.6-0.1-1.1-0.2-1.5s-0.1-0.8-0.2-1.1l-0.1-0.7c0-0.1,0-0.2,0-0.2c0,0.1,0.1,0.1,0.1,0.2l0.2,0.7c0.1,0.3,0.1,0.7,0.2,1.1
		s0.1,0.9,0.2,1.5c0.2,1.4,0.2,2.8,0.2,4.1c-0.1,1.8-0.4,3.7-0.9,5.4c-1.2,3.9-3.9,8.1-7.7,12c-2,2-4.1,3.9-6.3,5.6
		c-2.4,1.8-4.7,3.8-6.9,5.8c-2.2,2.1-3.8,4.6-4.6,7.5c-0.6,2.7-0.8,5.5-0.3,8.3c0.3,2.5,0.5,5.1,0.5,7.6c0,2.3-0.6,4.5-1.7,6.4
		c-1.1,1.8-2.3,3.1-3.2,4.5c-0.8,1.1-1.4,2.4-1.7,3.7c-0.2,0.8-0.2,1.7,0,2.6C42.3,300.1,42.5,300.4,42.4,300.4z"/>
	<path class="st5" d="M94,316.7c0.9-1.2,1.7-2.5,2.3-3.9c0.7-1.6,1.3-3.3,1.6-5.1c0.9-5.2-0.4-10.5-3.6-14.8c-2-2.6-4.2-5.1-6.5-7.4
		c-2.6-2.6-4.7-5.7-6.2-9c-0.8-1.8-1.2-3.8-1.2-5.7c0-2,0.6-4,1.6-5.8c2-3.6,5-6.3,7-9.4c1-1.5,1.8-3.2,2.1-5
		c0.3-1.7,0.3-3.5,0.1-5.2c-0.6-3.2-1.6-6.4-3-9.3c-1.3-2.6-2.4-5.3-3.3-8c-1.8-5-1.3-9.6,0-12.3c0.4-1,1.1-2,1.8-2.8
		c0.3-0.3,0.6-0.6,0.9-0.8c0,0-0.3,0.3-0.8,0.9c-0.7,0.9-1.3,1.8-1.7,2.9c-1.2,2.7-1.6,7.1,0.2,12.1c1,2.7,2.1,5.3,3.4,7.9
		c1.5,3,2.5,6.1,3.1,9.4c0.3,1.8,0.3,3.6-0.1,5.4c-0.4,1.9-1.1,3.6-2.2,5.2c-2.1,3.2-5.1,5.9-7,9.4c-1,1.7-1.5,3.6-1.5,5.6
		c0,1.9,0.4,3.8,1.1,5.5c1.5,3.3,3.6,6.3,6.1,8.9c2.3,2.4,4.5,4.9,6.5,7.5c1.7,2.3,2.9,5,3.5,7.9c0.8,4.2,0.2,8.4-1.6,12.3
		c-0.5,1-1.1,2-1.8,2.9l-0.6,0.7L94,316.7z"/>
	<polygon class="st7" points="91.3,377.2 108.4,335.9 165.9,362.3 133.8,436.8 75.4,415.5 	"/>
	<g class="st10">
		<polygon points="91.3,377.2 108.4,335.9 165.9,362.3 133.8,436.8 75.4,415.5 		"/>
	</g>
	<polygon class="st7" points="165.9,362.3 133.8,436.8 145.4,440.9 177,367.6 	"/>
	<g class="st11">
		<polygon points="165.9,362.3 133.8,436.8 145.4,440.9 177,367.6 		"/>
	</g>
	<polygon class="st1" points="116.7,339 120.7,331.1 174.4,357.2 171.6,364.2 	"/>
	<polygon class="st3" points="110.7,337 112.3,333.4 173.5,362.3 172.4,365.4 	"/>
	<path class="st6" d="M167.3,377.1c0.1,0.1-4.5,11.4-10.4,25.3s-10.7,25.2-10.8,25.1s4.5-11.4,10.4-25.3S167.2,377,167.3,377.1z"/>
	<path class="st6" d="M114.3,352.7l0.2,0.1l0.5,0.2l2.1,0.9l8,3.6l28.1,12.6l0.2,0.1l-0.1,0.2c-3.4,7.7-7.1,16.3-11,25.2l-0.1,0.2
		l-0.2-0.1H142l-38.3-16.3l-0.2-0.1l0.1-0.2c3.3-8.1,6-14.7,7.9-19.4c0.9-2.3,1.7-4,2.2-5.3l0.6-1.4
		C114.2,353.1,114.3,352.9,114.3,352.7c0,0,0,0.2-0.2,0.5s-0.3,0.8-0.6,1.4c-0.5,1.3-1.2,3.1-2.1,5.4c-1.8,4.6-4.4,11.3-7.6,19.3
		l-0.1-0.3l38.3,16.2h0.1l-0.3,0.1c3.9-9,7.7-17.5,11.1-25.2l0.1,0.3l-27.8-12.8l-8-3.7l-2.1-1l-0.6-0.3L114.3,352.7z"/>
	<path class="st6" d="M143.3,386.3c-0.1-0.3-0.3-0.5-0.4-0.8l-0.9-2.3c-0.8-2.1-1.8-4.9-3.1-8.3l0.3,0.1l-10.8,3.5l-0.2,0.1
		l-0.1-0.2l-0.9-1.5l-3.3-5.5l0.3,0.1l-12.6,4.9l-3.7,1.4c-0.4,0.2-0.9,0.3-1.4,0.4c0.4-0.2,0.8-0.4,1.3-0.6l3.6-1.5l12.6-5l0.2-0.1
		l0.1,0.2l3.4,5.4c0.3,0.5,0.6,1,0.9,1.5l-0.3-0.1l10.8-3.5l0.2-0.1l0.1,0.2l2.9,8.4c0.3,1,0.6,1.8,0.8,2.4
		C143.2,385.8,143.3,386.1,143.3,386.3z"/>
	<path class="st6" d="M132.8,370c0,0-0.1-0.2-0.2-0.5c-0.2-0.4-0.4-0.8-0.8-1.1c-0.5-0.4-1.2-0.5-1.9-0.2c-1,0.4-1.5,1.5-1.1,2.5
		c0.2,0.5,0.6,0.9,1.1,1.1c0.6,0.2,1.3,0.1,1.9-0.2c0.4-0.3,0.7-0.6,0.8-1.1C132.7,370.2,132.7,370,132.8,370c0.1,0,0.1,0.2,0,0.6
		c-0.1,0.5-0.4,1-0.8,1.3c-0.6,0.5-1.5,0.7-2.3,0.4c-1.3-0.4-1.9-1.8-1.5-3c0.2-0.7,0.8-1.3,1.5-1.5c0.8-0.3,1.6-0.1,2.3,0.4
		c0.4,0.3,0.7,0.8,0.8,1.3C132.9,369.8,132.8,370,132.8,370z"/>
	<path class="st7" d="M161.1,360.2c0,0-3.9-7.6-11-5c-2.8,1-9,19.8-9,19.8l4-1.3l2.5,4.2c0,0,8-19.7,9.2-19.5L161.1,360.2z"/>
	<path class="st6" d="M141.7,401.6c-0.6-0.1-1.1-0.3-1.7-0.6l-4.5-1.7c-3.8-1.5-9.1-3.5-14.9-5.8s-11-4.4-14.8-5.9l-4.5-1.9
		c-0.6-0.2-1.1-0.4-1.6-0.7c0.6,0.1,1.1,0.3,1.7,0.6l4.5,1.7c3.8,1.5,9.1,3.5,14.9,5.8s11,4.4,14.8,5.9l4.5,1.9
		C140.6,401,141.2,401.3,141.7,401.6z"/>
	<path class="st6" d="M139.3,404.8c-0.6-0.1-1.1-0.3-1.7-0.5l-4.5-1.7c-3.8-1.5-9.1-3.5-14.9-5.8s-11-4.4-14.8-5.9l-4.5-1.8
		c-0.6-0.2-1.1-0.5-1.6-0.7c0.6,0.1,1.1,0.3,1.7,0.6l4.5,1.7c3.8,1.5,9.1,3.5,14.9,5.8s11,4.4,14.8,5.9l4.5,1.9
		C138.3,404.3,138.8,404.5,139.3,404.8z"/>
	<path class="st6" d="M138.1,409.1c-0.6-0.1-1.1-0.3-1.7-0.5l-4.5-1.7c-3.8-1.5-9.1-3.5-14.9-5.8s-11.1-4.4-14.8-5.9l-4.5-1.9
		c-0.6-0.2-1.1-0.5-1.6-0.7c0.6,0.1,1.1,0.3,1.7,0.6l4.5,1.7c3.8,1.5,9.1,3.5,14.9,5.8s11,4.4,14.8,5.9l4.5,1.9
		C137,408.5,137.5,408.8,138.1,409.1z"/>
	<path class="st8" d="M111.3,397.3l8.7,4.4c0,0,6.9-3.4,10.3-3.9s18.2,1.4,18.2,1.4c0.2,1.8-0.9,3.5-2.6,4c-1.3,0.4-8.6,0-8.6,0l0,0
		c-1.5,1.3-1.7,3.6-0.4,5.2c0.4,0.4,0.8,0.8,1.4,1c3.7,1.5,8,3.3,8.5,3.7s5.9-0.6,9.8-1.4c2.4-0.5,4.1,2.5,2.2,4.1
		c-0.2,0.2-0.4,0.3-0.6,0.3c0,0,3.6,2.1-2.6,4.8c0,0-2.1,4.8-5.9,5.1c0,0-4.5,4.5-7.3,5.2s-21-6.2-21-6.2l-17.7-9.2L111.3,397.3z"/>
	<path class="st9" d="M141.9,431.2c-4,0-20.3-6.2-20.5-6.3l-17.7-9.2l0,0l7.5-18.4l0,0l8.6,4.3c0.3-0.1,7-3.4,10.3-3.9
		c0.5-0.1,1.1-0.1,1.6-0.1c5,0,16.5,1.5,16.6,1.5l0,0l0,0c0.2,1.8-0.9,3.5-2.6,4c-1.3,0.4-8.3,0-8.6,0c-1,0.8-1.4,2.1-1.2,3.3
		c0.2,1.2,1,2.3,2.2,2.8c3.6,1.5,8,3.4,8.5,3.7s3.9-0.2,9.8-1.4c0.2,0,0.3,0,0.5,0c1,0,1.9,0.6,2.3,1.5c0.5,0.9,0.3,2.1-0.5,2.7
		c-0.2,0.1-0.4,0.3-0.6,0.3c0.6,0.4,1,1,1,1.7c-0.1,1.1-1.3,2.1-3.6,3.1c-0.4,0.9-0.9,1.7-1.5,2.4c-1,1.4-2.6,2.4-4.4,2.7
		c-0.2,0.2-4.6,4.5-7.3,5.2C142.3,431.2,142.1,431.2,141.9,431.2z M103.8,415.7l17.7,9.2c0.2,0.1,16.4,6.3,20.5,6.3
		c0.2,0,0.4,0,0.5-0.1c2.8-0.7,7.2-5.2,7.3-5.2l0,0c1.8-0.3,3.3-1.2,4.4-2.7c0.6-0.7,1.1-1.6,1.5-2.4l0,0c2.3-1,3.5-2,3.6-3.1
		c0-0.7-0.4-1.3-1-1.7h-0.1h0.1c0.2,0,0.4-0.1,0.6-0.3c0.8-0.7,1-1.8,0.5-2.7c-0.5-1-1.6-1.6-2.7-1.4c-3.1,0.7-6.2,1.2-9.3,1.5
		c-0.2,0-0.4,0-0.6-0.1c-0.4-0.3-3.3-1.5-8.5-3.7c-1.9-0.8-2.8-2.9-2-4.8c0.2-0.5,0.6-1,1-1.4l0,0c0.1,0,7.3,0.5,8.6,0
		c1.1-0.3,2-1.2,2.4-2.3c0.2-0.5,0.2-1.1,0.2-1.6c-0.5-0.1-11.6-1.5-16.6-1.5c-0.5,0-1.1,0-1.6,0.1c-3.4,0.5-10.2,3.8-10.3,3.9l0,0
		l-8.6-4.3L103.8,415.7z"/>
	<path class="st9" d="M136.5,415.1c0.8,0.8,1.8,1.4,2.8,1.9c2.4,1.5,5.1,2.4,7.9,2.6c2.8,0,5.6-0.7,8-2.1c1.1-0.4,2-1.1,2.9-1.8
		c-1.1,0.3-2.2,0.7-3.2,1.2c-2.4,1.1-5,1.8-7.7,1.8c-2.7-0.2-5.2-1-7.6-2.3C138.6,415.9,137.6,415.5,136.5,415.1z"/>
	<path class="st9" d="M135.7,419.9c-0.1,0.1,0.8,1,2.5,1.9c1,0.6,2,1,3.1,1.4c1.3,0.5,2.7,0.8,4.2,0.8c1.4-0.2,2.8-0.5,4.1-0.9
		l3.2-1c1-0.3,2-0.6,2.9-1.2c-1,0.1-2,0.2-3,0.6c-0.9,0.2-2,0.5-3.2,0.9c-1.3,0.4-2.6,0.7-3.9,0.8c-1.3,0-2.6-0.2-3.8-0.7
		c-1-0.3-2.1-0.8-3.1-1.2C136.8,420.5,135.8,419.8,135.7,419.9z"/>
	<path class="st9" d="M135.3,425.5c-0.1,0.3,3.1,1.6,7.1,2.8c0.6,0.2,1.2,0.2,1.7,0c0.5-0.1,1-0.2,1.4-0.3c0.8-0.2,1.6-0.5,2.3-0.9
		c1.3-0.6,1.9-1.2,1.9-1.3c-0.7,0.2-1.4,0.4-2.1,0.8c-0.7,0.3-1.5,0.5-2.3,0.6c-0.5,0.1-0.9,0.2-1.4,0.3c-0.4,0.1-0.9,0.1-1.3,0
		c-2-0.6-3.9-1.1-5.2-1.5C136.8,425.8,136.1,425.6,135.3,425.5z"/>
	<path class="st7" d="M59.2,285.5c0,0-10.2,6.5-16.2,24.6c-5.2,15.3-15.9,40.1-19.5,57.7C21,380.7,27,395.9,43,400.2l60.7,18.2
		l9.3-22.8L58.6,368l14.9-34L59.2,285.5z"/>
	<path class="st4" d="M37.7,398.2c0.1,0,0.2,0,0.3,0.1l1,0.3l3.8,1.1l13.9,4.2l47.2,14.4l-0.3,0.1l5.9-14.5c1.2-2.8,2.3-5.6,3.4-8.3
		l0.1,0.3c-11.4-5.6-22-11.1-31.2-15.9s-17.2-8.8-23.3-11.9l0,0c-2-0.4-4.1-0.2-6.1,0.4c-1.5,0.5-2.8,1.3-4,2.2
		c-0.4,0.3-0.9,0.7-1.3,1.1c-0.3,0.3-0.6,0.6-0.8,0.9l-0.5,0.5c-0.1,0.1-0.2,0.2-0.2,0.2s0-0.1,0.2-0.2l0.5-0.6
		c0.3-0.3,0.5-0.6,0.8-0.9c0.4-0.4,0.8-0.8,1.2-1.1c1.2-1,2.5-1.8,4-2.3c2-0.7,4.1-0.9,6.2-0.5l0,0c6.1,3,14.1,7,23.4,11.8
		s19.8,10.2,31.2,15.8l0.2,0.1l-0.1,0.2l-3.4,8.3l-5.8,14.5l-0.1,0.2l-0.2-0.1l-47.2-14.6l-13.9-4.3l-3.7-1.2l-1-0.3L37.7,398.2z"/>
	<path class="st4" d="M76.1,315.9c0.1,0.2,0.1,0.4,0.2,0.5c0.2,0.5,0.3,1.1,0.3,1.6c0.3,2,0.3,4,0,6c-0.5,2.9-1.2,5.8-2.3,8.6
		c-1.2,3.1-2.7,6.5-4.3,10c-3.1,7-6,13.3-8.1,18l-2.5,5.4c-0.3,0.6-0.5,1.1-0.7,1.5c-0.1,0.2-0.2,0.3-0.3,0.5c0-0.2,0.1-0.4,0.2-0.5
		l0.6-1.5c0.6-1.4,1.4-3.2,2.3-5.5c2-4.7,4.8-11,7.9-18c1.6-3.5,3.1-6.8,4.3-9.9c1.1-2.7,1.9-5.6,2.4-8.5c0.3-2,0.4-3.9,0.2-5.9
		c-0.1-0.7-0.2-1.2-0.2-1.6C76.1,316.3,76.1,316.1,76.1,315.9z"/>
	<path class="st3" d="M48.7,323.9c0.1,0,0.2,1.2,0.6,3.1c0.5,2.5,1.1,5,1.9,7.5c0.8,2.4,1.8,4.8,2.9,7.1c0.5,0.9,1,1.9,1.4,2.9
		c0,0-0.2-0.2-0.5-0.7s-0.7-1.1-1.2-2c-2.5-4.6-4.1-9.6-4.8-14.7c-0.1-1-0.2-1.8-0.2-2.3C48.7,324.5,48.7,324.2,48.7,323.9z"/>
	<path class="st3" d="M52.5,336.8c0.6-0.9,1.1-1.8,1.5-2.8c1-2.4,1.3-5,0.7-7.5l-0.1-0.3l0.5,0.1c-1.5,2-2.4,4.4-2.6,6.9
		c-0.2,1.9,0,3.1-0.1,3.1c-0.1-0.3-0.2-0.5-0.2-0.8c-0.1-0.8-0.1-1.5-0.1-2.3c0.2-2.6,1-5.1,2.5-7.2l0.3-0.5l0.1,0.6l0.1,0.3
		c0.6,2.6,0.3,5.3-0.9,7.7c-0.3,0.7-0.8,1.4-1.3,2C52.7,336.6,52.5,336.8,52.5,336.8z"/>
	<path class="st3" d="M49.4,332.9c-0.3-0.1-0.6-0.2-0.9-0.3c-0.8-0.3-1.5-0.8-2.2-1.2c-1-0.7-2-1.5-2.9-2.4c-0.5-0.5-1-1.1-1.5-1.7
		c-0.2-0.3-0.5-0.7-0.7-1c-0.3-0.4-0.3-0.9-0.2-1.4c0.1-0.3,0.4-0.4,0.7-0.5c0.2,0,0.5,0,0.7,0.1c0.4,0.2,0.7,0.4,1,0.7
		c0.6,0.4,1.2,0.9,1.7,1.5c0.9,0.9,1.7,1.9,2.4,2.9c0.5,0.7,0.9,1.5,1.2,2.2c0.2,0.3,0.3,0.6,0.3,0.9c-0.1,0-0.6-1.2-1.8-2.9
		c-0.7-1-1.5-1.9-2.4-2.8c-0.5-0.5-1.1-1-1.7-1.4c-0.3-0.2-0.6-0.4-0.9-0.6c-0.3-0.1-0.6-0.1-0.7,0.1c-0.1,0.3,0,0.6,0.2,0.9
		c0.2,0.3,0.4,0.6,0.6,0.9c1.2,1.6,2.6,3,4.2,4.1C48.3,332.3,49.5,332.8,49.4,332.9z"/>
	<path class="st3" d="M50.8,341.2c-0.2,0.1-0.5,0.2-0.7,0.3c-0.7,0.1-1.4,0.2-2.1,0.2c-2.4-0.1-4.6-1.1-6.3-2.7l-0.3-0.3l0.4-0.1
		l0.7-0.2c2.5-0.6,5.1-0.1,7.3,1.2c0.6,0.4,1.2,0.9,1.7,1.5c0.4,0.4,0.5,0.6,0.5,0.7c-0.8-0.7-1.6-1.3-2.4-1.8c-2.1-1.2-4.6-1.5-7-1
		l-0.7,0.2l0.1-0.4c1.6,1.6,3.7,2.5,6,2.7C48.9,341.4,49.9,341.3,50.8,341.2z"/>
	<path class="st3" d="M56,392.9c0,0,0.3-0.2,0.8-0.4s1.3-0.5,2.2-0.9c4.9-1.7,10.1-2.5,15.3-2.4c1,0,1.8,0.1,2.3,0.1
		c0.3,0,0.6,0.1,0.8,0.1c-1.1,0.1-2.1,0.1-3.2,0.1c-2.6,0-5.1,0.3-7.7,0.6c-2.5,0.4-5,1-7.5,1.7C57.2,392.5,56.1,392.9,56,392.9z"/>
	<path class="st3" d="M69.2,390.4c-0.1,0.3-0.1,0.6-0.3,0.8c-0.3,0.7-0.7,1.4-1.2,2c-1.6,2.1-3.9,3.6-6.5,4.3l-0.3,0.1l-0.6,0.1
		l0.3-0.5c1.2-2.3,3-4.2,5.3-5.5c0.7-0.4,1.4-0.7,2.1-1c0.3-0.1,0.5-0.2,0.8-0.2c0,0.1-1.1,0.5-2.7,1.5c-2.1,1.4-3.8,3.2-5,5.5
		l-0.3-0.4l0.3-0.1c2.5-0.6,4.7-2,6.3-4C68,392.2,68.6,391.3,69.2,390.4z"/>
	<path class="st3" d="M64.3,389.5c-0.1,0.1-1.1-0.8-3-1.7c-1.1-0.6-2.2-1-3.3-1.4c-0.7-0.2-1.4-0.4-2.1-0.5
		c-0.4-0.1-0.7-0.1-1.1-0.1c-0.3,0-0.6,0.1-0.9,0.3c-0.2,0.2-0.1,0.5,0.2,0.7c0.3,0.2,0.6,0.4,0.9,0.6c0.6,0.3,1.3,0.6,2,0.9
		c1.2,0.4,2.4,0.7,3.6,0.9c2.1,0.3,3.4,0.2,3.4,0.3c-0.3,0.1-0.6,0.1-0.9,0.1c-0.8,0.1-1.7,0-2.5-0.1c-1.3-0.1-2.5-0.4-3.7-0.8
		c-0.7-0.2-1.4-0.5-2.1-0.9c-0.4-0.2-0.7-0.4-1-0.6c-0.2-0.2-0.3-0.4-0.4-0.6c-0.1-0.3,0-0.6,0.2-0.8c0.3-0.3,0.8-0.5,1.3-0.5
		c0.4,0,0.8,0.1,1.2,0.1c0.7,0.1,1.5,0.3,2.2,0.5c1.2,0.4,2.4,0.9,3.5,1.5c0.7,0.4,1.4,0.9,2.1,1.4C64,389,64.2,389.2,64.3,389.5z"
		/>
	<path class="st3" d="M72.4,386.9c-0.3-0.9-0.7-1.7-1.2-2.5c-1.2-1.9-3-3.4-5.2-4.1l0.3-0.3c0,0.2,0.1,0.4,0.1,0.7
		c0.6,2.3,2.1,4.4,4.1,5.7c0.9,0.5,1.8,1,2.7,1.4c-0.3,0-0.6,0-0.8-0.1c-0.7-0.2-1.4-0.5-2.1-0.9c-2.2-1.3-3.8-3.4-4.4-5.9
		c0-0.2-0.1-0.5-0.1-0.7l-0.1-0.4l0.4,0.1c2.3,0.8,4.1,2.4,5.3,4.4c0.3,0.6,0.6,1.3,0.8,1.9C72.4,386.3,72.4,386.6,72.4,386.9z"/>
	<path class="st3" d="M66.6,327.7c0.4-0.9,0.8-1.7,1-2.7c0.5-2.2,0-4.6-1.4-6.4h0.4l-0.1,0.1c-1.6,1.7-2,4.2-1.2,6.4
		C65.7,326,66.1,326.8,66.6,327.7c-0.8-0.7-1.3-1.5-1.6-2.5c-0.4-1-0.6-2.1-0.5-3.2c0.2-1.4,0.7-2.6,1.6-3.6l0.1-0.1l0.2-0.2
		l0.2,0.3c0.8,1.1,1.3,2.3,1.5,3.6c0.2,1.1,0.1,2.2-0.2,3.2c-0.2,0.7-0.5,1.4-0.9,2C66.8,327.5,66.6,327.7,66.6,327.7z"/>
	<path class="st3" d="M88.8,401.1c0.4-0.8,0.8-1.7,1-2.7c0.5-2.3,0-4.6-1.4-6.4h0.4l-0.1,0.1c-1.6,1.7-2,4.2-1.2,6.4
		C87.9,399.4,88.3,400.2,88.8,401.1c-0.8-0.7-1.3-1.6-1.6-2.5c-0.4-1-0.6-2.1-0.5-3.2c0.2-1.4,0.7-2.6,1.6-3.6l0.1-0.1l0.2-0.2
		l0.2,0.3c0.8,1.1,1.3,2.3,1.5,3.6c0.2,1.1,0.1,2.2-0.2,3.2c-0.2,0.7-0.5,1.4-0.9,2C89.1,400.9,88.8,401.1,88.8,401.1z"/>
	<path class="st3" d="M34.6,365.9c0-0.1,1.5-0.8,3.9-2.3c1.4-0.9,2.6-2,3.6-3.2c1.2-1.6,1.8-3.5,1.6-5.5c-0.3-0.2,0.3,0.3,0.3,0.2
		h-0.2h-0.2c-0.1,0-0.3,0-0.4,0.1l-0.8,0.2c-0.5,0.1-1,0.3-1.4,0.5c-0.9,0.4-1.7,0.9-2.4,1.5c-1.3,1-2.2,2.3-2.9,3.8
		c-0.6,1.4-0.9,2.9-1,4.4c-0.1-0.4-0.1-0.8-0.1-1.2c0.1-1.1,0.3-2.2,0.7-3.3c0.6-1.6,1.6-2.9,2.9-4c1.2-1,2.5-1.7,4-2.1
		c0.3-0.1,0.5-0.1,0.8-0.2l0.4-0.1h0.2h0.2l0.3,0.2c0.2,2.1-0.4,4.2-1.7,5.8c-1,1.3-2.3,2.4-3.8,3.3c-1,0.6-2,1.1-3,1.5
		C35.4,365.6,35,365.8,34.6,365.9z"/>
</g>
<g id="freepik--Plant--inject-37">
	<path class="st1" d="M463.7,369.8c0-0.1-0.1-0.2-0.1-0.2l-0.3-0.6c-0.3-0.5-0.8-1.4-1.5-2.3c-2-2.8-4.5-5.2-7.4-7
		c-2-1.2-4.3-2.1-6.6-2.4c-2.7-0.4-5.5-0.1-8,0.9c-2.9,1-5.3,3-6.9,5.6c-1.6,2.8-2.1,6-3,9.1c-0.4,1.5-1.1,3-1.9,4.3
		c-0.9,1.3-2,2.3-3.3,3.2c-1.2,0.9-2.5,1.7-3.7,2.7c-1.1,0.9-2.2,2-3,3.2c-1.5,2.3-2.6,4.8-3.1,7.5c-0.4,2.3-0.6,4.7-0.4,7
		c0.3,3.4,0.9,6.7,1.8,10c0.3,1.2,0.6,2.1,0.7,2.7c0.1,0.3,0.2,0.6,0.3,0.9c0-0.3-0.1-0.6-0.2-0.9c-0.1-0.7-0.4-1.6-0.6-2.7
		c-0.8-3.3-1.4-6.6-1.6-10c-0.1-2.3,0-4.7,0.5-6.9c0.5-2.6,1.5-5.1,3-7.3c0.8-1.2,1.8-2.2,2.9-3.1c1.1-0.9,2.4-1.7,3.7-2.6
		c1.3-0.9,2.5-2,3.4-3.4c0.9-1.4,1.6-2.9,2-4.5c0.9-3.1,1.4-6.4,3-9c1.5-2.5,3.8-4.4,6.6-5.4c2.5-0.9,5.2-1.2,7.8-0.9
		c2.3,0.3,4.5,1.1,6.5,2.3c2.9,1.7,5.4,4,7.4,6.8c0.7,1,1.2,1.7,1.6,2.3C463.3,369.2,463.5,369.5,463.7,369.8z"/>
	<path class="st1" d="M423.2,381.1c0.9-0.8,1.3-0.2,2.4,0c1.1,0.2,2.2,0.8,3.1,1.5c4,3.3,5.7,8.7,4.2,13.7c-5.6,0.3-10.4-4-10.7-9.6
		c-0.1-2,0.4-4,1.4-5.7"/>
	<path class="st1" d="M458.2,365.2c0.4-1.1,1-0.8,2.2-1.1c1.1-0.3,2.3-0.2,3.5,0.1c5.1,1.3,8.9,5.4,9.7,10.5
		c-5,2.7-11.1,0.8-13.8-4.1c-0.9-1.7-1.4-3.7-1.2-5.7"/>
	<path class="st1" d="M415.4,402.7c4.2-4.9,11.7-5.4,16.6-1.2c0.7,0.6,1.4,1.3,1.9,2.1c-2.6,2.4-6,3.7-9.6,3.8
		c-3.6-0.1-7-1.5-9.6-3.9"/>
	<path class="st1" d="M418.3,386.6c-6.6,0.2-12.1-5-12.2-11.6c0-0.9,0.1-1.7,0.2-2.6c5.8-1.3,11.5,2.3,12.8,8c0.5,2,0.3,4.1-0.4,6.1
		"/>
	<path class="st1" d="M430.7,367.7c-6.1,2.4-13-0.7-15.4-6.9c-0.3-0.8-0.5-1.7-0.7-2.6c5-3.2,11.6-1.7,14.7,3.3
		c1.1,1.8,1.7,3.8,1.7,5.9"/>
	<path class="st1" d="M434.8,361.5c6.1-2.4,13,0.7,15.4,6.8c0.3,0.8,0.6,1.7,0.7,2.6c-5,3.2-11.6,1.7-14.8-3.3
		c-1.1-1.7-1.7-3.8-1.7-5.8"/>
	<path class="st1" d="M439.7,358.1c-6.2-2.1-9.6-8.8-7.5-15.1c0.3-0.9,0.7-1.7,1.1-2.4c5.9,0.8,10,6.1,9.2,12c-0.3,2-1.1,4-2.5,5.5"
		/>
	<path class="st1" d="M452.4,358.7c-2.2-6.2,1-13,7.1-15.3c0.8-0.3,1.7-0.5,2.6-0.6c3.1,5.1,1.4,11.6-3.6,14.7
		c-1.8,1.1-3.8,1.6-5.9,1.5"/>
	<polyline class="st4" points="401.4,444.1 394.7,401.9 446.3,402.5 441.2,443.6 	"/>
	<path class="st7" d="M423.7,394.2c2.5,1.7,5.8,2,8.6,0.7c2.7-1.5,4.5-4.3,4.7-7.4c-4.8-2.6-10.8-0.8-13.4,4
		c-0.3,0.6-0.6,1.3-0.8,1.9"/>
	<path class="st7" d="M447.3,403.3c2.5,1.7,5.8,2,8.6,0.7c2.7-1.5,4.5-4.3,4.7-7.4c-4.8-2.6-10.8-0.8-13.4,4
		c-0.3,0.6-0.6,1.3-0.8,1.9"/>
	<path class="st7" d="M434,383c1.2,2.8,3.7,4.8,6.8,5.3c3.1,0.2,6.1-1.1,8-3.6c-2.6-4.8-8.6-6.6-13.4-4.1c-0.6,0.3-1.2,0.7-1.7,1.2"
		/>
	<path class="st7" d="M442.6,393.5c-3.1-0.2-6,1.3-7.7,3.8c-1.5,2.7-1.6,6-0.2,8.8c3-0.2,5.7-1.7,7.5-4.1c1.7-2.4,2.3-5.5,1.6-8.4"
		/>
	<path class="st7" d="M451,410.1c-1.4,2.7-1.4,6,0.2,8.6c1.8,2.5,4.8,4,7.9,3.9c1.1-2.8,0.9-5.9-0.5-8.5c-1.4-2.5-3.8-3.7-6.9-4.4"
		/>
	<path class="st7" d="M464.7,412.1c-0.6-0.6-1.3-1-2-1.3c-0.9-0.3-1.8-0.5-2.8-0.5c-1.3,0-2.5,0.1-3.8,0.2c-1.6,0.2-3.2,0.1-4.7-0.4
		c-1.7-0.7-3.1-2-3.9-3.7c-0.8-1.8-1.4-3.7-1.7-5.7c-0.3-2.1-1-4.1-2-5.9c-1.2-1.7-2.7-3.2-4.4-4.4c-1.6-1.2-3-2.6-4.2-4.2
		c-1.9-2.9-2.6-6.3-2.1-9.7c0.3-2.3,1.2-4.4,2.5-6.2c0.4-0.5,0.8-0.9,1.2-1.4c0.1-0.2,0.3-0.3,0.5-0.4c-0.1,0.2-0.3,0.3-0.4,0.5
		c-0.4,0.4-0.8,0.9-1.1,1.4c-1.3,1.8-2.1,4-2.3,6.2c-0.5,3.3,0.3,6.6,2.1,9.4c1.2,1.6,2.6,2.9,4.1,4.1c1.7,1.3,3.2,2.8,4.5,4.5
		c1.1,1.9,1.8,3.9,2.1,6c0.3,1.9,0.8,3.8,1.6,5.6c0.7,1.6,2,2.9,3.6,3.5c1.5,0.5,3,0.6,4.5,0.4c1.3-0.1,2.6-0.2,3.9-0.1
		c1,0,2,0.2,2.9,0.6c0.6,0.2,1.1,0.6,1.5,1c0.1,0.1,0.2,0.2,0.3,0.4C464.6,412,464.7,412.1,464.7,412.1z"/>
	<path class="st7" d="M464.7,412.1c-0.6-0.6-1.3-1-2-1.3c-0.9-0.3-1.8-0.5-2.8-0.5c-1.3,0-2.5,0.1-3.8,0.2c-1.6,0.2-3.2,0.1-4.7-0.4
		c-1.7-0.7-3.1-2-3.9-3.7c-0.8-1.8-1.4-3.7-1.7-5.7c-0.3-2.1-1-4.1-2-5.9c-1.2-1.7-2.7-3.2-4.4-4.4c-1.6-1.2-3-2.6-4.2-4.2
		c-1.9-2.9-2.6-6.3-2.1-9.7c0.3-2.3,1.2-4.4,2.5-6.2c0.4-0.5,0.8-0.9,1.2-1.4c0.1-0.2,0.3-0.3,0.5-0.4c-0.1,0.2-0.3,0.3-0.4,0.5
		c-0.4,0.4-0.8,0.9-1.1,1.4c-1.3,1.8-2.1,4-2.3,6.2c-0.5,3.3,0.3,6.6,2.1,9.4c1.2,1.6,2.6,2.9,4.1,4.1c1.7,1.3,3.2,2.8,4.5,4.5
		c1.1,1.9,1.8,3.9,2.1,6c0.3,1.9,0.8,3.8,1.6,5.6c0.7,1.6,2,2.9,3.6,3.5c1.5,0.5,3,0.6,4.5,0.4c1.3-0.1,2.6-0.2,3.9-0.1
		c1,0,2,0.2,2.9,0.6c0.6,0.2,1.1,0.6,1.5,1c0.1,0.1,0.2,0.2,0.3,0.4C464.6,412,464.7,412.1,464.7,412.1z"/>
	<path class="st7" d="M366.2,416.4c0.4-7.2-5.2-13.3-12.4-13.7c-1.8-0.1-3.6,0.2-5.3,0.8c3.1,6.9,9.6,11.8,17.2,12.7"/>
	<path class="st7" d="M362.8,418.2c-2.5,2.8-2.4,7.2-0.6,10.5s4.9,5.6,8,7.7c2.2-7.3-0.8-15.2-7.3-19.2"/>
	<path class="st7" d="M375,405.2c0.8,8.3,8.2,14.3,16.5,13.5c0.2,0,0.4,0,0.6-0.1c-1-4-2.6-8.1-5.7-10.9s-8.1-3.8-11.5-1.5"/>
	<path class="st7" d="M374.9,401.1c-0.6-3.7-4.3-6.4-8-6.7s-7.4,1.3-10.4,3.5c4.7,5.4,12.8,6.2,18.5,1.8"/>
	<path class="st7" d="M355.7,432.5c-3.5,3-4.4,8.4-3,12.8s4.9,8,8.8,10.5c1.5-4.4,2.4-9.1,1.6-13.6s-3.5-9-7.8-10.8"/>
	<path class="st7" d="M374.3,390.7c3.4-5,10.2-6.3,15.1-2.9c0.8,0.5,1.5,1.2,2.1,1.9c-2.1,4.8-7.7,6.9-12.4,4.8
		c-2-0.9-3.6-2.4-4.6-4.4"/>
	<path class="st7" d="M378.7,380.1c-7.5,2.3-15.4-1.9-17.7-9.4c-0.2-0.5-0.3-1.1-0.4-1.6c2.8-0.3,5.7-0.3,8.5,0.1
		c2.8,0.4,5.5,1.7,7.5,3.7C378.6,374.7,379.4,377.5,378.7,380.1"/>
	<path class="st7" d="M386.9,377.3c-4.9-4-5.7-11.3-1.6-16.3c0.5-0.6,1-1.1,1.6-1.6c2.6,3.1,4.3,6.8,5,10.8c0.4,1.5,0.4,3,0,4.5
		c-0.4,1.5-1.6,2.6-3.1,2.9"/>
	<g class="st12">
		<path d="M366.2,416.4c0.4-7.2-5.2-13.3-12.4-13.7c-1.8-0.1-3.6,0.2-5.3,0.8c3.1,6.9,9.6,11.8,17.2,12.7"/>
	</g>
	<g class="st12">
		<path d="M362.8,418.2c-2.5,2.8-2.4,7.2-0.6,10.5s4.9,5.6,8,7.7c2.2-7.3-0.8-15.2-7.3-19.2"/>
	</g>
	<g class="st12">
		<path d="M375,405.2c0.8,8.3,8.2,14.3,16.5,13.5c0.2,0,0.4,0,0.6-0.1c-1-4-2.6-8.1-5.7-10.9s-8.1-3.8-11.5-1.5"/>
	</g>
	<g class="st12">
		<path d="M374.9,401.1c-0.6-3.7-4.3-6.4-8-6.7s-7.4,1.3-10.4,3.5c4.7,5.4,12.8,6.2,18.5,1.8"/>
	</g>
	<g class="st12">
		<path d="M355.7,432.5c-3.5,3-4.4,8.4-3,12.8s4.9,8,8.8,10.5c1.5-4.4,2.4-9.1,1.6-13.6s-3.5-9-7.8-10.8"/>
	</g>
	<g class="st12">
		<path d="M374.3,390.7c3.4-5,10.2-6.3,15.1-2.9c0.8,0.5,1.5,1.2,2.1,1.9c-2.1,4.8-7.7,6.9-12.4,4.8c-2-0.9-3.6-2.4-4.6-4.4"/>
	</g>
	<g class="st12">
		<path d="M378.7,380.1c-7.5,2.3-15.4-1.9-17.7-9.4c-0.2-0.5-0.3-1.1-0.4-1.6c2.8-0.3,5.7-0.3,8.5,0.1c2.8,0.4,5.5,1.7,7.5,3.7
			C378.6,374.7,379.4,377.5,378.7,380.1"/>
	</g>
	<g class="st12">
		<path d="M386.9,377.3c-4.9-4-5.7-11.3-1.6-16.3c0.5-0.6,1-1.1,1.6-1.6c2.6,3.1,4.3,6.8,5,10.8c0.4,1.5,0.4,3,0,4.5
			c-0.4,1.5-1.6,2.6-3.1,2.9"/>
	</g>
	<path class="st7" d="M401,403.3c0-0.1,0-0.2,0-0.3c0-0.2,0-0.5,0-0.9c0-0.7,0.1-1.8,0.1-3.3c0.2-4-0.5-8-1.9-11.7
		c-1-2.5-2.6-4.8-4.7-6.6c-2.4-2.1-5.4-3.2-8.6-3.1c-1.7,0-3.3,0.4-4.8,1.2c-1.5,0.8-2.8,2.1-3.7,3.6c-1.9,3.1-2.3,7-2.2,10.8
		s0.7,7.6,0.3,11.3c-0.2,1.8-0.7,3.6-1.4,5.3c-0.7,1.6-1.8,3-3.2,4.1c-1.3,1-2.8,1.7-4.4,2.3c-1.5,0.5-2.8,1.1-4.2,1.9
		c-2.3,1.5-4.2,3.5-5.5,6c-1,2-1.6,4.3-1.6,6.5c0,1.7,0.3,3.4,0.8,5c0.5,1.4,1.1,2.7,2,3.9c-0.1-0.1-0.1-0.1-0.2-0.2
		c-0.1-0.2-0.3-0.4-0.5-0.7c-0.6-0.9-1.1-1.9-1.5-2.9c-0.6-1.6-0.9-3.4-0.9-5.1c0-2.3,0.5-4.6,1.5-6.7c1.3-2.5,3.2-4.7,5.6-6.2
		c2.5-1.7,5.9-2.1,8.5-4.2s4-5.5,4.4-9.1s-0.1-7.4-0.3-11.3s0.3-7.9,2.3-11.1c1-1.6,2.3-2.9,4-3.8c1.6-0.8,3.3-1.2,5.1-1.3
		c3.3-0.1,6.5,1.1,8.9,3.3c2.1,1.9,3.7,4.2,4.8,6.8c0.9,2.1,1.4,4.4,1.6,6.7c0.2,1.7,0.2,3.5,0.1,5.2c-0.1,1.4-0.2,2.5-0.3,3.3
		c0,0.4-0.1,0.6-0.1,0.9C401.1,403.1,401,403.2,401,403.3z"/>
	<g class="st12">
		<path d="M401,403.3c0-0.1,0-0.2,0-0.3c0-0.2,0-0.5,0-0.9c0-0.7,0.1-1.8,0.1-3.3c0.2-4-0.5-8-1.9-11.7c-1-2.5-2.6-4.8-4.7-6.6
			c-2.4-2.1-5.4-3.2-8.6-3.1c-1.7,0-3.3,0.4-4.8,1.2c-1.5,0.8-2.8,2.1-3.7,3.6c-1.9,3.1-2.3,7-2.2,10.8s0.7,7.6,0.3,11.3
			c-0.2,1.8-0.7,3.6-1.4,5.3c-0.7,1.6-1.8,3-3.2,4.1c-1.3,1-2.8,1.7-4.4,2.3c-1.5,0.5-2.8,1.1-4.2,1.9c-2.3,1.5-4.2,3.5-5.5,6
			c-1,2-1.6,4.3-1.6,6.5c0,1.7,0.3,3.4,0.8,5c0.5,1.4,1.1,2.7,2,3.9c-0.1-0.1-0.1-0.1-0.2-0.2c-0.1-0.2-0.3-0.4-0.5-0.7
			c-0.6-0.9-1.1-1.9-1.5-2.9c-0.6-1.6-0.9-3.4-0.9-5.1c0-2.3,0.5-4.6,1.5-6.7c1.3-2.5,3.2-4.7,5.6-6.2c2.5-1.7,5.9-2.1,8.5-4.2
			s4-5.5,4.4-9.1s-0.1-7.4-0.3-11.3s0.3-7.9,2.3-11.1c1-1.6,2.3-2.9,4-3.8c1.6-0.8,3.3-1.2,5.1-1.3c3.3-0.1,6.5,1.1,8.9,3.3
			c2.1,1.9,3.7,4.2,4.8,6.8c0.9,2.1,1.4,4.4,1.6,6.7c0.2,1.7,0.2,3.5,0.1,5.2c-0.1,1.4-0.2,2.5-0.3,3.3c0,0.4-0.1,0.6-0.1,0.9
			C401.1,403.1,401,403.2,401,403.3z"/>
	</g>
	<path class="st7" d="M476.1,394c0.5-1.2,0.7-2.5,0.8-3.8c0-1.5-0.3-3-1-4.4c-1.5-2.8-4.3-4.7-7.5-5c-1.2-0.1-2.5,0.1-3.7,0.4
		c-2.5,0.7-5,2.1-8,2.7c-1.5,0.4-3.1,0.4-4.7,0c-1.6-0.5-2.9-1.6-3.8-3c-1.8-2.8-2.3-6.3-4.5-8.9c-1.1-1.3-2.5-2.2-4.1-2.7
		c-1.5-0.5-3.2-0.7-4.8-0.5c-3,0.3-5.9,1.7-7.9,4c-1.8,2.1-3.2,4.6-3.9,7.3c-0.7,2.3-1,4.8-0.9,7.2c0.2,3.5,0.6,7,1.3,10.5
		c0.2,1.2,0.4,2.2,0.5,2.9c0,0.3,0.1,0.5,0.1,0.8c0,0.1,0,0.2,0,0.3c0,0,0-0.1-0.1-0.2s-0.1-0.4-0.2-0.7c-0.1-0.7-0.4-1.6-0.6-2.8
		c-0.8-3.5-1.3-7-1.5-10.6c-0.1-2.5,0.1-5,0.8-7.4c0.8-2.8,2.1-5.3,4-7.5c1-1.2,2.3-2.1,3.6-2.9c3-1.6,6.4-1.9,9.6-0.9
		c1.7,0.5,3.2,1.5,4.3,2.8c2.3,2.8,2.8,6.3,4.5,8.9c0.8,1.3,2,2.3,3.5,2.8c1.4,0.4,2.9,0.4,4.4,0.1c2.9-0.6,5.4-2,8-2.6
		c1.3-0.4,2.6-0.5,3.9-0.4c3.3,0.3,6.3,2.3,7.8,5.3c0.7,1.4,1,3,0.9,4.5c0,1-0.2,1.9-0.6,2.9C476.4,393.4,476.3,393.7,476.1,394z"/>
	<path class="st7" d="M446,375.3c2.8,1.7,6.2,1.9,9.2,0.6c2.7-1.5,4.5-4.3,4.7-7.4c-4.8-2.6-10.8-0.8-13.4,4
		c-0.3,0.6-0.6,1.3-0.8,1.9"/>
	<path class="st7" d="M455.7,384.2c0,3.3,1.6,6.3,4.3,8.2c2.7,1.5,6,1.6,8.8,0.1c-0.3-5.5-4.9-9.7-10.4-9.4c-0.7,0-1.4,0.1-2.1,0.3"
		/>
	<path class="st7" d="M472.7,382.2c3,1.4,6.4,1.2,9.2-0.4c2.5-1.8,4-4.8,3.9-7.9c-2.8-1.1-5.9-0.9-8.5,0.5c-2.6,1.5-4.4,4-5,6.9"/>
	<path class="st7" d="M431.7,369.4c-2.5-2.1-4.1-5.9-3.6-8.7c0.7-3,2.8-5.5,5.7-6.7c3.9,3.8,4,10.1,0.2,14c-0.5,0.5-1.1,1-1.6,1.4"
		/>
	<path class="st7" d="M365.5,357.3c0-0.1,0.1-0.2,0.1-0.2c0.1-0.2,0.2-0.4,0.3-0.6c0.3-0.5,0.8-1.3,1.5-2.3c2-2.8,4.5-5.2,7.4-7
		c2-1.2,4.3-2.1,6.6-2.4c2.7-0.4,5.4-0.1,8,0.9c2.9,1,5.3,3,6.9,5.6c1.6,2.8,2.1,6,3,9.1c0.4,1.5,1.1,3,1.9,4.3
		c0.9,1.3,2,2.3,3.3,3.2c1.2,0.9,2.5,1.7,3.7,2.7c1.1,0.9,2.2,2,3,3.2c1.5,2.3,2.6,4.8,3.1,7.5c0.4,2.3,0.6,4.7,0.4,7
		c-0.3,3.4-0.9,6.7-1.8,10c-0.3,1.2-0.6,2.1-0.7,2.7c-0.1,0.3-0.2,0.6-0.3,0.9c0-0.3,0.1-0.6,0.2-0.9c0.1-0.7,0.4-1.6,0.6-2.7
		c0.8-3.3,1.4-6.6,1.6-10c0.1-2.3,0-4.6-0.5-6.9c-0.5-2.6-1.5-5.1-3-7.3c-0.8-1.2-1.8-2.2-2.9-3.1c-1.1-0.9-2.4-1.7-3.7-2.6
		c-1.3-0.9-2.5-2-3.4-3.4c-0.9-1.4-1.6-2.9-2-4.5c-0.9-3.1-1.4-6.4-3-9c-1.5-2.5-3.8-4.4-6.6-5.4c-2.5-0.9-5.2-1.2-7.8-0.9
		c-2.3,0.3-4.5,1.1-6.5,2.3c-2.9,1.7-5.4,4-7.4,6.8c-0.7,1-1.2,1.7-1.6,2.3C365.8,356.7,365.7,357,365.5,357.3z"/>
	<path class="st7" d="M406,368.7c-0.9-0.8-1.3-0.2-2.4,0c-1.1,0.3-2.2,0.8-3.1,1.5c-4,3.3-5.7,8.7-4.2,13.7c5.6,0.3,10.4-4,10.7-9.6
		c0.1-2-0.4-4-1.4-5.7"/>
	<path class="st7" d="M370.9,352.7c-0.4-1.1-1-0.8-2.2-1.1c-1.1-0.3-2.3-0.2-3.5,0.1c-5,1.3-8.9,5.4-9.7,10.5
		c5,2.7,11.1,0.8,13.8-4.1c0.9-1.7,1.4-3.7,1.2-5.7"/>
	<path class="st7" d="M413.7,390.3c-4.2-4.9-11.7-5.4-16.6-1.2c-0.7,0.6-1.4,1.3-1.9,2.1c2.6,2.4,6,3.7,9.6,3.8
		c3.6-0.1,7-1.5,9.6-3.9"/>
	<path class="st7" d="M410.8,374.1c6.6,0.2,12.1-5,12.2-11.6c0-0.9-0.1-1.7-0.2-2.6c-5.8-1.3-11.5,2.3-12.8,8.1
		c-0.5,2-0.3,4.1,0.4,6"/>
	<path class="st7" d="M398.5,355.2c6.1,2.4,13-0.7,15.4-6.9c0.3-0.8,0.5-1.7,0.7-2.6c-5-3.2-11.6-1.7-14.7,3.3
		c-1.1,1.8-1.7,3.8-1.7,5.9"/>
	<path class="st7" d="M394.4,349c-6.1-2.4-13,0.7-15.4,6.8c-0.3,0.8-0.6,1.7-0.7,2.6c5,3.2,11.6,1.7,14.8-3.3
		c1.1-1.7,1.7-3.8,1.7-5.9"/>
	<path class="st7" d="M389.4,345.6c6.2-2.1,9.6-8.8,7.5-15.1c-0.3-0.9-0.7-1.7-1.1-2.4c-5.9,0.8-10,6.1-9.2,12
		c0.3,2.1,1.1,4,2.5,5.6"/>
	<path class="st7" d="M376.8,346.3c2.2-6.2-1-13-7.1-15.3c-0.8-0.3-1.7-0.5-2.6-0.6c-3.1,5-1.4,11.6,3.6,14.7
		c1.8,1.1,3.8,1.6,5.9,1.5"/>
	<polygon class="st4" points="394,439.3 398,444.1 446.5,444.1 449.8,439.3 	"/>
	<path class="st5" d="M448.8,439.2c0,0.2-11.9,0.3-26.6,0.3s-26.6-0.1-26.6-0.3s11.9-0.3,26.6-0.3S448.8,439,448.8,439.2z"/>
	<path class="st5" d="M443.3,420.8c-0.1,0.1-0.2,0.3-0.3,0.4c-0.3,0.4-0.6,0.7-1,1c-1.3,1.2-2.8,2.2-4.3,3c-2.4,1.2-4.9,1.8-7.6,1.9
		c-1.6,0.1-3.1-0.1-4.6-0.4c-1.6-0.4-3.2-0.9-4.7-1.6c-3.1-1.3-6-2.9-8.8-3.7c-2.4-0.9-5-1.1-7.5-0.7c-1.7,0.3-3.3,1-4.6,2.1
		c-0.9,0.8-1.3,1.4-1.3,1.4s0.1-0.2,0.2-0.4c0.3-0.4,0.6-0.8,0.9-1.1c1.3-1.2,2.9-2,4.7-2.4c2.6-0.5,5.3-0.3,7.8,0.6
		c2.8,0.9,5.7,2.4,8.8,3.7c1.5,0.7,3,1.2,4.6,1.5c1.5,0.3,3,0.5,4.5,0.4c2.6-0.1,5.1-0.7,7.4-1.8
		C439.6,423.8,441.6,422.4,443.3,420.8z"/>
	<path class="st5" d="M443.8,417c-0.1,0.1-0.2,0.3-0.3,0.4c-0.3,0.4-0.7,0.7-1.1,1c-1.4,1.1-2.9,2.1-4.5,2.8c-2.4,1.1-5,1.7-7.6,1.8
		c-1.6,0.1-3.1,0-4.6-0.3c-1.6-0.3-3.2-0.8-4.8-1.4c-3.2-1.2-6.1-2.5-9-3.3c-2.5-0.8-5.1-1-7.6-0.7c-1.7,0.2-3.4,0.9-4.8,1.8
		c-1,0.7-1.5,1.2-1.5,1.2c0.1-0.1,0.2-0.3,0.3-0.4c0.3-0.4,0.7-0.7,1.1-1c1.4-1.1,3.1-1.8,4.9-2c2.6-0.4,5.3-0.2,7.8,0.6
		c2.9,0.8,5.8,2.1,9,3.3c1.5,0.6,3.1,1,4.7,1.4c1.5,0.3,3,0.4,4.5,0.3c2.6-0.1,5.1-0.7,7.5-1.7C439.9,419.8,442,418.5,443.8,417z"/>
</g>
<g id="freepik--Clock--inject-37">
	
		<ellipse transform="matrix(0.7071 -0.7071 0.7071 0.7071 15.0029 198.7611)" class="st3" cx="247.4" cy="81.3" rx="35.3" ry="35.3"/>
	<path class="st4" d="M212.2,79c0,0,0,0.2,0,0.6v2.9c0,0.5,0.1,1,0.1,1.5c0.1,1.2,0.2,2.5,0.5,3.7c0.6,3.3,1.7,6.6,3.3,9.6
		c4.6,9,12.8,15.5,22.6,18c1.4,0.4,2.9,0.6,4.4,0.8c0.8,0.1,1.5,0.2,2.3,0.2h2.3c0.4,0,0.8,0,1.2,0l1.2-0.1c0.8-0.1,1.6-0.1,2.4-0.2
		c3.3-0.5,6.4-1.5,9.5-2.8c0.8-0.3,1.5-0.8,2.3-1.2c0.8-0.4,1.5-0.8,2.2-1.3c1.5-0.9,2.9-2,4.2-3.1c1.3-1.2,2.6-2.5,3.7-3.8
		c2.4-2.8,4.3-5.9,5.6-9.3c1.4-3.5,2.2-7.2,2.5-10.9c0.2-3.8-0.2-7.5-1.1-11.2l-0.8-2.7c-0.4-0.8-0.7-1.7-1-2.5
		c-0.2-0.4-0.3-0.8-0.6-1.2l-0.6-1.2l-0.6-1.2l-0.7-1.1c-1-1.5-2-2.9-3.2-4.3c-1.2-1.3-2.4-2.5-3.8-3.6c-0.6-0.6-1.3-1.1-2-1.6
		c-0.7-0.5-1.4-1-2.1-1.4c-1.4-0.9-2.9-1.6-4.4-2.3c-1.5-0.7-3-1.2-4.6-1.7c-0.8-0.2-1.6-0.4-2.3-0.5l-1.2-0.3
		c-0.4-0.1-0.8-0.1-1.2-0.2l-2.3-0.3c-0.8-0.1-1.5,0-2.3-0.1c-1.5,0-3,0-4.5,0.2c-10,1.2-19,6.6-24.8,14.9c-1.9,2.8-3.5,5.9-4.5,9.1
		c-0.4,1.2-0.8,2.4-1,3.6c-0.1,0.5-0.3,1-0.3,1.4s-0.1,0.9-0.1,1.2c-0.1,0.7-0.2,1.3-0.2,1.7S212.2,79,212.2,79c0,0,0-0.2,0-0.6
		s0.1-1,0.2-1.7c0-0.4,0.1-0.8,0.1-1.2s0.2-0.9,0.3-1.5c0.2-1.2,0.5-2.4,0.9-3.6c1-3.3,2.5-6.4,4.5-9.2c5.8-8.4,14.9-14,25-15.2
		c1.5-0.2,3-0.3,4.5-0.2c0.8,0,1.6,0,2.3,0.1l2.3,0.3c0.4,0,0.8,0.1,1.2,0.2l1.2,0.3c0.8,0.2,1.6,0.3,2.4,0.5c1.6,0.5,3.1,1,4.6,1.7
		c1.6,0.7,3.1,1.4,4.5,2.3c0.7,0.5,1.4,1,2.1,1.5c0.7,0.5,1.4,1,2,1.6c1.3,1.1,2.6,2.4,3.8,3.7c1.2,1.4,2.2,2.8,3.2,4.3l0.7,1.2
		l0.6,1.2l0.6,1.2c0.2,0.4,0.4,0.8,0.5,1.3c0.4,0.9,0.7,1.7,1,2.6s0.5,1.8,0.8,2.7c2,7.4,1.4,15.3-1.5,22.4
		c-1.4,3.4-3.3,6.6-5.7,9.4c-1.1,1.4-2.4,2.7-3.7,3.9c-1.4,1.1-2.8,2.2-4.3,3.2c-0.7,0.5-1.5,0.9-2.2,1.3c-0.8,0.4-1.5,0.8-2.3,1.2
		c-3.1,1.3-6.3,2.3-9.6,2.8c-0.8,0.1-1.6,0.2-2.4,0.2l-1.2,0.1c-0.4,0-0.8,0-1.2,0h-2.4c-0.8-0.1-1.6-0.2-2.3-0.3
		c-1.5-0.2-3-0.5-4.4-0.8c-9.9-2.6-18.1-9.2-22.7-18.3c-1.6-3-2.7-6.3-3.2-9.7c-0.2-1.2-0.4-2.5-0.4-3.7c0-0.5-0.1-1-0.1-1.5
		s0-0.9,0-1.2c0-0.7,0-1.3,0.1-1.7C212.1,79.4,212.2,79.2,212.2,79z"/>
	<path class="st4" d="M263.5,82.4c-0.4,0.1-0.8,0.1-1.2,0.1l-3.4,0.1c-2.9,0-7,0.1-11.6,0.1H247v-2.5c0-5.1,0-9.8,0.1-13.1
		c0-1.6,0-3,0.1-4c0-0.5,0-1,0.1-1.5c0.1,0.5,0.1,1,0.1,1.5c0,1,0,2.3,0.1,4c0,3.3,0.1,8,0.1,13.1v2.3l-0.2-0.2
		c4.6,0,8.6,0,11.6,0.1l3.4,0.1C262.6,82.3,263.1,82.3,263.5,82.4z"/>
	<path class="st4" d="M247.4,51.8c0.2,1,0.3,2,0.2,3c0.1,1,0,2-0.2,3c-0.2-1-0.3-2-0.2-3C247,53.7,247.1,52.7,247.4,51.8z"/>
	<path class="st4" d="M263.4,56.5c-0.5,0.8-1.2,1.6-1.9,2.2c-0.6,0.7-1.4,1.4-2.2,1.9c0.5-0.8,1.2-1.6,1.9-2.2
		C261.9,57.7,262.6,57,263.4,56.5z"/>
	<path class="st4" d="M272.9,66.8c-0.7,0.6-1.6,1.2-2.4,1.6c-0.8,0.6-1.7,1-2.6,1.4c0.6-0.8,1.4-1.4,2.3-1.8
		C271,67.4,271.9,67,272.9,66.8z"/>
	<path class="st4" d="M278.4,82.1c-2.7,0.3-5.4,0.3-8.1,0C273,81.8,275.7,81.8,278.4,82.1z"/>
	<path class="st4" d="M222.3,81.5c-2.5,0.3-5.1,0.3-7.6,0C217.2,81.2,219.7,81.2,222.3,81.5z"/>
	<path class="st4" d="M226.2,92.9c-0.9,1-1.8,1.9-2.9,2.6c-1,0.9-2,1.6-3.2,2.3c0.9-1,1.8-1.9,2.9-2.6
		C224,94.3,225.1,93.5,226.2,92.9z"/>
	<path class="st4" d="M236,101.7c-0.6,1.2-1.3,2.3-2,3.4c-0.6,1.2-1.3,2.3-2,3.3c0.4-1.3,0.9-2.5,1.7-3.6
		C234.3,103.7,235.1,102.6,236,101.7z"/>
	<path class="st4" d="M247.4,113c-0.2-1.3-0.3-2.7-0.2-4c-0.1-1.3,0-2.7,0.2-4c0.2,1.3,0.3,2.7,0.2,4
		C247.6,110.3,247.6,111.7,247.4,113z"/>
	<path class="st4" d="M264.8,107.6c-1.2-0.6-2.4-1.3-3.3-2.3c-1.1-0.8-2-1.9-2.7-3c1,0.8,2.1,1.7,3,2.7
		C262.8,105.8,263.8,106.7,264.8,107.6z"/>
	<path class="st4" d="M273,98.8c-1-0.7-1.9-1.5-2.7-2.3c-0.9-0.8-1.7-1.7-2.4-2.7c1,0.7,1.9,1.5,2.7,2.3
		C271.5,96.9,272.3,97.8,273,98.8z"/>
	<path class="st4" d="M225.9,70.6c-0.9-0.6-1.7-1.2-2.4-2c-0.8-0.7-1.5-1.5-2-2.4c0.9,0.6,1.7,1.2,2.4,2
		C224.6,69,225.3,69.8,225.9,70.6z"/>
	<path class="st4" d="M236,60c-0.9-0.5-1.7-1.2-2.3-2c-0.8-0.7-1.4-1.4-2-2.3c0.9,0.5,1.7,1.2,2.3,2C234.8,58.4,235.4,59.1,236,60z"
		/>
</g>
<g id="freepik--Desk--inject-37">
	<path class="st4" d="M468.3,444.3c0,0.1-98.5,0.3-220,0.3s-220-0.1-220-0.3s98.5-0.3,220-0.3S468.3,444.1,468.3,444.3z"/>
</g>
</svg>
