<?xml version="1.0" encoding="utf-8"?>
<!-- Generator: Adobe Illustrator 23.0.0, SVG Export Plug-In . SVG Version: 6.00 Build 0)  -->
<svg version="1.1" id="Layer_1" xmlns="http://www.w3.org/2000/svg" xmlns:xlink="http://www.w3.org/1999/xlink" x="0px" y="0px"
	 width="50.7px" height="50.9px" viewBox="0 0 50.7 50.9" style="enable-background:new 0 0 50.7 50.9;" xml:space="preserve">
<style type="text/css">
	.st0{fill:#FEB232;}
	.st1{fill:#E8EEFE;}
	.st2{fill:#FEC056;}
	.st3{fill:#CAEDFD;}
	.st4{fill:#746BF8;}
	.st5{fill:#817DF8;}
	.st6{fill:#FE7185;}
	.st7{fill:#FE4155;}
	.st8{fill:#D2DBFA;}
	.st9{fill:#756CF8;}
	.st10{fill:#1AA8E7;}
	.st11{fill:#42C2FB;}
	.st12{fill:#E70054;}
	.st13{fill:#FE9000;}
	.st14{fill:#BDC7F6;}
	.st15{fill:#47477F;}
	.st16{fill:#FE7085;}
	.st17{fill:#5E5E9A;}
</style>
<g>
	<path class="st0" d="M48.4,24.8c1.2,1,2,2.3,2.2,3.8c0,0,0,0,0.1,0.1c0,0.1,0,0.2,0,0.3c-0.1,0.3-0.1,0.7,0,1c0,0.1,0,0.3,0,0.4
		c-0.1,0-0.1,0.1-0.1,0.2c-0.5,2-1.6,3.5-3.5,4.3c0,0.1-0.1,0.1-0.1,0.1c-0.9-0.3-1.1-0.8-1.1-2c0.1-0.3,0.4-0.5,0.6-0.8
		c0.2-0.3,0.5-0.3,0.8-0.3c0.8,0,1-0.2,1-1c0-1,0-2.1,0-3.1c0-0.8-0.2-1-1-1c-1,0-2,0-3,0c-0.7,0-1.4,0.1-2.2-0.1
		c0-0.3,0-0.3,0.3-0.3c0.6,0,1.1,0,1.7,0c-0.9-0.6-1.1-1.4-0.7-2.6c0.1-0.1,0.2-0.1,0.3-0.2c1.6-0.3,3.1-0.1,4.5,0.8
		C48.2,24.5,48.3,24.7,48.4,24.8z"/>
	<path class="st1" d="M-0.1,27C0,26.9,0,26.7,0,26.6c0.3-0.6,0.8-0.9,1.5-0.9c0.7,0.1,1.2,0.4,1.4,1.1C3,28.2,1.9,29,0.5,28.6
		c-0.2,0-0.3-0.2-0.4-0.3c-0.2-0.2,0-0.4-0.2-0.6C-0.1,27.5-0.1,27.3-0.1,27z"/>
	<path class="st2" d="M50.7,30c-0.2-0.3-0.2-0.7,0-1C50.7,29.3,50.7,29.7,50.7,30z"/>
	<path class="st3" d="M31.6,0.3C31.6,0.3,31.6,0.3,31.6,0.3c-0.3,0.3-0.6,0.3-0.9,0.1c0,0,0-0.1,0-0.1C31,0.3,31.3,0.3,31.6,0.3z"/>
	<path class="st4" d="M2.8,26.8c-0.6-1.2-1.7-1.3-2.6-0.4c-0.1,0.1-0.1,0.1-0.2,0.1c0.1-3,0.6-6,1.7-8.8c0-0.1,0.1-0.2,0.1-0.3
		c0.3,0,0.2,0.2,0.2,0.4c0.1,0.5,0.3,0.9,0.5,1.4c0.6,1.2,1.6,1.7,2.9,1.4c1.1-0.3,2.1-0.9,3-1.5c2-1.5,3.7-3.4,5.3-5.3
		c1.2-1.5,2.3-3.1,3.2-4.8c0.3-0.6,0.6-1.2,0.7-1.9c0.1-1.1-0.3-2-1.1-2.7c-0.1-0.1-0.5-0.2-0.2-0.5c1.7-0.6,3.4-1,5.2-1.2
		c1.4-0.2,2.8-0.1,4.2-0.1c0.2,0,0.4,0.1,0.6,0.1c0.1,0.3-0.1,0.4-0.2,0.6c-1.1,1.9-1.1,3.9,0,5.8c1.2,2,3,2.9,5.3,2.9
		c0.7,0,1.4-0.2,2.1-0.6c1.9-1,3.1-2.6,3.2-4.8c0-0.1,0-0.3,0.2-0.4c1.5,0.9,2.8,2,4.1,3.1c0,0.2-0.2,0.3-0.4,0.4
		c-1.6,1.1-2.4,2.6-2.4,4.4c-0.1,3.4,2.5,5.9,5.5,6c1.1,0,2.1-0.2,3-0.7c0.1-0.1,0.3-0.2,0.4-0.1c0.5,1.4,0.8,2.8,1,4.2
		c0.1,0.4,0.1,0.8,0.1,1.2c-1.6-1.1-3.3-1.5-5.2-1c-0.1,0.2-0.3,0.2-0.5,0.3c-2.5,1-4,3.4-3.6,6.1c0.3,2.5,2.3,4.5,4.8,4.9
		c0.8,0.1,1.5,0.1,2.3-0.1c0.2-0.1,0.4-0.1,0.7-0.1c0,0,0.1,0,0.1,0c-0.2,1-0.7,1.9-1.2,2.9c-1.1,2.1-2.4,4-4,5.6
		c-0.3,0.1-0.4-0.2-0.5-0.3c-0.5-0.7-1.1-1.4-1.7-2c-1.1-1-2.2-1.8-3.6-2c-0.9-0.2-1.8-0.1-2.7,0c-2.2,0.2-4.4,0.5-6.6,1.1
		c-1.1,0.3-2.2,0.7-3.2,1.3c-0.7,0.5-1.3,1.1-1.6,1.9c-0.4,1-0.2,2,0.3,3c0.7,1.5,1.7,2.8,2.8,4c0.2,0.2,0.4,0.3,0.4,0.6
		c-1.6,0.1-3.2,0-4.7-0.2c-0.8-0.3-1.2-1-1.7-1.5c-0.2-0.2-0.4-0.5-0.6-0.7c-1.1-1-2-2.2-3.1-3.2C15.1,45.3,15,45.2,15,45
		c0-0.2,0.2-0.3,0.4-0.4c0.5-0.3,0.8-0.8,1.1-1.3c0.6-1.3,0.6-2.5-0.1-3.7c-0.1-0.1-0.1-0.2-0.1-0.3c0.1-0.2,0.3-0.3,0.4-0.4
		c0.9-0.5,1.8-1.1,2.8-1.6c0.5-0.3,0.9-0.6,1.1-1.2c0-0.1,0.1-0.2,0.2-0.2c0.9-0.4,1.9-0.7,2.9-0.9c1.8-0.4,3.5-0.7,5.3-0.6
		c1.7,0,3.4,0.1,5,0.6c0.2,0.1,0.3,0.3,0.5,0.5c0.5,0.5,1.2,0.7,1.8,0.3c0.6-0.4,0.8-1.1,0.5-1.7c-0.6-1.2-1.3-2.4-2-3.6
		c-2.3-4.1-4.7-8.1-7-12.2c-1.1-2-2.3-4.1-3.5-6.1c-0.4-0.6-0.7-1.3-1.1-1.9c-0.3-0.5-0.7-0.9-1.4-0.8c-0.9,0-1.5,0.9-1.2,1.8
		c0.1,0.2,0.2,0.4,0.2,0.6c0,0.4-0.2,0.8-0.3,1.2c-1.3,3.5-3.3,6.5-6,9c-0.4,0.4-0.7,0.8-1.2,1c-0.6-0.1-1.1,0.1-1.6,0.4
		c-1.5,0.9-3.1,1.8-4.6,2.7c-0.6,0.3-1,0.7-1,1.5c0,0.1,0,0.2-0.1,0.3c-0.5,0.4-1.1,0.7-1.6,1c-0.1,0.1-0.2,0.1-0.3,0
		C3.4,28.2,3,27.5,2.8,26.8z"/>
	<path class="st5" d="M25.4,50.9c-1-1-1.9-2.1-2.7-3.3c-0.5-0.9-1-1.8-1.1-2.8c-0.1-1.6,0.7-2.7,1.9-3.5c1.6-1,3.4-1.4,5.3-1.8
		c1.5-0.3,3.1-0.5,4.7-0.6c0.9-0.1,1.8-0.2,2.7,0c1.3,0.3,2.4,1.1,3.4,2c0.7,0.7,1.3,1.5,1.9,2.3c0.1,0.1,0.1,0.2,0.3,0.2
		c-0.9,1.1-1.9,1.9-3,2.7c-3.1,2.3-6.5,3.8-10.2,4.5C27.5,50.8,26.4,51,25.4,50.9z"/>
	<path class="st6" d="M6.8,43.5c-1.2-1.1-2.1-2.3-2.9-3.6c-0.5-0.8-1-1.6-1.4-2.5c0-0.8,0.4-1.3,1-1.7c1.1-0.7,2.3-1.4,3.5-2
		c0.7-0.3,1.4-0.4,2.1-0.1c0.2,0.1,0.3,0.3,0.4,0.5c1.1,1.9,2.2,3.8,3.3,5.6c0.1,0.1,0.1,0.2,0.1,0.3c-0.5,0.4-1.1,0.6-1.6,1
		c-1.3,0.8-2.7,1.5-4,2.3C7.1,43.4,7,43.5,6.8,43.5z"/>
	<path class="st7" d="M9.1,33.7c-0.8-0.2-1.5-0.2-2.2,0.2c-1,0.6-2,1.1-3,1.6c-0.8,0.4-1.2,1-1.5,1.8c-1-2-1.7-4.1-2.1-6.3
		c0-0.1,0-0.2,0-0.3c0.2-0.3,0.6-0.4,0.9-0.6c0.7-0.4,1.4-0.8,2.1-1.2c0.2-0.1,0.3-0.2,0.5-0.2c0.6-0.3,1.2-0.7,1.8-1
		c0.2,0,0.3,0.2,0.3,0.4C7,29.8,8,31.4,9,33.1C9.1,33.3,9.2,33.4,9.1,33.7C9.1,33.6,9.1,33.7,9.1,33.7z"/>
	<path class="st8" d="M6.8,43.5c1.5-0.9,3-1.8,4.5-2.6c0.8,0.7,1.5,1.4,2.2,2.2c0.4,0.5,0.9,0.9,1.3,1.3c0.1,0.1,0.3,0.2,0.2,0.5
		c-0.3,0.1-0.7,0.1-1,0.2C12.8,45.3,12.2,46,12,47c0,0.2,0.1,0.5-0.3,0.4c-1.7-1-3.2-2.2-4.5-3.6C7,43.7,6.9,43.6,6.8,43.5z"/>
	<path class="st1" d="M11.7,47.5c0.2,0,0.2-0.2,0.2-0.3c0.1-1.2,0.8-2,2-2.2c0.3,0,0.7-0.1,1-0.1c0,0,0.1,0,0.1,0.1
		c1.7,1.8,3.4,3.6,5.2,5.4c0.1,0.1,0.3,0.2,0.4,0.3c-1.2-0.2-2.3-0.5-3.5-0.8C15.2,49.3,13.4,48.5,11.7,47.5z"/>
	<path class="st9" d="M1.3,30.2c-0.3,0.2-0.6,0.4-0.9,0.5c-0.2-0.8-0.2-1.6-0.3-2.4c0.2-0.1,0.2,0.2,0.3,0.2
		C0.8,29,1.2,29.5,1.3,30.2z"/>
	<path class="st5" d="M16.3,3.8c-0.1,0.2,0.1,0.2,0.2,0.3c1.3,1.2,1.5,2.6,0.8,4.2c-0.8,1.8-2,3.4-3.2,5c-1.2,1.5-2.5,3-3.9,4.3
		c-1.3,1.2-2.7,2.4-4.5,2.9c-1,0.3-1.9,0.2-2.6-0.4c-0.5-0.4-0.8-1.1-1-1.7c-0.1-0.3-0.2-0.7-0.3-1C2,17,2.3,16.5,2.5,16
		c2.9-5.7,7.3-9.7,13.2-12C15.9,4,16.1,3.9,16.3,3.8z"/>
	<path class="st10" d="M33.7,11.4c-2.1,1.1-5.1,0.6-6.8-1.2C25.8,9,25.3,7.6,25.3,6c0-1.3,0.5-2.4,1.2-3.4c0.8-0.9,1.7-1.6,2.8-2
		c0.1,0,0.2-0.1,0.4-0.1c0.1,0.2,0.1,0.4,0,0.5c-0.2,0.8,0,1.6,0.7,2.1c0.1,0.1,0.2,0.2,0.2,0.3c-0.2,0.3-0.6,0.2-0.8,0.3
		c-1,0.3-1.7,0.9-2.3,1.8c-0.2,0.4-0.3,0.7,0,1c1.1,1.5,2.5,2.2,4.3,2c0.2,0,0.4-0.1,0.6,0c0.2,0.1,0.2,0.4,0.2,0.6
		c-0.2,0.9,0.2,1.4,0.9,1.8C33.5,11.2,33.7,11.2,33.7,11.4z"/>
	<path class="st11" d="M33.7,11.4c-0.2-0.1-0.5-0.2-0.7-0.4c-0.6-0.4-0.9-1-0.7-1.7c0-0.2,0.1-0.4-0.1-0.5c0-0.1,0.1-0.1,0.1-0.2
		c1-0.4,1.9-0.9,2.6-1.8c0.4-0.5,0.4-0.8,0-1.3c-0.6-0.7-1.3-1.4-2.3-1.6c-0.5-0.2-1-0.3-1.6-0.2c-0.2,0-0.4,0-0.5-0.1
		c-0.5-0.4-0.9-0.8-1-1.5c-0.1-0.5,0.1-1,0.1-1.4c0.3-0.2,0.7-0.2,1.1-0.2c0.3,0,0.6,0,0.9,0c2.9,0.3,5.1,2.5,5.4,5.5
		c0,0.1,0,0.3,0.1,0.4C36.9,6.6,37,7,36.9,7.3C36.5,9.2,35.4,10.6,33.7,11.4z"/>
	<path class="st12" d="M47.3,19.4c-1.1,0.7-2.3,1-3.6,0.9c-2.6-0.1-5.1-2.3-5.5-4.9c-0.3-2.6,0.7-4.6,2.9-6c0.4-0.2,0.7-0.4,1.2-0.5
		c0.1,0.2,0.1,0.2,0,0.4c-0.2,0.4-0.3,0.8-0.3,1.2c0,0.4,0.2,0.7,0.4,1c0.1,0.2,0.3,0.3,0.3,0.6c-0.1,0.2-0.3,0.1-0.5,0.2
		c-0.8,0.2-1.3,0.7-1.4,1.5c-0.1,0.8,0.1,1.4,0.8,1.9c0.7,0.5,1.4,1,2,1.5c0.3,0.3,0.5,0.3,0.8,0c0.3-0.3,0.6-0.5,0.9-0.7
		c0.2-0.1,0.3-0.3,0.5-0.2c0.2,0.1,0.3,0.2,0.3,0.4c0.2,1,0.8,1.5,1.9,1.6c0.1,0,0.4,0,0.4,0.2C48.1,18.8,47.7,19,47.3,19.4z"/>
	<path class="st7" d="M42.7,12c0,0,0-0.1-0.1-0.1c-0.8-0.9-1-1.9-0.3-2.9c0,0,0-0.1,0-0.1c2.6-0.8,5.3,0.2,6.7,2.5
		c1.4,2.2,1.1,5.1-0.6,7c-0.2-0.2-0.5-0.1-0.8-0.1c-0.9-0.2-1.4-0.8-1.6-1.6c0-0.2,0-0.3-0.2-0.4c0,0,0-0.1,0-0.1
		c0.2-0.2,0.4-0.3,0.7-0.5c0.9-0.6,1-1.6,0.6-2.4c-0.4-0.8-1.4-1.3-2.2-0.9C44.1,12.7,43.4,12.4,42.7,12
		C42.7,12.1,42.7,12.1,42.7,12z"/>
	<path class="st13" d="M46.9,34.9c-3.1,1.3-7-0.5-7.8-4.2c-0.6-3,1.1-5.9,3.9-6.8c0.1,0,0.2,0,0.2,0c0.1,0.4-0.2,0.7-0.1,1.1
		c0.1,0.7,0.4,1,1.1,1.6c-0.6,0-1.2,0-1.8,0c-0.2,0-0.4-0.1-0.5,0.1c-0.4,0.5-0.5,1-0.5,1.6c0,0.9,0,1.7,0,2.6
		c0,0.8,0.3,1.1,1.1,1.1c0.6,0,1.2,0,1.7,0c0.4-0.1,0.7,0.1,0.9,0.5c0.2,0.3,0.3,0.5,0.6,0.7c0.1,0.1,0.1,0.2,0.1,0.3
		C45.8,34.1,46.2,34.6,46.9,34.9z"/>
	<path class="st1" d="M45.8,33.1c-0.4,0-0.5-0.4-0.7-0.6c-0.2-0.3-0.3-0.5-0.7-0.4c-0.6,0-0.8-0.3-0.8-0.9c0-0.8,0-1.7,0-2.5
		c0-0.3,0-0.7,0-1c0-0.5,0.2-0.8,0.7-0.9c1,0,2.1,0,3.1,0c0.6,0,0.9,0.3,0.9,1c0,1.2,0,2.3,0,3.5c0,0.6-0.3,0.9-0.8,0.9
		c-0.8-0.1-1.2,0.2-1.5,0.9C46,32.9,45.9,33,45.8,33.1z"/>
	<path class="st14" d="M44.2,26.6c-0.4,0.3-0.5,0.6-0.5,1.1c0,1.1,0,2.2,0,3.3c0,0.5,0.2,0.9,0.7,1c-0.8,0.1-1.6,0.1-2.4,0
		c-0.5,0-0.7-0.4-0.7-0.8c0-1.2,0-2.5,0-3.7c0-0.4,0.2-0.7,0.6-0.9C42.7,26.6,43.5,26.6,44.2,26.6z"/>
	<path class="st8" d="M1.3,30.2c-0.3-0.6-0.7-1.1-0.9-1.7c0.4,0,0.9,0.2,1.3,0c0.8-0.3,1.1-0.8,1.1-1.7c0.4,0.6,0.8,1.2,1.1,1.9
		C3,29.3,2.2,29.8,1.3,30.2z"/>
	<path class="st8" d="M34,35.1c-1.7-0.4-3.5-0.6-5.2-0.6c-2.8,0-5.5,0.5-8.1,1.5c-0.7-1.8-1.9-3.4-2.8-5.1c-0.3-0.6-0.7-1-0.9-1.6
		c0-0.3,0.2-0.4,0.3-0.5c1.4-1.1,2.7-2.2,3.9-3.5c1.4-1.5,2.6-3.1,3.7-4.9c0.1-0.2,0.2-0.4,0.3-0.5c0.2,0,0.2,0.2,0.3,0.3
		c2.7,4.6,5.3,9.2,7.9,13.7C33.7,34.3,34.1,34.6,34,35.1z"/>
	<path class="st14" d="M25.3,19.9c0,0.4-0.3,0.7-0.5,1.1c-1.4,2.2-3.1,4.2-5,6c-0.8,0.7-1.6,1.3-2.4,2c-0.1,0.1-0.2,0.2-0.2,0.3
		c-0.1,0-0.2-0.1-0.3-0.2c-1-1.6-1.9-3.3-2.8-4.9c-0.3-0.5-0.6-0.8-0.9-1.2c3.5-2.9,6-6.4,7.4-10.8c0-0.1,0.1-0.2,0.1-0.3
		c0.2,0,0.3,0.2,0.3,0.3c1.4,2.5,2.8,4.9,4.3,7.4C25.2,19.6,25.3,19.7,25.3,19.9C25.3,19.8,25.3,19.9,25.3,19.9z"/>
	<path class="st1" d="M34,35.1c-0.6-1.1-1.2-2.2-1.9-3.3c-1.2-2.1-2.4-4.1-3.6-6.2c-1-1.8-2.1-3.6-3.1-5.3c-0.1-0.1-0.1-0.3-0.2-0.4
		c0,0,0,0,0,0c-0.1-0.7,0.2-1.2,0.7-1.5c0.5-0.4,1.2-0.6,1.8-0.2c3,5.1,5.9,10.3,8.9,15.4c0.5,0.9,0.4,1.8-0.4,2.2
		c-0.8,0.5-1.6,0.2-2.2-0.6C34.1,35.2,34,35.1,34,35.1z"/>
	<path class="st7" d="M17,29c0.1,0.1,0.1,0.1,0.2,0.2c1.1,1.9,2.1,3.8,3.2,5.6c0.2,0.4,0.3,0.7,0.3,1.2c-0.2,0.6-0.5,1-1.1,1.3
		c-1.1,0.6-2.2,1.3-3.4,1.9c-0.5,0.5-1.2,0.8-1.8,1.2c-0.4,0.1-0.8,0.1-1.2-0.1c-0.2-0.1-0.3-0.1-0.4-0.3c-0.8-1-1.3-2.2-2-3.3
		c-0.6-1-1.1-2.1-1.8-3c0,0,0,0,0,0c0.1-0.2,0.1-0.4,0.3-0.6c0.4-0.6,0.9-0.6,1.5-0.5c0.7,0.5,0.8,0.5,1.6,0.1
		c0.7-0.4,1.4-0.9,2.2-1.3c0.7-0.4,0.8-0.5,0.7-1.3C15.6,29.2,16,28.9,17,29z"/>
	<path class="st12" d="M10.9,32.7c-0.1,0-0.1,0.1-0.2,0.1c-0.9-0.1-1,0-1.4,0.8c0,0.1-0.1,0.1-0.2,0.1c-0.5-1-1.1-1.9-1.6-2.9
		c-0.6-1-1.2-2-1.8-3.1c-0.1-0.9,0.3-1.5,1.1-1.9c1.6-0.9,3.2-1.8,4.8-2.7c0.5-0.3,1-0.4,1.5-0.2c0.4,0.2,0.7,0.5,0.9,0.9
		c1,1.8,2,3.5,3,5.3c0,0-0.1,0.1-0.1,0.1c-0.9-0.1-1.2,0.4-1.5,1.1c-0.6-0.2-1,0-1.5,0.3c-0.6,0.4-1.3,0.8-2,1.1
		C11.4,31.9,11,32.1,10.9,32.7z"/>
	<path class="st8" d="M27.7,18.2c-0.5-0.1-1-0.1-1.5,0.1c-0.6,0.3-0.9,0.9-1,1.6c-0.7-1.2-1.4-2.3-2-3.5c-0.9-1.5-1.8-3.1-2.7-4.6
		c-0.2-0.4-0.4-0.9-0.3-1.4c0.2-0.6,0.7-1.1,1.3-1.1c0.7-0.1,1.2,0.2,1.6,0.9c1.3,2.2,2.5,4.4,3.8,6.6
		C27.2,17.2,27.5,17.7,27.7,18.2z"/>
	<path class="st14" d="M12.9,40c0.5,0.4,1,0.4,1.6,0.3c0.2,0.2,0.1,0.4,0.1,0.6c0,1,0.5,1.8,1.4,2.2c0.2,0.1,0.4,0.1,0.5,0.3
		c-0.3,0.7-0.9,1.1-1.5,1.6c0,0-0.1-0.1-0.1-0.1c-1.1-1.1-2.1-2.3-3.2-3.4c-0.2-0.2-0.3-0.4-0.4-0.6C11.8,40.6,12.3,40.2,12.9,40z"
		/>
	<path class="st8" d="M16.5,43.4c-1.3-0.3-2.2-1.3-2.1-2.7c0-0.1,0-0.3,0-0.4c0.6-0.3,1.2-0.7,1.8-1C17.2,40.6,17.3,42,16.5,43.4z"
		/>
	<path class="st14" d="M32.3,8.7c0,0-0.1,0.1-0.1,0.1c-1.3,0.2-2.6,0-3.7-0.8c-0.5-0.4-0.9-0.8-1.3-1.3c-0.2-0.4-0.2-0.7,0-1
		c0.6-0.9,1.4-1.5,2.4-1.9c0.1,0.2-0.1,0.3-0.1,0.5c-0.4,0.7-0.3,1.4,0.2,2c0.4,0.6,1.1,0.8,1.8,0.7c0.1,0,0.3-0.1,0.4,0
		C31.8,7.5,31.9,8.1,32.3,8.7z"/>
	<path class="st15" d="M31.9,6.9c-1,0.3-1.8,0-2.3-0.7c-0.6-0.7-0.5-1.5,0.1-2.5c0.3-0.1,0.6-0.1,0.8-0.2c0.8,0,1.5,0,2.2,0.3
		c0.7,0.5,0.6,1.2,0.4,1.9C33,6.3,32.7,6.9,31.9,6.9z"/>
	<path class="st1" d="M31.9,6.9c1.3-0.7,1.6-1.8,0.8-3.1c1.1,0.3,1.9,1.1,2.5,2c0.2,0.3,0.1,0.6-0.1,0.8c-0.7,1-1.6,1.7-2.8,2
		C31.7,8.2,31.6,7.6,31.9,6.9z"/>
	<path class="st14" d="M45.8,16.1C45.8,16.1,45.8,16.2,45.8,16.1c-0.5,0.4-0.9,0.8-1.3,1.2c-0.3,0.3-0.6,0.3-0.8,0
		c-0.6-0.6-1.2-1.1-1.9-1.5c-0.9-0.6-1.3-1.4-1-2.2c0.3-1,0.9-1.5,2-1.5c0,0,0,0,0,0c0.1,0.1,0.1,0.3,0.1,0.4
		c-0.1,0.6,0.1,1,0.6,1.2c0.8,0.5,1.5,1,1.9,1.9C45.5,15.8,45.7,15.9,45.8,16.1z"/>
	<path class="st1" d="M45.8,16.1c-0.3-0.1-0.5-0.3-0.7-0.6c-0.3-0.6-0.8-1.1-1.4-1.4c-0.9-0.4-1.3-1-1-2c0.9,0.3,1.7,0.3,2.7,0
		c0.8-0.2,1.6,0.4,1.9,1.2c0.3,0.8,0,1.7-0.7,2.3C46.4,15.8,46.1,15.9,45.8,16.1z"/>
	<path class="st16" d="M10.9,32.7c-0.1-0.4,0.1-0.7,0.5-0.9c1-0.5,1.9-1.1,2.9-1.6c0.4-0.2,0.8-0.3,1.1,0.1c0.3,0.6,0.2,0.8-0.3,1.1
		c-1,0.6-1.9,1.2-2.9,1.7C11.6,33.4,11.2,33.2,10.9,32.7z"/>
	<path class="st16" d="M14.4,37.9c-0.4,0-0.6-0.2-0.7-0.5c-0.1-0.3-0.1-0.7,0.3-0.9c0.5-0.3,1-0.6,1.5-0.9c0.5-0.3,1-0.6,1.5-0.9
		c0.5-0.3,0.9-0.2,1.2,0.2c0.2,0.3,0.1,0.8-0.4,1c-1,0.6-2,1.2-3,1.7C14.7,37.9,14.5,38,14.4,37.9z"/>
	<path class="st16" d="M12.8,35.6c-0.2,0-0.4-0.1-0.5-0.5c-0.1-0.3,0-0.7,0.3-0.9c1.1-0.6,2.1-1.2,3.2-1.9c0.4-0.2,0.7,0,0.9,0.3
		c0.2,0.3,0.2,0.7-0.2,0.9c-0.6,0.4-1.3,0.8-2,1.2c-0.4,0.2-0.8,0.4-1.2,0.7C13.3,35.5,13.1,35.6,12.8,35.6z"/>
	<path class="st16" d="M12.8,25.9c0,0.3-0.2,0.5-0.4,0.7c-1,0.6-2,1.2-3.1,1.8c-0.4,0.2-0.8,0.1-1-0.3c-0.2-0.3-0.1-0.7,0.3-1
		c1-0.6,2.1-1.2,3.1-1.8C12.2,25,12.8,25.4,12.8,25.9z"/>
	<path class="st16" d="M10.3,30.9c-0.4,0-0.7-0.2-0.8-0.6c-0.1-0.4,0.1-0.6,0.4-0.8c0.6-0.4,1.2-0.7,1.9-1.1
		c0.4-0.2,0.8-0.4,1.2-0.7c0.4-0.2,0.8-0.2,1.1,0.2c0.2,0.4,0.1,0.8-0.3,1c-1,0.6-2,1.2-3.1,1.8C10.5,30.8,10.4,30.8,10.3,30.9z"/>
	<path class="st17" d="M32.5,4.8c0,0.4-0.3,0.7-0.7,0.7c-0.4,0-0.7-0.4-0.7-0.7c0-0.4,0.3-0.7,0.7-0.7C32.1,4,32.5,4.4,32.5,4.8z"/>
</g>
</svg>
