<?xml version="1.0" encoding="utf-8"?>
<!-- Generator: Adobe Illustrator 23.0.0, SVG Export Plug-In . SVG Version: 6.00 Build 0)  -->
<svg version="1.1" id="Layer_1" xmlns="http://www.w3.org/2000/svg" xmlns:xlink="http://www.w3.org/1999/xlink" x="0px" y="0px"
	 width="300px" height="300px" viewBox="0 0 300 300" style="enable-background:new 0 0 300 300;" xml:space="preserve">
<style type="text/css">
	.st0{fill-rule:evenodd;clip-rule:evenodd;fill:#010101;}
	.st1{fill-rule:evenodd;clip-rule:evenodd;fill:#FFFFFF;}
	.st2{fill:#020202;}
</style>
<g>
	<path class="st0" d="M285.5,21.7c-0.8,0.3-1.2,1.3-0.9,2.1c0.3,0.8,1.3,1.2,2.1,0.9c0.8-0.3,1.2-1.3,0.9-2.1
		C287.2,21.8,286.3,21.4,285.5,21.7L285.5,21.7z M294.5,25.4L186,68.2c-1.2,0.5-2.6-0.1-3-1.3L177,51.5c-0.5-1.2,0.1-2.6,1.3-3
		L286.7,5.7c1.2-0.5,2.6,0.1,3,1.3l6.1,15.4C296.3,23.5,295.7,24.9,294.5,25.4z"/>
	
		<rect x="182.3" y="47.3" transform="matrix(0.9301 -0.3673 0.3673 0.9301 -7.0807 70.7949)" class="st1" width="0.4" height="13.4"/>
	
		<rect x="192.8" y="43.2" transform="matrix(0.9301 -0.3673 0.3673 0.9301 -4.8216 74.3714)" class="st1" width="0.4" height="13.4"/>
	<rect x="203.3" y="39" transform="matrix(0.9301 -0.3673 0.3673 0.9301 -2.5645 77.9329)" class="st1" width="0.4" height="13.4"/>
	
		<rect x="213.8" y="34.9" transform="matrix(0.9301 -0.3673 0.3673 0.9301 -0.3051 81.5085)" class="st1" width="0.4" height="13.4"/>
	
		<rect x="224.3" y="30.7" transform="matrix(0.9301 -0.3673 0.3673 0.9301 1.9538 85.0799)" class="st1" width="0.4" height="13.4"/>
	
		<rect x="234.8" y="26.6" transform="matrix(0.9301 -0.3673 0.3673 0.9301 4.2111 88.6445)" class="st1" width="0.4" height="13.4"/>
	
		<rect x="245.3" y="22.4" transform="matrix(0.9301 -0.3673 0.3673 0.9301 6.4684 92.2098)" class="st1" width="0.4" height="13.4"/>
	<rect x="255.8" y="18.3" transform="matrix(0.9301 -0.3673 0.3673 0.9301 8.7271 95.781)" class="st1" width="0.4" height="13.4"/>
	
		<rect x="266.4" y="14.1" transform="matrix(0.9301 -0.3673 0.3673 0.9301 10.9848 99.3484)" class="st1" width="0.4" height="13.4"/>
	
		<rect x="276.9" y="10" transform="matrix(0.9301 -0.3673 0.3673 0.9301 13.2444 102.9218)" class="st1" width="0.4" height="13.4"/>
	
		<rect x="287.4" y="5.8" transform="matrix(0.9301 -0.3673 0.3673 0.9301 15.5039 106.4947)" class="st1" width="0.4" height="13.4"/>
	
		<rect x="182.1" y="47.1" transform="matrix(0.9301 -0.3673 0.3673 0.9301 -5.8164 70.4929)" class="st1" width="0.4" height="6.8"/>
	
		<rect x="183.2" y="46.7" transform="matrix(0.9301 -0.3673 0.3673 0.9301 -5.5895 70.8606)" class="st1" width="0.4" height="6.8"/>
	
		<rect x="184.2" y="46.3" transform="matrix(0.9301 -0.3673 0.3673 0.9301 -5.3639 71.2146)" class="st1" width="0.4" height="6.8"/>
	
		<rect x="185.3" y="45.9" transform="matrix(0.9301 -0.3673 0.3673 0.9301 -5.1368 71.5825)" class="st1" width="0.4" height="6.8"/>
	
		<rect x="186.7" y="45.4" transform="matrix(0.9301 -0.3673 0.3673 0.9301 -5.2047 72.1098)" class="st1" width="0.4" height="8.6"/>
	
		<rect x="187.4" y="45.1" transform="matrix(0.9301 -0.3673 0.3673 0.9301 -4.6871 72.2804)" class="st1" width="0.4" height="6.8"/>
	
		<rect x="188.4" y="44.6" transform="matrix(0.9301 -0.3672 0.3672 0.9301 -4.4623 72.6285)" class="st1" width="0.4" height="6.8"/>
	
		<rect x="189.5" y="44.2" transform="matrix(0.9301 -0.3673 0.3673 0.9301 -4.2356 72.9928)" class="st1" width="0.4" height="6.8"/>
	
		<rect x="190.5" y="43.8" transform="matrix(0.9301 -0.3673 0.3673 0.9301 -4.0099 73.3481)" class="st1" width="0.4" height="6.8"/>
	
		<rect x="275.7" y="10.2" transform="matrix(0.9301 -0.3673 0.3673 0.9301 14.2809 102.2581)" class="st1" width="0.4" height="6.8"/>
	
		<rect x="276.7" y="9.8" transform="matrix(0.9301 -0.3673 0.3673 0.9301 14.5086 102.6203)" class="st1" width="0.4" height="6.8"/>
	<rect x="277.8" y="9.4" transform="matrix(0.9301 -0.3673 0.3673 0.9301 14.7402 102.994)" class="st1" width="0.4" height="6.8"/>
	<rect x="278.8" y="9" transform="matrix(0.9301 -0.3672 0.3672 0.9301 14.9572 103.3254)" class="st1" width="0.4" height="6.8"/>
	
		<rect x="279.9" y="8.5" transform="matrix(0.9301 -0.3672 0.3672 0.9301 15.1789 103.6704)" class="st1" width="0.4" height="6.8"/>
	<rect x="281.2" y="8.1" transform="matrix(0.9301 -0.3673 0.3673 0.9301 15.1252 104.248)" class="st1" width="0.4" height="8.6"/>
	<rect x="282" y="7.7" transform="matrix(0.9301 -0.3672 0.3672 0.9301 15.6343 104.3953)" class="st1" width="0.4" height="6.8"/>
	<rect x="283" y="7.3" transform="matrix(0.9301 -0.3672 0.3672 0.9301 15.8603 104.7529)" class="st1" width="0.4" height="6.8"/>
	
		<rect x="284.1" y="6.9" transform="matrix(0.9301 -0.3673 0.3673 0.9301 16.0898 105.1201)" class="st1" width="0.4" height="6.8"/>
	
		<rect x="285.1" y="6.5" transform="matrix(0.9301 -0.3673 0.3673 0.9301 16.3152 105.4757)" class="st1" width="0.4" height="6.8"/>
	
		<rect x="266.2" y="13.9" transform="matrix(0.9301 -0.3673 0.3673 0.9301 12.2502 99.0509)" class="st1" width="0.4" height="6.8"/>
	
		<rect x="267.2" y="13.5" transform="matrix(0.9301 -0.3672 0.3672 0.9301 12.4724 99.3963)" class="st1" width="0.4" height="6.8"/>
	<rect x="268.3" y="13.1" transform="matrix(0.9301 -0.3673 0.3673 0.9301 12.7016 99.764)" class="st1" width="0.4" height="6.8"/>
	
		<rect x="269.3" y="12.7" transform="matrix(0.9301 -0.3672 0.3672 0.9301 12.9254 100.1145)" class="st1" width="0.4" height="6.8"/>
	
		<rect x="270.7" y="12.2" transform="matrix(0.9301 -0.3673 0.3673 0.9301 12.8642 100.6713)" class="st1" width="0.4" height="8.6"/>
	
		<rect x="271.4" y="11.9" transform="matrix(0.9301 -0.3673 0.3673 0.9301 13.3834 100.8477)" class="st1" width="0.4" height="6.8"/>
	
		<rect x="272.5" y="11.5" transform="matrix(0.9301 -0.3672 0.3672 0.9301 13.6023 101.1838)" class="st1" width="0.4" height="6.8"/>
	<rect x="273.6" y="11" transform="matrix(0.9301 -0.3672 0.3672 0.9301 13.8271 101.5377)" class="st1" width="0.4" height="6.8"/>
	
		<rect x="274.6" y="10.6" transform="matrix(0.9301 -0.3673 0.3673 0.9301 14.0566 101.9056)" class="st1" width="0.4" height="6.8"/>
	<rect x="255.7" y="18.1" transform="matrix(0.9301 -0.3673 0.3673 0.9301 9.9972 95.4991)" class="st1" width="0.4" height="6.8"/>
	
		<rect x="256.7" y="17.7" transform="matrix(0.9301 -0.3673 0.3673 0.9301 10.2167 95.8347)" class="st1" width="0.4" height="6.8"/>
	<rect x="257.8" y="17.3" transform="matrix(0.9301 -0.3673 0.3673 0.9301 10.4459 96.203)" class="st1" width="0.4" height="6.8"/>
	
		<rect x="258.8" y="16.8" transform="matrix(0.9301 -0.3672 0.3672 0.9301 10.6664 96.5423)" class="st1" width="0.4" height="6.8"/>
	
		<rect x="260.2" y="16.4" transform="matrix(0.9301 -0.3673 0.3673 0.9301 10.6028 97.0921)" class="st1" width="0.4" height="8.6"/>
	<polygon class="st1" points="260.1,16.2 262.6,22.5 262.2,22.6 259.7,16.3 	"/>
	<rect x="262" y="15.6" transform="matrix(0.9301 -0.3673 0.3673 0.9301 11.3513 97.637)" class="st1" width="0.4" height="6.8"/>
	<rect x="263" y="15.2" transform="matrix(0.9301 -0.3673 0.3673 0.9301 11.5725 97.9794)" class="st1" width="0.4" height="6.8"/>
	<rect x="264.1" y="14.8" transform="matrix(0.9301 -0.3673 0.3673 0.9301 11.802 98.3479)" class="st1" width="0.4" height="6.8"/>
	<rect x="245.2" y="22.2" transform="matrix(0.9301 -0.3673 0.3673 0.9301 7.7323 91.9076)" class="st1" width="0.4" height="6.8"/>
	<rect x="246.2" y="21.8" transform="matrix(0.9301 -0.3673 0.3673 0.9301 7.9583 92.2652)" class="st1" width="0.4" height="6.8"/>
	<rect x="247.3" y="21.4" transform="matrix(0.9301 -0.3673 0.3673 0.9301 8.1851 92.6255)" class="st1" width="0.4" height="6.8"/>
	<rect x="248.3" y="21" transform="matrix(0.9301 -0.3672 0.3672 0.9301 8.4066 92.9671)" class="st1" width="0.4" height="6.8"/>
	<rect x="249.7" y="20.5" transform="matrix(0.9301 -0.3673 0.3673 0.9301 8.3498 93.5417)" class="st1" width="0.4" height="8.6"/>
	<rect x="250.4" y="20.2" transform="matrix(0.9301 -0.3672 0.3672 0.9301 8.86 93.687)" class="st1" width="0.4" height="6.8"/>
	<rect x="251.5" y="19.8" transform="matrix(0.9301 -0.3673 0.3673 0.9301 9.0914 94.0634)" class="st1" width="0.4" height="6.8"/>
	<rect x="252.5" y="19.3" transform="matrix(0.9301 -0.3673 0.3673 0.9301 9.3145 94.411)" class="st1" width="0.4" height="6.8"/>
	<rect x="253.6" y="18.9" transform="matrix(0.9301 -0.3673 0.3673 0.9301 9.5431 94.7773)" class="st1" width="0.4" height="6.8"/>
	<rect x="234.7" y="26.4" transform="matrix(0.9301 -0.3673 0.3673 0.9301 5.4742 88.3384)" class="st1" width="0.4" height="6.8"/>
	<rect x="235.7" y="26" transform="matrix(0.9301 -0.3672 0.3672 0.9301 5.6968 88.6827)" class="st1" width="0.4" height="6.8"/>
	<rect x="236.8" y="25.6" transform="matrix(0.9301 -0.3672 0.3672 0.9301 5.9249 89.0487)" class="st1" width="0.4" height="6.8"/>
	<rect x="237.8" y="25.1" transform="matrix(0.9301 -0.3673 0.3673 0.9301 6.1534 89.4159)" class="st1" width="0.4" height="6.8"/>
	<rect x="239.2" y="24.7" transform="matrix(0.9301 -0.3673 0.3673 0.9301 6.0869 89.9559)" class="st1" width="0.4" height="8.6"/>
	<rect x="239.9" y="24.3" transform="matrix(0.9301 -0.3673 0.3673 0.9301 6.6071 90.1375)" class="st1" width="0.4" height="6.8"/>
	<rect x="241" y="23.9" transform="matrix(0.9301 -0.3673 0.3673 0.9301 6.8349 90.5014)" class="st1" width="0.4" height="6.8"/>
	<rect x="242" y="23.5" transform="matrix(0.9301 -0.3672 0.3672 0.9301 7.0541 90.8337)" class="st1" width="0.4" height="6.8"/>
	<rect x="243.1" y="23.1" transform="matrix(0.9301 -0.3673 0.3673 0.9301 7.2819 91.1979)" class="st1" width="0.4" height="6.8"/>
	<rect x="224.2" y="30.5" transform="matrix(0.9301 -0.3673 0.3673 0.9301 3.2169 84.7729)" class="st1" width="0.4" height="6.8"/>
	<rect x="225.2" y="30.1" transform="matrix(0.9301 -0.3673 0.3673 0.9301 3.444 85.1354)" class="st1" width="0.4" height="6.8"/>
	<rect x="226.3" y="29.7" transform="matrix(0.9301 -0.3673 0.3673 0.9301 3.6708 85.4962)" class="st1" width="0.4" height="6.8"/>
	<rect x="227.3" y="29.3" transform="matrix(0.9301 -0.3673 0.3673 0.9301 3.8944 85.8436)" class="st1" width="0.4" height="6.8"/>
	<rect x="228.7" y="28.8" transform="matrix(0.9301 -0.3673 0.3673 0.9301 3.8274 86.3821)" class="st1" width="0.4" height="8.6"/>
	<rect x="229.4" y="28.5" transform="matrix(0.9301 -0.3673 0.3673 0.9301 4.3489 86.5689)" class="st1" width="0.4" height="6.8"/>
	<rect x="230.5" y="28" transform="matrix(0.9301 -0.3672 0.3672 0.9301 4.57 86.9071)" class="st1" width="0.4" height="6.8"/>
	<rect x="231.5" y="27.6" transform="matrix(0.9301 -0.3673 0.3673 0.9301 4.7982 87.2735)" class="st1" width="0.4" height="6.8"/>
	<rect x="232.6" y="27.2" transform="matrix(0.9301 -0.3673 0.3673 0.9301 5.025 87.6342)" class="st1" width="0.4" height="6.8"/>
	<rect x="213.7" y="34.7" transform="matrix(0.9301 -0.3672 0.3672 0.9301 0.9574 81.1973)" class="st1" width="0.4" height="6.8"/>
	<rect x="214.7" y="34.3" transform="matrix(0.9301 -0.3673 0.3673 0.9301 1.1848 81.5624)" class="st1" width="0.4" height="6.8"/>
	<rect x="215.8" y="33.9" transform="matrix(0.9301 -0.3673 0.3673 0.9301 1.4109 81.9202)" class="st1" width="0.4" height="6.8"/>
	<rect x="216.8" y="33.4" transform="matrix(0.9301 -0.3673 0.3673 0.9301 1.638 82.2835)" class="st1" width="0.4" height="6.8"/>
	<rect x="218.2" y="33" transform="matrix(0.9301 -0.3673 0.3673 0.9301 1.5706 82.8188)" class="st1" width="0.4" height="8.6"/>
	<rect x="218.9" y="32.6" transform="matrix(0.9301 -0.3673 0.3673 0.9301 2.0894 82.9957)" class="st1" width="0.4" height="6.8"/>
	<rect x="220" y="32.2" transform="matrix(0.9301 -0.3673 0.3673 0.9301 2.3152 83.3526)" class="st1" width="0.4" height="6.8"/>
	<rect x="221" y="31.8" transform="matrix(0.9301 -0.3673 0.3673 0.9301 2.5415 83.7114)" class="st1" width="0.4" height="6.8"/>
	<rect x="222.1" y="31.4" transform="matrix(0.9301 -0.3673 0.3673 0.9301 2.7675 84.0691)" class="st1" width="0.4" height="6.8"/>
	
		<rect x="203.1" y="38.8" transform="matrix(0.9301 -0.3673 0.3673 0.9301 -1.2989 77.6386)" class="st1" width="0.4" height="6.8"/>
	
		<rect x="204.2" y="38.4" transform="matrix(0.9301 -0.3673 0.3673 0.9301 -1.0717 78.0033)" class="st1" width="0.4" height="6.8"/>
	<rect x="205.2" y="38" transform="matrix(0.9301 -0.3673 0.3673 0.9301 -0.8478 78.349)" class="st1" width="0.4" height="6.8"/>
	
		<rect x="206.3" y="37.6" transform="matrix(0.9301 -0.3673 0.3673 0.9301 -0.6221 78.7053)" class="st1" width="0.4" height="6.8"/>
	
		<rect x="207.7" y="37.1" transform="matrix(0.9301 -0.3673 0.3673 0.9301 -0.6873 79.2526)" class="st1" width="0.4" height="8.6"/>
	
		<rect x="208.4" y="36.8" transform="matrix(0.9301 -0.3672 0.3672 0.9301 -0.1721 79.4104)" class="st1" width="0.4" height="6.8"/>
	
		<rect x="209.5" y="36.3" transform="matrix(0.9301 -0.3672 0.3672 0.9301 5.382086e-02 79.7681)" class="st1" width="0.4" height="6.8"/>
	<rect x="210.5" y="35.9" transform="matrix(0.9301 -0.3672 0.3672 0.9301 0.2795 80.1243)" class="st1" width="0.4" height="6.8"/>
	<rect x="211.6" y="35.5" transform="matrix(0.9301 -0.3673 0.3673 0.9301 0.5072 80.4906)" class="st1" width="0.4" height="6.8"/>
	<rect x="192.6" y="43" transform="matrix(0.9301 -0.3672 0.3672 0.9301 -3.559 74.0571)" class="st1" width="0.4" height="6.8"/>
	
		<rect x="193.7" y="42.6" transform="matrix(0.9301 -0.3673 0.3673 0.9301 -3.3323 74.4204)" class="st1" width="0.4" height="6.8"/>
	
		<rect x="194.7" y="42.2" transform="matrix(0.9301 -0.3673 0.3673 0.9301 -3.1065 74.7774)" class="st1" width="0.4" height="6.8"/>
	
		<rect x="195.8" y="41.7" transform="matrix(0.9301 -0.3673 0.3673 0.9301 -2.8791 75.1443)" class="st1" width="0.4" height="6.8"/>
	
		<rect x="197.2" y="41.3" transform="matrix(0.9301 -0.3673 0.3673 0.9301 -2.9455 75.6845)" class="st1" width="0.4" height="8.6"/>
	
		<rect x="197.9" y="40.9" transform="matrix(0.9301 -0.3672 0.3672 0.9301 -2.4301 75.8415)" class="st1" width="0.4" height="6.8"/>
	<rect x="198.9" y="40.5" transform="matrix(0.9301 -0.3672 0.3672 0.9301 -2.2042 76.199)" class="st1" width="0.4" height="6.8"/>
	<rect x="200" y="40.1" transform="matrix(0.9301 -0.3672 0.3672 0.9301 -1.9784 76.5553)" class="st1" width="0.4" height="6.8"/>
	<rect x="201" y="39.7" transform="matrix(0.9301 -0.3673 0.3673 0.9301 -1.7511 76.9212)" class="st1" width="0.4" height="6.8"/>
	<polygon class="st1" points="186.5,64.3 186.8,64.2 185.8,61.6 185.5,61.7 185,62.2 185.2,62.5 185.6,62 185.6,62 	"/>
	<path class="st1" d="M197.9,59.8l-0.1-0.3l-1.2,0.5l0,0l0.1-0.3c0.3-0.7,0.5-1.3,0.3-1.7c-0.1-0.4-0.5-0.7-1.1-0.4
		c-0.3,0.1-0.5,0.3-0.6,0.5l0.2,0.2c0.1-0.1,0.2-0.3,0.5-0.4c0.4-0.2,0.6,0,0.7,0.3c0.2,0.4,0,0.8-0.4,1.7l-0.2,0.4l0.1,0.2
		L197.9,59.8z"/>
	<path class="st1" d="M207.1,56c0.2,0,0.4,0,0.7-0.1c0.6-0.2,0.8-0.7,0.6-1.1c-0.1-0.4-0.5-0.5-0.8-0.4l0,0c0.3-0.2,0.3-0.5,0.2-0.8
		c-0.1-0.3-0.5-0.5-1-0.3c-0.3,0.1-0.5,0.3-0.6,0.5l0.2,0.2c0.1-0.1,0.2-0.3,0.4-0.4c0.3-0.1,0.5,0,0.6,0.2c0.1,0.3-0.1,0.6-0.4,0.7
		l-0.2,0.1l0.1,0.3l0.2-0.1c0.3-0.1,0.7-0.1,0.9,0.3c0.1,0.2,0.1,0.6-0.4,0.7c-0.2,0.1-0.5,0.1-0.6,0.1L207.1,56z"/>
	<path class="st1" d="M216.5,51.3L216.5,51.3l0.3-1.1c0-0.1,0-0.3,0.1-0.5l0,0c0,0.1,0.1,0.3,0.1,0.4l0.3,0.9L216.5,51.3L216.5,51.3
		z M218,51.8l-0.3-0.7l0.4-0.1l-0.1-0.3l-0.4,0.1l-0.6-1.6l-0.4,0.1l-0.5,2.1l0.1,0.2l1.2-0.5l0.3,0.7L218,51.8z"/>
	<path class="st1" d="M228.2,44.9l-1.2,0.5l0.3,1.3c0.1,0,0.2-0.1,0.4-0.2c0.5-0.2,0.8-0.1,1,0.3c0.1,0.3-0.1,0.7-0.4,0.8
		c-0.2,0.1-0.5,0.1-0.6,0.1l0,0.3c0.2,0,0.4,0,0.7-0.1c0.6-0.2,0.8-0.8,0.6-1.3c-0.1-0.3-0.4-0.5-0.6-0.5c-0.2,0-0.4,0-0.6,0.1
		c-0.1,0-0.1,0.1-0.2,0.1l-0.2-0.7l1-0.4L228.2,44.9z"/>
	<path class="st1" d="M238.8,43.4c-0.4,0.1-0.7-0.1-0.9-0.5c0-0.1,0-0.1,0-0.2c0-0.2,0.2-0.4,0.4-0.5c0.3-0.1,0.6,0,0.8,0.4
		C239.2,42.9,239.1,43.3,238.8,43.4L238.8,43.4z M238.4,40.7c-0.1,0-0.1,0.1-0.2,0.1c-0.3,0.2-0.5,0.4-0.7,0.7
		c-0.2,0.4-0.2,0.8,0,1.3c0.3,0.7,0.8,1,1.3,0.7c0.5-0.2,0.7-0.8,0.5-1.3c-0.2-0.5-0.6-0.7-1.1-0.5c-0.3,0.1-0.5,0.3-0.5,0.5l0,0
		c-0.1-0.5,0-1,0.5-1.3c0.1-0.1,0.2-0.1,0.3-0.1L238.4,40.7z"/>
	<polygon class="st1" points="247.8,37.1 248,37.4 249.2,36.9 249.2,36.9 249,39.6 249.4,39.5 249.6,36.7 249.5,36.4 	"/>
	<path class="st1" d="M259.2,32.8c0.3-0.1,0.5,0,0.6,0.2c0.1,0.2,0,0.5-0.2,0.6c-0.3,0-0.6,0-0.7-0.3
		C258.8,33.2,258.9,32.9,259.2,32.8L259.2,32.8z M260.1,35c-0.3,0.1-0.6,0-0.7-0.3c-0.1-0.2,0-0.5,0.3-0.7c0.4,0,0.7,0,0.8,0.3
		C260.5,34.6,260.4,34.9,260.1,35L260.1,35z M259.3,34c-0.3,0.3-0.4,0.6-0.2,0.9c0.1,0.4,0.6,0.6,1.1,0.4c0.5-0.2,0.8-0.6,0.6-1.1
		c-0.1-0.3-0.4-0.5-0.8-0.5l0,0c0.3-0.3,0.3-0.6,0.2-0.8c-0.1-0.3-0.5-0.5-1-0.3c-0.5,0.2-0.7,0.6-0.5,1
		C258.7,33.8,258.9,34,259.3,34L259.3,34z"/>
	<path class="st1" d="M269.9,28.6c0.4-0.1,0.7,0.1,0.8,0.6c0,0.1,0,0.1,0,0.1c0,0.2-0.2,0.4-0.4,0.5c-0.3,0.1-0.6,0-0.7-0.4
		C269.5,29.1,269.7,28.7,269.9,28.6L269.9,28.6z M270.3,31.3c0.1,0,0.2-0.1,0.3-0.1c0.3-0.1,0.5-0.4,0.6-0.6c0.2-0.3,0.2-0.8,0-1.4
		c-0.3-0.7-0.8-1-1.3-0.8c-0.5,0.2-0.7,0.8-0.5,1.3c0.2,0.4,0.6,0.7,1.1,0.5c0.3-0.1,0.4-0.3,0.5-0.5l0,0c0.1,0.3,0,0.6-0.1,0.8
		c-0.1,0.2-0.2,0.4-0.4,0.5c-0.1,0.1-0.2,0.1-0.3,0.1L270.3,31.3z"/>
	<polygon class="st1" points="280,27.3 280.4,27.2 279.4,24.6 279.1,24.8 278.6,25.3 278.8,25.5 279.2,25.1 279.2,25.1 	"/>
	<polygon class="st1" points="290.9,23.1 291.2,22.9 290.2,20.4 289.9,20.5 289.4,21 289.6,21.2 290,20.8 290,20.8 	"/>
	<polygon class="st1" points="292.1,22.6 292.5,22.4 291.5,19.9 291.2,20 290.7,20.5 290.9,20.7 291.2,20.3 291.2,20.3 	"/>
	<path class="st1" d="M281,24.3c0.4-0.1,0.7,0.2,0.9,0.8c0.3,0.7,0.3,1.1-0.1,1.3c-0.3,0.1-0.7-0.2-0.9-0.8
		C280.6,24.8,280.7,24.4,281,24.3L281,24.3z M280.9,24c-0.5,0.2-0.7,0.8-0.4,1.7c0.3,0.8,0.9,1.2,1.4,1c0.6-0.2,0.7-0.8,0.4-1.7
		C281.9,24.1,281.4,23.8,280.9,24z"/>
</g>
<g>
	<path class="st0" d="M139.1,288.8L139.1,288.8c-0.4,0.6-0.2,1.5,0.4,1.9l4.5,3c0.6,0.4,1.5,0.2,1.9-0.4l0,0
		c0.4-0.6,0.2-1.5-0.4-1.9l-4.5-3C140.4,288,139.6,288.2,139.1,288.8z"/>
	<path class="st0" d="M15.7,205.1l-2,3.1c-0.8,1.2-0.4,2.7,0.7,3.5l5.9,3.9l4.7-7.2l-6-3.9C17.9,203.7,16.4,204,15.7,205.1z"/>
	<polygon class="st0" points="25.6,206.8 18.9,216.9 26.5,222.1 26.9,223.1 106.7,276.5 140.9,292.3 143.1,289 115,263.9 
		34.3,211.7 33.3,211.8 	"/>
	<path class="st0" d="M33.5,210.7l-7.9,12.1c-0.3,0.5-0.2,1.1,0.3,1.4l4.1,2.7c0.5,0.3,1.1,0.2,1.4-0.3l7.9-12.1
		c0.3-0.5,0.2-1.1-0.3-1.4l-4.1-2.7C34.5,210.1,33.8,210.2,33.5,210.7z"/>
	<path class="st0" d="M29.4,204.5l-0.5,0.8c-0.3,0.5-0.2,1.1,0.3,1.4l33,21.7c0.5,0.3,1.1,0.2,1.4-0.3l0.5-0.8L29.4,204.5z"/>
	<polygon class="st0" points="98.4,253.2 90.3,265.5 106.7,276.5 123.4,284.2 128.7,276.1 115,263.9 	"/>
</g>
<g>
	<path class="st2" d="M282.6,244c-0.9-1.7-1.9-3.4-3.1-4.9c-3.8-5.1-7.8-10-12.3-15.8c10.8-2.4,21.4,1,30.8-4.5
		c-8.9-4.3-18.6-2.7-29.8-4c4.4-5.9,8.1-10.2,11.3-15c2.1-3.2,7.7-7.2,4-10.1c-3.4-2.6-6.4,3.8-9.3,6.5c-3.4,3.2-5.4,7.8-10.2,10.4
		c-0.4-2.4-0.7-4-0.8-5.6c-0.4-5.2-0.6-10.3-1-15.5c-0.2-2.1-1.4-3.7-3.7-3.7c-2.3,0-3.6,1.9-3.7,3.8c-0.2,4.2,0.2,8.4,0.3,12.6
		c0.1,3.6,1.5,7.3-1.1,11.7c-4.2-4.8-7.7-9-11.4-12.9c-2.3-2.4-4.7-7.2-8.4-4.4c-4.2,3.2,0.6,6.1,2.5,8.8c1.7,2.4,3.8,4.4,5.6,6.7
		c1.6,2.2,4.3,3.7,4.7,7.6c-5.6,0.3-10.7,0.5-15.8,0.9c-3.4,0.3-8.5-0.5-8.3,4.3c0.2,5.1,5.4,3.2,8.6,3.2c5.8,0,11.7-0.4,19.4-0.8
		c-5.9,7.7-10.6,13.4-14.9,19.4c-2.2,3-7.5,6.5-3.8,9.6c4.7,4,6.9-2.4,9.4-5.2c4.6-5.2,8.7-10.8,13-16.2c1.7,3.7,1.7,6.8,1.7,9.9
		c0,4.5-0.1,9.1,0.2,13.6c0.2,3.1,0.1,7.9,3.6,8c4.6,0.2,2.9-4.8,3.3-7.6c0.5-3.8,0.3-7.8,0.6-11.6c0.3-3-1-6.3,1.8-10
		c1.1,1.6,1.8,2.8,2.6,3.7c3.4,3.5,6.8,6.9,10.3,10.2c1,0.9,2.3,1.1,3.6,0.3C283.8,246.4,283.2,245.1,282.6,244z"/>
</g>
<g>
	<path class="st2" d="M68.6,128.1c-1.7-1.7-3.7-2.8-5.8-3.8c-2.1-0.9-4.2-2-6.4-2.7c-2.4-0.7-3.1-2.1-3.1-4.4
		c0.1-5.5-0.2-10.9-0.3-16.3c0-1.9-0.4-3.9-2.5-4.6c-2-0.7-3.6,0.3-5.1,1.7c-0.6,0.6-1.4,1.3-1.9,2c-3.1,3.9-6.5,7.6-9.2,11.8
		c-2,3.2-4.3,3.6-7.4,2.7c-2.8-0.8-5.9-0.8-8.7-0.5c-5,0.6-6.4,4.4-3.3,8.3c1.8,2.1,4,3.9,6.6,5.1c2.1,0.9,2.6,2,1.7,4.3
		c-1.8,4.6-3.4,9.4-5,14c-0.5,1.6-1.2,3.4,0.4,4.7s3.4,0.4,4.8-0.3c2.3-1.2,4.6-2.5,6.9-3.9c1.9-1.2,3.7-2.3,5.9-3.8
		c1.5,2.3,2.7,4.3,3.9,6.3c1.3,2.1,2.8,4.1,4.7,5.7c1.3,1.1,2.5,2.5,4.4,1.8c1.8-0.7,2.2-2.4,2.4-4.2c0.3-3.6,0.7-7.2,0.9-10.6
		c0.2-4.5,0.1-4.5,4.8-5.1c3.3-0.4,6.5-0.8,9.6-2C70.7,132.9,71.1,130.6,68.6,128.1z M54.8,133.6c-3.7,0.5-3.8,0.5-4.1,4.2
		c-0.4,4.5-0.8,9-1.4,13.5c-0.1,0.7,0.1,1.6-1.2,2.1c-2-1.5-3.5-3.6-5.1-5.7c-1.5-2-2.8-4.1-4.2-6.1c-2-2.7-2.3-2.8-5.2-0.9
		c-4.1,2.7-8,5.8-13.6,8.2c2-5.7,3.6-10.5,5.4-15.5c0.2-0.6,0.5-1.2,0.7-1.7c1.8-4.2,1.8-4.2-2.2-6.4c-2.4-1.4-5-2.6-6.7-4.8
		c-1.7-2-1.2-3.2,1.4-3.8c3.2-0.7,6.2-0.1,9.3,0.3c3.6,0.5,6.2-0.4,8.4-3.5c2.7-3.8,5.8-7.3,8.7-10.9c1.2-1.4,2.2-3,4.1-3.6
		c1.2,1.5,0.8,3.1,0.8,4.5c0.1,4.6,0.2,9.4,0,14c-0.1,2.7,0.9,4.3,3.4,5.4c2.8,1.3,5.6,2.6,8.3,4.1c1.8,0.9,3.7,1.7,5.1,4
		C62.8,132.7,58.8,132.9,54.8,133.6z"/>
</g>
<g>
	<path d="M183.2,208.2c-0.2-0.3-0.5-0.5-0.7-0.8c-2.1-3-4.1-5.9-6.2-8.9c-0.3-0.5-0.6-1.1-0.7-1.7c-2-7.1-3.8-14.3-5.8-21.4
		c-1.5-5.4-3.2-10.7-4.9-16c-0.1-0.3-0.2-0.5-0.4-0.9c-4.6,0.3-9.1,0.8-13.7,1.5c-0.1,0.6-0.1,1.1-0.2,1.6c-0.2,0.9-0.4,1.8-0.6,2.6
		c-0.3,0.9-0.9,1.4-1.9,1.6c-1.1-0.2-1.6-1.1-1.9-2.1c-0.3-1-0.5-2-0.7-3.1c-4.2,0.3-8.3,1.1-12.6,1.5c-0.2,0.5-0.3,0.9-0.4,1.4
		c-1.3,5.5-2.5,11.1-3.8,16.6c-0.9,4.1-1.9,8.2-2.8,12.3c-0.5,2.6-1.4,5-2.2,7.5c-1.1,3.4-2.2,6.8-3.3,10.2
		c-0.1,0.2-0.2,0.5-0.3,0.6c-0.6,0.2-0.8,0-0.9-0.4c-0.1-0.3-0.1-0.6-0.1-0.9c-0.3-4.6-0.6-9.1-0.9-13.7c-0.1-0.9,0-1.8,0.3-2.7
		c2.3-7.7,3.5-15.5,5.2-23.3c2-8.8,4-17.6,6-26.4c2.2-9.5,4.6-19,6.9-28.5c0.2-0.8,0.4-1.5,0.6-2.5c-1.5-3-1.9-6.1-0.6-9.4
		c1.2-3.3,3.7-5.4,6.8-6.6c-0.7-3.9-2-7.6-2-11.3c0.4-0.9,1-1.1,1.6-1.3c2.9-0.9,4.5-1,6.1-0.7c0.6,0.4,0.6,1,0.5,1.6
		c-0.1,1.5-0.3,3-0.5,4.4c-0.2,2-0.3,4-0.4,6c4,0.8,7.2,2.6,9.1,6.2c2,3.6,1.3,7.2-0.3,10.9c0.1,0.5,0.2,1.1,0.4,1.7
		c2.1,7.3,4.1,14.6,6.3,21.9c1.9,6.3,4,12.4,5.8,18.7c2.9,9.8,5.6,19.7,8.3,29.6c1.1,4,2.2,8.1,3.3,12.1c1,3.6,1.5,7.3,1.8,11
		c0,0.3,0,0.6,0,0.9C183.4,208.2,183.3,208.2,183.2,208.2z M143.8,116.9c-1.7,7.1-3.2,14-5,20.8c-1.8,6.9-3.4,13.8-5,20.9
		c2.1,0,3.9-0.4,5.8-0.7c1.9-0.3,3.8-0.4,5.6-0.9c0.1-1,0.2-1.8,0.4-2.6c0.1-0.6,0.3-1.1,0.6-1.6c0.9-1.4,2.3-1.4,3.3-0.1
		c0.5,0.6,0.7,1.4,1,2.2c0.2,0.5,0.2,1,0.4,1.5c5.1-0.4,11.3-1.3,12.6-1.8c-4.1-12.5-8.7-24.7-12.2-37.4c-0.1-0.2-0.2-0.4-0.4-0.6
		C148.5,117.2,146.3,117.3,143.8,116.9z M138.2,113.7c-0.2,0.7-0.4,1.5-0.6,2.2c-2.4,10-4.9,19.9-7.2,29.9
		c-2.7,11.5-5.4,23-7.7,34.5c-0.6,3.3-1.4,6.5-2.2,9.8c-0.2,1.1-0.3,2.2-0.3,3.3c1.4,0.2,2.6,1,3.9,0.8c0.1-0.2,0.2-0.2,0.2-0.3
		c0.7-3.1,1.4-6.1,2-9.2c2.1-9.7,4.2-19.4,6.7-29c1.7-6.5,3.2-13,4.8-19.5c1.1-4.5,2.1-9,3.1-13.5c0.5-2.1,1-4.1,1.4-6.1
		C141,115.7,139.7,114.7,138.2,113.7z M152,116.2c1,3.2,1.9,6.4,3,9.7c3.2,9.5,6.5,18.9,9.5,28.4c2.5,7.6,4.8,15.2,7,22.9
		c1.8,6,3.3,12.1,4.9,18.1c0.1,0.3,0.3,0.7,0.4,1c1.1-0.5,2.1-1,3.1-1.5c-0.1-0.4-0.1-0.6-0.2-0.9c-0.8-2.9-1.6-5.8-2.4-8.8
		c-3.5-12.3-7-24.6-10.5-36.9c-2.2-7.5-4.7-15-6.9-22.5c-0.8-2.5-1.3-5-2-7.5c-0.4-1.6-0.9-3.2-1.3-4.9
		C155,114.3,153.6,115.2,152,116.2z M137.5,106.7c0.1,3.2,1.8,5.5,4,7.5c0.5,0.4,1.2,0.7,1.8,0.9c3.3,1.1,6.4,0.6,9.4-1
		c1.6-0.8,2.7-2,3.3-3.7c0.4-1.2,0.9-2.3,1.1-3.5c0.6-2.5-0.3-6.4-3.1-8.1c-1.1-0.7-2.1-1.1-3.3-1.5c-2.1-0.7-4.2-0.6-6.2,0.3
		c-1.3,0.6-2.6,1.4-3.9,2.1c-0.8,0.5-1.4,1.3-1.9,2.1C138,103.3,137.5,104.9,137.5,106.7z M120.4,205.9c1.1-3.4,2.3-6.7,3.4-10.2
		c-1.6-0.3-2.9-0.8-4.5-0.6C119.4,198.7,120,202.3,120.4,205.9z M163.7,155.9c-4.4,0.5-8.7,1-13,1.7c0,0.4,0.1,0.7,0.1,1.1
		c4.5-0.5,8.8-1,13.3-1.4C164,156.7,163.9,156.4,163.7,155.9z M181.9,204c-0.8-2.7-0.9-5.3-1.6-8c-1,0.5-1.9,0.8-2.7,1.2
		C178,198.4,180.6,202.5,181.9,204z M145.2,158.3c-3.7,0.4-7.2,0.9-10.8,1.3c-0.3,0-0.6,0.1-1,0.1c-0.1,0.4-0.2,0.8-0.3,1.3
		c4.1-0.6,8.1-1.1,12.1-1.7C145.2,159,145.2,158.7,145.2,158.3z M148.2,84.2c-2,0.2-3.8,0.5-5.6,1.1c0,0.3-0.1,0.5,0,0.7
		c0,0.1,0.2,0.3,0.2,0.3c1.8-0.2,3.6-0.4,5.5-0.6C148.2,85.1,148.2,84.7,148.2,84.2z M143,88.7c1.8-0.3,3.4-0.5,5-0.7
		c-0.1-0.4-0.1-0.6-0.1-0.8c-1.8,0.1-3.5,0.2-5.2,0.2C142.8,87.9,142.9,88.2,143,88.7z M144.4,95.9c1.1-0.3,2-0.5,3-0.8
		c0-0.4,0-0.7,0-1.1c-1.1,0-2.1,0-3.2,0.3C144.3,94.9,144.3,95.4,144.4,95.9z M147.7,89.6c-1.5,0-2.9,0-4.4,0
		c0.1,0.5,0.2,0.8,0.3,1.1c1.4-0.1,2.8-0.3,4.2-0.4C147.7,90,147.7,89.8,147.7,89.6z M144,93.2c1.2-0.2,2.3-0.4,3.5-0.6
		c0-0.4,0-0.7,0-1c-1.3,0.2-2.5,0.4-3.7,0.6C143.9,92.5,143.9,92.8,144,93.2z"/>
	<path d="M173.6,206.9c0,0.2,0.1,0.4,0.1,0.6c-0.2,0.1-0.3,0.2-0.3,0.2c-1.9,0.1-3.6,0.8-5.2,1.9c-0.6,0.4-1.3,0.9-1.2,1.9
		c0.4,0.8,1.1,1.2,1.9,1.6c2.1,1,4.3,1.5,6.6,1.9c4.2,0.7,8.5,0.5,12.7,0.2c3.5-0.3,7-0.9,10.3-2.1c1.5-0.5,2.9-1.3,4.3-2.1
		c0.7-0.4,1.4-1,1.6-1.9c-0.8-0.8-1.9-0.9-3-1c-2.1-0.3-4.2-0.5-6.4-0.2c-0.8,0.1-1.7,0.1-2.5,0.1c-0.3,0-0.6-0.2-0.9-0.3
		c0-0.8,0.6-0.9,1-0.9c2.1-0.1,4.1-0.2,6.2-0.2c1.3,0,2.6,0.3,3.9,0.5c0.6,0.1,1.2,0.3,1.8,0.6c0.8,0.4,0.8,0.5,1.1,1.7
		c-0.9,1.5-2,2.8-3.6,3.6c-2.6,1.3-5.4,2.1-8.3,2.7c-5.1,1-10.2,1.3-15.4,1c-3-0.2-6-0.7-8.8-1.9c-1-0.4-1.9-0.9-2.7-1.6
		c-1.2-1-1.4-2.4-0.3-3.5c1.9-1.9,4.1-2.9,6.8-2.9C173.3,206.7,173.4,206.8,173.6,206.9z"/>
	<path d="M208,206.5c1.1,0.4,1.2,1.1,1.3,1.8c0.1,1.1-0.2,2.2-0.9,3.2c-1.2,1.8-2.9,3.2-4.9,4.1c-0.3,0.2-0.7,0.3-1.1,0.3
		c-0.3,0-0.5-0.2-0.9-0.5c0.3-0.3,0.5-0.6,0.8-0.7c1.7-0.5,3-1.6,4.2-2.8c1.3-1.3,2.1-2.8,1.3-4.7
		C207.8,207.1,207.9,206.8,208,206.5z"/>
	<path d="M190.4,212.6c0.2-0.7,0.6-0.7,1.1-0.7c1.8-0.2,3.5-0.7,5.2-1.4c0.8-0.3,1.6-0.8,2.5-1.3c0.2,0.4,0.3,0.7,0.5,1
		c-2.4,1.6-4.9,2.4-7.6,2.8C191.2,213.2,191.1,213.2,190.4,212.6z"/>
	<path d="M210.1,210c0.3,0,0.5,0,0.6,0c0.5,0.6,0.2,1.2-0.1,1.8c-0.9,1.6-2,2.9-3.7,3.8c-0.2-0.2-0.4-0.3-0.7-0.6
		C207.9,213.5,209.7,212.2,210.1,210z"/>
	<path d="M162.3,209.1c0.2,0.1,0.4,0.1,0.6,0.2c-0.3,2.1,1,3.4,2.4,4.6c0,0.2-0.1,0.4-0.1,0.5c0,0.1-0.2,0.1-0.4,0.2
		c-1.6-0.4-2.3-1.8-2.9-3.2C161.7,210.7,161.5,209.8,162.3,209.1z"/>
	<path d="M122,190.2c-0.1-0.3-0.2-0.6-0.2-0.7c1.1-5,2.2-9.9,3.4-14.9c0.2,0,0.4-0.1,0.6-0.1c0.1,0.2,0.3,0.3,0.2,0.4
		c0,0.7-0.1,1.5-0.2,2.2c-0.8,3.6-1.6,7.2-2.5,10.9c-0.1,0.6-0.4,1.2-0.6,1.8C122.7,189.9,122.4,190,122,190.2z"/>
	<path d="M124.5,187.2c0.2,0.4,0.4,0.7,0.4,1c0,1.2-0.8,3.7-1.5,4.5c-0.2-0.3-0.5-0.5-0.5-0.7c0.4-1.5,0.8-3,1.2-4.5
		C124.2,187.4,124.2,187.4,124.5,187.2z"/>
	<path d="M158.7,133.2c-0.7-1.4-1.1-2.9-1.6-4.3c-0.1-0.2,0.1-0.4,0.1-0.6c0.2,0,0.4-0.1,0.5,0c0.1,0,0.3,0.1,0.6,0.2
		c-0.7-2.8-1.5-5.5-2.6-8.2c0.2-0.2,0.4-0.3,0.7-0.5c0.3,0.4,0.5,0.6,0.7,1c0.4,1,0.8,2,1.1,3c1.8,5.9,3.6,11.9,5.4,17.9
		c0.2,0.8,0.6,1.6,0.4,2.6c-0.2,0-0.5,0.1-0.8,0.1c-1.1-3.8-2.2-7.5-3.4-11.2C159.4,133.2,159.1,133.2,158.7,133.2z"/>
	<path d="M173.3,177.1c0.4,0,0.6,0,0.8,0c0.7,1.3,4.2,13,4.4,14.8c0,0.3-0.1,0.6-0.1,1.1c-0.4-0.2-0.7-0.3-0.8-0.5
		c-0.2-0.4-0.3-0.8-0.4-1.2c-1.2-4.4-2.5-8.8-3.7-13.2C173.3,177.8,173.3,177.5,173.3,177.1z"/>
	<path d="M147.3,110.3c-1.9-0.1-3-0.7-3.7-2.1c-0.8-1.8-0.8-3.6,0.4-5.3c1.1-1.6,2.5-2,4.3-1.4c1.8,0.6,2.9,2,2.8,3.8
		c-0.1,1.7-0.8,3.2-2.2,4.2C148.4,110.1,147.7,110.2,147.3,110.3z M146.1,108.9c2,0.3,3.4-0.8,3.8-3c0.3-1.8-0.6-2.8-2.6-3.2
		C144.5,104.1,144,106.7,146.1,108.9z"/>
	<path d="M141.6,109.6c0,0.8,0.6,1.2,1,1.7c0.2,0.3,0.3,0.6,0.5,0.9c-0.7,0.5-1.1,0.2-1.5-0.2c-1.3-1.6-2.3-3.3-2.5-5.4
		c-0.1-0.9,0-1.9,0-2.9c0.3-0.1,0.5-0.2,0.7-0.3c0.1,0.2,0.3,0.3,0.3,0.5c0,0.5,0,1.1,0,1.6C140.2,107.1,140.6,108.5,141.6,109.6
		L141.6,109.6z"/>
	<path d="M145.5,113.6c0.3-0.1,0.6-0.4,0.8-0.3c2.2,0.4,3.9-0.3,5.5-1.7c0.1-0.1,0.3-0.1,0.4-0.2c0.1,0.1,0.3,0.1,0.4,0.2
		c0.1,0.1,0.1,0.3,0.2,0.5c-1.5,1.4-3.1,2.4-5.3,2.4C146.4,114.5,146.2,114.4,145.5,113.6z"/>
	<path d="M153.1,103c-0.1,0.5,0.2,1.2-0.7,1.6c-0.2-0.2-0.4-0.4-0.5-0.6c-0.2-1.5-0.8-2.8-1.8-3.9c-0.1-0.1-0.1-0.4-0.2-0.6
		c0.2-0.1,0.4-0.2,0.6-0.3c1,0.5,1.5,1.4,1.9,2.3C152.7,101.9,152.9,102.4,153.1,103L153.1,103z"/>
	<path d="M153.2,103c0.2-0.9-0.1-1.8-0.6-2.5c-0.3-0.5-0.3-0.5-0.2-1.3c1-0.1,1.3,0.8,1.6,1.5c0.3,0.8,0.9,1.6,0,2.5
		C153.7,103.1,153.4,103,153.2,103L153.2,103z"/>
	<path d="M141.7,109.7c-0.3-0.8-0.6-1.7-0.9-2.6c0.4-0.2,0.6-0.3,0.8-0.3c1.4,2.3,1.7,2.7,1.7,3.5
		C142.4,110.8,142.2,109.7,141.7,109.7L141.7,109.7z"/>
	<path d="M151,111.1c-0.7,1.1-1.7,1.5-2.7,1.8c-0.4,0.1-1,0.1-1.1-0.7c1-0.5,2-1,3.1-1.6C150.5,110.7,150.7,110.9,151,111.1z"/>
	<path d="M147.3,107.6c-0.9-1.1-1-2.6-0.2-3.6c0.7,0.4,0.6,1.1,0.7,1.6C147.7,106.2,147.9,106.9,147.3,107.6z"/>
</g>
<g>
	<path d="M127.6,16.6c-0.2,1-0.5,2.1-0.8,3.2c-0.2,0.7-0.5,1.3-1,1.7c-0.1,0-0.1,0.1-0.1,0.2c-2.1,3.2-4.7,5.9-7.2,8.7
		c-5.2,6-10.5,11.9-15.6,18c-2.7,3.2-5.4,6.4-8.1,9.7c-1.7,2-3.4,4.1-5.1,6.1c-0.5,0.6-0.9,1.1-1.4,1.7c-2.7,3-5.5,6-8.2,9
		c-2,2.2-4,4.5-6,6.7c-0.3,0.4-0.7,0.7-1.2,0.8c-1-0.4-1.7-1.1-2.3-1.9c-6.3-7.4-12.2-15.1-18-22.9c-2.5-3.2-4.8-6.6-6.9-10
		c-1.3-2.1-2.8-4-4.2-6c-0.2-0.4-0.5-0.7-0.6-1.2c-0.2-1.6-0.4-3.2-0.6-4.7c-0.1-1.1,0.2-1.4,1.1-1.8c0.4-0.2,0.8-0.3,1.2-0.4
		c1.1-0.3,2.3-0.5,3.3-0.9c3.4-1.2,6.9-1.9,10.4-2.7c10.9-2.7,21.9-5.1,32.9-7.2c4.7-0.9,9.3-2.1,14-3c7.1-1.4,14.3-2.7,21.5-4
		c0.4-0.1,0.8-0.1,1.2-0.1C126.7,15.4,127.3,15.6,127.6,16.6z M82.2,25.4c0.6,1.1,1.2,2,1.9,2.8c0.4,0.4,0.6,0.8,0.6,1.4
		c-0.1,0.1-0.3,0.2-0.5,0.4c-1.3-1.3-2.3-2.9-3.7-4.2c-0.2,0-0.4,0.1-0.7,0.1c0.3,0.4,0.6,0.7,0.8,1c-0.3,0.3-0.5,0.4-0.7,0.6
		c-0.5-0.5-0.9-1-1.4-1.4c-0.3,0.1-0.6,0.2-1,0.3c0.5,0.6,1,1.1,1.4,1.7c0.4,0.6,1.1,1,1.2,1.8c-0.2,0.1-0.4,0.2-0.7,0.3
		c-1.1-1.2-2.1-2.4-3.1-3.6c-0.5,0.1-0.9,0.2-1.4,0.3c0.3,0.4,0.5,0.8,0.8,1.2c-0.3,0.2-0.5,0.3-0.7,0.4c-0.5-0.5-1-0.9-1.5-1.3
		c-0.3,0.1-0.6,0.2-1,0.3c0.2,0.2,0.3,0.4,0.4,0.6c0.8,0.8,1.6,1.6,2.3,2.4c0.2,0.3,0.6,0.5,0.5,1c-0.2,0.1-0.4,0.2-0.6,0.3
		c-1.5-1.2-2.6-2.7-4-4.1c-0.5,0.1-0.9,0.2-1.3,0.3c0.2,0.4,0.3,0.8,0.5,1.2c-0.3,0.1-0.5,0.2-0.7,0.3c-0.4-0.4-0.7-0.8-1.1-1.2
		c-0.3,0.1-0.6,0.1-1,0.2c1,1.5,2.3,2.8,3.1,4.3c-0.1,0.2-0.2,0.3-0.3,0.3c-0.1,0.1-0.3,0.1-0.5,0.2c-0.3-0.3-0.5-0.6-0.8-0.9
		c-0.7-0.9-1.3-1.7-2-2.6c-0.3-0.4-0.6-0.7-0.9-1.1c-0.5,0.1-0.9,0.1-1.2,0.4c0.2,0.3,0.3,0.6,0.5,0.9c-0.1,0.2-0.2,0.4-0.3,0.5
		c-0.9,0-0.9-1-1.6-1.3c-0.3,0.1-0.7,0.2-1.2,0.3c0.5,0.8,1,1.5,1.5,2.1c0.5,0.6,1,1.3,1.5,1.9c0.3,0.3,0.4,0.7,0,1
		c-0.7-0.1-0.7-0.1-1.1-0.6c-0.8-1-1.5-2-2.2-3.1c-0.3-0.4-0.5-0.8-0.8-1.2c-0.6,0-1.1,0.1-1.6,0.4c0.2,0.6,0.9,0.9,0.8,1.5
		c-0.5,0.4-0.7,0.4-1,0c-0.4-0.4-0.7-0.9-1.1-1.4c-0.4,0.1-0.9,0.1-1.3,0.4c0.2,0.3,0.4,0.5,0.6,0.8c0.8,1,1.7,2.1,2.5,3.1
		c0.2,0.3,0.5,0.6,0.2,1.1c-0.4,0.3-0.7,0.1-1-0.2c-0.2-0.2-0.4-0.5-0.6-0.8c-1-1.3-2-2.5-3-3.8c-0.6,0.1-1,0.3-1.5,0.4
		c0.2,0.8,1.1,1.2,1,2.1c-0.2,0.1-0.4,0.1-0.6,0.2c-0.6-0.7-1.1-1.4-1.6-2c-1,0.1-1,0.1-1.5,0.5c0.2,0.2,0.3,0.5,0.5,0.7
		c0.9,1.2,1.8,2.4,2.7,3.7c0.2,0.3,0.3,0.6,0.5,1c-0.3,0.2-0.5,0.3-0.8,0.4c-0.3-0.4-0.6-0.7-0.8-1c-1-1.3-1.9-2.6-2.9-4
		c-0.2-0.2-0.4-0.4-0.6-0.6c-0.6,0.2-1.1,0.3-1.6,0.5c0.4,1.1,1.4,1.7,1.6,2.9c-0.2,0.1-0.4,0.3-0.7,0.4c-0.7-1-1.4-2-2.1-2.9
		c-0.6,0.2-1,0.3-1.7,0.6c0.2,0.2,0.4,0.4,0.5,0.6c1,1.4,2,2.8,3,4.1c0.2,0.3,0.4,0.7,0.6,1.1c-0.3,0.2-0.5,0.3-0.8,0.4
		c-0.3-0.3-0.6-0.6-0.8-0.9c-0.7-1-1.4-2-2-2.9c-0.5-0.7-1-1.3-1.5-2c-1.2,0.3-2.4,0.3-3.4,0.9c0.1,0.2,0.1,0.5,0.2,0.6
		c0.4,0.8,0.9,1.6,1.4,2.3c2.2,3.3,4.5,6.5,6.7,9.8c2,2.9,3.9,5.8,6.1,8.6c3.5,4.5,6.8,9.1,10.2,13.7c1.9,2.6,3.8,5.2,5.7,7.8
		c0.2,0.2,0.4,0.4,0.6,0.7c0.4-0.5,0.8-1,1.2-1.5c1.1-1.3,2.3-2.5,3.4-3.8c3.3-3.8,6.5-7.7,9.7-11.5c1.6-1.9,3.3-3.9,5-5.8
		c3.8-4.1,7.5-8.2,11.3-12.3c4-4.3,7.8-8.7,11.6-13.2c3.7-4.4,7.6-8.8,11.4-13.2c0.2-0.3,0.6-0.5,0.6-0.9c-0.9-0.2-2,0-3.6,0.6
		c0.2,0.4,0.4,0.7,0.6,1.2c-0.3,0.2-0.5,0.3-0.6,0.3c-0.7-0.3-0.9-1.2-1.7-1.3c0,0.3,0.1,0.6,0.1,1c-0.2,0.1-0.4,0.1-0.6,0.2
		c-0.3-0.3-0.6-0.6-0.9-0.9c-0.1,0.1-0.2,0.1-0.4,0.2c0.4,0.5,0.8,1,1.2,1.6c-0.1,0.2-0.2,0.4-0.3,0.7c-1.2-0.3-1.4-1.6-2.4-2
		c-0.1,0-0.3,0.1-0.5,0.1c0.1,0.4,0.3,0.8-0.2,1c-0.6,0.1-0.8-0.5-1.3-0.7c-0.1,0-0.3,0.1-0.6,0.1c0.7,0.7,1.2,1.4,1.8,2
		c-0.1,0.2-0.1,0.3-0.1,0.4c0,0.1-0.2,0.1-0.2,0.2c-0.5,0.1-0.7-0.3-1-0.6c-0.4-0.5-0.9-1-1.3-1.4c-0.2-0.2-0.4-0.2-0.6-0.4
		c0,0.5,0.2,0.9-0.4,1.1c-0.2-0.1-0.4-0.2-0.6-0.3c-0.2-0.1-0.4-0.3-0.6-0.5c-0.2,0.1-0.5,0.2-0.7,0.2c0.6,1.1,1.5,1.8,2,2.9
		c-0.3,0.2-0.5,0.3-0.7,0.4c-1.1-0.8-1.6-2.2-2.7-3.1c-0.2,0-0.5,0.1-0.7,0.1c0.1,0.4,0.2,0.7,0.3,1.1c-0.2,0.1-0.4,0.2-0.7,0.3
		c-0.4-0.4-0.7-0.7-1-1.1c-0.2,0.1-0.3,0.1-0.5,0.1c0.4,1.1,1.5,1.7,1.8,2.8c-0.3,0.4-0.6,0.4-0.9,0.2c-0.2-0.2-0.3-0.4-0.5-0.6
		c-0.5-0.7-1.1-1.4-1.6-2.2c-0.3,0.1-0.5,0.1-0.7,0.1c0,0.4,0.1,0.9-0.6,0.9c-0.3-0.2-0.6-0.4-1-0.6c-0.2,0.1-0.5,0.2-0.7,0.3
		c0.6,1.1,1.7,1.7,2.2,2.9c-0.3,0.2-0.5,0.3-0.7,0.4c-0.3-0.3-0.6-0.5-0.8-0.8c-0.6-0.6-1.1-1.3-1.7-2c-0.2-0.2-0.4-0.5-0.7-0.3
		c0.1,0.7,0.1,0.7-0.2,1.1c-0.7,0.1-0.9-0.6-1.4-0.8c-0.2,0.1-0.4,0.1-0.8,0.3c0.8,0.9,1.6,1.8,2.3,2.6c0,0.2,0,0.3-0.1,0.4
		c0,0.1-0.1,0.2-0.2,0.3c-0.1,0-0.3,0-0.4,0c-1-1-1.9-2-2.9-3c-0.1,0-0.4,0.1-0.5,0.1c-0.1,0.4-0.1,0.6-0.2,0.9
		c-0.7,0.3-0.9-0.4-1.4-0.5c-0.2,0.1-0.4,0.1-0.8,0.3c0.8,1.1,1.5,2.1,2.4,3.2c-0.3,0.2-0.5,0.4-0.6,0.6c-0.8-0.4-1.1-1.2-1.6-1.8
		c-0.5-0.6-0.9-1.2-1.4-1.8c-0.2,0.1-0.4,0.1-0.5,0.2c0.1,0.5,0.7,0.7,0.4,1.4c-1,0.4-1.2-0.8-1.9-1.1c-0.2,0.1-0.5,0.2-0.7,0.2
		c0,0,0,0.1,0,0.2c0.5,0.6,1,1.1,1.5,1.8c0.5,0.6,1.2,1.1,1.3,2c-0.2,0.1-0.4,0.2-0.7,0.3c-1.3-1.2-2.2-2.7-3.4-4
		c-0.2,0-0.4,0.1-0.6,0.2c0.3,0.3,0.5,0.6,0.8,0.9c-0.5,0.2-0.7,0.3-0.9,0.5c-0.5-0.4-0.9-0.8-1.3-1.1c-0.3,0.1-0.6,0.1-0.9,0.2
		c0.8,1.3,1.8,2.4,2.5,3.7c-0.3,0.2-0.5,0.3-0.8,0.5c-1.1-1.3-1.9-2.7-3-4c-0.2,0-0.5,0.1-0.7,0.1c0.1,0.4,0.2,0.7,0.3,1
		C83.7,26.6,83.3,25.2,82.2,25.4z M126.1,18.9c-0.1,0-0.1-0.1-0.2-0.1c-1.3,1.5-2.6,2.9-3.9,4.4c-2.7,3.2-5.4,6.4-8,9.6
		c-4.1,5.1-8.5,10-13,14.8C97,52,92.9,56.6,88.9,61.2c-3.6,4.2-7.1,8.5-10.8,12.7c-1.7,1.9-3.3,3.9-5.4,5.6c0.1,0.3,0.2,0.7,0.4,1.1
		c0.9-0.5,1.6-1,2.2-1.7c0.4-0.5,0.9-1,1.4-1.5c3.4-3.7,6.8-7.4,10.2-11.1c0.8-0.9,1.6-1.9,2.4-2.8c1.6-2,3.2-3.9,4.8-5.9
		c2.4-2.9,4.9-5.8,7.4-8.7c5.5-6.7,11.3-13.1,17.1-19.6c2.1-2.3,4.2-4.7,6.1-7.2c0.3-0.3,0.6-0.6,1-1
		C125.7,20.3,125.9,19.6,126.1,18.9z M72.3,81.4c-0.2-0.8-0.4-1.3-0.6-1.9c-0.1-0.2-0.2-0.4-0.3-0.6c-0.9-1.2-1.8-2.4-2.6-3.6
		c-4.7-6.4-9.4-12.7-14.3-19c-1.1-1.4-2.1-2.8-3.1-4.3c-3.1-4.6-6.3-9.1-9.4-13.7c-0.2-0.3-0.5-0.7-0.7-1c-0.1,0-0.1,0.1-0.2,0.1
		c0.2,0.9,0.3,1.8,0.5,2.5c0.8,1,1.4,1.9,2.1,2.9c1.9,2.8,3.7,5.6,5.7,8.3c5,6.7,10,13.3,15,20C66.9,74.5,69.5,77.8,72.3,81.4z"/>
	<path d="M55.6,41.4c0.3-0.1,0.7-0.2,1-0.3c2.1-0.6,4.1-1.1,6.2-1.7c6.8-2,13.7-4.1,20.5-6.1c1.5-0.5,3.1-0.8,4.6-1.2
		c2.6-0.7,5.2-1.4,7.8-2.3c4.7-1.5,9.4-2.8,14.1-3.9c0.5-0.1,1.1-0.3,1.6,0.2c-0.1,0.2-0.1,0.5-0.3,0.6c-0.4,0.4-0.8,0.9-1.2,1.3
		c-1.4,1.4-2.8,2.8-4.2,4.2c-2.9,2.9-5.9,5.8-8.8,8.7c-6.1,6.1-12.5,12-18.8,17.9c-1.7,1.6-3.5,3.2-5.2,4.8c-0.3,0.3-0.7,0.6-1,0.8
		c-0.6,0.1-0.8-0.2-1.1-0.5c-0.6-0.7-1.2-1.4-1.8-2.1c-3.1-3.6-6.1-7.4-8.9-11.3c-1.4-2-2.7-4-4.1-6c-0.2-0.3-0.4-0.7-0.6-1
		C55.3,42.7,55.2,42.1,55.6,41.4z M105.9,30.1c-0.3,0-0.5,0-0.7,0.1c-0.8,0.2-1.6,0.4-2.4,0.6c-3.6,1-7.3,2-10.9,3
		c-2,0.6-4,1.1-6.1,1.8c-4.6,1.4-9.3,2.9-13.9,4.3c-4.5,1.4-9,2.7-13.5,4.1c-0.2,0.1-0.4,0.1-0.7,0.2c4.6,6.2,9.3,12.3,14.2,18.2
		C75.8,59.5,104.4,32.3,105.9,30.1z M109.1,27.3c-0.2,0-0.4,0-0.5,0.1c-3.9,1.1-7.8,2.2-11.7,3.3c-2.6,0.8-5.3,1.6-7.9,2.3
		c-8.2,2.2-16.4,4.4-24.5,7.3c-1.1,0.4-2.3,0.7-3.4,1c-1.6,0.4-3.1,0.8-4.8,1.2c0.3,0.6,0.7,1,1,1.3c1.5-0.5,2.9-0.9,4.2-1.4
		c7.7-2.5,15.5-4.9,23.2-7.4c6.4-2,12.9-3.6,19.4-5.3c0.7-0.2,1.4-0.3,2.1-0.5C107.4,28.8,108.4,28.3,109.1,27.3z"/>
	<path d="M89.4,48.7c0.2,0.1,0.4,0.1,0.4,0.2c0.1,0.1,0.2,0.2,0.2,0.3c-0.1,0.2-0.1,0.3-0.2,0.4c-0.3,0.4-0.7,0.8-1.1,1.2
		c-3.5,3.6-7,7.2-10.6,10.8c-0.4,0.4-0.8,0.7-1.2,1.1c-0.2-0.1-0.4-0.3-0.7-0.4c0.2-0.3,0.3-0.5,0.5-0.7c3.9-4,7.8-8.1,11.7-12.1
		C88.8,49.2,89.1,49,89.4,48.7z"/>
	<path d="M63.3,64.7c0.3-0.4,0.6-0.3,0.9-0.1c0.2,0.2,0.4,0.4,0.6,0.7c2.1,2.6,4.2,5.3,6.3,7.9c0.5,0.6,0.9,1.1,1.4,1.7
		c0.2,0.2,0.2,0.4,0.4,0.7c-0.2,0.2-0.4,0.3-0.6,0.4c-0.3-0.3-0.7-0.6-1-0.9c-2.5-3-4.9-6-7.4-9C63.4,65.5,63.5,65.5,63.3,64.7z"/>
	<path d="M53,43.2c0.3-0.2,0.4-0.3,0.7-0.5c0.3,0.3,0.6,0.6,0.8,0.9c1.9,2.8,3.9,5.6,5.8,8.4c0.2,0.2,0.2,0.5,0.4,0.8
		c-0.3,0.1-0.5,0.2-0.7,0.3c-0.8-0.7-5.4-7.2-6.6-9.2C53.2,43.8,53.1,43.5,53,43.2z"/>
	<path d="M81.3,60.6c0.1-0.3,0-0.4,0.1-0.5c1.6-1.8,3.2-3.6,4.9-5.4c0.3,0.1,0.5,0.1,0.7,0.1c0,0.2,0.1,0.3,0.1,0.4
		c-0.1,0.2-0.2,0.5-0.3,0.7c-1.4,1.6-2.9,3.1-4.4,4.7c-0.1,0.1-0.2,0.2-0.4,0.3C81.7,60.7,81.5,60.7,81.3,60.6z"/>
	<path d="M73.1,74.2c-0.2-0.1-0.5-0.1-0.6-0.3c-1-1.2-2-2.3-2.8-3.6c0.1-0.2,0.1-0.3,0.1-0.5c0-0.1,0.2-0.1,0.2-0.2
		c0.1,0,0.2,0,0.3,0.1c0.1,0,0.2,0.1,0.3,0.2c0.9,1.1,1.8,2.3,2.6,3.4C73.4,73.5,73.4,73.8,73.1,74.2z"/>
</g>
</svg>
