<?xml version="1.0" encoding="utf-8"?>
<!-- Generator: Adobe Illustrator 23.0.0, SVG Export Plug-In . SVG Version: 6.00 Build 0)  -->
<svg version="1.1" id="Layer_1" xmlns="http://www.w3.org/2000/svg" xmlns:xlink="http://www.w3.org/1999/xlink" x="0px" y="0px"
	 width="48.5px" height="50.6px" viewBox="0 0 48.5 50.6" style="enable-background:new 0 0 48.5 50.6;" xml:space="preserve">
<style type="text/css">
	.st0{fill:#26A5FD;}
	.st1{fill:#0592FB;}
	.st2{fill:#C3E1FE;}
	.st3{fill:#FEE4C1;}
	.st4{fill:#9EABEC;}
	.st5{fill:#81B723;}
	.st6{fill:#FD646F;}
	.st7{fill:#8C9BDA;}
	.st8{fill:#FDE4C1;}
	.st9{fill:#FEFEFE;}
	.st10{fill:#D7EBFD;}
	.st11{fill:#F4F7F8;}
	.st12{fill:#7A8BCA;}
	.st13{fill:#8AC627;}
	.st14{fill:#596CA8;}
	.st15{fill:#465A94;}
	.st16{fill:#596CA9;}
	.st17{fill:#465A93;}
	.st18{fill:#8D9CDA;}
	.st19{fill:#F3F7F7;}
	.st20{fill:#FDFEFD;}
	.st21{fill:#F3F6F8;}
</style>
<g>
	<path class="st0" d="M29.3,0c0.3,0.2,0.4,0.5,0.4,0.8c0,0.7,0,1.4,0,2.1c0.2,0.2,0.1,0.4,0.1,0.6c0,3.3,0,6.6,0,10
		c0,0.9-0.3,1.2-1.3,1.3c-2.3,0-4.6,0-6.9,0c-0.5,0-0.9,0.1-1.2,0.7c-0.3,0.6-0.7,1.2-1,1.8c-0.4,0.7-1,0.7-1.4,0
		c-0.4-0.6-0.7-1.2-1.1-1.8c-0.2-0.4-0.5-0.6-1-0.6c-2.3,0-4.7,0-7,0c-0.2,0-0.6,0.1-0.7-0.2c0.2-0.2,0.4-0.1,0.6-0.1
		c0.5,0,0.9,0,1.4,0c0.3,0,0.5,0,0.4-0.4c-0.1-0.4,0-0.8,0-1.2c0-0.2,0-0.3,0.1-0.4c0.1-0.1,0.3-0.1,0.5-0.1c1.3,0,2.5,0,3.8,0
		c1,0,2,0,2.9,0c2.9,0,5.8,0,8.8,0c0.2,0,0.4,0,0.5-0.2c0.1-0.2-0.1-0.4-0.2-0.5c-1.4-1.9-2.7-3.8-4.1-5.7c-0.3-0.6-0.7-1.1-1.1-1.6
		c-0.4-0.5-0.5-0.5-0.8,0c-0.8,1.2-1.7,2.4-2.6,3.6C18.3,8,18.2,8.3,18,8.5c-0.3,0-0.4-0.3-0.6-0.5c-0.6-0.8-1.2-1.7-1.8-2.5
		c-0.4-0.5-0.5-0.5-0.9,0c-1.1,1.6-2.3,3.2-3.4,4.8c-0.1,0.1-0.2,0.7-0.6,0.2c0-1.8-0.1-3.5,0-5.3c0.1-0.2,0.3-0.2,0.5-0.1
		c0.3,0,0.5,0,0.8-0.1c1.2-0.6,1.2-1.9,0.1-2.7c-0.3-0.2-0.6-0.2-0.9-0.2c-0.2,0-0.3,0-0.4-0.1c-0.1-0.5-0.1-1-0.1-1.5
		c0-0.3,0.2-0.4,0.4-0.5C17.2,0,23.3,0,29.3,0z"/>
	<path class="st1" d="M10.9,12.4c0.1,0.7-0.1,1.4,0.1,2.1c-0.9,0-1.8,0-2.7,0c-0.3,0.1-0.4-0.1-0.5-0.3c-0.1-0.2-0.1-0.5-0.1-0.8
		c0-1.5,0-3,0-4.5c0-0.2,0-0.5,0.2-0.7c0-2.4,0-4.9,0-7.3c0-0.4,0-0.7,0.4-0.9c1,0,1.9,0,2.9,0c-0.4,0.3-0.3,0.7-0.3,1.1
		c0,0.3,0,0.6,0,0.9c0,0.2-0.1,0.2-0.2,0.3C9.8,3,9.7,4,10.6,4.8c0.1,0.1,0.3,0.2,0.3,0.3c0,1.8,0,3.7,0,5.5
		c0.1,0.3-0.2,0.5-0.3,0.7c-0.1,0.1-0.1,0.2-0.2,0.3c-0.2,0.4-0.2,0.5,0.2,0.6C10.7,12.3,10.8,12.3,10.9,12.4z"/>
	<path class="st2" d="M7.9,8.2c0,1.8,0,3.6,0,5.5c0,0.4,0,0.7,0.4,0.9c0.2,0.1,0.4,0.1,0.6,0.1c2.4,0,4.9,0,7.3,0
		c0.4,0,0.7,0.1,0.9,0.5c0.4,0.7,0.8,1.4,1.2,2.1c0.4,0.6,0.7,0.6,1.1,0c0.4-0.7,0.9-1.4,1.2-2.2c0.2-0.3,0.3-0.4,0.6-0.4
		c2.5,0,4.9,0,7.4,0c0.9,0,1.1-0.1,1.1-1.1c0-3.4,0-6.7,0-10.1c0-0.2,0-0.4,0-0.6c0.9,0.2,1.7,0.5,2.5,0.8c0.1,0.1,0.3,0.1,0.4,0.1
		c0.2,0.2,0.2,0.4,0.2,0.6c0,0.8,0,1.6,0,2.4c0,0.2,0,0.3,0,0.5c0.1,0.3,0.2,0.5,0.5,0.5c0.3,0,0.5-0.2,0.6-0.5c0.1-0.3,0-0.7,0-1.1
		c0-0.5,0-0.9,0-1.4c0-0.2,0.1-0.5,0.4-0.3c1.4,0.8,2.7,1.6,3.9,2.5c2,1.6,3.8,3.4,5.2,5.5c0,0.1,0.1,0.1,0.2,0.2
		c0.3,0.5,0.2,1,0.1,1.6c0,0.2-0.3,0.2-0.5,0.2c-0.5,0-1,0-1.5,0c-0.2,0-0.4,0-0.5,0c-0.4,0-0.7,0.3-0.7,0.6c0,0.3,0.2,0.5,0.7,0.6
		c0.4,0,0.7,0,1.1,0c0.4,0,0.7,0,1.1,0c0.6,0,1.3,0.1,1.8-0.4c0.8,1.8,1.5,3.6,1.9,5.5c0.2,1.1,0.4,2.1,0.5,3.2
		c0.1,0.9,0.1,1.8,0.1,2.8c-0.1,2.1-0.4,4.1-1.1,6.1C46.3,33,46,33,45.8,33c-2.9,0-5.8,0-8.7,0c-0.2,0-0.4,0-0.6-0.1
		c-0.2-0.2-0.2-0.5-0.2-0.8c0-3.9,0-7.7,0-11.6c0-0.2,0-0.4,0-0.6c0-0.5-0.3-0.7-0.7-0.9c-0.8-0.2-0.8-0.2-0.9-1.1
		c-0.2-0.8-0.4-0.9-1.5-0.9c-0.5,0-1,0-1.5,0c-0.5,0-0.9,0.2-1,0.7c-0.1,0.2-0.1,0.3-0.1,0.5c0,0.5-0.1,0.6-0.6,0.6
		c-0.5,0-0.6-0.1-0.6-0.6c0-0.1,0-0.3,0-0.4c-0.2-0.7-0.4-0.8-1.1-0.8c-0.1,0-0.3,0-0.4,0c-0.5,0-1,0-1.5,0c-0.6,0-1,0.3-1,1
		c0,0.3,0.1,0.6-0.2,0.8c-0.1,0.1-0.3,0.1-0.5,0.1c-1.8,0-3.6,0-5.4,0c-0.1,0-0.2,0-0.3,0c-0.2,0-0.3-0.2-0.4-0.3
		c-0.4-0.5-0.9-0.7-1.5-0.7c-0.3,0-0.7,0-1,0c-0.2,0-0.4,0-0.6-0.2c-0.2-0.9-0.2-0.9-1.2-0.9c-3.2,0-6.5,0-9.7,0c-0.7,0-1.4,0-2.1,0
		c-0.2,0-0.5,0-0.6-0.2c0.8-1.8,1.7-3.5,2.9-5C5.7,10.4,6.7,9.2,7.9,8.2z"/>
	<path class="st3" d="M18.3,49c-1.4-0.3-2.6-0.7-3.9-1.3c-3-1.3-5.5-3.1-7.8-5.4c-1.9-2-3.4-4.2-4.5-6.7c-0.4-0.9-0.7-1.8-1-2.7
		c0.1-0.2,0.3-0.2,0.5-0.2c3.1,0,6.2,0,9.3,0c0.1,0,0.2,0,0.3,0c0.1,0,0.2,0.1,0.3,0.2c0.5,0.5,1.1,0.7,1.8,0.7c0.7,0,1.4,0,2.1,0
		c0.1,0,0.3,0,0.4,0c1.1,0,2.2,0,3.3,0c0.3,0.2,0.3,0.5,0.3,0.8c0.2,1.1,0.9,1.9,1.9,2.4c0.3,0.1,0.5,0.1,0.8,0.2
		c0.1,0.1,0.3,0.1,0.3,0.2c0,0.1,0.1,0.2,0.1,0.3c0,1.8,0,3.6,0,5.4c0,0.4-0.2,0.5-0.5,0.5c-0.5,0-0.9,0-1.4,0c-1,0-1.3,0.3-1.5,1.2
		c-0.2,1.2-0.5,2.4-0.7,3.6C18.5,48.5,18.5,48.8,18.3,49z"/>
	<path class="st3" d="M36.5,32.9c3.3,0,6.7,0,10,0c-0.9,2.9-2.3,5.6-4.2,7.9c-2.3,2.9-5.1,5.1-8.4,6.6c-1.4,0.7-2.9,1.2-4.5,1.5
		c-0.2-0.1-0.2-0.4-0.3-0.6c-0.2-1.2-0.5-2.4-0.7-3.7c-0.2-0.9-0.5-1.2-1.5-1.2c-0.5,0-1,0-1.4,0c-0.3,0-0.5-0.1-0.5-0.4
		c0-0.9,0-1.7,0-2.6c0-0.1,0-0.2,0.1-0.2c0.3-0.2,0.6-0.1,0.9-0.1c0.2,0,0.4,0,0.6,0c0.6,0.1,1-0.1,1.2-0.7c0.1,0,0.1-0.1,0.2-0.1
		c1.3,0,2.6,0,3.9,0c0.1,0,0.2,0,0.3,0.1c0.2,0.7,0.7,0.7,1.3,0.7c2.3,0,4.6,0,6.9,0c0.7,0,0.8-0.1,0.9-0.8c0-0.5,0-1,0-1.5
		c0-0.6-0.1-0.7-0.8-0.7c-1.9,0-3.9,0-5.8,0c-0.1,0-0.3,0-0.4,0c-0.4,0-0.8,0-1.2,0c-0.4,0-0.7,0.1-0.7,0.5c0,0.1-0.1,0.1-0.1,0.2
		c-0.1,0.1-0.2,0.1-0.3,0.1c-1.3,0-2.5,0-3.8,0c-0.1,0-0.2,0-0.2,0c0,0,0,0,0,0c-0.2-0.6-0.7-0.8-1.3-0.8c-0.2-0.2,0-0.3,0.2-0.4
		c0.8-0.6,1.2-1.4,1.4-2.3c0.1-0.6,0.2-0.6,0.7-0.6c1.9,0,3.8,0,5.8,0C35.3,33.6,36,33.6,36.5,32.9z"/>
	<path class="st2" d="M11.3,32.9c-3.4,0-6.8,0-10.2,0c-0.4-1.2-0.7-2.5-0.9-3.8C0,27.6-0.1,26.2,0,24.8c0.1-2.2,0.4-4.4,1.2-6.4
		c0.2,0.2,0.2,0.5,0.2,0.7c0,2,0,4.1,0,6.1c0,0.3,0,0.6,0.2,0.8c0.2,0.1,0.4,0.1,0.7,0.1c1.9,0,3.8-0.2,5.6-0.1c0.8,0,1.6,0,2.5,0
		c0.2,0,0.5,0,0.7,0.1c0.2,0.2,0.1,0.5,0.1,0.7c0,1.6,0,3.2,0,4.7C11.2,32,11.4,32.4,11.3,32.9z"/>
	<path class="st4" d="M25,40.2c0,0.9,0,1.8,0,2.7c0,0.4,0.1,0.5,0.5,0.5c0.5,0,1.1,0,1.6,0c0.7,0,1.2,0.4,1.3,1.1
		c0.3,1.5,0.6,3,0.9,4.5c-0.8,0.3-1.6,0.3-2.4,0.5c-0.2-0.2-0.2-0.4-0.2-0.6c-0.2-0.8-0.3-1.6-0.5-2.4c0-0.2-0.1-0.5-0.4-0.5
		c-0.4,0-0.6,0.1-0.6,0.5c0,0.9,0,1.8,0,2.7c0,0.2,0.1,0.5-0.3,0.5c-0.1-0.2-0.1-0.4-0.1-0.7c0-0.8,0-1.6,0-2.4
		c0-0.4-0.2-0.6-0.5-0.5c-0.3,0-0.6,0-1,0c-0.4,0-0.5,0.1-0.5,0.5c0,0.8,0,1.6,0,2.4c0,0.2,0,0.5-0.1,0.7c-0.3,0.1-0.3-0.2-0.3-0.4
		c0-0.7,0-1.4,0-2c0-0.2,0-0.5,0-0.7c0-0.3,0-0.5-0.4-0.5c-0.3,0-0.5,0-0.6,0.4c-0.2,0.8-0.3,1.6-0.5,2.5c0,0.2-0.1,0.5-0.3,0.7
		c-0.8-0.1-1.6-0.2-2.4-0.5c0.3-1.5,0.6-3,0.9-4.5c0.1-0.7,0.6-1.1,1.3-1.1c0.5,0,1.1,0,1.6,0c0.4,0,0.5-0.1,0.5-0.5
		c0-1.9,0-3.8,0-5.7c0.1,0,0.1,0,0.2,0.1c0.1,0.2,0.1,0.5,0.1,0.7c0,1.5,0,3,0,4.5c0,0.6,0,0.6,0.6,0.6c0.3,0,0.5,0,0.8,0
		c0.5,0,0.6-0.1,0.6-0.6c0-0.6,0-1.2,0-1.7c0-0.2,0-0.4,0.1-0.6C24.9,40.2,25,40.2,25,40.2z"/>
	<path class="st5" d="M1.6,26.2c-0.3-0.1-0.3-0.4-0.3-0.7c0-2.2,0-4.4,0-6.6c0-0.2,0-0.4,0-0.5c0-0.4,0-0.8,0-1.1
		c0-0.4,0.1-0.6,0.6-0.6c0.9,0,1.8,0,2.7,0c-0.1,0.5,0.1,1-0.2,1.5c-0.1,0-0.1,0-0.2,0c-0.2-0.1-0.5-0.2-0.7-0.1
		c-0.4,0.2-0.8,0.6-0.7,1c0.1,0.5,0.5,0.8,1,0.8c0.2,0,0.3-0.1,0.5-0.1c0.1,0,0.2,0,0.2,0.1c0.1,0.7,0.1,1.4,0,2.1
		c-0.2,0.6-0.6,1-1,1.5C3.4,23.8,3.2,24,3,24.3c-0.2,0.3-0.1,0.4,0.2,0.4c0.2,0,0.5,0,0.7,0c0.2,0,0.4,0,0.5,0.2
		c0.2,1.3,0.2,1.3-1.1,1.3C2.8,26.2,2.2,26.3,1.6,26.2z"/>
	<path class="st6" d="M45.1,5.6c0,0.5,0,1,0,1.5c0,0.6-0.3,0.9-0.7,0.9c-0.5,0-0.7-0.3-0.7-0.9c0-0.7,0-1.5,0-2.2
		c0-0.3-0.1-0.4-0.4-0.4c-0.7,0-1.4,0-2.1,0c-0.6,0-0.9-0.3-0.9-0.7c0-0.4,0.3-0.7,0.9-0.7c1,0,2,0,3,0c0.6,0,0.9,0.3,0.9,0.9
		C45.1,4.5,45.1,5.1,45.1,5.6z"/>
	<path class="st6" d="M45.1,15.3c-0.2,0.4-0.5,0.6-0.9,0.6c-1,0-2,0-3,0c-0.5,0-0.9-0.3-0.9-0.7c0-0.4,0.3-0.7,0.9-0.7
		c0.7,0,1.4,0,2.1,0c0.3,0,0.4-0.1,0.4-0.4c0-0.4,0-0.8,0-1.3c0-0.3,0-0.7,0-1c0-0.5,0.3-0.8,0.7-0.8c0.4,0,0.7,0.3,0.7,0.8
		C45.1,13,45.1,14.2,45.1,15.3z"/>
	<path class="st6" d="M34.3,4.6C34,4.5,34,4.7,34,4.9c0,0.7,0,1.5,0,2.2C34,7.7,33.8,8,33.3,8c-0.5,0-0.7-0.3-0.7-0.9
		c0-1.1,0-2.2,0-3.3c0.1-0.5,0.4-0.7,0.9-0.7c1,0,2,0,3,0c0.5,0,0.8,0.3,0.9,0.7c0,0.5-0.3,0.7-0.9,0.7C35.8,4.6,35.1,4.6,34.3,4.6z
		"/>
	<path class="st7" d="M22.6,49.5c0-1.1,0-2.2,0-3.3c0-0.4,0.1-0.5,0.5-0.5c0.5,0,0.9,0,1.4,0c0.4,0,0.5,0.1,0.5,0.5
		c0,1.1,0,2.2,0,3.3c0,0,0,0,0,0.1c0,0,0,0,0,0C24.2,49.6,23.4,49.6,22.6,49.5C22.6,49.6,22.6,49.6,22.6,49.5
		C22.6,49.5,22.6,49.5,22.6,49.5z"/>
	<path class="st8" d="M24.9,49.6C24.9,49.6,24.9,49.6,24.9,49.6c0.2-0.3,0.1-0.5,0.1-0.7c0-0.9,0-1.8,0-2.8c0-0.3,0.1-0.4,0.4-0.4
		c0.8,0,0.8,0,0.9,0.7c0.2,1,0.4,2,0.5,2.9C26.2,49.5,25.6,49.5,24.9,49.6z"/>
	<path class="st8" d="M22.6,49.5C22.6,49.6,22.6,49.6,22.6,49.5c-0.6,0-1.3-0.1-2-0.1c0.2-1.1,0.4-2.2,0.6-3.3
		c0-0.2,0.2-0.4,0.4-0.3c1,0,0.8-0.1,0.8,0.8c0,0.8,0,1.7,0,2.5C22.5,49.2,22.5,49.4,22.6,49.5z"/>
	<path class="st9" d="M23.1,5.7c1.4,2,2.9,4,4.3,6c0.1,0.1,0.2,0.3,0.1,0.4c-0.1,0.2-0.3,0.2-0.5,0.2c-2.6,0-5.2,0-7.8,0
		c-0.4,0-0.7,0-1.1,0c0-0.2,0.1-0.4,0.2-0.5c1.4-1.9,2.8-3.9,4.2-5.8C22.7,5.9,22.7,5.6,23.1,5.7z"/>
	<path class="st10" d="M10.9,12.4c-0.3-0.1-0.7,0.1-0.8-0.2c-0.1-0.3,0.2-0.5,0.3-0.7c0.1-0.3,0.3-0.5,0.5-0.8
		c1.1-1.5,2.1-3,3.2-4.4c0.2-0.3,0.5-0.7,0.7-1c0.3-0.3,0.5-0.3,0.7,0c0.7,0.9,1.3,1.9,2,2.8c0.1,0.1,0.2,0.4,0.4,0.4
		c0.1,0.1,0,0.2-0.1,0.3c-0.8,1.2-1.7,2.3-2.5,3.5c-0.1,0.1-0.2,0.2-0.2,0.2C13.7,12.4,12.3,12.4,10.9,12.4z"/>
	<path class="st11" d="M15.1,12.4c0.5-0.9,1.2-1.7,1.8-2.6c0.3-0.5,0.7-0.9,1-1.4c1.1-1.5,2.1-3,3.2-4.5c0.3-0.4,0.5-0.4,0.7,0
		c0.4,0.6,0.8,1.2,1.2,1.8c-0.5,0.1-0.6,0.6-0.8,0.9c-1.4,1.9-2.7,3.8-4.1,5.8C17.2,12.4,16.1,12.4,15.1,12.4z"/>
	<path class="st11" d="M10.9,5.1c-1.1-0.7-1.3-1.7-0.7-2.5c0.2-0.3,0.5-0.4,0.7-0.6c0.5-0.1,0.9-0.2,1.4,0.2
		c-0.4,0.4-0.9,0.7-0.9,1.3c0,0.5,0.2,0.8,0.5,1.2C12,4.8,12.1,4.9,12.2,5C11.7,5.3,11.3,5.2,10.9,5.1z"/>
	<path class="st9" d="M12.2,5c-1.1-0.6-1.2-1.9-0.3-2.7c0.1-0.1,0.3-0.2,0.4-0.2c0.6,0.3,0.9,0.8,0.8,1.4C13.1,4.3,12.8,4.8,12.2,5z
		"/>
	<path class="st4" d="M36.5,32.9c-0.2,0.7-0.5,0.9-1.2,0.9c-2.1,0-4.2,0-6.3,0c-0.5,0-0.8,0-0.9,0.6c-0.2-0.4-0.5-0.4-0.9-0.4
		c-1.6,0-3.2,0-4.8,0c-0.8,0-1.7,0-2.5,0c-0.2,0-0.4,0-0.5-0.1c-1.2,0-2.3,0-3.5,0c0.1-0.3,0.3-0.2,0.5-0.2c0.6,0,1.2,0,1.8,0
		c0.6,0,0.6,0,0.6-0.6c0-1.2,0-2.4,0-3.6c0-3.4,0-6.7,0-10.1c0-0.1,0-0.3,0.1-0.4c2.1,0,4.2,0,6.3,0c0.3-0.2,0.6-0.1,0.9-0.1
		c0.4,0,0.7,0,1.1,0c0.5,0,1,0,1.5,0c0.4,0,0.7-0.1,0.6-0.5c0-0.1,0-0.2,0.1-0.3c0.1,0.2,0.1,0.4,0.1,0.6c0,0.3,0.1,0.4,0.4,0.4
		c0.4,0,0.6-0.1,0.5-0.5c0-0.2-0.1-0.4,0.1-0.6c0.3,0.3,0.1,0.6,0.2,0.9c0.5,0.3,1.1,0.1,1.6,0.1c0.5,0,1.1-0.1,1.6-0.1
		c0.4,0,0.7-0.1,0.6-0.5c0-0.1,0-0.2,0.1-0.3c0,0,0.1,0.1,0.1,0.1c-0.1,0.7,0.2,0.9,0.9,1c0.6,0,0.8,0.4,0.8,1.1c0,4.1,0,8.2,0,12.3
		C36.5,32.4,36.5,32.7,36.5,32.9z"/>
	<path class="st12" d="M18.8,18.8c0.1,0.2,0.1,0.5,0.1,0.8c0,4.5,0,9,0,13.5c0,0.4-0.1,0.6-0.6,0.6c-0.8,0-1.7-0.1-2.5,0.1
		c-0.1,0-0.3,0-0.4,0c-0.9-0.3-1.4-0.8-1.4-1.8c0-0.6,0-1.2,0-1.8c0-0.2,0-0.4,0.1-0.6c0.1-0.1,0.3,0,0.4,0c0.8,0.1,1.6-0.4,1.6-1.2
		c0.1-1.8,0-3.7,0-5.5c0-0.9-0.8-1.4-1.6-1.2c-0.1,0-0.2,0.1-0.4,0C14,21.5,14,21.3,14,21.2c0-0.6,0-1.2,0-1.8
		c0-0.8,0.6-1.5,1.4-1.7c0,0,0.1,0,0.1,0c0.4,0,0.9,0,1.3,0C17.7,17.7,18.4,18,18.8,18.8z"/>
	<path class="st13" d="M4.4,22.1c0-0.8,0-1.5,0-2.3c0-0.1,0-0.1,0-0.2c0.3-0.5,0.1-1-0.1-1.5c0.2-0.2,0.1-0.5,0.1-0.8
		c0-0.2,0-0.5,0.2-0.7c3.5,0,7,0,10.4,0c0.4,0,0.5,0.2,0.5,0.5c0,0.2,0,0.4,0,0.5c0,0,0,0,0,0c-0.9,0.2-1.7,0.1-2.6,0.1
		c-0.9,0-1.6,0.6-1.7,1.5c0,0.2,0,0.4-0.1,0.6c-0.1,0.2-0.2,0.1-0.3,0c-0.1-0.1-0.3-0.3-0.4-0.5c-0.2-0.2-0.4-0.2-0.5,0
		c-0.5,0.7-1,1.4-1.5,2.2c-0.2,0.2-0.3,0.5-0.6,0.6c-0.4-0.2-0.5-0.6-0.8-1c-0.2-0.3-0.4-0.6-0.6-0.9c-0.3-0.4-0.4-0.4-0.6,0
		c-0.3,0.5-0.7,0.9-1,1.4C4.6,21.9,4.6,22.1,4.4,22.1z"/>
	<path class="st6" d="M32.6,13.4c0-0.5,0-1.1,0-1.6c0-0.5,0.3-0.8,0.7-0.8c0.4,0,0.7,0.3,0.7,0.8c0,0.7,0,1.4,0,2.1
		c0,0.5,0.1,0.5,0.5,0.5c0.7,0,1.3,0,2,0c0.5,0,0.8,0.3,0.8,0.7c0,0.4-0.3,0.7-0.8,0.7c-1,0-2.1,0-3.1,0c-0.6,0-0.8-0.3-0.8-0.8
		C32.6,14.5,32.6,14,32.6,13.4z"/>
	<path class="st12" d="M34.7,17.8c0,1,0,1-1,1c-0.9,0-1.8,0.2-2.7,0.1c-0.2,0-0.3,0.1-0.4-0.1c0.4-0.2,0.8-0.1,1.2-0.1
		c0.6,0,0.6,0,0.6-0.6c0-0.5,0.2-1,0.8-1.1c0.3,0,0.6,0,0.9,0C34.4,17.1,34.7,17.4,34.7,17.8z"/>
	<path class="st14" d="M29.4,17.8c-0.1,1-0.1,1-1.1,1c-0.4,0-0.8,0-1.2,0c-0.4-0.8-0.1-1.6,0.7-1.8c0.3,0,0.6,0,0.9,0
		C29.1,17.1,29.4,17.4,29.4,17.8z"/>
	<path class="st15" d="M27.8,17c-0.8,0.4-0.7,1.1-0.7,1.8c-0.7,0-1.3,0-2,0c0-0.3,0-0.6,0-0.9c0-0.6,0.4-1,1-1
		C26.7,17,27.3,17,27.8,17z"/>
	<path class="st16" d="M33.2,17c-0.5,0.3-0.7,0.8-0.7,1.4c0,0.4-0.1,0.5-0.5,0.5c-0.5,0-1,0-1.5,0c0-0.4,0-0.7,0-1.1
		c0.2-0.6,0.4-0.8,1-0.8C32.1,17,32.6,17,33.2,17z"/>
	<path class="st14" d="M11.1,20.1c0-0.3,0-0.6,0-1c0.2-0.8,0.9-1.4,1.7-1.4c0.9,0,1.8,0,2.7,0c-0.5,0.2-1,0.5-1.2,1
		c-0.1,0.2-0.1,0.5-0.1,0.7c0,0.7,0,1.4,0,2.1c-0.7,0.7-0.6,1.6-0.6,2.4c0,1,0,2.1,0,3.1c0,0.9,0,1.7,0.6,2.4c0,0.6,0.1,1.2,0,1.8
		c-0.1,1.1,0.3,1.8,1.3,2.3c-0.9,0-1.7,0-2.6,0c-0.7,0-1.1-0.4-1.5-0.9c-0.2-0.4-0.2-0.8-0.2-1.3c0-1.8,0-3.6,0-5.4
		c-0.2-0.4-0.1-0.9-0.1-1.4c0-0.1,0-0.1,0-0.2c0-1.4,0-2.7,0-4.1C10.9,20.4,10.9,20.2,11.1,20.1z"/>
	<path class="st14" d="M19.3,33.7c1,0,2.1,0,3.1,0c0.1,0.1,0.1,0.2,0.1,0.4c0.1,1.2,0.7,2.1,1.8,2.7c0.1,0.1,0.4,0.1,0.3,0.4
		c-0.6,0.2-1.2,0.1-1.9,0.1c-0.2,0-0.4,0-0.6-0.1C20.6,37,19.3,35.5,19.3,33.7z"/>
	<path class="st14" d="M22.2,37.1c0.7,0,1.3,0,2,0c0.2,0,0.3,0.1,0.4-0.1c0.6,0,1.2-0.2,1.9-0.2c0.2,0,0.3,0,0.5,0
		c0.7,0,0.8,0.1,0.8,0.8c0.2,0.6,0.2,1.2,0,1.9c0,0.7-0.1,0.8-0.8,0.8c-0.6,0-1.3,0-1.9,0c0,0-0.1,0-0.1,0c-0.2-0.2-0.2-0.4-0.2-0.6
		c0-0.6,0-1.2,0-1.7c0-0.4-0.2-0.5-0.5-0.5c-0.4,0-0.7,0-1.1,0c-0.2,0-0.4,0-0.5-0.1l0,0c0,0,0,0,0,0C22.4,37.2,22.3,37.2,22.2,37.1
		z"/>
	<path class="st14" d="M34.2,36.8c2.2,0,4.4,0,6.6,0c0.4,0,0.6,0.2,0.6,0.6c0,0.6,0,1.2,0,1.8c-0.2,0.2-0.4,0.2-0.6,0.2
		c-1.9,0-3.7,0-5.6,0c-0.9,0-1.1-0.2-1.1-1.1C34.1,37.8,34,37.3,34.2,36.8z"/>
	<path class="st12" d="M26.5,36.8c-0.6,0.2-1.2,0.5-1.9,0.2c-1.5-0.6-2.3-1.7-2.2-3.3c1.8,0,3.5,0,5.3,0c0.5,0,0.4,0.3,0.4,0.6
		C28,35.4,27.4,36.2,26.5,36.8z"/>
	<path class="st17" d="M34.2,36.8c0,0.6,0,1.1,0,1.7c0,0.6,0.1,0.7,0.7,0.7c2.1,0,4.3,0,6.4,0c0,0.9,0,1-0.9,1c-2.5,0-5,0-7.5,0
		c-0.7,0-0.8-0.1-0.8-0.8c-0.2-0.6-0.2-1.2,0-1.9c0-0.7,0.1-0.8,0.8-0.8C33.4,36.8,33.8,36.8,34.2,36.8z"/>
	<path class="st12" d="M32.2,37.6c0,0.6,0,1.2,0,1.9c-1.5,0-3,0-4.4,0c0-0.6,0-1.2,0-1.9C29.2,37.6,30.7,37.6,32.2,37.6z"/>
	<path class="st13" d="M11.1,24.8c0,0.5,0,0.9,0,1.4c-3,0-6,0-8.9,0c-0.2,0-0.4,0.1-0.6-0.1c0.8,0,1.6,0,2.4,0c0.3,0,0.5,0,0.4-0.4
		c-0.1-0.3,0-0.6,0-1c0.5-0.3,1.1-0.1,1.7-0.1c1.5,0,3,0,4.6,0C10.8,24.7,10.9,24.7,11.1,24.8z"/>
	<path class="st18" d="M22.6,37.2c0.6,0,1.3,0,1.9,0c0.4,0,0.5,0.1,0.5,0.5c0,0.8,0,1.7,0,2.5c0,0.9,0,1.8,0,2.7
		c0,0.3-0.1,0.4-0.4,0.4c-0.5,0-1,0-1.5,0c-0.4,0-0.4-0.1-0.4-0.5C22.6,41,22.6,39.1,22.6,37.2z"/>
	<path class="st10" d="M6,24.8c-0.5,0-1.1,0-1.6,0c-0.4,0-0.8,0-1.3,0c-0.1,0-0.3,0-0.4-0.1c-0.1-0.2,0-0.3,0.1-0.4
		c0.5-0.7,1-1.4,1.5-2.2c0.5-0.6,0.9-1.2,1.4-1.9c0.2-0.3,0.4-0.4,0.7,0c0.5,0.7,0.9,1.3,1.4,2c0.1,0.1,0.1,0.2,0,0.3
		c-0.5,0.7-1,1.5-1.6,2.2C6.1,24.7,6.1,24.7,6,24.8z"/>
	<path class="st19" d="M4.2,19.9c-0.5,0.3-1,0.3-1.3-0.1c-0.4-0.4-0.4-0.9-0.1-1.4c0.3-0.4,0.8-0.6,1.3-0.3c0,0,0,0.1,0,0.1
		C3.6,19.1,3.6,19.2,4.2,19.9z"/>
	<path class="st20" d="M4.2,19.9c-0.8-0.2-0.8-1.3-0.1-1.8c0,0,0.1,0,0.1,0c0.6,0.6,0.6,1,0.1,1.7C4.3,19.8,4.3,19.9,4.2,19.9z"/>
	<path class="st12" d="M30.8,31c-0.9,0.6-1.8,1.1-2.9,1.2c-2.2,0.3-4.1-0.4-5.5-2.1C21.4,29,21,27.7,21,26.3c0-3,2.2-5.5,5.1-5.9
		c3.3-0.5,6.4,1.8,6.9,5.1c0.1,1,0,1.9-0.3,2.9c-0.1,0.7-0.5,1.2-0.9,1.7C31.5,30.4,31.3,30.8,30.8,31z"/>
	<path class="st14" d="M30.8,31c0.8-0.8,1.5-1.7,1.9-2.7c1,0.5,1.2,1.6,0.7,2.5C32.8,31.6,31.7,31.7,30.8,31z"/>
	<path class="st21" d="M34.2,22c-0.5,0.2-1,0.1-1.2-0.2c-0.3-0.4-0.3-0.9,0.1-1.2c0.3-0.4,0.8-0.4,1.2-0.2c-0.2,0.2-0.4,0.4-0.5,0.7
		C33.7,21.5,34,21.7,34.2,22z"/>
	<path class="st9" d="M34.2,22c-0.4-0.1-0.6-0.4-0.6-0.8c0-0.4,0.2-0.7,0.6-0.8C34.9,20.8,34.9,21.5,34.2,22z"/>
	<path class="st4" d="M14.2,29.6c-0.5-0.3-0.8-0.8-0.8-1.4c0-1.7,0-3.4,0-5.2c0-0.6,0.2-1.1,0.8-1.4c1-0.6,2.2,0.2,2.2,1.4
		c0,1.7,0,3.4,0,5.2C16.3,29.3,15.1,30.1,14.2,29.6z"/>
	<path class="st11" d="M6,24.8c0.5-0.8,1.1-1.5,1.6-2.3c0.1-0.1,0.1-0.2,0.1-0.3c0.7-0.8,1.3-1.7,1.9-2.6c0.1-0.1,0.1-0.2,0.2-0.3
		c0.2-0.3,0.4-0.3,0.6,0c0.2,0.3,0.4,0.5,0.6,0.8c0,0.2,0,0.3,0,0.5c-0.5,1-1.3,1.9-2,2.9c-0.2,0.4-0.5,0.7-0.8,1.1
		c0.2,0.1,0.3,0.1,0.5,0.1c0.6,0,1.1,0,1.7,0c0.2,0,0.4,0,0.5,0.1c0,0,0,0.1,0,0.1C9.4,24.8,7.7,24.9,6,24.8z"/>
	<path class="st9" d="M11,24.7c-1,0-1.9,0-2.9,0c0.1-0.4,0.4-0.7,0.6-1c0.7-1,1.4-2,2.1-2.9c0.1-0.1,0.1-0.1,0.2-0.2
		C11.1,21.9,11.1,23.3,11,24.7z"/>
	<path class="st14" d="M28.1,23c1.5,0.7,2.4,1.8,2.3,3.4c-0.1,1.5-0.9,2.6-2.3,3.1c-1.3-0.6-2.1-1.7-2.1-3.2
		C26,24.8,26.7,23.7,28.1,23z"/>
	<path class="st17" d="M28.1,23c0,0.2-0.2,0.2-0.3,0.3c-1.8,1.1-2.3,3.2-1.2,4.9c0.3,0.4,0.6,0.8,1.1,1.1c0.1,0.1,0.3,0.1,0.3,0.3
		c-2.1,0.7-4-0.7-4.5-2.4c-0.5-1.9,0.7-4,2.7-4.3C27,22.7,27.5,22.8,28.1,23z"/>
</g>
</svg>
