<?xml version="1.0" encoding="utf-8"?>
<!-- Generator: Adobe Illustrator 23.0.0, SVG Export Plug-In . SVG Version: 6.00 Build 0)  -->
<svg version="1.1" id="Capa_1" xmlns="http://www.w3.org/2000/svg" xmlns:xlink="http://www.w3.org/1999/xlink" x="0px" y="0px"
	 width="512px" height="341.3px" viewBox="0 0 512 341.3" style="enable-background:new 0 0 512 341.3;" xml:space="preserve">
<style type="text/css">
	.st0{clip-path:url(#SVGID_2_);}
	.st1{fill-rule:evenodd;clip-rule:evenodd;fill:#FFFFFF;}
	.st2{fill-rule:evenodd;clip-rule:evenodd;}
	.st3{fill-rule:evenodd;clip-rule:evenodd;fill:#F30000;}
	.st4{fill-rule:evenodd;clip-rule:evenodd;fill:#005623;}
</style>
<g>
	<defs>
		<rect id="SVGID_1_" x="25" y="0.1" width="455.6" height="341.7"/>
	</defs>
	<clipPath id="SVGID_2_">
		<use xlink:href="#SVGID_1_"  style="overflow:visible;"/>
	</clipPath>
	<g transform="matrix(1.25 0 0 1.25 0 -80)" class="st0">
		<path class="st1" d="M20,18.5h364.5V383H20V18.5z"/>
		<path class="st2" d="M20,261.5h364.5V383H20V261.5z"/>
		<path class="st3" d="M20,18.5h364.5V140H20V18.5z"/>
		<path class="st4" d="M367.1,220.7l-15-10.9l-15,11l5.7-17.7l-15.1-10.8l18.6,0l5.6-17.7l5.8,17.6l18.6-0.1l-15,10.9L367.1,220.7z"
			/>
		<path class="st4" d="M157.6,184.5c0.2,17.3,0,28.5,0,32c-1.8,2.1-3.5,4.2-5.1,6.3c-0.6-0.5-0.8-0.5-0.8-1.4c0-0.9-0.2-23.7,0-32
			C154.5,188.1,156.3,184.2,157.6,184.5L157.6,184.5z M151.2,184.2c1.4-2.3,2.9-4.6,4-5.7c1.1,0.6,0.9,2.3,1.1,2.8
			c-1.1,1.5-3.7,4-4.5,4.8C151.5,185.6,151.8,185.7,151.2,184.2L151.2,184.2z M159,164.4c-9.4,6.2-20.1,13.6-24,16.9
			c-3.9,3.2-5.3,5.3-5.3,10.8c0,5.6,0.2,11.9-0.3,14.9c-0.5,2.9-1.9,6-5.3,3.2c-3.4-2.8-5.9-5.6-7.4-6.8c-1.5-1.2-4.3-2.9-8,0.3
			c-3.7,3.2-21,21.5-24.3,23.5c-3.2,2-3.9,2.5-6.2,3.7c4.8,0.3,10.2,0.6,14.5-0.3c5.7-4.2,12.4-13.6,14.5-15.9
			c2.2-2.3,4.3-7.3,9.1-1.9c4.8,5.4,4.6,5.6,7,7.3c2.3,1.7,5.3,1.4,7.3-2c2-3.4,2.2-5,2.9-10.5c0.8-5.6,1.2-12.5,2.5-15.6
			c1.2-3.1,3.7-6.2,7.9-8.7c4.2-2.5,5-2.6,5.9-3.1c1.9-3.6,6.3-11.9,8.2-13.9C158.8,165.3,159,164.9,159,164.4L159,164.4z
			 M117,220.7c-2.3-1.5-3.1-2.8-4.3-2.6s-3.9,3.7-5.4,4.6c2,1.7,3.9,3.2,5.4,2.9C114.2,225.4,115.3,221.9,117,220.7z M313,177.2
			c-3.2,0.8-5,5.1-7.7,8c-0.3,8.7-0.3,35.6-0.3,39.1c2.8-3.2,4.5-5.1,6.5-6.3C312,203.7,313.7,183.6,313,177.2L313,177.2z
			 M297.7,177.1c-3.9,2.5-4.8,5-8,7.7c-0.2,10.4,0.3,25.1-0.5,27.1c-0.8,2-2.5,6.2-6.7,5.7c-4.2-0.5-5.4-1.2-5.4-5.6
			s0.9-32,0.9-36.5c-3.2,1.5-6,6.3-8.4,8.4c0,10.8,0.5,24.6,0.2,27.5c-0.3,2.9-1.5,7.7-6.8,7.6c-5.3-0.2-8-2.8-8-5.9
			c0-3.1-0.2-23.4,0.2-26.9c-4.6,3.2-15.5,9.7-17.6,18.1c-2.2,8.4,1.2,10.8,4.3,9.3c3.1-1.5,4.5-2.9,6.2-4.2
			c0.5,5.3,0.6,11,5.9,14.4c5.3,3.4,11.9,2.2,14.4,0.3c2.5-1.9,3.4-3.1,4-4c4.6,3.6,11.4,5.4,15.9,1.5c4.5-3.9,7-7.7,7.4-12.1
			C296.2,205.2,298.3,183,297.7,177.1L297.7,177.1z M249.1,198.1c-4.6,2.2-6.7,5.4-5.4,7.4c1.2,2,3.7-0.3,5.4-1.1
			C248.8,201.4,249.1,199.7,249.1,198.1L249.1,198.1z M279,165.3c-1.1,3.6-1.9,2.9-3.2,3.1c-1.4,0.2-2.3-1.2-3.4-2.5
			c-1.1,0.2-1.2,0.5-2,0.8c2.5,3.6,4.3,5.1,7.3,4.3c2.9-0.8,3.1-3.4,3.1-4.8C280.2,165.9,280.1,165.8,279,165.3L279,165.3z
			 M276.4,160.8c-1.4,0.5-1.7,0.8-2.2,2c0.8,1.7,1.9,2.6,2.9,2.2c1.1-0.5,1.2-2.3,0.6-2.8C277.2,161.8,277.5,161.5,276.4,160.8
			L276.4,160.8z"/>
		<path class="st4" d="M64.5,220.7l-15-10.9l-15,11l5.7-17.7l-15.1-10.8l18.6,0l5.6-17.7l5.8,17.6l18.6-0.1l-15,10.9L64.5,220.7z
			 M215.5,220.7l-15-10.9l-15,11l5.7-17.7l-15.1-10.8l18.6,0l5.6-17.7l5.8,17.6l18.6-0.1l-15,10.9L215.5,220.7z"/>
	</g>
</g>
</svg>
