<?xml version="1.0" encoding="utf-8"?>
<!-- Generator: Adobe Illustrator 23.0.0, SVG Export Plug-In . SVG Version: 6.00 Build 0)  -->
<svg version="1.1" id="Capa_1" xmlns="http://www.w3.org/2000/svg" xmlns:xlink="http://www.w3.org/1999/xlink" x="0px" y="0px"
	 width="512px" height="341.3px" viewBox="0 0 512 341.3" style="enable-background:new 0 0 512 341.3;" xml:space="preserve">
<style type="text/css">
	.st0{fill:#CF4044;}
</style>
<g>
	<path class="st0" d="M116.9,293.3V49.7H0.7v243.6H116.9z M513.2,293.3V49.7H397.4v243.6H513.2z M255.8,282.6h-9.7v-46.8l-52.6,4.9
		l9.7-18.8l-57-41.8l15.1-8.5l-14.6-40l31.2,7.6l11.6-16l39.6,39.6l-21-76.2l25,14.2l22.7-41l22.7,41l25.4-14.2l-21.4,76.2
		l40.1-39.6l11.6,16l30.7-7.6l-14.7,40l15.6,8.5l-57.5,41.8l10.2,18.8l-52.6-4.9v46.8H255.8z"/>
</g>
</svg>
