<?xml version="1.0" encoding="utf-8"?>
<!-- Generator: Adobe Illustrator 23.0.0, SVG Export Plug-In . SVG Version: 6.00 Build 0)  -->
<svg version="1.1" id="Capa_1" xmlns="http://www.w3.org/2000/svg" xmlns:xlink="http://www.w3.org/1999/xlink" x="0px" y="0px"
	 width="512px" height="341.3px" viewBox="0 0 512 341.3" style="enable-background:new 0 0 512 341.3;" xml:space="preserve">
<style type="text/css">
	.st0{fill-rule:evenodd;clip-rule:evenodd;fill:#00006A;}
	.st1{fill-rule:evenodd;clip-rule:evenodd;fill:#FFFFFF;}
	.st2{fill-rule:evenodd;clip-rule:evenodd;fill:#FF0000;}
</style>
<g>
	<path class="st0" d="M31.6,0.7h460v345h-460V0.7z"/>
	<path class="st1" d="M31.6,0.7l229.3,218.8h47L83.6,0.8L31.6,0.7z"/>
	<path class="st2" d="M290.7,219.4L66.2,0.7L48.8,0.9l225.3,218.5H290.7L290.7,219.4z"/>
	<path class="st1" d="M307.8,0.7L78.5,219.4h-47L255.9,0.8L307.8,0.7L307.8,0.7z"/>
	<path class="st2" d="M290.7,0.7L66.2,219.4H48.8L274.1,0.7H290.7L290.7,0.7z"/>
	<path class="st1" d="M147.6,0.7h44.2v218.8h-44.2V0.7z"/>
	<path class="st1" d="M31.6,88.2h276.3v43.8H31.6V88.2z"/>
	<path class="st2" d="M157.3,0.7h24.9v218.8h-24.9V0.7z"/>
	<path class="st2" d="M31.6,99.1h276.3V121H31.6V99.1z"/>
	<g>
		<path class="st1" d="M405.3,129.6l-14.1-10.4l-14.6,9.6l5.5-16.6l-13.7-11l17.4,0.1l6.2-16.4l5.3,16.7l17.4,0.8l-14.2,10.2
			L405.3,129.6z"/>
		<path class="st2" d="M399.6,121.1l-8.4-6l-8.5,5.7l3.1-9.8l-8.1-6.4l10.2-0.1l3.5-9.7l3.2,9.8l10.2,0.4l-8.3,6.1L399.6,121.1z"/>
		<path class="st1" d="M351.3,219.2l-14.1-10.4l-14.6,9.7l5.5-16.6l-13.7-11l17.4,0.1l6.2-16.4l5.3,16.7l17.4,0.8l-14.2,10.2
			L351.3,219.2z"/>
		<path class="st2" d="M345.7,210.8l-8.4-6l-8.5,5.8l3.1-9.8l-8.1-6.4l10.2-0.1l3.5-9.7l3.2,9.8l10.2,0.4l-8.3,6.1L345.7,210.8z"/>
		<g>
			<path class="st1" d="M461.8,210.4l-14.1-10.4l-14.6,9.7l5.5-16.6l-13.7-11l17.4,0.1l6.2-16.4l5.3,16.7l17.4,0.8l-14.2,10.2
				L461.8,210.4z"/>
			<path class="st2" d="M456.2,201.9l-8.4-6l-8.5,5.7l3.1-9.8l-8.1-6.4l10.2-0.1l3.5-9.7l3.2,9.8l10.2,0.4l-8.3,6.1L456.2,201.9z"/>
		</g>
		<g>
			<path class="st1" d="M404.1,337.9l-14.1-10.4l-14.6,9.6l5.5-16.6l-13.7-11l17.4,0.1l6.2-16.4l5.3,16.7l17.4,0.8l-14.2,10.2
				L404.1,337.9z"/>
			<path class="st2" d="M398.4,329.5l-8.4-6l-8.5,5.8l3.1-9.8l-8.1-6.4l10.2-0.1l3.5-9.7l3.2,9.8l10.2,0.4l-8.3,6.1L398.4,329.5z"/>
		</g>
	</g>
</g>
</svg>
