<?xml version="1.0" encoding="utf-8"?>
<!-- Generator: Adobe Illustrator 23.0.0, SVG Export Plug-In . SVG Version: 6.00 Build 0)  -->
<svg version="1.1" id="Capa_1" xmlns="http://www.w3.org/2000/svg" xmlns:xlink="http://www.w3.org/1999/xlink" x="0px" y="0px"
	 width="512px" height="341.3px" viewBox="0 0 512 341.3" style="enable-background:new 0 0 512 341.3;" xml:space="preserve">
<style type="text/css">
	.st0{fill:#FFFFFF;}
	.st1{fill:#DC1F2B;}
	.st2{fill:#1B304F;}
</style>
<g>
	<path class="st0" d="M-1,22.4h512v296H-1V22.4z"/>
	<g>
		<path class="st1" d="M-1,22.4h512v22.8H-1V22.4z M-1,67.9h512v22.8H-1V67.9z M-1,113.5h512v22.8H-1V113.5z M-1,159h512v22.8H-1
			V159z M-1,204.5h512v22.8H-1V204.5z M-1,250.1h512v22.8H-1V250.1z M-1,295.6h512v22.8H-1V295.6z"/>
	</g>
	<path class="st0" d="M-1,22.4h226.4v160H-1V22.4z"/>
	<path class="st2" d="M-1,22.4v160h226.3v-160C225.3,22.4-1,22.4-1,22.4z M23.8,172.4l-5.4-3.9l-5.4,3.9l2-6l-5.4-3.9h6.7l0.7-2.3
		l1.3-4l1.3,4l0.8,2.3H27l-5.2,3.9L23.8,172.4z M21.8,134.4l0.8,2.6l1.3,3.8l-5.3-3.8l-5.2,3.8l1.2-3.8l0.4-2.6l-5.4-3.9h6.7l2-6.3
		l2.1,6.3H27L21.8,134.4z M21.8,103l2.1,6.3l-5.4-3.9l-5.4,3.9l1.9-6.4L9.6,99h6.7l2-6.3l2.1,6.3H27L21.8,103z M26.3,68.2l-4.5,3.3
		l2.1,6.3L18.5,74l-5.4,3.8l1.9-6.4l-4.6-3.3l-0.9-0.6h6.7l2-6.3l2.1,6.3H27L26.3,68.2z M21.8,39.4l1.9,5.9v0.4L23,45.2l-4.9-3.5
		l-4.9,3.5l-0.5,0.4v-0.4l2.2-5.9l-5.4-3.9h6.7l2-6.4l2.1,6.4H27L21.8,39.4z M42.6,156.4l-5.4-3.9l-5.4,3.9l2.1-6l-5.4-3.9h6.6
		l2.1-6.4l2,6.4H46l-5.4,3.9L42.6,156.4z M40.5,118.4l2.1,6.3l-5.4-3.8l-5.4,3.8l2.1-6.3l-5.4-3.9h6.6l2-6l1.9,6h6.7L40.5,118.4z
		 M40.5,87l1.4,4.2l0.7,2.2l-3-2.2l-2.4-1.8l-2.5,1.8l-3,2.2l0.7-2.2l1.4-4.2l-5.4-3.9H35l2.1-6.3l1.8,6.2h6.7L40.5,87z M40.5,55.5
		l2.1,6.4L37.2,58l-5.4,3.9l2.1-6.4l-5.4-3.9h6.6l2-6.2l1.8,6h6.7L40.5,55.5z M61.3,172.5l-5.4-3.9l-5.4,3.9l2-6.2l-5.6-4.3h6.6
		l0.8-2.3l1.3-4l1.3,4l0.8,2.3h6.6l-5.1,4.3L61.3,172.5z M59.3,134.4l0.8,2.6l1.2,3.8l-5.2-3.8l-5.2,3.8l1.2-3.8l0.5-2.6l-5.6-4h6.6
		l2.1-6.3l2.1,6.3h6.6L59.3,134.4z M59.3,103l2,6.3l-5.4-3.9l-5.4,3.9l2-6.3l-5.6-4h6.6l2.1-6.3l2.1,6.3h6.6L59.3,103z M63.8,68.1
		l-4.5,3.3l2,6.3l-5.4-3.8l-5.4,3.8l2-6.3L48,68.1l-1.1-0.6h6.6l2.1-6.3l2.1,6.3h6.6L63.8,68.1z M59.3,39.3l1.9,5.9v0.4l-0.5-0.4
		l-4.9-3.5l-4.9,3.5l-0.5,0.4v-0.4l1.9-5.9l-5.4-3.9h6.6l2.1-6.4l2.1,6.4h6.6L59.3,39.3z M80.1,156.3l-5.4-3.9l-5.4,3.9l2.1-5.9
		l-5.4-3.9h6.7l2-6.4l2.1,6.4h6.6l-5.4,3.9L80.1,156.3z M78,118.4l2.1,6.3l-5.4-3.8l-5.4,3.8l2.1-6.3l-5.4-3.9h6.7l1.9-6l1.9,6h6.6
		L78,118.4z M78,87l1.4,4.2l0.7,2.2l-3-2.2l-2.5-1.8l-2.4,1.8l-3,2.2l0.7-2.2l1.4-4.2l-5.4-3.9h6.7l2-6.3l2.1,6.3h6.6L78,87z
		 M78,55.5l2.1,6.4L74.7,58l-5.4,3.9l2.1-6.4L66,51.6h6.7l2-6.2l2,6.2h6.6L78,55.5z M98.8,172.5l-5.4-3.9l-5.4,3.9l2.1-6.4l-5.4-3.9
		h6.6l0.8-2.3l1.3-4l1.3,4l0.7,2.3h6.7l-5.4,3.9L98.8,172.5z M96.8,134.4l0.9,2.6l1.2,3.8l-5.2-3.8l-5.3,3.8l1.3-3.8l0.8-2.6
		l-5.4-3.9h6.6l2.1-6.3l2,6.3h6.7L96.8,134.4z M96.8,103l2.1,6.3l-5.4-3.9l-5.4,3.9l2.1-6.3l-5.4-3.9h6.6l2.1-6.3l2,6.3h6.7
		L96.8,103z M101.3,68.2l-4.6,3.3l2.1,6.3L93.4,74L88,77.8l2.1-6.3l-4.5-3.3l-0.9-0.6h6.6l2.1-6.3l2,6.3h6.7L101.3,68.2z M96.8,39.4
		l2,5.9v0.4l-0.5-0.4l-4.9-3.5l-4.9,3.5l-0.6,0.4v-0.4l1.9-5.9l-5.4-3.9H91l2.1-6.4l2,6.4h6.7L96.8,39.4z M117.6,156.4l-5.4-3.9
		l-5.4,3.9l2-6.3l-5.4-3.9h6.6l2.1-6.4l2.1,6.4h6.6l-5.4,3.9L117.6,156.4z M115.6,118.4l2,6.3l-5.4-3.8l-5.4,3.8l2-6.3l-5.4-3.9h6.6
		l1.9-6l1.9,6h6.6L115.6,118.4z M115.6,87l1.4,4.2l0.6,2.2l-2.9-2.2l-2.5-1.8l-2.5,1.8l-2.9,2.2l0.6-2.2l1.4-4.2l-5.4-3.9h6.6
		l2.1-6.3l2.1,6.3h6.6L115.6,87z M115.6,55.5l2,6.4l-5.4-3.9l-5.4,3.9l2-6.4l-5.4-3.9h6.6l2-6.2l2,6.2h6.6L115.6,55.5z M136.4,172.5
		l-5.4-3.9l-5.4,3.9l2.1-6.4l-5.4-3.9h6.7l0.7-2.3l1.3-4l1.4,4l0.7,2.3h6.6l-5.4,3.9L136.4,172.5z M134.3,134.4l0.8,2.6l1.3,3.8
		l-5.3-3.8l-5.3,3.8l1.2-3.8l0.9-2.6l-5.4-3.9h6.7l2-6.3l2.1,6.3h6.6L134.3,134.4z M134.3,103l2.1,6.3l-5.4-3.9l-5.4,3.9l2.1-6.3
		l-5.4-3.9h6.7l2-6.3l2.1,6.3h6.6L134.3,103z M138.8,68.2l-4.5,3.3l2.1,6.3L131,74l-5.4,3.8l2.1-6.3l-4.6-3.3l-0.9-0.6h6.7l2-6.3
		l2.1,6.3h6.6L138.8,68.2z M134.3,39.4l1.9,5.9v0.4l-0.6-0.4l-4.9-3.5l-4.9,3.5l-0.5,0.4v-0.4l1.9-5.9l-5.4-3.9h6.7l2-6.4l2.1,6.4
		h6.6L134.3,39.4z M155.1,156.4l-5.4-3.9l-5.4,3.9l2.1-6.3l-5.4-3.9h6.6l2.1-6.4l2,6.4h6.7l-5.4,3.9L155.1,156.4z M153,118.4
		l2.1,6.3l-5.4-3.8l-5.4,3.8l2.1-6.3l-5.4-3.9h6.6l1.9-6l1.9,6h6.7L153,118.4z M153,87l1.4,4.2l0.7,2.2l-3-2.2l-2.4-1.8l-2.5,1.8
		l-3,2.2l0.7-2.2l1.4-4.2l-5.4-3.9h6.6l2.1-6.3l2,6.3h6.7L153,87z M153,55.5l2.1,6.4l-5.4-3.9l-5.4,3.9l2.1-6.4l-5.4-3.9h6.6l2-6.2
		l2,6.2h6.7L153,55.5z M173.8,172.5l-5.4-3.9l-5.4,3.9l2-6.4l-5.4-3.9h6.6l0.8-2.3l1.3-4l1.3,4l0.8,2.3h6.6l-5.4,4.2L173.8,172.5z
		 M171.8,134.4l0.8,2.6l1.2,3.8l-5.2-3.8l-5.2,3.8l1.2-3.8l0.8-2.6l-5.4-3.9h6.6l2.1-6.3l2.1,6.3h6.6L171.8,134.4z M171.8,103l2,6.3
		l-5.4-3.9l-5.4,3.9l2-6.3l-5.4-3.9h6.6l2.1-6.3l2.1,6.3h6.6L171.8,103z M176.3,68.2l-4.5,3.3l2,6.3l-5.4-3.8l-5.4,3.8l2-6.3
		l-4.5-3.3l-0.9-0.6h6.6l2.1-6.3l2.1,6.3h6.6L176.3,68.2z M171.8,39.4l1.9,5.9v0.4l-0.5-0.4l-4.9-3.5l-4.9,3.5l-0.5,0.4v-0.5
		l1.9-5.9l-5.4-3.9h6.6l2.1-6.4l2.1,6.4h6.6L171.8,39.4z M192.6,156.4l-5.4-3.9l-5.4,3.9l2.1-6.3l-5.4-3.9h6.7l2-6.4l2.1,6.4h6.6
		l-5.4,3.9L192.6,156.4z M190.5,118.4l2.1,6.3l-5.4-3.8l-5.4,3.8l2.1-6.3l-5.4-3.9h6.7l1.9-6l2,6h6.6L190.5,118.4z M190.5,87
		l1.4,4.2l0.7,2.2l-3-2.2l-2.5-1.8l-2.4,1.8l-3,2.2l0.7-2.2l1.4-4.2l-5.4-3.9h6.7l2-6.3l2.1,6.3h6.6L190.5,87z M190.5,55.5l2.1,6.4
		l-5.4-3.9l-5.4,3.9l2.1-6.4l-5.4-3.9h6.7l2-6.2l2,6.2h6.6L190.5,55.5z M211.3,172.5l-5.4-3.9l-5.4,3.9l2.1-6.4l-5.4-3.9h6.6
		l0.8-2.3l1.3-4l1.3,4l0.7,2.3h7l-5.4,3.9L211.3,172.5z M209.2,134.4l0.9,2.6l1.2,3.8l-5.2-3.8l-5.3,3.8l1.3-3.8l0.8-2.6l-5.4-3.9
		h6.6l2.1-6.3l2,6.3h6.7L209.2,134.4z M209.2,103l2.1,6.3l-5.4-3.9l-5.4,3.9l2.1-6.3l-5.4-3.9h6.6l2.1-6.3l2,6.3h7L209.2,103z
		 M213.8,68.2l-4.6,3.3l2.1,6.3L206,74l-5.4,3.8l2.1-6.3l-4.5-3.3l-0.9-0.6h6.6l2.1-6.3l2,6.3h7L213.8,68.2z M209.2,39.4l2,5.9v0.4
		l-0.5-0.4l-4.9-3.5l-4.9,3.5l-0.6,0.4v-0.4l1.9-5.9l-5.4-3.9h6.6l2.1-6.4l2,6.4h7.3L209.2,39.4z"/>
</g>
</svg>
