<?xml version="1.0" encoding="utf-8"?>
<!-- Generator: Adobe Illustrator 25.4.1, SVG Export Plug-In . SVG Version: 6.00 Build 0)  -->
<svg version="1.1" id="Layer_1" xmlns="http://www.w3.org/2000/svg" xmlns:xlink="http://www.w3.org/1999/xlink" x="0px" y="0px"
	 viewBox="0 0 229.2 184.5" style="enable-background:new 0 0 229.2 184.5;" xml:space="preserve">
<style type="text/css">
	.st0{fill:url(#SVGID_1_);}
	.st1{fill:url(#SVGID_00000005974830804548755920000007602255679340597181_);}
	.st2{fill:url(#SVGID_00000147927797848006413260000009639571147411407013_);}
	.st3{opacity:0;fill:#EAF2FB;}
	.st4{opacity:2.292826e-02;fill:#E8F0F9;}
	.st5{opacity:4.585651e-02;fill:#E6EEF8;}
	.st6{opacity:6.878477e-02;fill:#E4ECF6;}
	.st7{opacity:9.171303e-02;fill:#E2EBF4;}
	.st8{opacity:0.1146;fill:#E0E9F3;}
	.st9{opacity:0.1376;fill:#DEE7F1;}
	.st10{opacity:0.1605;fill:#DCE5EF;}
	.st11{opacity:0.1834;fill:#DAE3ED;}
	.st12{opacity:0.2064;fill:#D8E1EC;}
	.st13{opacity:0.2293;fill:#D6DFEA;}
	.st14{opacity:0.2522;fill:#D4DEE8;}
	.st15{opacity:0.2751;fill:#D2DCE7;}
	.st16{opacity:0.2981;fill:#D0DAE5;}
	.st17{opacity:0.321;fill:#CED8E3;}
	.st18{opacity:0.3439;fill:#CCD6E2;}
	.st19{opacity:0.3669;fill:#CAD4E0;}
	.st20{opacity:0.3898;fill:#C8D2DE;}
	.st21{opacity:0.4127;fill:#C6D1DC;}
	.st22{opacity:0.4356;fill:#C4CFDB;}
	.st23{opacity:0.4586;fill:#C2CDD9;}
	.st24{opacity:0.4815;fill:#C0CBD7;}
	.st25{opacity:0.5044;fill:#BFC9D6;}
	.st26{opacity:0.5273;fill:#BDC7D4;}
	.st27{opacity:0.5503;fill:#BBC5D2;}
	.st28{opacity:0.5732;fill:#B9C3D1;}
	.st29{opacity:0.5961;fill:#B7C2CF;}
	.st30{opacity:0.6191;fill:#B5C0CD;}
	.st31{opacity:0.642;fill:#B3BECB;}
	.st32{opacity:0.6649;fill:#B1BCCA;}
	.st33{opacity:0.6878;fill:#AFBAC8;}
	.st34{opacity:0.7108;fill:#ADB8C6;}
	.st35{opacity:0.7337;fill:#ABB6C5;}
	.st36{opacity:0.7566;fill:#A9B5C3;}
	.st37{opacity:0.7796;fill:#A7B3C1;}
	.st38{opacity:0.8025;fill:#A5B1C0;}
	.st39{opacity:0.8254;fill:#A3AFBE;}
	.st40{opacity:0.8483;fill:#A1ADBC;}
	.st41{opacity:0.8713;fill:#9FABBA;}
	.st42{opacity:0.8942;fill:#9DA9B9;}
	.st43{opacity:0.9171;fill:#9BA8B7;}
	.st44{opacity:0.9401;fill:#99A6B5;}
	.st45{opacity:0.963;fill:#97A4B4;}
	.st46{opacity:0.9859;fill:#95A2B2;}
	.st47{opacity:0.7;fill:url(#SVGID_00000000221923625110211270000014429230324425154697_);}
	.st48{fill:url(#SVGID_00000023279644140812924570000003339018397059239561_);}
	.st49{fill:url(#SVGID_00000033352534076723224230000016217583414716043194_);}
	.st50{fill:url(#SVGID_00000092421744887599280470000011908800867245964452_);}
	.st51{fill:url(#SVGID_00000041288981709937124800000000460943167240349349_);}
	.st52{opacity:0.7;}
	.st53{fill:url(#SVGID_00000067955188421755578760000017925319970126692240_);}
	.st54{fill:url(#SVGID_00000010293122271904938090000010453730653863764656_);}
	.st55{fill:url(#SVGID_00000081609429637758129220000017059330183272334239_);}
</style>
<g>
	
		<linearGradient id="SVGID_1_" gradientUnits="userSpaceOnUse" x1="-1775.9685" y1="-37.4021" x2="-1832.9445" y2="198.7716" gradientTransform="matrix(0.8965 0.4431 -0.4431 0.8965 1710.1072 854.0361)">
		<stop  offset="0" style="stop-color:#F2F9FF"/>
		<stop  offset="6.386330e-02" style="stop-color:#DBE9F5"/>
		<stop  offset="0.3205" style="stop-color:#B6D1E8"/>
		<stop  offset="0.4701" style="stop-color:#A6C7E2"/>
		<stop  offset="0.6177" style="stop-color:#88ADCF"/>
		<stop  offset="0.6701" style="stop-color:#8BB0D1"/>
		<stop  offset="0.7073" style="stop-color:#94B9D7"/>
		<stop  offset="0.7334" style="stop-color:#A0C4DF"/>
		<stop  offset="0.9816" style="stop-color:#A6C7E2"/>
	</linearGradient>
	<path class="st0" d="M40.1,158.1l-34,9.6c-0.1,0-0.2,0-0.3,0.1c-0.4,0.1-0.7,0.1-1.1,0.1c-0.8,0-1.6-0.2-2.2-0.6l7.3,4.1
		c0.6,0.4,1.4,0.6,2.2,0.6c0.3,0,0.7-0.1,1.1-0.1c0,0,0.1,0,0.1,0c0.1,0,0.1,0,0.2-0.1l34-9.6L40.1,158.1z"/>
	
		<linearGradient id="SVGID_00000061433369076038551810000009659033917874652558_" gradientUnits="userSpaceOnUse" x1="-1710.7408" y1="-81.1194" x2="-1732.2141" y2="144.8607" gradientTransform="matrix(0.8965 0.4431 -0.4431 0.8965 1710.1072 854.0361)">
		<stop  offset="0" style="stop-color:#F2F9FF"/>
		<stop  offset="6.386330e-02" style="stop-color:#DBE9F5"/>
		<stop  offset="0.2684" style="stop-color:#B6D1E8"/>
		<stop  offset="0.3876" style="stop-color:#A6C7E2"/>
		<stop  offset="0.6116" style="stop-color:#949FC3"/>
		<stop  offset="0.7719" style="stop-color:#7F6B55"/>
		<stop  offset="0.7859" style="stop-color:#7F6E5B"/>
		<stop  offset="0.8045" style="stop-color:#81776C"/>
		<stop  offset="0.8258" style="stop-color:#838688"/>
		<stop  offset="0.8489" style="stop-color:#869BAE"/>
		<stop  offset="0.8659" style="stop-color:#88ADCF"/>
		<stop  offset="0.9141" style="stop-color:#8BAFD1"/>
		<stop  offset="0.9483" style="stop-color:#94B7D7"/>
		<stop  offset="0.9781" style="stop-color:#A4C5E0"/>
		<stop  offset="0.9816" style="stop-color:#A6C7E2"/>
	</linearGradient>
	<path style="fill:url(#SVGID_00000061433369076038551810000009659033917874652558_);" d="M217.8,129.9c0.1-0.2,0.2-0.4,0.4-0.7
		c0.2-0.3,0.3-0.6,0.5-0.9c0.5-1,1-1.9,1.5-2.9c0.1-0.2,0.2-0.5,0.4-0.7c0.1-0.1,0.1-0.2,0.2-0.3c0.5-1.1,1-2.3,1.5-3.4
		c0,0,0-0.1,0.1-0.1c0.5-1.2,1-2.4,1.4-3.7c0-0.1,0.1-0.2,0.1-0.3c0.1-0.3,0.2-0.6,0.3-1c0.3-1,0.7-2,1-3c0.1-0.4,0.3-0.9,0.4-1.3
		c0.3-0.9,0.5-1.9,0.8-2.9c0.1-0.4,0.2-0.8,0.3-1.2c0.3-1.4,0.6-2.7,0.9-4.1c0.3-1.6,0.6-3.2,0.8-4.7c0-0.2,0.1-0.4,0.1-0.6
		c0-0.3,0.1-0.6,0.1-0.9c0.1-0.4,0.1-0.8,0.1-1.2c0-0.3,0.1-0.5,0.1-0.8c0-0.3,0-0.6,0.1-0.9c0.1-0.7,0.1-1.5,0.2-2.2
		c0-0.5,0.1-1,0.1-1.5c0-0.7,0.1-1.5,0.1-2.2c0-0.5,0-0.9,0-1.4c0-0.8,0-1.5,0-2.3c0-0.4,0-0.8,0-1.2c0-1-0.1-1.9-0.2-2.9
		c0-0.2,0-0.4,0-0.5c0,0,0,0,0-0.1c-0.1-1.2-0.2-2.3-0.4-3.5c0-0.3-0.1-0.7-0.1-1c-0.1-0.8-0.2-1.6-0.4-2.4c0-0.1,0-0.3-0.1-0.4
		c0-0.1-0.1-0.3-0.1-0.4c-0.3-1.7-0.7-3.5-1.1-5.1c0-0.1,0-0.1,0-0.2c0-0.1-0.1-0.3-0.1-0.4c-0.4-1.4-0.8-2.9-1.3-4.3
		c0-0.1-0.1-0.2-0.1-0.3c0,0,0-0.1,0-0.1c-0.5-1.4-1-2.7-1.5-4.1c-0.1-0.1-0.1-0.3-0.2-0.5c-0.1-0.1-0.1-0.3-0.2-0.4
		c-0.5-1.3-1.1-2.5-1.7-3.8c0,0,0-0.1,0-0.1c0-0.1-0.1-0.2-0.2-0.3c-0.6-1.1-1.2-2.2-1.8-3.3c-0.1-0.2-0.2-0.3-0.3-0.5
		c-0.1-0.1-0.1-0.2-0.2-0.4c-0.7-1.2-1.4-2.3-2.2-3.5c0,0-0.1-0.1-0.1-0.1c-0.1-0.1-0.2-0.2-0.3-0.4c-0.7-1-1.4-2-2.2-3
		c-0.1-0.1-0.2-0.3-0.3-0.4c-0.1-0.1-0.1-0.2-0.2-0.2c-0.9-1.1-1.8-2.3-2.7-3.4c-0.1-0.1-0.1-0.2-0.2-0.3c-0.1-0.1-0.2-0.2-0.3-0.4
		c-1-1.2-2.1-2.3-3.2-3.5c0,0,0,0,0,0c0,0,0,0-0.1-0.1c-1.2-1.2-2.4-2.4-3.7-3.5c-0.1-0.1-0.2-0.2-0.3-0.3c-0.1-0.1-0.1-0.1-0.2-0.2
		c-0.3-0.3-0.7-0.6-1-0.9c-0.4-0.4-0.9-0.7-1.3-1.1c-0.4-0.3-0.7-0.6-1.1-0.9c-0.3-0.3-0.7-0.5-1-0.8c-0.1-0.1-0.2-0.2-0.3-0.2
		c-0.5-0.4-1-0.8-1.5-1.1c-0.4-0.3-0.8-0.6-1.1-0.8c-0.5-0.4-1.1-0.8-1.6-1.1c-0.3-0.2-0.6-0.4-0.9-0.6c-0.1,0-0.1-0.1-0.2-0.1
		c-0.6-0.4-1.2-0.8-1.9-1.2c-0.3-0.2-0.6-0.4-0.9-0.6c-0.9-0.6-1.9-1.1-2.8-1.7c0,0-0.1,0-0.1,0l-7.3-4.1c1,0.6,2,1.1,2.9,1.7
		c0.3,0.2,0.6,0.4,0.9,0.6c0.6,0.4,1.3,0.8,1.9,1.2c0.4,0.2,0.7,0.5,1.1,0.7c0.5,0.4,1.1,0.7,1.6,1.1c0.4,0.3,0.8,0.6,1.1,0.8
		c0.5,0.4,1,0.7,1.5,1.1c0.4,0.3,0.9,0.7,1.3,1c0.4,0.3,0.7,0.6,1.1,0.9c0.4,0.4,0.9,0.7,1.3,1.1c0.4,0.3,0.7,0.6,1.1,0.9
		c0.2,0.2,0.3,0.3,0.5,0.5c1.3,1.1,2.5,2.3,3.7,3.5c0,0,0.1,0.1,0.1,0.1c1.1,1.1,2.2,2.3,3.2,3.5c0.2,0.2,0.4,0.4,0.6,0.6
		c0.9,1.1,1.8,2.2,2.7,3.4c0.2,0.2,0.3,0.5,0.5,0.7c0.7,1,1.5,2,2.2,3c0.1,0.2,0.2,0.3,0.4,0.5c0.8,1.1,1.5,2.3,2.2,3.5
		c0.2,0.3,0.3,0.6,0.5,0.8c0.6,1.1,1.2,2.2,1.8,3.3c0.1,0.1,0.1,0.2,0.2,0.4c0.6,1.2,1.2,2.5,1.7,3.8c0.1,0.3,0.2,0.6,0.4,0.9
		c0.5,1.3,1.1,2.7,1.5,4.1c0,0.1,0.1,0.3,0.1,0.4c0.5,1.4,0.9,2.8,1.3,4.3c0.1,0.2,0.1,0.4,0.2,0.6c0.4,1.7,0.8,3.4,1.1,5.1
		c0.1,0.3,0.1,0.6,0.2,0.8c0.1,0.8,0.3,1.6,0.4,2.4c0,0.3,0.1,0.7,0.1,1c0.1,1.1,0.3,2.3,0.4,3.5c0,0.2,0,0.4,0,0.6
		c0.1,1,0.1,1.9,0.2,2.9c0,0.4,0,0.8,0,1.2c0,0.8,0,1.5,0,2.3c0,0.5,0,0.9,0,1.4c0,0.7,0,1.4-0.1,2.2c0,0.5-0.1,1-0.1,1.5
		c0,0.7-0.1,1.5-0.2,2.2c-0.1,0.5-0.1,1.1-0.2,1.6c0,0.4-0.1,0.8-0.1,1.2c-0.1,0.5-0.1,1-0.2,1.5c-0.2,1.6-0.5,3.1-0.8,4.7
		c-0.3,1.4-0.6,2.7-0.9,4.1c-0.1,0.4-0.2,0.8-0.3,1.2c-0.3,1-0.5,1.9-0.8,2.9c-0.1,0.4-0.3,0.9-0.4,1.3c-0.3,1-0.6,2-1,3
		c-0.1,0.3-0.2,0.6-0.3,1c-0.5,1.3-1,2.7-1.5,4c0,0,0,0.1-0.1,0.1c-0.5,1.3-1.1,2.5-1.7,3.8c-0.1,0.2-0.2,0.5-0.4,0.7
		c-0.5,1-1,2-1.5,2.9c-0.2,0.3-0.3,0.6-0.5,0.9c-0.3,0.6-0.6,1.1-0.9,1.6c-0.6,1-1.2,2-1.8,3c-0.3,0.5-0.7,1-1,1.6
		c-0.6,0.8-1.1,1.7-1.7,2.5c-0.4,0.5-0.7,1-1.1,1.5c-0.6,0.8-1.2,1.6-1.8,2.3c-0.4,0.5-0.7,1-1.1,1.4c-0.6,0.8-1.3,1.5-1.9,2.3
		c-0.4,0.4-0.7,0.9-1.1,1.3c-0.8,0.9-1.7,1.9-2.6,2.8c-0.2,0.2-0.4,0.4-0.6,0.6c-1.1,1.1-2.2,2.2-3.4,3.3c-0.3,0.3-0.6,0.6-0.9,0.8
		c-0.9,0.8-1.8,1.6-2.7,2.4c-0.4,0.4-0.8,0.7-1.3,1.1c-0.9,0.7-1.7,1.4-2.6,2.1c-0.5,0.4-1,0.7-1.4,1.1c-1,0.7-1.9,1.4-2.9,2.1
		c-0.5,0.3-0.9,0.6-1.4,0.9c-1.5,1-3.1,2-4.6,3c-0.1,0.1-0.2,0.1-0.3,0.2c-1.6,1-3.3,1.9-5,2.8c-0.6,0.3-1.2,0.6-1.8,0.9
		c-0.5,0.3-1,0.5-1.5,0.8c-0.8,0.4-1.6,0.8-2.5,1.2c-0.5,0.2-1,0.5-1.5,0.7c-0.7,0.3-1.4,0.6-2.1,0.9c-0.8,0.3-1.5,0.7-2.3,1
		c-0.7,0.3-1.4,0.5-2.1,0.8c-0.8,0.3-1.6,0.6-2.3,0.9c-0.5,0.2-1.1,0.4-1.6,0.6c-1.4,0.5-2.7,0.9-4.1,1.3c-0.5,0.2-1,0.3-1.6,0.5
		c-1.8,0.5-3.7,1-5.6,1.5c-0.1,0-0.2,0-0.3,0.1c-2,0.5-4,0.9-6,1.2c-0.5,0.1-1,0.2-1.6,0.3c-2.1,0.4-4.2,0.7-6.3,1c0,0-0.1,0-0.1,0
		c-2.1,0.3-4.2,0.4-6.3,0.6c-0.5,0-1.1,0.1-1.6,0.1c-2.2,0.1-4.3,0.2-6.5,0.3c-4.2,0-8.5-0.1-12.8-0.5c-17.2-1.5-32.8-6.2-45.9-13.6
		l7.4,4.1c13.1,7.3,28.7,12.1,45.9,13.6c4.3,0.4,8.6,0.5,12.8,0.5c2.2,0,4.3-0.1,6.5-0.3c0.5,0,1.1-0.1,1.6-0.1
		c2.1-0.2,4.2-0.3,6.3-0.6c0,0,0.1,0,0.1,0c2.1-0.3,4.2-0.6,6.3-1c0.5-0.1,1-0.2,1.6-0.3c2-0.4,4-0.8,6-1.3c0.1,0,0.1,0,0.2,0
		c0,0,0,0,0,0c1.9-0.4,3.7-0.9,5.6-1.5c0.5-0.2,1-0.3,1.6-0.5c1.4-0.4,2.7-0.9,4.1-1.3c0.3-0.1,0.7-0.2,1-0.3
		c0.2-0.1,0.4-0.2,0.7-0.3c0.8-0.3,1.6-0.6,2.3-0.9c0.7-0.3,1.4-0.5,2.1-0.8c0.8-0.3,1.5-0.6,2.3-1c0.5-0.2,1-0.4,1.5-0.6
		c0.2-0.1,0.4-0.2,0.6-0.3c0.5-0.2,1-0.5,1.5-0.7c0.8-0.4,1.6-0.8,2.5-1.2c0.5-0.3,1-0.5,1.5-0.8c0.4-0.2,0.7-0.4,1.1-0.6
		c0.2-0.1,0.5-0.3,0.7-0.4c1.7-0.9,3.4-1.9,5-2.8c0.1,0,0.2-0.1,0.3-0.1c0,0,0,0,0.1,0c1.6-1,3.1-2,4.6-3c0.2-0.1,0.3-0.2,0.5-0.3
		c0.3-0.2,0.6-0.4,0.9-0.6c1-0.7,2-1.4,2.9-2.1c0.3-0.2,0.5-0.4,0.8-0.6c0.2-0.2,0.4-0.3,0.6-0.5c0.9-0.7,1.8-1.4,2.6-2.1
		c0.3-0.3,0.6-0.5,0.9-0.8c0.1-0.1,0.2-0.2,0.3-0.3c0.9-0.8,1.8-1.6,2.7-2.4c0.3-0.2,0.5-0.5,0.8-0.7c0,0,0.1-0.1,0.1-0.1
		c1.1-1.1,2.3-2.2,3.4-3.3c0,0,0,0,0,0c0.2-0.2,0.4-0.4,0.5-0.6c0.9-0.9,1.7-1.8,2.6-2.8c0.1-0.1,0.1-0.1,0.2-0.2
		c0.3-0.4,0.6-0.7,0.9-1.1c0.6-0.8,1.3-1.5,1.9-2.3c0.1-0.1,0.2-0.2,0.3-0.3c0.3-0.4,0.5-0.7,0.8-1.1c0.6-0.8,1.2-1.6,1.8-2.3
		c0.1-0.2,0.3-0.4,0.4-0.5c0.2-0.3,0.4-0.7,0.7-1c0.6-0.8,1.1-1.7,1.7-2.5c0.2-0.3,0.4-0.5,0.5-0.8c0.2-0.3,0.3-0.5,0.5-0.8
		c0.6-1,1.2-2,1.8-3C217.4,130.5,217.6,130.2,217.8,129.9z"/>
	
		<linearGradient id="SVGID_00000079479673656967791910000000553053125786784419_" gradientUnits="userSpaceOnUse" x1="51.9547" y1="-1.5522" x2="91.2258" y2="168.1551" gradientTransform="matrix(0.9999 1.220000e-02 -1.220000e-02 0.9999 38.8462 27.5718)">
		<stop  offset="0" style="stop-color:#F2F9FF"/>
		<stop  offset="0.7955" style="stop-color:#C0D6F2"/>
		<stop  offset="0.999" style="stop-color:#B3CDEC"/>
	</linearGradient>
	<path style="fill:url(#SVGID_00000079479673656967791910000000553053125786784419_);" d="M121.3,0c4.2,0,8.5,0.1,12.8,0.5
		c57.4,4.9,96.6,46,86.1,98.7c-9.7,48.7-56.6,80.7-109,81.3c-4.2,0-8.5-0.1-12.8-0.5c-23-2-43.1-9.8-58.3-21.8l-34,9.6
		c-0.5,0.1-0.9,0.2-1.4,0.2c-3.8,0-6.1-4.4-3.8-8.5l16.6-29.5c-6.7-14.2-8.9-30.8-5.3-48.7C22,32.5,68.8,0.6,121.3,0z"/>
	<g>
		<path class="st3" d="M185.2,68c6.4,0.7,10.5,7,8.9,14.1c-1.4,6.7-7.3,11.8-13.3,11.8c-0.4,0-0.7,0-1.1-0.1
			c-6.5-0.7-10.5-7-8.9-14.1c1.4-6.8,7.3-11.8,13.4-11.8C184.5,67.9,184.8,67.9,185.2,68z M146.6,64.1c-6.1,0-11.9,5-13.3,11.8
			c-1.5,7.1,2.5,13.4,8.9,14.1c0.4,0,0.7,0.1,1.1,0.1c6.1,0,11.9-5,13.3-11.8c1.5-7.1-2.5-13.4-8.9-14.1
			C147.3,64.1,146.9,64.1,146.6,64.1z M109,60.2c-6.1,0-11.9,5-13.3,11.8c-1.5,7.1,2.5,13.4,8.9,14.1c0.4,0,0.7,0.1,1.1,0.1
			c6.1,0,11.9-5,13.3-11.8c1.5-7.1-2.5-13.4-8.9-14.1C109.7,60.3,109.3,60.3,109,60.2z"/>
		<path class="st4" d="M185.1,67.9c6.4,0.7,10.5,7,8.9,14.1c-1.4,6.7-7.3,11.8-13.3,11.8c-0.4,0-0.7,0-1.1-0.1
			c-6.5-0.7-10.5-7-8.9-14.1c1.4-6.8,7.3-11.8,13.4-11.8C184.4,67.8,184.8,67.9,185.1,67.9z M146.5,64c-6.1,0-11.9,5-13.3,11.8
			c-1.5,7.1,2.5,13.4,8.9,14.1c0.4,0,0.7,0.1,1.1,0.1c6.1,0,11.9-5,13.3-11.8c1.5-7.1-2.5-13.4-8.9-14.1C147.2,64,146.9,64,146.5,64
			z M108.9,60.2c-6.1,0-11.9,5-13.3,11.8c-1.5,7.1,2.5,13.4,8.9,14.1c0.4,0,0.7,0.1,1.1,0.1c6.1,0,11.9-5,13.3-11.8
			c1.5-7.1-2.5-13.4-8.9-14.1C109.6,60.2,109.3,60.2,108.9,60.2z"/>
		<path class="st5" d="M185.1,67.8c6.4,0.7,10.5,7,8.9,14.1c-1.4,6.7-7.3,11.8-13.3,11.8c-0.4,0-0.7,0-1.1-0.1
			c-6.5-0.7-10.5-7-8.9-14.1c1.4-6.8,7.3-11.8,13.4-11.8C184.4,67.8,184.7,67.8,185.1,67.8z M146.4,63.9c-6.1,0-11.9,5-13.3,11.8
			c-1.5,7.1,2.5,13.4,8.9,14.1c0.4,0,0.7,0.1,1.1,0.1c6.1,0,11.9-5,13.3-11.8c1.5-7.1-2.5-13.4-8.9-14.1
			C147.1,64,146.8,63.9,146.4,63.9z M108.9,60.1c-6.1,0-11.9,5-13.3,11.8C94,79,98,85.3,104.5,86c0.4,0,0.7,0.1,1.1,0.1
			c6.1,0,11.9-5,13.3-11.8c1.5-7.1-2.5-13.4-8.9-14.1C109.6,60.1,109.2,60.1,108.9,60.1z"/>
		<path class="st6" d="M185,67.7c6.4,0.7,10.5,7,8.9,14.1c-1.4,6.7-7.3,11.8-13.3,11.8c-0.4,0-0.7,0-1.1-0.1
			c-6.5-0.7-10.5-7-8.9-14.1c1.4-6.8,7.3-11.8,13.4-11.8C184.3,67.7,184.7,67.7,185,67.7z M146.4,63.8c-6.1,0-11.9,5-13.3,11.8
			c-1.5,7.1,2.5,13.4,8.9,14.1c0.4,0,0.7,0.1,1.1,0.1c6.1,0,11.9-5,13.3-11.8c1.5-7.1-2.5-13.4-8.9-14.1
			C147.1,63.9,146.7,63.9,146.4,63.8z M108.8,60c-6.1,0-11.9,5-13.3,11.8c-1.5,7.1,2.5,13.4,8.9,14.1c0.4,0,0.7,0.1,1.1,0.1
			c6.1,0,11.9-5,13.3-11.8c1.5-7.1-2.5-13.4-8.9-14.1C109.5,60,109.2,60,108.8,60z"/>
		<path class="st7" d="M185,67.7c6.4,0.7,10.5,7,8.9,14.1c-1.4,6.7-7.3,11.8-13.3,11.8c-0.4,0-0.7,0-1.1-0.1
			c-6.5-0.7-10.5-7-8.9-14.1c1.4-6.8,7.3-11.8,13.4-11.8C184.3,67.6,184.6,67.6,185,67.7z M146.3,63.8c-6.1,0-11.9,5-13.3,11.8
			c-1.5,7.1,2.5,13.4,8.9,14.1c0.4,0,0.7,0.1,1.1,0.1c6.1,0,11.9-5,13.3-11.8c1.5-7.1-2.5-13.4-8.9-14.1
			C147,63.8,146.7,63.8,146.3,63.8z M108.8,59.9c-6.1,0-11.9,5-13.3,11.8c-1.5,7.1,2.5,13.4,8.9,14.1c0.4,0,0.7,0.1,1.1,0.1
			c6.1,0,11.9-5,13.3-11.8c1.5-7.1-2.5-13.4-8.9-14.1C109.5,59.9,109.1,59.9,108.8,59.9z"/>
		<path class="st8" d="M184.9,67.6c6.4,0.7,10.5,7,8.9,14.1c-1.4,6.7-7.3,11.8-13.3,11.8c-0.4,0-0.7,0-1.1-0.1
			c-6.5-0.7-10.5-7-8.9-14.1c1.4-6.8,7.3-11.8,13.4-11.8C184.2,67.5,184.6,67.5,184.9,67.6z M146.3,63.7c-6.1,0-11.9,5-13.3,11.8
			c-1.5,7.1,2.5,13.4,8.9,14.1c0.4,0,0.7,0.1,1.1,0.1c6.1,0,11.9-5,13.3-11.8c1.5-7.1-2.5-13.4-8.9-14.1
			C147,63.7,146.6,63.7,146.3,63.7z M108.7,59.8c-6.1,0-11.9,5-13.3,11.8c-1.5,7.1,2.5,13.4,8.9,14.1c0.4,0,0.7,0.1,1.1,0.1
			c6.1,0,11.9-5,13.3-11.8c1.5-7.1-2.5-13.4-8.9-14.1C109.4,59.9,109.1,59.8,108.7,59.8z"/>
		<path class="st9" d="M184.8,67.5c6.4,0.7,10.5,7,8.9,14.1c-1.4,6.7-7.3,11.8-13.3,11.8c-0.4,0-0.7,0-1.1-0.1
			c-6.5-0.7-10.5-7-8.9-14.1c1.4-6.8,7.3-11.8,13.4-11.8C184.2,67.4,184.5,67.5,184.8,67.5z M146.2,63.6c-6.1,0-11.9,5-13.3,11.8
			c-1.5,7.1,2.5,13.4,8.9,14.1c0.4,0,0.7,0.1,1.1,0.1c6.1,0,11.9-5,13.3-11.8c1.5-7.1-2.5-13.4-8.9-14.1
			C146.9,63.6,146.6,63.6,146.2,63.6z M108.7,59.8c-6.1,0-11.9,5-13.3,11.8c-1.5,7.1,2.5,13.4,8.9,14.1c0.4,0,0.7,0.1,1.1,0.1
			c6.1,0,11.9-5,13.3-11.8c1.5-7.1-2.5-13.4-8.9-14.1C109.4,59.8,109,59.8,108.7,59.8z"/>
		<path class="st10" d="M184.8,67.4c6.4,0.7,10.5,7,8.9,14.1c-1.4,6.7-7.3,11.8-13.3,11.8c-0.4,0-0.7,0-1.1-0.1
			c-6.5-0.7-10.5-7-8.9-14.1c1.4-6.8,7.3-11.8,13.4-11.8C184.1,67.4,184.4,67.4,184.8,67.4z M146.2,63.5c-6.1,0-11.9,5-13.3,11.8
			c-1.5,7.1,2.5,13.4,8.9,14.1c0.4,0,0.7,0.1,1.1,0.1c6.1,0,11.9-5,13.3-11.8c1.5-7.1-2.5-13.4-8.9-14.1
			C146.9,63.5,146.5,63.5,146.2,63.5z M108.6,59.7c-6.1,0-11.9,5-13.3,11.8c-1.5,7.1,2.5,13.4,8.9,14.1c0.4,0,0.7,0.1,1.1,0.1
			c6.1,0,11.9-5,13.3-11.8c1.5-7.1-2.5-13.4-8.9-14.1C109.3,59.7,108.9,59.7,108.6,59.7z"/>
		<path class="st11" d="M184.7,67.3c6.4,0.7,10.5,7,8.9,14.1c-1.4,6.7-7.3,11.8-13.3,11.8c-0.4,0-0.7,0-1.1-0.1
			c-6.5-0.7-10.5-7-8.9-14.1c1.4-6.8,7.3-11.8,13.4-11.8C184,67.3,184.4,67.3,184.7,67.3z M146.1,63.4c-6.1,0-11.9,5-13.3,11.8
			c-1.5,7.1,2.5,13.4,8.9,14.1c0.4,0,0.7,0.1,1.1,0.1c6.1,0,11.9-5,13.3-11.8c1.5-7.1-2.5-13.4-8.9-14.1
			C146.8,63.5,146.5,63.4,146.1,63.4z M108.5,59.6c-6.1,0-11.9,5-13.3,11.8c-1.5,7.1,2.5,13.4,8.9,14.1c0.4,0,0.7,0.1,1.1,0.1
			c6.1,0,11.9-5,13.3-11.8c1.5-7.1-2.5-13.4-8.9-14.1C109.2,59.6,108.9,59.6,108.5,59.6z"/>
		<path class="st12" d="M184.7,67.2c6.4,0.7,10.5,7,8.9,14.1c-1.4,6.7-7.3,11.8-13.3,11.8c-0.4,0-0.7,0-1.1-0.1
			c-6.5-0.7-10.5-7-8.9-14.1c1.4-6.8,7.3-11.8,13.4-11.8C184,67.2,184.3,67.2,184.7,67.2z M146,63.4c-6.1,0-11.9,5-13.3,11.8
			c-1.5,7.1,2.5,13.4,8.9,14.1c0.4,0,0.7,0.1,1.1,0.1c6.1,0,11.9-5,13.3-11.8c1.5-7.1-2.5-13.4-8.9-14.1
			C146.7,63.4,146.4,63.4,146,63.4z M108.5,59.5c-6.1,0-11.9,5-13.3,11.8c-1.5,7.1,2.5,13.4,8.9,14.1c0.4,0,0.7,0.1,1.1,0.1
			c6.1,0,11.9-5,13.3-11.8c1.5-7.1-2.5-13.4-8.9-14.1C109.2,59.5,108.8,59.5,108.5,59.5z"/>
		<path class="st13" d="M184.6,67.2c6.4,0.7,10.5,7,8.9,14.1c-1.4,6.7-7.3,11.8-13.3,11.8c-0.4,0-0.7,0-1.1-0.1
			c-6.5-0.7-10.5-7-8.9-14.1c1.4-6.8,7.3-11.8,13.4-11.8C183.9,67.1,184.3,67.1,184.6,67.2z M146,63.3c-6.1,0-11.9,5-13.3,11.8
			c-1.5,7.1,2.5,13.4,8.9,14.1c0.4,0,0.7,0.1,1.1,0.1c6.1,0,11.9-5,13.3-11.8c1.5-7.1-2.5-13.4-8.9-14.1
			C146.7,63.3,146.3,63.3,146,63.3z M108.4,59.4c-6.1,0-11.9,5-13.3,11.8c-1.5,7.1,2.5,13.4,8.9,14.1c0.4,0,0.7,0.1,1.1,0.1
			c6.1,0,11.9-5,13.3-11.8c1.5-7.1-2.5-13.4-8.9-14.1C109.1,59.4,108.8,59.4,108.4,59.4z"/>
		<path class="st14" d="M184.6,67.1c6.4,0.7,10.5,7,8.9,14.1c-1.4,6.7-7.3,11.8-13.3,11.8c-0.4,0-0.7,0-1.1-0.1
			c-6.5-0.7-10.5-7-8.9-14.1c1.4-6.8,7.3-11.8,13.4-11.8C183.9,67,184.2,67,184.6,67.1z M145.9,63.2c-6.1,0-11.9,5-13.3,11.8
			c-1.5,7.1,2.5,13.4,8.9,14.1c0.4,0,0.7,0.1,1.1,0.1c6.1,0,11.9-5,13.3-11.8c1.5-7.1-2.5-13.4-8.9-14.1
			C146.6,63.2,146.3,63.2,145.9,63.2z M108.4,59.3c-6.1,0-11.9,5-13.3,11.8c-1.5,7.1,2.5,13.4,8.9,14.1c0.4,0,0.7,0.1,1.1,0.1
			c6.1,0,11.9-5,13.3-11.8c1.5-7.1-2.5-13.4-8.9-14.1C109.1,59.4,108.7,59.3,108.4,59.3z"/>
		<path class="st15" d="M184.5,67c6.4,0.7,10.5,7,8.9,14.1c-1.4,6.7-7.3,11.8-13.3,11.8c-0.4,0-0.7,0-1.1-0.1
			c-6.5-0.7-10.5-7-8.9-14.1c1.4-6.8,7.3-11.8,13.4-11.8C183.8,66.9,184.2,67,184.5,67z M145.9,63.1c-6.1,0-11.9,5-13.3,11.8
			C131,82,135,88.3,141.5,89c0.4,0,0.7,0.1,1.1,0.1c6.1,0,11.9-5,13.3-11.8c1.5-7.1-2.5-13.4-8.9-14.1
			C146.6,63.1,146.2,63.1,145.9,63.1z M108.3,59.3c-6.1,0-11.9,5-13.3,11.8c-1.5,7.1,2.5,13.4,8.9,14.1c0.4,0,0.7,0.1,1.1,0.1
			c6.1,0,11.9-5,13.3-11.8c1.5-7.1-2.5-13.4-8.9-14.1C109,59.3,108.7,59.3,108.3,59.3z"/>
		<path class="st16" d="M184.4,66.9c6.4,0.7,10.5,7,8.9,14.1c-1.4,6.7-7.3,11.8-13.3,11.8c-0.4,0-0.7,0-1.1-0.1
			c-6.5-0.7-10.5-7-8.9-14.1c1.4-6.8,7.3-11.8,13.4-11.8C183.8,66.9,184.1,66.9,184.4,66.9z M145.8,63c-6.1,0-11.9,5-13.3,11.8
			c-1.5,7.1,2.5,13.4,8.9,14.1c0.4,0,0.7,0.1,1.1,0.1c6.1,0,11.9-5,13.3-11.8c1.5-7.1-2.5-13.4-8.9-14.1C146.5,63,146.2,63,145.8,63
			z M108.2,59.2c-6.1,0-11.9,5-13.3,11.8c-1.5,7.1,2.5,13.4,8.9,14.1c0.4,0,0.7,0.1,1.1,0.1c6.1,0,11.9-5,13.3-11.8
			c1.5-7.1-2.5-13.4-8.9-14.1C109,59.2,108.6,59.2,108.2,59.2z"/>
		<path class="st17" d="M184.4,66.8c6.4,0.7,10.5,7,8.9,14.1c-1.4,6.7-7.3,11.8-13.3,11.8c-0.4,0-0.7,0-1.1-0.1
			c-6.5-0.7-10.5-7-8.9-14.1c1.4-6.8,7.3-11.8,13.4-11.8C183.7,66.8,184,66.8,184.4,66.8z M145.8,62.9c-6.1,0-11.9,5-13.3,11.8
			c-1.5,7.1,2.5,13.4,8.9,14.1c0.4,0,0.7,0.1,1.1,0.1c6.1,0,11.9-5,13.3-11.8c1.5-7.1-2.5-13.4-8.9-14.1
			C146.5,63,146.1,62.9,145.8,62.9z M108.2,59.1c-6.1,0-11.9,5-13.3,11.8c-1.5,7.1,2.5,13.4,8.9,14.1c0.4,0,0.7,0.1,1.1,0.1
			c6.1,0,11.9-5,13.3-11.8c1.5-7.1-2.5-13.4-8.9-14.1C108.9,59.1,108.5,59.1,108.2,59.1z"/>
		<path class="st18" d="M184.3,66.8c6.4,0.7,10.5,7,8.9,14.1c-1.4,6.7-7.3,11.8-13.3,11.8c-0.4,0-0.7,0-1.1-0.1
			c-6.5-0.7-10.5-7-8.9-14.1c1.4-6.8,7.3-11.8,13.4-11.8C183.6,66.7,184,66.7,184.3,66.8z M145.7,62.9c-6.1,0-11.9,5-13.3,11.8
			c-1.5,7.1,2.5,13.4,8.9,14.1c0.4,0,0.7,0.1,1.1,0.1c6.1,0,11.9-5,13.3-11.8c1.5-7.1-2.5-13.4-8.9-14.1
			C146.4,62.9,146.1,62.9,145.7,62.9z M108.1,59c-6.1,0-11.9,5-13.3,11.8c-1.5,7.1,2.5,13.4,8.9,14.1c0.4,0,0.7,0.1,1.1,0.1
			c6.1,0,11.9-5,13.3-11.8c1.5-7.1-2.5-13.4-8.9-14.1C108.8,59,108.5,59,108.1,59z"/>
		<path class="st19" d="M184.3,66.7c6.4,0.7,10.5,7,8.9,14.1c-1.4,6.7-7.3,11.8-13.3,11.8c-0.4,0-0.7,0-1.1-0.1
			c-6.5-0.7-10.5-7-8.9-14.1c1.4-6.8,7.3-11.8,13.4-11.8C183.6,66.6,183.9,66.6,184.3,66.7z M145.6,62.8c-6.1,0-11.9,5-13.3,11.8
			c-1.5,7.1,2.5,13.4,8.9,14.1c0.4,0,0.7,0.1,1.1,0.1c6.1,0,11.9-5,13.3-11.8c1.5-7.1-2.5-13.4-8.9-14.1
			C146.3,62.8,146,62.8,145.6,62.8z M108.1,58.9c-6.1,0-11.9,5-13.3,11.8c-1.5,7.1,2.5,13.4,8.9,14.1c0.4,0,0.7,0.1,1.1,0.1
			c6.1,0,11.9-5,13.3-11.8c1.5-7.1-2.5-13.4-8.9-14.1C108.8,59,108.4,58.9,108.1,58.9z"/>
		<path class="st20" d="M184.2,66.6c6.4,0.7,10.5,7,8.9,14.1c-1.4,6.7-7.3,11.8-13.3,11.8c-0.4,0-0.7,0-1.1-0.1
			c-6.5-0.7-10.5-7-8.9-14.1c1.4-6.8,7.3-11.8,13.4-11.8C183.5,66.5,183.9,66.6,184.2,66.6z M145.6,62.7c-6.1,0-11.9,5-13.3,11.8
			c-1.5,7.1,2.5,13.4,8.9,14.1c0.4,0,0.7,0.1,1.1,0.1c6.1,0,11.9-5,13.3-11.8c1.5-7.1-2.5-13.4-8.9-14.1
			C146.3,62.7,145.9,62.7,145.6,62.7z M108,58.9c-6.1,0-11.9,5-13.3,11.8c-1.5,7.1,2.5,13.4,8.9,14.1c0.4,0,0.7,0.1,1.1,0.1
			c6.1,0,11.9-5,13.3-11.8c1.5-7.1-2.5-13.4-8.9-14.1C108.7,58.9,108.4,58.9,108,58.9z"/>
		<path class="st21" d="M184.2,66.5c6.4,0.7,10.5,7,8.9,14.1c-1.4,6.7-7.3,11.8-13.3,11.8c-0.4,0-0.7,0-1.1-0.1
			c-6.5-0.7-10.5-7-8.9-14.1c1.4-6.8,7.3-11.8,13.4-11.8C183.5,66.5,183.8,66.5,184.2,66.5z M145.5,62.6c-6.1,0-11.9,5-13.3,11.8
			c-1.5,7.1,2.5,13.4,8.9,14.1c0.4,0,0.7,0.1,1.1,0.1c6.1,0,11.9-5,13.3-11.8c1.5-7.1-2.5-13.4-8.9-14.1
			C146.2,62.6,145.9,62.6,145.5,62.6z M108,58.8c-6.1,0-11.9,5-13.3,11.8c-1.5,7.1,2.5,13.4,8.9,14.1c0.4,0,0.7,0.1,1.1,0.1
			c6.1,0,11.9-5,13.3-11.8c1.5-7.1-2.5-13.4-8.9-14.1C108.7,58.8,108.3,58.8,108,58.8z"/>
		<path class="st22" d="M184.1,66.4c6.4,0.7,10.5,7,8.9,14.1c-1.4,6.7-7.3,11.8-13.3,11.8c-0.4,0-0.7,0-1.1-0.1
			c-6.5-0.7-10.5-7-8.9-14.1c1.4-6.8,7.3-11.8,13.4-11.8C183.4,66.4,183.7,66.4,184.1,66.4z M145.5,62.5c-6.1,0-11.9,5-13.3,11.8
			c-1.5,7.1,2.5,13.4,8.9,14.1c0.4,0,0.7,0.1,1.1,0.1c6.1,0,11.9-5,13.3-11.8c1.5-7.1-2.5-13.4-8.9-14.1
			C146.2,62.6,145.8,62.5,145.5,62.5z M107.9,58.7c-6.1,0-11.9,5-13.3,11.8c-1.5,7.1,2.5,13.4,8.9,14.1c0.4,0,0.7,0.1,1.1,0.1
			c6.1,0,11.9-5,13.3-11.8c1.5-7.1-2.5-13.4-8.9-14.1C108.6,58.7,108.3,58.7,107.9,58.7z"/>
		<path class="st23" d="M184,66.3c6.4,0.7,10.5,7,8.9,14.1c-1.4,6.7-7.3,11.8-13.3,11.8c-0.4,0-0.7,0-1.1-0.1
			c-6.5-0.7-10.5-7-8.9-14.1c1.4-6.8,7.3-11.8,13.4-11.8C183.3,66.3,183.7,66.3,184,66.3z M145.4,62.5c-6.1,0-11.9,5-13.3,11.8
			c-1.5,7.1,2.5,13.4,8.9,14.1c0.4,0,0.7,0.1,1.1,0.1c6.1,0,11.9-5,13.3-11.8c1.5-7.1-2.5-13.4-8.9-14.1
			C146.1,62.5,145.8,62.5,145.4,62.5z M107.8,58.6c-6.1,0-11.9,5-13.3,11.8c-1.5,7.1,2.5,13.4,8.9,14.1c0.4,0,0.7,0.1,1.1,0.1
			c6.1,0,11.9-5,13.3-11.8c1.5-7.1-2.5-13.4-8.9-14.1C108.5,58.6,108.2,58.6,107.8,58.6z"/>
		<path class="st24" d="M184,66.3c6.4,0.7,10.5,7,8.9,14.1c-1.4,6.7-7.3,11.8-13.3,11.8c-0.4,0-0.7,0-1.1-0.1
			c-6.5-0.7-10.5-7-8.9-14.1c1.4-6.8,7.3-11.8,13.4-11.8C183.3,66.2,183.6,66.2,184,66.3z M145.4,62.4c-6.1,0-11.9,5-13.3,11.8
			c-1.5,7.1,2.5,13.4,8.9,14.1c0.4,0,0.7,0.1,1.1,0.1c6.1,0,11.9-5,13.3-11.8c1.5-7.1-2.5-13.4-8.9-14.1
			C146.1,62.4,145.7,62.4,145.4,62.4z M107.8,58.5c-6.1,0-11.9,5-13.3,11.8c-1.5,7.1,2.5,13.4,8.9,14.1c0.4,0,0.7,0.1,1.1,0.1
			c6.1,0,11.9-5,13.3-11.8c1.5-7.1-2.5-13.4-8.9-14.1C108.5,58.5,108.1,58.5,107.8,58.5z"/>
		<path class="st25" d="M183.9,66.2c6.4,0.7,10.5,7,8.9,14.1c-1.4,6.7-7.3,11.8-13.3,11.8c-0.4,0-0.7,0-1.1-0.1
			c-6.5-0.7-10.5-7-8.9-14.1c1.4-6.8,7.3-11.8,13.4-11.8C183.2,66.1,183.6,66.1,183.9,66.2z M145.3,62.3c-6.1,0-11.9,5-13.3,11.8
			c-1.5,7.1,2.5,13.4,8.9,14.1c0.4,0,0.7,0.1,1.1,0.1c6.1,0,11.9-5,13.3-11.8c1.5-7.1-2.5-13.4-8.9-14.1
			C146,62.3,145.6,62.3,145.3,62.3z M107.7,58.4c-6.1,0-11.9,5-13.3,11.8c-1.5,7.1,2.5,13.4,8.9,14.1c0.4,0,0.7,0.1,1.1,0.1
			c6.1,0,11.9-5,13.3-11.8c1.5-7.1-2.5-13.4-8.9-14.1C108.4,58.5,108.1,58.4,107.7,58.4z"/>
		<path class="st26" d="M183.9,66.1c6.4,0.7,10.5,7,8.9,14.1c-1.4,6.7-7.3,11.8-13.3,11.8c-0.4,0-0.7,0-1.1-0.1
			c-6.5-0.7-10.5-7-8.9-14.1c1.4-6.8,7.3-11.8,13.4-11.8C183.2,66,183.5,66.1,183.9,66.1z M145.2,62.2c-6.1,0-11.9,5-13.3,11.8
			c-1.5,7.1,2.5,13.4,8.9,14.1c0.4,0,0.7,0.1,1.1,0.1c6.1,0,11.9-5,13.3-11.8c1.5-7.1-2.5-13.4-8.9-14.1
			C145.9,62.2,145.6,62.2,145.2,62.2z M107.7,58.4c-6.1,0-11.9,5-13.3,11.8c-1.5,7.1,2.5,13.4,8.9,14.1c0.4,0,0.7,0.1,1.1,0.1
			c6.1,0,11.9-5,13.3-11.8c1.5-7.1-2.5-13.4-8.9-14.1C108.4,58.4,108,58.4,107.7,58.4z"/>
		<path class="st27" d="M183.8,66c6.4,0.7,10.5,7,8.9,14.1c-1.4,6.7-7.3,11.8-13.3,11.8c-0.4,0-0.7,0-1.1-0.1
			c-6.5-0.7-10.5-7-8.9-14.1c1.4-6.8,7.3-11.8,13.4-11.8C183.1,66,183.5,66,183.8,66z M145.2,62.1c-6.1,0-11.9,5-13.3,11.8
			c-1.5,7.1,2.5,13.4,8.9,14.1c0.4,0,0.7,0.1,1.1,0.1c6.1,0,11.9-5,13.3-11.8c1.5-7.1-2.5-13.4-8.9-14.1
			C145.9,62.1,145.5,62.1,145.2,62.1z M107.6,58.3c-6.1,0-11.9,5-13.3,11.8c-1.5,7.1,2.5,13.4,8.9,14.1c0.4,0,0.7,0.1,1.1,0.1
			c6.1,0,11.9-5,13.3-11.8c1.5-7.1-2.5-13.4-8.9-14.1C108.3,58.3,108,58.3,107.6,58.3z"/>
		<path class="st28" d="M183.7,65.9c6.4,0.7,10.5,7,8.9,14.1c-1.4,6.7-7.3,11.8-13.3,11.8c-0.4,0-0.7,0-1.1-0.1
			c-6.5-0.7-10.5-7-8.9-14.1c1.4-6.8,7.3-11.8,13.4-11.8C183.1,65.9,183.4,65.9,183.7,65.9z M145.1,62c-6.1,0-11.9,5-13.3,11.8
			c-1.5,7.1,2.5,13.4,8.9,14.1c0.4,0,0.7,0.1,1.1,0.1c6.1,0,11.9-5,13.3-11.8c1.5-7.1-2.5-13.4-8.9-14.1
			C145.8,62.1,145.5,62,145.1,62z M107.6,58.2c-6.1,0-11.9,5-13.3,11.8c-1.5,7.1,2.5,13.4,8.9,14.1c0.4,0,0.7,0.1,1.1,0.1
			c6.1,0,11.9-5,13.3-11.8c1.5-7.1-2.5-13.4-8.9-14.1C108.3,58.2,107.9,58.2,107.6,58.2z"/>
		<path class="st29" d="M183.7,65.8c6.4,0.7,10.5,7,8.9,14.1c-1.4,6.7-7.3,11.8-13.3,11.8c-0.4,0-0.7,0-1.1-0.1
			c-6.5-0.7-10.5-7-8.9-14.1c1.4-6.8,7.3-11.8,13.4-11.8C183,65.8,183.3,65.8,183.7,65.8z M145.1,62c-6.1,0-11.9,5-13.3,11.8
			c-1.5,7.1,2.5,13.4,8.9,14.1c0.4,0,0.7,0.1,1.1,0.1c6.1,0,11.9-5,13.3-11.8c1.5-7.1-2.5-13.4-8.9-14.1C145.8,62,145.4,62,145.1,62
			z M107.5,58.1c-6.1,0-11.9,5-13.3,11.8c-1.5,7.1,2.5,13.4,8.9,14.1c0.4,0,0.7,0.1,1.1,0.1c6.1,0,11.9-5,13.3-11.8
			c1.5-7.1-2.5-13.4-8.9-14.1C108.2,58.1,107.9,58.1,107.5,58.1z"/>
		<path class="st30" d="M183.6,65.8c6.4,0.7,10.5,7,8.9,14.1c-1.4,6.7-7.3,11.8-13.3,11.8c-0.4,0-0.7,0-1.1-0.1
			c-6.5-0.7-10.5-7-8.9-14.1c1.4-6.8,7.3-11.8,13.4-11.8C182.9,65.7,183.3,65.7,183.6,65.8z M145,61.9c-6.1,0-11.9,5-13.3,11.8
			c-1.5,7.1,2.5,13.4,8.9,14.1c0.4,0,0.7,0.1,1.1,0.1c6.1,0,11.9-5,13.3-11.8c1.5-7.1-2.5-13.4-8.9-14.1
			C145.7,61.9,145.4,61.9,145,61.9z M107.4,58c-6.1,0-11.9,5-13.3,11.8c-1.5,7.1,2.5,13.4,8.9,14.1c0.4,0,0.7,0.1,1.1,0.1
			c6.1,0,11.9-5,13.3-11.8c1.5-7.1-2.5-13.4-8.9-14.1C108.1,58.1,107.8,58,107.4,58z"/>
		<path class="st31" d="M183.6,65.7c6.4,0.7,10.5,7,8.9,14.1c-1.4,6.7-7.3,11.8-13.3,11.8c-0.4,0-0.7,0-1.1-0.1
			c-6.5-0.7-10.5-7-8.9-14.1c1.4-6.8,7.3-11.8,13.4-11.8C182.9,65.6,183.2,65.6,183.6,65.7z M145,61.8c-6.1,0-11.9,5-13.3,11.8
			c-1.5,7.1,2.5,13.4,8.9,14.1c0.4,0,0.7,0.1,1.1,0.1c6.1,0,11.9-5,13.3-11.8c1.5-7.1-2.5-13.4-8.9-14.1
			C145.7,61.8,145.3,61.8,145,61.8z M107.4,57.9c-6.1,0-11.9,5-13.3,11.8c-1.5,7.1,2.5,13.4,8.9,14.1c0.4,0,0.7,0.1,1.1,0.1
			c6.1,0,11.9-5,13.3-11.8c1.5-7.1-2.5-13.4-8.9-14.1C108.1,58,107.7,58,107.4,57.9z"/>
		<path class="st32" d="M183.5,65.6c6.4,0.7,10.5,7,8.9,14.1c-1.4,6.7-7.3,11.8-13.3,11.8c-0.4,0-0.7,0-1.1-0.1
			c-6.5-0.7-10.5-7-8.9-14.1c1.4-6.8,7.3-11.8,13.4-11.8C182.8,65.5,183.2,65.6,183.5,65.6z M144.9,61.7c-6.1,0-11.9,5-13.3,11.8
			c-1.5,7.1,2.5,13.4,8.9,14.1c0.4,0,0.7,0.1,1.1,0.1c6.1,0,11.9-5,13.3-11.8c1.5-7.1-2.5-13.4-8.9-14.1
			C145.6,61.7,145.2,61.7,144.9,61.7z M107.3,57.9c-6.1,0-11.9,5-13.3,11.8c-1.5,7.1,2.5,13.4,8.9,14.1c0.4,0,0.7,0.1,1.1,0.1
			c6.1,0,11.9-5,13.3-11.8c1.5-7.1-2.5-13.4-8.9-14.1C108,57.9,107.7,57.9,107.3,57.9z"/>
		<path class="st33" d="M183.5,65.5c6.4,0.7,10.5,7,8.9,14.1c-1.4,6.7-7.3,11.8-13.3,11.8c-0.4,0-0.7,0-1.1-0.1
			c-6.5-0.7-10.5-7-8.9-14.1c1.4-6.8,7.3-11.8,13.4-11.8C182.8,65.5,183.1,65.5,183.5,65.5z M144.8,61.6c-6.1,0-11.9,5-13.3,11.8
			c-1.5,7.1,2.5,13.4,8.9,14.1c0.4,0,0.7,0.1,1.1,0.1c6.1,0,11.9-5,13.3-11.8c1.5-7.1-2.5-13.4-8.9-14.1
			C145.5,61.7,145.2,61.6,144.8,61.6z M107.3,57.8c-6.1,0-11.9,5-13.3,11.8c-1.5,7.1,2.5,13.4,8.9,14.1c0.4,0,0.7,0.1,1.1,0.1
			c6.1,0,11.9-5,13.3-11.8c1.5-7.1-2.5-13.4-8.9-14.1C108,57.8,107.6,57.8,107.3,57.8z"/>
		<path class="st34" d="M183.4,65.4c6.4,0.7,10.5,7,8.9,14.1c-1.4,6.7-7.3,11.8-13.3,11.8c-0.4,0-0.7,0-1.1-0.1
			c-6.5-0.7-10.5-7-8.9-14.1c1.4-6.8,7.3-11.8,13.4-11.8C182.7,65.4,183.1,65.4,183.4,65.4z M144.8,61.5c-6.1,0-11.9,5-13.3,11.8
			c-1.5,7.1,2.5,13.4,8.9,14.1c0.4,0,0.7,0.1,1.1,0.1c6.1,0,11.9-5,13.3-11.8c1.5-7.1-2.5-13.4-8.9-14.1
			C145.5,61.6,145.1,61.6,144.8,61.5z M107.2,57.7c-6.1,0-11.9,5-13.3,11.8c-1.5,7.1,2.5,13.4,8.9,14.1c0.4,0,0.7,0.1,1.1,0.1
			c6.1,0,11.9-5,13.3-11.8c1.5-7.1-2.5-13.4-8.9-14.1C107.9,57.7,107.6,57.7,107.2,57.7z"/>
		<path class="st35" d="M183.3,65.4c6.4,0.7,10.5,7,8.9,14.1c-1.4,6.7-7.3,11.8-13.3,11.8c-0.4,0-0.7,0-1.1-0.1
			c-6.5-0.7-10.5-7-8.9-14.1c1.4-6.8,7.3-11.8,13.4-11.8C182.7,65.3,183,65.3,183.3,65.4z M144.7,61.5c-6.1,0-11.9,5-13.3,11.8
			c-1.5,7.1,2.5,13.4,8.9,14.1c0.4,0,0.7,0.1,1.1,0.1c6.1,0,11.9-5,13.3-11.8c1.5-7.1-2.5-13.4-8.9-14.1
			C145.4,61.5,145.1,61.5,144.7,61.5z M107.2,57.6c-6.1,0-11.9,5-13.3,11.8c-1.5,7.1,2.5,13.4,8.9,14.1c0.4,0,0.7,0.1,1.1,0.1
			c6.1,0,11.9-5,13.3-11.8c1.5-7.1-2.5-13.4-8.9-14.1C107.9,57.6,107.5,57.6,107.2,57.6z"/>
		<path class="st36" d="M183.3,65.3c6.4,0.7,10.5,7,8.9,14.1c-1.4,6.7-7.3,11.8-13.3,11.8c-0.4,0-0.7,0-1.1-0.1
			c-6.5-0.7-10.5-7-8.9-14.1c1.4-6.8,7.3-11.8,13.4-11.8C182.6,65.2,182.9,65.2,183.3,65.3z M144.7,61.4c-6.1,0-11.9,5-13.3,11.8
			c-1.5,7.1,2.5,13.4,8.9,14.1c0.4,0,0.7,0.1,1.1,0.1c6.1,0,11.9-5,13.3-11.8c1.5-7.1-2.5-13.4-8.9-14.1
			C145.4,61.4,145,61.4,144.7,61.4z M107.1,57.5c-6.1,0-11.9,5-13.3,11.8c-1.5,7.1,2.5,13.4,8.9,14.1c0.4,0,0.7,0.1,1.1,0.1
			c6.1,0,11.9-5,13.3-11.8c1.5-7.1-2.5-13.4-8.9-14.1C107.8,57.6,107.5,57.5,107.1,57.5z"/>
		<path class="st37" d="M183.2,65.2c6.4,0.7,10.5,7,8.9,14.1c-1.4,6.7-7.3,11.8-13.3,11.8c-0.4,0-0.7,0-1.1-0.1
			c-6.5-0.7-10.5-7-8.9-14.1c1.4-6.8,7.3-11.8,13.4-11.8C182.5,65.1,182.9,65.2,183.2,65.2z M144.6,61.3c-6.1,0-11.9,5-13.3,11.8
			c-1.5,7.1,2.5,13.4,8.9,14.1c0.4,0,0.7,0.1,1.1,0.1c6.1,0,11.9-5,13.3-11.8c1.5-7.1-2.5-13.4-8.9-14.1
			C145.3,61.3,145,61.3,144.6,61.3z M107,57.5c-6.1,0-11.9,5-13.3,11.8c-1.5,7.1,2.5,13.4,8.9,14.1c0.4,0,0.7,0.1,1.1,0.1
			c6.1,0,11.9-5,13.3-11.8c1.5-7.1-2.5-13.4-8.9-14.1C107.7,57.5,107.4,57.5,107,57.5z"/>
		<path class="st38" d="M183.2,65.1c6.4,0.7,10.5,7,8.9,14.1C190.7,86,184.8,91,178.8,91c-0.4,0-0.7,0-1.1-0.1
			c-6.5-0.7-10.5-7-8.9-14.1c1.4-6.8,7.3-11.8,13.4-11.8C182.5,65.1,182.8,65.1,183.2,65.1z M144.6,61.2c-6.1,0-11.9,5-13.3,11.8
			c-1.5,7.1,2.5,13.4,8.9,14.1c0.4,0,0.7,0.1,1.1,0.1c6.1,0,11.9-5,13.3-11.8c1.5-7.1-2.5-13.4-8.9-14.1
			C145.3,61.2,144.9,61.2,144.6,61.2z M107,57.4c-6.1,0-11.9,5-13.3,11.8c-1.5,7.1,2.5,13.4,8.9,14.1c0.4,0,0.7,0.1,1.1,0.1
			c6.1,0,11.9-5,13.3-11.8c1.5-7.1-2.5-13.4-8.9-14.1C107.7,57.4,107.3,57.4,107,57.4z"/>
		<path class="st39" d="M183.1,65c6.4,0.7,10.5,7,8.9,14.1c-1.4,6.7-7.3,11.8-13.3,11.8c-0.4,0-0.7,0-1.1-0.1
			c-6.5-0.7-10.5-7-8.9-14.1c1.4-6.8,7.3-11.8,13.4-11.8C182.4,65,182.8,65,183.1,65z M144.5,61.1c-6.1,0-11.9,5-13.3,11.8
			c-1.5,7.1,2.5,13.4,8.9,14.1c0.4,0,0.7,0.1,1.1,0.1c6.1,0,11.9-5,13.3-11.8c1.5-7.1-2.5-13.4-8.9-14.1
			C145.2,61.2,144.8,61.1,144.5,61.1z M106.9,57.3c-6.1,0-11.9,5-13.3,11.8c-1.5,7.1,2.5,13.4,8.9,14.1c0.4,0,0.7,0.1,1.1,0.1
			c6.1,0,11.9-5,13.3-11.8c1.5-7.1-2.5-13.4-8.9-14.1C107.6,57.3,107.3,57.3,106.9,57.3z"/>
		<path class="st40" d="M183.1,64.9c6.4,0.7,10.5,7,8.9,14.1c-1.4,6.7-7.3,11.8-13.3,11.8c-0.4,0-0.7,0-1.1-0.1
			c-6.5-0.7-10.5-7-8.9-14.1c1.4-6.8,7.3-11.8,13.4-11.8C182.4,64.9,182.7,64.9,183.1,64.9z M144.4,61.1c-6.1,0-11.9,5-13.3,11.8
			c-1.5,7.1,2.5,13.4,8.9,14.1c0.4,0,0.7,0.1,1.1,0.1c6.1,0,11.9-5,13.3-11.8c1.5-7.1-2.5-13.4-8.9-14.1
			C145.1,61.1,144.8,61.1,144.4,61.1z M106.9,57.2c-6.1,0-11.9,5-13.3,11.8c-1.5,7.1,2.5,13.4,8.9,14.1c0.4,0,0.7,0.1,1.1,0.1
			c6.1,0,11.9-5,13.3-11.8c1.5-7.1-2.5-13.4-8.9-14.1C107.6,57.2,107.2,57.2,106.9,57.2z"/>
		<path class="st41" d="M183,64.9c6.4,0.7,10.5,7,8.9,14.1c-1.4,6.7-7.3,11.8-13.3,11.8c-0.4,0-0.7,0-1.1-0.1
			c-6.5-0.7-10.5-7-8.9-14.1c1.4-6.8,7.3-11.8,13.4-11.8C182.3,64.8,182.7,64.8,183,64.9z M144.4,61c-6.1,0-11.9,5-13.3,11.8
			c-1.5,7.1,2.5,13.4,8.9,14.1c0.4,0,0.7,0.1,1.1,0.1c6.1,0,11.9-5,13.3-11.8c1.5-7.1-2.5-13.4-8.9-14.1C145.1,61,144.7,61,144.4,61
			z M106.8,57.1c-6.1,0-11.9,5-13.3,11.8C92,76,96,82.4,102.4,83c0.4,0,0.7,0.1,1.1,0.1c6.1,0,11.9-5,13.3-11.8
			c1.5-7.1-2.5-13.4-8.9-14.1C107.5,57.1,107.2,57.1,106.8,57.1z"/>
		<path class="st42" d="M182.9,64.8c6.4,0.7,10.5,7,8.9,14.1c-1.4,6.7-7.3,11.8-13.3,11.8c-0.4,0-0.7,0-1.1-0.1
			c-6.5-0.7-10.5-7-8.9-14.1c1.4-6.8,7.3-11.8,13.4-11.8C182.3,64.7,182.6,64.7,182.9,64.8z M144.3,60.9c-6.1,0-11.9,5-13.3,11.8
			c-1.5,7.1,2.5,13.4,8.9,14.1c0.4,0,0.7,0.1,1.1,0.1c6.1,0,11.9-5,13.3-11.8c1.5-7.1-2.5-13.4-8.9-14.1
			C145,60.9,144.7,60.9,144.3,60.9z M106.8,57c-6.1,0-11.9,5-13.3,11.8c-1.5,7.1,2.5,13.4,8.9,14.1c0.4,0,0.7,0.1,1.1,0.1
			c6.1,0,11.9-5,13.3-11.8c1.5-7.1-2.5-13.4-8.9-14.1C107.5,57.1,107.1,57,106.8,57z"/>
		<path class="st43" d="M182.9,64.7c6.4,0.7,10.5,7,8.9,14.1c-1.4,6.7-7.3,11.8-13.3,11.8c-0.4,0-0.7,0-1.1-0.1
			c-6.5-0.7-10.5-7-8.9-14.1c1.4-6.8,7.3-11.8,13.4-11.8C182.2,64.6,182.5,64.7,182.9,64.7z M144.3,60.8c-6.1,0-11.9,5-13.3,11.8
			c-1.5,7.1,2.5,13.4,8.9,14.1c0.4,0,0.7,0.1,1.1,0.1c6.1,0,11.9-5,13.3-11.8c1.5-7.1-2.5-13.4-8.9-14.1
			C145,60.8,144.6,60.8,144.3,60.8z M106.7,57c-6.1,0-11.9,5-13.3,11.8c-1.5,7.1,2.5,13.4,8.9,14.1c0.4,0,0.7,0.1,1.1,0.1
			c6.1,0,11.9-5,13.3-11.8c1.5-7.1-2.5-13.4-8.9-14.1C107.4,57,107,57,106.7,57z"/>
		<path class="st44" d="M182.8,64.6c6.4,0.7,10.5,7,8.9,14.1c-1.4,6.7-7.3,11.8-13.3,11.8c-0.4,0-0.7,0-1.1-0.1
			c-6.5-0.7-10.5-7-8.9-14.1c1.4-6.8,7.3-11.8,13.4-11.8C182.1,64.6,182.5,64.6,182.8,64.6z M144.2,60.7c-6.1,0-11.9,5-13.3,11.8
			c-1.5,7.1,2.5,13.4,8.9,14.1c0.4,0,0.7,0.1,1.1,0.1c6.1,0,11.9-5,13.3-11.8c1.5-7.1-2.5-13.4-8.9-14.1
			C144.9,60.7,144.6,60.7,144.2,60.7z M106.6,56.9c-6.1,0-11.9,5-13.3,11.8c-1.5,7.1,2.5,13.4,8.9,14.1c0.4,0,0.7,0.1,1.1,0.1
			c6.1,0,11.9-5,13.3-11.8c1.5-7.1-2.5-13.4-8.9-14.1C107.3,56.9,107,56.9,106.6,56.9z"/>
		<path class="st45" d="M182.8,64.5c6.4,0.7,10.5,7,8.9,14.1c-1.4,6.7-7.3,11.8-13.3,11.8c-0.4,0-0.7,0-1.1-0.1
			c-6.5-0.7-10.5-7-8.9-14.1c1.4-6.8,7.3-11.8,13.4-11.8C182.1,64.5,182.4,64.5,182.8,64.5z M144.2,60.6c-6.1,0-11.9,5-13.3,11.8
			c-1.5,7.1,2.5,13.4,8.9,14.1c0.4,0,0.7,0.1,1.1,0.1c6.1,0,11.9-5,13.3-11.8c1.5-7.1-2.5-13.4-8.9-14.1
			C144.9,60.7,144.5,60.6,144.2,60.6z M106.6,56.8c-6.1,0-11.9,5-13.3,11.8c-1.5,7.1,2.5,13.4,8.9,14.1c0.4,0,0.7,0.1,1.1,0.1
			c6.1,0,11.9-5,13.3-11.8c1.5-7.1-2.5-13.4-8.9-14.1C107.3,56.8,106.9,56.8,106.6,56.8z"/>
		<path class="st46" d="M182.7,64.5c6.4,0.7,10.5,7,8.9,14.1c-1.4,6.7-7.3,11.8-13.3,11.8c-0.4,0-0.7,0-1.1-0.1
			c-6.5-0.7-10.5-7-8.9-14.1c1.4-6.8,7.3-11.8,13.4-11.8C182,64.4,182.4,64.4,182.7,64.5z M144.1,60.6c-6.1,0-11.9,5-13.3,11.8
			c-1.5,7.1,2.5,13.4,8.9,14.1c0.4,0,0.7,0.1,1.1,0.1c6.1,0,11.9-5,13.3-11.8c1.5-7.1-2.5-13.4-8.9-14.1
			C144.8,60.6,144.4,60.6,144.1,60.6z M106.5,56.7c-6.1,0-11.9,5-13.3,11.8c-1.5,7.1,2.5,13.4,8.9,14.1c0.4,0,0.7,0.1,1.1,0.1
			c6.1,0,11.9-5,13.3-11.8c1.5-7.1-2.5-13.4-8.9-14.1C107.2,56.7,106.9,56.7,106.5,56.7z"/>
	</g>
	
		<linearGradient id="SVGID_00000041982128040356092030000013770390329019890376_" gradientUnits="userSpaceOnUse" x1="-326.9567" y1="-65.054" x2="-223.9608" y2="95.9942" gradientTransform="matrix(0.996 8.910000e-02 -8.910000e-02 0.996 376.7464 104.0533)">
		<stop  offset="7.574820e-02" style="stop-color:#FFFFFF"/>
		<stop  offset="1" style="stop-color:#FFFFFF;stop-opacity:0"/>
	</linearGradient>
	<path style="opacity:0.7;fill:url(#SVGID_00000041982128040356092030000013770390329019890376_);" d="M220.2,99.2
		c10.5-52.7-28.7-93.7-86.1-98.7c-4.3-0.4-8.6-0.5-12.8-0.5C68.8,0.6,22,32.5,12.3,81.3c-3.6,17.9-1.4,34.4,5.3,48.7L0.9,159.4
		c-2.3,4.1,0,8.5,3.8,8.5c0.4,0,0.9-0.1,1.4-0.2l34-9.6c15.1,12,35.2,19.9,58.3,21.8c4.3,0.4,8.6,0.5,12.8,0.5
		C163.6,179.8,210.5,147.9,220.2,99.2z M111.2,179.9c-4.2,0-8.5-0.1-12.7-0.5c-15-1.3-28.9-5-41.2-11.1c-6.1-3-11.7-6.6-16.8-10.6
		l-0.2-0.2l-34.3,9.7c-0.4,0.1-0.8,0.2-1.2,0.2c-0.6,0-1.2-0.1-1.8-0.4c-1-0.5-1.8-1.4-2.1-2.6c-0.5-1.5-0.2-3.1,0.6-4.7L18.1,130
		l-0.1-0.2c-6.8-14.6-8.6-31.3-5.3-48.4c9.3-47,54-80.2,108.5-80.8c4.2,0,8.5,0.1,12.7,0.5c15,1.3,28.9,5,41.2,11.1
		c34.6,17.1,51.7,50.4,44.4,86.9C210.3,146,165.7,179.3,111.2,179.9z"/>
	
		<linearGradient id="SVGID_00000164505813260067506490000001396228528604694415_" gradientUnits="userSpaceOnUse" x1="-1709.817" y1="-31.9807" x2="-1715.8925" y2="-1.2664" gradientTransform="matrix(0.8965 0.4431 -0.4431 0.8965 1710.1072 854.0361)">
		<stop  offset="0" style="stop-color:#53CC5B"/>
		<stop  offset="9.990352e-02" style="stop-color:#47C055"/>
		<stop  offset="0.7047" style="stop-color:#007733"/>
		<stop  offset="1" style="stop-color:#007733"/>
	</linearGradient>
	<path style="fill:url(#SVGID_00000164505813260067506490000001396228528604694415_);" d="M190,82.6c0.1-0.1,0.1-0.2,0.2-0.3
		c0.1-0.1,0.2-0.3,0.2-0.5c0-0.1,0.1-0.2,0.1-0.2c0-0.1,0.1-0.2,0.1-0.3c0.1-0.3,0.2-0.5,0.3-0.8c0-0.1,0.1-0.2,0.1-0.3
		c0-0.1,0-0.1,0.1-0.2c0.2-0.5,0.3-1,0.4-1.6c0.1-0.7,0.2-1.3,0.3-1.9c0-0.2,0-0.4,0-0.6c0-0.4,0-0.7,0-1.1c0-0.1,0-0.1,0-0.2
		c0-0.2,0-0.3,0-0.5c0-0.2,0-0.5-0.1-0.7c0-0.2-0.1-0.5-0.1-0.7c0-0.1,0-0.1,0-0.2c0,0,0-0.1,0-0.1c-0.1-0.3-0.2-0.6-0.2-0.9
		c-0.1-0.2-0.2-0.4-0.2-0.6c0,0,0,0,0-0.1c0,0,0,0,0,0c-0.1-0.2-0.2-0.5-0.3-0.7c-0.1-0.2-0.2-0.4-0.3-0.6c0-0.1-0.1-0.1-0.1-0.2
		c0,0,0-0.1-0.1-0.1c-0.1-0.1-0.1-0.2-0.2-0.3c-0.1-0.2-0.2-0.4-0.4-0.5c-0.1-0.2-0.3-0.3-0.4-0.5c0,0,0,0,0,0c0,0,0,0,0,0
		c-0.1-0.2-0.3-0.3-0.4-0.5c-0.2-0.2-0.3-0.3-0.5-0.5c-0.1-0.1-0.1-0.1-0.2-0.2c0,0-0.1-0.1-0.1-0.1c-0.1-0.1-0.1-0.1-0.2-0.2
		c-0.2-0.2-0.4-0.3-0.6-0.4c-0.2-0.1-0.4-0.2-0.5-0.3l-2.7-1.5c0.5,0.3,0.9,0.6,1.3,0.9c0,0,0.1,0.1,0.1,0.1
		c0.4,0.4,0.8,0.7,1.2,1.2c0,0,0,0,0,0c0.4,0.4,0.7,0.9,1,1.4c0,0,0,0.1,0.1,0.1c0.3,0.5,0.5,1,0.7,1.5c0,0,0,0,0,0.1
		c0.2,0.5,0.4,1.1,0.5,1.6c0,0.1,0,0.1,0,0.2c0.1,0.5,0.2,0.9,0.2,1.4c0,0.2,0,0.3,0,0.5c0,0.4,0,0.8,0,1.3c0,0.2,0,0.4,0,0.6
		c0,0.6-0.1,1.3-0.3,1.9c-0.1,0.5-0.3,1.1-0.4,1.6c-0.1,0.2-0.1,0.3-0.2,0.5c-0.1,0.3-0.2,0.5-0.3,0.8c-0.1,0.2-0.2,0.4-0.2,0.5
		c-0.1,0.2-0.1,0.3-0.2,0.5c-0.1,0.2-0.2,0.4-0.4,0.6c-0.1,0.1-0.1,0.2-0.2,0.3c-0.2,0.3-0.4,0.6-0.6,0.9c0,0,0,0,0,0
		c-0.2,0.3-0.4,0.6-0.7,0.9c-0.1,0.1-0.1,0.1-0.2,0.2c-0.2,0.3-0.5,0.5-0.7,0.8c0,0,0,0,0,0c-0.2,0.2-0.5,0.5-0.7,0.7
		c-0.1,0-0.1,0.1-0.2,0.1c-0.3,0.2-0.5,0.4-0.8,0.7c-0.1,0-0.1,0.1-0.2,0.1c-0.2,0.2-0.5,0.3-0.7,0.5c-0.1,0-0.1,0.1-0.2,0.1
		c-0.3,0.2-0.6,0.4-0.9,0.5c-0.1,0-0.1,0.1-0.2,0.1c-0.2,0.1-0.5,0.2-0.7,0.3c-0.1,0.1-0.3,0.1-0.4,0.2c-0.2,0.1-0.4,0.1-0.6,0.2
		c-0.2,0.1-0.4,0.1-0.7,0.2c-0.2,0-0.3,0.1-0.5,0.1c-0.3,0.1-0.6,0.1-0.8,0.1c-0.1,0-0.3,0-0.4,0.1c-0.4,0-0.8,0.1-1.2,0.1
		c-0.4,0-0.7,0-1.1-0.1c-0.4,0-0.7-0.1-1.1-0.2c-1.1-0.2-2-0.6-2.9-1.1l0,0l0,0l2.7,1.5c1.2,0.7,2.5,1.1,4,1.3
		c0.4,0,0.7,0.1,1.1,0.1c0.4,0,0.8,0,1.2-0.1c0.1,0,0.3,0,0.4-0.1c0.3,0,0.6-0.1,0.8-0.1c0.1,0,0.1,0,0.2,0c0.1,0,0.2-0.1,0.3-0.1
		c0.2-0.1,0.4-0.1,0.7-0.2c0.1,0,0.2,0,0.2-0.1c0.1,0,0.2-0.1,0.3-0.1c0.1-0.1,0.3-0.1,0.4-0.2c0.1,0,0.1,0,0.2-0.1
		c0.2-0.1,0.4-0.2,0.5-0.3c0.1,0,0.1-0.1,0.2-0.1c0,0,0,0,0.1,0c0.2-0.1,0.5-0.3,0.7-0.4c0,0,0.1,0,0.1-0.1c0.1,0,0.1-0.1,0.2-0.1
		c0.1-0.1,0.2-0.2,0.4-0.2c0.1-0.1,0.2-0.2,0.4-0.3c0.1,0,0.1-0.1,0.2-0.1c0,0,0.1,0,0.1-0.1c0.2-0.2,0.4-0.3,0.6-0.5
		c0,0,0.1-0.1,0.1-0.1c0.1,0,0.1-0.1,0.2-0.1c0.1-0.1,0.2-0.2,0.3-0.2c0.2-0.2,0.3-0.3,0.5-0.5c0,0,0,0,0,0c0,0,0,0,0,0
		c0.2-0.2,0.3-0.4,0.5-0.6c0.1-0.1,0.1-0.1,0.2-0.2c0.1-0.1,0.1-0.1,0.2-0.2c0.1-0.1,0.1-0.1,0.2-0.2c0.2-0.2,0.3-0.4,0.5-0.7
		c0,0,0,0,0,0c0,0,0,0,0,0c0.2-0.2,0.3-0.5,0.5-0.7c0-0.1,0.1-0.1,0.1-0.2c0.1-0.1,0.1-0.2,0.2-0.3C189.9,82.9,190,82.7,190,82.6z"
		/>
	
		<linearGradient id="SVGID_00000011002115554648126340000009547878540712393110_" gradientUnits="userSpaceOnUse" x1="-1745.6785" y1="-19.0974" x2="-1749.7286" y2="11.6168" gradientTransform="matrix(0.8965 0.4431 -0.4431 0.8965 1710.1072 854.0361)">
		<stop  offset="0" style="stop-color:#53CC5B"/>
		<stop  offset="9.990352e-02" style="stop-color:#47C055"/>
		<stop  offset="0.7047" style="stop-color:#007733"/>
		<stop  offset="1" style="stop-color:#007733"/>
	</linearGradient>
	<path style="fill:url(#SVGID_00000011002115554648126340000009547878540712393110_);" d="M152.5,78.8c0.1-0.1,0.1-0.2,0.2-0.3
		c0.1-0.1,0.2-0.3,0.2-0.5c0-0.1,0.1-0.2,0.1-0.2c0-0.1,0.1-0.2,0.1-0.3c0.1-0.3,0.2-0.5,0.3-0.8c0-0.1,0.1-0.2,0.1-0.3
		c0-0.1,0-0.1,0.1-0.2c0.2-0.5,0.3-1,0.4-1.6c0.1-0.7,0.2-1.3,0.3-1.9c0-0.2,0-0.4,0-0.6c0-0.4,0-0.7,0-1.1c0-0.1,0-0.1,0-0.2
		c0-0.2,0-0.3,0-0.5c0-0.2,0-0.5-0.1-0.7c0-0.2-0.1-0.5-0.1-0.7c0-0.1,0-0.1,0-0.2c0,0,0-0.1,0-0.1c-0.1-0.3-0.2-0.6-0.2-0.9
		c-0.1-0.2-0.2-0.4-0.2-0.6c0,0,0,0,0-0.1c0,0,0,0,0,0c-0.1-0.2-0.2-0.5-0.3-0.7c-0.1-0.2-0.2-0.4-0.3-0.6c0-0.1-0.1-0.1-0.1-0.2
		c0,0,0-0.1-0.1-0.1c-0.1-0.1-0.1-0.2-0.2-0.3c-0.1-0.2-0.2-0.4-0.4-0.5c-0.1-0.2-0.3-0.3-0.4-0.5c0,0,0,0,0,0c0,0,0,0,0,0
		c-0.1-0.2-0.3-0.3-0.4-0.5c-0.2-0.2-0.3-0.3-0.5-0.5c-0.1-0.1-0.1-0.1-0.2-0.2c0,0-0.1-0.1-0.1-0.1c-0.1-0.1-0.1-0.1-0.2-0.2
		c-0.2-0.2-0.4-0.3-0.6-0.4c-0.2-0.1-0.4-0.2-0.5-0.3l-2.7-1.5c0.5,0.3,0.9,0.6,1.3,0.9c0,0,0.1,0.1,0.1,0.1
		c0.4,0.4,0.8,0.7,1.2,1.2c0,0,0,0,0,0c0.4,0.4,0.7,0.9,1,1.4c0,0,0,0.1,0.1,0.1c0.3,0.5,0.5,1,0.7,1.5c0,0,0,0,0,0.1
		c0.2,0.5,0.4,1.1,0.5,1.6c0,0.1,0,0.1,0,0.2c0.1,0.5,0.2,0.9,0.2,1.4c0,0.2,0,0.3,0,0.5c0,0.4,0,0.8,0,1.3c0,0.2,0,0.4,0,0.6
		c0,0.6-0.1,1.3-0.3,1.9c-0.1,0.5-0.3,1.1-0.4,1.6c-0.1,0.2-0.1,0.3-0.2,0.5c-0.1,0.3-0.2,0.5-0.3,0.8c-0.1,0.2-0.2,0.4-0.2,0.5
		c-0.1,0.2-0.1,0.3-0.2,0.5c-0.1,0.2-0.2,0.4-0.3,0.6c-0.1,0.1-0.1,0.2-0.2,0.3c-0.2,0.3-0.4,0.6-0.6,0.9c0,0,0,0,0,0
		c-0.2,0.3-0.4,0.6-0.7,0.9c-0.1,0.1-0.1,0.1-0.2,0.2c-0.2,0.3-0.5,0.5-0.7,0.8c0,0,0,0,0,0c-0.2,0.2-0.5,0.5-0.7,0.7
		c-0.1,0-0.1,0.1-0.2,0.1c-0.3,0.2-0.5,0.4-0.8,0.7c-0.1,0-0.1,0.1-0.2,0.1c-0.2,0.2-0.5,0.3-0.7,0.5c-0.1,0-0.1,0.1-0.2,0.1
		c-0.3,0.2-0.6,0.4-0.9,0.5c-0.1,0-0.1,0.1-0.2,0.1c-0.2,0.1-0.5,0.2-0.7,0.3c-0.1,0.1-0.3,0.1-0.4,0.2c-0.2,0.1-0.4,0.1-0.6,0.2
		c-0.2,0.1-0.4,0.1-0.7,0.2c-0.2,0-0.3,0.1-0.5,0.1c-0.3,0.1-0.6,0.1-0.8,0.1c-0.1,0-0.3,0-0.4,0.1c-0.4,0-0.8,0.1-1.2,0.1
		c-0.3,0-0.7,0-1.1-0.1c-1.5-0.1-2.8-0.6-4-1.3l2.7,1.5c1.2,0.7,2.5,1.1,4,1.3c0.4,0,0.7,0.1,1.1,0.1c0.4,0,0.8,0,1.2-0.1
		c0.1,0,0.3,0,0.4-0.1c0.3,0,0.6-0.1,0.8-0.1c0.1,0,0.1,0,0.2,0c0.1,0,0.2-0.1,0.3-0.1c0.2-0.1,0.4-0.1,0.7-0.2c0.1,0,0.1,0,0.2-0.1
		c0.1,0,0.2-0.1,0.3-0.1c0.1-0.1,0.3-0.1,0.4-0.2c0.1,0,0.1,0,0.2-0.1c0.2-0.1,0.4-0.2,0.5-0.3c0.1,0,0.1-0.1,0.2-0.1c0,0,0,0,0.1,0
		c0.2-0.1,0.5-0.3,0.7-0.4c0,0,0.1,0,0.1-0.1c0.1,0,0.1-0.1,0.2-0.1c0.1-0.1,0.2-0.2,0.4-0.2c0.1-0.1,0.2-0.2,0.4-0.3
		c0.1,0,0.1-0.1,0.2-0.1c0,0,0.1,0,0.1-0.1c0.2-0.2,0.4-0.3,0.6-0.5c0,0,0.1-0.1,0.1-0.1c0.1,0,0.1-0.1,0.2-0.1
		c0.1-0.1,0.2-0.2,0.3-0.2c0.2-0.2,0.3-0.3,0.5-0.5c0,0,0,0,0,0c0,0,0,0,0,0c0.2-0.2,0.3-0.4,0.5-0.6c0.1-0.1,0.1-0.1,0.2-0.2
		c0.1-0.1,0.1-0.1,0.2-0.2c0.1-0.1,0.1-0.1,0.2-0.2c0.2-0.2,0.3-0.4,0.5-0.7c0,0,0,0,0,0c0,0,0,0,0,0c0.2-0.2,0.3-0.5,0.5-0.7
		c0-0.1,0.1-0.1,0.1-0.2c0.1-0.1,0.1-0.2,0.2-0.3C152.3,79,152.4,78.9,152.5,78.8z"/>
	
		<linearGradient id="SVGID_00000068673980707184984710000006149272835876523930_" gradientUnits="userSpaceOnUse" x1="-1780.7454" y1="-4.6294" x2="-1786.652" y2="24.9037" gradientTransform="matrix(0.8965 0.4431 -0.4431 0.8965 1710.1072 854.0361)">
		<stop  offset="0" style="stop-color:#53CC5B"/>
		<stop  offset="9.990352e-02" style="stop-color:#47C055"/>
		<stop  offset="0.7047" style="stop-color:#007733"/>
		<stop  offset="1" style="stop-color:#007733"/>
	</linearGradient>
	<path style="fill:url(#SVGID_00000068673980707184984710000006149272835876523930_);" d="M114.9,75c0.1-0.1,0.1-0.2,0.2-0.3
		c0.1-0.2,0.2-0.3,0.2-0.5c0-0.1,0.1-0.2,0.1-0.2c0-0.1,0.1-0.2,0.1-0.3c0.1-0.3,0.2-0.5,0.3-0.8c0-0.1,0.1-0.2,0.1-0.3
		c0-0.1,0-0.1,0.1-0.2c0.2-0.5,0.3-1,0.4-1.6c0.1-0.7,0.2-1.3,0.3-1.9c0-0.2,0-0.4,0-0.6c0-0.4,0-0.7,0-1c0-0.1,0-0.1,0-0.2
		c0-0.2,0-0.3,0-0.5c0-0.2,0-0.5-0.1-0.7c0-0.2-0.1-0.5-0.1-0.7c0-0.1,0-0.1,0-0.2c0,0,0-0.1,0-0.1c-0.1-0.3-0.2-0.6-0.2-0.9
		c-0.1-0.2-0.2-0.4-0.2-0.6c0,0,0,0,0-0.1c0,0,0,0,0,0c-0.1-0.2-0.2-0.5-0.3-0.7c-0.1-0.2-0.2-0.4-0.3-0.6c0-0.1-0.1-0.1-0.1-0.2
		c0,0,0-0.1-0.1-0.1c-0.1-0.1-0.1-0.2-0.2-0.3c-0.1-0.2-0.2-0.4-0.4-0.5c-0.1-0.2-0.3-0.3-0.4-0.5c0,0,0,0,0,0c0,0,0,0,0,0
		c-0.1-0.2-0.3-0.3-0.4-0.5c-0.2-0.2-0.3-0.3-0.5-0.5c-0.1-0.1-0.1-0.1-0.2-0.2c0,0-0.1-0.1-0.1-0.1c-0.1-0.1-0.1-0.1-0.2-0.2
		c-0.2-0.2-0.4-0.3-0.6-0.4c-0.2-0.1-0.4-0.2-0.5-0.3l-2.7-1.5c0.5,0.3,0.9,0.6,1.3,0.9c0,0,0.1,0.1,0.1,0.1
		c0.4,0.4,0.8,0.7,1.2,1.2c0,0,0,0,0,0c0.4,0.4,0.7,0.9,1,1.4c0,0,0,0.1,0.1,0.1c0.3,0.5,0.5,1,0.7,1.5c0,0,0,0,0,0.1
		c0.2,0.5,0.4,1.1,0.5,1.6c0,0.1,0,0.1,0,0.2c0.1,0.5,0.2,0.9,0.2,1.4c0,0.2,0,0.3,0,0.5c0,0.4,0,0.8,0,1.3c0,0.2,0,0.4,0,0.6
		c0,0.6-0.1,1.3-0.3,1.9c-0.1,0.5-0.3,1.1-0.4,1.6c-0.1,0.2-0.1,0.3-0.2,0.5c-0.1,0.3-0.2,0.5-0.3,0.8c-0.1,0.2-0.2,0.4-0.2,0.5
		c-0.1,0.2-0.1,0.3-0.2,0.5c-0.1,0.2-0.2,0.4-0.4,0.7c-0.1,0.1-0.1,0.2-0.2,0.3c-0.2,0.3-0.4,0.6-0.6,0.9c0,0,0,0,0,0.1
		c-0.2,0.3-0.4,0.6-0.7,0.9c-0.1,0.1-0.1,0.1-0.2,0.2c-0.2,0.3-0.5,0.5-0.7,0.8c0,0,0,0,0,0c-0.2,0.2-0.5,0.5-0.7,0.7
		c-0.1,0-0.1,0.1-0.2,0.1c-0.3,0.2-0.5,0.4-0.8,0.7c-0.1,0-0.1,0.1-0.2,0.1c-0.2,0.2-0.5,0.3-0.7,0.5c-0.1,0-0.1,0.1-0.2,0.1
		c-0.3,0.2-0.6,0.4-0.9,0.5c-0.1,0-0.2,0.1-0.2,0.1c-0.2,0.1-0.5,0.2-0.7,0.3c-0.1,0.1-0.3,0.1-0.4,0.2c-0.2,0.1-0.4,0.1-0.6,0.2
		c-0.2,0.1-0.4,0.1-0.7,0.2c-0.2,0-0.3,0.1-0.5,0.1c-0.3,0.1-0.6,0.1-0.8,0.1c-0.1,0-0.3,0-0.4,0.1c-0.4,0-0.8,0.1-1.2,0.1
		c-0.4,0-0.7,0-1.1-0.1c-1.1-0.1-2.1-0.4-3.1-0.8c-0.3-0.1-0.6-0.3-0.9-0.5l0,0l0,0l2.7,1.5c1.2,0.7,2.5,1.1,4,1.3
		c0.4,0,0.7,0.1,1.1,0.1c0.4,0,0.8,0,1.2-0.1c0.1,0,0.3,0,0.4-0.1c0.3,0,0.6-0.1,0.8-0.1c0.1,0,0.1,0,0.2,0c0.1,0,0.2-0.1,0.3-0.1
		c0.2-0.1,0.4-0.1,0.7-0.2c0.1,0,0.2,0,0.2-0.1c0.1,0,0.2-0.1,0.3-0.1c0.1-0.1,0.3-0.1,0.4-0.2c0.1,0,0.1,0,0.2-0.1
		c0.2-0.1,0.3-0.2,0.5-0.3c0.1,0,0.2-0.1,0.2-0.1c0,0,0,0,0.1,0c0.2-0.1,0.5-0.3,0.7-0.4c0,0,0.1,0,0.1-0.1c0.1,0,0.1-0.1,0.2-0.1
		c0.1-0.1,0.2-0.2,0.4-0.2c0.1-0.1,0.2-0.2,0.4-0.3c0.1,0,0.1-0.1,0.2-0.1c0,0,0.1,0,0.1-0.1c0.2-0.2,0.4-0.3,0.6-0.5
		c0,0,0.1-0.1,0.1-0.1c0.1,0,0.1-0.1,0.2-0.1c0.1-0.1,0.2-0.2,0.3-0.2c0.2-0.2,0.3-0.3,0.5-0.5c0,0,0,0,0,0c0,0,0,0,0,0
		c0.2-0.2,0.3-0.4,0.5-0.6c0.1-0.1,0.1-0.1,0.2-0.2c0.1-0.1,0.1-0.1,0.2-0.2c0.1-0.1,0.1-0.1,0.2-0.2c0.2-0.2,0.3-0.4,0.5-0.7
		c0,0,0,0,0,0c0,0,0,0,0,0c0.2-0.2,0.3-0.4,0.5-0.7c0-0.1,0.1-0.1,0.1-0.2c0.1-0.1,0.1-0.2,0.2-0.3C114.8,75.2,114.8,75.1,114.9,75z
		"/>
	
		<linearGradient id="SVGID_00000116948821316980597920000015401350914832071098_" gradientUnits="userSpaceOnUse" x1="-225.7339" y1="53.2351" x2="-241.6745" y2="-23.8109" gradientTransform="matrix(0.996 8.910000e-02 -8.910000e-02 0.996 376.7464 104.0533)">
		<stop  offset="0.3008" style="stop-color:#42C352"/>
		<stop  offset="0.4772" style="stop-color:#58CE5E"/>
		<stop  offset="0.995" style="stop-color:#95EE81"/>
	</linearGradient>
	<path style="fill:url(#SVGID_00000116948821316980597920000015401350914832071098_);" d="M180,62.8c6.4,0.7,10.5,7,8.9,14.1
		c-1.4,6.7-7.3,11.8-13.3,11.8c-0.4,0-0.7,0-1.1-0.1c-6.5-0.7-10.5-7-8.9-14.1c1.4-6.8,7.3-11.8,13.4-11.8
		C179.3,62.8,179.6,62.8,180,62.8z M141.3,58.9c-6.1,0-11.9,5-13.3,11.8c-1.5,7.1,2.5,13.4,8.9,14.1c0.4,0,0.7,0.1,1.1,0.1
		c6.1,0,11.9-5,13.3-11.8c1.5-7.1-2.5-13.4-8.9-14.1C142,59,141.7,58.9,141.3,58.9z M103.8,55.1c-6.1,0-11.9,5-13.3,11.8
		C88.9,74,92.9,80.3,99.4,81c0.4,0,0.7,0.1,1.1,0.1c6.1,0,11.9-5,13.3-11.8c1.5-7.1-2.5-13.4-8.9-14.1
		C104.5,55.1,104.1,55.1,103.8,55.1z"/>
	<g class="st52">
		
			<linearGradient id="SVGID_00000067231299495122056260000004635424202866892982_" gradientUnits="userSpaceOnUse" x1="-284.5345" y1="-28.1294" x2="-270.1414" y2="2.8957" gradientTransform="matrix(0.996 8.910000e-02 -8.910000e-02 0.996 376.7464 104.0533)">
			<stop  offset="7.574820e-02" style="stop-color:#FFFFFF"/>
			<stop  offset="1" style="stop-color:#FFFFFF;stop-opacity:0"/>
		</linearGradient>
		<path style="fill:url(#SVGID_00000067231299495122056260000004635424202866892982_);" d="M104.8,55.1c-0.4,0-0.7-0.1-1.1-0.1
			c-6.1,0-11.9,5-13.3,11.8C88.9,74,92.9,80.3,99.4,81c0.4,0,0.7,0.1,1.1,0.1c6.1,0,11.9-5,13.3-11.8
			C115.3,62.1,111.3,55.8,104.8,55.1z M100.4,80.5c-0.3,0-0.7,0-1-0.1c-1.2-0.1-2.3-0.4-3.3-0.9c-4.3-2.1-6.4-7.2-5.2-12.5
			c1.3-6.4,7-11.4,12.8-11.4c0.3,0,0.7,0,1,0.1c1.2,0.1,2.3,0.4,3.3,0.9c4.3,2.1,6.4,7.2,5.2,12.5C111.9,75.5,106.3,80.5,100.4,80.5
			z"/>
		
			<linearGradient id="SVGID_00000096052756521130934880000002914608776511946659_" gradientUnits="userSpaceOnUse" x1="-247.937" y1="-30.1546" x2="-233.5452" y2="0.8678" gradientTransform="matrix(0.996 8.910000e-02 -8.910000e-02 0.996 376.7464 104.0533)">
			<stop  offset="7.574820e-02" style="stop-color:#FFFFFF"/>
			<stop  offset="1" style="stop-color:#FFFFFF;stop-opacity:0"/>
		</linearGradient>
		<path style="fill:url(#SVGID_00000096052756521130934880000002914608776511946659_);" d="M142.4,59c-0.4,0-0.7-0.1-1.1-0.1
			c-6.1,0-11.9,5-13.3,11.8c-1.5,7.1,2.5,13.4,8.9,14.1c0.4,0,0.7,0.1,1.1,0.1c6.1,0,11.9-5,13.3-11.8C152.8,66,148.8,59.6,142.4,59
			z M138,84.3c-0.3,0-0.7,0-1-0.1c-1.2-0.1-2.3-0.4-3.3-0.9c-4.3-2.1-6.4-7.2-5.2-12.5c1.3-6.4,7-11.4,12.8-11.4c0.3,0,0.7,0,1,0.1
			c1.2,0.1,2.3,0.4,3.3,0.9c4.3,2.1,6.4,7.2,5.2,12.5C149.5,79.4,143.8,84.4,138,84.3z"/>
		
			<linearGradient id="SVGID_00000137845345556377964140000004235109403583703733_" gradientUnits="userSpaceOnUse" x1="-211.3336" y1="-32.1711" x2="-196.9462" y2="-1.158" gradientTransform="matrix(0.996 8.910000e-02 -8.910000e-02 0.996 376.7464 104.0533)">
			<stop  offset="7.574820e-02" style="stop-color:#FFFFFF"/>
			<stop  offset="1" style="stop-color:#FFFFFF;stop-opacity:0"/>
		</linearGradient>
		<path style="fill:url(#SVGID_00000137845345556377964140000004235109403583703733_);" d="M188.9,76.9c1.5-7.1-2.5-13.4-8.9-14.1
			c-0.3,0-0.7-0.1-1-0.1c-6.1,0-11.9,5-13.4,11.8c-1.5,7.1,2.5,13.4,8.9,14.1c0.4,0,0.7,0.1,1.1,0.1
			C181.6,88.7,187.5,83.7,188.9,76.9z M175.6,88.2c-0.3,0-0.7,0-1-0.1c-1.2-0.1-2.3-0.4-3.3-0.9c-4.3-2.1-6.4-7.2-5.2-12.5
			c1.3-6.4,7-11.4,12.9-11.4c0.3,0,0.7,0,1,0.1c1.1,0.1,2.2,0.4,3.2,0.9c4.3,2.1,6.4,7.2,5.2,12.6C187,83.2,181.4,88.2,175.6,88.2z"
			/>
	</g>
</g>
</svg>
