<?xml version="1.0" encoding="utf-8"?>
<!-- Generator: Adobe Illustrator 25.4.1, SVG Export Plug-In . SVG Version: 6.00 Build 0)  -->
<svg version="1.1" id="Layer_1" xmlns="http://www.w3.org/2000/svg" xmlns:xlink="http://www.w3.org/1999/xlink" x="0px" y="0px"
	 viewBox="0 0 73.8 76.5" style="enable-background:new 0 0 73.8 76.5;" xml:space="preserve">
<style type="text/css">
	.st0{enable-background:new    ;}
	.st1{fill:url(#SVGID_1_);}
	.st2{fill:url(#SVGID_00000099620823254186577620000005098372767892915114_);}
	.st3{fill:url(#SVGID_00000006672939274354011830000007848072884778921891_);}
	.st4{clip-path:url(#SVGID_00000102514207191705333680000015901765035045316541_);enable-background:new    ;}
	.st5{fill:#858585;}
	.st6{fill:url(#SVGID_00000176744460571334620900000015748057122821631885_);}
	.st7{fill:#808080;}
	.st8{fill:url(#SVGID_00000046331176692330595570000011326423595249497479_);}
	.st9{fill:url(#SVGID_00000041293650473185541920000016944726637189447829_);}
	.st10{fill:url(#SVGID_00000094610995785350547840000005385121619369045405_);}
	.st11{fill:url(#SVGID_00000123399091006152066310000014717371173627527575_);}
	.st12{fill:url(#SVGID_00000022547244617837881460000013596235114854517135_);}
	.st13{fill:url(#SVGID_00000125579365005705286810000003645923035874323339_);}
	.st14{fill:url(#SVGID_00000174570501332677059810000012954732680821000343_);}
	.st15{opacity:0.4;fill:url(#SVGID_00000042719536419722225110000005065355351291704220_);}
</style>
<g class="st0">
	<linearGradient id="SVGID_1_" gradientUnits="userSpaceOnUse" x1="47.9485" y1="13.4903" x2="33.8944" y2="6.5131">
		<stop  offset="3.764720e-02" style="stop-color:#6C60BB"/>
		<stop  offset="0.2834" style="stop-color:#8C7ED0"/>
		<stop  offset="0.4866" style="stop-color:#A092DB"/>
		<stop  offset="0.9869" style="stop-color:#E0D4FF"/>
	</linearGradient>
	<path class="st1" d="M36.2,3.7c-0.1-0.7,0.1-1.3,0.3-1.9l-1.6,3c-0.3,0.6-0.4,1.2-0.3,1.9l0.7,6.5l1.6-3L36.2,3.7z"/>
	
		<linearGradient id="SVGID_00000030478486311692221940000009665001152611194284_" gradientUnits="userSpaceOnUse" x1="66.4618" y1="35.5233" x2="71.5279" y2="38.3653">
		<stop  offset="0" style="stop-color:#6C60BB"/>
		<stop  offset="0.2306" style="stop-color:#6F62BD"/>
		<stop  offset="0.3722" style="stop-color:#776AC2"/>
		<stop  offset="0.4895" style="stop-color:#8578CC"/>
		<stop  offset="0.5278" style="stop-color:#8C7ED0"/>
		<stop  offset="0.814" style="stop-color:#A092DB"/>
		<stop  offset="1" style="stop-color:#E0D4FF"/>
	</linearGradient>
	<path style="fill:url(#SVGID_00000030478486311692221940000009665001152611194284_);" d="M69,37.1c-0.2,0-0.4,0-0.6,0l-1,0l-1.6,3
		l1,0c0.2,0,0.4,0,0.6,0c1.9-0.2,3.5-1.3,4.3-2.9l1.6-3C72.5,35.8,70.9,36.9,69,37.1z"/>
	
		<linearGradient id="SVGID_00000018220228014253984920000012193889817665768578_" gradientUnits="userSpaceOnUse" x1="66.5847" y1="46.5922" x2="71.5273" y2="49.4342">
		<stop  offset="0" style="stop-color:#6C60BB"/>
		<stop  offset="0.2306" style="stop-color:#6F62BD"/>
		<stop  offset="0.3722" style="stop-color:#776AC2"/>
		<stop  offset="0.4895" style="stop-color:#8578CC"/>
		<stop  offset="0.5278" style="stop-color:#8C7ED0"/>
		<stop  offset="0.814" style="stop-color:#A092DB"/>
		<stop  offset="1" style="stop-color:#E0D4FF"/>
	</linearGradient>
	<path style="fill:url(#SVGID_00000018220228014253984920000012193889817665768578_);" d="M69.1,48.2c-0.2,0-0.4,0-0.6,0l-1,0
		l-1.6,3l1,0c0.2,0,0.4,0,0.6,0c1.9-0.2,3.4-1.3,4.1-2.7l1.6-3C72.5,46.9,71,48,69.1,48.2z"/>
	<g class="st0">
		<defs>
			<path id="SVGID_00000106847445633430531060000013433257208913921938_" class="st0" d="M20.3,35.3l1.6-3c-0.2,0.3-0.2,0.7-0.2,1.1
				l-1.6,3C20,36,20.1,35.7,20.3,35.3z"/>
		</defs>
		<clipPath id="SVGID_00000029734269716520534230000017177715394151616663_">
			<use xlink:href="#SVGID_00000106847445633430531060000013433257208913921938_"  style="overflow:visible;"/>
		</clipPath>
		<g style="clip-path:url(#SVGID_00000029734269716520534230000017177715394151616663_);enable-background:new    ;">
			<path class="st5" d="M21.6,33.4l-1.6,3c0-0.4,0-0.8,0.2-1.1l1.6-3C21.6,32.6,21.6,33,21.6,33.4"/>
		</g>
	</g>
	
		<linearGradient id="SVGID_00000064325780792556489610000013313037891683588743_" gradientUnits="userSpaceOnUse" x1="65.5662" y1="57.0581" x2="71.6621" y2="60.312">
		<stop  offset="0" style="stop-color:#6C60BB"/>
		<stop  offset="0.2306" style="stop-color:#6F62BD"/>
		<stop  offset="0.3722" style="stop-color:#776AC2"/>
		<stop  offset="0.4895" style="stop-color:#8578CC"/>
		<stop  offset="0.5278" style="stop-color:#8C7ED0"/>
		<stop  offset="0.814" style="stop-color:#A092DB"/>
		<stop  offset="1" style="stop-color:#E0D4FF"/>
	</linearGradient>
	<path style="fill:url(#SVGID_00000064325780792556489610000013313037891683588743_);" d="M69.2,58.8c-0.2,0-0.3,0-0.5,0l-1.9,0
		l-1.6,3l1.9,0c0.2,0,0.4,0,0.5,0c1.8-0.2,3.2-1.2,4-2.6l1.6-3C72.5,57.6,71,58.6,69.2,58.8z"/>
	<g>
		<polygon class="st7" points="25.3,67.3 23.7,70.3 20,36.4 21.6,33.4 		"/>
	</g>
	
		<linearGradient id="SVGID_00000183963990716893263030000001892179254902044556_" gradientUnits="userSpaceOnUse" x1="24.6621" y1="64.4436" x2="71.4872" y2="73.766">
		<stop  offset="0" style="stop-color:#6C60BB"/>
		<stop  offset="3.037116e-02" style="stop-color:#6F62BD"/>
		<stop  offset="4.902035e-02" style="stop-color:#776AC2"/>
		<stop  offset="6.446420e-02" style="stop-color:#8578CC"/>
		<stop  offset="6.950830e-02" style="stop-color:#8C7ED0"/>
		<stop  offset="0.4844" style="stop-color:#9385D4"/>
		<stop  offset="0.9186" style="stop-color:#A092DB"/>
		<stop  offset="0.9869" style="stop-color:#E0D4FF"/>
	</linearGradient>
	<path style="fill:url(#SVGID_00000183963990716893263030000001892179254902044556_);" d="M68.3,68.6c-0.2,0-0.3,0-0.5,0l-40,0.8
		c-1.3,0-2.5-0.9-2.6-2.2l-1.6,3c0.1,1.2,1.3,2.2,2.6,2.2l40-0.8c0.2,0,0.3,0,0.5,0c1.6-0.2,3-1.1,3.7-2.4l1.6-3
		C71.3,67.4,70,68.4,68.3,68.6z"/>
	
		<linearGradient id="SVGID_00000075881396352528457460000016375818456621133707_" gradientUnits="userSpaceOnUse" x1="66.3292" y1="13.7115" x2="30.4579" y2="74.0142">
		<stop  offset="0" style="stop-color:#F2F9FF"/>
		<stop  offset="0.9569" style="stop-color:#D0BCFF"/>
		<stop  offset="1" style="stop-color:#CEB9FF"/>
	</linearGradient>
	<path style="fill:url(#SVGID_00000075881396352528457460000016375818456621133707_);" d="M69.1,48.2c2.9-0.3,5-2.7,4.6-5.6
		c-0.3-3-3.2-5.4-6.4-5.4l1,0c0.2,0,0.4,0,0.6,0c3-0.3,5.2-2.8,4.8-5.8c-0.3-3.2-3.3-5.7-6.6-5.6l-21.6,0.5c2.7-4.8,3.8-10.4,3.2-16
		l-0.3-2.8C48,3.2,44.1-0.1,39.7,0c-0.1,0-0.2,0-0.4,0c-1.9,0.2-3.3,1.8-3.1,3.7l0.7,6.5l-15,21.9c-0.3,0.4-0.4,0.9-0.3,1.3
		l3.7,33.8c0.1,1.2,1.3,2.2,2.6,2.2l40-0.8c0.2,0,0.3,0,0.5,0c2.6-0.3,4.4-2.4,4.1-4.9c-0.3-2.7-2.8-4.8-5.7-4.8l1.9,0
		c0.2,0,0.4,0,0.5,0c2.8-0.3,4.8-2.6,4.5-5.4c-0.3-2.9-3.1-5.2-6.1-5.2l1,0C68.8,48.2,69,48.2,69.1,48.2z"/>
	<g>
		
			<linearGradient id="SVGID_00000049201112121070648290000004413014981609862824_" gradientUnits="userSpaceOnUse" x1="67.5314" y1="15.2784" x2="32.6298" y2="64.5285">
			<stop  offset="7.574820e-02" style="stop-color:#FFFFFF"/>
			<stop  offset="1" style="stop-color:#FFFFFF;stop-opacity:0"/>
		</linearGradient>
		<path style="fill:url(#SVGID_00000049201112121070648290000004413014981609862824_);" d="M66.9,59.1c2.6,0,5,2,5.3,4.5
			c0.3,2.4-1.4,4.3-3.8,4.6c-0.2,0-0.3,0-0.5,0l-40,0.8c-1.1,0-2.1-0.9-2.2-1.9l-3.7-33.8c0-0.4,0.1-0.8,0.3-1.1l15.1-22l-0.7-6.6
			c-0.2-1.7,1-3.2,2.8-3.4c0.1,0,0.2,0,0.3,0l0.2,0c4.1,0,7.8,3.2,8.3,7.1l0.3,2.8c0.6,5.6-0.5,11.1-3.2,15.9L45,26.5L67.3,26
			c3.1,0,5.9,2.4,6.2,5.3c0.3,2.8-1.7,5.2-4.6,5.5c-0.2,0-0.4,0-0.5,0l-1,0l0,0.3l1,0c0.2,0,0.4,0,0.6,0c3-0.3,5.2-2.8,4.8-5.8
			c-0.3-3.2-3.3-5.7-6.6-5.6l-21.6,0.5c2.7-4.8,3.8-10.4,3.2-16l-0.3-2.8C48,3.2,44.1-0.1,39.7,0c-0.1,0-0.2,0-0.4,0
			c-1.9,0.2-3.3,1.8-3.1,3.7l0.7,6.5l-15,21.9c-0.3,0.4-0.4,0.9-0.3,1.3l3.7,33.8c0.1,1.2,1.3,2.2,2.6,2.2l40-0.8c0.2,0,0.3,0,0.5,0
			c2.6-0.3,4.4-2.4,4.1-4.9c-0.3-2.7-2.8-4.8-5.7-4.8l0,0.3L66.9,59.1z"/>
		
			<linearGradient id="SVGID_00000081631124683396595670000015106550758881095347_" gradientUnits="userSpaceOnUse" x1="86.8528" y1="28.9705" x2="51.951" y2="78.2209">
			<stop  offset="7.574820e-02" style="stop-color:#FFFFFF"/>
			<stop  offset="1" style="stop-color:#FFFFFF;stop-opacity:0"/>
		</linearGradient>
		<path style="fill:url(#SVGID_00000081631124683396595670000015106550758881095347_);" d="M67.7,48.5c2.9,0,5.4,2.2,5.7,4.9
			c0.3,2.6-1.5,4.7-4.2,5c-0.2,0-0.3,0-0.5,0l-1.9,0l0,0.3l1.9,0c0.2,0,0.4,0,0.5,0c2.8-0.3,4.8-2.6,4.5-5.4
			c-0.3-2.9-3.1-5.2-6.1-5.2l0,0.3L67.7,48.5z"/>
		
			<linearGradient id="SVGID_00000135660210287817861120000000248791473822972809_" gradientUnits="userSpaceOnUse" x1="81.7029" y1="25.321" x2="46.8012" y2="74.5713">
			<stop  offset="7.574820e-02" style="stop-color:#FFFFFF"/>
			<stop  offset="1" style="stop-color:#FFFFFF;stop-opacity:0"/>
		</linearGradient>
		<path style="fill:url(#SVGID_00000135660210287817861120000000248791473822972809_);" d="M69.1,48.2c2.9-0.3,5-2.7,4.6-5.6
			c-0.3-3-3.2-5.4-6.4-5.4l0,0.3l0.1,0c3,0,5.7,2.3,6,5.1c0.3,2.7-1.6,4.9-4.4,5.3c-0.2,0-0.4,0-0.5,0l-1,0l0,0.3l1,0
			C68.8,48.2,69,48.2,69.1,48.2z"/>
	</g>
	
		<linearGradient id="SVGID_00000134960921358157385340000003366248802300652185_" gradientUnits="userSpaceOnUse" x1="-8.8517" y1="37.011" x2="21.9806" y2="76.8614">
		<stop  offset="0" style="stop-color:#32A5FC"/>
		<stop  offset="8.266537e-03" style="stop-color:#2B97EE"/>
		<stop  offset="3.166116e-02" style="stop-color:#1874CD"/>
		<stop  offset="5.378490e-02" style="stop-color:#0B5BB5"/>
		<stop  offset="7.393318e-02" style="stop-color:#034CA6"/>
		<stop  offset="9.030309e-02" style="stop-color:#0047A1"/>
		<stop  offset="0.16" style="stop-color:#003E96"/>
		<stop  offset="0.2919" style="stop-color:#003187"/>
		<stop  offset="0.447" style="stop-color:#002A7E"/>
		<stop  offset="0.6801" style="stop-color:#00287B"/>
		<stop  offset="0.7037" style="stop-color:#002C81"/>
		<stop  offset="0.7336" style="stop-color:#003990"/>
		<stop  offset="0.7563" style="stop-color:#0047A1"/>
		<stop  offset="0.8664" style="stop-color:#0149A3"/>
		<stop  offset="0.906" style="stop-color:#0550A9"/>
		<stop  offset="0.9343" style="stop-color:#0B5BB5"/>
		<stop  offset="0.9571" style="stop-color:#146CC5"/>
		<stop  offset="0.9767" style="stop-color:#2082DA"/>
		<stop  offset="0.9937" style="stop-color:#2E9DF4"/>
		<stop  offset="0.998" style="stop-color:#32A5FC"/>
	</linearGradient>
	<path style="fill:url(#SVGID_00000134960921358157385340000003366248802300652185_);" d="M23.1,73.2c-0.1,0-0.2,0-0.3,0L9.2,73.5
		c-1.7,0-3.3-1.3-3.5-2.9L1.6,31.9c0-0.3,0-0.5,0-0.8c0-0.1,0.1-0.3,0.1-0.4c0-0.1,0.1-0.2,0.2-0.4l0,0c0,0,0,0,0,0l-1.5,2.9l0,0.1
		l0,0l0,0c0,0,0,0.1,0,0.1c-0.1,0.2-0.2,0.4-0.2,0.6c0,0.1,0,0.3,0,0.4c0,0.1,0,0.3,0,0.4l4.2,38.6c0.2,1.6,1.7,2.9,3.5,2.9
		l13.5-0.3c0.1,0,0.2,0,0.3,0c1-0.1,1.8-0.7,2.2-1.5l1.6-3C24.9,72.5,24.1,73.1,23.1,73.2z"/>
	
		<linearGradient id="SVGID_00000028310786877617439570000005506314739256775870_" gradientUnits="userSpaceOnUse" x1="-6.9398" y1="84.4066" x2="27.3045" y2="28.7138">
		<stop  offset="1.422640e-02" style="stop-color:#0047A1"/>
		<stop  offset="0.3943" style="stop-color:#0057BC"/>
		<stop  offset="0.4814" style="stop-color:#005BC3"/>
		<stop  offset="0.6625" style="stop-color:#157ADB"/>
		<stop  offset="0.8778" style="stop-color:#2A99F3"/>
		<stop  offset="0.998" style="stop-color:#32A5FC"/>
	</linearGradient>
	<path style="fill:url(#SVGID_00000028310786877617439570000005506314739256775870_);" d="M25.6,70.2l-0.3-2.9l-3.7-33.8l-0.2-1.9
		c-0.2-1.6-1.7-2.9-3.5-2.9L4.4,28.9c-0.1,0-0.2,0-0.3,0c-1.6,0.2-2.7,1.5-2.5,3l4.2,38.6c0.2,1.6,1.7,2.9,3.5,2.9l13.5-0.3
		c0.1,0,0.2,0,0.3,0C24.6,73,25.7,71.7,25.6,70.2z"/>
	
		<linearGradient id="SVGID_00000106857244090450537250000003753303558618026917_" gradientUnits="userSpaceOnUse" x1="23.0293" y1="29.9841" x2="4.262" y2="71.7841">
		<stop  offset="7.574820e-02" style="stop-color:#FFFFFF"/>
		<stop  offset="1" style="stop-color:#FFFFFF;stop-opacity:0"/>
	</linearGradient>
	<path style="opacity:0.4;fill:url(#SVGID_00000106857244090450537250000003753303558618026917_);" d="M25.6,70.2l-0.3-2.9
		l-3.7-33.8l-0.2-1.9c-0.2-1.6-1.7-2.9-3.5-2.9L4.4,28.9c-0.1,0-0.2,0-0.3,0c-1.6,0.2-2.7,1.5-2.5,3l4.2,38.6
		c0.2,1.6,1.7,2.9,3.5,2.9l13.5-0.3c0.1,0,0.2,0,0.3,0C24.6,73,25.7,71.7,25.6,70.2z M23,72.9c-0.1,0-0.2,0-0.3,0L9.1,73.2
		c-1.5,0-2.9-1.2-3.1-2.6L1.9,31.9c-0.2-1.4,0.8-2.5,2.2-2.7c0.1,0,0.2,0,0.3,0l13.6-0.3c1.6,0,3,1.2,3.1,2.6l4.2,38.6
		C25.4,71.6,24.5,72.7,23,72.9z"/>
</g>
</svg>
