<?xml version="1.0" encoding="utf-8"?>
<!-- Generator: Adobe Illustrator 25.4.1, SVG Export Plug-In . SVG Version: 6.00 Build 0)  -->
<svg version="1.1" id="Layer_1" xmlns="http://www.w3.org/2000/svg" xmlns:xlink="http://www.w3.org/1999/xlink" x="0px" y="0px"
	 viewBox="0 0 195 347.9" style="enable-background:new 0 0 195 347.9;" xml:space="preserve">
<style type="text/css">
	.st0{fill:#FFE1C5;}
	.st1{fill:#F4B49D;}
	.st2{filter:url(#Adobe_OpacityMaskFilter);}
	.st3{fill:url(#SVGID_00000096018229446923932150000001005455986478948757_);}
	.st4{mask:url(#SVGID_1_);fill:#FFE9D9;}
	.st5{filter:url(#Adobe_OpacityMaskFilter_00000145772233013995733230000015611649435690545343_);}
	.st6{fill:url(#SVGID_00000105426626003995677680000018270322490031149457_);}
	.st7{mask:url(#SVGID_00000070085691607929334310000001831595256593797537_);fill:#FFE9D9;}
	.st8{fill:#FFEEE1;}
	.st9{filter:url(#Adobe_OpacityMaskFilter_00000057855032203180924330000001581239602944821660_);}
	.st10{fill:url(#SVGID_00000158002280809659927040000015162740593243110814_);}
	.st11{mask:url(#SVGID_00000127024483444310135160000002481120764997492922_);fill:#FFE9D9;}
	.st12{opacity:0.6;fill:#FFF1E6;}
	.st13{fill:#FFCFAE;}
	.st14{opacity:0.14;fill:#F7B208;}
</style>
<g>
	<path class="st0" d="M158.1,54.2c0,0,2.7-12.7,11.3-17.2c8.7-4.6,14.8-1.6,16.5,0.2c4.5,5,1.5,26.8,0.2,38
		c-5,42.5,0.8,103.1,0.8,103.1l-11.2-19.1l-18.8-86.1L158.1,54.2z"/>
	<path class="st1" d="M185.8,37.2c-1.6-1.8-7.8-4.8-16.5-0.2c-8.5,4.5-11.3,17.2-11.3,17.2l-1.2,18.9l18.8,86.1l11.2,19.1
		c0,0-0.1-0.7-0.2-1.9c-1.5-3.1-4.4-9.9-6.7-19.3c-8.6-35.7-9.7-52.2-12.1-70.4c-1.2-8.9-6.1-32,1.8-41.5c5.8-6.9,14.7-6,17.6-5.3
		C186.8,38.8,186.4,37.9,185.8,37.2z"/>
	<path class="st0" d="M121.4,46.1c0,0-3.4-20.1,1.1-30C127.3,5.4,136-0.4,143,0c5.9,0.3,8.2,7.5,8.9,11.7c1.9,10.6,4.2,23.6,6,36
		c1.6,10.6,15.9,98.5,15.9,98.5L156.8,130L121.4,46.1z"/>
	<path class="st1" d="M156.8,130l17.1,16.2c0,0,0-4.5-1.1-11.6c-5.3-13.9-18.6-51.1-24.5-64.3c-7.2-16-15.2-19.5-18.4-26.1
		c-1.7-3.6-7.5-17.5,0.5-30.9c8-13.4,18.8-9.5,18.8-9.5l0,0c-1.4-2.1-3.3-3.6-6-3.8c-7.1-0.4-15.8,5.3-20.6,16.1
		c-3.9,8.7-1.8,25-1.2,29.1l0.8,2.5L156.8,130z"/>
	<path class="st0" d="M121.1,129c0,0-7-13.9-12.5-25.6c-4.8-10.3-9.8-19.9-13.5-25.7c-3.7-5.8-19.9-20.8-31.4-36.1
		C49.6,22.9,59,8.4,60.8,7c2.4-1.9,10.2,0,26.6,9.9c18.5,11.2,48.4,38.1,54.1,49.8c7.3,15.1,44.3,110.1,44.3,110.1l-34.5-26.4
		L121.1,129z"/>
	<defs>
		<filter id="Adobe_OpacityMaskFilter" filterUnits="userSpaceOnUse" x="61.8" y="9" width="115.8" height="150.1">
			<feColorMatrix  type="matrix" values="1 0 0 0 0  0 1 0 0 0  0 0 1 0 0  0 0 0 1 0"/>
		</filter>
	</defs>
	<mask maskUnits="userSpaceOnUse" x="61.8" y="9" width="115.8" height="150.1" id="SVGID_1_">
		<g class="st2">
			
				<linearGradient id="SVGID_00000181809809112967713870000009604803078108773763_" gradientUnits="userSpaceOnUse" x1="37.8688" y1="-38.0922" x2="162.3833" y2="134.9559">
				<stop  offset="0" style="stop-color:#FFFFFF"/>
				<stop  offset="1" style="stop-color:#000000"/>
			</linearGradient>
			<path style="fill:url(#SVGID_00000181809809112967713870000009604803078108773763_);" d="M71.1,9.1c-2.3-0.7-6.3,0.9-7.8,5
				c-1.5,4.1-4.5,13.9,6.9,28.4C79.8,54.7,93,66.9,98.8,74c8,9.8,20.8,41.5,26.5,47c4.8,4.7,18.1,9.9,29,17.3
				c17.4,11.8,22.6,21.9,23.3,20.7c0.3-0.6-32.9-86-39-94.9c-6.1-8.9-17.1-20.7-38-37.2C86,15.5,75.1,10.3,71.1,9.1z"/>
		</g>
	</mask>
	<path class="st4" d="M71.1,9.1c-2.3-0.7-6.3,0.9-7.8,5c-1.5,4.1-4.5,13.9,6.9,28.4C79.8,54.7,93,66.9,98.8,74
		c8,9.8,20.8,41.5,26.5,47c4.8,4.7,18.1,9.9,29,17.3c17.4,11.8,22.6,21.9,23.3,20.7c0.3-0.6-32.9-86-39-94.9
		c-6.1-8.9-17.1-20.7-38-37.2C86,15.5,75.1,10.3,71.1,9.1z"/>
	<path class="st1" d="M180.7,163.4c-5.1-4.9-13.4-14.8-27.3-24.1c-12.8-8.6-22.8-12.6-25.6-14.6c-3.7-2.6-6.1-4.6-14-21.2
		c-6-12.5-11.1-22.9-16.7-29.7c-6.9-8.5-14.7-14.8-21.4-23c-7.6-9.3-15-18.1-14.9-28.4c0.2-11,6.1-15.5,6.1-15.5
		c-1.2-0.3-2.1-0.5-3-0.5c0,0,0,0-0.1,0c-0.1,0-0.2,0-0.4,0c0,0-0.1,0-0.1,0c-0.1,0-0.2,0-0.3,0c0,0-0.1,0-0.1,0c-0.1,0-0.2,0-0.3,0
		c0,0,0,0-0.1,0c-0.2,0-0.3,0-0.5,0.1c0,0-0.1,0-0.2,0c-0.1,0-0.1,0-0.2,0c-0.1,0-0.1,0-0.2,0c0,0-0.1,0-0.1,0c-0.1,0-0.1,0-0.2,0.1
		c0,0-0.1,0-0.1,0c-0.1,0-0.1,0.1-0.2,0.1c0,0-0.1,0-0.1,0c-0.1,0-0.2,0.1-0.2,0.2C59,8.4,49.6,22.9,63.7,41.6
		c11.5,15.3,27.7,30.3,31.4,36.1c3.7,5.8,8.7,15.3,13.5,25.7c5.5,11.7,12.5,25.6,12.5,25.6l30.3,21.3l34.5,26.4
		C185.9,176.7,183.9,171.5,180.7,163.4z"/>
	<path class="st0" d="M192.5,195.5c1,5.7,2.6,20.5,2.5,32.6c-0.1,14.4-1.5,32.7-7.7,52c-2.2,6.8-3.6,16.6-3.3,24.9
		c0.2,5.1,0.5,10.7-0.9,14.4c-2.4,6.2-5.6,8.8-10,12.7c-3.3,3-19.9,15.9-50.3,15.9c-29.2-0.1-41.3-6.8-44.7-10.1
		c-2.7-2.6,0.4-12.4-5.2-17.7c-3-2.9-7.1-5.3-11.2-10.3c-7-8.5-9.7-13.8-12.8-17.5c-5.5-6.6-11.8-8.5-26.4-29.7
		c-10.1-14.7-14.5-22-18.4-31.6c-5.3-13-5.6-27-1.2-31.5c5.1-5.3,10-6.8,19.9-2.1c7.3,3.5,12.6,15.9,17.3,22.8
		c6.3,9.5,13.1,18.2,16.2,21.2c2.7,2.6,21,11.5,26.2,11.7c3.4,0.2,12.8-5.3,17.5-8.3c4.7-3,11.5-6.7,13.4-11.7
		c6.6-17.5,9.7-42.2,7.8-45.1c-2.5-3.9-10.8-11.8-18.3-18.9c-8.1-7.5-15.9-16.9-25.4-16.2c-9.4,0.6-19.2,13.4-26.5,20.7
		c-7.3,7.3-12,14.5-19.5,18.6c-8,4.4-18.8,2.1-18.6-1.1c0.3-4.9-0.3-10.5,6.9-28.7c3-7.7,7.2-14.3,10.7-18
		c10.3-10.9,27.1-31.8,43.7-35.5c11.3-2.5,45.7,18.5,54.8,23c14.3,7.1,22,11.6,38.5,24.1C188.1,171.7,191.5,189.8,192.5,195.5z"/>
	<defs>
		
			<filter id="Adobe_OpacityMaskFilter_00000137124348418563683420000017726343772464029828_" filterUnits="userSpaceOnUse" x="5.8" y="195.3" width="142.7" height="147.9">
			<feColorMatrix  type="matrix" values="1 0 0 0 0  0 1 0 0 0  0 0 1 0 0  0 0 0 1 0"/>
		</filter>
	</defs>
	
		<mask maskUnits="userSpaceOnUse" x="5.8" y="195.3" width="142.7" height="147.9" id="SVGID_00000032629493553261948410000014534721477198495932_">
		<g style="filter:url(#Adobe_OpacityMaskFilter_00000137124348418563683420000017726343772464029828_);">
			
				<linearGradient id="SVGID_00000024724223477299507830000004384590244387689148_" gradientUnits="userSpaceOnUse" x1="-31.7159" y1="188.3462" x2="113.7699" y2="313.8207">
				<stop  offset="0" style="stop-color:#FFFFFF"/>
				<stop  offset="1" style="stop-color:#000000"/>
			</linearGradient>
			<path style="fill:url(#SVGID_00000024724223477299507830000004384590244387689148_);" d="M6.4,197.6c-1.3,1.8-2.4,25.7,18.4,55.6
				c12.1,17.4,28.7,29.9,32,33.6c4,4.4,6.8,12.6,11.8,18.1c5.5,6,8.5,5.1,12.5,8.8c5.6,5.2,5.1,15.4,11.2,22.6
				c6.1,7.2,43.5,9,52.7,4c8.1-4.4,0.4-42.3-8.1-47.7c-8.5-5.4-31.2-16.8-36.6-20.1c-5.4-3.4-18.1-11.5-23.1-14.5
				c-5-3-21.1-11.7-25.5-17c-4-4.8-10.3-16.4-15.9-26.1c-4-6.9-7.3-12.9-9.9-14.9C18.2,194.4,9,194,6.4,197.6z"/>
		</g>
	</mask>
	<path style="mask:url(#SVGID_00000032629493553261948410000014534721477198495932_);fill:#FFE9D9;" d="M6.4,197.6
		c-1.3,1.8-2.4,25.7,18.4,55.6c12.1,17.4,28.7,29.9,32,33.6c4,4.4,6.8,12.6,11.8,18.1c5.5,6,8.5,5.1,12.5,8.8
		c5.6,5.2,5.1,15.4,11.2,22.6c6.1,7.2,43.5,9,52.7,4c8.1-4.4,0.4-42.3-8.1-47.7c-8.5-5.4-31.2-16.8-36.6-20.1
		c-5.4-3.4-18.1-11.5-23.1-14.5c-5-3-21.1-11.7-25.5-17c-4-4.8-10.3-16.4-15.9-26.1c-4-6.9-7.3-12.9-9.9-14.9
		C18.2,194.4,9,194,6.4,197.6z"/>
	<path class="st8" d="M17,218.8c1.1-8.8-4.7-21.8-5.7-24.1c-3.2,0.4-5.7,2.1-8.3,4.8c-4.3,4.5-4,18.6,1.2,31.5
		C4.2,231.1,15.8,228.8,17,218.8z"/>
	<defs>
		
			<filter id="Adobe_OpacityMaskFilter_00000013915645807307501810000006064984213860105629_" filterUnits="userSpaceOnUse" x="13.8" y="109.6" width="164" height="85.9">
			<feColorMatrix  type="matrix" values="1 0 0 0 0  0 1 0 0 0  0 0 1 0 0  0 0 0 1 0"/>
		</filter>
	</defs>
	
		<mask maskUnits="userSpaceOnUse" x="13.8" y="109.6" width="164" height="85.9" id="SVGID_00000132767949342686454090000015380426508021933487_">
		<g style="filter:url(#Adobe_OpacityMaskFilter_00000013915645807307501810000006064984213860105629_);">
			
				<linearGradient id="SVGID_00000142158132270594860480000017632384795510029722_" gradientUnits="userSpaceOnUse" x1="30.24" y1="91.8431" x2="98.9388" y2="187.084">
				<stop  offset="0" style="stop-color:#FFFFFF"/>
				<stop  offset="1" style="stop-color:#000000"/>
			</linearGradient>
			<path style="fill:url(#SVGID_00000142158132270594860480000017632384795510029722_);" d="M14,190.1c0.4,0.8,7.7,3.3,13.3-0.1
				c5.8-3.4,13.3-13.1,21.2-22.6c8.6-10.3,18-20.2,27.4-20.8c15.2-1,26.6,13.1,36.9,22.1c6.5,5.7,18.6,18,22.6,20.4
				c4,2.4,10.9,5.3,14.9,6.3c4,1,28.3-2.7,27.4-6.3c-0.8-3.5-6.2-23.2-14.8-33.7c-4.1-5-10-9.1-15.6-12.5c-7-4.2-14.3-7.5-18.8-10.1
				c-9.8-5.4-41.4-24.8-53-23.1c-12.5,1.8-25.7,15.5-33.2,23.6c-3.2,3.4-10.4,10-14.2,15.1c-4.2,5.7-7.5,13-10.1,20.6
				C13.8,181.9,13.4,188.9,14,190.1z"/>
		</g>
	</mask>
	<path style="mask:url(#SVGID_00000132767949342686454090000015380426508021933487_);fill:#FFE9D9;" d="M14,190.1
		c0.4,0.8,7.7,3.3,13.3-0.1c5.8-3.4,13.3-13.1,21.2-22.6c8.6-10.3,18-20.2,27.4-20.8c15.2-1,26.6,13.1,36.9,22.1
		c6.5,5.7,18.6,18,22.6,20.4c4,2.4,10.9,5.3,14.9,6.3c4,1,28.3-2.7,27.4-6.3c-0.8-3.5-6.2-23.2-14.8-33.7c-4.1-5-10-9.1-15.6-12.5
		c-7-4.2-14.3-7.5-18.8-10.1c-9.8-5.4-41.4-24.8-53-23.1c-12.5,1.8-25.7,15.5-33.2,23.6c-3.2,3.4-10.4,10-14.2,15.1
		c-4.2,5.7-7.5,13-10.1,20.6C13.8,181.9,13.4,188.9,14,190.1z"/>
	<path class="st8" d="M16.9,189.5c3.3-0.2,5.7-1.3,5.7-1.3s3.1-5.8,2.8-13.3c-0.3-5.9-4-11.4-5.3-13.1c-0.1,0.2-0.2,0.5-0.3,0.7
		c-6.2,15.8-6.6,22.2-6.8,26.8C13.7,189.4,15,189.6,16.9,189.5z"/>
	<path class="st1" d="M172.7,332.5c-0.1,0.1-14.6,10.2-37.9,11.7c-15.3,0.9-32.3,0.7-41.2-6.1c-8.9-6.8-6.3-13.8-11.8-21.6
		c-4-5.7-9.2-5.6-14.5-11.9c-6.3-7.5-6.5-12.1-11.9-17.8c-5-5.2-18.4-16-27.3-27.4c-12.4-15.8-17.7-31.2-17.7-31.2l-6.5,2
		c0.1,0.3,0.2,0.6,0.4,0.9c3.9,9.5,8.3,16.9,18.4,31.6c14.6,21.2,20.9,23.1,26.4,29.7c3.1,3.7,5.8,9,12.8,17.5
		c4.1,5,8.2,7.4,11.2,10.3c5.6,5.3,2.5,15.1,5.2,17.7c3.4,3.3,15.5,10,44.7,10.1C152,348,168.4,336.1,172.7,332.5z"/>
	<path class="st1" d="M147.8,196.7c0.8-2.1-5.3-3.5-11.3-6.3c-4.2-2-18.1-16-29.1-26.2c-11-10.2-19-17.7-30.3-17.1
		c-13.7,0.8-25.5,18.9-32.8,26.7c-6.6,7-12.3,15.5-18.6,17.5c-6.7,2.1-12.3-0.5-12.3-0.5c0,0,0,0,0,0c0,0,0,0,0,0v0.8l0,0
		c0.2,1,1.3,1.8,3,2.4c0,0,0,0,0,0c0.1,0,0.3,0.1,0.4,0.1c0,0,0.1,0,0.1,0c0.1,0,0.3,0.1,0.4,0.1c0,0,0.1,0,0.1,0
		c0.1,0,0.3,0.1,0.4,0.1c0.1,0,0.1,0,0.2,0c0.1,0,0.3,0,0.4,0.1c0.1,0,0.2,0,0.2,0c0.1,0,0.3,0,0.4,0.1c0.1,0,0.2,0,0.3,0
		c0.1,0,0.3,0,0.4,0c0.1,0,0.2,0,0.3,0c0.1,0,0.3,0,0.4,0c0.1,0,0.2,0,0.3,0c0.1,0,0.3,0,0.4,0c0.1,0,0.2,0,0.4,0c0.1,0,0.2,0,0.4,0
		c0.1,0,0.2,0,0.4,0c0.1,0,0.2,0,0.4,0c0.1,0,0.3,0,0.4,0c0.1,0,0.2,0,0.4,0c0.1,0,0.3,0,0.4,0c0.1,0,0.2,0,0.4,0c0.1,0,0.3,0,0.4,0
		c0.1,0,0.2,0,0.4,0c0.1,0,0.3,0,0.4-0.1c0.1,0,0.2,0,0.4-0.1c0.1,0,0.3,0,0.4-0.1c0.1,0,0.2,0,0.4-0.1c0.1,0,0.3-0.1,0.4-0.1
		c0.1,0,0.2-0.1,0.4-0.1c0.1,0,0.3-0.1,0.4-0.1c0.1,0,0.2-0.1,0.4-0.1c0.1,0,0.3-0.1,0.4-0.1c0.1,0,0.2-0.1,0.3-0.1
		c0.2,0,0.3-0.1,0.4-0.2c0.1,0,0.2-0.1,0.3-0.1c0.2-0.1,0.3-0.1,0.5-0.2c0.1,0,0.2-0.1,0.3-0.1c0.2-0.1,0.3-0.2,0.5-0.2
		c0.1,0,0.2-0.1,0.3-0.1c0.2-0.1,0.5-0.3,0.7-0.4c7.5-4.1,12.2-11.4,19.5-18.6c7.3-7.3,17.1-20.1,26.5-20.7
		c9.5-0.6,17.3,8.7,25.4,16.2c7.5,7,15.8,15,18.3,18.9c1.9,2.9-1.2,27.6-7.8,45.1c-1.9,5-8.7,8.6-13.4,11.7
		c-4.7,3-14.1,8.5-17.5,8.3c-5.1-0.2-23.4-9.1-26.2-11.7c-3.1-3-9.9-11.8-16.2-21.2c-0.5-0.7-1-1.5-1.5-2.3c-0.9-1.2-1.5-2-1.7-2.2
		c0,0,4.9,8.5,8.7,15.1c1,1.7,5.2,9,9.3,12.3c4.1,3.4,16.6,11,20,12.8c14.2,7.8,23.8,15.7,25,14.8c1.2-0.9-2.4-3-3.6-8.1
		c-0.5-2.2-1.6-5.7,0.3-9.1c1.9-3.4,14.1-7.3,20.6-16.9c3.6-5.2,5.8-20.4,10.2-33.1C130.5,196.6,147.1,198.8,147.8,196.7z"/>
	<path class="st12" d="M181.3,41.8c-0.1,1.7,0.1,8.4,0.7,11.2c0.5,2.3,4.6,3.5,6,3.8c0.5-7,0.5-13.6-0.9-17.4
		C185.3,39.7,181.3,40.4,181.3,41.8z"/>
	<path class="st13" d="M195,228.1c0.1-12-1.5-26.9-2.5-32.6c-1-5.7-4.5-23.8-24.9-39.3c-3.1-2.3-5.9-4.4-8.4-6.3
		c0.2,0.1,15.1,11.6,21,47.1c3.1,18.9,2.6,41.3,1.3,52.7c-1.8,15.6-8.7,30.6-9.5,46.8c-0.3,7.1,2.6,13.9,1.5,23.1
		c-1.5,12.1-8.6,17.1-8.6,17.1l2-0.2c3.2-2,5.3-3.7,6.3-4.6c4.3-3.9,7.6-6.5,10-12.7c1.4-3.7,1.1-9.3,0.9-14.4
		c-0.2-8.3,1.1-18,3.3-24.9C193.5,260.8,194.9,242.5,195,228.1z"/>
	<path class="st12" d="M152,11.8c-0.7-3.7-2.5-9.7-7-11.3c-0.7,0.6-1.4,2.1-1.3,5.1c0.1,3.1,3.4,14.6,5.4,21.5c0.6,1.9,4,3,5.6,0.7
		C153.8,22.1,152.8,16.6,152,11.8z"/>
	<path class="st14" d="M7.8,229.8l2.6-1.5c0,0-3.2-6.4-4.6-15.4c-1.4-9-0.7-15.2-0.7-15.2c-0.7,0.6-1.5,1.3-2.2,2
		c-4.3,4.5-4,18.3,1.1,31.1L7.8,229.8z"/>
	<path class="st12" d="M87.4,16.9C74.8,9.2,67.3,6.3,63.4,6.3c-0.9,0.7-1.9,2-0.3,4.2c4.1,5.3,13.5,11.7,19.3,11.4
		c2.7-0.1,4.9-3.4,5.7-4.6C87.8,17.1,87.6,17,87.4,16.9z"/>
</g>
</svg>
