<svg width="2500" height="742" viewBox="0 0 512 152" xmlns="http://www.w3.org/2000/svg" preserveAspectRatio="xMidYMid"><path d="M511.891 76.196c.017 41.818-33.868 75.731-75.686 75.75-41.817.016-75.73-33.87-75.748-75.687v-.063C360.439 34.378 394.325.465 436.143.448 477.96.43 511.874 34.316 511.89 76.133v.063" fill="#DB3975"/><path d="M406.218 53.79h12.338v51.835h-12.338V53.789zM451.577 107.179c-16.171 0-26.958-11.817-26.958-27.68 0-15.86 10.99-27.267 26.436-27.267 14.408 0 26.75 10.059 26.85 27.268 0 16.172-10.672 27.679-26.328 27.679m-.619-43.75c-7.782 0-13.382 6.22-13.382 15.755 0 10.682 6.537 16.59 14 16.59 9.018 0 13.58-7.88 13.263-16.482-.203-8.604-5.18-15.862-13.881-15.862M420.822 41.544a8.244 8.244 0 0 1-8.246 8.246 8.24 8.24 0 0 1-8.243-8.246 8.244 8.244 0 1 1 16.49 0" fill="#FFF"/><path d="M23.955 50.728h15.332l-.02 7.42c5.18-6.476 14.379-9.2 20.467-9.2 6.092 0 13.734 2.333 18.01 9.977 2.591-3.628 9.325-9.976 20.73-9.976 6.477 0 12.694 1.815 17.101 6.608 5.181 5.7 5.053 12.568 5.053 19.303v40.957h-15.419V79.915c0-6.088.907-16.325-10.883-16.325-4.92 0-8.937 2.721-11.01 6.09-2.98 4.795-3.37 9.975-3.37 15.546v30.592H64.528v-36.29c0-4.667 0-6.352-.519-8.293-1.163-4.278-4.532-7.645-9.974-7.645-4.665 0-9.198 2.72-11.92 7.513-2.722 5.054-2.85 11.144-2.85 17.49v27.224H23.848l.107-65.09M126.324 50.892h15.416v5.96c2.462-2.59 7.647-7.902 17.752-7.902 19.045 0 29.408 17.104 29.408 34.982 0 19.303-12.05 33.683-29.408 33.683-8.94 0-14.51-4.273-17.752-7.257v26.433h-15.416V50.892zm31.094 52.081c7.517 0 15.678-5.18 15.678-19.821 0-16.193-11.271-19.3-15.934-19.3-7.128 0-15.288 5.18-15.547 19.04-.263 13.346 7.122 20.081 15.803 20.081zM227.17 117.616c-20.21 0-33.684-14.773-33.684-34.593 0-19.824 13.734-34.073 33.034-34.073 18.009 0 33.43 12.57 33.558 34.073 0 20.21-13.348 34.593-32.908 34.593m-.78-54.672c-9.714 0-16.71 7.774-16.71 19.689 0 13.348 8.16 20.731 17.49 20.731 11.268 0 16.97-9.843 16.583-20.602-.26-10.752-6.48-19.818-17.363-19.818M280.079 50.892v10.08c1.941-3.369 6.218-11.016 20.728-10.625v15.936c-3.367.13-9.203.258-13.993 3.887-6.609 5.053-6.735 11.662-6.735 22.414v23.188h-15.031v-64.88h15.03M2.413 50.728h15.773v65.13H2.413v-65.13zM21.088 35.005c0 5.822-4.722 10.542-10.543 10.542C4.72 45.547 0 40.827 0 35.005S4.72 24.46 10.545 24.46c5.821 0 10.543 4.723 10.543 10.545M343.986 65.421v-2.317H344V51.961h-.014v-.851h-13.848V29.288h-15.546V51.11h-9.765v14.311h9.765v29.651c0 6.48 0 10.625 1.034 13.216 2.982 7.9 13.86 7.9 17.1 7.9 3.502 0 6.61-.256 11.274-1.035v-13.085c-2.202.649-4.148.775-6.483.775-7.377 0-7.377-3.495-7.377-11.53V65.422h13.846" fill="#4C4D4A"/></svg>