<?xml version="1.0" encoding="utf-8"?>
<!-- Generator: Adobe Illustrator 23.0.0, SVG Export Plug-In . SVG Version: 6.00 Build 0)  -->
<svg version="1.1" id="Layer_1" xmlns="http://www.w3.org/2000/svg" xmlns:xlink="http://www.w3.org/1999/xlink" x="0px" y="0px"
	 width="2500px" height="2500px" viewBox="0 0 2500 2500" style="enable-background:new 0 0 2500 2500;" xml:space="preserve">
<style type="text/css">
	.st0{fill-rule:evenodd;clip-rule:evenodd;fill:#E9B040;}
	.st1{fill-rule:evenodd;clip-rule:evenodd;fill:#CC2131;}
	.st2{fill-rule:evenodd;clip-rule:evenodd;fill:#FFFFFF;}
	.st3{fill-rule:evenodd;clip-rule:evenodd;fill:#1B3771;}
</style>
<g>
	<path class="st0" d="M1250.5,1725.5c112.4,103.6,263.4,166.4,427.6,166.4c352.6,0,638-287.6,638-641.4
		c0-354.8-285.4-642.5-638-642.5c-164.2,0-315.2,62.8-427.6,166.4c-128.9,117.9-210.5,287.6-210.5,476.1
		C1040.1,1439,1121.6,1608.7,1250.5,1725.5L1250.5,1725.5z"/>
	<path class="st0" d="M2231.3,1607.6c0-11,8.8-19.8,19.8-19.8c12.1,0,20.9,8.8,20.9,19.8c0,12.1-8.8,20.9-20.9,20.9
		C2240.2,1628.5,2231.3,1619.7,2231.3,1607.6z M2251.2,1624.1c8.8,0,16.5-7.7,16.5-16.5s-7.7-15.4-16.5-15.4
		c-7.7,0-15.4,6.6-15.4,15.4S2243.4,1624.1,2251.2,1624.1z M2249,1617.5h-4.4v-18.7h7.7c1.1,0,3.3,0,4.4,1.1
		c2.2,1.1,2.2,2.2,2.2,4.4s-1.1,4.4-3.3,4.4l4.4,8.8h-5.5l-2.2-7.7h-3.3V1617.5v-11h4.4c1.1,0,1.1-1.1,1.1-2.2c0-1.1,0-1.1-1.1-2.2
		h-4.4V1617.5z"/>
	<path class="st1" d="M1456.6,1182.2c-2.2-23.1-6.6-45.2-11-68.3h-390.1c4.4-23.1,11-45.2,17.6-67.2h353.8
		c-7.7-23.2-16.5-46-26.4-68.3h-299.7c11-23.3,23.2-46.1,36.4-68.3H1363c-14.5-23.5-30.7-46-48.5-67.2h-128.9
		c19.9-24.4,41.7-47.2,65-68.3C1137.1,672,987.2,608.1,821.9,608.1c-351.5,0-638,287.6-638,642.5c0,353.8,286.5,641.4,638,641.4
		c165.3,0,315.2-62.8,428.7-166.4c23-20.8,44.4-43.2,63.9-67.2h-128.9c-17.6-22-33.1-44.1-48.5-68.3H1363
		c14.2-21.8,26.7-44.6,37.5-68.3h-299.8c-9.9-22-19.8-44.1-27.6-67.2h353.8c7.7-22,13.2-45.2,18.7-68.3c4.4-22,8.8-45.2,11-68.3
		c2.2-22.3,3.3-44.8,3.3-67.2C1459.9,1227.4,1458.8,1204.3,1456.6,1182.2L1456.6,1182.2z"/>
	<path class="st2" d="M2231.3,1399.3c0-12.1,8.8-20.9,19.8-20.9c12.1,0,20.9,8.8,20.9,20.9c0,11-8.8,20.9-20.9,20.9
		C2240.2,1420.3,2231.3,1410.3,2231.3,1399.3z M2251.2,1414.7c8.8,0,16.5-6.6,16.5-15.4c0-8.8-7.7-15.4-16.5-15.4
		c-7.7,0-15.4,6.6-15.4,15.4C2235.7,1408.1,2243.4,1414.7,2251.2,1414.7z M2249,1408.1h-4.4v-17.6h12.1c2.2,1.1,2.2,3.3,2.2,5.5
		c0,1.1-1.1,3.3-3.3,4.4l4.4,7.7h-5.5l-2.2-6.6h-3.3V1408.1v-9.9h2.2c1.1,0,2.2,0,2.2-1.1c1.1,0,1.1-1.1,1.1-2.2c0,0,0-1.1-1.1-1.1
		c0-1.1-1.1,0-2.2,0h-2.2V1408.1z"/>
	<path class="st3" d="M1033.5,1435.7c-20.9,5.5-36.4,8.8-51.8,8.8c-33.1,0-52.9-20.9-52.9-58.4c0-7.7,1.1-15.4,2.2-24.2l4.4-25.3
		l3.3-20.9l29.8-180.7h66.1l-7.7,39.7h41.9l-9.9,66.1h-41.9l-17.6,108c-1.1,5.5-1.1,8.8-1.1,11c0,14.3,6.6,19.8,23.1,19.8
		c7.7,0,14.3-1.1,20.9-2.2L1033.5,1435.7L1033.5,1435.7z M1247.3,1433.5c-24.2,6.6-46.3,9.9-70.5,9.9
		c-74.9,0-117.9-39.7-117.9-117.9c0-91.5,50.7-157.6,121.2-157.6c56.2,0,92.6,37.5,92.6,95.9c0,19.9-2.2,38.6-7.7,65h-137.8
		c-1.1,4.4-1.1,6.6-1.1,8.8c0,30.9,20.9,46.3,60.6,46.3c25.3,0,47.4-5.5,71.6-16.5L1247.3,1433.5z M1206.5,1275.9v-13.2
		c0-22-12.1-34.2-33.1-34.2c-22,0-37.5,16.5-44.1,47.4L1206.5,1275.9L1206.5,1275.9L1206.5,1275.9z M504.5,1439h-68.3l39.7-250.1
		L386.6,1439h-47.4l-5.5-249l-41.9,249h-67.2l54-325.1h100.3l2.2,200.6l67.2-200.6h110.2L504.5,1439L504.5,1439z M670.9,1321.1
		c-6.6-1.1-8.8-1.1-13.2-1.1c-39.7,0-59.5,15.4-59.5,39.7c0,16.5,9.9,27.6,25.3,27.6C656.6,1387.2,669.8,1359.6,670.9,1321.1
		L670.9,1321.1z M726,1439h-59.5l1.1-27.5c-15.4,20.9-36.4,31.9-72.7,31.9c-33.1,0-61.7-29.7-61.7-72.7c0-12.1,2.2-23.1,5.5-34.1
		c11-40.8,51.8-66.1,114.6-67.2c7.7,0,19.8,0,30.9,1.1c2.2-8.8,2.2-12.1,2.2-17.6c0-17.6-14.3-23.2-46.3-23.2
		c-19.8,0-41.9,3.3-57.3,8.8l-9.9,2.2l-4.4,1.1l9.9-59.5c32-9.9,55.1-14.3,80.5-14.3c59.5,0,91.5,27.5,91.5,78.2
		c0,13.2,1.1,23.2-3.3,51.8l-15.4,94.8l-2.2,16.5l-1.1,13.2l-1.1,8.8L726,1439L726,1439z M1580.1,1176.7c19.8,0,37.5,5.5,61.7,17.6
		l12.1-70.5c-6.6-3.3-8.8-3.3-17.6-6.6l-27.5-7.7c-8.8-2.2-19.8-3.3-32-3.3c-34.2,0-54,1.1-74.9,13.2c-11,7.7-25.4,17.6-40.8,35.3
		l-8.8-2.2l-70.5,49.6l3.3-27.5h-72.7l-43,264.5h69.4l25.3-142.1c0,0,9.9-19.9,14.3-26.4c13.2-16.5,24.2-16.5,38.6-16.5h5.5
		c-2.3,16.8-3.4,33.7-3.3,50.7c0,86,48.5,140,123.4,140c18.7,0,35.3-2.2,60.6-8.8l12.1-74.9c-22,12.1-41.9,17.6-58.4,17.6
		c-40.8,0-65-30.9-65-79.3C1491.9,1227.4,1528.3,1176.7,1580.1,1176.7L1580.1,1176.7z M2165.2,1113.9l-15.4,92.6
		c-16.5-25.3-36.4-37.5-62.8-37.5c-36.4,0-70.5,20.9-91.5,60.6v-1.1l-44.1-26.5l4.4-27.5H1882l-41.9,264.5h68.3l23.2-142.1
		c0,0,17.6-19.9,22-26.4c11-13.2,22-15.4,30.9-16.5c-7.7,22-12.1,48.5-12.1,78.2c0,66.1,34.1,110.2,84.8,110.2
		c25.4,0,45.2-8.8,63.9-29.8l-3.3,26.4h65l52.9-325.1L2165.2,1113.9L2165.2,1113.9z M2080.4,1376.2c-23.2,0-35.3-17.6-35.3-51.8
		c0-51.8,22-89.3,54-89.3c24.2,0,36.4,18.7,36.4,51.8C2135.4,1339.8,2113.4,1376.2,2080.4,1376.2L2080.4,1376.2z M1761.9,1321.1
		c-6.6-1.1-8.8-1.1-13.2-1.1c-39.7,0-59.5,15.4-59.5,39.7c0,16.5,9.9,27.6,25.4,27.6C1747.5,1387.2,1760.8,1359.6,1761.9,1321.1z
		 M1817,1439h-60.6l2.2-27.5c-15.4,20.9-36.4,31.9-72.7,31.9c-34.2,0-63.9-28.7-63.9-72.7c0-62.8,47.4-101.4,122.3-101.4
		c7.7,0,19.8,0,29.8,1.1c2.2-8.8,3.3-12.1,3.3-17.6c0-17.6-14.3-23.2-47.4-23.2c-18.7,0-41.9,3.3-57.3,8.8l-8.8,2.2l-4.4,1.1
		l9.9-59.5c32-9.9,55.1-14.3,80.5-14.3c59.5,0,90.4,27.5,90.4,78.2c0,13.2,2.2,23.2-3.3,51.8l-14.3,94.8l-2.2,16.5l-2.2,13.2
		l-1.1,8.8L1817,1439L1817,1439L1817,1439z M870.4,1230.7c13.2,0,32,1.1,51.8,4.4l9.9-61.7c-19.8-2.2-46.3-5.5-61.7-5.5
		c-77.1,0-102.5,41.9-102.5,90.4c0,32,14.3,55.1,51.8,72.7c27.5,13.2,32,15.4,32,27.6c0,16.5-14.3,26.4-40.8,26.4
		c-20.9,0-40.8-3.3-62.8-11l-7.7,60.6l1.1,1.1l13.2,2.2c4.4,1.1,9.9,2.2,17.6,3.3c16.5,1.1,30.9,2.2,39.7,2.2
		c77.1,0,109.1-29.7,109.1-88.2c0-36.4-17.6-58.4-51.8-73.8c-29.8-13.2-33.1-15.4-33.1-27.6C836.2,1241.7,849.4,1230.7,870.4,1230.7
		L870.4,1230.7z"/>
	<path class="st2" d="M1672.6,1102.9l-12.1,70.5c-24.2-12.1-41.9-17.6-61.7-17.6c-51.8,0-88.2,50.7-88.2,122.3
		c0,49.6,24.2,79.3,65,79.3c16.5,0,36.4-5.5,58.4-16.5l-12.1,73.8c-25.4,6.6-41.9,9.9-60.6,9.9c-74.9,0-121.2-54-121.2-141
		c0-115.7,63.9-197.3,155.4-197.3c12.1,0,23.1,1.1,31.9,3.3l27.6,6.6C1663.8,1099.6,1666,1100.7,1672.6,1102.9L1672.6,1102.9z
		 M1450,1151.4h-6.6c-23.1,0-36.4,11-57.3,43l6.6-40.8h-62.8l-43,264.5h69.4c25.3-162,31.9-189.5,65-189.5h4.4
		c6.6-32,15.4-55.1,26.4-76L1450,1151.4L1450,1151.4z M1051.1,1414.7c-18.7,6.6-34.2,8.8-49.6,8.8c-35.3,0-55.1-19.8-55.1-58.4
		c0-6.6,1.1-15.4,2.2-23.2l4.4-26.4l3.3-20.9l29.8-180.7h68.3l-7.7,39.7h35.3l-8.8,65h-35.3l-18.7,110.2c-1.1,4.4-1.1,7.7-1.1,11
		c0,13.2,6.6,18.7,23.1,18.7c7.7,0,14.3,0,18.7-2.2L1051.1,1414.7L1051.1,1414.7z M785.5,1237.3c0,33.1,15.4,56.2,51.8,73.8
		c28.7,13.2,33.1,17.6,33.1,28.7c0,16.5-12.1,24.2-39.7,24.2c-20.9,0-39.7-3.3-61.7-9.9l-9.9,60.6l3.3,1.1l12.1,2.2
		c4.4,1.1,9.9,2.2,18.7,2.2c15.4,2.2,28.7,2.2,37.5,2.2c72.7,0,106.9-27.6,106.9-88.2c0-36.4-14.3-57.3-48.5-73.8
		c-29.8-13.2-33.1-16.5-33.1-28.7c0-14.3,12.1-20.9,34.2-20.9c13.2,0,32,1.1,49.6,3.3l9.9-60.6c-17.6-3.3-45.2-5.5-60.6-5.5
		C812,1148.1,784.4,1188.8,785.5,1237.3L785.5,1237.3z M2200.5,1418.1h-65l3.3-25.4c-18.7,19.8-38.6,28.7-63.9,28.7
		c-50.7,0-83.7-43-83.7-109.1c0-88.2,51.8-163.1,112.4-163.1c27.6,0,47.4,12.1,66.1,36.4l15.4-92.6h68.3L2200.5,1418.1
		L2200.5,1418.1z M2099.1,1356.4c32,0,54-37.5,54-89.3c0-34.2-12.1-51.8-36.4-51.8c-30.9,0-54,36.4-54,88.2
		C2062.7,1338.7,2074.8,1356.4,2099.1,1356.4L2099.1,1356.4z M1262.7,1412.5c-24.3,7.7-46.3,11-71.6,11
		c-77.1,0-116.8-40.8-116.8-119c0-90.4,50.7-157.6,120.1-157.6c57.3,0,93.7,37.5,93.7,95.9c0,19.8-2.2,38.6-8.8,66.1h-136.6
		c-1.1,3.3-1.1,5.5-1.1,7.7c0,30.9,20.9,46.3,60.6,46.3c25.3,0,47.4-4.4,71.6-16.5L1262.7,1412.5L1262.7,1412.5z M1224.1,1255v-13.2
		c0-22-12.1-34.2-33.1-34.2c-22,0-37.5,16.5-44.1,47.4H1224.1L1224.1,1255z M522.1,1418.1h-68.3l39.7-250.2l-89.3,250.2h-47.4
		l-5.5-248l-41.9,248h-63.9l54-325.1h99.2l3.3,201.7l66.1-201.7h108L522.1,1418.1L522.1,1418.1z M692.9,1300.1
		c-6.6,0-9.9-1.1-15.4-1.1c-38.6,0-58.4,14.3-58.4,40.8c0,16.5,8.8,26.4,24.2,26.4C672,1366.3,691.8,1339.8,692.9,1300.1
		L692.9,1300.1z M743.6,1418.1h-57.3l1.1-27.6c-17.6,22-40.8,32-72.7,32c-37.5,0-62.8-28.7-62.8-71.6c0-65,44.1-102.5,121.2-102.5
		c7.7,0,17.6,1.1,28.7,2.2c2.2-8.8,2.2-12.1,2.2-16.5c0-17.6-12.1-24.2-44.1-24.2c-19.8,0-41.9,2.2-57.3,6.6l-9.9,3.3l-6.6,1.1
		l9.9-59.5c34.2-9.9,57.3-13.2,82.7-13.2c59.5,0,91.5,26.4,91.5,77.1c0,13.2-1.1,23.2-5.5,52.9l-15.4,93.7l-2.2,16.5l-1.1,13.2
		l-1.1,9.9L743.6,1418.1L743.6,1418.1z M1783.9,1300.1c-7.7,0-11-1.1-15.4-1.1c-39.7,0-59.5,14.3-59.5,40.8
		c0,16.5,9.9,26.4,25.4,26.4C1761.9,1366.3,1782.8,1339.8,1783.9,1300.1L1783.9,1300.1z M1834.6,1418.1h-57.3l1.1-27.6
		c-17.6,22-40.8,32-72.7,32c-37.5,0-62.8-28.7-62.8-71.6c0-65,44.1-102.5,121.2-102.5c7.7,0,17.7,1.1,27.6,2.2
		c2.2-8.8,3.3-12.1,3.3-16.5c0-17.6-12.1-24.2-44.1-24.2c-19.9,0-43,2.2-58.4,6.6l-8.8,3.3l-6.6,1.1l9.9-59.5
		c34.2-9.9,57.3-13.2,82.7-13.2c59.5,0,90.4,26.4,90.4,77.1c0,13.2,0,23.2-5.5,52.9l-14.3,93.7l-2.2,16.5l-2.2,13.2l-1.1,9.9
		L1834.6,1418.1L1834.6,1418.1L1834.6,1418.1z M2019.7,1151.4h-6.6c-23.1,0-36.4,11-57.3,43l6.6-40.8h-62.8l-41.9,264.5h68.3
		c25.4-162,32-189.5,65-189.5h4.4c6.6-32,15.4-55.1,26.4-76L2019.7,1151.4L2019.7,1151.4z"/>
</g>
</svg>
