<?xml version="1.0" encoding="utf-8"?>
<!-- Generator: Adobe Illustrator 23.0.0, SVG Export Plug-In . SVG Version: 6.00 Build 0)  -->
<svg version="1.1" id="Layer_1" xmlns="http://www.w3.org/2000/svg" xmlns:xlink="http://www.w3.org/1999/xlink" x="0px" y="0px"
	 width="2147.6px" height="2165.3px" viewBox="0 0 2147.6 2165.3" style="enable-background:new 0 0 2147.6 2165.3;"
	 xml:space="preserve">
<style type="text/css">
	.st0{fill-rule:evenodd;clip-rule:evenodd;fill:#B8BDC0;}
	.st1{fill-rule:evenodd;clip-rule:evenodd;fill:#EAC13D;}
	.st2{fill-rule:evenodd;clip-rule:evenodd;fill:#0C0E0F;}
</style>
<g>
	<path class="st0" d="M261.1,1068.9c0-448.8,364-812.7,812.7-812.7s812.7,364,812.7,812.7s-364,812.7-812.7,812.7
		S261.1,1517.7,261.1,1068.9L261.1,1068.9z"/>
	<path class="st1" d="M1706.6,1137.2c-33.1-10.3-72.4-16.5-113.7-16.5c-151,0-223.4,99.3-407.4,84.8c-12.4,0-20.7-10.3-20.7-22.7
		v-10.3c0-16.5-12.4-31-31-31H459.6v138.5l696.9-28.9l-6.2,37.2l-690.7,49.6v138.5l674.2-76.5l-10.3,84.8c-2.1,2.1-2.1,4.1-2.1,6.2
		c0,16.5,14.5,31,31,31c186.1,12.4,289.5-86.8,440.5-86.8c41.4,0,80.7,8.3,113.7,18.6v-134.4c-33.1-12.4-72.4-18.6-113.7-18.6
		c-151,0-248.2,101.3-434.3,86.8c-10.4,0-20.7-10.3-20.7-20.7v-6.2l8.3-49.6c0,2-2.1,4.1-2.1,6.2c0,12.4,10.3,20.7,22.7,20.7
		c184.1,14.5,275-84.8,426-84.8c41.4,0,80.7,6.2,113.7,16.5L1706.6,1137.2L1706.6,1137.2L1706.6,1137.2z"/>
	<path class="st2" d="M1667.3,1554.9c20.7,0,37.2-14.5,37.2-37.2s-16.5-37.2-37.2-37.2s-39.3,14.5-39.3,37.2
		S1646.6,1554.9,1667.3,1554.9z M1636.3,1517.7c0-18.6,12.4-31,31-31c16.5,0,31,12.4,31,31c0,18.6-14.5,31-31,31
		C1648.7,1548.7,1636.3,1536.3,1636.3,1517.7z M1659,1519.7h8.3l10.3,20.7h8.3l-12.4-20.7c6.2,0,10.3-4.1,10.3-12.4
		c0-8.3-4.1-12.4-14.5-12.4h-16.6v45.5h6.2L1659,1519.7L1659,1519.7L1659,1519.7z M1659,1515.6v-14.5h8.3c6.2,0,10.3,2.1,10.3,6.2
		c0,8.3-4.1,8.3-10.3,8.3L1659,1515.6L1659,1515.6z M1177.2,1085.5h138.6l16.5-192.3c0-18.6,2.1-37.2,2.1-53.8h6.2
		c0,18.6,4.1,35.2,8.3,55.8l49.6,190.2h82.7l55.8-202.7c4.1-14.5,8.3-28.9,10.3-43.4h2.1l18.6,246.1h138.6l-64.1-450.8h-144.7
		l-43.4,177.9c-4.1,18.6-8.3,39.3-10.3,57.9h-4.2l-53.8-235.8h-144.8L1177.2,1085.5L1177.2,1085.5z M1144.1,1317.1v-2.1l-6.2,45.5
		v6.2c0,10.3,8.3,18.6,18.6,20.7v-2c0-2.1,0-4.2,2.1-6.2l4.1-41.4C1152.4,1337.8,1144.1,1327.4,1144.1,1317.1L1144.1,1317.1z
		 M1156.5,1250.9l-678.3,26.9v20.7l674.2-26.9L1156.5,1250.9z M1164.8,1172.3v10.3c0,12.4,8.3,20.7,18.6,22.7v-2v-12.4
		c0-12.4-8.3-24.8-20.7-28.9C1164.8,1166.1,1164.8,1170.3,1164.8,1172.3L1164.8,1172.3z M1706.6,1151.7v117.9
		c-33.1-10.3-72.4-16.5-113.7-16.5c-151,0-241.9,99.2-426,84.8h-2c0,10.3,10.3,20.7,20.7,20.7c184,12.4,275-86.8,426-86.8
		c41.3,0,80.6,6.2,113.7,16.5v-132.4C1719,1153.7,1712.8,1153.7,1706.6,1151.7z M1133.7,1399.8l-655.5,74.5v20.7l653.5-72.4
		L1133.7,1399.8L1133.7,1399.8z"/>
	<path class="st2" d="M1706.6,1453.6c-33.1-10.4-72.4-18.6-113.7-18.6c-151,0-254.3,99.2-440.5,86.8c-2.1,0-6.2-2-10.3-2
		c4.1,12.4,16.5,20.7,31,20.7c184.1,12.4,287.4-84.8,438.4-84.8c41.3,0,80.6,6.2,113.7,16.5v-134.4c-6.2-2.1-12.4-4.1-18.6-6.2
		V1453.6L1706.6,1453.6z M935.2,634.7c4.1,0,4.1,2.1,4.1,6.2v26.9h-16.5c-12.4,2.1-24.8,6.2-24.8,24.8c0,10.3,0,18.6,8.3,51.7
		l55.8,225.4c31-122,70.3-285.4,82.7-332.9c2.1-2.1,2.1-2.1,4.1-2.1c12.4,0,18.6,0,20.7,4.1l97.2,355.7c0,0-10.3,62-12.4,84.8
		c-2,6.2-2,6.2-6.2,6.2h-28.9c-4.2,0-4.2-2-6.2-6.2c-10.3-51.7-14.5-68.2-31-126.1c-16.5-62-31-132.4-43.4-186.1
		c-16.5,66.2-18.6,80.6-53.8,217.1c-12.4,45.5-16.5,60-24.8,95.1c0,4.1-2.1,6.2-6.2,6.2h-33.1c-4.1,0-4.1-2-4.1-8.3
		c-10.3-39.3-82.7-318.5-84.8-326.7c-10.3-39.3-14.5-76.5-37.2-76.5c-12.4,0-16.5,16.5-16.5,41.4v182c0,41.4,0,105.5-39.3,153
		c-12.4,12.4-45.5,49.6-117.9,49.6c-31,0-72.4-8.3-103.4-39.3c-37.2-41.3-39.3-91-39.3-136.5V725.6c0-45.5-6.2-57.9-41.4-57.9
		c-2.1,0-2.1-2.1-2.1-4.1v-22.7c0-4.1,0-6.2,4.1-6.2h153c2.1,0,4.1,0,4.1,4.1v24.8c-2.1,4.1-2.1,4.1-8.3,4.1
		c-39.3,0-37.2,16.5-37.2,62v194.4c2.1,26.9,4.1,51.7,14.5,76.5c8.3,18.6,33.1,53.8,80.7,53.8c24.8,0,49.6-10.3,70.3-33.1
		c26.9-33.1,31-76.5,31-126.1V723.6c0-43.4-4.1-55.8-47.6-57.9c-4.1,0-4.1,0-4.1-4.1v-20.7c0-4.1,0-6.2,2.1-6.2
		C697.4,634.7,929,634.7,935.2,634.7z M141.1,1370.9c-39.3,8.3-43.4,10.3-41.4,28.9c2.1,2.1,2.1,4.1,0,4.1c-6.2,0-6.2,2.1-6.2,0
		c0-2-6.2-26.9-8.3-33.1c0-4.1-6.2-22.7-6.2-28.9c-2.1,0-2.1,0,0-2.1c6.2,0,6.2,0,6.2,2.1c4.1,10.3,6.2,16.5,24.8,14.5
		c8.3-2.1,35.1-8.3,39.3-10.4c12.4-2,33.1-8.3,43.4-14.5c20.7-10.3,22.7-31,18.6-49.6c-2.1-12.4-10.3-20.7-14.5-26.9
		c-2.1-2.1-8.3-6.2-20.7-8.3c-14.5-2.1-18.6,0-74.4,14.5c-18.6,4.2-24.8,6.2-26.9,10.4c-4.1,4.1-4.1,8.3-4.1,12.4
		c2.1,4.2,2.1,6.2,0,6.2c-4.1,2.1-6.2,2.1-6.2,0c-2.1-6.2-4.1-14.5-4.1-20.7c-4.1-8.3-6.2-18.6-8.3-26.9c0-2.1,0-2.1,2.1-4.2
		c4.1,0,4.1,0,6.2,2.1c2.1,8.3,4.1,14.5,16.5,14.5c10.3,0,62-14.5,72.4-16.6c18.6-2,60-10.3,74.4,47.6c4.1,16.5,6.2,37.2-4.1,51.7
		c-8.3,14.5-14.5,16.5-60,26.9L141.1,1370.9L141.1,1370.9z M64.6,1139.3l88.9-2.1c18.6,0,31,0,31-20.7c0-2.1,0-2.1,2.1-2.1
		c4.1,0,6.2,0,6.2,2.1v51.7c-6.2,0-6.2,0-6.2-2.1c-4.1-18.6-10.3-20.7-37.2-18.6h-91c-2.1,4.1-8.3,8.3-8.3,20.7c0,2,0,2-2.1,2
		c-4.1,0-4.1,0-4.1-2v-22.7l-2.1-12.4c0-4.1,2.1-4.1,8.3-10.3c12.4-10.3,14.5-10.3,24.8-18.6c6.2-6.2,43.4-37.2,53.8-43.4
		c6.2-6.2,18.6-16.5,26.9-20.7H75c-18.6,0-26.9,4.1-26.9,20.7c0,2.1,0,2.1-2.1,2.1c-4.1,0-4.1,0-4.1-2.1v-24.8
		c-2.1-8.3-2.1-16.5-2.1-24.8c0-2.1,0-2.1,2.1-2.1c4.1,0,6.2,0,6.2,2.1c0,10.3,2.1,16.5,12.4,18.6c12.4,2.1,74.4,2.1,91,0h26.9
		c4.1,0,8.3-2.1,10.3-2.1c4.1,0,6.2,2.1,6.2,4.1c0,4.1-2.1,4.1-4.1,6.2c-10.3,8.3-22.7,16.5-33.1,24.8l-64.1,53.8
		c-6.2,4.1-22.7,16.5-24.8,18.6L64.6,1139.3L64.6,1139.3z M56.4,944.9c0,4.1,0,4.1-2.1,4.1l-6.2-2.1c0-4.1,6.2-31,6.2-35.1
		c2.1-8.3,2.1-24.8,4.1-26.9c0-2.1,0-2.1,6.2-2.1c0,0,2.1,2.1,0,4.1c0,8.3,0,10.3,2.1,12.4c4.1,8.3,8.3,8.3,41.4,12.4
		c53.8,8.3,60,10.3,66.2,10.3c18.6,2.1,20.7-4.1,24.8-16.5c0-2.1,0-2.1,2.1-2.1c4.1,0,4.1,0,4.1,2.1c0,4.1-4.1,26.9-4.1,31
		c-2.1,10.3-2.1,20.7-4.1,31c0,2.1-2.1,2.1-6.2,2.1c-2.1,0-2.1,0-2.1-2.1c2.1-14.5,0-20.7-16.5-22.7c-6.2-2.1-37.2-8.3-47.6-8.3
		c-8.3-2.1-49.6-8.3-55.8-6.2C60.5,930.4,58.4,936.6,56.4,944.9L56.4,944.9z M124.6,793.9c28.9-2.1,55.8-4.1,84.8-6.2
		c-8.3-6.2-18.6-16.5-26.9-22.7c-14.2-14.2-29.4-27.3-45.5-39.3c-4-5.8-9.8-10.2-16.5-12.4c-8.3-2.1-10.3,4.1-12.4,8.3
		c0,2.1,0,2.1-2.1,2.1c-4.1-2.1-6.2-2.1-4.1-4.1c0-2.1,4.1-16.5,4.1-16.5c2.1-6.2,6.2-16.5,8.3-22.7c0-2.1,0-2.1,6.2,0v4.1
		c-2.1,12.4,10.3,24.8,14.5,28.9c33.1,26.9,37.2,28.9,55.8,47.6c4.1,4.1,26.9,24.8,31,28.9c6.2,6.2,8.3,8.3,12.4,10.3
		c2.1,2.1,2.1,4.1,2.1,6.2c-2.1,2.1-2.1,2.1-10.3,2.1c-35.1,2.1-105.5,8.3-119.9,10.3c-18.6,2.1-28.9,2.1-33.1,16.5
		c0,2.1,0,2.1-2.1,0c-6.2,0-6.2,0-6.2-2.1c6.2-12.4,10.3-26.9,14.5-39.3c2.1-8.3,4.1-14.5,6.2-20.7c0-2.1,0-2.1,6.2,0v2.1
		c-2.1,6.2-4.1,14.5,8.3,18.6C103.9,796,108,796,124.6,793.9L124.6,793.9z M215.6,626.4c8.3-16.5,10.3-20.7,10.3-26.9
		c0-4.1-4.1-12.4-14.5-18.6c-2.1,0-2.1-2.1-2.1-2.1c4.1-4.1,4.1-6.2,6.2-4.1l24.8,12.4c8.3,6.2,16.5,10.3,24.8,14.5
		c2.1,0,2.1,0,0,2.1c-2.1,4.1-2.1,6.2-4.1,4.1c-6.2-2.1-14.5-4.1-20.7-2.1c-6.2,0-8.3,2.1-18.6,22.7l37.2,20.7
		c18.6,10.3,24.8,8.3,41.3-18.6c10.3-18.6,8.3-31-12.4-47.6v-4.1c2.1-4.1,2.1-4.1,4.1-4.1c2.1,2.1,26.9,16.5,31,20.7
		c2.1,2.1,2.1,2.1-2.1,10.3c-6.2,10.3-33.1,57.9-39.3,70.3c-2.1,2.1-10.3,22.7-12.4,24.8l-2.1,2.1c-6.2-2.1-6.2-4.1-6.2-4.1
		c8.3-14.5,6.2-20.7-10.3-28.9c-18.8-10.7-37.4-21.7-55.8-33.1c-39.3-20.7-39.3-20.7-51.7-2.1h-2.1c-4.1-2-4.1-2-4.1-4.1
		c4.1-10.3,10.3-18.6,14.5-28.9c4.1-6.2,20.7-35.1,22.7-41.3l12.4-22.7c2.1-2.1,2.1-2.1,4.1-2.1c4.1,0,22.7,8.3,24.8,10.3
		c2.1,0,2.1,0,2.1,2.1c-2.1,4.1-2.1,4.1-4.1,4.1c-16.5-2.1-24.8-4.1-41.3,28.9c-4.1,6.2-6.2,10.3-8.3,16.5L215.6,626.4L215.6,626.4z
		 M267.3,434.1c4.1-4.1,6.2-6.2,8.3-10.3c6.2-8.3,14.5-16.5,24.8-16.5c10.3-2.1,20.7,2.1,26.9,8.3c14.5,12.4,18.6,31,2.1,51.7
		c-4.1,4.1-6.2,8.3-10.3,10.3L267.3,434.1z M347.9,558.1h2.1c6.2-8.3,12.4-16.5,20.7-24.8c6.2-8.3,12.4-14.5,20.7-22.7
		c0-2.1,0-2.1-4.1-6.2c-2.1,0-2.1,0-2.1,2.1c-10.3,10.3-18.6,10.3-31,0c-8.3-6.2-20.7-16.5-28.9-24.8c8.3-10.3,8.3-10.3,26.9-10.3
		c10.3,0,60,2.1,66.2,2.1h4.1c2.1-4.1,4.1-8.3,8.3-10.3c4.1-6.2,8.3-10.3,12.4-14.5v-4.1c-4.1-4.1-4.1-4.1-6.2-2.1
		c-8.3,10.3-8.3,10.3-39.3,10.3h-51.7c6.2-14.5,10.3-24.8,6.2-39.3c0-2.1-2.1-8.3-10.3-14.5c-14.5-12.4-31-8.3-39.3-6.2
		c-10.3,4.1-18.6,10.3-28.9,22.7L257,436.1c-2.1,4.1-18.6,20.7-20.7,24.8c-2.1,2.1-2.1,2.1,2.1,6.2c2.1,0,2.1,0,6.2-4.1
		c6.2-8.3,12.4-10.3,28.9,4.1c37.2,28.9,55.8,45.5,66.2,55.8c14.5,10.3,16.5,16.5,6.2,28.9c-2.1,2.1-2.1,2.1,0,4.1L347.9,558.1
		L347.9,558.1z M453.4,347.2c-22.7,6.2-39.3,4.1-55.8-12.4c-12.4-14.5-14.5-39.3,4.1-55.8c8.3-6.2,16.5-8.3,22.7-8.3h2.1
		c2.1-2.1,2.1-2.1,2.1-6.2c-2.1-2.1,0-2.1,2.1-4.1c0-2.1,2.1-2.1,4.1,2.1l18.6,20.7c2.1,2.1,2.1,2.1,0,2.1c-4.1,4.1-4.1,4.1-6.2,2.1
		l-4.1-2.1c-10.3-10.3-22.7-10.3-33.1-2.1c-14.5,12.4-10.3,26.9-4.1,35.2c2.1,4.1,8.3,8.3,18.6,10.3c6.2,0,10.3-2.1,28.9-6.2
		c22.7-4.1,41.4-8.3,55.8,10.3c14.5,16.5,16.5,47.6-4.1,64.1c-10.3,8.3-20.7,10.3-28.9,12.4H472c-2.1,2.1,0,4.1,0,8.3v2.1
		c-4.1,4.1-4.1,4.1-6.2,2.1c-2.1-2.1-16.5-18.6-18.6-22.7l-6.2-8.3c-2.1,0-2.1-2.1,0-2.1l4.1-2.1l4.1,2.1
		c18.6,18.6,37.2,12.4,47.6,4.1c12.4-12.4,14.5-28.9,4.1-39.3c-10.3-12.4-22.7-10.3-35.2-8.3L453.4,347.2L453.4,347.2z M505.1,216.9
		c-4.1,2.1-4.1,2.1-6.2,0c-2.1-4.1-4.1-4.1-2.1-6.2c2.1-2.1,26.9-14.5,31-18.6c6.2-4.1,20.7-12.4,22.7-14.5c2.1,0,2.1,0,4.1,4.1
		c0,2.1,0,2.1-2.1,4.1c-6.2,4.1-6.2,6.2-8.3,8.3c-2.1,8.3,0,12.4,16.5,39.3c28.9,45.5,33.1,51.7,37.2,55.8
		c10.3,16.5,16.5,14.5,26.9,8.3h4.1c2.1,6.2,2.1,6.2,0,6.2c-2.1,4.1-20.7,14.5-24.8,16.5c-8.3,6.2-18.6,12.4-26.9,18.6
		c-2.1,0-2.1,0-4.1-4.1c-2.1-2.1-2.1-2.1,0-4.1c10.3-8.3,14.5-12.4,6.2-26.9c-2.1-6.2-20.7-33.1-24.8-41.4s-26.9-43.4-33.1-47.6
		C515.4,210.7,511.3,212.8,505.1,216.9L505.1,216.9z M747,119.8c0,2.1,0,2.1-4.1,4.1c0,2.1-2.1,0-4.1-2.1
		c-10.3-14.5-14.5-18.6-64.1,2.1l43.4,97.2c10.3,22.7,14.5,22.7,31,16.5h4.1c2.1,6.2,2.1,6.2,0,8.3c-8.3,2.1-18.6,6.2-26.9,10.3
		c-12.4,4.1-22.7,10.3-35.2,16.5l-2.1-2.1c-2.1-4.1-2.1-6.2,0-6.2c16.5-10.3,18.6-12.4,10.3-31c-6.2-20.7-33.1-78.6-43.4-101.3
		c-6.2,2.1-28.9,12.4-39.3,20.7c-8.3,8.3-6.2,14.5-4.1,26.9c0,2.1,0,2.1-4.1,4.1c-2.1,0-2.1,0-2.1-2.1l-4.1-8.3
		c-2.1-4.1-6.2-10.3-8.3-16.5c0-2.1-2.1-6.2,2.1-8.3c2.1,0,6.2,0,74.4-28.9c55.8-24.8,55.8-26.9,57.9-28.9c4.1,0,6.2,0,10.3,10.3
		L747,119.8L747,119.8z M871.1,136.3c6.2-16.5,12.4-39.3,16.5-53.8c4.1-10.3,4.1-12.4,4.1-16.5c-2.1-6.2-12.4-4.1-14.5-4.1
		s-2.1,0-4.1-6.2l2.1-2.1l31-6.2c4.1,0,6.2-2.1,10.3-2.1c2.1,0,2.1,0,2.1,2.1c2.1,4.1,2.1,4.1,0,6.2c-10.3,2.1-14.5,8.3-16.5,16.5
		c-2.1,4.1-22.7,70.3-22.7,74.4l6.2,28.9c4.1,20.7,8.3,20.7,28.9,18.6c2.1-2.1,2.1,0,4.1,4.1c0,2.1,0,2.1-2.1,2.1
		c-10.3,2.1-22.7,4.1-33.1,8.3c-12.4,2.1-24.8,4.1-35.2,8.3c-2.1,0-2.1,0-2.1-2.1c-2.1-6.2-2.1-6.2,0-6.2
		c22.7-6.2,22.7-12.4,16.5-33.1l-4.1-22.7l-8.3-10.3c-10.3-10.3-26.9-28.9-37.2-41.4c-14.5-16.5-18.6-16.5-28.9-16.5
		c-2.1,0-2.1,0-4.1-6.2l2.1-2.1c8.3-2.1,18.6-4.1,26.9-6.2c10.3-2.1,20.7-4.1,31-6.2c2.1,0,2.1,0,2.1,2.1l2.1,4.1
		c0,2.1,0,2.1-2.1,2.1c-8.3,2.1-16.5,4.1-14.5,12.4c2.1,2.1,4.1,6.2,8.3,10.3L871.1,136.3L871.1,136.3z M1088.3,111.5
		c14.5,0,24.8,14.5,24.8,37.2s-12.4,35.1-24.8,33.1c-12.4,0-24.8-10.3-24.8-35.1C1065.5,123.9,1075.9,113.5,1088.3,111.5
		L1088.3,111.5z M1086.2,107.3c-20.7,0-37.2,16.5-37.2,39.3c0,20.7,12.4,41.3,39.3,41.3c4.1,0,39.3-2.1,39.3-39.3
		c0-14.5-6.2-28.9-18.6-35.2C1102.7,109.4,1094.5,107.3,1086.2,107.3z M1177.2,117.7c2.1-14.5,4.2-26.9,6.2-33.1
		c6.2-18.6,28.9-16.5,31-16.5c14.5,2.1,18.6,10.3,18.6,14.5c0,2.1-4.2,6.2-8.3,6.2c-4.1-2.1-8.3-6.2-8.3-10.3
		c-2.1-2.1-2.1-4.1-6.2-4.1c-4.2-2.1-8.3,2.1-10.4,4.1c-4.1,6.2-4.1,12.4-8.3,41.3l14.5,2.1c2.1,0,2.1,0,2.1,2.1
		c0,4.1,0,4.1-2.1,4.1l-14.5-2.1c-2.1,8.3-6.2,45.5-6.2,49.6c0,8.3,2.1,10.3,12.4,12.4c0,0,2,0,2,2.1l-2,4.1
		c-6.2-2.1-12.4-2.1-18.6-2.1c-6.2-2.1-18.6-2.1-20.7-2.1c-2.1,0-2.1,0-2.1-2.1c0-4.1,0-4.1,2.1-4.1c10.3,0,12.4-4.1,12.4-8.3
		c2.1-6.2,4.2-41.4,6.2-51.7h-10.3c-2,0-2-2.1-2-2.1c0-4.1,0-4.1,2-4.1L1177.2,117.7L1177.2,117.7z M1450.1,235.5
		c4.1-4.1,8.3-10.3,12.4-16.5c8.3-6.2,14.5-14.5,20.7-22.7c4.2-4.1,28.9-31,33.1-43.4c4.2-10.3-8.3-16.5-12.4-18.6
		c-2.1,0-2.1-2.1,0-6.2c0,0,0-2.1,2,0c4.2,0,20.7,8.3,22.7,8.3c8.3,4.1,16.5,6.2,24.8,10.3c2.1,0,2.1,0,0,2.1l-2.1,4.1
		c-16.5-4.1-20.7,2.1-31,12.4c-18.6,22.7-37.2,45.5-57.9,68.2c-6.2,8.3-8.3,8.3-24.8,26.9c-4.2,4.1-4.2,6.2-6.2,4.1
		c-4.2-2.1-4.2-4.1-4.2-8.3c2.1-16.5,4.2-26.9,4.2-45.5c2-51.7,2-57.9,4.1-74.4c-6.2,8.3-10.3,14.5-16.5,22.7
		c-10.3,10.3-53.8,62-60,70.3c-4.1,4.1-4.1,6.2-6.2,4.1c0,0-2,0-2-2.1c-2.1-2.1-2.1-2.1-2.1-10.3c0-4.1,2.1-10.3,2.1-31
		c2-22.7,4.1-43.4,4.1-66.2c0-8.3,2.1-14.5,2.1-22.7c0-16.5-2.1-22.7-12.4-26.9c-2.1-2.1-4.1-2.1-2.1-4.1c2.1-4.1,2.1-6.2,4.1-4.1
		c8.3,4.1,18.6,8.3,28.9,10.3c2.1,2.1,22.7,10.3,26.9,10.3c2,2.1,2,2.1,0,6.2c0,2.1,0,2.1-2.1,2.1c-6.2-2.1-14.5-6.2-18.6,6.2
		c-2,4.1-4.1,10.3-4.1,14.5c0,12.4-6.2,74.4-8.3,88.9c18.6-22.7,35.2-39.3,49.6-57.9c10.3-14.5,22.7-28.9,28.9-37.2
		c4.1-4.1,6.2-4.1,6.2-4.1c2.1,0,2.1,2.1,2.1,2.1c-2.1,26.9-2.1,70.3-4.1,95.1c0,6.2,0,12.4-2.1,18.6L1450.1,235.5L1450.1,235.5
		L1450.1,235.5z M1594.9,185.9c-2.1-4.1-4.2-4.1-2.1-6.2c2.1-4.1,2.1-4.1,4.1-2.1c4.2,0,24.8,16.5,28.9,18.6
		c8.3,4.1,22.7,12.4,24.8,14.5c2,0,0,0-2.1,6.2h-4.1c-6.2-4.1-8.3-4.1-12.4-4.1c-8.3,0-10.3,4.1-26.9,31
		c-28.9,45.5-33.1,51.7-35.2,57.9c-10.3,16.5-6.2,20.7,4.1,28.9c2.1,0,2.1,2.1,2.1,2.1c-4.1,6.2-4.1,6.2-6.2,4.1
		c-4.1-2.1-20.7-14.5-24.8-16.5c-10.3-6.2-18.6-10.3-28.9-16.5c0-2.1,0-2.1,2.1-6.2c2.1-2.1,2.1-2.1,4.1,0
		c12.4,6.2,18.6,6.2,26.9-6.2c4.1-4.1,20.7-33.1,26.9-41.4c4.1-6.2,26.9-41.3,26.9-47.6C1605.2,194.2,1601.1,190.1,1594.9,185.9
		L1594.9,185.9z M1681.7,334.8c-8.3-20.7-10.3-37.2,4.2-55.8c12.4-14.5,35.1-20.7,53.8-4.1c8.3,6.2,12.4,14.5,14.5,20.7v2.1h6.2
		c2.1-2.1,2.1-2.1,4.2,2.1c2,0,2,0-2.1,4.1l-16.5,22.7h-2.1c-4.1-4.1-4.1-4.1-4.1-6.2l4.1-4.1c6.2-12.4,4.2-24.8-6.2-35.2
		c-14.5-12.4-28.9-4.1-35.2,2.1c-2.1,4.1-6.2,10.3-6.2,20.7c2,6.2,2,10.3,10.3,28.9c8.3,20.7,14.5,37.2,0,55.8
		c-14.5,16.5-43.4,24.8-64.1,8.3c-8.1-7.9-13.8-17.9-16.5-28.9c0-2.1,0-2.1-2-4.1c-2.1,0-4.2,0-8.3,2.1c0,2.1,0,2.1-2.1,0
		c-4.1-2.1-4.1-4.1-2-4.1c2-4.1,16.5-20.7,18.6-22.7l6.2-8.3c2.1-2.1,2.1,0,2.1,0c2.1,0,4.1,2.1,4.1,4.1c0,0-2,2.1-2,4.1
		c-14.5,22.7-6.2,39.3,4.1,47.6c14.5,10.3,31,8.3,39.3-2.1c10.3-12.4,8.3-24.8,2.1-37.2L1681.7,334.8L1681.7,334.8z M1805.8,554
		c-2,2.1-2,0-4.1-2.1v-8.3c0,0,0-2.1-2-2.1c0-2.1-2.1-2.1-6.2-4.1c-10.4-4.1-24.8-8.3-39.3-24.8c-26.9-35.2-22.7-80.6,10.3-109.6
		c33.1-26.9,84.8-26.9,111.7,8.3c14.5,14.5,16.5,28.9,16.5,35.2c0,2.1,0,10.3,2.1,10.3l2,2.1h6.2c2.1,0,2.1,0,4.2,4.1
		c2,0,2,2.1,0,2.1l-12.4,10.3c-6.2,6.2-10.3,8.3-16.5,14.5l-2.1,2.1c-2.1,2.1-2.1,0-4.1-2.1c-2.1-2.1,0-2.1,0-4.1
		c2-2.1,8.3-12.4,10.3-20.7c6.2-18.6-2.1-39.3-10.3-47.6c-8.3-10.3-20.7-16.5-33.1-18.6c-12.4-2.1-31,2.1-51.7,18.6
		c-31,24.8-47.6,62-22.7,93.1c9.1,9.2,20.5,15.6,33.1,18.6c10.3,0,22.7-2.1,43.4-12.4l2.1,2.1c2.1,2.1,2.1,2.1,2.1,4.1l-10.4,8.3
		l-14.5,12.4c-4.1,2.1-6.2,4.1-10.3,8.3L1805.8,554L1805.8,554z M1987.8,593.3c10.3,18.6,6.2,33.1,2.1,41.3
		c-6.2,14.5-18.6,31-41.4,41.4c-33.1,18.6-70.3,12.4-84.8-14.5c-12.4-20.7-6.2-55.8,39.3-80.6
		C1938.2,562.3,1973.3,568.5,1987.8,593.3L1987.8,593.3z M1996.1,593.3c-20.7-37.2-64.1-57.9-105.5-35.2
		c-47.6,24.8-51.7,72.4-35.2,107.5c20.7,39.3,66.2,55.8,105.5,35.1C2006.4,676,2014.7,628.5,1996.1,593.3L1996.1,593.3z
		 M2039.5,760.8l-86.8,22.7c-16.6,6.2-28.9,8.3-24.8,28.9c0,2.1,0,2.1-2.1,2.1c-4.1,2.1-4.1,2.1-4.1,0c-4.1-10.3-4.1-16.5-8.3-28.9
		c-2.1-8.3-4.2-16.5-6.2-18.6c0-2.1,0-2.1,2-4.1c4.2,0,6.2,0,6.2,2.1c8.3,16.5,12.4,16.5,41.4,8.3l86.9-22.7c2-2.1,6.2-8.3,2-20.7
		c0-2.1,0-2.1,2.1-2.1c4.1-2.1,4.1-2.1,6.2,0l4.1,20.7l4.1,14.5c0,2.1,0,4.1-4.1,10.3c-10.3,14.5-10.3,14.5-18.6,24.8
		c-6.2,8.3-37.2,45.5-43.4,55.8c-6.2,6.2-14.5,18.6-20.7,26.9l12.4-4.1c10.3-2.1,55.9-14.5,66.2-16.5c16.5-4.1,22.7-8.3,20.7-24.8
		c-2.1-2.1-2.1-4.1,0-4.1c6.2,0,6.2-2.1,6.2,0c2.1,8.3,4.1,16.5,6.2,24.8c2.1,8.3,4.1,16.5,6.2,24.8c0,2.1,0,2.1-2.1,2.1
		c-4.1,0-4.1,2.1-6.2-2.1c-2-8.3-4.1-14.5-16.5-14.5c-12.4,2.1-72.4,16.5-88.9,20.7c-8.3,4.1-16.5,6.2-24.8,8.3
		c-4.1,2.1-8.3,2.1-10.3,4.1c-4.1,0-6.2-2.1-6.2-4.1c0-2.1,0-4.1,2.1-6.2c10.3-8.3,18.6-20.7,26.9-31l49.6-66.2
		c4.2-8.3,16.5-22.7,18.6-24.8L2039.5,760.8L2039.5,760.8z M2023,992.4c10.3-20.7,20.7-33.1,43.4-35.1c18.6-2.1,39.3,10.3,41.3,35.1
		c0,10.3-2,18.6-6.2,24.8v2.1c0,2.1,0,2.1,4.2,4.1c2,0,2,0,2,4.1c0,2.1,0,2.1-4.1,2.1l-28.9,2.1h-2.1c0-6.2,0-6.2,2.1-6.2l6.2-2.1
		c12.4-2.1,20.7-12.4,20.7-26.9c-2-18.6-16.5-24.8-26.9-24.8c-4.1,2.1-12.4,2.1-18.6,10.3c-4.1,4.1-6.2,8.3-14.5,26.9
		c-8.3,20.7-16.5,37.2-39.3,39.3s-47.6-14.5-49.6-41.4c-2.1-14.5,4.1-24.8,8.3-31c0-2.1,2.1-2.1,2.1-4.1c0-2.1-4.2-2.1-6.2-4.1
		c-2.1,0-2.1,0-2.1-2.1c-2-4.1-2-6.2,0-6.2h31l10.3-2.1c2,0,2,0,2,2.1v6.2h-6.2c-24.8,6.2-31,22.7-31,37.2
		c2.1,16.5,16.5,26.9,28.9,26.9c16.5-2.1,22.7-12.4,28.9-24.8L2023,992.4L2023,992.4z M2099.5,1112.4c0-4.2,0-4.2,2-4.2
		c4.2,0,6.2,0,6.2,2.1s-4.1,28.9-4.1,35.2v26.9c0,2.1-2.1,2.1-8.3,2.1v-4.2c0-8.3-2-10.3-2-12.4c-6.2-6.2-10.3-8.3-43.4-10.3
		c-53.8-4.2-60-4.2-66.2-4.2c-18.6,0-20.7,6.2-22.7,18.6c0,2,0,2-2.1,2c-6.2,0-6.2,0-6.2-2c0-4.1,2-24.8,4.1-31v-31
		c0-2.1,2-2.1,6.2-2.1c2,0,2,0,2,2.1c0,14.5,2.1,20.7,18.6,22.7c6.2,0,39.3,2.1,47.6,4.1c10.3,0,51.7,2.1,57.9,0
		C2097.4,1124.8,2097.4,1120.6,2099.5,1112.4L2099.5,1112.4z M2068.5,1265.4l-86.9-22.7c-18.6-4.2-28.9-6.2-35.1,12.4
		c0,2-2.1,2-2.1,2c-6.2-2-6.2-2-6.2-4.1c4.1-10.3,4.1-14.5,8.3-28.9c2-8.3,4.1-16.5,4.1-18.6c0-2,0-2,2.1-2c4.1,2,6.2,2,6.2,4.1
		c-2,18.6,2.1,20.7,28.9,26.9l88.9,22.7c4.1-2,8.3-4.1,12.4-16.5c0-2.1,0-2.1,2-2.1c4.1,0,6.2,0,4.1,2.1l-4.1,22.7l-4.1,12.4
		c0,4.1-2.1,4.1-10.3,8.3c-14.5,6.2-14.5,6.2-26.9,12.4c-8.3,4.2-53.8,22.7-64.1,26.9c-8.3,4.1-22.7,10.3-31,14.5l14.5,2
		c8.3,4.2,53.8,14.5,64.1,18.6c16.5,4.2,24.8,2.1,28.9-14.5l2.1-2.1c6.2,2.1,6.2,2.1,6.2,4.1c-2.1,8.3-4.1,16.6-6.2,24.8
		c-2.1,8.3-4.1,16.5-6.2,22.7c0,2.1-2.1,2.1-2.1,2.1c-4.1,0-6.2-2.1-6.2-4.1c2.1-8.3,4.2-16.6-6.2-20.7
		c-12.4-6.2-72.4-20.7-88.9-24.8c-9-1.8-18-3.9-26.9-6.2h-10.3c-2.1-2-4.1-4.1-2.1-6.2c0-2.1,2.1-4.2,4.1-4.2
		c12.4-4.1,24.8-10.3,37.2-16.5l76.5-33.1c8.3-4.1,26.9-12.4,28.9-12.4L2068.5,1265.4L2068.5,1265.4z M302.4,1499.1l37.2,55.8
		l-60,70.3l2.1,2.1c6.2-2.1,12.4-6.2,20.7-8.3l66.2-22.7l37.2,55.8l-124.1,122l-35.1-53.8l72.4-60c-6.2,2.1-12.4,4.1-16.5,6.2
		l-78.6,20.7l-22.7-31l47.6-60c4.1-6.2,10.3-10.3,14.5-16.5c-6.2,2.1-12.4,6.2-18.6,10.3l-64.1,35.2l-37.2-53.8L302.4,1499.1
		L302.4,1499.1z M472,1747.2l43.4,35.2l-93.1,113.7l-43.4-35.1L472,1747.2z M594,1840.3l47.6,26.9L592,1952l41.4,24.8l-22.7,39.3
		l-88.9-49.6L594,1840.3z M798.7,1937.5v88.9c4.1-8.3,6.2-18.6,10.3-24.8l31-55.8l41.4,10.3v88.9c4.1-8.3,6.2-16.5,10.3-22.7
		l28.9-55.8l55.8,12.4L891.8,2107l-47.6-10.3l2.1-80.7h-2.1c-2.1,6.2-4.1,14.5-8.3,20.7l-28.9,51.7l-45.5-12.4l-18.6-153
		L798.7,1937.5L798.7,1937.5z M1109,2067.7l8.3-45.5h2.1c0,6.2,2,12.4,4.1,18.6l8.3,24.8L1109,2067.7L1109,2067.7z M1100.7,2102.9
		l43.4-4.1l6.2,18.6l57.9-4.1l-64.1-140.6l-60,2l-45.5,148.9l60-2L1100.7,2102.9L1100.7,2102.9z M1415,1908.5l28.9,80.7
		c12.4,41.4-8.3,68.2-47.5,82.7c-41.4,12.4-74.4,4.2-86.9-37.2l-26.9-80.7l51.7-18.6l26.9,76.5c2.1,12.4,6.2,20.7,20.7,16.5
		c14.5-4.1,10.3-14.5,6.2-24.8l-24.8-76.5L1415,1908.5L1415,1908.5z M1503.9,1865.1l45.5-31l33.1,53.8h2c-2-6.2-2-12.4-2-18.6
		l-4.1-53.8l49.6-33.1v84.8l84.8,33.1l-53.8,37.2l-45.5-22.7c-6.2-4.1-12.4-4.1-16.5-10.3l-2,2.1l35.2,49.6l-45.5,28.9
		L1503.9,1865.1L1503.9,1865.1z M1694.2,1724.5l70.3-76.5l28.9,26.9l-33.1,35.2l10.4,8.3l29-31l28.9,24.8l-28.9,33.1l10.3,8.3
		l33.1-35.2l29,26.9l-70.3,76.5L1694.2,1724.5L1694.2,1724.5z M1820.3,1571.5l51.7-91l33.1,20.7l-22.7,39.3l12.4,8.3l20.7-37.2
		l33.1,18.6l-20.7,37.2l12.4,6.2l22.7-41.3l35.1,18.6l-51.7,91L1820.3,1571.5L1820.3,1571.5z"/>
</g>
</svg>
