<?xml version="1.0" encoding="utf-8"?>
<!-- Generator: Adobe Illustrator 23.0.0, SVG Export Plug-In . SVG Version: 6.00 Build 0)  -->
<svg version="1.1" id="Layer_1" xmlns="http://www.w3.org/2000/svg" xmlns:xlink="http://www.w3.org/1999/xlink" x="0px" y="0px"
	 width="1792px" height="2154.7px" viewBox="0 0 1792 2154.7" style="enable-background:new 0 0 1792 2154.7;" xml:space="preserve"
	>
<style type="text/css">
	.st0{fill-rule:evenodd;clip-rule:evenodd;fill:#2C5B8D;}
	.st1{fill-rule:evenodd;clip-rule:evenodd;fill:#E6BD3C;}
	.st2{fill-rule:evenodd;clip-rule:evenodd;fill:#AD4246;}
	.st3{fill-rule:evenodd;clip-rule:evenodd;fill:#0C0E0F;}
</style>
<g>
	<path class="st0" d="M1269,1584.8c176.1-6.7,329-129.6,378.9-349l3.3,3.3c-16.6,172.8-79.8,315.7-152.9,425.4c6.7,0-10,3.3-10,3.3
		c-86.4,33.2-123,33.2-216,36.5c-132.9,3.3-229.3-49.9-352.3-89.7c-66.5-20-129.6-43.2-189.4-53.2c-63.1-13.3-119.6-16.6-172.8,0
		c-63.1,16.6-96.4,49.9-132.9,99.7l-23.3-29.9l79.8-123c16.6-6.6,29.9-10,46.5-13.3c16.6-3.3,36.6-6.6,53.2-10
		c-265.9-106.4-405.5-299.1-405.5-618.2c0-378.9,315.7-648.1,701.2-651.4c422.1,0,678,272.5,681.3,634.8
		c3.3,422.1-322.4,651.4-631.5,678C1023,1564.8,1199.1,1588.1,1269,1584.8L1269,1584.8z M876.8,1481.7
		c349-3.3,531.8-302.4,528.4-621.5c-3.3-312.4-162.9-604.9-531.8-601.6c-342.3,0-548.4,282.5-548.4,614.8
		C321.7,1219.2,468,1491.7,876.8,1481.7L876.8,1481.7z"/>
	<path class="st1" d="M1182.5,637.6h33.2c36.6-3.3,20,26.6,6.7,43.2c-19.9,46.5-56.5,156.2-66.5,202.7
		c-53.2,36.5-236,53.2-292.5,53.2c-53.2,0-232.6-16.6-289.1-53.2c-10-46.5-46.5-159.5-66.5-202.7c-3.3-10-10-16.6-13.3-23.3
		c-3.3-13.3,0-23.3,19.9-19.9h36.6c23.3,0,26.6,0,39.9-3.3c10-6.6,19.9,3.3,19.9,16.6c0,16.6,0,23.3-19.9,19.9c-6.7,0-10-3.3-10,3.3
		v13.3c3.3,53.2,43.2,83.1,83.1,83.1c43.2,0,63.1-33.2,63.1-109.7v-16.6c0-16.6-3.3-23.3-23.3-23.3c-19.9,0-23.3-3.3-23.3-19.9
		s0-26.6,19.9-23.3c16.6,3.3,36.5,3.3,53.2,3.3c16.6,0,29.9,0,46.5-3.3c16.6-3.3,26.6-3.3,26.6,16.6c0,23.3-3.3,26.6-23.3,26.6
		c-19.9,0-23.3,0-19.9,23.3c0,56.5,3.3,152.9,79.8,152.9c63.1,0,79.8-63.1,83.1-109.7c3.3-16.6,3.3-33.2,3.3-43.2
		c0-23.3-3.3-23.3-23.3-23.3c-23.3,0-19.9-3.3-19.9-26.6c0-19.9,3.3-19.9,23.3-16.6c16.6,3.3,33.2,3.3,49.9,3.3
		c13.3,0,36.6,0,49.9-3.3c19.9-3.3,19.9,3.3,19.9,23.3c0,16.6-3.3,19.9-23.3,19.9c-19.9,0-23.3,6.7-19.9,23.3v16.6
		c0,76.4,16.6,109.7,59.8,109.7c43.2,0,79.7-29.9,83.1-83.1c3.3-13.3,0-16.6,0-16.6h-10c-16.6,3.3-19.9-3.3-19.9-19.9
		c0-13.3,6.6-23.3,19.9-16.6c13.3,3.3,16.6,3.3,39.9,3.3L1182.5,637.6L1182.5,637.6L1182.5,637.6z"/>
	<path class="st1" d="M866.8,1069.6c-93.1,0-226-26.6-269.2-46.5c-3.3-29.9-6.6-59.8-13.3-86.4c83.1,26.6,192.8,43.2,282.5,43.2
		c86.4,0,199.4-16.6,279.2-43.2c-3.3,26.6-10,56.5-13.3,86.4C1089.5,1043,959.9,1069.6,866.8,1069.6z"/>
	<path class="st2" d="M1647.8,1146V79.2c-285.8,23.3-485.2,29.9-781,33.2c-309.1,3.3-505.2-6.7-784.3-33.2V1146
		c-3.3,375.6,229.3,767.7,784.3,943.9C1418.5,1913.8,1651.2,1524.9,1647.8,1146L1647.8,1146z M1694.3,26
		c-282.5,26.6-545.1,36.6-827.5,39.9C547.7,69.2,348.3,59.3,35.9,26v1120c-3.3,508.5,368.9,847.5,830.9,993.7
		c458.6-146.2,830.9-481.9,827.5-993.7V26L1694.3,26z"/>
	<path class="st3" d="M1704.3,1574.8c-36.5,0-66.5,29.9-66.5,66.5s29.9,66.5,66.5,66.5s66.5-29.9,66.5-66.5
		S1740.9,1574.8,1704.3,1574.8z M1704.3,1581.4c29.9,0,56.5,26.6,56.5,59.8c0,33.2-26.6,59.8-56.5,59.8c-33.2,0-59.8-26.6-59.8-59.8
		C1644.5,1608,1671.1,1581.4,1704.3,1581.4z M1671.1,1601.4v3.3h3.3c3.3,3.3,6.6,3.3,6.6,6.6v56.5c0,3.3,0,6.6-6.6,6.6h-3.3v3.3
		h29.9v-3.3h-3.3c-6.6,0-6.6-3.3-6.6-6.6v-26.6h3.3c3.3,0,10,0,13.3,3.3c3.3,3.3,6.6,10,6.6,16.6c0,3.3,3.3,10,6.7,13.3
		s10,3.3,13.3,3.3h3.3v-3.3c-3.3,0-3.3-3.3-6.7-3.3c-3.3-3.3-3.3-6.7-6.6-10c0-6.6-6.6-19.9-13.3-19.9c10-3.3,19.9-6.6,19.9-19.9
		c0-16.6-16.6-19.9-29.9-19.9L1671.1,1601.4L1671.1,1601.4L1671.1,1601.4z M1691,1614.7c0-3.3,0-6.7,6.6-6.7h3.3
		c10,0,20,3.3,20,13.3c0,13.3-13.3,16.6-23.3,16.6h-6.6V1614.7L1691,1614.7z"/>
</g>
</svg>
