<?xml version="1.0" encoding="UTF-8"?>
<svg width="90px" height="90px" viewBox="0 0 90 90" version="1.1" xmlns="http://www.w3.org/2000/svg" xmlns:xlink="http://www.w3.org/1999/xlink">
    <title>Video Conference</title>
    <g stroke="none" stroke-width="1" fill="none" fill-rule="evenodd">
        <g transform="translate(5.000000, 8.000000)" stroke="#3578E5" stroke-width="2">
            <rect x="0" y="0" width="80" height="50" rx="4"></rect>
            <circle cx="40" cy="25" r="12"></circle>
            <path d="M16,25 C16,17.268 22.268,11 30,11" stroke-linecap="round"></path>
            <path d="M64,25 C64,17.268 57.732,11 50,11" stroke-linecap="round"></path>
            <path d="M16,25 C16,32.732 22.268,39 30,39" stroke-linecap="round"></path>
            <path d="M64,25 C64,32.732 57.732,39 50,39" stroke-linecap="round"></path>
            <line x1="25" y1="58" x2="55" y2="58" stroke-linecap="round"></line>
            <line x1="40" y1="50" x2="40" y2="58" stroke-linecap="round"></line>
            <circle cx="20" cy="15" r="4"></circle>
            <circle cx="60" cy="15" r="4"></circle>
            <circle cx="20" cy="35" r="4"></circle>
            <circle cx="60" cy="35" r="4"></circle>
        </g>
    </g>
</svg>
