<svg xmlns="http://www.w3.org/2000/svg" width="980" height="200" viewBox="0 0 980 200" fill="none">
  <style>
    .box{fill:#F3F7FF;stroke:#2F6FEB;stroke-width:1.5;rx:8}
    .text{font-family:Arial, Helvetica, sans-serif;font-size:14px;fill:#1F2328}
    .arrow{stroke:#6E7781;stroke-width:2;marker-end:url(#m)}
  </style>
  <defs>
    <marker id="m" markerWidth="10" markerHeight="10" refX="6" refY="3" orient="auto">
      <path d="M0,0 L6,3 L0,6 Z" fill="#6E7781" />
    </marker>
  </defs>
  <rect class="box" x="20" y="60" width="120" height="60"/>
  <text class="text" x="80" y="95" text-anchor="middle">Schedule</text>
  <line class="arrow" x1="140" y1="90" x2="190" y2="90"/>

  <rect class="box" x="190" y="45" width="150" height="90"/>
  <text class="text" x="265" y="80" text-anchor="middle">AI/Agent Call</text>
  <text class="text" x="265" y="100" text-anchor="middle">(TTS/IVR)</text>
  <line class="arrow" x1="340" y1="90" x2="390" y2="90"/>

  <rect class="box" x="390" y="30" width="140" height="120"/>
  <text class="text" x="460" y="70" text-anchor="middle">ASR</text>
  <text class="text" x="460" y="90" text-anchor="middle">+ NLU</text>
  <line class="arrow" x1="530" y1="90" x2="580" y2="90"/>

  <rect class="box" x="580" y="45" width="160" height="90"/>
  <text class="text" x="660" y="80" text-anchor="middle">Questionnaire</text>
  <text class="text" x="660" y="100" text-anchor="middle">(Structured)</text>
  <line class="arrow" x1="740" y1="90" x2="790" y2="90"/>

  <rect class="box" x="790" y="20" width="170" height="60"/>
  <text class="text" x="875" y="55" text-anchor="middle">Risk Alerts</text>
  <rect class="box" x="790" y="110" width="170" height="60"/>
  <text class="text" x="875" y="145" text-anchor="middle">EHR/CRM Sync</text>
  <line class="arrow" x1="660" y1="135" x2="790" y2="140"/>
</svg>
