<svg xmlns="http://www.w3.org/2000/svg" width="980" height="340" viewBox="0 0 980 340" fill="none">
  <style>
    .box{fill:#EEF2FF;stroke:#4F46E5;stroke-width:1.5}
    .text{font-family:Arial, Helvetica, sans-serif;font-size:14px;fill:#111827}
    .arrow{stroke:#6B7280;stroke-width:2;marker-end:url(#m)}
  </style>
  <defs>
    <marker id="m" markerWidth="10" markerHeight="10" refX="6" refY="3" orient="auto">
      <path d="M0,0 L6,3 L0,6 Z" fill="#6B7280" />
    </marker>
  </defs>
  <rect class="box" x="20" y="20" width="180" height="70" rx="8" ry="8"/>
  <text class="text" x="110" y="55" text-anchor="middle">Channels</text>
  <text class="text" x="110" y="75" text-anchor="middle">(Web/IM/Phone/Email)</text>

  <line class="arrow" x1="200" y1="55" x2="260" y2="55"/>
  <rect class="box" x="260" y="20" width="200" height="70" rx="8" ry="8"/>
  <text class="text" x="360" y="55" text-anchor="middle">Ingestion &amp; Identity</text>

  <line class="arrow" x1="460" y1="55" x2="520" y2="55"/>
  <rect class="box" x="520" y="20" width="200" height="70" rx="8" ry="8"/>
  <text class="text" x="620" y="45" text-anchor="middle">Profile &amp; CDP</text>
  <text class="text" x="620" y="65" text-anchor="middle">(Tags/Segments)</text>

  <line class="arrow" x1="620" y1="90" x2="620" y2="140"/>
  <rect class="box" x="260" y="140" width="200" height="70" rx="8" ry="8"/>
  <text class="text" x="360" y="175" text-anchor="middle">Sales Pipeline</text>
  <rect class="box" x="520" y="140" width="200" height="70" rx="8" ry="8"/>
  <text class="text" x="620" y="175" text-anchor="middle">Marketing Journeys</text>
  <rect class="box" x="780" y="140" width="180" height="70" rx="8" ry="8"/>
  <text class="text" x="870" y="175" text-anchor="middle">Service Tickets</text>

  <line class="arrow" x1="620" y1="210" x2="620" y2="260"/>
  <rect class="box" x="260" y="260" width="200" height="70" rx="8" ry="8"/>
  <text class="text" x="360" y="295" text-anchor="middle">Analytics &amp; KPI</text>
  <rect class="box" x="520" y="260" width="200" height="70" rx="8" ry="8"/>
  <text class="text" x="620" y="295" text-anchor="middle">AI &amp; Recommendations</text>

  <rect class="box" x="20" y="140" width="180" height="70" rx="8" ry="8"/>
  <text class="text" x="110" y="175" text-anchor="middle">Integrations</text>
  <text class="text" x="110" y="195" text-anchor="middle">(ERP/OMS/CTI)</text>
  <line class="arrow" x1="200" y1="175" x2="260" y2="175"/>
</svg>
