<?xml version="1.0" encoding="UTF-8"?>
<svg width="800" height="500" xmlns="http://www.w3.org/2000/svg">
    <!-- 背景 -->
    <rect width="800" height="500" fill="#f9f9f9"/>
    
    <!-- 标题 -->
    <text x="400" y="40" font-family="Arial, sans-serif" font-size="24" font-weight="bold" text-anchor="middle" fill="#333">工作流程界面设计</text>
    
    <!-- 主要界面框架 -->
    <rect x="50" y="80" width="700" height="380" rx="10" fill="white" stroke="#ddd" stroke-width="1"/>
    
    <!-- 顶部导航栏 -->
    <rect x="50" y="80" width="700" height="50" rx="10" fill="#3498db"/>
    <text x="120" y="110" font-family="Arial, sans-serif" font-size="16" font-weight="bold" fill="white">微语AI文生文解决方案</text>
    
    <!-- 左侧菜单 -->
    <rect x="50" y="130" width="150" height="330" fill="#f8f9fa" stroke="#eee" stroke-width="1"/>
    <text x="125" y="155" font-family="Arial, sans-serif" font-size="14" font-weight="bold" text-anchor="middle" fill="#333">功能菜单</text>
    
    <!-- 菜单项 -->
    <rect x="60" y="170" width="130" height="30" rx="5" fill="#e1f5fe"/>
    <text x="125" y="190" font-family="Arial, sans-serif" font-size="12" text-anchor="middle" fill="#0277bd">RAG知识库问答</text>
    
    <rect x="60" y="210" width="130" height="30" rx="5" fill="#4fc3f7"/>
    <text x="125" y="230" font-family="Arial, sans-serif" font-size="12" text-anchor="middle" fill="white">会议纪要生成</text>
    
    <rect x="60" y="250" width="130" height="30" rx="5" fill="#e1f5fe"/>
    <text x="125" y="270" font-family="Arial, sans-serif" font-size="12" text-anchor="middle" fill="#0277bd">文档智能创建</text>
    
    <rect x="60" y="290" width="130" height="30" rx="5" fill="#e1f5fe"/>
    <text x="125" y="310" font-family="Arial, sans-serif" font-size="12" text-anchor="middle" fill="#0277bd">知识库管理</text>
    
    <rect x="60" y="330" width="130" height="30" rx="5" fill="#e1f5fe"/>
    <text x="125" y="350" font-family="Arial, sans-serif" font-size="12" text-anchor="middle" fill="#0277bd">模板管理</text>
    
    <rect x="60" y="370" width="130" height="30" rx="5" fill="#e1f5fe"/>
    <text x="125" y="390" font-family="Arial, sans-serif" font-size="12" text-anchor="middle" fill="#0277bd">系统设置</text>
    
    <!-- 主工作区：会议纪要工作流 -->
    <rect x="210" y="140" width="530" height="310" rx="5" fill="white" stroke="#eee" stroke-width="1"/>
    <text x="475" y="165" font-family="Arial, sans-serif" font-size="16" font-weight="bold" text-anchor="middle" fill="#333">会议纪要智能生成工作流</text>
    
    <!-- 工作流步骤 -->
    <rect x="250" y="185" width="450" height="60" rx="30" fill="#f5f5f5" stroke="#ddd" stroke-width="1"/>
    
    <!-- 步骤指示器 -->
    <circle cx="290" cy="215" r="20" fill="#4fc3f7"/>
    <text x="290" y="220" font-family="Arial, sans-serif" font-size="14" font-weight="bold" text-anchor="middle" fill="white">1</text>
    <text x="290" y="245" font-family="Arial, sans-serif" font-size="10" text-anchor="middle" fill="#333">音频上传</text>
    
    <line x1="310" y1="215" x2="340" y2="215" stroke="#ddd" stroke-width="2"/>
    
    <circle cx="360" cy="215" r="20" fill="#4fc3f7"/>
    <text x="360" y="220" font-family="Arial, sans-serif" font-size="14" font-weight="bold" text-anchor="middle" fill="white">2</text>
    <text x="360" y="245" font-family="Arial, sans-serif" font-size="10" text-anchor="middle" fill="#333">语音识别</text>
    
    <line x1="380" y1="215" x2="410" y2="215" stroke="#ddd" stroke-width="2"/>
    
    <circle cx="430" cy="215" r="20" fill="#4fc3f7"/>
    <text x="430" y="220" font-family="Arial, sans-serif" font-size="14" font-weight="bold" text-anchor="middle" fill="white">3</text>
    <text x="430" y="245" font-family="Arial, sans-serif" font-size="10" text-anchor="middle" fill="#333">内容提取</text>
    
    <line x1="450" y1="215" x2="480" y2="215" stroke="#ddd" stroke-width="2"/>
    
    <circle cx="500" cy="215" r="20" fill="#4fc3f7"/>
    <text x="500" y="220" font-family="Arial, sans-serif" font-size="14" font-weight="bold" text-anchor="middle" fill="white">4</text>
    <text x="500" y="245" font-family="Arial, sans-serif" font-size="10" text-anchor="middle" fill="#333">模板套用</text>
    
    <line x1="520" y1="215" x2="550" y2="215" stroke="#ddd" stroke-width="2"/>
    
    <circle cx="570" cy="215" r="20" fill="#e1f5fe" stroke="#4fc3f7" stroke-width="2"/>
    <text x="570" y="220" font-family="Arial, sans-serif" font-size="14" font-weight="bold" text-anchor="middle" fill="#0277bd">5</text>
    <text x="570" y="245" font-family="Arial, sans-serif" font-size="10" text-anchor="middle" fill="#333">编辑确认</text>
    
    <line x1="590" y1="215" x2="620" y2="215" stroke="#ddd" stroke-width="2"/>
    
    <circle cx="640" cy="215" r="20" fill="#e1f5fe" stroke="#ddd" stroke-width="2"/>
    <text x="640" y="220" font-family="Arial, sans-serif" font-size="14" font-weight="bold" text-anchor="middle" fill="#bdbdbd">6</text>
    <text x="640" y="245" font-family="Arial, sans-serif" font-size="10" text-anchor="middle" fill="#333">完成导出</text>
    
    <!-- 音频上传区域 -->
    <rect x="230" y="270" width="230" height="160" rx="5" fill="#e1f5fe" stroke="#4fc3f7" stroke-width="1" stroke-dasharray="5,5"/>
    <rect x="260" y="300" width="170" height="30" rx="15" fill="#4fc3f7"/>
    <text x="345" y="320" font-family="Arial, sans-serif" font-size="14" text-anchor="middle" fill="white">选择音频文件</text>
    
    <rect x="260" y="350" width="170" height="30" rx="15" fill="#4fc3f7" fill-opacity="0.7"/>
    <text x="345" y="370" font-family="Arial, sans-serif" font-size="14" text-anchor="middle" fill="white">拖拽文件到此处</text>
    
    <text x="345" y="410" font-family="Arial, sans-serif" font-size="12" text-anchor="middle" fill="#0277bd">支持MP3, WAV, M4A格式</text>
    
    <!-- 进度显示 -->
    <rect x="480" y="270" width="230" height="160" rx="5" fill="white" stroke="#ddd" stroke-width="1"/>
    <text x="595" y="290" font-family="Arial, sans-serif" font-size="14" font-weight="bold" text-anchor="middle" fill="#333">处理进度</text>
    
    <!-- 进度条 -->
    <rect x="500" y="310" width="190" height="15" rx="7.5" fill="#f5f5f5"/>
    <rect x="500" y="310" width="125" height="15" rx="7.5" fill="#4fc3f7"/>
    <text x="595" y="340" font-family="Arial, sans-serif" font-size="12" text-anchor="middle" fill="#333">语音识别中... 65%</text>
    
    <!-- 处理信息 -->
    <rect x="490" y="360" width="210" height="60" rx="5" fill="#f8f9fa"/>
    <text x="505" y="380" font-family="Arial, sans-serif" font-size="11" fill="#333">文件名: meeting_20250705.mp3</text>
    <text x="505" y="400" font-family="Arial, sans-serif" font-size="11" fill="#333">文件大小: 58.4MB (65分钟)</text>
    <text x="505" y="420" font-family="Arial, sans-serif" font-size="11" fill="#333">预计完成时间: 2分钟后</text>
</svg>
