<?xml version="1.0" encoding="utf-8"?>
<!-- Generator: Adobe Illustrator 23.0.0, SVG Export Plug-In . SVG Version: 6.00 Build 0)  -->
<svg version="1.1" id="Layer_1" xmlns="http://www.w3.org/2000/svg" xmlns:xlink="http://www.w3.org/1999/xlink" x="0px" y="0px"
	 width="21.9px" height="34px" viewBox="0 0 21.9 34" style="enable-background:new 0 0 21.9 34;" xml:space="preserve">
<style type="text/css">
	.st0{fill:#0ACF83;}
	.st1{fill:#A259FF;}
	.st2{fill:#F24E1E;}
	.st3{fill:#FF7262;}
	.st4{fill:#1ABCFE;}
</style>
<path class="st0" d="M5.5,34c3,0,5.4-2.5,5.4-5.4v-5.4H5.5c-3,0-5.4,2.5-5.4,5.4S2.6,34,5.5,34z"/>
<path class="st1" d="M0.1,17.7c0-3,2.5-5.4,5.4-5.4H11v10.9H5.6C2.6,23.1,0.1,20.7,0.1,17.7z"/>
<path class="st2" d="M0.1,6.8c0-3,2.5-5.4,5.4-5.4H11v10.9H5.6C2.6,12.3,0.1,9.8,0.1,6.8z"/>
<path class="st3" d="M11,1.4h5.4c3,0,5.4,2.5,5.4,5.4s-2.5,5.4-5.4,5.4H11C11,12.3,11,1.4,11,1.4z"/>
<path class="st4" d="M21.8,17.7c0,3-2.5,5.4-5.4,5.4S11,20.7,11,17.7s2.5-5.4,5.4-5.4S21.8,14.7,21.8,17.7z"/>
</svg>
