<?xml version="1.0" encoding="utf-8"?>
<!-- Generator: Adobe Illustrator 23.0.0, SVG Export Plug-In . SVG Version: 6.00 Build 0)  -->
<svg version="1.1" id="Layer_1" xmlns="http://www.w3.org/2000/svg" xmlns:xlink="http://www.w3.org/1999/xlink" x="0px" y="0px"
	 width="48.1px" height="48.3px" viewBox="0 0 48.1 48.3" style="enable-background:new 0 0 48.1 48.3;" xml:space="preserve">
<style type="text/css">
	.st0{fill-rule:evenodd;clip-rule:evenodd;fill:#3A2F64;}
	.st1{fill-rule:evenodd;clip-rule:evenodd;fill:#FFFFFF;}
</style>
<g>
	<path class="st0" d="M46.9,24.5c0,12.3-9.9,22.2-22.2,22.2c-12.3,0-22.2-10-22.2-22.2c0-12.3,10-22.2,22.2-22.2
		C37,2.3,46.9,12.1,46.9,24.5z"/>
	<path class="st1" d="M41.1,29.5c0.4-0.2,0.5-0.8,0.5-1.3c0-1.1-1.1-2.2-2.4-2.2c-0.4,0-0.8,0.2-1.1,0.2c-0.7-0.5-1.3-1.1-2.1-1.8
		c4.9-4.1,7.4-7.9,6.2-10s-5.8-1.8-11.6,0.2C29.7,8.4,27.5,4,25.1,4c-0.8,0-1.5,0.5-2.1,1.3c-0.2-0.2-0.5-0.2-0.8-0.2
		C21,5.1,20,6.1,20,7.4c0,0.8,0.2,1.5,0.9,1.8c-0.7,1.6-1.1,3.4-1.5,5.4C13.3,12.3,8.5,12,7.2,14c-1.3,2.1,1.5,6.2,6.4,10.3
		c-5.1,4.2-7.9,8.3-6.7,10.4c0.7,1.1,2.4,1.6,4.7,1.5c0.4,0.7,1.1,1.2,1.9,1.2c1.1,0,2.2-0.9,2.4-2.1c1.1-0.2,2.2-0.7,3.4-1.1
		c1.1,6.3,3.3,10.6,5.7,10.6c2.5,0,4.6-4.4,5.7-10.6c5.9,2.1,10.6,2.4,11.8,0.4C43.2,33.4,42.7,31.6,41.1,29.5L41.1,29.5z
		 M41.9,14.6c0.9,1.5-2,5-7,8.8c-1.1-0.9-2.2-1.7-3.5-2.5c0-1.7-0.2-3.3-0.4-4.7C36.6,13.9,41.1,13,41.9,14.6L41.9,14.6z M27.8,30.2
		c0.7-0.4,1.3-0.8,1.8-1.1c0,1.1-0.2,2.1-0.2,3c-0.8-0.4-1.7-0.8-2.6-1.1C27.1,30.6,27.5,30.5,27.8,30.2L27.8,30.2L27.8,30.2
		L27.8,30.2z M27,28.7h-0.2c-0.7,0.4-1.3,0.8-2,1.1c-0.8-0.4-1.6-0.8-2.5-1.3l-1.8-1.2c0-0.9-0.2-1.8-0.2-2.8v-0.2
		c0-0.9,0.2-1.8,0.2-2.8c0.5-0.4,1.1-0.8,1.8-1.1c0.8-0.5,1.7-1.1,2.6-1.6c0.8,0.4,1.5,0.9,2.2,1.3c0.9,0.5,1.7,1.1,2.6,1.6V27
		C28.8,27.5,27.9,28,27,28.7L27,28.7z M23.1,30.8c-0.8,0.4-1.6,0.8-2.4,1.1c-0.2-0.8-0.2-1.7-0.2-2.5c0.2,0.2,0.5,0.2,0.9,0.5h0.2
		C22.2,30.3,22.6,30.6,23.1,30.8L23.1,30.8z M18.7,24.5c0,0.5,0,1.1,0.2,1.7c-0.9-0.7-1.8-1.1-2.6-1.8c0.8-0.5,1.7-1.1,2.6-1.7
		c-0.2,0.5-0.2,1.1-0.2,1.6V24.5z M20.6,19.5c0-0.9,0-1.7,0.2-2.5c0.8,0.2,1.6,0.7,2.4,1.1c-0.5,0.2-1.1,0.7-1.7,0.9
		C21.1,19.2,20.9,19.4,20.6,19.5L20.6,19.5z M26.8,18.1c0.9-0.4,1.8-0.9,2.6-1.1c0.2,0.9,0.2,1.8,0.2,2.9c-0.5-0.2-1.1-0.7-1.6-0.9
		C27.5,18.6,27.2,18.3,26.8,18.1z M31.5,22.9c0.7,0.5,1.5,1.1,2.1,1.5c-0.7,0.5-1.3,1.1-2.1,1.5v-1.3V22.9L31.5,22.9z M21.9,9.7h0.2
		c1.1,0,2.2-0.9,2.2-2.2c0-0.8-0.2-1.5-0.9-1.8c0.5-0.7,1.1-1.1,1.6-1.1c1.8,0,3.4,4.4,4.2,10.6c-1.5,0.5-2.9,1.1-4.4,2
		c-1.3-0.7-2.8-1.3-4.1-1.8C21.1,13.4,21.4,11.5,21.9,9.7L21.9,9.7z M7.5,14.4c1.1-1.6,5.7-0.8,11.7,1.8l-0.4,4.4
		c-1.5,0.9-2.8,2-3.9,2.9C9.7,19.5,6.6,15.9,7.5,14.4L7.5,14.4z M15.7,33.9c-0.4-0.7-1.1-1.1-2.1-1.1c-1.1,0-2.2,1.1-2.2,2.2v0.2
		c-2.1,0.4-3.5,0.2-4.1-0.5c-0.9-1.7,2.2-5.3,7.5-9.2c1.1,0.9,2.5,1.8,3.9,2.8c0.2,1.6,0.2,3,0.4,4.4C18,33.2,16.8,33.5,15.7,33.9
		L15.7,33.9z M25.1,44.5c-1.8,0-3.4-4.4-4.2-10.9c1.3-0.5,2.8-1.1,4.1-1.8c1.5,0.8,2.9,1.5,4.4,2C28.5,40,26.9,44.5,25.1,44.5
		L25.1,44.5z M42.2,34.3c-0.9,1.6-5.4,0.8-11.2-1.7c0.2-1.5,0.4-3,0.4-4.7c1.3-0.8,2.5-1.7,3.5-2.5c0.8,0.5,1.6,1.1,2.4,1.8
		c-0.2,0.2-0.2,0.7-0.2,0.9c0,1.3,1.1,2.4,2.2,2.4c0.4,0,0.8-0.2,1.1-0.2C41.9,32,42.7,33.4,42.2,34.3L42.2,34.3z"/>
	<path class="st1" d="M24.9,22.1c-1.1,0-2.2,0.9-2.2,2.2c0,1.3,1.1,2.2,2.2,2.2c1.3,0,2.4-0.9,2.4-2.2
		C27.3,23.1,26.2,22.1,24.9,22.1z"/>
</g>
</svg>
