<svg xmlns="http://www.w3.org/2000/svg" width="2500" height="566" viewBox="0 0 160.242 36.266"><path fill="#273691" d="M30.409 30.407c-3.214 3.215-7.731 5.086-12.276 5.086s-9.062-1.871-12.275-5.086C2.645 27.194.774 22.678.774 18.134c0-4.546 1.871-9.062 5.084-12.275S13.588.775 18.133.775s9.062 1.871 12.276 5.084c3.213 3.213 5.084 7.729 5.084 12.275 0 4.543-1.871 9.06-5.084 12.273zm.546-25.096C27.598 1.955 22.88 0 18.133 0S8.668 1.955 5.312 5.311C1.955 8.667 0 13.386 0 18.134c0 4.746 1.955 9.464 5.312 12.82 3.356 3.357 8.074 5.312 12.821 5.312 4.748 0 9.465-1.953 12.822-5.312 3.356-3.356 5.311-8.074 5.311-12.82 0-4.748-1.955-9.467-5.311-12.823z"/><path fill="#273691" d="M17.136 17.557v1.151l.997.576.997-.576v-1.151l-.997-.576zM19 14.799v-2.446a.879.879 0 0 0-.254-.613c-.16-.161-.386-.253-.613-.253s-.452.093-.612.253a.876.876 0 0 0-.254.613v2.446l.867.5.866-.5zM12.693 20.272a.88.88 0 0 0-.404.525.87.87 0 0 0 .613 1.061.884.884 0 0 0 .658-.086l2.118-1.223v-1l-.867-.5-2.118 1.223zM23.572 20.272l-2.118-1.223-.867.5v1.002l2.118 1.223a.878.878 0 0 0 .658.086.875.875 0 0 0 .526-.404.872.872 0 0 0-.317-1.184z"/><path fill="#273691" d="M30.661 25.544a.27.27 0 0 1-.161.021l-3.808-.713a.436.436 0 0 1-.354-.394 1.365 1.365 0 0 0-.302-.748 1.35 1.35 0 0 0-1.482-.411 3.408 3.408 0 0 1-2.837-.263l-1.128-.649v7.409H19v-8.327l-.867-.5-.867.5v8.327h-1.588v-7.409l-1.129.649a3.403 3.403 0 0 1-2.837.263 1.34 1.34 0 0 0-1.783 1.159.436.436 0 0 1-.353.394l-3.809.713a.27.27 0 0 1-.316-.287.272.272 0 0 1 .063-.15l2.521-2.94a.433.433 0 0 1 .517-.111c.247.117.529.156.798.111s.523-.174.718-.365c.195-.19.329-.443.38-.711a3.399 3.399 0 0 1 1.646-2.326l1.129-.65-6.418-3.705.794-1.375 7.212 4.164.867-.5v-1.001l-7.212-4.164.793-1.375 6.418 3.705V12.58c0-.489.107-.979.311-1.425.206-.445.507-.845.879-1.164a1.35 1.35 0 0 0 .384-1.49 1.361 1.361 0 0 0-.496-.635.44.44 0 0 1-.164-.504l1.287-3.654a.27.27 0 0 1 .253-.179.27.27 0 0 1 .253.179l1.288 3.654a.44.44 0 0 1-.164.504 1.347 1.347 0 0 0-.538 1.441c.068.264.219.506.426.684a3.416 3.416 0 0 1 1.191 2.589v1.304l6.418-3.705.794 1.375-7.212 4.164v1.001l.867.5 7.212-4.164.794 1.375-6.417 3.705 1.129.65a3.42 3.42 0 0 1 1.647 2.326c.05.268.185.521.379.711.195.191.45.32.718.365.27.045.552.006.798-.111a.434.434 0 0 1 .517.111l2.521 2.94a.27.27 0 0 1 .028.308.252.252 0 0 1-.119.109zM29.023 7.242c-2.851-2.852-6.858-4.511-10.891-4.511-4.032 0-8.039 1.66-10.891 4.511-2.852 2.852-4.511 6.859-4.511 10.892 0 4.031 1.659 8.04 4.511 10.892 2.852 2.85 6.859 4.51 10.891 4.51s8.04-1.66 10.891-4.51c2.852-2.852 4.512-6.859 4.512-10.892s-1.66-8.04-4.512-10.892zM122.634 33.243V3.022h5.291v11.584h5.794V3.022h5.409v30.221h-5.409V19.974h-5.794v13.269zM45.232 21.554L39.357 3.022h5.28l3.617 11.774 3.998-11.774H57.2l-6.09 17.93v12.291h-5.878zM76.665 33.243h4.739v-22.78l4.043 19.804h4.425l3.586-20.124v23.1h5.556V3.022h-8.61l-2.537 14.376-2.94-14.376h-8.262zM148.457 21.174l2.253-13.516 2.185 13.516h-4.438zm6.797-18.152h-8.184l-5.524 30.221h4.897l1.173-7.033h6.093l1.139 7.033h5.395l-4.989-30.221zM108.341 21.174l2.253-13.516 2.186 13.516h-4.439zm6.798-18.152h-8.184l-5.523 30.221h4.897l1.172-7.033h6.092l1.138 7.033h5.396l-4.988-30.221zM62.372 21.174l2.253-13.516 2.186 13.516h-4.439zM69.17 3.022h-8.184l-5.524 30.221h4.899l1.172-7.033h6.092l1.138 7.033h5.395L69.17 3.022z"/></svg>