<?xml version="1.0" encoding="utf-8"?>
<!-- Generator: Adobe Illustrator 23.0.0, SVG Export Plug-In . SVG Version: 6.00 Build 0)  -->
<svg version="1.1" id="Layer_1" xmlns="http://www.w3.org/2000/svg" xmlns:xlink="http://www.w3.org/1999/xlink" x="0px" y="0px"
	 width="249.8px" height="159.1px" viewBox="0 0 249.8 159.1" style="enable-background:new 0 0 249.8 159.1;" xml:space="preserve"
	>
<style type="text/css">
	.st0{fill:#263238;}
	.st1{fill:#476AB0;stroke:#263238;stroke-linecap:round;stroke-linejoin:round;stroke-miterlimit:10;}
	.st2{fill:none;stroke:#263238;stroke-linecap:round;stroke-linejoin:round;stroke-miterlimit:10;}
	.st3{fill:#FFFFFF;stroke:#263238;stroke-linecap:round;stroke-linejoin:round;stroke-miterlimit:10;}
	.st4{fill:#263238;stroke:#263238;stroke-linecap:round;stroke-linejoin:round;stroke-miterlimit:10;}
	.st5{fill:#474544;stroke:#263238;stroke-linecap:round;stroke-linejoin:round;stroke-miterlimit:10;}
	.st6{fill:none;stroke:#615E5E;stroke-linecap:round;stroke-linejoin:round;stroke-miterlimit:10;}
	.st7{fill:none;stroke:#263238;stroke-width:2;stroke-linecap:round;stroke-linejoin:round;stroke-miterlimit:10;}
	.st8{fill:none;stroke:#FFFFFF;stroke-width:2;stroke-linecap:round;stroke-linejoin:round;stroke-miterlimit:10;}
	.st9{fill:none;stroke:#263238;stroke-linecap:round;stroke-miterlimit:10;}
	.st10{fill:#BBB9B9;stroke:#263238;stroke-linecap:round;stroke-linejoin:round;stroke-miterlimit:10;}
	.st11{fill:#0D0C0C;stroke:#263238;stroke-linecap:round;stroke-linejoin:round;stroke-miterlimit:10;}
	.st12{fill:#232121;stroke:#263238;stroke-linecap:round;stroke-linejoin:round;stroke-miterlimit:10;}
	.st13{fill:#8C8888;stroke:#263238;stroke-linecap:round;stroke-linejoin:round;stroke-miterlimit:10;}
</style>
<g>
	<path class="st0" d="M241.1,89.6c-1.6,0.7-5.5,0.6-5.5,0.6c0,0,0.8-2.5,0.9-2.7c0.9-1.8,3.6-4.7,5.8-4.4c1.6,0.2,2.5,1.8,2.1,3.3
		C244.1,87.8,242.5,89,241.1,89.6z"/>
	<path class="st0" d="M239.8,100.8c-1.7,0.2-5.1-0.8-5.4-0.8c-0.5,1.9-1.3,3.9-2.1,5.8c-0.5,1.1-1,2.2-1.5,3.3
		c0.3-0.5,0.6-0.9,0.6-0.9c1.3-1.5,4.7-3.6,6.7-2.8c1.5,0.6,1.9,2.4,1.2,3.7c-0.8,1.4-2.6,2.1-4,2.3c-1.5,0.2-4.5-0.6-5.2-0.8
		c-0.2,0.4-0.4,0.8-0.6,1.3c-1,2-2,4-3,6c-0.3,0.7-0.6,1.4-0.9,2.1c0.3-0.4,0.5-0.8,0.6-0.8c1.3-1.5,4.7-3.6,6.7-2.8
		c1.5,0.6,1.9,2.4,1.2,3.7c-0.8,1.4-2.6,2.1-4,2.3c-1.4,0.2-4.2-0.5-5.1-0.8c-0.3,0.7-0.6,1.5-0.8,2.2c-0.2,0.5-0.3,1-0.5,1.5
		c-0.1,0.5-0.3,1-0.4,1.5c-0.2,0.9-0.5,1.9-0.7,2.9c-0.1,0.6-0.3,1.3-0.4,1.9c0.3-0.7,1-2.1,1-2.2c1.1-1.7,4.1-4.3,6.2-3.7
		c1.5,0.4,2.2,2.1,1.7,3.5c-0.5,1.5-2.2,2.4-3.6,2.8c-1.6,0.5-5,0-5.4,0c-0.2,1-0.4,2-0.6,3c-0.4,2.1-0.6,4-0.9,5.6h-1.5
		c0.3-1.6,0.6-3.6,1-5.8c0.2-1,0.4-2.2,0.7-3.3c-0.3-0.1-1.7-0.7-3-1.4c-1.1,1.2-4,2.7-4.4,2.9c0.4,1,0.8,1.9,1.2,2.8
		c0.8,1.9,1.6,3.5,2.2,4.9h-1.6c-0.6-1.3-1.2-2.8-1.9-4.4c-0.4-1-0.8-2-1.2-3.1c-0.4,0.1-3.8,0.8-5.4,0.4c-1.4-0.3-3.2-1.1-3.8-2.6
		c-0.6-1.4-0.1-3.1,1.4-3.6c2.1-0.7,5.3,1.7,6.5,3.3c0.1,0.1,0.7,1.2,1.1,1.9c-0.2-0.4-0.3-0.9-0.5-1.3c-0.3-0.9-0.6-1.8-1-2.8
		c-0.1-0.5-0.3-1-0.4-1.5c-0.2-0.5-0.3-1-0.4-1.5c-0.3-1.2-0.5-2.4-0.7-3.7c-0.8,0.3-3.7,1.3-5.1,1.2c-1.5-0.1-3.3-0.6-4.2-2
		c-0.8-1.3-0.5-3.1,0.9-3.8c2-1,5.5,0.9,6.9,2.3c0.1,0.1,1,1.2,1.5,1.8c-0.1-0.7-0.2-1.5-0.3-2.3c-0.3-2.2-0.5-4.4-0.7-6.7
		c-0.1-0.7-0.1-1.4-0.2-2c-0.3,0.1-3.7,1.4-5.3,1.2c-1.5-0.1-3.3-0.6-4.2-2c-0.8-1.3-0.5-3.1,0.9-3.8c2-1,5.5,0.9,6.9,2.3
		c0.1,0.1,1.4,1.7,1.7,2.1c-0.2-1.5-0.3-3-0.6-4.5c-0.3-2-0.7-4-1.3-5.9c-0.1,0.1-3.6,1.4-5.3,1.3c-1.5-0.1-3.3-0.6-4.2-2
		c-0.8-1.3-0.5-3.1,0.9-3.8c2-1,5.5,0.9,6.9,2.3c0.1,0.1,1.5,1.8,1.7,2.2c0-0.1-0.1-0.2-0.1-0.3c-0.6-2-1.4-3.8-2.3-5.5
		c-0.5-1-1-1.9-1.6-2.8c-0.6,0.3-3.5,1.7-5.1,1.8c-1.5,0.1-3.4-0.3-4.4-1.5c-1-1.2-0.9-3,0.5-3.9c1.8-1.2,5.6,0.2,7.1,1.5
		c0.1,0.1,0.9,0.8,1.4,1.4c-0.3-0.4-0.5-0.8-0.8-1.2c-0.9-1.4-1.9-2.6-2.7-3.7c-0.5-0.6-0.9-1.1-1.4-1.6c-0.8,0-3.9-0.1-5.3-0.8
		c-1.3-0.6-2.9-1.8-3.2-3.3c-0.3-1.5,0.6-3.1,2.2-3.2c2.2-0.2,4.8,2.8,5.6,4.6c0.1,0.2,0.9,2.7,0.8,2.7c0,0,0,0,0,0
		c0.4,0.5,0.9,1,1.3,1.6c0.9,1.1,1.8,2.3,2.8,3.6c1,1.4,2,2.9,2.9,4.6c0.9,1.7,1.8,3.5,2.5,5.6c0,0,0,0,0,0.1c0-0.6,0-2.5,0-2.6
		c0.3-2,1.9-5.6,4.1-6c1.6-0.3,2.9,0.9,3,2.5c0.1,1.6-1,3.1-2.1,4.1c-1.2,1.1-4.7,2.2-5,2.3c0.6,1.9,1.1,3.9,1.5,6
		c0.2,1.2,0.4,2.4,0.5,3.6c0-0.6,0-1.1,0-1.1c0.3-2,1.9-5.6,4.1-6c1.6-0.3,2.9,0.9,3,2.5c0.1,1.6-1,3.1-2.1,4.1c-1.1,1-4,2-4.8,2.2
		c0.1,0.5,0.1,0.9,0.2,1.4c0.3,2.2,0.5,4.4,0.8,6.6c0.1,0.8,0.2,1.5,0.4,2.3c0-0.5,0-0.9,0-1c0.3-2,1.9-5.6,4.1-6
		c1.6-0.3,2.9,0.9,3,2.5c0.1,1.6-1,3.1-2.1,4.1c-1.1,1-3.8,1.9-4.7,2.2c0.2,0.8,0.3,1.5,0.5,2.3c0.1,0.5,0.2,1,0.4,1.5
		c0.2,0.5,0.3,1,0.5,1.5c0.3,0.9,0.7,1.9,1,2.7c0.2,0.6,0.5,1.2,0.7,1.8c-0.1-0.8-0.3-2.3-0.3-2.4c0-1.3,0.4-3.5,1.4-5
		c0-0.2,0-0.4,0-0.6c0.2-1.5,1.7-2.6,3.2-2.2c2.1,0.6,3.5,4.3,3.6,6.3c0,0.1-0.1,1.4-0.1,2.2c0.1-0.5,0.2-0.9,0.3-1.4
		c0.2-0.9,0.5-1.9,0.7-2.9c0.1-0.5,0.3-1,0.4-1.5c0.1-0.5,0.3-1,0.5-1.5c0.4-1.2,0.9-2.3,1.4-3.5c-0.8-0.2-3.8-0.9-4.9-1.9
		c-1.2-0.9-2.4-2.4-2.4-3.9c0-1.5,1.2-2.9,2.8-2.7c2.2,0.2,4.1,3.8,4.5,5.7c0,0.1,0.2,1.5,0.2,2.3c0.3-0.7,0.6-1.4,1-2.1
		c1-2,2-4,3.1-5.9c0.3-0.6,0.6-1.2,0.9-1.8c-0.3-0.1-3.8-0.9-5.1-1.9c-1.2-0.9-2.4-2.4-2.4-3.9c0-1.5,1.2-2.9,2.8-2.7
		c2.2,0.2,4.1,3.8,4.5,5.7c0,0.1,0.2,2.2,0.2,2.7c0.7-1.3,1.4-2.7,2-4c0.9-1.9,1.6-3.7,2.2-5.6c-0.1,0-3.8-0.9-5.2-1.9
		c-1.2-0.9-2.4-2.4-2.4-3.9c0-1.5,1.2-2.9,2.8-2.7c2.2,0.2,4.1,3.8,4.5,5.7c0,0.2,0.2,2.4,0.2,2.8c0-0.1,0.1-0.2,0.1-0.3
		c0.6-2,0.9-4,1.1-5.9c0.1-1.1,0.2-2.2,0.2-3.2c-0.7-0.1-3.9-0.5-5.2-1.3c-1.3-0.8-2.7-2.1-2.8-3.7c-0.2-1.5,0.9-3,2.5-3
		c2.2,0,4.5,3.3,5.1,5.2c0,0.1,0.3,1.2,0.4,2c0-0.5,0-0.9,0-1.4c0-1.7-0.1-3.2-0.2-4.6c-0.1-0.8-0.1-1.5-0.2-2.1
		c-0.6-0.4-3.2-2.3-4-3.5c-0.8-1.3-1.4-3.1-0.8-4.5c0.6-1.4,2.2-2.2,3.6-1.5c2,1,2.5,5,2.2,6.9c0,0.2-0.8,2.8-0.8,2.7c0,0,0,0,0,0
		c0.1,0.6,0.2,1.3,0.3,2c0.1,1.4,0.3,2.9,0.3,4.6c0,1.7,0,3.5-0.1,5.4c-0.2,1.9-0.5,4-1,6c0,0,0,0,0,0.1c0.3-0.5,1.4-2,1.5-2.2
		c1.3-1.5,4.7-3.6,6.7-2.8c1.5,0.6,1.9,2.4,1.2,3.7C243.1,99.9,241.3,100.6,239.8,100.8z"/>
	<path class="st0" d="M201.8,90.4c0,0-0.7-2.6-0.7-2.8c-0.3-2,0.4-5.9,2.3-6.9c1.4-0.7,3,0.1,3.6,1.6c0.5,1.5-0.1,3.3-0.9,4.5
		C205.1,88.3,201.8,90.4,201.8,90.4z"/>
</g>
<path class="st0" d="M33.3,66.6h62.4c2.8,0,5.1,2,5.5,4.8l9.3,69.3H37l-9.1-67.8C27.4,69.6,30,66.6,33.3,66.6z"/>
<g>
	<g>
		<path class="st1" d="M152.8,116.1c-4,2.3-12.1,2.9-13.2,1.7c-1.1-1.1-11.1-18.6-11.1-18.6s-1.1,14.7-1.1,20.5
			c0,3.9,2.1,14.5,3.5,20.9H66.2L63.9,119c0,0-3.3,4.8-7.9,8.6c-4.6,3.8-9.4,2.9-14.2,0.2c-4.8-2.7-7.1-8.4-5.7-14.2
			c1.3-5.7,12.4-30.4,14.2-33.7c1.7-3.3,2.3-11.1,4.6-11.3c2.3-0.2,24.9-8.4,24.9-8.4s13.8-3.8,15.9-3.3c2.1,0.6,18.6,1.5,19.5,1.5
			s12.3,1,14.9,2.3c2.7,1.3,7.1,9.4,8,12.6c1,3.3,21.1,28.9,21.6,33.1C160.4,110.8,156.8,113.8,152.8,116.1z"/>
		<path class="st2" d="M92.6,119.7c5.5,4.2,14.1,10.4,20.5,13.9"/>
		<path class="st2" d="M87,115.5c0,0,0.8,0.6,2.1,1.6"/>
		<path class="st2" d="M96.9,126.7c0,0,10.2,7.3,15.8,9.9"/>
		<path class="st2" d="M63.9,84.6c-0.3-0.7-0.6-1.4-1-2.2"/>
		<path class="st2" d="M68.2,96.9c0,0-0.6-3.6-3.3-9.9"/>
		<path class="st2" d="M70.1,96c0,0,0.2-4.1-1.2-6.7"/>
		<line class="st2" x1="128.4" y1="99.3" x2="132" y2="87.8"/>
	</g>
	<g>
		<path class="st3" d="M115.7,70.9c0,0-0.3,3-0.7,4.3c-0.3,1.4-0.9,5.6-0.9,5.6s-2.8-4.2-3.5-5c-0.7-0.9,1.6-5.6,1.6-5.6L115.7,70.9
			z"/>
		<path class="st3" d="M112,64.6l3.7,6.3c0,0-3.3,4.2-6.6,6.6c-3.3,2.4-8.4,6.4-8.4,6.4s2.4-8,3-10.3c0.5-2.3,4.9-9.9,4.9-9.9
			S110.8,62.9,112,64.6z"/>
		<path class="st3" d="M79,46.9c0,0-0.7,1.4,0.3,1.9c1,0.5,3.3,1.2,3.3,1.2l-0.2,8c0,0,7.3,13,9.6,16.2c2.3,3.1,8.7,9.7,8.7,9.7
			s6-8.3,6.7-10.4c0.7-2.1,3.4-9.9,3.4-9.9S99.8,62.5,97.6,61c-2.3-1.6-6.3-6.1-7.3-10.3c-1-4.2,1.4-6.6-1.9-9
			c-3.3-2.4-5.4-3.5-6.8-2.8C80.2,39.6,79,46.9,79,46.9z"/>
		<path class="st4" d="M85.1,47.2L82.6,50c0,0-2.4,0.8-3.7-3.1c-1.3-3.9,2.6-8,2.6-8L85.1,47.2z"/>
		<polygon class="st3" points="95.5,72.5 100.7,83.9 90.1,76.6 		"/>
		<path class="st3" d="M82.3,53.9c0,0,4.2,7.1,6.2,10c2.1,3,7,8.5,7,8.5l-6.3,9.7c0,0-5.8-10.8-7.7-14.3c-2.1-4-2.4-7-2.4-7
			L82.3,53.9z"/>
		<path class="st3" d="M81.7,43.9c0,0,1,2.4,1.4,3c0.3,0.5,3.1,1.9,3.1,1.9l1.2-1.6l-0.2-10.1v-8c0,0-5.4,1.6-6.3,4.7
			S81.7,43.9,81.7,43.9z"/>
		<g>
			<path class="st5" d="M118.1,32.4c0,0,2.4-2.1,3.3-4.7c0.9-2.6,2.1-6.1-0.7-10.1c-2.8-4-11-13.9-20-13.9c-9,0-19.8,5.9-24.5,9.6
				c-4.7,3.7-8.4,10.8-9.9,13.9c-1.6,3.1,0.3,5.4,1,6.8c1.5,3.1,0.7,6.9,2.2,10c1.8,4,6.2,3.9,9.9,4.8c0.7,0.2,2.1-0.5,3.1-3.3
				c1-2.8,0.9-8,4-13.7C89.6,26,107.3,20.1,118.1,32.4z"/>
			<path class="st2" d="M68.1,34.7c0,0,0.6-11.6,6.7-19.4"/>
			<g>
				<path class="st6" d="M107.9,8.8c-2.5-1.7-4.5-2.9-7.7-3.5"/>
				<path class="st6" d="M118.3,21.6c0,0-3.3-8.2-8.4-11.4"/>
				<path class="st6" d="M99.5,8.6c-2.9-0.9-4.6-1.4-4.6-1.4"/>
				<path class="st6" d="M114.9,19.8c0,0-4.5-7.4-10.2-9.5c-0.9-0.3-1.7-0.6-2.4-0.9"/>
				<path class="st6" d="M108.6,20.1c0,0-2.1-4-7-6.2c-4.9-2.2-8.9-3.3-12-3.3"/>
				<path class="st6" d="M92.7,14.2c-1.3-0.4-2.1-0.6-2.1-0.6"/>
				<path class="st6" d="M104,20c0,0-4.2-3-7.4-4.3c-0.5-0.2-1-0.4-1.5-0.6"/>
				<path class="st6" d="M88.4,27.7c0,0-5.6-2.5-10.7-2.7"/>
			</g>
		</g>
		<g>
			<path class="st3" d="M112.7,21.5c0,0,6.3,1,6.6,5.4c0.3,4.3-0.3,11.8-1,13.9c-0.7,2.1,0,8.7,0.7,13.4c0.7,4.7-2.8,9.6-5.6,11.3
				c-2.8,1.7-7,2.6-12,1c-5-1.6-9.9-4.5-12-7.5c-2.1-3-1.9-3.5-2.3-4c-0.3-0.5-0.9-3.3-0.9-6.3c0-3,0-7.8,0-10.4
				c0-2.6,0.2-6.6,0.2-6.6S96.2,17.6,112.7,21.5z"/>
			<g>
				<path class="st4" d="M93.3,25.2c-0.3,2.3-1.1,6.5-3.2,7.5c-2.4,1.2-2.4,3-1.9,5.9c0.5,3,1,9.9,3.3,11.8c2.3,1.9,3.5,3.1,6.1,2.1
					c2.6-1,3.7-2.6,7.7-2.8c4-0.2,6.3-0.7,8,0.2c1.7,0.9,2.8,1.7,2.8,1.7s1.2-1.7,2.2-4.1c0.2,2.2,0.5,4.6,0.8,6.6
					c0.7,4.7-2.8,9.6-5.6,11.3c-2.8,1.7-7,2.6-12,1c-5-1.6-9.9-4.5-12-7.5c-2.1-3-1.9-3.5-2.3-4c-0.3-0.5-0.9-3.3-0.9-6.3
					c0-3,0-7.8,0-10.4s-1.8-2.6-1.8-2.6S85.2,31,93.3,25.2z"/>
				<path class="st4" d="M114.8,22.1c-0.8,1.3-3,4.1-6.6,4.1c-3.7,0-6.9-2.7-8.6-4.1c3.7-1.3,8.1-1.8,13.2-0.6
					C112.7,21.5,113.6,21.6,114.8,22.1z"/>
			</g>
			<path class="st2" d="M110.1,34.4l-0.9,3.1c0,0,0.9,5.6,1,7.8c0.2,2.3,1.6,4.5-2.4,4.5s-4.7-1.7-4.7-3"/>
			<path class="st7" d="M104.5,33.3c0,0-0.5-1-4-1c-3.5,0-5.7,2.3-5.7,2.3"/>
			<path class="st7" d="M112.4,33.7c0,0,2.6-1.6,5.4,0"/>
			<path class="st8" d="M112,52.7c-1.8,0.7-5.3,1.6-9.4-0.2"/>
			<ellipse class="st0" cx="99.6" cy="38.3" rx="1.1" ry="1.5"/>
			<ellipse class="st0" cx="113.1" cy="38.3" rx="1.1" ry="1.5"/>
			<path class="st2" d="M110.3,39.9c0,0,1.2,1.2,2.4,1.7"/>
			<path class="st2" d="M102.1,40.1c0,0-1.4,2.3-3.3,2.1"/>
		</g>
		<path class="st3" d="M104.6,75.4c0,0,2.4-1.4,3.7-2.7c1.4-1.4,1.7-3.3,2.9-1.6c1.2,1.7,0.6,3.1-1,4.2c-1.6,1.1-6.1,1.8-6.1,1.8
			S103,76.3,104.6,75.4z"/>
	</g>
	<g>
		<g>
			<path class="st3" d="M104.1,75.9c0,0,6.1-2.2,7.1-2.1c1,0.2,2.2,1,2.4,2.4c0.2,1.4-1,2.3-1,2.3s1,1.8,1,2.5s-0.2,1.5-0.2,1.5
				s1.3,1.3,1.3,2.2c0,1-1,2-1,2s0.4,1.4-0.2,2.6c-0.6,1.3-4.5,4.9-6.9,5.9c-2.3,1-6.4,2-6.4,2l-9.9,6.4l-5.7-9.8
				c0,0,6.6-4.7,7.6-5.9c1-1.2,3.2-4.9,3.9-7.3c0.7-2.3,7.6-4.8,7.6-4.8H104.1z"/>
			<line class="st2" x1="112.6" y1="78.5" x2="108.9" y2="80.6"/>
			<line class="st2" x1="113.4" y1="82.5" x2="109.7" y2="85.1"/>
			<line class="st2" x1="113.6" y1="86.7" x2="111.1" y2="88.7"/>
		</g>
		<g>
			<path class="st3" d="M116.8,95.2H128c0.7,0,1.4-0.6,1.5-1.3l2.6-21.4c0.1-0.9-0.6-1.6-1.5-1.6h-16.3c-0.9,0-1.6,0.8-1.5,1.6
				l2.6,21.4C115.5,94.7,116.1,95.2,116.8,95.2z"/>
			<g>
				<path class="st9" d="M129.7,69.5c0,0-1.7-1.2-1.5-3.6c0.2-2.3,2.8-2.2,2.8-4.8c0-2.6-1.3-2.6-2-5.3"/>
				<path class="st9" d="M123.3,69.4c0,0-0.9-0.7-0.9-2.7s1.6-1.7,1.9-3.9"/>
			</g>
		</g>
		<polygon class="st1" points="86.1,91.8 93.6,103.1 86.3,108.7 78.6,95.8 		"/>
		<path class="st1" d="M38.2,108.3c0,0-3.4,9.4-3.8,12.6c-0.4,3.3,2.5,10.3,4.4,13c1.9,2.7,13.4,0,21.8-4c8.4-4,24.3-14.7,25.7-16.3
			c1.3-1.5,0-5,0-5l-7.7-12.8c0,0-1.3-1.5-3.1-1.3c-1.7,0.2-27,11.5-27,11.5"/>
	</g>
	<path class="st1" d="M158.1,103.1c0,0,4.8,5,5.9,10.9c1.1,5.9-1.3,10.1-2.7,13c-1.3,2.9-2.3,4-4.4,4.2c-2.1,0.2-13.8-1.5-14.6-3.4
		s-3.3-6.3-2.9-11.3c0.4-5,6.3-10.7,11.5-10.3"/>
	<path class="st1" d="M157,131.3c0,0,1-4.8-6.1-7.1c-7.1-2.3-9.6-0.2-9.2,2.5C142,129.3,152.8,133.7,157,131.3z"/>
	<path class="st3" d="M141,127.1c0,0-2.1,2.3-4.1,2.3c-2.1,0-5.4,3.7-6.8,4.8c-1.4,1-4.8,1.2-3.7,3.9c1,2.7,5.2,1,7,0
		c1.9-1,2.9-3.1,4.3-3.1s2.9,0.4,6.8,1.4c3.9,1,8.7-0.6,6-3.7C147.9,129.6,141,127.1,141,127.1z"/>
	<g>
		<path class="st3" d="M155.7,131.1c0,0,2.9,0,3.5,2.6c0.6,2.6,0,6.1-2.5,7.1c-2.5,1-1.2-1.8-1.2-3.6c0-1.8,0-5,0-5L155.7,131.1z"/>
		<path class="st3" d="M151.6,127.8c0,0,4.8,1.4,4.8,4.1c0,2.7-1.4,8.3-3.5,8.7c-2.1,0.4-2.3-1.2-1.9-4.3
			C151.4,133.1,151.6,127.8,151.6,127.8z"/>
		<path class="st3" d="M146.6,125.9c0,0,3.3-2.1,4.6,0.6c1.2,2.7,0.6,9.3-0.6,11.2c-1.2,1.9-3.9,1.4-4.1-1.4
			C146.2,133.4,146.6,125.9,146.6,125.9z"/>
		<path class="st3" d="M140.4,126.4c0-1.3,0.8-2.6,2-3c0.5-0.2,1-0.3,1.7-0.1c2.7,0.4,3.1,2.3,2.7,3.9c-0.4,1.7,0.2,9.5-1.2,11
			c-1.4,1.4-3.9,0.6-4.6-0.8C140.5,136.1,140.4,129.2,140.4,126.4z"/>
	</g>
</g>
<line class="st2" x1="4.2" y1="140.7" x2="237.7" y2="140.7"/>
<g>
	<polygon class="st10" points="105,147.1 162.5,139.4 200.4,140.2 156.5,153.8 	"/>
	<polygon class="st2" points="149.6,141.7 157.1,142.3 141.1,144.7 131.5,144.4 	"/>
	<polyline class="st2" points="158.3,142.9 134.3,146.8 157.5,148.2 	"/>
	<polygon class="st11" points="211.2,93 200.4,140.2 156.5,153.8 168.4,95 	"/>
	<path class="st12" d="M166,107.1c6.1,5.8,13.1,15.4,21.1,25.1c4.7,5.6,9.5,7.3,13.6,7.3l-0.2,0.7l-44,13.7L166,107.1z"/>
	<path class="st3" d="M184,117.8c-0.6,2.6,0.3,5,1.9,5.4c1.7,0.4,3.5-1.4,4.1-4c0.6-2.6-0.3-5-1.9-5.4
		C186.4,113.4,184.6,115.2,184,117.8z"/>
	<polygon class="st13" points="156.5,153.8 105,149.5 105,147.1 157.4,150.1 	"/>
</g>
</svg>
