<?xml version="1.0" encoding="utf-8"?>
<!-- Generator: Adobe Illustrator 23.0.0, SVG Export Plug-In . SVG Version: 6.00 Build 0)  -->
<svg version="1.1" id="Layer_1" xmlns="http://www.w3.org/2000/svg" xmlns:xlink="http://www.w3.org/1999/xlink" x="0px" y="0px"
	 width="699px" height="494px" viewBox="0 0 699 494" style="enable-background:new 0 0 699 494;" xml:space="preserve">
<style type="text/css">
	.st0{fill:#EBEBEB;}
	.st1{fill:#F5F5F5;}
	.st2{fill:#E6E6E6;}
	.st3{fill:#E0E0E0;}
	.st4{fill:#F0F0F0;}
	.st5{fill:#FAFAFA;}
	.st6{fill:#FFFFFF;}
	.st7{fill:#90CAF9;}
	.st8{opacity:0.2;enable-background:new    ;}
	.st9{fill:#263238;}
	.st10{opacity:0.6;fill:#FFFFFF;enable-background:new    ;}
	.st11{opacity:0.7;fill:#FFFFFF;enable-background:new    ;}
	.st12{opacity:0.3;fill:#90CAF9;enable-background:new    ;}
	.st13{opacity:0.1;enable-background:new    ;}
	.st14{opacity:0.1;}
	.st15{opacity:0.2;fill:#FFFFFF;enable-background:new    ;}
	.st16{opacity:0.4;}
	.st17{opacity:0.4;fill:#FFFFFF;enable-background:new    ;}
	.st18{opacity:0.1;fill:#FFFFFF;enable-background:new    ;}
	.st19{opacity:0.3;fill:#FFFFFF;enable-background:new    ;}
	.st20{fill:#E4897B;}
	.st21{fill:#AA473D;}
	.st22{fill:#EBB376;}
	.st23{fill:#CAD4D8;}
	.st24{opacity:0.2;}
	.st25{fill:none;stroke:#000000;stroke-miterlimit:10;}
	.st26{fill:none;stroke:#263238;stroke-width:2;stroke-miterlimit:10;}
	.st27{fill:#90CAF9;stroke:#263238;stroke-miterlimit:10;}
	.st28{fill:none;stroke:#263238;stroke-width:0.5;stroke-miterlimit:10;}
	.st29{fill:#263238;stroke:#263238;stroke-miterlimit:10;}
</style>
<g id="freepik--background-complete--inject-1">
	<rect x="60" y="436.5" class="st0" width="639" height="0.3"/>
	<rect x="592.6" y="457" class="st0" width="42.3" height="0.3"/>
	<rect x="472.2" y="460.5" class="st0" width="11.1" height="0.3"/>
	<rect x="566.8" y="445.2" class="st0" width="24.5" height="0.3"/>
	<rect x="127" y="447.3" class="st0" width="55.2" height="0.3"/>
	<rect x="193.6" y="447.3" class="st0" width="8.1" height="0.3"/>
	<rect x="228" y="452.7" class="st0" width="119.7" height="0.3"/>
	<path class="st1" d="M464.5,308.7h153.6c0,5.6-4.4,10.3-10.1,10.5c-16.5,0.8-41.9,3.4-49.9,12.5c-15,17-13.6,76.8,4.4,90.6
		c5.6,4.3,22.1,13,22.1,13H498c0,0,15.3-8.8,20.7-13c17.9-14,18.4-73.7,3.3-90.6c-7.7-8.7-31.5-11.5-47.5-12.4
		C468.9,319.1,464.5,314.4,464.5,308.7z"/>
	<path class="st2" d="M599,319.8c-15.6,1.3-34.3,4.3-41,11.9c-2.2,2.6-3.9,5.6-5.1,8.8h-25.8c-1.2-3.2-2.9-6.2-5.1-8.8
		c-6.7-7.6-25.6-10.7-40.9-11.9H599z"/>
	<polygon class="st0" points="529.9,308.8 532,285 501.7,285 499.6,308.8 	"/>
	<polygon class="st3" points="529.9,308.8 532,285 533.6,285 531.5,308.8 	"/>
	<polygon class="st4" points="527,306.4 528.7,287.4 504.6,287.4 502.9,306.4 	"/>
	<polygon class="st5" points="525.2,304.8 526.6,289 506.5,289 505.1,304.8 	"/>
	<polygon class="st2" points="539.7,308.7 570.1,308.7 566.8,270.2 536.4,270.2 	"/>
	<polygon class="st3" points="539.7,308.7 538.3,308.7 534.9,270.2 536.4,270.2 	"/>
	<polygon class="st4" points="542.5,304.8 566.7,304.8 564,274.1 539.8,274.1 	"/>
	<polygon class="st5" points="544.3,302.3 564.5,302.3 562.2,276.7 542,276.7 	"/>
	<path class="st0" d="M554.5,288.2L554.5,288.2c-1.4,1.4-3.6,1.4-5,0l0,0l0,0c-1.4-1.4-1.4-3.6,0-5l0,0c1.4-1.4,3.6-1.4,5,0l0,0
		C555.8,284.6,555.8,286.8,554.5,288.2z"/>
	<path class="st4" d="M553,292.5L553,292.5c1-1,2.6-1,3.6,0l0,0l0,0c1,1,1,2.6,0.1,3.6c-0.5,0.5-1.2,0.8-1.9,0.8l0,0
		c-1.4,0-2.6-1.1-2.6-2.5C552.2,293.7,552.5,293,553,292.5z"/>
	<rect x="164.4" y="106.2" class="st3" width="143.4" height="158.6"/>
	<rect x="159.8" y="106.2" class="st4" width="148.7" height="158.6"/>
	<rect x="166.1" y="111.3" class="st6" width="136.4" height="146.2"/>
	<rect x="166.1" y="111.3" class="st3" width="3.9" height="146.2"/>
	<rect x="169.6" y="216.4" class="st3" width="133.2" height="3.9"/>
	<rect x="166.1" y="209.8" class="st4" width="138.5" height="6.6"/>
	<path class="st2" d="M543.5,133.4c0,0,1.3-8.4-4.9-13.8s-5.6-8.6-3.8-9s3.4,5,6.1,6.5c0,0,0.1-7.7-2.7-10.5s-4.2-10.1-1.6-10.2
		c2.6-0.1,2.9,4.3,3.4,7.5s3.5,7.7,3.5,7.7s0.6-6.9,2.3-9.7s-3-9.3-1.1-12.2c1.8-2.8,5.1,2.6,4.8,8.7s-4.3,12.6-3.4,18.9
		c0,0,1.8-4.5,3.4-4.9c1.6-0.4,3.2-3.3,4.3-4.4s2.4,2.7,0,6.2s-8.6,12.9-7.7,20.5L543.5,133.4z"/>
	<path class="st1" d="M539.9,129.5l-2,12.6c-0.6,3.5,1.8,6.8,5.3,7.4c0.4,0.1,0.8,0.1,1.1,0.1h2.1c3.5,0,6.4-2.8,6.5-6.3
		c0-0.4,0-0.8-0.1-1.1l-2.1-12.6L539.9,129.5L539.9,129.5z"/>
	<rect x="428" y="144.9" class="st2" width="142.4" height="7.3"/>
	<rect x="434.5" y="118" class="st4" width="6.3" height="27"/>
	<rect x="464.8" y="118" class="st4" width="6.3" height="27"/>
	
		<rect x="501.6" y="117.6" transform="matrix(0.9855 -0.1699 0.1699 0.9855 -14.9325 87.6627)" class="st4" width="6.3" height="27"/>
	<rect x="442.3" y="121.5" class="st4" width="6.3" height="23.4"/>
	<rect x="456.7" y="121.5" class="st4" width="6.3" height="23.4"/>
	<rect x="493.1" y="121.5" class="st4" width="6.3" height="23.4"/>
	
		<rect x="475.7" y="121.1" transform="matrix(0.9762 -0.217 0.217 0.9762 -17.4011 107.0738)" class="st4" width="6.3" height="23.4"/>
	<rect x="450.8" y="116.6" class="st4" width="3.1" height="28.3"/>
	<rect x="488.1" y="116.6" class="st4" width="3.1" height="28.3"/>
	<rect x="428" y="199.6" class="st2" width="142.4" height="7.3"/>
	<rect x="557.5" y="172.6" class="st4" width="6.3" height="27"/>
	<rect x="527.2" y="172.6" class="st4" width="6.3" height="27"/>
	
		<rect x="480.1" y="182.5" transform="matrix(0.1699 -0.9855 0.9855 0.1699 226.8041 640.5735)" class="st4" width="27" height="6.3"/>
	<rect x="549.7" y="176.1" class="st4" width="6.3" height="23.4"/>
	<rect x="535.3" y="176.1" class="st4" width="6.3" height="23.4"/>
	<rect x="498.9" y="176.1" class="st4" width="6.3" height="23.4"/>
	
		<rect x="507.8" y="184.2" transform="matrix(0.217 -0.9762 0.9762 0.217 223.8736 653.9007)" class="st4" width="23.4" height="6.3"/>
	<rect x="544.3" y="171.2" class="st4" width="3.1" height="28.3"/>
	<rect x="507" y="171.2" class="st4" width="3.1" height="28.3"/>
	<rect x="441.6" y="178.2" class="st1" width="30.6" height="21.1"/>
</g>
<g id="freepik--Shadow--inject-1">
	<ellipse id="freepik--path--inject-1" class="st1" cx="318.1" cy="479.7" rx="309.2" ry="14.5"/>
</g>
<g id="freepik--Plant--inject-1">
	<path class="st7" d="M484.9,447.8c0,0-6.4-13.8,0.9-27.4s9.3-16.8,4.7-19.6s-6.7,11-6.7,11c-2.3-6.2-2.5-12.9-0.7-19.3
		c3.2-9.9,5.2-25.9,0.8-27.6c-4.4-1.7-0.8,20-4.6,27.4c-1.9-5.2-3.2-10.6-3.7-16.2c-0.5-7.9,0.3-20.6-3.2-23.8
		c-3.5-3.2-5.7-1-2.3,16.5c2,10.4,3.2,21,3.4,31.6c0,0-7.5-22.9-12.6-23.6s-5,6.7-0.7,13.2c4.3,6.4,12.6,18,14,23.9
		c0,0-8.2-17.2-15.7-11.9s6.5,15.7,12.6,19.5c6.2,3.8,10.5,27.3,10.5,27.3L484.9,447.8z"/>
	<path class="st8" d="M484.9,447.8c0,0-6.4-13.8,0.9-27.4s9.3-16.8,4.7-19.6s-6.7,11-6.7,11c-2.3-6.2-2.5-12.9-0.7-19.3
		c3.2-9.9,5.2-25.9,0.8-27.6c-4.4-1.7-0.8,20-4.6,27.4c-1.9-5.2-3.2-10.6-3.7-16.2c-0.5-7.9,0.3-20.6-3.2-23.8
		c-3.5-3.2-5.7-1-2.3,16.5c2,10.4,3.2,21,3.4,31.6c0,0-7.5-22.9-12.6-23.6s-5,6.7-0.7,13.2c4.3,6.4,12.6,18,14,23.9
		c0,0-8.2-17.2-15.7-11.9s6.5,15.7,12.6,19.5c6.2,3.8,10.5,27.3,10.5,27.3L484.9,447.8z"/>
	<path class="st7" d="M479.9,453.4c0,0,6.2-13.9-1.3-27.4c-7.4-13.5-9.5-16.7-5-19.5c4.6-2.8,6.9,10.8,6.9,10.8
		c2.2-6.2,2.4-13,0.4-19.3c-3.3-9.8-5.5-25.8-1.2-27.6c4.4-1.8,1.1,20,5,27.3c1.9-5.2,3.1-10.7,3.5-16.2c0.4-7.9-0.5-20.5,2.9-23.8
		s5.7-1.1,2.5,16.4c-1.9,10.5-2.9,21.1-3,31.7c0,0,7.2-23,12.3-23.7c5-0.7,5.1,6.7,0.9,13.2s-12.4,18.1-13.7,24.1
		c0,0,8-17.4,15.5-12.2c7.5,5.2-6.3,15.8-12.4,19.6S483,454.3,483,454.3L479.9,453.4z"/>
	<polygon class="st9" points="508.3,443.5 457.4,443.5 461.5,480 504.2,480 	"/>
</g>
<g id="freepik--Window--inject-1">
	<path class="st8" d="M339.2,81.2h269.1c1.8,0,3.2,1.4,3.2,3.2v239c0,1.8-1.4,3.2-3.2,3.2H339.2c-1.8,0-3.2-1.4-3.2-3.2v-239
		C336,82.6,337.4,81.2,339.2,81.2z"/>
	<path class="st7" d="M328.8,76.7h269.1c1.8,0,3.2,1.4,3.2,3.2v239c0,1.8-1.4,3.2-3.2,3.2H328.8c-1.8,0-3.2-1.4-3.2-3.2v-239
		C325.6,78.1,327,76.7,328.8,76.7z"/>
	<path class="st10" d="M325.6,98.6v220.3c-0.1,1.6,1,3,2.6,3.2h270.2c1.6-0.2,2.8-1.6,2.6-3.2V98.6H325.6z"/>
	<rect x="328.9" y="111.5" class="st6" width="268.9" height="194.6"/>
	<ellipse class="st10" cx="592" cy="86.9" rx="4" ry="4.9"/>
	<ellipse class="st10" cx="578.8" cy="86.9" rx="4" ry="4.9"/>
	<path class="st10" d="M569.6,86.9c0,2.7-1.8,4.9-4,4.9s-4-2.2-4-4.9c0-2.7,1.8-4.9,4-4.9C567.8,82.1,569.6,84.2,569.6,86.9z"/>
	<polygon class="st7" points="386.2,134.2 386.2,184.4 373.3,200 344.7,200 344.7,134.2 	"/>
	<polygon class="st11" points="386.2,134.2 386.2,184.4 373.3,200 344.7,200 344.7,134.2 	"/>
	<polygon class="st12" points="386.2,184.4 373.3,200 373.3,184.4 	"/>
	<rect x="351.1" y="143.7" class="st12" width="28.6" height="1.9"/>
	<rect x="351.1" y="150.8" class="st12" width="28.6" height="1.9"/>
	<rect x="351.1" y="158" class="st12" width="28.6" height="1.9"/>
	<rect x="351.1" y="165.1" class="st12" width="28.6" height="1.9"/>
	<rect x="351.1" y="172.3" class="st12" width="21.2" height="1.9"/>
	<polygon class="st7" points="452,134.2 452,184.4 439.1,200 410.5,200 410.5,134.2 	"/>
	<polygon class="st11" points="452,134.2 452,184.4 439.1,200 410.5,200 410.5,134.2 	"/>
	<polygon class="st12" points="452,184.4 439.1,200 439.1,184.4 	"/>
	<rect x="416.9" y="143.7" class="st12" width="28.6" height="1.9"/>
	<rect x="416.9" y="150.8" class="st12" width="28.6" height="1.9"/>
	<rect x="416.9" y="158" class="st12" width="28.6" height="1.9"/>
	<rect x="416.9" y="165.1" class="st12" width="28.6" height="1.9"/>
	<rect x="416.9" y="172.3" class="st12" width="21.2" height="1.9"/>
	<polygon class="st7" points="517.8,134.2 517.8,184.4 504.9,200 476.3,200 476.3,134.2 	"/>
	<polygon class="st11" points="517.8,134.2 517.8,184.4 504.9,200 476.3,200 476.3,134.2 	"/>
	<polygon class="st12" points="517.8,184.4 504.9,200 504.9,184.4 	"/>
	<rect x="482.7" y="143.7" class="st12" width="28.6" height="1.9"/>
	<rect x="482.7" y="150.8" class="st12" width="28.6" height="1.9"/>
	<rect x="482.7" y="158" class="st12" width="28.6" height="1.9"/>
	<rect x="482.7" y="165.1" class="st12" width="28.6" height="1.9"/>
	<rect x="482.7" y="172.3" class="st12" width="21.2" height="1.9"/>
	<polygon class="st7" points="583.6,134.2 583.6,184.4 570.7,200 542.1,200 542.1,134.2 	"/>
	<polygon class="st11" points="583.6,134.2 583.6,184.4 570.7,200 542.1,200 542.1,134.2 	"/>
	<polygon class="st12" points="583.6,184.4 570.7,200 570.7,184.4 	"/>
	<rect x="548.5" y="143.7" class="st12" width="28.6" height="1.9"/>
	<rect x="548.5" y="150.8" class="st12" width="28.6" height="1.9"/>
	<rect x="548.5" y="158" class="st12" width="28.6" height="1.9"/>
	<rect x="548.5" y="165.1" class="st12" width="28.6" height="1.9"/>
	<rect x="548.5" y="172.3" class="st12" width="21.2" height="1.9"/>
	<polygon class="st7" points="386.2,221.1 386.2,271.3 373.3,286.9 344.7,286.9 344.7,221.1 	"/>
	<polygon class="st11" points="386.2,221.1 386.2,271.3 373.3,286.9 344.7,286.9 344.7,221.1 	"/>
	<polygon class="st12" points="386.2,271.3 373.3,286.9 373.3,271.3 	"/>
	<rect x="351.1" y="230.6" class="st12" width="28.6" height="1.9"/>
	<rect x="351.1" y="237.7" class="st12" width="28.6" height="1.9"/>
	<rect x="351.1" y="244.9" class="st12" width="28.6" height="1.9"/>
	<rect x="351.1" y="252" class="st12" width="28.6" height="1.9"/>
	<rect x="351.1" y="259.2" class="st12" width="21.2" height="1.9"/>
	<polygon class="st7" points="452,221.1 452,271.3 439.1,286.9 410.5,286.9 410.5,221.1 	"/>
	<polygon class="st11" points="452,221.1 452,271.3 439.1,286.9 410.5,286.9 410.5,221.1 	"/>
	<polygon class="st12" points="452,271.3 439.1,286.9 439.1,271.3 	"/>
	<rect x="416.9" y="230.6" class="st12" width="28.6" height="1.9"/>
	<rect x="416.9" y="237.7" class="st12" width="28.6" height="1.9"/>
	<rect x="416.9" y="244.9" class="st12" width="28.6" height="1.9"/>
	<rect x="416.9" y="252" class="st12" width="28.6" height="1.9"/>
	<rect x="416.9" y="259.2" class="st12" width="21.2" height="1.9"/>
	<polygon class="st7" points="517.8,221.1 517.8,271.3 504.9,286.9 476.3,286.9 476.3,221.1 	"/>
	<polygon class="st11" points="517.8,221.1 517.8,271.3 504.9,286.9 476.3,286.9 476.3,221.1 	"/>
	<polygon class="st12" points="517.8,271.3 504.9,286.9 504.9,271.3 	"/>
	<rect x="482.7" y="230.6" class="st12" width="28.6" height="1.9"/>
	<rect x="482.7" y="237.7" class="st12" width="28.6" height="1.9"/>
	<rect x="482.7" y="244.9" class="st12" width="28.6" height="1.9"/>
	<rect x="482.7" y="252" class="st12" width="28.6" height="1.9"/>
	<rect x="482.7" y="259.2" class="st12" width="21.2" height="1.9"/>
	<polygon class="st7" points="583.6,221.1 583.6,271.3 570.7,286.9 542.1,286.9 542.1,221.1 	"/>
	<polygon class="st11" points="583.6,221.1 583.6,271.3 570.7,286.9 542.1,286.9 542.1,221.1 	"/>
	<polygon class="st12" points="583.6,271.3 570.7,286.9 570.7,271.3 	"/>
	<rect x="548.5" y="230.6" class="st12" width="28.6" height="1.9"/>
	<rect x="548.5" y="237.7" class="st12" width="28.6" height="1.9"/>
	<rect x="548.5" y="244.9" class="st12" width="28.6" height="1.9"/>
	<rect x="548.5" y="252" class="st12" width="28.6" height="1.9"/>
	<rect x="548.5" y="259.2" class="st12" width="21.2" height="1.9"/>
</g>
<g id="freepik--Padlock--inject-1">
	<path class="st13" d="M415.4,179.5h66.2c3.1,0,5.6,2.5,5.6,5.6v49.6c0,3.1-2.5,5.6-5.6,5.6h-66.2c-3.1,0-5.6-2.5-5.6-5.6v-49.6
		C409.9,182,412.3,179.5,415.4,179.5z"/>
	<g class="st14">
		<path d="M476.9,176.7h-7.7v-8.3c0-10.9-8.8-19.8-19.8-19.8c-10.9,0-19.8,8.8-19.8,19.8v8.3h-7.7v-8.3c0-15.1,12.3-27.4,27.4-27.4
			s27.4,12.3,27.4,27.4v8.3H476.9z"/>
	</g>
	<path class="st9" d="M383.5,177h66.2c3.1,0,5.6,2.5,5.6,5.6v49.6c0,3.1-2.5,5.6-5.6,5.6h-66.2c-3.1,0-5.6-2.5-5.6-5.6v-49.6
		C377.9,179.5,380.4,177,383.5,177z"/>
	<path class="st15" d="M383.5,177h52.2c3.1,0,5.6,2.5,5.6,5.6v49.6c0,3.1-2.5,5.6-5.6,5.6h-52.2c-3.1,0-5.6-2.5-5.6-5.6v-49.6
		C377.9,179.5,380.4,177,383.5,177z"/>
	<path class="st9" d="M413.5,199.8c0-4.2-2.6-7.6-5.7-7.6s-5.7,3.4-5.7,7.6c-0.2,2.8,1.2,5.5,3.6,7l-1.1,15.8h6.4l-1-15.8
		C412.3,205.3,413.6,202.6,413.5,199.8z"/>
	<path class="st9" d="M445,174.2h-7.7v-8.3c0-10.9-8.8-19.8-19.8-19.8c-10.9,0-19.8,8.8-19.8,19.8v8.3H390v-8.3
		c0-15.1,12.3-27.4,27.4-27.4s27.4,12.3,27.4,27.4v8.3H445z"/>
	<g class="st16">
		<path class="st6" d="M445,174.2h-7.7v-8.3c0-10.9-8.8-19.8-19.8-19.8c-10.9,0-19.8,8.8-19.8,19.8v8.3H390v-8.3
			c0-15.1,12.3-27.4,27.4-27.4s27.4,12.3,27.4,27.4v8.3H445z"/>
	</g>
	<path class="st15" d="M445,165.9v8.3h-5.2V165c0-13.8-11.2-25-25-25l0,0c-5,0-9.9,1.5-14.1,4.4c11.9-9.3,29.1-7.3,38.5,4.7
		C442.9,153.8,445,159.7,445,165.9L445,165.9z"/>
</g>
<g id="freepik--Desk--inject-1">
	<path class="st7" d="M336.6,312.8h-31v-1.2h7c1,0,1.8-0.7,2-1.7l3.1-18.6l0.6-3.7h10.6l9.5,22.4c0.4,1,0,2.2-1,2.6
		C337.1,312.8,336.9,312.8,336.6,312.8z"/>
	<path class="st17" d="M336.6,312.8h-31v-1.2h7c1,0,1.8-0.7,2-1.7l3.1-18.6l0.6-3.7h10.6l9.5,22.4c0.4,1,0,2.2-1,2.6
		C337.1,312.8,336.9,312.8,336.6,312.8z"/>
	<path class="st8" d="M336.6,311.6h-24c1,0,1.8-0.7,2-1.7l3.1-18.6h11.1l8.5,19.3c0.2,0.4,0,0.8-0.4,0.9
		C336.8,311.6,336.7,311.6,336.6,311.6z"/>
	<path class="st7" d="M353.3,294.5h-62c-0.5,0-0.9-0.4-0.9-0.9c0-0.1,0-0.2,0-0.3l8.8-46.6c0.1-0.6,0.7-1.1,1.3-1.1h62
		c0.5,0,0.9,0.4,0.9,0.9c0,0.1,0,0.2,0,0.3l-8.8,46.6C354.4,294,353.9,294.5,353.3,294.5z"/>
	<path class="st17" d="M353.3,294.5h-62c-0.5,0-0.9-0.4-0.9-0.9c0-0.1,0-0.2,0-0.3l8.8-46.6c0.1-0.6,0.7-1.1,1.3-1.1h62
		c0.5,0,0.9,0.4,0.9,0.9c0,0.1,0,0.2,0,0.3l-8.8,46.6C354.4,294,353.9,294.5,353.3,294.5z"/>
	<path class="st9" d="M352,294.5h-62c-0.5,0-0.9-0.4-0.9-0.9c0-0.1,0-0.2,0-0.3l8.8-46.6c0.1-0.6,0.7-1.1,1.3-1.1h62
		c0.5,0,0.9,0.4,0.9,0.9c0,0.1,0,0.2,0,0.3l-8.8,46.6C353.1,294,352.6,294.5,352,294.5z"/>
	<polygon class="st7" points="351.2,291.7 291.9,291.7 300.1,248.6 359.3,248.6 	"/>
	<path class="st7" d="M247.9,312.8v-1.5l23.8-4.8h46.7c1.7,0,3.1,1.4,3.1,3.1l0,0l0,0c0,1.7-1.4,3.1-3.1,3.1L247.9,312.8
		L247.9,312.8z"/>
	<path class="st17" d="M321.5,309.7c0,0.8-0.3,1.6-0.9,2.2s-1.4,0.9-2.2,0.9h-70.5v-1.4l23.9-4.8h46.6
		C320.1,306.5,321.5,307.9,321.5,309.7L321.5,309.7z"/>
	<path class="st17" d="M321.5,309.7c0,0.8-0.3,1.6-0.9,2.2s-1.4,0.9-2.2,0.9h-28.3v-1.4l23.9-4.8h4.5
		C320.1,306.5,321.5,307.9,321.5,309.7L321.5,309.7z"/>
	<polygon class="st9" points="338.6,480 345,480 356.4,320.3 348,320.3 	"/>
	<polygon class="st18" points="338.6,480 345,480 355.9,328.2 356.4,320.5 348,320.5 347.5,328.2 	"/>
	<polygon class="st8" points="347.5,327.8 355.9,327.8 356.4,320.5 348,320.5 	"/>
	<polygon class="st9" points="291.7,480 298.1,480 299.2,320.3 290.7,320.3 	"/>
	<polygon class="st18" points="290.7,320.5 290.9,346.3 291.7,480 298.1,480 299,346.3 299.2,320.5 	"/>
	<polygon class="st8" points="290.7,320.5 290.9,346.6 299,346.6 299.2,320.5 	"/>
	<polygon class="st9" points="224,480 230.3,480 241.8,320.3 233.3,320.3 	"/>
	<polygon class="st18" points="224,480 230.3,480 241.3,328.2 241.8,320.5 233.3,320.5 232.9,328.2 	"/>
	<polygon class="st8" points="232.9,327.8 241.3,327.8 241.8,320.5 233.3,320.5 	"/>
	<polygon class="st9" points="411.6,480 418,480 408.6,320.3 400.1,320.3 	"/>
	<polygon class="st18" points="400.1,320.5 400.7,328.2 411.6,480 418,480 409.1,328.2 408.6,320.5 	"/>
	<polygon class="st8" points="408.6,320.5 400.1,320.5 400.7,327.8 409.1,327.8 	"/>
	<path class="st7" d="M412.6,324.3H229.4c-1.5,0-2.8-1.2-2.8-2.8l0,0v-5.2l0,0h188.7l0,0v5.2C415.3,323,414.1,324.3,412.6,324.3
		L412.6,324.3z"/>
	<path class="st17" d="M412.6,324.3H229.4c-1.5,0-2.8-1.2-2.8-2.8l0,0v-5.2l0,0h188.7l0,0v5.2C415.3,323,414.1,324.3,412.6,324.3
		L412.6,324.3z"/>
	<rect x="226.6" y="316.3" class="st8" width="188.7" height="4"/>
	<path class="st7" d="M222.7,317.3h196.6c1.2,0,2.2-1,2.2-2.2l0,0l0,0c0-1.2-1-2.2-2.2-2.2l0,0H222.7c-1.2,0-2.2,1-2.2,2.2l0,0l0,0
		C220.4,316.3,221.4,317.3,222.7,317.3L222.7,317.3z"/>
	<path class="st17" d="M222.7,317.3h196.6c1.2,0,2.2-1,2.2-2.2l0,0l0,0c0-1.2-1-2.2-2.2-2.2l0,0H222.7c-1.2,0-2.2,1-2.2,2.2l0,0l0,0
		C220.4,316.3,221.4,317.3,222.7,317.3L222.7,317.3z"/>
	<path class="st19" d="M303.3,272.7c-1.1,0-1.9-0.9-1.9-1.9c0-0.1,0-0.2,0-0.3l0.8-4.1c0.2-1.1,1.2-2,2.4-2h33.2
		c0.6,0,1.1,0.3,1.5,0.7c0.4,0.4,0.5,1,0.4,1.6l-0.8,4.1c-0.2,1.1-1.2,2-2.4,2h-33.2V272.7z"/>
	<path class="st6" d="M336.6,272.1h-33.2c-0.7,0-1.3-0.6-1.3-1.3c0-0.1,0-0.2,0-0.3l0.8-4.1c0.2-0.8,0.9-1.5,1.8-1.5h33.2
		c0.7,0,1.3,0.6,1.3,1.3c0,0.1,0,0.2,0,0.3l-0.8,4.1C338.2,271.5,337.5,272.1,336.6,272.1z"/>
	
		<ellipse transform="matrix(0.5731 -0.8195 0.8195 0.5731 -88.7699 366.7738)" class="st9" cx="307.6" cy="268.6" rx="2.1" ry="1.6"/>
	<path class="st9" d="M314.6,268.6c-0.2,1-1.1,1.8-2.1,1.9c-0.8,0-1.5-0.7-1.4-1.5c0-0.1,0-0.3,0.1-0.4c0.2-1,1.1-1.8,2.1-1.9
		c0.8,0,1.5,0.7,1.4,1.5C314.7,268.3,314.6,268.4,314.6,268.6z"/>
	<path class="st9" d="M319.8,268.6c-0.2,1-1.1,1.8-2.1,1.9c-0.8,0-1.5-0.7-1.4-1.5c0-0.1,0-0.3,0.1-0.4c0.2-1,1.1-1.8,2.1-1.9
		c0.8,0,1.5,0.7,1.4,1.5C319.8,268.3,319.8,268.4,319.8,268.6z"/>
	
		<ellipse transform="matrix(0.5731 -0.8195 0.8195 0.5731 -82.1007 379.5578)" class="st9" cx="323.2" cy="268.6" rx="2.1" ry="1.6"/>
	<path class="st9" d="M330.2,268.6c-0.2,1-1.1,1.8-2.1,1.9c-0.8,0-1.5-0.7-1.4-1.5c0-0.1,0-0.3,0.1-0.4c0.2-1,1.1-1.8,2.1-1.9
		c0.8,0,1.5,0.7,1.4,1.5C330.2,268.3,330.2,268.4,330.2,268.6z"/>
	
		<ellipse transform="matrix(0.5731 -0.8195 0.8195 0.5731 -77.6664 388.0576)" class="st9" cx="333.6" cy="268.6" rx="2.1" ry="1.6"/>
	<path class="st19" d="M341.2,272.7c-0.4,0-0.8-0.2-1.1-0.5c-0.3-0.4-0.4-0.8-0.3-1.3l1-5.1c0.2-0.9,0.9-1.5,1.8-1.5h5.1
		c0.4,0,0.8,0.2,1.1,0.5c0.3,0.4,0.4,0.8,0.3,1.3l-1,5.1c-0.2,0.9-0.9,1.5-1.8,1.5H341.2z"/>
	<path class="st9" d="M341.2,272.1h5.1c0.6,0,1-0.4,1.2-1l1-5.1c0.1-0.4-0.1-0.9-0.6-1c-0.1,0-0.2,0-0.2,0h-5.1
		c-0.6,0-1.1,0.4-1.2,1l-1,5.1c-0.1,0.4,0.2,0.9,0.6,1C341.1,272.1,341.2,272.1,341.2,272.1z"/>
	<path class="st7" d="M343.8,270.8c-0.1,0-0.2,0-0.2-0.1c-0.1-0.2-0.1-0.4,0.1-0.5l2-1.7l-1.4-1.7c-0.1-0.2-0.1-0.4,0.1-0.5
		c0.1-0.1,0.3-0.1,0.4,0l1.5,1.9c0.1,0.2,0.1,0.4-0.1,0.5l-2.3,1.9C344,270.8,343.9,270.8,343.8,270.8z"/>
	<path class="st7" d="M346.1,268.9h-3.5c-0.1,0-0.3-0.1-0.3-0.2c0,0,0,0,0-0.1c0-0.2,0.2-0.3,0.4-0.3h3.4c0.1,0,0.3,0.1,0.3,0.2
		c0,0,0,0,0,0.1C346.5,268.7,346.3,268.9,346.1,268.9z"/>
</g>
<g id="freepik--speech-bubble--inject-1">
	<path class="st7" d="M625.2,62h-27.6c-2.9,0-5.3-2.4-5.3-5.3V29.1c0-2.9,2.4-5.3,5.3-5.3h27.6c2.9,0,5.3,2.4,5.3,5.3v27.6
		C630.5,59.6,628.1,62,625.2,62z"/>
	<polygon class="st7" points="608.5,60.5 611.5,73.3 614.4,60.5 	"/>
	<path class="st19" d="M611.1,54.3c-6.6-3.9-10.7-10.9-11-18.6v-0.4l11.3-4.8l11.3,4.8v0.4c-0.3,7.7-4.4,14.7-11,18.6l-0.3,0.2
		L611.1,54.3z"/>
	<path class="st10" d="M611.5,31.2l10.7,4.5c-0.2,7.4-4.3,14.3-10.7,18V31.2z"/>
	<path class="st17" d="M611.5,31.2l-10.7,4.5c0.2,7.5,4.3,14.3,10.7,18V31.2z"/>
</g>
<g id="freepik--Character--inject-1">
	<g id="freepik--group--inject-1">
		<path class="st20" d="M237.6,304.5l8.9,1.3c2-0.6,4.1-1.1,6.2-1.3c2.3-0.2,4.6-0.2,6.9,0c0,0,4.1,1.5,4.1,5.4c0,0-9.4,2.6-13.1,1
			l-13.1-1v-5.4H237.6z"/>
		<path class="st8" d="M237.6,304.5l8.9,1.3c2-0.6,4.1-1.1,6.2-1.3c2.3-0.2,4.6-0.2,6.9,0c0,0,4.1,1.5,4.1,5.4c0,0-9.4,2.6-13.1,1
			l-13.1-1v-5.4H237.6z"/>
		<path class="st21" d="M259.8,244.1c0.1,1.8,0.5,3.7,1.1,5.4c-1,0.6-2.2,0.6-3.1,0L259.8,244.1z"/>
		<path class="st9" d="M263.3,241.5c-0.3,0.8-1,1.4-1.4,1.2s-0.5-1-0.1-1.8c0.3-0.8,1-1.4,1.4-1.2
			C263.5,239.9,263.6,240.7,263.3,241.5z"/>
		<path class="st9" d="M265.4,238.6c-0.1,0-0.2,0-0.2,0c-1.4-0.8-3-0.9-4.5-0.4c-0.2,0.1-0.5,0-0.6-0.2s0-0.5,0.2-0.6
			c1.8-0.7,3.8-0.6,5.4,0.4c0.2,0.1,0.3,0.4,0.2,0.6l0,0C265.7,238.6,265.5,238.7,265.4,238.6z"/>
		<path class="st20" d="M257.3,251c-0.3,0.4-0.6,0.7-0.9,1c-1.8,1.9-4.1,3.1-6.6,3.6c-0.6,0.1-1.3,0.2-1.9,0.3
			c-3.5,0.2-6.9-1.1-9.2-3.7c-1.1-1.1-1.9-2.5-2.4-4c-2.3-6.1,0-11,3.3-19.5c2.4-6.5,9.6-9.8,16-7.4c1.8,0.7,3.4,1.7,4.8,3.1
			C266.9,231.6,262.4,244.4,257.3,251z"/>
		<path class="st8" d="M249.7,255.7c-0.6,0.1-1.3,0.2-1.9,0.3c-3.5,0.2-6.9-1.1-9.2-3.7c0.8-0.8,1.7-1.5,2.7-2.1
			C244.6,251.1,247.5,253,249.7,255.7z"/>
		<path class="st20" d="M222.2,256c0.8,6,13.9,8.2,13.9,8.2s6.4,2.9,6.7,0.4c-2.7-3.1-3-5.8-2-8.2c0.6-1.4,1.5-2.7,2.6-3.8
			c0.6-0.6,1.2-1.2,1.9-1.8l-4-16.4C238.4,240.7,228.7,255.1,222.2,256z"/>
		<path class="st9" d="M259.5,220c0,0,2.8-0.3,4.9,4.9c1.8,4.4-2.5,5.3-2.3,10s-4.1,7.3-4.1,7.3s-3.6,3.1-6.6,1.4c0,0-4,2-5,5.4
			s-7.2-2.7-12.8-1.8c0,0-3.8-3.5-3.5-12.1c0.2-3.7,1.1-7.3,2.7-10.7c1.5-3.6,4.4-6.5,8-7.9C247.2,213.5,258.3,215.7,259.5,220z"/>
		<path class="st20" d="M250.7,241c-0.4,1.7,0,3.5,1.1,4.9c1.4,1.5,3.5-0.4,4.4-3c0.8-2.3,1-5.9-1-6.4S251.1,238.5,250.7,241z"/>
		<path class="st9" d="M252.1,260.9c-1.8,5.1-3.5,10-4.9,14.7c-0.9,2.9-1.8,5.8-2.6,8.5c-0.6,2.3-1.3,4.5-1.8,6.7
			c-0.3,1-0.5,2.1-0.8,3.1c-1.4,5.6-2.6,10.8-3.4,15.3c-1.5,7.1-2.6,14.3-3.3,21.6l-50.1-6.3c1.7-8.6,3.1-16.1,5-24.3
			c1-4.4,2.2-9.1,3.8-14.1c1.1-3.6,2.3-7.5,3.8-11.7c5-14.4,9.7-18.4,9.7-18.4C226.7,252.9,252.1,260.9,252.1,260.9z"/>
		<path class="st20" d="M268.8,305.4l8.9,1.3c2-0.6,4.1-1.1,6.2-1.3c2.3-0.2,4.6-0.2,6.9,0c0,0,4,1.5,4,5.4c0,0-9.4,2.6-13.1,1
			l-13.1-1L268.8,305.4z"/>
		<polygon class="st22" points="213.4,470.6 222.8,470.8 227.4,449.2 218.1,449.1 		"/>
		<polygon class="st8" points="218.1,449.1 227.4,449.3 224.8,461.6 215.5,461 		"/>
		<path class="st7" d="M243.4,417.9c-3.6,13.7-8.1,27.1-13.6,40.2l-17-1.3c0,0,7-27.3,9.5-52.3c1.6-15.4,1.4-28.2-3.1-29.2
			c-2.8-0.6-9.5-0.6-18-0.4V343c23.9,4.9,47.8,14.2,49.6,21.6C253.3,375.1,248.9,397.3,243.4,417.9z"/>
		<polygon class="st7" points="211,457.6 231.3,458.9 234.3,450.1 211.9,449.1 		"/>
		<polygon class="st15" points="211,457.6 231.3,458.9 234.3,450.1 211.9,449.1 		"/>
		<path class="st7" d="M224.2,470.3h0.2l0.2,0.1l0,0h0.1c0.8,0.2,1.6,0.4,2.4,0.5c0.6,0.1,1.2,0,1.8-0.3c0.3-0.3,0.5-0.8,0.3-1.2
			c0-0.3-0.2-0.5-0.5-0.7c-0.9-0.1-1.8,0-2.6,0.5c0.5-0.6,0.9-1.3,0.9-2.1c-0.1-0.4-0.4-0.7-0.8-0.7c-0.4-0.1-0.7,0-1,0.2
			c-1,0.8-1.1,3.5-1.1,3.6l0,0L224.2,470.3z M225.2,469.8l-0.2,0.1c-0.1-1,0.2-2,0.8-2.8c0.1-0.1,0.3-0.2,0.5-0.2h0.1
			c0.3,0,0.4,0.2,0.4,0.3C226.5,468.2,226,469.1,225.2,469.8z M225.3,470.2c1.1-0.6,2.7-1.3,3.3-1c0.1,0.1,0.2,0.2,0.2,0.3
			c0.1,0.3,0,0.6-0.2,0.8C228.2,470.7,227,470.7,225.3,470.2L225.3,470.2z"/>
		<path class="st9" d="M224,469.2l-10.5-0.7c-0.4,0-0.7,0.2-0.7,0.6l0,0l-1,8.2c-0.1,0.9,0.6,1.7,1.5,1.8c3.7,0.2,5.4,0.1,10,0.3
			c4.1,0.4,8.2,0.5,12.3,0.4c3.8-0.4,3.4-4.2,1.7-4.4c-4-0.5-9.3-3.4-11.8-5.6C225.1,469.4,224.5,469.2,224,469.2z"/>
		<path class="st8" d="M243.4,417.9c-6.4-4-13.8-8.8-21.1-13.5c1.6-15.4,1.4-28.2-3.1-29.2c-2.8-0.6-9.5-0.6-18-0.4V343
			c23.9,4.9,47.8,14.2,49.6,21.6C253.3,375.1,248.9,397.3,243.4,417.9z"/>
		<polygon class="st22" points="268,470.6 277.4,470.8 282,449.2 272.7,449.1 		"/>
		<polygon class="st8" points="272.7,449.1 282,449.3 279.4,461.6 270.1,461 		"/>
		<path class="st7" d="M234.1,339.9l1.5-12.1l-48.8-8c0,0-16,31.6-8.2,47.2c7.2,14.2,83.4,5.7,95.1,8.3c11.7,2.6-6.4,81.5-6.4,81.5
			l17,1.3c0,0,26.3-71.1,20.9-93.4C303,354.9,262.8,342,234.1,339.9z"/>
		<polygon class="st7" points="265.6,457.6 285.9,458.9 288.9,450.1 266.5,449.1 		"/>
		<polygon class="st15" points="265.6,457.6 285.9,458.9 288.9,450.1 266.5,449.1 		"/>
		<path class="st7" d="M278.8,470.3h0.2l0.2,0.1l0,0h0.1c0.8,0.2,1.6,0.4,2.4,0.5c0.6,0.1,1.2,0,1.8-0.3c0.3-0.3,0.5-0.8,0.3-1.2
			c0-0.3-0.2-0.5-0.5-0.7c-0.9-0.1-1.8,0-2.6,0.5c0.5-0.6,0.9-1.3,0.9-2.1c-0.1-0.4-0.4-0.7-0.8-0.7c-0.4-0.1-0.7,0-1,0.2
			c-1,0.8-1.1,3.5-1.1,3.6l0,0L278.8,470.3z M279.8,469.8l-0.2,0.1c-0.1-1,0.2-2,0.8-2.8c0.1-0.1,0.3-0.2,0.5-0.2h0.1
			c0.3,0,0.4,0.2,0.4,0.3C281.2,468.2,280.6,469.1,279.8,469.8L279.8,469.8z M279.9,470.2c1.1-0.6,2.7-1.3,3.3-1
			c0.1,0.1,0.2,0.2,0.2,0.3c0.1,0.3,0,0.6-0.2,0.8C282.8,470.7,281.6,470.7,279.9,470.2L279.9,470.2z"/>
		<path class="st9" d="M278.6,469.2l-10.5-0.7c-0.4,0-0.7,0.2-0.7,0.6l0,0l-1,8.2c-0.1,0.9,0.6,1.7,1.5,1.8c3.7,0.2,5.4,0.1,10,0.3
			c4.1,0.4,8.2,0.5,12.3,0.4c3.9-0.4,3.4-4.2,1.7-4.4c-4-0.5-9.3-3.4-11.8-5.6C279.7,469.4,279.1,469.2,278.6,469.2z"/>
		<polygon points="185.1,325.3 207.6,328.3 208.4,324.9 185.7,321.6 		"/>
		<polygon points="210.3,324.9 210,328.3 230.9,331.1 230.9,327.8 		"/>
		<polygon points="232.2,328 232.2,331.1 235.2,331.5 235.2,328.5 		"/>
		<path class="st8" d="M247.2,275.6c-0.9,2.9-1.8,5.8-2.6,8.5c-0.6,2.3-1.3,4.5-1.8,6.7c-1.6-8.6,1.3-18.8,1.3-18.8L247.2,275.6z"/>
		<path class="st20" d="M252.1,260.9c4.1,0.8,5.4,32.5,5.6,35.9s20,9.9,20,9.9v4.6c0,0-21.3-1.5-26.2-3.5c-5-2-6.2-31.4-6.2-31.4
			L252.1,260.9z"/>
		<path class="st9" d="M252.1,260.9c3.7,1.2,5.6,22.1,5.6,22.1l-11.6,4.8l-2.9-11.6c0,0-0.8-2.4,0.8-7.3
			C246.4,261.5,252.1,260.9,252.1,260.9z"/>
	</g>
	<path class="st7" d="M165.8,365.1h92.3c5.6,0,10.1,4.5,10.1,10.1l0,0v5.4l0,0H155.6l0,0v-5.4C155.6,369.6,160.2,365.1,165.8,365.1
		L165.8,365.1z"/>
	<path class="st9" d="M195.8,326.6h62c2.7,0,5,2.2,5,5c0,0.4,0,0.8-0.1,1.1l-11.1,47.9H249l9.4-41.9c0.6-2.7-1.1-5.3-3.7-5.9
		c-0.4-0.1-0.7-0.1-1.1-0.1H197L195.8,326.6z"/>
	<path class="st9" d="M219.2,382.3v40.4c0,1.3-1.1,2.4-2.4,2.4h-10c-1.3,0-2.4-1.1-2.4-2.4v-40.4H219.2z"/>
	<path class="st9" d="M164.5,475.7c0-2.4-1.9-4.3-4.3-4.3c-2.4,0-4.3,1.9-4.3,4.3s1.9,4.3,4.3,4.3l0,0
		C162.6,480,164.5,478,164.5,475.7z"/>
	<path class="st15" d="M162.3,475.7c0-1.2-1-2.1-2.1-2.1c-1.2,0-2.1,1-2.1,2.1c0,1.2,1,2.1,2.1,2.1l0,0
		C161.4,477.8,162.3,476.8,162.3,475.7z"/>
	<path class="st9" d="M267.9,475.7c0-2.4-1.9-4.3-4.3-4.3s-4.3,1.9-4.3,4.3s1.9,4.3,4.3,4.3l0,0C266,480,267.9,478,267.9,475.7z"/>
	<path class="st15" d="M265.8,475.7c0-1.2-1-2.1-2.1-2.1c-1.2,0-2.1,1-2.1,2.1c0,1.2,1,2.1,2.1,2.1l0,0
		C264.8,477.8,265.8,476.8,265.8,475.7z"/>
	<path class="st9" d="M215.5,456.8v-46.2h-7.1v46.2c-27.7,0.7-44.5,10.4-47.9,12.5c-0.4,0.2-0.6,0.7-0.6,1.2v3.8
		c0,0.7,0.6,1.4,1.3,1.4l0,0l0,0c0.5,0,0.9-0.3,1.2-0.7l1.6-2.9c14.3-4.6,29.3-7,44.3-7.3v7.7c0,1,0.8,1.8,1.8,1.8l0,0h3.6
		c1,0,1.8-0.8,1.8-1.8v-7.7c15.1,0.3,30,2.8,44.3,7.3l1.6,2.9c0.2,0.4,0.7,0.7,1.2,0.7l0,0c0.8,0,1.4-0.6,1.4-1.4v-3.8
		c0-0.5-0.2-0.9-0.6-1.2C260,467.2,243.2,457.5,215.5,456.8z"/>
	<rect x="209.6" y="471.4" class="st9" width="4.7" height="8.6"/>
	<rect x="204.6" y="382.3" class="st8" width="14.6" height="16.8"/>
	<path class="st9" d="M271.3,378.1v4.8c0,1.4-1.1,2.5-2.5,2.5l0,0H155.1c-1.4,0-2.5-1.1-2.5-2.4l0,0v-4.8c0-1.4,1.1-2.5,2.5-2.5
		h113.7C270.2,375.6,271.3,376.7,271.3,378.1z"/>
	<path class="st9" d="M218.9,380.6h-66.4c0,0-21-35.1-21-93v-21.3c0-8.7,7.1-15.8,15.8-15.8h28.1c8.6,0,15.6,6.8,15.8,15.3
		C192.1,295.7,196.5,360.3,218.9,380.6z"/>
	<path class="st15" d="M204.4,380.6h-48.8c-1.9,0-3.6-1-4.5-2.7c-4.8-9.3-19.6-41.8-19.6-90.3v-21.3c0-8.7,7.1-15.8,15.8-15.8h24.3
		c8.6,0,15.6,6.8,15.8,15.3c0.7,26.7,4.3,81.1,21,106.9c1.6,2.4,0.9,5.5-1.4,7.1C206.3,380.3,205.3,380.6,204.4,380.6z"/>
	<path class="st8" d="M271.3,378.1v4.8c0,1.4-1.1,2.5-2.5,2.5h-51c-1.8,0-3.3-1.5-3.3-3.3l0,0V379c0-1.8,1.5-3.3,3.3-3.3h51
		C270.2,375.6,271.3,376.7,271.3,378.1z"/>
	<path class="st7" d="M152.6,248.6l4.2-5.5c0,0,18,0.8,18.4,7.4C175.6,257,152.6,248.6,152.6,248.6z"/>
	<path class="st7" d="M140.7,265.1c0,0,1.1,29.3,0,104.8c0,2.6-9.5,2.5-10.2,0c-2.3-8.6,0-77.3,0-77.3"/>
	<polygon class="st7" points="130.7,370.3 140.4,370.6 140.4,375.5 130.7,375 	"/>
	<path class="st15" d="M140.7,265.1c0,0,1.1,29.3,0,104.8c0,2.6-9.5,2.5-10.2,0c-2.3-8.6,0-77.3,0-77.3"/>
	<path class="st7" d="M125.9,354.5c-0.5-13.9-2.4-78,5.6-99.2c0,0,7.5-9.6,33-9.6s33.1,18.1,33.1,18.1s1.1,29.3,0,104.8
		c0,2.6-9.5,2.5-10.2,0c-2.3-8.6,0-77.3,0-77.3l-5.1,62.5c-0.1,0.9-0.8,1.5-1.7,1.4h-0.1c-8-1.3-43.5-6.2-52.8,0.1
		c-0.5,0.3-1.3,0.2-1.6-0.3C126,354.8,125.9,354.7,125.9,354.5z"/>
	<polygon class="st7" points="187.6,369 197.3,369.3 197.3,374.2 187.6,373.7 	"/>
	<path class="st7" d="M181.1,355.3l-0.8,5.1c0,0-39.5-8.6-52.3,0.6l-0.8-5.7C127.2,355.3,137.1,346.2,181.1,355.3z"/>
	<path class="st17" d="M125.9,354.5c-0.5-13.9-2.4-78,5.6-99.2c0,0,7.5-9.6,33-9.6s33.1,18.1,33.1,18.1s1.1,29.3,0,104.8
		c0,2.6-9.5,2.5-10.2,0c-2.3-8.6,0-77.3,0-77.3l-5.1,62.5c-0.1,0.9-0.8,1.5-1.7,1.4h-0.1c-8-1.3-43.5-6.2-52.8,0.1
		c-0.5,0.3-1.3,0.2-1.6-0.3C126,354.8,125.9,354.7,125.9,354.5z"/>
	<path class="st8" d="M187.4,291.3c0,0,0.6-19.8,10.2-27.5C197.6,263.8,185.6,269,187.4,291.3z"/>
	<path class="st8" d="M158.5,248c0,0-11.6,6.4-13.5,93.5C145,341.5,139.9,253.6,158.5,248z"/>
</g>
<g id="freepik--speech-bubble--inject-3">
	<path class="st5" d="M249.4,198.9H191l-11.1,16.5L169,198.9h-57.3c-3.7,0-6.6-3-6.6-6.6V78.6c0-3.7,3-6.6,6.6-6.6l0,0h137.7
		c3.7,0,6.6,3,6.6,6.6l0,0v113.7C256,196,253,198.9,249.4,198.9z"/>
	<path class="st23" d="M250.4,199.2h0.4c0.4,0,0.7-0.1,1.1-0.2c2.5-0.6,4.4-2.5,5-4.9c0.1-0.3,0.1-0.6,0.2-0.9c0-0.3,0-0.6,0-0.9
		c0-0.6,0-1.3,0-2c0-2.7,0-5.9,0-9.5c0-14.3,0-34.8-0.1-60.3c0-12.7,0-26.7,0-41.6c0.1-2.9-1.8-5.5-4.5-6.3
		c-0.9-0.3-1.9-0.4-2.8-0.3h-36.3h-52.8H113c-0.3,0-0.6,0-0.9,0s-0.6,0.1-0.9,0.2c-2.3,0.6-4.2,2.4-4.7,4.7
		c-0.2,1.1-0.3,2.1-0.2,3.2v48c0,16.6,0,32.7,0,48.2V191c0,0.9,0,1.8,0.1,2.8c0.4,1.8,1.4,3.3,3,4.3c0.8,0.5,1.6,0.8,2.5,0.9
		c0.9,0.1,1.8,0,2.7,0.1h16.1H170h0.1v0.1l10.9,16.5h-0.2l11.2-16.5v-0.1h0.1l43.1,0.2h11.4h2.9h0.9h-1h-2.9h-11.4l-43,0.1l0.1-0.1
		c-3.5,5.1-7.2,10.7-11.1,16.6l-0.1,0.2l-0.1-0.2L170,199.4l0.1,0.1h-39.3h-16.1c-0.9,0-1.8,0-2.8-0.1c-2.9-0.3-5.3-2.5-5.9-5.3
		c-0.1-0.9-0.2-1.9-0.1-2.8V177c0-15.4,0-31.5,0-48.2V78.9c0-3.2,2.1-6,5.2-6.7c0.3-0.1,0.6-0.1,0.9-0.2c0.3,0,0.6,0,0.9,0h136.7
		c1-0.1,2,0.1,2.9,0.3c0.9,0.3,1.8,0.8,2.5,1.5s1.3,1.5,1.7,2.4c0.4,0.9,0.5,1.9,0.5,2.8c0,15,0,28.9,0,41.6c0,25.4,0,46-0.1,60.3
		c0,3.6,0,6.7,0,9.5c0,0.7,0,1.3,0,2c0,0.3,0,0.6,0,0.9c0,0.3-0.1,0.6-0.2,0.9c-0.6,2.5-2.6,4.4-5.1,4.9c-0.4,0.1-0.7,0.1-1.1,0.1
		H250.4z"/>
	<path class="st9" d="M163.7,141.8c0,1.5-1.1,2.4-2.9,2.4h-1.3v1.8H158v-6.6h2.9C162.6,139.5,163.7,140.4,163.7,141.8z M162.1,141.8
		c0-0.8-0.5-1.2-1.4-1.2h-1.2v2.3h1.2C161.7,143,162.1,142.6,162.1,141.8z"/>
	<path class="st9" d="M169.1,143.2v2.9h-1.4v-0.6c-0.3,0.5-0.9,0.8-1.5,0.7c-1.2,0-1.9-0.7-1.9-1.5s0.6-1.5,2.2-1.5h1.2
		c0-0.6-0.4-1-1.2-1c-0.5,0-1,0.2-1.5,0.5l-0.5-1c0.7-0.4,1.4-0.6,2.2-0.6C168.2,140.9,169.1,141.6,169.1,143.2z M167.6,144.5V144
		h-1c-0.7,0-0.9,0.3-0.9,0.6s0.3,0.6,0.8,0.6C167,145.2,167.5,144.9,167.6,144.5L167.6,144.5z"/>
	<path class="st9" d="M170,145.6l0.5-1.1c0.5,0.3,1.1,0.5,1.8,0.5s0.9-0.2,0.9-0.5c0-0.8-3.1,0-3.1-2c0-1,0.9-1.6,2.4-1.6
		c0.7,0,1.3,0.1,2,0.4l-0.5,1.1c-0.5-0.3-1-0.4-1.5-0.4c-0.7,0-0.9,0.2-0.9,0.5c0,0.9,3.1,0,3.1,2c0,0.9-0.9,1.6-2.4,1.6
		C171.4,146.2,170.6,146,170,145.6z"/>
	<path class="st9" d="M175,145.6l0.5-1.1c0.5,0.3,1.1,0.5,1.8,0.5s0.9-0.2,0.9-0.5c0-0.8-3.1,0-3.1-2c0-1,0.9-1.6,2.3-1.6
		c0.7,0,1.4,0.1,2,0.4l-0.5,1.1c-0.4-0.3-1-0.4-1.5-0.4c-0.7,0-0.9,0.2-0.9,0.5c0,0.9,3.1,0,3.1,2c0,0.9-0.9,1.6-2.4,1.6
		C176.4,146.2,175.6,146,175,145.6z"/>
	<path class="st9" d="M188.5,141l-1.8,5.1h-1.4l-1.1-3.2l-1.2,3.2h-1.4l-1.8-5.1h1.4l1.2,3.4l1.2-3.4h1.2l1.2,3.4l1.2-3.4H188.5z"/>
	<path class="st9" d="M188.7,143.5c-0.1-1.5,1.1-2.9,2.6-3s2.9,1.1,3,2.6s-1.1,2.9-2.6,3c-0.1,0-0.1,0-0.2,0c-1.4,0.1-2.7-1-2.8-2.4
		C188.7,143.7,188.7,143.6,188.7,143.5z M192.8,143.5c-0.1-0.7-0.7-1.3-1.4-1.2s-1.3,0.7-1.2,1.4s0.6,1.2,1.3,1.2
		S192.8,144.3,192.8,143.5C192.8,143.6,192.8,143.6,192.8,143.5L192.8,143.5z"/>
	<path class="st9" d="M198.4,140.9v1.4h-0.3c-0.7-0.1-1.3,0.4-1.4,1.1c0,0.1,0,0.2,0,0.3v2.4h-1.5V141h1.4v0.7
		C197.1,141.2,197.7,140.9,198.4,140.9z"/>
	<path class="st9" d="M204.4,139.1v7H203v-0.6c-0.4,0.5-1,0.7-1.6,0.7c-1.5,0-2.6-1.2-2.6-2.6c0-1.5,1.2-2.6,2.6-2.6
		c0.6,0,1.1,0.2,1.5,0.6v-2.5L204.4,139.1z M203,143.6c-0.1-0.7-0.7-1.3-1.4-1.2s-1.3,0.7-1.2,1.4s0.6,1.2,1.3,1.2
		S203,144.4,203,143.6C203,143.7,203,143.6,203,143.6L203,143.6z"/>
	<path class="st0" d="M133.9,157.5h9.6c2.3,0,4.1,1.8,4.1,4.1V178c0,2.3-1.8,4.1-4.1,4.1h-9.6c-2.3,0-4.1-1.8-4.1-4.1v-16.4
		C129.8,159.3,131.7,157.5,133.9,157.5z"/>
	<path class="st0" d="M176.4,157.5h9.1c2.3,0,4.1,1.8,4.1,4.1V178c0,2.3-1.8,4.1-4.1,4.1h-9.1c-2.3,0-4.1-1.8-4.1-4.1v-16.4
		C172.3,159.3,174.1,157.5,176.4,157.5z"/>
	<path class="st0" d="M155.6,157.5h9.1c2.3,0,4.1,1.8,4.1,4.1V178c0,2.3-1.8,4.1-4.1,4.1h-9.1c-2.3,0-4.1-1.8-4.1-4.1v-16.4
		C151.5,159.3,153.3,157.5,155.6,157.5z"/>
	<path class="st0" d="M197.1,157.5h9.6c2.3,0,4.1,1.8,4.1,4.1V178c0,2.3-1.8,4.1-4.1,4.1h-9.6c-2.3,0-4.1-1.8-4.1-4.1v-16.4
		C193,159.3,194.8,157.5,197.1,157.5z"/>
	<path class="st0" d="M217.5,157.5h9.6c2.3,0,4.1,1.8,4.1,4.1V178c0,2.3-1.8,4.1-4.1,4.1h-9.6c-2.3,0-4.1-1.8-4.1-4.1v-16.4
		C213.4,159.3,215.3,157.5,217.5,157.5z"/>
	<path class="st7" d="M141,169.2l1.9,1l-0.9,1.4l-1.9-1.1v2.1h-1.6v-2.1l-1.9,1.2l-0.8-1.4l1.9-1l-1.9-1.1l0.8-1.4l1.9,1.2v-2.1h1.6
		v2.1l1.9-1.2l0.9,1.4L141,169.2z"/>
	<path class="st7" d="M161.8,169l1.9,1l-0.9,1.4l-1.9-1.1v2.1h-1.6v-2.1l-1.9,1.2l-0.8-1.4l1.9-1l-1.9-1.1l0.8-1.4l1.9,1.2v-2.1h1.6
		v2.1l1.9-1.2l0.9,1.4L161.8,169z"/>
	<path class="st7" d="M183,169l1.9,1l-0.9,1.4l-2-1.1v2.1h-1.6v-2.1l-1.9,1.2l-0.8-1.4l1.9-1l-1.9-1.1l0.8-1.4l1.9,1.2v-2.1h1.6v2.1
		l1.9-1.2l0.9,1.4L183,169z"/>
	<path class="st7" d="M203.6,169l1.9,1l-0.9,1.4l-1.9-1.1v2.1h-1.6v-2.1l-1.9,1.2l-0.8-1.4l1.9-1l-1.9-1.1l0.8-1.4l1.9,1.2v-2.1h1.6
		v2.1l1.9-1.2l0.9,1.4L203.6,169z"/>
	<path class="st9" d="M143.3,182.3h-9.2c-2.4,0-4.3-1.9-4.3-4.3v-16.3c0-2.4,1.9-4.3,4.3-4.3h9.2c2.4,0,4.3,1.9,4.3,4.3l0,0V178
		C147.6,180.3,145.7,182.3,143.3,182.3z M134.1,157.6c-2.2,0-4,1.8-4,4v16.3c0,2.2,1.8,4,4,4h9.2c2.2,0,4-1.8,4-4v-16.3
		c0-2.2-1.8-4-4-4H134.1z"/>
	<path class="st9" d="M164.7,182.3h-9.2c-2.4,0-4.3-1.9-4.3-4.3v-16.3c0-2.4,1.9-4.3,4.3-4.3h9.2c2.4,0,4.3,1.9,4.3,4.3V178
		C169,180.3,167.1,182.3,164.7,182.3z M155.5,157.6c-2.2,0-4,1.8-4,4v16.3c0,2.2,1.8,4,4,4h9.2c2.2,0,4-1.8,4-4v-16.3
		c0-2.2-1.8-4-4-4H155.5z"/>
	<path class="st9" d="M185.5,182.3h-9.2c-2.4,0-4.3-1.9-4.3-4.3v-16.3c0-2.4,1.9-4.3,4.3-4.3h9.2c2.4,0,4.3,1.9,4.3,4.3V178
		C189.8,180.3,187.9,182.3,185.5,182.3z M176.3,157.6c-2.2,0-4,1.8-4,4v16.3c0,2.2,1.8,4,4,4h9.2c2.2,0,4-1.8,4-4v-16.3
		c0-2.2-1.8-4-4-4H176.3z"/>
	<path class="st9" d="M206.5,182.3h-9.2c-2.4,0-4.3-1.9-4.3-4.3v-16.3c0-2.4,1.9-4.3,4.3-4.3l0,0h9.2c2.4,0,4.3,1.9,4.3,4.3V178
		C210.8,180.3,208.9,182.3,206.5,182.3z M197.3,157.6c-2.2,0-4,1.8-4,4v16.3c0,2.2,1.8,4,4,4h9.2c2.2,0,4-1.8,4-4v-16.3
		c0-2.2-1.8-4-4-4H197.3z"/>
	<path class="st9" d="M226.9,182.3h-9.2c-2.4,0-4.3-1.9-4.3-4.3v-16.3c0-2.4,1.9-4.3,4.3-4.3l0,0h9.2c2.4,0,4.3,1.9,4.3,4.3V178
		C231.2,180.3,229.3,182.3,226.9,182.3z M217.7,157.6c-2.2,0-4,1.8-4,4v16.3c0,2.2,1.8,4,4,4h9.2c2.2,0,4-1.8,4-4v-16.3
		c0-2.2-1.8-4-4-4H217.7z"/>
	<path class="st7" d="M227.3,175.7c-1.6,0.2-3.3,0.3-4.9,0.2c-1.6,0.1-3.3,0-4.9-0.2c1.6-0.2,3.3-0.3,4.9-0.2
		C224,175.5,225.6,175.5,227.3,175.7z"/>
	<circle class="st7" cx="181.3" cy="112.1" r="19.9"/>
	<path class="st6" d="M177.8,108.5h-0.3v-1.9c-0.1-2.1,1.6-4,3.7-4c2.1-0.1,4,1.6,4,3.7c0,0.1,0,0.2,0,0.3v1.5h-0.3v-1.5
		c0.1-2-1.4-3.6-3.4-3.7s-3.6,1.4-3.7,3.4c0,0.1,0,0.2,0,0.3V108.5z"/>
	<path class="st6" d="M186.3,121.4h-9.9c-0.9,0-1.6-0.7-1.6-1.6l0,0v-9.9c0-0.9,0.7-1.6,1.6-1.6h9.9c0.9,0,1.6,0.7,1.6,1.6v9.9
		C187.9,120.7,187.2,121.4,186.3,121.4z M176.4,108.6c-0.7,0-1.3,0.6-1.3,1.3l0,0v9.9c0,0.7,0.6,1.3,1.3,1.3l0,0h9.9
		c0.7,0,1.3-0.6,1.3-1.3l0,0v-9.9c0-0.7-0.6-1.3-1.3-1.3l0,0H176.4z"/>
	<path class="st6" d="M181.4,115.2c-0.9,0-1.6-0.7-1.6-1.5s0.7-1.6,1.5-1.6s1.6,0.7,1.6,1.5l0,0
		C182.9,114.5,182.2,115.2,181.4,115.2z M181.4,112.4c-0.7,0-1.2,0.5-1.2,1.2s0.5,1.2,1.2,1.2s1.2-0.5,1.2-1.2l0,0
		C182.6,113,182.1,112.4,181.4,112.4L181.4,112.4L181.4,112.4z"/>
	<rect x="181.2" y="114.9" class="st6" width="0.3" height="2.8"/>
	<circle class="st3" cx="242.7" cy="83.2" r="6.1"/>
	<path class="st6" d="M240.7,85.4c-0.1,0-0.1,0-0.1-0.1c-0.1-0.1-0.1-0.2,0-0.3l0,0l4-4c0.1-0.1,0.2-0.1,0.3,0l0,0
		c0.1,0.1,0.1,0.2,0,0.3l0,0l-4,4C240.8,85.4,240.7,85.4,240.7,85.4z"/>
	<path class="st6" d="M244.7,85.4c0,0-0.1,0-0.1-0.1l-4-4c-0.1-0.1-0.1-0.2,0-0.3l0,0c0.1-0.1,0.2-0.1,0.3,0l0,0l4,4
		c0.1,0.1,0.1,0.2,0,0.3l0,0C244.8,85.4,244.7,85.4,244.7,85.4z"/>
</g>
<g class="st24">
	<path class="st25" d="M628.2,404.5v-6c0.2-3.8,3.3-6.7,7.1-6.5c3.5,0.2,6.4,3,6.5,6.5v5.9h2.7v-5.9c0-5.3-4.3-9.5-9.5-9.5
		s-9.5,4.3-9.5,9.5l0,0v6H628.2z"/>
	<rect x="624.5" y="404.5" class="st25" width="20.8" height="17.2"/>
	<path class="st25" d="M637.1,411.7c-0.1-1.3-1.2-2.2-2.4-2.1c-1.1,0.1-2,1-2.1,2.1c0,0.8,0.5,1.6,1.2,1.9l-0.4,3.9h2.9l-0.4-3.9
		C636.6,413.2,637.1,412.5,637.1,411.7z"/>
</g>
<g class="st24">
	<path class="st25" d="M160.3,34.3v-9.1c0.2-5.7,5-10.2,10.8-10c5.5,0.2,9.8,4.6,10,10v9h4.1v-9c-0.2-8-6.9-14.3-15-14.1
		c-7.7,0.2-13.9,6.4-14.1,14.1v9.1C156.1,34.3,160.3,34.3,160.3,34.3z"/>
	<rect x="154.6" y="34.3" class="st25" width="31.7" height="26.3"/>
	<path class="st25" d="M173.8,45.2c-0.1-1.9-1.8-3.4-3.7-3.2c-1.7,0.1-3.1,1.5-3.2,3.2c0,1.3,0.7,2.4,1.8,3l-0.6,6h4.4l-0.6-6
		C173.1,47.6,173.8,46.4,173.8,45.2z"/>
</g>
<line class="st26" x1="63.4" y1="277.6" x2="79.7" y2="433.5"/>
<line class="st26" x1="77" y1="403.7" x2="69.7" y2="395.9"/>
<path class="st27" d="M71.9,398.2c0-2.4-1.1-4.7-2.9-6.3c-1.9-1.7-11.9-5.9-12.8-2.4C55.1,393.4,65.4,400.9,71.9,398.2z"/>
<line class="st28" x1="71.9" y1="398.2" x2="62.4" y2="392.3"/>
<line class="st26" x1="78.9" y1="421.4" x2="71.5" y2="413.6"/>
<path class="st27" d="M73.8,416c0-2.4-1.1-4.7-2.9-6.3c-1.9-1.7-11.9-5.9-12.8-2.4C57,411.1,67.2,418.6,73.8,416z"/>
<line class="st28" x1="73.8" y1="416" x2="64.3" y2="410.1"/>
<line class="st26" x1="72.5" y1="360.4" x2="65.2" y2="352.6"/>
<path class="st27" d="M67.4,355c0-2.4-1.1-4.7-2.9-6.3c-1.9-1.7-11.9-5.9-12.8-2.4C50.6,350.2,60.8,357.7,67.4,355z"/>
<line class="st28" x1="67.4" y1="355" x2="57.9" y2="349.1"/>
<line class="st26" x1="74.4" y1="378.2" x2="67" y2="370.4"/>
<path class="st27" d="M69.3,372.7c0-2.4-1.1-4.7-2.9-6.3c-1.9-1.7-11.9-5.9-12.8-2.4C52.5,367.9,62.7,375.4,69.3,372.7z"/>
<line class="st28" x1="69.3" y1="372.7" x2="59.8" y2="366.8"/>
<line class="st26" x1="69.5" y1="331.6" x2="62.2" y2="323.8"/>
<path class="st27" d="M62.2,324.2c0-1.9-0.9-3.7-2.3-4.9c-1.5-1.3-9.3-4.6-10-1.8C49.1,320.4,57.1,326.3,62.2,324.2z"/>
<line class="st28" x1="62.2" y1="324.2" x2="54.8" y2="319.5"/>
<line class="st26" x1="66.5" y1="302.7" x2="59.1" y2="294.9"/>
<path class="st27" d="M59.7,295.5c0-1.9-0.9-3.7-2.3-4.9c-1.5-1.3-9.3-4.6-10-1.9C46.6,291.7,54.5,297.6,59.7,295.5z"/>
<line class="st28" x1="59.7" y1="295.5" x2="52.3" y2="290.9"/>
<line class="st26" x1="75.8" y1="393.2" x2="81.4" y2="384.1"/>
<path class="st27" d="M79.7,386.8c-0.5-2.4,0.1-4.8,1.6-6.7c1.5-2,10.4-8.2,12-5C95.1,378.6,86.7,388.1,79.7,386.8z"/>
<line class="st28" x1="79.7" y1="386.8" x2="88.2" y2="378.6"/>
<line class="st26" x1="70.9" y1="346.6" x2="76.6" y2="337.4"/>
<path class="st27" d="M74.8,340.2c-0.5-2.4,0.1-4.8,1.6-6.7c1.5-2,10.4-8.2,12-5C90.3,332,81.8,341.4,74.8,340.2z"/>
<line class="st28" x1="74.8" y1="340.2" x2="83.4" y2="332"/>
<line class="st26" x1="68.8" y1="326" x2="74.4" y2="316.9"/>
<path class="st27" d="M72.7,319.7c-0.5-2.4,0.1-4.8,1.6-6.7c1.5-2,10.4-8.2,12-5C88.1,311.5,79.7,320.9,72.7,319.7z"/>
<line class="st28" x1="72.7" y1="319.7" x2="81.2" y2="311.5"/>
<line class="st26" x1="65.7" y1="296" x2="71.3" y2="286.9"/>
<path class="st27" d="M69.6,289.6c-0.5-2.4,0.1-4.8,1.6-6.7c1.5-2,10.4-8.2,12-5C85,281.4,76.5,290.9,69.6,289.6z"/>
<line class="st28" x1="69.6" y1="289.6" x2="78.1" y2="281.4"/>
<path class="st27" d="M63.3,276.8c-0.5-2.4,0.1-4.8,1.6-6.7c1.5-2,10.4-8.2,12-5C78.7,268.6,70.2,278,63.3,276.8z"/>
<line class="st28" x1="63.3" y1="276.8" x2="71.8" y2="268.6"/>
<path class="st27" d="M62.3,280.1c-1.9,0.2-3.7-0.5-5.1-1.8c-1.5-1.3-5.5-8.8-2.9-9.8C57.2,267.4,63.8,274.7,62.3,280.1z"/>
<line class="st28" x1="62.3" y1="280.1" x2="56.6" y2="272.7"/>
<line class="st26" x1="106.3" y1="299.1" x2="90.1" y2="455"/>
<line class="st26" x1="93.7" y1="425.3" x2="88.1" y2="416.1"/>
<path class="st27" d="M89.8,418.9c0.5-2.4-0.1-4.8-1.6-6.7c-1.5-2-10.4-8.2-12-5C74.4,410.7,82.8,420.1,89.8,418.9z"/>
<line class="st28" x1="89.8" y1="418.9" x2="81.7" y2="411.1"/>
<line class="st26" x1="98.2" y1="382" x2="92.6" y2="372.9"/>
<path class="st27" d="M94.3,375.6c0.5-2.4-0.1-4.8-1.6-6.7c-1.5-2-10.4-8.2-12-5C78.9,367.4,87.3,376.9,94.3,375.6z"/>
<line class="st28" x1="94.3" y1="375.6" x2="86.2" y2="367.9"/>
<line class="st26" x1="96.4" y1="399.7" x2="90.7" y2="390.6"/>
<path class="st27" d="M92.5,393.3c0.5-2.4-0.1-4.8-1.6-6.7c-1.5-2-10.4-8.2-12-5C77,385.2,85.5,394.6,92.5,393.3z"/>
<line class="st28" x1="92.5" y1="393.3" x2="84.4" y2="385.6"/>
<line class="st26" x1="101.2" y1="353.2" x2="95.6" y2="344.1"/>
<path class="st27" d="M97.3,346.8c0.5-2.4-0.1-4.8-1.6-6.7c-1.5-2-10.4-8.2-12-5C81.9,338.6,90.3,348.1,97.3,346.8z"/>
<line class="st28" x1="97.3" y1="346.8" x2="89.2" y2="339.1"/>
<line class="st26" x1="104.2" y1="324.3" x2="98.6" y2="315.1"/>
<path class="st27" d="M100.3,317.9c0.5-2.4-0.1-4.8-1.6-6.7c-1.5-2-10.4-8.2-12.1-5C84.9,309.7,93.3,319.2,100.3,317.9z"/>
<line class="st28" x1="100.3" y1="317.9" x2="92.2" y2="310.2"/>
<line class="st26" x1="94.7" y1="414.7" x2="102" y2="406.9"/>
<path class="st27" d="M99.8,409.3c0-2.4,1.1-4.7,2.9-6.3c1.9-1.7,11.9-5.9,12.8-2.4C116.6,404.5,106.4,411.9,99.8,409.3z"/>
<line class="st28" x1="99.8" y1="409.3" x2="109.8" y2="403.1"/>
<line class="st26" x1="99.5" y1="368.1" x2="106.9" y2="360.3"/>
<path class="st27" d="M104.6,362.6c0-2.4,1.1-4.7,2.9-6.3c1.9-1.7,11.8-5.9,12.8-2.4C121.4,357.8,111.2,365.3,104.6,362.6z"/>
<line class="st28" x1="104.6" y1="362.6" x2="114.7" y2="356.4"/>
<line class="st26" x1="101.6" y1="347.6" x2="109" y2="339.8"/>
<path class="st27" d="M106.8,342.1c0-2.4,1.1-4.7,2.9-6.3c1.9-1.7,11.9-5.9,12.8-2.4C123.5,337.3,113.3,344.8,106.8,342.1z"/>
<line class="st28" x1="106.8" y1="342.1" x2="116.8" y2="335.9"/>
<line class="st26" x1="104.7" y1="317.5" x2="112.1" y2="309.7"/>
<path class="st27" d="M109.9,312.1c0-2.4,1.1-4.7,2.9-6.3c1.9-1.7,11.8-5.9,12.8-2.4C126.6,307.3,116.4,314.8,109.9,312.1z"/>
<line class="st28" x1="109.9" y1="312.1" x2="119.9" y2="305.8"/>
<path class="st27" d="M106.4,298.2c0-2.4,1.1-4.7,2.9-6.3c1.9-1.7,11.9-5.9,12.8-2.4C123.1,293.4,112.9,300.9,106.4,298.2z"/>
<line class="st28" x1="106.4" y1="298.2" x2="116.4" y2="292"/>
<path class="st27" d="M106.8,298.7c-2.4-0.3-4.6-1.6-5.9-3.6c-1.5-2.1-4.6-12.4-1-13C103.7,281.5,110.1,292.4,106.8,298.7z"/>
<line class="st28" x1="106.8" y1="298.7" x2="101.6" y2="288.1"/>
<line class="st26" x1="87.8" y1="235.6" x2="87.8" y2="432.8"/>
<line class="st26" x1="87.9" y1="403.1" x2="81.4" y2="394.6"/>
<path class="st27" d="M83.4,397.2c0.2-2.4-0.6-4.8-2.3-6.5c-1.7-1.9-11.2-7.1-12.5-3.7C67.2,390.6,76.6,399.2,83.4,397.2z"/>
<line class="st28" x1="83.4" y1="397.2" x2="74.6" y2="390.3"/>
<line class="st26" x1="87.9" y1="366.1" x2="81.4" y2="357.6"/>
<path class="st27" d="M83.4,360.1c0.2-2.4-0.6-4.8-2.3-6.5c-1.7-1.9-11.2-7.1-12.5-3.7C67.2,353.6,76.6,362.1,83.4,360.1z"/>
<line class="st28" x1="83.4" y1="360.1" x2="74.6" y2="353.3"/>
<line class="st26" x1="87.9" y1="322.6" x2="81.4" y2="314.1"/>
<path class="st27" d="M83.4,316.6c0.2-2.4-0.6-4.8-2.3-6.5c-1.7-1.9-11.2-7.1-12.5-3.7C67.2,310.1,76.6,318.6,83.4,316.6z"/>
<line class="st28" x1="83.4" y1="316.6" x2="74.6" y2="309.8"/>
<line class="st26" x1="87.9" y1="293.6" x2="81.4" y2="285.1"/>
<path class="st27" d="M83.4,287.7c0.2-2.4-0.6-4.8-2.3-6.5c-1.7-1.9-11.2-7.1-12.5-3.7C67.2,281.1,76.6,289.7,83.4,287.7z"/>
<line class="st28" x1="83.4" y1="287.7" x2="74.6" y2="280.8"/>
<line class="st26" x1="87.9" y1="264.6" x2="81.4" y2="256"/>
<path class="st27" d="M83.4,258.6c0.2-2.4-0.6-4.8-2.3-6.5c-1.7-1.9-11.2-7.1-12.5-3.7C67.2,252.1,76.6,260.6,83.4,258.6z"/>
<line class="st28" x1="83.4" y1="258.6" x2="74.6" y2="251.7"/>
<line class="st26" x1="87.8" y1="414.4" x2="94.3" y2="405.9"/>
<path class="st27" d="M92.3,408.5c-0.2-2.4,0.6-4.8,2.3-6.5c1.7-1.9,11.2-7.1,12.5-3.7C108.5,401.9,99.1,410.5,92.3,408.5z"/>
<line class="st28" x1="92.3" y1="408.5" x2="101.7" y2="401.2"/>
<line class="st26" x1="87.8" y1="355.5" x2="94.3" y2="347"/>
<path class="st27" d="M92.3,349.6c-0.2-2.4,0.6-4.8,2.3-6.5c1.7-1.9,11.2-7.1,12.5-3.7C108.5,343,99.1,351.5,92.3,349.6z"/>
<line class="st28" x1="92.3" y1="349.6" x2="101.7" y2="342.3"/>
<line class="st26" x1="87.8" y1="326.4" x2="94.3" y2="317.9"/>
<path class="st27" d="M92.3,320.5c-0.2-2.4,0.6-4.8,2.3-6.5c1.7-1.9,11.2-7.1,12.5-3.7C108.5,314,99.1,322.5,92.3,320.5z"/>
<line class="st28" x1="92.3" y1="320.5" x2="101.7" y2="313.2"/>
<line class="st26" x1="87.8" y1="288" x2="94.3" y2="279.5"/>
<path class="st27" d="M92.3,282c-0.2-2.4,0.6-4.8,2.3-6.5c1.7-1.9,11.2-7.1,12.5-3.7C108.5,275.5,99.1,284.1,92.3,282z"/>
<line class="st28" x1="92.3" y1="282" x2="101.7" y2="274.8"/>
<line class="st26" x1="87.8" y1="257.8" x2="94.3" y2="249.3"/>
<path class="st27" d="M92.3,251.8c-0.2-2.4,0.6-4.8,2.3-6.5c1.7-1.9,11.2-7.1,12.5-3.7C108.5,245.3,99.1,253.8,92.3,251.8z"/>
<line class="st28" x1="92.3" y1="251.8" x2="101.7" y2="244.6"/>
<path class="st27" d="M87.4,238.4c-0.2-2.4,0.6-4.8,2.3-6.5c1.7-1.9,11.2-7.1,12.5-3.7C103.6,231.9,94.2,240.4,87.4,238.4z"/>
<line class="st28" x1="87.4" y1="238.4" x2="96.7" y2="231.2"/>
<path class="st27" d="M87.9,238.8c-2.4,0-4.7-1.1-6.3-2.9c-1.7-1.9-5.9-11.9-2.4-12.8C83.1,222.1,90.5,232.3,87.9,238.8z"/>
<line class="st28" x1="87.9" y1="238.8" x2="81.6" y2="228.8"/>
<polygon class="st29" points="95.9,483.9 75,483.9 72.4,431.2 98.5,431.2 "/>
</svg>
