<?xml version="1.0" encoding="utf-8"?>
<!-- Generator: Adobe Illustrator 23.0.0, SVG Export Plug-In . SVG Version: 6.00 Build 0)  -->
<svg version="1.1" id="Layer_1" xmlns="http://www.w3.org/2000/svg" xmlns:xlink="http://www.w3.org/1999/xlink" x="0px" y="0px"
	 width="395px" height="395px" viewBox="0 0 395 395" style="enable-background:new 0 0 395 395;" xml:space="preserve">
<style type="text/css">
	.st0{fill:#464F5E;}
	.st1{fill:#ECC000;}
	.st2{fill:#85B3CB;}
	.st3{fill:#4396D4;}
	.st4{fill:#F7E7AA;}
	.st5{fill:#2B5781;}
	.st6{fill:#ECC001;}
	.st7{fill:#393F4B;}
	.st8{fill:#A0C7D2;}
	.st9{fill:#317FBB;}
	.st10{fill:#567580;}
</style>
<g>
	<path class="st0" d="M199.2,6.5c10.6,3.6,21.5,6,32.3,9c17.3,4.8,34.7,9.4,52,14.1c5.2,1.4,6.6,3.6,5.8,9.1c0.2,2.1-1.2,3.3-2.7,4
		c-3.2,1.6-6.5,2.8-10.2,2.4c-5.6,1.5-11.3,3-16.9,4.6c-1,0.3-2.3,0.2-2.9,1.4c-0.3,0.3-0.6,0.5-1,0.7c-17.9,5-36,9.6-53.9,14.5
		c-2.9,0.8-5.9,0.8-8.9,0.1c-18.1-4.9-36.2-9.7-54.3-14.6c-0.4-0.1-0.7-0.3-1-0.6c-2.6-2.1-6-2.2-9.1-3.1c-6-1.8-12-3.3-18.1-4.8
		c-3.5-0.9-5.9-2.9-6.1-6.6c-0.2-3.3,2-5.7,6.2-6.8c26.7-7.2,53.5-14.4,80.2-21.7c1.4-0.4,3-0.4,4.1-1.5
		C196.2,6.5,197.7,6.5,199.2,6.5z"/>
	<path class="st1" d="M382.3,357.3c3.2,0.2,5.1,2.2,6.7,4.7c0,5.8,0,11.5,0,17.3c-1.6,2.4-3.4,4.6-6.7,4.6c-1.1,0.4-2.2,0.2-3.3,0.2
		c-28.4,0-56.7,0-85.1,0c-4.5,0-4.9-0.3-5-4.8c-0.1-5.9-0.1-11.7,0-17.6c0-1.5,0-3,1-4.3c1.6-1.3,3.5-1.1,5.4-1.1
		c27.4,0,54.7,0,82.1,0C379,356.3,380.7,356.2,382.3,357.3z"/>
	<path class="st2" d="M11.6,357.3c0-51.3,0-102.7,0-154c0-1.6,0.1-3.2,0.2-4.9c1.3-0.9,2.7-1.1,4.3-1.1c29.2,0,58.5-0.2,87.7,0.1
		c4.6,0.3,9.4-1.1,13.9,1c1.2,1.7,1,3.6,1,5.4c0,49.1,0,98.1,0,147.2c0,6.3-0.5,6.7-6.9,6.8c-2.2,0-4.5-0.3-6.7,0.4
		c-0.5,0.1-1,0.2-1.5,0.2c-3,0.4-6,0.2-9,0.2c-25.6,0-51.1,0-76.7,0C15.8,358.7,13.4,359.3,11.6,357.3z"/>
	<path class="st3" d="M256.2,50.9c0.1,0,0.3,0,0.4,0.1c0.1,14.6,0.2,29.2,0.2,43.8c0,1.6,0.2,3.3,0,4.9c-0.5,3.9,0.1,6.7,5,6.9
		c1.7,0.1,3.3,1.2,4.5,2.5c12,12,23.9,24.1,35.9,36.1c-2,1.9-4.5,1.3-6.8,1.3c-38.1,0-76.2,0-114.3,0c-27.7,0-55.5,0-83.2,0
		c-2.2,0-4.5,0.5-6.5-1.1c9.8-11.8,19.6-23.7,29.4-35.4c2.9-3.4,6.9-4.2,11.2-4.2c5.7,0,5.1,0.8,5.1-5.3c0-15.1,0-30.2,0-45.3
		c0-1.4,0.1-2.7,0.2-4.1c0.1-0.1,0.2-0.1,0.4-0.1c1.5,1.7,1.2,3.8,1.2,5.7c0,14.1,0,28.2,0,42.3c0,5.1,0.2,5.4,5.2,5.4
		c35.2,0,70.4,0,105.7,0c5,0,5.2-0.2,5.2-5.4c0-14.1,0-28.2,0-42.3C255,54.6,254.7,52.5,256.2,50.9z"/>
	<path class="st4" d="M104.1,357.5c0.2-0.1,0.5-0.1,0.7-0.2c21.9-1.4,43.9-1.1,65.8-0.9c17.5-0.2,35-0.2,52.5,0
		c21.8,0,43.6-0.4,65.4,0.3c0.5,0.2,0.9,0.4,1.2,0.8c0,7.5,0.1,15-0.1,22.5c-0.1,2.9,0.7,3.8,3.7,3.8c28.2-0.1,56.4-0.1,84.7-0.1
		c1.4,0,2.7,0.1,4.1,0.2c-1.3,1-2.9,0.5-4.4,0.6c-28,0-56,0-84,0c-2.3,0-3.9,0.3-5,2.7c-1.1,2.3-3.2,3.4-6.1,3.4
		c-57.2-0.1-114.5-0.1-171.7,0c-2.9,0-5-1.1-6.1-3.4c-1.1-2.5-2.7-2.7-5-2.7c-28,0.1-56,0-84,0c-1.5,0-3,0.4-4.4-0.6
		c1.8-1.9,4.2-1.3,6.4-1.3c26.1,0,52.1,0,78.2,0c6.5,0,6.5,0,6.5-6.7c0-4.5,0-9,0-13.5C102.8,360.7,102.6,358.9,104.1,357.5z"/>
	<path class="st5" d="M91.4,145.3c68.5,0,137,0,205.5,0c1.7,0,3.5-0.1,5.2-0.1c0.2,0.3,0.4,0.6,0.6,0.8c0.7,5.5,0.3,11.1,0.9,16.6
		c0.8,7.5-3,10.9-10.7,10.7c-1.1,0-2.2-0.1-3.3-0.3c-2.4-0.4-4.7-0.4-7.1-0.4c-57.1,0-114.1,0-171.2,0c-2.4,0-4.7,0-7.1,0.4
		c-0.6,0.1-1.2,0.2-1.8,0.2c-9.9,0.6-14.1-4.3-12-14c1-4.4-0.2-8.9,0.7-13.3C91.2,145.8,91.3,145.6,91.4,145.3z"/>
	<path class="st3" d="M91.1,146c0,5.8,0,11.6,0,17.4c0,6.4,2.3,8.7,8.7,8.7c1.4,0,2.7,0,4.1,0c1,0.9,1.1,2.2,1.1,3.4
		c0.1,6.4,0.1,12.9,0,19.3c0,1.2-0.2,2.5-1.1,3.5c-30.7,0-61.4,0-92.2,0c5.4-10.9,10.7-21.9,16.3-32.7c2.5-4.8,6.9-7,12.3-6.9
		c15.5,0.1,30.9-0.1,46.4,0.1c3.1,0,4.1-0.8,3.9-3.9C90.6,152,90.2,148.9,91.1,146z"/>
	<path class="st1" d="M104.1,357.5c0,7.5-0.1,15,0.1,22.5c0.1,2.9-0.8,3.8-3.7,3.8c-28.2-0.1-56.5-0.1-84.7-0.1
		c-1.4,0-2.7,0.1-4.1,0.2C6.8,383,5,380.9,5,376.1c0-3.6,0-7.2,0-10.9c0-4.8,1.7-6.8,6.7-7.9c19,0,37.9,0.1,56.9,0.1
		C80.4,357.5,92.3,357.5,104.1,357.5z"/>
	<path class="st2" d="M289.8,357.5c-0.2-0.1-0.5-0.2-0.7-0.2c-3.4-0.4-6.7-0.3-10.1-0.2c-2.7,0.1-3.6-1.1-3.7-3.5
		c-0.1-1.2-0.1-2.5-0.1-3.7c0-48.3,0-96.6,0-144.8c0-2.2-0.4-4.5,0.9-6.6c3.1-2.1,6.5-0.9,9.8-1.2c1.4-0.1,2.7,0,4.1,0.1
		c26.8-0.2,53.5,0,80.3-0.1c2.4,0,4.7,0,7.1,0c1.6,0,3.2,0.2,4.6,1.2c0.1,1.6,0.2,3.2,0.2,4.9c0,51.3,0,102.7,0,154
		c-19.2,0-38.4,0.1-57.7,0.1C313,357.5,301.4,357.5,289.8,357.5z"/>
	<path class="st3" d="M382.1,198.4c-30.7,0-61.5,0-92.2,0c-1-1-1.1-2.2-1.1-3.5c-0.1-6.4-0.1-12.9,0-19.3c0-1.2,0.1-2.5,1.1-3.4
		c12,0,13.1-1.2,12.8-13.2c-0.1-4.3,0-8.7,0-13c0.9,3.1,0.4,6.2,0.3,9.3c-0.1,2.8,0.7,3.6,3.6,3.6c15.3-0.1,30.7,0,46-0.1
		c6.6-0.1,11.1,2.7,14,8.6C371.8,177.7,376.9,188.1,382.1,198.4z"/>
	<path class="st6" d="M276.4,45c2.1-0.6,4.3-1.3,6.4-1.8c2.8-0.7,5.1-1.9,6.5-4.5c0.9,8.3,0.3,16.6,0.3,25c0,4.4,0.2,8.2,4.2,11.3
		c2.8,2.1,2.5,6.1,0.2,8.7c-2.2,2.5-5.6,3.1-8.4,1.2c-5.8-3.9-8.9-9.3-9.1-16.3C276.3,60.7,276.4,52.9,276.4,45z"/>
	<path class="st7" d="M256.2,50.9c0,17.1,0,34.2,0.1,51.4c0,2.5-0.5,3.5-3.3,3.5c-37.4-0.1-74.7-0.1-112.1,0c-2.7,0-3.3-1-3.3-3.5
		c0.1-17.1,0.1-34.2,0.1-51.4c6.6,0.7,12.7,3,19.1,4.7c12.1,3.1,24.2,6.5,36.3,9.8c3.6,1,7.1,0.3,10.6-0.7c17-4.6,34-9.2,51-13.7
		C255.2,50.8,255.7,50.9,256.2,50.9z"/>
	<path class="st8" d="M276.4,198.6c0,51.1,0,102.2,0,153.4c0,4.8,0,4.7,4.9,4.8c2.6,0.1,5.2-0.6,7.7,0.5c-22,0-43.9,0-65.9,0
		c-1.6-1.8-1.2-4-1.2-6.1c0-22.7,0-45.4,0-68.1c0-1.4,0-2.7,0-4.1c-0.3-4.1-2.2-6.3-6.3-6.4c-12.5-0.3-25-0.3-37.4,0
		c-4.3,0.1-6.3,2.4-6.3,7.2c-0.1,11.7,0,23.5,0,35.2c0,12.2,0,24.5,0,36.7c0,1.9,0.4,4-1.2,5.7c-22,0-43.9,0-65.9,0
		c2.8-1.2,5.7-0.6,8.5-0.5c3.2,0.1,4.3-0.7,4.3-4.1c-0.2-17.4-0.1-34.7-0.1-52.1c0-34,0-68,0-102c1.3-1.5,3.2-1.3,4.9-1.3
		c49.7,0,99.4,0,149.1,0C273.2,197.3,275.1,197.1,276.4,198.6z"/>
	<path class="st9" d="M276.4,198.6c-15.9,0-31.7-0.1-47.6-0.1c-37.1,0-74.2,0.1-111.3,0.1c-4.5-0.1-9-0.1-13.5-0.2
		c0-8.7,0-17.5,0-26.2c1.2-1.1,2.6-0.6,3.9-0.6c59.4,0,118.7,0,178.1,0c1.3,0,2.8-0.5,3.9,0.6c0,8.7,0,17.5,0,26.2
		C285.4,198.5,280.9,198.5,276.4,198.6z"/>
	<path class="st0" d="M77.7,238.4c0-2.2-0.1-4.5,0-6.7c0.3-3.9,3.1-6.8,6.6-6.8c3.4,0,6.5,2.9,6.6,6.8c0.2,4.3,0.2,8.7,0,13.1
		c-0.2,3.9-3.2,6.7-6.7,6.7c-3.6,0-6.4-2.8-6.6-6.7C77.6,242.6,77.7,240.5,77.7,238.4z"/>
	<path class="st0" d="M91.1,278c0,2.2,0.2,4.5,0,6.7c-0.3,3.7-3.2,6.4-6.5,6.5c-3.5,0.1-6.6-2.7-6.7-6.6c-0.2-4.5-0.2-9,0-13.4
		c0.2-3.8,3.1-6.4,6.5-6.5c3.2-0.1,6.4,2.7,6.7,6.3C91.3,273.3,91.1,275.7,91.1,278C91.1,278,91.1,278,91.1,278z"/>
	<path class="st0" d="M51.4,317.8c0,2.2,0.2,4.5,0,6.7c-0.3,3.7-3.2,6.4-6.6,6.4c-3.5,0.1-6.5-2.8-6.7-6.7c-0.2-4.3-0.2-8.7,0-13.1
		c0.2-4,3-6.8,6.5-6.8c3.4-0.1,6.5,2.8,6.8,6.7C51.5,313.3,51.4,315.5,51.4,317.8z"/>
	<path class="st0" d="M91.1,317.8c0,2.2,0.2,4.5,0,6.7c-0.3,3.7-3.2,6.4-6.6,6.5c-3.5,0.1-6.6-2.8-6.7-6.7c-0.2-4.5-0.2-9,0-13.4
		c0.2-3.8,3.1-6.4,6.5-6.5c3.2-0.1,6.4,2.7,6.7,6.3C91.3,313,91.1,315.4,91.1,317.8C91.1,317.8,91.1,317.8,91.1,317.8z"/>
	<path class="st0" d="M51.4,238.2c0,2.2,0.2,4.5,0,6.7c-0.3,3.9-3.4,6.7-6.9,6.5c-3.4-0.1-6.3-2.9-6.4-6.6c-0.2-4.5-0.2-9,0-13.4
		c0.2-3.7,3.1-6.4,6.4-6.6c3.4-0.1,6.5,2.8,6.8,6.6C51.5,233.7,51.4,236,51.4,238.2z"/>
	<path class="st0" d="M51.4,278c0,2.2,0.2,4.5,0,6.7c-0.3,3.7-3.2,6.4-6.5,6.5c-3.5,0.1-6.6-2.7-6.7-6.6c-0.2-4.5-0.2-9,0-13.4
		c0.2-3.7,3.1-6.4,6.5-6.5c3.2-0.1,6.4,2.7,6.7,6.3C51.5,273.3,51.3,275.7,51.4,278C51.3,278,51.3,278,51.4,278z"/>
	<path class="st10" d="M170.7,357.3c0-26.4-0.1-52.7-0.1-79.1c0-4.1,2.7-6.8,6.8-6.9c13-0.1,26-0.1,39,0c4.1,0,6.8,2.8,6.8,6.9
		c0,26.4,0,52.7-0.1,79.1C205.7,357.3,188.2,357.3,170.7,357.3z"/>
	<path class="st0" d="M316.1,238.3c0,2.2,0.1,4.5,0,6.7c-0.3,3.7-3.1,6.4-6.5,6.4c-3.4,0.1-6.5-2.6-6.7-6.3c-0.3-4.6-0.2-9.2,0-13.8
		c0.2-3.7,3.3-6.5,6.5-6.5c3.5,0,6.4,2.8,6.7,6.7C316.3,233.8,316.1,236.1,316.1,238.3z"/>
	<path class="st0" d="M355.9,317.6c0,2.2,0.1,4.5,0,6.7c-0.3,3.9-3.3,6.7-6.8,6.6c-3.4-0.1-6.3-2.8-6.5-6.5c-0.2-4.5-0.2-9,0-13.4
		c0.2-3.9,3.3-6.7,6.8-6.6c3.6,0.1,6.3,2.9,6.5,6.9C356,313.4,355.9,315.5,355.9,317.6z"/>
	<path class="st0" d="M355.9,238.3c0,2.2,0.2,4.5,0,6.7c-0.3,3.7-3.2,6.4-6.6,6.4c-3.4,0-6.4-2.6-6.6-6.3c-0.3-4.6-0.2-9.2,0-13.8
		c0.2-3.6,3.3-6.4,6.6-6.5c3.5,0,6.4,2.8,6.7,6.7C356,233.9,355.9,236.1,355.9,238.3C355.9,238.3,355.9,238.3,355.9,238.3z"/>
	<path class="st0" d="M302.8,277.9c0-2.2-0.1-4.5,0-6.7c0.3-3.7,3.2-6.5,6.5-6.6c3.5-0.1,6.6,2.8,6.8,6.6c0.2,4.5,0.2,9,0,13.4
		c-0.2,3.7-3.1,6.4-6.5,6.5c-3.5,0.1-6.5-2.7-6.8-6.6C302.7,282.4,302.8,280.2,302.8,277.9z"/>
	<path class="st0" d="M355.9,278.1c0,2.2,0.2,4.5,0,6.7c-0.3,3.7-3.2,6.4-6.6,6.4c-3.4,0-6.4-2.7-6.6-6.3c-0.2-4.6-0.2-9.2,0-13.8
		c0.2-3.6,3.3-6.4,6.6-6.4c3.5,0,6.4,2.9,6.7,6.8C356,273.6,355.9,275.9,355.9,278.1C355.9,278.1,355.9,278.1,355.9,278.1z"/>
	<path class="st0" d="M316.2,317.6c0,2.2,0.1,4.5,0,6.7c-0.3,3.9-3.2,6.7-6.8,6.6c-3.3-0.1-6.4-2.9-6.5-6.5c-0.2-4.5-0.2-9,0-13.4
		c0.2-3.9,3.4-6.7,6.8-6.6c3.6,0.1,6.2,2.9,6.5,6.9C316.3,313.4,316.2,315.5,316.2,317.6z"/>
	<path class="st0" d="M183.5,232.1c0,2.2,0.1,4.5,0,6.7c-0.2,3.3-3.2,6.1-6.4,6.1c-3.2,0-6.3-2.7-6.4-6.1c-0.2-4.7-0.2-9.5,0-14.2
		c0.1-3.7,2.7-6,6.3-6c3.8-0.1,6.3,2.2,6.6,6.1c0,0.2,0,0.5,0,0.7C183.6,227.6,183.6,229.9,183.5,232.1
		C183.6,232.1,183.5,232.1,183.5,232.1z"/>
	<path class="st0" d="M223.3,231.8c0,2.4,0.1,4.7,0,7.1c-0.2,3.3-3.3,6-6.5,6c-3.2,0-6.2-2.8-6.4-6.1c-0.2-4.7-0.2-9.5,0-14.2
		c0.1-3.7,2.7-6,6.3-6c3.8-0.1,6.3,2.2,6.6,6.1C223.4,227,223.3,229.4,223.3,231.8C223.3,231.8,223.3,231.8,223.3,231.8z"/>
</g>
</svg>
