<?xml version="1.0" encoding="utf-8"?>
<!-- Generator: Adobe Illustrator 23.0.0, SVG Export Plug-In . SVG Version: 6.00 Build 0)  -->
<svg version="1.1" id="Layer_1" xmlns="http://www.w3.org/2000/svg" xmlns:xlink="http://www.w3.org/1999/xlink" x="0px" y="0px"
	 width="46.1px" height="46.1px" viewBox="0 0 46.1 46.1" style="enable-background:new 0 0 46.1 46.1;" xml:space="preserve">
<style type="text/css">
	.st0{fill:#010101;}
	.st1{fill:#FBC79C;}
	.st2{fill:#6288F9;}
</style>
<g>
	<path d="M0,20.6c0.7-1,1.5-1.9,2.2-2.9c2.1-2.6,4.2-5.2,6.3-7.9C9,9.2,9.4,9.1,10,9.6c1.1,0.7,2.2,1.4,3.3,2.1
		c1,0.7,2.1,1.2,3.3,1.5c1.1,0.2,2.1,0.6,3.2,0.9c0.2,0.1,0.4,0.1,0.6,0c1.4-0.4,2.9-0.8,4.3-1.2c0.4-0.1,0.7-0.2,1.1-0.2
		c1.8,0,3.7,0,5.5,0c0.4,0,0.7-0.1,1-0.3c1.4-0.9,2.9-1.8,4.3-2.7c0.7-0.4,1.1-0.4,1.6,0.3c2.5,3.2,4.9,6.4,7.4,9.6
		c0.5,0.7,0.5,1.1-0.2,1.6c-1.3,1.1-2.6,2.2-3.9,3.4c-0.2,0.2-0.3,0.3-0.4,0.6c-0.9,1.8-1.7,3.7-2.6,5.5c-0.1,0.2-0.1,0.4,0,0.6
		c1,2-0.3,4.4-2.6,4.6c-0.2,0-0.3,0-0.3,0.3c-0.3,1.8-1.2,2.7-3,3c-0.3,0-0.2,0.2-0.2,0.4c-0.2,1.5-1.1,2.6-2.6,2.8
		c-0.5,0.1-0.6,0.3-0.7,0.8c-0.4,2.3-3.3,3.4-5.1,1.8c-0.3-0.3-0.5-0.2-0.7,0c-0.9,1-2,1.3-3.3,0.9c-1.2-0.4-2-1.2-2.2-2.5
		c0-0.2-0.1-0.2-0.3-0.2c-1.9,0.1-3.2-1-3.4-2.9c0-0.3-0.1-0.3-0.4-0.3c-1.7-0.2-2.9-1.5-2.9-3.3c0-0.3,0-0.4-0.3-0.5
		c-2.2-0.5-3.2-3.1-1.9-5c0.2-0.3,0.2-0.4,0-0.6C7.4,29,6.2,27.4,5,25.8c-0.6-0.8-1.5-1.4-2.3-2.1c-0.7-0.6-1.4-1.2-2.1-1.8
		c-0.2-0.2-0.3-0.4-0.5-0.5C0,20.9,0,20.7,0,20.6z"/>
	<path d="M27.9,11c-0.6,0-1.1-0.7-0.8-1.3c0-0.1,0.1-0.2,0.1-0.2c2.1-2.1,4.2-4.2,6.3-6.2C34,2.8,34.8,3.1,35,3.8
		c0.1,0.3-0.1,0.6-0.3,0.8c-2,2-4.1,4.1-6.1,6.1C28.3,10.9,28.1,11,27.9,11z"/>
	<path d="M12,3c0.3,0,0.5,0.1,0.7,0.3c2,2,4,4,6.1,6.1c0.4,0.4,0.4,0.9,0,1.3c-0.4,0.4-0.9,0.4-1.3,0c-2-2-4-4-6.1-6.1
		c-0.3-0.3-0.4-0.7-0.2-1.1C11.3,3.2,11.6,3,12,3z"/>
	<path d="M22.1,7.5c0-0.8,0-1.6,0-2.4c0-0.6,0.4-1,0.9-1s0.9,0.4,0.9,1c0,1.6,0,3.3,0,4.9c0,0.6-0.4,1-0.9,1s-0.9-0.4-0.9-1
		C22.1,9.2,22.1,8.3,22.1,7.5z"/>
	<path class="st0" d="M23,2.3c-0.5,0-0.9-0.4-0.9-0.9s0.4-0.9,0.9-0.9s0.9,0.4,0.9,0.9S23.5,2.3,23,2.3z"/>
	<path class="st1" d="M17.6,15.3c-0.1,0.2-0.2,0.4-0.3,0.5c-1.1,1.9-2.1,3.7-3.2,5.6s-0.1,4.2,2,4.7c1.4,0.4,2.8-0.2,3.6-1.5
		c0.7-1.2,1.4-2.4,2.1-3.6c0.1-0.3,0.3-0.3,0.6-0.3c1.1,0.1,2.2,0.2,3.3,0.2c0.2,0,0.4,0.1,0.6,0.3c3.5,3.5,6.9,6.9,10.4,10.4
		c0.6,0.6,0.6,1.5,0.1,2c-0.6,0.6-1.4,0.5-2-0.1c-1.9-1.9-3.7-3.7-5.6-5.6c-0.1-0.1-0.2-0.2-0.4-0.3c-0.3-0.2-0.8-0.2-1.1,0.1
		c-0.3,0.3-0.4,0.8-0.1,1.1c0.1,0.1,0.2,0.2,0.3,0.3c1.9,1.9,3.7,3.8,5.6,5.6c0.8,0.8,0.5,2.1-0.6,2.4c-0.6,0.2-1-0.1-1.5-0.5
		c-1.2-1.2-2.4-2.4-3.6-3.6c-0.1-0.1-0.2-0.2-0.3-0.3c-0.4-0.3-0.9-0.2-1.2,0.1c-0.3,0.3-0.3,0.8-0.1,1.1c0.2,0.3,0.5,0.5,0.7,0.7
		c1.1,1.1,2.2,2.2,3.2,3.3c0.8,0.8,0.5,2.1-0.6,2.3c-0.5,0.1-1,0-1.4-0.4c-0.7-0.7-1.3-1.4-2-2c-0.5-0.5-1.3-0.4-1.5,0.2
		c-0.2,0.4,0,0.8,0.3,1.1c0.7,0.7,1.4,1.4,2,2.1c0.8,0.8,0.4,2-0.6,2.3c-0.6,0.2-1-0.1-1.5-0.5c-0.1-0.1-0.1-0.2,0-0.4
		c0.7-2-0.2-3.8-2.2-4.3c-0.2-0.1-0.2-0.1-0.2-0.3c0.2-1.9-1-3.4-2.9-3.6c-0.2,0-0.3,0-0.3-0.3c-0.2-2-1.6-3.1-3.5-3
		c-0.3,0-0.3,0-0.4-0.3c-0.6-2.1-3.1-3-4.9-1.8c-0.2,0.2-0.4,0.2-0.5-0.1c-1-1.4-2-2.7-3-4.1c-0.2-0.2-0.2-0.3,0-0.6
		c2.6-3.2,5.3-6.4,7.9-9.6c0.1-0.1,0.2-0.3,0.4-0.2C15.9,14.9,16.7,15.1,17.6,15.3z"/>
	<path class="st1" d="M37,29.5c-0.2-0.2-0.2-0.4-0.3-0.5c-3.1-3.2-6.3-6.3-9.4-9.5C27,19.2,26.7,19,26.2,19c-1.5-0.1-3-0.2-4.5-0.3
		c-0.5,0-0.8,0.2-1.1,0.6c-0.8,1.4-1.6,2.8-2.4,4.2c-0.3,0.5-0.8,0.8-1.4,0.7c-0.6-0.1-0.9-0.4-1.1-0.9c-0.1-0.4-0.1-0.8,0.1-1.2
		c1.1-1.9,2.2-3.8,3.2-5.7c0.1-0.2,0.2-0.2,0.4-0.3c2-0.6,4-1.2,6.1-1.7c0.2-0.1,0.4-0.1,0.5-0.1c1.8,0,3.6,0,5.5,0
		c0.3,0,0.5,0.1,0.6,0.3c2.4,3.1,4.8,6.1,7.2,9.2c0.2,0.3,0.2,0.5,0.1,0.7C38.5,26.2,37.8,27.8,37,29.5z"/>
	<path class="st2" d="M13.2,13.8c0,0.1-0.1,0.1-0.2,0.2c-2.5,3-5,6.1-7.5,9.1c-0.2,0.2-0.3,0.3-0.5,0.1c-0.9-0.8-1.8-1.6-2.7-2.3
		c-0.2-0.2-0.2-0.3,0-0.5c1.9-2.3,3.8-4.7,5.7-7c0.4-0.5,0.9-1.1,1.3-1.6c0.2-0.2,0.3-0.3,0.5-0.1c1,0.7,2.1,1.3,3.1,2
		C13.1,13.6,13.2,13.7,13.2,13.8z"/>
	<path class="st2" d="M43.8,20.1c0,0.1-0.1,0.2-0.2,0.2c-0.9,0.8-1.8,1.6-2.8,2.4c-0.2,0.2-0.3,0.1-0.4,0c-2.2-2.9-4.5-5.7-6.8-8.6
		c-0.2-0.2-0.1-0.3,0.1-0.4c1.1-0.7,2.1-1.3,3.1-2c0.2-0.1,0.3-0.1,0.4,0.1c2.1,2.7,4.2,5.5,6.3,8.2C43.7,20,43.8,20,43.8,20.1z"/>
	<path class="st1" d="M14,37.9c-0.6,0-1-0.3-1.3-0.8c-0.2-0.5-0.2-1.1,0.2-1.5c0.7-0.8,1.5-1.5,2.2-2.2c0.5-0.5,1.3-0.5,1.8,0
		s0.6,1.3,0.2,1.9c-0.8,0.8-1.6,1.6-2.4,2.4C14.5,37.8,14.2,37.9,14,37.9z"/>
	<path class="st1" d="M15.8,39.8c0-0.4,0.1-0.7,0.4-1c0.7-0.7,1.4-1.4,2.1-2.1c0.6-0.6,1.4-0.6,2,0c0.5,0.5,0.6,1.4,0,2
		c-0.7,0.7-1.4,1.4-2.2,2.2c-0.4,0.4-0.9,0.5-1.5,0.3C16.1,40.8,15.8,40.4,15.8,39.8z"/>
	<path class="st1" d="M23.3,41.3c0,1-1.5,2.7-2.4,2.7c-0.6,0-1-0.2-1.3-0.7s-0.2-1.1,0.2-1.5c0.4-0.5,0.8-0.9,1.3-1.3
		c0.4-0.4,0.9-0.4,1.5-0.2C23,40.5,23.3,40.9,23.3,41.3z"/>
	<path class="st1" d="M12.2,30.4c0.6,0,1,0.3,1.2,0.8s0.2,1.1-0.2,1.5c-0.4,0.4-0.8,0.9-1.3,1.3c-0.5,0.5-1.3,0.4-1.8-0.1
		s-0.6-1.3-0.1-1.8c0.4-0.5,0.9-0.9,1.4-1.4C11.6,30.5,11.9,30.4,12.2,30.4z"/>
</g>
</svg>
