<?xml version="1.0" encoding="utf-8"?>
<!-- Generator: Adobe Illustrator 23.0.0, SVG Export Plug-In . SVG Version: 6.00 Build 0)  -->
<svg version="1.1" id="Layer_1" xmlns="http://www.w3.org/2000/svg" xmlns:xlink="http://www.w3.org/1999/xlink" x="0px" y="0px"
	 width="179.9px" height="145.6px" viewBox="0 0 179.9 145.6" style="enable-background:new 0 0 179.9 145.6;" xml:space="preserve"
	>
<style type="text/css">
	.st0{opacity:0.5;fill:#FFD45A;}
	.st1{fill:#985E2A;}
	.st2{fill:#3C2415;}
	.st3{fill:#FAC770;}
	.st4{fill:#754C29;}
	.st5{fill:#C49A6C;}
	.st6{fill:#FFFFFF;}
	.st7{fill:#F27482;}
	.st8{fill:none;stroke:#3C2415;stroke-width:2.556;stroke-linecap:round;stroke-linejoin:round;stroke-miterlimit:10;}
	.st9{fill:#F04E4C;}
</style>
<g>
	<path class="st0" d="M138.3,75.9c-0.4,0-0.9,0-1.3-0.1v0.1h-11c4,0.7,7,4.2,7,8.3c0,2.9-1.5,5.5-3.8,7.1h8.4v0.1
		c0.4,0,0.8-0.1,1.1-0.1c5.8,0,10.5,4.7,10.5,10.5c0,4.1-2.4,7.7-5.9,9.4c5.1,1.3,8.8,6,8.8,11.5c0,6.5-5.3,11.8-11.8,11.8
		c-0.4,0-0.9,0-1.3-0.1v0.1H13.9c-6.5,0-11.8-5.3-11.8-11.8c0-6.5,5.3-11.8,11.8-11.8h7.8c-3.1-1.8-5.1-5.2-5.1-9
		c0-3.8,2.1-7.2,5.2-9h-11c-4.7,0-8.5-3.8-8.5-8.5c0-4.5,3.5-8.2,7.9-8.5C4.4,75,0,70.1,0,64.1c0-6.5,5.3-11.8,11.8-11.8H22
		c-4.7-1-8.3-5.2-8.3-10.2c0-4.5,2.8-8.3,6.7-9.8h-9.7c-4.7,0-8.5-3.8-8.5-8.5c0-4.7,3.8-8.5,8.5-8.5h18.9c-2-1.5-3.4-4-3.4-6.8
		c0-4.7,3.8-8.5,8.5-8.5h89.7v0.1c0.3,0,0.6-0.1,0.9-0.1c4.7,0,8.5,3.8,8.5,8.5c0,4.7-3.8,8.5-8.5,8.5c-0.3,0-0.6,0-0.9-0.1V17h-18
		c2,1.5,3.4,4,3.4,6.8c0,3.5-2.1,6.5-5.1,7.8h30.1v0.1c0.4,0,0.8-0.1,1.1-0.1c5.8,0,10.5,4.7,10.5,10.5c0,5-3.6,9.2-8.3,10.2
		c0.1,0,0.1,0,0.2,0c6.5,0,11.8,5.3,11.8,11.8C150.1,70.6,144.8,75.9,138.3,75.9z"/>
</g>
<g>
	<g>
		<g>
			<path class="st1" d="M130.8,86c-0.7,0-1.3-0.4-1.6-1l-18.1-37.4c0-0.1-0.1-0.2-0.1-0.3c0-0.1-2.2-6.9-4.2-13.8
				c-4.3-14.7-4-15.2-3.4-16.1c0.3-0.5,1-1.6,18.7-9.1c0.2-0.1,0.5-0.1,0.7-0.1c0.4,0,0.8,0.1,1.1,0.4c0.5,0.4,0.8,1,0.7,1.7
				c0,0.1-1.7,14.9,5.4,22.9c2.9,3.3,7,5.1,12.2,5.2c0.6,0,1.2,0.3,1.5,0.8c0.3,0.5,0.4,1.1,0.2,1.7c-0.2,0.6-5.7,15.7,21.8,27.9
				c0.7,0.3,1.1,1,1.1,1.7c0,0.7-0.5,1.4-1.1,1.7l-34.1,13.8C131.3,85.9,131.1,86,130.8,86z"/>
			<path class="st2" d="M122.9,9.9c0,0-3.5,29.7,19.3,30.1c0,0-6.9,17.1,22.7,30.3l-34.1,13.8l-18.1-37.4c0,0-8.5-27.2-7.8-28.4
				C105.7,17.2,122.9,9.9,122.9,9.9 M122.9,6.3c-0.5,0-1,0.1-1.4,0.3c-18.2,7.7-18.9,8.8-19.6,9.8c-1,1.6-0.7,3.3,0.4,7.8
				c0.6,2.4,1.5,5.7,2.7,9.8c2,6.9,4.2,13.8,4.2,13.8c0.1,0.2,0.1,0.3,0.2,0.5l18.1,37.4c0.6,1.3,1.9,2.1,3.3,2.1
				c0.5,0,0.9-0.1,1.4-0.3l34.1-13.8c1.4-0.5,2.2-1.9,2.3-3.3c0-1.5-0.8-2.8-2.2-3.4c-26.1-11.6-20.9-25.4-20.8-25.6
				c0.5-1.1,0.3-2.4-0.3-3.4c-0.7-1-1.8-1.6-3-1.6c-4.7-0.1-8.3-1.6-10.9-4.6c-3.3-3.8-4.5-9.4-4.9-13.4c-0.4-4.5,0-8,0-8.1
				c0.2-1.3-0.4-2.6-1.4-3.3C124.4,6.6,123.6,6.3,122.9,6.3L122.9,6.3z"/>
		</g>
	</g>
	<g>
		<g>
			<path class="st3" d="M98.5,143.3c-3.5,0-7-0.3-10.4-1c-4.4-0.6-8.7-1.7-12.9-3.2c-5.5-2-10.7-4.7-15.6-7.9
				c-5.2-3.4-9.8-7.3-13.8-11.7c-2.7-3-5.2-6.3-7.2-9.8c-2.1-3.6-3.9-7.3-5.3-11.2c-7.2-19.1-5-40.5,5.9-58.6
				C50,22,67.5,10.2,87.3,7.7c5.2-0.7,10.5-1.5,15.9-1.5c4.4,0,8.3,0.5,12,1.6c2.4,0.6,4.9,1.5,7.4,2.5c0.4,0.2,0.7,0.5,0.8,0.9
				c0.1,0.4,0,0.8-0.3,1.2l-0.9,1c-1.8,2.6-2.9,5.5-3.2,8.7v0.6l0.2,5.1c0.6,3.2,2,6.1,4.1,8.6c3.1,3.6,7.6,6,12.3,6.4
				c0,0,0.1,0,0.1,0c0.1,0,0.2,0,0.3,0c0.4,0,0.8,0.3,1,0.6c0.2,0.3,0.3,0.8,0.1,1.2c-0.6,1.6-1,3.2-1.2,4.9
				c-0.5,4.9,1.1,9.8,4.2,13.6l3.6,3.3c2.6,1.8,5.5,2.9,8.7,3.2h0.6l5.1-0.2c1.8-0.3,3.6-0.9,5.2-1.8c0.2-0.1,0.4-0.1,0.6-0.1
				c0.2,0,0.4,0.1,0.6,0.2c0.4,0.2,0.6,0.6,0.7,1c0.2,2.2,0.3,4.2,0.4,6.1c0.6,16.7-6.4,34-19.3,47.3
				C133.1,135.5,115.7,143.3,98.5,143.3C98.5,143.3,98.5,143.3,98.5,143.3z"/>
			<path class="st2" d="M103.1,7.5c3.9,0,7.7,0.4,11.6,1.5c2.4,0.6,4.9,1.5,7.2,2.4c-0.3,0.4-0.6,0.7-1,1.1c-2,2.8-3.1,6-3.5,9.4
				v0.7c0.1,1.8,0.1,3.5,0.2,5.3c0.6,3.5,2.1,6.6,4.4,9.3c3.3,3.9,8.1,6.4,13.1,6.9c0.1,0,0.3,0,0.5,0c-0.7,1.7-1.1,3.4-1.3,5.2
				c-0.5,5.2,1.2,10.6,4.6,14.6c1.2,1.1,2.5,2.3,3.7,3.4c2.8,2,6,3.1,9.4,3.5h0.7c1.8-0.1,3.5-0.1,5.3-0.2c2-0.4,3.9-1,5.7-1.9
				c0.2,2,0.3,4,0.4,6c1.3,35.1-31,67.4-65.6,67.4c-3.4,0-6.8-0.3-10.2-1c-4.2-0.6-8.4-1.6-12.6-3.2c-5.2-2-10.4-4.6-15.3-7.8
				c-4.9-3.2-9.5-7-13.5-11.5c-2.6-2.9-5-6.1-7.1-9.6c-2.1-3.4-3.8-7.1-5.2-11C19.7,58.5,47.1,14.2,87.4,9
				C92.7,8.2,97.9,7.5,103.1,7.5 M103.1,4.9c-5.4,0-10.8,0.8-16,1.5c-10.2,1.3-19.8,5-28.5,11C50.4,23,43.3,30.5,38.1,39.2
				C27,57.7,24.8,79.4,32.1,99c1.4,4,3.3,7.8,5.5,11.4c2.1,3.5,4.6,6.9,7.4,10c4,4.4,8.7,8.4,14,11.9c5,3.2,10.3,6,15.8,8
				c4.2,1.6,8.6,2.7,13.1,3.3c3.5,0.7,7,1,10.6,1c17.5,0,35.3-8,48.6-21.8c13.1-13.6,20.2-31.1,19.6-48.2c0-2-0.2-4-0.4-6.2
				c-0.1-0.9-0.6-1.6-1.4-2c-0.4-0.2-0.8-0.3-1.2-0.3c-0.4,0-0.8,0.1-1.2,0.3c-1.5,0.8-3.1,1.3-4.8,1.6l-4.4,0.2l-0.6,0h-0.5
				c-2.9-0.3-5.5-1.3-7.9-2.9l-1.7-1.6l-1.7-1.6c-2.9-3.5-4.3-8-3.9-12.5c0.1-1.5,0.5-3,1.1-4.5c0.3-0.8,0.2-1.6-0.2-2.3
				c-0.4-0.7-1.2-1.1-2-1.2c-0.1,0-0.2,0-0.3,0l-0.1,0c-4.4-0.4-8.5-2.6-11.4-6c-2-2.3-3.2-4.9-3.8-7.9l-0.1-1.6
				c0-1.2-0.1-2.3-0.1-3.5v-0.5c0.3-2.9,1.3-5.5,2.9-7.9l0.2-0.2l0.7-0.7c0.6-0.6,0.8-1.5,0.6-2.3c-0.2-0.8-0.8-1.5-1.6-1.8
				c-2.5-1-5.1-1.9-7.5-2.5C111.7,5.4,107.6,4.9,103.1,4.9L103.1,4.9z"/>
		</g>
		<g>
			<path class="st3" d="M163.8,68.6c-1.8,0.9-3.6,1.6-5.7,1.9c-0.9,0-1.8,0.1-2.7,0.1c-1.7,36.7-39.1,68.8-75.8,61.9
				c-4.2-0.6-8.4-1.6-12.6-3.2c-5.2-2-10.4-4.6-15.3-7.8c-2.2-1.5-4.4-3-6.4-4.7c0.5,0.6,1,1.2,1.6,1.8c4,4.4,8.6,8.2,13.5,11.5
				c4.9,3.2,10.1,5.8,15.3,7.8c4.2,1.6,8.4,2.6,12.6,3.2c38.2,7.2,77.2-27.9,75.8-66.4C164.1,72.6,164,70.6,163.8,68.6z"/>
		</g>
		<g>
			<path class="st4" d="M52,48.7c-4.9,0-8.7-4.1-8.8-9.5c0-2.5,1-4.8,2.8-6.7c2-2,4.7-3.2,7.4-3.2c3,0,5.6,1.4,7.3,4.1
				c2.7,4.2,1.2,10.5-3.1,13.5C55.8,48.1,53.9,48.7,52,48.7C52,48.7,52,48.7,52,48.7z"/>
			<path class="st2" d="M53.4,30.7c2.3,0,4.6,1,6.2,3.5c2.4,3.7,0.8,9.3-2.8,11.7c-1.6,1.1-3.2,1.6-4.8,1.6c-4,0-7.4-3.3-7.5-8.2
				C44.4,34.4,49,30.7,53.4,30.7 M53.4,28.1c-3,0-6.1,1.3-8.3,3.6c-2.1,2.1-3.2,4.8-3.2,7.6C42,45.4,46.3,50,52,50
				c2.2,0,4.3-0.7,6.3-2.1c4.9-3.4,6.5-10.5,3.5-15.3C59.8,29.7,56.8,28.1,53.4,28.1L53.4,28.1z"/>
		</g>
		<g>
			<path class="st5" d="M59.5,34.1c-0.3-0.5-0.6-0.9-1-1.3c1.1,3.6-0.5,8-3.5,10.1c-3.6,2.5-7.6,1.9-10-0.7c1.7,4.7,7,6.9,11.7,3.6
				C60.3,43.4,61.9,37.8,59.5,34.1z"/>
		</g>
		<g>
			<path class="st4" d="M117.7,26.9c-0.2,0-0.4-0.1-0.6-0.2c-0.9-0.5-1.6-1-2.2-1.6c-3.6-3.5-4.1-10-0.9-14.3
				c1.5-2.1,3.5-3.2,5.9-3.2c1.2,0,2.6,0.3,4.2,0.8c0.4,0.1,0.7,0.5,0.8,0.9c0.1,0.4,0,0.9-0.3,1.2l-2.5,2.7
				c-1.8,2.6-2.9,5.5-3.2,8.7v0.6l0.1,3c0,0.5-0.2,0.9-0.6,1.2C118.1,26.9,117.9,26.9,117.7,26.9z"/>
			<path class="st2" d="M119.8,9c1.2,0,2.5,0.3,3.8,0.8c-0.8,0.9-1.7,1.8-2.5,2.8c-2,2.8-3.1,6-3.5,9.4v0.7c0,1,0.1,2,0.1,3
				c-0.7-0.4-1.4-0.9-1.9-1.4c-3.3-3.2-3.4-9-0.8-12.6C116.3,9.7,118,9,119.8,9 M119.8,6.4c-2.8,0-5.2,1.2-6.9,3.7
				c-3.5,4.9-3.1,12.1,1.1,16c0.7,0.6,1.5,1.2,2.5,1.8c0.4,0.2,0.8,0.3,1.3,0.3c0.5,0,0.9-0.1,1.4-0.4c0.8-0.5,1.3-1.4,1.2-2.3
				l0-0.8c0-0.7-0.1-1.5-0.1-2.2v-0.5c0.3-2.9,1.3-5.5,2.9-7.9l1.6-1.8l0.8-0.9c0.6-0.6,0.8-1.5,0.6-2.4c-0.2-0.8-0.8-1.5-1.7-1.8
				C122.6,6.7,121.2,6.4,119.8,6.4L119.8,6.4z"/>
		</g>
		<g>
			<path class="st5" d="M117.6,23.5c-1.4-0.5-2.6-1.1-3.6-1.8c0.4,1,1,1.9,1.8,2.6c0.5,0.5,1.2,1,1.9,1.4
				C117.6,24.9,117.6,24.2,117.6,23.5z"/>
		</g>
		<g>
			<path class="st4" d="M114.3,121.8c-3.4,0-5.8-0.9-7.3-2.7c-1.4-1.7-1.9-4.1-1.4-7.1c1-5.7,6.3-10.5,11.5-10.5
				c3.2,0,5.9,1.7,7.6,4.9c1.6,2.9,1.6,6.4,0,9.5c-1.7,3.2-4.8,5.4-8.3,5.7C115.7,121.7,115,121.8,114.3,121.8L114.3,121.8z"/>
			<path class="st2" d="M117.1,102.8c2.4,0,4.8,1.2,6.5,4.2c3.1,5.6-1.1,12.7-7.3,13.3c-0.7,0.1-1.3,0.1-2,0.1
				c-5.1,0-8.4-2.3-7.4-8.2C107.8,107.1,112.6,102.8,117.1,102.8 M117.1,100.2c-5.9,0-11.7,5.3-12.8,11.6c-0.6,3.4,0,6.1,1.7,8.1
				c1.8,2.1,4.6,3.1,8.3,3.1c0.7,0,1.5,0,2.2-0.1c4-0.4,7.5-2.8,9.4-6.4c1.8-3.5,1.8-7.5,0-10.8
				C123.9,102.1,120.8,100.2,117.1,100.2L117.1,100.2z"/>
		</g>
		<g>
			<path class="st5" d="M123.6,107c-0.9-1.7-2.1-2.8-3.4-3.5c0.3,0.4,0.5,0.7,0.8,1.2c3.1,5.6-1.1,12.7-7.3,13.3
				c-2.5,0.2-4.6,0.1-6.3-0.7c1.4,2.6,4.7,3.4,8.8,3C122.5,119.7,126.7,112.6,123.6,107z"/>
		</g>
		<g>
			<path class="st4" d="M134.7,55.9c-0.4,0-0.8-0.2-1.1-0.6c-1.7-2.7-1.7-6.2,0.1-8.7c0.3-0.3,0.6-0.5,1.1-0.5c0.2,0,0.3,0,0.5,0.1
				c0.6,0.2,0.9,0.8,0.8,1.4c-0.1,0.6-0.2,1.1-0.3,1.8c-0.1,1.6-0.1,3.3,0.2,5c0.1,0.6-0.2,1.2-0.8,1.4
				C135,55.9,134.9,55.9,134.7,55.9z"/>
			<path class="st2" d="M134.7,47.4L134.7,47.4 M134.7,47.4c-0.1,0.6-0.2,1.3-0.3,1.9c-0.2,1.8-0.1,3.6,0.3,5.3
				C133.3,52.4,133.3,49.4,134.7,47.4 M134.7,44.8c-0.1,0-0.1,0-0.2,0c-0.4,0-0.9,0.2-1.2,0.4c-0.2,0.1-0.4,0.3-0.6,0.5
				c0,0.1-0.1,0.1-0.1,0.2c-2.1,2.9-2.1,7-0.1,10.1c0.5,0.8,1.3,1.2,2.2,1.2c0.3,0,0.6-0.1,1-0.2c1.2-0.5,1.8-1.7,1.6-2.9
				c-0.3-1.6-0.4-3.1-0.2-4.6c0.1-0.5,0.1-1.1,0.2-1.5c0-0.2,0.1-0.4,0.1-0.6c0-1.4-1.1-2.5-2.4-2.6
				C134.9,44.8,134.8,44.8,134.7,44.8L134.7,44.8z"/>
		</g>
		<g>
			<g>
				<path class="st4" d="M91.2,49.7c-3.3,0-5.7-2.1-6.5-5.6c-0.6-2.7,0-5.2,1.6-7.1c1.5-1.9,3.8-3,6.1-3c3.3,0,5.9,2.1,6.8,5.6
					c0.6,2.4,0.2,4.8-1.3,6.7C96.3,48.4,93.7,49.7,91.2,49.7C91.2,49.7,91.2,49.7,91.2,49.7z"/>
				<path class="st2" d="M92.4,35.3c2.4,0,4.7,1.4,5.5,4.6c1.3,4.8-2.9,8.5-6.7,8.5c-2.3,0-4.5-1.3-5.2-4.6
					C84.9,38.7,88.7,35.3,92.4,35.3 M92.4,32.7c-2.7,0-5.4,1.3-7.1,3.4c-1.8,2.2-2.5,5.2-1.8,8.2c0.9,4.1,3.8,6.6,7.7,6.6
					c2.9,0,5.9-1.5,7.7-3.9c1.7-2.3,2.3-5.1,1.5-7.9C99.3,35.2,96.3,32.7,92.4,32.7L92.4,32.7z"/>
			</g>
		</g>
		<g>
			<path class="st5" d="M97.9,39.9c-0.2-0.9-0.6-1.6-1-2.2c0.1,0.2,0.1,0.4,0.2,0.5c1.8,6.9-7.4,11.3-10.9,6.4
				C88.6,52,99.9,47.4,97.9,39.9z"/>
		</g>
		<g>
			<path class="st4" d="M40.2,105.7c-2.7,0-5.4-1.3-7.6-3.6c-2.3-2.4-3.5-5.5-3.4-8.5c0.3-5.8,6.2-9.9,11.3-9.9
				c3.1,0,5.7,1.4,7.2,3.9c2,3.4,1.8,8.9-0.5,13.2c-1.7,3.1-4.1,4.8-6.9,4.9C40.4,105.7,40.3,105.7,40.2,105.7z"/>
			<path class="st2" d="M40.6,84.9c2.5,0,4.8,1,6.2,3.3c3.2,5.3,0,16-6.3,16.2c-0.1,0-0.1,0-0.2,0c-4.9,0-10-5.3-9.8-10.8
				C30.7,88.6,35.9,84.9,40.6,84.9 M40.6,82.4c-2.9,0-5.9,1.1-8.3,3c-2.6,2.1-4.2,5-4.3,8.1c-0.2,3.3,1.2,6.8,3.7,9.4
				c2.4,2.5,5.5,4,8.5,4c0.1,0,0.2,0,0.3,0c3.2-0.1,6.1-2.1,7.9-5.5c2.5-4.6,2.7-10.7,0.4-14.4C47.2,84.1,44.1,82.4,40.6,82.4
				L40.6,82.4z"/>
		</g>
		<g>
			<path class="st5" d="M46.8,88.2c-1-1.6-2.4-2.6-4-3c0.1,0.2,0.3,0.4,0.4,0.6c3.2,5.3,0,16-6.3,16.2c-1.1,0-2.2-0.2-3.3-0.7
				c1.9,1.9,4.4,3.2,6.8,3.1C46.7,104.2,49.9,93.5,46.8,88.2z"/>
		</g>
		<g>
			<path class="st4" d="M95.8,143c-3.1,0-5.6-0.9-7.1-2.6c-1.1-1.2-1.5-2.8-1.3-4.6c0.6-4.7,4.3-8.3,8.6-8.3c2.6,0,5,1.3,6.6,3.7
				c1.6,2.3,2,5.1,1,7.4c-1,2.3-3.1,3.8-5.9,4.2C97.1,142.9,96.4,143,95.8,143C95.8,143,95.8,143,95.8,143z"/>
			<path class="st2" d="M96.1,128.9c2,0,4,1,5.6,3.2c2.8,4,0.9,8.8-4,9.5c-0.6,0.1-1.2,0.1-1.8,0.1c-3.7,0-7.6-1.5-7-5.7
				C89.3,131.7,92.6,128.9,96.1,128.9 M96.1,126.3c-5,0-9.2,4-9.9,9.4c-0.3,2.2,0.3,4.1,1.6,5.6c2.3,2.6,6,3,8,3
				c0.7,0,1.5-0.1,2.2-0.2c3.2-0.5,5.7-2.3,6.9-4.9c1.2-2.7,0.8-5.9-1.1-8.6C101.8,127.8,99.1,126.3,96.1,126.3L96.1,126.3z"/>
		</g>
		<g>
			<path class="st5" d="M101.6,132c-0.9-1.3-2.1-2.2-3.2-2.7c0.3,0.3,0.5,0.6,0.8,1c2.8,4,0.9,8.8-4,9.5c-1.8,0.3-3.9,0.1-5.6-0.5
				c1.6,2.1,5.2,2.6,8.1,2.2C102.6,140.9,104.4,136.1,101.6,132z"/>
		</g>
		<g>
			<path class="st4" d="M70.5,119.8c-3.6,0-6.6-1.6-7.9-4.1c-1.3-2.4-1.1-5.2,0.3-7.6c1.7-2.8,5-4.7,8.2-4.7c1.2,0,2.4,0.3,3.4,0.8
				c3.3,1.6,5.3,4.4,5.4,7.4c0.1,2.8-1.6,5.4-4.6,7.1C74,119.4,72.3,119.8,70.5,119.8L70.5,119.8z"/>
			<path class="st2" d="M71.1,104.7c1,0,1.9,0.2,2.9,0.7c5.7,2.8,6.5,9,0.7,12.2c-1.1,0.6-2.7,1-4.2,1c-2.7,0-5.6-1.1-6.8-3.4
				C61.1,110,66.1,104.7,71.1,104.7 M71.1,102.1c-3.7,0-7.3,2.1-9.3,5.3c-1.7,2.8-1.9,6-0.4,8.9c1.5,3,5,4.8,9.1,4.8
				c2,0,4-0.5,5.5-1.3c3.4-1.9,5.4-5,5.3-8.3c-0.1-3.5-2.4-6.7-6.1-8.5C73.9,102.4,72.5,102.1,71.1,102.1L71.1,102.1z"/>
		</g>
		<g>
			<path class="st5" d="M75.9,106.6c1,2.7,0,5.8-3.6,7.8c-2.4,1.3-6.5,1.4-9.1-0.4c0.1,0.4,0.2,0.7,0.4,1.1c1.9,3.7,7.9,4.2,11,2.4
				C79.7,114.7,79.7,109.7,75.9,106.6z"/>
		</g>
		<g>
			<path class="st4" d="M147.5,116.7c-3.6,0-6.6-1.6-7.9-4.1c-1.3-2.4-1.1-5.2,0.3-7.6c1.7-2.8,5-4.7,8.2-4.7c1.2,0,2.4,0.3,3.4,0.8
				c3.3,1.6,5.3,4.4,5.4,7.4c0.1,2.8-1.6,5.4-4.6,7.1C151,116.3,149.3,116.7,147.5,116.7L147.5,116.7z"/>
			<path class="st2" d="M148.1,101.5c1,0,2,0.2,2.9,0.7c5.7,2.8,6.5,9,0.7,12.2c-1.1,0.6-2.7,1-4.2,1c-2.7,0-5.6-1.1-6.8-3.4
				C138,106.8,143.1,101.5,148.1,101.5 M148.1,98.9c-3.7,0-7.3,2.1-9.3,5.3c-1.7,2.8-1.9,6-0.4,8.9c1.5,3,5,4.8,9.1,4.8
				c2,0,4-0.5,5.5-1.3c3.4-1.9,5.4-5,5.3-8.3c-0.1-3.5-2.4-6.7-6.1-8.5C150.8,99.2,149.5,98.9,148.1,98.9L148.1,98.9z"/>
		</g>
		<g>
			<path class="st5" d="M153.5,104c1.3,2.8,0.4,6.2-3.4,8.3c-2.6,1.5-7.1,1.4-9.7-0.8c0.1,0.2,0.1,0.3,0.2,0.5
				c1.9,3.7,7.9,4.2,11,2.4C156.4,111.8,156.7,107.1,153.5,104z"/>
		</g>
		<g>
			<path class="st4" d="M81.5,25.5c-5.2,0-9.7-2.6-11.4-6.6C67.9,14,72.8,8.5,76.6,6c1.3-0.8,3-1.3,4.9-1.3c3.7,0,7.6,1.6,9.8,4
				c1.5,1.6,2.2,3.8,1.9,6.3c-0.3,3.3-2.2,6.6-4.7,8.4C86.6,24.8,84.1,25.5,81.5,25.5L81.5,25.5z"/>
			<path class="st2" d="M81.5,6c3.3,0,6.9,1.5,8.9,3.6c3.4,3.7,0.9,10.3-2.6,12.8c-1.7,1.2-4,1.8-6.3,1.8c-4.2,0-8.6-2-10.2-5.8
				c-1.8-4.2,2.6-9.1,6.1-11.3C78.5,6.3,79.9,6,81.5,6 M81.5,3.4c-2.1,0-4.1,0.5-5.6,1.5c-2.3,1.5-4.4,3.5-5.8,5.7
				c-2,3.1-2.4,6.2-1.3,8.9c1.9,4.5,6.9,7.4,12.6,7.4c2.9,0,5.7-0.8,7.8-2.3c2.8-2,4.9-5.7,5.3-9.3c0.3-2.9-0.5-5.5-2.3-7.4
				C89.8,5.2,85.5,3.4,81.5,3.4L81.5,3.4z"/>
		</g>
		<g>
			<path class="st5" d="M90.4,9.6c-0.4-0.5-1-0.9-1.6-1.3C90.2,12,88,17,85,19.2c-3.6,2.6-9.7,2.4-13.6-0.5
				c2.7,5.7,11.6,7.1,16.4,3.7C91.3,19.9,93.7,13.3,90.4,9.6z"/>
		</g>
		<g>
			<path class="st4" d="M157.5,86.9c-4.8,0-8.9-2.6-10.5-6.6c-1.8-4.5,1.8-8.9,3.4-10.6c0.2-0.2,0.6-0.4,0.9-0.4c0.1,0,0.1,0,0.2,0
				l0.1,0c0.2,0,0.4,0.1,0.6,0.1h0.6l5.1-0.2c1.6-0.3,3.1-0.8,4.5-1.4c0.2-0.1,0.3-0.1,0.5-0.1c0.2,0,0.4,0.1,0.6,0.2
				c1.2,0.7,2.2,1.5,3,2.4c1.4,1.6,2,3.8,1.7,6.3c-0.3,3.2-2.1,6.5-4.3,8.2C162.3,86.2,160,86.9,157.5,86.9L157.5,86.9z"/>
			<path class="st2" d="M163,69c1,0.6,1.9,1.3,2.6,2.1c3.1,3.7,0.9,10.3-2.4,12.8c-1.6,1.2-3.6,1.8-5.7,1.8c-3.8,0-7.8-2-9.4-5.8
				c-1.3-3.2,0.7-6.7,3.2-9.2c0.3,0,0.6,0.1,0.9,0.1h0.7c1.8-0.1,3.5-0.1,5.3-0.2C159.9,70.2,161.5,69.7,163,69 M163,66.5
				c-0.4,0-0.7,0.1-1.1,0.2c-1.3,0.6-2.7,1.1-4.2,1.3l-4.4,0.2l-0.6,0h-0.5c-0.2,0-0.3,0-0.5-0.1l-0.1,0c-0.1,0-0.2,0-0.3,0
				c-0.7,0-1.3,0.3-1.8,0.8c-3.8,3.9-5.1,8.3-3.7,11.9c1.8,4.5,6.4,7.4,11.7,7.4c2.7,0,5.3-0.8,7.3-2.3c2.5-2,4.4-5.5,4.8-9.1
				c0.3-2.9-0.4-5.4-2-7.3c-0.9-1-2-1.9-3.3-2.7C163.9,66.6,163.5,66.5,163,66.5L163,66.5z"/>
		</g>
		<g>
			<path class="st5" d="M165.7,71.1c-0.2-0.3-0.5-0.5-0.8-0.8c1.2,3.7-0.8,8.7-3.5,10.8c-3.6,2.8-9.7,2.3-13.2-1.1
				c2.4,5.8,10.7,7.2,15,3.8C166.5,81.3,168.8,74.7,165.7,71.1z"/>
		</g>
		<g>
			<path class="st4" d="M52.7,76.1c-5.6,0-9.2-5.1-9.4-9.9c-0.2-4.6,2.7-7.8,7.3-8.1c0.2,0,0.4,0,0.6,0c5.2,0,8.6,4.9,8.9,9.6
				c0.3,4.5-2.2,7.8-6.3,8.4C53.5,76,53.1,76.1,52.7,76.1L52.7,76.1z"/>
			<path class="st2" d="M51.3,59.3c8.1,0,11,14.3,2.5,15.4c-0.4,0-0.7,0.1-1.1,0.1c-8.7,0-12-14.7-2-15.4
				C50.9,59.3,51.1,59.3,51.3,59.3 M51.3,56.7c-0.2,0-0.5,0-0.7,0c-5.3,0.4-8.7,4.2-8.5,9.5c0.2,5.4,4.4,11.2,10.7,11.2
				c0.5,0,0.9,0,1.4-0.1c4.8-0.6,7.7-4.6,7.4-9.7C61.1,62.2,57.2,56.7,51.3,56.7L51.3,56.7z"/>
		</g>
		<g>
			<path class="st5" d="M53.5,59.7c3.6,4.2,3.5,12-2.8,12.9c-1.4,0.2-2.6,0-3.7-0.4c1.6,1.8,3.9,2.9,6.7,2.6
				C61.4,73.7,59.9,62,53.5,59.7z"/>
		</g>
		<g>
			<g>
				<g>
					<path class="st2" d="M86.7,76.9c0,4.4-3.6,8-8,8c-4.4,0-8-3.6-8-8c0-4.4,3.6-8,8-8C83.1,69,86.7,72.5,86.7,76.9z"/>
					<path class="st6" d="M77.8,73.5c0,1.4-1.1,2.5-2.5,2.5c-1.4,0-2.5-1.1-2.5-2.5c0-1.4,1.1-2.5,2.5-2.5
						C76.6,71,77.8,72.1,77.8,73.5z"/>
					<path class="st6" d="M77.6,77.4c0,0.5-0.4,1-1,1c-0.5,0-1-0.4-1-1c0-0.5,0.4-1,1-1C77.1,76.4,77.6,76.9,77.6,77.4z"/>
					<path class="st6" d="M79.3,74.9c0,0.3-0.3,0.6-0.6,0.6c-0.3,0-0.6-0.3-0.6-0.6c0-0.3,0.3-0.6,0.6-0.6
						C79.1,74.3,79.3,74.5,79.3,74.9z"/>
					<path class="st7" d="M81.5,84.9c0,1-3.1,1.8-7,1.8c-3.9,0-7-0.8-7-1.8c0-1,3.1-1.8,7-1.8C78.4,83.1,81.5,83.9,81.5,84.9z"/>
				</g>
				<g>
					<path class="st2" d="M128.9,76.9c0,4.4-3.6,8-8,8c-4.4,0-8-3.6-8-8c0-4.4,3.6-8,8-8C125.3,69,128.9,72.5,128.9,76.9z"/>
					<path class="st6" d="M119.9,73.5c0,1.4-1.1,2.5-2.5,2.5c-1.4,0-2.5-1.1-2.5-2.5c0-1.4,1.1-2.5,2.5-2.5
						C118.8,71,119.9,72.1,119.9,73.5z"/>
					<path class="st6" d="M119.8,77.4c0,0.5-0.4,1-1,1c-0.5,0-1-0.4-1-1c0-0.5,0.4-1,1-1C119.3,76.4,119.8,76.9,119.8,77.4z"/>
					<path class="st6" d="M121.5,74.9c0,0.3-0.3,0.6-0.6,0.6c-0.3,0-0.6-0.3-0.6-0.6c0-0.3,0.3-0.6,0.6-0.6
						C121.2,74.3,121.5,74.5,121.5,74.9z"/>
					<path class="st7" d="M131.8,84.9c0,1-3.1,1.8-7,1.8c-3.9,0-7-0.8-7-1.8c0-1,3.1-1.8,7-1.8C128.7,83.1,131.8,83.9,131.8,84.9z"
						/>
				</g>
			</g>
			<g>
				<path class="st8" d="M116.6,68.4c0,0,6.4,2.4,11.1-2.9"/>
				<path class="st8" d="M80.9,63.3c0,0-6.4-2.4-11.1,2.9"/>
			</g>
			<g>
				<g>
					<path class="st9" d="M100.2,89.6c-2,0-3.6-2.5-3.6-5.7c0-3.2,1.6-5.7,3.6-5.7c2,0,3.6,2.5,3.6,5.7
						C103.8,87.1,102.2,89.6,100.2,89.6z"/>
					<path class="st2" d="M100.2,78.9c1.6,0,2.9,2.2,2.9,5c0,2.8-1.3,5-2.9,5c-1.6,0-2.9-2.2-2.9-5C97.4,81.1,98.6,78.9,100.2,78.9
						 M100.2,77.4c-2.5,0-4.3,2.8-4.3,6.4c0,3.7,1.8,6.4,4.3,6.4c2.4,0,4.3-2.8,4.3-6.4C104.5,80.2,102.7,77.4,100.2,77.4
						L100.2,77.4z"/>
				</g>
				<g>
					<path class="st6" d="M102.8,82.4c-0.1,0-0.2,0-0.3-0.1c-0.8-0.4-1.7-0.6-2.6-0.6c-0.6,0-1.3,0.1-1.9,0.3c-0.1,0-0.2,0-0.2,0
						c-0.2,0-0.4-0.1-0.5-0.2c-0.2-0.2-0.3-0.5-0.2-0.7c0.6-1.9,1.8-3,3.2-3c1.4,0,2.7,1.3,3.3,3.4c0.1,0.3,0,0.6-0.2,0.7
						C103.1,82.4,103,82.4,102.8,82.4z"/>
					<g>
						<path class="st2" d="M100.2,78.9c1.1,0,2.1,1.2,2.6,2.8c-0.9-0.5-2-0.7-3-0.7c-0.7,0-1.4,0.1-2.1,0.3
							C98.2,79.9,99.2,78.9,100.2,78.9 M100.2,77.4c-1.7,0-3.1,1.3-3.8,3.5c-0.2,0.5,0,1.1,0.3,1.5c0.3,0.3,0.6,0.4,1,0.4
							c0.2,0,0.3,0,0.5-0.1c0.5-0.2,1.1-0.3,1.6-0.3c0.8,0,1.6,0.2,2.3,0.5c0.2,0.1,0.4,0.2,0.6,0.2c0.3,0,0.6-0.1,0.9-0.3
							c0.4-0.4,0.6-0.9,0.5-1.5C103.5,78.9,102,77.4,100.2,77.4L100.2,77.4z"/>
					</g>
				</g>
			</g>
		</g>
	</g>
	<g>
		<g>
			<path class="st3" d="M145.7,23.5c-1.4,0-5.9-0.2-7.5-3c-0.5-0.9-0.8-2.5,0.5-4.6c0.5-0.8,1.2-1.5,1.8-2c0.6-0.6,1.2-1.1,1.6-1.9
				c0.1-0.2,0.2-0.4,0.2-0.5c0.4-0.9,0.9-2.3,2.9-2.3c0.3,0,0.7,0,1.1,0.1c2.5,0.5,3.1,2.9,3.4,4.5l0,0.1c0.3,1.3,0.5,1.5,1.1,2.1
				c0.3,0.3,0.7,0.7,1.2,1.3c1.3,1.6,1,2.9,0.7,3.6C151.7,22.7,148.4,23.5,145.7,23.5z"/>
			<g>
				<path class="st2" d="M145.2,10.3c0.2,0,0.5,0,0.8,0.1c1.8,0.4,2.1,2.1,2.5,3.6c0.6,2.4,1,2.1,2.5,3.9c2.2,2.7-1.5,4.2-5.3,4.2
					c-4.1,0-8.4-1.7-5.8-5.6c1.1-1.6,2.5-2.3,3.4-4C143.8,11.4,143.9,10.3,145.2,10.3 M145.2,7.7L145.2,7.7c-2.8,0-3.8,2.3-4.1,3.1
					c-0.1,0.2-0.1,0.3-0.2,0.5c-0.3,0.6-0.7,1-1.3,1.5c-0.6,0.6-1.3,1.3-1.9,2.2c-1.8,2.8-1.2,4.9-0.6,5.9c1.3,2.3,4.5,3.7,8.6,3.7
					c1.5,0,6.6-0.3,8.1-3.5c0.4-0.7,1-2.7-0.8-5c-0.5-0.6-0.9-1.1-1.3-1.4c-0.5-0.5-0.5-0.5-0.7-1.5l0-0.1c-0.4-1.7-1.1-4.8-4.4-5.5
					C146.1,7.8,145.7,7.7,145.2,7.7L145.2,7.7z"/>
			</g>
		</g>
		<g>
			<path class="st3" d="M151,17.9c-1.5-1.8-1.9-1.5-2.5-3.9c-0.3-1.5-0.7-3.2-2.5-3.6c-1.2-0.3-1.7,0-2.1,0.5c1,0.7,1.4,2.1,1.6,3.2
				c0.5,2.4,1,2.1,2.5,3.9c1.7,2.1-0.2,3.5-2.9,4C149.1,22.3,153.3,20.8,151,17.9z"/>
		</g>
	</g>
	<g>
		<g>
			<g>
				<path class="st3" d="M162.2,47.6c-2.6,0-6.8-1.6-7.7-4.2c-0.3-0.8-0.5-2.4,1.5-3.9c0.6-0.5,1.2-0.8,1.8-1c0.6-0.3,1-0.5,1.4-0.9
					c0.1-0.1,0.2-0.2,0.3-0.3c0.4-0.5,1-1.2,2.1-1.2c0.5,0,1,0.2,1.6,0.5c1.8,1.1,1.7,3.1,1.5,4.3l0,0.1c-0.1,0.9,0,1,0.2,1.5
					c0.1,0.3,0.3,0.7,0.5,1.2c0.5,1.3,0.2,2.2-0.2,2.7C164.9,46.9,164,47.6,162.2,47.6z"/>
				<g>
					<path class="st2" d="M161.5,37.3c0.3,0,0.6,0.1,1,0.3c1.2,0.7,1,2,0.9,3.1c-0.2,1.8,0.2,1.7,0.8,3.3c0.6,1.6-0.5,2.2-2,2.2
						c-3.4,0-9.1-3-5.5-5.8c1.1-0.9,2.3-1,3.3-2.1C160.6,37.9,160.9,37.3,161.5,37.3 M161.5,34.7L161.5,34.7c-1.7,0-2.6,1.1-3.1,1.7
						c-0.1,0.1-0.1,0.2-0.2,0.2c-0.2,0.2-0.5,0.4-1.1,0.6c-0.6,0.3-1.3,0.6-2,1.2c-2.7,2.1-2.2,4.5-1.9,5.4c1.2,3.3,6,5.1,9,5.1
						c2.4,0,3.5-1,4.1-1.8c0.4-0.6,1.1-2,0.3-3.9c-0.2-0.6-0.4-1-0.6-1.3c0-0.1-0.1-0.2-0.1-0.3c0-0.1,0-0.2,0-0.6l0-0.1
						c0.1-1.2,0.4-4-2.2-5.5C163,35,162.3,34.7,161.5,34.7L161.5,34.7z"/>
				</g>
			</g>
		</g>
		<g>
			<g>
				<path class="st3" d="M164.2,44.1c-0.6-1.6-1-1.5-0.8-3.3c0.1-1.1,0.3-2.4-0.9-3.1c-0.8-0.5-1.2-0.4-1.6-0.1
					c0.6,0.7,0.5,1.8,0.4,2.7c-0.2,1.8,0.2,1.7,0.8,3.3c0.7,1.9-1,2.4-3,2.1C161.9,46.8,165.2,46.7,164.2,44.1z"/>
			</g>
		</g>
	</g>
	<g>
		<g>
			<g>
				<path class="st3" d="M171,22.3c-1.7,0-4.6-1.1-5.3-3c-0.2-0.5-0.4-1.8,1.1-3c0.4-0.3,0.9-0.5,1.2-0.7c0.4-0.2,0.6-0.3,0.8-0.5
					c0.1-0.1,0.1-0.1,0.1-0.2c0.3-0.3,0.8-0.9,1.7-0.9c0.4,0,0.8,0.1,1.3,0.4c1.4,0.8,1.3,2.4,1.2,3.2c0,0.5,0,0.5,0.1,0.7
					c0.1,0.2,0.2,0.4,0.4,0.8c0.4,1.1,0.1,1.8-0.2,2.1C173,21.8,172.3,22.3,171,22.3z"/>
				<g>
					<path class="st2" d="M170.6,15.4c0.2,0,0.4,0.1,0.6,0.2c0.7,0.4,0.6,1.3,0.6,1.9c-0.1,1.1,0.1,1.1,0.5,2.1
						c0.4,1-0.3,1.4-1.3,1.4c-2.1,0-5.7-1.9-3.4-3.6c0.7-0.6,1.5-0.6,2.1-1.3C170,15.8,170.2,15.4,170.6,15.4 M170.6,12.8
						c-1.5,0-2.4,1-2.7,1.4c0,0-0.1,0.1-0.1,0.1c0,0-0.2,0.1-0.4,0.2c-0.4,0.2-0.9,0.4-1.4,0.9c-1.5,1.2-2,2.8-1.5,4.5
						c0.9,2.6,4.4,3.8,6.5,3.8c2,0,3-1,3.4-1.6c0.4-0.6,0.9-1.7,0.3-3.3c-0.1-0.4-0.3-0.7-0.4-0.9c0,0,0,0,0-0.1l0,0
						c0.1-0.9,0.3-3.1-1.8-4.4C171.9,13,171.2,12.8,170.6,12.8L170.6,12.8z"/>
				</g>
			</g>
		</g>
		<g>
			<g>
				<path class="st3" d="M172.3,19.7c-0.4-1-0.6-0.9-0.5-2.1c0.1-0.7,0.2-1.5-0.6-1.9c-0.5-0.3-0.8-0.2-1-0.1
					c0.4,0.5,0.3,1.1,0.2,1.7c-0.1,1.1,0.1,1.1,0.5,2.1c0.4,1.2-0.6,1.5-1.9,1.3C170.8,21.3,172.9,21.2,172.3,19.7z"/>
			</g>
		</g>
	</g>
</g>
</svg>
