<?xml version="1.0" encoding="utf-8"?>
<!-- Generator: Adobe Illustrator 23.0.0, SVG Export Plug-In . SVG Version: 6.00 Build 0)  -->
<svg version="1.1" id="Layer_1" xmlns="http://www.w3.org/2000/svg" xmlns:xlink="http://www.w3.org/1999/xlink" x="0px" y="0px"
	 width="412px" height="425px" viewBox="0 0 412 425" style="enable-background:new 0 0 412 425;" xml:space="preserve">
<style type="text/css">
	.st0{fill:#F16666;}
	.st1{fill:#F59292;}
	.st2{fill:#FE9E40;}
	.st3{fill:#73E6E5;}
	.st4{fill:#DC5B5B;}
	.st5{fill:#65D0CA;}
	.st6{fill:#F39038;}
	.st7{fill:#FEFEFE;}
</style>
<g>
	<path class="st0" d="M184.1,200.7c-20.8-6.1-41.6-12.2-62.4-18.2c-22-6.4-34.3-27.4-28.2-49.4c9.1-32.6,18.5-65.2,28.3-97.6
		c4.7-15.3,15.6-24.6,31.7-27.4c4-1,8.1,0.4,12.1-0.8c0.3,0,0.5,0,0.8,0c8.7,3.3,17.7,5.3,26.6,8c14.4,4.3,28.8,8.5,43.2,12.7
		c14.1,6.8,25.1,26.9,18.8,47.9c-9.4,31.3-18.2,62.7-27.4,94c-5,16.8-15.7,27.5-33.2,30.9C190.9,201.5,187.6,200.5,184.1,200.7z"/>
	<path class="st1" d="M165.7,7.3c-3.9,1.7-8.1,0.4-12.1,0.8c0.1-0.2,0.1-0.5,0.1-0.8C157.7,7.3,161.7,7.3,165.7,7.3z"/>
	<path class="st2" d="M366.7,405.8c-1.5,0.8-3.1,0.5-4.7,0.5c-32.3-0.1-64.5-0.6-96.8-0.3c-22.4,0.2-40.9-18.2-40.6-40.8
		c0.4-32.9,0.3-65.9,0-98.8c-0.2-22.9,18.4-41.1,41.1-40.8c22.9,0.4,45.9,0.1,68.8,0.2c16.5,3.8,28.4,17.6,30.1,34.5
		c0.6,5.6,0.7,11.1,0.7,16.7c0,28.6,0,57.3,0,85.9c0,7.9-1.1,15.7-4.9,22.8c-5,9.3-12.2,16.1-21,19.2c7.3-0.7,15.9-0.2,24.6-0.2
		C364.9,404.6,366,404.8,366.7,405.8z"/>
	<path class="st3" d="M138.5,404.9c-9.4,1.6-18.8,3.2-28.2,4.7c-14.2,2.3-28.3,4.7-42.5,6.7c-14.6,2-26.6-3-36.2-14.1
		c-6.6-7.6-8.4-17-9.9-26.5c-3.9-24.1-7.8-48.2-11.8-72.3C8.7,296,7.1,288.5,6.6,281c-1.4-22.4,12.8-39.5,35.5-43.2
		c21.2-3.5,42.4-6.9,63.7-10.3c18.3-0.2,35.6,15.8,38.7,35.2c4.2,26.2,8.5,52.3,12.7,78.5c1.2,7.6,2.8,15.2,3.6,22.9
		c1.6,15.6-4,28.1-16.2,37.8C142.7,403.4,140.5,404,138.5,404.9z"/>
	<path class="st4" d="M184.1,200.7c3.3-1.5,6.8-0.2,10.2-0.9c17.8-3.5,27.9-14.7,32.8-31.6c5.9-20.5,12-41,17.8-61.6
		c3.6-12.8,8.4-25.2,10.4-38.4c2.2-14.6-3.3-26.5-14.2-36c-1.6-1.4-3.5-2.4-5.2-3.6c0,0,0-0.3,0.1-0.4c0.1-0.1,0.2-0.2,0.3-0.3
		c12.1,3.1,24.3,6,35.8,10.6c19,7.6,28.5,28.4,22.8,48.4c-9.1,31.7-18.4,63.5-27.6,95.2c-5.4,18.7-21,30.1-40.4,29.9
		c-3.2,0-6.4-0.7-9.4-1.6C206.3,207.2,195.2,203.9,184.1,200.7z"/>
	<path class="st5" d="M138.5,404.9c6.1-4.3,12.2-8.6,15.8-15.4c4.3-8,6.5-16.2,5.3-25.5c-2.9-21.1-6.6-42-10-63
		c-2.3-14.6-3.7-29.4-7.7-43.7c-4.4-15.5-15.1-24.8-30.8-28.4c-1.8-0.4-3.6-0.5-5.3-1.5c11.1-1.8,22.2-3.9,33.4-5.5
		c22.3-3.1,41.8,10.9,45.6,31.8c4.2,23.1,7.6,46.4,11.4,69.6c1.7,10.4,3.2,20.7,5,31.1c3.4,20-9.1,40-28.9,44.9
		C161.1,402.1,149.8,403.6,138.5,404.9z"/>
	<path class="st6" d="M366.7,405.8c-10.1,0-20.2,0-30.4,0c1.9-1.5,4.1-2.5,6.1-3.6c12.3-7,19.4-17.1,21-31.4
		c0.6-5.2,0.6-10.3,0.6-15.5c0.1-29.2,0.1-58.3,0-87.5c0-9.1-1.8-17.9-7.3-25.6c-5-7.2-11.5-12.5-19.8-15.3
		c-0.9-0.3-1.6-0.8-2.5-1.2c11.9,0,23.8-0.8,35.6,0.2c14.9,1.3,26.8,11,32.3,25.1c1.8,4.5,2.7,9.1,2.7,14
		c-0.1,34.5,0,69.1-0.2,103.6c-0.1,14.7-11.1,29.6-24.9,34.6C375.6,404.8,371.3,406.2,366.7,405.8z"/>
	<path class="st7" d="M200.1,145c0-0.4,0-0.8,0-1.2c0.3-8.7,0.3-8.7-8.1-11.7c-2.4-0.9-4.8-1.7-7.2-2.5c-7.3-2.6-7.3-2.6-11.8,3.8
		c-0.8,1.1-1.5,2.2-2.3,3.3c-1.5,2.1-2.9,4.2-6.1,3.5c-3.2-0.8-5.6-2.5-6.9-5.5c-0.8-1.7-0.2-3.3,0.9-4.8
		c13.5-18.2,27-36.4,40.5-54.5c2.5-3.4,6-4,10.8-2.2c4.7,1.8,6.8,4.5,6.6,8.9c-0.9,19.7-1.8,39.4-2.8,59.1c-0.1,2.5-0.1,5.1-0.2,7.6
		c-0.2,4.5-2,6-7,5.9c-4.9-0.1-6.7-1.9-6.7-6.3c0-1.1,0-2.1,0-3.2C200,145,200.1,145,200.1,145z"/>
	<path class="st7" d="M293.6,314.9c0-6.1-0.2-12.3,0-18.4c0.4-10.2,6.5-17.7,16.5-19.8c10.2-2.1,19.9-1.3,27.9,6.4
		c3.7,3.6,5.2,8.2,5.1,13.4c-0.1,3.6-1.6,5.8-5.4,6c-5.5,0.4-7.5-0.7-8.4-5c-1.6-7.2-4.3-9.6-11-9.6c-6.9,0-11,3.7-11.2,10.7
		c-0.2,10.8-0.2,21.6,0,32.4c0.2,9.2,8.9,14,17.1,9.8c3.4-1.7,4.2-5,4.8-8.3c1-5.2,3.1-6.7,8.7-6.1c4,0.4,5.5,2.6,5.3,7.8
		c-0.3,6.3-2.9,11.5-8.1,14.9c-9.9,6.6-20.6,7-31.1,1.9c-6.8-3.3-9.8-9.6-10.3-16.9C293.4,327.7,293.7,321.3,293.6,314.9
		C293.7,314.9,293.6,314.9,293.6,314.9z"/>
	<path class="st7" d="M124.1,302.1c-0.1,4.5-1.2,7.9-3.7,10.7c-0.8,1-1.3,1.9,0.4,2.3c12,2.5,13.4,12.3,14.3,21.7
		c1.1,11-3.7,17.6-14.4,20.8c-7.7,2.3-15.6,4.3-23.5,6.2c-3.5,0.9-6-0.2-7-4c-5.7-21.6-11.4-43.2-17.1-64.7
		c-0.6-2.2-0.2-4.5,1.8-5.2c11-3.9,22-8.1,33.9-7.7c7.2,0.2,11.4,5.1,13.6,11.7C123.4,296.8,123.8,299.9,124.1,302.1z"/>
	<path class="st0" d="M203.6,91.9c-0.7,10.5-1.3,20.9-2,31.9c-5.5-1.9-10.8-3.7-16-5.6c-1.3-0.4-1.1-1.2-0.4-2.1
		c5.8-8.2,11.7-16.4,17.5-24.6C202.9,91.7,203.2,91.8,203.6,91.9z"/>
	<path class="st3" d="M121,337.3c0,5.1-1.4,7.5-6.1,9.1c-3.5,1.2-7.1,2.1-10.7,3.1c-1.6,0.5-2.4-0.2-2.8-1.8
		c-1.7-6.4-3.5-12.8-5.2-19.3c-0.4-1.5,0-2.5,1.8-2.9c4.2-0.9,8.2-2.1,12.4-2.8c3.7-0.6,6.4,1.4,8.1,4.6
		C120.2,330.4,121,333.8,121,337.3z"/>
	<path class="st3" d="M110.5,304.8c0.1,3.2-1.2,5.6-4.2,7c-3.6,1.7-7.6,2.2-11.4,3.4c-1.4,0.4-2.3-0.2-2.7-1.6
		c-1.1-4.5-2.3-9-3.5-13.5c-0.3-1.2-0.2-2,1.2-2.4c3.3-0.8,6.6-2,10-2.4C106.9,294.4,110.6,297.9,110.5,304.8z"/>
</g>
</svg>
