<?xml version="1.0" encoding="utf-8"?>
<!-- Generator: Adobe Illustrator 23.0.0, SVG Export Plug-In . SVG Version: 6.00 Build 0)  -->
<svg version="1.1" id="Layer_1" xmlns="http://www.w3.org/2000/svg" xmlns:xlink="http://www.w3.org/1999/xlink" x="0px" y="0px"
	 width="700px" height="700px" viewBox="0 0 700 700" style="enable-background:new 0 0 700 700;" xml:space="preserve">
<style type="text/css">
	.st0{fill:#F5F6F6;}
	.st1{fill:#5CA4DA;}
	.st2{fill:#F1F0F0;}
	.st3{fill:#95C8EC;}
	.st4{fill:#5DACDF;}
	.st5{fill:#6AB4E3;}
	.st6{fill:#60ADE0;}
	.st7{fill:#FFFFFF;}
	.st8{fill:#C9C9C9;}
	.st9{fill:#6871B5;}
	.st10{fill:#E9E8E8;}
	.st11{fill:#EFA986;}
	.st12{fill:#B78875;}
	.st13{fill:#3B4048;}
	.st14{fill:#9A6753;}
	.st15{fill:#C4C4C4;}
	.st16{fill:#254480;}
	.st17{fill:#4C6FB5;}
	.st18{fill:#C3BEBC;}
	.st19{fill:#D7D6D6;}
	.st20{fill:#C2C2C2;}
</style>
<g>
	<g>
		<g>
			<g>
				<path class="st0" d="M553.6,526.3c7.2,13.6,2,30.4-11.6,37.6c-13.6,7.2-30.4,2-37.6-11.6c-7.2-13.6-2-30.4,11.6-37.6
					C529.6,507.6,546.4,512.7,553.6,526.3z"/>
			</g>
		</g>
		<g>
			<g>
				<path class="st1" d="M544.5,568.5c-16.1,8.5-36.1,2.4-44.6-13.7c-8.5-16.1-2.4-36.1,13.7-44.6c16.1-8.5,36.1-2.4,44.6,13.7
					C566.8,540,560.6,560,544.5,568.5z M518.5,519.4c-11,5.8-15.2,19.5-9.4,30.5c5.8,11,19.5,15.2,30.5,9.4
					c11-5.8,15.2-19.5,9.4-30.5C543.2,517.8,529.5,513.5,518.5,519.4z"/>
			</g>
		</g>
		<g>
			<rect x="225.4" y="165.5" class="st2" width="129.2" height="129.2"/>
			<rect x="419.8" y="304.1" class="st2" width="129.2" height="129.2"/>
			<rect x="503.5" y="165.6" class="st2" width="129.2" height="129.2"/>
			<rect x="225.4" y="443.1" class="st2" width="129.2" height="129.2"/>
			<g>
				<path class="st3" d="M493.7,443.1c0,0-0.1,59.8-14.1,110.5l-29.9,18.7H344.3c20-53.3,20.1-129.2,20.1-129.2H493.7z"/>
				<polygon class="st4" points="449.7,572.3 449.7,553.2 479.5,553.2 				"/>
			</g>
			<g>
				<path class="st3" d="M493.7,165.6c0,0-0.1,59.8-14.1,110.5l-29.9,18.7H344.3c20-53.3,20.1-129.2,20.1-129.2H493.7z"/>
				<polygon class="st5" points="449.7,294.8 449.7,275.7 479.5,275.7 				"/>
			</g>
			<g>
				<g>
					<path class="st3" d="M409.9,304.7c0,0-0.1,59.8-14.1,110.5l-29.9,18.7H260.6c20-53.3,20.1-129.2,20.1-129.2H409.9z"/>
					<polygon class="st6" points="365.9,433.9 365.9,414.7 395.8,414.7 					"/>
				</g>
				<g>
					<g>
						<path class="st7" d="M340.9,393c-1.7,0-3-1.3-3-3v-41.5c0-1.7,1.3-3,3-3c1.7,0,3,1.3,3,3V390C343.9,391.7,342.6,393,340.9,393
							z"/>
					</g>
					<g>
						<path class="st7" d="M361.7,372.3h-41.5c-1.7,0-3-1.3-3-3c0-1.7,1.3-3,3-3h41.5c1.7,0,3,1.3,3,3
							C364.7,370.9,363.4,372.3,361.7,372.3z"/>
					</g>
				</g>
			</g>
			<g>
				<path class="st2" d="M632.7,443.1c0,0-0.1,59.8-14.1,110.5l-29.9,18.7H483.3c20-53.3,20.1-129.2,20.1-129.2H632.7z"/>
				<polygon class="st8" points="588.7,572.3 588.7,553.2 618.6,553.2 				"/>
			</g>
		</g>
		<path class="st3" d="M176,207.5c1.8-4.9,2.8-9.9,3.2-15l10-4l-2.1-11.5l-2.1-11.5l-10.8-0.2c-2.1-4.6-4.9-8.9-8.3-12.9l4.3-9.9
			l-9.7-6.7l-9.7-6.7l-7.8,7.5c-4.9-1.8-9.9-2.8-15-3.2l-4-10l-11.5,2.1l-11.5,2.1l-0.2,10.8c-4.6,2.1-8.9,4.9-12.9,8.3l-9.9-4.3
			l-6.7,9.7l-6.7,9.7l7.5,7.8c-1.8,4.9-2.8,9.9-3.2,15l-10,4l2.1,11.5l2.1,11.5l10.8,0.2c2.1,4.6,4.9,8.9,8.3,12.9l-4.3,9.9l9.7,6.7
			l9.7,6.7l7.8-7.5c4.9,1.8,9.9,2.8,15,3.2l4,10l11.5-2.1l11.5-2.1l0.2-10.8c4.6-2.1,8.9-4.9,12.9-8.3l9.9,4.3l6.7-9.7l6.7-9.7
			L176,207.5z M107.8,212.2c-13.1-9-16.4-26.9-7.3-40c9-13.1,26.9-16.4,40-7.3c13.1,9,16.4,26.9,7.3,40
			C138.7,217.9,120.8,221.2,107.8,212.2z"/>
		<path class="st3" d="M220.9,115.2c0.8-2.3,1.3-4.6,1.5-6.9l4.6-1.9l-1-5.3l-1-5.3l-5-0.1c-1-2.1-2.3-4.1-3.9-6l2-4.6l-4.5-3.1
			l-4.5-3.1l-3.6,3.5c-2.3-0.8-4.6-1.3-6.9-1.5l-1.9-4.6l-5.3,1l-5.3,1l-0.1,5c-2.1,1-4.1,2.3-6,3.9l-4.6-2l-3.1,4.5l-3.1,4.5
			l3.5,3.6c-0.8,2.3-1.3,4.6-1.5,6.9l-4.6,1.9l1,5.3l1,5.3l5,0.1c1,2.1,2.3,4.1,3.8,6l-2,4.6l4.5,3.1l4.5,3.1l3.6-3.5
			c2.3,0.8,4.6,1.3,6.9,1.5l1.9,4.6l5.3-1l5.3-1l0.1-5c2.1-1,4.1-2.3,6-3.8l4.6,2l3.1-4.5l3.1-4.5L220.9,115.2z M189.4,117.4
			c-6.1-4.2-7.6-12.5-3.4-18.5c4.2-6.1,12.5-7.6,18.5-3.4c6.1,4.2,7.6,12.5,3.4,18.5C203.7,120.1,195.4,121.6,189.4,117.4z"/>
		<g>
			<path class="st9" d="M152.8,650.7h140.6c-0.3-1.6-0.5-4.2-0.7-6.7c-1.4-14.7-2.2-24.4-2.2-24.4s-115.3-57.2-127.9-19.6
				c-4.1,12.1-6.9,27.1-8.9,43.9C153.3,646.6,153,649.1,152.8,650.7z"/>
		</g>
		<path class="st10" d="M271.7,456.4c0,0,6.4,38.2,11.6,63.5c0,0,0,0,0,0c2.1,10.2,4,18.4,5.2,20.9c1.5,3.2,13.6,16.2,28.3,31.4
			c25.9,26.7,60.2,60.3,60.2,60.3l13.4-25.4c0,0-30.4-35.7-51-59.5c-9.5-11-17-19.5-18.4-20.7c-4.3-3.9-9.3-41.9-16.3-73.2
			c-7-31.3-21.1-48.6-21.1-48.6L271.7,456.4z"/>
		<path class="st11" d="M316.8,572.2c25.9,26.7,60.2,60.3,60.2,60.3l13.4-25.4c0,0-30.4-35.7-51-59.5
			C333,550.7,321.4,558.1,316.8,572.2z"/>
		<path class="st10" d="M155.1,627.6c-1,3.4,130.2,4.8,130.2,4.8s-5.6-40.9-8.7-50.4c-3.2-9.5,9-66.5,11.1-85.1
			c1.6-14.9,5.7-81.5-4.1-91.7c-10.3-10.6-47.2-21.8-47.2-21.8l-53.9,2c0,0-8.9,1.9-15.2,4.8c-6.4,3-42.7,15.9-48.6,34
			c-5.9,18.2,36.3,76.5,36.3,76.5s0.1,2.6,0.2,6.9v0c0.2,5.7,0.4,14.4,0.6,23.9c0.3,12.2,0.5,25.7,0.5,35.6
			C156.3,590.3,156.1,624.2,155.1,627.6z"/>
		<path class="st12" d="M221.6,266.4c0,0,46.7-10.5,36.1,48.3c-10.7,58.8-21.9,63.5-50.1,51.3c-28.2-12.2-25.7-49.9-27.1-68.4
			C179,279.1,206.6,267,221.6,266.4z"/>
		<path class="st12" d="M233.9,398.5c0,0-20.7,22-53.4,2c0,0,7.3-47.6,3.5-70.7c-3.9-23.2,42.7,35.9,42.7,35.9
			c-0.6,0.3-1,2.5-1.1,5.7c-0.1,2.7,0.1,6,0.5,9.4C227,388.4,229.4,396.6,233.9,398.5z"/>
		<path class="st12" d="M196.5,306.8c-0.6-5.2-10.9-7.1-11.7,0.7c-0.8,7.8,4.7,21.4,8.6,20.1C197.2,326.3,197.3,314,196.5,306.8z"/>
		<path class="st13" d="M182.7,327.8c0,0,1.2-18.5,8-19.1c6.8-0.6,7.8,6.9,7.8,6.9l6.8,1.3c0,0-2.2-16.2,4.6-19.1
			c6.8-2.8,43.8,8.9,49.2,4.2c5.4-4.8,2.9-37.7-6.9-42.2c-9.8-4.5-36.9-14.6-56.8-1.2c0,0-15.5-1.8-17.8,10.7
			C175.3,281.7,178.5,318.5,182.7,327.8z"/>
		<path class="st14" d="M226,380.7c-33.8-10.4-36.3-30.7-36.3-31.1c11.1,19.1,35.8,21.6,35.8,21.6C225.5,374,225.6,377.3,226,380.7z
			"/>
		<path class="st12" d="M166.7,390.4c0,0,24.7,49.2,64.7,46c39.9-3.2,6.8-52.6,5-53.1C234.3,382.9,195.4,373.2,166.7,390.4z"/>
		<path class="st10" d="M112.4,574.4c1.8,2.1,25.9,11.8,53.1,22.3l0,0c37.1,14.3,79,27.8,79,27.8l9.5-20.4c0,0-43.9-23.8-73.5-40.5
			c-14-7.9-24.8-14.2-26.4-15.7c-4.8-4.5-6-11.8-2.5-24.5c3.5-12.7,11.6-71,12.5-77.8c0.9-6.8-2.3-25-19.3-25.9
			c-17-0.9-25.7,3.9-25.7,3.9s-4.3,1.8-7.4,43.1C108.6,507.9,108.1,569.4,112.4,574.4z"/>
		<path class="st15" d="M155.1,507.7L155.1,507.7c0.2,5.7,0.4,14.4,0.6,23.9c16.6-40.7,7-73.2,6.9-73.8
			C164.4,468.9,155.2,507.1,155.1,507.7z"/>
		<path class="st15" d="M283.3,519.9C283.3,519.9,283.3,519.9,283.3,519.9c2.1,10.2,4,18.4,5.2,20.9c5.7-27.5,0.6-62.6,0.6-62.6
			C288.3,495,283.3,519.9,283.3,519.9z"/>
		<path class="st12" d="M165.5,596.7L165.5,596.7c37.1,14.3,89.5,26.3,89.5,26.3l7.4-17.8c0,0-52.2-24.9-81.9-41.6
			C180.5,563.5,169.8,568.8,165.5,596.7z"/>
		<g>
			<path class="st12" d="M262.4,605.1c0,0,10.9-1.7,18.4-3.4c5.8-1.4,20.3,0.5,23.9,4.2c3.7,3.7,15.4,29.7,17.6,31.3
				c2.2,1.6-1.1,5.3-5,3.4c0,0-2.9,5.1-11.8,0.9c-8.8-4.3-15.4-7.3-20-8.9c-4.6-1.6-31.5-9.9-31.5-9.9S255.5,602.3,262.4,605.1z"/>
		</g>
		<g>
			<path class="st11" d="M300.8,608.1c0,0,7,3.4,8.8,4.9c1.8,1.5,9.2,7,11,8.3c1.8,1.3-2.7,5-15.9-0.7
				C291.5,614.9,300.8,608.1,300.8,608.1z"/>
		</g>
		<polygon class="st16" points="301.4,531.7 289.3,644.8 449.4,644.8 461.5,531.7 		"/>
		
			<rect x="276.5" y="634.6" transform="matrix(-1 -1.224647e-16 1.224647e-16 -1 579.8272 1279.47)" class="st16" width="26.7" height="10.2"/>
		<rect x="27.7" y="643.7" class="st1" width="650.8" height="5.9"/>
		<path class="st17" d="M366.5,586.5c-1.3,6.3,1.7,12.2,6.6,13.2c4.9,1,9.9-3.3,11.2-9.6c1.3-6.3-1.7-12.2-6.6-13.2
			C372.8,575.9,367.8,580.2,366.5,586.5z"/>
		<g>
			<g>
				<path class="st18" d="M240.6,130.3l-0.2-0.4c0.4-0.2,0.8-0.4,1.2-0.5l0.2,0.4C241.4,130,241,130.2,240.6,130.3z"/>
			</g>
			<g>
				<path class="st18" d="M634.5,575.6l-0.4-0.2c0.5-0.8,0.9-1.5,1.3-2.3l0.4,0.2C635.4,574.1,634.9,574.9,634.5,575.6z M637.2,571
					l-0.4-0.2c0.4-0.8,0.9-1.6,1.3-2.3l0.4,0.2C638,569.4,637.6,570.2,637.2,571z M639.8,566.3l-0.4-0.2c0.4-0.8,0.8-1.6,1.3-2.4
					l0.4,0.2C640.6,564.7,640.2,565.5,639.8,566.3z M642.3,561.5l-0.4-0.2c0.4-0.8,0.8-1.6,1.2-2.4l0.4,0.2
					C643.1,560,642.7,560.8,642.3,561.5z M644.7,556.8l-0.4-0.2c0.4-0.8,0.8-1.6,1.2-2.4l0.4,0.2C645.5,555.2,645.1,556,644.7,556.8
					z M647,551.9l-0.4-0.2c0.4-0.8,0.8-1.6,1.1-2.4l0.4,0.2C647.8,550.3,647.4,551.1,647,551.9z M649.3,547.1l-0.4-0.2
					c0.4-0.8,0.7-1.6,1.1-2.4l0.4,0.2C650,545.4,649.7,546.2,649.3,547.1z M651.5,542.2l-0.4-0.2c0.4-0.8,0.7-1.6,1.1-2.5l0.4,0.2
					C652.2,540.5,651.8,541.3,651.5,542.2z M653.6,537.2l-0.4-0.2c0.3-0.8,0.7-1.7,1-2.5l0.4,0.2
					C654.2,535.6,653.9,536.4,653.6,537.2z M655.6,532.2l-0.4-0.2c0.3-0.8,0.7-1.7,1-2.5l0.4,0.2
					C656.2,530.6,655.9,531.4,655.6,532.2z M657.5,527.2l-0.4-0.2c0.3-0.8,0.6-1.7,0.9-2.5l0.4,0.2
					C658.1,525.5,657.8,526.4,657.5,527.2z M659.3,522.2l-0.4-0.1c0.3-0.8,0.6-1.7,0.9-2.5l0.4,0.1
					C659.9,520.5,659.6,521.3,659.3,522.2z M661.1,517.1l-0.4-0.1c0.3-0.8,0.6-1.7,0.8-2.5l0.4,0.1
					C661.6,515.4,661.4,516.2,661.1,517.1z M662.7,512l-0.4-0.1c0.3-0.9,0.5-1.7,0.8-2.6l0.4,0.1C663.3,510.3,663,511.1,662.7,512z
					 M664.3,506.8l-0.4-0.1c0.3-0.9,0.5-1.7,0.7-2.6l0.4,0.1C664.8,505.1,664.5,506,664.3,506.8z M665.8,501.7l-0.4-0.1
					c0.2-0.9,0.5-1.7,0.7-2.6l0.4,0.1C666.2,500,666,500.8,665.8,501.7z M667.2,496.5l-0.4-0.1c0.2-0.9,0.4-1.7,0.7-2.6l0.4,0.1
					C667.6,494.8,667.4,495.6,667.2,496.5z M668.5,491.3l-0.4-0.1c0.2-0.9,0.4-1.7,0.6-2.6l0.4,0.1
					C668.9,489.5,668.7,490.4,668.5,491.3z M669.7,486.1l-0.4-0.1c0.2-0.9,0.4-1.7,0.6-2.6l0.4,0.1
					C670.1,484.3,669.9,485.2,669.7,486.1z M670.8,480.8l-0.4-0.1c0.2-0.9,0.4-1.8,0.5-2.6l0.4,0.1C671.2,479,671,479.9,670.8,480.8
					z M671.8,475.5l-0.4-0.1c0.2-0.9,0.3-1.8,0.5-2.6l0.4,0.1C672.2,473.8,672,474.6,671.8,475.5z M672.8,470.2l-0.4-0.1
					c0.1-0.9,0.3-1.8,0.4-2.6l0.4,0.1C673.1,468.5,672.9,469.3,672.8,470.2z M673.6,464.9l-0.4-0.1c0.1-0.9,0.3-1.8,0.4-2.7l0.4,0.1
					C673.9,463.2,673.8,464,673.6,464.9z M674.4,459.6l-0.4-0.1c0.1-0.9,0.2-1.8,0.3-2.7l0.4,0.1
					C674.6,457.8,674.5,458.7,674.4,459.6z M675,454.3l-0.4-0.1c0.1-0.9,0.2-1.8,0.3-2.7l0.4,0C675.2,452.5,675.1,453.4,675,454.3z
					 M675.6,448.9l-0.4,0c0.1-0.9,0.2-1.8,0.3-2.7l0.4,0C675.8,447.1,675.7,448,675.6,448.9z M676.1,443.6l-0.4,0
					c0.1-0.9,0.1-1.8,0.2-2.7l0.4,0C676.2,441.8,676.2,442.7,676.1,443.6z M676.5,438.2l-0.4,0c0.1-0.9,0.1-1.8,0.2-2.7l0.4,0
					C676.6,436.4,676.5,437.3,676.5,438.2z M676.8,432.8l-0.4,0c0-0.9,0.1-1.8,0.1-2.7l0.4,0C676.9,431.1,676.8,431.9,676.8,432.8z
					 M677,427.5l-0.4,0c0-0.9,0.1-1.8,0.1-2.7l0.4,0C677,425.7,677,426.6,677,427.5z M677.1,422.1l-0.4,0c0-0.9,0-1.8,0-2.7l0.4,0
					C677.1,420.3,677.1,421.2,677.1,422.1z M676.7,416.7c0-0.9,0-1.8,0-2.7l0.4,0c0,0.9,0,1.8,0,2.7L676.7,416.7z M676.6,411.4
					c0-0.9,0-1.8-0.1-2.7l0.4,0c0,0.9,0,1.8,0.1,2.7L676.6,411.4z M676.5,406c0-0.9-0.1-1.8-0.1-2.7l0.4,0c0,0.9,0.1,1.8,0.1,2.7
					L676.5,406z M676.2,400.7c0-0.9-0.1-1.8-0.2-2.7l0.4,0c0.1,0.9,0.1,1.8,0.2,2.7L676.2,400.7z M675.9,395.3
					c-0.1-0.9-0.1-1.8-0.2-2.7l0.4,0c0.1,0.9,0.1,1.8,0.2,2.7L675.9,395.3z M675.5,390c-0.1-0.9-0.2-1.8-0.2-2.7l0.4,0
					c0.1,0.9,0.2,1.8,0.2,2.7L675.5,390z M675,384.7c-0.1-0.9-0.2-1.8-0.3-2.7l0.4-0.1c0.1,0.9,0.2,1.8,0.3,2.7L675,384.7z
					 M674.4,379.3c-0.1-0.9-0.2-1.8-0.3-2.7l0.4-0.1c0.1,0.9,0.2,1.8,0.3,2.7L674.4,379.3z M673.7,374c-0.1-0.9-0.3-1.8-0.4-2.7
					l0.4-0.1c0.1,0.9,0.3,1.8,0.4,2.7L673.7,374z M672.9,368.7c-0.1-0.9-0.3-1.8-0.4-2.6l0.4-0.1c0.1,0.9,0.3,1.8,0.4,2.6
					L672.9,368.7z M672,363.5c-0.2-0.9-0.3-1.8-0.5-2.6l0.4-0.1c0.2,0.9,0.3,1.8,0.5,2.6L672,363.5z M671,358.2
					c-0.2-0.9-0.3-1.8-0.5-2.6l0.4-0.1c0.2,0.9,0.3,1.8,0.5,2.6L671,358.2z M670,352.9c-0.2-0.9-0.4-1.7-0.6-2.6l0.4-0.1
					c0.2,0.9,0.4,1.7,0.6,2.6L670,352.9z M668.8,347.7c-0.2-0.9-0.4-1.7-0.6-2.6l0.4-0.1c0.2,0.9,0.4,1.7,0.6,2.6L668.8,347.7z
					 M667.6,342.5c-0.2-0.9-0.4-1.7-0.7-2.6l0.4-0.1c0.2,0.9,0.4,1.7,0.7,2.6L667.6,342.5z M666.2,337.3c-0.2-0.9-0.5-1.7-0.7-2.6
					l0.4-0.1c0.2,0.9,0.5,1.7,0.7,2.6L666.2,337.3z M664.8,332.1c-0.2-0.9-0.5-1.7-0.7-2.6l0.4-0.1c0.3,0.9,0.5,1.7,0.7,2.6
					L664.8,332.1z M663.3,327c-0.3-0.9-0.5-1.7-0.8-2.6l0.4-0.1c0.3,0.9,0.5,1.7,0.8,2.6L663.3,327z M661.7,321.9
					c-0.3-0.9-0.6-1.7-0.8-2.5l0.4-0.1c0.3,0.8,0.6,1.7,0.8,2.5L661.7,321.9z M660,316.8c-0.3-0.8-0.6-1.7-0.9-2.5l0.4-0.1
					c0.3,0.8,0.6,1.7,0.9,2.5L660,316.8z M658.3,311.8c-0.3-0.8-0.6-1.7-0.9-2.5l0.4-0.2c0.3,0.8,0.6,1.7,0.9,2.5L658.3,311.8z
					 M656.4,306.7c-0.3-0.8-0.6-1.7-1-2.5l0.4-0.2c0.3,0.8,0.6,1.7,1,2.5L656.4,306.7z M654.5,301.7c-0.3-0.8-0.7-1.7-1-2.5l0.4-0.2
					c0.3,0.8,0.7,1.7,1,2.5L654.5,301.7z M652.4,296.8c-0.3-0.8-0.7-1.6-1-2.5l0.4-0.2c0.4,0.8,0.7,1.6,1,2.5L652.4,296.8z
					 M650.3,291.9c-0.4-0.8-0.7-1.6-1.1-2.4l0.4-0.2c0.4,0.8,0.7,1.6,1.1,2.4L650.3,291.9z M648.1,287c-0.4-0.8-0.7-1.6-1.1-2.4
					l0.4-0.2c0.4,0.8,0.8,1.6,1.1,2.4L648.1,287z M645.9,282.2c-0.4-0.8-0.8-1.6-1.2-2.4l0.4-0.2c0.4,0.8,0.8,1.6,1.2,2.4
					L645.9,282.2z M643.5,277.4c-0.4-0.8-0.8-1.6-1.2-2.4l0.4-0.2c0.4,0.8,0.8,1.6,1.2,2.4L643.5,277.4z M641.1,272.7
					c-0.4-0.8-0.8-1.6-1.3-2.4l0.4-0.2c0.4,0.8,0.8,1.6,1.3,2.4L641.1,272.7z M638.5,268c-0.4-0.8-0.9-1.6-1.3-2.3l0.4-0.2
					c0.4,0.8,0.9,1.6,1.3,2.3L638.5,268z M635.9,263.3c-0.4-0.8-0.9-1.5-1.3-2.3l0.4-0.2c0.4,0.8,0.9,1.5,1.3,2.3L635.9,263.3z
					 M633.3,258.7c-0.5-0.8-0.9-1.5-1.4-2.3l0.4-0.2c0.5,0.8,0.9,1.5,1.4,2.3L633.3,258.7z M630.5,254.1c-0.5-0.8-0.9-1.5-1.4-2.3
					l0.4-0.2c0.5,0.8,0.9,1.5,1.4,2.3L630.5,254.1z M627.7,249.6c-0.5-0.8-1-1.5-1.4-2.2l0.4-0.2c0.5,0.7,1,1.5,1.5,2.2L627.7,249.6
					z M624.7,245.1c-0.5-0.7-1-1.5-1.5-2.2l0.4-0.3c0.5,0.7,1,1.5,1.5,2.2L624.7,245.1z M621.8,240.7c-0.5-0.7-1-1.5-1.5-2.2
					l0.4-0.3c0.5,0.7,1,1.5,1.5,2.2L621.8,240.7z M618.7,236.3c-0.5-0.7-1-1.4-1.6-2.2l0.4-0.3c0.5,0.7,1,1.4,1.6,2.2L618.7,236.3z
					 M615.5,232c-0.5-0.7-1.1-1.4-1.6-2.1l0.4-0.3c0.5,0.7,1.1,1.4,1.6,2.1L615.5,232z M612.3,227.7c-0.5-0.7-1.1-1.4-1.6-2.1
					l0.4-0.3c0.5,0.7,1.1,1.4,1.6,2.1L612.3,227.7z M609,223.5c-0.6-0.7-1.1-1.4-1.7-2.1l0.3-0.3c0.6,0.7,1.1,1.4,1.7,2.1L609,223.5
					z M605.7,219.3c-0.6-0.7-1.1-1.4-1.7-2.1l0.3-0.3c0.6,0.7,1.1,1.4,1.7,2.1L605.7,219.3z M602.2,215.2c-0.6-0.7-1.2-1.4-1.7-2
					l0.3-0.3c0.6,0.7,1.2,1.4,1.7,2L602.2,215.2z M598.7,211.2c-0.6-0.7-1.2-1.3-1.8-2l0.3-0.3c0.6,0.7,1.2,1.3,1.8,2L598.7,211.2z
					 M595.2,207.2c-0.6-0.7-1.2-1.3-1.8-2l0.3-0.3c0.6,0.7,1.2,1.3,1.8,2L595.2,207.2z M591.5,203.3c-0.6-0.6-1.2-1.3-1.8-1.9
					l0.3-0.3c0.6,0.6,1.2,1.3,1.8,1.9L591.5,203.3z M587.8,199.4c-0.6-0.6-1.2-1.3-1.9-1.9l0.3-0.3c0.6,0.6,1.3,1.3,1.9,1.9
					L587.8,199.4z M584.1,195.6c-0.6-0.6-1.3-1.3-1.9-1.9l0.3-0.3c0.6,0.6,1.3,1.2,1.9,1.9L584.1,195.6z M580.2,191.9
					c-0.6-0.6-1.3-1.2-1.9-1.8l0.3-0.3c0.7,0.6,1.3,1.2,1.9,1.8L580.2,191.9z M576.3,188.2c-0.7-0.6-1.3-1.2-2-1.8l0.3-0.3
					c0.7,0.6,1.3,1.2,2,1.8L576.3,188.2z M572.4,184.6c-0.7-0.6-1.3-1.2-2-1.8l0.3-0.3c0.7,0.6,1.3,1.2,2,1.8L572.4,184.6z
					 M568.3,181.1c-0.7-0.6-1.4-1.2-2-1.7l0.3-0.3c0.7,0.6,1.4,1.2,2,1.7L568.3,181.1z M564.3,177.6c-0.7-0.6-1.4-1.1-2.1-1.7
					l0.3-0.3c0.7,0.6,1.4,1.1,2.1,1.7L564.3,177.6z M560.1,174.2c-0.7-0.6-1.4-1.1-2.1-1.7l0.3-0.4c0.7,0.6,1.4,1.1,2.1,1.7
					L560.1,174.2z M555.9,170.9c-0.7-0.5-1.4-1.1-2.1-1.6l0.3-0.4c0.7,0.5,1.4,1.1,2.1,1.6L555.9,170.9z M551.7,167.6
					c-0.7-0.5-1.4-1.1-2.1-1.6l0.3-0.4c0.7,0.5,1.4,1.1,2.2,1.6L551.7,167.6z M547.3,164.4c-0.7-0.5-1.4-1-2.2-1.6l0.3-0.4
					c0.7,0.5,1.5,1,2.2,1.6L547.3,164.4z M543,161.3c-0.7-0.5-1.5-1-2.2-1.5l0.3-0.4c0.7,0.5,1.5,1,2.2,1.5L543,161.3z M538.6,158.3
					c-0.7-0.5-1.5-1-2.2-1.5l0.2-0.4c0.7,0.5,1.5,1,2.2,1.5L538.6,158.3z M534.1,155.3c-0.7-0.5-1.5-1-2.3-1.5l0.2-0.4
					c0.8,0.5,1.5,1,2.3,1.5L534.1,155.3z M529.6,152.4c-0.8-0.5-1.5-0.9-2.3-1.4l0.2-0.4c0.8,0.5,1.5,0.9,2.3,1.4L529.6,152.4z
					 M525,149.6c-0.8-0.5-1.5-0.9-2.3-1.4l0.2-0.4c0.8,0.5,1.5,0.9,2.3,1.4L525,149.6z M520.4,146.9c-0.8-0.4-1.5-0.9-2.3-1.3
					l0.2-0.4c0.8,0.4,1.6,0.9,2.3,1.3L520.4,146.9z M515.7,144.3c-0.8-0.4-1.6-0.9-2.4-1.3l0.2-0.4c0.8,0.4,1.6,0.9,2.4,1.3
					L515.7,144.3z M511,141.7c-0.8-0.4-1.6-0.8-2.4-1.3l0.2-0.4c0.8,0.4,1.6,0.8,2.4,1.3L511,141.7z M506.2,139.2
					c-0.8-0.4-1.6-0.8-2.4-1.2l0.2-0.4c0.8,0.4,1.6,0.8,2.4,1.2L506.2,139.2z M501.4,136.8c-0.8-0.4-1.6-0.8-2.4-1.2l0.2-0.4
					c0.8,0.4,1.6,0.8,2.4,1.2L501.4,136.8z M496.6,134.5c-0.8-0.4-1.6-0.8-2.4-1.1l0.2-0.4c0.8,0.4,1.6,0.8,2.4,1.1L496.6,134.5z
					 M491.7,132.2c-0.8-0.4-1.6-0.7-2.5-1.1l0.2-0.4c0.8,0.4,1.6,0.7,2.5,1.1L491.7,132.2z M486.8,130.1c-0.8-0.4-1.6-0.7-2.5-1
					l0.2-0.4c0.8,0.3,1.7,0.7,2.5,1L486.8,130.1z M244.3,128.8l-0.2-0.4c0.8-0.3,1.7-0.7,2.5-1l0.2,0.4
					C245.9,128.1,245.1,128.4,244.3,128.8z M481.8,128c-0.8-0.3-1.7-0.7-2.5-1l0.2-0.4c0.8,0.3,1.7,0.7,2.5,1L481.8,128z
					 M249.2,126.8l-0.2-0.4c0.8-0.3,1.7-0.7,2.5-1l0.2,0.4C250.9,126.1,250.1,126.4,249.2,126.8z M476.8,126c-0.8-0.3-1.7-0.6-2.5-1
					l0.2-0.4c0.8,0.3,1.7,0.6,2.5,1L476.8,126z M254.2,124.9l-0.2-0.4c0.8-0.3,1.7-0.6,2.5-0.9l0.2,0.4
					C255.9,124.2,255.1,124.5,254.2,124.9z M471.8,124.1c-0.8-0.3-1.7-0.6-2.5-0.9l0.2-0.4c0.8,0.3,1.7,0.6,2.5,0.9L471.8,124.1z
					 M259.3,123l-0.1-0.4c0.8-0.3,1.7-0.6,2.5-0.9l0.1,0.4C260.9,122.4,260.1,122.7,259.3,123z M466.7,122.3
					c-0.8-0.3-1.7-0.6-2.5-0.9l0.1-0.4c0.9,0.3,1.7,0.6,2.5,0.9L466.7,122.3z M264.3,121.3l-0.1-0.4c0.8-0.3,1.7-0.6,2.5-0.8
					l0.1,0.4C266,120.7,265.2,121,264.3,121.3z M461.6,120.6c-0.9-0.3-1.7-0.6-2.6-0.8l0.1-0.4c0.9,0.3,1.7,0.5,2.6,0.8L461.6,120.6
					z M269.4,119.6l-0.1-0.4c0.9-0.3,1.7-0.5,2.6-0.8l0.1,0.4C271.1,119.1,270.3,119.3,269.4,119.6z M456.5,119
					c-0.9-0.3-1.7-0.5-2.6-0.8l0.1-0.4c0.9,0.3,1.7,0.5,2.6,0.8L456.5,119z M274.5,118l-0.1-0.4c0.9-0.3,1.7-0.5,2.6-0.8l0.1,0.4
					C276.2,117.5,275.4,117.8,274.5,118z M451.4,117.4c-0.9-0.2-1.7-0.5-2.6-0.7l0.1-0.4c0.9,0.2,1.7,0.5,2.6,0.7L451.4,117.4z
					 M279.7,116.6l-0.1-0.4c0.9-0.2,1.7-0.5,2.6-0.7l0.1,0.4C281.4,116.1,280.5,116.3,279.7,116.6z M446.2,116
					c-0.9-0.2-1.7-0.5-2.6-0.7l0.1-0.4c0.9,0.2,1.7,0.5,2.6,0.7L446.2,116z M284.8,115.2l-0.1-0.4c0.9-0.2,1.7-0.4,2.6-0.7l0.1,0.4
					C286.5,114.7,285.7,114.9,284.8,115.2z M441,114.6c-0.9-0.2-1.7-0.4-2.6-0.6l0.1-0.4c0.9,0.2,1.7,0.4,2.6,0.6L441,114.6z
					 M290,113.9l-0.1-0.4c0.9-0.2,1.7-0.4,2.6-0.6l0.1,0.4C291.7,113.4,290.9,113.6,290,113.9z M435.8,113.4
					c-0.9-0.2-1.7-0.4-2.6-0.6l0.1-0.4c0.9,0.2,1.7,0.4,2.6,0.6L435.8,113.4z M295.2,112.6l-0.1-0.4c0.9-0.2,1.7-0.4,2.6-0.6
					l0.1,0.4C297,112.3,296.1,112.4,295.2,112.6z M430.6,112.2c-0.9-0.2-1.7-0.4-2.6-0.6l0.1-0.4c0.9,0.2,1.7,0.4,2.6,0.6
					L430.6,112.2z M300.4,111.5l-0.1-0.4c0.9-0.2,1.7-0.4,2.6-0.5l0.1,0.4C302.2,111.2,301.3,111.3,300.4,111.5z M425.4,111.1
					c-0.9-0.2-1.8-0.3-2.6-0.5l0.1-0.4c0.9,0.2,1.8,0.3,2.6,0.5L425.4,111.1z M305.7,110.5l-0.1-0.4c0.9-0.2,1.8-0.3,2.6-0.5
					l0.1,0.4C307.4,110.2,306.6,110.3,305.7,110.5z M420.1,110.1c-0.9-0.2-1.8-0.3-2.6-0.5l0.1-0.4c0.9,0.2,1.8,0.3,2.6,0.5
					L420.1,110.1z M311,109.5l-0.1-0.4c0.9-0.2,1.8-0.3,2.6-0.4l0.1,0.4C312.7,109.2,311.8,109.4,311,109.5z M414.8,109.2
					c-0.9-0.1-1.8-0.3-2.6-0.4l0.1-0.4c0.9,0.1,1.8,0.3,2.6,0.4L414.8,109.2z M316.2,108.7l-0.1-0.4c0.9-0.1,1.8-0.3,2.6-0.4
					l0.1,0.4C318,108.4,317.1,108.5,316.2,108.7z M409.5,108.4c-0.9-0.1-1.8-0.3-2.7-0.4l0.1-0.4c0.9,0.1,1.8,0.2,2.7,0.4
					L409.5,108.4z M321.5,107.9l-0.1-0.4c0.9-0.1,1.8-0.2,2.7-0.3l0.1,0.4C323.3,107.7,322.4,107.8,321.5,107.9z M404.2,107.6
					c-0.9-0.1-1.8-0.2-2.7-0.3l0.1-0.4c0.9,0.1,1.8,0.2,2.7,0.3L404.2,107.6z M326.8,107.2l-0.1-0.4c0.9-0.1,1.8-0.2,2.7-0.3l0,0.4
					C328.6,107,327.7,107.1,326.8,107.2z M398.9,107c-0.9-0.1-1.8-0.2-2.7-0.3l0-0.4c0.9,0.1,1.8,0.2,2.7,0.3L398.9,107z
					 M332.2,106.7l0-0.4c0.9-0.1,1.8-0.2,2.7-0.3l0,0.4C333.9,106.5,333,106.6,332.2,106.7z M393.6,106.4c-0.9-0.1-1.8-0.2-2.7-0.2
					l0-0.4c0.9,0.1,1.8,0.2,2.7,0.2L393.6,106.4z M337.5,106.2l0-0.4c0.9-0.1,1.8-0.1,2.7-0.2l0,0.4
					C339.3,106,338.4,106.1,337.5,106.2z M388.3,106c-0.9-0.1-1.8-0.1-2.7-0.2l0-0.4c0.9,0.1,1.8,0.1,2.7,0.2L388.3,106z
					 M342.8,105.8l0-0.4c0.9-0.1,1.8-0.1,2.7-0.2l0,0.4C344.6,105.6,343.7,105.7,342.8,105.8z M382.9,105.6
					c-0.9-0.1-1.8-0.1-2.7-0.1l0-0.4c0.9,0,1.8,0.1,2.7,0.1L382.9,105.6z M348.1,105.5l0-0.4c0.9,0,1.8-0.1,2.7-0.1l0,0.4
					C349.9,105.4,349,105.4,348.1,105.5z M377.6,105.3c-0.9,0-1.8-0.1-2.7-0.1l0-0.4c0.9,0,1.8,0.1,2.7,0.1L377.6,105.3z
					 M353.5,105.2l0-0.4c0.9,0,1.8-0.1,2.7-0.1l0,0.4C355.3,105.2,354.4,105.2,353.5,105.2z M372.2,105.2c-0.9,0-1.8,0-2.7-0.1
					l0-0.4c0.9,0,1.8,0,2.7,0.1L372.2,105.2z M358.8,105.1l0-0.4c0.9,0,1.8,0,2.7,0l0,0.4C360.6,105.1,359.7,105.1,358.8,105.1z
					 M366.9,105.1c-0.9,0-1.8,0-2.7,0l0-0.4c0.9,0,1.8,0,2.7,0L366.9,105.1z"/>
			</g>
			<g>
				<path class="st18" d="M632.5,579.1l-0.4-0.2c0.2-0.4,0.5-0.8,0.7-1.1l0.4,0.2C632.9,578.3,632.7,578.7,632.5,579.1z"/>
			</g>
		</g>
		<g>
			<g>
				<g>
					<g>
						<polygon class="st19" points="594,619.8 654.7,585.8 633.8,584.5 						"/>
					</g>
				</g>
			</g>
			<g>
				<g>
					<g>
						<polygon class="st10" points="594,619.8 612.7,589.7 628.4,589.3 						"/>
					</g>
				</g>
			</g>
			<g>
				<g>
					<g>
						<polygon class="st20" points="640.7,593.6 642,601.3 594,619.8 						"/>
					</g>
				</g>
			</g>
		</g>
		<g>
			<g>
				<g>
					<path class="st3" d="M287.3,82.6l-21.6-18.8c-1.8-1.5-2-4.2-0.4-6c1.5-1.8,4.2-2,6-0.4l15.3,13.3l21.8-24.3
						c1.6-1.7,4.3-1.9,6-0.3c1.7,1.6,1.9,4.3,0.3,6L287.3,82.6z"/>
				</g>
			</g>
		</g>
		<g>
			<g>
				<path class="st3" d="M564.8,116.9c-2.1,0-3.9-1.7-3.9-3.9V59.7c0-2.1,1.7-3.9,3.9-3.9c2.1,0,3.9,1.7,3.9,3.9v53.4
					C568.7,115.2,567,116.9,564.8,116.9z"/>
			</g>
			<g>
				<path class="st3" d="M591.5,90.3h-53.4c-2.1,0-3.9-1.7-3.9-3.9c0-2.1,1.7-3.9,3.9-3.9h53.4c2.1,0,3.9,1.7,3.9,3.9
					C595.4,88.5,593.6,90.3,591.5,90.3z"/>
			</g>
		</g>
	</g>
</g>
</svg>
