<?xml version="1.0" encoding="utf-8"?>
<!-- Generator: Adobe Illustrator 23.0.0, SVG Export Plug-In . SVG Version: 6.00 Build 0)  -->
<svg version="1.1" id="Layer_1" xmlns="http://www.w3.org/2000/svg" xmlns:xlink="http://www.w3.org/1999/xlink" x="0px" y="0px"
	 width="544px" height="454px" viewBox="0 0 544 454" style="enable-background:new 0 0 544 454;" xml:space="preserve">
<style type="text/css">
	.st0{fill:#54A2E2;}
	.st1{fill:#066AC9;}
	.st2{fill:#463C4B;}
	.st3{fill:#32283C;}
	.st4{fill:#FEFEFE;}
	.st5{fill:#FFFFFF;}
	.st6{fill:#ED2643;}
	.st7{fill:#F9F9F9;}
</style>
<g>
	<path class="st0" d="M123.1,79.2c15.9-0.1,31.7-0.2,47.6-0.2c48-0.1,96-0.1,143.9-0.2c6.2-2.3,12.5-2.2,18.8-0.2
		c8,0.1,16,0.3,24.1,0.3c27.6,0.1,55.3,0,82.9,0c7-0.2,12.3,4.5,14.2,12.7c0.3,9-3.2,17-5.9,25.3c-16.6,49.8-33.1,99.5-49.7,149.3
		c-1.1,3.3-2.6,6.6-3.8,9.9c0.3,3.7-2.4,5.6-4.5,7.9c-5.9,6.4-13.4,9.8-21.7,11.5c-5.8,0.9-11.7-0.1-17.5,0.8
		c-15.2-0.6-30.4,0.2-45.6-1.4c-4.3-0.2-8.6-0.6-12.9-0.6c-33.1-0.1-66.1-0.1-99.2-0.2c-15.4-1.2-23.8-11-29.2-24.2
		c-2.2-5.5-3.8-11.3-5.7-17c-16.2-48.5-32.3-97-48.5-145.5c-1.1-3.2-2-6.4-2.1-9.8C108,87.8,113.5,81,123.1,79.2z"/>
	<path class="st1" d="M123.1,79.2c-12.6,5.8-16,13.7-11.6,27c17.4,52.3,35,104.5,52.1,156.8c5.1,15.6,13.6,27,30.2,31.1
		c-32.5,0-65,0.3-97.5,0C81.2,294,69,283.6,63.7,267.8c-15-44.9-29.9-89.8-44.9-134.7c-3.2-9.5-6.4-19.1-9.5-28.6
		C4.6,90,12.6,79,27.8,79C59.6,79,91.3,79.1,123.1,79.2z"/>
	<path class="st2" d="M370,294.1c10.6-2.8,19.2-8.4,25.1-17.9c15-0.1,29.9,0.8,43.8,7.1c33.9,15.4,52.4,41.7,55.3,78.9
		c0.8,9.9-2.5,12.9-12.7,13c-5.4,0-10.8,0.1-16.2,0.2c-4.3,2.7-9.1,1.2-13.7,1.5c-4.1-0.3-8.2,0.1-12.3,0c-2,0-4.2,0-5.8-1.5
		c-1.9-0.1-3.7-0.2-5.6-0.2c-102.3,0-204.6,0-306.9,0c-1.9,0-3.7,0.1-5.6,0.2c-4.3,2.7-9.1,1.2-13.7,1.5c-4.1-0.3-8.2,0.1-12.3,0
		c-2,0-4.2,0-5.8-1.5c-2.8-0.1-5.6-0.2-8.4-0.2c-7.9,0-11.5-2.8-11.5-8.8c-0.1-6.2,3.5-9.1,11.3-9.1c18.8,0,37.7,0,56.5,0
		c76.9,0,153.8,0,230.7-0.1c1.9,0,5.1,1.9,5.7-2.1c6,0.8,12.1,0.9,18.1,0.3c27.5,0.8,54.9,0.2,82.4,0.3c4.8,0,5.5-0.9,4.1-5.9
		c-7.3-27.3-24.9-44.5-52.2-51.6c-13.8-3.6-27.9-1.4-41.9-2C375.6,295.8,372.4,296.7,370,294.1z"/>
	<path class="st3" d="M333.4,78.6c-6.3,0.7-12.5,0.4-18.8,0.2c5-15.2,9.7-30.5,15.1-45.6c3.1-8.6,9.6-14.1,18.6-16.1
		c3-0.7,5.4-1.7,7.4-4.2c3.2-3.9,7.8-5.6,12.9-5.6c9,0,17.9-0.1,26.9,0c10.1,0.2,17.8,8,17.9,17.8c0.1,9.7-7.7,17.8-17.7,18
		c-9.1,0.2-18.3,0.1-27.4,0c-5.1,0-9.7-1.8-12.8-5.8c-3.5-4.5-5.9-2.1-8.2,0.8c-1,1.3-1.5,3-2.1,4.5
		C341.3,54.6,337.4,66.6,333.4,78.6z"/>
	<path class="st0" d="M101.8,375.3c4.5,0,9,0,13.5,0c14.4,4.1,24.5,12.6,28.1,27.7c5.3,21.9-11.6,43.8-34,43.9
		c-2.2,0-4.5-0.1-6.7-0.2c-19.7-0.5-31.5-20.3-31.8-34.9C70.7,395.8,83,376.4,101.8,375.3z"/>
	<path class="st0" d="M451.8,375.3c4.5,0,9,0,13.5,0c14.4,4.1,24.5,12.6,28.1,27.7c5.3,21.9-11.6,43.8-34,43.9
		c-2.2,0-4.5-0.1-6.7-0.2c-19.7-0.5-31.5-20.3-31.8-34.9C420.6,395.8,433,376.4,451.8,375.3z"/>
	<path class="st0" d="M478.5,16.3c4.4-6.6,10.6-9.5,18.5-9.2c7.8,0.3,15.6,0,23.5,0.1c10.8,0.1,18.8,7.9,18.7,18.1
		c-0.1,9.9-8,17.6-18.5,17.7c-7.6,0.1-15.3-0.3-22.9,0.1c-8.1,0.4-14.6-2.3-19.2-9C473.6,28.8,473.6,21.6,478.5,16.3z"/>
	<path class="st3" d="M385.7,355.8c-6,1.7-12.1,3-17.8-0.9c-6.8-33.3-29.5-55.2-62.1-60c15.2-0.9,30.5-1.2,45.7,0.1
		c1.8-0.2,3.2,0.8,4.5,1.9c16.1,14.1,26.6,31.4,30.6,52.6C386.9,351.7,387.5,353.9,385.7,355.8z"/>
	<path class="st1" d="M101.8,375.3C87.4,379.7,77,388,73.4,403.5c-4.4,19.2,8.3,38.8,28,42.4c0.5,0.1,1,0.5,1.4,0.8
		c-6,0.3-12,0.7-17.8-0.3c-16.8-2.9-29.3-16.4-30.3-32.6c-1.1-17.4,9.1-32.1,25.8-37.4c1-0.3,2.3,0,3-1.2
		C89.7,375.3,95.7,375.3,101.8,375.3z"/>
	<path class="st1" d="M451.8,375.3c-14.4,4.4-24.8,12.7-28.4,28.2c-4.4,19.2,8.3,38.8,28,42.4c0.5,0.1,1,0.5,1.4,0.8
		c-6,0.3-12,0.7-17.8-0.3c-16.8-2.9-29.3-16.4-30.3-32.6c-1.1-17.4,9.1-32.1,25.8-37.4c1-0.3,2.3,0,3-1.2
		C439.6,375.3,445.7,375.3,451.8,375.3z"/>
	<path class="st2" d="M478.5,16.3c-2.9,6-2.7,11.9,0,17.9c-4.5,1.3-6.4,4.7-7.7,8.8c-5.3,16.3-10.8,32.5-16.2,48.8
		c-3.1-6-7.6-10.6-14.2-12.7c4.5-15.9,9.7-31.6,15.6-47C459.8,22.3,468,17.3,478.5,16.3z"/>
	<path class="st4" d="M385.7,355.8c-2.5-25.3-14.6-45.2-34.2-60.8c6.1-1.7,12.4-0.1,18.5-0.9c11.6,0.1,23.2,0.1,34.7,0.2
		c34.2,0.4,62.4,23.5,70,56.7c1.1,4.7,0.5,6.3-5,6.2c-26.1-0.3-52.3-0.1-78.4-0.2C389.4,357.1,387.2,357.9,385.7,355.8z"/>
	<path class="st5" d="M192.3,141.8c0-5.6-0.1-11.2,0-16.8c0.1-6.8,3.3-9.9,10-10.1c5.2-0.1,10.5-0.1,15.7,0c6.3,0.1,10,3.3,10.1,9.5
		c0.3,11.6,0.3,23.2,0,34.7c-0.2,6.3-3.8,9.4-10.1,9.5c-5.2,0.1-10.5,0.1-15.7,0c-6.6-0.1-9.8-3.3-9.9-10.1
		C192.3,153,192.3,147.4,192.3,141.8z"/>
	<path class="st5" d="M264.1,142c0-5.8-0.1-11.6,0-17.4c0.2-6.4,3.3-9.6,9.7-9.8c5.4-0.1,10.8-0.1,16.2,0c6,0.1,9.6,3.3,9.8,9.3
		c0.3,11.8,0.3,23.5,0,35.3c-0.2,6-3.8,9.1-9.8,9.2c-5.4,0.1-10.8,0.1-16.2,0c-6.3-0.2-9.5-3.4-9.6-9.8
		C264,153.2,264.1,147.6,264.1,142z"/>
	<path class="st5" d="M335.9,141.9c0-5.8-0.1-11.6,0-17.4c0.2-6.4,3.4-9.5,9.8-9.6c5.2-0.1,10.5-0.1,15.7,0
		c6.4,0.1,10.1,3.2,10.2,9.4c0.3,11.6,0.3,23.2,0,34.7c-0.1,6.3-3.7,9.5-10,9.7c-5.4,0.1-10.8,0.1-16.2,0c-6.1-0.2-9.3-3.4-9.5-9.4
		C335.8,153.5,335.9,147.7,335.9,141.9z"/>
	<path class="st5" d="M192.3,231.5c0-5.6-0.1-11.2,0-16.8c0.1-6.8,3.3-9.9,9.9-10.1c5.2-0.1,10.5-0.1,15.7,0
		c6.3,0.1,10,3.3,10.1,9.5c0.3,11.6,0.3,23.2,0,34.7c-0.2,6.3-3.8,9.4-10.1,9.5c-5.2,0.1-10.5,0.1-15.7,0c-6.6-0.1-9.8-3.3-9.9-10.1
		C192.3,242.7,192.3,237.1,192.3,231.5z"/>
	<path class="st5" d="M264.1,231.7c0-6-0.1-12,0-17.9c0.2-5.7,3.4-8.9,9.2-9.1c5.6-0.2,11.2-0.2,16.8,0c5.7,0.1,9.4,3.2,9.6,8.8
		c0.4,11.9,0.4,23.9,0,35.8c-0.2,5.9-3.9,9-9.9,9.1c-5.4,0.1-10.8,0.1-16.2,0c-6.1-0.2-9.3-3.4-9.5-9.4
		C264,243.2,264.1,237.4,264.1,231.7z"/>
	<path class="st5" d="M335.9,231.2c0-5.6-0.1-11.2,0-16.8c0.2-6.5,3.3-9.6,9.7-9.8c5.4-0.1,10.8-0.1,16.2,0c6,0.1,9.7,3.3,9.8,9.2
		c0.3,11.8,0.3,23.5,0,35.3c-0.2,6-3.8,9.1-9.8,9.2c-5.4,0.1-10.8,0.1-16.2,0c-6.3-0.2-9.4-3.4-9.7-9.8c0-0.4,0-0.7,0-1.1
		C335.9,242.1,335.9,236.6,335.9,231.2z"/>
	<path class="st5" d="M90.6,411.1c-0.1-9.8,7.8-17.9,17.6-18.1c10-0.2,18.3,8,18.3,18c-0.1,9.7-8.2,17.8-17.9,17.8
		C98.7,428.9,90.7,420.9,90.6,411.1z"/>
	<path class="st5" d="M440.5,410.8c0.1-9.8,8.1-17.8,17.9-17.8s17.9,8,17.9,17.8c0.1,9.9-8.3,18.2-18.3,18.1
		C448.3,428.7,440.4,420.7,440.5,410.8z"/>
	<path class="st6" d="M85.1,7.2c1.7,0.9,3.6,0.8,5.4,1.1c31,5.6,53.1,37.3,47.5,68.2c-4.3,23.7-17.9,39.9-40.6,47.6
		c-25.4,8.7-53.7-0.8-68.7-24.1c-14.6-22.5-13.1-49.8,3.6-70.7C42.2,17.1,55.2,10,70.8,7.7c0.5-0.1,1.2,0.2,1.6-0.6
		C76.6,7.2,80.8,7.2,85.1,7.2z"/>
	<path class="st7" d="M78.9,61.8c7,0,14,0,21,0c3.4,0,5.4,1.6,6,4.4c0.8,3.5-1.9,6.4-6,6.4c-7.8,0.1-15.7,0-23.5,0
		c-6.3,0-12.6,0.1-18.9,0c-3.2,0-5.2-1.7-5.7-4.4c-0.5-2.5,0.7-4.8,3-5.9c1.2-0.6,2.5-0.5,3.8-0.5C65.2,61.8,72,61.8,78.9,61.8z"/>
</g>
</svg>
