<?xml version="1.0" encoding="utf-8"?>
<!-- Generator: Adobe Illustrator 23.0.0, SVG Export Plug-In . SVG Version: 6.00 Build 0)  -->
<svg version="1.1" id="Layer_1" xmlns="http://www.w3.org/2000/svg" xmlns:xlink="http://www.w3.org/1999/xlink" x="0px" y="0px"
	 width="53.7px" height="57.7px" viewBox="0 0 53.7 57.7" style="enable-background:new 0 0 53.7 57.7;" xml:space="preserve">
<style type="text/css">
	.st0{fill:#7FA9FE;}
	.st1{fill:#98CBFE;}
	.st2{fill:#FE9833;}
	.st3{fill:#FEC24D;}
	.st4{fill:#FEA440;}
	.st5{fill:#FECC6A;}
	.st6{fill:#FEE566;}
	.st7{fill:#6680FE;}
	.st8{fill:#80A9FE;}
</style>
<g>
	<path class="st0" d="M48.5,31.2c0.3,0.3,0.4,0.7,0.4,1.2c0,2.2,0,4.4,0,6.6c0,1.1-0.7,1.8-1.8,1.8c-0.6,0-1.2,0-1.9,0
		c-0.3,0-0.4,0.1-0.5,0.4c-0.3,1.2-0.8,2.3-1.4,3.3c-0.1,0.2-0.1,0.4,0.1,0.6c0.5,0.4,0.9,0.9,1.4,1.4c0.7,0.8,0.8,1.7,0,2.4
		c-1.6,1.6-3.1,3.2-4.7,4.7c-0.8,0.7-1.7,0.7-2.4,0c-0.5-0.5-0.9-0.9-1.4-1.4c-0.2-0.2-0.3-0.2-0.6-0.1c-1.1,0.6-2.2,1-3.3,1.4
		c-0.3,0.1-0.4,0.2-0.4,0.5c0,0.5,0,1.1,0,1.6c0.1,1-0.3,1.7-1.2,2.1c-1.3,0-2.6,0-3.8,0c-0.2-0.2-0.2-0.4-0.2-0.6c0-3,0-6,0-9
		c0-0.1,0-0.3,0.1-0.4c0.1-0.3,0.4-0.3,0.7-0.3c3-0.2,5.7-1.4,7.8-3.6c1.8-1.9,2.9-4.1,3.2-6.7c0.1-1.2,0.1-2.4-0.1-3.6
		c0-0.1-0.1-0.3,0-0.4c0.1-0.2,0.3-0.2,0.4-0.2c3-0.5,5.9-1,8.9-1.7C47.9,31.2,48.2,31,48.5,31.2z"/>
	<path class="st1" d="M26.9,47.5c0,3.4,0,6.8,0,10.2c-1.3,0-2.6,0-3.8,0c-1-0.5-1.3-1.3-1.2-2.4c0-0.6,0.2-1.2-0.1-1.7
		c-0.2-0.5-1-0.4-1.5-0.6c-0.7-0.3-1.4-0.5-2-0.9c-0.3-0.2-0.5-0.1-0.8,0.1c-0.4,0.4-0.8,0.9-1.3,1.3c-0.8,0.8-1.8,0.8-2.5,0
		c-1.6-1.5-3.1-3.1-4.7-4.7c-0.7-0.8-0.7-1.7,0-2.5c0.5-0.5,0.9-0.9,1.4-1.4c0.2-0.2,0.2-0.3,0.1-0.5c-0.6-1-1-2.1-1.4-3.2
		c-0.1-0.4-0.3-0.5-0.6-0.4c-0.6,0-1.2,0-1.9,0c-1,0-1.7-0.7-1.7-1.7c0-2.2,0-4.4,0-6.6c0-0.4,0.2-0.8,0.4-1.2
		c0.2-0.2,0.4-0.1,0.6,0c3.1,0.7,6.2,1.3,9.3,1.8c0.2,0,0.3,0,0.4,0.2c-0.6,1.1-0.5,2.3-0.4,3.5c0.2,2.9,1.4,5.4,3.4,7.4
		c1.8,1.8,4.1,2.9,6.6,3.3C25.8,47.3,26.3,47.3,26.9,47.5C26.8,47.4,26.8,47.5,26.9,47.5z"/>
	<path class="st2" d="M29,0.1c0.6,0.2,1.3,0.2,2,0.3c2,0.3,3.9,0.9,5.7,1.6c1.1,0.5,1.5,1.4,1,2.5c-0.2,0.5-0.4,0.9-0.6,1.4
		c0,0.3-0.1,0.5-0.2,0.7c-1.5,3.4-3.1,6.8-4.6,10.2c-0.2,0.3-0.3,0.7-0.5,1c-0.5,0.9-1.5,1.2-2.3,0.9c-1-0.5-1.4-1.5-1-2.4
		c0.5-1.2,1-2.3,1.6-3.5c1.1-2.5,2.3-5.1,3.4-7.6c0.2-0.3,0.1-0.5-0.3-0.6c-1.4-0.4-2.8-0.7-4.2-0.9c-0.7-0.1-1.5,0-2.2-0.2
		c0-0.1-0.1-0.1-0.1-0.2c-0.1-0.9,0-1.9,0-2.8c0-0.2,0.1-0.3,0.2-0.4c0.2,0,0.3,0,0.5,0c0.3,0.1,0.7,0.1,1,0
		C28.6,0.1,28.8,0.1,29,0.1z"/>
	<path class="st3" d="M26.9,0.1c0,1.1,0,2.3,0,3.4c-0.2,0.2-0.5,0.1-0.7,0.1c-1.9,0.1-3.8,0.4-5.6,0.9C20,4.7,20,4.7,20.2,5.2
		c1.6,3.6,3.2,7.3,4.9,10.9c0.2,0.5,0.3,1,0.1,1.6c-0.3,0.7-0.8,1.1-1.6,1.2c-0.8,0-1.3-0.3-1.7-1c-0.8-1.4-1.3-2.9-2-4.3
		c-1-2.3-2.1-4.6-3.1-6.9c-0.1-0.2-0.2-0.5-0.2-0.7c-0.2-0.5-0.4-1-0.6-1.4c-0.4-1.1-0.1-1.9,0.9-2.4c2.4-1,4.9-1.6,7.4-1.9
		c0.1,0,0.3,0,0.3-0.1c0.3,0,0.7,0,1,0c0.2,0.1,0.5,0.1,0.7,0C26.6,0.1,26.7,0.1,26.9,0.1z"/>
	<path class="st4" d="M28.3,0.1c-0.3,0.2-0.7,0.2-1,0C27.6,0.1,28,0.1,28.3,0.1z"/>
	<path class="st5" d="M26.4,0.1c-0.2,0.2-0.5,0.2-0.7,0C26,0.1,26.2,0.1,26.4,0.1z"/>
	<path class="st3" d="M15.6,33.2c-1.6-0.3-3.2-0.5-4.8-0.8c-1.8-0.4-3.7-0.8-5.5-1.2C4.5,31,3.7,30.8,3,30.6c-1-0.3-1.5-0.8-1.5-1.9
		c0-1.6,0-3.1,0-4.7c0-1.2,0.7-1.8,1.9-1.8c0.6,0,1.2,0,1.7,0C5.3,22,5.6,22,5.9,22c6.7,0,13.5,0,20.2,0c0.3,0,0.5,0,0.8,0.2
		c0.2,0.2,0.2,0.5,0.2,0.8c0,3.4,0,6.9,0,10.3c0,0.2,0,0.5-0.1,0.7c-0.3,0.3-0.6,0.2-0.9,0.2c-2.5,0-4.9-0.2-7.3-0.5
		c-0.8-0.1-1.7-0.2-2.5-0.3C16,33.3,15.8,33.3,15.6,33.2z"/>
	<path class="st6" d="M26.9,22.1c-7.2,0-14.5,0-21.7,0c0.3-1.6,0.7-3.2,1.3-4.8c2-4.9,5.3-8.6,9.8-11.2c0.1-0.1,0.2-0.1,0.3-0.2
		c1.8,3.9,3.5,7.8,5.2,11.7c0.2,0.5,0.6,0.9,1.1,1.1c0.6,0.2,1.2,0.1,1.7-0.4c0.5-0.4,0.7-1,0.5-1.7c-0.4-0.9-0.8-1.8-1.2-2.7
		c-1.3-2.9-2.6-5.9-4-8.8c-0.2-0.4-0.1-0.5,0.3-0.6C21.8,4,23.3,3.6,25,3.5c0.6,0,1.3-0.1,1.9-0.1c0,0,0,0,0,0
		C27.1,3.7,27,3.9,27,4.2c0,5.7,0,11.5,0,17.2C27,21.6,27,21.8,26.9,22.1C26.9,22.1,26.9,22.1,26.9,22.1z"/>
	<path class="st2" d="M26.9,33.9c0-3.9,0-7.9,0-11.8c0,0,0,0,0,0c0.2-0.2,0.5-0.2,0.7-0.2c6.8,0,13.5,0,20.3,0c0.3,0,0.5,0,0.8,0.2
		c0.6,0,1.2,0,1.9,0c1,0,1.7,0.7,1.7,1.7c0,1.7,0,3.3,0,5c0,0.9-0.4,1.5-1.3,1.7c-0.8,0.2-1.6,0.4-2.4,0.6c-3.1,0.7-6.3,1.3-9.4,1.8
		c-0.2,0-0.5,0-0.7,0.1c-0.1,0.2-0.4,0.2-0.6,0.2c-0.9,0.1-1.8,0.3-2.7,0.3c-2.4,0.3-4.9,0.5-7.3,0.5C27.4,34.1,27.1,34.2,26.9,33.9
		z"/>
	<path class="st3" d="M48.6,22.1c-7.3,0-14.5,0-21.8,0c0-6.2,0-12.5,0-18.7c2.2,0,4.4,0.4,6.5,1c0.6,0.2,0.5,0.4,0.3,0.8
		c-1.7,3.7-3.3,7.4-5,11.1c-0.3,0.7-0.1,1.6,0.4,2c0.6,0.5,1.3,0.6,2.1,0.1c0.6-0.4,0.7-1,1-1.6c1.3-2.8,2.5-5.6,3.7-8.4
		c0.4-0.9,0.8-1.7,1.2-2.6c2.2,1.2,4.2,2.7,5.9,4.6c2.9,3.2,4.7,6.9,5.5,11.1C48.5,21.8,48.6,22,48.6,22.1z"/>
	<path class="st7" d="M35,33.5c1.1-0.1,2.2-0.3,3.3-0.4c0.3,0.5,0.3,1.1,0.3,1.6c0.1,2.1-0.2,4.1-1.1,6c-1.4,2.8-3.5,4.8-6.4,5.9
		c-1.4,0.5-2.8,0.8-4.3,0.8c0,0,0,0,0,0c-0.1-0.1-0.2-0.3-0.2-0.4c0-0.9-0.1-1.9,0-2.8c0.1-0.3,0.4-0.3,0.6-0.3
		c1.7-0.2,3.2-0.7,4.6-1.7c2.1-1.7,3.2-4,3.2-6.7c0-0.5-0.1-0.9-0.2-1.4C35,33.9,34.9,33.7,35,33.5z"/>
	<path class="st8" d="M26.9,44.1c0,1.1,0,2.2,0,3.4c-3.5,0-6.5-1.4-8.8-3.9c-1.6-1.8-2.6-4-2.9-6.4c-0.1-1.1-0.1-2.2,0-3.3
		c0-0.3,0-0.7,0.5-0.7c1,0.1,2,0.2,3,0.4c0.2,0.2,0.1,0.5,0,0.8c-0.3,2.2,0.1,4.2,1.3,5.9c1.5,2.2,3.6,3.5,6.3,3.7
		C26.5,44,26.7,43.9,26.9,44.1z"/>
</g>
</svg>
