<?xml version="1.0" encoding="utf-8"?>
<!-- Generator: Adobe Illustrator 23.0.0, SVG Export Plug-In . SVG Version: 6.00 Build 0)  -->
<svg version="1.1" id="Layer_1" xmlns="http://www.w3.org/2000/svg" xmlns:xlink="http://www.w3.org/1999/xlink" x="0px" y="0px"
	 width="661.5px" height="395.4px" viewBox="0 0 661.5 395.4" style="enable-background:new 0 0 661.5 395.4;" xml:space="preserve"
	>
<style type="text/css">
	.st0{fill-rule:evenodd;clip-rule:evenodd;fill:#E0E8F5;}
	.st1{fill-rule:evenodd;clip-rule:evenodd;fill:#B5C5E5;}
	.st2{fill-rule:evenodd;clip-rule:evenodd;fill:#FFFFFF;}
	.st3{fill-rule:evenodd;clip-rule:evenodd;fill:#A0B3D8;}
	.st4{fill-rule:evenodd;clip-rule:evenodd;fill:#0B0C14;}
	.st5{fill-rule:evenodd;clip-rule:evenodd;fill:url(#SVGID_1_);}
	.st6{fill-rule:evenodd;clip-rule:evenodd;fill:#101537;}
	.st7{fill-rule:evenodd;clip-rule:evenodd;fill:#B22B25;}
	.st8{fill-rule:evenodd;clip-rule:evenodd;fill:#D64E47;}
	.st9{fill-rule:evenodd;clip-rule:evenodd;fill:#3C405F;}
	.st10{fill-rule:evenodd;clip-rule:evenodd;fill:#684935;}
	.st11{fill-rule:evenodd;clip-rule:evenodd;fill:#B66B41;}
	.st12{fill-rule:evenodd;clip-rule:evenodd;fill:#D48750;}
	.st13{fill-rule:evenodd;clip-rule:evenodd;fill:#EA5857;}
	.st14{fill-rule:evenodd;clip-rule:evenodd;fill:#DB4242;}
	.st15{fill-rule:evenodd;clip-rule:evenodd;fill:#FFFAF9;}
	.st16{fill-rule:evenodd;clip-rule:evenodd;fill:#131936;}
	.st17{fill-rule:evenodd;clip-rule:evenodd;fill:#101326;}
	.st18{fill-rule:evenodd;clip-rule:evenodd;fill:#F4AC83;}
	.st19{fill-rule:evenodd;clip-rule:evenodd;fill:#F2D8CC;}
	.st20{fill-rule:evenodd;clip-rule:evenodd;fill:#DCDCEF;}
	.st21{fill-rule:evenodd;clip-rule:evenodd;fill:#B6B7D3;}
	.st22{fill-rule:evenodd;clip-rule:evenodd;fill:#D1D0E6;}
	.st23{fill-rule:evenodd;clip-rule:evenodd;fill:#9395BC;}
	.st24{fill-rule:evenodd;clip-rule:evenodd;fill:#C0CDE9;}
	.st25{fill-rule:evenodd;clip-rule:evenodd;fill:#F7B119;}
	.st26{fill:#FFFFFF;}
	.st27{fill-rule:evenodd;clip-rule:evenodd;fill:#2B4E3D;}
	.st28{fill-rule:evenodd;clip-rule:evenodd;fill:#4B9176;}
	.st29{fill-rule:evenodd;clip-rule:evenodd;fill:#1C7255;}
	.st30{fill-rule:evenodd;clip-rule:evenodd;fill:#A6C86B;}
	.st31{fill-rule:evenodd;clip-rule:evenodd;fill:#609850;}
	.st32{fill-rule:evenodd;clip-rule:evenodd;fill:#151D3D;}
	.st33{fill-rule:evenodd;clip-rule:evenodd;fill:#34395C;}
	.st34{fill-rule:evenodd;clip-rule:evenodd;fill:#494F79;}
	.st35{fill-rule:evenodd;clip-rule:evenodd;fill:#CECEE2;}
	.st36{fill-rule:evenodd;clip-rule:evenodd;fill:#EDEDF7;}
</style>
<g>
	<path class="st0" d="M512.9,275.9h55.3h1.4c30.5,0,55.5,25,55.5,55.5l0,0c0,30.5-25,55.5-55.5,55.5H407.6h-27.9H89.9
		C40.5,386.9,0,346.4,0,297l0,0c0-49.4,40.5-89.9,89.9-89.9h0c20.9,0,38-17.1,38-38l0,0c0-20.9-17.1-38-38-38H44.2
		c-21.7,0-39.5-17.8-39.5-39.5l0,0C4.6,69.8,22.4,52,44.2,52H102c8.5,0,15.4-6.9,15.4-15.4l0,0c0-8.5-6.9-15.4-15.4-15.4H91.8
		c-5.8,0-10.6-4.8-10.6-10.6l0,0C81.2,4.8,86,0,91.8,0H130c0,0,14.6,0,28.7,0c14.1,0,15.7,16.6,51.3,16.6c55,0,27.5,0,82.5,0
		c7.6,0,13.9,6.2,13.9,13.9v0c0,7.6-6.2,13.9-13.9,13.9h-13.3c-11,0-20.1,9-20.1,20.1v0c0,11,9,20.1,20.1,20.1h40
		c54.1,0,61.7,14.1,71.2,42.2c9.5,28.1,58.7,30.4,58.7,30.4h67.3c16.6,0,30.3,13.6,30.3,30.3l0,0c0,16.6-13.6,30.3-30.3,30.3h-3.5
		c-16,0-29.1,13.1-29.1,29.1l0,0C483.8,262.8,496.9,275.9,512.9,275.9L512.9,275.9z M62,21.2c5.9,0,10.6-4.8,10.6-10.6
		C72.6,4.8,67.9,0,62,0c-5.9,0-10.6,4.8-10.6,10.6C51.4,16.5,56.1,21.2,62,21.2z"/>
	<g>
		<path class="st1" d="M461.6,387.5c5.8-8.3,17.8-22.2,40.8-36c36.4-21.8,64-50.8,51.9-67.9c-11.9-16.8-65.3,15.6-109.6,96.8
			C451.3,383.8,456.9,386.1,461.6,387.5z"/>
		<path class="st2" d="M454.5,380.1c1-0.1,3.7,0,7.2,1c0.2,0.1,0.5-0.1,0.6-0.3c0.1-0.2-0.1-0.5-0.3-0.6c-3.1-0.9-5.6-1-6.9-1
			c0.8-1.3,1.6-2.7,2.4-4c1.6,0,6.8-0.1,8.7,0c0.3,0,0.5-0.2,0.5-0.4c0-0.3-0.2-0.5-0.4-0.5c-1.8-0.1-6.2,0-8.2,0
			c1.5-2.4,3-4.8,4.4-7.1c1.6,0,6.4,0.2,11.7,0.9c0.3,0,0.5-0.1,0.5-0.4c0-0.3-0.1-0.5-0.4-0.5c-4.8-0.7-9.3-0.8-11.3-0.9
			c1.5-2.3,3-4.5,4.5-6.7c2.1,0,9.1,0.2,16.7,1.3c0.3,0,0.5-0.1,0.5-0.4c0-0.3-0.1-0.5-0.4-0.5c-7.1-1-13.6-1.2-16.2-1.3
			c2-2.8,3.9-5.6,5.9-8.2c2.2-0.1,11.5-0.3,18.4,1.9c0.2,0.1,0.5-0.1,0.6-0.3c0.1-0.2-0.1-0.5-0.3-0.6c-6.5-2.1-14.9-2.1-18-2
			c2.4-3.2,4.8-6.2,7.1-9.1c3,0.2,15.3,1.1,21,5.2c0.2,0.1,0.5,0.1,0.6-0.1c0.1-0.2,0.1-0.5-0.1-0.6c-5.6-3.9-16.9-5-20.8-5.3
			c2.5-3,5-5.9,7.4-8.6c2.2,0.5,11.5,2.8,20.3,7.2c0.2,0.1,0.5,0,0.6-0.2c0.1-0.2,0-0.5-0.2-0.6c-8.3-4.2-17-6.4-20-7.1
			c1.4-1.6,2.9-3.1,4.3-4.6c2.1,0.4,11.2,2.5,23.2,8.3c0.2,0.1,0.5,0,0.6-0.2c0.1-0.2,0-0.5-0.2-0.6c-11.2-5.4-19.9-7.6-22.8-8.3
			c3.4-3.4,6.7-6.6,9.8-9.4c2.7,0.9,16.3,5.5,23.5,10.1c0.2,0.1,0.5,0.1,0.6-0.1c0.1-0.2,0.1-0.5-0.1-0.6c-6.9-4.4-19.5-8.8-23.2-10
			c1.9-1.6,3.7-3.2,5.4-4.6c2.3,0.8,12.9,4.5,22.5,10.1c0.2,0.1,0.5,0.1,0.6-0.2c0.1-0.2,0.1-0.5-0.2-0.6c-9.1-5.3-19-8.9-22.1-10
			c4.1-3.3,8.1-6.2,11.7-8.5c2.3,0.5,12.6,3.1,20.3,7.6c0.2,0.1,0.5,0.1,0.6-0.2c0.1-0.2,0.1-0.5-0.2-0.6
			c-7.1-4.1-16.3-6.6-19.7-7.5c1.5-1,2.9-1.9,4.3-2.7c1.8,0.2,8.7,1.1,17.5,4.5c0.2,0.1,0.5,0,0.6-0.3c0.1-0.2,0-0.5-0.3-0.6
			c-7.5-2.9-13.7-4-16.5-4.4c11.1-6.4,18-8,18-8c0.4-0.1,0.6-0.5,0.5-0.8c-0.1-0.4-0.5-0.6-0.8-0.5c0,0-3.1,0.7-8.3,3.1
			c1.4-1.8,3.5-4.3,4-4.7c0.2-0.1,0.3-0.4,0.2-0.6c-0.1-0.2-0.4-0.3-0.6-0.2c-0.8,0.5-4.2,4.8-5.4,6.3c-2.1,1-4.6,2.2-7.2,3.8
			l4.6-9.1c0.1-0.2,0-0.5-0.2-0.6c-0.2-0.1-0.5,0-0.6,0.2l-5.2,10.3c-1.8,1.1-3.8,2.3-5.9,3.6l4.9-10.8c0.1-0.2,0-0.5-0.2-0.6
			c-0.2-0.1-0.5,0-0.6,0.2l-5.5,12.1c-3.1,2.1-6.3,4.4-9.8,7.2l4.3-11.2c0.1-0.2,0-0.5-0.3-0.6c-0.2-0.1-0.5,0-0.6,0.3l-4.8,12.6
			c-1.6,1.3-3.2,2.6-4.8,4l3.6-10.1c0.1-0.2,0-0.5-0.3-0.6c-0.2-0.1-0.5,0-0.6,0.3l-4.2,11.6c-3,2.7-6.2,5.7-9.4,8.9l2.7-9.8
			c0.1-0.2-0.1-0.5-0.3-0.6c-0.2-0.1-0.5,0.1-0.6,0.3l-3.2,11.4c-1.3,1.3-2.6,2.7-3.9,4.1l1.5-7.5c0-0.2-0.1-0.5-0.4-0.5
			c-0.3-0.1-0.5,0.1-0.5,0.4l-1.8,9c-2.4,2.6-4.8,5.4-7.3,8.4l1.4-8.4c0-0.3-0.1-0.5-0.4-0.5c-0.3,0-0.5,0.1-0.5,0.4l-1.7,9.9
			c-2.2,2.6-4.3,5.4-6.5,8.3l0.9-7.4c0-0.3-0.1-0.5-0.4-0.5c-0.3,0-0.5,0.1-0.5,0.4l-1.1,9c-1.9,2.6-3.8,5.2-5.8,8l0-6.7
			c0-0.3-0.2-0.5-0.5-0.5c-0.3,0-0.5,0.2-0.5,0.5l-0.1,8.1c-1.4,2-2.8,4.1-4.2,6.3l-0.7-5.7c0-0.3-0.3-0.4-0.5-0.4
			c-0.3,0-0.4,0.3-0.4,0.5l0.9,6.8c-1.3,2-2.6,4-3.9,6.1l-0.7-3.7c0-0.3-0.3-0.4-0.5-0.4c-0.3,0-0.4,0.3-0.4,0.5l0.9,4.7
			c-1,1.6-1.9,3.2-2.9,4.8l-1.5-3c-0.1-0.2-0.4-0.3-0.6-0.2c-0.2,0.1-0.3,0.4-0.2,0.6l1.8,3.6c-0.8,1.3-1.6,2.7-2.4,4.1
			c0.4,0.2,0.9,0.4,1.3,0.6C453,382.6,453.7,381.3,454.5,380.1z"/>
	</g>
	<g>
		<path class="st3" d="M455,392.2c6.2-3.9,17-9.1,33.4-11.4c27.8-4,52.7-15.4,50.8-30.6c-1.8-14.7-41.3-9-90.4,30.8L455,392.2
			L455,392.2z"/>
		<path class="st1" d="M531.7,352.4c0.5,0,1-0.4,0.9-1c0-0.5-0.4-1-1-0.9c0,0-3.1,0-8.4,0.7l4.5-3.1c0.3-0.2,0.4-0.6,0.2-0.9
			c-0.2-0.3-0.6-0.4-0.9-0.2l-6.8,4.6c-2.5,0.4-5.3,1-8.4,1.7l4.8-4.6c0.3-0.2,0.3-0.6,0-0.9c-0.2-0.3-0.6-0.3-0.9,0l-6.4,6.1
			c-3.2,0.8-6.7,1.9-10.4,3.2l4-4.1c0.2-0.3,0.2-0.7,0-0.9c-0.3-0.2-0.7-0.2-0.9,0l-5.8,6c-3.9,1.5-7.9,3.2-12.1,5.2l3.4-4.3
			c0.2-0.3,0.2-0.7-0.1-0.9c-0.3-0.2-0.7-0.2-0.9,0.1l-5,6.4c-3.9,2-8,4.3-12.1,7l1.4-3c0.1-0.3,0-0.7-0.3-0.8
			c-0.3-0.1-0.7,0-0.8,0.3l-2.3,4.8c-3.1,2.1-6.3,4.3-9.4,6.8l1.3-3c0.1-0.3,0-0.7-0.3-0.8c-0.3-0.1-0.7,0-0.8,0.3l-2.2,5.2
			c-1.5,1.3-3.1,2.6-4.6,3.9l0.9,1.7c1.5-1.4,3.1-2.7,4.6-3.9c1.6,0.1,5.3,0.4,6.9,1.3c0.3,0.2,0.7,0,0.9-0.3c0.2-0.3,0-0.7-0.3-0.9
			c-1.4-0.7-4.2-1.1-6.1-1.3c1.2-1,2.4-1.9,3.6-2.8c1.5,0.3,5.3,1,7.9,2.4c0.3,0.2,0.7,0.1,0.9-0.2c0.2-0.3,0.1-0.7-0.2-0.9
			c-2.2-1.2-5.2-2-7.1-2.4c2.5-1.8,5-3.5,7.5-5.1c2.1,0.9,8.8,3.7,11.5,5.9c0.3,0.2,0.7,0.2,0.9-0.1c0.2-0.3,0.2-0.7-0.1-0.9
			c-2.5-2-8.2-4.6-11-5.7c2.6-1.7,5.3-3.2,7.8-4.6c2.1,0.8,9,3.6,13.6,7.2c0.3,0.2,0.7,0.2,0.9-0.1c0.2-0.3,0.2-0.7-0.1-0.9
			c-4.1-3.2-10-5.8-12.9-7c1.3-0.7,2.5-1.3,3.8-1.9c2.2,0.7,9.6,3.3,16.5,8.3c0.3,0.2,0.7,0.1,0.9-0.1c0.2-0.3,0.1-0.7-0.1-0.9
			c-6-4.4-12.5-6.9-15.6-8c4.5-2.1,8.9-3.9,13-5.3c2.4,1.5,11.8,7.4,16,11.3c0.3,0.2,0.7,0.2,0.9,0c0.2-0.3,0.2-0.7,0-0.9
			c-3.8-3.6-12-8.9-15.3-11c3.1-1,6-1.9,8.7-2.6c2.2,1.7,10.3,7.8,12.1,9.5c0.3,0.2,0.7,0.2,0.9-0.1c0.2-0.3,0.2-0.7-0.1-0.9
			c-1.7-1.5-8.5-6.7-11.4-8.9c3.5-0.9,6.7-1.5,9.5-1.9c2,1.7,6.7,5.8,7.8,6.9c0.2,0.2,0.7,0.2,0.9,0c0.2-0.2,0.2-0.7,0-0.9
			c-1-1-4.8-4.3-7-6.3C528.4,352.4,531.7,352.4,531.7,352.4z"/>
	</g>
	<path class="st3" d="M363.7,307.3c-0.4-5.5-0.6-10.9-0.6-16.2c0-5.3,0.3-10.4,0.7-15.4c1.6-18.4,6.1-34.3,12.8-47.9
		c7.2-14.7,17-26.7,28.6-36.2c10.7-8.8,22.9-15.6,36-20.4c14-5.2,29.1-8.2,44.3-9.3c5.1-0.4,10.3-0.5,15.5-0.5
		c5.3,0,10.5,0.3,15.7,0.8v0c0.6,0.1,1.1,0.3,1.5,0.8c0.4,0.4,0.5,1,0.5,1.6l0,0.1c-0.2,2-4.9,45.6-26.1,85
		c-21.5,39.8-59.8,75.4-127.3,59.7c-0.5-0.1-0.9-0.4-1.2-0.7C363.9,308.2,363.8,307.8,363.7,307.3L363.7,307.3L363.7,307.3z
		 M516.5,165.6c-2.5,1-12.9,5.2-27.5,13.4c5.7,1,18.6,3.4,24.3,5.3C515.3,175,516.2,168.3,516.5,165.6L516.5,165.6z M512.9,186.3
		L512.9,186.3c-6.7-2.2-24.1-5.2-26.7-5.7c-7.2,4.2-15.4,9.3-24.1,15.5l45.2,11.9C509.7,200.1,511.5,192.7,512.9,186.3L512.9,186.3z
		 M506.7,210l-46.8-12.3c-8.1,5.8-16.5,12.5-25.1,20.2c9.3,2.8,53.6,16.4,61.1,20.2C500.4,228.5,503.9,218.9,506.7,210L506.7,210z
		 M495.1,239.9c-7.6-3.9-56.5-18.8-62-20.5c-6.8,6.2-13.7,13-20.5,20.5l69.7,22.2c0.1,0,0.2,0.1,0.2,0.1c3-4.5,5.7-9,8.2-13.7
		C492.3,245.7,493.7,242.8,495.1,239.9L495.1,239.9z M481.3,264l-70.2-22.4c-5.3,5.9-10.4,12.1-15.5,18.8
		c11.3,3.8,69.5,21.9,69.7,22c0.2,0.1,0.3,0.1,0.4,0.2C471.5,276.9,476.7,270.6,481.3,264L481.3,264z M464.1,284.2
		c-6.2-1.9-60.6-18.9-69.8-22c-4.3,5.8-8.5,11.9-12.5,18.3c13.7,6.8,59.9,18.8,60,18.8c0.3,0.1,0.5,0.2,0.6,0.5
		C450.5,295.5,457.7,290.2,464.1,284.2L464.1,284.2z M440.2,301c-7.4-1.9-46.9-12.5-59.4-18.7c-2.6,4.2-5,8.5-7.4,12.9
		c5.3,2.1,28.9,11.1,44.2,12.7c0.4,0,0.8,0.3,0.9,0.7C426.2,306.9,433.5,304.3,440.2,301L440.2,301z M413.8,309.4
		c-15.6-2.4-37-10.7-41.5-12.5c-1.8,3.4-3.6,6.9-5.3,10.4C384.6,311.3,400.1,311.7,413.8,309.4L413.8,309.4z M365.8,305.2
		c1.6-3.3,3.2-6.5,4.9-9.6c-2.1-5.8-3.7-16-4.4-21.7c-0.1,0.7-0.1,1.4-0.2,2.1c-0.4,4.9-0.7,9.9-0.7,15.2
		C365.4,295.7,365.5,300.3,365.8,305.2L365.8,305.2z M366.9,268.6c0.5,0.1,0.8,0.4,0.9,0.9c0,0,1.6,14.9,4.3,23.6
		c2.3-4.2,4.7-8.4,7.2-12.3c-0.8-2.8-5.3-18.7-6.8-36.5C370,251.7,368.1,259.9,366.9,268.6L366.9,268.6z M373.6,240.8
		c0.4,0.1,0.7,0.5,0.7,0.9c1.1,16.2,4.9,31.2,6.4,36.7c3.9-6.2,7.9-12,12.1-17.6c-1.2-3.6-8.2-24.9-9.2-40.8
		c-1.8,2.9-3.4,5.8-4.9,8.9C376.8,232.7,375.1,236.6,373.6,240.8L373.6,240.8z M385.1,217.6c0.3,0.2,0.5,0.5,0.5,0.8
		c0.5,14.4,6.7,34.2,8.7,40.4c5-6.6,10.1-12.7,15.2-18.5c-9.3-19.6-10.6-35.6-10.9-39.6C393.7,205.7,389.1,211.3,385.1,217.6
		L385.1,217.6z M400.4,199c0.2,0.2,0.3,0.4,0.3,0.7c0,0,0.2,17,10.3,38.9c6.8-7.5,13.7-14.3,20.5-20.5c-4.2-9.4-8.2-32.6-8.7-35.8
		c-5.7,3.3-11.1,7-16.2,11.2C404.5,195.2,402.4,197,400.4,199L400.4,199z M424.7,181.2c0.1,0.1,0.1,0.2,0.1,0.3
		c0,0.1,4.1,24.9,8.3,35.1c8.7-7.8,17.2-14.6,25.4-20.5c-3-12-2.9-25-2.9-27.1c-4.6,1.2-9.2,2.6-13.7,4.3
		C436,175.6,430.3,178.2,424.7,181.2L424.7,181.2z M457.7,168.5c0,0.1,0,0.2,0,0.3c0,0-0.4,13.5,2.6,26c8.8-6.3,17.1-11.5,24.5-15.8
		c-0.9-6.7-0.4-13.6-0.3-14.8C475.5,165,466.5,166.4,457.7,168.5L457.7,168.5z M486.7,164.1c0,0.1,0,0.1,0,0.2c0,0-0.7,6.9,0.2,13.7
		c13.4-7.7,23.5-12,27.5-13.7c-4.4-0.3-8.8-0.5-13.3-0.6C496.3,163.6,491.5,163.7,486.7,164.1z"/>
	<path class="st4" d="M613.3,395.4H46.6c-2.2,0-3.9-1.8-3.9-3.9v0c0-2.1,1.8-3.9,3.9-3.9h566.6c2.2,0,3.9,1.8,3.9,3.9v0
		C617.2,393.6,615.4,395.4,613.3,395.4z"/>
	<path class="st4" d="M33.2,395.4h-8c-2.1,0-3.9-1.8-3.9-3.9v0c0-2.1,1.8-3.9,3.9-3.9h8c2.1,0,3.9,1.8,3.9,3.9v0
		C37.1,393.6,35.4,395.4,33.2,395.4z"/>
	<path class="st4" d="M657.6,395.4H634c-2.2,0-3.9-1.8-3.9-3.9v0c0-2.1,1.8-3.9,3.9-3.9h23.6c2.2,0,3.9,1.8,3.9,3.9v0
		C661.5,393.6,659.7,395.4,657.6,395.4z"/>
	<g>
		<linearGradient id="SVGID_1_" gradientUnits="userSpaceOnUse" x1="173.6382" y1="131.3915" x2="152.5227" y2="119.9244">
			<stop  offset="0" style="stop-color:#E0E8F5"/>
			<stop  offset="1" style="stop-color:#FFFFFF"/>
		</linearGradient>
		<polygon class="st5" points="141.9,127.2 157.3,168.1 192,144.4 201.8,107 197,98.6 157.9,102.3 145.5,112.2 		"/>
		<path class="st2" d="M149.9,120.2c2.8,0,5.2-2.3,5.2-5.2c0-2.8-2.3-5.2-5.2-5.2s-5.2,2.3-5.2,5.2
			C144.7,117.9,147,120.2,149.9,120.2z"/>
		<g>
			<path class="st6" d="M101.4,134.7l29.6-33.7c0.2-0.2,0.5-0.2,0.8-0.1l1.8,1.5c0.2,0.2,0.2,0.5,0.1,0.8L103.9,137
				c-0.2,0.2-0.5,0.2-0.8,0.1l-1.8-1.5C101.2,135.3,101.2,135,101.4,134.7L101.4,134.7z M131.4,102.1L102.5,135l1,0.8l28.9-32.9
				L131.4,102.1z"/>
			<path class="st4" d="M131.1,100.1c1.6-0.2,3.1,0.9,3.3,2.6c0.2,1.6-0.9,3.1-2.6,3.3c-1.6,0.2-3.1-0.9-3.3-2.6
				C128.3,101.8,129.4,100.3,131.1,100.1z"/>
			<path class="st6" d="M101.3,134.9l20.8,39.7c0.1,0.3,0.5,0.4,0.7,0.2l2.1-1.1c0.3-0.1,0.4-0.5,0.2-0.7l-20.8-39.7
				c-0.1-0.3-0.5-0.4-0.7-0.2l-2.1,1.1C101.3,134.3,101.2,134.6,101.3,134.9L101.3,134.9z M122.8,173.7l-20.3-38.8l1.1-0.6
				l20.3,38.8L122.8,173.7z"/>
			<path class="st4" d="M122,175.6c1.5,0.6,3.3-0.2,3.8-1.7c0.6-1.5-0.2-3.3-1.7-3.8c-1.5-0.6-3.3,0.2-3.8,1.7
				C119.7,173.3,120.5,175,122,175.6z"/>
			<path class="st4" d="M103,132c1.6-0.2,3.1,0.9,3.3,2.6c0.2,1.6-0.9,3.1-2.6,3.3c-1.6,0.2-3.1-0.9-3.3-2.6
				C100.2,133.7,101.4,132.2,103,132z"/>
		</g>
		<path class="st7" d="M121.3,183.9h38.3c3,0,5.5-2.5,5.5-5.5l0,0c0-3-2.5-5.5-5.5-5.5h-38.3c-3,0-5.5,2.5-5.5,5.5l0,0
			C115.8,181.4,118.3,183.9,121.3,183.9z"/>
		<path class="st8" d="M95.9,183.9h38.3c3.1,0,5.5-2.5,5.5-5.5l0,0c0-3-2.5-5.5-5.5-5.5H95.9c-3,0-5.5,2.5-5.5,5.5l0,0
			C90.3,181.4,92.8,183.9,95.9,183.9z"/>
		<g>
			<path class="st8" d="M157.8,102.8l-15.8,24.4c-0.2,0.3-0.4,0.4-0.7,0.4c-0.3,0-0.5-0.2-0.6-0.5l-9.2-23.3
				c-0.1-0.2-0.1-0.5,0.1-0.7c0.1-0.2,0.4-0.3,0.6-0.4l25-1.1c0.3,0,0.6,0.1,0.7,0.4C158,102.3,157.9,102.6,157.8,102.8z"/>
			<polygon class="st2" points="140.1,126 138.8,122.6 152.3,101.8 155.9,101.7 			"/>
			<path class="st8" d="M134,100.1l6.5,4.2c1.8,1.2,2.3,3.6,1.1,5.4l0,0c-1.2,1.8-3.6,2.3-5.4,1.1l-6.5-4.2
				c-1.8-1.2-2.3-3.6-1.1-5.4l0,0C129.8,99.4,132.2,98.9,134,100.1z"/>
			<path class="st4" d="M130.9,102.7c0.6,0.4,0.7,1.1,0.4,1.7c-0.4,0.6-1.1,0.7-1.7,0.4c-0.6-0.4-0.7-1.1-0.4-1.7
				C129.6,102.5,130.4,102.3,130.9,102.7z"/>
		</g>
		<path class="st2" d="M169.3,128.6c0-0.6-0.5-1.1-1.1-1.1c-0.6,0-1.1,0.5-1.1,1.1v2.5h-2.5c-0.6,0-1.1,0.5-1.1,1.1
			c0,0.6,0.5,1.1,1.1,1.1h2.5v2.5c0,0.6,0.5,1.1,1.1,1.1c0.6,0,1.1-0.5,1.1-1.1v-2.5h2.5c0.6,0,1.1-0.5,1.1-1.1
			c0-0.6-0.5-1.1-1.1-1.1h-2.5V128.6z"/>
		<path class="st2" d="M154.2,124c0-0.6-0.5-1.1-1.1-1.1c-0.6,0-1.1,0.5-1.1,1.1v2.5h-2.5c-0.6,0-1.1,0.5-1.1,1.1
			c0,0.6,0.5,1.1,1.1,1.1h2.5v2.5c0,0.6,0.5,1.1,1.1,1.1c0.6,0,1.1-0.5,1.1-1.1v-2.5h2.5c0.6,0,1.1-0.5,1.1-1.1
			c0-0.6-0.5-1.1-1.1-1.1h-2.5V124z"/>
		<path class="st2" d="M190.3,107c0-0.6-0.5-1.1-1.1-1.1c-0.6,0-1.1,0.5-1.1,1.1v2.5h-2.5c-0.6,0-1.1,0.5-1.1,1.1
			c0,0.6,0.5,1.1,1.1,1.1h2.5v2.5c0,0.6,0.5,1.1,1.1,1.1c0.6,0,1.1-0.5,1.1-1.1v-2.5h2.5c0.6,0,1.1-0.5,1.1-1.1
			c0-0.6-0.5-1.1-1.1-1.1h-2.5V107z"/>
		<path class="st2" d="M169.8,111.6c0-0.3-0.2-0.5-0.5-0.5c-0.3,0-0.5,0.2-0.5,0.5v1.1h-1.1c-0.3,0-0.5,0.2-0.5,0.5
			c0,0.3,0.2,0.5,0.5,0.5h1.1v1.1c0,0.3,0.2,0.5,0.5,0.5c0.3,0,0.5-0.2,0.5-0.5v-1.1h1.1c0.3,0,0.5-0.2,0.5-0.5
			c0-0.3-0.2-0.5-0.5-0.5h-1.1V111.6z"/>
		<path class="st2" d="M158.9,136.8c0-0.3-0.2-0.5-0.5-0.5c-0.3,0-0.5,0.2-0.5,0.5v1.1h-1.1c-0.3,0-0.5,0.2-0.5,0.5
			c0,0.3,0.2,0.5,0.5,0.5h1.1v1.1c0,0.3,0.2,0.5,0.5,0.5c0.3,0,0.5-0.2,0.5-0.5v-1.1h1.1c0.3,0,0.5-0.2,0.5-0.5
			c0-0.3-0.2-0.5-0.5-0.5h-1.1V136.8z"/>
		<path class="st2" d="M181.5,124.6c0-0.3-0.2-0.5-0.5-0.5c-0.3,0-0.5,0.2-0.5,0.5v1.1h-1.1c-0.3,0-0.5,0.2-0.5,0.5
			c0,0.3,0.2,0.5,0.5,0.5h1.1v1.1c0,0.3,0.2,0.5,0.5,0.5c0.3,0,0.5-0.2,0.5-0.5v-1.1h1.1c0.3,0,0.5-0.2,0.5-0.5
			c0-0.3-0.2-0.5-0.5-0.5h-1.1V124.6z"/>
		<path class="st2" d="M158.1,114.3c0-0.3-0.2-0.5-0.5-0.5c-0.3,0-0.5,0.2-0.5,0.5v1.1H156c-0.3,0-0.5,0.2-0.5,0.5
			c0,0.3,0.2,0.5,0.5,0.5h1.1v1.1c0,0.3,0.2,0.5,0.5,0.5c0.3,0,0.5-0.2,0.5-0.5v-1.1h1.1c0.3,0,0.5-0.2,0.5-0.5
			c0-0.3-0.2-0.5-0.5-0.5h-1.1V114.3z"/>
		<path class="st2" d="M179.3,103c0-0.3-0.2-0.5-0.5-0.5c-0.3,0-0.5,0.2-0.5,0.5v1.1h-1.1c-0.3,0-0.5,0.2-0.5,0.5
			c0,0.3,0.2,0.5,0.5,0.5h1.1v1.1c0,0.3,0.2,0.5,0.5,0.5c0.3,0,0.5-0.2,0.5-0.5v-1.1h1.1c0.3,0,0.5-0.2,0.5-0.5
			c0-0.3-0.2-0.5-0.5-0.5h-1.1V103z"/>
		<path class="st2" d="M198.9,127.5c0-0.3-0.2-0.5-0.5-0.5c-0.3,0-0.5,0.2-0.5,0.5v1.1h-1.1c-0.3,0-0.5,0.2-0.5,0.5
			c0,0.3,0.2,0.5,0.5,0.5h1.1v1.1c0,0.3,0.2,0.5,0.5,0.5c0.3,0,0.5-0.2,0.5-0.5v-1.1h1.1c0.3,0,0.5-0.2,0.5-0.5
			c0-0.3-0.2-0.5-0.5-0.5h-1.1V127.5z"/>
		<path class="st2" d="M172.5,155c0-0.3-0.2-0.5-0.5-0.5c-0.3,0-0.5,0.2-0.5,0.5v1.1h-1.1c-0.3,0-0.5,0.2-0.5,0.5
			c0,0.3,0.2,0.5,0.5,0.5h1.1v1.1c0,0.3,0.2,0.5,0.5,0.5c0.3,0,0.5-0.2,0.5-0.5V157h1.1c0.3,0,0.5-0.2,0.5-0.5
			c0-0.3-0.2-0.5-0.5-0.5h-1.1V155z"/>
		<path class="st2" d="M192,143.3c0-0.3-0.2-0.5-0.5-0.5c-0.3,0-0.5,0.2-0.5,0.5v1.1h-1.1c-0.3,0-0.5,0.2-0.5,0.5
			c0,0.3,0.2,0.5,0.5,0.5h1.1v1.1c0,0.3,0.2,0.5,0.5,0.5c0.3,0,0.5-0.2,0.5-0.5v-1.1h1.1c0.3,0,0.5-0.2,0.5-0.5
			c0-0.3-0.2-0.5-0.5-0.5H192V143.3z"/>
	</g>
	<g>
		<path class="st9" d="M446.1,195.9c-0.2-3.2-2.9-5.5-6.1-5.3c-3.2,0.2-5.5,2.9-5.3,6.1c0.8,12.1,2.1,25.5,4.1,40.5H335
			c2.1-14.8,3.7-28.2,5-40.3c0.3-3.1-1.9-6-5.1-6.3c-3.1-0.3-6,1.9-6.3,5.1c-2.6,23.8-6.5,52.8-12.3,88c-4.9,30-11.3,64.4-19.3,104
			h11.6c7.9-38.8,14.1-72.7,18.9-102.1c2.2-13.1,4.1-25.4,5.7-36.9h107c1.7,11.5,3.7,23.8,6.1,37c5.4,29.5,12.8,63.3,22.9,102h11.8
			c-10.3-39.6-17.9-74.1-23.4-104.1c-2.7-14.8-4.9-28.4-6.7-41c0-0.3-0.1-0.6-0.1-0.8C448.5,224.6,447,209.4,446.1,195.9z"/>
		<g>
			<path class="st4" d="M209.7,251.7c0-1.7-1.4-3-3-3c-1.7,0-3,1.4-3,3v92.7v43.2h6.1v-40.2h46.4v40.2h6.1v-43.2v-92.7
				c0-1.7-1.4-3-3-3c-1.7,0-3,1.4-3,3v78.6h-46.4V251.7L209.7,251.7z M256.1,341.3h-46.4V334h46.4V341.3z"/>
			<path class="st10" d="M157.2,251.7c0-1.7-1.4-3-3-3c-1.7,0-3,1.4-3,3v92.7v43.2h6.1v-40.2h46.4v40.2h6.1v-43.2v-92.7
				c0-1.7-1.4-3-3-3c-1.7,0-3,1.4-3,3v78.6h-46.4V251.7L157.2,251.7z M203.6,341.3h-46.4V334h46.4V341.3z"/>
			<path class="st4" d="M267.8,251.7H149.3c-2.1,0-3.8,1.7-3.8,3.8l0,0c0,2.1,1.7,3.8,3.8,3.8h118.5c2.1,0,3.8-1.7,3.8-3.8l0,0
				C271.6,253.4,269.9,251.7,267.8,251.7z"/>
			<path class="st11" d="M272.1,247.9H144.3c-2.1,0-3.8,1.7-3.8,3.8l0,0c0,2.1,1.7,3.8,3.8,3.8h127.8c2.1,0,3.8-1.7,3.8-3.8l0,0
				C275.9,249.6,274.2,247.9,272.1,247.9z"/>
			<path class="st12" d="M194.6,247.9h-50.4c-2.1,0-3.8,1.7-3.8,3.8l0,0c0,2.1,1.7,3.8,3.8,3.8h50.4c2.1,0,3.8-1.7,3.8-3.8l0,0
				C198.4,249.6,196.7,247.9,194.6,247.9z"/>
		</g>
		<path class="st8" d="M268.6,149.1c11,2.7,33.1,7.1,40.2,16.2c4.6,5.9,5.2,13-2.4,13c-7.6,0-38.7,0-38.7,0L268.6,149.1z"/>
		<path class="st8" d="M190.7,197.7l-14.9,13c0,0-8.6-23.6-0.1-44.3c8.5-20.7,40.6-22.2,53.9-23.5c13.3-1.3,30.2,35.5,30.2,35.5
			L190.7,197.7z"/>
		<path class="st4" d="M245.1,214.3c0,0,28.2,6.4,31.8,7.2c3.6,0.8,13.2,10.4,14.9,19.7c1.7,9.2,17.3,126.5,17.3,126.5s-4,7-4.6,7.1
			c-0.5,0.1-8.2-3.5-8.2-3.5s-27.2-99.4-30.3-108.2c-3.1-8.8-2.3-15.3-11.9-15.3s-28.9,0-28.9,0l-7.5-25.4l3-2.9
			c-3.3,0.2-5.8,0.2-6.3-0.1c-1.4-0.8-22.8-8.7-22.8-8.7s15.4-4.6,16.7-5.1c1.4-0.5,23.5-2.4,23.5-2.4s0.1,6.1,1.2,7.4
			c1.1,1.3,3.4,1.8,3.4,1.8h0L245.1,214.3z"/>
		<path class="st8" d="M177.5,184.6c-0.2,8-0.5,16.4-1.8,20.7c0.5,2.8,0,5.4,0,5.4l-0.2,0.6c0.2,0.6,0.3,1,0.3,1
			c3.5,2.7,7.3,2.8,11.6,4.4l0-0.6l-0.2-0.8l12.6,6.1c4.3-0.4,31.4-2.2,38.1-8.7c-0.6-6.4,26.5-24.3,33.9-26L177.5,184.6z"/>
		<path class="st13" d="M305.9,369.7c0,0,1.2-2.7,4.1-1.9c2.9,0.8,20.3,10.4,23,11.5c2.7,1.2,5.6,5.7,3.4,8.3h-41.3
			c-2.4-1.5-4.8-6.5-2.3-15.3C295.4,363.5,294.8,372.7,305.9,369.7z"/>
		<path class="st14" d="M305.9,369.7c0,0,1.2-2.7,4.1-1.9c1.8,0.5,9.2,4.4,15.2,7.6c-1.8,1.3-5.5,2.5-6.3,2.3
			C317.8,377.4,305.9,369.7,305.9,369.7z"/>
		<path class="st15" d="M292.5,387.6h44.6c0.7,0,1.2-0.5,1.2-1.2v-2.2c0-0.7-0.5-1.2-1.2-1.2h-44.6c-0.7,0-1.2,0.5-1.2,1.2v2.2
			C291.3,387,291.8,387.6,292.5,387.6z"/>
		<path class="st16" d="M184.4,247.8c-16.2,0-16.9-28.3-8.5-37.1c0,0,4.2,3.3,10.9,3.3c11-0.1,36.8-6.3,44.7,4.2
			c7.9,10.5,10.8,28.2,6.2,53.9c-4.6,25.7-15.9,99.6-15.9,99.6l-13-1.1c0,0,1.9-104.2,2.1-109.7c0.2-5.5-2.7-12.9-8.7-12.9
			C196.2,247.9,184.4,247.8,184.4,247.8z"/>
		<path class="st13" d="M219.1,370.5c0,0-4.9-6.1-10.9-1.3c0,0-3.3,1.3-4.5,4.4c-1.2,3.1-3.6,4.5-4,7.9c-0.4,3.4,0.5,6,4.9,6
			c4.3,0,3.9,0,7,0c3.1,0,7.7,0.5,9.2-3.6c1.6-4.1,0-7.9,0.5-10C221.8,371.8,219.1,370.5,219.1,370.5z"/>
		<path class="st14" d="M219.1,370.5c0,0-4.9-6.1-10.9-1.3c0,0-0.6,0.3-1.4,0.8c-0.4,2.7-0.6,5.5-0.4,6.3c0.5,1.5,8.3,1.1,9.4,0.6
			c0.8-0.4,2.7-4.4,3.6-6.3C219.2,370.5,219.1,370.5,219.1,370.5z"/>
		<path class="st15" d="M200.1,387.6h20.4c0.7,0,1.2-0.5,1.2-1.2v-2.2c0-0.7-0.5-1.2-1.2-1.2h-20.4c-0.7,0-1.2,0.5-1.2,1.2v2.2
			C198.9,387,199.5,387.6,200.1,387.6z"/>
		<path class="st9" d="M254.2,216.4c-0.4,0.5-0.8,1-1.3,1.5c-1.8,2-3.5,4.6-4.6,7.8c-0.1,0.2,0,0.4,0.3,0.5c0.2,0.1,0.4,0,0.5-0.3
			c0.1-0.4,0.3-0.8,0.4-1.2c0,0,0.1,0.1,0.2,0.1c0.2,0.1,0.4,0,0.5-0.3c0.8-2.4,2-4.5,3.4-6.2c0.6-0.6,1.2-1.2,1.7-1.7L254.2,216.4
			L254.2,216.4z M256.5,216.9l1.4,0.3c-0.7,0.6-1.4,1.4-2,2.2c-1.3,1.7-2.5,3.8-3.3,6.2c-0.1,0.2-0.2,0.3-0.4,0.3
			c0,0.1-0.1,0.3-0.1,0.4c-0.1,0.2-0.3,0.3-0.5,0.3c-0.1,0-0.2-0.1-0.2-0.2l0,0.1c-0.1,0.2-0.3,0.3-0.5,0.3
			c-0.2-0.1-0.3-0.3-0.3-0.5C251.8,222.1,254.3,219,256.5,216.9L256.5,216.9z M258.2,217.3l1.4,0.3c-1.9,1.6-4.3,4.2-5.9,7.6
			c-0.2,0.4-0.3,0.8-0.5,1.3c0,0.1-0.1,0.2-0.2,0.2c-0.1,0.2-0.2,0.5-0.3,0.8c-0.1,0.2-0.3,0.3-0.5,0.3c-0.2-0.1-0.3-0.3-0.3-0.5
			c0.3-0.8,0.6-1.6,0.9-2.3C254.3,221.7,256.3,219.1,258.2,217.3L258.2,217.3z M260,217.7l1.1,0.2c-1,0.9-2.2,2.1-3.3,3.5
			c-1.2,1.6-2.3,3.5-3,5.8c0,0.1-0.1,0.2-0.3,0.3c0,0.1,0,0.1-0.1,0.2c-0.1,0.2-0.3,0.3-0.5,0.3c-0.2-0.1-0.3-0.3-0.3-0.5
			c0.8-2.5,2.1-4.7,3.5-6.4C258,219.7,259,218.6,260,217.7L260,217.7z M262.7,218.3c-2.4,2-5.6,5.5-7.2,10.4c-0.1,0.2,0,0.4,0.3,0.5
			c0.2,0.1,0.4,0,0.5-0.3c1.6-4.8,4.7-8.1,7-10c-0.9,0.9-2,1.9-2.9,3.2c-1.4,1.8-2.8,4-3.6,6.7c-0.1,0.2,0,0.4,0.3,0.5
			c0,0,0,0,0.1,0l0,0l0,0l0,0l0,0c0,0.1-0.1,0.2-0.1,0.3l0,0l0,0c-0.1,0.2,0,0.4,0.3,0.5c0.2,0.1,0.4,0,0.5-0.2
			c0-0.1,0.1-0.2,0.1-0.4l0,0l0,0c0-0.1,0.1-0.2,0.1-0.3l0,0c0.1-0.2,0.2-0.5,0.3-0.7l0,0c0-0.1,0.1-0.2,0.1-0.3l0,0l0,0
			c0-0.1,0.1-0.2,0.1-0.3l0,0l0,0c0.1-0.1,0.1-0.2,0.2-0.3l0,0c0.1-0.1,0.1-0.2,0.2-0.3l0,0c0-0.1,0.1-0.2,0.1-0.3l0-0.1
			c0-0.1,0.1-0.2,0.1-0.2l0-0.1c0-0.1,0.1-0.2,0.1-0.2l0-0.1c0-0.1,0.1-0.1,0.1-0.2l0.1-0.1c0-0.1,0.1-0.1,0.1-0.2l0.1-0.1l0.1-0.2
			l0.1-0.1l0.1-0.2l0.1-0.1l0.1-0.2l0.1-0.1l0.1-0.1l0,0c-0.9,1.4-1.6,2.9-2.2,4.6c-0.1,0.2,0,0.4,0.3,0.5h0
			c-0.1,0.2-0.2,0.5-0.2,0.7c-0.1,0.2,0,0.4,0.2,0.5c0.2,0.1,0.4,0,0.5-0.3c0-0.1,0-0.1,0.1-0.2c0.1,0,0.2-0.1,0.3-0.3
			c0.1-0.3,0.2-0.6,0.3-0.9c0,0.2,0.1,0.4,0.3,0.5c0.2,0.1,0.4,0,0.5-0.3c1.5-4.5,4.4-7.7,6.7-9.7l0.2-0.1l-1.2-0.3
			c-0.1,0.1-0.3,0.2-0.4,0.4c0.1-0.1,0.3-0.2,0.4-0.4L262.7,218.3L262.7,218.3z M267.3,219.4c-2.3,2-5.3,5.4-6.9,10.1
			c-0.1,0.2,0,0.4,0.3,0.5c0.2,0.1,0.4,0,0.5-0.3c0-0.1,0.1-0.2,0.1-0.3c0,0.1,0.1,0.2,0.2,0.2c0.2,0.1,0.4,0,0.5-0.3
			c1.5-4.5,4.4-7.7,6.6-9.7L267.3,219.4L267.3,219.4z M269,219.7l3.3,0.8c-2.3,1.8-5.9,5.3-7.6,10.5c-0.1,0.2-0.3,0.3-0.5,0.3
			c-0.1,0-0.2-0.1-0.2-0.2c-0.1,0.1-0.3,0.1-0.4,0.1c-0.2-0.1-0.3-0.3-0.3-0.5c1.2-3.6,3.2-6.4,5.2-8.4c-2,2-4.2,4.8-5.4,8.6
			c-0.1,0.2-0.3,0.3-0.5,0.3c-0.2-0.1-0.3-0.3-0.3-0.5l0-0.1c-0.1,0.1-0.2,0.1-0.3,0c-0.2-0.1-0.3-0.3-0.2-0.5
			C263.4,225.2,266.6,221.8,269,219.7L269,219.7z M272.5,220.5l1,0.2c-2.3,1.7-6.2,5.3-8,10.8c-0.1,0.2-0.3,0.3-0.5,0.3
			c-0.2-0.1-0.3-0.3-0.3-0.5C266.5,226.1,270.1,222.5,272.5,220.5z"/>
		<path class="st9" d="M233,299.7c-1-0.3-2.2-0.5-3.5-0.6c-2.6-0.4-5.9-0.5-9.5,0.5c-0.2,0.1-0.4,0.3-0.4,0.5c0,0.2,0.2,0.4,0.4,0.3
			c0.5-0.1,0.9-0.2,1.3-0.3c0,0.1-0.1,0.1,0,0.2c0,0.2,0.2,0.4,0.4,0.3c2.8-0.7,5.3-0.9,7.5-0.7c1.4,0.2,2.6,0.6,3.6,0.9L233,299.7
			L233,299.7z M232.6,302.1l-0.2,1.4c-1-0.3-2.2-0.6-3.5-0.7c-2.2-0.2-4.7,0-7.5,0.7c-0.2,0.1-0.4,0-0.4-0.2c-0.1,0-0.3,0.1-0.4,0.1
			c-0.2,0.1-0.4-0.1-0.4-0.3c0-0.1,0-0.2,0.1-0.3l-0.1,0c-0.2,0.1-0.4-0.1-0.4-0.3c0-0.2,0.2-0.5,0.4-0.5
			C225.3,300.6,229.7,301.2,232.6,302.1L232.6,302.1z M232.4,303.8c-2.6-0.7-6-1.1-10-0.3c-0.8,0.1-1.7,0.3-2.6,0.6
			c-0.2,0.1-0.4,0.3-0.4,0.5c0,0.2,0.2,0.4,0.4,0.3c0.3-0.1,0.6-0.1,0.9-0.2c0.1,0,0.2,0,0.3,0c0.5-0.1,1-0.2,1.4-0.3
			c4.1-0.6,7.5,0.1,9.8,0.8L232.4,303.8L232.4,303.8z M232.1,305.6l-0.2,1c-1.2-0.4-2.7-0.7-4.3-0.8c-2-0.1-4.4,0.1-6.9,0.7
			c-0.1,0-0.3,0-0.4-0.1c-0.1,0-0.1,0-0.2,0.1c-0.2,0.1-0.4-0.1-0.4-0.3c0-0.2,0.2-0.5,0.4-0.5c2.9-0.8,5.5-0.9,7.7-0.7
			C229.4,305.1,230.8,305.3,232.1,305.6L232.1,305.6z M231.6,308.2l-0.1,0.9c-2.8-0.9-7-1.6-12.1-0.2c-0.2,0.1-0.4-0.1-0.4-0.3
			s0.2-0.5,0.4-0.5C224.5,306.8,228.7,307.4,231.6,308.2L231.6,308.2z M231.5,309.2c-1.1-0.3-2.3-0.5-3.7-0.6c-2.3-0.2-5-0.1-8,0.7
			c-0.2,0.1-0.4,0.3-0.4,0.5c0,0,0,0.1,0,0.1l0,0l0,0l0,0l0,0c-0.1,0-0.2,0.1-0.3,0.1l0,0l0,0c-0.2,0.1-0.4,0.3-0.4,0.5
			c0,0.2,0.2,0.4,0.4,0.3c0.1,0,0.3-0.1,0.4-0.1l0,0l0,0c0.1,0,0.3-0.1,0.4-0.1l0,0c0.3-0.1,0.5-0.1,0.8-0.2l0,0
			c0.1,0,0.3,0,0.4-0.1l0,0h0c0.1,0,0.3,0,0.4-0.1l0,0l0,0c0.1,0,0.3,0,0.4-0.1l0,0c0.1,0,0.2,0,0.4,0l0,0c0.1,0,0.2,0,0.3,0l0.1,0
			c0.1,0,0.2,0,0.3,0l0.1,0c0.1,0,0.2,0,0.3,0l0.1,0c0.1,0,0.2,0,0.3,0l0.1,0c0.1,0,0.2,0,0.3,0l0.1,0l0.2,0l0.1,0l0.2,0l0.1,0
			l0.2,0l0.2,0l0.2,0h0c-1.7,0-3.5,0.3-5.4,0.8c-0.2,0.1-0.4,0.3-0.4,0.5v0c-0.3,0.1-0.5,0.1-0.8,0.2c-0.2,0.1-0.4,0.3-0.4,0.5
			c0,0.2,0.2,0.4,0.4,0.3c0.1,0,0.1,0,0.2-0.1c0.1,0.1,0.2,0.1,0.4,0.1c0.4-0.1,0.7-0.2,1.1-0.3c-0.2,0.1-0.4,0.3-0.4,0.5
			c0,0.2,0.2,0.4,0.4,0.3c4-1.1,7.6-0.9,10.3-0.3L231.5,309.2L231.5,309.2z M230.9,312.9l-0.2,1.4c-2.6-0.5-5.9-0.6-9.7,0.4
			c-0.2,0.1-0.4-0.1-0.4-0.3c0-0.1,0.1-0.3,0.1-0.4c-0.1,0-0.2,0.1-0.3,0.1c-0.2,0.1-0.4-0.1-0.4-0.3c0-0.2,0.2-0.5,0.4-0.5
			C224.5,312.1,228.1,312.3,230.9,312.9L230.9,312.9z M230.6,314.6c-2.7-0.6-6.3-0.7-10.3,0.4c-0.2,0.1-0.4,0.3-0.4,0.5
			c0,0.1,0.1,0.2,0.1,0.3l-0.1,0c-0.2,0.1-0.4,0.3-0.4,0.5c0,0.2,0.2,0.4,0.4,0.3c4.1-1.1,7.7-0.9,10.4-0.2L230.6,314.6L230.6,314.6
			z M230.4,316.4l-0.2,1.5c-2.6-0.5-6-0.7-9.8,0.4c-0.2,0.1-0.4-0.1-0.4-0.3c0-0.1,0-0.2,0.1-0.3c-0.1,0-0.2-0.2-0.2-0.3
			c0-0.2,0.2-0.5,0.4-0.5C224.1,315.7,227.6,315.8,230.4,316.4L230.4,316.4z M230.1,318.1c-2.7-0.5-6.2-0.7-10.1,0.4
			c-0.2,0.1-0.4,0.3-0.4,0.5c0,0.2,0.2,0.4,0.4,0.3c3.9-1,7.3-0.9,9.9-0.4L230.1,318.1z"/>
		<path class="st9" d="M292.9,248.7c-1.5-0.2-3.3-0.4-5.5-0.2c-2.7,0-5.9,0.6-9.3,2.2c-0.2,0.1-0.4,0.4-0.3,0.6
			c0,0.2,0.3,0.3,0.5,0.2c0.4-0.2,0.8-0.4,1.3-0.6c0,0.1,0,0.2,0,0.2c0,0.2,0.3,0.3,0.5,0.2c2.6-1.2,5.1-1.8,7.2-2
			c2.6,0,4.7,0.4,5.8,0.7L292.9,248.7L292.9,248.7z M293.3,251.4l0.2,1.4c-1.3-0.3-3.4-0.7-5.9-0.5c-2.2,0.2-4.6,0.8-7.2,2
			c-0.2,0.1-0.4,0-0.4-0.1c-0.1,0.1-0.3,0.1-0.4,0.2c-0.2,0.1-0.4,0-0.5-0.2c0-0.1,0-0.2,0-0.3l-0.1,0c-0.2,0.1-0.4,0-0.5-0.2
			c0-0.2,0.1-0.5,0.3-0.6C285,250,290.6,250.7,293.3,251.4L293.3,251.4z M293.5,253c-2.7-0.5-7.2-0.8-12.3,1.2
			c-0.8,0.3-1.6,0.6-2.5,1c-0.2,0.1-0.4,0.4-0.3,0.6c0,0.2,0.3,0.3,0.5,0.2c0.3-0.1,0.5-0.2,0.8-0.4c0.1,0,0.2,0,0.3,0
			c0.5-0.2,0.9-0.4,1.4-0.6c5.8-2,10.6-0.9,12.5-0.4L293.5,253L293.5,253z M293.8,254.8c-1.7-0.3-4.1-0.6-7-0.2
			c-2.3,0.2-4.8,0.8-7.5,2.1c-0.2,0.1-0.4,0.4-0.3,0.6c0,0.2,0.3,0.3,0.5,0.2c0.1,0,0.1-0.1,0.2-0.1c0.1,0.1,0.2,0.1,0.4,0
			c2.4-1.1,4.6-1.7,6.6-2c3.2-0.3,5.8,0.2,7.2,0.5L293.8,254.8L293.8,254.8z M294.2,257.7l0.3,2c-0.3-0.1-0.7-0.2-1.2-0.3l0.1,0l0,0
			l0.1,0l0.1,0l0.1,0h0l0.1,0l0.1,0l0,0l0.1,0l0.1,0l0,0l0,0l0.1,0l0.1,0l0,0l0,0l0,0l0,0l0,0l0,0l0,0l0,0l0,0l0,0l0,0l0,0l0,0
			l0.2,1.4c-0.6-0.1-1.3-0.3-2.1-0.4c0.8,0.1,1.5,0.3,2.1,0.4l0.4,2.5c-2.8-0.5-7.7-0.8-13.1,1.8c-0.2,0.1-0.4,0-0.5-0.2
			c0-0.1,0-0.3,0.1-0.4c-0.1,0-0.2,0.1-0.3,0.1c-0.2,0.1-0.4,0-0.5-0.2c0-0.2,0.1-0.5,0.3-0.6c5.3-2.5,10.1-2.4,13.1-1.9
			c-0.2-0.1-0.5-0.1-0.8-0.2c-2.9-0.4-7.3-0.3-12,1.9c-0.2,0.1-0.4,0-0.5-0.2c0-0.2,0.1-0.5,0.3-0.6c-0.3,0.1-0.7,0.3-1,0.4
			c-0.1,0.1-0.3,0-0.4,0c-0.1,0-0.1,0.1-0.2,0.1c-0.2,0.1-0.4,0-0.5-0.2c0-0.2,0.1-0.5,0.3-0.6c0.2-0.1,0.5-0.2,0.7-0.3l0,0
			c0-0.2,0.1-0.5,0.3-0.6c1.8-0.9,3.6-1.4,5.2-1.8l0,0l-0.2,0l-0.2,0l-0.2,0l-0.1,0l-0.2,0l-0.1,0l-0.2,0l-0.1,0
			c-0.1,0-0.2,0-0.2,0.1l-0.1,0c-0.1,0-0.2,0-0.3,0.1l-0.1,0c-0.1,0-0.2,0-0.3,0.1l-0.1,0c-0.1,0-0.2,0.1-0.3,0.1l-0.1,0
			c-0.1,0-0.2,0.1-0.3,0.1l0,0c-0.1,0-0.2,0.1-0.4,0.1l0,0c-0.1,0-0.2,0.1-0.4,0.1l0,0l0,0c-0.1,0-0.2,0.1-0.4,0.1l0,0l0,0
			c-0.1,0-0.3,0.1-0.4,0.1l0,0c-0.3,0.1-0.5,0.2-0.8,0.3l0,0c-0.1,0.1-0.2,0.1-0.4,0.2l0,0l0,0c-0.1,0.1-0.3,0.1-0.4,0.2
			c-0.2,0.1-0.4,0-0.5-0.2s0.1-0.5,0.3-0.6l0,0l0,0c0.1,0,0.2-0.1,0.3-0.1l0,0l0,0l0,0l0,0c0,0,0-0.1,0-0.1c0-0.2,0.1-0.5,0.3-0.6
			c2.8-1.3,5.4-1.9,7.8-2.1c1.6-0.2,3.1-0.1,4.3,0c-2.9-0.4-7.5-0.5-12.5,1.9c-0.2,0.1-0.4,0-0.5-0.2c0-0.2,0.1-0.5,0.3-0.6
			C285.8,256,291.7,257,294.2,257.7L294.2,257.7z M295.1,263.9c-2.9-0.6-8.1-0.9-13.8,1.8c-0.2,0.1-0.4,0.4-0.3,0.6
			c0,0.1,0.1,0.2,0.2,0.2l-0.1,0.1c-0.2,0.1-0.4,0.4-0.3,0.6c0,0.2,0.3,0.3,0.5,0.2c3.9-1.9,7.6-2.2,10.4-2.1
			c-2.8-0.1-6.3,0.4-10.1,2.2c-0.2,0.1-0.4,0.4-0.3,0.6c0,0.2,0.1,0.3,0.3,0.3c0,0.1-0.1,0.2,0,0.3c0,0.2,0.3,0.3,0.5,0.2
			c5.8-2.7,11-2.2,13.7-1.6L295.1,263.9L295.1,263.9z M295.6,267.5l0.1,1c-2.6-0.6-8-1.2-14,1.6c-0.2,0.1-0.4,0-0.5-0.2
			c0-0.2,0.1-0.5,0.3-0.6C287.4,266.5,292.7,266.9,295.6,267.5z"/>
		<path class="st9" d="M208.1,195.9c-0.2-3.2-2.9-5.5-6.1-5.3c-3.1,0.2-5.5,2.9-5.3,6.1c0.8,12.1,2.1,25.5,4.1,40.5H97
			c2.1-14.8,3.7-28.2,5-40.3c0.3-3.1-1.9-6-5.1-6.3c-3.1-0.3-6,1.9-6.3,5.1c-2.6,23.8-6.5,52.8-12.3,88c-4.9,30-11.3,64.4-19.3,104
			h11.6c7.9-38.8,14.1-72.7,18.9-102.1c2.2-13.1,4.1-25.4,5.7-36.9h107c1.7,11.5,3.7,23.8,6.1,37c5.4,29.5,12.8,63.3,22.9,102h11.8
			c-10.3-39.6-17.9-74.1-23.4-104.1c-2.7-14.8-4.9-28.4-6.7-41c0-0.3-0.1-0.6-0.1-0.8C210.6,224.6,209,209.4,208.1,195.9z"/>
		<path class="st11" d="M453.1,182.6H192.8c-3,0-5.5,2.5-5.5,5.5v12.4c0,3,2.5,5.5,5.5,5.5h260.3c3,0,5.5-2.5,5.5-5.5v-12.4
			C458.6,185.1,456.1,182.6,453.1,182.6z"/>
		<path class="st4" d="M453.1,182.6H135.4c-3,0-5.5,2.5-5.5,5.5v7.3h108.9h219.9v-7.3C458.6,185.1,456.1,182.6,453.1,182.6z"/>
		<path class="st11" d="M458.6,178.4H187.3c-3.3,0-6,2.7-6,6l0,0c0,3.3,2.7,6,6,6h271.2c3.3,0,6-2.7,6-6l0,0
			C464.6,181,461.9,178.4,458.6,178.4z"/>
		<path class="st12" d="M209.7,182.6H90.3c-3,0-5.5,2.5-5.5,5.5v12.4c0,3,2.5,5.5,5.5,5.5h119.4c3,0,5.5-2.5,5.5-5.5v-12.4
			C215.2,185.1,212.7,182.6,209.7,182.6z"/>
		<path class="st9" d="M207.1,182.6H93c-4.5,0-8.1,2.5-8.1,5.5v7.3h130.4v-7.3C215.2,185.1,211.5,182.6,207.1,182.6z"/>
		<path class="st12" d="M215.2,178.4H81.5c-3.3,0-6,2.7-6,6l0,0c0,3.3,2.7,6,6,6h133.7c3.3,0,6-2.7,6-6l0,0
			C221.2,181,218.5,178.4,215.2,178.4z"/>
		<path class="st17" d="M279.3,178.4c0,0-5.8-6.6-4.4-14.3c1.4-7.8,1.6-22.7-6.6-26.9c-8.2-4.2-18.2-3.7-22.6,2.4
			c0,0-2.3-3.3-4.9-3.2c-2.6,0.1-0.4,4.3,0.2,4.8c-26.8-8.3-2.9,31.8-21.9,37.3H279.3z"/>
		<path class="st4" d="M279.3,178.4c0,0-5.8-6.6-4.4-14.3c0.2-1,0.4-2.2,0.5-3.5c-8.9,3.2-29.6,9.2-39.1-0.4c-5-5-7.4-10.4-8.4-15.1
			c-2.5,8.2,2.5,24.3-4.4,30.9c2.2,0.6,4.7,1.4,7.5,2.4H279.3z"/>
		<path class="st18" d="M307.8,178.4c5.4-4.2,2.2-18.3-10.8-14.4c-9.3,2.7-25.1,8.2-27,8.7c-2.7,0.6-8.6,0-10.1,0
			c-1.5,0-5.4,1.5-5.4,5.8h52.7H307.8z"/>
		<path class="st18" d="M181.2,178.4c0,0-3.9-1.9-3.5-6.8c0.4-4.9,6.3-9.7,10.7-10.2c4.4-0.5,52.2,10.2,56.7,10.8
			c4.5,0.6,14.5,0,17.1,0c2.5,0,9,1.6,9,6.1h-88.9H181.2z"/>
	</g>
	<g>
		<path class="st19" d="M314.4,140c0,0-0.7-2.6-2.9-2.7c-2.2-0.1-3,2.6-2.4,2.9C309.8,140.6,314.4,140,314.4,140z"/>
		<path class="st19" d="M312.5,144.6l0.6-0.1c0,0,0,0,0,0l2-0.4c-2.4,6.6-9.1,5.6-6.5,0.6l3.3-0.7l0,0.3c0,0.2,0.2,0.4,0.4,0.3
			L312.5,144.6z"/>
		<path class="st2" d="M415.8,81.6h-94.2c-2.6,0-5.1,2.1-5.7,4.7l-13.3,63.8c-0.5,2.6,1.1,4.7,3.7,4.7h94.2c2.6,0,5.1-2.1,5.7-4.7
			l13.3-63.8C420.1,83.8,418.4,81.6,415.8,81.6z"/>
		<path class="st20" d="M415.8,81.6h-91.1c-2.6,0-5.1,2.1-5.7,4.7l-13.3,63.8c-0.5,2.6,1.1,4.7,3.7,4.7h91.1c2.6,0,5.1-2.1,5.7-4.7
			l13.3-63.8C420.1,83.8,418.4,81.6,415.8,81.6z"/>
		<path class="st21" d="M340.8,154.8h23.1c0.4-0.9,0.7-1.5,0.7-1.7c0-0.9-5.3-16.8-13-19.3l-4.5-0.1L340.8,154.8z"/>
		<path class="st22" d="M407.1,126.1h-91.5c-1,0-2,0.8-2.2,1.8v0c-0.2,1,0.4,1.8,1.4,1.8h91.5c1,0,2-0.8,2.2-1.8v0
			C408.8,126.9,408.1,126.1,407.1,126.1z"/>
		<path class="st22" d="M405,131.6h-89.4c-1.6,0-3.1,1.3-3.4,2.9l-3.1,14.9c-0.3,1.6,0.7,2.9,2.3,2.9h89.4c1.6,0,3.1-1.3,3.4-2.9
			l3.1-14.9C407.5,132.9,406.5,131.6,405,131.6z"/>
		<path class="st21" d="M341.6,152.2h22.7c-1.1-3.6-6-16.2-12.8-18.4l-4.5-0.1L341.6,152.2z"/>
		<path class="st21" d="M404.2,96.5h-15.5c-1,0-1.9,0.8-2.1,1.7l-4.7,22.5c-0.2,1,0.4,1.7,1.4,1.7h15.5c1,0,1.9-0.8,2.1-1.7
			l4.7-22.5C405.8,97.3,405.2,96.5,404.2,96.5z"/>
		<path class="st22" d="M406.3,96.5h-15.5c-1,0-1.9,0.8-2.1,1.7l-4.7,22.5c-0.2,1,0.4,1.7,1.4,1.7h15.5c1,0,1.9-0.8,2.1-1.7
			l4.7-22.5C407.9,97.3,407.3,96.5,406.3,96.5z"/>
		<path class="st21" d="M402.3,109.5L402.3,109.5c-0.5,0-1,0.4-1.1,0.9l-1.6,7.8c-0.1,0.5,0.2,0.9,0.7,0.9l0,0c0.5,0,1-0.4,1.1-0.9
			l1.6-7.8C403.2,109.9,402.9,109.5,402.3,109.5z"/>
		<path class="st21" d="M398,109.5L398,109.5c-0.5,0-1,0.4-1.1,0.9l-1.6,7.8c-0.1,0.5,0.2,0.9,0.7,0.9l0,0c0.5,0,1-0.4,1.1-0.9
			l1.6-7.8C398.8,109.9,398.5,109.5,398,109.5z"/>
		<path class="st21" d="M393.6,109.5L393.6,109.5c-0.5,0-1,0.4-1.1,0.9l-1.6,7.8c-0.1,0.5,0.2,0.9,0.7,0.9l0,0c0.5,0,1-0.4,1.1-0.9
			l1.6-7.8C394.4,109.9,394.1,109.5,393.6,109.5z"/>
		<path class="st21" d="M389.2,109.5L389.2,109.5c-0.5,0-1,0.4-1.1,0.9l-1.6,7.8c-0.1,0.5,0.2,0.9,0.7,0.9l0,0c0.5,0,1-0.4,1.1-0.9
			l1.6-7.8C390,109.9,389.7,109.5,389.2,109.5z"/>
		<path class="st22" d="M415.2,87.3h-91.5c-1,0-2,0.8-2.2,1.8v0c-0.2,1,0.4,1.8,1.4,1.8h91.5c1,0,2-0.8,2.2-1.8v0
			C416.9,88.1,416.2,87.3,415.2,87.3z"/>
		<path class="st21" d="M404.1,133.3h-88.4c-0.4,0-0.8,0.3-0.9,0.7l0,0c-0.1,0.4,0.2,0.7,0.6,0.7h88.4c0.4,0,0.8-0.3,0.9-0.7l0,0
			C404.7,133.6,404.5,133.3,404.1,133.3L404.1,133.3z M400.9,148.5h-88.4c-0.4,0-0.8,0.3-0.9,0.7l0,0c-0.1,0.4,0.2,0.7,0.6,0.7h88.4
			c0.4,0,0.8-0.3,0.9-0.7l0,0C401.6,148.8,401.3,148.5,400.9,148.5L400.9,148.5z M401.6,145.5h-88.4c-0.4,0-0.8,0.3-0.9,0.7l0,0
			c-0.1,0.4,0.2,0.7,0.6,0.7h88.4c0.4,0,0.8-0.3,0.9-0.7l0,0C402.2,145.8,402,145.5,401.6,145.5L401.6,145.5z M402.2,142.4h-88.4
			c-0.4,0-0.8,0.3-0.9,0.7l0,0c-0.1,0.4,0.2,0.7,0.6,0.7h88.4c0.4,0,0.8-0.3,0.9-0.7l0,0C402.8,142.7,402.6,142.4,402.2,142.4
			L402.2,142.4z M402.8,139.4h-88.4c-0.4,0-0.8,0.3-0.9,0.7l0,0c-0.1,0.4,0.2,0.7,0.6,0.7h88.4c0.4,0,0.8-0.3,0.9-0.7l0,0
			C403.5,139.7,403.2,139.4,402.8,139.4L402.8,139.4z M403.5,136.3h-88.4c-0.4,0-0.8,0.3-0.9,0.7l0,0c-0.1,0.4,0.2,0.7,0.6,0.7h88.4
			c0.4,0,0.8-0.3,0.9-0.7l0,0C404.1,136.6,403.9,136.3,403.5,136.3z"/>
		<path class="st23" d="M346.8,134.7h6.6c-0.6-0.4-1.2-0.7-1.8-0.9l-4.5-0.1L346.8,134.7L346.8,134.7z M346.3,136.3l-0.4,1.4h10.9
			c-0.4-0.5-0.9-1-1.3-1.4H346.3L346.3,136.3z M345.4,139.4l-0.4,1.4h14.1c-0.3-0.5-0.6-1-1-1.4H345.4L345.4,139.4z M344.5,142.4
			l-0.4,1.4h16.8c-0.2-0.5-0.5-1-0.8-1.4H344.5L344.5,142.4z M343.6,145.5l-0.4,1.4h19.1c-0.2-0.5-0.4-0.9-0.7-1.4H343.6
			L343.6,145.5z M342.7,148.5l-0.4,1.4h21.3c-0.2-0.4-0.4-0.9-0.6-1.4H342.7z"/>
		<path class="st21" d="M326.8,107.9h-1.6c-0.6,0-1.2,0.5-1.3,1.1l-1,4.7c-0.1,0.6,0.3,1.1,0.8,1.1h1.6c0.6,0,1.2-0.5,1.3-1.1l1-4.7
			C327.7,108.3,327.4,107.9,326.8,107.9z"/>
		<path class="st22" d="M329.6,97.9h-3c-1.1,0-2.2,0.9-2.4,2l-1.8,8.7c-0.2,1.1,0.5,2,1.6,2h3c1.1,0,2.2-0.9,2.4-2l1.8-8.7
			C331.4,98.8,330.7,97.9,329.6,97.9z"/>
		<path class="st22" d="M380.4,94.8h-40.1c-0.8,0-1.6,0.7-1.8,1.5l-5,24.1c-0.2,0.8,0.4,1.5,1.2,1.5h40.1c0.8,0,1.6-0.7,1.8-1.5
			l5-24.1C381.7,95.5,381.2,94.8,380.4,94.8z"/>
		<path class="st2" d="M377.5,98.3h-21.5c-0.4,0-0.9,0.4-1,0.8v0c-0.1,0.4,0.2,0.8,0.6,0.8h21.5c0.4,0,0.9-0.4,1-0.8v0
			C378.2,98.6,377.9,98.3,377.5,98.3z"/>
		<path class="st21" d="M376.7,102.2h-34c-0.4,0-0.9,0.4-1,0.8v0c-0.1,0.4,0.2,0.8,0.6,0.8h34c0.4,0,0.9-0.4,1-0.8l0,0
			C377.4,102.6,377.1,102.2,376.7,102.2z"/>
		<path class="st21" d="M375.8,106.3h-34c-0.4,0-0.9,0.4-1,0.8l0,0c-0.1,0.4,0.2,0.8,0.6,0.8h34c0.4,0,0.9-0.4,1-0.8l0,0
			C376.5,106.6,376.3,106.3,375.8,106.3z"/>
		<path class="st21" d="M375,110.3h-34c-0.4,0-0.9,0.4-1,0.8l0,0c-0.1,0.4,0.2,0.8,0.6,0.8h34c0.4,0,0.9-0.4,1-0.8l0,0
			C375.7,110.7,375.4,110.3,375,110.3z"/>
		<path class="st21" d="M374.1,114.3h-34c-0.4,0-0.9,0.4-1,0.8v0c-0.1,0.4,0.2,0.8,0.6,0.8h34c0.4,0,0.9-0.4,1-0.8v0
			C374.9,114.7,374.6,114.3,374.1,114.3z"/>
		<path class="st21" d="M373.3,118.4h-34c-0.4,0-0.9,0.4-1,0.8v0c-0.1,0.4,0.2,0.8,0.6,0.8h34c0.4,0,0.9-0.4,1-0.8v0
			C374,118.7,373.7,118.4,373.3,118.4z"/>
		<path class="st21" d="M343.5,98.3h8.5c0.4,0,0.7,0.4,0.6,0.8v0c-0.1,0.4-0.5,0.8-1,0.8h-8.5c-0.4,0-0.7-0.4-0.6-0.8v0
			C342.6,98.6,343.1,98.3,343.5,98.3z"/>
		<path class="st21" d="M350.5,134.3c-0.7,0-1.9,0.2-1.9-0.6c0-0.7,0.6-1.3,1.3-1.3l26.7,0c0.8,0,5.2,0.2,5.5,5.3
			c0.1,1.7,0.8,7.1,1.7,13c0.8,5.7,1.7,12.1,2.3,15.6c0.1,1,0.2,2,0.2,3c0,2-0.4,4-1.3,5.6c-1,1.7-2.6,2.9-5.1,3.3
			c-0.5,0.1-1,0.1-1.6,0.1h-28.6c-0.7,0-1.3-0.6-1.3-1.3c0-0.7,1.2-0.4,2-0.4l4.8-0.9c0.4,0,0.8,0,1.2-0.1c1.6-0.2,2.6-1,3.2-2
			c0.7-1.1,0.9-2.6,0.9-4.2c0-0.9-0.1-1.7-0.2-2.6c-0.5-3.4-1.7-9.6-2.6-15.7c-0.8-5.9-1.6-11.4-1.7-13.2c-0.2-2.8-2.4-2.8-2.8-2.8
			c0,0-0.1,0-0.1,0L350.5,134.3z"/>
		<path class="st2" d="M348.4,135.1c-0.7,0-1.3-0.6-1.3-1.3c0-0.7,0.6-1.3,1.3-1.3l2.7,0c0.8,0,5.2,0.2,5.5,5.3
			c0.1,1.7,0.8,7.1,1.7,13c0.8,5.7,1.7,12.1,2.3,15.6c0.1,1,0.2,2,0.2,3c0,2-0.4,4-1.3,5.6c-1,1.7-2.6,2.9-5.1,3.3
			c-0.5,0.1-1,0.1-1.6,0.1h-7.3c-0.7,0-1.3-0.6-1.3-1.3c0-0.7,0.6-1.3,1.3-1.3h7.3c0.4,0,0.8,0,1.2-0.1c1.6-0.2,2.6-1,3.2-2
			c0.7-1.1,0.9-2.6,0.9-4.2c0-0.9-0.1-1.7-0.2-2.6c-0.5-3.4-1.4-9.6-2.3-15.7c-0.8-5.9-1.6-11.4-1.7-13.2c-0.2-2.8-2.4-2.8-2.8-2.8
			c0,0-0.1,0-0.1,0H348.4z"/>
	</g>
	<g>
		<path class="st24" d="M259.6,68.7c2,9,10,15.9,19.6,15.9h28v24c0,4-3.3,7.3-7.3,7.3h-49l-12.5,12.5c-0.2,0.2-0.6,0.3-0.9,0.2
			c-0.3-0.1-0.5-0.4-0.5-0.8v-19.3v-2.2V76c0-4,3.3-7.3,7.3-7.3H259.6z"/>
		<path class="st25" d="M298.1,66.5h-55.6c-4,0-7.3,3.3-7.3,7.3v30.3v2.2v19.3c0,0.3,0.2,0.6,0.5,0.8c0.3,0.1,0.7,0.1,0.9-0.2
			l12.5-12.5h49c4,0,7.3-3.3,7.3-7.3V73.9C305.4,69.8,302.1,66.5,298.1,66.5z"/>
		<g>
			<g>
				<path class="st26" d="M247.9,95.5c-0.1,0-0.2,0-0.3-0.1c-0.1-0.1-0.1-0.2-0.1-0.3V83.3c0-0.1,0-0.2,0.1-0.3
					c0.1-0.1,0.2-0.1,0.3-0.1h8.4c0.1,0,0.2,0,0.3,0.1c0.1,0.1,0.1,0.2,0.1,0.3V85c0,0.1,0,0.2-0.1,0.3s-0.2,0.1-0.3,0.1h-5.7v2.4
					h5.3c0.1,0,0.2,0,0.3,0.1c0.1,0.1,0.1,0.2,0.1,0.3v1.6c0,0.1,0,0.2-0.1,0.3s-0.2,0.1-0.3,0.1h-5.3v2.5h5.9c0.1,0,0.2,0,0.3,0.1
					s0.1,0.2,0.1,0.3V95c0,0.1,0,0.2-0.1,0.3s-0.2,0.1-0.3,0.1H247.9z"/>
				<path class="st26" d="M259.2,95.5c-0.1,0-0.2,0-0.3-0.1s-0.1-0.2-0.1-0.3v-8.5c0-0.1,0-0.2,0.1-0.3c0.1-0.1,0.2-0.1,0.3-0.1h2.1
					c0.1,0,0.2,0,0.3,0.1c0.1,0.1,0.1,0.2,0.1,0.3v0.7c0.3-0.4,0.7-0.7,1.2-0.9c0.5-0.2,1-0.3,1.5-0.3h0.8c0.1,0,0.2,0,0.3,0.1
					c0.1,0.1,0.1,0.2,0.1,0.3v1.9c0,0.1,0,0.2-0.1,0.3c-0.1,0.1-0.2,0.1-0.3,0.1h-1.7c-0.5,0-0.9,0.1-1.1,0.4s-0.4,0.7-0.4,1.1V95
					c0,0.1,0,0.2-0.1,0.3c-0.1,0.1-0.2,0.1-0.3,0.1H259.2z"/>
				<path class="st26" d="M267.4,95.5c-0.1,0-0.2,0-0.3-0.1s-0.1-0.2-0.1-0.3v-8.5c0-0.1,0-0.2,0.1-0.3c0.1-0.1,0.2-0.1,0.3-0.1h2.1
					c0.1,0,0.2,0,0.3,0.1c0.1,0.1,0.1,0.2,0.1,0.3v0.7c0.3-0.4,0.7-0.7,1.2-0.9c0.5-0.2,1-0.3,1.5-0.3h0.8c0.1,0,0.2,0,0.3,0.1
					c0.1,0.1,0.1,0.2,0.1,0.3v1.9c0,0.1,0,0.2-0.1,0.3c-0.1,0.1-0.2,0.1-0.3,0.1h-1.7c-0.5,0-0.9,0.1-1.1,0.4s-0.4,0.7-0.4,1.1V95
					c0,0.1,0,0.2-0.1,0.3c-0.1,0.1-0.2,0.1-0.3,0.1H267.4z"/>
				<path class="st26" d="M279.5,95.7c-1,0-1.9-0.2-2.5-0.5c-0.7-0.3-1.2-0.8-1.6-1.4c-0.4-0.6-0.6-1.3-0.6-2.2c0-0.2,0-0.5,0-0.8
					s0-0.6,0-0.8c0-0.9,0.3-1.6,0.6-2.2c0.4-0.6,0.9-1.1,1.6-1.4c0.7-0.3,1.5-0.5,2.5-0.5c1,0,1.8,0.2,2.5,0.5
					c0.7,0.3,1.2,0.8,1.6,1.4c0.4,0.6,0.6,1.3,0.6,2.2c0,0.2,0,0.5,0,0.8s0,0.6,0,0.8c0,0.8-0.3,1.6-0.6,2.2
					c-0.4,0.6-0.9,1.1-1.6,1.4C281.4,95.5,280.5,95.7,279.5,95.7z M279.5,93.5c0.5,0,0.9-0.2,1.2-0.5c0.2-0.3,0.4-0.8,0.4-1.5
					c0-0.2,0-0.4,0-0.7c0-0.3,0-0.5,0-0.7c0-0.6-0.2-1.1-0.4-1.4c-0.2-0.3-0.6-0.5-1.2-0.5c-0.5,0-0.9,0.2-1.2,0.5
					c-0.3,0.3-0.4,0.8-0.4,1.4c0,0.2,0,0.4,0,0.7c0,0.3,0,0.5,0,0.7c0,0.6,0.2,1.1,0.4,1.5C278.6,93.3,279,93.5,279.5,93.5z"/>
				<path class="st26" d="M286.5,95.5c-0.1,0-0.2,0-0.3-0.1s-0.1-0.2-0.1-0.3v-8.5c0-0.1,0-0.2,0.1-0.3c0.1-0.1,0.2-0.1,0.3-0.1h2.1
					c0.1,0,0.2,0,0.3,0.1c0.1,0.1,0.1,0.2,0.1,0.3v0.7c0.3-0.4,0.7-0.7,1.2-0.9c0.5-0.2,1-0.3,1.5-0.3h0.8c0.1,0,0.2,0,0.3,0.1
					c0.1,0.1,0.1,0.2,0.1,0.3v1.9c0,0.1,0,0.2-0.1,0.3c-0.1,0.1-0.2,0.1-0.3,0.1h-1.7c-0.5,0-0.9,0.1-1.1,0.4s-0.4,0.7-0.4,1.1V95
					c0,0.1,0,0.2-0.1,0.3c-0.1,0.1-0.2,0.1-0.3,0.1H286.5z"/>
				<path class="st26" d="M294.7,95.5c-0.1,0-0.2,0-0.3-0.1s-0.1-0.2-0.1-0.3v-2.2c0-0.1,0-0.2,0.1-0.3s0.2-0.1,0.3-0.1h2.2
					c0.1,0,0.2,0,0.3,0.1s0.1,0.2,0.1,0.3V95c0,0.1,0,0.2-0.1,0.3s-0.2,0.1-0.3,0.1H294.7z M294.7,91.5c-0.1,0-0.2,0-0.3-0.1
					c-0.1-0.1-0.1-0.2-0.1-0.3v-7.7c0-0.1,0-0.2,0.1-0.3c0.1-0.1,0.2-0.1,0.3-0.1h2.1c0.1,0,0.2,0,0.3,0.1c0.1,0.1,0.1,0.2,0.1,0.3
					v7.7c0,0.1,0,0.2-0.1,0.3c-0.1,0.1-0.2,0.1-0.3,0.1H294.7z"/>
			</g>
		</g>
	</g>
	<g>
		<path class="st27" d="M101.3,266.9c14.7-7.8,18.4,9.2,12.7,23.2c-5.7,14-34.9,61.2-36.5,79.9c-0.6,7.3-1.9,6.5-3.1,1.4
			C68.6,346,81.1,277.6,101.3,266.9z"/>
		<g>
			<path class="st28" d="M70.2,202.6c-16.8-15.1-27.3,6-24.4,26.5c2.9,20.4,26,92.4,21.8,117.7c-1.6,9.8,0.4,9.2,3.6,2.8
				C87.3,318,93.4,223.4,70.2,202.6z"/>
			<path class="st29" d="M67.3,353.8c0.4,0.9,1.2,0.5,2.2-1.1c17.5-58.3-9.8-145.5-9.9-145.7c-0.1-0.5-0.7-0.7-1.1-0.6
				c-0.5,0.1-0.7,0.7-0.6,1.1C58,207.8,85.7,296.1,67.3,353.8z"/>
		</g>
		<g>
			<path class="st30" d="M33.6,251.1C17.3,244,14.7,262.4,22,276.9c7.2,14.5,42.4,62.4,45.5,82.2c1.2,7.7,2.6,6.7,3.4,1.2
				C75,332.8,56,260.8,33.6,251.1z"/>
			<path class="st31" d="M69,364.4c0.5,0.6,1,0.1,1.4-1.4c-1.5-47.8-43.5-105.9-43.6-106.1c-0.2-0.3-0.7-0.4-1-0.2
				c-0.3,0.2-0.4,0.7-0.2,1C25.7,258,68.3,316.9,69,364.4z"/>
		</g>
		<g>
			<polygon class="st9" points="56.5,355 87.7,355 95.9,362.4 89.2,388.1 72.1,388.1 55,388.1 48.3,362.4 			"/>
			<path class="st9" d="M48.3,344.3h47.6c1.4,0,2.6,1.2,2.6,2.6v11.8c0,1.4-1.2,2.6-2.6,2.6H48.3c-1.4,0-2.6-1.2-2.6-2.6v-11.8
				C45.7,345.4,46.9,344.3,48.3,344.3z"/>
			<polygon class="st6" points="95.9,362.4 94.5,367.7 49.7,367.7 48.3,362.4 			"/>
		</g>
	</g>
	<path class="st24" d="M131.8,33L131.8,33L131.8,33z M135.1,20.6c1.1-1.1,2.7-1.8,4.4-1.8c1.7,0,3.3,0.7,4.5,1.8
		c1.1,1.1,1.8,2.7,1.8,4.4c0,1.7-0.7,3.3-1.8,4.5c-1.1,1.1-2.7,1.8-4.5,1.8c-1.7,0-3.3-0.7-4.4-1.8c-1.1-1.1-1.8-2.7-1.8-4.5
		C133.3,23.3,134,21.7,135.1,20.6L135.1,20.6z M136.5,14.3c-0.9,0.3-1.7,0.6-2.5,1c-0.8,0.5-1.5,1-2.2,1.6c-0.1,0.1-0.3,0.1-0.5,0.1
		l-2.9-1.7l0,0c-0.2-0.1-0.4-0.1-0.5-0.1c-0.2,0-0.3,0.2-0.4,0.3l0,0l-2.1,3.6c-0.1,0.2-0.1,0.4-0.1,0.5c0,0.2,0.2,0.3,0.3,0.4l0,0
		l2.9,1.7c0.2,0.1,0.2,0.3,0.2,0.4h0c-0.1,0.4-0.2,0.9-0.2,1.3c-0.1,0.4-0.1,0.9-0.1,1.4c0,0.5,0,0.9,0.1,1.4
		c0.1,0.5,0.1,0.9,0.2,1.3c0,0.2,0,0.4-0.2,0.4l-2.9,1.7v0c-0.2,0.1-0.3,0.3-0.3,0.4c0,0.2,0,0.4,0.1,0.6l2.1,3.6h0
		c0.1,0.2,0.3,0.3,0.4,0.3c0.2,0,0.4,0,0.5-0.1l0,0l2.9-1.7c0.2-0.1,0.3-0.1,0.5,0.1c0.6,0.6,1.4,1.2,2.2,1.6
		c0.8,0.4,1.6,0.8,2.5,1.1c0.2,0,0.3,0.2,0.3,0.4v3.4c0,0.2,0.1,0.4,0.2,0.5c0.1,0.1,0.3,0.2,0.5,0.2h4.1c0.2,0,0.4-0.1,0.5-0.2
		c0.1-0.1,0.2-0.3,0.2-0.5v-3.4c0-0.2,0.1-0.3,0.3-0.4c0.9-0.3,1.7-0.6,2.5-1.1c0.8-0.5,1.5-1,2.2-1.6c0.1-0.1,0.3-0.1,0.5,0
		l2.9,1.7c0.2,0.1,0.4,0.1,0.6,0.1c0.2,0,0.3-0.2,0.4-0.3l0,0l2.1-3.6l0,0c0.1-0.2,0.1-0.4,0.1-0.5c0-0.2-0.2-0.3-0.3-0.4l-2.9-1.7
		c-0.2-0.1-0.2-0.3-0.2-0.4h0c0.1-0.4,0.2-0.9,0.2-1.3c0.1-0.4,0.1-0.9,0.1-1.4c0-0.5,0-0.9-0.1-1.4c-0.1-0.5-0.1-0.9-0.2-1.3
		c0-0.2,0-0.4,0.2-0.4l2.9-1.7c0.2-0.1,0.3-0.3,0.3-0.4c0-0.2,0-0.4-0.1-0.5l0,0l-2.1-3.6l0,0c-0.1-0.2-0.3-0.3-0.4-0.3
		c-0.2,0-0.4,0-0.6,0.1l0,0l-2.9,1.7c-0.2,0.1-0.3,0.1-0.5-0.1c-0.6-0.6-1.4-1.2-2.2-1.6c-0.8-0.4-1.6-0.8-2.5-1.1
		c-0.2,0-0.3-0.2-0.3-0.4v-3.4c0-0.2-0.1-0.4-0.2-0.5c-0.1-0.1-0.3-0.2-0.5-0.2h-4.1c-0.2,0-0.4,0.1-0.5,0.2
		c-0.1,0.1-0.2,0.3-0.2,0.5V14C136.8,14.1,136.6,14.3,136.5,14.3z"/>
	<path class="st24" d="M176.8,50.3c1.4-1.4,3-2.5,4.8-3.2c1.8-0.7,3.7-1.1,5.7-1.1c2,0,3.9,0.4,5.7,1.1c1.8,0.8,3.5,1.9,4.8,3.2
		c1.4,1.4,2.5,3,3.2,4.8c0.7,1.7,1.1,3.7,1.1,5.7c0,2-0.4,3.9-1.1,5.7c-0.8,1.8-1.9,3.5-3.2,4.8c-1.4,1.4-3,2.5-4.8,3.2
		c-1.7,0.7-3.7,1.1-5.7,1.1c-2,0-3.9-0.4-5.7-1.1c-1.8-0.8-3.5-1.9-4.8-3.2c-1.4-1.4-2.5-3-3.2-4.8c-0.7-1.7-1.1-3.7-1.1-5.7
		c0-2,0.4-3.9,1.1-5.7C174.4,53.3,175.5,51.7,176.8,50.3L176.8,50.3z M182.2,48.4c-1.6,0.7-3.1,1.7-4.4,2.9
		c-1.2,1.2-2.2,2.7-2.9,4.4c-0.7,1.6-1,3.3-1,5.1c0,1.8,0.4,3.6,1,5.1c0.7,1.6,1.7,3.1,2.9,4.4c1.2,1.2,2.7,2.2,4.4,2.9
		c1.6,0.7,3.3,1,5.1,1c1.8,0,3.6-0.4,5.1-1c1.6-0.7,3.1-1.7,4.4-2.9c1.2-1.2,2.2-2.7,2.9-4.4c0.7-1.6,1-3.3,1-5.1
		c0-1.8-0.4-3.6-1-5.1c-0.7-1.6-1.7-3.1-2.9-4.4c-1.2-1.2-2.7-2.2-4.4-2.9c-1.6-0.7-3.3-1-5.1-1C185.5,47.4,183.7,47.7,182.2,48.4
		L182.2,48.4z M180.5,37.5c-0.9,0.3-1.8,0.6-2.7,1c-0.9,0.4-1.8,0.8-2.6,1.3c-0.9,0.5-1.7,1-2.5,1.6c-0.8,0.6-1.5,1.2-2.3,1.9
		c-0.3,0.2-0.6,0.4-0.9,0.4c-0.3,0-0.7,0-1-0.2c-2.2-1.3-4.5-2.5-6.6-3.8c-0.1-0.1-0.2-0.1-0.3-0.1c-0.1,0-0.2,0-0.4,0
		c-0.1,0-0.2,0.1-0.3,0.2c-0.1,0.1-0.2,0.2-0.2,0.3c-1.6,2.4-3.2,5.5-4.6,8.1c-0.1,0.1-0.1,0.2-0.1,0.3c0,0.1,0,0.3,0,0.4
		c0,0.1,0.1,0.2,0.2,0.3c0.1,0.1,0.2,0.2,0.3,0.2c2,1.3,4.5,2.6,6.6,3.8c0.3,0.2,0.5,0.4,0.7,0.7c0,0.1,0.1,0.2,0.1,0.3l0.1,0
		l-0.2,0.6c-0.1,0.5-0.2,1-0.3,1.4c-0.1,0.5-0.2,1-0.2,1.5c-0.1,0.5-0.1,1-0.1,1.5c0,0.5,0,1,0,1.5c0,0.5,0,1,0,1.5
		c0,0.5,0.1,1,0.1,1.5c0.1,0.5,0.1,1,0.2,1.5c0.1,0.5,0.2,1,0.3,1.4c0.1,0.4,0,0.7-0.1,1c-0.1,0.3-0.4,0.6-0.7,0.7l-5.8,3.4l0,0
		l-0.7,0.4c-0.1,0.1-0.2,0.1-0.3,0.2c-0.1,0.1-0.1,0.2-0.2,0.3c0,0.1,0,0.3,0,0.4c0,0.1,0.1,0.2,0.1,0.3l4.3,7.5l0,0l0.3,0.6
		c0.1,0.1,0.1,0.2,0.2,0.3c0.1,0.1,0.2,0.1,0.3,0.2c0.1,0,0.3,0,0.4,0c0.1,0,0.2-0.1,0.3-0.1c2.1-1.3,4.4-2.6,6.6-3.8
		c0.3-0.2,0.6-0.2,1-0.2c0.3,0,0.6,0.2,0.9,0.4l0,0c0.7,0.7,1.5,1.3,2.3,1.9c0.8,0.6,1.6,1.1,2.5,1.6c0.8,0.5,1.7,0.9,2.6,1.3
		c0.9,0.4,1.8,0.7,2.8,1c0.3,0.1,0.6,0.3,0.8,0.6c0.2,0.3,0.3,0.6,0.3,0.9l0,7.6c0,0.1,0,0.2,0.1,0.4c0,0.1,0.1,0.2,0.2,0.3
		c0.1,0.1,0.2,0.2,0.3,0.2c0.1,0,0.2,0.1,0.4,0.1h9.3c0.1,0,0.2,0,0.4-0.1c0.1,0,0.2-0.1,0.3-0.2c0.1-0.1,0.2-0.2,0.2-0.3
		c0-0.1,0.1-0.2,0.1-0.4v-7.6c0-0.4,0.1-0.7,0.3-1c0.2-0.3,0.5-0.5,0.9-0.6c0.9-0.3,1.8-0.6,2.7-1c0.9-0.4,1.8-0.8,2.6-1.3
		c0.9-0.5,1.7-1,2.5-1.6c0.8-0.6,1.5-1.2,2.3-1.9c0.3-0.3,0.6-0.4,0.9-0.4c0.3,0,0.7,0.1,1,0.2l6.5,3.7c0.1,0.1,0.2,0.1,0.3,0.1
		c0.1,0,0.2,0,0.4,0c0.1,0,0.2-0.1,0.3-0.2c0.1-0.1,0.2-0.2,0.2-0.3c1.5-2.7,3.1-5.4,4.7-8.1c0.1-0.1,0.1-0.2,0.1-0.3
		c0-0.1,0-0.2,0-0.4c0-0.1-0.1-0.2-0.2-0.3c-0.1-0.1-0.2-0.2-0.3-0.2l-6.6-3.8c-0.3-0.2-0.5-0.4-0.7-0.7c0-0.1-0.1-0.2-0.1-0.3
		l-0.2,0l0.2-0.7c0.1-0.5,0.2-1,0.3-1.4c0.1-0.5,0.2-1,0.2-1.5c0.1-0.5,0.1-1,0.1-1.5c0-0.5,0-1,0-1.5c0-0.5,0-1,0-1.5
		c0-0.5-0.1-1-0.1-1.5c-0.1-0.5-0.1-1-0.2-1.5c-0.1-0.5-0.2-1-0.3-1.4c-0.1-0.4,0-0.7,0.1-1c0.1-0.3,0.4-0.6,0.7-0.7l6.5-3.8
		c0.1-0.1,0.2-0.1,0.3-0.2c0.1-0.1,0.1-0.2,0.2-0.3c0-0.1,0-0.3,0-0.4c0-0.1-0.1-0.2-0.1-0.3c-1.6-2.4-3.2-5.5-4.7-8.1
		c-0.1-0.1-0.1-0.2-0.2-0.3c-0.1-0.1-0.2-0.1-0.3-0.2c-0.1,0-0.3,0-0.4,0c-0.1,0-0.2,0.1-0.3,0.1l-6.6,3.8c-0.3,0.2-0.7,0.2-1,0.2
		c-0.3,0-0.6-0.2-0.9-0.4c-0.7-0.7-1.5-1.3-2.2-1.9c-0.8-0.6-1.6-1.1-2.5-1.6c-0.8-0.5-1.7-0.9-2.6-1.3c-0.9-0.4-1.8-0.7-2.8-1
		c-0.3-0.1-0.6-0.3-0.8-0.6c-0.2-0.3-0.3-0.6-0.3-0.9l0-7.6c0-0.1,0-0.2-0.1-0.4c0-0.1-0.1-0.2-0.2-0.3c-0.1-0.1-0.2-0.2-0.3-0.2
		c-0.1,0-0.2-0.1-0.4-0.1h-9.3c-0.1,0-0.2,0-0.4,0.1c-0.1,0-0.2,0.1-0.3,0.2c-0.2,0.2-0.3,0.4-0.3,0.7V36c0,0.4-0.1,0.7-0.3,1
		C181.2,37.2,180.9,37.4,180.5,37.5L180.5,37.5z M177.3,37.2c-1,0.4-1.9,0.9-2.8,1.4c-0.9,0.5-1.8,1.1-2.6,1.7
		c-0.8,0.6-1.6,1.3-2.4,2c0,0-0.1,0-0.1,0c0,0-0.1,0-0.1,0c-2.2-1.3-4.4-2.5-6.6-3.8c-0.3-0.1-0.5-0.2-0.8-0.3c-0.3,0-0.6,0-0.9,0.1
		c-0.3,0.1-0.6,0.2-0.8,0.4c-0.2,0.2-0.4,0.4-0.6,0.7c-1.6,2.6-3.1,5.4-4.6,8.1c-0.2,0.3-0.3,0.6-0.3,0.9c0,0.3,0,0.6,0.1,0.9
		c0.1,0.3,0.2,0.6,0.4,0.8c0.2,0.2,0.4,0.4,0.7,0.6c2.1,1.3,4.4,2.5,6.6,3.8c0,0,0.1,0.1,0.1,0.1c0,0,0,0.1,0,0.1l-0.2,0.6l0,0
		c-0.1,0.3-0.1,0.6-0.2,0.9c-0.1,0.5-0.2,1-0.2,1.5c-0.1,0.5-0.1,1-0.1,1.6c0,0.5,0,1.1,0,1.6c0,0.5,0,1,0,1.6
		c0,0.5,0.1,1.1,0.1,1.6c0.1,0.5,0.1,1,0.2,1.5c0.1,0.5,0.2,1,0.3,1.5c0,0,0,0.1,0,0.1c0,0,0,0.1-0.1,0.1c-2.4,1.3-4.9,2.8-7.2,4.2
		l0.1,0.1l-0.1,0.1c-0.2,0.2-0.3,0.5-0.4,0.8c-0.1,0.3-0.1,0.6-0.1,0.9c0,0.3,0.1,0.6,0.3,0.9l5,8.7l0.1-0.1c0,0,0.1,0.1,0.2,0.1
		c0.2,0.2,0.5,0.3,0.8,0.4c0.3,0.1,0.6,0.1,0.9,0.1c0.3,0,0.6-0.1,0.8-0.3c2.2-1.2,4.4-2.6,6.6-3.8c0,0,0.1,0,0.1,0c0,0,0.1,0,0.1,0
		c0.8,0.7,1.5,1.4,2.4,2c0.8,0.6,1.7,1.2,2.6,1.7c0.9,0.5,1.8,1,2.8,1.4c1,0.4,1.9,0.8,2.9,1c0,0,0.1,0,0.1,0.1c0,0,0,0.1,0,0.1v7.6
		c0,0.3,0.1,0.6,0.2,0.9c0.1,0.3,0.3,0.5,0.5,0.8c0.2,0.2,0.5,0.4,0.7,0.5c0.3,0.1,0.6,0.2,0.9,0.2h9.3c0.3,0,0.6-0.1,0.9-0.2
		c0.3-0.1,0.5-0.3,0.8-0.5c0.2-0.2,0.4-0.5,0.5-0.8c0.1-0.3,0.2-0.6,0.2-0.9v-7.6c0,0,0-0.1,0-0.1c0,0,0.1-0.1,0.1-0.1l0,0
		c1-0.3,2-0.6,2.9-1c1-0.4,1.9-0.9,2.8-1.4c0.9-0.5,1.8-1.1,2.6-1.7c0.8-0.6,1.6-1.3,2.4-2c0,0,0.1,0,0.1-0.1c0,0,0.1,0,0.1,0
		l6.6,3.8c0.3,0.2,0.6,0.3,0.9,0.3c0.3,0,0.6,0,0.9-0.1c0.3-0.1,0.6-0.2,0.8-0.4c0.2-0.2,0.4-0.4,0.6-0.7c1.7-2.8,3.4-5.8,5-8.7
		l-0.1-0.1c0-0.1,0-0.1,0-0.2c0-0.3,0-0.6-0.1-0.9c-0.1-0.3-0.2-0.6-0.4-0.8c-0.2-0.2-0.4-0.4-0.7-0.6l-6.6-3.8c0,0-0.1,0-0.1-0.1
		c0,0,0-0.1,0-0.1l0.2-0.7l0,0c0.1-0.3,0.1-0.5,0.2-0.8c0.1-0.5,0.2-1,0.2-1.5c0.1-0.5,0.1-1,0.1-1.6c0-0.5,0-1.1,0-1.6
		c0-0.5,0-1,0-1.6c0-0.5-0.1-1.1-0.1-1.6c-0.1-0.5-0.1-1-0.2-1.5c-0.1-0.5-0.2-1-0.3-1.5c0,0,0-0.1,0-0.1c0,0,0-0.1,0.1-0.1l6.6-3.8
		c0.3-0.2,0.5-0.4,0.7-0.6c0.2-0.2,0.3-0.5,0.4-0.8c0.1-0.3,0.1-0.6,0.1-0.9c0-0.3-0.1-0.6-0.3-0.8c-1.6-2.9-3.4-5.8-5-8.7l-0.1,0.1
		c0,0-0.1-0.1-0.2-0.1c-0.2-0.2-0.5-0.3-0.8-0.4c-0.3-0.1-0.6-0.1-0.9-0.1c-0.3,0-0.6,0.1-0.9,0.3l-0.5,0.3l0,0l-6.1,3.5
		c0,0-0.1,0-0.1,0c0,0-0.1,0-0.1-0.1l0,0c-0.7-0.7-1.5-1.4-2.4-2c-0.8-0.6-1.7-1.2-2.6-1.7c-0.9-0.5-1.8-1-2.8-1.4
		c-1-0.4-1.9-0.8-2.9-1c0,0-0.1,0-0.1-0.1c0,0,0-0.1,0-0.1v-7.6c0-0.3-0.1-0.6-0.2-0.9c-0.1-0.3-0.3-0.5-0.5-0.8
		c-0.2-0.2-0.5-0.4-0.7-0.5c-0.3-0.1-0.6-0.2-0.9-0.2h-9.3c-0.3,0-0.6,0.1-0.9,0.2c-0.3,0.1-0.5,0.3-0.8,0.5c-0.4,0.4-0.7,1-0.7,1.6
		V36c0,0,0,0.1,0,0.1c0,0-0.1,0.1-0.1,0.1l0,0C179.2,36.4,178.2,36.8,177.3,37.2z"/>
	<path class="st24" d="M465.8,138.6L465.8,138.6L465.8,138.6z M469,126.2c1.1-1.1,2.7-1.8,4.4-1.8c1.7,0,3.3,0.7,4.5,1.8
		c1.1,1.1,1.8,2.7,1.8,4.5c0,1.7-0.7,3.3-1.8,4.4c-1.1,1.1-2.7,1.8-4.5,1.8c-1.7,0-3.3-0.7-4.4-1.8c-1.1-1.1-1.8-2.7-1.8-4.4
		C467.2,128.9,467.9,127.3,469,126.2L469,126.2z M470.4,119.9c-0.9,0.3-1.7,0.6-2.5,1c-0.8,0.5-1.5,1-2.2,1.6
		c-0.1,0.1-0.3,0.1-0.5,0.1l-2.9-1.7l0,0c-0.2-0.1-0.4-0.1-0.5-0.1c-0.2,0-0.3,0.2-0.4,0.3l0,0l-2.1,3.6c-0.1,0.2-0.1,0.4-0.1,0.5
		c0,0.2,0.2,0.3,0.3,0.4l0,0l2.9,1.7c0.2,0.1,0.2,0.3,0.2,0.4h0c-0.1,0.4-0.2,0.9-0.2,1.3c-0.1,0.4-0.1,0.9-0.1,1.4
		c0,0.5,0,0.9,0.1,1.4c0.1,0.5,0.1,0.9,0.2,1.3c0,0.2,0,0.4-0.2,0.4l-2.9,1.7v0c-0.2,0.1-0.3,0.3-0.3,0.4c0,0.2,0,0.4,0.1,0.6
		l2.1,3.6h0c0.1,0.2,0.3,0.3,0.4,0.3c0.2,0,0.4,0,0.5-0.1l0,0l2.9-1.7c0.2-0.1,0.3-0.1,0.5,0.1c0.6,0.6,1.4,1.2,2.2,1.6
		c0.8,0.4,1.6,0.8,2.5,1.1c0.2,0,0.3,0.2,0.3,0.4v3.4c0,0.2,0.1,0.4,0.2,0.5c0.1,0.1,0.3,0.2,0.5,0.2h4.1c0.2,0,0.4-0.1,0.5-0.2
		c0.1-0.1,0.2-0.3,0.2-0.5v-3.4c0-0.2,0.1-0.3,0.3-0.4c0.9-0.3,1.7-0.6,2.5-1.1c0.8-0.5,1.5-1,2.2-1.6c0.1-0.1,0.3-0.1,0.5,0
		l2.9,1.7c0.2,0.1,0.4,0.1,0.5,0.1c0.2,0,0.3-0.2,0.4-0.3l0,0l2.1-3.6l0,0c0.1-0.2,0.1-0.4,0.1-0.5c0-0.2-0.2-0.3-0.3-0.4l-2.9-1.7
		c-0.2-0.1-0.2-0.3-0.2-0.4l0,0c0.1-0.4,0.2-0.9,0.2-1.3c0.1-0.4,0.1-0.9,0.1-1.4c0-0.5,0-0.9-0.1-1.4c-0.1-0.5-0.1-0.9-0.2-1.3
		c0-0.2,0-0.4,0.2-0.4l2.9-1.7c0.2-0.1,0.3-0.3,0.3-0.4c0-0.2,0-0.4-0.1-0.5l0,0l-2.1-3.6l0,0c-0.1-0.2-0.3-0.3-0.4-0.3
		c-0.2,0-0.4,0-0.5,0.1v0l-2.9,1.7c-0.2,0.1-0.3,0.1-0.5-0.1c-0.6-0.6-1.4-1.2-2.2-1.6c-0.8-0.4-1.6-0.8-2.5-1.1
		c-0.2,0-0.3-0.2-0.3-0.4v-3.4c0-0.2-0.1-0.4-0.2-0.5c-0.1-0.1-0.3-0.2-0.5-0.2h-4.1c-0.2,0-0.4,0.1-0.5,0.2
		c-0.1,0.1-0.2,0.3-0.2,0.5v3.4C470.7,119.7,470.6,119.9,470.4,119.9z"/>
	<path class="st24" d="M597.1,223.1c1.4-1.4,3-2.5,4.8-3.2c1.7-0.7,3.7-1.1,5.7-1.1c2,0,3.9,0.4,5.7,1.1c1.8,0.8,3.5,1.9,4.8,3.2
		c1.4,1.4,2.5,3,3.2,4.8c0.7,1.8,1.1,3.7,1.1,5.7c0,2-0.4,3.9-1.1,5.7c-0.8,1.8-1.9,3.5-3.2,4.8c-1.4,1.4-3,2.5-4.8,3.2
		c-1.7,0.7-3.7,1.1-5.7,1.1c-2,0-3.9-0.4-5.7-1.1c-1.8-0.8-3.5-1.9-4.8-3.2c-1.4-1.4-2.5-3-3.2-4.8c-0.7-1.7-1.1-3.7-1.1-5.7
		c0-2,0.4-3.9,1.1-5.7C594.7,226.1,595.8,224.5,597.1,223.1L597.1,223.1z M602.5,221.1c-1.6,0.7-3.1,1.7-4.4,2.9
		c-1.2,1.2-2.2,2.7-2.9,4.4c-0.7,1.6-1,3.3-1,5.1c0,1.8,0.4,3.6,1,5.1c0.7,1.6,1.7,3.1,2.9,4.4c1.2,1.2,2.7,2.2,4.4,2.9
		c1.6,0.7,3.3,1,5.1,1c1.8,0,3.6-0.4,5.1-1c1.6-0.7,3.1-1.7,4.4-2.9c1.2-1.2,2.2-2.7,2.9-4.4c0.7-1.6,1-3.3,1-5.1
		c0-1.8-0.4-3.6-1-5.1c-0.7-1.6-1.7-3.1-2.9-4.4c-1.2-1.2-2.7-2.2-4.4-2.9c-1.6-0.7-3.3-1-5.1-1C605.8,220.1,604,220.5,602.5,221.1
		L602.5,221.1z M600.8,210.2c-0.9,0.3-1.8,0.6-2.7,1c-0.9,0.4-1.8,0.8-2.6,1.3c-0.9,0.5-1.7,1-2.5,1.6c-0.8,0.6-1.5,1.2-2.3,1.9
		c-0.3,0.2-0.6,0.4-0.9,0.4c-0.3,0-0.7,0-1-0.2c-2.2-1.3-4.5-2.5-6.6-3.8c-0.1-0.1-0.2-0.1-0.3-0.1c-0.1,0-0.2,0-0.4,0
		c-0.1,0-0.2,0.1-0.3,0.2c-0.1,0.1-0.2,0.2-0.2,0.3c-1.6,2.4-3.2,5.5-4.7,8.1c-0.1,0.1-0.1,0.2-0.1,0.3c0,0.1,0,0.3,0,0.4
		c0,0.1,0.1,0.2,0.2,0.3c0.1,0.1,0.2,0.2,0.3,0.2c2,1.3,4.5,2.6,6.6,3.8c0.3,0.2,0.5,0.4,0.7,0.7c0,0.1,0.1,0.2,0.1,0.3l0.1,0
		l-0.2,0.6c-0.1,0.5-0.2,1-0.3,1.4c-0.1,0.5-0.2,1-0.2,1.5c-0.1,0.5-0.1,1-0.1,1.5c0,0.5,0,1,0,1.5c0,0.5,0,1,0,1.5
		c0,0.5,0.1,1,0.1,1.5c0.1,0.5,0.1,1,0.2,1.5c0.1,0.5,0.2,1,0.3,1.4c0.1,0.4,0,0.7-0.1,1c-0.1,0.3-0.4,0.6-0.7,0.7l-5.8,3.4l0,0
		l-0.7,0.4c-0.1,0.1-0.2,0.1-0.3,0.2c-0.1,0.1-0.1,0.2-0.2,0.3c0,0.1,0,0.3,0,0.4c0,0.1,0.1,0.2,0.1,0.3l4.3,7.5l0,0l0.3,0.6
		c0.1,0.1,0.1,0.2,0.2,0.3c0.1,0.1,0.2,0.1,0.3,0.2c0.1,0,0.3,0,0.4,0c0.1,0,0.2-0.1,0.3-0.1c2.1-1.3,4.4-2.6,6.6-3.8
		c0.3-0.2,0.6-0.2,1-0.2c0.3,0,0.6,0.2,0.9,0.4l0,0c0.7,0.7,1.5,1.3,2.3,1.9c0.8,0.6,1.6,1.1,2.5,1.6c0.8,0.5,1.7,0.9,2.6,1.3
		c0.9,0.4,1.8,0.7,2.8,1c0.3,0.1,0.6,0.3,0.8,0.6c0.2,0.3,0.3,0.6,0.3,0.9l0,7.6c0,0.1,0,0.2,0.1,0.4c0,0.1,0.1,0.2,0.2,0.3
		c0.1,0.1,0.2,0.2,0.3,0.2c0.1,0,0.2,0.1,0.4,0.1h9.3c0.1,0,0.2,0,0.4-0.1c0.1,0,0.2-0.1,0.3-0.2c0.1-0.1,0.2-0.2,0.2-0.3
		c0-0.1,0.1-0.2,0.1-0.4v-7.6c0-0.4,0.1-0.7,0.3-1c0.2-0.3,0.5-0.5,0.9-0.6c0.9-0.3,1.8-0.6,2.7-1c0.9-0.4,1.8-0.8,2.6-1.3
		c0.9-0.5,1.7-1,2.5-1.6c0.8-0.6,1.6-1.2,2.3-1.9c0.3-0.3,0.6-0.4,0.9-0.4c0.3,0,0.7,0.1,1,0.3l6.5,3.7c0.1,0.1,0.2,0.1,0.3,0.1
		c0.1,0,0.3,0,0.4,0c0.1,0,0.2-0.1,0.3-0.2c0.1-0.1,0.2-0.2,0.2-0.3c1.5-2.7,3.1-5.4,4.6-8.1c0.1-0.1,0.1-0.2,0.1-0.3
		c0-0.1,0-0.3,0-0.4c0-0.1-0.1-0.2-0.2-0.3c-0.1-0.1-0.2-0.2-0.3-0.2l-6.6-3.8c-0.3-0.2-0.5-0.4-0.7-0.7c0-0.1-0.1-0.2-0.1-0.3
		l-0.2,0l0.2-0.7c0.1-0.5,0.2-1,0.3-1.4c0.1-0.5,0.2-1,0.2-1.5c0.1-0.5,0.1-1,0.1-1.5c0-0.5,0-1,0-1.5c0-0.5,0-1,0-1.5
		c0-0.5-0.1-1-0.1-1.5c-0.1-0.5-0.1-1-0.2-1.5c-0.1-0.5-0.2-1-0.3-1.4c-0.1-0.4,0-0.7,0.1-1c0.1-0.3,0.4-0.6,0.7-0.7l6.5-3.8
		c0.1-0.1,0.2-0.1,0.3-0.2c0.1-0.1,0.1-0.2,0.2-0.3c0-0.1,0-0.3,0-0.4c0-0.1-0.1-0.2-0.1-0.3c-1.6-2.4-3.2-5.5-4.6-8.1
		c-0.1-0.1-0.1-0.2-0.2-0.3c-0.1-0.1-0.2-0.1-0.3-0.2c-0.1,0-0.3,0-0.4,0c-0.1,0-0.2,0.1-0.3,0.1l-6.6,3.8c-0.3,0.2-0.7,0.2-1,0.2
		c-0.3,0-0.6-0.2-0.9-0.4c-0.7-0.7-1.5-1.3-2.2-1.9c-0.8-0.6-1.6-1.1-2.5-1.6c-0.8-0.5-1.7-0.9-2.6-1.3c-0.9-0.4-1.8-0.7-2.8-1
		c-0.3-0.1-0.6-0.3-0.8-0.6c-0.2-0.3-0.3-0.6-0.3-0.9l0-7.6c0-0.1,0-0.2-0.1-0.4c0-0.1-0.1-0.2-0.2-0.3c-0.1-0.1-0.2-0.2-0.3-0.2
		c-0.1,0-0.2-0.1-0.4-0.1H603c-0.1,0-0.2,0-0.4,0.1c-0.1,0-0.2,0.1-0.3,0.2c-0.2,0.2-0.3,0.4-0.3,0.7v7.6c0,0.4-0.1,0.7-0.3,1
		C601.5,210,601.2,210.1,600.8,210.2L600.8,210.2z M597.5,209.9c-1,0.4-1.9,0.9-2.8,1.4c-0.9,0.5-1.8,1.1-2.6,1.7
		c-0.8,0.6-1.6,1.3-2.4,2c0,0-0.1,0-0.1,0c0,0-0.1,0-0.1,0c-2.2-1.3-4.4-2.5-6.6-3.8c-0.3-0.1-0.5-0.2-0.8-0.3c-0.3,0-0.6,0-0.9,0.1
		c-0.3,0.1-0.6,0.2-0.8,0.4c-0.2,0.2-0.4,0.4-0.6,0.7c-1.6,2.6-3.1,5.4-4.7,8.1c-0.2,0.3-0.2,0.6-0.3,0.9c0,0.3,0,0.6,0.1,0.9
		c0.1,0.3,0.2,0.6,0.4,0.8c0.2,0.2,0.4,0.4,0.7,0.6c2.1,1.3,4.4,2.5,6.6,3.8c0,0,0.1,0,0.1,0.1c0,0,0,0.1,0,0.1l-0.2,0.6l0,0
		c-0.1,0.3-0.1,0.6-0.2,0.9c-0.1,0.5-0.2,1-0.2,1.5c-0.1,0.5-0.1,1-0.1,1.6c0,0.5,0,1.1,0,1.6c0,0.5,0,1,0,1.6
		c0,0.5,0.1,1.1,0.1,1.6c0.1,0.5,0.1,1,0.2,1.5c0.1,0.5,0.2,1,0.3,1.5c0,0,0,0.1,0,0.1c0,0,0,0.1-0.1,0.1c-2.4,1.3-4.9,2.8-7.2,4.2
		l0.1,0.1l-0.1,0.1c-0.2,0.2-0.3,0.5-0.4,0.8c-0.1,0.3-0.1,0.6-0.1,0.9c0,0.3,0.1,0.6,0.3,0.9l5,8.7l0.1-0.1c0,0,0.1,0.1,0.2,0.1
		c0.2,0.2,0.5,0.3,0.8,0.4c0.3,0.1,0.6,0.1,0.9,0.1c0.3,0,0.6-0.1,0.8-0.3c2.2-1.2,4.4-2.6,6.6-3.8c0,0,0.1,0,0.1,0c0,0,0.1,0,0.1,0
		c0.8,0.7,1.5,1.4,2.4,2c0.8,0.6,1.7,1.2,2.6,1.7c0.9,0.5,1.8,1,2.8,1.4c1,0.4,1.9,0.8,2.9,1c0,0,0.1,0,0.1,0.1c0,0,0,0.1,0,0.1v7.6
		c0,0.3,0.1,0.6,0.2,0.9c0.1,0.3,0.3,0.5,0.5,0.8c0.2,0.2,0.5,0.4,0.7,0.5c0.3,0.1,0.6,0.2,0.9,0.2h9.3c0.3,0,0.6-0.1,0.9-0.2
		c0.3-0.1,0.5-0.3,0.8-0.5c0.2-0.2,0.4-0.5,0.5-0.8c0.1-0.3,0.2-0.6,0.2-0.9v-7.6c0,0,0-0.1,0-0.1c0,0,0.1-0.1,0.1-0.1l0,0
		c1-0.3,2-0.6,2.9-1c1-0.4,1.9-0.9,2.8-1.4c0.9-0.5,1.8-1.1,2.6-1.7c0.8-0.6,1.6-1.3,2.4-2c0,0,0.1,0,0.1-0.1c0,0,0.1,0,0.1,0
		l6.6,3.8c0.3,0.2,0.6,0.2,0.9,0.3c0.3,0,0.6,0,0.9-0.1c0.3-0.1,0.6-0.2,0.8-0.4c0.2-0.2,0.4-0.4,0.6-0.7c1.7-2.8,3.4-5.8,5-8.7
		l-0.1-0.1c0-0.1,0-0.1,0-0.2c0-0.3,0-0.6-0.1-0.9c-0.1-0.3-0.2-0.6-0.4-0.8c-0.2-0.2-0.4-0.4-0.7-0.6l-6.6-3.8c0,0-0.1-0.1-0.1-0.1
		c0,0,0-0.1,0-0.1l0.2-0.7l0,0c0.1-0.3,0.1-0.5,0.2-0.8c0.1-0.5,0.2-1,0.2-1.5c0.1-0.5,0.1-1,0.1-1.6c0-0.5,0-1.1,0-1.6
		c0-0.5,0-1,0-1.6c0-0.5-0.1-1.1-0.1-1.6c-0.1-0.5-0.1-1-0.2-1.5c-0.1-0.5-0.2-1-0.3-1.5c0,0,0-0.1,0-0.1c0,0,0-0.1,0.1-0.1l6.6-3.8
		c0.3-0.2,0.5-0.4,0.7-0.6c0.2-0.2,0.3-0.5,0.4-0.8c0.1-0.3,0.1-0.6,0.1-0.9c0-0.3-0.1-0.6-0.3-0.8c-1.6-2.9-3.4-5.8-5-8.7l-0.1,0.1
		c0,0-0.1-0.1-0.2-0.1c-0.2-0.2-0.5-0.3-0.8-0.4c-0.3-0.1-0.6-0.1-0.9-0.1c-0.3,0-0.6,0.1-0.9,0.3l-0.5,0.3l0,0l-6.1,3.5
		c0,0-0.1,0-0.1,0c0,0-0.1,0-0.1-0.1l0,0c-0.7-0.7-1.5-1.4-2.4-2c-0.8-0.6-1.7-1.2-2.6-1.7c-0.9-0.5-1.8-1-2.8-1.4
		c-1-0.4-1.9-0.8-2.9-1c0,0-0.1,0-0.1-0.1c0,0,0-0.1,0-0.1v-7.6c0-0.3-0.1-0.6-0.2-0.9c-0.1-0.3-0.3-0.5-0.5-0.8
		c-0.2-0.2-0.5-0.4-0.7-0.5c-0.3-0.1-0.6-0.2-0.9-0.2H603c-0.3,0-0.6,0.1-0.9,0.2c-0.3,0.1-0.5,0.3-0.8,0.5c-0.4,0.4-0.7,1-0.7,1.6
		v7.6c0,0,0,0.1,0,0.1c0,0-0.1,0.1-0.1,0.1l0,0C599.5,209.2,598.5,209.5,597.5,209.9z"/>
	<path class="st3" d="M69,94.6c0-0.6-0.5-1.1-1.1-1.1s-1.1,0.5-1.1,1.1v2.5h-2.5c-0.6,0-1.1,0.5-1.1,1.1s0.5,1.1,1.1,1.1h2.5v2.5
		c0,0.6,0.5,1.1,1.1,1.1s1.1-0.5,1.1-1.1v-2.5h2.5c0.6,0,1.1-0.5,1.1-1.1s-0.5-1.1-1.1-1.1H69V94.6z"/>
	<path class="st3" d="M255.9,32.3c0-0.6-0.5-1.1-1.1-1.1c-0.6,0-1.1,0.5-1.1,1.1v2.5h-2.5c-0.6,0-1.1,0.5-1.1,1.1
		c0,0.6,0.5,1.1,1.1,1.1h2.5v2.5c0,0.6,0.5,1.1,1.1,1.1c0.6,0,1.1-0.5,1.1-1.1V37h2.5c0.6,0,1.1-0.5,1.1-1.1c0-0.6-0.5-1.1-1.1-1.1
		h-2.5V32.3z"/>
	<path class="st3" d="M354.8,25c0-0.6-0.5-1.1-1.1-1.1c-0.6,0-1.1,0.5-1.1,1.1v2.5h-2.5c-0.6,0-1.1,0.5-1.1,1.1
		c0,0.6,0.5,1.1,1.1,1.1h2.5v2.5c0,0.6,0.5,1.1,1.1,1.1c0.6,0,1.1-0.5,1.1-1.1v-2.5h2.5c0.6,0,1.1-0.5,1.1-1.1
		c0-0.6-0.5-1.1-1.1-1.1h-2.5V25z"/>
	<path class="st3" d="M538.2,247.4c0-0.6-0.5-1.1-1.1-1.1c-0.6,0-1.1,0.5-1.1,1.1v2.5h-2.5c-0.6,0-1.1,0.5-1.1,1.1
		c0,0.6,0.5,1.1,1.1,1.1h2.5v2.5c0,0.6,0.5,1.1,1.1,1.1c0.6,0,1.1-0.5,1.1-1.1v-2.5h2.5c0.6,0,1.1-0.5,1.1-1.1
		c0-0.6-0.5-1.1-1.1-1.1h-2.5V247.4z"/>
	<path class="st3" d="M120.2,343.9c0-0.6-0.5-1.1-1.1-1.1c-0.6,0-1.1,0.5-1.1,1.1v2.5h-2.5c-0.6,0-1.1,0.5-1.1,1.1
		c0,0.6,0.5,1.1,1.1,1.1h2.5v2.5c0,0.6,0.5,1.1,1.1,1.1c0.6,0,1.1-0.5,1.1-1.1v-2.5h2.5c0.6,0,1.1-0.5,1.1-1.1
		c0-0.6-0.5-1.1-1.1-1.1h-2.5V343.9z"/>
	<path class="st3" d="M70.1,164.3c0-0.6-0.5-1.1-1.1-1.1c-0.6,0-1.1,0.5-1.1,1.1v2.5h-2.5c-0.6,0-1.1,0.5-1.1,1.1
		c0,0.6,0.5,1.1,1.1,1.1h2.5v2.5c0,0.6,0.5,1.1,1.1,1.1c0.6,0,1.1-0.5,1.1-1.1V169h2.5c0.6,0,1.1-0.5,1.1-1.1c0-0.6-0.5-1.1-1.1-1.1
		h-2.5V164.3z"/>
	<g>
		<path class="st2" d="M458.3,387.6H352.6c-2.1,0-3.9-1.7-3.9-3.9V275.3c0-2.1,1.7-3.9,3.9-3.9h105.8c2.1,0,3.9,1.7,3.9,3.9v108.4
			C462.2,385.8,460.5,387.6,458.3,387.6z"/>
		<path class="st21" d="M480.2,387.6h-38.3c-2.1,0-3.9-1.7-3.9-3.9V275.3c0-2.1,1.7-3.9,3.9-3.9h38.3c2.1,0,3.9,1.7,3.9,3.9v108.4
			C484.1,385.8,482.3,387.6,480.2,387.6z"/>
		<path class="st32" d="M474.8,280.9h-27.5c-1.2,0-2.1,0.9-2.1,2.1v1.9c0,1.2,1,2.1,2.1,2.1h27.5c1.2,0,2.1-1,2.1-2.1V283
			C476.9,281.8,476,280.9,474.8,280.9z"/>
		<path class="st33" d="M474.2,283c0-1.2-1-2.1-2.1-2.1h2.7c1.2,0,2.1,0.9,2.1,2.1v1.9c0,1.2-0.9,2.1-2.1,2.1h-2.7
			c0.1,0,2.1-1,2.1-2.1V283z"/>
		<path class="st32" d="M474.8,290.3h-27.5c-1.2,0-2.1,1-2.1,2.1v1.9c0,1.2,1,2.1,2.1,2.1h27.5c1.2,0,2.1-0.9,2.1-2.1v-1.9
			C476.9,291.2,476,290.3,474.8,290.3z"/>
		<path class="st33" d="M474.2,292.4c0-1.2-1-2.1-2.1-2.1h2.7c1.2,0,2.1,1,2.1,2.1v1.9c0,1.2-0.9,2.1-2.1,2.1h-2.7
			c0.1,0,2.1-0.9,2.1-2.1V292.4z"/>
		<path class="st32" d="M474.8,299.7h-27.5c-1.2,0-2.1,0.9-2.1,2.1v1.9c0,1.2,1,2.1,2.1,2.1h27.5c1.2,0,2.1-1,2.1-2.1v-1.9
			C476.9,300.7,476,299.7,474.8,299.7z"/>
		<path class="st33" d="M474.2,301.8c0-1.2-1-2.1-2.1-2.1h2.7c1.2,0,2.1,0.9,2.1,2.1v1.9c0,1.2-0.9,2.1-2.1,2.1h-2.7
			c0.1,0,2.1-1,2.1-2.1V301.8z"/>
		<path class="st32" d="M474.8,309.1h-27.5c-1.2,0-2.1,1-2.1,2.1v1.9c0,1.2,1,2.1,2.1,2.1h27.5c1.2,0,2.1-0.9,2.1-2.1v-1.9
			C476.9,310.1,476,309.1,474.8,309.1z"/>
		<path class="st33" d="M474.2,311.3c0-1.2-1-2.1-2.1-2.1h2.7c1.2,0,2.1,1,2.1,2.1v1.9c0,1.2-0.9,2.1-2.1,2.1h-2.7
			c0.1,0,2.1-0.9,2.1-2.1V311.3z"/>
		<path class="st32" d="M469.1,337.4h-16c-4.7,0-8.6,3.9-8.6,8.6v16.2c0,4.7,3.9,8.6,8.6,8.6h16c4.7,0,8.6-3.9,8.6-8.6V346
			C477.7,341.3,473.8,337.4,469.1,337.4z"/>
		<path class="st33" d="M474.5,346c0-4.7-3.9-8.6-8.6-8.6h3.2c4.7,0,8.6,3.9,8.6,8.6v16.2c0,4.7-3.9,8.6-8.6,8.6h-3.2
			c4.7,0,8.6-3.9,8.6-8.6V346z"/>
		<path class="st34" d="M462,337.4h-1.9v9.7c-3.1,0.4-5.6,2.9-6,6h-9.7v1.9h9.7c0.4,3.1,2.9,5.6,6,6v9.7h1.9v-9.7
			c3.1-0.4,5.6-2.9,6-6h9.7v-1.9h-9.7c-0.4-3.1-2.9-5.6-6-6V337.4L462,337.4z M461.1,359.2c-2.8,0-5.2-2.3-5.2-5.2
			c0-2.9,2.3-5.2,5.2-5.2c2.8,0,5.2,2.3,5.2,5.2C466.2,356.9,463.9,359.2,461.1,359.2z"/>
		<g>
			<path class="st32" d="M456.9,328.4h-10.3c-1.2,0-2.1,1-2.1,2.1v1.9c0,1.2,1,2.1,2.1,2.1h10.3c1.2,0,2.1-0.9,2.1-2.1v-1.9
				C459,329.3,458,328.4,456.9,328.4z"/>
			<path class="st33" d="M456.3,330.5c0-1.2-1-2.1-2.1-2.1h2.7c1.2,0,2.1,1,2.1,2.1v1.9c0,1.2-1,2.1-2.1,2.1h-2.7
				c0.1,0,2.1-0.9,2.1-2.1V330.5z"/>
		</g>
		<g>
			<path class="st32" d="M456.9,319.2h-10.3c-1.2,0-2.1,1-2.1,2.1v1.9c0,1.2,1,2.1,2.1,2.1h10.3c1.2,0,2.1-0.9,2.1-2.1v-1.9
				C459,320.2,458,319.2,456.9,319.2z"/>
			<path class="st33" d="M456.3,321.3c0-1.2-1-2.1-2.1-2.1h2.7c1.2,0,2.1,1,2.1,2.1v1.9c0,1.2-1,2.1-2.1,2.1h-2.7
				c0.1,0,2.1-0.9,2.1-2.1V321.3z"/>
		</g>
		<path class="st21" d="M397.9,283.2h-25.7c-7.6,0-13.8,6.2-13.8,13.8v26c0,7.6,6.2,13.8,13.8,13.8h25.7c7.6,0,13.8-6.2,13.8-13.8
			v-26C411.7,289.5,405.5,283.2,397.9,283.2z"/>
		<path class="st20" d="M397,285h-23.9c-7.1,0-12.9,5.8-12.9,12.9v24.2c0,7.1,5.8,12.9,12.9,12.9H397c7.1,0,12.9-5.8,12.9-12.9
			v-24.2C409.9,290.8,404.1,285,397,285z"/>
		<path class="st35" d="M364.3,331.6c2.3,2.1,5.4,3.5,8.8,3.5H397c7.1,0,12.9-5.8,12.9-12.9V303h-11.1v-13.6h-26.4v28.8h-8.1V331.6z
			"/>
		<path class="st21" d="M422.5,346.4h-1.6c0.2,0.5,0.7,0.8,1.3,0.8c0.5,0,1-0.3,1.3-0.8C423.1,346.5,422.8,346.4,422.5,346.4
			L422.5,346.4z M419.7,346.4h-2.6c0.2,0.5,0.7,0.8,1.3,0.8C419,347.2,419.5,346.9,419.7,346.4L419.7,346.4z M416,346.4h-2.6
			c0.2,0.5,0.7,0.8,1.3,0.8C415.3,347.2,415.8,346.9,416,346.4L416,346.4z M412.3,346.4h-2.6c0.2,0.5,0.7,0.8,1.3,0.8
			C411.5,347.2,412,346.9,412.3,346.4L412.3,346.4z M408.5,346.4h-1.6c-0.3,0-0.7,0-1,0.1c0.2,0.5,0.7,0.8,1.3,0.8
			C407.8,347.2,408.3,346.9,408.5,346.4L408.5,346.4z M404.5,346.8c-0.4,0.1-0.8,0.3-1.2,0.5c0,0,0.1,0,0.1,0
			C403.9,347.2,404.2,347.1,404.5,346.8L404.5,346.8z M401,348.9c-0.6,0.6-1.1,1.3-1.5,2.1c0.1,0,0.1,0,0.2,0c0.8,0,1.4-0.6,1.4-1.4
			C401.1,349.3,401.1,349.1,401,348.9L401,348.9z M399,352.1c-0.2,0.7-0.4,1.4-0.4,2.1c0.3,0.3,0.7,0.6,1.1,0.6
			c0.8,0,1.4-0.6,1.4-1.4c0-0.8-0.6-1.4-1.4-1.4C399.5,351.9,399.2,351.9,399,352.1L399,352.1z M398.5,356.2v1.7
			c0.3,0.4,0.7,0.6,1.2,0.6c0.8,0,1.4-0.6,1.4-1.4c0-0.8-0.6-1.4-1.4-1.4C399.2,355.6,398.8,355.9,398.5,356.2L398.5,356.2z
			 M398.5,360v1.7c0.3,0.4,0.7,0.6,1.2,0.6c0.8,0,1.4-0.6,1.4-1.4c0-0.8-0.6-1.4-1.4-1.4C399.2,359.4,398.8,359.6,398.5,360
			L398.5,360z M398.5,363.7v1.7c0.3,0.4,0.7,0.6,1.2,0.6c0.8,0,1.4-0.6,1.4-1.4s-0.6-1.4-1.4-1.4
			C399.2,363.1,398.8,363.4,398.5,363.7L398.5,363.7z M398.5,367.5v1.7c0.3,0.4,0.7,0.6,1.2,0.6c0.8,0,1.4-0.6,1.4-1.4
			c0-0.8-0.6-1.4-1.4-1.4C399.2,366.9,398.8,367.1,398.5,367.5L398.5,367.5z M398.6,371.2c0.1,0.7,0.2,1.5,0.4,2.1
			c0.2,0.1,0.4,0.2,0.7,0.2c0.8,0,1.4-0.6,1.4-1.4c0-0.8-0.6-1.4-1.4-1.4C399.2,370.6,398.8,370.8,398.6,371.2L398.6,371.2z
			 M399.5,374.4c0.4,0.8,0.9,1.5,1.5,2.1c0.1-0.2,0.2-0.4,0.2-0.6c0-0.8-0.6-1.4-1.4-1.4C399.6,374.4,399.6,374.4,399.5,374.4
			L399.5,374.4z M403.3,378.1c0.4,0.2,0.8,0.3,1.2,0.4c-0.3-0.3-0.6-0.5-1-0.5C403.4,378.1,403.4,378.1,403.3,378.1L403.3,378.1z
			 M405.9,378.9c0.3,0,0.6,0.1,1,0.1h1.6c-0.2-0.5-0.7-0.8-1.3-0.8C406.7,378.1,406.2,378.4,405.9,378.9L405.9,378.9z M409.7,378.9
			h2.6c-0.2-0.5-0.7-0.8-1.3-0.8C410.4,378.1,409.9,378.4,409.7,378.9L409.7,378.9z M413.4,378.9h2.6c-0.2-0.5-0.7-0.8-1.3-0.8
			C414.1,378.1,413.6,378.4,413.4,378.9L413.4,378.9z M417.2,378.9h2.6c-0.2-0.5-0.7-0.8-1.3-0.8
			C417.9,378.1,417.4,378.4,417.2,378.9L417.2,378.9z M420.9,378.9h1.6c0.3,0,0.7,0,1-0.1c-0.2-0.4-0.7-0.8-1.3-0.8
			C421.6,378.1,421.1,378.4,420.9,378.9L420.9,378.9z M424.9,378.6c0.4-0.1,0.8-0.3,1.2-0.4c0,0-0.1,0-0.1,0
			C425.5,378.1,425.2,378.3,424.9,378.6L424.9,378.6z M428.4,376.4c0.6-0.6,1.1-1.3,1.5-2.1c-0.1,0-0.2,0-0.2,0
			c-0.8,0-1.4,0.6-1.4,1.4C428.3,376,428.3,376.3,428.4,376.4L428.4,376.4z M430.4,373.3c0.2-0.7,0.4-1.4,0.4-2.1
			c-0.3-0.3-0.7-0.6-1.1-0.6c-0.8,0-1.4,0.6-1.4,1.4c0,0.8,0.6,1.4,1.4,1.4C430,373.5,430.2,373.4,430.4,373.3L430.4,373.3z
			 M430.9,369.2v-1.7c-0.3-0.4-0.7-0.6-1.2-0.6c-0.8,0-1.4,0.6-1.4,1.4c0,0.8,0.6,1.4,1.4,1.4C430.2,369.7,430.6,369.5,430.9,369.2
			L430.9,369.2z M430.9,365.4v-1.7c-0.3-0.4-0.7-0.6-1.2-0.6c-0.8,0-1.4,0.6-1.4,1.4s0.6,1.4,1.4,1.4
			C430.2,366,430.6,365.8,430.9,365.4L430.9,365.4z M430.9,361.7V360c-0.3-0.4-0.7-0.6-1.2-0.6c-0.8,0-1.4,0.6-1.4,1.4
			c0,0.8,0.6,1.4,1.4,1.4C430.2,362.2,430.6,362,430.9,361.7L430.9,361.7z M430.9,357.9v-1.7c-0.3-0.4-0.7-0.6-1.2-0.6
			c-0.8,0-1.4,0.6-1.4,1.4c0,0.8,0.6,1.4,1.4,1.4C430.2,358.5,430.6,358.3,430.9,357.9L430.9,357.9z M430.8,354.2
			c-0.1-0.7-0.2-1.5-0.4-2.1c-0.2-0.1-0.4-0.2-0.7-0.2c-0.8,0-1.4,0.6-1.4,1.4c0,0.8,0.6,1.4,1.4,1.4
			C430.2,354.7,430.6,354.5,430.8,354.2L430.8,354.2z M429.9,351c-0.4-0.8-0.9-1.5-1.5-2.1c-0.1,0.2-0.2,0.4-0.2,0.6
			c0,0.8,0.6,1.4,1.4,1.4C429.8,351,429.9,351,429.9,351L429.9,351z M426.1,347.2c-0.4-0.2-0.8-0.3-1.2-0.5c0.3,0.3,0.6,0.5,1,0.5
			C426,347.2,426,347.2,426.1,347.2L426.1,347.2z M403.5,377.2c-0.8,0-1.4-0.6-1.4-1.4c0-0.8,0.6-1.4,1.4-1.4c0.8,0,1.4,0.6,1.4,1.4
			C404.9,376.6,404.3,377.2,403.5,377.2L403.5,377.2z M407.2,377.2c-0.8,0-1.4-0.6-1.4-1.4c0-0.8,0.6-1.4,1.4-1.4
			c0.8,0,1.4,0.6,1.4,1.4C408.6,376.6,408,377.2,407.2,377.2L407.2,377.2z M411,377.2c-0.8,0-1.4-0.6-1.4-1.4c0-0.8,0.6-1.4,1.4-1.4
			c0.8,0,1.4,0.6,1.4,1.4C412.4,376.6,411.7,377.2,411,377.2L411,377.2z M414.7,377.2c-0.8,0-1.4-0.6-1.4-1.4c0-0.8,0.6-1.4,1.4-1.4
			c0.8,0,1.4,0.6,1.4,1.4C416.1,376.6,415.5,377.2,414.7,377.2L414.7,377.2z M418.5,377.2c-0.8,0-1.4-0.6-1.4-1.4
			c0-0.8,0.6-1.4,1.4-1.4s1.4,0.6,1.4,1.4C419.9,376.6,419.2,377.2,418.5,377.2L418.5,377.2z M422.2,377.2c-0.8,0-1.4-0.6-1.4-1.4
			c0-0.8,0.6-1.4,1.4-1.4c0.8,0,1.4,0.6,1.4,1.4C423.6,376.6,423,377.2,422.2,377.2L422.2,377.2z M426,377.2c-0.8,0-1.4-0.6-1.4-1.4
			c0-0.8,0.6-1.4,1.4-1.4c0.8,0,1.4,0.6,1.4,1.4C427.4,376.6,426.7,377.2,426,377.2L426,377.2z M403.5,370.6c-0.8,0-1.4,0.6-1.4,1.4
			c0,0.8,0.6,1.4,1.4,1.4c0.8,0,1.4-0.6,1.4-1.4C404.9,371.3,404.3,370.6,403.5,370.6L403.5,370.6z M407.2,370.6
			c-0.8,0-1.4,0.6-1.4,1.4c0,0.8,0.6,1.4,1.4,1.4c0.8,0,1.4-0.6,1.4-1.4C408.6,371.3,408,370.6,407.2,370.6L407.2,370.6z M411,370.6
			c-0.8,0-1.4,0.6-1.4,1.4c0,0.8,0.6,1.4,1.4,1.4c0.8,0,1.4-0.6,1.4-1.4C412.4,371.3,411.7,370.6,411,370.6L411,370.6z M414.7,370.6
			c-0.8,0-1.4,0.6-1.4,1.4c0,0.8,0.6,1.4,1.4,1.4c0.8,0,1.4-0.6,1.4-1.4C416.1,371.3,415.5,370.6,414.7,370.6L414.7,370.6z
			 M418.5,370.6c-0.8,0-1.4,0.6-1.4,1.4c0,0.8,0.6,1.4,1.4,1.4s1.4-0.6,1.4-1.4C419.9,371.3,419.2,370.6,418.5,370.6L418.5,370.6z
			 M422.2,370.6c-0.8,0-1.4,0.6-1.4,1.4c0,0.8,0.6,1.4,1.4,1.4c0.8,0,1.4-0.6,1.4-1.4C423.6,371.3,423,370.6,422.2,370.6
			L422.2,370.6z M426,370.6c-0.8,0-1.4,0.6-1.4,1.4c0,0.8,0.6,1.4,1.4,1.4c0.8,0,1.4-0.6,1.4-1.4C427.4,371.3,426.7,370.6,426,370.6
			L426,370.6z M403.5,369.7c-0.8,0-1.4-0.6-1.4-1.4c0-0.8,0.6-1.4,1.4-1.4c0.8,0,1.4,0.6,1.4,1.4
			C404.9,369.1,404.3,369.7,403.5,369.7L403.5,369.7z M407.2,369.7c-0.8,0-1.4-0.6-1.4-1.4c0-0.8,0.6-1.4,1.4-1.4
			c0.8,0,1.4,0.6,1.4,1.4C408.6,369.1,408,369.7,407.2,369.7L407.2,369.7z M411,369.7c-0.8,0-1.4-0.6-1.4-1.4c0-0.8,0.6-1.4,1.4-1.4
			c0.8,0,1.4,0.6,1.4,1.4C412.4,369.1,411.7,369.7,411,369.7L411,369.7z M414.7,369.7c-0.8,0-1.4-0.6-1.4-1.4c0-0.8,0.6-1.4,1.4-1.4
			c0.8,0,1.4,0.6,1.4,1.4C416.1,369.1,415.5,369.7,414.7,369.7L414.7,369.7z M418.5,369.7c-0.8,0-1.4-0.6-1.4-1.4
			c0-0.8,0.6-1.4,1.4-1.4s1.4,0.6,1.4,1.4C419.9,369.1,419.2,369.7,418.5,369.7L418.5,369.7z M422.2,369.7c-0.8,0-1.4-0.6-1.4-1.4
			c0-0.8,0.6-1.4,1.4-1.4c0.8,0,1.4,0.6,1.4,1.4C423.6,369.1,423,369.7,422.2,369.7L422.2,369.7z M426,369.7c-0.8,0-1.4-0.6-1.4-1.4
			c0-0.8,0.6-1.4,1.4-1.4c0.8,0,1.4,0.6,1.4,1.4C427.4,369.1,426.7,369.7,426,369.7L426,369.7z M403.5,363.1c-0.8,0-1.4,0.6-1.4,1.4
			s0.6,1.4,1.4,1.4c0.8,0,1.4-0.6,1.4-1.4S404.3,363.1,403.5,363.1L403.5,363.1z M407.2,363.1c-0.8,0-1.4,0.6-1.4,1.4
			s0.6,1.4,1.4,1.4c0.8,0,1.4-0.6,1.4-1.4S408,363.1,407.2,363.1L407.2,363.1z M411,363.1c-0.8,0-1.4,0.6-1.4,1.4s0.6,1.4,1.4,1.4
			c0.8,0,1.4-0.6,1.4-1.4S411.7,363.1,411,363.1L411,363.1z M414.7,363.1c-0.8,0-1.4,0.6-1.4,1.4s0.6,1.4,1.4,1.4
			c0.8,0,1.4-0.6,1.4-1.4S415.5,363.1,414.7,363.1L414.7,363.1z M418.5,363.1c-0.8,0-1.4,0.6-1.4,1.4s0.6,1.4,1.4,1.4
			s1.4-0.6,1.4-1.4S419.2,363.1,418.5,363.1L418.5,363.1z M422.2,363.1c-0.8,0-1.4,0.6-1.4,1.4s0.6,1.4,1.4,1.4
			c0.8,0,1.4-0.6,1.4-1.4S423,363.1,422.2,363.1L422.2,363.1z M426,363.1c-0.8,0-1.4,0.6-1.4,1.4s0.6,1.4,1.4,1.4
			c0.8,0,1.4-0.6,1.4-1.4S426.7,363.1,426,363.1L426,363.1z M403.5,362.2c-0.8,0-1.4-0.6-1.4-1.4c0-0.8,0.6-1.4,1.4-1.4
			c0.8,0,1.4,0.6,1.4,1.4C404.9,361.6,404.3,362.2,403.5,362.2L403.5,362.2z M407.2,362.2c-0.8,0-1.4-0.6-1.4-1.4
			c0-0.8,0.6-1.4,1.4-1.4c0.8,0,1.4,0.6,1.4,1.4C408.6,361.6,408,362.2,407.2,362.2L407.2,362.2z M411,362.2c-0.8,0-1.4-0.6-1.4-1.4
			c0-0.8,0.6-1.4,1.4-1.4c0.8,0,1.4,0.6,1.4,1.4C412.4,361.6,411.7,362.2,411,362.2L411,362.2z M414.7,362.2c-0.8,0-1.4-0.6-1.4-1.4
			c0-0.8,0.6-1.4,1.4-1.4c0.8,0,1.4,0.6,1.4,1.4C416.1,361.6,415.5,362.2,414.7,362.2L414.7,362.2z M418.5,362.2
			c-0.8,0-1.4-0.6-1.4-1.4c0-0.8,0.6-1.4,1.4-1.4s1.4,0.6,1.4,1.4C419.9,361.6,419.2,362.2,418.5,362.2L418.5,362.2z M422.2,362.2
			c-0.8,0-1.4-0.6-1.4-1.4c0-0.8,0.6-1.4,1.4-1.4c0.8,0,1.4,0.6,1.4,1.4C423.6,361.6,423,362.2,422.2,362.2L422.2,362.2z M426,362.2
			c-0.8,0-1.4-0.6-1.4-1.4c0-0.8,0.6-1.4,1.4-1.4c0.8,0,1.4,0.6,1.4,1.4C427.4,361.6,426.7,362.2,426,362.2L426,362.2z M403.5,355.6
			c-0.8,0-1.4,0.6-1.4,1.4c0,0.8,0.6,1.4,1.4,1.4c0.8,0,1.4-0.6,1.4-1.4C404.9,356.3,404.3,355.6,403.5,355.6L403.5,355.6z
			 M407.2,355.6c-0.8,0-1.4,0.6-1.4,1.4c0,0.8,0.6,1.4,1.4,1.4c0.8,0,1.4-0.6,1.4-1.4C408.6,356.3,408,355.6,407.2,355.6
			L407.2,355.6z M411,355.6c-0.8,0-1.4,0.6-1.4,1.4c0,0.8,0.6,1.4,1.4,1.4c0.8,0,1.4-0.6,1.4-1.4C412.4,356.3,411.7,355.6,411,355.6
			L411,355.6z M414.7,355.6c-0.8,0-1.4,0.6-1.4,1.4c0,0.8,0.6,1.4,1.4,1.4c0.8,0,1.4-0.6,1.4-1.4
			C416.1,356.3,415.5,355.6,414.7,355.6L414.7,355.6z M418.5,355.6c-0.8,0-1.4,0.6-1.4,1.4c0,0.8,0.6,1.4,1.4,1.4s1.4-0.6,1.4-1.4
			C419.9,356.3,419.2,355.6,418.5,355.6L418.5,355.6z M422.2,355.6c-0.8,0-1.4,0.6-1.4,1.4c0,0.8,0.6,1.4,1.4,1.4
			c0.8,0,1.4-0.6,1.4-1.4C423.6,356.3,423,355.6,422.2,355.6L422.2,355.6z M426,355.6c-0.8,0-1.4,0.6-1.4,1.4c0,0.8,0.6,1.4,1.4,1.4
			c0.8,0,1.4-0.6,1.4-1.4C427.4,356.3,426.7,355.6,426,355.6L426,355.6z M403.5,354.7c-0.8,0-1.4-0.6-1.4-1.4c0-0.8,0.6-1.4,1.4-1.4
			c0.8,0,1.4,0.6,1.4,1.4C404.9,354.1,404.3,354.7,403.5,354.7L403.5,354.7z M407.2,354.7c-0.8,0-1.4-0.6-1.4-1.4
			c0-0.8,0.6-1.4,1.4-1.4c0.8,0,1.4,0.6,1.4,1.4C408.6,354.1,408,354.7,407.2,354.7L407.2,354.7z M411,354.7c-0.8,0-1.4-0.6-1.4-1.4
			c0-0.8,0.6-1.4,1.4-1.4c0.8,0,1.4,0.6,1.4,1.4C412.4,354.1,411.7,354.7,411,354.7L411,354.7z M414.7,354.7c-0.8,0-1.4-0.6-1.4-1.4
			c0-0.8,0.6-1.4,1.4-1.4c0.8,0,1.4,0.6,1.4,1.4C416.1,354.1,415.5,354.7,414.7,354.7L414.7,354.7z M418.5,354.7
			c-0.8,0-1.4-0.6-1.4-1.4c0-0.8,0.6-1.4,1.4-1.4s1.4,0.6,1.4,1.4C419.9,354.1,419.2,354.7,418.5,354.7L418.5,354.7z M422.2,354.7
			c-0.8,0-1.4-0.6-1.4-1.4c0-0.8,0.6-1.4,1.4-1.4c0.8,0,1.4,0.6,1.4,1.4C423.6,354.1,423,354.7,422.2,354.7L422.2,354.7z M426,354.7
			c-0.8,0-1.4-0.6-1.4-1.4c0-0.8,0.6-1.4,1.4-1.4c0.8,0,1.4,0.6,1.4,1.4C427.4,354.1,426.7,354.7,426,354.7L426,354.7z M403.5,348.1
			c-0.8,0-1.4,0.6-1.4,1.4c0,0.8,0.6,1.4,1.4,1.4c0.8,0,1.4-0.6,1.4-1.4C404.9,348.8,404.3,348.1,403.5,348.1L403.5,348.1z
			 M407.2,348.1c-0.8,0-1.4,0.6-1.4,1.4c0,0.8,0.6,1.4,1.4,1.4c0.8,0,1.4-0.6,1.4-1.4C408.6,348.8,408,348.1,407.2,348.1
			L407.2,348.1z M411,348.1c-0.8,0-1.4,0.6-1.4,1.4c0,0.8,0.6,1.4,1.4,1.4c0.8,0,1.4-0.6,1.4-1.4C412.4,348.8,411.7,348.1,411,348.1
			L411,348.1z M414.7,348.1c-0.8,0-1.4,0.6-1.4,1.4c0,0.8,0.6,1.4,1.4,1.4c0.8,0,1.4-0.6,1.4-1.4
			C416.1,348.8,415.5,348.1,414.7,348.1L414.7,348.1z M418.5,348.1c-0.8,0-1.4,0.6-1.4,1.4c0,0.8,0.6,1.4,1.4,1.4s1.4-0.6,1.4-1.4
			C419.9,348.8,419.2,348.1,418.5,348.1L418.5,348.1z M422.2,348.1c-0.8,0-1.4,0.6-1.4,1.4c0,0.8,0.6,1.4,1.4,1.4
			c0.8,0,1.4-0.6,1.4-1.4C423.6,348.8,423,348.1,422.2,348.1L422.2,348.1z M426,348.1c-0.8,0-1.4,0.6-1.4,1.4c0,0.8,0.6,1.4,1.4,1.4
			c0.8,0,1.4-0.6,1.4-1.4C427.4,348.8,426.7,348.1,426,348.1z"/>
		<g>
			<path class="st21" d="M390.1,376.9h-34.5c-0.6,0-1,0.5-1,1l0,0c0,0.6,0.5,1,1,1h34.5c0.6,0,1-0.5,1-1l0,0
				C391.1,377.3,390.6,376.9,390.1,376.9z"/>
			<path class="st21" d="M390.1,372.5h-34.5c-0.6,0-1,0.5-1,1l0,0c0,0.6,0.5,1,1,1h34.5c0.6,0,1-0.5,1-1l0,0
				C391.1,373,390.6,372.5,390.1,372.5z"/>
			<path class="st21" d="M390.1,368.2h-34.5c-0.6,0-1,0.5-1,1l0,0c0,0.6,0.5,1,1,1h34.5c0.6,0,1-0.5,1-1l0,0
				C391.1,368.6,390.6,368.2,390.1,368.2z"/>
			<path class="st21" d="M390.1,363.8h-28.7c-0.6,0-1,0.5-1,1l0,0c0,0.6,0.5,1,1,1h28.7c0.6,0,1-0.5,1-1l0,0
				C391.1,364.3,390.6,363.8,390.1,363.8z"/>
			<path class="st21" d="M390.1,359.5h-34.5c-0.6,0-1,0.5-1,1l0,0c0,0.6,0.5,1,1,1h34.5c0.6,0,1-0.5,1-1l0,0
				C391.1,359.9,390.6,359.5,390.1,359.5z"/>
			<path class="st21" d="M390.1,355.1h-34.5c-0.6,0-1,0.5-1,1l0,0c0,0.6,0.5,1,1,1h34.5c0.6,0,1-0.5,1-1l0,0
				C391.1,355.6,390.6,355.1,390.1,355.1z"/>
			<path class="st21" d="M383.7,350.8h-28.1c-0.6,0-1,0.5-1,1l0,0c0,0.6,0.5,1,1,1h28.1c0.6,0,1-0.5,1-1l0,0
				C384.7,351.2,384.2,350.8,383.7,350.8z"/>
			<path class="st21" d="M390.1,346.4h-34.5c-0.6,0-1,0.5-1,1l0,0c0,0.6,0.5,1,1,1h34.5c0.6,0,1-0.5,1-1l0,0
				C391.1,346.9,390.6,346.4,390.1,346.4z"/>
			<path class="st21" d="M357.1,363.8h-1.5c-0.6,0-1,0.5-1,1l0,0c0,0.6,0.5,1,1,1h1.5c0.6,0,1-0.5,1-1l0,0
				C358.1,364.3,357.6,363.8,357.1,363.8z"/>
			<path class="st21" d="M390.1,350.8h-2.5c-0.6,0-1,0.5-1,1l0,0c0,0.6,0.5,1,1,1h2.5c0.6,0,1-0.5,1-1l0,0
				C391.1,351.2,390.6,350.8,390.1,350.8z"/>
		</g>
		<path class="st36" d="M377.6,285h-4.5c-3.8,0-7.3,1.7-9.6,4.3l42.3,42.3c2.6-2.4,4.2-5.7,4.2-9.5v-4.8L377.6,285L377.6,285z
			 M361.1,293.1L402,334c-1.5,0.7-3.2,1-5,1h-1.4l-35.5-35.5v-1.6C360.2,296.2,360.5,294.6,361.1,293.1z"/>
	</g>
</g>
</svg>
