<?xml version="1.0" encoding="utf-8"?>
<!-- Generator: Adobe Illustrator 23.0.0, SVG Export Plug-In . SVG Version: 6.00 Build 0)  -->
<svg version="1.1" id="Layer_1" xmlns="http://www.w3.org/2000/svg" xmlns:xlink="http://www.w3.org/1999/xlink" x="0px" y="0px"
	 width="300px" height="300px" viewBox="0 0 300 300" style="enable-background:new 0 0 300 300;" xml:space="preserve">
<style type="text/css">
	.st0{fill:#0B0C0C;}
	.st1{fill:#FFFFFF;}
	.st2{fill-rule:evenodd;clip-rule:evenodd;}
	.st3{fill:#020202;}
	.st4{fill:#0B0C0C;stroke:#000000;stroke-miterlimit:10;}
</style>
<g>
	<path class="st0" d="M153.3,33.6C148.1,58.3,145,84,140.9,109c-34.5-5.7-68.9-11.5-103.4-17.3c4.4-26,8.8-52.1,13.2-78.1
		C85.5,19.6,119,25,153.3,33.6z"/>
</g>
<g>
	<g>
		<g>
			<g>
				<path class="st1" d="M77.2,76.7c-0.2,1.1-0.4,2.3-0.6,3.4c-0.3,1.7-0.6,3.3-0.8,5c0,0.2-0.1,0.4-0.1,0.6c0,0.2-0.1,0.3-0.2,0.4
					c-0.1,0.1-0.3,0-0.4,0c-0.2,0-0.4-0.1-0.6-0.1c-1.7-0.3-3.4-0.6-5-0.8c-0.8-0.1-1.6-0.3-2.3-0.4c-0.3-0.1-0.7-0.1-1-0.2
					c-0.4-0.1-0.2-0.7-0.2-1c0.1-0.7,0.2-1.4,0.4-2.1c0.3-1.7,0.6-3.5,0.9-5.2c0.1-0.4,0.1-0.8,0.2-1.2c0.1-0.5,0.5-0.3,0.9-0.3
					c1.6,0.3,3.1,0.5,4.7,0.8c1.3,0.2,2.6,0.4,3.9,0.7C77,76.3,77.2,76.4,77.2,76.7c-0.1,0.6,0.8,0.7,0.9,0.1c0.1-0.7-0.3-1.3-1-1.4
					c-0.1,0-0.2,0-0.4-0.1c-0.7-0.1-1.4-0.2-2-0.3c-1.8-0.3-3.6-0.6-5.4-0.9c-0.4-0.1-0.9-0.2-1.3-0.2c-0.6-0.1-1.2,0.2-1.4,0.8
					c-0.1,0.2-0.1,0.3-0.1,0.5c-0.3,1.5-0.5,3.1-0.8,4.6c-0.2,1.4-0.5,2.8-0.7,4.2c-0.1,0.4,0,0.9,0.3,1.2c0.2,0.2,0.5,0.3,0.8,0.4
					c0.6,0.1,1.1,0.2,1.7,0.3c1.8,0.3,3.6,0.6,5.5,0.9c0.6,0.1,1.1,0.2,1.7,0.3c0.3,0,0.5,0.1,0.8,0c0.5-0.2,0.8-0.6,0.8-1
					c0.2-1.4,0.5-2.7,0.7-4.1c0.3-1.6,0.5-3.1,0.8-4.7c0-0.1,0-0.2,0-0.3C78.1,76.3,77.3,76.1,77.2,76.7z"/>
			</g>
			<g>
				<g>
					<path class="st1" d="M70.7,67.3c0-0.2,0.1-0.4,0.1-0.6c0.1-0.5,0.2-1,0.3-1.5c0.1-0.7,0.2-1.5,0.4-2.2c0.2-0.9,0.3-1.8,0.5-2.7
						c0.2-1,1.4-8.4,1.6-9.3c0.2-1,0.3-2,0.5-3c0.2-0.9,0.3-1.9,0.5-2.8c0.1-0.8,0.3-1.6,0.4-2.4c0.1-0.6,0.1-0.4,0.2-1
						c0-0.3,0.1-0.5,0.1-0.8c0,0,0,0,0,0c0-0.3-0.1-0.5-0.4-0.6c-0.3,0-0.5,0.1-0.6,0.4c0,0.2-0.1,0.4-0.1,0.6
						c-0.1,0.5,0,0.3-0.1,0.8c-0.1,0.7-0.2,1.5-0.4,2.2c-0.2,0.9-0.3,1.8-0.5,2.7c-0.2,1-0.3,2-0.5,3c-0.2,1-0.3,2-0.5,3
						c-0.2,0.9-1.4,8.2-1.5,9.2c-0.1,0.8-0.3,1.6-0.4,2.4c-0.1,0.6-0.2,1.1-0.3,1.7c0,0.3-0.1,0.5-0.1,0.8c0,0,0,0,0,0
						c0,0.3,0.1,0.5,0.4,0.6C70.4,67.7,70.7,67.6,70.7,67.3L70.7,67.3z"/>
				</g>
				<g>
					<path class="st1" d="M73.9,67.9c0-0.3,0.1-0.6,0.1-0.9c0.1-0.8,0.3-1.6,0.4-2.3c0.2-1.2,0.4-2.3,0.6-3.5
						c0.2-1.4,1.5-9.2,1.8-10.6c0.3-1.5,0.5-3.1,0.8-4.6c0.3-1.6,0.5-3.1,0.8-4.7c0.2-1.5,0.5-2.9,0.7-4.4c0.2-1.2,0.4-2.5,0.6-3.7
						c0.1-0.9,0.3-1.8,0.4-2.7c0.1-0.4,0.1-0.8,0.2-1.3c0,0,0,0,0-0.1c0-0.3-0.1-0.5-0.4-0.6c-0.3,0-0.5,0.1-0.6,0.4
						c0,0.3-0.1,0.6-0.1,0.9c-0.1,0.8-0.3,1.6-0.4,2.3c-0.2,1.2-0.4,2.3-0.6,3.5c-0.2,1.4-0.5,2.8-0.7,4.2c-0.3,1.5-0.5,3.1-0.8,4.6
						c-0.3,1.6-0.5,3.1-0.8,4.7c-0.2,1.5-0.5,2.9-0.7,4.4c-0.2,1.2-1.5,8.8-1.7,10.1c-0.1,0.9-0.3,1.8-0.4,2.7
						c-0.1,0.4-0.1,0.8-0.2,1.3c0,0,0,0,0,0.1c0,0.3,0.1,0.5,0.4,0.6C73.6,68.3,73.9,68.1,73.9,67.9L73.9,67.9z"/>
				</g>
				<g>
					<path class="st1" d="M77.1,68.4c0-0.2,0.1-0.5,0.1-0.7c0.1-0.7,0.2-1.3,0.3-2c0.2-1,0.3-1.9,0.5-2.9c0.2-1.2,1.5-8.7,1.7-9.9
						c0.2-1.3,0.4-2.6,0.6-3.9c0.2-1.3,0.4-2.6,0.7-3.9c0.2-1.2,0.4-2.4,0.6-3.6c0.2-1,0.3-2.1,0.5-3.1c0.1-0.7,0.2-1.5,0.4-2.2
						c0.1-0.3,0.1-0.7,0.2-1c0,0,0,0,0,0c0-0.3-0.1-0.5-0.4-0.6c-0.3,0-0.5,0.1-0.6,0.4c0,0.2-0.1,0.5-0.1,0.7
						c-0.1,0.7-0.2,1.3-0.3,2c-0.2,1-0.3,1.9-0.5,2.9c-0.2,1.2-0.4,2.4-0.6,3.5c-0.2,1.3-0.4,2.6-0.6,3.9c-0.2,1.3-0.4,2.6-0.7,3.9
						c-0.2,1.2-1.5,8.8-1.7,10c-0.2,1-0.3,2.1-0.5,3.1c-0.1,0.7-0.2,1.5-0.4,2.2c-0.1,0.3-0.1,0.7-0.2,1c0,0,0,0,0,0
						c0,0.3,0.1,0.5,0.4,0.6C76.8,68.8,77.1,68.7,77.1,68.4L77.1,68.4z"/>
				</g>
			</g>
		</g>
		<g>
			<path class="st1" d="M69.4,83.3c-0.9-2.5,1.3-3.1,2.2-3.4c-1.3-0.9-3.8-3.1-4.9-6.7c-0.4-1.3-0.3-2.5-0.3-2.5s0.7,2.8,2.9,5.1
				c1.5,1.7,4.6,3.4,5.1,4c0.3,0.3,0.3,1.4,0.3,1.4s-2.1,0.2-3.4,0.8C70,82.6,69.5,83.4,69.4,83.3C69.5,83.4,69.5,83.3,69.4,83.3z"
				/>
			<path class="st1" d="M66.7,69.8c0,0,0.7,2.8,2.9,5.1c1.5,1.7,4.6,3.4,5.1,4c0.3,0.3,0.3,1.4,0.3,1.4s0,0-0.1,0
				c0-0.3-0.1-0.7-0.2-0.9c-0.5-0.6-3.6-2.3-5.1-4c-1.7-1.8-2.5-3.9-2.8-4.8C66.6,70.2,66.7,69.8,66.7,69.8z"/>
		</g>
	</g>
	<g>
		<g>
			<g>
				<path class="st1" d="M100.7,80.6c-0.2,1.1-0.4,2.3-0.6,3.4c-0.3,1.7-0.6,3.3-0.8,5c0,0.2-0.1,0.4-0.1,0.6c0,0.2-0.1,0.3-0.2,0.4
					c-0.1,0.1-0.3,0-0.4,0c-0.2,0-0.4-0.1-0.6-0.1c-1.7-0.3-3.4-0.6-5-0.8c-0.8-0.1-1.6-0.3-2.3-0.4c-0.3-0.1-0.7-0.1-1-0.2
					c-0.4-0.1-0.2-0.7-0.2-1c0.1-0.7,0.2-1.4,0.4-2.1c0.3-1.7,0.6-3.5,0.9-5.2c0.1-0.4,0.1-0.8,0.2-1.2c0.1-0.5,0.5-0.3,0.9-0.3
					c1.6,0.3,3.1,0.5,4.7,0.8c1.3,0.2,2.6,0.4,3.9,0.7C100.5,80.2,100.7,80.4,100.7,80.6c-0.1,0.6,0.8,0.7,0.9,0.1
					c0.1-0.7-0.3-1.3-1-1.4c-0.1,0-0.2,0-0.4-0.1c-0.7-0.1-1.4-0.2-2-0.3c-1.8-0.3-3.6-0.6-5.4-0.9c-0.4-0.1-0.9-0.2-1.3-0.2
					c-0.6-0.1-1.2,0.2-1.4,0.8c-0.1,0.2-0.1,0.3-0.1,0.5c-0.3,1.5-0.5,3.1-0.8,4.6c-0.2,1.4-0.5,2.8-0.7,4.2c-0.1,0.4,0,0.9,0.3,1.2
					c0.2,0.2,0.5,0.3,0.8,0.4c0.6,0.1,1.1,0.2,1.7,0.3c1.8,0.3,3.6,0.6,5.5,0.9c0.6,0.1,1.1,0.2,1.7,0.3c0.3,0,0.5,0.1,0.8,0
					c0.5-0.2,0.8-0.6,0.8-1c0.2-1.4,0.5-2.7,0.7-4.1c0.3-1.6,0.5-3.1,0.8-4.7c0-0.1,0-0.2,0-0.3C101.6,80.2,100.8,80.1,100.7,80.6z"
					/>
			</g>
			<g>
				<g>
					<path class="st1" d="M94.2,71.3c0-0.2,0.1-0.4,0.1-0.6c0.1-0.5,0.2-1,0.3-1.5c0.1-0.7,0.2-1.5,0.4-2.2c0.2-0.9,0.3-1.8,0.5-2.7
						c0.2-1,1.4-8.4,1.6-9.3c0.2-1,0.3-2,0.5-3c0.2-0.9,0.3-1.9,0.5-2.8c0.1-0.8,0.3-1.6,0.4-2.4c0.1-0.6,0.1-0.4,0.2-1
						c0-0.3,0.1-0.5,0.1-0.8c0,0,0,0,0,0c0-0.3-0.1-0.5-0.4-0.6c-0.3,0-0.5,0.1-0.6,0.4c0,0.2-0.1,0.4-0.1,0.6
						c-0.1,0.5,0,0.3-0.1,0.8c-0.1,0.7-0.2,1.5-0.4,2.2c-0.2,0.9-0.3,1.8-0.5,2.7c-0.2,1-0.3,2-0.5,3c-0.2,1-0.3,2-0.5,3
						c-0.2,0.9-1.4,8.2-1.5,9.2c-0.1,0.8-0.3,1.6-0.4,2.4c-0.1,0.6-0.2,1.1-0.3,1.7c0,0.3-0.1,0.5-0.1,0.8c0,0,0,0,0,0
						c0,0.3,0.1,0.5,0.4,0.6C93.9,71.7,94.2,71.5,94.2,71.3L94.2,71.3z"/>
				</g>
				<g>
					<path class="st1" d="M97.4,71.8c0-0.3,0.1-0.6,0.1-0.9c0.1-0.8,0.3-1.6,0.4-2.3c0.2-1.2,0.4-2.3,0.6-3.5
						c0.2-1.4,1.5-9.2,1.8-10.6c0.3-1.5,0.5-3.1,0.8-4.6c0.3-1.6,0.5-3.1,0.8-4.7c0.2-1.5,0.5-2.9,0.7-4.4c0.2-1.2,0.4-2.5,0.6-3.7
						c0.1-0.9,0.3-1.8,0.4-2.7c0.1-0.4,0.1-0.8,0.2-1.3c0,0,0,0,0-0.1c0-0.3-0.1-0.5-0.4-0.6c-0.3,0-0.5,0.1-0.6,0.4
						c0,0.3-0.1,0.6-0.1,0.9c-0.1,0.8-0.3,1.6-0.4,2.3c-0.2,1.2-0.4,2.3-0.6,3.5c-0.2,1.4-0.5,2.8-0.7,4.2c-0.3,1.5-0.5,3.1-0.8,4.6
						c-0.3,1.6-0.5,3.1-0.8,4.7c-0.2,1.5-0.5,2.9-0.7,4.4c-0.2,1.2-1.5,8.8-1.7,10.1c-0.1,0.9-0.3,1.8-0.4,2.7
						c-0.1,0.4-0.1,0.8-0.2,1.3c0,0,0,0,0,0.1c0,0.3,0.1,0.5,0.4,0.6C97.1,72.2,97.4,72.1,97.4,71.8L97.4,71.8z"/>
				</g>
				<g>
					<path class="st1" d="M100.6,72.3c0-0.2,0.1-0.5,0.1-0.7c0.1-0.7,0.2-1.3,0.3-2c0.2-1,0.3-1.9,0.5-2.9c0.2-1.2,1.5-8.7,1.7-9.9
						c0.2-1.3,0.4-2.6,0.6-3.9c0.2-1.3,0.4-2.6,0.7-3.9c0.2-1.2,0.4-2.4,0.6-3.6c0.2-1,0.3-2.1,0.5-3.1c0.1-0.7,0.2-1.5,0.4-2.2
						c0.1-0.3,0.1-0.7,0.2-1c0,0,0,0,0,0c0-0.3-0.1-0.5-0.4-0.6c-0.3,0-0.5,0.1-0.6,0.4c0,0.2-0.1,0.5-0.1,0.7
						c-0.1,0.7-0.2,1.3-0.3,2c-0.2,1-0.3,1.9-0.5,2.9c-0.2,1.2-0.4,2.4-0.6,3.5c-0.2,1.3-0.4,2.6-0.6,3.9c-0.2,1.3-0.4,2.6-0.7,3.9
						c-0.2,1.2-1.5,8.8-1.7,10c-0.2,1-0.3,2.1-0.5,3.1c-0.1,0.7-0.2,1.5-0.4,2.2c-0.1,0.3-0.1,0.7-0.2,1c0,0,0,0,0,0
						c0,0.3,0.1,0.5,0.4,0.6C100.3,72.8,100.6,72.6,100.6,72.3L100.6,72.3z"/>
				</g>
			</g>
		</g>
		<g>
			<path class="st1" d="M92.9,87.3c-0.9-2.5,1.3-3.1,2.2-3.4c-1.3-0.9-3.8-3.1-4.9-6.7c-0.4-1.3-0.3-2.5-0.3-2.5s0.7,2.8,2.9,5.1
				c1.5,1.7,4.6,3.4,5.1,4c0.3,0.3,0.3,1.4,0.3,1.4s-2.1,0.2-3.4,0.8C93.5,86.5,93,87.3,92.9,87.3C93,87.3,93,87.3,92.9,87.3z"/>
			<path class="st1" d="M90.2,73.8c0,0,0.7,2.8,2.9,5.1c1.5,1.7,4.6,3.4,5.1,4c0.3,0.3,0.3,1.4,0.3,1.4s0,0-0.1,0
				c0-0.3-0.1-0.7-0.2-0.9c-0.5-0.6-3.6-2.3-5.1-4c-1.7-1.8-2.5-3.9-2.8-4.8C90.1,74.1,90.2,73.8,90.2,73.8z"/>
		</g>
	</g>
	<g>
		<g>
			<g>
				<path class="st1" d="M124.2,84.6c-0.2,1.1-0.4,2.3-0.6,3.4c-0.3,1.7-0.6,3.3-0.8,5c0,0.2-0.1,0.4-0.1,0.6c0,0.2-0.1,0.3-0.2,0.4
					c-0.1,0.1-0.3,0-0.4,0c-0.2,0-0.4-0.1-0.6-0.1c-1.7-0.3-3.4-0.6-5-0.8c-0.8-0.1-1.6-0.3-2.3-0.4c-0.3-0.1-0.7-0.1-1-0.2
					c-0.4-0.1-0.2-0.7-0.2-1c0.1-0.7,0.2-1.4,0.4-2.1c0.3-1.7,0.6-3.5,0.9-5.2c0.1-0.4,0.1-0.8,0.2-1.2c0.1-0.5,0.5-0.3,0.9-0.3
					c1.6,0.3,3.1,0.5,4.7,0.8c1.3,0.2,2.6,0.4,3.9,0.7C124,84.2,124.2,84.3,124.2,84.6c-0.1,0.6,0.8,0.7,0.9,0.1
					c0.1-0.7-0.3-1.3-1-1.4c-0.1,0-0.2,0-0.4-0.1c-0.7-0.1-1.4-0.2-2-0.3c-1.8-0.3-3.6-0.6-5.4-0.9c-0.4-0.1-0.9-0.2-1.3-0.2
					c-0.6-0.1-1.2,0.2-1.4,0.8c-0.1,0.2-0.1,0.3-0.1,0.5c-0.3,1.5-0.5,3.1-0.8,4.6c-0.2,1.4-0.5,2.8-0.7,4.2c-0.1,0.4,0,0.9,0.3,1.2
					c0.2,0.2,0.5,0.3,0.8,0.4c0.6,0.1,1.1,0.2,1.7,0.3c1.8,0.3,3.6,0.6,5.5,0.9c0.6,0.1,1.1,0.2,1.7,0.3c0.3,0,0.5,0.1,0.8,0
					c0.5-0.2,0.8-0.6,0.8-1c0.2-1.4,0.5-2.7,0.7-4.1c0.3-1.6,0.5-3.1,0.8-4.7c0-0.1,0-0.2,0-0.3C125.1,84.2,124.3,84,124.2,84.6z"/>
			</g>
			<g>
				<g>
					<path class="st1" d="M117.7,75.2c0-0.2,0.1-0.4,0.1-0.6c0.1-0.5,0.2-1,0.3-1.5c0.1-0.7,0.2-1.5,0.4-2.2
						c0.2-0.9,0.3-1.8,0.5-2.7c0.2-1,1.4-8.4,1.6-9.3c0.2-1,0.3-2,0.5-3c0.2-0.9,0.3-1.9,0.5-2.8c0.1-0.8,0.3-1.6,0.4-2.4
						c0.1-0.6,0.1-0.4,0.2-1c0-0.3,0.1-0.5,0.1-0.8c0,0,0,0,0,0c0-0.3-0.1-0.5-0.4-0.6c-0.3,0-0.5,0.1-0.6,0.4
						c0,0.2-0.1,0.4-0.1,0.6c-0.1,0.5,0,0.3-0.1,0.8c-0.1,0.7-0.2,1.5-0.4,2.2c-0.2,0.9-0.3,1.8-0.5,2.7c-0.2,1-0.3,2-0.5,3
						c-0.2,1-0.3,2-0.5,3c-0.2,0.9-1.4,8.2-1.5,9.2c-0.1,0.8-0.3,1.6-0.4,2.4c-0.1,0.6-0.2,1.1-0.3,1.7c0,0.3-0.1,0.5-0.1,0.8
						c0,0,0,0,0,0c0,0.3,0.1,0.5,0.4,0.6C117.4,75.6,117.7,75.5,117.7,75.2L117.7,75.2z"/>
				</g>
				<g>
					<path class="st1" d="M120.9,75.8c0-0.3,0.1-0.6,0.1-0.9c0.1-0.8,0.3-1.6,0.4-2.3c0.2-1.2,0.4-2.3,0.6-3.5
						c0.2-1.4,1.5-9.2,1.8-10.6c0.3-1.5,0.5-3.1,0.8-4.6c0.3-1.6,0.5-3.1,0.8-4.7c0.2-1.5,0.5-2.9,0.7-4.4c0.2-1.2,0.4-2.5,0.6-3.7
						c0.1-0.9,0.3-1.8,0.4-2.7c0.1-0.4,0.1-0.8,0.2-1.3c0,0,0,0,0-0.1c0-0.3-0.1-0.5-0.4-0.6c-0.3,0-0.5,0.1-0.6,0.4
						c0,0.3-0.1,0.6-0.1,0.9c-0.1,0.8-0.3,1.6-0.4,2.3c-0.2,1.2-0.4,2.3-0.6,3.5c-0.2,1.4-0.5,2.8-0.7,4.2c-0.3,1.5-0.5,3.1-0.8,4.6
						c-0.3,1.6-0.5,3.1-0.8,4.7c-0.2,1.5-0.5,2.9-0.7,4.4c-0.2,1.2-1.5,8.8-1.7,10.1c-0.1,0.9-0.3,1.8-0.4,2.7
						c-0.1,0.4-0.1,0.8-0.2,1.3c0,0,0,0,0,0.1c0,0.3,0.1,0.5,0.4,0.6C120.6,76.2,120.9,76,120.9,75.8L120.9,75.8z"/>
				</g>
				<g>
					<path class="st1" d="M124.1,76.3c0-0.2,0.1-0.5,0.1-0.7c0.1-0.7,0.2-1.3,0.3-2c0.2-1,0.3-1.9,0.5-2.9c0.2-1.2,1.5-8.7,1.7-9.9
						c0.2-1.3,0.4-2.6,0.6-3.9c0.2-1.3,0.4-2.6,0.7-3.9c0.2-1.2,0.4-2.4,0.6-3.6c0.2-1,0.3-2.1,0.5-3.1c0.1-0.7,0.2-1.5,0.4-2.2
						c0.1-0.3,0.1-0.7,0.2-1c0,0,0,0,0,0c0-0.3-0.1-0.5-0.4-0.6c-0.3,0-0.5,0.1-0.6,0.4c0,0.2-0.1,0.5-0.1,0.7
						c-0.1,0.7-0.2,1.3-0.3,2c-0.2,1-0.3,1.9-0.5,2.9c-0.2,1.2-0.4,2.4-0.6,3.5c-0.2,1.3-0.4,2.6-0.6,3.9c-0.2,1.3-0.4,2.6-0.7,3.9
						c-0.2,1.2-1.5,8.8-1.7,10c-0.2,1-0.3,2.1-0.5,3.1c-0.1,0.7-0.2,1.5-0.4,2.2c-0.1,0.3-0.1,0.7-0.2,1c0,0,0,0,0,0
						c0,0.3,0.1,0.5,0.4,0.6C123.8,76.7,124.1,76.6,124.1,76.3L124.1,76.3z"/>
				</g>
			</g>
		</g>
	</g>
</g>
<g>
	<path class="st1" d="M55,70.1l2.6-15.2l2.6-15.2c0-0.2-0.1-0.3-0.2-0.3c-0.2,0-0.3,0.1-0.3,0.2c0,0,0,0,0,0c0,0.2-0.1,0.5-0.1,0.7
		L57,54.8l-2.4,14.4c0,0.2-0.1,0.5-0.1,0.7c0,0,0,0,0,0c0,0.2,0.1,0.3,0.2,0.3C54.8,70.3,55,70.2,55,70.1z"/>
	<path class="st1" d="M53.7,66.6l2-12.1l2-12.1c0-0.2-0.1-0.3-0.2-0.3c-0.1,0-0.3,0.1-0.3,0.2c0,0,0,0,0,0c0,0.2-0.1,0.4-0.1,0.6
		l-1.9,11.4l-1.9,11.4c0,0.2-0.1,0.4-0.1,0.6c0,0,0,0,0,0c0,0.1,0.1,0.3,0.2,0.3C53.5,66.9,53.6,66.8,53.7,66.6z"/>
	<path class="st1" d="M60.2,47.1C60.2,47.1,60.2,47.1,60.2,47.1c0,0.2-0.1,0.3-0.1,0.5c-0.1,0.3,0,0.2-0.1,0.6l-1.2,6.9L57.7,62
		c-0.1,0.3,0,0.2-0.1,0.6c0,0.2-0.1,0.3-0.1,0.5c0,0,0,0,0,0c0,0.1,0.1,0.3,0.2,0.3c0.2,0,0.3-0.1,0.3-0.2l0.1-0.3
		c0-0.3,0-0.1,0.1-0.4l1.2-7.2l1.2-7.2c0-0.3,0-0.1,0.1-0.4l0.1-0.3c0-0.2-0.1-0.3-0.2-0.3C60.4,46.9,60.2,47,60.2,47.1z"/>
</g>
<g>
	<g>
		<path class="st1" d="M121.4,91.2c-0.1-0.2-0.1-0.4-0.3-0.6c-0.1-0.1-0.2-0.2-0.3-0.4c0,0-0.1-0.1-0.1-0.1
			c-0.2-0.2-0.4-0.4-0.7-0.7c-0.1-0.1-0.2-0.2-0.3-0.3c0,0,0,0,0,0c0,0,0,0,0,0c0.1,0,0.2-0.1,0.3-0.1c0,0,0,0,0,0c0,0,0,0,0,0
			c0.2,0.2,0.4,0.4,0.7,0.7c0,0,0.1,0.1,0.1,0.1c0.1,0.1,0.2,0.2,0.3,0.4C121.3,90.4,121.4,90.8,121.4,91.2z"/>
		<path class="st1" d="M121.2,87.2c0-0.2-0.1-0.5-0.3-0.7c-0.1-0.1-0.2-0.2-0.3-0.2c-0.1,0-0.3,0-0.4,0.1l0,0
			c-0.3,0.1-0.7,0.3-1,0.5c-0.1,0.1-0.3,0.2-0.4,0.2c-0.2,0.1-0.4,0.2-0.6,0.3c0,0-0.1,0-0.1,0c0,0-0.1,0-0.1,0.1
			c-0.1-0.1-0.1-0.1-0.2-0.2c0,0-0.1-0.1-0.1-0.1c-0.1-0.1-0.2-0.3-0.3-0.4c-0.2-0.3-0.4-0.5-0.6-0.8c-0.2-0.3-0.3-0.5-0.5-0.8
			c0-0.1-0.1-0.1-0.1-0.2l0,0c-0.2-0.3-0.3-0.6-0.6-0.8c-0.1-0.1-0.2-0.1-0.3-0.1c0-0.1,0-0.2,0-0.3c0,0,0,0,0,0c0-0.1,0-0.1,0-0.1
			c0,0,0.1,0,0.2,0.1c0.2,0.2,0.4,0.5,0.6,0.7l0,0c0,0.1,0.1,0.1,0.1,0.2c0.2,0.3,0.3,0.6,0.5,0.8c0.2,0.3,0.4,0.5,0.6,0.8
			c0.1,0.1,0.2,0.3,0.3,0.4c0,0,0.1,0.1,0.1,0.1c0.1,0.1,0.1,0.2,0.2,0.3l0.1,0.1l0.1,0c0,0,0.1-0.1,0.2-0.1c0,0,0.1,0,0.1,0
			c0.2-0.1,0.4-0.2,0.6-0.3c0.1-0.1,0.3-0.2,0.4-0.2c0.3-0.2,0.6-0.4,0.9-0.5l0,0c0.1,0,0.2-0.1,0.3-0.1c0.1,0,0.2,0.1,0.2,0.2
			c0.1,0.2,0.2,0.4,0.2,0.7l0,0C121.2,86.9,121.2,87,121.2,87.2L121.2,87.2z"/>
	</g>
	<path class="st1" d="M117,88.2c0,0-0.1-0.1-0.1-0.1c-0.1-0.1-0.1-0.2-0.2-0.3c-0.1-0.3-0.3-0.5-0.4-0.8c-0.2-0.4-0.4-0.7-0.5-1.1
		c-0.1-0.3-0.2-0.6-0.3-0.9c-0.1-0.2-0.2-0.5-0.1-0.7c0-0.2,0.3-0.2,0.4,0c0.3,0.2,0.4,0.5,0.6,0.8c0.2,0.3,0.4,0.7,0.6,1
		c0.2,0.3,0.4,0.5,0.6,0.8c0.1,0.1,0.2,0.3,0.3,0.4c0.1,0.1,0.2,0.3,0.3,0.4c0.1-0.1,0.2-0.1,0.3-0.1c0.2-0.1,0.4-0.2,0.6-0.3
		c0.5-0.2,0.9-0.5,1.4-0.7c0.1,0,0.2-0.1,0.3-0.1c0.1,0,0.2,0.1,0.3,0.2c0.1,0.2,0.2,0.5,0.2,0.7c0.1,0.4,0.2,0.9-0.2,1.1
		c-0.2,0.2-0.5,0.3-0.7,0.5c-0.2,0.1-0.5,0.2-0.7,0.4c0.1,0,0.1,0.1,0.2,0.1c0.1,0.1,0.2,0.2,0.3,0.3c0.2,0.2,0.4,0.4,0.7,0.7
		c0.1,0.2,0.3,0.3,0.4,0.5c0.3,0.4,0.4,1,0.3,1.4c0,0.1,0,0.3-0.1,0.4c0,0.1-0.1,0.3-0.2,0.4c-0.2,0.1-0.4-0.2-0.6-0.3
		c-0.2-0.2-0.4-0.4-0.6-0.6c-0.4-0.4-0.7-0.9-1.1-1.4c-0.2-0.2-0.3-0.5-0.5-0.7c0-0.1-0.1-0.1-0.1-0.2c-0.1-0.1-0.8,0.4-0.9,0.5
		c-0.3,0.2-0.5,0.5-0.8,0.6c-0.3,0.1-0.5-0.3-0.6-0.5c-0.1-0.3-0.2-0.6-0.3-0.9c0-0.1,0-0.3,0.1-0.4c0.2-0.2,0.4-0.4,0.6-0.6
		C116.7,88.4,116.8,88.3,117,88.2z"/>
</g>
<g>
	<g>
		<g>
			<path d="M79.5,242c-2,2-4.1,4.1-6.1,6.1c-3,3-6,6-9,9c-0.4,0.4-0.7,0.7-1.1,1.1c-0.3,0.3-0.6,0.6-1,0.5c-0.4,0-0.6-0.3-0.9-0.6
				c-0.4-0.4-0.8-0.8-1.1-1.1c-3-3-6-6-9.1-9.1c-1.4-1.4-2.8-2.8-4.2-4.2c-0.6-0.6-1.4-1.2-1.9-1.9c-0.7-0.9,0.6-1.8,1.2-2.4
				c1.3-1.3,2.5-2.5,3.8-3.8c3.1-3.1,6.3-6.3,9.4-9.4c0.7-0.7,1.4-1.5,2.2-2.2c0.9-0.8,1.6,0.1,2.2,0.8c2.8,2.8,5.7,5.7,8.5,8.5
				c2.4,2.4,4.7,4.7,7.1,7.1C79.9,240.9,80,241.5,79.5,242c-1,1,0.6,2.6,1.5,1.5c1.2-1.3,1.2-3.2,0-4.5c-0.2-0.2-0.4-0.4-0.7-0.7
				c-1.2-1.2-2.4-2.4-3.7-3.7c-3.3-3.3-6.5-6.5-9.8-9.8c-0.8-0.8-1.5-1.6-2.3-2.3c-1.1-1-2.8-1.3-4-0.4c-0.3,0.2-0.6,0.5-0.9,0.8
				c-2.8,2.8-5.6,5.6-8.4,8.4c-2.5,2.5-5.1,5-7.6,7.6c-0.8,0.8-1.2,1.8-1,2.9c0.1,0.8,0.6,1.4,1.1,1.9c1,1,2,2,3,3
				c3.3,3.3,6.6,6.6,9.9,9.9c1,1,2.1,2.1,3.1,3.1c0.5,0.5,1,0.9,1.6,1.1c1.2,0.3,2.4-0.1,3.2-0.9c2.5-2.5,4.9-4.9,7.4-7.4
				c2.8-2.8,5.7-5.7,8.5-8.5c0.2-0.2,0.3-0.3,0.5-0.5C82.1,242.5,80.5,241,79.5,242z"/>
		</g>
	</g>
	<g>
		<path d="M54.1,245.4c1.9-7,7.8-4.8,10.2-4c-1.3-4-3.5-12.8-0.2-22.6c1.2-3.5,3.2-6,3.2-6s-2.7,7.3-1.7,15.9
			c0.7,6.1,4.7,14.8,4.9,16.9c0.1,1.1-1.6,3.5-1.6,3.5s-4.9-2.8-8.9-3.6c-3.6-0.8-5.9,0.2-5.9,0.2S54.1,245.4,54.1,245.4z"/>
		<path d="M69.3,211.1c0,0-2.7,7.3-1.7,15.9c0.7,6.1,4.7,14.8,4.9,16.9c0.1,1.1-1.6,3.5-1.6,3.5s-0.1-0.1-0.3-0.2
			c0.4-0.8,0.9-1.7,0.8-2.3c-0.2-2.1-4.2-10.8-4.9-16.9c-0.8-6.7,0.7-12.6,1.4-14.9C68.6,211.9,69.3,211.1,69.3,211.1z"/>
	</g>
</g>
<g>
	<g>
		<path d="M207.2,123.1c-0.1,0-0.2-0.1-0.2-0.1c-0.4-0.3-0.8-0.5,1.2-7.5c1.1-3.6,2.3-7.5,2.8-8.9l0.4-1.1l0.6,1
			c0.5,0.9,6.7,4.6,7.7,4.6l1.4,0l-1.3,1.2C209.5,122.2,207.8,123.2,207.2,123.1z M211.8,107.8c-1.3,3.8-3.7,11.6-4,13.9
			c1-0.7,3.7-2.9,10.9-9.8C216.7,111.2,213.3,109,211.8,107.8z"/>
	</g>
	<g>
		<path d="M219.5,112.2c-1.8-0.3-7.8-4.1-8.4-5.1c-0.1-0.2-0.1-0.4-0.1-0.5c0.1-0.4,3.5-6.3,15-26.5c6.9-11.9,13.9-24.3,17.4-30.4
			l0.3-0.5l0.5,0.4c1.6,1.2,6.4,4.2,8.4,5l0.6,0.2l-0.3,0.5c-7.3,13.3-28.4,50.9-32.6,56.7c-0.1,0.1-0.3,0.3-0.6,0.3
			C219.6,112.2,219.5,112.2,219.5,112.2z M219.4,111.3C219.4,111.3,219.4,111.3,219.4,111.3C219.4,111.3,219.4,111.3,219.4,111.3z
			 M212.1,106.6c0.9,1,6.2,4.2,7.4,4.5c4.4-6.3,24.6-42.4,32.1-55.9c-2-1-5.8-3.2-7.6-4.5c-3.5,6.3-10.4,18.3-17.1,29.9
			C220.1,92.5,213,104.9,212.1,106.6z M212,106.5C212,106.5,212,106.5,212,106.5C212,106.5,212,106.5,212,106.5z"/>
	</g>
	<g>
		<path d="M252.9,55.7c-0.2,0-0.4-0.1-0.7-0.2c-2-0.8-7-3.9-8.6-5.1c-0.4-0.3-0.6-0.5-0.6-0.6c-0.1-0.2-0.4-0.7,0.6-2.6
			c0.5-1,1.1-2,1.6-2.6c0.5-0.6,1.4-0.2,2,0.2c0.1,0.1,0.3,0.2,0.4,0.2c0-0.1,0.1-0.2,0.1-0.3c0.2-0.5,0.5-1.1,1.2-1.3
			c0.2,0,0.5,0,1.3,0.3c1.2,0.5,3.1,1.4,4.3,2.2c1.4,0.9,1.7,1.3,1.7,1.7c0,0.6-0.5,1.4-0.9,1.9c0.5,0.3,1.5,0.7,1.1,1.6
			c-0.2,0.5-0.7,1.5-1.3,2.5c-1,1.7-1.5,2.1-1.8,2.2C253.3,55.7,253.1,55.7,252.9,55.7z M253.1,54.6L253.1,54.6L253.1,54.6z
			 M243.9,49.2c0,0,0.1,0.1,0.3,0.3c1.6,1.2,6.4,4.2,8.4,5c0.2,0.1,0.4,0.1,0.5,0.2c0.5-0.4,1.6-2.3,2.4-3.9
			c-0.1-0.1-0.4-0.2-0.6-0.3c-0.4-0.2-0.7-0.3-0.8-0.7c0-0.2,0-0.4,0.1-0.5c0.4-0.5,0.9-1.2,1-1.5c-0.1-0.1-0.4-0.4-1.2-0.9
			c-1.2-0.7-3-1.7-4.2-2.1c-0.4-0.2-0.6-0.2-0.7-0.2c-0.2,0.1-0.3,0.4-0.5,0.7c-0.2,0.4-0.3,0.7-0.6,0.9c-0.4,0.2-0.9,0-1.4-0.3
			c-0.2-0.1-0.6-0.3-0.7-0.4C244.8,46.5,243.8,48.6,243.9,49.2z M243.9,49.2L243.9,49.2L243.9,49.2z M255.5,50.5
			C255.5,50.5,255.5,50.5,255.5,50.5C255.5,50.5,255.5,50.5,255.5,50.5L255.5,50.5z M255,49.9C255,49.9,255,49.9,255,49.9
			C255,49.9,255,49.9,255,49.9z M245.9,45.2C245.9,45.2,245.9,45.2,245.9,45.2C245.9,45.2,245.9,45.2,245.9,45.2z M249.1,44.4
			L249.1,44.4L249.1,44.4z M249.2,44.4C249.2,44.4,249.2,44.4,249.2,44.4C249.2,44.4,249.2,44.4,249.2,44.4z"/>
	</g>
	<g>
		<path d="M245.8,87.8c-0.3,0-0.5-0.1-0.8-0.2c-1.9-0.9-3.9-2.5-3.2-5.2c1.1-4.1,8.1-17.3,13.2-27c2.2-4.1,4.2-7.9,4.7-9
			c-0.8-0.6-3-1.9-3.6-2c-0.3,0.2-0.9,1.3-1.2,1.7c-0.1,0.2-0.2,0.4-0.3,0.5l-0.3,0.4l-0.5-0.3c-1.2-0.7-3-1.7-4.2-2.1l-0.2-0.1
			l-0.1-0.2c0-0.1-0.1-0.2,0-0.3c0.1-0.8,2.3-4.2,2.7-4.7c0.2-0.2,0.6-0.7,3.9,0.6c1.9,0.7,3.9,1.7,5.4,2.7c2.3,1.5,3.2,2.7,2.7,3.7
			l0,0c-1,2.1-2.9,5.7-5.1,9.7c-2.4,4.4-5.1,9.4-7,13.5c-0.3,0.6-0.8,1.6-1.4,2.7c-1.8,3.3-4.4,8.4-4.6,10.1c-0.1,1.1,0.4,1.5,1.1,2
			c0.5,0.4,1,0.8,1.1,1.5c0.1,0.6-0.2,1.2-0.7,1.6C247,87.8,246.4,87.9,245.8,87.8z M256.2,43.2c1.2,0.2,4.2,2.3,4.4,2.5
			c0.5,0.4,0.5,0.4-4.7,10.1c-4.8,9-12.1,22.7-13.1,26.7c-0.4,1.6,0.5,2.9,2.6,3.9c0.5,0.3,1.1,0.2,1.4,0c0.2-0.1,0.3-0.4,0.3-0.6
			c0-0.3-0.3-0.5-0.7-0.9c-0.7-0.6-1.6-1.3-1.5-2.9c0.2-2,2.8-6.9,4.7-10.5c0.6-1.1,1.1-2.1,1.4-2.7c1.9-4.1,4.7-9.1,7.1-13.5
			c2.2-4.1,4.1-7.6,5.1-9.7l0,0c0-0.1,0-0.3-0.3-0.6c-1.7-2.1-8.8-5.2-10-5c-0.5,0.7-1.8,2.8-2.2,3.7c1,0.4,2.4,1.1,3.4,1.7
			c0.8-1.4,1.3-2.2,1.9-2.3C256,43.2,256.1,43.2,256.2,43.2z M259.9,46.6C259.9,46.6,259.9,46.6,259.9,46.6
			C259.9,46.6,259.9,46.6,259.9,46.6z M256.1,44.3C256.1,44.3,256.1,44.3,256.1,44.3L256.1,44.3z M256.2,44.3L256.2,44.3L256.2,44.3
			z"/>
	</g>
	<g>
		<path class="st2" d="M245.5,52.3c-9.7,16.1-29.2,48.3-31.3,53c-0.1,0.3,0,0.5,0.3,0.7c0.3,0.1,0.6,0,0.7-0.3
			c2.1-4.7,21.5-36.8,31.2-52.9c0.1-0.2,0.1-0.5-0.2-0.7C246,52,245.6,52.1,245.5,52.3L245.5,52.3z"/>
	</g>
	<g>
		<path class="st2" d="M217.2,107.7c10.3-17.9,20.6-35.7,31-53.6c0.1-0.2,0.1-0.5-0.2-0.7c-0.2-0.1-0.5-0.1-0.7,0.2
			c-10.3,17.9-20.6,35.7-31,53.6c-0.1,0.2-0.1,0.5,0.2,0.7C216.8,108,217.1,107.9,217.2,107.7L217.2,107.7z"/>
	</g>
	<g>
		<path class="st2" d="M219.8,108.8c1.5-2.1,25.7-46.1,30.5-53.1c0.2-0.2,0.1-0.5-0.1-0.7c-0.2-0.2-0.5-0.1-0.7,0.1
			c-4.9,7-29.1,51.1-30.5,53.1c-0.2,0.2-0.1,0.5,0.1,0.7C219.3,109.1,219.6,109.1,219.8,108.8L219.8,108.8z"/>
	</g>
	<g>
		<path class="st2" d="M212.4,118.7c-0.6-1-3.8-2.9-3.9-2.6c-0.3,1.3-1.7,6.6-1.6,6.8C207,123.1,212.4,118.7,212.4,118.7
			L212.4,118.7z"/>
	</g>
</g>
<g>
	<path class="st3" d="M171,209.1c-0.9-1.6-1.8-3.2-2.9-4.7c-3.6-4.8-7.4-9.5-11.7-15c10.3-2.3,20.3,0.9,29.2-4.3
		c-8.5-4.1-17.7-2.6-28.3-3.8c4.2-5.6,7.7-9.7,10.7-14.2c2-3,7.3-6.8,3.8-9.6c-3.2-2.5-6.1,3.6-8.8,6.2c-3.2,3-5.1,7.4-9.7,9.9
		c-0.4-2.3-0.7-3.8-0.8-5.3c-0.4-4.9-0.6-9.8-0.9-14.7c-0.2-2-1.3-3.5-3.5-3.5s-3.4,1.8-3.5,3.6c-0.2,4,0.2,8,0.3,12
		c0.1,3.4,1.4,6.9-1,11.1c-4-4.6-7.3-8.5-10.8-12.2c-2.2-2.3-4.5-6.8-8-4.2c-4,3,0.6,5.8,2.4,8.4c1.6,2.3,3.6,4.2,5.3,6.4
		c1.5,2.1,4.1,3.5,4.5,7.2c-5.3,0.3-10.2,0.5-15,0.9c-3.2,0.3-8.1-0.5-7.9,4.1c0.2,4.8,5.1,3,8.2,3c5.5,0,11.1-0.4,18.4-0.8
		c-5.6,7.3-10.1,12.7-14.1,18.4c-2.1,2.8-7.1,6.2-3.6,9.1c4.5,3.8,6.6-2.3,8.9-4.9c4.4-4.9,8.3-10.3,12.3-15.4
		c1.6,3.5,1.6,6.5,1.6,9.4c0,4.3-0.1,8.6,0.2,12.9c0.2,2.9,0.1,7.5,3.4,7.6c4.4,0.2,2.8-4.6,3.1-7.2c0.5-3.6,0.3-7.4,0.6-11
		c0.3-2.8-0.9-6,1.7-9.5c1,1.5,1.7,2.7,2.5,3.5c3.2,3.3,6.5,6.6,9.8,9.7c0.9,0.9,2.2,1,3.4,0.3C172.2,211.3,171.6,210.1,171,209.1z"
		/>
</g>
<g>
	<path class="st3" d="M52.5,133.8c-1.6-1.6-3.5-2.7-5.5-3.6s-4-1.9-6.1-2.6c-2.3-0.7-2.9-2-2.9-4.2c0.1-5.2-0.2-10.3-0.3-15.5
		c0-1.8-0.4-3.7-2.4-4.4c-1.9-0.7-3.4,0.3-4.8,1.6c-0.6,0.6-1.3,1.2-1.8,1.9c-2.9,3.7-6.2,7.2-8.7,11.2c-1.9,3-4.1,3.4-7,2.6
		c-2.7-0.8-5.6-0.8-8.3-0.5c-4.7,0.6-6.1,4.2-3.1,7.9c1.7,2,3.8,3.7,6.3,4.8c2,0.9,2.5,1.9,1.6,4.1c-1.7,4.4-3.2,8.9-4.7,13.3
		c-0.5,1.5-1.1,3.2,0.4,4.5s3.2,0.4,4.6-0.3c2.2-1.1,4.4-2.4,6.5-3.7c1.8-1.1,3.5-2.2,5.6-3.6c1.4,2.2,2.6,4.1,3.7,6
		c1.2,2,2.7,3.9,4.5,5.4c1.2,1,2.4,2.4,4.2,1.7c1.7-0.7,2.1-2.3,2.3-4c0.3-3.4,0.7-6.8,0.9-10.1c0.2-4.3,0.1-4.3,4.6-4.8
		c3.1-0.4,6.2-0.8,9.1-1.9C54.5,138.4,54.9,136.2,52.5,133.8z M39.4,139c-3.5,0.5-3.6,0.5-3.9,4c-0.4,4.3-0.8,8.5-1.3,12.8
		c-0.1,0.7,0.1,1.5-1.1,2c-1.9-1.4-3.3-3.4-4.8-5.4c-1.4-1.9-2.7-3.9-4-5.8c-1.9-2.6-2.2-2.7-4.9-0.9c-3.9,2.6-7.6,5.5-12.9,7.8
		c1.9-5.4,3.4-10,5.1-14.7c0.2-0.6,0.5-1.1,0.7-1.6c1.7-4,1.7-4-2.1-6.1c-2.3-1.3-4.7-2.5-6.4-4.6c-1.6-1.9-1.1-3,1.3-3.6
		c3-0.7,5.9-0.1,8.8,0.3c3.4,0.5,5.9-0.4,8-3.3c2.6-3.6,5.5-6.9,8.3-10.3c1.1-1.3,2.1-2.8,3.9-3.4c1.1,1.4,0.8,2.9,0.8,4.3
		c0.1,4.4,0.2,8.9,0,13.3c-0.1,2.6,0.9,4.1,3.2,5.1c2.7,1.2,5.3,2.5,7.9,3.9c1.7,0.9,3.5,1.6,4.8,3.8C47,138.2,43.2,138.4,39.4,139z
		"/>
</g>
<g>
	<path class="st4" d="M297.5,239.6c-24.2,13.9-48.2,29.1-72.2,43.5c-9.9-16.3-19.7-32.7-29.5-49c25-15,49.9-30,74.9-45
		C280.5,205.8,290.3,221.6,297.5,239.6z"/>
</g>
<g>
	<g>
		<g>
			<g>
				<path class="st1" d="M228.5,242.9c-1.1,0.6-2.2,1.3-3.2,1.9c-1.6,1-3.2,1.9-4.8,2.9c-0.2,0.1-0.4,0.2-0.6,0.4
					c-0.2,0.1-0.3,0.2-0.5,0.1c-0.2-0.1-0.2-0.2-0.3-0.3c-0.1-0.2-0.2-0.4-0.4-0.6c-1-1.6-1.9-3.2-2.9-4.8c-0.4-0.7-0.9-1.5-1.3-2.2
					c-0.2-0.3-0.4-0.6-0.6-1c-0.2-0.4,0.4-0.7,0.8-0.9c0.7-0.4,1.3-0.8,2-1.2c1.7-1,3.3-2,5-3c0.4-0.2,0.8-0.5,1.1-0.7
					c0.5-0.2,0.6,0.2,0.8,0.6c0.9,1.5,1.8,3,2.7,4.5c0.8,1.3,1.5,2.5,2.3,3.8C228.8,242.5,228.8,242.7,228.5,242.9
					c-0.5,0.3,0,1.2,0.5,0.8c0.6-0.4,0.9-1.2,0.5-1.9c-0.1-0.1-0.1-0.2-0.2-0.4c-0.4-0.6-0.8-1.3-1.2-1.9c-1-1.7-2.1-3.5-3.1-5.2
					c-0.2-0.4-0.5-0.8-0.7-1.2c-0.4-0.6-1-0.8-1.7-0.6c-0.2,0.1-0.3,0.2-0.5,0.2c-1.5,0.9-3,1.8-4.4,2.7c-1.3,0.8-2.7,1.6-4,2.4
					c-0.4,0.3-0.7,0.6-0.7,1.1c0,0.3,0.1,0.6,0.3,0.9c0.3,0.5,0.6,1.1,1,1.6c1.1,1.7,2.1,3.5,3.2,5.2c0.3,0.5,0.7,1.1,1,1.6
					c0.2,0.3,0.3,0.5,0.6,0.6c0.5,0.3,1,0.2,1.5,0c1.3-0.8,2.6-1.6,3.9-2.4c1.5-0.9,3-1.8,4.5-2.7c0.1-0.1,0.2-0.1,0.3-0.2
					C229.6,243.4,229.1,242.6,228.5,242.9z"/>
			</g>
			<g>
				<g>
					<path class="st1" d="M231.8,230.8c0.2-0.1,0.4-0.2,0.5-0.3c0.5-0.3,1-0.6,1.4-0.9c0.7-0.4,1.4-0.9,2.1-1.3
						c0.9-0.5,1.7-1,2.6-1.6c0.9-0.6,8-4.8,9-5.4c1-0.6,1.9-1.2,2.9-1.7c0.9-0.5,1.8-1.1,2.7-1.6c0.8-0.5,1.5-0.9,2.3-1.4
						c0.5-0.3,0.4-0.2,0.9-0.6c0.3-0.2,0.5-0.3,0.8-0.5c0,0,0,0,0,0c0.2-0.1,0.3-0.5,0.2-0.7c-0.2-0.2-0.5-0.3-0.7-0.2
						c-0.2,0.1-0.4,0.2-0.5,0.3c-0.5,0.3-0.2,0.1-0.7,0.4c-0.7,0.4-1.4,0.9-2.1,1.3c-0.9,0.5-1.7,1-2.6,1.6
						c-0.9,0.6-1.9,1.1-2.8,1.7c-1,0.6-1.9,1.2-2.9,1.7c-0.9,0.5-7.9,4.8-8.8,5.3c-0.8,0.5-1.5,0.9-2.3,1.4c-0.5,0.3-1.1,0.7-1.6,1
						c-0.3,0.2-0.5,0.3-0.8,0.5c0,0,0,0,0,0c-0.2,0.1-0.3,0.5-0.2,0.7C231.2,230.8,231.5,230.9,231.8,230.8L231.8,230.8z"/>
				</g>
				<g>
					<path class="st1" d="M233.6,233.8c0.3-0.2,0.6-0.3,0.8-0.5c0.8-0.5,1.5-0.9,2.3-1.4c1.1-0.7,2.2-1.3,3.3-2
						c1.4-0.8,8.8-5.3,10.2-6.1c1.5-0.9,3-1.8,4.4-2.7c1.5-0.9,3-1.8,4.5-2.7c1.4-0.8,2.8-1.7,4.2-2.5c1.2-0.7,2.4-1.4,3.5-2.1
						c0.9-0.5,1.7-1,2.6-1.5c0.4-0.2,0.8-0.5,1.2-0.7c0,0,0,0,0.1,0c0.2-0.1,0.3-0.5,0.2-0.7c-0.1-0.2-0.5-0.3-0.7-0.2
						c-0.3,0.2-0.6,0.3-0.8,0.5c-0.8,0.5-1.5,0.9-2.3,1.4c-1.1,0.7-2.2,1.3-3.3,2c-1.4,0.8-2.7,1.6-4.1,2.4c-1.5,0.9-3,1.8-4.4,2.7
						c-1.5,0.9-3,1.8-4.5,2.7c-1.4,0.8-2.8,1.7-4.2,2.5c-1.2,0.7-8.5,5.1-9.7,5.8c-0.9,0.5-1.7,1-2.6,1.5c-0.4,0.2-0.8,0.5-1.2,0.7
						c0,0,0,0-0.1,0c-0.2,0.1-0.3,0.5-0.2,0.7C233,233.9,233.4,234,233.6,233.8L233.6,233.8z"/>
				</g>
				<g>
					<path class="st1" d="M235.5,236.9c0.2-0.1,0.5-0.3,0.7-0.4c0.6-0.4,1.3-0.8,1.9-1.1c0.9-0.6,1.9-1.1,2.8-1.7
						c1.1-0.7,8.4-5,9.5-5.7c1.2-0.7,2.5-1.5,3.7-2.2c1.3-0.8,2.5-1.5,3.8-2.3c1.2-0.7,2.3-1.4,3.5-2.1c1-0.6,2-1.2,3-1.8
						c0.7-0.4,1.4-0.9,2.1-1.3c0.3-0.2,0.7-0.4,1-0.6c0,0,0,0,0,0c0.2-0.1,0.3-0.5,0.2-0.7c-0.2-0.2-0.5-0.3-0.7-0.2
						c-0.2,0.1-0.5,0.3-0.7,0.4c-0.6,0.4-1.3,0.8-1.9,1.1c-0.9,0.6-1.9,1.1-2.8,1.7c-1.1,0.7-2.3,1.4-3.4,2
						c-1.2,0.7-2.5,1.5-3.7,2.2c-1.3,0.8-2.5,1.5-3.8,2.3c-1.2,0.7-8.4,5.1-9.6,5.8c-1,0.6-2,1.2-3,1.8c-0.7,0.4-1.4,0.9-2.1,1.3
						c-0.3,0.2-0.7,0.4-1,0.6c0,0,0,0,0,0c-0.2,0.1-0.3,0.5-0.2,0.7C234.9,237,235.2,237.1,235.5,236.9L235.5,236.9z"/>
				</g>
			</g>
		</g>
		<g>
			<path class="st1" d="M217.4,241.2c1.4-2.6,3.5-1.1,4.4-0.6c-0.1-1.7-0.1-5.4,2.1-8.9c0.8-1.3,1.9-2.1,1.9-2.1s-1.8,2.6-2.2,6.1
				c-0.3,2.5,0.4,6.3,0.3,7.1c-0.1,0.4-1,1.2-1,1.2s-1.7-1.6-3.2-2.3C218.4,241.1,217.4,241.2,217.4,241.2
				C217.4,241.2,217.4,241.2,217.4,241.2z"/>
			<path class="st1" d="M226.7,229.2c0,0-1.8,2.6-2.2,6.1c-0.3,2.5,0.4,6.3,0.3,7.1c-0.1,0.4-1,1.2-1,1.2s0,0-0.1-0.1
				c0.2-0.3,0.5-0.6,0.5-0.8c0.1-0.8-0.6-4.7-0.3-7.1c0.4-2.7,1.5-4.9,2-5.7C226.4,229.4,226.7,229.2,226.7,229.2z"/>
		</g>
	</g>
	<g>
		<g>
			<g>
				<path class="st1" d="M242.1,265.4c-1.1,0.6-2.2,1.3-3.2,1.9c-1.6,1-3.2,1.9-4.8,2.9c-0.2,0.1-0.4,0.2-0.6,0.4
					c-0.2,0.1-0.3,0.2-0.5,0.1c-0.2-0.1-0.2-0.2-0.3-0.3c-0.1-0.2-0.2-0.4-0.4-0.6c-1-1.6-1.9-3.2-2.9-4.8c-0.4-0.7-0.9-1.5-1.3-2.2
					c-0.2-0.3-0.4-0.6-0.6-1c-0.2-0.4,0.4-0.7,0.8-0.9c0.7-0.4,1.3-0.8,2-1.2c1.7-1,3.3-2,5-3c0.4-0.2,0.8-0.5,1.1-0.7
					c0.5-0.2,0.6,0.2,0.8,0.6c0.9,1.5,1.8,3,2.7,4.5c0.8,1.3,1.5,2.5,2.3,3.8C242.3,265,242.3,265.2,242.1,265.4
					c-0.5,0.3,0,1.2,0.5,0.8c0.6-0.4,0.9-1.2,0.5-1.9c-0.1-0.1-0.1-0.2-0.2-0.4c-0.4-0.6-0.8-1.3-1.2-1.9c-1-1.7-2.1-3.5-3.1-5.2
					c-0.2-0.4-0.5-0.8-0.7-1.2c-0.4-0.6-1-0.8-1.7-0.6c-0.2,0.1-0.3,0.2-0.5,0.2c-1.5,0.9-3,1.8-4.4,2.7c-1.3,0.8-2.7,1.6-4,2.4
					c-0.4,0.3-0.7,0.6-0.7,1.1c0,0.3,0.1,0.6,0.3,0.9c0.3,0.5,0.6,1.1,1,1.6c1.1,1.7,2.1,3.5,3.2,5.2c0.3,0.5,0.7,1.1,1,1.6
					c0.2,0.3,0.3,0.5,0.6,0.6c0.5,0.3,1,0.2,1.5,0c1.3-0.8,2.6-1.6,3.9-2.4c1.5-0.9,3-1.8,4.5-2.7c0.1-0.1,0.2-0.1,0.3-0.2
					C243.1,265.9,242.6,265.1,242.1,265.4z"/>
			</g>
			<g>
				<g>
					<path class="st1" d="M245.3,253.3c0.2-0.1,0.4-0.2,0.5-0.3c0.5-0.3,1-0.6,1.4-0.9c0.7-0.4,1.4-0.9,2.1-1.3
						c0.9-0.5,1.7-1,2.6-1.6c0.9-0.6,8-4.8,9-5.4c1-0.6,1.9-1.2,2.9-1.7c0.9-0.5,1.8-1.1,2.7-1.6c0.8-0.5,1.5-0.9,2.3-1.4
						c0.5-0.3,0.4-0.2,0.9-0.6c0.3-0.2,0.5-0.3,0.8-0.5c0,0,0,0,0,0c0.2-0.1,0.3-0.5,0.2-0.7c-0.2-0.2-0.5-0.3-0.7-0.2
						c-0.2,0.1-0.4,0.2-0.5,0.3c-0.5,0.3-0.2,0.1-0.7,0.4c-0.7,0.4-1.4,0.9-2.1,1.3c-0.9,0.5-1.7,1-2.6,1.6
						c-0.9,0.6-1.9,1.1-2.8,1.7c-1,0.6-1.9,1.2-2.9,1.7c-0.9,0.5-7.9,4.8-8.8,5.3c-0.8,0.5-1.5,0.9-2.3,1.4c-0.5,0.3-1.1,0.7-1.6,1
						c-0.3,0.2-0.5,0.3-0.8,0.5c0,0,0,0,0,0c-0.2,0.1-0.3,0.5-0.2,0.7C244.7,253.3,245.1,253.4,245.3,253.3L245.3,253.3z"/>
				</g>
				<g>
					<path class="st1" d="M247.2,256.4c0.3-0.2,0.6-0.3,0.8-0.5c0.8-0.5,1.5-0.9,2.3-1.4c1.1-0.7,2.2-1.3,3.3-2
						c1.4-0.8,8.8-5.3,10.2-6.1c1.5-0.9,3-1.8,4.4-2.7c1.5-0.9,3-1.8,4.5-2.7c1.4-0.8,2.8-1.7,4.2-2.5c1.2-0.7,2.4-1.4,3.5-2.1
						c0.9-0.5,1.7-1,2.6-1.5c0.4-0.2,0.8-0.5,1.2-0.7c0,0,0,0,0.1,0c0.2-0.1,0.3-0.5,0.2-0.7c-0.1-0.2-0.5-0.3-0.7-0.2
						c-0.3,0.2-0.6,0.3-0.8,0.5c-0.8,0.5-1.5,0.9-2.3,1.4c-1.1,0.7-2.2,1.3-3.3,2c-1.4,0.8-2.7,1.6-4.1,2.4c-1.5,0.9-3,1.8-4.4,2.7
						c-1.5,0.9-3,1.8-4.5,2.7c-1.4,0.8-2.8,1.7-4.2,2.5c-1.2,0.7-8.5,5.1-9.7,5.8c-0.9,0.5-1.7,1-2.6,1.5c-0.4,0.2-0.8,0.5-1.2,0.7
						c0,0,0,0-0.1,0c-0.2,0.1-0.3,0.5-0.2,0.7C246.6,256.4,246.9,256.5,247.2,256.4L247.2,256.4z"/>
				</g>
				<g>
					<path class="st1" d="M249,259.4c0.2-0.1,0.5-0.3,0.7-0.4c0.6-0.4,1.3-0.8,1.9-1.1c0.9-0.6,1.9-1.1,2.8-1.7
						c1.1-0.7,8.4-5,9.5-5.7c1.2-0.7,2.5-1.5,3.7-2.2c1.3-0.8,2.5-1.5,3.8-2.3c1.2-0.7,2.3-1.4,3.5-2.1c1-0.6,2-1.2,3-1.8
						c0.7-0.4,1.4-0.9,2.1-1.3c0.3-0.2,0.7-0.4,1-0.6c0,0,0,0,0,0c0.2-0.1,0.3-0.5,0.2-0.7c-0.2-0.2-0.5-0.3-0.7-0.2
						c-0.2,0.1-0.5,0.3-0.7,0.4c-0.6,0.4-1.3,0.8-1.9,1.1c-0.9,0.6-1.9,1.1-2.8,1.7c-1.1,0.7-2.3,1.4-3.4,2
						c-1.2,0.7-2.5,1.5-3.7,2.2c-1.3,0.8-2.5,1.5-3.8,2.3c-1.2,0.7-8.4,5.1-9.6,5.8c-1,0.6-2,1.2-3,1.8c-0.7,0.4-1.4,0.9-2.1,1.3
						c-0.3,0.2-0.7,0.4-1,0.6c0,0,0,0,0,0c-0.2,0.1-0.3,0.5-0.2,0.7C248.4,259.5,248.7,259.6,249,259.4L249,259.4z"/>
				</g>
			</g>
		</g>
		<g>
			<path class="st1" d="M231,263.7c1.4-2.6,3.5-1.1,4.4-0.6c-0.1-1.7-0.1-5.4,2.1-8.9c0.8-1.3,1.9-2.1,1.9-2.1s-1.8,2.6-2.2,6.1
				c-0.3,2.5,0.4,6.3,0.3,7.1c-0.1,0.4-1,1.2-1,1.2s-1.7-1.6-3.2-2.3C232,263.6,231,263.8,231,263.7C231,263.8,231,263.7,231,263.7z
				"/>
			<path class="st1" d="M240.3,251.7c0,0-1.8,2.6-2.2,6.1c-0.3,2.5,0.4,6.3,0.3,7.1c-0.1,0.4-1,1.2-1,1.2s0,0-0.1-0.1
				c0.2-0.3,0.5-0.6,0.5-0.8c0.1-0.8-0.6-4.7-0.3-7.1c0.4-2.7,1.5-4.9,2-5.7C240,251.9,240.3,251.7,240.3,251.7z"/>
		</g>
	</g>
</g>
</svg>
