<?xml version="1.0" encoding="utf-8"?>
<!-- Generator: Adobe Illustrator 23.0.0, SVG Export Plug-In . SVG Version: 6.00 Build 0)  -->
<svg version="1.1" id="Layer_1" xmlns="http://www.w3.org/2000/svg" xmlns:xlink="http://www.w3.org/1999/xlink" x="0px" y="0px"
	 width="370px" height="372px" viewBox="0 0 370 372" style="enable-background:new 0 0 370 372;" xml:space="preserve">
<style type="text/css">
	.st0{fill:#78B65B;}
	.st1{fill:#F1C251;}
	.st2{fill:#87919F;}
	.st3{fill:#A7AFBB;}
	.st4{fill:#D2754C;}
	.st5{fill:#F6D780;}
	.st6{fill:#E37C6E;}
	.st7{fill:#C06B3F;}
	.st8{fill:#FEE5A8;}
	.st9{fill:#C0C7D0;}
	.st10{fill:#EE8D83;}
	.st11{fill:#ABDC93;}
	.st12{fill:#95CB7F;}
	.st13{fill:#F6D781;}
	.st14{fill:#C56B60;}
	.st15{fill:#F1A76B;}
	.st16{fill:#E29754;}
</style>
<g>
	<path class="st0" d="M316.9,222.1c0.1,12,0.1,24,0.2,35.9c0.6,0.7,0.9,1.5,1,2.4c0.2,6.5,0.3,13.1,0,19.6c0,0.7-0.3,1.4-0.7,2.1
		c-2.7,1.9-5.8,1-8.7,1.1c-25.1,0.2-50.2,0.2-75.4,0c-6.6,0.1-13.2,0.1-19.8,0c-1.5-0.1-3,0.1-4.5-0.5c-2.1-2.1,0.3-2.8,1.3-3.5
		c5.5-3.9,10.8-8,15.6-12.8c12-11.9,21.3-25.7,27.3-41.6c0.5-1.3,0.7-2.7,2.1-3.4c0.4-0.2,0.8-0.3,1.3-0.4
		c18.8-0.4,37.6-0.1,56.5-0.1C314.4,220.9,315.8,221,316.9,222.1z"/>
	<path class="st1" d="M364.9,138.1c0,19.1,0,38.2,0.2,57.2c0,3-1.6,2.7-3.5,2.7c-14.8,0-29.7,0.1-44.5,0.1c-1.2,1-2.8,1.1-4.3,1.1
		c-17.1,0-34.2,0.1-51.3-0.1c-1.5-0.1-3.1,0.1-4.5-0.5c-2.2-2.1,0.2-2.7,1.2-3.5c3.9-2.9,7.8-5.8,11.4-9.1
		c12.7-11.1,22.3-24.5,29.2-39.8c1.4-3,1.8-6.5,4.4-9c0.4-0.2,0.8-0.3,1.3-0.4c18.8-0.4,37.7-0.1,56.5-0.1
		C362.5,136.9,363.8,137,364.9,138.1z"/>
	<path class="st1" d="M137,366c-20.7,0-41.5,0.1-62.2,0.1c-15.5,0-31-0.1-46.5-0.1c-0.3-1.8,1.2-2.3,2.3-3
		c19.9-13.9,34.2-32.2,42.9-54.8c0.4-1,0.7-2.2,1.8-2.7c0.4-0.2,0.8-0.3,1.3-0.4c19-0.4,38-0.1,57-0.1c1,0,2,0.1,2.9,0.5
		c0.5,0.2,0.8,0.6,1.1,1c0.7,1.5,0.7,3.2,0.7,4.8c0,16.5,0,32.9,0,49.4C138.2,362.5,138.5,364.4,137,366z"/>
	<path class="st1" d="M364.9,306.1c0,19.1,0,38.2,0.2,57.3c0,2.2-0.7,2.7-2.8,2.7c-35.3-0.1-70.6-0.1-105.9-0.1
		c-0.3-1.8,1.2-2.3,2.3-3c20-13.9,34.2-32.2,42.9-54.8c0.4-1,0.7-2.2,1.9-2.7c0.4-0.2,0.8-0.3,1.3-0.4c18.8-0.4,37.6-0.1,56.4-0.1
		C362.5,304.9,363.8,305,364.9,306.1z"/>
	<path class="st2" d="M136.9,54.1c0,19.1,0,38.2,0.2,57.3c0,2.2-0.7,2.7-2.8,2.7C98.9,114,63.6,114,28.3,114c-0.3-1.8,1.2-2.3,2.3-3
		c19.9-13.9,34.2-32.1,42.9-54.8c0.4-1,0.7-2.2,1.9-2.7c0.4-0.2,0.8-0.3,1.3-0.4c18.8-0.4,37.6-0.1,56.4-0.1
		C134.5,52.9,135.8,53,136.9,54.1z"/>
	<path class="st3" d="M74.8,54.2c-2,8.4-6.2,15.7-10.7,22.9c-8.9,14.4-20.4,26.3-34.6,35.6c-0.5,0.3-0.9,0.9-1.3,1.3
		c-6.9,0-13.7,0-20.6,0.1c-2.1,0-2.8-0.7-2.8-2.8c0.1-19.1,0.1-38.1,0.1-57.2c1.4-1.4,3.2-1.2,4.9-1.2c20,0,39.9,0,59.9,0
		C71.6,52.9,73.5,52.7,74.8,54.2z"/>
	<path class="st4" d="M137,366c0-19.9,0-39.9,0.1-59.8c1-1.2,2.4-1.2,3.8-1.2c21-0.1,42-0.1,63,0c0.5,0,1,0.1,1.5,0.2
		c3.2,1.1,2,3.3,1.2,5.2c-3.9,10.2-9.4,19.6-15.9,28.3c-6.9,9.3-15.2,17.2-24.6,24c-1.8,1.3-3.7,2.5-5.8,3.3
		C152.5,366,144.8,366,137,366z"/>
	<path class="st5" d="M302.8,138.2c-2.1,8.2-6.1,15.5-10.5,22.6c-9,14.5-20.5,26.6-34.8,35.9c-0.5,0.3-0.9,0.9-1.3,1.3
		c-0.2,0.2-0.3,0.5-0.5,0.5c-7.6,1.1-15.3,1.5-22.9-0.2c-0.9-1-1-2.3-1-3.5c-0.1-5.7-0.1-11.5,0-17.2c0-1.3,0.2-2.5,1.1-3.5
		c0.1-12,0.1-24,0.2-35.9c1.4-1.4,3.2-1.2,4.9-1.2c20,0,39.9,0,59.9,0C299.6,136.9,301.5,136.7,302.8,138.2z"/>
	<path class="st6" d="M52.9,258c0.1-12,0.1-23.9,0.2-35.9c1.1-1.1,2.5-1.2,3.8-1.2c21,0,42-0.1,63,0c0.5,0,1,0.1,1.5,0.2
		c2.9,1,2,3.1,1.3,4.9c-4.6,12-11.2,22.9-19.3,32.8c-7.2,8.8-15.7,16.1-25,22.4c-1,0.7-2,1.4-3.3,1.7c-6.3,0.5-12.6,0.2-18.8,0.2
		c-1.2,0-2.5-0.2-3.5-1c-0.8-1.2-0.9-2.6-0.9-3.9c-0.1-5.3,0-10.7,0-16C51.8,260.8,51.9,259.3,52.9,258z"/>
	<path class="st5" d="M74.8,306.2c-2.2,8.3-6.2,15.7-10.7,22.9c-8.9,14.4-20.4,26.3-34.6,35.6c-0.5,0.3-0.9,0.9-1.3,1.3
		c-6.9,0-13.7,0-20.6,0.1c-2.1,0-2.8-0.7-2.8-2.8c0.1-19.1,0.1-38.1,0.1-57.2c1.4-1.4,3.2-1.2,4.9-1.2c20,0,39.9,0,59.9,0
		C71.6,304.9,73.5,304.7,74.8,306.2z"/>
	<path class="st5" d="M302.8,306.2c-2.2,8.3-6.2,15.7-10.7,22.9c-8.9,14.4-20.4,26.3-34.6,35.6c-0.5,0.3-0.9,0.9-1.3,1.3
		c-7.8,0-15.6,0-23.4,0c-1.3-1.4-1.1-3.2-1.1-5c0-16.7,0-33.3,0-50c0-1.7-0.1-3.5,1.1-5c1.6-1.3,3.5-1.1,5.4-1.1
		c19.8,0,39.6,0,59.3,0C299.4,304.9,301.3,304.6,302.8,306.2z"/>
	<path class="st7" d="M233.1,306.1c0,20-0.1,40-0.1,59.9c-24.2,0-48.4,0-72.7,0c7.2-5.6,14.8-10.9,21.1-17.7
		c10.5-11.3,18.8-24.1,24.5-38.5c0.4-1.1,0.6-2.4,0.9-3.6c0.3-0.4,0.7-0.7,1.1-0.8c8.2-0.5,16.4-1,24.6,0.2
		C232.7,305.7,232.9,305.9,233.1,306.1z"/>
	<path class="st8" d="M302.8,138.2c-23.2,0-46.5,0-69.7,0c0-7.1,0-14.1-0.1-21.2c-0.1-2.4,0.9-3,3.1-2.9c3,0.1,5.9,0,8.9,0
		c1.3-1.2,3-1.2,4.6-1.2c9,0,17.9,0,26.9,0c1.6,0,3.3,0,4.6,1.2c9.3,0,18.5,0.1,27.8,0.1c0.6,0.7,0.9,1.5,0.8,2.4
		c-1.1,6.8-2.4,13.5-4.9,20c-0.2,0.6-0.7,1-1.1,1.5C303.3,138.1,303,138.1,302.8,138.2z"/>
	<path class="st8" d="M74.8,306.2c-23.2,0-46.5,0-69.7,0c0-7.1,0-14.1-0.1-21.2c-0.1-2.4,0.9-3,3.1-2.9c3,0.1,5.9,0,8.9,0
		c1.3-1.2,3-1.2,4.6-1.2c9,0,17.9,0,26.9,0c1.6,0,3.3,0,4.6,1.2c7.7,0,15.5,0,23.2,0c1.5-0.7,2.9-1.1,4.4-0.2c0.8,0.8,1,1.7,0.8,2.7
		c-1.1,6.8-2.4,13.6-5,20.1c-0.2,0.6-0.7,1-1.1,1.5C75.3,306.1,75,306.1,74.8,306.2z"/>
	<path class="st9" d="M74.8,54.2c-23.2,0-46.5,0-69.7,0c0-7.1,0-14.1-0.1-21.2c-0.1-2.4,0.9-3,3.1-2.9c3,0.1,5.9,0,8.9,0
		c1.3-1.2,3-1.2,4.6-1.2c9,0,17.9,0,26.9,0c1.6,0,3.3,0,4.6,1.2c9.3,0,18.5,0.1,27.8,0.1c0.2,0.3,0.6,0.6,0.5,1
		c-0.6,8-1.8,15.8-5.9,22.9C75.3,54.1,75,54.1,74.8,54.2z"/>
	<path class="st10" d="M122.8,222.1c-23.2,0-46.4,0-69.7,0c0-7.1,0-14.1-0.2-21.2c-0.1-2.4,0.9-2.9,3-2.8c3,0.1,6,0,8.9,0
		c1.3-1.1,3-1.2,4.6-1.2c9,0,18,0,26.9,0c1.6,0,3.3,0,4.6,1.2c9.2,0,18.5,0.1,27.7,0.1c0.5,0.6,0.8,1.3,0.7,2.1
		c-1.1,7.4-2.3,14.8-5.6,21.6C123.6,222.3,123.2,222.3,122.8,222.1z"/>
	<path class="st11" d="M233,198.1c7.7,0,15.5,0,23.2,0c1.5,0,3,0.1,4.5,0.1c0.3,0.4,0.7,0.8,0.6,1.3c-0.9,7.8-1.8,15.6-5.9,22.6
		c-0.2,0-0.4,0.1-0.7,0.1c-1.5,1.2-3.2,1.1-5,1.1c-19.9,0-39.8,0-59.8,0c-1.7,0-3.5,0.1-5-1c-0.2-0.3-0.6-0.5-0.6-0.9
		c-1-7.4-0.9-14.9-0.1-22.3c0-0.4,0.4-0.6,0.6-0.9c4,0,8-0.1,12-0.1c1.3-1.1,3-1.2,4.6-1.2c9,0,17.9,0,26.9,0
		C230.1,196.9,231.7,196.9,233,198.1z"/>
	<path class="st3" d="M75.5,54.1c2.1-7.9,4.5-15.7,5.3-23.9c2.7,0,5.4-0.1,8.2-0.1c1.3-1.2,3-1.2,4.6-1.2c9,0,17.9,0,26.9,0
		c1.6,0,3.3,0,4.6,1.2c3,0,6,0.1,8.9,0c2.2-0.1,3.1,0.5,3.1,2.9c-0.2,7.1-0.1,14.1-0.2,21.2C116.4,54.1,95.9,54.1,75.5,54.1z"/>
	<path class="st6" d="M185,198.2c0,8,0.1,15.9,0.1,23.9c-0.2,0.2-0.4,0.3-0.6,0.5c-1.8,0.9-3.7,0.7-5.5,0.7c-16.5,0-33,0-49.5,0
		c-2.1,0-4.3,0.4-6.1-1.2c1.8-7.1,4-14,5-21.3c0.1-0.9,0.2-1.7,0.3-2.6c2.7,0,5.4-0.1,8.2-0.1c1.3-1.1,3-1.2,4.6-1.2
		c9,0,18,0,26.9,0c1.6,0,3.3,0,4.6,1.2C177,198.1,181,198.2,185,198.2z"/>
	<path class="st5" d="M364.9,306.1c-20.5,0-40.9-0.1-61.4-0.1c-0.9-1.1-0.6-2.3-0.2-3.5c1.8-5.6,3.1-11.2,4-17
		c0.2-1.2,0.5-2.4,1.5-3.3c2.7-0.1,5.5-0.1,8.2-0.2c1.4-1.1,3-1.1,4.6-1.1c9,0,17.9,0,26.9,0c1.6,0,3.3,0,4.6,1.2c3,0,6,0.1,8.9,0
		c2.2-0.1,3.1,0.5,3.1,2.9C364.9,292,364.9,299.1,364.9,306.1z"/>
	<path class="st12" d="M255.5,222.1c1.9-7.1,4-14,5-21.3c0.1-0.9,0.2-1.7,0.3-2.6c18.8,0,37.5,0,56.3,0c0,8-0.1,16-0.1,23.9
		C296.4,222.1,275.9,222.1,255.5,222.1z"/>
	<path class="st5" d="M303.5,138.1c1.7-6.7,3.9-13.3,4.9-20.2c0.2-1.2,0.3-2.5,0.4-3.7c2.7,0,5.4-0.1,8.2-0.1c1.3-1.2,3-1.2,4.6-1.2
		c9,0,17.9,0,26.9,0c1.6,0,3.3,0,4.6,1.2c3,0,6,0.1,8.9,0c2.2-0.1,3.1,0.5,3.1,2.9c-0.2,7.1-0.1,14.1-0.2,21.2
		C344.4,138.1,323.9,138.1,303.5,138.1z"/>
	<path class="st12" d="M233,198.1c-12,0-24.1,0-36.1,0c0-4,0-8,0.1-11.9c0.2-7,5.1-11.9,12.1-12c8-0.1,15.9,0,23.9,0
		C233,182.1,233,190.1,233,198.1z"/>
	<path class="st13" d="M53.1,282c-12,0-24.1,0-36.1,0c0-4,0-8,0-11.9c0.1-7,5.1-12,12-12c8-0.1,15.9-0.1,23.9-0.1
		C53,266,53,274,53.1,282z"/>
	<path class="st1" d="M353,282.1c-12,0-24.1,0-36.1,0c0.1-8,0.1-16,0.2-24c7.7,0,15.5,0,23.2,0c7.7,0.1,12.6,5,12.6,12.7
		C353,274.6,353,278.3,353,282.1z"/>
	<path class="st3" d="M53,30.1c-12,0-24,0-36.1,0c0-3.9,0-7.7,0-11.6c0.1-7.3,5-12.3,12.2-12.4c3.9-0.1,7.7-0.1,11.6,0
		C48,6.2,52.9,11.2,53,18.5C53,22.3,53,26.2,53,30.1z"/>
	<path class="st2" d="M125,30.1c-12,0-24.1,0-36.1,0c0-3.9,0-7.7,0.1-11.6c0.1-7.3,5-12.2,12.2-12.4c3.9-0.1,7.7-0.1,11.6,0
		c7.2,0.1,12.1,5.1,12.2,12.4C125.1,22.4,125,26.2,125,30.1z"/>
	<path class="st13" d="M281,114.1c-12,0-24,0-36.1,0c0-3.9,0-7.7,0-11.6c0.1-7.3,5-12.3,12.2-12.4c3.9-0.1,7.7-0.1,11.6,0
		c7.2,0.1,12.1,5.1,12.2,12.4C281,106.3,281,110.2,281,114.1z"/>
	<path class="st1" d="M353,114.1c-12,0-24.1,0-36.1,0c0-3.9,0-7.7,0.1-11.6c0.1-7.3,5-12.2,12.2-12.4c3.9-0.1,7.7-0.1,11.6,0
		c7.2,0.1,12.1,5.1,12.2,12.4C353.1,106.3,353,110.2,353,114.1z"/>
	<path class="st6" d="M101.1,198.1c-12,0-24.1,0-36.1,0c0-3.9,0-7.7,0.1-11.6c0.1-7.3,5-12.2,12.2-12.4c3.9-0.1,7.7-0.1,11.6,0
		c7.2,0.1,12.1,5.1,12.2,12.4C101.1,190.3,101,194.2,101.1,198.1z"/>
	<path class="st14" d="M173.1,198.1c-12,0-24.1,0-36.1,0c0-3.9,0-7.7,0.1-11.6c0.1-7.3,5-12.2,12.2-12.4c3.9-0.1,7.7-0.1,11.6,0
		c7.2,0.1,12.1,5.1,12.2,12.4C173.1,190.3,173,194.2,173.1,198.1z"/>
	<path class="st12" d="M185.1,222.1c23.2,0,46.5,0,69.7,0.1c-2.1,8.3-6.2,15.7-10.7,22.9c-8.9,14.4-20.4,26.3-34.6,35.6
		c-0.5,0.3-0.9,0.9-1.3,1.3c-0.2,0.2-0.3,0.5-0.5,0.5c-7.6,1.1-15.3,1.6-22.9-0.3c-1.2-1.6-1-3.6-1-5.4c0-16.5,0-32.9,0-49.4
		c0-1.9-0.2-3.8,1.1-5.4L185.1,222.1z"/>
	<path class="st15" d="M185,282c7.7,0,15.5,0,23.2,0c1.5,0.1,3,0.1,4.5,0.2c0.3,0.4,0.7,0.8,0.7,1.3c-0.9,7.8-1.8,15.6-5.9,22.5
		c-0.2,0-0.5,0.1-0.7,0.1c-23.2,0-46.5,0-69.7,0c0,0-0.2-0.1-0.2-0.1c-0.5-0.6-0.9-1.2-0.9-2c-0.3-6.8-0.4-13.7,0.1-20.5
		c0-0.6,0.4-1.2,0.8-1.7c1.6-1.2,3.6-1,5.4-1c12.5,0,24.9,0,37.4,0C181.5,280.9,183.4,280.7,185,282z"/>
	<path class="st8" d="M308.7,282.2c-0.8,6.8-2.1,13.4-4.3,19.9c-0.4,1.3-0.6,2.6-1,4c-0.2,0-0.4,0.1-0.7,0.1
		c-23.3,0-46.5-0.1-69.8-0.1c0,0-0.1,0.1-0.1,0.1c-0.8-1-1.1-2.2-1.1-3.5c-0.1-5.7-0.1-11.4,0-17.1c0-1.2,0.2-2.5,1.2-3.4
		C258.3,282.2,283.5,282.2,308.7,282.2z"/>
	<path class="st16" d="M233,282.2c0,8-0.1,16-0.1,23.9c-8.5,0-17-0.1-25.5-0.1c1.9-7,4-14,5-21.3c0.1-0.9,0.2-1.7,0.2-2.6
		C219.5,282.2,226.3,282.2,233,282.2z"/>
	<path class="st5" d="M137,282.2c0,8,0,15.9,0,23.9c-20.5,0-41,0-61.5,0c1.7-6.7,3.9-13.3,4.9-20.2c0.2-1.2,0.3-2.5,0.4-3.7
		c1.3-1.5,3.2-1.3,4.9-1.3c15.5,0,31,0,46.4,0C133.8,280.9,135.6,280.7,137,282.2z"/>
	<path class="st14" d="M137,282.2c-18.7,0-37.5,0-56.2,0c-1.5-0.1-3-0.1-4.4-0.2c7.1-5.6,14.6-10.8,20.8-17.4
		c10.6-11.4,19.1-24.2,24.8-38.8c0.4-1.1,0.6-2.4,0.9-3.6c0.2,0,0.5,0,0.7-0.1c20.5,0,40.9,0,61.4,0c0,20,0.1,40,0.1,60
		C169,282.1,153,282.1,137,282.2z"/>
</g>
</svg>
