<?xml version="1.0" encoding="utf-8"?>
<!-- Generator: Adobe Illustrator 23.0.0, SVG Export Plug-In . SVG Version: 6.00 Build 0)  -->
<svg version="1.1" id="Layer_1" xmlns="http://www.w3.org/2000/svg" xmlns:xlink="http://www.w3.org/1999/xlink" x="0px" y="0px"
	 width="53.8px" height="46.1px" viewBox="0 0 53.8 46.1" style="enable-background:new 0 0 53.8 46.1;" xml:space="preserve">
<style type="text/css">
	.st0{fill:#3762CB;}
	.st1{fill:#C5D1EF;}
	.st2{fill:#4671C5;}
	.st3{fill:#DFEAFB;}
	.st4{fill:#6BDCDC;}
	.st5{fill:#A3C8FE;}
	.st6{fill:#4670C5;}
	.st7{fill:#69D9DC;}
	.st8{fill:#DEEAFB;}
	.st9{fill:#A2C7FE;}
	.st10{fill:#F5A5A7;}
	.st11{fill:#F2A4A8;}
	.st12{fill:#D9E5F9;}
	.st13{fill:#DCE7FA;}
	.st14{fill:#DAE6F9;}
	.st15{fill:#DAE6FA;}
	.st16{fill:#4772C6;}
	.st17{fill:#4773C6;}
	.st18{fill:#F8A6A6;}
</style>
<g>
	<path class="st0" d="M53.8,15.9c-0.1,0-0.1,0.2-0.1,0.3c-0.3,1.3-1,2.3-2.1,3c-0.2,0.1-0.3,0.3-0.3,0.5c0,0.6,0.1,1.3-0.5,1.7
		c-0.1,0.1-0.1,0.3-0.1,0.5c0,4.5,0.1,9.1,0,13.6c-0.1,4.5-2.2,7.7-6.3,9.5c-5.9,2.6-12.9-1.3-13.9-7.7c-0.2-1.3-0.2-2.6-0.2-3.9
		c0-0.3-0.1-0.5-0.4-0.6c-0.5-0.2-0.7-0.6-0.7-1.2c0-0.4,0-0.9,0-1.3c0-0.2-0.1-0.3-0.3-0.3c-0.3,0-0.6-0.1-0.9-0.2
		c-0.6-0.2-1-0.6-1.1-1.2c-0.1-0.3-0.2-0.4-0.5-0.6c-4.1-2.2-6.3-5.6-6.4-10.2c-0.1-4.2,0-8.4,0-12.7c0-1.8,1.3-3,3-3
		c0.4,0,0.9,0,1.3,0c0.3,0,0.6,0,0.8-0.3c0-0.1,0.2-0.1,0.3-0.2c0.8,0,1.7-0.2,2.5,0.2c0.8,0.4,1.2,1.3,1,2.2
		c-0.2,0.8-0.9,1.5-1.7,1.6c-0.5,0.1-1,0-1.5,0c-0.2,0-0.4,0-0.5-0.1c-0.5-0.6-1.3-0.2-1.9-0.3c-0.1,0-0.2,0.1-0.2,0.2
		c0,0.1,0,0.2,0,0.3c0,4,0,8,0,12c0,3,1.4,5.3,3.8,7c0.3,0.2,0.5,0.3,0.8,0c0.4-0.3,0.8-0.3,1.2-0.1c1.8,0.6,3.5,0.6,5.3,0
		c0.5-0.2,0.9-0.1,1.3,0.1c0.3,0.2,0.5,0.1,0.7,0c2.4-1.7,3.8-4,3.8-6.9c0.1-4,0-8.1,0-12.1c0-0.4-0.1-0.4-0.4-0.4
		c-0.3,0-0.6,0-0.9,0c-0.3,0-0.6,0-0.7,0.3c0,0-0.1,0-0.1,0.1c-1.2,0.8-3.4-0.1-3.7-1.5c-0.3-1.2,0.6-2.4,1.8-2.5c0.5,0,1,0,1.4,0
		c0.2,0,0.4,0,0.5,0.2c0.2,0.4,0.6,0.3,1,0.3c0.4,0,0.9,0,1.3,0c1.6,0,2.9,1.3,2.9,2.8c0,4.4,0.1,8.8,0,13.2
		c-0.2,4.4-2.5,7.7-6.4,9.8c-0.3,0.1-0.4,0.3-0.5,0.6c-0.2,0.7-0.7,1-1.3,1.2c-1,0.3-1,0.3-1,1.3c0,0.8-0.1,1.5-1,1.8
		c-0.1,0-0.1,0.2-0.1,0.3c0,1.5-0.1,2.9,0.3,4.4c1,3.6,4.3,5.9,8.2,5.6c3.4-0.3,6.4-3.2,6.8-6.7c0-0.4,0-0.7,0-1.1c0-4.5,0-9,0-13.5
		c0-0.3,0-0.5-0.3-0.7c-0.4-0.3-0.3-0.8-0.3-1.3c0-0.3-0.1-0.5-0.4-0.7c-1.7-1-2.5-3.1-1.9-5c0.6-1.9,2.4-3.1,4.5-3
		c1.9,0.1,3.5,1.6,3.9,3.6c0,0.1,0,0.3,0.1,0.4C53.8,15.3,53.8,15.6,53.8,15.9z"/>
	<path class="st1" d="M0.9,37.6C0.9,37.6,0.9,37.6,0.9,37.6c0.3,0.2,0.3,0.3,0.1,0.5c0,0-0.1,0-0.1,0C0.9,37.9,0.9,37.8,0.9,37.6z"
		/>
	<path class="st0" d="M1,38.1c0-0.2,0-0.4,0-0.5c0.1-0.5,0.4-0.8,0.9-0.9c0.2,0,0.3-0.1,0.3-0.3c0-0.4,0-0.9,0-1.3
		c0-5.9,0-11.8,0-17.7c0-1.5,0.5-2,2-2.1c0.2,0,0.3-0.1,0.3-0.3c0-0.2,0-0.4,0-0.6c0-0.5,0.3-0.9,0.9-0.9c0.4,0,0.5-0.2,0.4-0.5
		c0-1.3,0-2.6,0-3.9c0-0.3,0-0.6,0.4-0.6c0.4,0,0.4,0.3,0.4,0.6c0,1.3,0,2.5,0,3.8c0,0.3,0,0.5,0.5,0.5c0.5,0,0.8,0.4,0.8,0.9
		c0,0.2,0,0.4,0,0.6c0,0.3,0.1,0.3,0.4,0.4c1.4,0.1,2,0.7,2,2.1c0,6.3,0,12.5,0,18.8c0,0.4,0,0.6,0.4,0.7c0.5,0.1,0.8,0.7,0.7,1.2
		c-0.1,0.5-0.4,0.9-1,1C9.6,39,8.7,39,7.8,39c-0.4,0-0.5,0.1-0.5,0.5c0,1.2,0,2.5,0,3.7c0,0.4,0.1,0.5,0.5,0.5c0.4,0,0.8,0,1.1,0
		c0.7,0,1.2,0.5,1.2,1.2c0,0.7-0.5,1.2-1.2,1.2c-1.8,0-3.7,0-5.5,0c-0.7,0-1.2-0.5-1.2-1.1c0-0.6,0.5-1.2,1.2-1.2c0.4,0,0.9,0,1.3,0
		c0.3,0,0.4-0.1,0.4-0.3c0-1.3,0-2.7,0-4C5.1,39.1,5,39,4.7,39c-0.8,0-1.6,0-2.4,0C1.6,39,1.2,38.8,1,38.1z"/>
	<path class="st0" d="M13.5,40.6c0-1.3,0-2.5,0-3.8c0-1.2,0.4-2.2,1.2-3c0.2-0.2,0.3-0.4,0.2-0.7c-0.1-0.3-0.3-0.1-0.5-0.2
		c-0.5-0.1-0.9-0.5-0.9-1.1c0-0.5,0-1,0-1.5c0-0.6,0.5-1.1,1.1-1.1c2.5,0,5.1,0,7.6,0c0.7,0,1.1,0.5,1.2,1.1c0,0.5,0,1,0,1.4
		c0,0.7-0.4,1.1-1.1,1.1c-0.4,0-0.5,0.4-0.2,0.7c1.3,1.2,1.4,2.7,1.4,4.3c0,2.1,0,4.3,0,6.4c0,1.1-0.5,1.6-1.6,1.6
		c-2.3,0-4.5,0-6.8,0c-1.1,0-1.5-0.5-1.5-1.6C13.5,43.2,13.5,41.9,13.5,40.6z"/>
	<path class="st2" d="M48.9,29c0-2.4,0-4.8,0-7.1c0-0.3,0-0.5,0.5-0.5c0.4,0,0.5,0.2,0.5,0.5c0,4.7,0,9.3,0,14
		c0,2.2-0.9,4.2-2.5,5.9c-1.4,1.6-3.2,2.5-5.3,2.9c-2.3,0.4-4.4,0-6.4-1.2c-2.3-1.4-3.8-3.4-4.4-6c-0.3-1.4-0.3-2.9-0.3-4.3
		c0-0.4,0.3-0.4,0.5-0.4c0.3,0,0.4,0.1,0.4,0.4c0,0.8,0,1.6,0,2.3c0,2,0.7,3.8,2,5.4c1.4,1.7,3.2,2.7,5.4,2.9
		c2.3,0.3,4.5-0.3,6.4-1.8c1.8-1.5,2.8-3.4,3.2-5.7c0-0.2,0-0.3,0-0.5C48.9,33.6,48.9,31.3,48.9,29z"/>
	<path class="st3" d="M26.8,27.3c-2.4-1.3-4.1-3-5.2-5.4c-0.6-1.3-0.9-2.6-0.9-4.1c0-4.2,0-8.4,0-12.7c0-1.3,0.9-2.2,2.2-2.2
		c0.5,0,1,0,1.5,0c0.3,0,0.4,0.1,0.4,0.4c0,1.1,0,1.1-1,1.1c-1.6,0-1.6,0-1.6,1.6c0,3.8,0,7.6,0,11.4c0,3.4,1.4,6.1,4.3,8
		c0.2,0.1,0.3,0.3,0.3,0.6C26.8,26.4,26.8,26.8,26.8,27.3z"/>
	<path class="st3" d="M36.3,27.2c0-0.5,0-0.9-0.1-1.3c0-0.3,0.2-0.3,0.3-0.4c2.1-1.4,3.4-3.3,4-5.7c0.2-0.7,0.2-1.5,0.3-2.2
		c0-4,0-8.1,0-12.1c0-0.8-0.2-1-1-1c-0.3,0-0.6,0-0.8,0c-0.8,0-0.8,0-0.8-0.8c0-0.8-0.1-0.7,0.7-0.7c0.4,0,0.8,0,1.2,0
		c1.3,0,2.2,0.9,2.2,2.2c0,3,0,6,0,9c0,1.6,0.1,3.2-0.1,4.7c-0.5,3.7-2.5,6.4-5.7,8.2C36.5,27.2,36.4,27.2,36.3,27.2z"/>
	<path class="st4" d="M31.5,32c-1.7,0-1.5,0.2-1.5-1.6c0-1.3,0.1-1.1-1.1-1.4c-0.2,0-0.4-0.1-0.6-0.2c-0.5-0.1-0.7-0.4-0.7-0.9
		c0-0.6,0-1.3,0-1.9c0-0.7,0.5-1,1.1-0.8c1.9,0.6,3.7,0.6,5.6,0c0.6-0.2,1,0.1,1.1,0.7c0.1,0.7,0.1,1.4,0,2.1c0,0.4-0.3,0.7-0.7,0.8
		c-0.4,0.1-0.7,0.2-1.1,0.3c-0.5,0.1-0.6,0.3-0.6,0.7c0,0.5,0,1,0,1.4c0,0.5-0.2,0.7-0.7,0.6C32.1,32,31.8,32,31.5,32z"/>
	<path class="st5" d="M49.4,11.9c2,0,3.5,1.5,3.5,3.5c0,2-1.5,3.5-3.5,3.5c-1.9,0-3.4-1.6-3.4-3.5C45.9,13.4,47.5,11.9,49.4,11.9z"
		/>
	<path class="st6" d="M37.5,3.7c0,0.1,0,0.2,0,0.4c0,0.9,0,1-0.9,0.9c-0.6,0-1.1-0.1-1.4-0.8c-0.3-0.8,0.2-1.6,1.1-1.7
		C37.5,2.3,37.5,2.3,37.5,3.7z"/>
	<path class="st2" d="M25.7,3.7c0-0.1,0-0.2,0-0.3c0.1-0.3-0.4-0.9,0.3-1c1.2-0.2,1.9,0.2,2,1c0.1,0.7-0.3,1.2-0.9,1.4
		C25.8,5.2,25.7,5.1,25.7,3.7z"/>
	<path class="st7" d="M49.4,20.5c-0.2,0-0.4,0-0.6,0c-0.3,0-0.5-0.1-0.5-0.4c0-0.4,0.1-0.5,0.5-0.4c0.4,0.1,0.9,0.1,1.3,0
		c0.2,0,0.4-0.1,0.4,0.2c0,0.2,0.2,0.6-0.3,0.6C49.9,20.5,49.7,20.5,49.4,20.5C49.4,20.5,49.4,20.5,49.4,20.5z"/>
	<path class="st4" d="M8.8,36.6c-1.8,0-3.5,0-5.3,0c-0.2-0.2-0.2-0.4-0.2-0.7c0-6,0-12.1,0-18.1c0-1.1,0.3-1.4,1.4-1.4c1,0,2,0,3,0
		c0.6,0,0.8,0.2,1,0.7c0,0.3-0.3,0.2-0.5,0.3c-0.2,0-0.4,0.1-0.4,0.3C8,17.9,8.2,18,8.4,18c0.2,0,0.4,0,0.5,0.2
		C9,19,9,19.7,8.9,20.4c-0.1,0.1-0.2,0.2-0.3,0.2c-0.2,0.1-0.6,0-0.6,0.3c0,0.4,0.4,0.2,0.6,0.3c0.1,0,0.2,0.1,0.3,0.2
		c0.2,0.5,0.1,1,0.1,1.5c0,0.4,0.1,0.7,0.4,0.9c0,0,0,0,0,0.1c-0.3,0.3-0.6,0.1-1,0.2c-0.2,0-0.4,0-0.4,0.2c0,0.2,0.2,0.2,0.4,0.3
		c0.2,0,0.3,0,0.5,0.2c0.2,0.5,0.1,1,0.1,1.5c0,0.4,0.1,0.7,0.4,0.8c0,0,0,0,0,0.1c-0.2,0.3-0.6,0.1-0.9,0.2c-0.2,0-0.5-0.1-0.5,0.2
		c0,0.3,0.3,0.2,0.5,0.3c0.2,0,0.3,0,0.4,0.2c0.1,0.8,0.1,1.6,0,2.3c-0.1,0.1-0.2,0.2-0.3,0.2C8.4,30.4,8,30.3,8,30.6
		c0,0.3,0.4,0.2,0.6,0.3c0.1,0,0.2,0.1,0.3,0.2c0.1,0.8,0.1,1.6,0,2.3c-0.1,0.3-0.4,0.2-0.6,0.2c-0.1,0-0.2,0.1-0.2,0.2
		C8.1,34,8.2,34,8.3,34c0.2,0,0.5,0,0.7,0c0.1,0,0.4,0,0.3,0.3C9.1,34.5,9,34.7,9,35c0,0.4,0,0.7,0,1.1C9,36.3,9,36.5,8.8,36.6z"/>
	<path class="st8" d="M8.8,17.3c-0.1-0.5-0.4-0.7-0.9-0.7c-1.2,0-2.3,0-3.5,0c-0.6,0-0.8,0.2-0.9,0.8c0,0.2,0,0.3,0,0.5
		c0,6.2,0,12.5,0,18.7c-0.5,0.1-0.6-0.1-0.6-0.6c0-6.2,0-12.4,0-18.5c0-0.2,0-0.4,0-0.6C3,16.3,3.3,16,3.9,16c1.5,0,3.1,0,4.6,0
		c0.7,0,0.9,0.4,0.9,1.3C9.2,17.5,9,17.5,8.8,17.3z"/>
	<path class="st9" d="M6.2,37.5c1.3,0,2.5,0,3.8,0c0.2,0,0.5,0,0.5,0.3c0,0.4-0.3,0.4-0.5,0.4c-2.6,0-5.2,0-7.7,0
		c-0.3,0-0.5,0-0.5-0.4c0-0.3,0.3-0.3,0.5-0.3C3.6,37.5,4.9,37.5,6.2,37.5C6.2,37.5,6.2,37.5,6.2,37.5z"/>
	<path class="st10" d="M6.2,45.2c-0.8,0-1.7,0-2.5,0c-0.3,0-0.6,0-0.6-0.4c0-0.3,0.3-0.3,0.5-0.3c1.7,0,3.4,0,5.2,0
		c0.3,0,0.5,0,0.5,0.3c0,0.4-0.3,0.4-0.6,0.4C7.9,45.2,7,45.2,6.2,45.2C6.2,45.2,6.2,45.2,6.2,45.2z"/>
	<path class="st11" d="M5.9,41.3c0-0.6,0-1.3,0-1.9c0-0.2,0-0.4,0.3-0.4c0.3,0,0.3,0.2,0.3,0.4c0,1.3,0,2.6,0,3.9
		c0,0.2,0.1,0.4-0.3,0.4c-0.4,0-0.3-0.2-0.3-0.4C5.9,42.6,5.9,41.9,5.9,41.3C5.9,41.3,5.9,41.3,5.9,41.3z"/>
	<path class="st3" d="M6.2,15.2c-0.1,0-0.2,0-0.3,0c-0.5,0-0.7-0.3-0.6-0.8c0.1-0.2,0.2-0.2,0.3-0.2c0.3,0,0.6,0,0.9,0
		c0.5,0,0.7,0.3,0.6,0.8c0,0.2-0.1,0.2-0.3,0.2C6.6,15.2,6.4,15.2,6.2,15.2z"/>
	<path class="st12" d="M8.8,30.2c0-0.8,0-1.6,0-2.4c0.2-0.2,0.4-0.2,0.6,0.1c0,0.7,0,1.5,0,2.2C9.3,30.4,9.1,30.4,8.8,30.2z"/>
	<path class="st12" d="M8.8,33.4c0-0.8,0-1.6,0-2.4c0.2-0.2,0.4-0.2,0.6,0.1c0,0.7,0,1.5,0,2.2C9.3,33.6,9.1,33.6,8.8,33.4z"/>
	<path class="st13" d="M8.8,20.5c0-0.8,0-1.6,0-2.4C9,18,9.2,18,9.4,18.2c0,0.8,0,1.6,0,2.3C9.2,20.7,9,20.7,8.8,20.5z"/>
	<path class="st14" d="M9.4,26.9c-0.5,0.1-0.6-0.1-0.6-0.6c0-0.6,0-1.2,0-1.8c0.2-0.2,0.4-0.2,0.6,0C9.4,25.4,9.4,26.2,9.4,26.9z"/>
	<path class="st15" d="M9.4,23.7c-0.5,0.1-0.6-0.1-0.6-0.6c0-0.6,0-1.2,0-1.8c0.2-0.2,0.4-0.2,0.6,0C9.4,22.2,9.4,22.9,9.4,23.7z"/>
	<path class="st12" d="M8.8,36.6c0-0.6,0-1.2,0-1.9c0-0.4,0.1-0.6,0.5-0.5c0.1,0,0.1,0,0.1,0.1c0,0.6,0,1.2,0,1.8
		C9.5,36.6,9.3,36.7,8.8,36.6z"/>
	<path class="st16" d="M9.4,18.2c-0.2,0-0.4,0-0.6,0c-0.2,0-0.4,0-0.6,0c-0.3,0-0.4-0.1-0.5-0.4c0-0.3,0.2-0.4,0.4-0.4
		c0.2,0,0.4,0,0.6,0c0.2,0,0.4,0,0.6,0C9.4,17.6,9.4,17.9,9.4,18.2z"/>
	<path class="st17" d="M9.4,21.4c-0.2,0-0.4,0-0.6,0c-0.2,0-0.3,0-0.5,0c-0.3,0-0.5-0.1-0.5-0.4c0-0.3,0.3-0.4,0.5-0.4
		c0.2,0,0.3,0,0.5,0c0.2,0,0.4,0,0.6,0C9.4,20.8,9.4,21.1,9.4,21.4z"/>
	<path class="st2" d="M9.4,31.1C9.3,30.9,9,31,8.8,31c-0.2,0-0.5,0-0.7,0c-0.2,0-0.3-0.1-0.3-0.3c0-0.2,0.1-0.4,0.3-0.4
		c0.2,0,0.5,0,0.7,0c0.2,0,0.4,0.1,0.6-0.1C9.4,30.4,9.4,30.8,9.4,31.1z"/>
	<path class="st2" d="M9.4,27.9c-0.2-0.2-0.4-0.1-0.6-0.1c-0.2,0-0.4,0-0.6,0c-0.3,0-0.4-0.1-0.4-0.4C7.8,27.1,8,27,8.2,27
		c0.4,0,0.8,0,1.2,0C9.4,27.3,9.4,27.6,9.4,27.9z"/>
	<path class="st16" d="M9.4,34.3c0,0-0.1,0-0.1-0.1c-0.4-0.1-0.7,0-1.1-0.1c-0.2,0-0.4-0.1-0.4-0.3c0-0.3,0.2-0.4,0.4-0.4
		c0.2,0,0.4,0,0.6,0c0.2,0,0.4,0.1,0.6-0.1C9.4,33.6,9.4,34,9.4,34.3z"/>
	<path class="st2" d="M9.4,24.6c-0.2,0-0.4,0-0.6,0c-0.2,0-0.4,0-0.7,0c-0.2,0-0.4-0.2-0.4-0.4c0-0.2,0.2-0.3,0.4-0.3
		c0.4,0,0.8,0,1.2,0C9.4,24.1,9.4,24.3,9.4,24.6z"/>
	<path class="st18" d="M18.4,42.5c-1.2,0-2.4,0-3.7,0c-0.3,0-0.4-0.1-0.4-0.4c0-1.3,0-2.6,0-3.9c0-0.3,0.1-0.4,0.4-0.4
		c2.5,0,5,0,7.5,0c0.3,0,0.4,0.1,0.4,0.4c0,1.3,0,2.6,0,3.9c0,0.3-0.1,0.4-0.4,0.4C20.9,42.5,19.6,42.5,18.4,42.5z"/>
	<path class="st2" d="M18.4,37c-1.2,0-2.4,0-3.6,0c-0.5,0-0.6-0.2-0.5-0.6c0.2-0.7,0.4-1.4,1-1.9c0.3-0.3,0.5-0.6,0.4-1
		c-0.1-0.3,0.1-0.4,0.4-0.4c1.5,0,3,0,4.5,0c0.4,0,0.5,0.1,0.5,0.5c0,0.4,0.1,0.6,0.4,0.9c0.7,0.5,0.9,1.3,1.1,2.1
		c0.1,0.3-0.1,0.5-0.4,0.5C20.9,36.9,19.7,37,18.4,37z"/>
	<path class="st5" d="M18.4,32.2c-1.2,0-2.4,0-3.6,0c-0.4,0-0.6-0.1-0.6-0.6c0-0.4,0-0.7,0-1.1c0-0.3,0.1-0.4,0.4-0.4
		c2.4,0,4.9,0,7.3,0c0.4,0,0.5,0.2,0.5,0.5c0,0.3,0,0.7,0,1c0,0.4-0.2,0.5-0.6,0.5C20.8,32.2,19.6,32.2,18.4,32.2z"/>
	<path class="st2" d="M18.4,45.2c-1.1,0-2.3,0-3.4,0c-0.6,0-0.7-0.1-0.7-0.7c0-1.2,0-1.2,1.2-1.2c2.2,0,4.3,0,6.5,0
		c0.4,0,0.6,0.1,0.6,0.5c0,1.4,0,1.4-1.4,1.4C20.3,45.2,19.4,45.2,18.4,45.2z"/>
	<path class="st0" d="M49.4,13.1c1.3,0,2.3,1,2.3,2.3c0,1.3-1.1,2.3-2.3,2.3c-1.3,0-2.3-1.1-2.3-2.4C47.1,14.1,48.2,13.1,49.4,13.1z
		"/>
	<path class="st3" d="M49.4,13.9c0.8,0,1.5,0.7,1.5,1.5c0,0.8-0.7,1.5-1.5,1.5c-0.8,0-1.5-0.7-1.5-1.5
		C47.9,14.6,48.6,13.9,49.4,13.9z"/>
</g>
</svg>
