<?xml version="1.0" encoding="utf-8"?>
<!-- Generator: Adobe Illustrator 23.0.0, SVG Export Plug-In . SVG Version: 6.00 Build 0)  -->
<svg version="1.1" id="Layer_1" xmlns="http://www.w3.org/2000/svg" xmlns:xlink="http://www.w3.org/1999/xlink" x="0px" y="0px"
	 width="49.2px" height="48.4px" viewBox="0 0 49.2 48.4" style="enable-background:new 0 0 49.2 48.4;" xml:space="preserve">
<style type="text/css">
	.st0{fill:#CBCFD9;}
	.st1{fill:#4D87A8;}
	.st2{fill:#295474;}
	.st3{fill:#88909F;}
	.st4{fill:#F4AA01;}
	.st5{fill:#FEFEFE;}
	.st6{fill:#79808E;}
	.st7{fill:#FBC00A;}
	.st8{fill:#346D91;}
	.st9{fill:#2E5979;}
	.st10{fill:#8991A0;}
	.st11{fill:#31B691;}
	.st12{fill:#F9A016;}
	.st13{fill:#D82A36;}
	.st14{fill:#1C3B4F;}
	.st15{fill:#37CAA0;}
	.st16{fill:#1C3C4F;}
	.st17{fill:#1D4052;}
	.st18{fill:#FBC930;}
	.st19{fill:#3FD9B0;}
</style>
<g>
	<path class="st0" d="M35.6,0c0.3,0.2,0.7,0.2,1,0.4c1.2,0.6,1.8,1.6,1.8,3c0,1.1,0,2.3,0,3.4c-0.1,0-0.1,0-0.2,0
		c-6.6,0-13.3,0-19.9,0c-5.8,0-11.6,0-17.5,0C0.6,6.8,0.3,6.8,0,6.6c0-1.3,0-2.7,0-4C0.2,1.4,1.3,0.1,2.8,0C13.8,0,24.7,0,35.6,0z"
		/>
	<path class="st1" d="M0,6.6c0.2,0,0.3,0,0.5,0c12.4,0,24.8,0,37.2,0c0.2,0,0.4-0.1,0.6,0.1c-0.3,0.2-0.6,0.2-0.9,0.2
		c-5.1,0-10.2,0-15.2,0c-3.1,0-6.3,0-9.4,0c-0.1,0-0.3,0-0.4,0c-0.4,0-0.6,0.1-0.5,0.5c0,0.2,0,0.3,0,0.5c0,6.3,0,12.6,0,18.8
		c0,0.3,0.1,0.6-0.1,0.9c-0.2,0.2-0.4,0.1-0.7,0.1c-3.5,0-6.9,0-10.4,0c-0.2,0-0.5,0-0.7-0.2C0,20.6,0,13.6,0,6.6z"/>
	<path class="st2" d="M0,27.6c3.9,0,7.8,0,11.7,0c0.2-0.2,0.4-0.1,0.6-0.1c5.4,0,10.8,0,16.1,0c0.2,0,0.4,0,0.6,0.1
		c0.2,0.1,0.1,0.3,0,0.4c-0.2,0.1-0.4,0.2-0.6,0.3c-2,1-4.1,1.9-6.1,2.8c-0.8,0.4-1.6,0.8-2.4,1.1c-0.2,0.1-0.5,0.2-0.7,0.4
		c-0.9,0.5-0.9,1.5-0.1,2.1c1.3,0.8,2.6,1.7,3.9,2.5c0.5,0.3,1,0.7,1.6,1c0.1,0.1,0.3,0.2,0.3,0.4c-2.5,0-4.9,0-7.4,0
		c-4.6,0-9.3,0-13.9,0c-1.9,0-3-0.8-3.6-2.6c0,0,0,0-0.1-0.1C0,33.1,0,30.3,0,27.6z"/>
	<path class="st3" d="M24.9,38.4c-0.5-0.5-1.2-0.8-1.8-1.2c-1.3-0.9-2.7-1.7-4-2.6c-0.4-0.3-0.7-0.7-0.7-1.2c0-0.6,0.3-1,0.9-1.2
		c3.1-1.5,6.3-2.9,9.4-4.4c0.2-0.1,0.3-0.2,0.5-0.3c0.1-0.2,0.3-0.3,0.4-0.3c0.8-0.4,1.6-0.7,2.4-1.1c0.9-0.5,1.8-0.5,2.8,0
		c1,0.5,1.9,0.9,2.9,1.4c0.2,0.2,0.5,0.2,0.7,0.4c0.7,0.4,1.5,0.7,2.2,1.1c2.2,1,4.4,2.1,6.7,3.1c0.5,0.2,0.9,0.5,1.2,1
		c0,0.3,0,0.5,0,0.8c-0.1,0.5-0.4,0.7-0.8,0.9c-0.4,0.3-0.9,0.6-1.3,0.8c-0.1,0.1-0.3,0.2-0.4,0.2c-1.2,0.8-2.5,1.6-3.7,2.4
		c-0.1,0.1-0.3,0.2-0.4,0.3c-0.2-0.1-0.2-0.3-0.1-0.5c0.1-0.7-0.3-1.1-0.9-1.4c-0.6-0.4-1.3-0.6-2-0.7c-1.5-0.4-3-0.5-4.5-0.6
		c-1.9,0-3.8,0-5.7,0.5c-0.8,0.2-1.7,0.4-2.4,0.8c-0.6,0.3-1,0.7-0.9,1.4c0,0.2,0,0.4-0.1,0.5C25,38.5,25,38.5,24.9,38.4z"/>
	<path class="st4" d="M48.5,42.2c-0.2,0.3-0.4,0.7-0.7,0.9c-0.8,0.5-1.8,0.4-2.3-0.4c-0.6-0.8-0.3-1.8,0.6-2.4
		c0.2-0.2,0.4-0.2,0.6-0.3c0.1,0,0.3,0,0.4,0c0.2,0,0.3,0.1,0.5,0.1c0.5,0.3,0.9,0.6,1,1.2C48.5,41.7,48.5,42,48.5,42.2z"/>
	<path class="st5" d="M2.8,0C2.4,0.2,1.9,0.3,1.5,0.5C0.9,1,0.4,1.6,0.2,2.3c0,0.1,0,0.3-0.2,0.3c0-0.8,0-1.6,0-2.4C0,0,0,0,0.3,0
		C1.1,0,2,0,2.8,0z"/>
	<path class="st6" d="M25.1,38.5c0-0.2,0-0.4,0-0.6c-0.1-0.7,0.3-1.1,0.9-1.4c1.3-0.7,2.8-1,4.2-1.2c1.5-0.2,3.1-0.2,4.6-0.2
		c1.9,0.1,3.8,0.3,5.6,1.1c0.2,0.1,0.5,0.2,0.7,0.4c0.4,0.3,0.7,0.7,0.6,1.3c0,0.2,0,0.3,0,0.5c0,2.4,0,4.8,0,7.2
		c-0.1,0-0.2,0-0.2-0.1c-0.8-0.9-1.9-1.2-3-1.4c-2.3-0.5-4.6-0.7-7-0.5c-1.5,0.1-3,0.3-4.5,0.8c-0.7,0.2-1.3,0.5-1.7,1
		c-0.1,0.1-0.2,0.2-0.3,0.1C25.1,43.3,25.1,40.9,25.1,38.5z"/>
	<path class="st3" d="M25.1,45.6c0.4-0.6,1-0.9,1.7-1.2c1.5-0.6,3.1-0.8,4.7-0.9c1-0.1,2-0.1,2.9-0.1c2,0.1,3.9,0.3,5.8,1
		c0.6,0.3,1.2,0.6,1.6,1.1c0.2,0.6-0.2,1-0.6,1.3c-0.6,0.4-1.3,0.7-2,0.9c-2.5,0.6-5,0.8-7.5,0.6c-1.7-0.1-3.4-0.3-5-1
		c-0.4-0.1-0.7-0.3-1-0.5C25.2,46.6,25,46.2,25.1,45.6z"/>
	<path class="st7" d="M47.6,34.8c0,1.8,0,3.5,0,5.3c0,0.1,0,0.2-0.1,0.2c-0.2,0-0.3,0-0.5-0.1c-0.2-0.1-0.3-0.1-0.5,0
		c-0.2,0.1-0.4,0.1-0.6,0.2c0-1.3,0-2.6,0-3.8c0-0.2,0-0.4,0-0.7C46.5,35.5,47.1,35.1,47.6,34.8z"/>
	<path class="st8" d="M37.7,27.6c-1-0.5-2-0.9-3-1.4c-0.9-0.4-1.7-0.4-2.6,0c-1,0.5-2,0.9-3,1.4c-0.2-0.2-0.4-0.1-0.5-0.1
		c-5.6,0-11.3,0-16.9,0c0-6.7,0-13.5,0-20.2c0-0.6,0-0.6,0.6-0.6c8.5,0,16.9,0,25.4,0c0.2,0,0.4,0,0.6,0c0,0,0.1,0,0.1,0
		c0,6.9,0,13.8,0,20.7c0,0,0,0.1,0,0.1C38.2,27.8,37.9,27.6,37.7,27.6z"/>
	<path class="st9" d="M37.7,27.6c0.2-0.2,0.5,0,0.7-0.1c0,0.1,0,0.3,0,0.4C38.2,27.9,37.9,27.8,37.7,27.6z"/>
	<path class="st10" d="M32.6,4.2c-0.8,0-1.6,0-2.4,0c-0.5,0-0.9-0.3-0.9-0.8c0-0.5,0.2-0.7,0.8-0.9c0.3-0.1,0.6-0.1,0.8-0.1
		c1.3,0,2.5,0,3.8,0c0.2,0,0.4,0,0.6,0.1C35.7,2.7,36,3,35.9,3.4c-0.1,0.4-0.4,0.7-0.8,0.7C34.3,4.2,33.4,4.2,32.6,4.2z"/>
	<path class="st11" d="M12.1,4.2c-0.2,0-0.3,0-0.5,0c-0.4-0.1-0.7-0.3-0.7-0.7c-0.1-0.4,0.2-0.8,0.6-0.9c0.4-0.1,0.8-0.1,1.2,0
		c0.5,0.1,0.7,0.4,0.7,0.9c0,0.4-0.4,0.7-0.8,0.7C12.4,4.2,12.3,4.2,12.1,4.2C12.1,4.2,12.1,4.2,12.1,4.2z"/>
	<path class="st12" d="M7.9,4.2c-0.2,0-0.3,0-0.5,0C7,4.1,6.7,3.8,6.7,3.4c0-0.4,0.2-0.7,0.6-0.8c0.4-0.1,0.8-0.1,1.2,0
		C9,2.6,9.2,3,9.2,3.4c0,0.4-0.3,0.7-0.7,0.8C8.3,4.2,8.1,4.2,7.9,4.2C7.9,4.2,7.9,4.2,7.9,4.2z"/>
	<path class="st13" d="M3.8,4.2c-0.2,0-0.3,0-0.5,0C2.8,4.1,2.6,3.8,2.5,3.4c0-0.4,0.2-0.8,0.6-0.9c0.4-0.1,0.8-0.1,1.1,0
		C4.7,2.6,5,2.9,5,3.4c0,0.4-0.4,0.8-0.8,0.8C4,4.2,3.9,4.2,3.8,4.2C3.8,4.2,3.8,4.2,3.8,4.2z"/>
	<path class="st14" d="M5.9,18.4c-0.8,0-1.7,0-2.5,0c-0.5,0-0.8-0.3-0.8-0.8c0-0.5,0.3-0.8,0.8-0.8c0.8,0,1.7,0,2.5,0
		C6.1,17.3,6.1,17.8,5.9,18.4z"/>
	<path class="st14" d="M5.9,11.7c0.8,0,1.6,0,2.4,0c0.6,0,0.9,0.3,0.9,0.8c0,0.5-0.4,0.8-0.9,0.8c-0.8,0-1.6,0-2.4,0
		C5.6,12.8,5.6,12.3,5.9,11.7z"/>
	<path class="st14" d="M5.9,21.8c0.8,0,1.6,0,2.4,0c0.6,0,0.9,0.3,0.9,0.8c0,0.5-0.3,0.8-0.9,0.8c-0.8,0-1.6,0-2.4,0
		C5.6,22.9,5.6,22.3,5.9,21.8z"/>
	<path class="st15" d="M5.9,21.8c0,0.5,0,1.1,0,1.6C5.7,24,5.4,24.3,5,24.2c-0.4,0-0.7-0.3-0.8-0.9c-0.2-0.5-0.2-1.1,0-1.6
		c0.1-0.6,0.4-0.9,0.9-0.8C5.5,20.9,5.8,21.2,5.9,21.8z"/>
	<path class="st15" d="M5.9,11.7c0,0.5,0,1.1,0,1.6C5.7,14,5.4,14.2,5,14.2c-0.4,0-0.7-0.3-0.8-0.8c-0.2-0.5-0.2-1.1,0-1.6
		c0.1-0.6,0.4-0.8,0.8-0.8C5.5,10.9,5.8,11.2,5.9,11.7z"/>
	<path class="st15" d="M5.9,18.4c0-0.5,0-1.1,0-1.6c0.1-0.6,0.3-0.9,0.9-0.9c0.5,0,0.7,0.3,0.7,0.9c0,0.5,0,0.9,0,1.4
		c0,0.6-0.2,0.9-0.7,1C6.3,19.3,5.9,18.9,5.9,18.4z"/>
	<path class="st14" d="M4.2,11.7c0,0.5,0,1.1,0,1.6c-0.3,0-0.5,0-0.8,0c-0.5,0-0.8-0.3-0.8-0.8c0-0.5,0.3-0.8,0.8-0.8
		C3.6,11.7,3.9,11.7,4.2,11.7z"/>
	<path class="st14" d="M4.2,21.8c0,0.5,0,1.1,0,1.6c-0.3,0-0.5,0-0.8,0c-0.5,0-0.8-0.3-0.8-0.8c0-0.5,0.3-0.8,0.8-0.8
		C3.6,21.8,3.9,21.8,4.2,21.8z"/>
	<path class="st16" d="M8.2,16.7c0.7,0,1,0.3,1,0.8c0,0.5-0.4,0.8-1,0.8c-0.6,0-0.6,0-0.6-0.6c0-0.1,0-0.3,0-0.4
		C7.6,16.7,7.6,16.7,8.2,16.7z"/>
	<path class="st14" d="M15.1,34.1c0,0.3,0,0.7,0,1c0,0.5-0.4,0.9-0.8,0.9c-0.4,0-0.8-0.4-0.8-0.9c0-0.7,0-1.4,0-2.1
		c0-0.2,0.1-0.3,0.3-0.3c0.4,0,0.7,0,1.1,0c0.3,0,0.3,0.1,0.3,0.3C15.1,33.4,15.1,33.7,15.1,34.1z"/>
	<path class="st15" d="M8.3,34.3c-0.4-0.1-0.8-0.3-0.8-0.8c0-0.5,0.3-0.8,0.8-0.9c0.6-0.2,1.1-0.2,1.7,0c0.7,0.2,1,0.7,0.7,1.2
		c-0.1,0.3-0.4,0.4-0.7,0.5C9.5,34.5,8.9,34.5,8.3,34.3z"/>
	<path class="st15" d="M3.4,33.4c-0.4,0-0.7-0.2-0.8-0.6c-0.1-0.3-0.1-0.7,0.2-0.9c0.3-0.2,2.5-0.3,2.7,0c0.2,0.2,0.4,0.5,0.3,0.8
		c-0.1,0.4-0.4,0.6-0.8,0.7C4.5,33.7,3.9,33.7,3.4,33.4z"/>
	<path class="st15" d="M14.2,31c0.3,0,0.5,0,0.8,0c0.5,0,0.9,0.4,0.9,0.8c0,0.4-0.4,0.8-0.8,0.8c-0.6,0-1.1,0-1.7,0
		c-0.5,0-0.8-0.3-0.8-0.8c0-0.5,0.3-0.8,0.8-0.8C13.7,31,13.9,31,14.2,31z"/>
	<path class="st14" d="M3.4,33.4c0.5,0,1.1,0,1.6,0c0,0.5,0,1,0,1.6C5,35.6,4.7,36,4.2,36c-0.4,0-0.9-0.5-0.8-1
		C3.3,34.5,3.2,34,3.4,33.4z"/>
	<path class="st14" d="M10,32.6c-0.6,0-1.1,0-1.7,0c0-0.5,0-1,0-1.5c0-0.6,0.4-1,0.9-1c0.5,0,0.8,0.4,0.8,1C10,31.6,10,32.1,10,32.6
		z"/>
	<path class="st14" d="M8.3,34.3c0.6,0,1.1,0,1.7,0c0,0.3,0,0.5,0,0.8c0,0.5-0.4,0.9-0.9,0.9c-0.4,0-0.8-0.4-0.8-0.9
		C8.3,34.8,8.3,34.6,8.3,34.3z"/>
	<path class="st14" d="M4.1,31.7C4.1,31.7,4.1,31.7,4.1,31.7c-0.4-0.1-0.8,0.3-0.8-0.4c0-0.8,0.3-1.2,0.8-1.2c0.4,0,0.8,0.3,0.9,0.8
		C5.1,31.7,5.1,31.7,4.1,31.7z"/>
	<path class="st17" d="M14.2,30.9c-0.2,0-0.3,0-0.5,0c-0.1,0-0.3,0.1-0.3-0.1c0-0.1,0.1-0.2,0.1-0.3c0.4-0.5,1-0.4,1.3,0
		c0.1,0.1,0.2,0.2,0.1,0.3c-0.1,0.1-0.2,0.1-0.3,0.1C14.5,30.9,14.4,30.9,14.2,30.9z"/>
	<path class="st18" d="M46.6,40.2c0.2-0.1,0.3-0.1,0.5,0C46.9,40.2,46.8,40.2,46.6,40.2z"/>
	<path class="st19" d="M22.5,17.2c0,2.1,0,4.1,0,6.2c0,0.5-0.2,0.7-0.6,0.8c-0.4,0.1-0.7-0.1-0.9-0.4c-0.1-0.2-0.1-0.3-0.1-0.5
		c0-4.1,0-8.3,0-12.4c0-0.6,0.3-0.9,0.8-0.9c0.5,0,0.8,0.3,0.8,0.9C22.6,13,22.5,15.1,22.5,17.2z"/>
	<path class="st19" d="M24.2,17.1c0-1.8,0-3.5,0-5.3c0-0.4,0.1-0.7,0.5-0.9c0.3-0.1,0.6-0.1,0.9,0.1c0.2,0.2,0.3,0.5,0.3,0.8
		c0,3.5,0,7.1,0,10.6c0,0.6-0.4,1-0.9,1c-0.5,0-0.8-0.4-0.8-1C24.2,20.6,24.2,18.9,24.2,17.1z"/>
	<path class="st19" d="M29.3,17.1c0,0.9,0,1.9,0,2.8c0,0.6-0.4,1-0.8,1c-0.5,0-0.8-0.4-0.8-1c0-1.8,0-3.7,0-5.5c0-0.6,0.4-1,0.8-1
		c0.5,0,0.9,0.4,0.9,1C29.3,15.3,29.3,16.2,29.3,17.1z"/>
	<path class="st19" d="M19.2,17.1c0,0.9,0,1.8,0,2.7c0,0.6-0.3,1-0.8,1c-0.5,0-0.9-0.4-0.9-1c0-0.9,0-1.8,0-2.6c0-0.9,0-1.9,0-2.8
		c0-0.8,0.6-1.2,1.2-1c0.4,0.2,0.5,0.5,0.5,0.9C19.2,15.3,19.2,16.2,19.2,17.1z"/>
	<path class="st19" d="M32.6,17.1c0,0.7,0,1.4,0,2c0,0.5-0.4,0.9-0.8,0.9c-0.5,0-0.8-0.4-0.8-0.9c0-1.4,0-2.7,0-4.1
		c0-0.5,0.3-0.9,0.8-0.9c0.4,0,0.8,0.4,0.8,0.9C32.6,15.8,32.6,16.5,32.6,17.1z"/>
	<path class="st19" d="M14.2,17.1c0-0.4,0-0.8,0-1.2c0-0.5,0.3-0.9,0.8-0.9c0.5,0,0.9,0.3,0.9,0.8c0,0.8,0,1.7,0,2.5
		c0,0.5-0.4,0.8-0.9,0.8c-0.5,0-0.8-0.4-0.8-0.9C14.2,17.9,14.2,17.5,14.2,17.1z"/>
	<path class="st19" d="M36,17.2c0,0.3,0,0.6-0.3,0.9c-0.2,0.2-0.4,0.2-0.6,0.2c-0.6,0-0.8-0.4-0.8-1.4c0-0.7,0.2-1.1,0.8-1.1
		C35.7,15.9,36,16.3,36,17.2z"/>
</g>
</svg>
