<?xml version="1.0" standalone="no"?><!DOCTYPE svg PUBLIC "-//W3C//DTD SVG 1.1//EN" "http://www.w3.org/Graphics/SVG/1.1/DTD/svg11.dtd"><svg t="1759020814661" class="icon" viewBox="0 0 1224 1024" version="1.1" xmlns="http://www.w3.org/2000/svg" p-id="5675" xmlns:xlink="http://www.w3.org/1999/xlink" width="306" height="256"><path d="M996.325855 284.728647c116.311149-21.120545 153.340732 81.052868 169.334741 117.02577 10.662672 23.983387 30.197106 55.189243 58.601123 93.619745-110.469991-47.409021-186.150128 9.845651-227.042587 171.759659-59.315745 234.866383-351.349651 321.971745-475.63057 242.934196-18.31217-11.645277-40.17566-13.213957-58.001975-20.039898-6.693038-2.562179-11.874043-4.834587-15.54737-6.812868-66.636255 20.885243-124.96286 63.88017-174.981991 128.986962C198.030706 1109.863489-109.341413 528.699915 43.313021 512.300664c214.828664 66.806196 352.543591 101.142877 413.142605 103.010042-98.948902-26.532494-175.27394-94.205821-228.975115-203.022161C173.779336 303.474383 170.999285 166.376034 219.138179 1.002213c59.701379 61.856136 132.202757 114.7904 217.501957 158.800613 127.956426 66.017498 126.381209 55.583591 252.627336 138.9568 84.164085 55.579234 126.810417 120.208885 127.941175 193.882417 41.870706-124.527115 101.576443-193.832306 179.117208-207.911217z m56.463796 95.417191c2.766979-7.161464-0.899813-14.837106-8.172391-17.153089-7.272579-2.318162-15.403574 1.588289-18.166196 8.736681-2.749549 7.15057 0.899813 14.837106 8.170213 17.16834 7.272579 2.315983 15.418826-1.599183 18.170553-8.751932z" fill="#ffffff" p-id="5676"></path></svg>