<?xml version="1.0" encoding="utf-8"?>
<!-- Generator: Adobe Illustrator 23.0.0, SVG Export Plug-In . SVG Version: 6.00 Build 0)  -->
<svg version="1.1" id="Layer_1" xmlns="http://www.w3.org/2000/svg" xmlns:xlink="http://www.w3.org/1999/xlink" x="0px" y="0px"
	 width="2500px" height="677px" viewBox="0 0 2500 677" style="enable-background:new 0 0 2500 677;" xml:space="preserve">
<style type="text/css">
	.st0{fill:#E50914;}
</style>
<path class="st0" d="M2354.3,327.7L2488,681.8c-39.4-5.6-78.8-12.7-118.9-19l-75.3-195.6l-77.4,179.5c-38-6.4-75.3-8.5-113.3-13.4
	l135.8-309.7L2115.7,6.1h114l69,177.3l73.9-177.3H2488L2354.3,327.7z M2025.6,6.1h-103.5v613.7c33.8,2.1,69,3.5,103.5,7.7V6.1z
	 M1832.8,612.8c-94.3-6.3-188.6-11.9-285-14.1V6.1h105.6v492.7c60.5,1.4,121.1,6.3,179.5,9.1V612.8z M1435.1,246.1v105.6h-144.3v240
	h-104.1V6.1h295.6v105.6h-191.4v134.5L1435.1,246.1L1435.1,246.1z M1009.3,111.6v485.7c-35.2,0-71.1,0-105.6,1.4V111.6H794.6V6.1
	H1119v105.6L1009.3,111.6z M680.6,357.3c-46.4,0-101.4,0-140.8,2.1v156.9c61.9-4.2,123.9-9.1,186.5-11.3v101.4l-292.1,23.2V6.1h292
	v105.6H539.8v142.2c40.8,0,103.5-2.1,140.8-2.1L680.6,357.3L680.6,357.3z M95.7,298.2V667c-38,4.2-71.8,9.2-107.7,14.8V6.1H88.7
	l137.2,383.6V6.1h105.6v632c-37.3,6.4-75.3,8.5-115.4,14.1L95.7,298.2z"/>
</svg>
